<svg xmlns="http://www.w3.org/2000/svg" xmlns:xlink="http://www.w3.org/1999/xlink" xmlns:lucid="lucid" width="1280" height="465"><g transform="translate(-340 -35)" lucid:page-tab-id="0_0"><path d="M480 400h320v80H480z" stroke="#5e5e5e" stroke-width="2" fill="#fff"/><use xlink:href="#a" transform="matrix(1,0,0,1,492,412) translate(111.02469135802468 31.77777777777778)"/><path d="M480 166c0-3.3 2.7-6 6-6h308c3.3 0 6 2.7 6 6v208c0 3.3-2.7 6-6 6H486c-3.3 0-6-2.7-6-6z" fill="#e5e5e5" fill-opacity=".35"/><path d="M498.16 160h8.1m8.1 0h8.1m8.12 0h8.1m8.1 0h8.1m8.12 0h8.1m8.1 0h8.12m8.1 0h8.1m8.1 0h8.12m8.1 0h8.1m8.1 0h8.12m8.1 0h8.1m8.1 0h8.12m8.1 0h8.1m8.1 0H717m8.1 0h8.1m8.12 0h8.1m8.1 0h8.1m8.12 0h8.1m8.1 0H794l3.03.82 2.15 2.15.82 3.03v4m0 8v8m0 8v8m0 8v8m0 8v8m0 8v8m0 8v8m0 8v8m0 8v8m0 8v8m0 8v8m0 8v8m0 8v8m0 8v4l-.82 3.03-2.15 2.15-3.03.82h-4.05m-8.1 0h-8.1m-8.12 0h-8.1m-8.1 0h-8.1m-8.12 0h-8.1m-8.1 0h-8.1m-8.1 0h-8.12m-8.1 0h-8.1m-8.1 0h-8.12m-8.1 0h-8.1m-8.1 0h-8.12m-8.1 0h-8.1m-8.1 0h-8.12m-8.1 0h-8.1m-8.1 0H563m-8.1 0h-8.1m-8.12 0h-8.1m-8.1 0h-8.1m-8.12 0h-8.1m-8.1 0H486l-3.03-.82-2.15-2.15L480 374v-4m0-8v-8m0-8v-8m0-8v-8m0-8v-8m0-8v-8m0-8v-8m0-8v-8m0-8v-8m0-8v-8m0-8v-8m0-8v-8m0-8v-8m0-8v-4l.82-3.03 2.15-2.15L486 160h4.05" stroke="#5e5e5e" stroke-width="2" fill="none"/><path d="M500 180h80v80h-80z" stroke="#5e5e5e" stroke-width="2" fill="#fff"/><use xlink:href="#b" transform="matrix(1,0,0,1,512,192) translate(11.827160493827169 43.60319999999999)"/><path d="M500 286c0-3.3 2.7-6 6-6h68c3.3 0 6 2.7 6 6v68c0 3.3-2.7 6-6 6h-68c-3.3 0-6-2.7-6-6z" stroke="#5e5e5e" stroke-width="2" fill="#fff"/><use xlink:href="#c" transform="matrix(1,0,0,1,512,292) translate(4.543209876543212 31.77777777777778)"/><path d="M540 278v-16" stroke="#5e5e5e" stroke-width="2" fill="none"/><path d="M541 279h-2v-1.03h2zM541 262.03h-2V261h2z" fill="#5e5e5e"/><path d="M700 180h80v80h-80z" stroke="#5e5e5e" stroke-width="2" fill="#fff"/><use xlink:href="#d" transform="matrix(1,0,0,1,712,192) translate(9.975308641975317 43.60319999999999)"/><path d="M700 286c0-3.3 2.7-6 6-6h68c3.3 0 6 2.7 6 6v68c0 3.3-2.7 6-6 6h-68c-3.3 0-6-2.7-6-6z" stroke="#5e5e5e" stroke-width="2" fill="#fff"/><use xlink:href="#e" transform="matrix(1,0,0,1,712,292) translate(4.543209876543212 31.77777777777778)"/><path d="M740 278v-16" stroke="#5e5e5e" stroke-width="2" fill="none"/><path d="M741 279h-2v-1.03h2zM741 262.03h-2V261h2z" fill="#5e5e5e"/><path d="M624 270.4c0 2.2-1.8 4-4 4s-4-1.8-4-4 1.8-4 4-4 4 1.8 4 4zM644 270.4c0 2.2-1.8 4-4 4s-4-1.8-4-4 1.8-4 4-4 4 1.8 4 4zM664 270.4c0 2.2-1.8 4-4 4s-4-1.8-4-4 1.8-4 4-4 4 1.8 4 4z" stroke="#5e5e5e" stroke-width="3" fill="#333"/><path d="M640 398v-16" stroke="#5e5e5e" stroke-width="2" fill="none"/><path d="M641 399h-2v-1.03h2zM641 382.03h-2V381h2z" fill="#5e5e5e"/><path d="M920 440c0 22.1-17.9 40-40 40s-40-17.9-40-40 17.9-40 40-40 40 17.9 40 40z" stroke="#5e5e5e" stroke-width="3" fill="#fff"/><use xlink:href="#f" transform="matrix(1,0,0,1,845,405) translate(23.16666666666667 36.916666666666664)"/><path d="M440 440c0 22.1-17.9 40-40 40s-40-17.9-40-40 17.9-40 40-40 40 17.9 40 40z" stroke="#5e5e5e" stroke-width="3" fill="#fff"/><use xlink:href="#g" transform="matrix(1,0,0,1,365,405) translate(22.7962962962963 36.916666666666664)"/><path d="M442.5 440h18" stroke="#5e5e5e" stroke-width="2" fill="none"/><path d="M442.53 441h-1.1l.07-.98-.03-1.02h1.06z" fill="#5e5e5e"/><path d="M475.76 440l-14.26 4.64v-9.28z" stroke="#5e5e5e" stroke-width="2" fill="#5e5e5e"/><path d="M802 440h18" stroke="#5e5e5e" stroke-width="2" fill="none"/><path d="M802.03 441H801v-2h1.03z" fill="#5e5e5e"/><path d="M835.26 440L821 444.64v-9.28z" stroke="#5e5e5e" stroke-width="2" fill="#5e5e5e"/><path d="M1160 400h320v80h-320z" stroke="#5e5e5e" stroke-width="2" fill="#fff"/><use xlink:href="#h" transform="matrix(1,0,0,1,1172,412) translate(102.44444444444444 31.77777777777778)"/><path d="M1160 166c0-3.3 2.7-6 6-6h308c3.3 0 6 2.7 6 6v208c0 3.3-2.7 6-6 6h-308c-3.3 0-6-2.7-6-6z" fill="#e5e5e5" fill-opacity=".35"/><path d="M1178.16 160h8.1m8.1 0h8.1m8.12 0h8.1m8.1 0h8.1m8.12 0h8.1m8.1 0h8.12m8.1 0h8.1m8.1 0h8.12m8.1 0h8.1m8.1 0h8.12m8.1 0h8.1m8.1 0h8.12m8.1 0h8.1m8.1 0h8.12m8.1 0h8.1m8.12 0h8.1m8.1 0h8.1m8.12 0h8.1m8.1 0h4.06l3.03.82 2.15 2.15.82 3.03v4m0 8v8m0 8v8m0 8v8m0 8v8m0 8v8m0 8v8m0 8v8m0 8v8m0 8v8m0 8v8m0 8v8m0 8v8m0 8v4l-.82 3.03-2.15 2.15-3.03.82h-4.05m-8.1 0h-8.1m-8.12 0h-8.1m-8.1 0h-8.1m-8.12 0h-8.1m-8.1 0h-8.1m-8.1 0h-8.12m-8.1 0h-8.1m-8.1 0h-8.12m-8.1 0h-8.1m-8.1 0h-8.12m-8.1 0h-8.1m-8.1 0h-8.12m-8.1 0h-8.1m-8.1 0H1243m-8.1 0h-8.1m-8.12 0h-8.1m-8.1 0h-8.1m-8.12 0h-8.1m-8.1 0H1166l-3.03-.82-2.15-2.15-.82-3.03v-4m0-8v-8m0-8v-8m0-8v-8m0-8v-8m0-8v-8m0-8v-8m0-8v-8m0-8v-8m0-8v-8m0-8v-8m0-8v-8m0-8v-8m0-8v-4l.82-3.03 2.15-2.15 3.03-.82h4.05" stroke="#5e5e5e" stroke-width="2" fill="none"/><path d="M1180 180h80v80h-80z" stroke="#5e5e5e" stroke-width="2" fill="#fff"/><use xlink:href="#i" transform="matrix(1,0,0,1,1192,192) translate(8.049382716049394 43.60319999999999)"/><path d="M1180 286c0-3.3 2.7-6 6-6h68c3.3 0 6 2.7 6 6v68c0 3.3-2.7 6-6 6h-68c-3.3 0-6-2.7-6-6z" stroke="#5e5e5e" stroke-width="2" fill="#fff"/><use xlink:href="#j" transform="matrix(1,0,0,1,1192,292) translate(5.037037037037045 17.666666666666664)"/><use xlink:href="#k" transform="matrix(1,0,0,1,1192,292) translate(39.85185185185185 17.666666666666664)"/><use xlink:href="#l" transform="matrix(1,0,0,1,1192,292) translate(16.641975308641978 40.77777777777777)"/><path d="M1220 278v-16" stroke="#5e5e5e" stroke-width="2" fill="none"/><path d="M1221 279h-2v-1.03h2zM1221 262.03h-2V261h2z" fill="#5e5e5e"/><path d="M1380 180h80v80h-80z" stroke="#5e5e5e" stroke-width="2" fill="#fff"/><use xlink:href="#m" transform="matrix(1,0,0,1,1392,192) translate(6.197530864197539 43.60319999999999)"/><path d="M1380 286c0-3.3 2.7-6 6-6h68c3.3 0 6 2.7 6 6v68c0 3.3-2.7 6-6 6h-68c-3.3 0-6-2.7-6-6z" stroke="#5e5e5e" stroke-width="2" fill="#fff"/><use xlink:href="#j" transform="matrix(1,0,0,1,1392,292) translate(5.037037037037045 17.666666666666664)"/><use xlink:href="#n" transform="matrix(1,0,0,1,1392,292) translate(39.85185185185185 17.666666666666664)"/><use xlink:href="#o" transform="matrix(1,0,0,1,1392,292) translate(16.641975308641978 40.77777777777777)"/><path d="M1420 278v-16" stroke="#5e5e5e" stroke-width="2" fill="none"/><path d="M1421 279h-2v-1.03h2zM1421 262.03h-2V261h2z" fill="#5e5e5e"/><path d="M1304 270.4c0 2.2-1.8 4-4 4s-4-1.8-4-4 1.8-4 4-4 4 1.8 4 4zM1324 270.4c0 2.2-1.8 4-4 4s-4-1.8-4-4 1.8-4 4-4 4 1.8 4 4zM1344 270.4c0 2.2-1.8 4-4 4s-4-1.8-4-4 1.8-4 4-4 4 1.8 4 4z" stroke="#5e5e5e" stroke-width="3" fill="#333"/><path d="M1320 398v-16" stroke="#5e5e5e" stroke-width="2" fill="none"/><path d="M1321 399h-2v-1.03h2zM1321 382.03h-2V381h2z" fill="#5e5e5e"/><path d="M1120 440c0 22.1-17.9 40-40 40s-40-17.9-40-40 17.9-40 40-40 40 17.9 40 40z" stroke="#5e5e5e" stroke-width="3" fill="#fff"/><use xlink:href="#g" transform="matrix(1,0,0,1,1045,405) translate(22.7962962962963 36.916666666666664)"/><path d="M1122.5 440h18" stroke="#5e5e5e" stroke-width="2" fill="none"/><path d="M1122.53 441h-1.1l.07-.98-.03-1.02h1.06z" fill="#5e5e5e"/><path d="M1155.76 440l-14.26 4.64v-9.28z" stroke="#5e5e5e" stroke-width="2" fill="#5e5e5e"/><path d="M1600 440c0 22.1-17.9 40-40 40s-40-17.9-40-40 17.9-40 40-40 40 17.9 40 40z" stroke="#5e5e5e" stroke-width="3" fill="#fff"/><use xlink:href="#f" transform="matrix(1,0,0,1,1525,405) translate(23.16666666666667 36.916666666666664)"/><path d="M1482 440h18" stroke="#5e5e5e" stroke-width="2" fill="none"/><path d="M1482.03 441H1481v-2h1.03z" fill="#5e5e5e"/><path d="M1515.26 440l-14.26 4.64v-9.28z" stroke="#5e5e5e" stroke-width="2" fill="#5e5e5e"/><path d="M460 55h360v90H460z" fill="#fff" fill-opacity="0"/><g><use xlink:href="#p" transform="matrix(1,0,0,1,465,60) translate(17.888888888888914 43.5)"/><use xlink:href="#q" transform="matrix(1,0,0,1,465,60) translate(121.33333333333336 43.5)"/><use xlink:href="#r" transform="matrix(1,0,0,1,465,60) translate(268.8333333333333 43.5)"/></g><path d="M1220 80h201.98v40H1220z" fill="#fff" fill-opacity="0"/><g><use xlink:href="#s" transform="matrix(1,0,0,1,1225,85) translate(55.00000000000001 19.75)"/></g><defs><path fill="#333" d="M185-189c-5-48-123-54-124 2 14 75 158 14 163 119 3 78-121 87-175 55-17-10-28-26-33-46l33-7c5 56 141 63 141-1 0-78-155-14-162-118-5-82 145-84 179-34 5 7 8 16 11 25" id="t"/><path fill="#333" d="M100-194c63 0 86 42 84 106H49c0 40 14 67 53 68 26 1 43-12 49-29l28 8c-11 28-37 45-77 45C44 4 14-33 15-96c1-61 26-98 85-98zm52 81c6-60-76-77-97-28-3 7-6 17-6 28h103" id="u"/><path fill="#333" d="M114-163C36-179 61-72 57 0H25l-1-190h30c1 12-1 29 2 39 6-27 23-49 58-41v29" id="v"/><path fill="#333" d="M108 0H70L1-190h34L89-25l56-165h34" id="w"/><path fill="#333" d="M24-231v-30h32v30H24zM24 0v-190h32V0H24" id="x"/><path fill="#333" d="M96-169c-40 0-48 33-48 73s9 75 48 75c24 0 41-14 43-38l32 2c-6 37-31 61-74 61-59 0-76-41-82-99-10-93 101-131 147-64 4 7 5 14 7 22l-32 3c-4-21-16-35-41-35" id="y"/><g id="a"><use transform="matrix(0.06172839506172839,0,0,0.06172839506172839,0,0)" xlink:href="#t"/><use transform="matrix(0.06172839506172839,0,0,0.06172839506172839,14.814814814814813,0)" xlink:href="#u"/><use transform="matrix(0.06172839506172839,0,0,0.06172839506172839,27.160493827160494,0)" xlink:href="#v"/><use transform="matrix(0.06172839506172839,0,0,0.06172839506172839,34.50617283950617,0)" xlink:href="#w"/><use transform="matrix(0.06172839506172839,0,0,0.06172839506172839,45.61728395061728,0)" xlink:href="#x"/><use transform="matrix(0.06172839506172839,0,0,0.06172839506172839,50.49382716049382,0)" xlink:href="#y"/><use transform="matrix(0.06172839506172839,0,0,0.06172839506172839,61.60493827160494,0)" xlink:href="#u"/></g><path fill="#333" d="M23-257c46-16 66 21 79 56L177 0h-34L96-139C78-91 56-46 35 0H2l79-170c-12-25-14-73-52-64" id="z"/><path fill="#333" d="M27 0v-27h64v-190l-56 39v-29l58-41h29v221h61V0H27" id="A"/><g id="b"><use transform="matrix(0.11111111111111108,0,0,0.11111111111111108,0,0)" xlink:href="#z"/><use transform="matrix(0.06172839506172834,0,0,0.06172839506172834,19.999999999999993,0)" xlink:href="#A"/></g><path fill="#333" d="M162-168c12 23 27 46 26 82 0 57-30 90-86 90-59 0-87-37-87-96 0-65 38-98 102-98h100v23zM101-20c73 3 59-110 32-147-56-3-84 22-84 75-1 43 14 70 52 72" id="B"/><path fill="#333" d="M87 75C49 33 22-17 22-94c0-76 28-126 65-167h31c-38 41-64 92-64 168S80 34 118 75H87" id="C"/><path fill="#333" d="M33-261c38 41 65 92 65 168S71 34 33 75H2C39 34 66-17 66-93S39-220 2-261h31" id="D"/><g id="c"><use transform="matrix(0.06172839506172839,0,0,0.06172839506172839,0,0)" xlink:href="#B"/><use transform="matrix(0.06172839506172839,0,0,0.06172839506172839,13.703703703703702,0)" xlink:href="#C"/><use transform="matrix(0.06172839506172839,0,0,0.06172839506172839,21.04938271604938,0)" xlink:href="#z"/><use transform="matrix(0.03703703703703702,0,0,0.03703703703703702,32.160493827160494,0)" xlink:href="#A"/><use transform="matrix(0.06172839506172839,0,0,0.06172839506172839,39.5679012345679,0)" xlink:href="#D"/></g><path fill="#333" d="M117-194c89-4 53 116 60 194h-32v-121c0-31-8-49-39-48C34-167 62-67 57 0H25l-1-190h30c1 10-1 24 2 32 11-22 29-35 61-36" id="E"/><g id="d"><use transform="matrix(0.11111111111111108,0,0,0.11111111111111108,0,0)" xlink:href="#z"/><use transform="matrix(0.08024691358024688,0,0,0.08024691358024688,19.999999999999993,0)" xlink:href="#E"/></g><g id="e"><use transform="matrix(0.06172839506172839,0,0,0.06172839506172839,0,0)" xlink:href="#B"/><use transform="matrix(0.06172839506172839,0,0,0.06172839506172839,13.703703703703702,0)" xlink:href="#C"/><use transform="matrix(0.06172839506172839,0,0,0.06172839506172839,21.04938271604938,0)" xlink:href="#z"/><use transform="matrix(0.03703703703703702,0,0,0.03703703703703702,32.160493827160494,0)" xlink:href="#E"/><use transform="matrix(0.06172839506172839,0,0,0.06172839506172839,39.5679012345679,0)" xlink:href="#D"/></g><path fill="#333" d="M233-177c-1 41-23 64-60 70L243 0h-38l-65-103H63V0H30v-248c88 3 205-21 203 71zM63-129c60-2 137 13 137-47 0-61-80-42-137-45v92" id="F"/><path fill="#333" d="M135-143c-3-34-86-38-87 0 15 53 115 12 119 90S17 21 10-45l28-5c4 36 97 45 98 0-10-56-113-15-118-90-4-57 82-63 122-42 12 7 21 19 24 35" id="G"/><g id="f"><use transform="matrix(0.03703703703703702,0,0,0.03703703703703702,0,0)" xlink:href="#F"/><use transform="matrix(0.03703703703703702,0,0,0.03703703703703702,9.592592592592588,0)" xlink:href="#u"/><use transform="matrix(0.03703703703703702,0,0,0.03703703703703702,16.999999999999993,0)" xlink:href="#G"/></g><path fill="#333" d="M145-31C134-9 116 4 85 4 32 4 16-35 15-94c0-59 17-99 70-100 32-1 48 14 60 33 0-11-1-24 2-32h30l-1 268h-32zM93-21c41 0 51-33 51-76s-8-73-50-73c-40 0-46 35-46 75s5 74 45 74" id="H"/><g id="g"><use transform="matrix(0.03703703703703702,0,0,0.03703703703703702,0,0)" xlink:href="#F"/><use transform="matrix(0.03703703703703702,0,0,0.03703703703703702,9.592592592592588,0)" xlink:href="#u"/><use transform="matrix(0.03703703703703702,0,0,0.03703703703703702,16.999999999999993,0)" xlink:href="#H"/></g><path fill="#333" d="M127-220V0H93v-220H8v-28h204v28h-85" id="I"/><path fill="#333" d="M210-169c-67 3-38 105-44 169h-31v-121c0-29-5-50-35-48C34-165 62-65 56 0H25l-1-190h30c1 10-1 24 2 32 10-44 99-50 107 0 11-21 27-35 58-36 85-2 47 119 55 194h-31v-121c0-29-5-49-35-48" id="J"/><path fill="#333" d="M115-194c55 1 70 41 70 98S169 2 115 4C84 4 66-9 55-30l1 105H24l-1-265h31l2 30c10-21 28-34 59-34zm-8 174c40 0 45-34 45-75s-6-73-45-74c-42 0-51 32-51 76 0 43 10 73 51 73" id="K"/><path fill="#333" d="M100-194c62-1 85 37 85 99 1 63-27 99-86 99S16-35 15-95c0-66 28-99 85-99zM99-20c44 1 53-31 53-75 0-43-8-75-51-75s-53 32-53 75 10 74 51 75" id="L"/><path fill="#333" d="M141-36C126-15 110 5 73 4 37 3 15-17 15-53c-1-64 63-63 125-63 3-35-9-54-41-54-24 1-41 7-42 31l-33-3c5-37 33-52 76-52 45 0 72 20 72 64v82c-1 20 7 32 28 27v20c-31 9-61-2-59-35zM48-53c0 20 12 33 32 33 41-3 63-29 60-74-43 2-92-5-92 41" id="M"/><path fill="#333" d="M24 0v-261h32V0H24" id="N"/><g id="h"><use transform="matrix(0.06172839506172839,0,0,0.06172839506172839,0,0)" xlink:href="#I"/><use transform="matrix(0.06172839506172839,0,0,0.06172839506172839,11.049382716049381,0)" xlink:href="#u"/><use transform="matrix(0.06172839506172839,0,0,0.06172839506172839,23.39506172839506,0)" xlink:href="#J"/><use transform="matrix(0.06172839506172839,0,0,0.06172839506172839,41.85185185185185,0)" xlink:href="#K"/><use transform="matrix(0.06172839506172839,0,0,0.06172839506172839,54.197530864197525,0)" xlink:href="#L"/><use transform="matrix(0.06172839506172839,0,0,0.06172839506172839,66.5432098765432,0)" xlink:href="#v"/><use transform="matrix(0.06172839506172839,0,0,0.06172839506172839,73.88888888888889,0)" xlink:href="#M"/><use transform="matrix(0.06172839506172839,0,0,0.06172839506172839,86.23456790123457,0)" xlink:href="#N"/></g><path fill="#333" d="M223 0c-34 10-63 1-63-40v-127H89c2 62-6 119-17 167H39c12-48 20-106 19-167-17-1-32 2-44 6v-24c62-12 148-2 219-5v23h-42v120c-1 21 11 31 32 24V0" id="O"/><g id="i"><use transform="matrix(0.11111111111111108,0,0,0.11111111111111108,0,0)" xlink:href="#O"/><use transform="matrix(0.06172839506172834,0,0,0.06172839506172834,27.555555555555546,0)" xlink:href="#A"/></g><path fill="#333" d="M59-47c-2 24 18 29 38 22v24C64 9 27 4 27-40v-127H5v-23h24l9-43h21v43h35v23H59v120" id="P"/><g id="j"><use transform="matrix(0.03703703703703702,0,0,0.03703703703703702,0,0)" xlink:href="#t"/><use transform="matrix(0.03703703703703702,0,0,0.03703703703703702,8.888888888888886,0)" xlink:href="#P"/><use transform="matrix(0.03703703703703702,0,0,0.03703703703703702,12.592592592592586,0)" xlink:href="#M"/><use transform="matrix(0.03703703703703702,0,0,0.03703703703703702,19.999999999999993,0)" xlink:href="#P"/><use transform="matrix(0.03703703703703702,0,0,0.03703703703703702,23.703703703703695,0)" xlink:href="#u"/></g><path fill="#333" d="M101-234c-31-9-42 10-38 44h38v23H63V0H32v-167H5v-23h27c-7-52 17-82 69-68v24" id="Q"/><g id="k"><use transform="matrix(0.03703703703703702,0,0,0.03703703703703702,0,0)" xlink:href="#L"/><use transform="matrix(0.03703703703703702,0,0,0.03703703703703702,7.407407407407404,0)" xlink:href="#Q"/></g><g id="l"><use transform="matrix(0.06172839506172839,0,0,0.06172839506172839,0,0)" xlink:href="#O"/><use transform="matrix(0.03703703703703702,0,0,0.03703703703703702,15.30864197530864,0)" xlink:href="#A"/></g><g id="m"><use transform="matrix(0.11111111111111108,0,0,0.11111111111111108,0,0)" xlink:href="#O"/><use transform="matrix(0.08024691358024688,0,0,0.08024691358024688,27.555555555555546,0)" xlink:href="#E"/></g><g id="n"><use transform="matrix(0.03703703703703702,0,0,0.03703703703703702,0,0)" xlink:href="#L"/><use transform="matrix(0.03703703703703702,0,0,0.03703703703703702,7.407407407407404,0)" xlink:href="#Q"/></g><g id="o"><use transform="matrix(0.06172839506172839,0,0,0.06172839506172839,0,0)" xlink:href="#O"/><use transform="matrix(0.03703703703703702,0,0,0.03703703703703702,15.30864197530864,0)" xlink:href="#E"/></g><path fill="#333" d="M85-194c31 0 48 13 60 33l-1-100h32l1 261h-30c-2-10 0-23-3-31C134-8 116 4 85 4 32 4 16-35 15-94c0-66 23-100 70-100zm9 24c-40 0-46 34-46 75 0 40 6 74 45 74 42 0 51-32 51-76 0-42-9-74-50-73" id="R"/><path fill="#333" d="M68-38c1 34 0 65-14 84H32c9-13 17-26 17-46H33v-38h35" id="S"/><g id="p"><use transform="matrix(0.055555555555555546,0,0,0.055555555555555546,0,0)" xlink:href="#I"/><use transform="matrix(0.055555555555555546,0,0,0.055555555555555546,11.444444444444443,0)" xlink:href="#v"/><use transform="matrix(0.055555555555555546,0,0,0.055555555555555546,18.055555555555554,0)" xlink:href="#M"/><use transform="matrix(0.055555555555555546,0,0,0.055555555555555546,29.16666666666666,0)" xlink:href="#R"/><use transform="matrix(0.055555555555555546,0,0,0.055555555555555546,40.27777777777777,0)" xlink:href="#x"/><use transform="matrix(0.055555555555555546,0,0,0.055555555555555546,44.66666666666666,0)" xlink:href="#P"/><use transform="matrix(0.055555555555555546,0,0,0.055555555555555546,50.222222222222214,0)" xlink:href="#x"/><use transform="matrix(0.055555555555555546,0,0,0.055555555555555546,54.6111111111111,0)" xlink:href="#L"/><use transform="matrix(0.055555555555555546,0,0,0.055555555555555546,65.72222222222221,0)" xlink:href="#E"/><use transform="matrix(0.055555555555555546,0,0,0.055555555555555546,76.83333333333333,0)" xlink:href="#M"/><use transform="matrix(0.055555555555555546,0,0,0.055555555555555546,87.94444444444444,0)" xlink:href="#N"/><use transform="matrix(0.055555555555555546,0,0,0.055555555555555546,92.33333333333333,0)" xlink:href="#S"/></g><path fill="#333" d="M16-82v-28h88v28H16" id="T"/><g id="q"><use transform="matrix(0.055555555555555546,0,0,0.055555555555555546,0,0)" xlink:href="#G"/><use transform="matrix(0.055555555555555546,0,0,0.055555555555555546,9.999999999999998,0)" xlink:href="#u"/><use transform="matrix(0.055555555555555546,0,0,0.055555555555555546,21.111111111111107,0)" xlink:href="#v"/><use transform="matrix(0.055555555555555546,0,0,0.055555555555555546,27.722222222222218,0)" xlink:href="#w"/><use transform="matrix(0.055555555555555546,0,0,0.055555555555555546,37.722222222222214,0)" xlink:href="#x"/><use transform="matrix(0.055555555555555546,0,0,0.055555555555555546,42.1111111111111,0)" xlink:href="#y"/><use transform="matrix(0.055555555555555546,0,0,0.055555555555555546,52.1111111111111,0)" xlink:href="#u"/><use transform="matrix(0.055555555555555546,0,0,0.055555555555555546,63.222222222222214,0)" xlink:href="#T"/><use transform="matrix(0.055555555555555546,0,0,0.055555555555555546,69.83333333333331,0)" xlink:href="#L"/><use transform="matrix(0.055555555555555546,0,0,0.055555555555555546,80.94444444444443,0)" xlink:href="#v"/><use transform="matrix(0.055555555555555546,0,0,0.055555555555555546,87.55555555555554,0)" xlink:href="#x"/><use transform="matrix(0.055555555555555546,0,0,0.055555555555555546,91.94444444444443,0)" xlink:href="#u"/><use transform="matrix(0.055555555555555546,0,0,0.055555555555555546,103.05555555555554,0)" xlink:href="#E"/><use transform="matrix(0.055555555555555546,0,0,0.055555555555555546,114.16666666666664,0)" xlink:href="#P"/><use transform="matrix(0.055555555555555546,0,0,0.055555555555555546,119.72222222222223,0)" xlink:href="#u"/><use transform="matrix(0.055555555555555546,0,0,0.055555555555555546,130.83333333333331,0)" xlink:href="#R"/></g><path fill="#333" d="M179-190L93 31C79 59 56 82 12 73V49c39 6 53-20 64-50L1-190h34L92-34l54-156h33" id="U"/><g id="r"><use transform="matrix(0.055555555555555546,0,0,0.055555555555555546,0,0)" xlink:href="#G"/><use transform="matrix(0.055555555555555546,0,0,0.055555555555555546,9.999999999999998,0)" xlink:href="#U"/><use transform="matrix(0.055555555555555546,0,0,0.055555555555555546,19.999999999999996,0)" xlink:href="#G"/><use transform="matrix(0.055555555555555546,0,0,0.055555555555555546,29.999999999999993,0)" xlink:href="#P"/><use transform="matrix(0.055555555555555546,0,0,0.055555555555555546,35.55555555555555,0)" xlink:href="#u"/><use transform="matrix(0.055555555555555546,0,0,0.055555555555555546,46.66666666666666,0)" xlink:href="#J"/></g><g id="s"><use transform="matrix(0.055555555555555546,0,0,0.055555555555555546,0,0)" xlink:href="#I"/><use transform="matrix(0.055555555555555546,0,0,0.055555555555555546,9.944444444444443,0)" xlink:href="#u"/><use transform="matrix(0.055555555555555546,0,0,0.055555555555555546,21.05555555555555,0)" xlink:href="#J"/><use transform="matrix(0.055555555555555546,0,0,0.055555555555555546,37.66666666666666,0)" xlink:href="#K"/><use transform="matrix(0.055555555555555546,0,0,0.055555555555555546,48.777777777777764,0)" xlink:href="#L"/><use transform="matrix(0.055555555555555546,0,0,0.055555555555555546,59.888888888888864,0)" xlink:href="#v"/><use transform="matrix(0.055555555555555546,0,0,0.055555555555555546,66.49999999999999,0)" xlink:href="#M"/><use transform="matrix(0.055555555555555546,0,0,0.055555555555555546,77.6111111111111,0)" xlink:href="#N"/></g></defs></g></svg>