<svg xmlns="http://www.w3.org/2000/svg" viewBox="0 0 512 512" style="enable-background:new 0 0 512 512" xml:space="preserve"><path style="fill:#2d3a3e" d="M512 256c0 45.265-11.745 87.782-32.36 124.677v.01a256.555 256.555 0 0 1-34.732 48.075c-34.994 38.254-81.45 65.839-133.935 77.312C293.261 509.962 274.871 512 256 512s-37.271-2.038-54.983-5.925c-52.475-11.483-98.931-39.058-133.914-77.302a255.005 255.005 0 0 1-21.494-26.896 252.385 252.385 0 0 1-13.249-21.191v-.01C11.745 343.782 0 301.265 0 256 0 114.615 114.615 0 256 0s256 114.615 256 256z"/><path style="fill:#004284" d="M479.765 181.906v195.082a55.06 55.06 0 0 1-.125 3.699 256.48 256.48 0 0 1-34.732 48.076l-133.935 77.312C293.261 509.962 274.871 512 256 512s-37.271-2.038-54.983-5.925l-110.07-63.53-23.845-13.772a256.11 256.11 0 0 1-34.743-48.086 54.405 54.405 0 0 1-.125-3.699V181.906c0-19.581 10.459-37.669 27.397-47.47l168.97-97.541a54.731 54.731 0 0 1 54.794 0l135.158 78.033 33.813 19.508c16.939 9.802 27.399 27.889 27.399 47.47z"/><path style="fill:#6399d4" d="M472.837 155.261 45.61 401.878a252.385 252.385 0 0 1-13.249-21.191v-.01a53.887 53.887 0 0 1-.125-3.688V181.906a54.842 54.842 0 0 1 27.397-47.47l168.97-97.541a54.712 54.712 0 0 1 54.784 0l135.168 78.033 33.813 19.508a54.908 54.908 0 0 1 20.469 20.825z"/><path style="fill:#00579e" d="M479.765 181.906v195.082c0 1.233-.042 2.466-.125 3.688v.01a256.555 256.555 0 0 1-12.612 20.281L257.108 279.79l215.73-124.531a54.702 54.702 0 0 1 6.927 26.647z"/><path style="fill:#f2f2f2" d="M321.663 317.048c-12.804 23.061-37.398 38.664-65.649 38.664-41.447 0-75.046-33.599-75.046-75.046s33.599-75.046 75.046-75.046c27.704 0 51.891 15.009 64.899 37.335l66.353-38.305c-26.234-45.23-75.201-75.64-131.252-75.64-83.754 0-151.654 67.885-151.654 151.654 0 83.754 67.901 151.654 151.654 151.654 56.597 0 105.955-31.003 132.002-76.968l-66.353-38.302z"/><path style="fill:#f2f2f2" d="M404.902 269.756h-17.241v-17.241h-16.718v17.241h-17.241v16.718h17.241v17.241h16.718v-17.241h17.241zm62.694 0h-17.241v-17.241h-16.718v17.241h-17.241v16.718h17.241v17.241h16.718v-17.241h17.241z"/></svg>