<?xml version="1.0" encoding="iso-8859-1"?>
<!-- Generator: Adobe Illustrator 19.0.0, SVG Export Plug-In . SVG Version: 6.00 Build 0)  -->
<svg version="1.1" id="Capa_1" xmlns="http://www.w3.org/2000/svg" xmlns:xlink="http://www.w3.org/1999/xlink" x="0px" y="0px"
	 viewBox="0 0 512 512" style="enable-background:new 0 0 512 512;" xml:space="preserve">
<path style="fill:#2D3A3E;" d="M512,256c0,45.265-11.745,87.782-32.36,124.677c0,0.01,0,0.01,0,0.01
	c-3.897,6.969-8.108,13.74-12.612,20.281c-6.729,9.78-14.127,19.069-22.12,27.794c-34.994,38.254-81.45,65.839-133.935,77.312
	C293.261,509.962,274.871,512,256,512s-37.271-2.038-54.983-5.925c-52.475-11.483-98.931-39.058-133.914-77.302
	c-7.753-8.464-14.942-17.45-21.494-26.896c-4.754-6.823-9.174-13.897-13.249-21.191c0-0.01,0-0.01,0-0.01
	C11.745,343.782,0,301.265,0,256C0,114.615,114.615,0,256,0S512,114.615,512,256z"/>
<path style="fill:#004284;" d="M479.765,181.906v195.082c0,1.233-0.042,2.466-0.125,3.699
	c-9.707,17.377-21.389,33.499-34.732,48.076l-133.935,77.312C293.261,509.962,274.871,512,256,512s-37.271-2.038-54.983-5.925
	l-110.07-63.53l-23.845-13.772c-13.354-14.576-25.036-30.71-34.743-48.086c-0.084-1.233-0.125-2.466-0.125-3.699V181.906
	c0-19.581,10.459-37.669,27.397-47.47l168.97-97.541c16.959-9.801,37.836-9.801,54.794,0l135.158,78.033l33.813,19.508
	C469.305,144.238,479.765,162.325,479.765,181.906z"/>
<path style="fill:#6399D4;" d="M472.837,155.261L45.61,401.878c-4.754-6.823-9.174-13.897-13.249-21.191c0-0.01,0-0.01,0-0.01
	c-0.084-1.223-0.125-2.456-0.125-3.688V181.906c0-19.581,10.449-37.669,27.397-47.47l168.97-97.541
	c16.948-9.801,37.825-9.801,54.784,0l135.168,78.033l33.813,19.508C461.093,139.483,468.093,146.745,472.837,155.261z"/>
<path style="fill:#00579E;" d="M479.765,181.906v195.082c0,1.233-0.042,2.466-0.125,3.688c0,0.01,0,0.01,0,0.01
	c-3.897,6.969-8.108,13.74-12.612,20.281l-209.92-121.177l215.73-124.531C477.309,163.286,479.765,172.419,479.765,181.906z"/>
<g>
	<path style="fill:#F2F2F2;" d="M321.663,317.048c-12.804,23.061-37.398,38.664-65.649,38.664
		c-41.447,0-75.046-33.599-75.046-75.046s33.599-75.046,75.046-75.046c27.704,0,51.891,15.009,64.899,37.335l66.353-38.305
		c-26.234-45.23-75.201-75.64-131.252-75.64c-83.754,0-151.654,67.885-151.654,151.654c0,83.754,67.901,151.654,151.654,151.654
		c56.597,0,105.955-31.003,132.002-76.968L321.663,317.048z"/>
	<polygon style="fill:#F2F2F2;" points="404.902,269.756 387.661,269.756 387.661,252.515 370.943,252.515 370.943,269.756 
		353.702,269.756 353.702,286.474 370.943,286.474 370.943,303.715 387.661,303.715 387.661,286.474 404.902,286.474 	"/>
	<polygon style="fill:#F2F2F2;" points="467.596,269.756 450.355,269.756 450.355,252.515 433.637,252.515 433.637,269.756 
		416.396,269.756 416.396,286.474 433.637,286.474 433.637,303.715 450.355,303.715 450.355,286.474 467.596,286.474 	"/>
</g>
<g>
</g>
<g>
</g>
<g>
</g>
<g>
</g>
<g>
</g>
<g>
</g>
<g>
</g>
<g>
</g>
<g>
</g>
<g>
</g>
<g>
</g>
<g>
</g>
<g>
</g>
<g>
</g>
<g>
</g>
</svg>
