<svg id="Capa_1" enable-background="new 0 0 512 512" height="512" viewBox="0 0 512 512" width="512" xmlns="http://www.w3.org/2000/svg"><g><path d="m368.996 512h-352.49c-5.78 0-10.465-4.686-10.465-10.465v-491.07c-.001-5.779 4.685-10.465 10.465-10.465h352.491c5.78 0 10.465 4.686 10.465 10.465v491.069c0 5.78-4.686 10.466-10.466 10.466z" fill="#f9f6f6"/><path d="m368.996 0h-21.316c5.78 0 10.466 4.686 10.466 10.466v491.069c0 5.78-4.686 10.466-10.466 10.466h21.316c5.78 0 10.465-4.686 10.465-10.466v-491.069c.001-5.78-4.685-10.466-10.465-10.466z" fill="#dddaec"/><path d="m326.623 93.123h-248.888c-4.929 0-8.925-3.996-8.925-8.925v-28.126c0-4.929 3.996-8.925 8.925-8.925h248.888c4.929 0 8.925 3.996 8.925 8.925v28.126c0 4.929-3.995 8.925-8.925 8.925z" fill="#df73c1"/><path d="m326.623 47.146h-20.954c4.929 0 8.925 3.996 8.925 8.925v28.126c0 4.929-3.996 8.925-8.925 8.925h20.954c4.929 0 8.925-3.996 8.925-8.925v-28.125c0-4.929-3.996-8.926-8.925-8.926z" fill="#dd4fb1"/><g><g><path d="m318.916 142.042h-233.473c-4.266 0-7.724-3.458-7.724-7.724s3.458-7.724 7.724-7.724h233.473c4.266 0 7.724 3.458 7.724 7.724s-3.458 7.724-7.724 7.724z" fill="#26457d"/></g><g><path d="m294.2 200.508h-208.757c-4.266 0-7.724-3.458-7.724-7.724s3.458-7.724 7.724-7.724h208.757c4.266 0 7.724 3.458 7.724 7.724s-3.458 7.724-7.724 7.724z" fill="#26457d"/></g><g><path d="m318.916 258.973h-233.473c-4.266 0-7.724-3.458-7.724-7.724s3.458-7.724 7.724-7.724h233.473c4.266 0 7.724 3.458 7.724 7.724s-3.458 7.724-7.724 7.724z" fill="#26457d"/></g><g><path d="m318.916 317.438h-233.473c-4.266 0-7.724-3.458-7.724-7.724s3.458-7.724 7.724-7.724h233.473c4.266 0 7.724 3.458 7.724 7.724s-3.458 7.724-7.724 7.724z" fill="#26457d"/></g><g><path d="m318.916 375.904h-233.473c-4.266 0-7.724-3.458-7.724-7.724s3.458-7.724 7.724-7.724h233.473c4.266 0 7.724 3.458 7.724 7.724s-3.458 7.724-7.724 7.724z" fill="#26457d"/></g><g><path d="m318.916 434.37h-233.473c-4.266 0-7.724-3.458-7.724-7.724s3.458-7.724 7.724-7.724h233.473c4.266 0 7.724 3.458 7.724 7.724s-3.458 7.724-7.724 7.724z" fill="#26457d"/></g></g><path d="m355.238 213.294c-41.217-41.217-108.279-40.836-149.018 1.142-39.306 40.501-39.162 105.595.314 145.931 33.548 34.279 84.735 40.529 124.723 18.763 4.019-2.188 8.987-1.533 12.222 1.703l39.855 39.855 31.405-31.405-39.852-39.852c-3.243-3.243-3.885-8.219-1.694-12.247 21.578-39.664 15.597-90.338-17.955-123.89z" fill="#9dc6fb"/><path d="m364.745 375.81h44.414v34.181h-44.414z" fill="#80b4fb" transform="matrix(.707 -.707 .707 .707 -164.487 388.694)"/><circle cx="281.292" cy="287.241" fill="#dddaec" r="73.059"/><path d="m229.631 235.58c-2.835 2.835-5.375 5.85-7.647 9 28.554-20.591 68.625-18.05 94.322 7.647s28.237 65.767 7.646 94.322c3.15-2.271 6.165-4.812 9-7.647 28.531-28.531 28.531-74.79 0-103.321s-74.789-28.532-103.321-.001z" fill="#d0cee7"/><path d="m490.922 496.871c-20.05 20.05-52.558 20.05-72.608 0l-50.745-50.745c-8.039-8.039-8.039-21.073 0-29.111l43.496-43.496c8.039-8.039 21.073-8.039 29.111 0l50.745 50.745c20.051 20.05 20.051 52.557.001 72.607z" fill="#26457d"/><path d="m411.066 373.518-18.66 18.66c8.039-8.039 21.073-8.039 29.112 0l50.745 50.745c16.824 16.824 19.524 42.416 8.114 62.062 3.768-2.188 7.319-4.888 10.546-8.114 20.05-20.05 20.05-52.558 0-72.608l-50.745-50.745c-8.04-8.038-21.073-8.039-29.112 0z" fill="#21386b"/><g><path d="m464.011 477.683c-1.976 0-3.953-.754-5.461-2.262l-11.045-11.044c-3.017-3.016-3.017-7.907-.001-10.923 3.017-3.017 7.908-3.016 10.923-.001l11.045 11.044c3.017 3.016 3.017 7.907.001 10.923-1.509 1.509-3.486 2.263-5.462 2.263z" fill="#9dc6fb"/></g><g fill="#21386b"><path d="m318.916 246.966h-98.594c-3.235 4.886-5.809 10.077-7.745 15.447h106.339c4.266 0 7.724-3.458 7.724-7.724 0-4.265-3.458-7.723-7.724-7.723z"/><path d="m318.916 298.551h-109.792c.819 5.256 2.213 10.437 4.182 15.448h105.611c4.266 0 7.724-3.458 7.724-7.724-.001-4.266-3.459-7.724-7.725-7.724z"/></g></g></svg>