<svg height="512" width="512" xmlns="http://www.w3.org/2000/svg"><path d="M368.996 512H16.506c-5.78 0-10.465-4.686-10.465-10.465V10.465C6.04 4.686 10.726 0 16.506 0h352.491c5.78 0 10.465 4.686 10.465 10.465v491.069c0 5.78-4.686 10.466-10.466 10.466z" fill="#f9f6f6"/><path d="M368.996 0H347.68c5.78 0 10.466 4.686 10.466 10.466v491.069c0 5.78-4.686 10.466-10.466 10.466h21.316c5.78 0 10.465-4.686 10.465-10.466V10.466C379.462 4.686 374.776 0 368.996 0z" fill="#dddaec"/><path d="M326.623 93.123H77.735a8.925 8.925 0 0 1-8.925-8.925V56.072a8.925 8.925 0 0 1 8.925-8.925h248.888a8.925 8.925 0 0 1 8.925 8.925v28.126a8.925 8.925 0 0 1-8.925 8.925z" fill="#df73c1"/><path d="M326.623 47.146h-20.954a8.925 8.925 0 0 1 8.925 8.925v28.126a8.925 8.925 0 0 1-8.925 8.925h20.954a8.925 8.925 0 0 0 8.925-8.925V56.072a8.926 8.926 0 0 0-8.925-8.926z" fill="#dd4fb1"/><path d="M318.916 142.042H85.443a7.724 7.724 0 1 1 0-15.448h233.473a7.724 7.724 0 1 1 0 15.448zM294.2 200.508H85.443a7.724 7.724 0 1 1 0-15.448H294.2a7.724 7.724 0 1 1 0 15.448zM318.916 258.973H85.443a7.724 7.724 0 1 1 0-15.448h233.473a7.724 7.724 0 1 1 0 15.448zM318.916 317.438H85.443a7.724 7.724 0 1 1 0-15.448h233.473a7.724 7.724 0 1 1 0 15.448zM318.916 375.904H85.443a7.724 7.724 0 1 1 0-15.448h233.473a7.724 7.724 0 1 1 0 15.448zM318.916 434.37H85.443a7.724 7.724 0 1 1 0-15.448h233.473a7.724 7.724 0 1 1 0 15.448z" fill="#26457d"/><path d="M355.238 213.294c-41.217-41.217-108.279-40.836-149.018 1.142-39.306 40.501-39.162 105.595.314 145.931 33.548 34.279 84.735 40.529 124.723 18.763 4.019-2.188 8.987-1.533 12.222 1.703l39.855 39.855 31.405-31.405-39.852-39.852c-3.243-3.243-3.885-8.219-1.694-12.247 21.578-39.664 15.597-90.338-17.955-123.89z" fill="#9dc6fb"/><path d="m359.085 396.517 31.401-31.4 24.166 24.165-31.4 31.4z" fill="#80b4fb"/><circle cx="281.292" cy="287.241" fill="#dddaec" r="73.059"/><path d="M229.631 235.58a73.56 73.56 0 0 0-7.647 9c28.554-20.591 68.625-18.05 94.322 7.647s28.237 65.767 7.646 94.322a73.473 73.473 0 0 0 9-7.647c28.531-28.531 28.531-74.79 0-103.321s-74.789-28.532-103.321-.001z" fill="#d0cee7"/><path d="M490.922 496.871c-20.05 20.05-52.558 20.05-72.608 0l-50.745-50.745c-8.039-8.039-8.039-21.073 0-29.111l43.496-43.496c8.039-8.039 21.073-8.039 29.111 0l50.745 50.745c20.051 20.05 20.051 52.557.001 72.607z" fill="#26457d"/><path d="m411.066 373.518-18.66 18.66c8.039-8.039 21.073-8.039 29.112 0l50.745 50.745c16.824 16.824 19.524 42.416 8.114 62.062a51.415 51.415 0 0 0 10.546-8.114c20.05-20.05 20.05-52.558 0-72.608l-50.745-50.745c-8.04-8.038-21.073-8.039-29.112 0z" fill="#21386b"/><path d="M464.011 477.683a7.7 7.7 0 0 1-5.461-2.262l-11.045-11.044a7.723 7.723 0 1 1 10.922-10.924l11.045 11.044a7.723 7.723 0 0 1-5.461 13.186z" fill="#9dc6fb"/><g fill="#21386b"><path d="M318.916 246.966h-98.594a72.477 72.477 0 0 0-7.745 15.447h106.339a7.724 7.724 0 1 0 0-15.447zM318.916 298.551H209.124a72.938 72.938 0 0 0 4.182 15.448h105.611a7.724 7.724 0 1 0-.001-15.448z"/></g></svg>