<svg xmlns="http://www.w3.org/2000/svg" xmlns:xlink="http://www.w3.org/1999/xlink" xmlns:lucid="lucid" width="680" height="1100"><g transform="translate(-360 -60)" lucid:page-tab-id="0_0"><path d="M0 0h1760v1360H0z" fill="#fff"/><path d="M700 260h320v560H700z" fill-opacity="0"/><path d="M710.16 260h10.16m5.08 0h10.16m5.07 0h10.16m5.07 0h10.16m5.08 0h10.17m5.08 0h10.16m5.1 0h10.15m5.08 0h10.15m5.08 0h10.16m5.08 0h10.16m5.08 0h10.16m5.08 0h10.16m5.08 0h10.15m5.08 0h10.16m5.1 0h10.15m5.08 0h10.16m5.07 0h10.16m5.08 0h10.17m5.07 0h10.16m5.08 0h10.16m5.08 0h5.08v5.05m0 5.04v10.08m0 5.05v10.1m0 5.03v10.1m0 5.04v10.1m0 5.03v10.1m0 5.04v10.1m0 5.03V371m0 5.04v10.1m0 5.03v10.1m0 5.04v10.1m0 5.04v10.1m0 5.04v10.1m0 5.03v10.1m0 5.05v10.1m0 5.03v10.1m0 5.04v10.1m0 5.03v10.1m0 5.04v10.08m0 5.04v10.1m0 5.04v10.1m0 5.03v10.08m0 5.05v10.1m0 5.03v10.1m0 5.04v10.1m0 5.03v10.1m0 5.04v10.1m0 5.03v10.1m0 5.04v10.1m0 5.03v10.1m0 5.04v10.1m0 5.04v10.1m0 5.04v10.1m0 5.03v10.1m0 5.05v10.1m0 5.03v10.1m0 5.04v10.1m0 5.03V820h-5.08m-5.08 0h-10.16m-5.08 0h-10.16m-5.07 0H969.2m-5.07 0h-10.16m-5.08 0h-10.17m-5.08 0H923.5m-5.1 0h-10.15m-5.08 0h-10.15m-5.08 0h-10.16m-5.08 0h-10.16m-5.08 0H847.3m-5.08 0h-10.16m-5.08 0h-10.15m-5.08 0H801.6m-5.1 0h-10.15m-5.08 0H771.1m-5.07 0h-10.16m-5.08 0h-10.17m-5.07 0H725.4m-5.08 0h-10.16m-5.08 0H700v-5.05m0-5.04v-10.08m0-5.05v-10.1m0-5.03v-10.1m0-5.04v-10.1m0-5.03v-10.1m0-5.04v-10.1m0-5.03V709m0-5.04v-10.1m0-5.03v-10.1m0-5.04v-10.1m0-5.04v-10.1m0-5.04v-10.1m0-5.03v-10.1m0-5.05v-10.1m0-5.03v-10.1m0-5.04v-10.1m0-5.03v-10.1m0-5.04v-10.08m0-5.04v-10.1m0-5.04v-10.1m0-5.03v-10.08m0-5.05v-10.1m0-5.03v-10.1m0-5.04v-10.1m0-5.03v-10.1m0-5.04v-10.1m0-5.03v-10.1m0-5.04v-10.1m0-5.03v-10.1m0-5.04v-10.1m0-5.04v-10.1m0-5.04v-10.1m0-5.03v-10.1m0-5.05v-10.1m0-5.03v-10.1m0-5.04v-10.1m0-5.03V260h5.08" stroke="#3a414a" fill="none"/><path d="M700 940h320v200H700z" fill-opacity="0"/><path d="M710.16 940h10.16m5.08 0h10.16m5.07 0h10.16m5.07 0h10.16m5.08 0h10.17m5.08 0h10.16m5.1 0h10.15m5.08 0h10.15m5.08 0h10.16m5.08 0h10.16m5.08 0h10.16m5.08 0h10.16m5.08 0h10.15m5.08 0h10.16m5.1 0h10.15m5.08 0h10.16m5.07 0h10.16m5.08 0h10.17m5.07 0h10.16m5.08 0h10.16m5.08 0h5.08v5.13m0 5.13v10.25m0 5.14v10.26m0 5.13v10.25m0 5.13v10.27m0 5.12v10.25m0 5.13v10.26m0 5.12v10.26m0 5.13v10.26m0 5.13v10.26m0 5.12v10.25m0 5.13v10.26m0 5.13v10.24m0 5.13v5.13h-5.08m-5.08 0h-10.16m-5.08 0h-10.16m-5.07 0H969.2m-5.07 0h-10.16m-5.08 0h-10.17m-5.08 0H923.5m-5.1 0h-10.15m-5.08 0h-10.15m-5.08 0h-10.16m-5.08 0h-10.16m-5.08 0H847.3m-5.08 0h-10.16m-5.08 0h-10.15m-5.08 0H801.6m-5.1 0h-10.15m-5.08 0H771.1m-5.07 0h-10.16m-5.08 0h-10.17m-5.07 0H725.4m-5.08 0h-10.16m-5.08 0H700v-5.13m0-5.13v-10.25m0-5.14v-10.26m0-5.13v-10.25m0-5.13v-10.27m0-5.12v-10.25m0-5.13v-10.26m0-5.12v-10.26m0-5.13v-10.26m0-5.13V996.4m0-5.12v-10.25m0-5.13v-10.26m0-5.13v-10.24m0-5.13V940h5.08" stroke="#3a414a" fill="none"/><path d="M780 320h160v120H780z" stroke="#3a414a" fill="#fff"/><use xlink:href="#a" transform="matrix(1,0,0,1,792,332) translate(22.444444444444443 38.77777777777778)"/><use xlink:href="#b" transform="matrix(1,0,0,1,792,332) translate(13.802469135802468 65.44444444444446)"/><use xlink:href="#c" transform="matrix(1,0,0,1,792,332) translate(65.59259259259258 65.44444444444446)"/><path d="M780 600h160v120H780z" stroke="#3a414a" fill="#fff"/><use xlink:href="#d" transform="matrix(1,0,0,1,792,612) translate(44.574074074074076 38.77777777777778)"/><use xlink:href="#e" transform="matrix(1,0,0,1,792,612) translate(19.32716049382715 65.44444444444446)"/><path d="M780 80h160v120H780z" stroke="#3a414a" fill="#fff"/><use xlink:href="#f" transform="matrix(1,0,0,1,792,92) translate(44.60493827160494 53.77777777777778)"/><path d="M380 320h160v120H380z" stroke="#3a414a" fill="#fff"/><use xlink:href="#a" transform="matrix(1,0,0,1,392,332) translate(22.444444444444443 38.77777777777778)"/><use xlink:href="#g" transform="matrix(1,0,0,1,392,332) translate(32.907407407407405 65.44444444444446)"/><path d="M780 980h160v120H780z" stroke="#3a414a" fill="#fff"/><use xlink:href="#h" transform="matrix(1,0,0,1,792,992) translate(0.1913580246913682 53.77777777777778)"/><use xlink:href="#i" transform="matrix(1,0,0,1,792,992) translate(70.5 53.77777777777778)"/><path d="M808 201v102.12" stroke="#3a414a" fill="none"/><path d="M808.5 201h-1v-.5h1z" stroke="#3a414a" stroke-width=".05" fill="#3a414a"/><path d="M808 317.88l-4.64-14.26h9.28z" stroke="#3a414a" fill="#3a414a"/><path d="M897.33 319V216.88" stroke="#3a414a" fill="none"/><path d="M897.83 319.5h-1v-.5h1z" stroke="#3a414a" stroke-width=".05" fill="#3a414a"/><path d="M897.33 202.12l4.64 14.26h-9.27z" stroke="#3a414a" fill="#3a414a"/><path d="M779 345.33H556.88" stroke="#3a414a" fill="none"/><path d="M779.5 345.83h-.5v-1h.5z" stroke="#3a414a" stroke-width=".05" fill="#3a414a"/><path d="M542.12 345.33l14.26-4.63v9.27z" stroke="#3a414a" fill="#3a414a"/><path d="M538.67 441v174.33a6 6 0 0 0 6 6h218.45" stroke="#3a414a" fill="none"/><path d="M539.17 441h-1v-.5h1z" stroke="#3a414a" stroke-width=".05" fill="#3a414a"/><path d="M777.88 621.33l-14.26 4.64v-9.27z" stroke="#3a414a" fill="#3a414a"/><path d="M816 441v142.12" stroke="#3a414a" fill="none"/><path d="M816.5 441h-1v-.5h1z" stroke="#3a414a" stroke-width=".05" fill="#3a414a"/><path d="M816 597.88l-4.64-14.26h9.28z" stroke="#3a414a" fill="#3a414a"/><path d="M892 599V456.88" stroke="#3a414a" fill="none"/><path d="M892.5 599.5h-1v-.5h1z" stroke="#3a414a" stroke-width=".05" fill="#3a414a"/><path d="M892 442.12l4.64 14.26h-9.28z" stroke="#3a414a" fill="#3a414a"/><path d="M816 721v242.12" stroke="#3a414a" fill="none"/><path d="M816.5 721h-1v-.5h1z" stroke="#3a414a" stroke-width=".05" fill="#3a414a"/><path d="M816 977.88l-4.64-14.26h9.28z" stroke="#3a414a" fill="#3a414a"/><path d="M906.67 979V736.88" stroke="#3a414a" fill="none"/><path d="M907.17 979.5h-1v-.5h1z" stroke="#3a414a" stroke-width=".05" fill="#3a414a"/><path d="M906.67 722.12l4.63 14.26h-9.27z" stroke="#3a414a" fill="#3a414a"/><defs><path fill="#3a414a" d="M127-220V0H93v-220H8v-28h204v28h-85" id="j"/><path fill="#3a414a" d="M100-194c63 0 86 42 84 106H49c0 40 14 67 53 68 26 1 43-12 49-29l28 8c-11 28-37 45-77 45C44 4 14-33 15-96c1-61 26-98 85-98zm52 81c6-60-76-77-97-28-3 7-6 17-6 28h103" id="k"/><path fill="#3a414a" d="M210-169c-67 3-38 105-44 169h-31v-121c0-29-5-50-35-48C34-165 62-65 56 0H25l-1-190h30c1 10-1 24 2 32 10-44 99-50 107 0 11-21 27-35 58-36 85-2 47 119 55 194h-31v-121c0-29-5-49-35-48" id="l"/><path fill="#3a414a" d="M115-194c55 1 70 41 70 98S169 2 115 4C84 4 66-9 55-30l1 105H24l-1-265h31l2 30c10-21 28-34 59-34zm-8 174c40 0 45-34 45-75s-6-73-45-74c-42 0-51 32-51 76 0 43 10 73 51 73" id="m"/><path fill="#3a414a" d="M100-194c62-1 85 37 85 99 1 63-27 99-86 99S16-35 15-95c0-66 28-99 85-99zM99-20c44 1 53-31 53-75 0-43-8-75-51-75s-53 32-53 75 10 74 51 75" id="n"/><path fill="#3a414a" d="M114-163C36-179 61-72 57 0H25l-1-190h30c1 12-1 29 2 39 6-27 23-49 58-41v29" id="o"/><path fill="#3a414a" d="M141-36C126-15 110 5 73 4 37 3 15-17 15-53c-1-64 63-63 125-63 3-35-9-54-41-54-24 1-41 7-42 31l-33-3c5-37 33-52 76-52 45 0 72 20 72 64v82c-1 20 7 32 28 27v20c-31 9-61-2-59-35zM48-53c0 20 12 33 32 33 41-3 63-29 60-74-43 2-92-5-92 41" id="p"/><path fill="#3a414a" d="M24 0v-261h32V0H24" id="q"/><g id="a"><use transform="matrix(0.06172839506172839,0,0,0.06172839506172839,0,0)" xlink:href="#j"/><use transform="matrix(0.06172839506172839,0,0,0.06172839506172839,11.049382716049381,0)" xlink:href="#k"/><use transform="matrix(0.06172839506172839,0,0,0.06172839506172839,23.39506172839506,0)" xlink:href="#l"/><use transform="matrix(0.06172839506172839,0,0,0.06172839506172839,41.85185185185185,0)" xlink:href="#m"/><use transform="matrix(0.06172839506172839,0,0,0.06172839506172839,54.197530864197525,0)" xlink:href="#n"/><use transform="matrix(0.06172839506172839,0,0,0.06172839506172839,66.5432098765432,0)" xlink:href="#o"/><use transform="matrix(0.06172839506172839,0,0,0.06172839506172839,73.88888888888889,0)" xlink:href="#p"/><use transform="matrix(0.06172839506172839,0,0,0.06172839506172839,86.23456790123457,0)" xlink:href="#q"/></g><path fill="#3a414a" d="M185-189c-5-48-123-54-124 2 14 75 158 14 163 119 3 78-121 87-175 55-17-10-28-26-33-46l33-7c5 56 141 63 141-1 0-78-155-14-162-118-5-82 145-84 179-34 5 7 8 16 11 25" id="r"/><path fill="#3a414a" d="M30-248c118-7 216 8 213 122C240-48 200 0 122 0H30v-248zM63-27c89 8 146-16 146-99s-60-101-146-95v194" id="s"/><path fill="#3a414a" d="M194 0L95-120 63-95V0H30v-248h33v124l119-124h40L117-140 236 0h-42" id="t"/><g id="b"><use transform="matrix(0.06172839506172839,0,0,0.06172839506172839,0,0)" xlink:href="#r"/><use transform="matrix(0.06172839506172839,0,0,0.06172839506172839,14.814814814814813,0)" xlink:href="#s"/><use transform="matrix(0.06172839506172839,0,0,0.06172839506172839,30.80246913580247,0)" xlink:href="#t"/></g><path fill="#3a414a" d="M212-179c-10-28-35-45-73-45-59 0-87 40-87 99 0 60 29 101 89 101 43 0 62-24 78-52l27 14C228-24 195 4 139 4 59 4 22-46 18-125c-6-104 99-153 187-111 19 9 31 26 39 46" id="u"/><path fill="#3a414a" d="M24-231v-30h32v30H24zM24 0v-190h32V0H24" id="v"/><path fill="#3a414a" d="M117-194c89-4 53 116 60 194h-32v-121c0-31-8-49-39-48C34-167 62-67 57 0H25l-1-190h30c1 10-1 24 2 32 11-22 29-35 61-36" id="w"/><path fill="#3a414a" d="M59-47c-2 24 18 29 38 22v24C64 9 27 4 27-40v-127H5v-23h24l9-43h21v43h35v23H59v120" id="x"/><g id="c"><use transform="matrix(0.06172839506172839,0,0,0.06172839506172839,0,0)" xlink:href="#u"/><use transform="matrix(0.06172839506172839,0,0,0.06172839506172839,15.987654320987653,0)" xlink:href="#q"/><use transform="matrix(0.06172839506172839,0,0,0.06172839506172839,20.864197530864196,0)" xlink:href="#v"/><use transform="matrix(0.06172839506172839,0,0,0.06172839506172839,25.74074074074074,0)" xlink:href="#k"/><use transform="matrix(0.06172839506172839,0,0,0.06172839506172839,38.08641975308642,0)" xlink:href="#w"/><use transform="matrix(0.06172839506172839,0,0,0.06172839506172839,50.432098765432094,0)" xlink:href="#x"/></g><g id="d"><use transform="matrix(0.06172839506172839,0,0,0.06172839506172839,0,0)" xlink:href="#s"/><use transform="matrix(0.06172839506172839,0,0,0.06172839506172839,15.987654320987653,0)" xlink:href="#p"/><use transform="matrix(0.06172839506172839,0,0,0.06172839506172839,28.333333333333332,0)" xlink:href="#x"/><use transform="matrix(0.06172839506172839,0,0,0.06172839506172839,34.50617283950617,0)" xlink:href="#p"/></g><path fill="#3a414a" d="M108 0H70L1-190h34L89-25l56-165h34" id="y"/><g id="e"><use transform="matrix(0.06172839506172839,0,0,0.06172839506172839,0,0)" xlink:href="#u"/><use transform="matrix(0.06172839506172839,0,0,0.06172839506172839,15.987654320987653,0)" xlink:href="#n"/><use transform="matrix(0.06172839506172839,0,0,0.06172839506172839,28.333333333333332,0)" xlink:href="#w"/><use transform="matrix(0.06172839506172839,0,0,0.06172839506172839,40.67901234567901,0)" xlink:href="#y"/><use transform="matrix(0.06172839506172839,0,0,0.06172839506172839,51.79012345679013,0)" xlink:href="#k"/><use transform="matrix(0.06172839506172839,0,0,0.06172839506172839,64.13580246913581,0)" xlink:href="#o"/><use transform="matrix(0.06172839506172839,0,0,0.06172839506172839,71.4814814814815,0)" xlink:href="#x"/><use transform="matrix(0.06172839506172839,0,0,0.06172839506172839,77.65432098765433,0)" xlink:href="#k"/><use transform="matrix(0.06172839506172839,0,0,0.06172839506172839,90.00000000000001,0)" xlink:href="#o"/></g><path fill="#3a414a" d="M232-93c-1 65-40 97-104 97C67 4 28-28 28-90v-158h33c8 89-33 224 67 224 102 0 64-133 71-224h33v155" id="z"/><path fill="#3a414a" d="M135-143c-3-34-86-38-87 0 15 53 115 12 119 90S17 21 10-45l28-5c4 36 97 45 98 0-10-56-113-15-118-90-4-57 82-63 122-42 12 7 21 19 24 35" id="A"/><g id="f"><use transform="matrix(0.06172839506172839,0,0,0.06172839506172839,0,0)" xlink:href="#z"/><use transform="matrix(0.06172839506172839,0,0,0.06172839506172839,15.987654320987653,0)" xlink:href="#A"/><use transform="matrix(0.06172839506172839,0,0,0.06172839506172839,27.098765432098766,0)" xlink:href="#k"/><use transform="matrix(0.06172839506172839,0,0,0.06172839506172839,39.44444444444444,0)" xlink:href="#o"/></g><path fill="#3a414a" d="M84 4C-5 8 30-112 23-190h32v120c0 31 7 50 39 49 72-2 45-101 50-169h31l1 190h-30c-1-10 1-25-2-33-11 22-28 36-60 37" id="B"/><g id="g"><use transform="matrix(0.06172839506172839,0,0,0.06172839506172839,0,0)" xlink:href="#u"/><use transform="matrix(0.06172839506172839,0,0,0.06172839506172839,15.987654320987653,0)" xlink:href="#q"/><use transform="matrix(0.06172839506172839,0,0,0.06172839506172839,20.864197530864196,0)" xlink:href="#B"/><use transform="matrix(0.06172839506172839,0,0,0.06172839506172839,33.20987654320987,0)" xlink:href="#A"/><use transform="matrix(0.06172839506172839,0,0,0.06172839506172839,44.32098765432099,0)" xlink:href="#x"/><use transform="matrix(0.06172839506172839,0,0,0.06172839506172839,50.49382716049383,0)" xlink:href="#k"/><use transform="matrix(0.06172839506172839,0,0,0.06172839506172839,62.839506172839506,0)" xlink:href="#o"/></g><path fill="#3a414a" d="M85-194c31 0 48 13 60 33l-1-100h32l1 261h-30c-2-10 0-23-3-31C134-8 116 4 85 4 32 4 16-35 15-94c0-66 23-100 70-100zm9 24c-40 0-46 34-46 75 0 40 6 74 45 74 42 0 51-32 51-76 0-42-9-74-50-73" id="C"/><path fill="#3a414a" d="M96-169c-40 0-48 33-48 73s9 75 48 75c24 0 41-14 43-38l32 2c-6 37-31 61-74 61-59 0-76-41-82-99-10-93 101-131 147-64 4 7 5 14 7 22l-32 3c-4-21-16-35-41-35" id="D"/><g id="h"><use transform="matrix(0.06172839506172839,0,0,0.06172839506172839,0,0)" xlink:href="#u"/><use transform="matrix(0.06172839506172839,0,0,0.06172839506172839,15.987654320987653,0)" xlink:href="#n"/><use transform="matrix(0.06172839506172839,0,0,0.06172839506172839,28.333333333333332,0)" xlink:href="#C"/><use transform="matrix(0.06172839506172839,0,0,0.06172839506172839,40.67901234567901,0)" xlink:href="#k"/><use transform="matrix(0.06172839506172839,0,0,0.06172839506172839,53.02469135802469,0)" xlink:href="#D"/></g><g id="i"><use transform="matrix(0.06172839506172839,0,0,0.06172839506172839,0,0)" xlink:href="#r"/><use transform="matrix(0.06172839506172839,0,0,0.06172839506172839,14.814814814814813,0)" xlink:href="#k"/><use transform="matrix(0.06172839506172839,0,0,0.06172839506172839,27.160493827160494,0)" xlink:href="#o"/><use transform="matrix(0.06172839506172839,0,0,0.06172839506172839,34.50617283950617,0)" xlink:href="#y"/><use transform="matrix(0.06172839506172839,0,0,0.06172839506172839,45.61728395061728,0)" xlink:href="#k"/><use transform="matrix(0.06172839506172839,0,0,0.06172839506172839,57.962962962962955,0)" xlink:href="#o"/></g></defs></g></svg>