<svg height="512" viewBox="0 0 64 64" width="512" xmlns="http://www.w3.org/2000/svg"><path d="M16.5 16.5H6v-1h9.5V6h1z" fill="#505050"/><path d="M6 14a2 2 0 1 1 .001 3.999A2 2 0 0 1 6 14zM16 4a2 2 0 1 1 .001 3.999A2 2 0 0 1 16 4z" fill="#fa6450"/><path d="M16.5 58h-1v-9.5H6v-1h10.5z" fill="#505050"/><path d="M14 58a2 2 0 1 1 3.999-.001A2 2 0 0 1 14 58zM4 48a2 2 0 1 1 3.999-.001A2 2 0 0 1 4 48z" fill="#64c8f0"/><path d="m15.642 16.356.707-.707 31.995 31.995-.707.707z" fill="#505050"/><path d="m15.642 47.644 31.995-31.995.707.707L16.35 48.35zM48.5 58h-1V47.5H58v1h-9.5z" fill="#505050"/><path d="M58 16.5H47.5V6h1v9.5H58z" fill="#505050"/><circle cx="48" cy="16" fill="#3cc8b4" r="4"/><circle cx="16" cy="48" fill="#64c8f0" r="4"/><circle cx="16" cy="16" fill="#fa6450" r="4"/><circle cx="48" cy="48" fill="#fab400" r="4"/><path d="M47.172 18.828a4 4 0 0 1 0-5.657A3.955 3.955 0 0 1 49 12.143c-1.326-.342-2.79-.01-3.828 1.028a4 4 0 0 0 0 5.657A3.981 3.981 0 0 0 49 19.856a3.945 3.945 0 0 1-1.828-1.028z" fill="#1eaa96"/><path d="M15.172 50.828a4 4 0 0 1 0-5.657A3.955 3.955 0 0 1 17 44.143c-1.326-.342-2.79-.01-3.828 1.028a4 4 0 0 0 0 5.657A3.981 3.981 0 0 0 17 51.856a3.945 3.945 0 0 1-1.828-1.028z" fill="#46aad2"/><path d="M15.172 18.828a4 4 0 0 1 0-5.657A3.955 3.955 0 0 1 17 12.143c-1.326-.342-2.79-.01-3.828 1.028a4 4 0 0 0 0 5.657A3.981 3.981 0 0 0 17 19.856a3.945 3.945 0 0 1-1.828-1.028z" fill="#dc4632"/><path d="M47.172 50.828a4 4 0 0 1 0-5.657A3.955 3.955 0 0 1 49 44.143c-1.326-.342-2.79-.01-3.828 1.028a4 4 0 0 0 0 5.657A3.981 3.981 0 0 0 49 51.856a3.945 3.945 0 0 1-1.828-1.028z" fill="#dc9600"/><path d="M32 48c-8.837 0-16-7.163-16-16s7.163-16 16-16 16 7.163 16 16-7.163 16-16 16z" fill="#64c8f0"/><path d="M20 32c0-8.158 6.11-14.876 14-15.862A16.094 16.094 0 0 0 32 16c-8.837 0-16 7.163-16 16s7.163 16 16 16c.679 0 1.343-.056 2-.138-7.89-.986-14-7.704-14-15.862z" fill="#46aad2"/><path d="M40 28c0-4.945-4.487-8.842-9.611-7.843-3.166.618-5.695 3.202-6.259 6.378a7.997 7.997 0 0 0 4.621 8.767c.741.33 1.249 1.028 1.249 1.838V40h4v-2.861c0-.81.508-1.507 1.248-1.836A7.99 7.99 0 0 0 40 28z" fill="#fab400"/><path d="M30.751 35.302a7.996 7.996 0 0 1-4.621-8.767c.563-3.176 3.092-5.76 6.258-6.378.21-.041.418-.061.625-.086a8.236 8.236 0 0 0-2.625.086c-3.166.617-5.695 3.202-6.258 6.378a7.997 7.997 0 0 0 4.621 8.767c.741.33 1.249 1.028 1.249 1.839V40h2v-2.859c0-.811-.508-1.509-1.249-1.839z" fill="#dc9600"/><path d="M34 40h-4v2a2 2 0 1 0 4 0z" fill="#f0f0f0"/><path d="M32 42v-2h-2v2a2 2 0 0 0 2 2c.366 0 .705-.106 1-.277-.595-.347-1-.985-1-1.723z" fill="#d2d2d2"/><path d="M30 38h4v2h-4z" fill="#505050"/><path d="M30 38h2v2h-2z" fill="#3c3c3c"/><path d="M58 50a2 2 0 1 1-.001-3.999A2 2 0 0 1 58 50zM48 60a2 2 0 1 1-.001-3.999A2 2 0 0 1 48 60z" fill="#fab400"/><path d="M50 6a2 2 0 1 1-3.999.001A2 2 0 0 1 50 6zM60 16a2 2 0 1 1-3.999.001A2 2 0 0 1 60 16z" fill="#3cc8b4"/><path d="M36 28.8v-1.6h-.905a3.191 3.191 0 0 0-.341-.823l.64-.64-1.131-1.131-.64.64a3.191 3.191 0 0 0-.823-.341V24h-1.6v.905a3.191 3.191 0 0 0-.823.341l-.64-.64-1.131 1.131.64.64c-.15.254-.265.53-.341.823H28v1.6h.905c.076.293.191.569.341.823l-.64.64 1.131 1.131.64-.64c.254.15.53.265.823.341V32h1.6v-.905c.293-.076.569-.191.823-.341l.64.64 1.131-1.131-.64-.64c.15-.254.265-.53.341-.823zm-4 .8c-.882 0-1.6-.718-1.6-1.6s.718-1.6 1.6-1.6 1.6.718 1.6 1.6-.718 1.6-1.6 1.6z" fill="#f0f0f0"/></svg>