<svg enable-background="new 0 0 64 64" height="512" viewBox="0 0 64 64" width="512" xmlns="http://www.w3.org/2000/svg"><g id="Icons"><g><g><path d="m16.5 16.5h-10.5v-1h9.5v-9.5h1z" fill="#505050"/></g><g><path d="m6 14c1.105 0 2 .895 2 2 0 1.105-.895 2-2 2-1.105 0-2-.895-2-2 0-1.105.895-2 2-2z" fill="#fa6450"/></g><g><path d="m16 4c1.105 0 2 .895 2 2 0 1.105-.895 2-2 2-1.105 0-2-.895-2-2 0-1.105.895-2 2-2z" fill="#fa6450"/></g><g><path d="m16.5 58h-1v-9.5h-9.5v-1h10.5z" fill="#505050"/></g><g><path d="m14 58c0-1.105.895-2 2-2 1.105 0 2 .895 2 2 0 1.105-.895 2-2 2-1.105 0-2-.895-2-2z" fill="#64c8f0"/></g><g><path d="m4 48c0-1.105.895-2 2-2 1.105 0 2 .895 2 2 0 1.105-.895 2-2 2-1.105 0-2-.895-2-2z" fill="#64c8f0"/></g><g><path d="m31.5 9.373h1v45.255h-1z" fill="#505050" transform="matrix(.707 -.707 .707 .707 -13.255 32)"/></g><g><path d="m9.373 31.5h45.255v1h-45.255z" fill="#505050" transform="matrix(.707 -.707 .707 .707 -13.255 32)"/></g><g><path d="m48.5 58h-1v-10.5h10.5v1h-9.5z" fill="#505050"/></g><g><path d="m58 16.5h-10.5v-10.5h1v9.5h9.5z" fill="#505050"/></g><g><circle cx="48" cy="16" fill="#3cc8b4" r="4"/></g><g><circle cx="16" cy="48" fill="#64c8f0" r="4"/></g><g><circle cx="16" cy="16" fill="#fa6450" r="4"/></g><g><circle cx="48" cy="48" fill="#fab400" r="4"/></g><g><path d="m47.172 18.828c-1.562-1.562-1.562-4.095 0-5.657.524-.524 1.16-.856 1.828-1.028-1.326-.342-2.79-.01-3.828 1.028-1.562 1.562-1.562 4.095 0 5.657 1.038 1.038 2.502 1.371 3.828 1.028-.669-.172-1.305-.504-1.828-1.028z" fill="#1eaa96"/></g><g><path d="m15.172 50.828c-1.562-1.562-1.562-4.095 0-5.657.524-.524 1.16-.856 1.828-1.028-1.326-.342-2.79-.01-3.828 1.028-1.562 1.562-1.562 4.095 0 5.657 1.038 1.038 2.502 1.371 3.828 1.028-.669-.172-1.305-.504-1.828-1.028z" fill="#46aad2"/></g><g><path d="m15.172 18.828c-1.562-1.562-1.562-4.095 0-5.657.524-.524 1.16-.856 1.828-1.028-1.326-.342-2.79-.01-3.828 1.028-1.562 1.562-1.562 4.095 0 5.657 1.038 1.038 2.502 1.371 3.828 1.028-.669-.172-1.305-.504-1.828-1.028z" fill="#dc4632"/></g><g><path d="m47.172 50.828c-1.562-1.562-1.562-4.095 0-5.657.524-.524 1.16-.856 1.828-1.028-1.326-.342-2.79-.01-3.828 1.028-1.562 1.562-1.562 4.095 0 5.657 1.038 1.038 2.502 1.371 3.828 1.028-.669-.172-1.305-.504-1.828-1.028z" fill="#dc9600"/></g><g><path d="m32 48c-8.837 0-16-7.163-16-16 0-8.837 7.163-16 16-16 8.837 0 16 7.163 16 16 0 8.837-7.163 16-16 16z" fill="#64c8f0"/></g><g><path d="m20 32c0-8.158 6.11-14.876 14-15.862-.657-.082-1.321-.138-2-.138-8.837 0-16 7.163-16 16 0 8.837 7.163 16 16 16 .679 0 1.343-.056 2-.138-7.89-.986-14-7.704-14-15.862z" fill="#46aad2"/></g><g><path d="m40 28c0-4.945-4.487-8.842-9.611-7.843-3.166.618-5.695 3.202-6.259 6.378-.686 3.868 1.411 7.339 4.621 8.767.741.33 1.249 1.028 1.249 1.838v2.86h4v-2.861c0-.81.508-1.507 1.248-1.836 2.799-1.245 4.752-4.042 4.752-7.303z" fill="#fab400"/></g><g><path d="m30.751 35.302c-3.21-1.427-5.307-4.898-4.621-8.767.563-3.176 3.092-5.76 6.258-6.378.21-.041.418-.061.625-.086-.842-.107-1.723-.09-2.625.086-3.166.617-5.695 3.202-6.258 6.378-.686 3.868 1.411 7.339 4.621 8.767.741.33 1.249 1.028 1.249 1.839v2.859h2v-2.859c0-.811-.508-1.509-1.249-1.839z" fill="#dc9600"/></g><g><path d="m34 40h-4v2c0 1.105.895 2 2 2 1.105 0 2-.895 2-2z" fill="#f0f0f0"/></g><g><path d="m32 42v-2h-2v2c0 1.105.895 2 2 2 .366 0 .705-.106 1-.277-.595-.347-1-.985-1-1.723z" fill="#d2d2d2"/></g><g><path d="m30 38h4v2h-4z" fill="#505050"/></g><g><path d="m30 38h2v2h-2z" fill="#3c3c3c"/></g><g><path d="m58 50c-1.105 0-2-.895-2-2 0-1.105.895-2 2-2 1.105 0 2 .895 2 2 0 1.105-.895 2-2 2z" fill="#fab400"/></g><g><path d="m48 60c-1.105 0-2-.895-2-2 0-1.105.895-2 2-2 1.105 0 2 .895 2 2 0 1.105-.895 2-2 2z" fill="#fab400"/></g><g><path d="m50 6c0 1.105-.895 2-2 2-1.105 0-2-.895-2-2 0-1.105.895-2 2-2 1.105 0 2 .895 2 2z" fill="#3cc8b4"/></g><g><path d="m60 16c0 1.105-.895 2-2 2-1.105 0-2-.895-2-2 0-1.105.895-2 2-2 1.105 0 2 .895 2 2z" fill="#3cc8b4"/></g><g><path d="m36 28.8v-1.6h-.905c-.076-.293-.191-.569-.341-.823l.64-.64-1.131-1.131-.64.64c-.254-.15-.53-.265-.823-.341v-.905h-1.6v.905c-.293.076-.569.191-.823.341l-.64-.64-1.131 1.131.64.64c-.15.254-.265.53-.341.823h-.905v1.6h.905c.076.293.191.569.341.823l-.64.64 1.131 1.131.64-.64c.254.15.53.265.823.341v.905h1.6v-.905c.293-.076.569-.191.823-.341l.64.64 1.131-1.131-.64-.64c.15-.254.265-.53.341-.823zm-4 .8c-.882 0-1.6-.718-1.6-1.6s.718-1.6 1.6-1.6 1.6.718 1.6 1.6-.718 1.6-1.6 1.6z" fill="#f0f0f0"/></g></g></g></svg>