<svg width="13" height="14" fill="none" xmlns="http://www.w3.org/2000/svg"><path d="M11.754 3.951a.981.981 0 0 0 .406-.34.868.868 0 0 0 .15-.486.868.868 0 0 0-.15-.485.981.981 0 0 0-.406-.341L6.95.097a1.084 1.084 0 0 0-.902 0L1.246 2.3a.981.981 0 0 0-.406.34.868.868 0 0 0-.15.486c0 .172.052.34.15.486a.981.981 0 0 0 .406.34L6.05 6.153a1.084 1.084 0 0 0 .902 0l4.803-2.202ZM7.078 13.39a.865.865 0 0 1-.127-.45V7.611c0-.171.052-.34.15-.485a.982.982 0 0 1 .407-.34l4.033-1.85a1.086 1.086 0 0 1 .98.041.965.965 0 0 1 .351.336.865.865 0 0 1 .128.45v5.327a.87.87 0 0 1-.15.486.982.982 0 0 1-.407.34L8.41 13.765a1.086 1.086 0 0 1-.981-.04.965.965 0 0 1-.35-.336ZM.963 4.978c.171-.007.342.026.496.097l4.033 1.848a.982.982 0 0 1 .407.34c.098.147.15.315.15.486v5.327a.865.865 0 0 1-.127.45.964.964 0 0 1-.351.336 1.087 1.087 0 0 1-.98.04L.557 12.054a.982.982 0 0 1-.407-.34.868.868 0 0 1-.151-.486V5.901c0-.157.044-.312.128-.45a.965.965 0 0 1 .35-.336c.146-.082.313-.13.485-.137Z" fill="currentColor"/></svg>