<svg height="512" viewBox="0 0 24 24" width="512" xmlns="http://www.w3.org/2000/svg"><path d="M21 1H3C1.346 1 0 2.346 0 4v16c0 1.654 1.346 3 3 3h18c1.654 0 3-1.346 3-3V4c0-1.654-1.346-3-3-3z" fill="#607d8b"/><path d="M21 21H3c-.551 0-1-.448-1-1V6h20v14c0 .552-.449 1-1 1z" fill="#fff"/><path d="M12 1H3C1.346 1 0 2.346 0 4v16c0 1.654 1.346 3 3 3h9v-2H3c-.551 0-1-.448-1-1V6h10z" fill="#546d79"/><path d="M12 6H2v14c0 .552.449 1 1 1h9z" fill="#dedede"/><g fill="#2196f3"><circle cx="3.75" cy="16.25" r=".75"/><path d="M14.25 14.75h-2.5c-.414 0-.414-1.5 0-1.5h2.5a.75.75 0 0 1 0 1.5z"/><path d="M14.25 17h-1.5c-.965 0-1.75-.785-1.75-1.75v-2.5c0-.965.785-1.75 1.75-1.75h1.5a.75.75 0 0 1 0 1.5h-1.5a.25.25 0 0 0-.25.25v2.5c0 .138.112.25.25.25h1.5a.75.75 0 0 1 0 1.5zM9.25 17a.751.751 0 0 1-.656-.386L7.5 14.645v1.605a.75.75 0 0 1-1.5 0v-4.5a.75.75 0 0 1 1.406-.365l1.094 1.97V11.75a.75.75 0 0 1 1.5 0v4.5a.75.75 0 0 1-.562.726zM18.5 17a.75.75 0 0 1-.75-.75v-4.5c0-.414 1.5-.414 1.5 0v4.5a.75.75 0 0 1-.75.75z"/><path d="M20.25 12.5h-3.5a.75.75 0 0 1 0-1.5h3.5a.75.75 0 0 1 0 1.5z"/></g><path d="M15 14h-2.5v.75h1.75A.75.75 0 0 0 15 14z" fill="#1d83d4"/><path d="M12.5 14H11v1.25c0 .965.785 1.75 1.75 1.75h1.5a.75.75 0 0 0 0-1.5h-1.5a.25.25 0 0 1-.25-.25v-.5zM10 14H6v2.25a.75.75 0 0 0 1.5 0v-1.605l1.094 1.97A.752.752 0 0 0 9.25 17l.188-.024A.75.75 0 0 0 10 16.25zM19.25 14h-1.5v2.25a.75.75 0 0 0 1.5 0z" fill="#1d83d4"/></svg>