<svg height="512pt" viewBox="0 0 512 511" width="512pt" xmlns="http://www.w3.org/2000/svg"><path d="M433 512.453H100v-30h333c27.02 0 49-21.98 49-49v-1c0-27.02-21.98-49-49-49H309c-43.563 0-79-35.441-79-79 0-43.562 35.438-79 79-79h103v30H309c-27.02 0-49 21.98-49 49s21.98 49 49 49h124c43.563 0 79 35.438 79 79v1c0 43.559-35.438 79-79 79zm0 0" fill="#0053bf"/><path d="m412 241.652-70.707-70.632C322.403 152.148 312 127.055 312 100.367c0-26.691 10.402-51.785 29.293-70.656 38.988-38.95 102.426-38.95 141.41 0h.004C501.597 48.582 512 73.676 512 100.367c0 26.688-10.402 51.781-29.293 70.653zm0 0" fill="#99f9ff"/><path d="M482.707 29.71C463.211 10.239 437.605.5 412 .5v241.152l70.707-70.632C501.597 152.148 512 127.055 512 100.367c0-26.691-10.402-51.785-29.293-70.656zm0 0" fill="#00e5ee"/><path d="M427 98.453c0 8.285-6.715 15-15 15s-15-6.715-15-15 6.715-15 15-15 15 6.715 15 15zm0 0" fill="#2864f0"/><path d="M427 98.453c0-8.285-6.715-15-15-15v30c8.285 0 15-6.719 15-15zm0 0" fill="#0053bf"/><path d="M100 498.652 29.293 428.02C10.403 409.148 0 384.055 0 357.367c0-26.691 10.402-51.785 29.293-70.656 38.988-38.95 102.426-38.95 141.41 0h.004C189.597 305.582 200 330.676 200 357.367c0 26.688-10.402 51.781-29.293 70.653zm0 0" fill="#f92814"/><path d="M170.707 286.71C151.211 267.239 125.605 257.5 100 257.5v241.156l70.707-70.633C189.597 409.148 200 384.055 200 357.367c0-26.691-10.402-51.785-29.293-70.656zm0 0" fill="#db0b04"/><path d="M115 355.453c0 8.285-6.715 15-15 15s-15-6.715-15-15 6.715-15 15-15 15 6.715 15 15zm0 0" fill="#ffee4a"/><path d="M115 355.453c0-8.285-6.715-15-15-15v30c8.285 0 15-6.719 15-15zm0 0" fill="#ffd844"/></svg>