<svg xmlns="http://www.w3.org/2000/svg" viewBox="0 0 512 512" style="enable-background:new 0 0 512 512" xml:space="preserve"><path style="fill:#408baf" d="M395.636 512H23.273C10.418 512 0 501.578 0 488.727V116.364c0-12.853 10.418-23.273 23.273-23.273H256c12.851 0 23.273 10.42 23.273 23.273S268.851 139.636 256 139.636H46.545v325.818h325.818V256c0-12.853 10.418-23.273 23.273-23.273 12.851 0 23.273 10.42 23.273 23.273v232.727c0 12.851-10.421 23.273-23.273 23.273z"/><path style="fill:#e68842" d="M488.727 0H302.545c-12.854 0-23.273 10.42-23.273 23.273s10.418 23.273 23.273 23.273h129.997L192.998 286.089c-9.087 9.089-9.087 23.827 0 32.914a23.198 23.198 0 0 0 16.457 6.817 23.184 23.184 0 0 0 16.454-6.817L465.455 79.458v129.997c0 12.851 10.418 23.273 23.273 23.273 12.851 0 23.273-10.422 23.273-23.273V23.273C512 10.42 501.578 0 488.727 0z"/><path style="fill:#387896" d="M395.636 232.727c-12.854 0-23.273 10.42-23.273 23.273v209.455H209.455V512h186.182c12.851 0 23.273-10.422 23.273-23.273V256c-.001-12.853-10.422-23.273-23.274-23.273z"/><path style="fill:#dd4c42" d="M192.998 319.001a23.198 23.198 0 0 0 16.457 6.817 23.184 23.184 0 0 0 16.454-6.817L465.455 79.458v129.997c0 12.851 10.418 23.273 23.273 23.273 12.851 0 23.273-10.422 23.273-23.273V23.273a23.195 23.195 0 0 0-6.819-16.455L192.998 319.001z"/></svg>