<?xml version="1.0" encoding="iso-8859-1"?>
<!-- Generator: Adobe Illustrator 19.0.0, SVG Export Plug-In . SVG Version: 6.00 Build 0)  -->
<svg version="1.1" id="Capa_1" xmlns="http://www.w3.org/2000/svg" xmlns:xlink="http://www.w3.org/1999/xlink" x="0px" y="0px"
	 viewBox="0 0 512 512" style="enable-background:new 0 0 512 512;" xml:space="preserve">
<path style="fill:#F2F2F2;" d="M512,256c0,77.939-34.826,147.738-89.778,194.696c-1.703,1.452-3.417,2.884-5.162,4.284
	C373.07,490.642,317.032,512,256,512c-25.569,0-50.249-3.751-73.54-10.721c-1.254-0.376-2.497-0.752-3.741-1.149
	C75.107,467.362,0,370.448,0,256C0,114.615,114.615,0,256,0S512,114.615,512,256z"/>
<g>
	<path style="fill:#5C5560;" d="M430.111,267.452c-0.084-0.345-0.178-0.7-0.272-1.045c-0.23-0.836-0.449-1.672-0.69-2.508
		c-1.609-5.851-3.312-11.536-5.12-17.063c-0.355-1.108-0.721-2.205-1.097-3.291c-17.23-51.315-41.984-88.304-64.178-114.887
		c-0.742-0.878-1.473-1.745-2.194-2.602c-5.59-6.572-10.992-12.487-16.039-17.805c-5.12-5.392-9.885-10.167-14.106-14.388
		l-0.752-0.752c-3.709-3.709-7.534-7.095-11.463-10.156c-0.836-0.658-1.682-1.296-2.529-1.912
		c-35.809-26.384-79.569-26.384-120.132,0.93l-2.936,1.766c-44.931,26.948-74.804,44.847-88.21,87.782
		c-0.324,1.034-0.637,2.09-0.94,3.156c-2.006,7.001-3.594,14.66-4.754,23.103c0,0.031-0.01,0.073-0.01,0.104
		c-0.993,7.22-1.034,14.545-0.303,21.901c0.575,5.851,1.63,11.734,3.082,17.607c0.261,1.055,0.533,2.111,0.815,3.166
		c8.171,30.218,26.279,60.165,41.806,85.859c10.721,17.732,20.846,34.471,25.694,47.971c6.322,17.617,6.196,37.951,6.071,59.476
		c-0.125,22.288-0.261,45.14,6.865,66.267c1.243,0.397,2.487,0.773,3.741,1.149c-7.732-21.264-7.596-44.628-7.471-67.396
		c0.125-21.817,0.251-42.423-6.259-60.552c-4.953-13.803-15.151-30.668-25.955-48.536c-22.643-37.46-50.834-84.083-44.972-126.589
		c8.485-61.45,40.072-80.394,92.411-111.783l2.967-1.776l0.073-0.052c19.895-13.396,40.114-20.156,60.259-20.156
		c3.699,0,7.408,0.23,11.107,0.69c21.368,2.644,41.712,13.093,58.817,30.208c27.345,27.335,78.242,78.242,103.372,171.886
		c17.492,65.191,12.831,135.91-9.749,187.758c1.745-1.4,3.459-2.832,5.162-4.284C442.943,399.036,446.84,330.71,430.111,267.452z"/>
	<path style="fill:#5C5560;" d="M358.181,129.699l-2.726-1.548c0.196-0.345,19.406-34.654,5.674-48.386
		c-5.034-5.034-12.407-8.222-19.721-8.526c-9.741-0.401-19.603,4.089-28.51,12.995l-2.216-2.216
		c9.543-9.544,20.205-14.362,30.857-13.911c11.645,0.485,19.13,6.765,21.807,9.442C378.758,92.962,359.028,128.207,358.181,129.699z
		"/>
	<path style="fill:#5C5560;" d="M99.444,240.566c-28.336,0-38.62-18.926-38.62-31.647c0-13.97,5.293-37.406,40.746-37.406v3.135
		c-14.047,0-37.611,4.452-37.611,34.272c0,11.461,9.45,28.512,35.486,28.512C99.444,237.431,99.444,240.566,99.444,240.566z"/>
	<path style="fill:#5C5560;" d="M263.931,73.968c-24.273,0-44.022,19.738-44.022,44.011s19.749,44.022,44.022,44.022
		c24.263,0,44.011-19.749,44.011-44.022S288.193,73.968,263.931,73.968z M263.931,158.866c-22.549,0-40.887-18.338-40.887-40.887
		c0-22.538,18.338-40.876,40.887-40.876c16.217,0,30.26,9.488,36.864,23.218c1.703,3.553,2.915,7.398,3.542,11.431v0.01
		c0.313,2.027,0.47,4.106,0.47,6.217C304.807,140.528,286.469,158.866,263.931,158.866z"/>
	<path style="fill:#5C5560;" d="M161.52,124.97c-24.273,0-44.011,19.738-44.011,44.011s19.738,44.022,44.011,44.022
		s44.022-19.749,44.022-44.022S185.793,124.97,161.52,124.97z M161.52,209.868c-22.538,0-40.876-18.338-40.876-40.887
		c0-22.538,18.338-40.876,40.876-40.876c14.817,0,27.815,7.92,34.983,19.738c2.1,3.459,3.709,7.273,4.712,11.306
		c0.773,3.156,1.191,6.447,1.191,9.833C202.407,191.53,184.069,209.868,161.52,209.868z"/>
	<circle style="fill:#5C5560;" cx="187.737" cy="158.124" r="13.518"/>
	<circle style="fill:#5C5560;" cx="290.994" cy="109.62" r="13.518"/>
</g>
<g>
	<path style="fill:#F9F9F9;" d="M296.699,109.714c-0.418,0-0.815-0.167-1.108-0.46s-0.46-0.69-0.46-1.108
		c0-0.408,0.167-0.815,0.46-1.108c0.575-0.575,1.63-0.585,2.215,0c0.293,0.293,0.46,0.7,0.46,1.108c0,0.418-0.167,0.815-0.46,1.108
		S297.106,109.714,296.699,109.714z"/>
	<path style="fill:#F9F9F9;" d="M193.473,158.051c-0.418,0-0.815-0.167-1.108-0.46c-0.073-0.073-0.146-0.146-0.199-0.24
		c-0.052-0.084-0.104-0.167-0.146-0.261c-0.042-0.104-0.063-0.199-0.084-0.303c-0.021-0.094-0.031-0.199-0.031-0.303
		c0-0.408,0.167-0.815,0.46-1.108c0.575-0.585,1.63-0.585,2.215,0c0.073,0.073,0.136,0.157,0.188,0.24
		c0.063,0.084,0.115,0.178,0.146,0.272c0.042,0.094,0.073,0.188,0.094,0.293s0.031,0.199,0.031,0.303s-0.01,0.209-0.031,0.303
		c-0.021,0.104-0.052,0.199-0.094,0.303c-0.031,0.094-0.084,0.178-0.146,0.261c-0.052,0.094-0.115,0.167-0.188,0.24
		c-0.073,0.073-0.157,0.136-0.24,0.199c-0.084,0.052-0.178,0.105-0.272,0.146c-0.094,0.031-0.188,0.063-0.293,0.084
		C193.672,158.041,193.578,158.051,193.473,158.051z"/>
</g>
<g>
	
		<ellipse transform="matrix(-0.5679 -0.8231 0.8231 -0.5679 210.5658 472.1169)" style="fill:#5C5560;" cx="229.206" cy="180.788" rx="11.06" ry="17.614"/>
	<path style="fill:#5C5560;" d="M213.028,223.024c-0.741,0-1.448-0.086-2.115-0.266c-1.647-0.447-3.851-1.703-5.001-5.151
		c-5.348-16.041,8.267-28.301,18.106-32.261l1.17,2.908c-8.78,3.534-20.97,14.36-16.303,28.363c0.578,1.735,1.51,2.754,2.848,3.117
		c4.082,1.111,12.158-3.276,22.158-12.028c3.39-2.966,7.772-4.728,12.337-4.958c8.053-0.406,26.782-2.456,26.782-12.67
		c0-7.191-5.739-11.121-9.159-12.823c-8.387-4.175-19.198-3.638-25.703,1.277l-1.89-2.501c7.404-5.593,19.595-6.258,28.991-1.583
		c6.925,3.447,10.896,9.144,10.896,15.63c0,12.442-18.644,15.24-29.758,15.802c-3.865,0.195-7.569,1.681-10.43,4.187
		C228.979,216.17,219.667,223.023,213.028,223.024z"/>
	<path style="fill:#5C5560;" d="M242.044,242.759c-1.523,0-2.989-0.399-4.384-1.197c-6.786-3.883-10.19-16.483-11.851-26.37
		l3.092-0.519c2.158,12.843,5.918,21.651,10.316,24.169c1.631,0.933,3.369,1.026,5.308,0.285c4.641-1.767,7.367-4.127,8.101-7.016
		c1.006-4.012-2.046-8.382-4.009-10.332c-1.95-1.95-4.591-7.422-7.854-16.266l2.94-1.085c2.974,8.06,5.571,13.575,7.126,15.13
		c3.018,2.996,6.099,8.286,4.836,13.319c-1.002,3.94-4.374,7.027-10.024,9.178C244.412,242.525,243.211,242.759,242.044,242.759z"/>
	<path style="fill:#5C5560;" d="M262.863,235.856c-2.65,0-5.753-0.631-9.247-1.884l1.058-2.951c3.557,1.276,6.716,1.854,9.128,1.666
		c2.959-0.228,4.838-1.567,5.744-4.094c1.81-5.069-1.975-14.019-10.658-25.201l2.475-1.923c6.624,8.529,13.933,20.343,11.134,28.179
		c-1.329,3.71-4.253,5.841-8.455,6.164C263.66,235.842,263.266,235.856,262.863,235.856z"/>
	<path style="fill:#5C5560;" d="M445.238,271.83c-2.542,0-5.577-1.087-9.05-2.329c-2.555-0.914-5.45-1.951-8.708-2.799l0.79-3.033
		c3.394,0.884,6.359,1.946,8.976,2.882c5.421,1.939,8.566,2.96,10.183,1.344c4.501-4.514,8.48-13.88,2.72-19.641
		c-3.096-3.096-7.377-2.598-13.299-1.907c-4.496,0.523-9.595,1.119-15.326,0.165l0.514-3.092c5.293,0.88,10.157,0.313,14.449-0.187
		c6.283-0.734,11.709-1.366,15.878,2.805c5.239,5.239,5.655,15.675-2.719,24.072C448.406,271.347,446.932,271.83,445.238,271.83z"/>
	<path style="fill:#5C5560;" d="M452.221,265.582c-0.324,0-0.651-0.1-0.931-0.307c-0.697-0.514-0.843-1.496-0.328-2.192
		c0.488-0.66,0.638-1.289,0.473-1.981c-0.563-2.358-4.468-4.787-5.792-5.45c-0.773-0.389-1.087-1.329-0.698-2.103
		c0.387-0.773,1.326-1.088,2.101-0.7c0.655,0.327,6.428,3.318,7.437,7.52c0.382,1.592,0.037,3.175-1.001,4.578
		C453.175,265.362,452.702,265.582,452.221,265.582z"/>
	<path style="fill:#5C5560;" d="M360.647,304.191c-10.156-10.93-35.224-7.941-36.289-7.805l-1.902,0.23l0.606,1.818
		c0.042,0.125,4.044,12.518-3.469,23.092l-0.021,0.031c-2.696,3.793-6.583,6.949-11.557,9.383c-0.773,0.376-1.097,1.317-0.721,2.1
		c0.272,0.554,0.836,0.878,1.411,0.878c0.23,0,0.47-0.052,0.69-0.167c5.172-2.529,9.3-5.81,12.278-9.759
		c9.08-0.355,16.551,2.602,22.58,4.984c5.841,2.299,10.459,4.117,14.232,2.058c0.46-0.251,0.888-0.543,1.285-0.909
		c0.073-0.052,0.146-0.105,0.209-0.178c1.975-1.849,3.375-5.036,4.336-9.843C365.62,313.574,364.387,308.214,360.647,304.191z
		 M361.242,319.488c-0.167,0.857-0.355,1.64-0.554,2.372c-0.826,3.082-1.881,5.099-3.208,6.092c-0.157,0.125-0.324,0.23-0.491,0.324
		c-2.497,1.358-6.51-0.219-11.588-2.215c-5.831-2.309-12.946-5.11-21.671-5.225c4.869-8.694,3.668-17.69,2.811-21.514
		c5.81-0.46,24.179-1.212,31.807,7.001C361.409,309.614,362.36,313.919,361.242,319.488z"/>
	<path style="fill:#5C5560;" d="M358.865,330.417c-0.149,0-0.301-0.022-0.451-0.067c-0.829-0.249-1.3-1.122-1.05-1.952
		c2.752-9.172-5.833-13.574-6.199-13.757c-0.773-0.386-1.09-1.325-0.707-2.099c0.383-0.774,1.319-1.092,2.094-0.713
		c3.936,1.935,10.634,8.076,7.815,17.47C360.162,329.978,359.539,330.417,358.865,330.417z"/>
	<path style="fill:#5C5560;" d="M326.206,95.879c0.131-6.685,5.571-12.027,12.272-12.027c6.784,0,12.289,5.489,12.289,12.289
		c0,6.783-5.506,12.289-12.289,12.289c-0.017,0-0.032,0-0.049,0L326.206,95.879z"/>
	<path style="fill:#5C5560;" d="M96.373,197.204c-4.981,1.573-8.586,6.227-8.586,11.715c0,5.358,3.441,9.913,8.225,11.584
		L96.373,197.204z"/>
</g>
<g>
</g>
<g>
</g>
<g>
</g>
<g>
</g>
<g>
</g>
<g>
</g>
<g>
</g>
<g>
</g>
<g>
</g>
<g>
</g>
<g>
</g>
<g>
</g>
<g>
</g>
<g>
</g>
<g>
</g>
</svg>
