<svg xmlns="http://www.w3.org/2000/svg" viewBox="0 0 512 512" style="enable-background:new 0 0 512 512" xml:space="preserve"><path style="fill:#f2f2f2" d="M512 256c0 5.151-.157 10.271-.46 15.35a254.457 254.457 0 0 1-10.857 60.134c-11.128 36.112-30.03 68.817-54.753 96.151a263.994 263.994 0 0 1-8.296 8.767C391.262 483.088 327.001 512 256 512s-135.262-28.902-181.624-75.598a256.52 256.52 0 0 1-39.549-51.419C12.685 347.105 0 303.031 0 256s12.685-91.105 34.826-128.982a256.537 256.537 0 0 1 39.549-51.419C120.738 28.902 184.999 0 256 0c115.106 0 212.47 75.975 244.684 180.517a254.508 254.508 0 0 1 10.857 60.134A258.57 258.57 0 0 1 512 256z"/><path style="fill:#5e4e88" d="M445.931 427.635a263.994 263.994 0 0 1-8.296 8.767h-72.819l-78.66-116.151-78.66 116.151h-87.05L242.625 256 120.445 75.598h87.05l238.436 352.037z"/><path style="fill:#453963" d="m209.23 256-43.52 64.251-78.66 116.151H74.376a256.52 256.52 0 0 1-39.549-51.419L122.18 256 34.826 127.018 0 75.598h87.05l78.66 116.151L209.23 256z"/><path style="fill:#904c8c" d="M511.997 180.516v60.132H351.429l-33.137-48.899-7.6-11.233zM511.54 271.35a254.457 254.457 0 0 1-10.857 60.134h-87.74l-40.741-60.134H511.54z"/></svg>