<svg width="24" height="24" fill="none" xmlns="http://www.w3.org/2000/svg"><path d="M12 6.5c-3.328 0-6 2.695-6 6 0 3.328 2.672 6 6 6 3.305 0 6-2.672 6-6 0-3.305-2.695-6-6-6Zm0 10.875A4.871 4.871 0 0 1 7.125 12.5c0-2.672 2.18-4.875 4.875-4.875 2.672 0 4.875 2.203 4.875 4.875 0 2.695-2.203 4.875-4.875 4.875Zm.938-3h-.376v-2.063A.57.57 0 0 0 12 11.75h-.75a.555.555 0 0 0-.563.563c0 .328.235.562.563.562h.188v1.5h-.376a.555.555 0 0 0-.562.563c0 .328.234.562.563.562h1.874a.555.555 0 0 0 .563-.563.57.57 0 0 0-.563-.562ZM12 11c.398 0 .75-.328.75-.75A.771.771 0 0 0 12 9.5a.755.755 0 0 0-.75.75c0 .422.328.75.75.75Z" fill="#1D4ED8"/><path d="M12 6.5c-3.328 0-6 2.695-6 6 0 3.328 2.672 6 6 6 3.305 0 6-2.672 6-6 0-3.305-2.695-6-6-6Zm0 10.875A4.871 4.871 0 0 1 7.125 12.5c0-2.672 2.18-4.875 4.875-4.875 2.672 0 4.875 2.203 4.875 4.875 0 2.695-2.203 4.875-4.875 4.875Zm.938-3h-.376v-2.063A.57.57 0 0 0 12 11.75h-.75a.555.555 0 0 0-.563.563c0 .328.235.562.563.562h.188v1.5h-.376a.555.555 0 0 0-.562.563c0 .328.234.562.563.562h1.874a.555.555 0 0 0 .563-.563.57.57 0 0 0-.563-.562ZM12 11c.398 0 .75-.328.75-.75A.771.771 0 0 0 12 9.5a.755.755 0 0 0-.75.75c0 .422.328.75.75.75Z" fill="#1D4ED8"/></svg>