<?xml version="1.0" encoding="iso-8859-1"?>
<!-- Generator: Adobe Illustrator 19.0.0, SVG Export Plug-In . SVG Version: 6.00 Build 0)  -->
<svg version="1.1" id="Capa_1" xmlns="http://www.w3.org/2000/svg" xmlns:xlink="http://www.w3.org/1999/xlink" x="0px" y="0px"
	 viewBox="0 0 512 512" style="enable-background:new 0 0 512 512;" xml:space="preserve">
<path style="fill:#F2F2F2;" d="M512,256c0,94.187-50.866,176.504-126.642,220.954c-2.038,1.202-4.106,2.372-6.186,3.511
	C342.632,500.569,300.659,512,256,512c-34.544,0-67.48-6.844-97.541-19.247c-4.827-1.985-9.582-4.117-14.252-6.395
	C58.838,444.865,0,357.303,0,256C0,114.615,114.615,0,256,0S512,114.615,512,256z"/>
<g>
	<path style="fill:#DE0A17;" d="M289.623,4.605c7.587,28.969,5.518,43.454-34.487,76.562s-46.213,33.797-46.213,54.489
		s30.694,53.455,45.523,62.767c0,0-2.414-5.863-7.932-14.829c-5.518-8.966-22.416-24.141-19.313-47.247s51.903-52.593,64.491-74.837
		C304.279,39.264,301.349,20.469,289.623,4.605z"/>
	<path style="fill:#DE0A17;" d="M333.767,77.717c-34.487,11.381-77.251,29.314-77.251,64.146s22.071,28.279,22.071,46.902
		s-12.071,24.141-12.071,24.141s31.728-12.071,30.349-36.212s-20.347-20.692-20.347-43.109
		C276.518,105.211,333.767,77.717,333.767,77.717z"/>
	<path style="fill:#DE0A17;" d="M211.682,201.182c-34.487,0-58.283,12.76-58.283,20.002s42.419,14.14,88.287,11.036
		s70.009-6.897,88.287-17.934c0,0-32.418,7.587-57.249,7.587s-95.794,4.438-94.149-6.208c1.645-10.645,42.765-14.484,42.765-14.484
		L211.682,201.182L211.682,201.182z"/>
	<path style="fill:#DE0A17;" d="M198.921,241.531c-18.278,6.553-23.107,13.105-12.415,20.003
		c10.691,6.897,31.728,8.966,60.697,8.966s69.32-10.002,69.32-10.002l-13.105-10.347c0,0-17.934,6.553-52.076,6.553
		S182.885,257.568,198.921,241.531z"/>
	<path style="fill:#DE0A17;" d="M207.198,280.502c-17.934,6.208-21.727,14.484-5.863,22.071c15.864,7.587,46.213,8.966,68.629,5.863
		c22.416-3.103,41.384-10.002,41.384-10.002s-12.243-4.656-17.934-10.347c0,0-26.21,5.518-51.041,5.518
		S197.542,290.158,207.198,280.502z"/>
	<path style="fill:#DE0A17;" d="M341.009,203.25c0,0,8.621-11.726,30.349-2.759c21.727,8.966,21.037,33.108,1.379,47.592
		s-43.454,19.313-43.454,19.313s44.144-19.313,43.109-43.109C371.358,200.492,351.009,201.182,341.009,203.25z"/>
	<path style="fill:#DE0A17;" d="M164.435,328.78c67.943,12.415,171.404-0.342,189.676-4.821
		c18.282-4.49,11.588-14.216,11.588-14.216c4.469,3.156,6.456,6.632,4.625,10.419c-10.005,20.692-105.189,24.137-133.124,24.137
		s-112.773-1.718-112.773-16.895c0-14.991,40.029-24.262,54.969-20.816C151.295,314.627,134.617,323.328,164.435,328.78z"/>
	<path style="fill:#DE0A17;" d="M172.194,350.941c0,0,24.055,18.364,143.811,7.759c47.851-3.88,67.767-15.778,70.354-28.969
		c0,0-21.986,12.415-49.145,17.589C310.057,352.494,265.309,360.512,172.194,350.941z"/>
	<path style="fill:#DE0A17;" d="M169.88,377.49h-19.884c0.439,16.687,0.878,31.347,0.878,46.582c0,11.609-0.439,25.245-0.439,38.881
		c0,9.007-2.058,16.603-6.228,23.406c4.671,2.278,9.425,4.409,14.252,6.395c7.147-8.652,11.212-19.383,10.982-32.841
		c-0.293-11.034-0.293-25.245-0.293-35.84C169.148,408.252,169.441,392.871,169.88,377.49z"/>
	<path style="fill:#DE0A17;" d="M303.762,405.64l-12.048,35.694c-2.173,6.531-3.772,12.769-5.224,19.007h-1.306
		c-1.014-6.384-2.466-12.184-4.932-19.007l-3.918-11.463c-2.905-8.119-5.371-16.687-7.544-24.952l-20.02,2.466l27.857,72.255
		l14.367-1.452l16.969-43.959c3.344-8.558,7.69-18.725,11.755-27.721L303.762,405.64z"/>
	<path style="fill:#DE0A17;" d="M359.664,404.908c-8.119,0-17.408,1.745-29.738,8.568l3.187,11.316l1.16,0.721
		c7.983-5.799,15.099-8.558,20.605-8.558c7.398,0,12.915,4.932,12.915,12.779v6.374c-31.775,4.796-39.612,14.66-39.612,26.122
		c0,12.048,8.568,18.568,18.139,18.568c7.983,0,14.942-4.786,21.191-10.01l1.296,0.293c1.296,6.52,5.601,8.986,10.365,9.383
		c2.079-1.139,4.148-2.309,6.186-3.511v-49.403C385.358,412.317,376.215,404.908,359.664,404.908z M367.794,461.939
		c-5.214,4.504-9.571,6.823-13.49,6.823c-4.932,0-8.997-3.187-8.997-9.435c0-6.677,4.493-11.609,22.486-14.221V461.939z"/>
	<path style="fill:#DE0A17;" d="M215.009,404.919c-8.119,0-17.408,1.735-29.748,8.558l3.197,11.316l1.16,0.731
		c7.983-5.81,15.088-8.568,20.605-8.568c7.398,0,12.915,4.932,12.915,12.769v6.384c-31.775,4.796-39.612,14.66-39.612,26.122
		c0,12.048,8.558,18.568,18.139,18.568c7.973,0,14.942-4.786,21.18-10.01l1.306,0.293c1.452,7.398,6.823,9.582,12.33,9.435
		c1.358,0,2.779-0.167,4.211-0.47v-52.496C240.692,412.317,231.549,404.919,215.009,404.919z M223.138,461.939
		c-5.224,4.504-9.582,6.823-13.5,6.823c-4.932,0-8.997-3.197-8.997-9.435c0-6.677,4.504-11.609,22.497-14.221V461.939z"/>
</g>
<g>
</g>
<g>
</g>
<g>
</g>
<g>
</g>
<g>
</g>
<g>
</g>
<g>
</g>
<g>
</g>
<g>
</g>
<g>
</g>
<g>
</g>
<g>
</g>
<g>
</g>
<g>
</g>
<g>
</g>
</svg>
