<svg width="902" height="254" viewBox="0 0 902 254" fill="none" xmlns="http://www.w3.org/2000/svg">
<g clip-path="url(#clip0_247_13611)">
<rect width="902" height="254" rx="24" fill="#1D1D24"/>
<g clip-path="url(#clip1_247_13611)">
<circle r="0.994797" transform="matrix(-1 0 0 1 246.212 73.8761)" fill="#F8F8F7"/>
<circle r="0.994797" transform="matrix(-1 0 0 1 200.949 122.621)" fill="#DDD6FE"/>
<circle r="0.994797" transform="matrix(-1 0 0 1 238.751 153.957)" fill="#F8F8F7"/>
<circle r="0.994797" transform="matrix(-1 0 0 1 128.826 248.463)" fill="#DDD6FE"/>
<circle r="0.994797" transform="matrix(-1 0 0 1 442.187 172.858)" fill="#F8F8F7"/>
<circle r="0.994797" transform="matrix(-1 0 0 1 459.099 84.8189)" fill="#F8F8F7"/>
<circle r="0.994797" transform="matrix(-1 0 0 1 558.579 49.0063)" fill="#F8F8F7"/>
<circle r="0.994797" transform="matrix(-1 0 0 1 683.923 127.595)" fill="#F8F8F7"/>
<circle r="0.994797" transform="matrix(-1 0 0 1 728.689 71.8866)" fill="#C9C4FF"/>
<circle r="0.994797" transform="matrix(-1 0 0 1 729.186 55.4724)" fill="#F8F8F7"/>
<circle r="0.994797" transform="matrix(-1 0 0 1 741.621 54.4776)" fill="#F8F8F7"/>
<circle r="0.994797" transform="matrix(-1 0 0 1 721.228 2.25078)" fill="#F8F8F7"/>
<circle r="0.994797" transform="matrix(-1 0 0 1 119.873 39.0583)" fill="#F8F8F7"/>
<circle r="0.994797" transform="matrix(-1 0 0 1 42.2789 147.989)" fill="#F8F8F7"/>
<circle r="0.994797" transform="matrix(-1 0 0 1 342.21 33.0895)" fill="#F8F8F7"/>
<circle r="0.994797" transform="matrix(-1 0 0 1 508.341 127.595)" fill="#F8F8F7"/>
<circle r="0.994797" transform="matrix(-1 0 0 1 542.662 211.158)" fill="#F8F8F7"/>
<circle r="0.994797" transform="matrix(-1 0 0 1 774.947 212.153)" fill="#F8F8F7"/>
<circle r="0.994797" transform="matrix(-1 0 0 1 889.846 214.143)" fill="#F8F8F7"/>
<circle r="0.994797" transform="matrix(-1 0 0 1 898.799 108.197)" fill="#F8F8F7"/>
<circle r="0.994797" transform="matrix(-1 0 0 1 888.851 92.2799)" fill="#F8F8F7"/>
<circle r="0.497399" transform="matrix(-1 0 0 1 837.619 109.689)" fill="#C9C4FF"/>
<circle r="0.497399" transform="matrix(-1 0 0 1 858.012 212.153)" fill="#C9C4FF"/>
<circle r="0.497399" transform="matrix(-1 0 0 1 618.764 1.25594)" fill="#F8F8F7"/>
<circle r="0.497399" transform="matrix(-1 0 0 1 601.852 158.434)" fill="#F8F8F7"/>
<circle r="0.497399" transform="matrix(-1 0 0 1 517.792 203.2)" fill="#F8F8F7"/>
<circle r="0.497399" transform="matrix(-1 0 0 1 317.838 157.439)" fill="#F8F8F7"/>
<circle r="0.497399" transform="matrix(-1 0 0 1 213.881 116.652)" fill="#F8F8F7"/>
<circle r="0.994797" transform="matrix(-1 0 0 1 327.786 247.468)" fill="#F8F8F7"/>
<circle r="1.4922" transform="matrix(-1 0 0 1 72.1228 210.661)" fill="#F8F8F7"/>
<circle r="1.4922" transform="matrix(-1 0 0 1 294.46 202.205)" fill="#DDD6FE"/>
<circle r="1.4922" transform="matrix(-1 0 0 1 402.395 235.033)" fill="#F8F8F7"/>
<circle r="1.98959" transform="matrix(-1 0 0 1 244.223 101.73)" fill="#F8F8F7"/>
<circle r="1.98959" transform="matrix(-1 0 0 1 211.394 196.734)" fill="#C9C4FF"/>
<circle r="1.98959" transform="matrix(-1 0 0 1 36.8075 89.2955)" fill="#F8F8F7"/>
<circle r="1.98959" transform="matrix(-1 0 0 1 588.92 36.0739)" fill="#F8F8F7"/>
<circle r="1.98959" transform="matrix(-1 0 0 1 333.257 15.6805)" fill="#F8F8F7"/>
<circle r="1.98959" transform="matrix(-1 0 0 1 387.473 110.186)" fill="#C1F2F9"/>
<circle r="1.98959" transform="matrix(-1 0 0 1 515.305 154.952)" fill="#DDD6FE"/>
<circle r="1.98959" transform="matrix(-1 0 0 1 697.85 220.111)" fill="#C1F2F9"/>
<circle r="1.98959" transform="matrix(-1 0 0 1 0.994842 170.869)" fill="#DDD6FE"/>
<circle r="1.4922" transform="matrix(-1 0 0 1 797.33 0.261178)" fill="#F8F8F7"/>
<circle r="1.4922" transform="matrix(-1 0 0 1 632.194 52.9854)" fill="#F8F8F7"/>
<circle r="1.4922" transform="matrix(-1 0 0 1 716.254 104.715)" fill="#F8F8F7"/>
<circle r="1.4922" transform="matrix(-1 0 0 1 726.202 125.108)" fill="#F8F8F7"/>
<circle r="1.98959" transform="matrix(-1 0 0 1 128.826 51.9906)" fill="#F8F8F7"/>
</g>
<path d="M881.459 254C881.139 254 880.819 253.863 880.569 253.589C880.08 253.041 880.08 252.149 880.574 251.596L904.859 224.413C905.348 223.865 906.139 223.859 906.634 224.418C907.123 224.962 907.123 225.853 906.629 226.407L882.344 253.594C882.104 253.863 881.779 254 881.459 254Z" fill="#9B8FFF"/>
<path d="M866.81 254C866.49 254 866.17 253.863 865.92 253.589C865.431 253.041 865.431 252.149 865.925 251.596L890.205 224.413C890.695 223.865 891.481 223.859 891.98 224.418C892.469 224.962 892.469 225.853 891.975 226.407L867.695 253.594C867.45 253.863 867.13 254 866.81 254Z" fill="#9B8FFF"/>
<path d="M852.156 254C851.836 254 851.516 253.863 851.266 253.589C850.777 253.041 850.777 252.149 851.271 251.596L875.556 224.413C876.041 223.865 876.832 223.859 877.331 224.418C877.82 224.962 877.82 225.853 877.326 226.407L853.041 253.594C852.796 253.863 852.476 254 852.156 254Z" fill="#9B8FFF"/>
<path d="M837.361 254C837.041 254 836.716 253.858 836.471 253.589C835.982 253.035 835.982 252.144 836.476 251.596L860.897 224.413C861.387 223.865 862.187 223.87 862.677 224.418C863.162 224.967 863.162 225.858 862.672 226.407L838.246 253.594C838.001 253.863 837.681 254 837.361 254Z" fill="#9B8FFF"/>
<path d="M822.707 254C822.387 254 822.062 253.858 821.818 253.589C821.328 253.035 821.328 252.144 821.822 251.596L846.244 224.413C846.733 223.865 847.533 223.87 848.023 224.418C848.508 224.967 848.508 225.858 848.014 226.407L823.592 253.594C823.347 253.863 823.027 254 822.707 254Z" fill="#9B8FFF"/>
<path d="M808.058 254C807.738 254 807.413 253.858 807.169 253.589C806.679 253.035 806.679 252.144 807.173 251.596L831.59 224.413C832.079 223.865 832.88 223.87 833.365 224.418C833.854 224.967 833.854 225.858 833.36 226.407L808.943 253.594C808.698 253.863 808.378 254 808.058 254Z" fill="#9B8FFF"/>
<path d="M793.404 254C793.08 254 792.755 253.858 792.515 253.589C792.025 253.035 792.025 252.144 792.515 251.596L816.941 224.413C817.43 223.865 818.226 223.87 818.715 224.418C819.205 224.967 819.205 225.858 818.711 226.407L794.289 253.594C794.045 253.863 793.725 254 793.404 254Z" fill="#9B8FFF"/>
<path d="M778.746 254C778.426 254 778.101 253.858 777.856 253.589C777.371 253.035 777.372 252.144 777.861 251.596L802.287 224.413C802.772 223.865 803.572 223.87 804.062 224.418C804.551 224.967 804.551 225.858 804.057 226.407L779.631 253.594C779.391 253.863 779.066 254 778.746 254Z" fill="#9B8FFF"/>
<path d="M764.097 254C763.777 254 763.452 253.858 763.207 253.589C762.718 253.035 762.718 252.144 763.212 251.596L787.629 224.413C788.118 223.865 788.918 223.87 789.408 224.418C789.893 224.967 789.893 225.858 789.403 226.407L764.982 253.594C764.737 253.863 764.417 254 764.097 254Z" fill="#9B8FFF"/>
<path d="M749.443 254C749.123 254 748.798 253.858 748.553 253.589C748.064 253.035 748.064 252.144 748.558 251.596L772.98 224.413C773.469 223.865 774.269 223.87 774.754 224.418C775.244 224.967 775.244 225.858 774.749 226.407L750.328 253.594C750.083 253.863 749.763 254 749.443 254Z" fill="#9B8FFF"/>
<path d="M734.789 254C734.469 254 734.144 253.858 733.9 253.589C733.41 253.035 733.41 252.144 733.904 251.596L758.326 224.413C758.815 223.865 759.615 223.87 760.1 224.418C760.59 224.967 760.59 225.858 760.096 226.407L735.674 253.594C735.429 253.863 735.109 254 734.789 254Z" fill="#9B8FFF"/>
<path d="M720.136 254C719.811 254 719.486 253.858 719.241 253.589C718.756 253.035 718.757 252.144 719.246 251.596L743.672 224.413C744.162 223.865 744.957 223.87 745.447 224.418C745.936 224.967 745.936 225.858 745.442 226.407L721.021 253.594C720.776 253.863 720.456 254 720.136 254Z" fill="#9B8FFF"/>
<path d="M705.482 254C705.162 254 704.837 253.858 704.592 253.589C704.107 253.035 704.107 252.144 704.597 251.596L729.023 224.413C729.508 223.865 730.308 223.87 730.798 224.418C731.287 224.967 731.287 225.858 730.793 226.407L706.367 253.594C706.127 253.863 705.807 254 705.482 254Z" fill="#9B8FFF"/>
<path d="M690.828 254C690.508 254 690.183 253.858 689.938 253.589C689.449 253.035 689.449 252.144 689.943 251.596L714.365 224.413C714.854 223.865 715.654 223.87 716.144 224.418C716.629 224.967 716.629 225.858 716.139 226.407L691.713 253.594C691.468 253.863 691.148 254 690.828 254Z" fill="#9B8FFF"/>
<path d="M676.174 254C675.854 254 675.529 253.858 675.285 253.589C674.795 253.035 674.795 252.144 675.289 251.596L699.711 224.413C700.2 223.865 701 223.87 701.485 224.418C701.975 224.967 701.975 225.858 701.481 226.407L677.059 253.594C676.815 253.863 676.494 254 676.174 254Z" fill="#9B8FFF"/>
<path d="M661.525 254C661.205 254 660.88 253.858 660.635 253.589C660.146 253.035 660.146 252.144 660.64 251.596L685.057 224.413C685.546 223.865 686.347 223.87 686.831 224.418C687.321 224.967 687.321 225.858 686.827 226.407L662.41 253.594C662.165 253.863 661.845 254 661.525 254Z" fill="#9B8FFF"/>
<path d="M646.872 254C646.547 254 646.222 253.858 645.977 253.589C645.492 253.035 645.492 252.144 645.982 251.596L670.408 224.413C670.893 223.865 671.693 223.87 672.183 224.418C672.672 224.967 672.672 225.858 672.178 226.407L647.757 253.594C647.512 253.863 647.192 254 646.872 254Z" fill="#9B8FFF"/>
<path d="M632.213 254C631.893 254 631.568 253.858 631.323 253.589C630.838 253.035 630.838 252.144 631.328 251.596L655.754 224.413C656.239 223.865 657.039 223.87 657.529 224.418C658.014 224.967 658.014 225.858 657.524 226.407L633.098 253.594C632.858 253.863 632.533 254 632.213 254Z" fill="#9B8FFF"/>
<path d="M617.559 254C617.239 254 616.919 253.863 616.669 253.589C616.18 253.041 616.18 252.149 616.674 251.596L640.959 224.413C641.448 223.865 642.234 223.859 642.733 224.418C643.223 224.962 643.223 225.853 642.729 226.407L618.444 253.594C618.199 253.863 617.879 254 617.559 254Z" fill="#9B8FFF"/>
<path d="M602.91 254C602.59 254 602.27 253.863 602.02 253.589C601.531 253.041 601.531 252.149 602.025 251.596L626.305 224.413C626.79 223.865 627.581 223.859 628.08 224.418C628.569 224.962 628.569 225.853 628.075 226.407L603.795 253.594C603.55 253.863 603.23 254 602.91 254Z" fill="#9B8FFF"/>
<path d="M588.256 254C587.936 254 587.611 253.863 587.367 253.589C586.877 253.041 586.877 252.149 587.371 251.596L611.651 224.413C612.141 223.865 612.932 223.859 613.431 224.418C613.916 224.962 613.916 225.853 613.426 226.407L589.141 253.594C588.896 253.863 588.576 254 588.256 254Z" fill="#9B8FFF"/>
<path d="M94.643 142.316C94.1215 145.238 93.5822 148.261 92.8618 151.175C91.8234 155.366 92.8356 158.795 96.2449 162.639C102.58 169.782 110.864 174.103 118.874 178.281L120.579 179.169C123.375 180.637 126.534 180.878 129.977 179.901C129.791 179.495 129.599 179.089 129.408 178.683C126.384 179.499 123.623 179.271 121.193 177.998L119.487 177.106C111.582 172.983 103.409 168.72 97.2351 161.76C94.1092 158.237 93.2146 155.26 94.1473 151.492C94.8786 148.536 95.4218 145.492 95.9471 142.548C96.1946 141.157 96.4429 139.766 96.7102 138.383C96.7453 138.201 96.7749 138.024 96.8066 137.846C96.412 137.537 96.0127 137.233 95.6134 136.928C95.5546 137.326 95.4886 137.728 95.4104 138.129C95.1409 139.521 94.8922 140.916 94.643 142.316Z" fill="#1D1D24"/>
<path d="M130.445 190.52C128.92 193.234 129.091 196.414 130.916 199.252C132.497 201.705 134.721 204.584 138.162 205.866C138.066 205.341 137.967 204.821 137.863 204.301C135.197 203.024 133.369 200.614 132.03 198.533C130.479 196.127 130.323 193.442 131.601 191.167C132.154 190.181 132.939 189.784 133.874 189.648C133.728 189.226 133.581 188.807 133.431 188.393C132.278 188.612 131.197 189.179 130.445 190.52Z" fill="#1D1D24"/>
<path d="M121.945 165.278C121.596 164.745 121.247 164.208 120.89 163.675C111.646 161.35 107.156 155.949 106.611 146.473C106.155 146.025 105.699 145.572 105.235 145.132C105.443 156.499 110.779 162.923 121.945 165.278Z" fill="#1D1D24"/>
<path d="M-81.8572 242.529C-81.4604 242.922 -81.0632 243.311 -80.6707 243.705C-78.9533 245.426 -77.1433 246.263 -75.1387 246.263H-75.074C-73.1549 246.242 -71.2341 246.25 -69.3124 246.259C-64.3507 246.276 -59.2211 246.293 -54.1963 245.887C-44.0813 245.062 -35.2441 245.887 -27.1827 248.403C-19.8577 250.686 -12.6542 253.706 -5.15955 257.634C-1.73838 259.427 1.63371 260.539 5.14964 261.03C5.60223 261.093 6.05146 261.123 6.49518 261.123C9.55723 261.123 12.3139 259.664 13.4686 257.317C14.8772 254.454 13.9919 251.105 11.1587 248.58C8.87283 246.542 6.56117 245.164 4.09089 244.364C0.618111 243.235 -2.83141 242.149 -6.94249 240.859C-9.30406 240.114 -11.7375 239.48 -14.0911 238.867C-19.1945 237.535 -24.4717 236.161 -29.2224 233.64C-33.9282 231.141 -38.862 230.545 -44.3072 231.818C-54.0259 234.084 -63.984 233.179 -73.1025 229.208C-76.9944 227.513 -80.9727 225.745 -84.9814 223.868C-84.9932 224.35 -84.9953 224.836 -85 225.318C-81.163 227.107 -77.3578 228.798 -73.6316 230.422C-64.2505 234.511 -54.006 235.437 -44.0056 233.103C-38.8155 231.894 -34.3165 232.435 -29.8433 234.807C-24.9561 237.404 -19.6023 238.799 -14.4252 240.148C-12.0878 240.757 -9.66994 241.392 -7.3384 242.119C-3.23113 243.409 0.214569 244.495 3.68227 245.62C5.97447 246.365 8.13131 247.659 10.2776 249.57C12.6476 251.68 13.4141 254.425 12.28 256.734C11.2082 258.911 8.35212 260.142 5.33279 259.719C1.96999 259.25 -1.26041 258.184 -4.54411 256.463C-12.1106 252.496 -19.3865 249.443 -26.7885 247.134C-32.971 245.206 -39.59 244.254 -46.8659 244.254C-49.2706 244.254 -51.7476 244.36 -54.3038 244.567C-59.2723 244.969 -64.374 244.952 -69.3078 244.935C-71.2349 244.927 -73.1608 244.918 -75.0855 244.935C-76.7647 244.944 -78.2626 244.242 -79.7329 242.77C-80.1288 242.373 -80.5277 241.979 -80.9274 241.586C-82.0885 240.444 -83.289 239.26 -84.3727 238.03L-84.4383 237.958C-84.363 238.702 -84.275 239.446 -84.1853 240.186C-83.4176 240.99 -82.6295 241.768 -81.8572 242.529Z" fill="#1D1D24"/>
<path d="M-53.2397 196.533C-49.4492 196.279 -45.5285 196.88 -41.249 198.356C-35.1135 200.478 -31.115 206.504 -31.9496 212.374C-33.202 221.182 -31.4322 223.923 -22.933 226.329C-15.6668 228.388 -9.1794 230.084 -3.1014 231.513C7.55296 234.021 14.5924 237.971 19.7242 244.331C22.4009 247.646 26.2442 248.5 29.9505 249.092C35.0898 249.917 40.2901 249.608 45.3187 249.312C50.6057 249.004 56.0724 248.678 61.4059 249.693C62.9846 249.989 64.5408 249.638 65.9087 248.669C67.6256 247.452 68.8582 245.367 69.2055 243.092C69.887 238.622 68.5545 236.52 64.1131 235.053C58.0863 233.065 50.9512 231.518 43.7176 235.091C38.8904 237.476 33.8648 236.897 28.3575 233.315C26.2861 231.966 24.3327 230.41 22.5515 228.689C17.2877 223.597 11.0756 220.231 4.08694 218.679C-0.103226 217.749 -4.29889 216.844 -8.49498 215.943C-11.1116 215.376 -13.7278 214.814 -16.3428 214.243C-18.4146 213.795 -20.2529 213.317 -21.7672 212.057C-23.3691 210.725 -24.1504 209.097 -23.9668 207.481C-23.7811 205.853 -22.6386 204.428 -20.7504 203.472C-18.6549 202.415 -16.3728 202.496 -13.5701 203.722C-8.95901 205.743 -4.4444 207.046 0.231796 207.701C13.1018 209.515 22.7964 214.302 29.8688 222.341C31.8797 224.629 34.7679 225.597 36.7653 226.126C39.4289 226.832 41.7545 226.46 43.3192 225.081C44.8724 223.711 45.5268 221.47 45.1626 218.764C44.5827 214.463 42.1331 210.835 38.0787 208.272C29.953 203.13 23.0455 199.51 16.3407 196.867C8.65191 193.843 0.429329 193.184 -7.52294 192.545C-9.79949 192.363 -12.153 192.177 -14.4507 191.936L-14.9126 191.886C-20.7538 191.277 -26.2709 190.697 -31.4733 188.135C-37.3579 185.229 -44.4625 182.252 -52.5421 182.151C-59.2707 182.066 -66.0035 180.561 -72.5544 177.681C-72.9198 177.52 -73.2908 177.364 -73.658 177.203C-73.8517 177.601 -74.042 177.998 -74.2311 178.396C-73.85 178.561 -73.4659 178.726 -73.0873 178.895C-66.3727 181.846 -59.4665 183.386 -52.5595 183.475C-44.7434 183.572 -37.8101 186.485 -32.0595 189.319C-26.6448 191.991 -20.7504 192.609 -15.0505 193.205L-14.589 193.251C-12.2744 193.497 -9.91329 193.683 -7.62913 193.869C0.226707 194.495 8.35073 195.146 15.8555 198.102C22.4808 200.707 29.3172 204.297 37.371 209.388C39.9598 211.025 43.1851 214.01 43.8496 218.941C44.1529 221.195 43.6533 223.022 42.4427 224.088C41.222 225.166 39.3231 225.432 37.105 224.845C34.1952 224.075 32.2126 223.001 30.8633 221.466C23.5726 213.182 13.6132 208.251 0.417061 206.39C-4.13857 205.752 -8.53941 204.479 -13.0384 202.508C-16.2311 201.113 -18.8718 201.041 -21.3481 202.293C-23.6145 203.439 -25.0484 205.274 -25.2827 207.333C-25.515 209.376 -24.5429 211.469 -22.6145 213.076C-20.8722 214.526 -18.7873 215.068 -16.6249 215.537C-14.0091 216.108 -11.3916 216.67 -8.77373 217.237C-4.5806 218.138 -0.387894 219.043 3.80016 219.973C10.5465 221.47 16.5458 224.722 21.6302 229.64C23.4727 231.42 25.4934 233.031 27.6354 234.423C33.5666 238.279 39.0186 238.884 44.3043 236.279C51.1107 232.917 57.9277 234.41 63.6981 236.313C67.5398 237.577 68.4814 239.053 67.8968 242.889C67.6024 244.821 66.5724 246.576 65.1431 247.587C64.075 248.344 62.8653 248.619 61.653 248.39C56.1596 247.35 50.6095 247.676 45.2408 247.993C40.2821 248.28 35.1562 248.585 30.1598 247.786C26.564 247.211 23.139 246.449 20.7554 243.498C15.4257 236.897 8.16206 232.803 -2.79727 230.224C-8.85665 228.798 -15.3251 227.107 -22.5726 225.056C-30.4424 222.827 -31.799 220.726 -30.6374 212.56C-29.7166 206.077 -34.0916 199.43 -40.8159 197.108C-45.2658 195.569 -49.36 194.947 -53.3276 195.214C-60.3333 195.687 -67.3469 194 -74.7687 190.08C-75.9667 189.45 -77.1561 188.841 -78.3392 188.253C-78.4907 188.672 -78.6366 189.09 -78.783 189.513C-77.6574 190.071 -76.5259 190.651 -75.3872 191.251C-67.7424 195.29 -60.4991 197.015 -53.2397 196.533Z" fill="#1D1D24"/>
<path d="M45.6491 130.513C52.7808 132.852 58.0699 136.742 61.8172 142.413C62.6513 143.673 63.812 144.688 64.7295 145.428C66.0928 146.532 67.91 147.082 69.681 147.082C71.3942 147.082 73.0641 146.566 74.235 145.526C75.9925 143.965 77.5737 141.153 75.1258 136.628C74.2739 135.051 73.062 133.689 71.4221 132.463C70.8536 132.04 70.2673 131.63 69.6798 131.22C68.2314 130.205 66.7336 129.16 65.5716 127.896C61.5156 123.49 56.2611 120.369 49.036 118.085C46.3969 117.248 44.1487 116.212 42.2727 114.96C41.409 114.846 40.5419 114.744 39.6718 114.651C41.9788 116.622 44.9478 118.178 48.6367 119.345C55.6321 121.557 60.7034 124.559 64.5962 128.792C65.8572 130.162 67.4142 131.249 68.9205 132.302C69.4962 132.704 70.0719 133.106 70.629 133.524C72.112 134.632 73.2016 135.854 73.9605 137.258C75.5945 140.278 75.391 142.726 73.3556 144.536C71.4542 146.223 67.7399 146.16 65.5619 144.401C64.309 143.386 63.4943 142.549 62.922 141.686C59.058 135.837 53.3852 131.655 46.0619 129.258C37.3487 126.403 31.1599 121.405 27.144 114C26.6406 114.004 26.1394 114.013 25.6377 114.021C25.6901 114.118 25.7455 114.207 25.7976 114.305C29.9175 122.094 36.5962 127.549 45.6491 130.513Z" fill="#1D1D24"/>
<path d="M20.1404 128.826C21.0553 133.161 23.8149 135.969 28.5766 137.406C35.3352 139.453 41.7524 142.756 47.6511 147.226C53.9372 151.987 60.0435 155.472 66.3194 157.869C68.9069 158.863 71.3125 159.358 73.4756 159.358C75.5885 159.358 77.4696 158.884 79.0617 157.941C81.9812 156.207 83.7696 153.044 84.3787 148.541C84.649 146.536 85.0479 144.506 85.4337 142.544C85.5834 141.783 85.7319 141.026 85.8744 140.265C86.6447 136.163 86.2501 132.598 84.7184 129.6C83.9054 129.118 83.0856 128.649 82.2599 128.188C84.7167 131.292 85.4785 135.199 84.5733 140.02C84.4307 140.777 84.2827 141.534 84.1342 142.286C83.7447 144.27 83.342 146.321 83.0657 148.363C82.515 152.448 80.9398 155.286 78.3857 156.799C75.5238 158.499 71.5151 158.44 66.7932 156.635C60.6348 154.279 54.6351 150.854 48.4514 146.168C42.4271 141.606 35.8698 138.231 28.9606 136.142C24.7036 134.852 22.2418 132.37 21.436 128.551C20.195 122.673 17.1481 118.22 12.1907 115.04C11.4944 115.133 10.799 115.231 10.107 115.341C15.57 118.373 18.8689 122.804 20.1404 128.826Z" fill="#1D1D24"/>
<path d="M-47.8003 159.1C-43.1943 157.806 -38.9635 158.601 -34.4802 161.599C-24.7467 168.116 -13.3238 171.575 -0.529106 171.879C-0.27108 171.888 -0.0109329 171.896 0.248783 171.909C1.04655 171.947 1.87139 171.981 2.69327 171.866C15.3945 170.078 27.2324 173.939 39.956 184.024C41.398 185.166 42.9648 186.172 44.4795 187.145C45.0734 187.526 45.6673 187.91 46.2552 188.299C52.1687 192.224 58.3385 192.507 64.5899 189.141C67.9438 187.331 70.272 187.462 72.3763 189.585C74.7498 191.97 74.7946 194.427 72.5104 196.88C71.4508 198.017 70.1814 198.876 68.7374 199.434C68.481 199.531 68.2221 199.628 67.9637 199.726C67.2526 199.992 66.517 200.271 65.8047 200.592C62.9161 201.903 60.8286 204.035 60.0757 206.441C59.5004 208.276 59.7212 210.128 60.7144 211.794C61.7055 213.456 63.3247 214.611 65.2747 215.051C67.7598 215.609 70.5989 214.979 73.0629 213.321C75.4079 211.744 76.9434 209.481 78.4273 207.295L78.7551 206.813C81.4428 202.872 84.1449 200.795 87.0141 200.474C89.8959 200.153 93.0112 201.582 96.5398 204.855C102.221 210.128 104.965 217.169 106.897 223.364C107.64 225.741 107.808 229.145 104.39 231.851C99.6421 235.611 96.8736 240.597 96.1604 246.673C95.8326 249.469 94.0975 251.541 90.8557 253.016L90.3857 253.228C88.2103 254.209 85.9604 255.228 84.3022 257.237C81.9174 260.121 81.7173 263.072 83.7227 265.77C85.66 268.375 88.8426 269.23 92.0307 267.999C94.3399 267.107 96.0598 265.529 97.3008 264.257C99.9636 261.529 102.887 261.051 106.24 262.798C109 264.235 111.99 265.47 115.38 266.574C118.934 267.733 121.031 270.016 121.79 273.56C122.204 275.488 122.676 277.197 123.233 278.782C123.732 280.203 124.331 281.514 125.022 282.715C125.281 282.267 125.533 281.814 125.786 281.362C125.299 280.423 124.861 279.421 124.482 278.343C123.944 276.812 123.487 275.154 123.085 273.281C122.231 269.293 119.776 266.616 115.79 265.318C112.47 264.235 109.547 263.026 106.852 261.626C102.968 259.601 99.4348 260.172 96.3524 263.335C94.6486 265.081 93.1682 266.138 91.5523 266.764C88.9052 267.788 86.3766 267.124 84.7861 264.98C83.1627 262.798 83.3433 260.476 85.3233 258.078C86.786 256.306 88.7995 255.397 90.931 254.437L91.4039 254.222C95.1029 252.539 97.0893 250.12 97.4759 246.826C98.1557 241.032 100.686 236.474 105.213 232.888C108.339 230.414 109.387 226.891 108.162 222.967C106.176 216.607 103.351 209.367 97.4413 203.887C93.6132 200.335 90.1518 198.787 86.866 199.155C83.5903 199.527 80.579 201.785 77.6612 206.069L77.3313 206.551C75.8529 208.733 74.4558 210.788 72.3243 212.222C70.1603 213.676 67.6976 214.234 65.5645 213.757C63.9503 213.393 62.6665 212.484 61.8523 211.118C61.0575 209.786 60.8802 208.302 61.34 206.834C61.98 204.792 63.8065 202.956 66.3525 201.798C67.0246 201.493 67.7391 201.227 68.4298 200.965C68.6917 200.867 68.9535 200.77 69.2145 200.669C70.8481 200.039 72.282 199.066 73.4791 197.78C76.2594 194.795 76.2023 191.556 73.3167 188.65C69.9995 185.31 66.3885 186.667 63.9609 187.974C58.0919 191.137 52.5392 190.883 46.9879 187.196C46.3948 186.802 45.7954 186.418 45.1956 186.033C43.7075 185.077 42.1695 184.088 40.7787 182.984C27.751 172.661 15.5895 168.708 2.508 170.556C1.80837 170.653 1.07785 170.619 0.307999 170.585C0.0385513 170.577 -0.230473 170.564 -0.49823 170.556C-13.0362 170.26 -24.2218 166.877 -33.743 160.5C-38.5744 157.265 -43.1546 156.419 -48.1594 157.827C-52.6804 159.104 -56.6853 159.011 -60.4064 157.556L-61.1749 157.256C-61.4579 157.616 -61.735 157.983 -62.0133 158.347L-60.889 158.787C-56.8904 160.356 -52.6076 160.457 -47.8003 159.1Z" fill="#1D1D24"/>
<path d="M51.1176 324.593L51.1963 324.461C54.0328 319.789 57.1714 317.429 61.373 316.807C62.0972 316.702 62.7875 316.473 63.4542 316.253C63.6504 316.186 63.8471 316.122 64.043 316.063C71.5947 313.695 74.8682 308.574 73.7735 300.84C73.4482 298.543 72.911 296.251 72.3912 294.035C72.1721 293.097 71.9529 292.162 71.7482 291.223C70.6413 286.136 71.2757 282.402 73.8065 279.116C77.6325 274.143 78.3702 268.705 75.9989 262.954C74.2862 258.797 74.6622 254.788 77.2548 249.549C81.6839 240.592 86.6257 233.902 92.8103 228.49C94.4795 227.031 95.7383 224.971 96.4515 222.54C97.5153 218.916 96.2027 215.461 93.1068 213.748C90.3164 212.2 86.5754 212.987 84.2155 215.621C82.9389 217.047 82.2499 218.763 81.5828 220.425C81.4657 220.717 81.3485 221.009 81.2288 221.297C79.9395 224.409 78.3321 226.312 76.3153 227.115C74.3382 227.902 71.9377 227.644 68.9793 226.325C66.435 225.191 63.6069 224.206 60.0783 223.229C56.2827 222.176 54.4292 219.973 54.2456 216.302C53.8027 207.43 49.5419 200.973 41.582 197.116C37.3254 195.057 33.0849 192.761 28.9849 190.536C27.0281 189.479 25.0705 188.418 23.1036 187.378C16.7955 184.041 10.0525 183.119 4.88227 182.688C2.80072 182.514 0.684067 182.295 -1.36323 182.083C-4.82796 181.724 -8.40988 181.347 -11.9537 181.191C-18.8718 180.882 -25.5014 179.047 -31.658 175.74C-38.9301 171.828 -46.4831 171.05 -55.602 170.437C-59.7621 170.154 -63.8525 169.232 -68.3434 167.557C-68.579 167.938 -68.8125 168.323 -69.0435 168.708C-64.3372 170.484 -60.0553 171.461 -55.6912 171.757C-46.7339 172.361 -39.3235 173.122 -32.2857 176.903C-25.9523 180.307 -19.1307 182.197 -12.0134 182.515C-8.50844 182.671 -4.94556 183.043 -1.50028 183.398C0.553352 183.614 2.67805 183.834 4.77272 184.007C12.2648 184.633 17.7281 186.033 22.4843 188.549C24.4466 189.585 26.4004 190.646 28.3538 191.704C32.4669 193.932 36.7206 196.233 41.0038 198.309C48.6012 201.992 52.4995 207.896 52.9225 216.366C53.1361 220.633 55.361 223.292 59.7238 224.502C63.1877 225.466 65.957 226.426 68.4396 227.534C71.7415 229.006 74.4786 229.268 76.8055 228.346C79.1713 227.403 81.0186 225.263 82.4521 221.804C82.5743 221.512 82.6932 221.216 82.8116 220.92C83.4651 219.292 84.0819 217.753 85.2024 216.505C87.1207 214.361 90.2423 213.672 92.4652 214.907C94.9972 216.307 96.0632 219.161 95.1799 222.168C94.5378 224.358 93.4165 226.198 91.9373 227.496C85.6186 233.023 80.5761 239.844 76.0674 248.961C73.2884 254.577 72.9017 258.916 74.7739 263.457C76.9523 268.739 76.2734 273.737 72.7562 278.309C69.9666 281.933 69.256 286.001 70.4539 291.502C70.6603 292.45 70.8815 293.393 71.1019 294.336C71.6146 296.526 72.145 298.789 72.4622 301.026C73.4664 308.117 70.5833 312.621 63.647 314.799C63.444 314.862 63.2414 314.93 63.0384 314.997C62.3971 315.209 61.7905 315.408 61.1797 315.496C56.6144 316.173 53.0824 318.803 50.0643 323.776L49.9848 323.908C48.3707 326.563 46.7015 329.316 44.0498 330.999C38.2882 334.666 33.0807 337.275 28.056 339C29.3812 338.996 30.7009 338.962 32.016 338.911C36.051 337.228 40.2403 334.991 44.76 332.12C47.6731 330.268 49.4239 327.384 51.1176 324.593Z" fill="#1D1D24"/>
<path d="M114.212 237.188C111.437 238.432 109.357 241.075 108.029 245.045C106.679 249.088 107.657 251.824 111.021 253.418C116.687 256.099 122.296 258.32 128.616 256.002C131.202 255.055 133.845 254.514 136.575 254.374C136.689 253.926 136.794 253.482 136.903 253.034C133.903 253.148 131.001 253.719 128.161 254.759C122.323 256.899 116.99 254.78 111.587 252.222C108.828 250.915 108.139 248.894 109.286 245.468C110.491 241.861 112.331 239.48 114.754 238.394C117.044 237.366 119.805 237.535 122.959 238.884C128.13 241.1 133.596 241.887 138.906 242.601C138.969 242.166 139.033 241.726 139.09 241.29C133.866 240.588 128.491 239.814 123.48 237.666C119.972 236.165 116.852 236.004 114.212 237.188Z" fill="#1D1D24"/>
<path d="M5.3607 138.573C8.44686 138.214 10.5039 136.793 11.4751 134.345C12.5427 131.651 11.1891 129.524 9.56695 127.629C7.75273 125.506 5.49648 123.887 2.86081 122.821C0.184105 121.734 -2.24811 120.335 -4.46121 118.614C-4.97853 118.766 -5.49712 118.918 -6.01148 119.074C-3.51201 121.142 -0.730408 122.792 2.36294 124.048C4.79981 125.037 6.88517 126.53 8.56064 128.488C10.1232 130.319 11.0077 131.93 10.2442 133.858C9.45569 135.846 7.80855 136.958 5.20799 137.258C-3.07253 138.214 -9.5367 135.038 -14.5361 127.545C-15.4692 126.149 -16.3528 124.695 -17.2115 123.244C-17.6197 123.422 -18.0283 123.595 -18.434 123.777C-17.5398 125.295 -16.618 126.813 -15.6375 128.281C-10.4089 136.116 -3.34577 139.584 5.3607 138.573Z" fill="#1D1D24"/>
<path d="M-30.8805 151.23C-17.6061 159.294 -3.57248 162.479 10.8351 160.694C18.1178 159.793 25.0481 161.383 32.019 165.553C37.7988 169.012 43.3582 172.97 48.5581 176.725C51.3655 178.755 54.5151 179.736 58.2954 179.736C59.3964 179.736 60.5533 179.656 61.7686 179.487C65.8995 178.924 67.957 176.125 67.4122 171.803C66.9418 168.073 64.2672 166.593 61.4475 165.54L60.9992 165.375C55.7096 163.413 50.2391 161.379 45.6394 157.924C40.1811 153.822 33.7664 150.177 25.4521 146.447C20.5149 144.231 15.8526 144.185 11.1984 146.303C7.69986 147.894 4.85693 148.545 2.00088 148.384C-7.6163 147.53 -19.3772 144.891 -25.0356 131.96C-25.4548 131.004 -25.9374 130.065 -26.4035 129.156C-26.5926 128.788 -26.7809 128.42 -26.967 128.048C-27.3536 128.264 -27.7406 128.475 -28.1243 128.695C-27.9454 129.05 -27.7635 129.405 -27.5812 129.761C-27.1239 130.649 -26.6519 131.571 -26.2487 132.488C-20.3099 146.067 -8.08878 148.82 1.89556 149.708H1.9184C5.00626 149.877 8.03912 149.196 11.7471 147.509C16.0942 145.53 20.2776 145.576 24.9102 147.652C33.1319 151.344 39.4658 154.943 44.8442 158.986C49.5974 162.555 55.1593 164.623 60.5385 166.619L60.9856 166.783C63.7934 167.828 65.7375 169.109 66.0975 171.972C66.4139 174.48 65.8885 177.592 61.5901 178.176C56.5603 178.865 52.6658 178.062 49.3343 175.651C44.1112 171.879 38.5238 167.904 32.6992 164.42C26.7731 160.872 20.8668 159.125 14.7537 159.125C13.4048 159.125 12.0444 159.21 10.6722 159.379C-3.42613 161.125 -17.1793 158 -30.1923 150.097C-33.0818 148.342 -34.5293 146.134 -34.7501 143.149C-34.9332 140.662 -35.297 137.402 -36.4996 134.268C-36.5296 134.188 -36.5622 134.116 -36.5926 134.04C-36.9657 134.298 -37.3409 134.552 -37.7102 134.814C-36.5922 137.766 -36.2458 140.87 -36.0706 143.246C-35.8156 146.697 -34.1668 149.23 -30.8805 151.23Z" fill="#1D1D24"/>
<path d="M120.828 195.197C120.308 191.26 118.473 188.574 115.22 186.984C114.286 186.528 113.356 186.063 112.426 185.597C110.729 184.747 108.973 183.868 107.216 183.06C100.999 180.201 94.6619 176.67 90.4231 170.238C89.7738 169.253 88.8948 168.445 88.0446 167.663C87.7777 167.422 87.512 167.177 87.2548 166.927C85.2562 164.995 82.7178 164.61 79.9188 165.811C76.93 167.092 75.3751 169.215 75.296 172.12C75.2114 175.228 75.8983 177.846 77.3953 180.113C81.1354 185.783 85.7227 189.145 91.4183 190.389C99.3034 192.114 105.272 196.558 109.667 203.976C112.373 208.538 114.602 213.668 116.682 220.108C118.089 224.464 120.863 227.06 125.161 228.054C130.032 229.175 134.969 230.257 139.949 231.306C139.968 230.862 139.987 230.414 140 229.966C135.104 228.934 130.248 227.864 125.459 226.76C121.652 225.885 119.194 223.576 117.943 219.702C115.831 213.165 113.564 207.951 110.807 203.299C106.214 195.548 99.9649 190.904 91.7013 189.095C86.3593 187.927 82.0414 184.752 78.501 179.385C77.1588 177.351 76.5425 174.983 76.6203 172.158C76.6846 169.782 77.9346 168.103 80.4413 167.029C82.7461 166.039 84.7283 166.327 86.3335 167.879C86.5988 168.137 86.8729 168.386 87.1482 168.64C87.976 169.401 88.7569 170.12 89.3169 170.97C93.7393 177.677 100.267 181.322 106.663 184.261C108.4 185.06 110.146 185.936 111.834 186.781C112.767 187.247 113.7 187.716 114.638 188.173C117.501 189.572 119.05 191.86 119.515 195.37C121.333 209.114 126.84 215.364 139.756 218.252C139.723 217.791 139.682 217.33 139.643 216.869C127.521 214.061 122.56 208.297 120.828 195.197Z" fill="#1D1D24"/>
<path d="M15.2108 11.2951H0V8.25295H15.2108V11.2951Z" fill="#DDD6FE"/>
<path d="M15.2108 24.3373H0V21.2951H15.2108V24.3373Z" fill="#DDD6FE"/>
<path d="M15.2108 37.3795H0V34.3373H15.2108V37.3795Z" fill="#DDD6FE"/>
<path d="M15.2108 50.4216H0V47.3794H15.2108V50.4216Z" fill="#DDD6FE"/>
<path d="M15.2108 63.4637H0V60.4216H15.2108V63.4637Z" fill="#DDD6FE"/>
<path d="M15.2108 76.5059H0V73.4638H15.2108V76.5059Z" fill="#DDD6FE"/>
<path d="M485.066 72.752C482.727 76.8461 479.975 80.2656 476.61 83.3501C475.037 84.7904 473.409 86.1451 471.735 87.4141L471.343 87.7112L471.634 88.1079L481.486 101.564L481.796 101.988L482.203 101.658C484.79 99.5664 487.283 97.3425 489.656 94.9718C492.354 92.28 494.748 89.2991 496.92 86.1227C499.431 82.4626 501.734 78.6335 503.411 74.3863C505.644 68.7489 506.809 62.8873 506.636 56.7242L506.635 56.7239C506.547 53.6436 506.068 50.6353 505.191 47.7043L505.191 47.7036C504.075 43.9914 502.34 40.6347 500.192 37.5303C500.192 37.5302 500.192 37.5302 500.192 37.5302L499.781 37.8146C497.983 35.2032 495.917 32.868 493.503 30.8914L485.066 72.752ZM485.066 72.752C487.414 68.639 489.408 64.2491 489.932 59.4988L489.932 59.4983C490.884 50.9464 486.548 43.5642 479.683 39.4957L479.682 39.4955C477.249 38.0511 471.693 35.542 465.827 34.3901C459.926 33.2311 453.923 33.4848 450.365 37.2808L449.95 37.723L449.595 37.2319L440.595 24.7931L440.244 24.3085L440.783 24.0494L441 24.5C440.783 24.0494 440.783 24.0493 440.783 24.0493L440.784 24.0491L440.785 24.0487L440.788 24.047L440.801 24.0408L440.851 24.0172C440.894 23.9967 440.958 23.9667 441.041 23.9284C441.207 23.8518 441.449 23.7418 441.753 23.6075C442.363 23.339 443.226 22.973 444.242 22.5818C446.27 21.8017 448.932 20.9127 451.419 20.5065C459.19 19.2378 465.957 19.8085 472.056 20.5032C472.056 20.5032 472.056 20.5032 472.057 20.5032L472 21L485.066 72.752Z" fill="#9B8FFF" stroke="#1D1D24"/>
<path d="M428.477 184.944C428.04 185.094 427.589 185.239 427.145 185.384C423.767 186.468 420.339 187.306 416.842 187.782C410.837 188.598 404.647 188.616 398.842 186.563C394.281 184.949 390.043 181.993 387.262 177.768C385.625 175.287 384.562 172.454 383.999 169.479C383.237 165.458 383.394 161.187 384.335 157.198C387.311 144.517 396.701 136.067 406.616 129.271C409.676 127.172 412.883 125.349 416.174 123.699C417.213 123.182 418.255 122.674 419.297 122.185L422.011 139.793C421.798 139.906 415 142 415 142C415 142 401.479 152.026 396.394 162C395.32 164.099 395.586 166.755 396.394 168.986C397.327 171.578 400.08 172.776 402.605 173.328C410.561 175.074 418.738 173.505 426.404 170.454L428.477 184.944Z" fill="#9B8FFF"/>
<path fill-rule="evenodd" clip-rule="evenodd" d="M416.5 123.5C440.032 108.848 456.073 107.601 471.975 90C471.975 90 479 97.5 496.5 86C472 119.5 423.5 129 401.5 154C417 135 416.5 123.5 416.5 123.5Z" fill="#9B8FFF"/>
<path fill-rule="evenodd" clip-rule="evenodd" d="M395.5 165.5C401.5 138.5 479.5 114.5 485.5 73C461 113.5 401 123.5 395.5 165.5Z" fill="#8376F2"/>
<path d="M412.181 210.067C407.328 196.821 424.315 187.229 424.315 187.229L426.238 198.044C426.238 198.044 418.694 202.946 420.048 206.963C425.355 222.718 472.248 203.768 472.248 203.768V211.379C448.508 224.362 417.839 225.513 412.181 210.067Z" fill="#9B8FFF"/>
<path d="M511.828 154.486C510.891 158.807 509.206 162.904 506.213 169.149C492.386 198.002 444.967 188.428 426.082 198.788L423.328 188.69C442.344 179.772 479.872 185.75 492.386 171.425C494.373 169.162 503.966 148.805 496.908 147.645C494.513 147.25 491.697 148.488 489.466 149.3C489.421 149.318 489.382 149.331 489.337 149.35L492.386 132.887C494.257 132.611 496.16 132.516 498.08 132.642C500.811 132.824 503.399 133.586 505.715 135.186C509.065 137.507 511.114 140.844 511.985 145.011C512.643 148.171 512.517 151.34 511.828 154.486Z" fill="#9B8FFF"/>
<path d="M484.651 106.121C480.116 72.1417 468.636 43.772 451 43.772C433.369 43.772 421.889 72.1368 417.349 106.121C383.37 110.656 355 122.136 355 139.772C355 157.403 383.37 168.884 417.349 173.423C421.884 207.397 433.364 235.772 451 235.772C468.631 235.772 480.111 207.402 484.651 173.423C518.63 168.884 547 157.408 547 139.772C547 122.136 518.625 110.656 484.651 106.121ZM416.244 163.519C383.699 158.818 364.722 148.059 364.722 139.767C364.722 131.475 383.704 120.716 416.244 116.015C415.527 123.851 415.154 131.848 415.154 139.767C415.154 147.686 415.527 155.693 416.244 163.519ZM451.005 53.489C459.297 53.489 470.056 72.4708 474.757 105.011C466.926 104.294 458.924 103.921 451.005 103.921C443.086 103.921 435.084 104.294 427.253 105.011C431.954 72.4659 442.713 53.489 451.005 53.489ZM485.761 163.519C484.159 163.755 477.586 164.521 475.926 164.688C475.764 166.354 474.988 172.922 474.757 174.523C470.056 207.068 459.297 226.05 451.005 226.05C442.713 226.05 431.954 207.068 427.253 174.523C427.022 172.922 426.246 166.349 426.084 164.688C425.327 156.976 424.87 148.688 424.87 139.767C424.87 130.851 425.327 122.564 426.084 114.841C433.796 114.085 442.084 113.628 451.005 113.628C459.921 113.628 468.208 114.085 475.926 114.841C477.591 115.003 484.159 115.779 485.761 116.01C518.306 120.712 537.293 131.475 537.293 139.762C537.288 148.05 518.306 158.818 485.761 163.519Z" fill="white"/>
<path d="M472.246 203.772C511.721 184.1 537 194.939 536 197.439C535 199.939 514.5 188.939 472.246 211.379V203.772Z" fill="#9B8FFF"/>
<path d="M429 185L426.404 170.454C427.4 170.064 428.383 169.643 429.362 169.198C432.751 167.666 436.018 165.884 439.099 164.016C439.896 163.531 440.683 163.032 441.463 162.52C442.495 161.854 443.505 161.16 444.509 160.453C447.118 158.617 449.664 156.676 452.203 154.722C455.704 152.024 459.226 149.363 462.831 146.838C463.884 146.094 464.944 145.369 466.01 144.657C466.528 144.308 467.042 143.968 467.563 143.628C473.39 139.838 479.475 136.623 486.001 134.452C487.036 134.107 488.081 133.799 489.131 133.536C490.211 133.268 491.295 133.047 492.387 132.887L489.337 149.35C488.183 149.771 487.057 150.238 485.941 150.751C483.759 151.743 481.646 152.886 479.562 154.105C474.624 157.003 469.98 160.403 465.356 163.835C464.902 164.171 464.447 164.506 463.992 164.846C463.387 165.295 462.782 165.739 462.174 166.174C457.064 169.883 451.811 173.351 446.415 176.557C445.957 176.829 445.495 177.096 445.034 177.364C444.019 177.944 443.002 178.511 441.97 179.055C438.553 180.873 435.059 182.487 431.468 183.86C430.478 184.241 430.007 184.66 429 185Z" fill="#9B8FFF"/>
<path fill-rule="evenodd" clip-rule="evenodd" d="M429 185C455.5 177 495.5 137.5 499.5 150.5C495 123.5 456 174.5 429 185Z" fill="#8376F2"/>
<path d="M429 185C425.154 186.317 420.94 187.248 416.917 187.796C410.913 188.612 404.722 188.63 398.917 186.576C394.356 184.962 387.337 177.781 387.337 177.781C387.337 177.781 415.328 175.051 426.479 170.467C429.216 175.486 429 185 429 185Z" fill="#9B8FFF"/>
<path d="M482.869 187.557C478.648 188.91 474.172 189.883 469.623 190.646L470.803 180.708C475.84 179.862 480.505 178.713 484.443 176.972L482.869 187.557Z" fill="#9B8FFF"/>
<path d="M412.181 210.067L420.048 206.963C425.355 222.718 472.248 203.768 472.248 203.768V211.379C448.508 224.362 417.839 225.513 412.181 210.067Z" fill="#9B8FFF"/>
<path d="M425 61.5L417 60L412.5 55L413.5 49.5L424.102 30.8425L440 24L443 25L439.5 25L450 37L451.5 32C450.328 40.201 449.672 44.799 448.5 53L425 61.5Z" fill="#1D1D24"/>
<path d="M425 61.5L417 60L412.5 55L413 50L424.5 30.5L439.5 25L443 25L450 36.9388L446.687 51.6161L425 61.5Z" fill="#9B8FFF"/>
<path d="M429.51 53.0906L438.352 47.8325L437.02 51.6874L429.51 53.0906Z" fill="#1D1D24"/>
<path d="M421.063 40.5374L425.327 35.3211L422.701 35.8095L421.063 40.5374Z" fill="#1D1D24"/>
<path d="M439.5 25L443 25L441 24.5L439.5 25Z" fill="#1D1D24"/>
</g>
<rect x="1" y="1" width="900" height="252" rx="23" stroke="#44494F" stroke-width="2"/>
<defs>
<clipPath id="clip0_247_13611">
<rect width="902" height="254" rx="24" fill="white"/>
</clipPath>
<clipPath id="clip1_247_13611">
<rect width="956" height="536.693" fill="white" transform="matrix(-1 0 0 1 956 -141)"/>
</clipPath>
</defs>
</svg>
