<svg xmlns="http://www.w3.org/2000/svg" xmlns:xlink="http://www.w3.org/1999/xlink" xmlns:lucid="lucid" width="1400" height="480"><g transform="translate(-220 -200)" lucid:page-tab-id="0_0"><path d="M0 0h1760v1360H0z" fill="#fff"/><path d="M240 240h340v80H240z" stroke="#54c45e" stroke-width="5" fill="#fff"/><use xlink:href="#a" transform="matrix(1,0,0,1,252,252) translate(108.80864197530865 35.388888888888886)"/><path d="M240 560h340v80H240z" stroke="#6db1ff" stroke-width="5" fill="#fff"/><use xlink:href="#b" transform="matrix(1,0,0,1,252,572) translate(111.35802469135803 35.388888888888886)"/><path d="M240 400h340v80H240z" stroke="#6db1ff" stroke-width="5" fill="#fff"/><use xlink:href="#c" transform="matrix(1,0,0,1,252,412) translate(138.66666666666669 35.388888888888886)"/><path d="M584 280h112.88" stroke="#3a414a" stroke-width="3" fill="none"/><path d="M584.04 281.5h-1.54v-3h1.54z" stroke="#3a414a" stroke-width=".05" fill="#3a414a"/><path d="M712.65 280l-14.27 4.64v-9.28z" stroke="#3a414a" stroke-width="3" fill="#3a414a"/><path d="M720 220h280v120H720z" stroke="#54c45e" stroke-width="5" fill="#fff"/><use xlink:href="#d" transform="matrix(1,0,0,1,732,232) translate(94.03703703703704 21.333333333333332)"/><path d="M750 286a16 16 0 0 1 16-16h188a16 16 0 0 1 16 16v18a16 16 0 0 1-16 16H766a16 16 0 0 1-16-16z" stroke="#54c45e" stroke-width="3" fill="#fff"/><use xlink:href="#e" transform="matrix(1,0,0,1,755,275) translate(32.90123456790124 25.27777777777778)"/><path d="M581.5 440h114.88M581.54 440H580" stroke="#3a414a" stroke-width="3" fill="none"/><path d="M712.15 440l-14.27 4.64v-9.28z" stroke="#3a414a" stroke-width="3" fill="#3a414a"/><path d="M719.5 380h280v120h-280z" fill="#fff"/><path d="M766.17 380h46.66m23.34 0h46.66m23.34 0h46.66m23.34 0h23.33v20m0 20v40m0 20v20h-23.33m-23.34 0h-46.66m-23.34 0h-46.66m-23.34 0h-46.66m-23.34 0H719.5v-20m0-20v-40m0-20v-20h23.33" stroke="#6db1ff" stroke-width="5" fill="none"/><use xlink:href="#d" transform="matrix(1,0,0,1,731.5,392) translate(94.03703703703704 21.333333333333332)"/><path d="M749.5 446a16 16 0 0 1 16-16h188a16 16 0 0 1 16 16v18a16 16 0 0 1-16 16h-188a16 16 0 0 1-16-16z" fill="#fff"/><path d="M794.75 430.16l31.75-.03m15.87-.02l31.75-.02m15.88 0l31.75-.05m15.87 0l15.88-.03 2.5.2 2.44.58 2.32.96 2.14 1.32 1.9 1.63 1.64 1.9 1.32 2.14.96 2.32.58 2.44.2 20.5-.2 2.5-.58 2.44-.96 2.32-1.32 2.14-1.63 1.9-1.9 1.64-2.14 1.32-2.32.96-2.44.58-15.87.02m-15.88.02l-31.75.03m-15.87.02l-31.75.02m-15.88 0l-31.75.05m-15.87 0l-15.88.03-2.5-.2-2.44-.58-2.32-.96-2.14-1.32-1.9-1.63-1.64-1.9-1.32-2.14-.96-2.32-.58-2.44-.2-20.5.2-2.5.58-2.44.96-2.32 1.32-2.14 1.63-1.9 1.9-1.64 2.14-1.32 2.32-.96 2.44-.58 15.87-.02" stroke="#6db1ff" stroke-width="3" fill="none"/><use xlink:href="#e" transform="matrix(1,0,0,1,754.5,435) translate(32.90123456790124 25.27777777777778)"/><path d="M582 600h114.88M582.04 600h-1.54" stroke="#3a414a" stroke-width="3" fill="none"/><path d="M712.65 600l-14.27 4.64v-9.28z" stroke="#3a414a" stroke-width="3" fill="#3a414a"/><path d="M720 540h280v120H720z" fill="#fff"/><path d="M766.67 540h46.66m23.34 0h46.66m23.34 0h46.66m23.34 0H1000v20m0 20v40m0 20v20h-23.33m-23.34 0h-46.66m-23.34 0h-46.66m-23.34 0h-46.66m-23.34 0H720v-20m0-20v-40m0-20v-20h23.33" stroke="#6db1ff" stroke-width="5" fill="none"/><use xlink:href="#d" transform="matrix(1,0,0,1,732,552) translate(94.03703703703704 21.333333333333332)"/><path d="M750 606a16 16 0 0 1 16-16h188a16 16 0 0 1 16 16v18a16 16 0 0 1-16 16H766a16 16 0 0 1-16-16z" fill="#fff"/><path d="M795.25 590.16l31.75-.03m15.87-.02l31.75-.02m15.88 0l31.75-.05m15.87 0L954 590l2.5.2 2.44.58 2.32.96 2.14 1.32 1.9 1.63 1.64 1.9 1.32 2.14.96 2.32.58 2.44.2 20.5-.2 2.5-.58 2.44-.96 2.32-1.32 2.14-1.63 1.9-1.9 1.64-2.14 1.32-2.32.96-2.44.58-15.87.02m-15.88.02l-31.75.03m-15.87.02l-31.75.02m-15.88 0l-31.75.05m-15.87 0L766 640l-2.5-.2-2.44-.58-2.32-.96-2.14-1.32-1.9-1.63-1.64-1.9-1.32-2.14-.96-2.32-.58-2.44-.2-20.5.2-2.5.58-2.44.96-2.32 1.32-2.14 1.63-1.9 1.9-1.64 2.14-1.32 2.32-.96 2.44-.58 15.87-.02" stroke="#6db1ff" stroke-width="3" fill="none"/><use xlink:href="#e" transform="matrix(1,0,0,1,755,595) translate(32.90123456790124 25.27777777777778)"/><path d="M1237.5 322.25l-.55 2.95-71.7-13.36v-3.05zm-142.74-26.6v3.06l-72.26-13.45.55-2.95z" stroke="#3a414a" stroke-width=".05" fill="#3a414a"/><path d="M1020.45 288.06l-13.18-7.17 14.88-1.96z" fill="#3a414a"/><path d="M1021.54 290.36L1002.5 280l21.5-2.8zm-9.5-8.58l7.3 3.97.95-5.05z" stroke="#3a414a" stroke-width=".05" fill="#3a414a"/><path d="M1252.73 326.6l-14.88 1.96 1.7-9.12z" fill="#3a414a"/><path d="M1257.5 327.5l-21.5 2.8 2.46-13.16zm-17.8-.7l8.26-1.08-7.3-3.97z" stroke="#3a414a" stroke-width=".05" fill="#3a414a"/><use xlink:href="#f" transform="matrix(1,0,0,1,1094.7592592592594,289.0833333333333) translate(0 19.555555555555557)"/><path d="M1236.88 448.5v3l-71.9-.04v-3zm-214.26-7v-3h71.9v3z" stroke="#3a414a" stroke-width=".05" fill="#3a414a"/><path d="M1021.12 444.64l-14.27-4.64 14.27-4.64z" fill="#3a414a"/><path d="M1022.62 446.7L1002 440l20.62-6.7zm-10.9-6.7l7.9 2.57v-5.14z" stroke="#3a414a" stroke-width=".05" fill="#3a414a"/><path d="M1252.65 450l-14.27 4.64v-9.28z" fill="#3a414a"/><path d="M1257.5 450l-20.62 6.7v-13.4zm-17.62 2.57l7.9-2.57-7.9-2.57z" stroke="#3a414a" stroke-width=".05" fill="#3a414a"/><use xlink:href="#f" transform="matrix(1,0,0,1,1094.5092592592594,430.3333333333333) translate(0 19.555555555555557)"/><path d="M1094.76 583.44l-71.74 14.06-.57-2.94 72.3-14.18zm142.8-28l-72.32 14.18v-3.06l71.74-14.06z" stroke="#3a414a" stroke-width=".05" fill="#3a414a"/><path d="M1022.15 600.87l-14.9-1.8 13.12-7.3z" fill="#3a414a"/><path d="M1024.02 602.6l-21.52-2.6 18.95-10.54zm-12-4.47l8.27 1-1-5.04z" stroke="#3a414a" stroke-width=".05" fill="#3a414a"/><path d="M1252.74 550.93l-13.1 7.3-1.8-9.1z" fill="#3a414a"/><path d="M1257.5 550l-18.95 10.54-2.57-13.15zm-16.8 5.9l7.27-4.03-8.26-1z" stroke="#3a414a" stroke-width=".05" fill="#3a414a"/><use xlink:href="#f" transform="matrix(1,0,0,1,1094.7592592592594,560.3333333333334) translate(0 19.555555555555557)"/><path d="M1260 330h340v220h-340z" stroke="#6db1ff" stroke-width="5" fill="#fff"/><use xlink:href="#g" transform="matrix(1,0,0,1,1272,342) translate(44.68518518518522 104.51388888888889)"/><use xlink:href="#h" transform="matrix(1,0,0,1,1272,342) translate(180.8827160493827 104.51388888888889)"/><defs><path fill="#3a414a" d="M266 0h-40l-56-210L115 0H75L2-248h35L96-30l15-64 43-154h32l59 218 59-218h35" id="i"/><path fill="#3a414a" d="M100-194c62-1 85 37 85 99 1 63-27 99-86 99S16-35 15-95c0-66 28-99 85-99zM99-20c44 1 53-31 53-75 0-43-8-75-51-75s-53 32-53 75 10 74 51 75" id="j"/><path fill="#3a414a" d="M114-163C36-179 61-72 57 0H25l-1-190h30c1 12-1 29 2 39 6-27 23-49 58-41v29" id="k"/><path fill="#3a414a" d="M143 0L79-87 56-68V0H24v-261h32v163l83-92h37l-77 82L181 0h-38" id="l"/><path fill="#3a414a" d="M100-194c63 0 86 42 84 106H49c0 40 14 67 53 68 26 1 43-12 49-29l28 8c-11 28-37 45-77 45C44 4 14-33 15-96c1-61 26-98 85-98zm52 81c6-60-76-77-97-28-3 7-6 17-6 28h103" id="m"/><g id="a"><use transform="matrix(0.08641975308641973,0,0,0.08641975308641973,0,0)" xlink:href="#i"/><use transform="matrix(0.08641975308641973,0,0,0.08641975308641973,28.69135802469135,0)" xlink:href="#j"/><use transform="matrix(0.08641975308641973,0,0,0.08641975308641973,45.975308641975296,0)" xlink:href="#k"/><use transform="matrix(0.08641975308641973,0,0,0.08641975308641973,56.25925925925926,0)" xlink:href="#l"/><use transform="matrix(0.08641975308641973,0,0,0.08641975308641973,71.81481481481481,0)" xlink:href="#m"/><use transform="matrix(0.08641975308641973,0,0,0.08641975308641973,89.09876543209876,0)" xlink:href="#k"/></g><path fill="#3a414a" d="M115-194c53 0 69 39 70 98 0 66-23 100-70 100C84 3 66-7 56-30L54 0H23l1-261h32v101c10-23 28-34 59-34zm-8 174c40 0 45-34 45-75 0-40-5-75-45-74-42 0-51 32-51 76 0 43 10 73 51 73" id="n"/><path fill="#3a414a" d="M232-93c-1 65-40 97-104 97C67 4 28-28 28-90v-158h33c8 89-33 224 67 224 102 0 64-133 71-224h33v155" id="o"/><path fill="#3a414a" d="M33 0v-248h34V0H33" id="p"/><g id="b"><use transform="matrix(0.08641975308641973,0,0,0.08641975308641973,0,0)" xlink:href="#i"/><use transform="matrix(0.08641975308641973,0,0,0.08641975308641973,28.69135802469135,0)" xlink:href="#m"/><use transform="matrix(0.08641975308641973,0,0,0.08641975308641973,45.975308641975296,0)" xlink:href="#n"/><use transform="matrix(0.08641975308641973,0,0,0.08641975308641973,63.25925925925925,0)" xlink:href="#o"/><use transform="matrix(0.08641975308641973,0,0,0.08641975308641973,85.64197530864196,0)" xlink:href="#p"/></g><path fill="#3a414a" d="M59-47c-2 24 18 29 38 22v24C64 9 27 4 27-40v-127H5v-23h24l9-43h21v43h35v23H59v120" id="q"/><path fill="#3a414a" d="M96-169c-40 0-48 33-48 73s9 75 48 75c24 0 41-14 43-38l32 2c-6 37-31 61-74 61-59 0-76-41-82-99-10-93 101-131 147-64 4 7 5 14 7 22l-32 3c-4-21-16-35-41-35" id="r"/><path fill="#3a414a" d="M24 0v-261h32V0H24" id="s"/><g id="c"><use transform="matrix(0.08641975308641973,0,0,0.08641975308641973,0,0)" xlink:href="#q"/><use transform="matrix(0.08641975308641973,0,0,0.08641975308641973,8.641975308641973,0)" xlink:href="#r"/><use transform="matrix(0.08641975308641973,0,0,0.08641975308641973,24.197530864197525,0)" xlink:href="#q"/><use transform="matrix(0.08641975308641973,0,0,0.08641975308641973,32.8395061728395,0)" xlink:href="#s"/></g><path fill="#3a414a" d="M212-179c-10-28-35-45-73-45-59 0-87 40-87 99 0 60 29 101 89 101 43 0 62-24 78-52l27 14C228-24 195 4 139 4 59 4 22-46 18-125c-6-104 99-153 187-111 19 9 31 26 39 46" id="t"/><path fill="#3a414a" d="M24-231v-30h32v30H24zM24 0v-190h32V0H24" id="u"/><path fill="#3a414a" d="M117-194c89-4 53 116 60 194h-32v-121c0-31-8-49-39-48C34-167 62-67 57 0H25l-1-190h30c1 10-1 24 2 32 11-22 29-35 61-36" id="v"/><g id="d"><use transform="matrix(0.07407407407407407,0,0,0.07407407407407407,0,0)" xlink:href="#t"/><use transform="matrix(0.07407407407407407,0,0,0.07407407407407407,19.185185185185183,0)" xlink:href="#s"/><use transform="matrix(0.07407407407407407,0,0,0.07407407407407407,25.037037037037035,0)" xlink:href="#u"/><use transform="matrix(0.07407407407407407,0,0,0.07407407407407407,30.888888888888886,0)" xlink:href="#m"/><use transform="matrix(0.07407407407407407,0,0,0.07407407407407407,45.703703703703695,0)" xlink:href="#v"/><use transform="matrix(0.07407407407407407,0,0,0.07407407407407407,60.518518518518505,0)" xlink:href="#q"/></g><path fill="#3a414a" d="M30-248c118-7 216 8 213 122C240-48 200 0 122 0H30v-248zM63-27c89 8 146-16 146-99s-60-101-146-95v194" id="w"/><path fill="#3a414a" d="M141-36C126-15 110 5 73 4 37 3 15-17 15-53c-1-64 63-63 125-63 3-35-9-54-41-54-24 1-41 7-42 31l-33-3c5-37 33-52 76-52 45 0 72 20 72 64v82c-1 20 7 32 28 27v20c-31 9-61-2-59-35zM48-53c0 20 12 33 32 33 41-3 63-29 60-74-43 2-92-5-92 41" id="x"/><path fill="#3a414a" d="M108 0H70L1-190h34L89-25l56-165h34" id="y"/><g id="e"><use transform="matrix(0.06172839506172839,0,0,0.06172839506172839,0,0)" xlink:href="#w"/><use transform="matrix(0.06172839506172839,0,0,0.06172839506172839,15.987654320987653,0)" xlink:href="#x"/><use transform="matrix(0.06172839506172839,0,0,0.06172839506172839,28.333333333333332,0)" xlink:href="#q"/><use transform="matrix(0.06172839506172839,0,0,0.06172839506172839,34.50617283950617,0)" xlink:href="#x"/><use transform="matrix(0.06172839506172839,0,0,0.06172839506172839,46.85185185185185,0)" xlink:href="#t"/><use transform="matrix(0.06172839506172839,0,0,0.06172839506172839,62.8395061728395,0)" xlink:href="#j"/><use transform="matrix(0.06172839506172839,0,0,0.06172839506172839,75.18518518518518,0)" xlink:href="#v"/><use transform="matrix(0.06172839506172839,0,0,0.06172839506172839,87.53086419753086,0)" xlink:href="#y"/><use transform="matrix(0.06172839506172839,0,0,0.06172839506172839,98.64197530864197,0)" xlink:href="#m"/><use transform="matrix(0.06172839506172839,0,0,0.06172839506172839,110.98765432098766,0)" xlink:href="#k"/><use transform="matrix(0.06172839506172839,0,0,0.06172839506172839,118.33333333333334,0)" xlink:href="#q"/><use transform="matrix(0.06172839506172839,0,0,0.06172839506172839,124.50617283950618,0)" xlink:href="#m"/><use transform="matrix(0.06172839506172839,0,0,0.06172839506172839,136.85185185185185,0)" xlink:href="#k"/></g><path fill="#333" d="M67-125c0 54 23 88 75 88 28 0 53-7 68-21v-34h-60v-39h108v91C232-14 192 4 140 4 58 4 20-42 15-125 8-236 126-280 215-234c19 10 29 26 37 47l-47 15c-11-23-29-39-63-39-53 1-75 33-75 86" id="z"/><path fill="#333" d="M240-174c0 40-23 61-54 70L253 0h-59l-57-94H76V0H24v-248c93 4 217-23 216 74zM76-134c48-2 112 12 112-38 0-48-66-32-112-35v73" id="A"/><path fill="#333" d="M24-248c93 1 206-16 204 79-1 75-69 88-152 82V0H24v-248zm52 121c47 0 100 7 100-41 0-47-54-39-100-39v80" id="B"/><path fill="#333" d="M67-125c0 53 21 87 73 88 37 1 54-22 65-47l45 17C233-25 199 4 140 4 58 4 20-42 15-125 8-235 124-281 211-232c18 10 29 29 36 50l-46 12c-8-25-30-41-62-41-52 0-71 34-72 86" id="C"/><g id="f"><use transform="matrix(0.06790123456790123,0,0,0.06790123456790123,0,0)" xlink:href="#z"/><use transform="matrix(0.06790123456790123,0,0,0.06790123456790123,19.012345679012345,0)" xlink:href="#A"/><use transform="matrix(0.06790123456790123,0,0,0.06790123456790123,36.59876543209876,0)" xlink:href="#B"/><use transform="matrix(0.06790123456790123,0,0,0.06790123456790123,52.89506172839505,0)" xlink:href="#C"/></g><path fill="#3a414a" d="M127-220V0H93v-220H8v-28h204v28h-85" id="D"/><path fill="#3a414a" d="M210-169c-67 3-38 105-44 169h-31v-121c0-29-5-50-35-48C34-165 62-65 56 0H25l-1-190h30c1 10-1 24 2 32 10-44 99-50 107 0 11-21 27-35 58-36 85-2 47 119 55 194h-31v-121c0-29-5-49-35-48" id="E"/><path fill="#3a414a" d="M115-194c55 1 70 41 70 98S169 2 115 4C84 4 66-9 55-30l1 105H24l-1-265h31l2 30c10-21 28-34 59-34zm-8 174c40 0 45-34 45-75s-6-73-45-74c-42 0-51 32-51 76 0 43 10 73 51 73" id="F"/><g id="g"><use transform="matrix(0.08641975308641973,0,0,0.08641975308641973,0,0)" xlink:href="#D"/><use transform="matrix(0.08641975308641973,0,0,0.08641975308641973,15.46913580246913,0)" xlink:href="#m"/><use transform="matrix(0.08641975308641973,0,0,0.08641975308641973,32.753086419753075,0)" xlink:href="#E"/><use transform="matrix(0.08641975308641973,0,0,0.08641975308641973,58.59259259259257,0)" xlink:href="#F"/><use transform="matrix(0.08641975308641973,0,0,0.08641975308641973,75.87654320987652,0)" xlink:href="#j"/><use transform="matrix(0.08641975308641973,0,0,0.08641975308641973,93.16049382716048,0)" xlink:href="#k"/><use transform="matrix(0.08641975308641973,0,0,0.08641975308641973,103.44444444444443,0)" xlink:href="#x"/><use transform="matrix(0.08641975308641973,0,0,0.08641975308641973,120.72839506172836,0)" xlink:href="#s"/></g><path fill="#3a414a" d="M185-189c-5-48-123-54-124 2 14 75 158 14 163 119 3 78-121 87-175 55-17-10-28-26-33-46l33-7c5 56 141 63 141-1 0-78-155-14-162-118-5-82 145-84 179-34 5 7 8 16 11 25" id="G"/><g id="h"><use transform="matrix(0.08641975308641973,0,0,0.08641975308641973,0,0)" xlink:href="#G"/><use transform="matrix(0.08641975308641973,0,0,0.08641975308641973,20.740740740740737,0)" xlink:href="#m"/><use transform="matrix(0.08641975308641973,0,0,0.08641975308641973,38.02469135802468,0)" xlink:href="#k"/><use transform="matrix(0.08641975308641973,0,0,0.08641975308641973,48.30864197530863,0)" xlink:href="#y"/><use transform="matrix(0.08641975308641973,0,0,0.08641975308641973,63.86419753086418,0)" xlink:href="#m"/><use transform="matrix(0.08641975308641973,0,0,0.08641975308641973,81.14814814814812,0)" xlink:href="#k"/></g></defs></g></svg>