<svg xmlns="http://www.w3.org/2000/svg" xmlns:xlink="http://www.w3.org/1999/xlink" xmlns:lucid="lucid" width="1340" height="680"><g transform="translate(-140 -200)" lucid:page-tab-id="-wUpLiahXS_H"><path d="M0 0h1760v1360H0z" fill="#fff"/><path d="M160 240h340v80H160z" stroke="#6db1ff" stroke-width="5" fill="#fff"/><use xlink:href="#a" transform="matrix(1,0,0,1,172,252) translate(138.66666666666669 35.388888888888886)"/><path d="M160 760h340v80H160z" stroke="#6db1ff" stroke-width="5" fill="#fff"/><use xlink:href="#b" transform="matrix(1,0,0,1,172,772) translate(111.35802469135803 35.388888888888886)"/><path d="M160 480h340v180H160z" stroke="#54c45e" stroke-width="5" fill="#fff"/><use xlink:href="#c" transform="matrix(1,0,0,1,182,502) translate(16.833333333333343 21.333333333333332)"/><use xlink:href="#d" transform="matrix(1,0,0,1,182,502) translate(117.42592592592592 21.333333333333332)"/><use xlink:href="#e" transform="matrix(1,0,0,1,182,502) translate(201.79629629629628 21.333333333333332)"/><path d="M196.43 576a16 16 0 0 1 16-16h235.14a16 16 0 0 1 16 16v18a16 16 0 0 1-16 16H212.43a16 16 0 0 1-16-16z" stroke="#54c45e" stroke-width="3" fill="#fff"/><use xlink:href="#f" transform="matrix(1,0,0,1,201.4285714285714,565) translate(56.83950617283949 25.27777777777778)"/><path d="M700 220h280v120H700z" fill="#fff"/><path d="M746.67 220h46.66m23.34 0h46.66m23.34 0h46.66m23.34 0H980v20m0 20v40m0 20v20h-23.33m-23.34 0h-46.66m-23.34 0h-46.66m-23.34 0h-46.66m-23.34 0H700v-20m0-20v-40m0-20v-20h23.33" stroke="#6db1ff" stroke-width="5" fill="none"/><use xlink:href="#g" transform="matrix(1,0,0,1,712,232) translate(94.03703703703704 21.333333333333332)"/><path d="M730 286a16 16 0 0 1 16-16h188a16 16 0 0 1 16 16v18a16 16 0 0 1-16 16H746a16 16 0 0 1-16-16z" fill="#fff"/><path d="M775.25 270.16l31.75-.03m15.87-.02l31.75-.02m15.88 0l31.75-.05m15.87 0L934 270l2.5.2 2.44.58 2.32.96 2.14 1.32 1.9 1.63 1.64 1.9 1.32 2.14.96 2.32.58 2.44.2 20.5-.2 2.5-.58 2.44-.96 2.32-1.32 2.14-1.63 1.9-1.9 1.64-2.14 1.32-2.32.96-2.44.58-15.87.02m-15.88.02l-31.75.03m-15.87.02l-31.75.02m-15.88 0l-31.75.05m-15.87 0L746 320l-2.5-.2-2.44-.58-2.32-.96-2.14-1.32-1.9-1.63-1.64-1.9-1.32-2.14-.96-2.32-.58-2.44-.2-20.5.2-2.5.58-2.44.96-2.32 1.32-2.14 1.63-1.9 1.9-1.64 2.14-1.32 2.32-.96 2.44-.58 15.87-.02" stroke="#6db1ff" stroke-width="3" fill="none"/><use xlink:href="#h" transform="matrix(1,0,0,1,735,275) translate(32.90123456790124 25.27777777777778)"/><path d="M700 740h280v120H700z" fill="#fff"/><path d="M746.67 740h46.66m23.34 0h46.66m23.34 0h46.66m23.34 0H980v20m0 20v40m0 20v20h-23.33m-23.34 0h-46.66m-23.34 0h-46.66m-23.34 0h-46.66m-23.34 0H700v-20m0-20v-40m0-20v-20h23.33" stroke="#6db1ff" stroke-width="5" fill="none"/><use xlink:href="#g" transform="matrix(1,0,0,1,712,752) translate(94.03703703703704 21.333333333333332)"/><path d="M730 806a16 16 0 0 1 16-16h188a16 16 0 0 1 16 16v18a16 16 0 0 1-16 16H746a16 16 0 0 1-16-16z" fill="#fff"/><path d="M775.25 790.16l31.75-.03m15.87-.02l31.75-.02m15.88 0l31.75-.05m15.87 0L934 790l2.5.2 2.44.58 2.32.96 2.14 1.32 1.9 1.63 1.64 1.9 1.32 2.14.96 2.32.58 2.44.2 20.5-.2 2.5-.58 2.44-.96 2.32-1.32 2.14-1.63 1.9-1.9 1.64-2.14 1.32-2.32.96-2.44.58-15.87.02m-15.88.02l-31.75.03m-15.87.02l-31.75.02m-15.88 0l-31.75.05m-15.87 0L746 840l-2.5-.2-2.44-.58-2.32-.96-2.14-1.32-1.9-1.63-1.64-1.9-1.32-2.14-.96-2.32-.58-2.44-.2-20.5.2-2.5.58-2.44.96-2.32 1.32-2.14 1.63-1.9 1.9-1.64 2.14-1.32 2.32-.96 2.44-.58 15.87-.02" stroke="#6db1ff" stroke-width="3" fill="none"/><use xlink:href="#h" transform="matrix(1,0,0,1,735,795) translate(32.90123456790124 25.27777777777778)"/><path d="M523.12 280h153.76" stroke="#3a414a" stroke-width="3" fill="none"/><path d="M507.35 280l14.27-4.64v9.28zM692.65 280l-14.27 4.64v-9.28z" stroke="#3a414a" stroke-width="3" fill="#3a414a"/><path d="M523.12 800h153.76" stroke="#3a414a" stroke-width="3" fill="none"/><path d="M507.35 800l14.27-4.64v9.28zM692.65 800l-14.27 4.64v-9.28z" stroke="#3a414a" stroke-width="3" fill="#3a414a"/><path d="M1120 390h340v220h-340z" stroke="#6db1ff" stroke-width="5" fill="#fff"/><use xlink:href="#i" transform="matrix(1,0,0,1,1132,402) translate(44.68518518518522 104.51388888888889)"/><use xlink:href="#j" transform="matrix(1,0,0,1,1132,402) translate(180.8827160493827 104.51388888888889)"/><path d="M519.63 508.42l-1.86-2.35 88.06-69.32h4.85zm219.76-173l-88.07 69.33h-4.85l91.05-71.68z" stroke="#3a414a" stroke-width=".05" fill="#3a414a"/><path d="M520.4 511.82L506.3 517l8.36-12.47z" fill="#3a414a"/><path d="M522.85 512.5L502.5 520l12.06-18.02zm-12.72 1.5l7.8-2.88-3.18-4.04z" stroke="#3a414a" stroke-width=".05" fill="#3a414a"/><path d="M742.5 336.96l-5.73-7.28 14.08-5.2z" fill="#3a414a"/><path d="M742.6 339.5L734.33 329l20.34-7.5zm-3.37-9.13l3.18 4.04 4.64-6.9z" stroke="#3a414a" stroke-width=".05" fill="#3a414a"/><use xlink:href="#k" transform="matrix(1,0,0,1,593.8783318973508,404.7455190082262) translate(0 21.333333333333332)"/><path d="M730.56 775.74l-1.7 2.46-83.77-57.9h5.27zM604.08 688.3h-5.28l-80.2-55.42 1.72-2.47z" stroke="#3a414a" stroke-width=".05" fill="#3a414a"/><path d="M520.86 626.98l-5.27 7.63-9.1-11.92z" fill="#3a414a"/><path d="M523.27 626.13l-7.62 11.03-13.15-17.24zm-7.74 5.92l2.93-4.22-7.97-2.4z" stroke="#3a414a" stroke-width=".05" fill="#3a414a"/><path d="M742.68 785.93l-14.37-4.3 5.28-7.62z" fill="#3a414a"/><path d="M746.67 788.7l-20.77-6.22 7.62-11.02zm-15.96-7.9l7.98 2.37-5.04-6.6z" stroke="#3a414a" stroke-width=".05" fill="#3a414a"/><use xlink:href="#k" transform="matrix(1,0,0,1,589.8813677867404,688.3074676829241) translate(0 21.333333333333332)"/><path d="M1102.3 373.48l-1.86 2.35-32.75-26.08h4.8zm-70-55.73h-4.8l-29.8-23.73 1.86-2.35z" stroke="#3a414a" stroke-width=".05" fill="#3a414a"/><path d="M1000.34 288.28l-5.77 7.26-8.27-12.52z" fill="#3a414a"/><path d="M1002.8 287.6l-8.34 10.5L982.5 280zm-8.12 5.4l3.2-4.04-7.8-2.9z" stroke="#3a414a" stroke-width=".05" fill="#3a414a"/><path d="M1113.7 384.48l-14.04-5.26 5.77-7.26z" fill="#3a414a"/><path d="M1117.5 387.5l-20.3-7.6 8.34-10.5zm-15.4-8.96l7.8 2.9-4.58-6.93z" stroke="#3a414a" stroke-width=".05" fill="#3a414a"/><use xlink:href="#l" transform="matrix(1,0,0,1,1011.5555555555555,317.75) translate(0 21.333333333333332)"/><path d="M998.14 723.98l-2.12-2.12 27.2-27.2h4.23zm105.84-105.84l-44.53 44.53h-4.24l46.66-46.65z" stroke="#3a414a" stroke-width=".05" fill="#3a414a"/><path d="M999.3 727.26l-13.37 6.8 6.8-13.36z" fill="#3a414a"/><path d="M1001.82 727.66l-19.32 9.84 9.84-19.32zm-12.46 2.98l7.42-3.78-3.64-3.64z" stroke="#3a414a" stroke-width=".05" fill="#3a414a"/><path d="M1107.26 619.3l-6.56-6.56 13.37-6.8z" fill="#3a414a"/><path d="M1107.66 621.82l-9.48-9.48 19.32-9.84zm-4.44-8.68l3.64 3.64 3.78-7.42z" stroke="#3a414a" stroke-width=".05" fill="#3a414a"/><g><use xlink:href="#l" transform="matrix(1,0,0,1,1002.8888888888888,662.6666666666667) translate(0 21.333333333333332)"/></g><defs><path fill="#3a414a" d="M59-47c-2 24 18 29 38 22v24C64 9 27 4 27-40v-127H5v-23h24l9-43h21v43h35v23H59v120" id="m"/><path fill="#3a414a" d="M96-169c-40 0-48 33-48 73s9 75 48 75c24 0 41-14 43-38l32 2c-6 37-31 61-74 61-59 0-76-41-82-99-10-93 101-131 147-64 4 7 5 14 7 22l-32 3c-4-21-16-35-41-35" id="n"/><path fill="#3a414a" d="M24 0v-261h32V0H24" id="o"/><g id="a"><use transform="matrix(0.08641975308641973,0,0,0.08641975308641973,0,0)" xlink:href="#m"/><use transform="matrix(0.08641975308641973,0,0,0.08641975308641973,8.641975308641973,0)" xlink:href="#n"/><use transform="matrix(0.08641975308641973,0,0,0.08641975308641973,24.197530864197525,0)" xlink:href="#m"/><use transform="matrix(0.08641975308641973,0,0,0.08641975308641973,32.8395061728395,0)" xlink:href="#o"/></g><path fill="#3a414a" d="M266 0h-40l-56-210L115 0H75L2-248h35L96-30l15-64 43-154h32l59 218 59-218h35" id="p"/><path fill="#3a414a" d="M100-194c63 0 86 42 84 106H49c0 40 14 67 53 68 26 1 43-12 49-29l28 8c-11 28-37 45-77 45C44 4 14-33 15-96c1-61 26-98 85-98zm52 81c6-60-76-77-97-28-3 7-6 17-6 28h103" id="q"/><path fill="#3a414a" d="M115-194c53 0 69 39 70 98 0 66-23 100-70 100C84 3 66-7 56-30L54 0H23l1-261h32v101c10-23 28-34 59-34zm-8 174c40 0 45-34 45-75 0-40-5-75-45-74-42 0-51 32-51 76 0 43 10 73 51 73" id="r"/><path fill="#3a414a" d="M232-93c-1 65-40 97-104 97C67 4 28-28 28-90v-158h33c8 89-33 224 67 224 102 0 64-133 71-224h33v155" id="s"/><path fill="#3a414a" d="M33 0v-248h34V0H33" id="t"/><g id="b"><use transform="matrix(0.08641975308641973,0,0,0.08641975308641973,0,0)" xlink:href="#p"/><use transform="matrix(0.08641975308641973,0,0,0.08641975308641973,28.69135802469135,0)" xlink:href="#q"/><use transform="matrix(0.08641975308641973,0,0,0.08641975308641973,45.975308641975296,0)" xlink:href="#r"/><use transform="matrix(0.08641975308641973,0,0,0.08641975308641973,63.25925925925925,0)" xlink:href="#s"/><use transform="matrix(0.08641975308641973,0,0,0.08641975308641973,85.64197530864196,0)" xlink:href="#t"/></g><path fill="#3a414a" d="M233-177c-1 41-23 64-60 70L243 0h-38l-65-103H63V0H30v-248c88 3 205-21 203 71zM63-129c60-2 137 13 137-47 0-61-80-42-137-45v92" id="u"/><path fill="#3a414a" d="M210-169c-67 3-38 105-44 169h-31v-121c0-29-5-50-35-48C34-165 62-65 56 0H25l-1-190h30c1 10-1 24 2 32 10-44 99-50 107 0 11-21 27-35 58-36 85-2 47 119 55 194h-31v-121c0-29-5-49-35-48" id="v"/><path fill="#3a414a" d="M100-194c62-1 85 37 85 99 1 63-27 99-86 99S16-35 15-95c0-66 28-99 85-99zM99-20c44 1 53-31 53-75 0-43-8-75-51-75s-53 32-53 75 10 74 51 75" id="w"/><g id="c"><use transform="matrix(0.07407407407407407,0,0,0.07407407407407407,0,0)" xlink:href="#u"/><use transform="matrix(0.07407407407407407,0,0,0.07407407407407407,19.185185185185183,0)" xlink:href="#q"/><use transform="matrix(0.07407407407407407,0,0,0.07407407407407407,34,0)" xlink:href="#v"/><use transform="matrix(0.07407407407407407,0,0,0.07407407407407407,56.148148148148145,0)" xlink:href="#w"/><use transform="matrix(0.07407407407407407,0,0,0.07407407407407407,70.96296296296296,0)" xlink:href="#m"/><use transform="matrix(0.07407407407407407,0,0,0.07407407407407407,78.37037037037037,0)" xlink:href="#q"/></g><path fill="#3a414a" d="M212-179c-10-28-35-45-73-45-59 0-87 40-87 99 0 60 29 101 89 101 43 0 62-24 78-52l27 14C228-24 195 4 139 4 59 4 22-46 18-125c-6-104 99-153 187-111 19 9 31 26 39 46" id="x"/><path fill="#3a414a" d="M85-194c31 0 48 13 60 33l-1-100h32l1 261h-30c-2-10 0-23-3-31C134-8 116 4 85 4 32 4 16-35 15-94c0-66 23-100 70-100zm9 24c-40 0-46 34-46 75 0 40 6 74 45 74 42 0 51-32 51-76 0-42-9-74-50-73" id="y"/><g id="d"><use transform="matrix(0.07407407407407407,0,0,0.07407407407407407,0,0)" xlink:href="#x"/><use transform="matrix(0.07407407407407407,0,0,0.07407407407407407,19.185185185185183,0)" xlink:href="#w"/><use transform="matrix(0.07407407407407407,0,0,0.07407407407407407,34,0)" xlink:href="#y"/><use transform="matrix(0.07407407407407407,0,0,0.07407407407407407,48.81481481481481,0)" xlink:href="#q"/><use transform="matrix(0.07407407407407407,0,0,0.07407407407407407,63.62962962962962,0)" xlink:href="#n"/></g><path fill="#3a414a" d="M185-189c-5-48-123-54-124 2 14 75 158 14 163 119 3 78-121 87-175 55-17-10-28-26-33-46l33-7c5 56 141 63 141-1 0-78-155-14-162-118-5-82 145-84 179-34 5 7 8 16 11 25" id="z"/><path fill="#3a414a" d="M114-163C36-179 61-72 57 0H25l-1-190h30c1 12-1 29 2 39 6-27 23-49 58-41v29" id="A"/><path fill="#3a414a" d="M108 0H70L1-190h34L89-25l56-165h34" id="B"/><g id="e"><use transform="matrix(0.07407407407407407,0,0,0.07407407407407407,0,0)" xlink:href="#z"/><use transform="matrix(0.07407407407407407,0,0,0.07407407407407407,17.77777777777778,0)" xlink:href="#q"/><use transform="matrix(0.07407407407407407,0,0,0.07407407407407407,32.592592592592595,0)" xlink:href="#A"/><use transform="matrix(0.07407407407407407,0,0,0.07407407407407407,41.40740740740741,0)" xlink:href="#B"/><use transform="matrix(0.07407407407407407,0,0,0.07407407407407407,54.74074074074075,0)" xlink:href="#q"/><use transform="matrix(0.07407407407407407,0,0,0.07407407407407407,69.55555555555556,0)" xlink:href="#A"/></g><path fill="#3a414a" d="M30-248c87 1 191-15 191 75 0 78-77 80-158 76V0H30v-248zm33 125c57 0 124 11 124-50 0-59-68-47-124-48v98" id="C"/><path fill="#3a414a" d="M141-36C126-15 110 5 73 4 37 3 15-17 15-53c-1-64 63-63 125-63 3-35-9-54-41-54-24 1-41 7-42 31l-33-3c5-37 33-52 76-52 45 0 72 20 72 64v82c-1 20 7 32 28 27v20c-31 9-61-2-59-35zM48-53c0 20 12 33 32 33 41-3 63-29 60-74-43 2-92-5-92 41" id="D"/><path fill="#3a414a" d="M179-190L93 31C79 59 56 82 12 73V49c39 6 53-20 64-50L1-190h34L92-34l54-156h33" id="E"/><g id="f"><use transform="matrix(0.06172839506172839,0,0,0.06172839506172839,0,0)" xlink:href="#C"/><use transform="matrix(0.06172839506172839,0,0,0.06172839506172839,14.814814814814813,0)" xlink:href="#D"/><use transform="matrix(0.06172839506172839,0,0,0.06172839506172839,27.160493827160494,0)" xlink:href="#E"/><use transform="matrix(0.06172839506172839,0,0,0.06172839506172839,38.27160493827161,0)" xlink:href="#o"/><use transform="matrix(0.06172839506172839,0,0,0.06172839506172839,43.14814814814815,0)" xlink:href="#w"/><use transform="matrix(0.06172839506172839,0,0,0.06172839506172839,55.49382716049383,0)" xlink:href="#D"/><use transform="matrix(0.06172839506172839,0,0,0.06172839506172839,67.8395061728395,0)" xlink:href="#y"/><use transform="matrix(0.06172839506172839,0,0,0.06172839506172839,80.18518518518519,0)" xlink:href="#x"/><use transform="matrix(0.06172839506172839,0,0,0.06172839506172839,96.17283950617285,0)" xlink:href="#w"/><use transform="matrix(0.06172839506172839,0,0,0.06172839506172839,108.51851851851853,0)" xlink:href="#y"/><use transform="matrix(0.06172839506172839,0,0,0.06172839506172839,120.86419753086422,0)" xlink:href="#q"/><use transform="matrix(0.06172839506172839,0,0,0.06172839506172839,133.2098765432099,0)" xlink:href="#n"/></g><path fill="#3a414a" d="M24-231v-30h32v30H24zM24 0v-190h32V0H24" id="F"/><path fill="#3a414a" d="M117-194c89-4 53 116 60 194h-32v-121c0-31-8-49-39-48C34-167 62-67 57 0H25l-1-190h30c1 10-1 24 2 32 11-22 29-35 61-36" id="G"/><g id="g"><use transform="matrix(0.07407407407407407,0,0,0.07407407407407407,0,0)" xlink:href="#x"/><use transform="matrix(0.07407407407407407,0,0,0.07407407407407407,19.185185185185183,0)" xlink:href="#o"/><use transform="matrix(0.07407407407407407,0,0,0.07407407407407407,25.037037037037035,0)" xlink:href="#F"/><use transform="matrix(0.07407407407407407,0,0,0.07407407407407407,30.888888888888886,0)" xlink:href="#q"/><use transform="matrix(0.07407407407407407,0,0,0.07407407407407407,45.703703703703695,0)" xlink:href="#G"/><use transform="matrix(0.07407407407407407,0,0,0.07407407407407407,60.518518518518505,0)" xlink:href="#m"/></g><path fill="#3a414a" d="M30-248c118-7 216 8 213 122C240-48 200 0 122 0H30v-248zM63-27c89 8 146-16 146-99s-60-101-146-95v194" id="H"/><g id="h"><use transform="matrix(0.06172839506172839,0,0,0.06172839506172839,0,0)" xlink:href="#H"/><use transform="matrix(0.06172839506172839,0,0,0.06172839506172839,15.987654320987653,0)" xlink:href="#D"/><use transform="matrix(0.06172839506172839,0,0,0.06172839506172839,28.333333333333332,0)" xlink:href="#m"/><use transform="matrix(0.06172839506172839,0,0,0.06172839506172839,34.50617283950617,0)" xlink:href="#D"/><use transform="matrix(0.06172839506172839,0,0,0.06172839506172839,46.85185185185185,0)" xlink:href="#x"/><use transform="matrix(0.06172839506172839,0,0,0.06172839506172839,62.8395061728395,0)" xlink:href="#w"/><use transform="matrix(0.06172839506172839,0,0,0.06172839506172839,75.18518518518518,0)" xlink:href="#G"/><use transform="matrix(0.06172839506172839,0,0,0.06172839506172839,87.53086419753086,0)" xlink:href="#B"/><use transform="matrix(0.06172839506172839,0,0,0.06172839506172839,98.64197530864197,0)" xlink:href="#q"/><use transform="matrix(0.06172839506172839,0,0,0.06172839506172839,110.98765432098766,0)" xlink:href="#A"/><use transform="matrix(0.06172839506172839,0,0,0.06172839506172839,118.33333333333334,0)" xlink:href="#m"/><use transform="matrix(0.06172839506172839,0,0,0.06172839506172839,124.50617283950618,0)" xlink:href="#q"/><use transform="matrix(0.06172839506172839,0,0,0.06172839506172839,136.85185185185185,0)" xlink:href="#A"/></g><path fill="#3a414a" d="M127-220V0H93v-220H8v-28h204v28h-85" id="I"/><path fill="#3a414a" d="M115-194c55 1 70 41 70 98S169 2 115 4C84 4 66-9 55-30l1 105H24l-1-265h31l2 30c10-21 28-34 59-34zm-8 174c40 0 45-34 45-75s-6-73-45-74c-42 0-51 32-51 76 0 43 10 73 51 73" id="J"/><g id="i"><use transform="matrix(0.08641975308641973,0,0,0.08641975308641973,0,0)" xlink:href="#I"/><use transform="matrix(0.08641975308641973,0,0,0.08641975308641973,15.46913580246913,0)" xlink:href="#q"/><use transform="matrix(0.08641975308641973,0,0,0.08641975308641973,32.753086419753075,0)" xlink:href="#v"/><use transform="matrix(0.08641975308641973,0,0,0.08641975308641973,58.59259259259257,0)" xlink:href="#J"/><use transform="matrix(0.08641975308641973,0,0,0.08641975308641973,75.87654320987652,0)" xlink:href="#w"/><use transform="matrix(0.08641975308641973,0,0,0.08641975308641973,93.16049382716048,0)" xlink:href="#A"/><use transform="matrix(0.08641975308641973,0,0,0.08641975308641973,103.44444444444443,0)" xlink:href="#D"/><use transform="matrix(0.08641975308641973,0,0,0.08641975308641973,120.72839506172836,0)" xlink:href="#o"/></g><g id="j"><use transform="matrix(0.08641975308641973,0,0,0.08641975308641973,0,0)" xlink:href="#z"/><use transform="matrix(0.08641975308641973,0,0,0.08641975308641973,20.740740740740737,0)" xlink:href="#q"/><use transform="matrix(0.08641975308641973,0,0,0.08641975308641973,38.02469135802468,0)" xlink:href="#A"/><use transform="matrix(0.08641975308641973,0,0,0.08641975308641973,48.30864197530863,0)" xlink:href="#B"/><use transform="matrix(0.08641975308641973,0,0,0.08641975308641973,63.86419753086418,0)" xlink:href="#q"/><use transform="matrix(0.08641975308641973,0,0,0.08641975308641973,81.14814814814812,0)" xlink:href="#A"/></g><path fill="#333" d="M186 0v-106H76V0H24v-248h52v99h110v-99h50V0h-50" id="K"/><path fill="#333" d="M136-208V0H84v-208H4v-40h212v40h-80" id="L"/><path fill="#333" d="M24-248c93 1 206-16 204 79-1 75-69 88-152 82V0H24v-248zm52 121c47 0 100 7 100-41 0-47-54-39-100-39v80" id="M"/><g id="k"><use transform="matrix(0.07407407407407407,0,0,0.07407407407407407,0,0)" xlink:href="#K"/><use transform="matrix(0.07407407407407407,0,0,0.07407407407407407,19.185185185185183,0)" xlink:href="#L"/><use transform="matrix(0.07407407407407407,0,0,0.07407407407407407,35.407407407407405,0)" xlink:href="#L"/><use transform="matrix(0.07407407407407407,0,0,0.07407407407407407,51.629629629629626,0)" xlink:href="#M"/></g><path fill="#333" d="M67-125c0 54 23 88 75 88 28 0 53-7 68-21v-34h-60v-39h108v91C232-14 192 4 140 4 58 4 20-42 15-125 8-236 126-280 215-234c19 10 29 26 37 47l-47 15c-11-23-29-39-63-39-53 1-75 33-75 86" id="N"/><path fill="#333" d="M240-174c0 40-23 61-54 70L253 0h-59l-57-94H76V0H24v-248c93 4 217-23 216 74zM76-134c48-2 112 12 112-38 0-48-66-32-112-35v73" id="O"/><path fill="#333" d="M67-125c0 53 21 87 73 88 37 1 54-22 65-47l45 17C233-25 199 4 140 4 58 4 20-42 15-125 8-235 124-281 211-232c18 10 29 29 36 50l-46 12c-8-25-30-41-62-41-52 0-71 34-72 86" id="P"/><g id="l"><use transform="matrix(0.07407407407407407,0,0,0.07407407407407407,0,0)" xlink:href="#N"/><use transform="matrix(0.07407407407407407,0,0,0.07407407407407407,20.74074074074074,0)" xlink:href="#O"/><use transform="matrix(0.07407407407407407,0,0,0.07407407407407407,39.925925925925924,0)" xlink:href="#M"/><use transform="matrix(0.07407407407407407,0,0,0.07407407407407407,57.7037037037037,0)" xlink:href="#P"/></g></defs></g></svg>