<svg xmlns="http://www.w3.org/2000/svg" xmlns:xlink="http://www.w3.org/1999/xlink" version="1.1" viewBox="0 0 2454 2258" style="background: #ffffff"><g id="v-3"  transform="matrix(1,0,0,1,0,0)"><g id="j_16"    transform="translate(20,2213)"><g id="v-290"><text  id="v-291" font-size="22px" y="0.8em" xml:space="preserve" font-weight="normal" text-anchor="start" fill="#aaaaaa" pointer-events="none" font-family="Open Sans" transform="matrix(1,0,0,1,0,0)"><tspan id="v-292"  dy="0em" x="0">Friday, June 24, 2022, 11:02 AM Central Daylight Time</tspan></text></g></g><g id="j_15"    transform="translate(20,2167)"><g id="v-286"><text  id="v-287" font-size="36px" y="0.8em" xml:space="preserve" font-weight="normal" text-anchor="start" fill="#000000" pointer-events="none" font-family="Open Sans" transform="matrix(1,0,0,1,0,0)"><tspan id="v-288"  dy="0em" x="0">[Dynamic] Temporal Tools - tctl</tspan></text></g></g><g id="j_1"    transform="translate(1015,295)" style=""><g id="v-6"><rect  id="v-7" width="491" height="1147" rx="0" ry="0" fill="#ffffff" stroke="#3c7fc0" stroke-width="2" stroke-dasharray="20,20" pointer-events="none"></rect><text  id="v-8" font-size="24px" y="1108" xml:space="preserve" font-weight="normal" fill="#3c7fc0" x="10" text-anchor="start" pointer-events="visible" font-family="Open Sans" transform="matrix(1,0,0,1,15,0)"><tspan id="v-11"  dy="0em" x="0">tctl</tspan></text><text  id="v-9" font-size="19px" y="1132" xml:space="preserve" font-weight="normal" fill="#3c7fc0" x="10" text-anchor="start" pointer-events="visible" font-family="Open Sans" transform="matrix(1,0,0,1,15,0)"><tspan id="v-12"  dy="0em" x="0">[Container]</tspan></text><image  id="v-10" pointer-events="visible"></image></g></g><g id="j_7"    transform="translate(1010,1660)" style=""><g id="v-86"><rect  id="v-87" width="490" height="413" rx="0" ry="0" fill="#ffffff" stroke="#3c7fc0" stroke-width="2" stroke-dasharray="20,20" pointer-events="none"></rect><text  id="v-88" font-size="24px" y="374" xml:space="preserve" font-weight="normal" fill="#3c7fc0" x="10" text-anchor="start" pointer-events="visible" font-family="Open Sans" transform="matrix(1,0,0,1,15,0)"><tspan id="v-91"  dy="0em" x="0">Codec Server</tspan></text><text  id="v-89" font-size="19px" y="398" xml:space="preserve" font-weight="normal" fill="#3c7fc0" x="10" text-anchor="start" pointer-events="visible" font-family="Open Sans" transform="matrix(1,0,0,1,15,0)"><tspan id="v-92"  dy="0em" x="0">[Container]</tspan></text><image  id="v-90" pointer-events="visible"></image></g></g><g id="j_2"    transform="translate(1036,315)" style=""><g  id="v-16" style="opacity: 1;"><rect  id="v-17" rx="20" ry="20" stroke="#78a8d8" stroke-width="2" pointer-events="visiblePainted" fill="#85bbf0" width="450" height="300"></rect><text  id="v-18" font-size="34" y="0.8em" xml:space="preserve" font-weight="bold" text-anchor="middle" pointer-events="visible" font-family="Open Sans" fill="#000000" transform="matrix(1,0,0,1,225,116.9)"><tspan id="v-23"  dy="0em" x="0">Command Line Interface</tspan></text><text  id="v-19" font-size="19" y="0.8em" xml:space="preserve" text-anchor="middle" font-family="Open Sans" fill="#000000" transform="matrix(1,0,0,1,225,159.4)"><tspan id="v-24"  dy="0em" x="0">[Component]</tspan></text><text  id="v-20" font-size="24" y="0.8em" display="none" xml:space="preserve" text-anchor="middle" font-family="Open Sans" fill="#000000" transform="matrix(1,0,0,1,225,183.1)"><tspan id="v-25"  dy="0em" x="0" style="fill-opacity: 0; stroke-opacity: 0;">-</tspan></text><text  id="v-21" font-weight="bold" text-anchor="middle" font-family="Open Sans" fill="#000000" font-size="24" transform="matrix(1,0,0,1,225,270)" display="none"></text><image  id="v-22"></image></g></g><g id="j_3"    transform="translate(1840,315)" style="" ><g  id="v-27" style="opacity: 1;"><rect  id="v-28" rx="20" ry="20" stroke="#162021" stroke-width="2" pointer-events="visiblePainted" fill="#182325" width="450" height="300"></rect><text  id="v-29" font-size="34" y="0.8em" xml:space="preserve" font-weight="bold" text-anchor="middle" pointer-events="visible" font-family="Open Sans" fill="#ffffff" transform="matrix(1,0,0,1,225,116.9)"><tspan id="v-34"  dy="0em" x="0">Temporal Cluster</tspan></text><text  id="v-30" font-size="19" y="0.8em" xml:space="preserve" text-anchor="middle" font-family="Open Sans" fill="#ffffff" transform="matrix(1,0,0,1,225,159.4)"><tspan id="v-35"  dy="0em" x="0">[Software System]</tspan></text><text  id="v-31" font-size="24" y="0.8em" display="none" xml:space="preserve" text-anchor="middle" font-family="Open Sans" fill="#ffffff" transform="matrix(1,0,0,1,225,183.1)"><tspan id="v-36"  dy="0em" x="0" style="fill-opacity: 0; stroke-opacity: 0;">-</tspan></text><text  id="v-32" font-weight="bold" text-anchor="middle" font-family="Open Sans" fill="#ffffff" font-size="24" transform="matrix(1,0,0,1,225,270)" y="0.8em" xml:space="preserve" display="none"><tspan id="v-37"  dy="0em" x="0">+</tspan></text><image  id="v-33"></image></g></g><g id="j_4"    transform="translate(1035,960)" style=""><g  id="v-43" style="opacity: 1;"><polygon  id="v-44" stroke="#78a8d8" stroke-width="2" pointer-events="visiblePainted" fill="#85bbf0" points="112.5,0 337.5,0 450,194.5 337.5,389 112.5,389 0,194.5"></polygon><text  id="v-45" font-size="34" y="0.8em" xml:space="preserve" font-weight="bold" text-anchor="middle" pointer-events="visible" font-family="Open Sans" fill="#000000" transform="matrix(1,0,0,1,225,89.5)"><tspan id="v-50"  dy="0em" x="0">DataConverter</tspan></text><text  id="v-46" font-size="19" y="0.8em" xml:space="preserve" text-anchor="middle" font-family="Open Sans" fill="#000000" transform="matrix(1,0,0,1,225,132)"><tspan id="v-51"  dy="0em" x="0">[Component]</tspan></text><text  id="v-47" font-size="24" y="0.8em" xml:space="preserve" text-anchor="middle" font-family="Open Sans" fill="#000000" transform="matrix(1,0,0,1,225,179.5)"><tspan id="v-52"  dy="0em" x="0">Deserialises inbound</tspan><tspan id="v-53"  dy="1.2em" x="0">Payload to human readable</tspan><tspan id="v-54"  dy="1.2em" x="0">format. Cannot be</tspan><tspan id="v-55"  dy="1.2em" x="0">customised.</tspan></text><text  id="v-48" font-weight="bold" text-anchor="middle" font-family="Open Sans" fill="#000000" font-size="24" transform="matrix(1,0,0,1,225,357.9)" display="none"></text><image  id="v-49"></image></g></g><g id="j_5"    transform="translate(270,265)" style=""><g  id="v-57" style="opacity: 1;"><rect  x="0" y="160" width="400" height="240" rx="70" id="v-59" stroke="#073b6f" stroke-width="2" pointer-events="visiblePainted" fill="#08427b"></rect><circle  cx="200" cy="88.88888888888889" r="88.88888888888889" id="v-58" stroke="#073b6f" stroke-width="2" pointer-events="visiblePainted" fill="#08427b"></circle><line  x1="80" y1="266.6666666666667" x2="80" y2="400" style="stroke-width:2px" id="v-65" stroke="#073b6f"></line><line  x1="320" y1="266.6666666666667" x2="320" y2="400" style="stroke-width:2px" id="v-66" stroke="#073b6f"></line><text  id="v-60" font-size="34px" y="0.8em" xml:space="preserve" font-weight="bold" text-anchor="middle" pointer-events="visible" font-family="Open Sans" fill="#ffffff" transform="matrix(1,0,0,1,200,246.9)"><tspan id="v-67"  dy="0em" x="0">Developer</tspan></text><text  id="v-61" font-size="19px" y="0.8em" xml:space="preserve" text-anchor="middle" font-family="Open Sans" fill="#ffffff" transform="matrix(1,0,0,1,200,289.4)"><tspan id="v-68"  dy="0em" x="0">[Person]</tspan></text><text  id="v-62" font-size="24px" y="0.8em" display="none" xml:space="preserve" text-anchor="middle" font-family="Open Sans" fill="#ffffff" transform="matrix(1,0,0,1,200,313.1)"><tspan id="v-69"  dy="0em" x="0" style="fill-opacity: 0; stroke-opacity: 0;">-</tspan></text><text  id="v-63" font-weight="bold" text-anchor="middle" font-family="Open Sans" fill="#ffffff" font-size="24" transform="matrix(1,0,0,1,200,371.2)" display="none"></text><image  id="v-64"></image></g></g><g id="j_6"    transform="translate(1030,1680)" style=""><g  id="v-75" style="opacity: 1;"><rect  id="v-76" rx="20" ry="20" stroke="#78a8d8" stroke-width="2" pointer-events="visiblePainted" fill="#85bbf0" width="450" height="300"></rect><text  id="v-77" font-size="34" y="0.8em" xml:space="preserve" font-weight="bold" text-anchor="middle" pointer-events="visible" font-family="Open Sans" fill="#000000" transform="matrix(1,0,0,1,225,90)"><tspan id="v-82"  dy="0em" x="0">Codec Server HTTP API</tspan></text><text  id="v-78" font-size="19" y="0.8em" xml:space="preserve" text-anchor="middle" font-family="Open Sans" fill="#000000" transform="matrix(1,0,0,1,225,132.5)"><tspan id="v-83"  dy="0em" x="0">[Component]</tspan></text><text  id="v-79" font-size="24" y="0.8em" xml:space="preserve" text-anchor="middle" font-family="Open Sans" fill="#000000" transform="matrix(1,0,0,1,225,180)"><tspan id="v-84"  dy="0em" x="0">Provides encode/decode endpoints.</tspan></text><text  id="v-80" font-weight="bold" text-anchor="middle" font-family="Open Sans" fill="#000000" font-size="24" transform="matrix(1,0,0,1,225,270)" display="none"></text><image  id="v-81"></image></g></g><g id="j_8"   ><path  stroke="#707070" id="v-114" stroke-width="2" stroke-dasharray="30 30" fill="none" d="M 670 541 856 611 S 865 615 874 611 L 1017 557"></path><path  fill="black" stroke="black" transform="translate(670,541) scale(1,1) rotate(20.781097412109403)"></path><path  fill="#707070" stroke="#707070" id="v-116" d="M 20 0 L 0 10 L 20 20 z" transform="translate(1039.5531941530146,559.3475000702005) scale(1,1) rotate(-200.81265258789062)"></path><path  id="v-115" fill="none" d="M 670 541 856 611 S 865 615 874 611 L 1017 557" style=""></path><title ></title><g ><g  id="v-101" label-idx="0" cursor="move" transform="translate(843.1734008789062, 606.1727905273438)"><rect id="v-103" fill="#ffffff" rx="3" ry="3" stroke="#ffffff" stroke-width="20px" pointer-events="none" width="190.76206970214844" height="61.24252891540527" transform="matrix(1,0,0,1,-95.4,-30.7)"></rect><text id="v-102" font-size="24px" y="0.8em" xml:space="preserve" text-anchor="middle" pointer-events="none" fill="#707070" font-family="Open Sans" font-weight="normal" transform="matrix(1,0,0,1,0,-23.9)"><tspan id="v-104"  dy="0em" x="0">1: Runs workflow</tspan><tspan id="v-105"  dy="1.2em" x="0">show command</tspan></text></g><g  id="v-106" label-idx="1" cursor="move" transform="translate(843.1734008789062, 649.3727905273438)"><rect id="v-108" fill="#ffffff" rx="3" ry="3" pointer-events="none" width="0" height="0" transform="matrix(1,0,0,1,0,0)"></rect><text id="v-107" font-size="19px" y="0.8em" display="none" xml:space="preserve" text-anchor="middle" pointer-events="none" fill="#707070" font-family="Open Sans" font-weight="normal" transform="matrix(1,0,0,1,0,0)"><tspan id="v-109"  dy="0em" x="0" style="fill-opacity: 0; stroke-opacity: 0;">-</tspan></text></g><g  id="v-110" label-idx="2" cursor="move" transform="translate(843.1734008789062, 673.3727905273438)"><rect id="v-112" fill="#ffffff" rx="3" ry="3" pointer-events="none"  display="none" width="0" height="0" transform="matrix(1,0,0,1,0,0)"></rect><text id="v-111" font-size="19px" y="0.8em" display="none" xml:space="preserve" text-anchor="middle" pointer-events="none" fill="#707070" font-family="Open Sans" font-weight="normal"  transform="matrix(1,0,0,1,0,0)"><tspan id="v-113"  dy="0em" x="0" style="fill-opacity: 0; stroke-opacity: 0;">-</tspan></text></g></g><g  display="none"><g  transform="translate(865, 615)" id="v-97"><circle  idx="0" r="10"></circle><path  idx="0" d="M16,5.333c-7.732,0-14,4.701-14,10.5c0,1.982,0.741,3.833,2.016,5.414L2,25.667l5.613-1.441c2.339,1.317,5.237,2.107,8.387,2.107c7.732,0,14-4.701,14-10.5C30,10.034,23.732,5.333,16,5.333z" transform="translate(5, -33)"></path><path  idx="0" transform="scale(.8) translate(9.5, -37)" d="M24.778,21.419 19.276,15.917 24.777,10.415 21.949,7.585 16.447,13.087 10.945,7.585 8.117,10.415 13.618,15.917 8.116,21.419 10.946,24.248 16.447,18.746 21.948,24.248z"><title>Remove vertex.</title></path></g></g><g  id="v-118" display="none"><g  id="v-98"><path  end="source" d="M 26 0 L 0 13 L 26 26 z"></path></g><g  id="v-99"><path  end="target" d="M 26 0 L 0 13 L 26 26 z"></path></g></g><g  id="v-117" display="none"><g  id="v-96" transform="translate(707.4365844726562, 555.0890502929688) "><g  event="remove"><circle r="11"></circle><path transform="scale(.8) translate(-16, -16)" d="M24.778,21.419 19.276,15.917 24.777,10.415 21.949,7.585 16.447,13.087 10.945,7.585 8.117,10.415 13.618,15.917 8.116,21.419 10.946,24.248 16.447,18.746 21.948,24.248z"></path><title>Remove link.</title></g><g  event="link:options"><circle r="11" transform="translate(25)"></circle><path fill="white" transform="scale(.55) translate(29, -16)" d="M31.229,17.736c0.064-0.571,0.104-1.148,0.104-1.736s-0.04-1.166-0.104-1.737l-4.377-1.557c-0.218-0.716-0.504-1.401-0.851-2.05l1.993-4.192c-0.725-0.91-1.549-1.734-2.458-2.459l-4.193,1.994c-0.647-0.347-1.334-0.632-2.049-0.849l-1.558-4.378C17.165,0.708,16.588,0.667,16,0.667s-1.166,0.041-1.737,0.105L12.707,5.15c-0.716,0.217-1.401,0.502-2.05,0.849L6.464,4.005C5.554,4.73,4.73,5.554,4.005,6.464l1.994,4.192c-0.347,0.648-0.632,1.334-0.849,2.05l-4.378,1.557C0.708,14.834,0.667,15.412,0.667,16s0.041,1.165,0.105,1.736l4.378,1.558c0.217,0.715,0.502,1.401,0.849,2.049l-1.994,4.193c0.725,0.909,1.549,1.733,2.459,2.458l4.192-1.993c0.648,0.347,1.334,0.633,2.05,0.851l1.557,4.377c0.571,0.064,1.148,0.104,1.737,0.104c0.588,0,1.165-0.04,1.736-0.104l1.558-4.377c0.715-0.218,1.399-0.504,2.049-0.851l4.193,1.993c0.909-0.725,1.733-1.549,2.458-2.458l-1.993-4.193c0.347-0.647,0.633-1.334,0.851-2.049L31.229,17.736zM16,20.871c-2.69,0-4.872-2.182-4.872-4.871c0-2.69,2.182-4.872,4.872-4.872c2.689,0,4.871,2.182,4.871,4.872C20.871,18.689,18.689,20.871,16,20.871z"></path><title>Link options.</title></g></g></g></g><g id="j_9"   ><path  stroke="#707070" id="v-140" stroke-width="2" stroke-dasharray="30 30" fill="none" d="M 1486 465 1820 465"></path><path  fill="black" stroke="black" transform="translate(1486,465) scale(1,1) rotate(0)"></path><path  fill="#707070" stroke="#707070" id="v-142" d="M 20 0 L 0 10 L 20 20 z" transform="translate(1840,475) scale(1,1) rotate(-180)"></path><path  id="v-141" fill="none" d="M 1486 465 1820 465" style=""></path><title ></title><g ><g  id="v-126" label-idx="0" cursor="move" transform="translate(1653, 465)"><rect id="v-128" fill="#ffffff" rx="3" ry="3" stroke="#ffffff" stroke-width="20px" pointer-events="none" width="185.85513305664062" height="90.04253387451172" transform="matrix(1,0,0,1,-92.9,-45.1)"></rect><text id="v-127" font-size="24px" y="0.8em" xml:space="preserve" text-anchor="middle" pointer-events="none" fill="#707070" font-family="Open Sans" font-weight="normal" transform="matrix(1,0,0,1,0,-38.3)"><tspan id="v-129"  dy="0em" x="0">2: Fetches</tspan><tspan id="v-130"  dy="1.2em" x="0">workflow history</tspan><tspan id="v-131"  dy="1.2em" x="0">from</tspan></text></g><g  id="v-132" label-idx="1" cursor="move" transform="translate(1653, 522.6)"><rect id="v-134" fill="#ffffff" rx="3" ry="3" pointer-events="none" width="61.3772087097168" height="25.95402240753174" transform="matrix(1,0,0,1,-30.7,-13)"></rect><text id="v-133" font-size="19px" y="0.8em" xml:space="preserve" text-anchor="middle" pointer-events="none" fill="#707070" font-family="Open Sans" font-weight="normal" transform="matrix(1,0,0,1,0,-7.4)"><tspan id="v-135"  dy="0em" x="0">[GRPC]</tspan></text></g><g  id="v-136" label-idx="2" cursor="move" transform="translate(1653, 546.6)"><rect id="v-138" fill="#ffffff" rx="3" ry="3" pointer-events="none"  display="none" width="0" height="0" transform="matrix(1,0,0,1,0,0)"></rect><text id="v-137" font-size="19px" y="0.8em" display="none" xml:space="preserve" text-anchor="middle" pointer-events="none" fill="#707070" font-family="Open Sans" font-weight="normal"  transform="matrix(1,0,0,1,0,0)"><tspan id="v-139"  dy="0em" x="0" style="fill-opacity: 0; stroke-opacity: 0;">-</tspan></text></g></g><g  display="none"></g><g  id="v-144" display="none"><g  id="v-123"><path  end="source" d="M 26 0 L 0 13 L 26 26 z"></path></g><g  id="v-124"><path  end="target" d="M 26 0 L 0 13 L 26 26 z"></path></g></g><g  id="v-143" display="none"><g  id="v-122" transform="translate(1526, 465) "><g  event="remove"><circle r="11"></circle><path transform="scale(.8) translate(-16, -16)" d="M24.778,21.419 19.276,15.917 24.777,10.415 21.949,7.585 16.447,13.087 10.945,7.585 8.117,10.415 13.618,15.917 8.116,21.419 10.946,24.248 16.447,18.746 21.948,24.248z"></path><title>Remove link.</title></g><g  event="link:options"><circle r="11" transform="translate(25)"></circle><path fill="white" transform="scale(.55) translate(29, -16)" d="M31.229,17.736c0.064-0.571,0.104-1.148,0.104-1.736s-0.04-1.166-0.104-1.737l-4.377-1.557c-0.218-0.716-0.504-1.401-0.851-2.05l1.993-4.192c-0.725-0.91-1.549-1.734-2.458-2.459l-4.193,1.994c-0.647-0.347-1.334-0.632-2.049-0.849l-1.558-4.378C17.165,0.708,16.588,0.667,16,0.667s-1.166,0.041-1.737,0.105L12.707,5.15c-0.716,0.217-1.401,0.502-2.05,0.849L6.464,4.005C5.554,4.73,4.73,5.554,4.005,6.464l1.994,4.192c-0.347,0.648-0.632,1.334-0.849,2.05l-4.378,1.557C0.708,14.834,0.667,15.412,0.667,16s0.041,1.165,0.105,1.736l4.378,1.558c0.217,0.715,0.502,1.401,0.849,2.049l-1.994,4.193c0.725,0.909,1.549,1.733,2.459,2.458l4.192-1.993c0.648,0.347,1.334,0.633,2.05,0.851l1.557,4.377c0.571,0.064,1.148,0.104,1.737,0.104c0.588,0,1.165-0.04,1.736-0.104l1.558-4.377c0.715-0.218,1.399-0.504,2.049-0.851l4.193,1.993c0.909-0.725,1.733-1.549,2.458-2.458l-1.993-4.193c0.347-0.647,0.633-1.334,0.851-2.049L31.229,17.736zM16,20.871c-2.69,0-4.872-2.182-4.872-4.871c0-2.69,2.182-4.872,4.872-4.872c2.689,0,4.871,2.182,4.871,4.872C20.871,18.689,18.689,20.871,16,20.871z"></path><title>Link options.</title></g></g></g></g><g id="j_10"   ><path  stroke="#707070" id="v-167" stroke-width="2" stroke-dasharray="30 30" fill="none" d="M 1195 615 1114 800 S 1110 809 1114 818 L 1164 941"></path><path  fill="black" stroke="black" transform="translate(1195,615) scale(1,1) rotate(-246.3396453857422)"></path><path  fill="#707070" stroke="#707070" id="v-169" d="M 20 0 L 0 10 L 20 20 z" transform="translate(1162.7494526212065,963.7982249173249) scale(1,1) rotate(-112.32286071777344)"></path><path  id="v-168" fill="none" d="M 1195 615 1114 800 S 1110 809 1114 818 L 1164 941" style=""></path><title ></title><g ><g  id="v-153" label-idx="0" cursor="move" transform="translate(1124.1695556640625, 776.7732543945312)"><rect id="v-155" fill="#ffffff" rx="3" ry="3" stroke="#ffffff" stroke-width="20px" pointer-events="none" width="160.4891357421875" height="90.04253387451172" transform="matrix(1,0,0,1,-80.2,-45.1)"></rect><text id="v-154" font-size="24px" y="0.8em" xml:space="preserve" text-anchor="middle" pointer-events="none" fill="#707070" font-family="Open Sans" font-weight="normal" transform="matrix(1,0,0,1,0,-38.3)"><tspan id="v-156"  dy="0em" x="0">3: Passes</tspan><tspan id="v-157"  dy="1.2em" x="0">Payloads from</tspan><tspan id="v-158"  dy="1.2em" x="0">response to</tspan></text></g><g  id="v-159" label-idx="1" cursor="move" transform="translate(1124.1695556640625, 834.3732543945313)"><rect id="v-161" fill="#ffffff" rx="3" ry="3" pointer-events="none" width="0" height="0" transform="matrix(1,0,0,1,0,0)"></rect><text id="v-160" font-size="19px" y="0.8em" display="none" xml:space="preserve" text-anchor="middle" pointer-events="none" fill="#707070" font-family="Open Sans" font-weight="normal" transform="matrix(1,0,0,1,0,0)"><tspan id="v-162"  dy="0em" x="0" style="fill-opacity: 0; stroke-opacity: 0;">-</tspan></text></g><g  id="v-163" label-idx="2" cursor="move" transform="translate(1124.1695556640625, 858.3732543945313)"><rect id="v-165" fill="#ffffff" rx="3" ry="3" pointer-events="none"  display="none" width="0" height="0" transform="matrix(1,0,0,1,0,0)"></rect><text id="v-164" font-size="19px" y="0.8em" display="none" xml:space="preserve" text-anchor="middle" pointer-events="none" fill="#707070" font-family="Open Sans" font-weight="normal"  transform="matrix(1,0,0,1,0,0)"><tspan id="v-166"  dy="0em" x="0" style="fill-opacity: 0; stroke-opacity: 0;">-</tspan></text></g></g><g  display="none"><g  transform="translate(1110, 809)" id="v-149"><circle  idx="0" r="10"></circle><path  idx="0" d="M16,5.333c-7.732,0-14,4.701-14,10.5c0,1.982,0.741,3.833,2.016,5.414L2,25.667l5.613-1.441c2.339,1.317,5.237,2.107,8.387,2.107c7.732,0,14-4.701,14-10.5C30,10.034,23.732,5.333,16,5.333z" transform="translate(5, -33)"></path><path  idx="0" transform="scale(.8) translate(9.5, -37)" d="M24.778,21.419 19.276,15.917 24.777,10.415 21.949,7.585 16.447,13.087 10.945,7.585 8.117,10.415 13.618,15.917 8.116,21.419 10.946,24.248 16.447,18.746 21.948,24.248z"><title>Remove vertex.</title></path></g></g><g  id="v-171" display="none"><g  id="v-150"><path  end="source" d="M 26 0 L 0 13 L 26 26 z"></path></g><g  id="v-151"><path  end="target" d="M 26 0 L 0 13 L 26 26 z"></path></g></g><g  id="v-170" display="none"><g  id="v-148" transform="translate(1178.9569091796875, 651.6417236328125) "><g  event="remove"><circle r="11"></circle><path transform="scale(.8) translate(-16, -16)" d="M24.778,21.419 19.276,15.917 24.777,10.415 21.949,7.585 16.447,13.087 10.945,7.585 8.117,10.415 13.618,15.917 8.116,21.419 10.946,24.248 16.447,18.746 21.948,24.248z"></path><title>Remove link.</title></g><g  event="link:options"><circle r="11" transform="translate(25)"></circle><path fill="white" transform="scale(.55) translate(29, -16)" d="M31.229,17.736c0.064-0.571,0.104-1.148,0.104-1.736s-0.04-1.166-0.104-1.737l-4.377-1.557c-0.218-0.716-0.504-1.401-0.851-2.05l1.993-4.192c-0.725-0.91-1.549-1.734-2.458-2.459l-4.193,1.994c-0.647-0.347-1.334-0.632-2.049-0.849l-1.558-4.378C17.165,0.708,16.588,0.667,16,0.667s-1.166,0.041-1.737,0.105L12.707,5.15c-0.716,0.217-1.401,0.502-2.05,0.849L6.464,4.005C5.554,4.73,4.73,5.554,4.005,6.464l1.994,4.192c-0.347,0.648-0.632,1.334-0.849,2.05l-4.378,1.557C0.708,14.834,0.667,15.412,0.667,16s0.041,1.165,0.105,1.736l4.378,1.558c0.217,0.715,0.502,1.401,0.849,2.049l-1.994,4.193c0.725,0.909,1.549,1.733,2.459,2.458l4.192-1.993c0.648,0.347,1.334,0.633,2.05,0.851l1.557,4.377c0.571,0.064,1.148,0.104,1.737,0.104c0.588,0,1.165-0.04,1.736-0.104l1.558-4.377c0.715-0.218,1.399-0.504,2.049-0.851l4.193,1.993c0.909-0.725,1.733-1.549,2.458-2.458l-1.993-4.193c0.347-0.647,0.633-1.334,0.851-2.049L31.229,17.736zM16,20.871c-2.69,0-4.872-2.182-4.872-4.871c0-2.69,2.182-4.872,4.872-4.872c2.689,0,4.871,2.182,4.871,4.872C20.871,18.689,18.689,20.871,16,20.871z"></path><title>Link options.</title></g></g></g></g><g id="j_11"   ><path  stroke="#707070" id="v-194" stroke-width="2" stroke-dasharray="30 30" fill="none" d="M 1154 1349 1110 1482 S 1107 1491 1111 1500 L 1182 1662"></path><path  fill="black" stroke="black" transform="translate(1154,1349) scale(1,1) rotate(-251.68618774414062)"></path><path  fill="#707070" stroke="#707070" id="v-196" d="M 20 0 L 0 10 L 20 20 z" transform="translate(1180.844012394186,1684.020890910961) scale(1,1) rotate(-113.70884704589844)"></path><path  id="v-195" fill="none" d="M 1154 1349 1110 1482 S 1107 1491 1111 1500 L 1182 1662" style=""></path><title ></title><g ><g  id="v-181" label-idx="0" cursor="move" transform="translate(1114.6927490234375, 1508.4256591796875)"><rect id="v-183" fill="#ffffff" rx="3" ry="3" stroke="#ffffff" stroke-width="20px" pointer-events="none" width="196.90586853027344" height="61.24252891540527" transform="matrix(1,0,0,1,-98.5,-30.7)"></rect><text id="v-182" font-size="24px" y="0.8em" xml:space="preserve" text-anchor="middle" pointer-events="none" fill="#707070" font-family="Open Sans" font-weight="normal" transform="matrix(1,0,0,1,0,-23.9)"><tspan id="v-184"  dy="0em" x="0">4: Sends encoded</tspan><tspan id="v-185"  dy="1.2em" x="0">Payloads to</tspan></text></g><g  id="v-186" label-idx="1" cursor="move" transform="translate(1114.6927490234375, 1551.6256591796875)"><rect id="v-188" fill="#ffffff" rx="3" ry="3" pointer-events="none" width="69.2242431640625" height="25.95402240753174" transform="matrix(1,0,0,1,-34.6,-13)"></rect><text id="v-187" font-size="19px" y="0.8em" xml:space="preserve" text-anchor="middle" pointer-events="none" fill="#707070" font-family="Open Sans" font-weight="normal" transform="matrix(1,0,0,1,0,-7.4)"><tspan id="v-189"  dy="0em" x="0">[HTTPS]</tspan></text></g><g  id="v-190" label-idx="2" cursor="move" transform="translate(1114.6927490234375, 1575.6256591796875)"><rect id="v-192" fill="#ffffff" rx="3" ry="3" pointer-events="none"  display="none" width="0" height="0" transform="matrix(1,0,0,1,0,0)"></rect><text id="v-191" font-size="19px" y="0.8em" display="none" xml:space="preserve" text-anchor="middle" pointer-events="none" fill="#707070" font-family="Open Sans" font-weight="normal"  transform="matrix(1,0,0,1,0,0)"><tspan id="v-193"  dy="0em" x="0" style="fill-opacity: 0; stroke-opacity: 0;">-</tspan></text></g></g><g  display="none"><g  transform="translate(1107, 1491)" id="v-177"><circle  idx="0" r="10"></circle><path  idx="0" d="M16,5.333c-7.732,0-14,4.701-14,10.5c0,1.982,0.741,3.833,2.016,5.414L2,25.667l5.613-1.441c2.339,1.317,5.237,2.107,8.387,2.107c7.732,0,14-4.701,14-10.5C30,10.034,23.732,5.333,16,5.333z" transform="translate(5, -33)"></path><path  idx="0" transform="scale(.8) translate(9.5, -37)" d="M24.778,21.419 19.276,15.917 24.777,10.415 21.949,7.585 16.447,13.087 10.945,7.585 8.117,10.415 13.618,15.917 8.116,21.419 10.946,24.248 16.447,18.746 21.948,24.248z"><title>Remove vertex.</title></path></g></g><g  id="v-198" display="none"><g  id="v-178"><path  end="source" d="M 26 0 L 0 13 L 26 26 z"></path></g><g  id="v-179"><path  end="target" d="M 26 0 L 0 13 L 26 26 z"></path></g></g><g  id="v-197" display="none"><g  id="v-176" transform="translate(1141.4365234375, 1386.975830078125) "><g  event="remove"><circle r="11"></circle><path transform="scale(.8) translate(-16, -16)" d="M24.778,21.419 19.276,15.917 24.777,10.415 21.949,7.585 16.447,13.087 10.945,7.585 8.117,10.415 13.618,15.917 8.116,21.419 10.946,24.248 16.447,18.746 21.948,24.248z"></path><title>Remove link.</title></g><g  event="link:options"><circle r="11" transform="translate(25)"></circle><path fill="white" transform="scale(.55) translate(29, -16)" d="M31.229,17.736c0.064-0.571,0.104-1.148,0.104-1.736s-0.04-1.166-0.104-1.737l-4.377-1.557c-0.218-0.716-0.504-1.401-0.851-2.05l1.993-4.192c-0.725-0.91-1.549-1.734-2.458-2.459l-4.193,1.994c-0.647-0.347-1.334-0.632-2.049-0.849l-1.558-4.378C17.165,0.708,16.588,0.667,16,0.667s-1.166,0.041-1.737,0.105L12.707,5.15c-0.716,0.217-1.401,0.502-2.05,0.849L6.464,4.005C5.554,4.73,4.73,5.554,4.005,6.464l1.994,4.192c-0.347,0.648-0.632,1.334-0.849,2.05l-4.378,1.557C0.708,14.834,0.667,15.412,0.667,16s0.041,1.165,0.105,1.736l4.378,1.558c0.217,0.715,0.502,1.401,0.849,2.049l-1.994,4.193c0.725,0.909,1.549,1.733,2.459,2.458l4.192-1.993c0.648,0.347,1.334,0.633,2.05,0.851l1.557,4.377c0.571,0.064,1.148,0.104,1.737,0.104c0.588,0,1.165-0.04,1.736-0.104l1.558-4.377c0.715-0.218,1.399-0.504,2.049-0.851l4.193,1.993c0.909-0.725,1.733-1.549,2.458-2.458l-1.993-4.193c0.347-0.647,0.633-1.334,0.851-2.049L31.229,17.736zM16,20.871c-2.69,0-4.872-2.182-4.872-4.871c0-2.69,2.182-4.872,4.872-4.872c2.689,0,4.871,2.182,4.871,4.872C20.871,18.689,18.689,20.871,16,20.871z"></path><title>Link options.</title></g></g></g></g><g id="j_12"   ><path  stroke="#707070" id="v-222" stroke-width="2" stroke-dasharray="30 30" fill="none" d="M 1323 1680 1403 1502 S 1407 1493 1403 1484 L 1356 1368"></path><path  fill="black" stroke="black" transform="translate(1323,1680) scale(1,1) rotate(-65.81048583984374)"></path><path  fill="#707070" stroke="#707070" id="v-224" d="M 20 0 L 0 10 L 20 20 z" transform="translate(1358.2758318583008,1345.2639154305352) scale(1,1) rotate(68.06152343749997)"></path><path  id="v-223" fill="none" d="M 1323 1680 1403 1502 S 1407 1493 1403 1484 L 1356 1368" style=""></path><title ></title><g ><g  id="v-208" label-idx="0" cursor="move" transform="translate(1392.439697265625, 1525.49658203125)"><rect id="v-210" fill="#ffffff" rx="3" ry="3" stroke="#ffffff" stroke-width="20px" pointer-events="none" width="113.77188873291016" height="90.04253387451172" transform="matrix(1,0,0,1,-56.9,-45.1)"></rect><text id="v-209" font-size="24px" y="0.8em" xml:space="preserve" text-anchor="middle" pointer-events="none" fill="#707070" font-family="Open Sans" font-weight="normal" transform="matrix(1,0,0,1,0,-38.3)"><tspan id="v-211"  dy="0em" x="0">5: Returns</tspan><tspan id="v-212"  dy="1.2em" x="0">decoded</tspan><tspan id="v-213"  dy="1.2em" x="0">Payloads</tspan></text></g><g  id="v-214" label-idx="1" cursor="move" transform="translate(1392.439697265625, 1583.09658203125)"><rect id="v-216" fill="#ffffff" rx="3" ry="3" pointer-events="none" width="69.2242431640625" height="25.95402240753174" transform="matrix(1,0,0,1,-34.6,-13)"></rect><text id="v-215" font-size="19px" y="0.8em" xml:space="preserve" text-anchor="middle" pointer-events="none" fill="#707070" font-family="Open Sans" font-weight="normal" transform="matrix(1,0,0,1,0,-7.4)"><tspan id="v-217"  dy="0em" x="0">[HTTPS]</tspan></text></g><g  id="v-218" label-idx="2" cursor="move" transform="translate(1392.439697265625, 1607.09658203125)"><rect id="v-220" fill="#ffffff" rx="3" ry="3" pointer-events="none"  display="none" width="0" height="0" transform="matrix(1,0,0,1,0,0)"></rect><text id="v-219" font-size="19px" y="0.8em" display="none" xml:space="preserve" text-anchor="middle" pointer-events="none" fill="#707070" font-family="Open Sans" font-weight="normal"  transform="matrix(1,0,0,1,0,0)"><tspan id="v-221"  dy="0em" x="0" style="fill-opacity: 0; stroke-opacity: 0;">-</tspan></text></g></g><g  display="none"><g  transform="translate(1407, 1493)" id="v-204"><circle  idx="0" r="10"></circle><path  idx="0" d="M16,5.333c-7.732,0-14,4.701-14,10.5c0,1.982,0.741,3.833,2.016,5.414L2,25.667l5.613-1.441c2.339,1.317,5.237,2.107,8.387,2.107c7.732,0,14-4.701,14-10.5C30,10.034,23.732,5.333,16,5.333z" transform="translate(5, -33)"></path><path  idx="0" transform="scale(.8) translate(9.5, -37)" d="M24.778,21.419 19.276,15.917 24.777,10.415 21.949,7.585 16.447,13.087 10.945,7.585 8.117,10.415 13.618,15.917 8.116,21.419 10.946,24.248 16.447,18.746 21.948,24.248z"><title>Remove vertex.</title></path></g></g><g  id="v-226" display="none"><g  id="v-205"><path  end="source" d="M 26 0 L 0 13 L 26 26 z"></path></g><g  id="v-206"><path  end="target" d="M 26 0 L 0 13 L 26 26 z"></path></g></g><g  id="v-225" display="none"><g  id="v-203" transform="translate(1339.3975830078125, 1643.5155029296875) "><g  event="remove"><circle r="11"></circle><path transform="scale(.8) translate(-16, -16)" d="M24.778,21.419 19.276,15.917 24.777,10.415 21.949,7.585 16.447,13.087 10.945,7.585 8.117,10.415 13.618,15.917 8.116,21.419 10.946,24.248 16.447,18.746 21.948,24.248z"></path><title>Remove link.</title></g><g  event="link:options"><circle r="11" transform="translate(25)"></circle><path fill="white" transform="scale(.55) translate(29, -16)" d="M31.229,17.736c0.064-0.571,0.104-1.148,0.104-1.736s-0.04-1.166-0.104-1.737l-4.377-1.557c-0.218-0.716-0.504-1.401-0.851-2.05l1.993-4.192c-0.725-0.91-1.549-1.734-2.458-2.459l-4.193,1.994c-0.647-0.347-1.334-0.632-2.049-0.849l-1.558-4.378C17.165,0.708,16.588,0.667,16,0.667s-1.166,0.041-1.737,0.105L12.707,5.15c-0.716,0.217-1.401,0.502-2.05,0.849L6.464,4.005C5.554,4.73,4.73,5.554,4.005,6.464l1.994,4.192c-0.347,0.648-0.632,1.334-0.849,2.05l-4.378,1.557C0.708,14.834,0.667,15.412,0.667,16s0.041,1.165,0.105,1.736l4.378,1.558c0.217,0.715,0.502,1.401,0.849,2.049l-1.994,4.193c0.725,0.909,1.549,1.733,2.459,2.458l4.192-1.993c0.648,0.347,1.334,0.633,2.05,0.851l1.557,4.377c0.571,0.064,1.148,0.104,1.737,0.104c0.588,0,1.165-0.04,1.736-0.104l1.558-4.377c0.715-0.218,1.399-0.504,2.049-0.851l4.193,1.993c0.909-0.725,1.733-1.549,2.458-2.458l-1.993-4.193c0.347-0.647,0.633-1.334,0.851-2.049L31.229,17.736zM16,20.871c-2.69,0-4.872-2.182-4.872-4.871c0-2.69,2.182-4.872,4.872-4.872c2.689,0,4.871,2.182,4.871,4.872C20.871,18.689,18.689,20.871,16,20.871z"></path><title>Link options.</title></g></g></g></g><g id="j_13"   ><path  stroke="#707070" id="v-250" stroke-width="2" stroke-dasharray="30 30" fill="none" d="M 1261 960 1261 635"></path><path  fill="black" stroke="black" transform="translate(1261,960) scale(1,1) rotate(-90)"></path><path  fill="#707070" stroke="#707070" id="v-252" d="M 20 0 L 0 10 L 20 20 z" transform="translate(1271,615) scale(1,1) rotate(-270)"></path><path  id="v-251" fill="none" d="M 1261 960 1261 635" style=""></path><title ></title><g ><g  id="v-235" label-idx="0" cursor="move" transform="translate(1261, 797.5)"><rect id="v-237" fill="#ffffff" rx="3" ry="3" stroke="#ffffff" stroke-width="20px" pointer-events="none" width="199.70404052734375" height="118.842529296875" transform="matrix(1,0,0,1,-99.9,-59.5)"></rect><text id="v-236" font-size="24px" y="0.8em" xml:space="preserve" text-anchor="middle" pointer-events="none" fill="#707070" font-family="Open Sans" font-weight="normal" transform="matrix(1,0,0,1,0,-52.7)"><tspan id="v-238"  dy="0em" x="0">6: Returns human</tspan><tspan id="v-239"  dy="1.2em" x="0">readable versions</tspan><tspan id="v-240"  dy="1.2em" x="0">of decoded</tspan><tspan id="v-241"  dy="1.2em" x="0">Payloads</tspan></text></g><g  id="v-242" label-idx="1" cursor="move" transform="translate(1261, 867.1)"><rect id="v-244" fill="#ffffff" rx="3" ry="3" pointer-events="none" width="0" height="0" transform="matrix(1,0,0,1,0,0)"></rect><text id="v-243" font-size="19px" y="0.8em" display="none" xml:space="preserve" text-anchor="middle" pointer-events="none" fill="#707070" font-family="Open Sans" font-weight="normal" transform="matrix(1,0,0,1,0,0)"><tspan id="v-245"  dy="0em" x="0" style="fill-opacity: 0; stroke-opacity: 0;">-</tspan></text></g><g  id="v-246" label-idx="2" cursor="move" transform="translate(1261, 891.1)"><rect id="v-248" fill="#ffffff" rx="3" ry="3" pointer-events="none"  display="none" width="0" height="0" transform="matrix(1,0,0,1,0,0)"></rect><text id="v-247" font-size="19px" y="0.8em" display="none" xml:space="preserve" text-anchor="middle" pointer-events="none" fill="#707070" font-family="Open Sans" font-weight="normal"  transform="matrix(1,0,0,1,0,0)"><tspan id="v-249"  dy="0em" x="0" style="fill-opacity: 0; stroke-opacity: 0;">-</tspan></text></g></g><g  display="none"></g><g  id="v-254" display="none"><g  id="v-232"><path  end="source" d="M 26 0 L 0 13 L 26 26 z"></path></g><g  id="v-233"><path  end="target" d="M 26 0 L 0 13 L 26 26 z"></path></g></g><g  id="v-253" display="none"><g  id="v-231" transform="translate(1261, 920) "><g  event="remove"><circle r="11"></circle><path transform="scale(.8) translate(-16, -16)" d="M24.778,21.419 19.276,15.917 24.777,10.415 21.949,7.585 16.447,13.087 10.945,7.585 8.117,10.415 13.618,15.917 8.116,21.419 10.946,24.248 16.447,18.746 21.948,24.248z"></path><title>Remove link.</title></g><g  event="link:options"><circle r="11" transform="translate(25)"></circle><path fill="white" transform="scale(.55) translate(29, -16)" d="M31.229,17.736c0.064-0.571,0.104-1.148,0.104-1.736s-0.04-1.166-0.104-1.737l-4.377-1.557c-0.218-0.716-0.504-1.401-0.851-2.05l1.993-4.192c-0.725-0.91-1.549-1.734-2.458-2.459l-4.193,1.994c-0.647-0.347-1.334-0.632-2.049-0.849l-1.558-4.378C17.165,0.708,16.588,0.667,16,0.667s-1.166,0.041-1.737,0.105L12.707,5.15c-0.716,0.217-1.401,0.502-2.05,0.849L6.464,4.005C5.554,4.73,4.73,5.554,4.005,6.464l1.994,4.192c-0.347,0.648-0.632,1.334-0.849,2.05l-4.378,1.557C0.708,14.834,0.667,15.412,0.667,16s0.041,1.165,0.105,1.736l4.378,1.558c0.217,0.715,0.502,1.401,0.849,2.049l-1.994,4.193c0.725,0.909,1.549,1.733,2.459,2.458l4.192-1.993c0.648,0.347,1.334,0.633,2.05,0.851l1.557,4.377c0.571,0.064,1.148,0.104,1.737,0.104c0.588,0,1.165-0.04,1.736-0.104l1.558-4.377c0.715-0.218,1.399-0.504,2.049-0.851l4.193,1.993c0.909-0.725,1.733-1.549,2.458-2.458l-1.993-4.193c0.347-0.647,0.633-1.334,0.851-2.049L31.229,17.736zM16,20.871c-2.69,0-4.872-2.182-4.872-4.871c0-2.69,2.182-4.872,4.872-4.872c2.689,0,4.871,2.182,4.871,4.872C20.871,18.689,18.689,20.871,16,20.871z"></path><title>Link options.</title></g></g></g></g><g id="j_14"   ><path  stroke="#707070" id="v-276" stroke-width="2" stroke-dasharray="30 30" fill="none" d="M 1036 380 874 319 S 865 315 856 319 L 689 382"></path><path  fill="black" stroke="black" transform="translate(1036,380) scale(1,1) rotate(-159.18734741210938)"></path><path  fill="#707070" stroke="#707070" id="v-278" d="M 20 0 L 0 10 L 20 20 z" transform="translate(666.4520117954589,379.6505869006422) scale(1,1) rotate(-20.781110763549805)"></path><path  id="v-277" fill="none" d="M 1036 380 874 319 S 865 315 856 319 L 689 382" style=""></path><title ></title><g ><g  id="v-264" label-idx="0" cursor="move" transform="translate(862.30126953125, 317.3422546386719)"><rect id="v-266" fill="#ffffff" rx="3" ry="3" stroke="#ffffff" stroke-width="20px" pointer-events="none" width="161.54351806640625" height="32.442527770996094" transform="matrix(1,0,0,1,-80.8,-16.3)"></rect><text id="v-265" font-size="24px" y="0.8em" xml:space="preserve" text-anchor="middle" pointer-events="none" fill="#707070" font-family="Open Sans" font-weight="normal" transform="matrix(1,0,0,1,0,-9.5)"><tspan id="v-267"  dy="0em" x="0">7: Prints result</tspan></text></g><g  id="v-268" label-idx="1" cursor="move" transform="translate(862.30126953125, 348.54225463867186)"><rect id="v-270" fill="#ffffff" rx="3" ry="3" pointer-events="none" width="0" height="0" transform="matrix(1,0,0,1,0,0)"></rect><text id="v-269" font-size="19px" y="0.8em" display="none" xml:space="preserve" text-anchor="middle" pointer-events="none" fill="#707070" font-family="Open Sans" font-weight="normal" transform="matrix(1,0,0,1,0,0)"><tspan id="v-271"  dy="0em" x="0" style="fill-opacity: 0; stroke-opacity: 0;">-</tspan></text></g><g  id="v-272" label-idx="2" cursor="move" transform="translate(862.30126953125, 372.54225463867186)"><rect id="v-274" fill="#ffffff" rx="3" ry="3" pointer-events="none"  display="none" width="0" height="0" transform="matrix(1,0,0,1,0,0)"></rect><text id="v-273" font-size="19px" y="0.8em" display="none" xml:space="preserve" text-anchor="middle" pointer-events="none" fill="#707070" font-family="Open Sans" font-weight="normal"  transform="matrix(1,0,0,1,0,0)"><tspan id="v-275"  dy="0em" x="0" style="fill-opacity: 0; stroke-opacity: 0;">-</tspan></text></g></g><g  display="none"><g  transform="translate(865, 315)" id="v-260"><circle  idx="0" r="10"></circle><path  idx="0" d="M16,5.333c-7.732,0-14,4.701-14,10.5c0,1.982,0.741,3.833,2.016,5.414L2,25.667l5.613-1.441c2.339,1.317,5.237,2.107,8.387,2.107c7.732,0,14-4.701,14-10.5C30,10.034,23.732,5.333,16,5.333z" transform="translate(5, -33)"></path><path  idx="0" transform="scale(.8) translate(9.5, -37)" d="M24.778,21.419 19.276,15.917 24.777,10.415 21.949,7.585 16.447,13.087 10.945,7.585 8.117,10.415 13.618,15.917 8.116,21.419 10.946,24.248 16.447,18.746 21.948,24.248z"><title>Remove vertex.</title></path></g></g><g  id="v-280" display="none"><g  id="v-261"><path  end="source" d="M 26 0 L 0 13 L 26 26 z"></path></g><g  id="v-262"><path  end="target" d="M 26 0 L 0 13 L 26 26 z"></path></g></g><g  id="v-279" display="none"><g  id="v-259" transform="translate(998.5658569335938, 365.9044189453125) "><g  event="remove"><circle r="11"></circle><path transform="scale(.8) translate(-16, -16)" d="M24.778,21.419 19.276,15.917 24.777,10.415 21.949,7.585 16.447,13.087 10.945,7.585 8.117,10.415 13.618,15.917 8.116,21.419 10.946,24.248 16.447,18.746 21.948,24.248z"></path><title>Remove link.</title></g><g  event="link:options"><circle r="11" transform="translate(25)"></circle><path fill="white" transform="scale(.55) translate(29, -16)" d="M31.229,17.736c0.064-0.571,0.104-1.148,0.104-1.736s-0.04-1.166-0.104-1.737l-4.377-1.557c-0.218-0.716-0.504-1.401-0.851-2.05l1.993-4.192c-0.725-0.91-1.549-1.734-2.458-2.459l-4.193,1.994c-0.647-0.347-1.334-0.632-2.049-0.849l-1.558-4.378C17.165,0.708,16.588,0.667,16,0.667s-1.166,0.041-1.737,0.105L12.707,5.15c-0.716,0.217-1.401,0.502-2.05,0.849L6.464,4.005C5.554,4.73,4.73,5.554,4.005,6.464l1.994,4.192c-0.347,0.648-0.632,1.334-0.849,2.05l-4.378,1.557C0.708,14.834,0.667,15.412,0.667,16s0.041,1.165,0.105,1.736l4.378,1.558c0.217,0.715,0.502,1.401,0.849,2.049l-1.994,4.193c0.725,0.909,1.549,1.733,2.459,2.458l4.192-1.993c0.648,0.347,1.334,0.633,2.05,0.851l1.557,4.377c0.571,0.064,1.148,0.104,1.737,0.104c0.588,0,1.165-0.04,1.736-0.104l1.558-4.377c0.715-0.218,1.399-0.504,2.049-0.851l4.193,1.993c0.909-0.725,1.733-1.549,2.458-2.458l-1.993-4.193c0.347-0.647,0.633-1.334,0.851-2.049L31.229,17.736zM16,20.871c-2.69,0-4.872-2.182-4.872-4.871c0-2.69,2.182-4.872,4.872-4.872c2.689,0,4.871,2.182,4.871,4.872C20.871,18.689,18.689,20.871,16,20.871z"></path><title>Link options.</title></g></g></g></g></g><defs id="v-4"></defs></svg>