<svg width="512" height="512" fill="none" xmlns="http://www.w3.org/2000/svg"><path d="m493.725 160.831-.063.616c-1.411 12.654-5.402 26.269-11.776 40.396l-.01.01L371.66 482.304 76.455 413.069a143.392 143.392 0 0 1-10.553-2.476c-6.781-1.839-13.093-4.086-18.902-6.729h-.01c-17.742-25.046-31.107-53.415-38.954-83.989a659.198 659.198 0 0 1 4.148-16.29c7.168-26.843 21.096-72.85 37.836-97.04l1.63 55.965 110.299 7.356 149.514-71.084 64.543-94.772-28.588-45.756c47.689 11.567 77.908 22.016 96.935 30.26a220.759 220.759 0 0 1 8.558 3.897c19.111 9.226 22.779 14.838 22.779 14.838 6.301 5.308 11.024 11.536 13.897 18.662 4.18 10.344 5.486 22.141 4.138 34.92Z" fill="#9B0A0E"/><path d="M356.676 83.778c-18.538-36.515-100.347-32.214-182.724 9.607-82.377 41.822-134.129 105.327-115.59 141.842 18.537 36.515 100.346 32.214 182.723-9.608 82.377-41.821 134.129-105.326 115.591-141.841Z" fill="#EF0E13"/><path d="m301.18 369.117 70.476 113.191-185.652-72.87c36.652-7.566 76.008-20.941 115.176-40.321ZM50.02 206.546l1.633 55.966-39.47 41.072c7.173-26.84 21.095-72.847 37.836-97.038Z" fill="#F5655E"/><path d="m51.649 262.51-33.886 87.374a253.298 253.298 0 0 1-9.728-30.009v-.01a695.99 695.99 0 0 1 4.148-16.279l39.466-41.076Zm324.363-158.501 117.651 57.437c-1.414 12.656-5.4 26.268-11.781 40.402l-.008.008c-4.771 10.589-10.891 21.472-18.261 32.452l-87.601-130.299Z" fill="#950C10"/><path d="m481.873 201.856-110.216 280.45 28.228-177.874c26.422-22.607 47.951-46.595 63.728-70.125 7.37-10.981 13.488-21.864 18.26-32.451Z" fill="#EF0E13"/><path d="m376.012 104.009 87.601 130.299-152.147-35.523 64.546-94.776Z" fill="#EF0E13"/><path d="m444.355 88.51-68.344 15.499-28.596-45.761c47.69 11.577 77.912 22.019 96.94 30.262Z" fill="#F5655E"/><path d="m311.466 198.785 88.418 105.65c-26.594 22.762-58.139 44.127-93.786 62.225-1.643.834-3.276 1.65-4.918 2.46l10.286-170.335Z" fill="#950C10"/><path d="M311.466 198.785 301.18 369.117l-139.229-99.252 149.515-71.08Z" fill="#EF0E13"/><path d="m161.951 269.865 139.228 99.252c-39.168 19.38-78.524 32.754-115.176 40.321l-24.052-139.573Z" fill="#950C10"/><path d="M161.951 269.865 65.902 410.598 51.653 262.512l110.298 7.353Z" fill="#F5655E"/></svg>