<?xml version="1.0" encoding="iso-8859-1"?>
<!-- Generator: Adobe Illustrator 19.0.0, SVG Export Plug-In . SVG Version: 6.00 Build 0)  -->
<svg version="1.1" id="Capa_1" xmlns="http://www.w3.org/2000/svg" xmlns:xlink="http://www.w3.org/1999/xlink" x="0px" y="0px"
	 viewBox="0 0 512 512" style="enable-background:new 0 0 512 512;" xml:space="preserve">
<path style="fill:#FE4216;" d="M512,256c0,58.399-19.55,112.232-52.485,155.314c-2.696,3.532-5.486,6.99-8.359,10.376
	C404.198,476.944,334.19,512,256,512C114.615,512,0,397.385,0,256c0-61.994,22.037-118.857,58.723-163.15
	c0.376-0.47,0.763-0.93,1.139-1.379C106.83,35.547,177.267,0,256,0C397.385,0,512,114.615,512,256z"/>
<path style="fill:#F2F2F2;" d="M459.515,411.314c-2.696,3.532-5.486,6.99-8.359,10.376c-9.091-14.597-23.353-29.027-44.743-31.556
	c-45.568-5.402-62.945,25.172-110.895,31.169C108.502,445.273,10.449,285.226,10.449,285.226
	c79.193,60.583,187.705,74.553,257.63,29.895c-0.251-0.167-0.502-0.345-0.742-0.512C176.41,250.483,80.875,123.214,58.723,92.85
	c-3.114-4.274-4.775-6.625-4.775-6.625c1.964,1.755,3.939,3.5,5.914,5.245c83.686,73.697,177.507,132.618,177.507,132.618
	C165.407,152.127,109.38,63.634,108.502,62.265C204.413,167.152,329.08,242.072,329.08,242.072
	c39.915-120.916-42.109-214.768-43.144-215.949c1.139,0.627,97.301,54.721,132.462,159.608
	c16.624,49.591,12.319,92.693,3.093,124.447v0.01C453.381,345.433,461.291,386.142,459.515,411.314z"/>
<g>
</g>
<g>
</g>
<g>
</g>
<g>
</g>
<g>
</g>
<g>
</g>
<g>
</g>
<g>
</g>
<g>
</g>
<g>
</g>
<g>
</g>
<g>
</g>
<g>
</g>
<g>
</g>
<g>
</g>
</svg>
