<svg xmlns="http://www.w3.org/2000/svg" xmlns:xlink="http://www.w3.org/1999/xlink" xmlns:lucid="lucid" width="620" height="960"><g transform="translate(-520 -160)" lucid:page-tab-id="0_0"><path d="M0 0h1760v1360H0z" fill="#fff"/><path d="M920 180h200v120H920z" stroke="#3a414a" fill="#fff"/><use xlink:href="#a" transform="matrix(1,0,0,1,932,192) translate(11.555555555555557 54.15277777777778)"/><use xlink:href="#b" transform="matrix(1,0,0,1,932,192) translate(108.8395061728395 54.15277777777778)"/><path d="M1000 390c0 16.57-13.43 30-30 30s-30-13.43-30-30 13.43-30 30-30 30 13.43 30 30z" stroke="#3a414a" fill="#fff"/><use xlink:href="#c" transform="matrix(1,0,0,1,945,365) translate(13.888888888888895 21.388888888888886)"/><use xlink:href="#d" transform="matrix(1,0,0,1,945,365) translate(9.29012345679013 34.72222222222221)"/><path d="M1100 390c0 16.57-13.43 30-30 30s-30-13.43-30-30 13.43-30 30-30 30 13.43 30 30z" stroke="#3a414a" fill="#fff"/><use xlink:href="#e" transform="matrix(1,0,0,1,1045,365) translate(13.595679012345684 21.388888888888886)"/><use xlink:href="#d" transform="matrix(1,0,0,1,1045,365) translate(9.29012345679013 34.72222222222221)"/><path d="M920 480h200v120H920z" stroke="#3a414a" fill="#fff"/><use xlink:href="#f" transform="matrix(1,0,0,1,932,492) translate(13.31481481481481 54.15277777777778)"/><use xlink:href="#g" transform="matrix(1,0,0,1,932,492) translate(66.33950617283949 54.15277777777778)"/><path d="M1000 690c0 16.57-13.43 30-30 30s-30-13.43-30-30 13.43-30 30-30 30 13.43 30 30z" stroke="#3a414a" fill="#fff"/><use xlink:href="#c" transform="matrix(1,0,0,1,945,665) translate(13.888888888888895 21.388888888888886)"/><use xlink:href="#d" transform="matrix(1,0,0,1,945,665) translate(9.29012345679013 34.72222222222221)"/><path d="M1100 690c0 16.57-13.43 30-30 30s-30-13.43-30-30 13.43-30 30-30 30 13.43 30 30z" stroke="#3a414a" fill="#fff"/><use xlink:href="#e" transform="matrix(1,0,0,1,1045,665) translate(13.595679012345684 21.388888888888886)"/><use xlink:href="#d" transform="matrix(1,0,0,1,1045,665) translate(9.29012345679013 34.72222222222221)"/><path d="M920 780h200v120H920z" stroke="#3a414a" fill="#fff"/><use xlink:href="#h" transform="matrix(1,0,0,1,932,792) translate(20.691358024691368 54.15277777777778)"/><use xlink:href="#i" transform="matrix(1,0,0,1,932,792) translate(91 54.15277777777778)"/><path d="M970 343.12V301" stroke="#3a414a" fill="none"/><path d="M970 357.88l-4.64-14.26h9.28z" stroke="#3a414a" fill="#3a414a"/><path d="M970.5 301h-1v-.5h1z" stroke="#3a414a" stroke-width=".05" fill="#3a414a"/><path d="M970 421v42.12" stroke="#3a414a" fill="none"/><path d="M970 420.5l.5-.02v.53h-1v-.54z" stroke="#3a414a" stroke-width=".05" fill="#3a414a"/><path d="M970 477.88l-4.64-14.26h9.28z" stroke="#3a414a" fill="#3a414a"/><path d="M1070 359v-42.12" stroke="#3a414a" fill="none"/><path d="M1070.5 359.54l-.5-.04-.5.02V359h1z" stroke="#3a414a" stroke-width=".05" fill="#3a414a"/><path d="M1070 302.12l4.64 14.26h-9.28z" stroke="#3a414a" fill="#3a414a"/><path d="M1070 436.88V479" stroke="#3a414a" fill="none"/><path d="M1070 422.12l4.64 14.26h-9.28z" stroke="#3a414a" fill="#3a414a"/><path d="M1070.5 479.5h-1v-.5h1z" stroke="#3a414a" stroke-width=".05" fill="#3a414a"/><path d="M970 643.12V601" stroke="#3a414a" fill="none"/><path d="M970 657.88l-4.64-14.26h9.28z" stroke="#3a414a" fill="#3a414a"/><path d="M970.5 601h-1v-.5h1z" stroke="#3a414a" stroke-width=".05" fill="#3a414a"/><path d="M970 721v42.12" stroke="#3a414a" fill="none"/><path d="M970 720.5l.5-.02v.53h-1v-.54z" stroke="#3a414a" stroke-width=".05" fill="#3a414a"/><path d="M970 777.88l-4.64-14.26h9.28z" stroke="#3a414a" fill="#3a414a"/><path d="M1070 659v-42.12" stroke="#3a414a" fill="none"/><path d="M1070.5 659.54l-.5-.04-.5.02V659h1z" stroke="#3a414a" stroke-width=".05" fill="#3a414a"/><path d="M1070 602.12l4.64 14.26h-9.28z" stroke="#3a414a" fill="#3a414a"/><path d="M1070 736.88V779" stroke="#3a414a" fill="none"/><path d="M1070 722.12l4.64 14.26h-9.28z" stroke="#3a414a" fill="#3a414a"/><path d="M1070.5 779.5h-1v-.5h1z" stroke="#3a414a" stroke-width=".05" fill="#3a414a"/><path d="M860 210c0 16.57-13.43 30-30 30s-30-13.43-30-30 13.43-30 30-30 30 13.43 30 30z" stroke="#3a414a" fill="#fff"/><use xlink:href="#j" transform="matrix(1,0,0,1,805,185) translate(4.336419753086432 27.638888888888886)"/><path d="M860 270c0 16.57-13.43 30-30 30s-30-13.43-30-30 13.43-30 30-30 30 13.43 30 30z" stroke="#3a414a" fill="#fff"/><use xlink:href="#c" transform="matrix(1,0,0,1,805,245) translate(13.888888888888895 21.388888888888886)"/><use xlink:href="#d" transform="matrix(1,0,0,1,805,245) translate(9.29012345679013 34.72222222222221)"/><path d="M920 986a6 6 0 0 1 6-6h188a6 6 0 0 1 6 6v108a6 6 0 0 1-6 6H926a6 6 0 0 1-6-6z" stroke="#3a414a" fill="#fff"/><use xlink:href="#k" transform="matrix(1,0,0,1,932,992) translate(63.80864197530864 54.15277777777778)"/><path d="M1020 979.04V901" stroke="#3a414a" fill="none"/><path d="M1020.5 979.54h-1v-.52h1zM1020.5 901h-1v-.5h1z" stroke="#3a414a" stroke-width=".05" fill="#3a414a"/><path d="M540 180h200v120H540z" stroke="#3a414a" fill="#fff"/><use xlink:href="#a" transform="matrix(1,0,0,1,552,192) translate(4.76543209876543 54.15277777777778)"/><use xlink:href="#l" transform="matrix(1,0,0,1,552,192) translate(102.04938271604938 54.15277777777778)"/><path d="M540 386a6 6 0 0 1 6-6h188a6 6 0 0 1 6 6v108a6 6 0 0 1-6 6H546a6 6 0 0 1-6-6z" stroke="#3a414a" fill="#fff"/><use xlink:href="#f" transform="matrix(1,0,0,1,552,392) translate(9.58024691358024 54.15277777777778)"/><use xlink:href="#m" transform="matrix(1,0,0,1,552,392) translate(62.60493827160493 54.15277777777778)"/><path d="M640 379.04V301" stroke="#3a414a" fill="none"/><path d="M640.5 379.54h-1v-.52h1zM640.5 301h-1v-.5h1z" stroke="#3a414a" stroke-width=".05" fill="#3a414a"/><path d="M919.04 1040h-5.06m-5.06 0h-10.1m-5.06 0h-10.12m-5.05 0h-10.13m-5.05 0h-10.1m-5.07 0h-10.1m-5.07 0h-10.1m-5.07 0h-10.1m-5.06 0h-10.1m-5.07 0h-10.1m-5.06 0h-10.1m-5.06 0h-10.12m-5.05 0h-10.1m-5.07 0h-10.1m-5.07 0h-10.1m-5.07 0h-10.1m-5.07 0h-10.12m-5.06 0h-10.1m-5.06 0H646l-.94-.07-.9-.22-.88-.35-.8-.5-.72-.6-.6-.72-.5-.8-.37-.88-.23-.9V1030m0-4.93v-9.87m0-4.93v-9.87m0-4.94v-9.86m0-4.94v-9.87m0-4.94V956m0-4.94v-9.87m0-4.95v-9.86m0-4.95v-9.87m0-4.93l-.02-9.87m0-4.93v-9.87m0-4.94v-9.86m0-4.94v-9.87m0-4.93v-9.87m0-4.93v-9.87m0-4.94v-9.86m0-4.94v-9.87m0-4.93v-9.87m0-4.93v-9.87m-.02-4.94v-9.87m0-4.93v-9.87m0-4.93v-9.87m0-4.93v-9.87m0-4.94v-9.86m0-4.93v-9.86m0-4.93v-9.86m0-4.94v-9.86m0-4.94v-9.87m0-4.93l-.02-9.87m0-4.93v-9.87m0-4.94v-9.87m0-4.94v-9.88m0-4.93v-9.88m0-4.93v-9.88m0-4.94v-9.86m0-4.94v-4.93" stroke="#3a414a" fill="none"/><path d="M919.54 1040.5h-.52v-1h.52z" stroke="#3a414a" stroke-width=".05" fill="#3a414a"/><path d="M640 502.08l4.64 14.27h-9.28z" stroke="#3a414a" fill="#3a414a"/><path d="M876.88 210H919" stroke="#3a414a" fill="none"/><path d="M862.12 210l14.26-4.64v9.28z" stroke="#3a414a" fill="#3a414a"/><path d="M919.5 210.5h-.5v-1h.5z" stroke="#3a414a" stroke-width=".05" fill="#3a414a"/><path d="M861 270h42.12" stroke="#3a414a" fill="none"/><path d="M861 270.5h-.54l.04-.5-.02-.5h.53z" stroke="#3a414a" stroke-width=".05" fill="#3a414a"/><path d="M917.88 270l-14.26 4.64v-9.28z" stroke="#3a414a" fill="#3a414a"/><path d="M799 210h-42.12" stroke="#3a414a" fill="none"/><path d="M799.5 210l.02.5H799v-1h.54z" stroke="#3a414a" stroke-width=".05" fill="#3a414a"/><path d="M742.12 210l14.26-4.64v9.28z" stroke="#3a414a" fill="#3a414a"/><path d="M783.12 270H741" stroke="#3a414a" fill="none"/><path d="M797.88 270l-14.26 4.64v-9.28z" stroke="#3a414a" fill="#3a414a"/><path d="M741 270.5h-.5v-1h.5z" stroke="#3a414a" stroke-width=".05" fill="#3a414a"/><defs><path fill="#3a414a" d="M127-220V0H93v-220H8v-28h204v28h-85" id="n"/><path fill="#3a414a" d="M100-194c63 0 86 42 84 106H49c0 40 14 67 53 68 26 1 43-12 49-29l28 8c-11 28-37 45-77 45C44 4 14-33 15-96c1-61 26-98 85-98zm52 81c6-60-76-77-97-28-3 7-6 17-6 28h103" id="o"/><path fill="#3a414a" d="M210-169c-67 3-38 105-44 169h-31v-121c0-29-5-50-35-48C34-165 62-65 56 0H25l-1-190h30c1 10-1 24 2 32 10-44 99-50 107 0 11-21 27-35 58-36 85-2 47 119 55 194h-31v-121c0-29-5-49-35-48" id="p"/><path fill="#3a414a" d="M115-194c55 1 70 41 70 98S169 2 115 4C84 4 66-9 55-30l1 105H24l-1-265h31l2 30c10-21 28-34 59-34zm-8 174c40 0 45-34 45-75s-6-73-45-74c-42 0-51 32-51 76 0 43 10 73 51 73" id="q"/><path fill="#3a414a" d="M100-194c62-1 85 37 85 99 1 63-27 99-86 99S16-35 15-95c0-66 28-99 85-99zM99-20c44 1 53-31 53-75 0-43-8-75-51-75s-53 32-53 75 10 74 51 75" id="r"/><path fill="#3a414a" d="M114-163C36-179 61-72 57 0H25l-1-190h30c1 12-1 29 2 39 6-27 23-49 58-41v29" id="s"/><path fill="#3a414a" d="M141-36C126-15 110 5 73 4 37 3 15-17 15-53c-1-64 63-63 125-63 3-35-9-54-41-54-24 1-41 7-42 31l-33-3c5-37 33-52 76-52 45 0 72 20 72 64v82c-1 20 7 32 28 27v20c-31 9-61-2-59-35zM48-53c0 20 12 33 32 33 41-3 63-29 60-74-43 2-92-5-92 41" id="t"/><path fill="#3a414a" d="M24 0v-261h32V0H24" id="u"/><g id="a"><use transform="matrix(0.06172839506172839,0,0,0.06172839506172839,0,0)" xlink:href="#n"/><use transform="matrix(0.06172839506172839,0,0,0.06172839506172839,11.049382716049381,0)" xlink:href="#o"/><use transform="matrix(0.06172839506172839,0,0,0.06172839506172839,23.39506172839506,0)" xlink:href="#p"/><use transform="matrix(0.06172839506172839,0,0,0.06172839506172839,41.85185185185185,0)" xlink:href="#q"/><use transform="matrix(0.06172839506172839,0,0,0.06172839506172839,54.197530864197525,0)" xlink:href="#r"/><use transform="matrix(0.06172839506172839,0,0,0.06172839506172839,66.5432098765432,0)" xlink:href="#s"/><use transform="matrix(0.06172839506172839,0,0,0.06172839506172839,73.88888888888889,0)" xlink:href="#t"/><use transform="matrix(0.06172839506172839,0,0,0.06172839506172839,86.23456790123457,0)" xlink:href="#u"/></g><path fill="#3a414a" d="M212-179c-10-28-35-45-73-45-59 0-87 40-87 99 0 60 29 101 89 101 43 0 62-24 78-52l27 14C228-24 195 4 139 4 59 4 22-46 18-125c-6-104 99-153 187-111 19 9 31 26 39 46" id="v"/><path fill="#3a414a" d="M24-231v-30h32v30H24zM24 0v-190h32V0H24" id="w"/><path fill="#3a414a" d="M117-194c89-4 53 116 60 194h-32v-121c0-31-8-49-39-48C34-167 62-67 57 0H25l-1-190h30c1 10-1 24 2 32 11-22 29-35 61-36" id="x"/><path fill="#3a414a" d="M59-47c-2 24 18 29 38 22v24C64 9 27 4 27-40v-127H5v-23h24l9-43h21v43h35v23H59v120" id="y"/><g id="b"><use transform="matrix(0.06172839506172839,0,0,0.06172839506172839,0,0)" xlink:href="#v"/><use transform="matrix(0.06172839506172839,0,0,0.06172839506172839,15.987654320987653,0)" xlink:href="#u"/><use transform="matrix(0.06172839506172839,0,0,0.06172839506172839,20.864197530864196,0)" xlink:href="#w"/><use transform="matrix(0.06172839506172839,0,0,0.06172839506172839,25.74074074074074,0)" xlink:href="#o"/><use transform="matrix(0.06172839506172839,0,0,0.06172839506172839,38.08641975308642,0)" xlink:href="#x"/><use transform="matrix(0.06172839506172839,0,0,0.06172839506172839,50.432098765432094,0)" xlink:href="#y"/></g><path fill="#3a414a" d="M30 0v-248h187v28H63v79h144v27H63v87h162V0H30" id="z"/><path fill="#3a414a" d="M96-169c-40 0-48 33-48 73s9 75 48 75c24 0 41-14 43-38l32 2c-6 37-31 61-74 61-59 0-76-41-82-99-10-93 101-131 147-64 4 7 5 14 7 22l-32 3c-4-21-16-35-41-35" id="A"/><path fill="#3a414a" d="M33 0v-38h34V0H33" id="B"/><g id="c"><use transform="matrix(0.030864197530864182,0,0,0.030864197530864182,0,0)" xlink:href="#z"/><use transform="matrix(0.030864197530864182,0,0,0.030864197530864182,7.407407407407404,0)" xlink:href="#x"/><use transform="matrix(0.030864197530864182,0,0,0.030864197530864182,13.58024691358024,0)" xlink:href="#A"/><use transform="matrix(0.030864197530864182,0,0,0.030864197530864182,19.135802469135793,0)" xlink:href="#B"/></g><path fill="#3a414a" d="M233-177c-1 41-23 64-60 70L243 0h-38l-65-103H63V0H30v-248c88 3 205-21 203 71zM63-129c60-2 137 13 137-47 0-61-80-42-137-45v92" id="C"/><path fill="#3a414a" d="M135-143c-3-34-86-38-87 0 15 53 115 12 119 90S17 21 10-45l28-5c4 36 97 45 98 0-10-56-113-15-118-90-4-57 82-63 122-42 12 7 21 19 24 35" id="D"/><path fill="#3a414a" d="M84 4C-5 8 30-112 23-190h32v120c0 31 7 50 39 49 72-2 45-101 50-169h31l1 190h-30c-1-10 1-25-2-33-11 22-28 36-60 37" id="E"/><g id="d"><use transform="matrix(0.030864197530864182,0,0,0.030864197530864182,0,0)" xlink:href="#C"/><use transform="matrix(0.030864197530864182,0,0,0.030864197530864182,7.993827160493823,0)" xlink:href="#o"/><use transform="matrix(0.030864197530864182,0,0,0.030864197530864182,14.16666666666666,0)" xlink:href="#D"/><use transform="matrix(0.030864197530864182,0,0,0.030864197530864182,19.722222222222214,0)" xlink:href="#E"/><use transform="matrix(0.030864197530864182,0,0,0.030864197530864182,25.89506172839505,0)" xlink:href="#u"/><use transform="matrix(0.030864197530864182,0,0,0.030864197530864182,28.33333333333332,0)" xlink:href="#y"/></g><path fill="#3a414a" d="M30-248c118-7 216 8 213 122C240-48 200 0 122 0H30v-248zM63-27c89 8 146-16 146-99s-60-101-146-95v194" id="F"/><g id="e"><use transform="matrix(0.030864197530864182,0,0,0.030864197530864182,0,0)" xlink:href="#F"/><use transform="matrix(0.030864197530864182,0,0,0.030864197530864182,7.993827160493823,0)" xlink:href="#o"/><use transform="matrix(0.030864197530864182,0,0,0.030864197530864182,14.16666666666666,0)" xlink:href="#A"/><use transform="matrix(0.030864197530864182,0,0,0.030864197530864182,19.722222222222214,0)" xlink:href="#B"/></g><g id="f"><use transform="matrix(0.06172839506172839,0,0,0.06172839506172839,0,0)" xlink:href="#F"/><use transform="matrix(0.06172839506172839,0,0,0.06172839506172839,15.987654320987653,0)" xlink:href="#t"/><use transform="matrix(0.06172839506172839,0,0,0.06172839506172839,28.333333333333332,0)" xlink:href="#y"/><use transform="matrix(0.06172839506172839,0,0,0.06172839506172839,34.50617283950617,0)" xlink:href="#t"/></g><path fill="#3a414a" d="M108 0H70L1-190h34L89-25l56-165h34" id="G"/><g id="g"><use transform="matrix(0.06172839506172839,0,0,0.06172839506172839,0,0)" xlink:href="#v"/><use transform="matrix(0.06172839506172839,0,0,0.06172839506172839,15.987654320987653,0)" xlink:href="#r"/><use transform="matrix(0.06172839506172839,0,0,0.06172839506172839,28.333333333333332,0)" xlink:href="#x"/><use transform="matrix(0.06172839506172839,0,0,0.06172839506172839,40.67901234567901,0)" xlink:href="#G"/><use transform="matrix(0.06172839506172839,0,0,0.06172839506172839,51.79012345679013,0)" xlink:href="#o"/><use transform="matrix(0.06172839506172839,0,0,0.06172839506172839,64.13580246913581,0)" xlink:href="#s"/><use transform="matrix(0.06172839506172839,0,0,0.06172839506172839,71.4814814814815,0)" xlink:href="#y"/><use transform="matrix(0.06172839506172839,0,0,0.06172839506172839,77.65432098765433,0)" xlink:href="#o"/><use transform="matrix(0.06172839506172839,0,0,0.06172839506172839,90.00000000000001,0)" xlink:href="#s"/></g><path fill="#3a414a" d="M85-194c31 0 48 13 60 33l-1-100h32l1 261h-30c-2-10 0-23-3-31C134-8 116 4 85 4 32 4 16-35 15-94c0-66 23-100 70-100zm9 24c-40 0-46 34-46 75 0 40 6 74 45 74 42 0 51-32 51-76 0-42-9-74-50-73" id="H"/><g id="h"><use transform="matrix(0.06172839506172839,0,0,0.06172839506172839,0,0)" xlink:href="#v"/><use transform="matrix(0.06172839506172839,0,0,0.06172839506172839,15.987654320987653,0)" xlink:href="#r"/><use transform="matrix(0.06172839506172839,0,0,0.06172839506172839,28.333333333333332,0)" xlink:href="#H"/><use transform="matrix(0.06172839506172839,0,0,0.06172839506172839,40.67901234567901,0)" xlink:href="#o"/><use transform="matrix(0.06172839506172839,0,0,0.06172839506172839,53.02469135802469,0)" xlink:href="#A"/></g><path fill="#3a414a" d="M185-189c-5-48-123-54-124 2 14 75 158 14 163 119 3 78-121 87-175 55-17-10-28-26-33-46l33-7c5 56 141 63 141-1 0-78-155-14-162-118-5-82 145-84 179-34 5 7 8 16 11 25" id="I"/><g id="i"><use transform="matrix(0.06172839506172839,0,0,0.06172839506172839,0,0)" xlink:href="#I"/><use transform="matrix(0.06172839506172839,0,0,0.06172839506172839,14.814814814814813,0)" xlink:href="#o"/><use transform="matrix(0.06172839506172839,0,0,0.06172839506172839,27.160493827160494,0)" xlink:href="#s"/><use transform="matrix(0.06172839506172839,0,0,0.06172839506172839,34.50617283950617,0)" xlink:href="#G"/><use transform="matrix(0.06172839506172839,0,0,0.06172839506172839,45.61728395061728,0)" xlink:href="#o"/><use transform="matrix(0.06172839506172839,0,0,0.06172839506172839,57.962962962962955,0)" xlink:href="#s"/></g><path fill="#3a414a" d="M145-31C134-9 116 4 85 4 32 4 16-35 15-94c0-59 17-99 70-100 32-1 48 14 60 33 0-11-1-24 2-32h30l-1 268h-32zM93-21c41 0 51-33 51-76s-8-73-50-73c-40 0-46 35-46 75s5 74 45 74" id="J"/><g id="j"><use transform="matrix(0.030864197530864182,0,0,0.030864197530864182,0,0)" xlink:href="#C"/><use transform="matrix(0.030864197530864182,0,0,0.030864197530864182,7.993827160493823,0)" xlink:href="#o"/><use transform="matrix(0.030864197530864182,0,0,0.030864197530864182,14.16666666666666,0)" xlink:href="#J"/><use transform="matrix(0.030864197530864182,0,0,0.030864197530864182,20.3395061728395,0)" xlink:href="#E"/><use transform="matrix(0.030864197530864182,0,0,0.030864197530864182,26.512345679012334,0)" xlink:href="#o"/><use transform="matrix(0.030864197530864182,0,0,0.030864197530864182,32.68518518518517,0)" xlink:href="#D"/><use transform="matrix(0.030864197530864182,0,0,0.030864197530864182,38.24074074074072,0)" xlink:href="#y"/></g><path fill="#3a414a" d="M194 0L95-120 63-95V0H30v-248h33v124l119-124h40L117-140 236 0h-42" id="K"/><path fill="#3a414a" d="M179-190L93 31C79 59 56 82 12 73V49c39 6 53-20 64-50L1-190h34L92-34l54-156h33" id="L"/><g id="k"><use transform="matrix(0.06172839506172839,0,0,0.06172839506172839,0,0)" xlink:href="#K"/><use transform="matrix(0.06172839506172839,0,0,0.06172839506172839,14.814814814814813,0)" xlink:href="#o"/><use transform="matrix(0.06172839506172839,0,0,0.06172839506172839,27.160493827160494,0)" xlink:href="#L"/><use transform="matrix(0.06172839506172839,0,0,0.06172839506172839,38.27160493827161,0)" xlink:href="#D"/></g><g id="l"><use transform="matrix(0.06172839506172839,0,0,0.06172839506172839,0,0)" xlink:href="#v"/><use transform="matrix(0.06172839506172839,0,0,0.06172839506172839,15.987654320987653,0)" xlink:href="#u"/><use transform="matrix(0.06172839506172839,0,0,0.06172839506172839,20.864197530864196,0)" xlink:href="#E"/><use transform="matrix(0.06172839506172839,0,0,0.06172839506172839,33.20987654320987,0)" xlink:href="#D"/><use transform="matrix(0.06172839506172839,0,0,0.06172839506172839,44.32098765432099,0)" xlink:href="#y"/><use transform="matrix(0.06172839506172839,0,0,0.06172839506172839,50.49382716049383,0)" xlink:href="#o"/><use transform="matrix(0.06172839506172839,0,0,0.06172839506172839,62.839506172839506,0)" xlink:href="#s"/></g><g id="m"><use transform="matrix(0.06172839506172839,0,0,0.06172839506172839,0,0)" xlink:href="#z"/><use transform="matrix(0.06172839506172839,0,0,0.06172839506172839,14.814814814814813,0)" xlink:href="#x"/><use transform="matrix(0.06172839506172839,0,0,0.06172839506172839,27.160493827160494,0)" xlink:href="#A"/><use transform="matrix(0.06172839506172839,0,0,0.06172839506172839,38.27160493827161,0)" xlink:href="#s"/><use transform="matrix(0.06172839506172839,0,0,0.06172839506172839,45.617283950617285,0)" xlink:href="#L"/><use transform="matrix(0.06172839506172839,0,0,0.06172839506172839,56.72839506172839,0)" xlink:href="#q"/><use transform="matrix(0.06172839506172839,0,0,0.06172839506172839,69.07407407407408,0)" xlink:href="#y"/><use transform="matrix(0.06172839506172839,0,0,0.06172839506172839,75.24691358024691,0)" xlink:href="#w"/><use transform="matrix(0.06172839506172839,0,0,0.06172839506172839,80.12345679012346,0)" xlink:href="#r"/><use transform="matrix(0.06172839506172839,0,0,0.06172839506172839,92.46913580246914,0)" xlink:href="#x"/></g></defs></g></svg>