<svg xmlns="http://www.w3.org/2000/svg" xmlns:xlink="http://www.w3.org/1999/xlink" version="1.1" viewBox="0 0 1704 2720" style="background: #ffffff"><g id="v-3"  transform="matrix(1,0,0,1,0,0)"><g id="j_16"    transform="translate(20,2675)"><g id="v-294"><text  id="v-295" font-size="22px" y="0.8em" xml:space="preserve" font-weight="normal" text-anchor="start" fill="#aaaaaa" pointer-events="none" font-family="Open Sans" transform="matrix(1,0,0,1,0,0)" display="none"><tspan id="v-296"  dy="0em" x="0">Friday, June 24, 2022, 11:02 AM Central Daylight Time</tspan></text></g></g><g id="j_15"    transform="translate(20,2629)"><g id="v-290"><text  id="v-291" font-size="36px" y="0.8em" xml:space="preserve" font-weight="normal" text-anchor="start" fill="#000000" pointer-events="none" font-family="Open Sans" transform="matrix(1,0,0,1,0,0)" display="none"><tspan id="v-292"  dy="0em" x="0">[Dynamic] Temporal Tools - Temporal Web UI</tspan></text></g></g><g id="j_1"    transform="translate(266,889)" style=""><g id="v-6"><rect  id="v-7" width="490" height="1063" rx="0" ry="0" fill="#ffffff" stroke="#3c7fc0" stroke-width="2" stroke-dasharray="20,20" pointer-events="none"></rect><text  id="v-8" font-size="24px" y="1024" xml:space="preserve" font-weight="normal" fill="#3c7fc0" x="10" text-anchor="start" pointer-events="visible" font-family="Open Sans" transform="matrix(1,0,0,1,15,0)"><tspan id="v-11"  dy="0em" x="0">Temporal Web UI</tspan></text><text  id="v-9" font-size="19px" y="1048" xml:space="preserve" font-weight="normal" fill="#3c7fc0" x="10" text-anchor="start" pointer-events="visible" font-family="Open Sans" transform="matrix(1,0,0,1,15,0)"><tspan id="v-12"  dy="0em" x="0">[Container]</tspan></text><image  id="v-10" pointer-events="visible"></image></g></g><g id="j_7"    transform="translate(266,2139)" style=""><g id="v-91"><rect  id="v-92" width="490" height="413" rx="0" ry="0" fill="#ffffff" stroke="#3c7fc0" stroke-width="2" stroke-dasharray="20,20" pointer-events="none"></rect><text  id="v-93" font-size="24px" y="374" xml:space="preserve" font-weight="normal" fill="#3c7fc0" x="10" text-anchor="start" pointer-events="visible" font-family="Open Sans" transform="matrix(1,0,0,1,15,0)"><tspan id="v-96"  dy="0em" x="0">Codec Server</tspan></text><text  id="v-94" font-size="19px" y="398" xml:space="preserve" font-weight="normal" fill="#3c7fc0" x="10" text-anchor="start" pointer-events="visible" font-family="Open Sans" transform="matrix(1,0,0,1,15,0)"><tspan id="v-97"  dy="0em" x="0">[Container]</tspan></text><image  id="v-95" pointer-events="visible"></image></g></g><g id="j_2"    transform="translate(286,259)" style="" ><g  id="v-14" style="opacity: 1;"><rect  id="v-15" rx="20" ry="20" stroke="#162021" stroke-width="2" pointer-events="visiblePainted" fill="#182325" width="450" height="300"></rect><text  id="v-16" font-size="34" y="0.8em" xml:space="preserve" font-weight="bold" text-anchor="middle" pointer-events="visible" font-family="Open Sans" fill="#ffffff" transform="matrix(1,0,0,1,225,116.9)"><tspan id="v-21"  dy="0em" x="0">Temporal Cluster</tspan></text><text  id="v-17" font-size="19" y="0.8em" xml:space="preserve" text-anchor="middle" font-family="Open Sans" fill="#ffffff" transform="matrix(1,0,0,1,225,159.4)"><tspan id="v-22"  dy="0em" x="0">[Software System]</tspan></text><text  id="v-18" font-size="24" y="0.8em" display="none" xml:space="preserve" text-anchor="middle" font-family="Open Sans" fill="#ffffff" transform="matrix(1,0,0,1,225,183.1)"><tspan id="v-23"  dy="0em" x="0" style="fill-opacity: 0; stroke-opacity: 0;">-</tspan></text><text  id="v-19" font-weight="bold" text-anchor="middle" font-family="Open Sans" fill="#ffffff" font-size="24" transform="matrix(1,0,0,1,225,270)" y="0.8em" xml:space="preserve" display="none"><tspan id="v-24"  dy="0em" x="0">+</tspan></text><image  id="v-20"></image></g></g><g id="j_3"    transform="translate(1130,1110)" style=""><g  id="v-26" style="opacity: 1;"><rect  x="0" y="160" width="400" height="240" rx="70" id="v-28" stroke="#073b6f" stroke-width="2" pointer-events="visiblePainted" fill="#08427b"></rect><circle  cx="200" cy="88.88888888888889" r="88.88888888888889" id="v-27" stroke="#073b6f" stroke-width="2" pointer-events="visiblePainted" fill="#08427b"></circle><line  x1="80" y1="266.6666666666667" x2="80" y2="400" style="stroke-width:2px" id="v-34" stroke="#073b6f"></line><line  x1="320" y1="266.6666666666667" x2="320" y2="400" style="stroke-width:2px" id="v-35" stroke="#073b6f"></line><text  id="v-29" font-size="34px" y="0.8em" xml:space="preserve" font-weight="bold" text-anchor="middle" pointer-events="visible" font-family="Open Sans" fill="#ffffff" transform="matrix(1,0,0,1,200,246.9)"><tspan id="v-36"  dy="0em" x="0">Developer</tspan></text><text  id="v-30" font-size="19px" y="0.8em" xml:space="preserve" text-anchor="middle" font-family="Open Sans" fill="#ffffff" transform="matrix(1,0,0,1,200,289.4)"><tspan id="v-37"  dy="0em" x="0">[Person]</tspan></text><text  id="v-31" font-size="24px" y="0.8em" display="none" xml:space="preserve" text-anchor="middle" font-family="Open Sans" fill="#ffffff" transform="matrix(1,0,0,1,200,313.1)"><tspan id="v-38"  dy="0em" x="0" style="fill-opacity: 0; stroke-opacity: 0;">-</tspan></text><text  id="v-32" font-weight="bold" text-anchor="middle" font-family="Open Sans" fill="#ffffff" font-size="24" transform="matrix(1,0,0,1,200,371.2)" display="none"></text><image  id="v-33"></image></g></g><g id="j_4"    transform="translate(286,1559)" style=""><g  id="v-42" style="opacity: 1;"><rect  id="v-43" rx="10" ry="10" stroke="#78a8d8" stroke-width="2" pointer-events="visiblePainted" fill="#78a8d8" width="450" height="300"></rect><rect  id="v-44" rx="10" ry="10" stroke="#78a8d8" stroke-width="0" pointer-events="visiblePainted" fill="#85bbf0" width="430" height="250" x="10" y="40"></rect><ellipse  id="v-51" fill="#85bbf0" cx="20" cy="20" rx="10" ry="10"></ellipse><ellipse  id="v-52" fill="#85bbf0" cx="50" cy="20" rx="10" ry="10"></ellipse><ellipse  id="v-53" fill="#85bbf0" cx="80" cy="20" rx="10" ry="10"></ellipse><rect  id="v-45" rx="10" ry="10" stroke="#444444" stroke-width="0" pointer-events="visiblePainted" fill="#85bbf0" width="340" height="20" x="100" y="10"></rect><text  id="v-46" font-size="34" y="0.8em" xml:space="preserve" font-weight="bold" text-anchor="middle" pointer-events="visible" font-family="Open Sans" fill="#000000" transform="matrix(1,0,0,1,225,136.9)"><tspan id="v-54"  dy="0em" x="0">Temporal Web Client</tspan></text><text  id="v-47" font-size="19" y="0.8em" xml:space="preserve" text-anchor="middle" font-family="Open Sans" fill="#000000" transform="matrix(1,0,0,1,225,179.4)"><tspan id="v-55"  dy="0em" x="0">[Component: JavaScript,HTTPS]</tspan></text><text  id="v-48" font-size="24" y="0.8em" display="none" xml:space="preserve" text-anchor="middle" font-family="Open Sans" fill="#000000" transform="matrix(1,0,0,1,225,203.1)"><tspan id="v-56"  dy="0em" x="0" style="fill-opacity: 0; stroke-opacity: 0;">-</tspan></text><text  id="v-49" font-weight="bold" text-anchor="middle" font-family="Open Sans" fill="#000000" font-size="24" transform="matrix(1,0,0,1,225,270)" display="none"></text><image  id="v-50"></image></g></g><g id="j_5"    transform="translate(286,909)" style=""><g  id="v-62" style="opacity: 1;"><rect  id="v-63" rx="20" ry="20" stroke="#78a8d8" stroke-width="2" pointer-events="visiblePainted" fill="#85bbf0" width="450" height="300"></rect><text  id="v-64" font-size="34" y="0.8em" xml:space="preserve" font-weight="bold" text-anchor="middle" pointer-events="visible" font-family="Open Sans" fill="#000000" transform="matrix(1,0,0,1,225,45)"><tspan id="v-69"  dy="0em" x="0">Temporal Web Server</tspan></text><text  id="v-65" font-size="19" y="0.8em" xml:space="preserve" text-anchor="middle" font-family="Open Sans" fill="#000000" transform="matrix(1,0,0,1,225,87.5)"><tspan id="v-70"  dy="0em" x="0">[Component: HTTPS,GRPC]</tspan></text><text  id="v-66" font-size="24" y="0.8em" xml:space="preserve" text-anchor="middle" font-family="Open Sans" fill="#000000" transform="matrix(1,0,0,1,225,135)"><tspan id="v-71"  dy="0em" x="0">Delivers Temporal Web Client to the</tspan><tspan id="v-72"  dy="1.2em" x="0">browser. Provides API for Temporal</tspan><tspan id="v-73"  dy="1.2em" x="0">Web Client to communicate with</tspan><tspan id="v-74"  dy="1.2em" x="0">Temporal</tspan></text><text  id="v-67" font-weight="bold" text-anchor="middle" font-family="Open Sans" fill="#000000" font-size="24" transform="matrix(1,0,0,1,225,270)" display="none"></text><image  id="v-68"></image></g></g><g id="j_6"    transform="translate(286,2159)" style=""><g  id="v-80" style="opacity: 1;"><rect  id="v-81" rx="20" ry="20" stroke="#78a8d8" stroke-width="2" pointer-events="visiblePainted" fill="#85bbf0" width="450" height="300"></rect><text  id="v-82" font-size="34" y="0.8em" xml:space="preserve" font-weight="bold" text-anchor="middle" pointer-events="visible" font-family="Open Sans" fill="#000000" transform="matrix(1,0,0,1,225,90)"><tspan id="v-87"  dy="0em" x="0">Codec Server HTTP API</tspan></text><text  id="v-83" font-size="19" y="0.8em" xml:space="preserve" text-anchor="middle" font-family="Open Sans" fill="#000000" transform="matrix(1,0,0,1,225,132.5)"><tspan id="v-88"  dy="0em" x="0">[Component]</tspan></text><text  id="v-84" font-size="24" y="0.8em" xml:space="preserve" text-anchor="middle" font-family="Open Sans" fill="#000000" transform="matrix(1,0,0,1,225,180)"><tspan id="v-89"  dy="0em" x="0">Provides encode/decode endpoints.</tspan></text><text  id="v-85" font-weight="bold" text-anchor="middle" font-family="Open Sans" fill="#000000" font-size="24" transform="matrix(1,0,0,1,225,270)" display="none"></text><image  id="v-86"></image></g></g><g id="j_8"   ><path  stroke="#707070" id="v-119" stroke-width="2" stroke-dasharray="30 30" fill="none" d="M 1130 1337 965 1359 S 955 1360 947 1366 L 718 1547"></path><path  fill="black" stroke="black" transform="translate(1130,1337) scale(1,1) rotate(-187.4873809814453)"></path><path  fill="#707070" stroke="#707070" id="v-121" d="M 20 0 L 0 10 L 20 20 z" transform="translate(695.8176453464132,1551.140009199019) scale(1,1) rotate(-38.187217712402344)"></path><path  id="v-120" fill="none" d="M 1130 1337 965 1359 S 955 1360 947 1366 L 718 1547" style=""></path><title ></title><g ><g  id="v-106" label-idx="0" cursor="move" transform="translate(905.45166015625, 1398.8394775390625)"><rect id="v-108" fill="#ffffff" rx="3" ry="3" stroke="#ffffff" stroke-width="20px" pointer-events="none" width="164.74856567382812" height="60.06436538696289" transform="matrix(1,0,0,1,-82.4,-30)"></rect><text id="v-107" font-size="24px" y="0.8em" xml:space="preserve" text-anchor="middle" pointer-events="none" fill="#707070" font-family="Open Sans" font-weight="normal" transform="matrix(1,0,0,1,0,-24.2)"><tspan id="v-109"  dy="0em" x="0">1: Navigates to</tspan><tspan id="v-110"  dy="1.2em" x="0">workflow page</tspan></text></g><g  id="v-111" label-idx="1" cursor="move" transform="translate(905.45166015625, 1442.0394775390625)"><rect id="v-113" fill="#ffffff" rx="3" ry="3" pointer-events="none" width="69.19683837890625" height="26.574711799621582" transform="matrix(1,0,0,1,-34.6,-13.3)"></rect><text id="v-112" font-size="19px" y="0.8em" xml:space="preserve" text-anchor="middle" pointer-events="none" fill="#707070" font-family="Open Sans" font-weight="normal" transform="matrix(1,0,0,1,0,-8.2)"><tspan id="v-114"  dy="0em" x="0">[HTTPS]</tspan></text></g><g  id="v-115" label-idx="2" cursor="move" transform="translate(905.45166015625, 1466.0394775390625)"><rect id="v-117" fill="#ffffff" rx="3" ry="3" pointer-events="none"  display="none" width="0" height="0" transform="matrix(1,0,0,1,0,0)"></rect><text id="v-116" font-size="19px" y="0.8em" display="none" xml:space="preserve" text-anchor="middle" pointer-events="none" fill="#707070" font-family="Open Sans" font-weight="normal"  transform="matrix(1,0,0,1,0,0)"><tspan id="v-118"  dy="0em" x="0" style="fill-opacity: 0; stroke-opacity: 0;">-</tspan></text></g></g><g  display="none"><g  transform="translate(955, 1360)" id="v-102"><circle  idx="0" r="10"></circle><path  idx="0" d="M16,5.333c-7.732,0-14,4.701-14,10.5c0,1.982,0.741,3.833,2.016,5.414L2,25.667l5.613-1.441c2.339,1.317,5.237,2.107,8.387,2.107c7.732,0,14-4.701,14-10.5C30,10.034,23.732,5.333,16,5.333z" transform="translate(5, -33)"></path><path  idx="0" transform="scale(.8) translate(9.5, -37)" d="M24.778,21.419 19.276,15.917 24.777,10.415 21.949,7.585 16.447,13.087 10.945,7.585 8.117,10.415 13.618,15.917 8.116,21.419 10.946,24.248 16.447,18.746 21.948,24.248z"><title>Remove vertex.</title></path></g></g><g  id="v-123" display="none"><g  id="v-103"><path  end="source" d="M 26 0 L 0 13 L 26 26 z"></path></g><g  id="v-104"><path  end="target" d="M 26 0 L 0 13 L 26 26 z"></path></g></g><g  id="v-122" display="none"><g  id="v-101" transform="translate(1090.350830078125, 1342.2864990234375) "><g  event="remove"><circle r="11"></circle><path transform="scale(.8) translate(-16, -16)" d="M24.778,21.419 19.276,15.917 24.777,10.415 21.949,7.585 16.447,13.087 10.945,7.585 8.117,10.415 13.618,15.917 8.116,21.419 10.946,24.248 16.447,18.746 21.948,24.248z"></path><title>Remove link.</title></g><g  event="link:options"><circle r="11" transform="translate(25)"></circle><path fill="white" transform="scale(.55) translate(29, -16)" d="M31.229,17.736c0.064-0.571,0.104-1.148,0.104-1.736s-0.04-1.166-0.104-1.737l-4.377-1.557c-0.218-0.716-0.504-1.401-0.851-2.05l1.993-4.192c-0.725-0.91-1.549-1.734-2.458-2.459l-4.193,1.994c-0.647-0.347-1.334-0.632-2.049-0.849l-1.558-4.378C17.165,0.708,16.588,0.667,16,0.667s-1.166,0.041-1.737,0.105L12.707,5.15c-0.716,0.217-1.401,0.502-2.05,0.849L6.464,4.005C5.554,4.73,4.73,5.554,4.005,6.464l1.994,4.192c-0.347,0.648-0.632,1.334-0.849,2.05l-4.378,1.557C0.708,14.834,0.667,15.412,0.667,16s0.041,1.165,0.105,1.736l4.378,1.558c0.217,0.715,0.502,1.401,0.849,2.049l-1.994,4.193c0.725,0.909,1.549,1.733,2.459,2.458l4.192-1.993c0.648,0.347,1.334,0.633,2.05,0.851l1.557,4.377c0.571,0.064,1.148,0.104,1.737,0.104c0.588,0,1.165-0.04,1.736-0.104l1.558-4.377c0.715-0.218,1.399-0.504,2.049-0.851l4.193,1.993c0.909-0.725,1.733-1.549,2.458-2.458l-1.993-4.193c0.347-0.647,0.633-1.334,0.851-2.049L31.229,17.736zM16,20.871c-2.69,0-4.872-2.182-4.872-4.871c0-2.69,2.182-4.872,4.872-4.872c2.689,0,4.871,2.182,4.871,4.872C20.871,18.689,18.689,20.871,16,20.871z"></path><title>Link options.</title></g></g></g></g><g id="j_9"   ><path  stroke="#707070" id="v-146" stroke-width="2" stroke-dasharray="30 30" fill="none" d="M 580 1559 657 1393 S 661 1384 657 1375 L 588 1227"></path><path  fill="black" stroke="black" transform="translate(580,1559) scale(1,1) rotate(-65.16260528564453)"></path><path  fill="#707070" stroke="#707070" id="v-148" d="M 20 0 L 0 10 L 20 20 z" transform="translate(589.0750282985765,1204.7995927014388) scale(1,1) rotate(65.16259765625)"></path><path  id="v-147" fill="none" d="M 580 1559 657 1393 S 661 1384 657 1375 L 588 1227" style=""></path><title ></title><g ><g  id="v-132" label-idx="0" cursor="move" transform="translate(656.7423095703125, 1393.5555419921875)"><rect id="v-134" fill="#ffffff" rx="3" ry="3" stroke="#ffffff" stroke-width="20px" pointer-events="none" width="194.37643432617188" height="88.86436462402344" transform="matrix(1,0,0,1,-97.2,-44.4)"></rect><text id="v-133" font-size="24px" y="0.8em" xml:space="preserve" text-anchor="middle" pointer-events="none" fill="#707070" font-family="Open Sans" font-weight="normal" transform="matrix(1,0,0,1,0,-38.6)"><tspan id="v-135"  dy="0em" x="0">2: Makes API call</tspan><tspan id="v-136"  dy="1.2em" x="0">to fetch workflow</tspan><tspan id="v-137"  dy="1.2em" x="0">history from</tspan></text></g><g  id="v-138" label-idx="1" cursor="move" transform="translate(656.7423095703125, 1451.1555419921874)"><rect id="v-140" fill="#ffffff" rx="3" ry="3" pointer-events="none" width="69.19683837890625" height="26.574711799621582" transform="matrix(1,0,0,1,-34.6,-13.3)"></rect><text id="v-139" font-size="19px" y="0.8em" xml:space="preserve" text-anchor="middle" pointer-events="none" fill="#707070" font-family="Open Sans" font-weight="normal" transform="matrix(1,0,0,1,0,-8.2)"><tspan id="v-141"  dy="0em" x="0">[HTTPS]</tspan></text></g><g  id="v-142" label-idx="2" cursor="move" transform="translate(656.7423095703125, 1475.1555419921874)"><rect id="v-144" fill="#ffffff" rx="3" ry="3" pointer-events="none"  display="none" width="0" height="0" transform="matrix(1,0,0,1,0,0)"></rect><text id="v-143" font-size="19px" y="0.8em" display="none" xml:space="preserve" text-anchor="middle" pointer-events="none" fill="#707070" font-family="Open Sans" font-weight="normal"  transform="matrix(1,0,0,1,0,0)"><tspan id="v-145"  dy="0em" x="0" style="fill-opacity: 0; stroke-opacity: 0;">-</tspan></text></g></g><g  display="none"><g  transform="translate(661, 1384)" id="v-128"><circle  idx="0" r="10"></circle><path  idx="0" d="M16,5.333c-7.732,0-14,4.701-14,10.5c0,1.982,0.741,3.833,2.016,5.414L2,25.667l5.613-1.441c2.339,1.317,5.237,2.107,8.387,2.107c7.732,0,14-4.701,14-10.5C30,10.034,23.732,5.333,16,5.333z" transform="translate(5, -33)"></path><path  idx="0" transform="scale(.8) translate(9.5, -37)" d="M24.778,21.419 19.276,15.917 24.777,10.415 21.949,7.585 16.447,13.087 10.945,7.585 8.117,10.415 13.618,15.917 8.116,21.419 10.946,24.248 16.447,18.746 21.948,24.248z"><title>Remove vertex.</title></path></g></g><g  id="v-150" display="none"><g  id="v-129"><path  end="source" d="M 26 0 L 0 13 L 26 26 z"></path></g><g  id="v-130"><path  end="target" d="M 26 0 L 0 13 L 26 26 z"></path></g></g><g  id="v-149" display="none"><g  id="v-127" transform="translate(596.8316040039062, 1522.713623046875) "><g  event="remove"><circle r="11"></circle><path transform="scale(.8) translate(-16, -16)" d="M24.778,21.419 19.276,15.917 24.777,10.415 21.949,7.585 16.447,13.087 10.945,7.585 8.117,10.415 13.618,15.917 8.116,21.419 10.946,24.248 16.447,18.746 21.948,24.248z"></path><title>Remove link.</title></g><g  event="link:options"><circle r="11" transform="translate(25)"></circle><path fill="white" transform="scale(.55) translate(29, -16)" d="M31.229,17.736c0.064-0.571,0.104-1.148,0.104-1.736s-0.04-1.166-0.104-1.737l-4.377-1.557c-0.218-0.716-0.504-1.401-0.851-2.05l1.993-4.192c-0.725-0.91-1.549-1.734-2.458-2.459l-4.193,1.994c-0.647-0.347-1.334-0.632-2.049-0.849l-1.558-4.378C17.165,0.708,16.588,0.667,16,0.667s-1.166,0.041-1.737,0.105L12.707,5.15c-0.716,0.217-1.401,0.502-2.05,0.849L6.464,4.005C5.554,4.73,4.73,5.554,4.005,6.464l1.994,4.192c-0.347,0.648-0.632,1.334-0.849,2.05l-4.378,1.557C0.708,14.834,0.667,15.412,0.667,16s0.041,1.165,0.105,1.736l4.378,1.558c0.217,0.715,0.502,1.401,0.849,2.049l-1.994,4.193c0.725,0.909,1.549,1.733,2.459,2.458l4.192-1.993c0.648,0.347,1.334,0.633,2.05,0.851l1.557,4.377c0.571,0.064,1.148,0.104,1.737,0.104c0.588,0,1.165-0.04,1.736-0.104l1.558-4.377c0.715-0.218,1.399-0.504,2.049-0.851l4.193,1.993c0.909-0.725,1.733-1.549,2.458-2.458l-1.993-4.193c0.347-0.647,0.633-1.334,0.851-2.049L31.229,17.736zM16,20.871c-2.69,0-4.872-2.182-4.872-4.871c0-2.69,2.182-4.872,4.872-4.872c2.689,0,4.871,2.182,4.871,4.872C20.871,18.689,18.689,20.871,16,20.871z"></path><title>Link options.</title></g></g></g></g><g id="j_10"   ><path  stroke="#707070" id="v-172" stroke-width="2" stroke-dasharray="30 30" fill="none" d="M 511 909 511 579"></path><path  fill="black" stroke="black" transform="translate(511,909) scale(1,1) rotate(-90)"></path><path  fill="#707070" stroke="#707070" id="v-174" d="M 20 0 L 0 10 L 20 20 z" transform="translate(521,559) scale(1,1) rotate(-270)"></path><path  id="v-173" fill="none" d="M 511 909 511 579" style=""></path><title ></title><g ><g  id="v-158" label-idx="0" cursor="move" transform="translate(511, 744)"><rect id="v-160" fill="#ffffff" rx="3" ry="3" stroke="#ffffff" stroke-width="20px" pointer-events="none" width="185.87643432617188" height="88.86436462402344" transform="matrix(1,0,0,1,-92.9,-44.4)"></rect><text id="v-159" font-size="24px" y="0.8em" xml:space="preserve" text-anchor="middle" pointer-events="none" fill="#707070" font-family="Open Sans" font-weight="normal" transform="matrix(1,0,0,1,0,-38.6)"><tspan id="v-161"  dy="0em" x="0">3: Fetches</tspan><tspan id="v-162"  dy="1.2em" x="0">workflow history</tspan><tspan id="v-163"  dy="1.2em" x="0">from</tspan></text></g><g  id="v-164" label-idx="1" cursor="move" transform="translate(511, 801.6)"><rect id="v-166" fill="#ffffff" rx="3" ry="3" pointer-events="none" width="61.356319427490234" height="26.574711799621582" transform="matrix(1,0,0,1,-30.7,-13.3)"></rect><text id="v-165" font-size="19px" y="0.8em" xml:space="preserve" text-anchor="middle" pointer-events="none" fill="#707070" font-family="Open Sans" font-weight="normal" transform="matrix(1,0,0,1,0,-8.2)"><tspan id="v-167"  dy="0em" x="0">[GRPC]</tspan></text></g><g  id="v-168" label-idx="2" cursor="move" transform="translate(511, 825.6)"><rect id="v-170" fill="#ffffff" rx="3" ry="3" pointer-events="none"  display="none" width="0" height="0" transform="matrix(1,0,0,1,0,0)"></rect><text id="v-169" font-size="19px" y="0.8em" display="none" xml:space="preserve" text-anchor="middle" pointer-events="none" fill="#707070" font-family="Open Sans" font-weight="normal"  transform="matrix(1,0,0,1,0,0)"><tspan id="v-171"  dy="0em" x="0" style="fill-opacity: 0; stroke-opacity: 0;">-</tspan></text></g></g><g  display="none"></g><g  id="v-176" display="none"><g  id="v-155"><path  end="source" d="M 26 0 L 0 13 L 26 26 z"></path></g><g  id="v-156"><path  end="target" d="M 26 0 L 0 13 L 26 26 z"></path></g></g><g  id="v-175" display="none"><g  id="v-154" transform="translate(511, 869) "><g  event="remove"><circle r="11"></circle><path transform="scale(.8) translate(-16, -16)" d="M24.778,21.419 19.276,15.917 24.777,10.415 21.949,7.585 16.447,13.087 10.945,7.585 8.117,10.415 13.618,15.917 8.116,21.419 10.946,24.248 16.447,18.746 21.948,24.248z"></path><title>Remove link.</title></g><g  event="link:options"><circle r="11" transform="translate(25)"></circle><path fill="white" transform="scale(.55) translate(29, -16)" d="M31.229,17.736c0.064-0.571,0.104-1.148,0.104-1.736s-0.04-1.166-0.104-1.737l-4.377-1.557c-0.218-0.716-0.504-1.401-0.851-2.05l1.993-4.192c-0.725-0.91-1.549-1.734-2.458-2.459l-4.193,1.994c-0.647-0.347-1.334-0.632-2.049-0.849l-1.558-4.378C17.165,0.708,16.588,0.667,16,0.667s-1.166,0.041-1.737,0.105L12.707,5.15c-0.716,0.217-1.401,0.502-2.05,0.849L6.464,4.005C5.554,4.73,4.73,5.554,4.005,6.464l1.994,4.192c-0.347,0.648-0.632,1.334-0.849,2.05l-4.378,1.557C0.708,14.834,0.667,15.412,0.667,16s0.041,1.165,0.105,1.736l4.378,1.558c0.217,0.715,0.502,1.401,0.849,2.049l-1.994,4.193c0.725,0.909,1.549,1.733,2.459,2.458l4.192-1.993c0.648,0.347,1.334,0.633,2.05,0.851l1.557,4.377c0.571,0.064,1.148,0.104,1.737,0.104c0.588,0,1.165-0.04,1.736-0.104l1.558-4.377c0.715-0.218,1.399-0.504,2.049-0.851l4.193,1.993c0.909-0.725,1.733-1.549,2.458-2.458l-1.993-4.193c0.347-0.647,0.633-1.334,0.851-2.049L31.229,17.736zM16,20.871c-2.69,0-4.872-2.182-4.872-4.871c0-2.69,2.182-4.872,4.872-4.872c2.689,0,4.871,2.182,4.871,4.872C20.871,18.689,18.689,20.871,16,20.871z"></path><title>Link options.</title></g></g></g></g><g id="j_11"   ><path  stroke="#707070" id="v-198" stroke-width="2" stroke-dasharray="30 30" fill="none" d="M 442 1209 365 1375 S 361 1384 365 1393 L 434 1541"></path><path  fill="black" stroke="black" transform="translate(442,1209) scale(1,1) rotate(-245.16259765625)"></path><path  fill="#707070" stroke="#707070" id="v-200" d="M 20 0 L 0 10 L 20 20 z" transform="translate(432.9249699336864,1563.2004066494703) scale(1,1) rotate(-114.83739471435547)"></path><path  id="v-199" fill="none" d="M 442 1209 365 1375 S 361 1384 365 1393 L 434 1541" style=""></path><title ></title><g ><g  id="v-185" label-idx="0" cursor="move" transform="translate(365.2576599121094, 1374.4444580078125)"><rect id="v-187" fill="#ffffff" rx="3" ry="3" stroke="#ffffff" stroke-width="20px" pointer-events="none" width="185.87643432617188" height="60.06436538696289" transform="matrix(1,0,0,1,-92.9,-30)"></rect><text id="v-186" font-size="24px" y="0.8em" xml:space="preserve" text-anchor="middle" pointer-events="none" fill="#707070" font-family="Open Sans" font-weight="normal" transform="matrix(1,0,0,1,0,-24.2)"><tspan id="v-188"  dy="0em" x="0">4: Returns</tspan><tspan id="v-189"  dy="1.2em" x="0">workflow history</tspan></text></g><g  id="v-190" label-idx="1" cursor="move" transform="translate(365.2576599121094, 1417.6444580078125)"><rect id="v-192" fill="#ffffff" rx="3" ry="3" pointer-events="none" width="69.19683837890625" height="26.574711799621582" transform="matrix(1,0,0,1,-34.6,-13.3)"></rect><text id="v-191" font-size="19px" y="0.8em" xml:space="preserve" text-anchor="middle" pointer-events="none" fill="#707070" font-family="Open Sans" font-weight="normal" transform="matrix(1,0,0,1,0,-8.2)"><tspan id="v-193"  dy="0em" x="0">[HTTPS]</tspan></text></g><g  id="v-194" label-idx="2" cursor="move" transform="translate(365.2576599121094, 1441.6444580078125)"><rect id="v-196" fill="#ffffff" rx="3" ry="3" pointer-events="none"  display="none" width="0" height="0" transform="matrix(1,0,0,1,0,0)"></rect><text id="v-195" font-size="19px" y="0.8em" display="none" xml:space="preserve" text-anchor="middle" pointer-events="none" fill="#707070" font-family="Open Sans" font-weight="normal"  transform="matrix(1,0,0,1,0,0)"><tspan id="v-197"  dy="0em" x="0" style="fill-opacity: 0; stroke-opacity: 0;">-</tspan></text></g></g><g  display="none"><g  transform="translate(361, 1384)" id="v-181"><circle  idx="0" r="10"></circle><path  idx="0" d="M16,5.333c-7.732,0-14,4.701-14,10.5c0,1.982,0.741,3.833,2.016,5.414L2,25.667l5.613-1.441c2.339,1.317,5.237,2.107,8.387,2.107c7.732,0,14-4.701,14-10.5C30,10.034,23.732,5.333,16,5.333z" transform="translate(5, -33)"></path><path  idx="0" transform="scale(.8) translate(9.5, -37)" d="M24.778,21.419 19.276,15.917 24.777,10.415 21.949,7.585 16.447,13.087 10.945,7.585 8.117,10.415 13.618,15.917 8.116,21.419 10.946,24.248 16.447,18.746 21.948,24.248z"><title>Remove vertex.</title></path></g></g><g  id="v-202" display="none"><g  id="v-182"><path  end="source" d="M 26 0 L 0 13 L 26 26 z"></path></g><g  id="v-183"><path  end="target" d="M 26 0 L 0 13 L 26 26 z"></path></g></g><g  id="v-201" display="none"><g  id="v-180" transform="translate(425.16839599609375, 1245.286376953125) "><g  event="remove"><circle r="11"></circle><path transform="scale(.8) translate(-16, -16)" d="M24.778,21.419 19.276,15.917 24.777,10.415 21.949,7.585 16.447,13.087 10.945,7.585 8.117,10.415 13.618,15.917 8.116,21.419 10.946,24.248 16.447,18.746 21.948,24.248z"></path><title>Remove link.</title></g><g  event="link:options"><circle r="11" transform="translate(25)"></circle><path fill="white" transform="scale(.55) translate(29, -16)" d="M31.229,17.736c0.064-0.571,0.104-1.148,0.104-1.736s-0.04-1.166-0.104-1.737l-4.377-1.557c-0.218-0.716-0.504-1.401-0.851-2.05l1.993-4.192c-0.725-0.91-1.549-1.734-2.458-2.459l-4.193,1.994c-0.647-0.347-1.334-0.632-2.049-0.849l-1.558-4.378C17.165,0.708,16.588,0.667,16,0.667s-1.166,0.041-1.737,0.105L12.707,5.15c-0.716,0.217-1.401,0.502-2.05,0.849L6.464,4.005C5.554,4.73,4.73,5.554,4.005,6.464l1.994,4.192c-0.347,0.648-0.632,1.334-0.849,2.05l-4.378,1.557C0.708,14.834,0.667,15.412,0.667,16s0.041,1.165,0.105,1.736l4.378,1.558c0.217,0.715,0.502,1.401,0.849,2.049l-1.994,4.193c0.725,0.909,1.549,1.733,2.459,2.458l4.192-1.993c0.648,0.347,1.334,0.633,2.05,0.851l1.557,4.377c0.571,0.064,1.148,0.104,1.737,0.104c0.588,0,1.165-0.04,1.736-0.104l1.558-4.377c0.715-0.218,1.399-0.504,2.049-0.851l4.193,1.993c0.909-0.725,1.733-1.549,2.458-2.458l-1.993-4.193c0.347-0.647,0.633-1.334,0.851-2.049L31.229,17.736zM16,20.871c-2.69,0-4.872-2.182-4.872-4.871c0-2.69,2.182-4.872,4.872-4.872c2.689,0,4.871,2.182,4.871,4.872C20.871,18.689,18.689,20.871,16,20.871z"></path><title>Link options.</title></g></g></g></g><g id="j_12"   ><path  stroke="#707070" id="v-225" stroke-width="2" stroke-dasharray="30 30" fill="none" d="M 436 1859 365 2000 S 361 2009 365 2018 L 427 2141"></path><path  fill="black" stroke="black" transform="translate(436,1859) scale(1,1) rotate(-243.43495178222656)"></path><path  fill="#707070" stroke="#707070" id="v-227" d="M 20 0 L 0 10 L 20 20 z" transform="translate(427.0557259008763,2163.472071696515) scale(1,1) rotate(-116.56504821777344)"></path><path  id="v-226" fill="none" d="M 436 1859 365 2000 S 361 2009 365 2018 L 427 2141" style=""></path><title ></title><g ><g  id="v-211" label-idx="0" cursor="move" transform="translate(365.37200927734375, 1999.26123046875)"><rect id="v-213" fill="#ffffff" rx="3" ry="3" stroke="#ffffff" stroke-width="20px" pointer-events="none" width="196.91665649414062" height="88.86436462402344" transform="matrix(1,0,0,1,-98.5,-44.4)"></rect><text id="v-212" font-size="24px" y="0.8em" xml:space="preserve" text-anchor="middle" pointer-events="none" fill="#707070" font-family="Open Sans" font-weight="normal" transform="matrix(1,0,0,1,0,-38.6)"><tspan id="v-214"  dy="0em" x="0">5: Sends encoded</tspan><tspan id="v-215"  dy="1.2em" x="0">Payloads from</tspan><tspan id="v-216"  dy="1.2em" x="0">history to</tspan></text></g><g  id="v-217" label-idx="1" cursor="move" transform="translate(365.37200927734375, 2056.86123046875)"><rect id="v-219" fill="#ffffff" rx="3" ry="3" pointer-events="none" width="69.19683837890625" height="26.574711799621582" transform="matrix(1,0,0,1,-34.6,-13.3)"></rect><text id="v-218" font-size="19px" y="0.8em" xml:space="preserve" text-anchor="middle" pointer-events="none" fill="#707070" font-family="Open Sans" font-weight="normal" transform="matrix(1,0,0,1,0,-8.2)"><tspan id="v-220"  dy="0em" x="0">[HTTPS]</tspan></text></g><g  id="v-221" label-idx="2" cursor="move" transform="translate(365.37200927734375, 2080.86123046875)"><rect id="v-223" fill="#ffffff" rx="3" ry="3" pointer-events="none"  display="none" width="0" height="0" transform="matrix(1,0,0,1,0,0)"></rect><text id="v-222" font-size="19px" y="0.8em" display="none" xml:space="preserve" text-anchor="middle" pointer-events="none" fill="#707070" font-family="Open Sans" font-weight="normal"  transform="matrix(1,0,0,1,0,0)"><tspan id="v-224"  dy="0em" x="0" style="fill-opacity: 0; stroke-opacity: 0;">-</tspan></text></g></g><g  display="none"><g  transform="translate(361, 2009)" id="v-207"><circle  idx="0" r="10"></circle><path  idx="0" d="M16,5.333c-7.732,0-14,4.701-14,10.5c0,1.982,0.741,3.833,2.016,5.414L2,25.667l5.613-1.441c2.339,1.317,5.237,2.107,8.387,2.107c7.732,0,14-4.701,14-10.5C30,10.034,23.732,5.333,16,5.333z" transform="translate(5, -33)"></path><path  idx="0" transform="scale(.8) translate(9.5, -37)" d="M24.778,21.419 19.276,15.917 24.777,10.415 21.949,7.585 16.447,13.087 10.945,7.585 8.117,10.415 13.618,15.917 8.116,21.419 10.946,24.248 16.447,18.746 21.948,24.248z"><title>Remove vertex.</title></path></g></g><g  id="v-229" display="none"><g  id="v-208"><path  end="source" d="M 26 0 L 0 13 L 26 26 z"></path></g><g  id="v-209"><path  end="target" d="M 26 0 L 0 13 L 26 26 z"></path></g></g><g  id="v-228" display="none"><g  id="v-206" transform="translate(418.0101623535156, 1894.726318359375) "><g  event="remove"><circle r="11"></circle><path transform="scale(.8) translate(-16, -16)" d="M24.778,21.419 19.276,15.917 24.777,10.415 21.949,7.585 16.447,13.087 10.945,7.585 8.117,10.415 13.618,15.917 8.116,21.419 10.946,24.248 16.447,18.746 21.948,24.248z"></path><title>Remove link.</title></g><g  event="link:options"><circle r="11" transform="translate(25)"></circle><path fill="white" transform="scale(.55) translate(29, -16)" d="M31.229,17.736c0.064-0.571,0.104-1.148,0.104-1.736s-0.04-1.166-0.104-1.737l-4.377-1.557c-0.218-0.716-0.504-1.401-0.851-2.05l1.993-4.192c-0.725-0.91-1.549-1.734-2.458-2.459l-4.193,1.994c-0.647-0.347-1.334-0.632-2.049-0.849l-1.558-4.378C17.165,0.708,16.588,0.667,16,0.667s-1.166,0.041-1.737,0.105L12.707,5.15c-0.716,0.217-1.401,0.502-2.05,0.849L6.464,4.005C5.554,4.73,4.73,5.554,4.005,6.464l1.994,4.192c-0.347,0.648-0.632,1.334-0.849,2.05l-4.378,1.557C0.708,14.834,0.667,15.412,0.667,16s0.041,1.165,0.105,1.736l4.378,1.558c0.217,0.715,0.502,1.401,0.849,2.049l-1.994,4.193c0.725,0.909,1.549,1.733,2.459,2.458l4.192-1.993c0.648,0.347,1.334,0.633,2.05,0.851l1.557,4.377c0.571,0.064,1.148,0.104,1.737,0.104c0.588,0,1.165-0.04,1.736-0.104l1.558-4.377c0.715-0.218,1.399-0.504,2.049-0.851l4.193,1.993c0.909-0.725,1.733-1.549,2.458-2.458l-1.993-4.193c0.347-0.647,0.633-1.334,0.851-2.049L31.229,17.736zM16,20.871c-2.69,0-4.872-2.182-4.872-4.871c0-2.69,2.182-4.872,4.872-4.872c2.689,0,4.871,2.182,4.871,4.872C20.871,18.689,18.689,20.871,16,20.871z"></path><title>Link options.</title></g></g></g></g><g id="j_13"   ><path  stroke="#707070" id="v-252" stroke-width="2" stroke-dasharray="30 30" fill="none" d="M 586 2159 657 2018 S 661 2009 657 2000 L 595 1877"></path><path  fill="black" stroke="black" transform="translate(586,2159) scale(1,1) rotate(-63.43494796752929)"></path><path  fill="#707070" stroke="#707070" id="v-254" d="M 20 0 L 0 10 L 20 20 z" transform="translate(594.9442400085399,1854.5278050421714) scale(1,1) rotate(63.4349365234375)"></path><path  id="v-253" fill="none" d="M 586 2159 657 2018 S 661 2009 657 2000 L 595 1877" style=""></path><title ></title><g ><g  id="v-238" label-idx="0" cursor="move" transform="translate(656.6279907226562, 2018.73876953125)"><rect id="v-240" fill="#ffffff" rx="3" ry="3" stroke="#ffffff" stroke-width="20px" pointer-events="none" width="113.77298736572266" height="88.86436462402344" transform="matrix(1,0,0,1,-56.9,-44.4)"></rect><text id="v-239" font-size="24px" y="0.8em" xml:space="preserve" text-anchor="middle" pointer-events="none" fill="#707070" font-family="Open Sans" font-weight="normal" transform="matrix(1,0,0,1,0,-38.6)"><tspan id="v-241"  dy="0em" x="0">6: Returns</tspan><tspan id="v-242"  dy="1.2em" x="0">decoded</tspan><tspan id="v-243"  dy="1.2em" x="0">Payloads</tspan></text></g><g  id="v-244" label-idx="1" cursor="move" transform="translate(656.6279907226562, 2076.33876953125)"><rect id="v-246" fill="#ffffff" rx="3" ry="3" pointer-events="none" width="69.19683837890625" height="26.574711799621582" transform="matrix(1,0,0,1,-34.6,-13.3)"></rect><text id="v-245" font-size="19px" y="0.8em" xml:space="preserve" text-anchor="middle" pointer-events="none" fill="#707070" font-family="Open Sans" font-weight="normal" transform="matrix(1,0,0,1,0,-8.2)"><tspan id="v-247"  dy="0em" x="0">[HTTPS]</tspan></text></g><g  id="v-248" label-idx="2" cursor="move" transform="translate(656.6279907226562, 2100.33876953125)"><rect id="v-250" fill="#ffffff" rx="3" ry="3" pointer-events="none"  display="none" width="0" height="0" transform="matrix(1,0,0,1,0,0)"></rect><text id="v-249" font-size="19px" y="0.8em" display="none" xml:space="preserve" text-anchor="middle" pointer-events="none" fill="#707070" font-family="Open Sans" font-weight="normal"  transform="matrix(1,0,0,1,0,0)"><tspan id="v-251"  dy="0em" x="0" style="fill-opacity: 0; stroke-opacity: 0;">-</tspan></text></g></g><g  display="none"><g  transform="translate(661, 2009)" id="v-234"><circle  idx="0" r="10"></circle><path  idx="0" d="M16,5.333c-7.732,0-14,4.701-14,10.5c0,1.982,0.741,3.833,2.016,5.414L2,25.667l5.613-1.441c2.339,1.317,5.237,2.107,8.387,2.107c7.732,0,14-4.701,14-10.5C30,10.034,23.732,5.333,16,5.333z" transform="translate(5, -33)"></path><path  idx="0" transform="scale(.8) translate(9.5, -37)" d="M24.778,21.419 19.276,15.917 24.777,10.415 21.949,7.585 16.447,13.087 10.945,7.585 8.117,10.415 13.618,15.917 8.116,21.419 10.946,24.248 16.447,18.746 21.948,24.248z"><title>Remove vertex.</title></path></g></g><g  id="v-256" display="none"><g  id="v-235"><path  end="source" d="M 26 0 L 0 13 L 26 26 z"></path></g><g  id="v-236"><path  end="target" d="M 26 0 L 0 13 L 26 26 z"></path></g></g><g  id="v-255" display="none"><g  id="v-233" transform="translate(603.9898071289062, 2123.273681640625) "><g  event="remove"><circle r="11"></circle><path transform="scale(.8) translate(-16, -16)" d="M24.778,21.419 19.276,15.917 24.777,10.415 21.949,7.585 16.447,13.087 10.945,7.585 8.117,10.415 13.618,15.917 8.116,21.419 10.946,24.248 16.447,18.746 21.948,24.248z"></path><title>Remove link.</title></g><g  event="link:options"><circle r="11" transform="translate(25)"></circle><path fill="white" transform="scale(.55) translate(29, -16)" d="M31.229,17.736c0.064-0.571,0.104-1.148,0.104-1.736s-0.04-1.166-0.104-1.737l-4.377-1.557c-0.218-0.716-0.504-1.401-0.851-2.05l1.993-4.192c-0.725-0.91-1.549-1.734-2.458-2.459l-4.193,1.994c-0.647-0.347-1.334-0.632-2.049-0.849l-1.558-4.378C17.165,0.708,16.588,0.667,16,0.667s-1.166,0.041-1.737,0.105L12.707,5.15c-0.716,0.217-1.401,0.502-2.05,0.849L6.464,4.005C5.554,4.73,4.73,5.554,4.005,6.464l1.994,4.192c-0.347,0.648-0.632,1.334-0.849,2.05l-4.378,1.557C0.708,14.834,0.667,15.412,0.667,16s0.041,1.165,0.105,1.736l4.378,1.558c0.217,0.715,0.502,1.401,0.849,2.049l-1.994,4.193c0.725,0.909,1.549,1.733,2.459,2.458l4.192-1.993c0.648,0.347,1.334,0.633,2.05,0.851l1.557,4.377c0.571,0.064,1.148,0.104,1.737,0.104c0.588,0,1.165-0.04,1.736-0.104l1.558-4.377c0.715-0.218,1.399-0.504,2.049-0.851l4.193,1.993c0.909-0.725,1.733-1.549,2.458-2.458l-1.993-4.193c0.347-0.647,0.633-1.334,0.851-2.049L31.229,17.736zM16,20.871c-2.69,0-4.872-2.182-4.872-4.871c0-2.69,2.182-4.872,4.872-4.872c2.689,0,4.871,2.182,4.871,4.872C20.871,18.689,18.689,20.871,16,20.871z"></path><title>Link options.</title></g></g></g></g><g id="j_14"   ><path  stroke="#707070" id="v-280" stroke-width="2" stroke-dasharray="30 30" fill="none" d="M 736 1651 985 1587 S 995 1585 1003 1579 L 1115 1487"></path><path  fill="black" stroke="black" transform="translate(736,1651) scale(1,1) rotate(-14.296204566955566)"></path><path  fill="#707070" stroke="#707070" id="v-282" d="M 20 0 L 0 10 L 20 20 z" transform="translate(1136.3510655291363,1481.7242767497564) scale(1,1) rotate(-219.42779541015628)"></path><path  id="v-281" fill="none" d="M 736 1651 985 1587 S 995 1585 1003 1579 L 1115 1487" style=""></path><title ></title><g ><g  id="v-265" label-idx="0" cursor="move" transform="translate(940.2942504882812, 1598.4906005859375)"><rect id="v-267" fill="#ffffff" rx="3" ry="3" stroke="#ffffff" stroke-width="20px" pointer-events="none" width="163.3563232421875" height="117.66437530517578" transform="matrix(1,0,0,1,-81.7,-58.8)"></rect><text id="v-266" font-size="24px" y="0.8em" xml:space="preserve" text-anchor="middle" pointer-events="none" fill="#707070" font-family="Open Sans" font-weight="normal" transform="matrix(1,0,0,1,0,-53)"><tspan id="v-268"  dy="0em" x="0">7: Renders</tspan><tspan id="v-269"  dy="1.2em" x="0">workflow page</tspan><tspan id="v-270"  dy="1.2em" x="0">with decoded</tspan><tspan id="v-271"  dy="1.2em" x="0">Payloads</tspan></text></g><g  id="v-272" label-idx="1" cursor="move" transform="translate(940.2942504882812, 1668.0906005859374)"><rect id="v-274" fill="#ffffff" rx="3" ry="3" pointer-events="none" width="69.19683837890625" height="26.574711799621582" transform="matrix(1,0,0,1,-34.6,-13.3)"></rect><text id="v-273" font-size="19px" y="0.8em" xml:space="preserve" text-anchor="middle" pointer-events="none" fill="#707070" font-family="Open Sans" font-weight="normal" transform="matrix(1,0,0,1,0,-8.2)"><tspan id="v-275"  dy="0em" x="0">[HTTPS]</tspan></text></g><g  id="v-276" label-idx="2" cursor="move" transform="translate(940.2942504882812, 1692.0906005859374)"><rect id="v-278" fill="#ffffff" rx="3" ry="3" pointer-events="none"  display="none" width="0" height="0" transform="matrix(1,0,0,1,0,0)"></rect><text id="v-277" font-size="19px" y="0.8em" display="none" xml:space="preserve" text-anchor="middle" pointer-events="none" fill="#707070" font-family="Open Sans" font-weight="normal"  transform="matrix(1,0,0,1,0,0)"><tspan id="v-279"  dy="0em" x="0" style="fill-opacity: 0; stroke-opacity: 0;">-</tspan></text></g></g><g  display="none"><g  transform="translate(995, 1585)" id="v-261"><circle  idx="0" r="10"></circle><path  idx="0" d="M16,5.333c-7.732,0-14,4.701-14,10.5c0,1.982,0.741,3.833,2.016,5.414L2,25.667l5.613-1.441c2.339,1.317,5.237,2.107,8.387,2.107c7.732,0,14-4.701,14-10.5C30,10.034,23.732,5.333,16,5.333z" transform="translate(5, -33)"></path><path  idx="0" transform="scale(.8) translate(9.5, -37)" d="M24.778,21.419 19.276,15.917 24.777,10.415 21.949,7.585 16.447,13.087 10.945,7.585 8.117,10.415 13.618,15.917 8.116,21.419 10.946,24.248 16.447,18.746 21.948,24.248z"><title>Remove vertex.</title></path></g></g><g  id="v-284" display="none"><g  id="v-262"><path  end="source" d="M 26 0 L 0 13 L 26 26 z"></path></g><g  id="v-263"><path  end="target" d="M 26 0 L 0 13 L 26 26 z"></path></g></g><g  id="v-283" display="none"><g  id="v-260" transform="translate(774.7407836914062, 1641.04248046875) "><g  event="remove"><circle r="11"></circle><path transform="scale(.8) translate(-16, -16)" d="M24.778,21.419 19.276,15.917 24.777,10.415 21.949,7.585 16.447,13.087 10.945,7.585 8.117,10.415 13.618,15.917 8.116,21.419 10.946,24.248 16.447,18.746 21.948,24.248z"></path><title>Remove link.</title></g><g  event="link:options"><circle r="11" transform="translate(25)"></circle><path fill="white" transform="scale(.55) translate(29, -16)" d="M31.229,17.736c0.064-0.571,0.104-1.148,0.104-1.736s-0.04-1.166-0.104-1.737l-4.377-1.557c-0.218-0.716-0.504-1.401-0.851-2.05l1.993-4.192c-0.725-0.91-1.549-1.734-2.458-2.459l-4.193,1.994c-0.647-0.347-1.334-0.632-2.049-0.849l-1.558-4.378C17.165,0.708,16.588,0.667,16,0.667s-1.166,0.041-1.737,0.105L12.707,5.15c-0.716,0.217-1.401,0.502-2.05,0.849L6.464,4.005C5.554,4.73,4.73,5.554,4.005,6.464l1.994,4.192c-0.347,0.648-0.632,1.334-0.849,2.05l-4.378,1.557C0.708,14.834,0.667,15.412,0.667,16s0.041,1.165,0.105,1.736l4.378,1.558c0.217,0.715,0.502,1.401,0.849,2.049l-1.994,4.193c0.725,0.909,1.549,1.733,2.459,2.458l4.192-1.993c0.648,0.347,1.334,0.633,2.05,0.851l1.557,4.377c0.571,0.064,1.148,0.104,1.737,0.104c0.588,0,1.165-0.04,1.736-0.104l1.558-4.377c0.715-0.218,1.399-0.504,2.049-0.851l4.193,1.993c0.909-0.725,1.733-1.549,2.458-2.458l-1.993-4.193c0.347-0.647,0.633-1.334,0.851-2.049L31.229,17.736zM16,20.871c-2.69,0-4.872-2.182-4.872-4.871c0-2.69,2.182-4.872,4.872-4.872c2.689,0,4.871,2.182,4.871,4.872C20.871,18.689,18.689,20.871,16,20.871z"></path><title>Link options.</title></g></g></g></g></g><defs id="v-4"></defs></svg>