<svg xmlns="http://www.w3.org/2000/svg" width="900" height="254" fill="none" viewBox="0 0 900 254"><g clip-path="url(#clip0_218_7184)"><rect width="900" height="254" fill="#1D1D24" rx="24"/><circle cx="-28" cy="140.25" r="240" stroke="#fff" stroke-linecap="round"/><path fill="#9B8FFF" stroke="#181A22" stroke-linecap="round" d="M94.3135 172.536C83.1649 178.008 69.169 183.037 57.7581 187.878C54.6138 187.878 54.1537 194.006 52.3469 196.209C50.589 198.352 48.9729 202.04 46.3768 203.191C44.5449 204.003 43.3346 205.936 42.1125 207.445C40.3157 209.664 37.9205 210.657 36.0543 212.725C29.2182 220.302 25.5115 231.444 23.232 241.151C21.4508 248.736 21.5133 259.242 23.9966 266.673C27.1395 276.078 38.5791 281.371 46.7592 285.565C61.6179 293.183 78.6813 296.886 94.8723 300.585C113.604 304.864 132.42 308.928 151.249 312.759C175.662 317.726 200.063 319.396 224.889 320.914C258.334 322.959 291.712 320.906 325.174 321.237C365.583 321.636 406.023 323.017 446.427 323.877C487.076 324.742 527.635 326.048 568.298 326.224C609.543 326.402 650.736 330.333 691.934 332.15C710.365 332.962 728.791 334.163 747.164 335.846C759.27 336.955 771.333 338.503 783.513 337.841C791.875 337.386 800.213 337.401 803.1 328.219C805.842 319.495 806.142 309.43 807.07 300.379C807.677 294.46 808.69 288.586 809.217 282.661C809.844 275.614 810.255 268.541 810.665 261.478L810.687 261.099C810.813 258.936 811.306 255.816 810.717 253.531C809.591 249.164 807.397 245.604 805.217 241.738C803.074 237.937 802.494 231.125 798.747 228.537C790.021 222.511 776.668 223.738 766.633 221.936C753.222 219.529 739.599 217.834 726.136 215.629C709.428 212.893 692.782 210.184 675.994 207.943C661.744 206.042 648.175 201.576 634.41 197.793C627.989 196.029 621.471 194.862 615 193.276C609.008 191.807 595.526 199.653 589.417 198.556C576.021 196.151 562.224 195.059 548.715 193.276C534.988 191.463 529.268 178.082 515.421 177.2C502.467 162.328 498.458 169.634 484.662 170.746C479.196 171.187 469.323 170.948 464.017 172.536C458.601 174.157 451.405 181.541 446.427 184.182C437.637 188.846 425.716 185.664 419.551 187.878C413.047 190.213 405.201 187.878 398.376 187.878C387.064 187.878 383.1 187.872 372.438 184.182C370.147 175.768 358.727 185.415 353.26 184.182C346.977 182.764 341.209 180.2 335.026 178.491C323.244 175.233 311.913 172.535 299.677 171.802C294.87 171.515 290.79 171.681 285.972 170.746C281.682 169.914 277.262 169.304 272.944 168.634C261.271 166.823 248.813 162.069 236.918 163.178C232.024 163.634 228.276 166.136 223.978 168.106C220.986 169.477 217.511 166.699 214.861 165.818C200.175 160.935 188.188 152.186 172.868 149.894C166.202 148.896 158.01 143.242 151.249 144.085C143.643 145.034 134.224 155.663 127.075 158.337C115.83 162.544 105.099 167.242 94.3135 172.536Z"/><path fill="#1D1D24" stroke="#fff" stroke-linecap="round" d="M-104.602 22.169C-108.092 23.0749 -145.337 78.5119 -147.936 80.945C-151.339 88.1095 -154.903 95.1868 -156.842 102.924C-159.534 113.669 -160.889 125.531 -160.019 136.622C-158.99 149.732 -155.375 162.844 -152.024 175.476C-150.327 181.875 -146.975 194.725 -143.743 201.674C-143.105 203.046 -142.258 204.384 -141.113 205.372C-139.596 206.68 -134.856 206.937 -132.962 207.195C-129.981 207.602 -126.968 207.757 -123.977 208.08C-116.446 208.895 -109.032 210.549 -101.477 211.153C-93.047 211.828 -84.597 211.18 -76.1647 211.83C-67.3465 212.511 -58.6841 214.307 -49.8106 214.33C-39.7265 214.357 -29.607 213.38 -19.6022 212.195C-2.17529 210.131 15.493 210.499 33.0019 211.83C44.3074 212.69 55.522 214.332 66.7519 215.841C79.6232 217.57 92.4921 218.183 105.447 218.8L106.752 218.862C130.214 219.981 153.49 223.045 176.856 225.32C191.546 226.75 206.157 229.043 220.867 230.216C251.071 232.623 282.016 230.838 311.96 226.231C323.896 224.395 335.494 222.095 347.221 219.252C353.353 217.766 359.425 215.803 365.606 214.539C367.701 214.11 369.786 213.719 371.908 213.601C372.902 213.546 373.297 212.018 373.887 211.362C375.077 210.04 376.43 208.368 377.299 206.804C378.733 204.222 369.282 204.226 367.969 204.226H367.924C364.603 204.226 362.851 204.137 360.007 202.169C358.979 201.457 356.955 201.737 355.736 201.362C353.83 200.775 351.699 199.252 349.877 198.341C348.998 197.901 345.21 196.887 344.773 196.231C343.681 194.594 341.308 194.331 340.241 192.872C336.691 188.013 329.795 185.441 324.238 183.368L323.887 183.237C316.97 180.654 309.542 178.526 302.273 177.273C297.538 176.457 292.06 177.065 287.325 177.742C283.455 178.295 278.773 178.06 276.856 174.226C275.36 171.233 272.26 171.301 271.492 167.768C270.182 161.743 264.094 159.591 258.367 160.737C255.472 161.316 253.05 161.792 250.033 161.466C246.88 161.125 240.293 161.866 237.846 159.487C235.477 157.183 236.543 152.64 235.971 149.643C235.089 145.029 235.16 140.398 234.33 135.789C229.247 107.549 192.804 102.126 170.033 110.216L169.889 110.267C166.577 111.444 162.781 112.792 159.877 114.799C158.376 115.836 157.264 117.349 155.71 118.341C153.99 119.439 151.961 121.665 149.721 121.153C145.475 120.183 142.204 117.728 138.184 116.388C131.392 114.124 124.523 116.57 117.611 116.57C115.671 116.57 111.473 117.037 110.111 115.372C108.41 113.292 110.131 111.003 110.32 108.836C110.615 105.435 109.02 101.975 108.497 98.5752C108.229 96.8341 106.6 97.1867 105.658 96.1273C103.476 93.6721 101.132 90.8989 98.4186 89.0179C93.1454 85.3626 86.392 85.0194 80.3457 86.6742C74.383 88.3061 69.5877 88.1101 63.7311 85.8929C58.1614 83.7844 51.8695 81.2506 47.0644 77.6638C42.3616 74.1532 40.0208 68.0722 37.6634 62.8721C33.6102 53.9311 28.4954 44.9855 20.9707 38.5231C9.10681 28.3342 -3.83163 23.0232 -19.2116 20.32C-28.7532 18.643 -38.3823 18.5777 -48.0397 18.3669C-58.8257 18.1314 -69.7264 17.6898 -80.4876 18.6794L-80.9958 18.7261C-88.806 19.4437 -97.0071 20.1972 -104.602 22.169Z"/><path stroke="#fff" stroke-linecap="round" d="M150.969 123.062C155.469 123.062 161.025 124.787 163.625 128.688"/><path stroke="#fff" stroke-linecap="round" d="M172.062 132.438C172.864 133.045 173.635 133.67 174.406 134.312"/><path stroke="#fff" stroke-linecap="round" d="M179.562 136.188L181.438 139.938"/><path stroke="#fff" stroke-linecap="round" d="M224.562 141.812C226.828 143.215 229.25 144.959 229.25 147.906"/><path stroke="#fff" stroke-linecap="round" d="M233 153.531C233.914 154.703 234.583 155.993 235.812 156.812"/><path stroke="#fff" stroke-linecap="round" d="M43.1562 74.3125C43.6992 75.3984 45.6413 81.9105 47.1927 82.2552C49.421 82.7504 51.0711 84.279 52.5312 86.0312"/><path stroke="#fff" stroke-linecap="round" d="M63.7812 97.2812L66.125 98.2188"/><path stroke="#181A22" stroke-linecap="round" d="M44.7188 249.469C41.4769 249.646 37.5569 250.519 34.4062 249.469"/><path stroke="#fff" stroke-linecap="round" d="M624.49 72.4852C618.307 72.8315 612.132 72.6439 606 71.4175C609.247 71.4175 608.491 67.1889 610.688 65.8967C611.873 65.1994 612.679 63.8854 613.969 63.2404C616.007 62.2211 618.75 63.4042 620.844 63.4488C623.569 63.5067 626.578 63.7879 629.203 62.98C630.82 62.4826 631.161 61.7165 632.354 60.7404C634.672 58.8437 638.542 57.9378 641.443 57.6154C644.326 57.2951 647.106 58.5595 650.036 58.2665C652.419 58.0282 654.542 56.0248 656.625 55.0113C658.538 54.0806 660.632 54.0351 662.719 54.0738C663.498 54.0882 665.057 54.8053 665.766 54.4904C666.991 53.9459 667.658 51.6315 668.917 50.7925C671.565 49.0272 674.032 47.5657 677.354 47.5113C680.948 47.4524 683.365 47.836 685.688 50.7925C688.785 54.7351 693.762 55.523 698.552 54.9071C705.827 53.9718 706.636 46.8182 710.062 41.6779C713.638 36.3146 716.845 32.7105 722.875 29.9071C728.614 27.2392 734.904 25.793 740.974 28.2925C745.178 30.0237 747.601 34.0949 751.99 35.3238C757.103 36.7554 763.084 38.4541 766.286 43.0581C768.674 46.4905 774.098 53.0963 779.177 52.1727C781.13 51.8176 782.324 48.9244 784.594 48.5529C789.427 47.7621 794.465 52.9653 797.042 56.4175C798.734 58.6844 799.309 60.9885 799.698 63.7092C799.917 65.2452 800.805 66.6159 800.974 68.1363C801.077 69.0618 802.073 72.6201 801 73.1884C798.954 74.2718 794.083 72.4852 792.016 72.4852H763.266C751.827 72.4852 740.443 73.0124 729.021 72.4852C715.18 71.8464 701.486 72.2423 687.641 72.4852C673.057 72.7411 658.425 73.3253 643.865 72.4852C637.397 72.1121 630.964 72.1227 624.49 72.4852Z"/><path stroke="#fff" stroke-linecap="round" d="M702.094 54.1876C705.161 53.5144 707.213 51.4354 710.531 51.3751C713.234 51.3259 715.521 52.7813 718.031 52.7813"/><path stroke="#fff" stroke-linecap="round" d="M723.656 50.4375L726 51.8438"/><path fill="#1D1D24" stroke="#fff" stroke-linecap="round" d="M751.072 128.345C749.299 124.711 750.231 122.893 751.781 118.51C754.113 111.918 757.66 106.593 763.292 102.312C776.62 92.1831 794.575 90.7155 810.583 93.302C826.859 95.9317 835.91 110.662 850.193 117.208C852.164 118.112 853.656 117.816 855.662 117.234C859.452 116.134 863.892 115.016 867.823 114.76C875.472 114.263 879.61 120.177 882.927 125.906C884.517 128.652 892.675 127.335 894.958 126.818C897.277 126.293 899.621 125.071 901.781 126.271C902.509 126.675 903.343 127.11 904.151 127.312C905.896 127.749 907.488 126.804 908.971 125.925L909.047 125.88C912.756 123.682 915.341 120.471 919.49 118.875C926.276 116.265 936.117 118.41 941.781 122.625C944.315 124.511 947.6 129.406 951.104 129.656C955.077 129.94 958.463 130.115 962.458 129.552C966.89 128.928 970.91 128.524 974.412 132.026C975.58 133.194 977.268 135.253 978.917 135.724C980.411 136.151 980.965 137.468 981.938 138.562C984.057 140.947 981.779 141.579 979.75 142.417C968.27 147.154 958.393 145.134 946.078 145.385C933.21 145.648 917.548 145.791 904.75 144.552C890.941 143.216 877.22 146.183 863.448 144.552C853.264 143.346 842.415 143.493 832.276 144.552C824.539 145.36 816.641 144.473 808.865 144.552C805.502 144.586 802.276 144.983 798.917 144.552C796.688 144.266 794.335 144.633 792.094 144.552C785.402 144.309 778.409 143.083 771.651 144.552C768.513 145.234 765.242 144.839 762.016 144.552C759.642 144.341 759.098 145.169 757.042 144.552C754.948 143.924 751.114 143.855 749.281 144.552C744.868 146.231 740.152 144.4 735.427 144.552C731.369 144.683 728.197 146.46 724.386 145.385C721.719 144.633 718.807 144.319 716.261 143.25C714.625 142.563 680.791 141.932 683.813 138.562C687.866 134.041 700.359 135.267 706.312 133.406C711.393 131.818 726.333 123.575 731.625 122.625C734.431 122.121 740.01 123.186 742.875 123.354C743.627 123.398 748.988 126.471 751.072 128.345Z"/><path stroke="#fff" stroke-linecap="round" d="M751.312 129.656C754.918 132.279 756.148 128.391 759.542 127.104C763.144 125.738 765.414 126.407 768.188 128.719"/><path stroke="#fff" stroke-linecap="round" d="M774.75 126.375L777.094 126.844"/><path stroke="#fff" stroke-linecap="round" d="M816 113.25C818.985 113.321 820.831 114.295 823.5 115.333C824.525 115.732 825.698 116.531 826.781 116.531"/><path stroke="#fff" stroke-linecap="round" d="M831 116.062C835.328 116.062 839.12 117.938 843.292 117.938C844.54 117.938 846.722 118.346 847.875 117.833C849.653 117.043 851.184 117.938 853.031 117.938"/><path fill="#DDD6FE" stroke="#181A22" stroke-linecap="round" d="M23.532 155.996C-12.9098 172.413 -35.1572 137.671 -35.1572 137.671C-35.1572 137.671 -32.7985 273.547 -28.6555 290.58C-21.9223 318.261 -56.0069 383.713 -35.1572 404.562C-27.1746 412.545 14.6226 385.015 23.532 392.142C35.6324 401.823 53.2156 403.358 67.907 407.247C91.4733 413.485 115.065 420.084 139.157 424.017C166.549 428.49 193.539 427.277 221.136 427.976C295.505 429.858 369.547 439.297 444.053 434.33C532.75 428.417 621.011 418.001 709.365 408.184C745.879 404.127 782.264 400.363 818.845 396.934C838.708 395.072 862.695 394.735 881.24 386.622C888.902 383.269 895.475 381.811 903.74 380.892C909.036 380.304 916.329 374.477 921.657 372.559C927.308 370.525 934.487 367.993 940.407 370.684C946.06 373.254 945.251 361.684 946.136 358.496C949.162 347.605 943.542 336.671 940.407 326.413C936.818 314.667 933.09 302.91 929.365 291.205C923.068 271.413 911.433 270.26 894.574 261.83C887.082 258.084 879.061 255.131 871.032 252.455C857.199 247.844 845.254 238.88 831.97 232.976C821.676 228.401 810.053 228.602 799.678 224.33C786.297 218.82 773.543 214.485 760.303 208.601C750.418 204.207 736.453 206.621 725.824 206.621C718.807 206.621 712.391 204.972 705.615 204.746C680.634 203.914 657.573 220.509 634.365 227.246C621.284 231.044 609.695 225.432 598.324 219.746C588.57 214.87 574.279 217.013 565.615 210.996C556.557 204.706 547.876 205.607 538.324 200.58C524.995 193.565 511.848 193.074 497.074 193.496C490.71 193.678 484.005 196.511 478.324 199.121C469.025 203.394 456.842 203.725 446.865 206.621C429.304 211.72 413.311 211.18 395.824 207.038C388.298 205.256 380.684 207.929 373.324 204.746C365.617 201.414 358.127 198.923 349.782 197.663C343.229 196.674 337.018 197.241 330.615 194.955C324.362 192.722 319.965 188.028 312.907 187.871C299.019 187.563 285.47 184.121 271.657 184.121C261.431 184.121 260.92 178.351 253.324 174.33C243.355 169.052 234.952 162.46 225.615 155.996C210.216 145.335 205.304 167.598 189.157 167.246C174.513 166.928 104.513 133.926 91.4053 137.671C68.5593 144.199 45.0894 146.285 23.532 155.996Z"/><path stroke="#181A22" stroke-linecap="round" d="M260.155 184.25C265.73 187.037 271.114 190.678 277.03 192.688C283.145 194.764 290.004 195.84 295.78 198.677C299.736 200.62 303.036 202.383 306.457 205.135C309.384 207.489 312.931 208.961 316.614 209.562C322.403 210.509 328.288 210.413 334.062 211.542C339.865 212.676 345.588 213.486 351.457 214.146C354.97 214.541 358.372 215.139 361.77 216.125C364.954 217.05 367.835 218.642 371.093 219.406C377.729 220.963 383.212 223.704 388.593 227.74C393.762 231.616 399.177 232.797 405.78 233.365C410.117 233.738 415.648 234.34 419.53 236.281"/><path stroke="#181A22" stroke-linecap="round" d="M430.312 239.562C431.604 240.067 432.681 240.5 434.062 240.5"/><path stroke="#181A22" stroke-linecap="round" d="M441.562 241.906C443.892 242.589 446.332 243.028 448.593 243.781"/><path stroke="#181A22" stroke-linecap="round" d="M178.124 168.781C183.895 171.117 189.626 173.396 195.468 175.344"/><path stroke="#181A22" stroke-linecap="round" d="M473.124 201C473.124 201 480.197 199.25 485.259 199.25C487.797 199.25 490.168 199.719 492.655 199.719"/><path stroke="#181A22" stroke-linecap="round" d="M502.03 201.125C503.302 201.735 504.46 202.135 505.78 202.531"/><path stroke="#181A22" stroke-linecap="round" d="M512.812 204.406C514.264 205.236 515.366 205.812 517.03 205.812"/><path stroke="#181A22" stroke-linecap="round" d="M619.218 227.844C629.896 230.153 641.183 228.312 652.004 228.312C659.688 228.312 667.358 228.781 674.999 228.781"/><path stroke="#181A22" stroke-linecap="round" d="M701.718 230.188C705.205 232.099 708.151 233.291 712.03 233.938"/><path stroke="#181A22" stroke-linecap="round" d="M719.062 235.344C720.568 236.446 722.451 238.299 724.4 238.599C724.969 238.686 724.924 238.631 725.155 239.094"/><path stroke="#181A22" stroke-linecap="round" d="M21.5615 157.041C30.9094 155.569 40.395 154.854 49.6865 157.041"/><path stroke="#181A22" stroke-linecap="round" d="M56.249 158C59.5811 158.366 62.7631 159.168 66.0928 159.406"/><path stroke="#181A22" stroke-linecap="round" d="M494.062 252.688C502.15 254.49 510.303 256.691 518.541 257.74C526.354 258.735 534.354 258.63 542.213 258.781C560.368 259.13 578.574 259.898 596.692 258.312C608.914 257.243 621.13 256.799 633.384 256.333C639.986 256.083 646.46 255.605 652.968 256.906"/><path stroke="#181A22" stroke-linecap="round" d="M119.53 251.75L124.687 254.562"/><path stroke="#181A22" stroke-linecap="round" d="M321.093 200.656C328.55 201.713 335.901 203.6 343.437 203.833C351.507 204.083 359.515 204.083 367.499 205.344"/><path stroke="#181A22" stroke-linecap="round" d="M525.937 227.844C541.359 231.149 557.13 230.894 572.655 233.469C582.344 235.076 592.045 236.281 601.874 236.281"/><path stroke="#181A22" stroke-linecap="round" d="M617.812 236.75L621.562 237.688"/><path stroke="#181A22" stroke-linecap="round" d="M629.999 237.688H632.343"/><path stroke="#181A22" stroke-linecap="round" d="M250.78 199.719C269.804 210.589 289.489 218.776 310.78 223.885C316.686 225.303 322.787 226.516 328.827 227.141C335.865 227.869 342.653 229.901 349.66 230.865C359.587 232.229 369.421 233.733 379.4 234.641C387.969 235.42 396.459 236.911 404.999 237.688"/><path stroke="#181A22" stroke-linecap="round" d="M303.632 236.164C303.987 236.096 304.326 236.047 304.687 236.047"/><path fill="#1D1D24" stroke="#1D1D24" stroke-width="8" d="M261.26 108.832C254.334 105.386 245.278 102.941 235.564 101.436C234.059 91.7207 231.614 82.665 228.168 75.7385C224.493 68.3509 218.931 62 211 62C203.071 62 197.51 68.3503 193.835 75.7373C190.389 82.6635 187.942 91.7193 186.436 101.436C176.721 102.941 167.665 105.386 160.739 108.832C153.351 112.507 147 118.069 147 126C147 133.929 153.351 139.491 160.739 143.166C167.665 146.611 176.721 149.058 186.436 150.564C187.941 160.278 190.386 169.334 193.832 176.26C197.507 183.648 203.069 190 211 190C218.929 190 224.491 183.649 228.166 176.261C231.611 169.335 234.058 160.279 235.564 150.564C245.279 149.058 254.335 146.612 261.261 143.167C268.649 139.492 275 133.931 275 126C275 118.069 268.648 112.507 261.26 108.832Z"/><path fill="#fff" d="M231.532 104.968C228.698 83.731 221.522 66 210.5 66C199.481 66 192.305 83.728 189.468 104.968C168.231 107.802 150.5 114.978 150.5 126C150.5 137.019 168.231 144.195 189.468 147.032C192.302 168.266 199.478 186 210.5 186C221.519 186 228.695 168.269 231.532 147.032C252.769 144.195 270.5 137.022 270.5 126C270.5 114.978 252.766 107.802 231.532 104.968ZM188.778 140.842C168.437 137.904 156.576 131.18 156.576 125.997C156.576 120.814 168.44 114.09 188.778 111.152C188.329 116.049 188.096 121.048 188.096 125.997C188.096 130.946 188.329 135.951 188.778 140.842ZM210.503 72.0731C215.686 72.0731 222.41 83.9367 225.348 104.274C220.454 103.826 215.452 103.593 210.503 103.593C205.554 103.593 200.552 103.826 195.658 104.274C198.596 83.9337 205.32 72.0731 210.503 72.0731ZM232.226 140.842C231.225 140.989 227.117 141.468 226.079 141.573C225.977 142.613 225.492 146.718 225.348 147.719C222.41 168.06 215.686 179.924 210.503 179.924C205.32 179.924 198.596 168.06 195.658 147.719C195.514 146.718 195.029 142.61 194.927 141.573C194.455 136.752 194.169 131.573 194.169 125.997C194.169 120.424 194.455 115.245 194.927 110.418C199.748 109.945 204.927 109.66 210.503 109.66C216.076 109.66 221.255 109.945 226.079 110.418C227.12 110.52 231.225 111.005 232.226 111.149C252.566 114.087 264.433 120.814 264.433 125.994C264.43 131.173 252.566 137.904 232.226 140.842Z"/><mask id="path-44-outside-1_218_7184" width="363" height="117" x="305.5" y="68" fill="#000" maskUnits="userSpaceOnUse"><rect width="363" height="117" x="305.5" y="68" fill="#fff"/><path d="M380.78 76.72V143.64C380.78 154 377.84 161.98 371.96 167.58C366.173 173.18 358.333 175.98 348.44 175.98C338.08 175.98 329.773 173.04 323.52 167.16C317.267 161.28 314.14 152.927 314.14 142.1H337.94C337.94 146.207 338.78 149.333 340.46 151.48C342.14 153.533 344.567 154.56 347.74 154.56C350.633 154.56 352.873 153.627 354.46 151.76C356.047 149.893 356.84 147.187 356.84 143.64V76.72H380.78ZM395.358 135.8C395.358 127.773 396.851 120.727 399.838 114.66C402.918 108.593 407.071 103.927 412.298 100.66C417.524 97.3933 423.358 95.76 429.798 95.76C435.304 95.76 440.111 96.88 444.218 99.12C448.418 101.36 451.638 104.3 453.878 107.94V96.88H477.818V175H453.878V163.94C451.544 167.58 448.278 170.52 444.078 172.76C439.971 175 435.164 176.12 429.658 176.12C423.311 176.12 417.524 174.487 412.298 171.22C407.071 167.86 402.918 163.147 399.838 157.08C396.851 150.92 395.358 143.827 395.358 135.8ZM453.878 135.94C453.878 129.967 452.198 125.253 448.838 121.8C445.571 118.347 441.558 116.62 436.798 116.62C432.038 116.62 427.978 118.347 424.618 121.8C421.351 125.16 419.718 129.827 419.718 135.8C419.718 141.773 421.351 146.533 424.618 150.08C427.978 153.533 432.038 155.26 436.798 155.26C441.558 155.26 445.571 153.533 448.838 150.08C452.198 146.627 453.878 141.913 453.878 135.94ZM530.277 152.6L547.217 96.88H572.697L544.977 175H515.437L487.717 96.88H513.337L530.277 152.6ZM578.014 135.8C578.014 127.773 579.507 120.727 582.494 114.66C585.574 108.593 589.727 103.927 594.954 100.66C600.18 97.3933 606.014 95.76 612.454 95.76C617.96 95.76 622.767 96.88 626.874 99.12C631.074 101.36 634.294 104.3 636.534 107.94V96.88H660.474V175H636.534V163.94C634.2 167.58 630.934 170.52 626.734 172.76C622.627 175 617.82 176.12 612.314 176.12C605.967 176.12 600.18 174.487 594.954 171.22C589.727 167.86 585.574 163.147 582.494 157.08C579.507 150.92 578.014 143.827 578.014 135.8ZM636.534 135.94C636.534 129.967 634.854 125.253 631.494 121.8C628.227 118.347 624.214 116.62 619.454 116.62C614.694 116.62 610.634 118.347 607.274 121.8C604.007 125.16 602.374 129.827 602.374 135.8C602.374 141.773 604.007 146.533 607.274 150.08C610.634 153.533 614.694 155.26 619.454 155.26C624.214 155.26 628.227 153.533 631.494 150.08C634.854 146.627 636.534 141.913 636.534 135.94Z"/></mask><path fill="#fff" d="M380.78 76.72V143.64C380.78 154 377.84 161.98 371.96 167.58C366.173 173.18 358.333 175.98 348.44 175.98C338.08 175.98 329.773 173.04 323.52 167.16C317.267 161.28 314.14 152.927 314.14 142.1H337.94C337.94 146.207 338.78 149.333 340.46 151.48C342.14 153.533 344.567 154.56 347.74 154.56C350.633 154.56 352.873 153.627 354.46 151.76C356.047 149.893 356.84 147.187 356.84 143.64V76.72H380.78ZM395.358 135.8C395.358 127.773 396.851 120.727 399.838 114.66C402.918 108.593 407.071 103.927 412.298 100.66C417.524 97.3933 423.358 95.76 429.798 95.76C435.304 95.76 440.111 96.88 444.218 99.12C448.418 101.36 451.638 104.3 453.878 107.94V96.88H477.818V175H453.878V163.94C451.544 167.58 448.278 170.52 444.078 172.76C439.971 175 435.164 176.12 429.658 176.12C423.311 176.12 417.524 174.487 412.298 171.22C407.071 167.86 402.918 163.147 399.838 157.08C396.851 150.92 395.358 143.827 395.358 135.8ZM453.878 135.94C453.878 129.967 452.198 125.253 448.838 121.8C445.571 118.347 441.558 116.62 436.798 116.62C432.038 116.62 427.978 118.347 424.618 121.8C421.351 125.16 419.718 129.827 419.718 135.8C419.718 141.773 421.351 146.533 424.618 150.08C427.978 153.533 432.038 155.26 436.798 155.26C441.558 155.26 445.571 153.533 448.838 150.08C452.198 146.627 453.878 141.913 453.878 135.94ZM530.277 152.6L547.217 96.88H572.697L544.977 175H515.437L487.717 96.88H513.337L530.277 152.6ZM578.014 135.8C578.014 127.773 579.507 120.727 582.494 114.66C585.574 108.593 589.727 103.927 594.954 100.66C600.18 97.3933 606.014 95.76 612.454 95.76C617.96 95.76 622.767 96.88 626.874 99.12C631.074 101.36 634.294 104.3 636.534 107.94V96.88H660.474V175H636.534V163.94C634.2 167.58 630.934 170.52 626.734 172.76C622.627 175 617.82 176.12 612.314 176.12C605.967 176.12 600.18 174.487 594.954 171.22C589.727 167.86 585.574 163.147 582.494 157.08C579.507 150.92 578.014 143.827 578.014 135.8ZM636.534 135.94C636.534 129.967 634.854 125.253 631.494 121.8C628.227 118.347 624.214 116.62 619.454 116.62C614.694 116.62 610.634 118.347 607.274 121.8C604.007 125.16 602.374 129.827 602.374 135.8C602.374 141.773 604.007 146.533 607.274 150.08C610.634 153.533 614.694 155.26 619.454 155.26C624.214 155.26 628.227 153.533 631.494 150.08C634.854 146.627 636.534 141.913 636.534 135.94Z"/><path fill="#1D1D24" d="M380.78 76.72H388.78C388.78 72.3017 385.198 68.72 380.78 68.72V76.72ZM371.96 167.58L366.443 161.787C366.427 161.802 366.412 161.816 366.397 161.831L371.96 167.58ZM323.52 167.16L318.04 172.988L323.52 167.16ZM314.14 142.1V134.1C309.722 134.1 306.14 137.682 306.14 142.1H314.14ZM337.94 142.1H345.94C345.94 137.682 342.358 134.1 337.94 134.1V142.1ZM340.46 151.48L334.16 156.41C334.196 156.456 334.232 156.501 334.268 156.546L340.46 151.48ZM354.46 151.76L348.364 146.579L348.364 146.579L354.46 151.76ZM356.84 76.72V68.72C352.422 68.72 348.84 72.3017 348.84 76.72H356.84ZM372.78 76.72V143.64H388.78V76.72H372.78ZM372.78 143.64C372.78 152.449 370.328 158.087 366.443 161.787L377.477 173.373C385.352 165.873 388.78 155.551 388.78 143.64H372.78ZM366.397 161.831C362.427 165.672 356.759 167.98 348.44 167.98V183.98C359.908 183.98 369.919 180.688 377.523 173.329L366.397 161.831ZM348.44 167.98C339.671 167.98 333.474 165.539 329 161.332L318.04 172.988C326.073 180.541 336.489 183.98 348.44 183.98V167.98ZM329 161.332C324.753 157.338 322.14 151.333 322.14 142.1H306.14C306.14 154.52 309.78 165.222 318.04 172.988L329 161.332ZM314.14 150.1H337.94V134.1H314.14V150.1ZM329.94 142.1C329.94 147.131 330.944 152.301 334.16 156.41L346.76 146.55C346.616 146.366 345.94 145.283 345.94 142.1H329.94ZM334.268 156.546C337.77 160.825 342.689 162.56 347.74 162.56V146.56C347.01 146.56 346.704 146.442 346.657 146.422C346.633 146.412 346.64 146.413 346.66 146.427C346.68 146.442 346.677 146.445 346.652 146.414L334.268 156.546ZM347.74 162.56C352.511 162.56 357.169 160.925 360.556 156.941L348.364 146.579C348.36 146.584 348.38 146.561 348.423 146.529C348.467 146.497 348.503 146.48 348.513 146.475C348.536 146.466 348.33 146.56 347.74 146.56V162.56ZM360.556 156.941C363.82 153.1 364.84 148.253 364.84 143.64H348.84C348.84 146.12 348.273 146.686 348.364 146.579L360.556 156.941ZM364.84 143.64V76.72H348.84V143.64H364.84ZM356.84 84.72H380.78V68.72H356.84V84.72ZM399.838 114.66L392.704 111.038C392.689 111.068 392.675 111.097 392.66 111.127L399.838 114.66ZM412.298 100.66L416.537 107.444L412.298 100.66ZM444.217 99.12L440.387 106.143C440.409 106.155 440.431 106.167 440.453 106.179L444.217 99.12ZM453.878 107.94L447.064 112.133C448.94 115.181 452.612 116.612 456.056 115.638C459.5 114.663 461.878 111.519 461.878 107.94H453.878ZM453.878 96.88V88.88C449.459 88.88 445.878 92.4617 445.878 96.88H453.878ZM477.818 96.88H485.818C485.818 92.4617 482.236 88.88 477.818 88.88V96.88ZM477.818 175V183C482.236 183 485.818 179.418 485.818 175H477.818ZM453.878 175H445.878C445.878 179.418 449.459 183 453.878 183V175ZM453.878 163.94H461.878C461.878 160.388 459.536 157.261 456.127 156.263C452.718 155.264 449.059 156.632 447.142 159.623L453.878 163.94ZM444.077 172.76L440.313 165.701C440.291 165.713 440.269 165.725 440.247 165.737L444.077 172.76ZM412.298 171.22L407.971 177.949C408 177.968 408.029 177.986 408.058 178.004L412.298 171.22ZM399.838 157.08L392.639 160.57C392.66 160.614 392.682 160.658 392.704 160.702L399.838 157.08ZM448.838 121.8L443.026 127.298C443.052 127.325 443.078 127.352 443.104 127.379L448.838 121.8ZM424.618 121.8L418.884 116.221L418.882 116.223L424.618 121.8ZM424.618 150.08L418.733 155.5C418.783 155.553 418.833 155.607 418.884 155.659L424.618 150.08ZM448.838 150.08L443.104 144.501C443.078 144.528 443.052 144.555 443.026 144.582L448.838 150.08ZM403.357 135.8C403.357 128.771 404.662 122.974 407.015 118.193L392.66 111.127C389.04 118.48 387.357 126.775 387.357 135.8H403.357ZM406.971 118.282C409.462 113.374 412.671 109.861 416.537 107.444L408.058 93.876C401.471 97.9926 396.373 103.813 392.704 111.038L406.971 118.282ZM416.537 107.444C420.434 105.009 424.786 103.76 429.798 103.76V87.76C421.929 87.76 414.614 89.7781 408.058 93.876L416.537 107.444ZM429.798 103.76C434.203 103.76 437.647 104.649 440.387 106.143L448.048 92.0968C442.574 89.1109 436.405 87.76 429.798 87.76V103.76ZM440.453 106.179C443.546 107.829 445.65 109.835 447.064 112.133L460.691 103.747C457.625 98.7649 453.289 94.8913 447.982 92.0612L440.453 106.179ZM461.878 107.94V96.88H445.878V107.94H461.878ZM453.878 104.88H477.818V88.88H453.878V104.88ZM469.818 96.88V175H485.818V96.88H469.818ZM477.818 167H453.878V183H477.818V167ZM461.878 175V163.94H445.878V175H461.878ZM447.142 159.623C445.621 161.996 443.429 164.039 440.313 165.701L447.842 179.819C453.126 177.001 457.467 173.164 460.613 168.257L447.142 159.623ZM440.247 165.737C437.507 167.231 434.063 168.12 429.658 168.12V184.12C436.265 184.12 442.434 182.769 447.908 179.783L440.247 165.737ZM429.658 168.12C424.763 168.12 420.453 166.884 416.537 164.436L408.058 178.004C414.595 182.09 421.858 184.12 429.658 184.12V168.12ZM416.624 164.491C412.704 161.971 409.471 158.382 406.971 153.458L392.704 160.702C396.364 167.911 401.438 173.749 407.971 177.949L416.624 164.491ZM407.036 153.59C404.66 148.69 403.357 142.825 403.357 135.8H387.357C387.357 144.828 389.041 153.15 392.639 160.57L407.036 153.59ZM461.878 135.94C461.878 128.41 459.715 121.507 454.571 116.221L443.104 127.379C444.68 128.999 445.878 131.524 445.878 135.94H461.878ZM454.649 116.302C449.869 111.249 443.753 108.62 436.798 108.62V124.62C439.362 124.62 441.272 125.444 443.026 127.298L454.649 116.302ZM436.798 108.62C429.848 108.62 423.729 111.241 418.884 116.221L430.351 127.379C432.226 125.452 434.227 124.62 436.798 124.62V108.62ZM418.882 116.223C413.794 121.456 411.717 128.342 411.717 135.8H427.717C427.717 131.312 428.908 128.864 430.353 127.377L418.882 116.223ZM411.717 135.8C411.717 143.28 413.801 150.144 418.733 155.5L430.502 144.66C428.901 142.922 427.717 140.267 427.717 135.8H411.717ZM418.884 155.659C423.729 160.639 429.848 163.26 436.798 163.26V147.26C434.227 147.26 432.226 146.428 430.351 144.501L418.884 155.659ZM436.798 163.26C443.753 163.26 449.869 160.631 454.649 155.578L443.026 144.582C441.272 146.436 439.362 147.26 436.798 147.26V163.26ZM454.571 155.659C459.715 150.373 461.878 143.47 461.878 135.94H445.878C445.878 140.356 444.68 142.881 443.104 144.501L454.571 155.659ZM530.277 152.6L522.623 154.927C523.647 158.297 526.755 160.6 530.277 160.6C533.799 160.6 536.907 158.297 537.931 154.927L530.277 152.6ZM547.217 96.88V88.88C543.695 88.88 540.587 91.1833 539.563 94.553L547.217 96.88ZM572.697 96.88L580.236 99.5553C581.105 97.1062 580.731 94.3876 579.232 92.2649C577.733 90.1422 575.296 88.88 572.697 88.88V96.88ZM544.977 175V183C548.364 183 551.384 180.867 552.516 177.675L544.977 175ZM515.437 175L507.898 177.675C509.03 180.867 512.05 183 515.437 183V175ZM487.717 96.88V88.88C485.118 88.88 482.682 90.1422 481.182 92.2649C479.683 94.3876 479.309 97.1062 480.178 99.5553L487.717 96.88ZM513.337 96.88L520.991 94.553C519.967 91.1833 516.859 88.88 513.337 88.88V96.88ZM537.931 154.927L554.871 99.207L539.563 94.553L522.623 150.273L537.931 154.927ZM547.217 104.88H572.697V88.88H547.217V104.88ZM565.158 94.2047L537.438 172.325L552.516 177.675L580.236 99.5553L565.158 94.2047ZM544.977 167H515.437V183H544.977V167ZM522.976 172.325L495.256 94.2047L480.178 99.5553L507.898 177.675L522.976 172.325ZM487.717 104.88H513.337V88.88H487.717V104.88ZM505.683 99.207L522.623 154.927L537.931 150.273L520.991 94.553L505.683 99.207ZM582.494 114.66L575.36 111.038C575.346 111.068 575.331 111.097 575.316 111.127L582.494 114.66ZM594.954 100.66L599.194 107.444L594.954 100.66ZM626.874 99.12L623.043 106.143C623.065 106.155 623.087 106.167 623.109 106.179L626.874 99.12ZM636.534 107.94L629.72 112.133C631.596 115.181 635.269 116.612 638.712 115.638C642.156 114.663 644.534 111.519 644.534 107.94H636.534ZM636.534 96.88V88.88C632.115 88.88 628.534 92.4617 628.534 96.88H636.534ZM660.474 96.88H668.474C668.474 92.4617 664.892 88.88 660.474 88.88V96.88ZM660.474 175V183C664.892 183 668.474 179.418 668.474 175H660.474ZM636.534 175H628.534C628.534 179.418 632.115 183 636.534 183V175ZM636.534 163.94H644.534C644.534 160.388 642.192 157.261 638.783 156.263C635.375 155.264 631.716 156.632 629.799 159.623L636.534 163.94ZM626.734 172.76L622.969 165.701C622.947 165.713 622.925 165.725 622.903 165.737L626.734 172.76ZM594.954 171.22L590.628 177.949C590.656 177.968 590.685 177.986 590.714 178.004L594.954 171.22ZM582.494 157.08L575.295 160.57C575.317 160.614 575.338 160.658 575.36 160.702L582.494 157.08ZM631.494 121.8L625.682 127.298C625.708 127.325 625.734 127.352 625.76 127.379L631.494 121.8ZM607.274 121.8L601.54 116.221L601.538 116.223L607.274 121.8ZM607.274 150.08L601.389 155.5C601.439 155.553 601.489 155.607 601.54 155.659L607.274 150.08ZM631.494 150.08L625.76 144.501C625.734 144.528 625.708 144.555 625.682 144.582L631.494 150.08ZM586.014 135.8C586.014 128.771 587.318 122.974 589.671 118.193L575.316 111.127C571.696 118.48 570.014 126.775 570.014 135.8H586.014ZM589.627 118.282C592.119 113.374 595.327 109.861 599.194 107.444L590.714 93.876C584.127 97.9926 579.029 103.813 575.36 111.038L589.627 118.282ZM599.194 107.444C603.09 105.009 607.443 103.76 612.454 103.76V87.76C604.585 87.76 597.27 89.7781 590.714 93.876L599.194 107.444ZM612.454 103.76C616.86 103.76 620.304 104.649 623.043 106.143L630.705 92.0968C625.23 89.1109 619.061 87.76 612.454 87.76V103.76ZM623.109 106.179C626.203 107.829 628.307 109.835 629.72 112.133L643.347 103.747C640.281 98.7649 635.945 94.8913 630.638 92.0612L623.109 106.179ZM644.534 107.94V96.88H628.534V107.94H644.534ZM636.534 104.88H660.474V88.88H636.534V104.88ZM652.474 96.88V175H668.474V96.88H652.474ZM660.474 167H636.534V183H660.474V167ZM644.534 175V163.94H628.534V175H644.534ZM629.799 159.623C628.277 161.996 626.086 164.039 622.969 165.701L630.498 179.819C635.782 177.001 640.124 173.164 643.269 168.257L629.799 159.623ZM622.903 165.737C620.164 167.231 616.72 168.12 612.314 168.12V184.12C618.921 184.12 625.09 182.769 630.565 179.783L622.903 165.737ZM612.314 168.12C607.42 168.12 603.11 166.884 599.194 164.436L590.714 178.004C597.251 182.09 604.515 184.12 612.314 184.12V168.12ZM599.28 164.491C595.36 161.971 592.127 158.382 589.627 153.458L575.36 160.702C579.021 167.911 584.094 173.749 590.628 177.949L599.28 164.491ZM589.692 153.59C587.317 148.69 586.014 142.825 586.014 135.8H570.014C570.014 144.828 571.698 153.15 575.295 160.57L589.692 153.59ZM644.534 135.94C644.534 128.41 642.371 121.507 637.228 116.221L625.76 127.379C627.337 128.999 628.534 131.524 628.534 135.94H644.534ZM637.306 116.302C632.525 111.249 626.409 108.62 619.454 108.62V124.62C622.018 124.62 623.929 125.444 625.682 127.298L637.306 116.302ZM619.454 108.62C612.504 108.62 606.385 111.241 601.54 116.221L613.008 127.379C614.882 125.452 616.883 124.62 619.454 124.62V108.62ZM601.538 116.223C596.45 121.456 594.374 128.342 594.374 135.8H610.374C610.374 131.312 611.564 128.864 613.01 127.377L601.538 116.223ZM594.374 135.8C594.374 143.28 596.457 150.144 601.389 155.5L613.158 144.66C611.557 142.922 610.374 140.267 610.374 135.8H594.374ZM601.54 155.659C606.385 160.639 612.504 163.26 619.454 163.26V147.26C616.883 147.26 614.882 146.428 613.008 144.501L601.54 155.659ZM619.454 163.26C626.409 163.26 632.525 160.631 637.306 155.578L625.682 144.582C623.929 146.436 622.018 147.26 619.454 147.26V163.26ZM637.228 155.659C642.371 150.373 644.534 143.47 644.534 135.94H628.534C628.534 140.356 627.337 142.881 625.76 144.501L637.228 155.659Z" mask="url(#path-44-outside-1_218_7184)"/></g><defs><clipPath id="clip0_218_7184"><rect width="900" height="254" fill="#fff" rx="24"/></clipPath></defs></svg>