<svg xmlns="http://www.w3.org/2000/svg" width="900" height="254" fill="none" viewBox="0 0 900 254"><g clip-path="url(#clip0_218_7065)"><rect width="900" height="254" fill="#1D1D24" rx="24"/><circle cx="-28" cy="140.25" r="240" stroke="#fff" stroke-linecap="round"/><path fill="#9B8FFF" stroke="#181A22" stroke-linecap="round" d="M94.3135 172.536C83.1649 178.008 69.169 183.037 57.7581 187.878C54.6138 187.878 54.1537 194.006 52.3469 196.209C50.589 198.352 48.9729 202.04 46.3768 203.191C44.5449 204.003 43.3346 205.936 42.1125 207.445C40.3157 209.664 37.9205 210.657 36.0543 212.725C29.2182 220.302 25.5115 231.444 23.232 241.151C21.4508 248.736 21.5133 259.242 23.9966 266.673C27.1395 276.078 38.5791 281.371 46.7592 285.565C61.6179 293.183 78.6813 296.886 94.8723 300.585C113.604 304.864 132.42 308.928 151.249 312.759C175.662 317.726 200.063 319.396 224.889 320.914C258.334 322.959 291.712 320.906 325.174 321.237C365.583 321.636 406.023 323.017 446.427 323.877C487.076 324.742 527.635 326.048 568.298 326.224C609.543 326.402 650.736 330.333 691.934 332.15C710.365 332.962 728.791 334.163 747.164 335.846C759.27 336.955 771.333 338.503 783.513 337.841C791.875 337.386 800.213 337.401 803.1 328.219C805.842 319.495 806.142 309.43 807.07 300.379C807.677 294.46 808.69 288.586 809.217 282.661C809.844 275.614 810.255 268.541 810.665 261.478L810.687 261.099C810.813 258.936 811.306 255.816 810.717 253.531C809.591 249.164 807.397 245.604 805.217 241.738C803.074 237.937 802.494 231.125 798.747 228.537C790.021 222.511 776.668 223.738 766.633 221.936C753.222 219.529 739.599 217.834 726.136 215.629C709.428 212.893 692.782 210.184 675.994 207.943C661.744 206.042 648.175 201.576 634.41 197.793C627.989 196.029 621.471 194.862 615 193.276C609.008 191.807 595.526 199.653 589.417 198.556C576.021 196.151 562.224 195.059 548.715 193.276C534.988 191.463 529.268 178.082 515.421 177.2C502.467 162.328 498.458 169.634 484.662 170.746C479.196 171.187 469.323 170.948 464.017 172.536C458.601 174.157 451.405 181.541 446.427 184.182C437.637 188.846 425.716 185.664 419.551 187.878C413.047 190.213 405.201 187.878 398.376 187.878C387.064 187.878 383.1 187.872 372.438 184.182C370.147 175.768 358.727 185.415 353.26 184.182C346.977 182.764 341.209 180.2 335.026 178.491C323.244 175.233 311.913 172.535 299.677 171.802C294.87 171.515 290.79 171.681 285.972 170.746C281.682 169.914 277.262 169.304 272.944 168.634C261.271 166.823 248.813 162.069 236.918 163.178C232.024 163.634 228.276 166.136 223.978 168.106C220.986 169.477 217.511 166.699 214.861 165.818C200.175 160.935 188.188 152.186 172.868 149.894C166.202 148.896 158.01 143.242 151.249 144.085C143.643 145.034 134.224 155.663 127.075 158.337C115.83 162.544 105.099 167.242 94.3135 172.536Z"/><path fill="#1D1D24" stroke="#fff" stroke-linecap="round" d="M-104.602 22.169C-108.092 23.0749 -145.337 78.5119 -147.936 80.945C-151.339 88.1095 -154.903 95.1868 -156.842 102.924C-159.534 113.669 -160.889 125.531 -160.019 136.622C-158.99 149.732 -155.375 162.844 -152.024 175.476C-150.327 181.875 -146.975 194.725 -143.743 201.674C-143.105 203.046 -142.258 204.384 -141.113 205.372C-139.596 206.68 -134.856 206.937 -132.962 207.195C-129.981 207.602 -126.968 207.757 -123.977 208.08C-116.446 208.895 -109.032 210.549 -101.477 211.153C-93.047 211.828 -84.597 211.18 -76.1647 211.83C-67.3465 212.511 -58.6841 214.307 -49.8106 214.33C-39.7265 214.357 -29.607 213.38 -19.6022 212.195C-2.17529 210.131 15.493 210.499 33.0019 211.83C44.3074 212.69 55.522 214.332 66.7519 215.841C79.6232 217.57 92.4921 218.183 105.447 218.8L106.752 218.862C130.214 219.981 153.49 223.045 176.856 225.32C191.546 226.75 206.157 229.043 220.867 230.216C251.071 232.623 282.016 230.838 311.96 226.231C323.896 224.395 335.494 222.095 347.221 219.252C353.353 217.766 359.425 215.803 365.606 214.539C367.701 214.11 369.786 213.719 371.908 213.601C372.902 213.546 373.297 212.018 373.887 211.362C375.077 210.04 376.43 208.368 377.299 206.804C378.733 204.222 369.282 204.226 367.969 204.226H367.924C364.603 204.226 362.851 204.137 360.007 202.169C358.979 201.457 356.955 201.737 355.736 201.362C353.83 200.775 351.699 199.252 349.877 198.341C348.998 197.901 345.21 196.887 344.773 196.231C343.681 194.594 341.308 194.331 340.241 192.872C336.691 188.013 329.795 185.441 324.238 183.368L323.887 183.237C316.97 180.654 309.542 178.526 302.273 177.273C297.538 176.457 292.06 177.065 287.325 177.742C283.455 178.295 278.773 178.06 276.856 174.226C275.36 171.233 272.26 171.301 271.492 167.768C270.182 161.743 264.094 159.591 258.367 160.737C255.472 161.316 253.05 161.792 250.033 161.466C246.88 161.125 240.293 161.866 237.846 159.487C235.477 157.183 236.543 152.64 235.971 149.643C235.089 145.029 235.16 140.398 234.33 135.789C229.247 107.549 192.804 102.126 170.033 110.216L169.889 110.267C166.577 111.444 162.781 112.792 159.877 114.799C158.376 115.836 157.264 117.349 155.71 118.341C153.99 119.439 151.961 121.665 149.721 121.153C145.475 120.183 142.204 117.728 138.184 116.388C131.392 114.124 124.523 116.57 117.611 116.57C115.671 116.57 111.473 117.037 110.111 115.372C108.41 113.292 110.131 111.003 110.32 108.836C110.615 105.435 109.02 101.975 108.497 98.5752C108.229 96.8341 106.6 97.1867 105.658 96.1273C103.476 93.6721 101.132 90.8989 98.4186 89.0179C93.1454 85.3626 86.392 85.0194 80.3457 86.6742C74.383 88.3061 69.5877 88.1101 63.7311 85.8929C58.1614 83.7844 51.8695 81.2506 47.0644 77.6638C42.3616 74.1532 40.0208 68.0722 37.6634 62.8721C33.6102 53.9311 28.4954 44.9855 20.9707 38.5231C9.10681 28.3342 -3.83163 23.0232 -19.2116 20.32C-28.7532 18.643 -38.3823 18.5777 -48.0397 18.3669C-58.8257 18.1314 -69.7264 17.6898 -80.4876 18.6794L-80.9958 18.7261C-88.806 19.4437 -97.0071 20.1972 -104.602 22.169Z"/><path stroke="#fff" stroke-linecap="round" d="M150.969 123.062C155.469 123.062 161.025 124.787 163.625 128.688"/><path stroke="#fff" stroke-linecap="round" d="M172.062 132.438C172.864 133.045 173.635 133.67 174.406 134.312"/><path stroke="#fff" stroke-linecap="round" d="M179.562 136.188L181.438 139.938"/><path stroke="#fff" stroke-linecap="round" d="M224.562 141.812C226.828 143.215 229.25 144.959 229.25 147.906"/><path stroke="#fff" stroke-linecap="round" d="M233 153.531C233.914 154.703 234.583 155.993 235.812 156.812"/><path stroke="#fff" stroke-linecap="round" d="M43.1562 74.3125C43.6992 75.3984 45.6413 81.9105 47.1927 82.2552C49.421 82.7504 51.0711 84.279 52.5312 86.0312"/><path stroke="#fff" stroke-linecap="round" d="M63.7812 97.2812L66.125 98.2188"/><path stroke="#181A22" stroke-linecap="round" d="M44.7188 249.469C41.4769 249.646 37.5569 250.519 34.4062 249.469"/><path stroke="#fff" stroke-linecap="round" d="M624.49 72.4852C618.307 72.8315 612.132 72.6439 606 71.4175C609.247 71.4175 608.491 67.1889 610.688 65.8967C611.873 65.1994 612.679 63.8854 613.969 63.2404C616.007 62.2211 618.75 63.4042 620.844 63.4488C623.569 63.5067 626.578 63.7879 629.203 62.98C630.82 62.4826 631.161 61.7165 632.354 60.7404C634.672 58.8437 638.542 57.9378 641.443 57.6154C644.326 57.2951 647.106 58.5595 650.036 58.2665C652.419 58.0282 654.542 56.0248 656.625 55.0113C658.538 54.0806 660.632 54.0351 662.719 54.0738C663.498 54.0882 665.057 54.8053 665.766 54.4904C666.991 53.9459 667.658 51.6315 668.917 50.7925C671.565 49.0272 674.032 47.5657 677.354 47.5113C680.948 47.4524 683.365 47.836 685.688 50.7925C688.785 54.7351 693.762 55.523 698.552 54.9071C705.827 53.9718 706.636 46.8182 710.062 41.6779C713.638 36.3146 716.845 32.7105 722.875 29.9071C728.614 27.2392 734.904 25.793 740.974 28.2925C745.178 30.0237 747.601 34.0949 751.99 35.3238C757.103 36.7554 763.084 38.4541 766.286 43.0581C768.674 46.4905 774.098 53.0963 779.177 52.1727C781.13 51.8176 782.324 48.9244 784.594 48.5529C789.427 47.7621 794.465 52.9653 797.042 56.4175C798.734 58.6844 799.309 60.9885 799.698 63.7092C799.917 65.2452 800.805 66.6159 800.974 68.1363C801.077 69.0618 802.073 72.6201 801 73.1884C798.954 74.2718 794.083 72.4852 792.016 72.4852H763.266C751.827 72.4852 740.443 73.0124 729.021 72.4852C715.18 71.8464 701.486 72.2423 687.641 72.4852C673.057 72.7411 658.425 73.3253 643.865 72.4852C637.397 72.1121 630.964 72.1227 624.49 72.4852Z"/><path stroke="#fff" stroke-linecap="round" d="M702.094 54.1876C705.161 53.5144 707.213 51.4354 710.531 51.3751C713.234 51.3259 715.521 52.7813 718.031 52.7813"/><path stroke="#fff" stroke-linecap="round" d="M723.656 50.4375L726 51.8438"/><path fill="#1D1D24" stroke="#fff" stroke-linecap="round" d="M751.071 128.345C749.299 124.711 750.231 122.893 751.781 118.51C754.113 111.918 757.66 106.593 763.292 102.312C776.62 92.1831 794.575 90.7155 810.583 93.302C826.859 95.9317 835.91 110.662 850.193 117.208C852.164 118.112 853.656 117.816 855.661 117.234C859.452 116.134 863.892 115.016 867.823 114.76C875.472 114.263 879.61 120.177 882.927 125.906C884.517 128.652 892.675 127.335 894.958 126.818C897.277 126.293 899.621 125.071 901.781 126.271C902.509 126.675 903.343 127.11 904.151 127.312C905.895 127.749 907.488 126.804 908.971 125.925L909.047 125.88C912.756 123.682 915.341 120.471 919.49 118.875C926.276 116.265 936.117 118.41 941.781 122.625C944.315 124.511 947.6 129.406 951.104 129.656C955.077 129.94 958.463 130.115 962.458 129.552C966.889 128.928 970.91 128.524 974.411 132.026C975.58 133.194 977.268 135.253 978.917 135.724C980.411 136.151 980.965 137.468 981.938 138.562C984.057 140.947 981.779 141.579 979.75 142.417C968.27 147.154 958.393 145.134 946.078 145.385C933.21 145.648 917.548 145.791 904.75 144.552C890.94 143.216 877.22 146.183 863.448 144.552C853.264 143.346 842.415 143.493 832.276 144.552C824.539 145.36 816.641 144.473 808.865 144.552C805.502 144.586 802.276 144.983 798.917 144.552C796.688 144.266 794.335 144.633 792.094 144.552C785.401 144.309 778.409 143.083 771.651 144.552C768.513 145.234 765.242 144.839 762.016 144.552C759.642 144.341 759.097 145.169 757.042 144.552C754.948 143.924 751.114 143.855 749.281 144.552C744.868 146.231 740.152 144.4 735.427 144.552C731.369 144.683 728.197 146.46 724.385 145.385C721.719 144.633 718.807 144.319 716.26 143.25C714.625 142.563 680.791 141.932 683.812 138.562C687.866 134.041 700.359 135.267 706.312 133.406C711.393 131.818 726.333 123.575 731.625 122.625C734.431 122.121 740.01 123.186 742.875 123.354C743.627 123.398 748.987 126.471 751.071 128.345Z"/><path stroke="#fff" stroke-linecap="round" d="M751.312 129.656C754.918 132.279 756.148 128.391 759.542 127.104C763.144 125.738 765.414 126.407 768.188 128.719"/><path stroke="#fff" stroke-linecap="round" d="M774.75 126.375L777.094 126.844"/><path stroke="#fff" stroke-linecap="round" d="M816 113.25C818.985 113.321 820.831 114.295 823.5 115.333C824.525 115.732 825.698 116.531 826.781 116.531"/><path stroke="#fff" stroke-linecap="round" d="M831 116.062C835.328 116.062 839.12 117.938 843.292 117.938C844.54 117.938 846.722 118.346 847.875 117.833C849.653 117.043 851.184 117.938 853.031 117.938"/><path fill="#DDD6FE" stroke="#181A22" stroke-linecap="round" d="M23.532 155.996C-12.9098 172.413 -35.1572 137.671 -35.1572 137.671C-35.1572 137.671 -32.7985 273.547 -28.6555 290.58C-21.9223 318.261 -56.0069 383.713 -35.1572 404.562C-27.1746 412.545 14.6226 385.015 23.532 392.142C35.6324 401.823 53.2156 403.358 67.907 407.247C91.4733 413.485 115.065 420.084 139.157 424.017C166.549 428.49 193.539 427.277 221.136 427.976C295.505 429.858 369.547 439.297 444.053 434.33C532.75 428.417 621.011 418.001 709.365 408.184C745.879 404.127 782.264 400.363 818.845 396.934C838.708 395.072 862.695 394.735 881.24 386.622C888.902 383.269 895.475 381.811 903.74 380.892C909.036 380.304 916.329 374.477 921.657 372.559C927.308 370.525 934.487 367.993 940.407 370.684C946.06 373.254 945.251 361.684 946.136 358.496C949.162 347.605 943.542 336.671 940.407 326.413C936.818 314.667 933.09 302.91 929.365 291.205C923.068 271.413 911.433 270.26 894.574 261.83C887.082 258.084 879.061 255.131 871.032 252.455C857.199 247.844 845.254 238.88 831.97 232.976C821.676 228.401 810.053 228.602 799.678 224.33C786.297 218.82 773.543 214.485 760.303 208.601C750.418 204.207 736.453 206.621 725.824 206.621C718.807 206.621 712.391 204.972 705.615 204.746C680.634 203.914 657.573 220.509 634.365 227.246C621.284 231.044 609.695 225.432 598.324 219.746C588.57 214.87 574.279 217.013 565.615 210.996C556.557 204.706 547.876 205.607 538.324 200.58C524.995 193.565 511.848 193.074 497.074 193.496C490.71 193.678 484.005 196.511 478.324 199.121C469.025 203.394 456.842 203.725 446.865 206.621C429.304 211.72 413.311 211.18 395.824 207.038C388.298 205.256 380.684 207.929 373.324 204.746C365.617 201.414 358.127 198.923 349.782 197.663C343.229 196.674 337.018 197.241 330.615 194.955C324.362 192.722 319.965 188.028 312.907 187.871C299.019 187.563 285.47 184.121 271.657 184.121C261.431 184.121 260.92 178.351 253.324 174.33C243.355 169.052 234.952 162.46 225.615 155.996C210.216 145.335 205.304 167.598 189.157 167.246C174.513 166.928 104.513 133.926 91.4053 137.671C68.5593 144.199 45.0894 146.285 23.532 155.996Z"/><path stroke="#181A22" stroke-linecap="round" d="M260.155 184.25C265.73 187.037 271.114 190.678 277.03 192.688C283.145 194.764 290.004 195.84 295.78 198.677C299.736 200.62 303.036 202.383 306.457 205.135C309.384 207.489 312.931 208.961 316.614 209.562C322.403 210.509 328.288 210.413 334.062 211.542C339.865 212.676 345.588 213.486 351.457 214.146C354.97 214.541 358.372 215.139 361.77 216.125C364.954 217.05 367.835 218.642 371.093 219.406C377.729 220.963 383.212 223.704 388.593 227.74C393.762 231.616 399.177 232.797 405.78 233.365C410.117 233.738 415.648 234.34 419.53 236.281"/><path stroke="#181A22" stroke-linecap="round" d="M430.312 239.562C431.604 240.067 432.681 240.5 434.062 240.5"/><path stroke="#181A22" stroke-linecap="round" d="M441.562 241.906C443.892 242.589 446.332 243.028 448.593 243.781"/><path stroke="#181A22" stroke-linecap="round" d="M178.124 168.781C183.895 171.117 189.626 173.396 195.468 175.344"/><path stroke="#181A22" stroke-linecap="round" d="M473.124 201C473.124 201 480.197 199.25 485.259 199.25C487.797 199.25 490.168 199.719 492.655 199.719"/><path stroke="#181A22" stroke-linecap="round" d="M502.03 201.125C503.302 201.735 504.46 202.135 505.78 202.531"/><path stroke="#181A22" stroke-linecap="round" d="M512.812 204.406C514.264 205.236 515.366 205.812 517.03 205.812"/><path stroke="#181A22" stroke-linecap="round" d="M619.218 227.844C629.896 230.153 641.183 228.312 652.004 228.312C659.688 228.312 667.358 228.781 674.999 228.781"/><path stroke="#181A22" stroke-linecap="round" d="M701.718 230.188C705.205 232.099 708.151 233.291 712.03 233.938"/><path stroke="#181A22" stroke-linecap="round" d="M719.062 235.344C720.568 236.446 722.451 238.299 724.4 238.599C724.969 238.686 724.924 238.631 725.155 239.094"/><path stroke="#181A22" stroke-linecap="round" d="M21.5615 157.041C30.9094 155.569 40.395 154.854 49.6865 157.041"/><path stroke="#181A22" stroke-linecap="round" d="M56.249 158C59.5811 158.366 62.7631 159.168 66.0928 159.406"/><path stroke="#181A22" stroke-linecap="round" d="M494.062 252.688C502.15 254.49 510.303 256.691 518.541 257.74C526.354 258.735 534.354 258.63 542.213 258.781C560.368 259.13 578.574 259.898 596.692 258.312C608.914 257.243 621.13 256.799 633.384 256.333C639.986 256.083 646.46 255.605 652.968 256.906"/><path stroke="#181A22" stroke-linecap="round" d="M119.53 251.75L124.687 254.562"/><path stroke="#181A22" stroke-linecap="round" d="M321.093 200.656C328.55 201.713 335.901 203.6 343.437 203.833C351.507 204.083 359.515 204.083 367.499 205.344"/><path stroke="#181A22" stroke-linecap="round" d="M525.937 227.844C541.359 231.149 557.13 230.894 572.655 233.469C582.344 235.076 592.045 236.281 601.874 236.281"/><path stroke="#181A22" stroke-linecap="round" d="M617.812 236.75L621.562 237.688"/><path stroke="#181A22" stroke-linecap="round" d="M629.999 237.688H632.343"/><path stroke="#181A22" stroke-linecap="round" d="M250.78 199.719C269.804 210.589 289.489 218.776 310.78 223.885C316.686 225.303 322.787 226.516 328.827 227.141C335.865 227.869 342.653 229.901 349.66 230.865C359.587 232.229 369.421 233.733 379.4 234.641C387.969 235.42 396.459 236.911 404.999 237.688"/><path stroke="#181A22" stroke-linecap="round" d="M303.632 236.164C303.987 236.096 304.326 236.047 304.687 236.047"/><path fill="#1D1D24" stroke="#1D1D24" stroke-width="8" d="M301.76 108.832C294.834 105.386 285.778 102.941 276.064 101.436C274.559 91.7207 272.114 82.665 268.668 75.7385C264.993 68.3509 259.431 62 251.5 62C243.571 62 238.01 68.3503 234.335 75.7373C230.889 82.6635 228.442 91.7193 226.936 101.436C217.221 102.941 208.165 105.386 201.239 108.832C193.851 112.507 187.5 118.069 187.5 126C187.5 133.929 193.851 139.491 201.239 143.166C208.165 146.611 217.221 149.058 226.936 150.564C228.441 160.278 230.886 169.334 234.332 176.26C238.007 183.648 243.569 190 251.5 190C259.429 190 264.991 183.649 268.666 176.261C272.111 169.335 274.558 160.279 276.064 150.564C285.779 149.058 294.835 146.612 301.761 143.167C309.149 139.492 315.5 133.931 315.5 126C315.5 118.069 309.148 112.507 301.76 108.832Z"/><path fill="#fff" d="M272.032 104.968C269.198 83.731 262.022 66 251 66C239.981 66 232.805 83.728 229.968 104.968C208.731 107.802 191 114.978 191 126C191 137.019 208.731 144.195 229.968 147.032C232.802 168.266 239.978 186 251 186C262.019 186 269.195 168.269 272.032 147.032C293.269 144.195 311 137.022 311 126C311 114.978 293.266 107.802 272.032 104.968ZM229.278 140.842C208.937 137.904 197.076 131.18 197.076 125.997C197.076 120.814 208.94 114.09 229.278 111.152C228.829 116.049 228.596 121.048 228.596 125.997C228.596 130.946 228.829 135.951 229.278 140.842ZM251.003 72.0731C256.186 72.0731 262.91 83.9367 265.848 104.274C260.954 103.826 255.952 103.593 251.003 103.593C246.054 103.593 241.052 103.826 236.158 104.274C239.096 83.9337 245.82 72.0731 251.003 72.0731ZM272.726 140.842C271.725 140.989 267.617 141.468 266.579 141.573C266.477 142.613 265.992 146.718 265.848 147.719C262.91 168.06 256.186 179.924 251.003 179.924C245.82 179.924 239.096 168.06 236.158 147.719C236.014 146.718 235.529 142.61 235.427 141.573C234.955 136.752 234.669 131.573 234.669 125.997C234.669 120.424 234.955 115.245 235.427 110.418C240.248 109.945 245.427 109.66 251.003 109.66C256.576 109.66 261.755 109.945 266.579 110.418C267.62 110.52 271.725 111.005 272.726 111.149C293.066 114.087 304.933 120.814 304.933 125.994C304.93 131.173 293.066 137.904 272.726 140.842Z"/><mask id="path-44-outside-1_218_7065" width="282" height="115" x="351" y="68" fill="#000" maskUnits="userSpaceOnUse"><rect width="282" height="115" x="351" y="68" fill="#fff"/><path d="M434.58 108.36C434.58 114.053 433.273 119.28 430.66 124.04C428.047 128.707 424.033 132.487 418.62 135.38C413.207 138.273 406.487 139.72 398.46 139.72H383.62V175H359.68V76.72H398.46C406.3 76.72 412.927 78.0733 418.34 80.78C423.753 83.4867 427.813 87.22 430.52 91.98C433.227 96.74 434.58 102.2 434.58 108.36ZM396.64 120.68C401.213 120.68 404.62 119.607 406.86 117.46C409.1 115.313 410.22 112.28 410.22 108.36C410.22 104.44 409.1 101.407 406.86 99.26C404.62 97.1133 401.213 96.04 396.64 96.04H383.62V120.68H396.64ZM532.163 76.72V175H508.223V134.54H470.983V175H447.043V76.72H470.983V115.22H508.223V76.72H532.163ZM624.346 108.36C624.346 114.053 623.039 119.28 620.426 124.04C617.812 128.707 613.799 132.487 608.386 135.38C602.972 138.273 596.252 139.72 588.226 139.72H573.386V175H549.446V76.72H588.226C596.066 76.72 602.692 78.0733 608.106 80.78C613.519 83.4867 617.579 87.22 620.286 91.98C622.992 96.74 624.346 102.2 624.346 108.36ZM586.406 120.68C590.979 120.68 594.386 119.607 596.626 117.46C598.866 115.313 599.986 112.28 599.986 108.36C599.986 104.44 598.866 101.407 596.626 99.26C594.386 97.1133 590.979 96.04 586.406 96.04H573.386V120.68H586.406Z"/></mask><path fill="#fff" d="M434.58 108.36C434.58 114.053 433.273 119.28 430.66 124.04C428.047 128.707 424.033 132.487 418.62 135.38C413.207 138.273 406.487 139.72 398.46 139.72H383.62V175H359.68V76.72H398.46C406.3 76.72 412.927 78.0733 418.34 80.78C423.753 83.4867 427.813 87.22 430.52 91.98C433.227 96.74 434.58 102.2 434.58 108.36ZM396.64 120.68C401.213 120.68 404.62 119.607 406.86 117.46C409.1 115.313 410.22 112.28 410.22 108.36C410.22 104.44 409.1 101.407 406.86 99.26C404.62 97.1133 401.213 96.04 396.64 96.04H383.62V120.68H396.64ZM532.163 76.72V175H508.223V134.54H470.983V175H447.043V76.72H470.983V115.22H508.223V76.72H532.163ZM624.346 108.36C624.346 114.053 623.039 119.28 620.426 124.04C617.812 128.707 613.799 132.487 608.386 135.38C602.972 138.273 596.252 139.72 588.226 139.72H573.386V175H549.446V76.72H588.226C596.066 76.72 602.692 78.0733 608.106 80.78C613.519 83.4867 617.579 87.22 620.286 91.98C622.992 96.74 624.346 102.2 624.346 108.36ZM586.406 120.68C590.979 120.68 594.386 119.607 596.626 117.46C598.866 115.313 599.986 112.28 599.986 108.36C599.986 104.44 598.866 101.407 596.626 99.26C594.386 97.1133 590.979 96.04 586.406 96.04H573.386V120.68H586.406Z"/><path fill="#1D1D24" d="M430.66 124.04L437.64 127.949C437.651 127.929 437.662 127.91 437.673 127.89L430.66 124.04ZM418.62 135.38L414.849 128.325H414.849L418.62 135.38ZM383.62 139.72V131.72C379.202 131.72 375.62 135.302 375.62 139.72H383.62ZM383.62 175V183C388.038 183 391.62 179.418 391.62 175H383.62ZM359.68 175H351.68C351.68 179.418 355.262 183 359.68 183V175ZM359.68 76.72V68.72C355.262 68.72 351.68 72.3017 351.68 76.72H359.68ZM418.34 80.78L421.918 73.6246L418.34 80.78ZM383.62 96.04V88.04C379.202 88.04 375.62 91.6217 375.62 96.04H383.62ZM383.62 120.68H375.62C375.62 125.098 379.202 128.68 383.62 128.68V120.68ZM426.58 108.36C426.58 112.775 425.581 116.668 423.647 120.19L437.673 127.89C440.965 121.892 442.58 115.332 442.58 108.36H426.58ZM423.68 120.131C421.919 123.276 419.118 126.043 414.849 128.325L422.391 142.435C428.949 138.93 434.174 134.138 437.64 127.949L423.68 120.131ZM414.849 128.325C410.898 130.436 405.563 131.72 398.46 131.72V147.72C407.411 147.72 415.515 146.11 422.391 142.435L414.849 128.325ZM398.46 131.72H383.62V147.72H398.46V131.72ZM375.62 139.72V175H391.62V139.72H375.62ZM383.62 167H359.68V183H383.62V167ZM367.68 175V76.72H351.68V175H367.68ZM359.68 84.72H398.46V68.72H359.68V84.72ZM398.46 84.72C405.412 84.72 410.738 85.9234 414.762 87.9354L421.918 73.6246C415.115 70.2232 407.188 68.72 398.46 68.72V84.72ZM414.762 87.9354C418.913 90.0108 421.724 92.696 423.566 95.9344L437.474 88.0256C433.902 81.744 428.594 76.9625 421.918 73.6246L414.762 87.9354ZM423.566 95.9344C425.505 99.3444 426.58 103.41 426.58 108.36H442.58C442.58 100.99 440.949 94.1356 437.474 88.0256L423.566 95.9344ZM396.64 128.68C402.309 128.68 408.09 127.362 412.395 123.236L401.325 111.684C401.15 111.851 400.117 112.68 396.64 112.68V128.68ZM412.395 123.236C416.601 119.205 418.22 113.852 418.22 108.36H402.22C402.22 110.708 401.599 111.421 401.325 111.684L412.395 123.236ZM418.22 108.36C418.22 102.868 416.601 97.5146 412.395 93.4841L401.325 105.036C401.599 105.299 402.22 106.012 402.22 108.36H418.22ZM412.395 93.4841C408.09 89.358 402.309 88.04 396.64 88.04V104.04C400.117 104.04 401.15 104.869 401.325 105.036L412.395 93.4841ZM396.64 88.04H383.62V104.04H396.64V88.04ZM375.62 96.04V120.68H391.62V96.04H375.62ZM383.62 128.68H396.64V112.68H383.62V128.68ZM532.163 76.72H540.163C540.163 72.3017 536.582 68.72 532.163 68.72V76.72ZM532.163 175V183C536.582 183 540.163 179.418 540.163 175H532.163ZM508.223 175H500.223C500.223 179.418 503.805 183 508.223 183V175ZM508.223 134.54H516.223C516.223 130.122 512.642 126.54 508.223 126.54V134.54ZM470.983 134.54V126.54C466.565 126.54 462.983 130.122 462.983 134.54H470.983ZM470.983 175V183C475.402 183 478.983 179.418 478.983 175H470.983ZM447.043 175H439.043C439.043 179.418 442.625 183 447.043 183V175ZM447.043 76.72V68.72C442.625 68.72 439.043 72.3017 439.043 76.72H447.043ZM470.983 76.72H478.983C478.983 72.3017 475.402 68.72 470.983 68.72V76.72ZM470.983 115.22H462.983C462.983 119.638 466.565 123.22 470.983 123.22V115.22ZM508.223 115.22V123.22C512.642 123.22 516.223 119.638 516.223 115.22H508.223ZM508.223 76.72V68.72C503.805 68.72 500.223 72.3017 500.223 76.72H508.223ZM524.163 76.72V175H540.163V76.72H524.163ZM532.163 167H508.223V183H532.163V167ZM516.223 175V134.54H500.223V175H516.223ZM508.223 126.54H470.983V142.54H508.223V126.54ZM462.983 134.54V175H478.983V134.54H462.983ZM470.983 167H447.043V183H470.983V167ZM455.043 175V76.72H439.043V175H455.043ZM447.043 84.72H470.983V68.72H447.043V84.72ZM462.983 76.72V115.22H478.983V76.72H462.983ZM470.983 123.22H508.223V107.22H470.983V123.22ZM516.223 115.22V76.72H500.223V115.22H516.223ZM508.223 84.72H532.163V68.72H508.223V84.72ZM620.426 124.04L627.406 127.949C627.417 127.929 627.427 127.91 627.438 127.89L620.426 124.04ZM608.386 135.38L604.615 128.325L608.386 135.38ZM573.386 139.72V131.72C568.967 131.72 565.386 135.302 565.386 139.72H573.386ZM573.386 175V183C577.804 183 581.386 179.418 581.386 175H573.386ZM549.446 175H541.446C541.446 179.418 545.027 183 549.446 183V175ZM549.446 76.72V68.72C545.027 68.72 541.446 72.3017 541.446 76.72H549.446ZM608.106 80.78L611.683 73.6246L608.106 80.78ZM573.386 96.04V88.04C568.967 88.04 565.386 91.6217 565.386 96.04H573.386ZM573.386 120.68H565.386C565.386 125.098 568.967 128.68 573.386 128.68V120.68ZM616.346 108.36C616.346 112.775 615.347 116.668 613.413 120.19L627.438 127.89C630.731 121.892 632.346 115.332 632.346 108.36H616.346ZM613.446 120.131C611.685 123.276 608.883 126.043 604.615 128.325L612.157 142.435C618.714 138.93 623.94 134.138 627.406 127.949L613.446 120.131ZM604.615 128.325C600.664 130.436 595.328 131.72 588.226 131.72V147.72C597.176 147.72 605.281 146.11 612.157 142.435L604.615 128.325ZM588.226 131.72H573.386V147.72H588.226V131.72ZM565.386 139.72V175H581.386V139.72H565.386ZM573.386 167H549.446V183H573.386V167ZM557.446 175V76.72H541.446V175H557.446ZM549.446 84.72H588.226V68.72H549.446V84.72ZM588.226 84.72C595.178 84.72 600.504 85.9234 604.528 87.9354L611.683 73.6246C604.881 70.2232 596.953 68.72 588.226 68.72V84.72ZM604.528 87.9354C608.679 90.0108 611.49 92.696 613.331 95.9344L627.24 88.0256C623.668 81.744 618.359 76.9625 611.683 73.6246L604.528 87.9354ZM613.331 95.9344C615.27 99.3444 616.346 103.41 616.346 108.36H632.346C632.346 100.99 630.714 94.1356 627.24 88.0256L613.331 95.9344ZM586.406 128.68C592.075 128.68 597.855 127.362 602.161 123.236L591.09 111.684C590.916 111.851 589.883 112.68 586.406 112.68V128.68ZM602.161 123.236C606.367 119.205 607.986 113.852 607.986 108.36H591.986C591.986 110.708 591.365 111.421 591.09 111.684L602.161 123.236ZM607.986 108.36C607.986 102.868 606.367 97.5146 602.161 93.4841L591.09 105.036C591.365 105.299 591.986 106.012 591.986 108.36H607.986ZM602.161 93.4841C597.855 89.358 592.075 88.04 586.406 88.04V104.04C589.883 104.04 590.916 104.869 591.09 105.036L602.161 93.4841ZM586.406 88.04H573.386V104.04H586.406V88.04ZM565.386 96.04V120.68H581.386V96.04H565.386ZM573.386 128.68H586.406V112.68H573.386V128.68Z" mask="url(#path-44-outside-1_218_7065)"/></g><defs><clipPath id="clip0_218_7065"><rect width="900" height="254" fill="#fff" rx="24"/></clipPath></defs></svg>