<svg xmlns="http://www.w3.org/2000/svg" width="900" height="254" fill="none" viewBox="0 0 900 254"><g clip-path="url(#clip0_218_6826)"><rect width="900" height="254" fill="#1D1D24" rx="24"/><circle cx="-28" cy="140.25" r="240" stroke="#fff" stroke-linecap="round"/><path fill="#9B8FFF" stroke="#181A22" stroke-linecap="round" d="M94.3135 172.536C83.1649 178.008 69.169 183.037 57.7581 187.878C54.6138 187.878 54.1537 194.006 52.3469 196.209C50.589 198.352 48.9729 202.04 46.3768 203.191C44.5449 204.003 43.3346 205.936 42.1125 207.445C40.3157 209.664 37.9205 210.657 36.0543 212.725C29.2182 220.302 25.5115 231.444 23.232 241.151C21.4508 248.736 21.5133 259.242 23.9966 266.673C27.1395 276.078 38.5791 281.371 46.7592 285.565C61.6179 293.183 78.6813 296.886 94.8723 300.585C113.604 304.864 132.42 308.928 151.249 312.759C175.662 317.726 200.063 319.396 224.889 320.914C258.334 322.959 291.712 320.906 325.174 321.237C365.583 321.636 406.023 323.017 446.427 323.877C487.076 324.742 527.635 326.048 568.298 326.224C609.543 326.402 650.736 330.333 691.934 332.15C710.365 332.962 728.791 334.163 747.164 335.846C759.27 336.955 771.333 338.503 783.513 337.841C791.875 337.386 800.213 337.401 803.1 328.219C805.842 319.495 806.142 309.43 807.07 300.379C807.677 294.46 808.69 288.586 809.217 282.661C809.844 275.614 810.255 268.541 810.665 261.478L810.687 261.099C810.813 258.936 811.306 255.816 810.717 253.531C809.591 249.164 807.397 245.604 805.217 241.738C803.074 237.937 802.494 231.125 798.747 228.537C790.021 222.511 776.668 223.738 766.633 221.936C753.222 219.529 739.599 217.834 726.136 215.629C709.428 212.893 692.782 210.184 675.994 207.943C661.744 206.042 648.175 201.576 634.41 197.793C627.989 196.029 621.471 194.862 615 193.276C609.008 191.807 595.526 199.653 589.417 198.556C576.021 196.151 562.224 195.059 548.715 193.276C534.988 191.463 529.268 178.082 515.421 177.2C502.467 162.328 498.458 169.634 484.662 170.746C479.196 171.187 469.323 170.948 464.017 172.536C458.601 174.157 451.405 181.541 446.427 184.182C437.637 188.846 425.716 185.664 419.551 187.878C413.047 190.213 405.201 187.878 398.376 187.878C387.064 187.878 383.1 187.872 372.438 184.182C370.147 175.768 358.727 185.415 353.26 184.182C346.977 182.764 341.209 180.2 335.026 178.491C323.244 175.233 311.913 172.535 299.677 171.802C294.87 171.515 290.79 171.681 285.972 170.746C281.682 169.914 277.262 169.304 272.944 168.634C261.271 166.823 248.813 162.069 236.918 163.178C232.024 163.634 228.276 166.136 223.978 168.106C220.986 169.477 217.511 166.699 214.861 165.818C200.175 160.935 188.188 152.186 172.868 149.894C166.202 148.896 158.01 143.242 151.249 144.085C143.643 145.034 134.224 155.663 127.075 158.337C115.83 162.544 105.099 167.242 94.3135 172.536Z"/><path fill="#1D1D24" stroke="#fff" stroke-linecap="round" d="M-104.602 22.169C-108.092 23.0749 -145.337 78.5119 -147.936 80.945C-151.339 88.1095 -154.903 95.1868 -156.842 102.924C-159.534 113.669 -160.889 125.531 -160.019 136.622C-158.99 149.732 -155.375 162.844 -152.024 175.476C-150.327 181.875 -146.975 194.725 -143.743 201.674C-143.105 203.046 -142.258 204.384 -141.113 205.372C-139.596 206.68 -134.856 206.937 -132.962 207.195C-129.981 207.602 -126.968 207.757 -123.977 208.08C-116.446 208.895 -109.032 210.549 -101.477 211.153C-93.047 211.828 -84.597 211.18 -76.1647 211.83C-67.3465 212.511 -58.6841 214.307 -49.8106 214.33C-39.7265 214.357 -29.607 213.38 -19.6022 212.195C-2.17529 210.131 15.493 210.499 33.0019 211.83C44.3074 212.69 55.522 214.332 66.7519 215.841C79.6232 217.57 92.4921 218.183 105.447 218.8L106.752 218.862C130.214 219.981 153.49 223.045 176.856 225.32C191.546 226.75 206.157 229.043 220.867 230.216C251.071 232.623 282.016 230.838 311.96 226.231C323.896 224.395 335.494 222.095 347.221 219.252C353.353 217.766 359.425 215.803 365.606 214.539C367.701 214.11 369.786 213.719 371.908 213.601C372.902 213.546 373.297 212.018 373.887 211.362C375.077 210.04 376.43 208.368 377.299 206.804C378.733 204.222 369.282 204.226 367.969 204.226H367.924C364.603 204.226 362.851 204.137 360.007 202.169C358.979 201.457 356.955 201.737 355.736 201.362C353.83 200.775 351.699 199.252 349.877 198.341C348.998 197.901 345.21 196.887 344.773 196.231C343.681 194.594 341.308 194.331 340.241 192.872C336.691 188.013 329.795 185.441 324.238 183.368L323.887 183.237C316.97 180.654 309.542 178.526 302.273 177.273C297.538 176.457 292.06 177.065 287.325 177.742C283.455 178.295 278.773 178.06 276.856 174.226C275.36 171.233 272.26 171.301 271.492 167.768C270.182 161.743 264.094 159.591 258.367 160.737C255.472 161.316 253.05 161.792 250.033 161.466C246.88 161.125 240.293 161.866 237.846 159.487C235.477 157.183 236.543 152.64 235.971 149.643C235.089 145.029 235.16 140.398 234.33 135.789C229.247 107.549 192.804 102.126 170.033 110.216L169.889 110.267C166.577 111.444 162.781 112.792 159.877 114.799C158.376 115.836 157.264 117.349 155.71 118.341C153.99 119.439 151.961 121.665 149.721 121.153C145.475 120.183 142.204 117.728 138.184 116.388C131.392 114.124 124.523 116.57 117.611 116.57C115.671 116.57 111.473 117.037 110.111 115.372C108.41 113.292 110.131 111.003 110.32 108.836C110.615 105.435 109.02 101.975 108.497 98.5752C108.229 96.8341 106.6 97.1867 105.658 96.1273C103.476 93.6721 101.132 90.8989 98.4186 89.0179C93.1454 85.3626 86.392 85.0194 80.3457 86.6742C74.383 88.3061 69.5877 88.1101 63.7311 85.8929C58.1614 83.7844 51.8695 81.2506 47.0644 77.6638C42.3616 74.1532 40.0208 68.0722 37.6634 62.8721C33.6102 53.9311 28.4954 44.9855 20.9707 38.5231C9.10681 28.3342 -3.83163 23.0232 -19.2116 20.32C-28.7532 18.643 -38.3823 18.5777 -48.0397 18.3669C-58.8257 18.1314 -69.7264 17.6898 -80.4876 18.6794L-80.9958 18.7261C-88.806 19.4437 -97.0071 20.1972 -104.602 22.169Z"/><path stroke="#fff" stroke-linecap="round" d="M150.969 123.062C155.469 123.062 161.025 124.787 163.625 128.688"/><path stroke="#fff" stroke-linecap="round" d="M172.062 132.438C172.864 133.045 173.635 133.67 174.406 134.312"/><path stroke="#fff" stroke-linecap="round" d="M179.562 136.188L181.438 139.938"/><path stroke="#fff" stroke-linecap="round" d="M224.562 141.812C226.828 143.215 229.25 144.959 229.25 147.906"/><path stroke="#fff" stroke-linecap="round" d="M233 153.531C233.914 154.703 234.583 155.993 235.812 156.812"/><path stroke="#fff" stroke-linecap="round" d="M43.1562 74.3125C43.6992 75.3984 45.6413 81.9105 47.1927 82.2552C49.421 82.7504 51.0711 84.279 52.5312 86.0312"/><path stroke="#fff" stroke-linecap="round" d="M63.7812 97.2812L66.125 98.2188"/><path stroke="#181A22" stroke-linecap="round" d="M44.7188 249.469C41.4769 249.646 37.5569 250.519 34.4062 249.469"/><path stroke="#fff" stroke-linecap="round" d="M624.49 72.4852C618.307 72.8315 612.132 72.6439 606 71.4175C609.247 71.4175 608.491 67.1889 610.688 65.8967C611.873 65.1994 612.679 63.8854 613.969 63.2404C616.007 62.2211 618.75 63.4042 620.844 63.4488C623.569 63.5067 626.578 63.7879 629.203 62.98C630.82 62.4826 631.161 61.7165 632.354 60.7404C634.672 58.8437 638.542 57.9378 641.443 57.6154C644.326 57.2951 647.106 58.5595 650.036 58.2665C652.419 58.0282 654.542 56.0248 656.625 55.0113C658.538 54.0806 660.632 54.0351 662.719 54.0738C663.498 54.0882 665.057 54.8053 665.766 54.4904C666.991 53.9459 667.658 51.6315 668.917 50.7925C671.565 49.0272 674.032 47.5657 677.354 47.5113C680.948 47.4524 683.365 47.836 685.688 50.7925C688.785 54.7351 693.762 55.523 698.552 54.9071C705.827 53.9718 706.636 46.8182 710.062 41.6779C713.638 36.3146 716.845 32.7105 722.875 29.9071C728.614 27.2392 734.904 25.793 740.974 28.2925C745.178 30.0237 747.601 34.0949 751.99 35.3238C757.103 36.7554 763.084 38.4541 766.286 43.0581C768.674 46.4905 774.098 53.0963 779.177 52.1727C781.13 51.8176 782.324 48.9244 784.594 48.5529C789.427 47.7621 794.465 52.9653 797.042 56.4175C798.734 58.6844 799.309 60.9885 799.698 63.7092C799.917 65.2452 800.805 66.6159 800.974 68.1363C801.077 69.0618 802.073 72.6201 801 73.1884C798.954 74.2718 794.083 72.4852 792.016 72.4852H763.266C751.827 72.4852 740.443 73.0124 729.021 72.4852C715.18 71.8464 701.486 72.2423 687.641 72.4852C673.057 72.7411 658.425 73.3253 643.865 72.4852C637.397 72.1121 630.964 72.1227 624.49 72.4852Z"/><path stroke="#fff" stroke-linecap="round" d="M702.094 54.1876C705.161 53.5144 707.213 51.4354 710.531 51.3751C713.234 51.3259 715.521 52.7813 718.031 52.7813"/><path stroke="#fff" stroke-linecap="round" d="M723.656 50.4375L726 51.8438"/><path fill="#1D1D24" stroke="#fff" stroke-linecap="round" d="M751.071 128.345C749.299 124.711 750.231 122.893 751.781 118.51C754.113 111.918 757.66 106.593 763.292 102.312C776.62 92.1831 794.575 90.7155 810.583 93.302C826.859 95.9317 835.91 110.662 850.193 117.208C852.164 118.112 853.656 117.816 855.661 117.234C859.452 116.134 863.892 115.016 867.823 114.76C875.472 114.263 879.61 120.177 882.927 125.906C884.517 128.652 892.675 127.335 894.958 126.818C897.277 126.293 899.621 125.071 901.781 126.271C902.509 126.675 903.343 127.11 904.151 127.312C905.895 127.749 907.488 126.804 908.971 125.925L909.047 125.88C912.756 123.682 915.341 120.471 919.49 118.875C926.276 116.265 936.117 118.41 941.781 122.625C944.315 124.511 947.6 129.406 951.104 129.656C955.077 129.94 958.463 130.115 962.458 129.552C966.889 128.928 970.91 128.524 974.411 132.026C975.58 133.194 977.268 135.253 978.917 135.724C980.411 136.151 980.965 137.468 981.938 138.562C984.057 140.947 981.779 141.579 979.75 142.417C968.27 147.154 958.393 145.134 946.078 145.385C933.21 145.648 917.548 145.791 904.75 144.552C890.94 143.216 877.22 146.183 863.448 144.552C853.264 143.346 842.415 143.493 832.276 144.552C824.539 145.36 816.641 144.473 808.865 144.552C805.502 144.586 802.276 144.983 798.917 144.552C796.688 144.266 794.335 144.633 792.094 144.552C785.401 144.309 778.409 143.083 771.651 144.552C768.513 145.234 765.242 144.839 762.016 144.552C759.642 144.341 759.097 145.169 757.042 144.552C754.948 143.924 751.114 143.855 749.281 144.552C744.868 146.231 740.152 144.4 735.427 144.552C731.369 144.683 728.197 146.46 724.385 145.385C721.719 144.633 718.807 144.319 716.26 143.25C714.625 142.563 680.791 141.932 683.812 138.562C687.866 134.041 700.359 135.267 706.312 133.406C711.393 131.818 726.333 123.575 731.625 122.625C734.431 122.121 740.01 123.186 742.875 123.354C743.627 123.398 748.987 126.471 751.071 128.345Z"/><path stroke="#fff" stroke-linecap="round" d="M751.312 129.656C754.918 132.279 756.148 128.391 759.542 127.104C763.144 125.738 765.414 126.407 768.188 128.719"/><path stroke="#fff" stroke-linecap="round" d="M774.75 126.375L777.094 126.844"/><path stroke="#fff" stroke-linecap="round" d="M816 113.25C818.985 113.321 820.831 114.295 823.5 115.333C824.525 115.732 825.698 116.531 826.781 116.531"/><path stroke="#fff" stroke-linecap="round" d="M831 116.062C835.328 116.062 839.12 117.938 843.292 117.938C844.54 117.938 846.722 118.346 847.875 117.833C849.653 117.043 851.184 117.938 853.031 117.938"/><path fill="#DDD6FE" stroke="#181A22" stroke-linecap="round" d="M23.532 155.996C-12.9098 172.413 -35.1572 137.671 -35.1572 137.671C-35.1572 137.671 -32.7985 273.547 -28.6555 290.58C-21.9223 318.261 -56.0069 383.713 -35.1572 404.562C-27.1746 412.545 14.6226 385.015 23.532 392.142C35.6324 401.823 53.2156 403.358 67.907 407.247C91.4733 413.485 115.065 420.084 139.157 424.017C166.549 428.49 193.539 427.277 221.136 427.976C295.505 429.858 369.547 439.297 444.053 434.33C532.75 428.417 621.011 418.001 709.365 408.184C745.879 404.127 782.264 400.363 818.845 396.934C838.708 395.072 862.695 394.735 881.24 386.622C888.902 383.269 895.475 381.811 903.74 380.892C909.036 380.304 916.329 374.477 921.657 372.559C927.308 370.525 934.487 367.993 940.407 370.684C946.06 373.254 945.251 361.684 946.136 358.496C949.162 347.605 943.542 336.671 940.407 326.413C936.818 314.667 933.09 302.91 929.365 291.205C923.068 271.413 911.433 270.26 894.574 261.83C887.082 258.084 879.061 255.131 871.032 252.455C857.199 247.844 845.254 238.88 831.97 232.976C821.676 228.401 810.053 228.602 799.678 224.33C786.297 218.82 773.543 214.485 760.303 208.601C750.418 204.207 736.453 206.621 725.824 206.621C718.807 206.621 712.391 204.972 705.615 204.746C680.634 203.914 657.573 220.509 634.365 227.246C621.284 231.044 609.695 225.432 598.324 219.746C588.57 214.87 574.279 217.013 565.615 210.996C556.557 204.706 547.876 205.607 538.324 200.58C524.995 193.565 511.848 193.074 497.074 193.496C490.71 193.678 484.005 196.511 478.324 199.121C469.025 203.394 456.842 203.725 446.865 206.621C429.304 211.72 413.311 211.18 395.824 207.038C388.298 205.256 380.684 207.929 373.324 204.746C365.617 201.414 358.127 198.923 349.782 197.663C343.229 196.674 337.018 197.241 330.615 194.955C324.362 192.722 319.965 188.028 312.907 187.871C299.019 187.563 285.47 184.121 271.657 184.121C261.431 184.121 260.92 178.351 253.324 174.33C243.355 169.052 234.952 162.46 225.615 155.996C210.216 145.335 205.304 167.598 189.157 167.246C174.513 166.928 104.513 133.926 91.4053 137.671C68.5593 144.199 45.0894 146.285 23.532 155.996Z"/><path stroke="#181A22" stroke-linecap="round" d="M260.155 184.25C265.73 187.037 271.114 190.678 277.03 192.688C283.145 194.764 290.004 195.84 295.78 198.677C299.736 200.62 303.036 202.383 306.457 205.135C309.384 207.489 312.931 208.961 316.614 209.562C322.403 210.509 328.288 210.413 334.062 211.542C339.865 212.676 345.588 213.486 351.457 214.146C354.97 214.541 358.372 215.139 361.77 216.125C364.954 217.05 367.835 218.642 371.093 219.406C377.729 220.963 383.212 223.704 388.593 227.74C393.762 231.616 399.177 232.797 405.78 233.365C410.117 233.738 415.648 234.34 419.53 236.281"/><path stroke="#181A22" stroke-linecap="round" d="M430.312 239.562C431.604 240.067 432.681 240.5 434.062 240.5"/><path stroke="#181A22" stroke-linecap="round" d="M441.562 241.906C443.892 242.589 446.332 243.028 448.593 243.781"/><path stroke="#181A22" stroke-linecap="round" d="M178.124 168.781C183.895 171.117 189.626 173.396 195.468 175.344"/><path stroke="#181A22" stroke-linecap="round" d="M473.124 201C473.124 201 480.197 199.25 485.259 199.25C487.797 199.25 490.168 199.719 492.655 199.719"/><path stroke="#181A22" stroke-linecap="round" d="M502.03 201.125C503.302 201.735 504.46 202.135 505.78 202.531"/><path stroke="#181A22" stroke-linecap="round" d="M512.812 204.406C514.264 205.236 515.366 205.812 517.03 205.812"/><path stroke="#181A22" stroke-linecap="round" d="M619.218 227.844C629.896 230.153 641.183 228.312 652.004 228.312C659.688 228.312 667.358 228.781 674.999 228.781"/><path stroke="#181A22" stroke-linecap="round" d="M701.718 230.188C705.205 232.099 708.151 233.291 712.03 233.938"/><path stroke="#181A22" stroke-linecap="round" d="M719.062 235.344C720.568 236.446 722.451 238.299 724.4 238.599C724.969 238.686 724.924 238.631 725.155 239.094"/><path stroke="#181A22" stroke-linecap="round" d="M21.5615 157.041C30.9094 155.569 40.395 154.854 49.6865 157.041"/><path stroke="#181A22" stroke-linecap="round" d="M56.249 158C59.5811 158.366 62.7631 159.168 66.0928 159.406"/><path stroke="#181A22" stroke-linecap="round" d="M494.062 252.688C502.15 254.49 510.303 256.691 518.541 257.74C526.354 258.735 534.354 258.63 542.213 258.781C560.368 259.13 578.574 259.898 596.692 258.312C608.914 257.243 621.13 256.799 633.384 256.333C639.986 256.083 646.46 255.605 652.968 256.906"/><path stroke="#181A22" stroke-linecap="round" d="M119.53 251.75L124.687 254.562"/><path stroke="#181A22" stroke-linecap="round" d="M321.093 200.656C328.55 201.713 335.901 203.6 343.437 203.833C351.507 204.083 359.515 204.083 367.499 205.344"/><path stroke="#181A22" stroke-linecap="round" d="M525.937 227.844C541.359 231.149 557.13 230.894 572.655 233.469C582.344 235.076 592.045 236.281 601.874 236.281"/><path stroke="#181A22" stroke-linecap="round" d="M617.812 236.75L621.562 237.688"/><path stroke="#181A22" stroke-linecap="round" d="M629.999 237.688H632.343"/><path stroke="#181A22" stroke-linecap="round" d="M250.78 199.719C269.804 210.589 289.489 218.776 310.78 223.885C316.686 225.303 322.787 226.516 328.827 227.141C335.865 227.869 342.653 229.901 349.66 230.865C359.587 232.229 369.421 233.733 379.4 234.641C387.969 235.42 396.459 236.911 404.999 237.688"/><path stroke="#181A22" stroke-linecap="round" d="M303.632 236.164C303.987 236.096 304.326 236.047 304.687 236.047"/><path fill="#1D1D24" stroke="#1D1D24" stroke-width="8" d="M163.26 108.832C156.334 105.386 147.278 102.941 137.564 101.436C136.059 91.7207 133.614 82.665 130.168 75.7385C126.493 68.3509 120.931 62 113 62C105.071 62 99.5096 68.3503 95.8345 75.7373C92.3887 82.6635 89.9422 91.7193 88.4364 101.436C78.7209 102.941 69.6651 105.386 62.7386 108.832C55.3509 112.507 49 118.069 49 126C49 133.929 55.3515 139.491 62.7386 143.166C69.6649 146.611 78.7206 149.058 88.4361 150.564C89.9406 160.278 92.3864 169.334 95.8322 176.26C99.5072 183.648 105.069 190 113 190C120.929 190 126.491 183.649 130.166 176.261C133.611 169.335 136.058 160.279 137.564 150.564C147.279 149.058 156.335 146.612 163.261 143.167C170.649 139.492 177 133.931 177 126C177 118.069 170.648 112.507 163.26 108.832Z"/><path fill="#fff" d="M133.532 104.968C130.698 83.731 123.522 66 112.5 66C101.481 66 94.3053 83.728 91.4684 104.968C70.231 107.802 52.5 114.978 52.5 126C52.5 137.019 70.231 144.195 91.4684 147.032C94.3023 168.266 101.478 186 112.5 186C123.519 186 130.695 168.269 133.532 147.032C154.769 144.195 172.5 137.022 172.5 126C172.5 114.978 154.766 107.802 133.532 104.968ZM90.7776 140.842C70.4368 137.904 58.5761 131.18 58.5761 125.997C58.5761 120.814 70.4398 114.09 90.7776 111.152C90.3293 116.049 90.096 121.048 90.096 125.997C90.096 130.946 90.3293 135.951 90.7776 140.842ZM112.503 72.0731C117.686 72.0731 124.41 83.9367 127.348 104.274C122.454 103.826 117.452 103.593 112.503 103.593C107.554 103.593 102.552 103.826 97.6581 104.274C100.596 83.9337 107.32 72.0731 112.503 72.0731ZM134.226 140.842C133.225 140.989 129.117 141.468 128.079 141.573C127.977 142.613 127.492 146.718 127.348 147.719C124.41 168.06 117.686 179.924 112.503 179.924C107.32 179.924 100.596 168.06 97.6581 147.719C97.5138 146.718 97.0287 142.61 96.9274 141.573C96.4546 136.752 96.169 131.573 96.169 125.997C96.169 120.424 96.4546 115.245 96.9274 110.418C101.748 109.945 106.927 109.66 112.503 109.66C118.076 109.66 123.255 109.945 128.079 110.418C129.12 110.52 133.225 111.005 134.226 111.149C154.566 114.087 166.433 120.814 166.433 125.994C166.43 131.173 154.566 137.904 134.226 140.842Z"/><mask id="path-44-outside-1_218_6826" width="566" height="124" x="206.5" y="72" fill="#000" maskUnits="userSpaceOnUse"><rect width="566" height="124" x="206.5" y="72" fill="#fff"/><path d="M269.2 90.8V104.5H250.6V161H233.5V104.5H214.9V90.8H269.2ZM334.782 105.2L299.782 187.5H281.382L294.182 159.1L271.482 105.2H290.582L303.482 140.1L316.282 105.2H334.782ZM358.066 113.1C359.732 110.5 362.032 108.4 364.966 106.8C367.899 105.2 371.332 104.4 375.266 104.4C379.866 104.4 384.032 105.567 387.766 107.9C391.499 110.233 394.432 113.567 396.566 117.9C398.766 122.233 399.866 127.267 399.866 133C399.866 138.733 398.766 143.8 396.566 148.2C394.432 152.533 391.499 155.9 387.766 158.3C384.032 160.633 379.866 161.8 375.266 161.8C371.399 161.8 367.966 161 364.966 159.4C362.032 157.8 359.732 155.733 358.066 153.2V187.6H340.966V105.2H358.066V113.1ZM382.466 133C382.466 128.733 381.266 125.4 378.866 123C376.532 120.533 373.632 119.3 370.166 119.3C366.766 119.3 363.866 120.533 361.466 123C359.132 125.467 357.966 128.833 357.966 133.1C357.966 137.367 359.132 140.733 361.466 143.2C363.866 145.667 366.766 146.9 370.166 146.9C373.566 146.9 376.466 145.667 378.866 143.2C381.266 140.667 382.466 137.267 382.466 133ZM461.437 132.2C461.437 133.8 461.337 135.467 461.137 137.2H422.437C422.703 140.667 423.803 143.333 425.737 145.2C427.737 147 430.17 147.9 433.037 147.9C437.303 147.9 440.27 146.1 441.937 142.5H460.137C459.203 146.167 457.503 149.467 455.037 152.4C452.637 155.333 449.603 157.633 445.937 159.3C442.27 160.967 438.17 161.8 433.637 161.8C428.17 161.8 423.303 160.633 419.037 158.3C414.77 155.967 411.437 152.633 409.037 148.3C406.637 143.967 405.437 138.9 405.437 133.1C405.437 127.3 406.603 122.233 408.937 117.9C411.337 113.567 414.67 110.233 418.937 107.9C423.203 105.567 428.103 104.4 433.637 104.4C439.037 104.4 443.837 105.533 448.037 107.8C452.237 110.067 455.503 113.3 457.837 117.5C460.237 121.7 461.437 126.6 461.437 132.2ZM443.937 127.7C443.937 124.767 442.937 122.433 440.937 120.7C438.937 118.967 436.437 118.1 433.437 118.1C430.57 118.1 428.137 118.933 426.137 120.6C424.203 122.267 423.003 124.633 422.537 127.7H443.937ZM495.858 161.7C490.724 161.7 486.124 160.867 482.058 159.2C477.991 157.533 474.724 155.067 472.258 151.8C469.858 148.533 468.591 144.6 468.458 140H486.658C486.924 142.6 487.824 144.6 489.358 146C490.891 147.333 492.891 148 495.358 148C497.891 148 499.891 147.433 501.358 146.3C502.824 145.1 503.558 143.467 503.558 141.4C503.558 139.667 502.958 138.233 501.758 137.1C500.624 135.967 499.191 135.033 497.458 134.3C495.791 133.567 493.391 132.733 490.258 131.8C485.724 130.4 482.024 129 479.158 127.6C476.291 126.2 473.824 124.133 471.758 121.4C469.691 118.667 468.658 115.1 468.658 110.7C468.658 104.167 471.024 99.0667 475.758 95.4C480.491 91.6667 486.658 89.8 494.258 89.8C501.991 89.8 508.224 91.6667 512.958 95.4C517.691 99.0667 520.224 104.2 520.558 110.8H502.058C501.924 108.533 501.091 106.767 499.558 105.5C498.024 104.167 496.058 103.5 493.658 103.5C491.591 103.5 489.924 104.067 488.658 105.2C487.391 106.267 486.758 107.833 486.758 109.9C486.758 112.167 487.824 113.933 489.958 115.2C492.091 116.467 495.424 117.833 499.958 119.3C504.491 120.833 508.158 122.3 510.958 123.7C513.824 125.1 516.291 127.133 518.358 129.8C520.424 132.467 521.458 135.9 521.458 140.1C521.458 144.1 520.424 147.733 518.358 151C516.358 154.267 513.424 156.867 509.558 158.8C505.691 160.733 501.124 161.7 495.858 161.7ZM528.581 133.1C528.581 127.3 529.748 122.233 532.081 117.9C534.481 113.567 537.781 110.233 541.981 107.9C546.248 105.567 551.115 104.4 556.581 104.4C563.581 104.4 569.415 106.233 574.081 109.9C578.815 113.567 581.915 118.733 583.381 125.4H565.181C563.648 121.133 560.681 119 556.281 119C553.148 119 550.648 120.233 548.781 122.7C546.915 125.1 545.981 128.567 545.981 133.1C545.981 137.633 546.915 141.133 548.781 143.6C550.648 146 553.148 147.2 556.281 147.2C560.681 147.2 563.648 145.067 565.181 140.8H583.381C581.915 147.333 578.815 152.467 574.081 156.2C569.348 159.933 563.515 161.8 556.581 161.8C551.115 161.8 546.248 160.633 541.981 158.3C537.781 155.967 534.481 152.633 532.081 148.3C529.748 143.967 528.581 138.9 528.581 133.1ZM609.628 114.5C611.628 111.433 614.128 109.033 617.128 107.3C620.128 105.5 623.461 104.6 627.128 104.6V122.7H622.428C618.161 122.7 614.961 123.633 612.828 125.5C610.695 127.3 609.628 130.5 609.628 135.1V161H592.528V105.2H609.628V114.5ZM643.902 99.4C640.902 99.4 638.435 98.5333 636.502 96.8C634.635 95 633.702 92.8 633.702 90.2C633.702 87.5333 634.635 85.3333 636.502 83.6C638.435 81.8 640.902 80.9 643.902 80.9C646.835 80.9 649.235 81.8 651.102 83.6C653.035 85.3333 654.002 87.5333 654.002 90.2C654.002 92.8 653.035 95 651.102 96.8C649.235 98.5333 646.835 99.4 643.902 99.4ZM652.402 105.2V161H635.302V105.2H652.402ZM681.894 113.1C683.56 110.5 685.86 108.4 688.794 106.8C691.727 105.2 695.16 104.4 699.094 104.4C703.694 104.4 707.86 105.567 711.594 107.9C715.327 110.233 718.26 113.567 720.394 117.9C722.594 122.233 723.694 127.267 723.694 133C723.694 138.733 722.594 143.8 720.394 148.2C718.26 152.533 715.327 155.9 711.594 158.3C707.86 160.633 703.694 161.8 699.094 161.8C695.227 161.8 691.794 161 688.794 159.4C685.86 157.8 683.56 155.733 681.894 153.2V187.6H664.794V105.2H681.894V113.1ZM706.294 133C706.294 128.733 705.094 125.4 702.694 123C700.36 120.533 697.46 119.3 693.994 119.3C690.594 119.3 687.694 120.533 685.294 123C682.96 125.467 681.794 128.833 681.794 133.1C681.794 137.367 682.96 140.733 685.294 143.2C687.694 145.667 690.594 146.9 693.994 146.9C697.394 146.9 700.294 145.667 702.694 143.2C705.094 140.667 706.294 137.267 706.294 133ZM763.765 146.5V161H755.065C748.865 161 744.032 159.5 740.565 156.5C737.098 153.433 735.365 148.467 735.365 141.6V119.4H728.565V105.2H735.365V91.6H752.465V105.2H763.665V119.4H752.465V141.8C752.465 143.467 752.865 144.667 753.665 145.4C754.465 146.133 755.798 146.5 757.665 146.5H763.765Z"/></mask><path fill="#fff" d="M269.2 90.8V104.5H250.6V161H233.5V104.5H214.9V90.8H269.2ZM334.782 105.2L299.782 187.5H281.382L294.182 159.1L271.482 105.2H290.582L303.482 140.1L316.282 105.2H334.782ZM358.066 113.1C359.732 110.5 362.032 108.4 364.966 106.8C367.899 105.2 371.332 104.4 375.266 104.4C379.866 104.4 384.032 105.567 387.766 107.9C391.499 110.233 394.432 113.567 396.566 117.9C398.766 122.233 399.866 127.267 399.866 133C399.866 138.733 398.766 143.8 396.566 148.2C394.432 152.533 391.499 155.9 387.766 158.3C384.032 160.633 379.866 161.8 375.266 161.8C371.399 161.8 367.966 161 364.966 159.4C362.032 157.8 359.732 155.733 358.066 153.2V187.6H340.966V105.2H358.066V113.1ZM382.466 133C382.466 128.733 381.266 125.4 378.866 123C376.532 120.533 373.632 119.3 370.166 119.3C366.766 119.3 363.866 120.533 361.466 123C359.132 125.467 357.966 128.833 357.966 133.1C357.966 137.367 359.132 140.733 361.466 143.2C363.866 145.667 366.766 146.9 370.166 146.9C373.566 146.9 376.466 145.667 378.866 143.2C381.266 140.667 382.466 137.267 382.466 133ZM461.437 132.2C461.437 133.8 461.337 135.467 461.137 137.2H422.437C422.703 140.667 423.803 143.333 425.737 145.2C427.737 147 430.17 147.9 433.037 147.9C437.303 147.9 440.27 146.1 441.937 142.5H460.137C459.203 146.167 457.503 149.467 455.037 152.4C452.637 155.333 449.603 157.633 445.937 159.3C442.27 160.967 438.17 161.8 433.637 161.8C428.17 161.8 423.303 160.633 419.037 158.3C414.77 155.967 411.437 152.633 409.037 148.3C406.637 143.967 405.437 138.9 405.437 133.1C405.437 127.3 406.603 122.233 408.937 117.9C411.337 113.567 414.67 110.233 418.937 107.9C423.203 105.567 428.103 104.4 433.637 104.4C439.037 104.4 443.837 105.533 448.037 107.8C452.237 110.067 455.503 113.3 457.837 117.5C460.237 121.7 461.437 126.6 461.437 132.2ZM443.937 127.7C443.937 124.767 442.937 122.433 440.937 120.7C438.937 118.967 436.437 118.1 433.437 118.1C430.57 118.1 428.137 118.933 426.137 120.6C424.203 122.267 423.003 124.633 422.537 127.7H443.937ZM495.858 161.7C490.724 161.7 486.124 160.867 482.058 159.2C477.991 157.533 474.724 155.067 472.258 151.8C469.858 148.533 468.591 144.6 468.458 140H486.658C486.924 142.6 487.824 144.6 489.358 146C490.891 147.333 492.891 148 495.358 148C497.891 148 499.891 147.433 501.358 146.3C502.824 145.1 503.558 143.467 503.558 141.4C503.558 139.667 502.958 138.233 501.758 137.1C500.624 135.967 499.191 135.033 497.458 134.3C495.791 133.567 493.391 132.733 490.258 131.8C485.724 130.4 482.024 129 479.158 127.6C476.291 126.2 473.824 124.133 471.758 121.4C469.691 118.667 468.658 115.1 468.658 110.7C468.658 104.167 471.024 99.0667 475.758 95.4C480.491 91.6667 486.658 89.8 494.258 89.8C501.991 89.8 508.224 91.6667 512.958 95.4C517.691 99.0667 520.224 104.2 520.558 110.8H502.058C501.924 108.533 501.091 106.767 499.558 105.5C498.024 104.167 496.058 103.5 493.658 103.5C491.591 103.5 489.924 104.067 488.658 105.2C487.391 106.267 486.758 107.833 486.758 109.9C486.758 112.167 487.824 113.933 489.958 115.2C492.091 116.467 495.424 117.833 499.958 119.3C504.491 120.833 508.158 122.3 510.958 123.7C513.824 125.1 516.291 127.133 518.358 129.8C520.424 132.467 521.458 135.9 521.458 140.1C521.458 144.1 520.424 147.733 518.358 151C516.358 154.267 513.424 156.867 509.558 158.8C505.691 160.733 501.124 161.7 495.858 161.7ZM528.581 133.1C528.581 127.3 529.748 122.233 532.081 117.9C534.481 113.567 537.781 110.233 541.981 107.9C546.248 105.567 551.115 104.4 556.581 104.4C563.581 104.4 569.415 106.233 574.081 109.9C578.815 113.567 581.915 118.733 583.381 125.4H565.181C563.648 121.133 560.681 119 556.281 119C553.148 119 550.648 120.233 548.781 122.7C546.915 125.1 545.981 128.567 545.981 133.1C545.981 137.633 546.915 141.133 548.781 143.6C550.648 146 553.148 147.2 556.281 147.2C560.681 147.2 563.648 145.067 565.181 140.8H583.381C581.915 147.333 578.815 152.467 574.081 156.2C569.348 159.933 563.515 161.8 556.581 161.8C551.115 161.8 546.248 160.633 541.981 158.3C537.781 155.967 534.481 152.633 532.081 148.3C529.748 143.967 528.581 138.9 528.581 133.1ZM609.628 114.5C611.628 111.433 614.128 109.033 617.128 107.3C620.128 105.5 623.461 104.6 627.128 104.6V122.7H622.428C618.161 122.7 614.961 123.633 612.828 125.5C610.695 127.3 609.628 130.5 609.628 135.1V161H592.528V105.2H609.628V114.5ZM643.902 99.4C640.902 99.4 638.435 98.5333 636.502 96.8C634.635 95 633.702 92.8 633.702 90.2C633.702 87.5333 634.635 85.3333 636.502 83.6C638.435 81.8 640.902 80.9 643.902 80.9C646.835 80.9 649.235 81.8 651.102 83.6C653.035 85.3333 654.002 87.5333 654.002 90.2C654.002 92.8 653.035 95 651.102 96.8C649.235 98.5333 646.835 99.4 643.902 99.4ZM652.402 105.2V161H635.302V105.2H652.402ZM681.894 113.1C683.56 110.5 685.86 108.4 688.794 106.8C691.727 105.2 695.16 104.4 699.094 104.4C703.694 104.4 707.86 105.567 711.594 107.9C715.327 110.233 718.26 113.567 720.394 117.9C722.594 122.233 723.694 127.267 723.694 133C723.694 138.733 722.594 143.8 720.394 148.2C718.26 152.533 715.327 155.9 711.594 158.3C707.86 160.633 703.694 161.8 699.094 161.8C695.227 161.8 691.794 161 688.794 159.4C685.86 157.8 683.56 155.733 681.894 153.2V187.6H664.794V105.2H681.894V113.1ZM706.294 133C706.294 128.733 705.094 125.4 702.694 123C700.36 120.533 697.46 119.3 693.994 119.3C690.594 119.3 687.694 120.533 685.294 123C682.96 125.467 681.794 128.833 681.794 133.1C681.794 137.367 682.96 140.733 685.294 143.2C687.694 145.667 690.594 146.9 693.994 146.9C697.394 146.9 700.294 145.667 702.694 143.2C705.094 140.667 706.294 137.267 706.294 133ZM763.765 146.5V161H755.065C748.865 161 744.032 159.5 740.565 156.5C737.098 153.433 735.365 148.467 735.365 141.6V119.4H728.565V105.2H735.365V91.6H752.465V105.2H763.665V119.4H752.465V141.8C752.465 143.467 752.865 144.667 753.665 145.4C754.465 146.133 755.798 146.5 757.665 146.5H763.765Z"/><path fill="#1D1D24" d="M269.2 90.8H277.2C277.2 86.3817 273.618 82.8 269.2 82.8V90.8ZM269.2 104.5V112.5C273.618 112.5 277.2 108.918 277.2 104.5H269.2ZM250.6 104.5V96.5C246.182 96.5 242.6 100.082 242.6 104.5H250.6ZM250.6 161V169C255.018 169 258.6 165.418 258.6 161H250.6ZM233.5 161H225.5C225.5 165.418 229.082 169 233.5 169V161ZM233.5 104.5H241.5C241.5 100.082 237.918 96.5 233.5 96.5V104.5ZM214.9 104.5H206.9C206.9 108.918 210.482 112.5 214.9 112.5V104.5ZM214.9 90.8V82.8C210.482 82.8 206.9 86.3817 206.9 90.8H214.9ZM261.2 90.8V104.5H277.2V90.8H261.2ZM269.2 96.5H250.6V112.5H269.2V96.5ZM242.6 104.5V161H258.6V104.5H242.6ZM250.6 153H233.5V169H250.6V153ZM241.5 161V104.5H225.5V161H241.5ZM233.5 96.5H214.9V112.5H233.5V96.5ZM222.9 104.5V90.8H206.9V104.5H222.9ZM214.9 98.8H269.2V82.8H214.9V98.8ZM334.782 105.2L342.144 108.331C343.195 105.86 342.936 103.026 341.455 100.787C339.973 98.5471 337.467 97.2 334.782 97.2V105.2ZM299.782 187.5V195.5C302.99 195.5 305.888 193.583 307.144 190.631L299.782 187.5ZM281.382 187.5L274.089 184.213C272.973 186.688 273.189 189.561 274.663 191.842C276.137 194.123 278.667 195.5 281.382 195.5V187.5ZM294.182 159.1L301.475 162.387C302.389 160.36 302.418 158.044 301.555 155.995L294.182 159.1ZM271.482 105.2V97.2C268.802 97.2 266.3 98.5422 264.817 100.775C263.335 103.008 263.069 105.835 264.109 108.305L271.482 105.2ZM290.582 105.2L298.086 102.426C296.925 99.2855 293.931 97.2 290.582 97.2V105.2ZM303.482 140.1L295.978 142.874C297.14 146.018 300.14 148.104 303.492 148.1C306.844 148.096 309.839 146.002 310.993 142.855L303.482 140.1ZM316.282 105.2V97.2C312.926 97.2 309.927 99.2946 308.771 102.445L316.282 105.2ZM327.42 102.069L292.42 184.369L307.144 190.631L342.144 108.331L327.42 102.069ZM299.782 179.5H281.382V195.5H299.782V179.5ZM288.675 190.787L301.475 162.387L286.889 155.813L274.089 184.213L288.675 190.787ZM301.555 155.995L278.855 102.095L264.109 108.305L286.809 162.205L301.555 155.995ZM271.482 113.2H290.582V97.2H271.482V113.2ZM283.078 107.974L295.978 142.874L310.986 137.326L298.086 102.426L283.078 107.974ZM310.993 142.855L323.793 107.955L308.771 102.445L295.971 137.345L310.993 142.855ZM316.282 113.2H334.782V97.2H316.282V113.2ZM358.066 113.1H350.066C350.066 116.652 352.408 119.779 355.816 120.777C359.225 121.776 362.884 120.408 364.801 117.417L358.066 113.1ZM364.966 106.8L361.135 99.7768L361.135 99.7768L364.966 106.8ZM387.766 107.9L383.526 114.684L387.766 107.9ZM396.566 117.9L389.388 121.433C389.403 121.463 389.417 121.492 389.432 121.522L396.566 117.9ZM396.566 148.2L389.41 144.622C389.403 144.637 389.396 144.652 389.388 144.667L396.566 148.2ZM387.766 158.3L392.006 165.084C392.034 165.066 392.063 165.048 392.092 165.029L387.766 158.3ZM364.966 159.4L361.135 166.423C361.157 166.435 361.179 166.447 361.201 166.459L364.966 159.4ZM358.066 153.2L364.749 148.803C362.806 145.85 359.157 144.522 355.771 145.536C352.385 146.55 350.066 149.666 350.066 153.2H358.066ZM358.066 187.6V195.6C362.484 195.6 366.066 192.018 366.066 187.6H358.066ZM340.966 187.6H332.966C332.966 192.018 336.547 195.6 340.966 195.6V187.6ZM340.966 105.2V97.2C336.547 97.2 332.966 100.782 332.966 105.2H340.966ZM358.066 105.2H366.066C366.066 100.782 362.484 97.2 358.066 97.2V105.2ZM378.866 123L373.054 128.498C373.105 128.551 373.156 128.604 373.209 128.657L378.866 123ZM361.466 123L355.732 117.421C355.706 117.448 355.68 117.475 355.654 117.502L361.466 123ZM361.466 143.2L355.654 148.698C355.68 148.725 355.706 148.752 355.732 148.779L361.466 143.2ZM378.866 143.2L384.599 148.779C384.624 148.753 384.649 148.728 384.673 148.702L378.866 143.2ZM364.801 117.417C365.683 116.04 366.944 114.834 368.796 113.823L361.135 99.7768C357.121 101.966 353.781 104.959 351.331 108.783L364.801 117.417ZM368.796 113.823C370.362 112.969 372.433 112.4 375.266 112.4V96.4C370.231 96.4 365.436 97.431 361.135 99.7768L368.796 113.823ZM375.266 112.4C378.437 112.4 381.122 113.182 383.526 114.684L392.006 101.116C386.942 97.9514 381.294 96.4 375.266 96.4V112.4ZM383.526 114.684C385.875 116.153 387.846 118.302 389.388 121.433L403.743 114.367C401.018 108.832 397.123 104.314 392.006 101.116L383.526 114.684ZM389.432 121.522C390.969 124.548 391.866 128.3 391.866 133H407.866C407.866 126.233 406.563 119.919 403.699 114.278L389.432 121.522ZM391.866 133C391.866 137.697 390.97 141.503 389.41 144.622L403.721 151.778C406.561 146.097 407.866 139.77 407.866 133H391.866ZM389.388 144.667C387.839 147.814 385.843 150.026 383.44 151.571L392.092 165.029C397.155 161.774 401.026 157.252 403.743 151.733L389.388 144.667ZM383.526 151.516C381.122 153.018 378.437 153.8 375.266 153.8V169.8C381.294 169.8 386.942 168.249 392.006 165.084L383.526 151.516ZM375.266 153.8C372.53 153.8 370.421 153.243 368.73 152.341L361.201 166.459C365.51 168.757 370.268 169.8 375.266 169.8V153.8ZM368.796 152.377C366.895 151.34 365.623 150.132 364.749 148.803L351.382 157.597C353.841 161.335 357.169 164.26 361.135 166.423L368.796 152.377ZM350.066 153.2V187.6H366.066V153.2H350.066ZM358.066 179.6H340.966V195.6H358.066V179.6ZM348.966 187.6V105.2H332.966V187.6H348.966ZM340.966 113.2H358.066V97.2H340.966V113.2ZM350.066 105.2V113.1H366.066V105.2H350.066ZM390.466 133C390.466 127.187 388.786 121.606 384.522 117.343L373.209 128.657C373.746 129.194 374.466 130.28 374.466 133H390.466ZM384.677 117.502C380.798 113.401 375.779 111.3 370.166 111.3V127.3C371.486 127.3 372.267 127.666 373.054 128.498L384.677 117.502ZM370.166 111.3C364.576 111.3 359.617 113.428 355.732 117.421L367.199 128.579C368.114 127.639 368.955 127.3 370.166 127.3V111.3ZM355.654 117.502C351.579 121.81 349.966 127.337 349.966 133.1H365.966C365.966 130.33 366.686 129.123 367.277 128.498L355.654 117.502ZM349.966 133.1C349.966 138.863 351.579 144.39 355.654 148.698L367.277 137.702C366.686 137.077 365.966 135.87 365.966 133.1H349.966ZM355.732 148.779C359.617 152.772 364.576 154.9 370.166 154.9V138.9C368.955 138.9 368.114 138.561 367.199 137.621L355.732 148.779ZM370.166 154.9C375.755 154.9 380.714 152.772 384.599 148.779L373.132 137.621C372.217 138.561 371.376 138.9 370.166 138.9V154.9ZM384.673 148.702C388.78 144.367 390.466 138.833 390.466 133H374.466C374.466 135.701 373.751 136.967 373.058 137.698L384.673 148.702ZM461.137 137.2V145.2C465.2 145.2 468.618 142.154 469.084 138.117L461.137 137.2ZM422.437 137.2V129.2C420.208 129.2 418.081 130.129 416.567 131.764C415.053 133.399 414.289 135.592 414.46 137.814L422.437 137.2ZM425.737 145.2L420.18 150.955C420.247 151.02 420.316 151.084 420.385 151.146L425.737 145.2ZM441.937 142.5V134.5C438.82 134.5 435.987 136.31 434.677 139.139L441.937 142.5ZM460.137 142.5L467.889 144.473C468.499 142.08 467.968 139.54 466.453 137.59C464.937 135.64 462.606 134.5 460.137 134.5V142.5ZM455.037 152.4L448.914 147.251C448.891 147.279 448.868 147.306 448.845 147.334L455.037 152.4ZM445.937 159.3L449.247 166.583L445.937 159.3ZM419.037 158.3L415.198 165.319L419.037 158.3ZM409.037 148.3L416.035 144.424L409.037 148.3ZM408.937 117.9L401.938 114.024C401.923 114.052 401.908 114.079 401.893 114.107L408.937 117.9ZM418.937 107.9L422.775 114.919L418.937 107.9ZM448.037 107.8L444.237 114.84V114.84L448.037 107.8ZM457.837 117.5L450.843 121.385C450.859 121.413 450.875 121.441 450.891 121.469L457.837 117.5ZM443.937 127.7V135.7C448.355 135.7 451.937 132.118 451.937 127.7H443.937ZM440.937 120.7L446.176 114.654V114.654L440.937 120.7ZM426.137 120.6L421.015 114.454C420.981 114.483 420.947 114.512 420.913 114.541L426.137 120.6ZM422.537 127.7L414.628 126.496C414.277 128.802 414.949 131.145 416.469 132.914C417.989 134.683 420.205 135.7 422.537 135.7V127.7ZM453.437 132.2C453.437 133.468 453.357 134.827 453.189 136.283L469.084 138.117C469.316 136.106 469.437 134.132 469.437 132.2H453.437ZM461.137 129.2H422.437V145.2H461.137V129.2ZM414.46 137.814C414.832 142.644 416.465 147.368 420.18 150.955L431.293 139.445C431.142 139.299 430.575 138.689 430.413 136.586L414.46 137.814ZM420.385 151.146C423.956 154.36 428.335 155.9 433.037 155.9V139.9C432.005 139.9 431.518 139.64 431.088 139.254L420.385 151.146ZM433.037 155.9C436.298 155.9 439.619 155.205 442.612 153.39C445.642 151.551 447.794 148.891 449.196 145.861L434.677 139.139C434.534 139.447 434.42 139.597 434.372 139.653C434.329 139.703 434.313 139.71 434.312 139.71C434.308 139.713 434.241 139.754 434.061 139.799C433.872 139.846 433.544 139.9 433.037 139.9V155.9ZM441.937 150.5H460.137V134.5H441.937V150.5ZM452.384 140.527C451.752 143.01 450.615 145.228 448.914 147.251L461.16 157.549C464.391 153.706 466.655 149.323 467.889 144.473L452.384 140.527ZM448.845 147.334C447.271 149.258 445.247 150.826 442.626 152.017L449.247 166.583C453.96 164.441 458.002 161.409 461.228 157.466L448.845 147.334ZM442.626 152.017C440.123 153.155 437.172 153.8 433.637 153.8V169.8C439.168 169.8 444.417 168.778 449.247 166.583L442.626 152.017ZM433.637 153.8C429.342 153.8 425.825 152.894 422.875 151.281L415.198 165.319C420.782 168.373 426.998 169.8 433.637 169.8V153.8ZM422.875 151.281C419.964 149.689 417.715 147.458 416.035 144.424L402.038 152.176C405.158 157.809 409.576 162.244 415.198 165.319L422.875 151.281ZM416.035 144.424C414.396 141.465 413.437 137.777 413.437 133.1H397.437C397.437 140.023 398.877 146.468 402.038 152.176L416.035 144.424ZM413.437 133.1C413.437 128.387 414.378 124.669 415.98 121.693L401.893 114.107C398.829 119.798 397.437 126.213 397.437 133.1H413.437ZM415.935 121.776C417.615 118.742 419.864 116.511 422.775 114.919L415.098 100.881C409.476 103.956 405.058 108.391 401.938 114.024L415.935 121.776ZM422.775 114.919C425.711 113.314 429.258 112.4 433.637 112.4V96.4C426.949 96.4 420.696 97.8198 415.098 100.881L422.775 114.919ZM433.637 112.4C437.887 112.4 441.351 113.282 444.237 114.84L451.836 100.76C446.323 97.7843 440.187 96.4 433.637 96.4V112.4ZM444.237 114.84C447.084 116.376 449.246 118.511 450.843 121.385L464.83 113.615C461.76 108.089 457.39 103.757 451.836 100.76L444.237 114.84ZM450.891 121.469C452.498 124.281 453.437 127.77 453.437 132.2H469.437C469.437 125.43 467.976 119.119 464.783 113.531L450.891 121.469ZM451.937 127.7C451.937 122.729 450.132 118.083 446.176 114.654L435.697 126.746C435.772 126.811 435.803 126.85 435.811 126.862C435.819 126.872 435.825 126.881 435.834 126.901C435.846 126.929 435.937 127.15 435.937 127.7H451.937ZM446.176 114.654C442.527 111.492 438.087 110.1 433.437 110.1V126.1C434.786 126.1 435.346 126.441 435.697 126.746L446.176 114.654ZM433.437 110.1C428.901 110.1 424.601 111.466 421.015 114.454L431.258 126.746C431.672 126.401 432.239 126.1 433.437 126.1V110.1ZM420.913 114.541C417.24 117.707 415.317 121.966 414.628 126.496L430.446 128.904C430.69 127.301 431.167 126.826 431.36 126.659L420.913 114.541ZM422.537 135.7H443.937V119.7H422.537V135.7ZM482.058 159.2L479.024 166.602L482.058 159.2ZM472.258 151.8L465.811 156.537C465.831 156.565 465.852 156.593 465.873 156.621L472.258 151.8ZM468.458 140V132C466.296 132 464.226 132.875 462.72 134.426C461.213 135.976 460.399 138.071 460.461 140.232L468.458 140ZM486.658 140L494.616 139.184C494.198 135.103 490.76 132 486.658 132V140ZM489.358 146L483.964 151.908C484.011 151.951 484.06 151.994 484.108 152.037L489.358 146ZM501.358 146.3L506.249 152.63C506.308 152.585 506.366 152.539 506.424 152.492L501.358 146.3ZM501.758 137.1L496.101 142.757C496.155 142.811 496.209 142.864 496.265 142.916L501.758 137.1ZM497.458 134.3L494.236 141.623C494.271 141.638 494.306 141.653 494.341 141.668L497.458 134.3ZM490.258 131.8L487.897 139.444C487.923 139.452 487.948 139.459 487.974 139.467L490.258 131.8ZM479.158 127.6L475.647 134.789L479.158 127.6ZM471.758 121.4L478.139 116.575V116.575L471.758 121.4ZM475.758 95.4L480.657 101.724C480.675 101.71 480.694 101.696 480.712 101.681L475.758 95.4ZM512.958 95.4L508.004 101.681C508.022 101.696 508.04 101.71 508.059 101.724L512.958 95.4ZM520.558 110.8V118.8C522.75 118.8 524.845 117.901 526.356 116.312C527.866 114.724 528.658 112.585 528.548 110.396L520.558 110.8ZM502.058 110.8L494.072 111.27C494.32 115.498 497.822 118.8 502.058 118.8V110.8ZM499.558 105.5L494.308 111.537C494.359 111.581 494.411 111.625 494.463 111.668L499.558 105.5ZM488.658 105.2L493.811 111.319C493.872 111.268 493.933 111.215 493.992 111.162L488.658 105.2ZM489.958 115.2L494.042 108.321L489.958 115.2ZM499.958 119.3L502.521 111.722C502.488 111.71 502.454 111.699 502.42 111.688L499.958 119.3ZM510.958 123.7L507.38 130.855C507.402 130.867 507.425 130.878 507.447 130.889L510.958 123.7ZM518.358 129.8L512.034 134.701V134.701L518.358 129.8ZM518.358 151L511.597 146.723C511.576 146.756 511.555 146.789 511.535 146.823L518.358 151ZM509.558 158.8L505.98 151.645L509.558 158.8ZM495.858 153.7C491.593 153.7 488.048 153.009 485.092 151.798L479.024 166.602C484.201 168.724 489.856 169.7 495.858 169.7V153.7ZM485.092 151.798C482.252 150.634 480.18 149.016 478.642 146.979L465.873 156.621C469.269 161.117 473.731 164.433 479.024 166.602L485.092 151.798ZM478.705 147.063C477.393 145.278 476.547 142.972 476.454 139.768L460.461 140.232C460.635 146.228 462.322 151.788 465.811 156.537L478.705 147.063ZM468.458 148H486.658V132H468.458V148ZM478.7 140.816C479.113 144.847 480.633 148.866 483.964 151.908L494.752 140.092C494.836 140.169 494.856 140.229 494.828 140.167C494.79 140.082 494.678 139.79 494.616 139.184L478.7 140.816ZM484.108 152.037C487.393 154.893 491.393 156 495.358 156V140C494.842 140 494.597 139.93 494.538 139.911C494.508 139.901 494.512 139.899 494.536 139.913C494.561 139.927 494.587 139.945 494.607 139.963L484.108 152.037ZM495.358 156C499.02 156 502.947 155.182 506.249 152.63L496.466 139.97C496.835 139.685 496.762 140 495.358 140V156ZM506.424 152.492C509.931 149.622 511.558 145.619 511.558 141.4H495.558C495.558 141.477 495.548 141.259 495.71 140.898C495.881 140.517 496.123 140.247 496.292 140.108L506.424 152.492ZM511.558 141.4C511.558 137.59 510.139 134.012 507.251 131.284L496.265 142.916C496.104 142.764 495.886 142.492 495.728 142.114C495.574 141.745 495.558 141.471 495.558 141.4H511.558ZM507.415 131.443C505.438 129.466 503.094 127.998 500.575 126.932L494.341 141.668C495.288 142.068 495.811 142.467 496.101 142.757L507.415 131.443ZM500.68 126.977C498.558 126.044 495.786 125.099 492.542 124.133L487.974 139.467C490.996 140.367 493.024 141.089 494.236 141.623L500.68 126.977ZM492.618 124.156C488.309 122.825 485.032 121.566 482.668 120.411L475.647 134.789C479.017 136.434 483.14 137.975 487.897 139.444L492.618 124.156ZM482.668 120.411C481.014 119.603 479.505 118.382 478.139 116.575L465.377 126.225C468.144 129.885 471.569 132.797 475.647 134.789L482.668 120.411ZM478.139 116.575C477.388 115.582 476.658 113.857 476.658 110.7H460.658C460.658 116.343 461.994 121.751 465.377 126.225L478.139 116.575ZM476.658 110.7C476.658 106.381 478.076 103.724 480.657 101.724L470.859 89.0756C463.973 94.4096 460.658 101.952 460.658 110.7H476.658ZM480.712 101.681C483.7 99.3246 487.978 97.8 494.258 97.8V81.8C485.337 81.8 477.282 84.0087 470.804 89.1187L480.712 101.681ZM494.258 97.8C500.708 97.8 505.039 99.3429 508.004 101.681L517.912 89.1187C511.41 83.9905 503.274 81.8 494.258 81.8V97.8ZM508.059 101.724C510.743 103.804 512.339 106.661 512.568 111.204L528.548 110.396C528.11 101.739 524.639 94.3296 517.857 89.0756L508.059 101.724ZM520.558 102.8H502.058V118.8H520.558V102.8ZM510.044 110.33C509.801 106.191 508.149 102.221 504.653 99.3323L494.463 111.668C494.413 111.627 494.343 111.559 494.269 111.465C494.195 111.37 494.138 111.274 494.097 111.188C494.013 111.01 494.055 110.993 494.072 111.27L510.044 110.33ZM504.807 99.4632C501.562 96.6415 497.619 95.5 493.658 95.5V111.5C494.118 111.5 494.326 111.563 494.365 111.577C494.385 111.583 494.379 111.583 494.357 111.571C494.336 111.559 494.318 111.545 494.308 111.537L504.807 99.4632ZM493.658 95.5C490.068 95.5 486.358 96.5228 483.323 99.2381L493.992 111.162C493.903 111.242 493.801 111.316 493.694 111.378C493.588 111.44 493.496 111.478 493.433 111.499C493.307 111.542 493.352 111.5 493.658 111.5V95.5ZM483.505 99.0807C479.997 102.034 478.758 106.11 478.758 109.9H494.758C494.758 109.672 494.794 109.817 494.65 110.173C494.488 110.574 494.196 110.995 493.811 111.319L483.505 99.0807ZM478.758 109.9C478.758 115.298 481.59 119.535 485.874 122.079L494.042 108.321C493.881 108.225 494.133 108.338 494.406 108.79C494.537 109.006 494.633 109.238 494.692 109.461C494.75 109.679 494.758 109.835 494.758 109.9H478.758ZM485.874 122.079C488.793 123.812 492.812 125.397 497.495 126.912L502.42 111.688C498.036 110.27 495.39 109.121 494.042 108.321L485.874 122.079ZM497.395 126.878C501.741 128.349 505.031 129.681 507.38 130.855L514.536 116.545C511.284 114.919 507.241 113.318 502.521 111.722L497.395 126.878ZM507.447 130.889C509.15 131.72 510.674 132.945 512.034 134.701L524.681 124.899C521.909 121.322 518.499 118.48 514.469 116.511L507.447 130.889ZM512.034 134.701C512.771 135.651 513.458 137.231 513.458 140.1H529.458C529.458 134.569 528.078 129.283 524.681 124.899L512.034 134.701ZM513.458 140.1C513.458 142.641 512.825 144.782 511.597 146.723L525.118 155.277C528.024 150.685 529.458 145.559 529.458 140.1H513.458ZM511.535 146.823C510.414 148.654 508.685 150.292 505.98 151.645L513.136 165.955C518.164 163.441 522.302 159.88 525.181 155.177L511.535 146.823ZM505.98 151.645C503.441 152.914 500.15 153.7 495.858 153.7V169.7C502.099 169.7 507.942 168.552 513.136 165.955L505.98 151.645ZM532.081 117.9L525.083 114.024C525.068 114.052 525.052 114.079 525.037 114.107L532.081 117.9ZM541.981 107.9L538.143 100.881C538.127 100.89 538.112 100.898 538.096 100.907L541.981 107.9ZM574.081 109.9L569.139 116.191C569.153 116.202 569.168 116.213 569.182 116.224L574.081 109.9ZM583.381 125.4V133.4C585.805 133.4 588.098 132.301 589.616 130.412C591.135 128.524 591.715 126.048 591.194 123.681L583.381 125.4ZM565.181 125.4L557.653 128.106C558.794 131.282 561.806 133.4 565.181 133.4V125.4ZM548.781 122.7L555.096 127.612C555.118 127.584 555.139 127.556 555.16 127.528L548.781 122.7ZM548.781 143.6L542.402 148.428C542.423 148.456 542.445 148.484 542.466 148.512L548.781 143.6ZM565.181 140.8V132.8C561.806 132.8 558.794 134.918 557.653 138.094L565.181 140.8ZM583.381 140.8L591.187 142.552C591.719 140.182 591.145 137.698 589.627 135.801C588.109 133.904 585.811 132.8 583.381 132.8V140.8ZM574.081 156.2L569.127 149.919V149.919L574.081 156.2ZM541.981 158.3L538.096 165.293C538.112 165.302 538.127 165.31 538.143 165.319L541.981 158.3ZM532.081 148.3L525.037 152.093C525.052 152.121 525.068 152.148 525.083 152.176L532.081 148.3ZM536.581 133.1C536.581 128.387 537.523 124.669 539.125 121.693L525.037 114.107C521.973 119.798 520.581 126.213 520.581 133.1H536.581ZM539.08 121.776C540.778 118.71 543.017 116.476 545.866 114.893L538.096 100.907C532.545 103.991 528.185 108.423 525.083 114.024L539.08 121.776ZM545.82 114.919C548.769 113.306 552.287 112.4 556.581 112.4V96.4C549.942 96.4 543.726 97.8274 538.143 100.881L545.82 114.919ZM556.581 112.4C562.123 112.4 566.124 113.822 569.139 116.191L579.024 103.609C572.705 98.645 565.039 96.4 556.581 96.4V112.4ZM569.182 116.224C572.229 118.585 574.444 122.01 575.568 127.119L591.194 123.681C589.385 115.457 585.4 108.548 578.98 103.576L569.182 116.224ZM583.381 117.4H565.181V133.4H583.381V117.4ZM572.71 122.694C571.529 119.407 569.56 116.322 566.477 114.105C563.374 111.874 559.808 111 556.281 111V127C556.737 127 556.987 127.055 557.087 127.084C557.175 127.11 557.171 127.121 557.136 127.095C557.019 127.011 557.301 127.126 557.653 128.106L572.71 122.694ZM556.281 111C550.68 111 545.804 113.377 542.402 117.872L555.16 127.528C555.426 127.177 555.58 127.107 555.596 127.099C555.615 127.09 555.789 127 556.281 127V111ZM542.466 117.788C539.086 122.134 537.981 127.623 537.981 133.1H553.981C553.981 129.51 554.743 128.066 555.096 127.612L542.466 117.788ZM537.981 133.1C537.981 138.597 539.095 144.057 542.402 148.428L555.16 138.772C554.735 138.21 553.981 136.67 553.981 133.1H537.981ZM542.466 148.512C545.902 152.929 550.767 155.2 556.281 155.2V139.2C555.757 139.2 555.555 139.106 555.518 139.088C555.489 139.074 555.344 139.007 555.096 138.688L542.466 148.512ZM556.281 155.2C559.808 155.2 563.374 154.326 566.477 152.095C569.56 149.878 571.529 146.793 572.71 143.506L557.653 138.094C557.301 139.074 557.019 139.189 557.136 139.105C557.171 139.079 557.175 139.09 557.087 139.116C556.987 139.145 556.737 139.2 556.281 139.2V155.2ZM565.181 148.8H583.381V132.8H565.181V148.8ZM575.576 139.048C574.464 144 572.257 147.45 569.127 149.919L579.036 162.481C585.372 157.483 589.365 150.667 591.187 142.552L575.576 139.048ZM569.127 149.919C566.012 152.375 562 153.8 556.581 153.8V169.8C565.029 169.8 572.684 167.491 579.036 162.481L569.127 149.919ZM556.581 153.8C552.287 153.8 548.769 152.894 545.82 151.281L538.143 165.319C543.726 168.373 549.942 169.8 556.581 169.8V153.8ZM545.866 151.307C543.017 149.724 540.778 147.49 539.08 144.424L525.083 152.176C528.185 157.777 532.545 162.209 538.096 165.293L545.866 151.307ZM539.125 144.507C537.523 141.531 536.581 137.813 536.581 133.1H520.581C520.581 139.987 521.973 146.402 525.037 152.093L539.125 144.507ZM609.628 114.5H601.628C601.628 118.04 603.955 121.16 607.349 122.168C610.742 123.177 614.395 121.836 616.329 118.87L609.628 114.5ZM617.128 107.3L621.13 114.227C621.168 114.205 621.206 114.183 621.244 114.16L617.128 107.3ZM627.128 104.6H635.128C635.128 100.182 631.546 96.6 627.128 96.6V104.6ZM627.128 122.7V130.7C631.546 130.7 635.128 127.118 635.128 122.7H627.128ZM612.828 125.5L617.987 131.614C618.024 131.583 618.06 131.552 618.096 131.521L612.828 125.5ZM609.628 161V169C614.046 169 617.628 165.418 617.628 161H609.628ZM592.528 161H584.528C584.528 165.418 588.11 169 592.528 169V161ZM592.528 105.2V97.2C588.11 97.2 584.528 100.782 584.528 105.2H592.528ZM609.628 105.2H617.628C617.628 100.782 614.046 97.2 609.628 97.2V105.2ZM616.329 118.87C617.683 116.794 619.28 115.296 621.13 114.227L613.126 100.373C608.976 102.771 605.574 106.072 602.927 110.13L616.329 118.87ZM621.244 114.16C622.94 113.143 624.839 112.6 627.128 112.6V96.6C622.084 96.6 617.316 97.8575 613.012 100.44L621.244 114.16ZM619.128 104.6V122.7H635.128V104.6H619.128ZM627.128 114.7H622.428V130.7H627.128V114.7ZM622.428 114.7C617.171 114.7 611.734 115.827 607.56 119.479L618.096 131.521C618.189 131.44 619.152 130.7 622.428 130.7V114.7ZM607.669 119.386C602.843 123.458 601.628 129.634 601.628 135.1H617.628C617.628 133.369 617.835 132.328 618.018 131.78C618.183 131.283 618.259 131.385 617.987 131.614L607.669 119.386ZM601.628 135.1V161H617.628V135.1H601.628ZM609.628 153H592.528V169H609.628V153ZM600.528 161V105.2H584.528V161H600.528ZM592.528 113.2H609.628V97.2H592.528V113.2ZM601.628 105.2V114.5H617.628V105.2H601.628ZM636.502 96.8L630.948 102.559C631.018 102.626 631.089 102.692 631.161 102.757L636.502 96.8ZM636.502 83.6L641.945 89.4623L641.953 89.4551L636.502 83.6ZM651.102 83.6L645.548 89.3587C645.618 89.426 645.689 89.4919 645.761 89.5565L651.102 83.6ZM651.102 96.8L656.545 102.662L656.553 102.655L651.102 96.8ZM652.402 105.2H660.402C660.402 100.782 656.82 97.2 652.402 97.2V105.2ZM652.402 161V169C656.82 169 660.402 165.418 660.402 161H652.402ZM635.302 161H627.302C627.302 165.418 630.883 169 635.302 169V161ZM635.302 105.2V97.2C630.883 97.2 627.302 100.782 627.302 105.2H635.302ZM643.902 91.4C642.546 91.4 642.082 91.0584 641.842 90.8434L631.161 102.757C634.788 106.008 639.257 107.4 643.902 107.4V91.4ZM642.055 91.0412C641.83 90.8244 641.778 90.7028 641.766 90.6756C641.754 90.6479 641.702 90.5217 641.702 90.2H625.702C625.702 94.9657 627.514 99.2465 630.948 102.559L642.055 91.0412ZM641.702 90.2C641.702 89.8157 641.765 89.6776 641.766 89.6744C641.771 89.6641 641.777 89.6507 641.794 89.6269C641.812 89.602 641.855 89.5459 641.945 89.4623L631.058 77.7376C627.477 81.0628 625.702 85.4262 625.702 90.2H641.702ZM641.953 89.4551C642.203 89.2226 642.629 88.9 643.902 88.9V72.9C639.174 72.9 634.667 74.3774 631.05 77.7448L641.953 89.4551ZM643.902 88.9C645.058 88.9 645.372 89.1888 645.548 89.3587L656.655 77.8412C653.098 74.4112 648.612 72.9 643.902 72.9V88.9ZM645.761 89.5565C645.863 89.6481 645.912 89.7093 645.931 89.7349C645.949 89.7591 645.952 89.7681 645.952 89.7682C645.953 89.7686 645.962 89.7898 645.974 89.8461C645.985 89.9045 646.002 90.0179 646.002 90.2H662.002C662.002 85.33 660.119 80.9403 656.442 77.6434L645.761 89.5565ZM646.002 90.2C646.002 90.4839 645.954 90.577 645.952 90.5818C645.949 90.5895 645.899 90.713 645.65 90.9448L656.553 102.655C660.082 99.3693 662.002 95.0609 662.002 90.2H646.002ZM645.658 90.9376C645.495 91.089 645.144 91.4 643.902 91.4V107.4C648.526 107.4 652.975 105.978 656.545 102.662L645.658 90.9376ZM644.402 105.2V161H660.402V105.2H644.402ZM652.402 153H635.302V169H652.402V153ZM643.302 161V105.2H627.302V161H643.302ZM635.302 113.2H652.402V97.2H635.302V113.2ZM681.894 113.1H673.894C673.894 116.652 676.236 119.779 679.644 120.777C683.053 121.776 686.712 120.408 688.629 117.417L681.894 113.1ZM688.794 106.8L684.963 99.7768V99.7768L688.794 106.8ZM711.594 107.9L707.354 114.684L711.594 107.9ZM720.394 117.9L713.216 121.433C713.231 121.463 713.246 121.492 713.26 121.522L720.394 117.9ZM720.394 148.2L713.238 144.622C713.231 144.637 713.224 144.652 713.216 144.667L720.394 148.2ZM711.594 158.3L715.834 165.084C715.863 165.066 715.891 165.048 715.92 165.029L711.594 158.3ZM688.794 159.4L684.963 166.423C684.985 166.435 685.007 166.447 685.029 166.459L688.794 159.4ZM681.894 153.2L688.577 148.803C686.635 145.85 682.985 144.522 679.599 145.536C676.213 146.55 673.894 149.666 673.894 153.2H681.894ZM681.894 187.6V195.6C686.312 195.6 689.894 192.018 689.894 187.6H681.894ZM664.794 187.6H656.794C656.794 192.018 660.375 195.6 664.794 195.6V187.6ZM664.794 105.2V97.2C660.375 97.2 656.794 100.782 656.794 105.2H664.794ZM681.894 105.2H689.894C689.894 100.782 686.312 97.2 681.894 97.2V105.2ZM702.694 123L696.882 128.498C696.933 128.551 696.985 128.604 697.037 128.657L702.694 123ZM685.294 123L679.56 117.421C679.534 117.448 679.508 117.475 679.482 117.502L685.294 123ZM685.294 143.2L679.482 148.698C679.508 148.725 679.534 148.752 679.56 148.779L685.294 143.2ZM702.694 143.2L708.428 148.779C708.452 148.753 708.477 148.728 708.501 148.702L702.694 143.2ZM688.629 117.417C689.511 116.04 690.772 114.834 692.625 113.823L684.963 99.7768C680.949 101.966 677.609 104.959 675.159 108.783L688.629 117.417ZM692.625 113.823C694.19 112.969 696.261 112.4 699.094 112.4V96.4C694.06 96.4 689.264 97.431 684.963 99.7768L692.625 113.823ZM699.094 112.4C702.265 112.4 704.95 113.182 707.354 114.684L715.834 101.116C710.77 97.9514 705.123 96.4 699.094 96.4V112.4ZM707.354 114.684C709.703 116.153 711.675 118.302 713.216 121.433L727.571 114.367C724.846 108.832 720.951 104.314 715.834 101.116L707.354 114.684ZM713.26 121.522C714.797 124.548 715.694 128.3 715.694 133H731.694C731.694 126.233 730.391 119.919 727.527 114.278L713.26 121.522ZM715.694 133C715.694 137.697 714.798 141.503 713.238 144.622L727.549 151.778C730.39 146.097 731.694 139.77 731.694 133H715.694ZM713.216 144.667C711.667 147.814 709.671 150.026 707.268 151.571L715.92 165.029C720.983 161.774 724.854 157.252 727.571 151.733L713.216 144.667ZM707.354 151.516C704.95 153.018 702.265 153.8 699.094 153.8V169.8C705.123 169.8 710.77 168.249 715.834 165.084L707.354 151.516ZM699.094 153.8C696.358 153.8 694.249 153.243 692.558 152.341L685.029 166.459C689.338 168.757 694.096 169.8 699.094 169.8V153.8ZM692.625 152.377C690.723 151.34 689.451 150.132 688.577 148.803L675.21 157.597C677.67 161.335 680.997 164.26 684.963 166.423L692.625 152.377ZM673.894 153.2V187.6H689.894V153.2H673.894ZM681.894 179.6H664.794V195.6H681.894V179.6ZM672.794 187.6V105.2H656.794V187.6H672.794ZM664.794 113.2H681.894V97.2H664.794V113.2ZM673.894 105.2V113.1H689.894V105.2H673.894ZM714.294 133C714.294 127.187 712.614 121.606 708.351 117.343L697.037 128.657C697.574 129.194 698.294 130.28 698.294 133H714.294ZM708.505 117.502C704.626 113.401 699.607 111.3 693.994 111.3V127.3C695.314 127.3 696.095 127.666 696.882 128.498L708.505 117.502ZM693.994 111.3C688.404 111.3 683.445 113.428 679.56 117.421L691.028 128.579C691.942 127.639 692.783 127.3 693.994 127.3V111.3ZM679.482 117.502C675.407 121.81 673.794 127.337 673.794 133.1H689.794C689.794 130.33 690.514 129.123 691.105 128.498L679.482 117.502ZM673.794 133.1C673.794 138.863 675.407 144.39 679.482 148.698L691.105 137.702C690.514 137.077 689.794 135.87 689.794 133.1H673.794ZM679.56 148.779C683.445 152.772 688.404 154.9 693.994 154.9V138.9C692.783 138.9 691.942 138.561 691.028 137.621L679.56 148.779ZM693.994 154.9C699.583 154.9 704.542 152.772 708.428 148.779L696.96 137.621C696.045 138.561 695.204 138.9 693.994 138.9V154.9ZM708.501 148.702C712.608 144.367 714.294 138.833 714.294 133H698.294C698.294 135.701 697.579 136.967 696.886 137.698L708.501 148.702ZM763.765 146.5H771.765C771.765 142.082 768.183 138.5 763.765 138.5V146.5ZM763.765 161V169C768.183 169 771.765 165.418 771.765 161H763.765ZM740.565 156.5L735.264 162.492C735.286 162.511 735.308 162.53 735.33 162.549L740.565 156.5ZM735.365 119.4H743.365C743.365 114.982 739.783 111.4 735.365 111.4V119.4ZM728.565 119.4H720.565C720.565 123.818 724.147 127.4 728.565 127.4V119.4ZM728.565 105.2V97.2C724.147 97.2 720.565 100.782 720.565 105.2H728.565ZM735.365 105.2V113.2C739.783 113.2 743.365 109.618 743.365 105.2H735.365ZM735.365 91.6V83.6C730.947 83.6 727.365 87.1817 727.365 91.6H735.365ZM752.465 91.6H760.465C760.465 87.1817 756.883 83.6 752.465 83.6V91.6ZM752.465 105.2H744.465C744.465 109.618 748.047 113.2 752.465 113.2V105.2ZM763.665 105.2H771.665C771.665 100.782 768.083 97.2 763.665 97.2V105.2ZM763.665 119.4V127.4C768.083 127.4 771.665 123.818 771.665 119.4H763.665ZM752.465 119.4V111.4C748.047 111.4 744.465 114.982 744.465 119.4H752.465ZM753.665 145.4L748.259 151.297V151.297L753.665 145.4ZM755.765 146.5V161H771.765V146.5H755.765ZM763.765 153H755.065V169H763.765V153ZM755.065 153C750.106 153 747.369 151.808 745.8 150.451L735.33 162.549C740.694 167.192 747.624 169 755.065 169V153ZM745.865 150.508C744.807 149.571 743.365 147.297 743.365 141.6H727.365C727.365 149.637 729.39 157.295 735.264 162.492L745.865 150.508ZM743.365 141.6V119.4H727.365V141.6H743.365ZM735.365 111.4H728.565V127.4H735.365V111.4ZM736.565 119.4V105.2H720.565V119.4H736.565ZM728.565 113.2H735.365V97.2H728.565V113.2ZM743.365 105.2V91.6H727.365V105.2H743.365ZM735.365 99.6H752.465V83.6H735.365V99.6ZM744.465 91.6V105.2H760.465V91.6H744.465ZM752.465 113.2H763.665V97.2H752.465V113.2ZM755.665 105.2V119.4H771.665V105.2H755.665ZM763.665 111.4H752.465V127.4H763.665V111.4ZM744.465 119.4V141.8H760.465V119.4H744.465ZM744.465 141.8C744.465 144.517 745.095 148.397 748.259 151.297L759.071 139.503C759.828 140.197 760.196 140.945 760.354 141.42C760.497 141.848 760.465 142.03 760.465 141.8H744.465ZM748.259 151.297C751.285 154.071 755.124 154.5 757.665 154.5V138.5C757.216 138.5 757.169 138.452 757.386 138.511C757.617 138.575 758.314 138.809 759.071 139.503L748.259 151.297ZM757.665 154.5H763.765V138.5H757.665V154.5Z" mask="url(#path-44-outside-1_218_6826)"/></g><defs><clipPath id="clip0_218_6826"><rect width="900" height="254" fill="#fff" rx="24"/></clipPath></defs></svg>