<svg xmlns="http://www.w3.org/2000/svg" width="55" height="21" fill="none" viewBox="0 0 55 21"><g clip-path="url(#clip0_1517_21940)"><path fill="#7C7C95" d="M2.22315 20.8123C1.67669 20.8123 1.21219 20.6319 0.829655 20.2707C0.447125 19.9003 0.255859 19.4606 0.255859 18.9514C0.255859 18.4328 0.447125 17.9885 0.829655 17.6181C1.21219 17.2477 1.67669 17.0625 2.22315 17.0625C2.77874 17.0625 3.24779 17.2477 3.63033 17.6181C4.02196 17.9885 4.21779 18.4328 4.21779 18.9514C4.21779 19.4606 4.02196 19.9003 3.63033 20.2707C3.24779 20.6319 2.77874 20.8123 2.22315 20.8123Z"/><path fill="#7C7C95" d="M24.0697 20.5059H20.5178L11.1594 5.86748C10.9226 5.49712 10.7268 5.11286 10.5719 4.71473H10.4899C10.5628 5.14064 10.5993 6.05265 10.5993 7.45077V20.5059H7.45703V0.589844H11.2414L20.2854 14.8811C20.6679 15.4737 20.9139 15.8811 21.0232 16.1033H21.0779C20.9867 15.5755 20.9412 14.6821 20.9412 13.4228V0.589844H24.0697V20.5059Z"/><path fill="#7C7C95" d="M39.3708 20.5059H28.373V0.589844H38.9337V3.39532H31.6245V9.03406H38.3598V11.8256H31.6245V17.7143H39.3708V20.5059Z"/><path fill="#7C7C95" d="M55.0011 3.39532H49.3724V20.5059H46.121V3.39532H40.5059V0.589844H55.0011V3.39532Z"/></g><defs><clipPath id="clip0_1517_21940"><rect width="54.745" height="20.334" fill="#fff" transform="translate(0.255859 0.589844)"/></clipPath></defs></svg>