<svg fill="none" height="40" viewBox="0 0 40 40" width="40" xmlns="http://www.w3.org/2000/svg"><path d="m0 0h40v40h-40z" fill="#444ce7"/><g fill="#f8fafc"><path d="m8.03762 18.4852c-.05258 0-.06573-.0266-.03944-.0666l.27607-.3594c.02629-.04.09202-.0666.1446-.0666h4.69305c.0526 0 .0658.0399.0395.0799l-.2235.3461c-.0263.04-.092.0799-.1315.0799z"/><path d="m6.05258 19.7101c-.05258 0-.06573-.0266-.03943-.0666l.27606-.3595c.02629-.0399.09202-.0665.1446-.0665h5.99449c.0526 0 .0789.0399.0658.0799l-.1052.3195c-.0132.0532-.0657.0799-.1183.0799z"/><path d="m9.23391 20.935c-.05258 0-.06573-.04-.03944-.0799l.18404-.3328c.0263-.04.07888-.0799.13146-.0799h2.62913c.0526 0 .0789.0399.0789.0932l-.0263.3195c0 .0533-.0526.0932-.092.0932z"/><path d="m22.8793 18.2456c-.8282.213-1.3934.3728-2.2085.5858-.1972.0532-.2103.0665-.3812-.1332-.1972-.2263-.3418-.3728-.6179-.5059-.8282-.4127-1.6301-.2929-2.3794.1997-.8939.5858-1.354 1.4512-1.3409 2.5296.0132 1.0651.7362 1.9438 1.7747 2.0903.894.1198 1.6433-.1997 2.2348-.8787.1184-.1465.2235-.3062.355-.4926-.4733 0-1.0648 0-2.5372 0-.276 0-.3418-.1731-.2497-.3994.1708-.4128.4864-1.1051.6704-1.4512.0394-.0799.1315-.2131.3286-.2131h4.7851c-.0263.3595-.0263.719-.0788 1.0785-.1446.9586-.4996 1.8373-1.078 2.6095-.9465 1.2648-2.1822 2.0503-3.7466 2.2633-1.2883.1731-2.4845-.0799-3.5362-.8787-.9728-.7456-1.5249-1.7308-1.6695-2.9557-.1709-1.4512.2497-2.7559 1.1174-3.9009.9333-1.2382 2.169-2.0237 3.6808-2.3033 1.2357-.2263 2.4188-.0799 3.4837.6524.6967.466 1.1962 1.105 1.5249 1.8772.0789.1199.0263.1864-.1315.2264z"/><path d="m27.2306 25.6081c-1.1963-.0267-2.2874-.3728-3.2076-1.1717-.7756-.679-1.262-1.5444-1.4198-2.5695-.2366-1.5045.1709-2.8358 1.0648-4.0208.9597-1.2781 2.1165-1.9438 3.6809-2.2234 1.3409-.2396 2.6029-.1065 3.7466.679 1.0385.719 1.6826 1.6909 1.8535 2.969.2235 1.7974-.2892 3.2619-1.5117 4.5134-.8677.892-1.9325 1.4512-3.1551 1.7041-.3549.0666-.7098.0799-1.0516.1199zm3.1287-5.3788c-.0132-.1731-.0132-.3062-.0394-.4394-.2367-1.318-1.4329-2.0636-2.6818-1.7707-1.2226.2796-2.0113 1.0651-2.3005 2.3166-.2367 1.0385.2629 2.0903 1.2094 2.5163.723.3195 1.446.2796 2.1428-.0799 1.0385-.5458 1.6038-1.3979 1.6695-2.5429z"/></g></svg>