<svg fill="none" height="40" viewBox="0 0 40 40" width="40" xmlns="http://www.w3.org/2000/svg" xmlns:xlink="http://www.w3.org/1999/xlink"><linearGradient id="a"><stop offset="0" stop-color="#111827"/><stop offset="1" stop-color="#141414"/></linearGradient><linearGradient id="b" gradientUnits="userSpaceOnUse" x1="20.2179" x2="20.2179" xlink:href="#a" y1="15.7656" y2="25.4525"/><linearGradient id="c" gradientUnits="userSpaceOnUse" x1="19.8062" x2="19.8062" xlink:href="#a" y1="4.34595" y2="35.1126"/><path d="m0 0h40v40h-40z" fill="#ff9b27"/><path d="m17.4625 20.6629s-.8106.4934.5639.6344c1.6564.2114 2.5375.1762 4.3701-.1762 0 0 .4934.3171 1.163.5639-4.1234 1.7621-9.3393-.1058-6.097-1.0221zm-.5286-2.2907s-.8811.6696.4934.8105c1.7974.1763 3.207.2115 5.6388-.2819 0 0 .3172.3524.8458.5286-4.9692 1.4802-10.5375.141-6.978-1.0572zm9.7269 4.0176s.5991.4934-.6696.881c-2.3613.7049-9.9032.9163-12.0177 0-.7401-.3171.6696-.7753 1.1277-.8458.4582-.1057.7049-.1057.7049-.1057-.8106-.5639-5.3921 1.163-2.326 1.6564 8.4229 1.3745 15.3658-.5991 13.1807-1.5859zm-8.8106-6.4141s-3.8414.9163-1.3745 1.2335c1.0573.1409 3.1366.1057 5.075-.0353 1.5858-.1409 3.1718-.4229 3.1718-.4229s-.5639.2467-.9516.4934c-3.9119 1.022-11.4185.5639-9.2687-.4934 1.8326-.8811 3.348-.7753 3.348-.7753zm6.8723 3.8414c3.9471-2.0441 2.1145-4.0176.8458-3.7709-.3172.0705-.4582.1409-.4582.1409s.1058-.2114.3525-.2819c2.5022-.8811 4.4758 2.6432-.8106 4.0176 0 0 .0352-.0352.0705-.1057zm-6.4846 5.5683c3.8062.2467 9.6212-.141 9.7621-1.9383 0 0-.2819.7048-3.1366 1.2334-3.2423.5992-7.2599.5287-9.6211.141 0 0 .4933.4229 2.9956.5639z" fill="url(#b)"/><path d="m22.326 4.34595s2.1851 2.22026-2.0793 5.5683c-3.4185 2.71365-.7753 4.26435 0 6.02645-2.0088-1.7974-3.4537-3.3833-2.4669-4.8635 1.4449-2.185 5.4273-3.24225 4.5462-6.73125zm-1.1277 10.11455c1.022 1.163-.2819 2.2203-.2819 2.2203s2.6079-1.3392 1.4096-2.9956c-1.0925-1.5859-1.9383-2.3612 2.6432-5.00443 0 0-7.2247 1.79733-3.7709 5.77973zm-2.6079 18.9252v-3.4538c0-.881-.4934-1.4801-1.7269-1.4801-.7049 0-1.304.1762-1.8327.3876l.1763.6344c.3876-.141.881-.282 1.4097-.282.6696 0 .9868.282.9868.8459v.4581h-.3525c-1.6916 0-2.4669.6344-2.4669 1.6564 0 .8458.5286 1.3392 1.4801 1.3392.5992 0 1.0573-.2819 1.4802-.6344l.0705.5287zm-.9868-1.1278c-.3525.3172-.7401.4934-1.0926.4934-.4581 0-.74-.2819-.74-.7753s.2819-.8458 1.4097-.8458h.4228v1.1277zm4.2995 1.1278h-1.2335l-1.4801-4.8282h1.0572l.9163 2.9603.2115.8811c.4581-1.2687.8106-2.5727.9516-3.8414h1.0572c-.2819 1.5859-.7753 3.3127-1.4801 4.8282zm5.7093 0v-3.4538c0-.881-.4934-1.4801-1.7269-1.4801-.7048 0-1.3039.1762-1.8326.3876l.141.6344c.4229-.141.9163-.282 1.4449-.282.6696 0 .9868.282.9868.8459v.4581h-.3524c-1.6916 0-2.467.6344-2.467 1.6564 0 .8458.4934 1.3392 1.445 1.3392.6343 0 1.0925-.2819 1.5154-.6344l.0705.5287zm-.9868-1.1278c-.3524.3172-.7401.4934-1.0925.4934-.4581 0-.7401-.2819-.7401-.7753s.2819-.8458 1.4097-.8458h.4229zm-12.934 1.9384c-.2819.4229-.7048.7401-1.2334.9163l-.4582-.5639c.3524-.2115.7049-.5286.8458-.8106.141-.2467.1762-.5991.1762-1.4097v-5.4978h1.0573v5.4273c0 1.0925-.1057 1.5154-.3877 1.9384z" fill="url(#c)"/></svg>