<svg fill="none" height="40" viewBox="0 0 40 40" width="40" xmlns="http://www.w3.org/2000/svg" xmlns:xlink="http://www.w3.org/1999/xlink"><linearGradient id="a" gradientUnits="userSpaceOnUse" x1="20.5626" x2="20.5626" y1="13.8195" y2="26.1808"><stop offset="0" stop-color="#111827"/><stop offset="1" stop-color="#141414"/></linearGradient><path d="m0 0h40v40h-40z" fill="#ff6bff"/><path d="m20.5626 13.8195c6.4887 0 11.749 2.7673 11.749 6.1806-.0002 3.4133-5.2604 6.1807-11.749 6.1807s-11.74888-2.7674-11.74906-6.1807c0-3.4133 5.26036-6.1806 11.74906-6.1806zm-7.1094 3.33-1.2529 6.4444h1.4043l.333-1.7129h1.2021c.5307 0 .9678-.0563 1.3106-.168.3425-.1114.6543-.2983.9345-.5605.2351-.2162.4256-.4552.5713-.7159.1454-.2604.2485-.5479.3096-.8623.1486-.7639.0364-1.3598-.336-1.7861-.3724-.426-.9653-.6387-1.7773-.6387zm10.959 0-1.253 6.4444h1.4043l.333-1.7129h1.2022c.5307 0 .9678-.0563 1.3105-.168.3426-.1113.6543-.2983.9346-.5605.2351-.2162.4256-.4551.5713-.7159.1454-.2604.2484-.5479.3096-.8623.1486-.7639.0365-1.3598-.336-1.7861-.3724-.4259-.9646-.6386-1.7763-.6387zm-4.9825-1.7138-1.2529 6.4453h1.3936l.7177-3.6924h1.1133c.3563 0 .5897.0588.6992.1768.1094.118.1324.3398.0694.664l-.5547 2.8516h1.415l.583-2.999c.1185-.6101.0299-1.0519-.2666-1.3243-.2964-.2721-.8354-.4082-1.6162-.4082h-1.2402l.333-1.7138zm-3.8085 2.7304c.5334 0 .8886.099 1.0664.2959.1775.197.2198.5348.1269 1.0137-.0971.4988-.2835.8551-.5605 1.0684-.277.2132-.6988.3193-1.2647.3193h-.8545l.5244-2.6973zm10.9589 0c.5335 0 .8887.099 1.0664.2959.1776.1969.22.5347.127 1.0137-.0971.4988-.2835.8551-.5605 1.0684-.2771.2132-.6988.3193-1.2647.3193h-.8545l.5244-2.6973z" fill="url(#a)"/></svg>