<svg width="2500" height="1309" fill="none" xmlns="http://www.w3.org/2000/svg"><path d="M1250 1301.37c690.36 0 1250-291.32 1250-650.686C2500 291.321 1940.36 0 1250 0 559.644 0 0 291.321 0 650.684c0 359.366 559.644 650.686 1250 650.686Z" fill="#8993BE"/><path fill-rule="evenodd" clip-rule="evenodd" d="m351.025 1035.96 136.993-693.499h316.767c136.983 8.564 205.475 77.051 205.475 196.924 0 205.478-162.662 325.342-308.219 316.777H547.949l-34.248 179.798H351.025Zm231.163-308.216L625 470.889h111.299c59.932 0 102.734 25.683 102.734 77.05-8.554 145.557-77.051 171.241-154.101 179.805H582.188Zm396.25 128.418 136.982-693.486h162.68l-34.25 179.785h154.1c136.99 8.564 188.36 77.051 171.24 162.676l-59.93 351.025h-171.23l59.93-316.777c8.55-42.813 8.55-68.496-51.37-68.496h-128.43l-77.05 385.273H978.438Zm519.852 179.798 136.98-693.499h316.78c136.99 8.564 205.49 77.051 205.49 196.924 0 205.478-162.68 325.342-308.22 316.777h-154.11l-34.25 179.798h-162.67Zm231.15-308.216 42.82-256.855h111.3c59.94 0 102.74 25.683 102.74 77.05-8.56 145.557-77.05 171.241-154.1 179.805h-102.76Z" fill="#232531"/></svg>