<svg fill="none" height="40" viewBox="0 0 40 40" width="40" xmlns="http://www.w3.org/2000/svg"><path d="m0 0h40v40h-40z" fill="#fecb2f"/><g fill="#141414"><path d="m19.8926 11.319c-.7422.0034-1.451.0667-2.0746.1771-1.8372.3246-2.1708 1.0039-2.1708 2.2568v1.6546h4.3415v.5516h-4.3415-1.6294c-1.2617 0-2.3666.7584-2.7122 2.2011-.3986 1.6537-.4163 2.6857 0 4.4124.3086 1.2853 1.0457 2.2012 2.3074 2.2012h1.4928v-1.9836c0-1.433 1.2398-2.697 2.7122-2.697h4.3365c1.2071 0 2.1707-.9939 2.1707-2.2062v-4.1341c0-1.1766-.9926-2.0604-2.1707-2.2568-.7459-.1242-1.5197-.1806-2.2619-.1771zm-2.3479 1.3308c.4485 0 .8147.3722.8147.8299 0 .456-.3662.8247-.8147.8247-.45 0-.8147-.3687-.8147-.8247 0-.4577.3647-.8299.8147-.8299z"/><path d="m24.8671 15.9609v1.9279c0 1.4947-1.2672 2.7527-2.7122 2.7527h-4.3365c-1.1878 0-2.1708 1.0166-2.1708 2.2062v4.1341c0 1.1766 1.0232 1.8686 2.1708 2.2062 1.3743.4041 2.6922.4771 4.3365 0 1.093-.3165 2.1708-.9533 2.1708-2.2062v-1.6547h-4.3365v-.5515h4.3365 2.1708c1.2617 0 1.7319-.8801 2.1707-2.2011.4533-1.36.434-2.6678 0-4.4124-.3118-1.2561-.9074-2.2012-2.1707-2.2012zm-2.4389 10.4693c.45 0 .8146.3688.8146.8248 0 .4577-.3646.8299-.8146.8299-.4485 0-.8147-.3722-.8147-.8299 0-.456.3662-.8248.8147-.8248z"/></g></svg>