<svg xmlns="http://www.w3.org/2000/svg" xmlns:xlink="http://www.w3.org/1999/xlink" xmlns:lucid="lucid" width="1380" height="766"><g transform="translate(20 -240)" lucid:page-tab-id="0_0"><path d="M1000 821v1.96m0 3.93v3.9m0 3.94v3.92m0 3.93v3.9m0 3.94v3.92m0 3.93v3.9m0 3.94v3.92m0 3.93v3.9m0 3.94v3.92m0 3.93v3.9m0 3.94v1.96" stroke="#b2b2b2" fill="none"/><path d="m999.98 820.5.52-.02v.53h-1v-.56" fill="#b2b2b2"/><path d="M1000 899.5v.5m0-559.5v2m0 4.03v4.02m0 4v4.03m0 4.02v4.02m0 4.02v4.02m0 4v4.03m0 4v4.03m0 4.02v4.02m0 4v4.03m0 4.02v4.02m0 4.02v4m0 4.03v4m0 4.03v4.02m0 4.02v4m0 4.03V455m0 4.02v4.02m0 4.02v4m0 4.03v4.03m0 4.02v4.02m0 4.02v4m0 4.02v4.02m0 4.02v4.02m0 4.02v4m0 4.03v4.02m0 4.02v4.02m0 4v4.02m0 4.02v4.02m0 4.02v4.02m0 4.02v4m0 4.03v4.02m0 4.02v4m0 4.02v4.02m0 4.02v4.02m0 4.02v4.02m0 4v4.03m0 4.02v4.02m0 4v4.03m0 4v4.03m0 4.02v4.02m0 4.02v4.02m0 4v4.03m0 4.02v4m0 4.03v4.02m0 4v4.03m0 4.02v4.02m0 4.02v4.02m0 4v4.03m0 4v4.03m0 4.02v4.02m0 4v4.03m0 4.02v4.02m0 4.02v4m0 4.03v4m0 4.03v4.02m0 4.02v4m0 4.03v4.02m0 4.02v4.02m0 4.02v4m0 4.03v4.03m0 4.02v4.02m0 4.02v4m0 4.02v4.02m0 4.02v4.02m0 4.02v4m0 4.03v4.02m0 4.02v4.02m0 4v4.02m0 4.02v4.02m0 4.02V889m0 4.02v4m0 4.03v4.02m0 4.02v4m0 4.02v4.02m0 4.02v4.02m0 4.02v4.02m0 4v4.03m0 4.02v4.02m0 4v4.03m0 4v4.03m0 4.02v4.02m0 4.02v4.02m0 4v4.03m0 4.02v2" stroke="#b2b2b2" fill="none"/><path d="M1000.5 340.5h-1v-.5h1" fill="#b2b2b2"/><path d="M1000 999.5v.5M700 340.5v2m0 4.03v4.02m0 4v4.03m0 4.02v4.02m0 4.02v4.02m0 4v4.03m0 4v4.03m0 4.02v4.02m0 4v4.03m0 4.02v4.02m0 4.02v4m0 4.03v4m0 4.03v4.02m0 4.02v4m0 4.03V455m0 4.02v4.02m0 4.02v4m0 4.03v4.03m0 4.02v4.02m0 4.02v4m0 4.02v4.02m0 4.02v4.02m0 4.02v4m0 4.03v4.02m0 4.02v4.02m0 4v4.02m0 4.02v4.02m0 4.02v4.02m0 4.02v4m0 4.03v4.02m0 4.02v4m0 4.02v4.02m0 4.02v4.02m0 4.02v4.02m0 4v4.03m0 4.02v4.02m0 4v4.03m0 4v4.03m0 4.02v4.02m0 4.02v4.02m0 4v4.03m0 4.02v4m0 4.03v4.02m0 4v4.03m0 4.02v4.02m0 4.02v4.02m0 4v4.03m0 4v4.03m0 4.02v4.02m0 4v4.03m0 4.02v4.02m0 4.02v4m0 4.03v4m0 4.03v4.02m0 4.02v4m0 4.03v4.02m0 4.02v4.02m0 4.02v4m0 4.03v4.03m0 4.02v4.02m0 4.02v4m0 4.02v4.02m0 4.02v4.02m0 4.02v4m0 4.03v4.02m0 4.02v4.02m0 4v4.02m0 4.02v4.02m0 4.02V889m0 4.02v4m0 4.03v4.02m0 4.02v4m0 4.02v4.02m0 4.02v4.02m0 4.02v4.02m0 4v4.03m0 4.02v4.02m0 4v4.03m0 4v4.03m0 4.02v4.02m0 4.02v4.02m0 4v4.03m0 4.02v2" stroke="#b2b2b2" fill="none"/><path d="M700.5 340.5h-1v-.5h1" fill="#b2b2b2"/><path d="M700 999.5v.5M400 340.5v2m0 4.03v4.02m0 4v4.03m0 4.02v4.02m0 4.02v4.02m0 4v4.03m0 4v4.03m0 4.02v4.02m0 4v4.03m0 4.02v4.02m0 4.02v4m0 4.03v4m0 4.03v4.02m0 4.02v4m0 4.03V455m0 4.02v4.02m0 4.02v4m0 4.03v4.03m0 4.02v4.02m0 4.02v4m0 4.02v4.02m0 4.02v4.02m0 4.02v4m0 4.03v4.02m0 4.02v4.02m0 4v4.02m0 4.02v4.02m0 4.02v4.02m0 4.02v4m0 4.03v4.02m0 4.02v4m0 4.02v4.02m0 4.02v4.02m0 4.02v4.02m0 4v4.03m0 4.02v4.02m0 4v4.03m0 4v4.03m0 4.02v4.02m0 4.02v4.02m0 4v4.03m0 4.02v4m0 4.03v4.02m0 4v4.03m0 4.02v4.02m0 4.02v4.02m0 4v4.03m0 4v4.03m0 4.02v4.02m0 4v4.03m0 4.02v4.02m0 4.02v4m0 4.03v4m0 4.03v4.02m0 4.02v4m0 4.03v4.02m0 4.02v4.02m0 4.02v4m0 4.03v4.03m0 4.02v4.02m0 4.02v4m0 4.02v4.02m0 4.02v4.02m0 4.02v4m0 4.03v4.02m0 4.02v4.02m0 4v4.02m0 4.02v4.02m0 4.02V889m0 4.02v4m0 4.03v4.02m0 4.02v4m0 4.02v4.02m0 4.02v4.02m0 4.02v4.02m0 4v4.03m0 4.02v4.02m0 4v4.03m0 4v4.03m0 4.02v4.02m0 4.02v4.02m0 4v4.03m0 4.02v2" stroke="#b2b2b2" fill="none"/><path d="M400.5 340.5h-1v-.5h1" fill="#b2b2b2"/><path d="M400 999.5v.5" stroke="#b2b2b2" fill="none"/><path d="M420 400c0 11.05-8.95 20-20 20s-20-8.95-20-20 8.95-20 20-20 20 8.95 20 20zm0 100c0 11.05-8.95 20-20 20s-20-8.95-20-20 8.95-20 20-20 20 8.95 20 20zm300 0c0 11.05-8.95 20-20 20s-20-8.95-20-20 8.95-20 20-20 20 8.95 20 20zm0 100c0 11.05-8.95 20-20 20s-20-8.95-20-20 8.95-20 20-20 20 8.95 20 20zm300 0c0 11.05-8.95 20-20 20s-20-8.95-20-20 8.95-20 20-20 20 8.95 20 20zM720 700c0 11.05-8.95 20-20 20s-20-8.95-20-20 8.95-20 20-20 20 8.95 20 20zm-300 0c0 11.05-8.95 20-20 20s-20-8.95-20-20 8.95-20 20-20 20 8.95 20 20zm0 100c0 11.05-8.95 20-20 20s-20-8.95-20-20 8.95-20 20-20 20 8.95 20 20z" stroke="#333" fill="#fff"/><path d="M400 421v42.12" stroke="#333" fill="none"/><path d="m399.98 420.5.52-.02v.53h-1v-.56" fill="#333"/><path d="m400 477.88-4.64-14.26h9.28z" stroke="#333" fill="#333"/><path d="M421 500h242.12" stroke="#333" fill="none"/><path d="M421 500.5h-.56l.06-.48-.02-.52h.53" fill="#333"/><path d="m677.88 500-14.26 4.64v-9.28z" stroke="#333" fill="#333"/><path d="M700 521v42.12" stroke="#333" fill="none"/><path d="m699.98 520.5.52-.02v.53h-1v-.56" fill="#333"/><path d="m700 577.88-4.64-14.26h9.28z" stroke="#333" fill="#333"/><path d="M721 600h242.12" stroke="#333" fill="none"/><path d="M721 600.5h-.56l.06-.48-.02-.52h.53" fill="#333"/><path d="m977.88 600-14.26 4.64v-9.28z" stroke="#333" fill="#333"/><path d="M700 621v42.12" stroke="#333" fill="none"/><path d="m699.98 620.5.52-.02v.53h-1v-.56" fill="#333"/><path d="m700 677.88-4.64-14.26h9.28z" stroke="#333" fill="#333"/><path d="M679 700H436.88" stroke="#333" fill="none"/><path d="m679.5 699.98.02.52H679v-1h.56" fill="#333"/><path d="m422.12 700 14.26-4.64v9.28z" stroke="#333" fill="#333"/><path d="M400 721v2.07m0 4.14v4.16m0 4.14v4.14m0 4.15v4.13m0 4.14v4.14m0 4.16v4.14m0 4.14v4.15m0 4.13V779" stroke="#333" fill="none"/><path d="m399.98 720.5.52-.02v.53h-1v-.56m1 59.11-.48-.06-.52.02V779h1" fill="#333"/><path d="M240 266c0-3.3 2.7-6 6-6h308c3.3 0 6 2.7 6 6v68c0 3.3-2.7 6-6 6H246c-3.3 0-6-2.7-6-6z" fill="none"/><use xlink:href="#a" transform="translate(312.407 291.528)"/><use xlink:href="#b" transform="translate(419.691 291.528)"/><use xlink:href="#c" transform="translate(274.537 318.194)"/><use xlink:href="#d" transform="translate(331.142 318.194)"/><use xlink:href="#e" transform="translate(427.994 318.194)"/><path d="M540 266c0-3.3 2.7-6 6-6h308c3.3 0 6 2.7 6 6v68c0 3.3-2.7 6-6 6H546c-3.3 0-6-2.7-6-6z" fill="none"/><use xlink:href="#f" transform="translate(643.302 291.528)"/><use xlink:href="#g" transform="translate(701.327 291.528)"/><use xlink:href="#h" transform="translate(613.056 318.194)"/><use xlink:href="#e" transform="translate(689.475 318.194)"/><path d="M840 266c0-3.3 2.7-6 6-6h308c3.3 0 6 2.7 6 6v68c0 3.3-2.7 6-6 6H846c-3.3 0-6-2.7-6-6z" fill="none"/><use xlink:href="#i" transform="translate(949.444 304.653)"/><path d="M400 521v1.98m0 3.95v3.95m0 3.95v3.95m0 3.95v3.95m0 3.95v3.95m0 3.95v3.95m0 3.95v3.95m0 3.95v3.95m0 3.95v3.95m0 3.95v3.95m0 3.95v3.94m0 3.95v3.95m0 3.95v3.95m0 3.95v3.95m0 3.95v3.95m0 3.95v3.95m0 3.95v3.95m0 3.95v3.95m0 3.95v3.95m0 3.95v3.95m0 3.95V679" stroke="#333" fill="none"/><path d="m399.98 520.5.52-.02v.53h-1v-.56m1 159.11-.48-.06-.52.02V679h1" fill="#333"/><path d="M1020 800c0 11.05-8.95 20-20 20s-20-8.95-20-20 8.95-20 20-20 20 8.95 20 20z" stroke="#333" fill="#fff"/><path d="M979 800H436.9" stroke="#333" fill="none"/><path d="m979.5 799.98.02.52H979v-1h.56" fill="#333"/><path d="m422.12 800 14.27-4.64v9.28z" stroke="#333" fill="#333"/><path d="M420 900c0 11.05-8.95 20-20 20s-20-8.95-20-20 8.95-20 20-20 20 8.95 20 20z" stroke="#333" fill="#fff"/><path d="M400 821v39.95" stroke="#333" fill="none"/><path d="m399.98 820.5.52-.02v.53h-1v-.56" fill="#333"/><path d="m400 875.72-4.64-14.27h9.28z" stroke="#333" fill="#333"/><path d="M60 466c0-3.3 2.7-6 6-6h268c3.3 0 6 2.7 6 6v68c0 3.3-2.7 6-6 6H66c-3.3 0-6-2.7-6-6z" fill="none"/><use xlink:href="#j" transform="translate(76.05 504.653)"/><use xlink:href="#k" transform="translate(150.062 504.653)"/><use xlink:href="#e" transform="translate(226.481 504.653)"/><path d="M60 666c0-3.3 2.7-6 6-6h268c3.3 0 6 2.7 6 6v68c0 3.3-2.7 6-6 6H66c-3.3 0-6-2.7-6-6z" fill="none"/><use xlink:href="#l" transform="translate(75.463 704.653)"/><use xlink:href="#m" transform="translate(151.883 704.653)"/><use xlink:href="#n" transform="translate(255.525 704.653)"/><path d="M1060 766c0-3.3 2.7-6 6-6h268c3.3 0 6 2.7 6 6v68c0 3.3-2.7 6-6 6h-268c-3.3 0-6-2.7-6-6z" fill="none"/><use xlink:href="#a" transform="translate(1108.086 804.653)"/><use xlink:href="#o" transform="translate(1215.37 804.653)"/><path d="M440 566c0-3.3 2.7-6 6-6h188c3.3 0 6 2.7 6 6v68c0 3.3-2.7 6-6 6H446c-3.3 0-6-2.7-6-6z" fill="none"/><use xlink:href="#p" transform="translate(477.16 604.653)"/><use xlink:href="#q" transform="translate(538.704 604.653)"/><use xlink:href="#r" transform="translate(560.864 604.653)"/><path d="M340.5 500H379" stroke="#333" fill="none"/><path d="M340.5 500.5h-.5v-1h.5m39 .48.02.52H379v-1h.56" fill="#333"/><path d="M340.5 700H379" stroke="#333" fill="none"/><path d="M340.5 700.5h-.5v-1h.5m39 .48.02.52H379v-1h.56" fill="#333"/><path d="M640.5 600H679" stroke="#333" fill="none"/><path d="M640.5 600.5h-.5v-1h.5m39 .48.02.52H679v-1h.56" fill="#333"/><path d="M1059.5 800H1021" stroke="#333" fill="none"/><path d="M1060 800.5h-.5v-1h.5m-39 1h-.56l.06-.48-.02-.52h.53" fill="#333"/><path d="M1060 566c0-3.3 2.7-6 6-6h268c3.3 0 6 2.7 6 6v68c0 3.3-2.7 6-6 6h-268c-3.3 0-6-2.7-6-6z" fill="none"/><use xlink:href="#a" transform="translate(1075.525 604.653)"/><use xlink:href="#s" transform="translate(1182.809 604.653)"/><use xlink:href="#t" transform="translate(1271.574 604.653)"/><path d="M1059.5 600H1021" stroke="#333" fill="none"/><path d="M1060 600.5h-.5v-1h.5m-39 1h-.56l.06-.48-.02-.52h.53" fill="#333"/><path d="M0 866c0-3.3 2.7-6 6-6h328c3.3 0 6 2.7 6 6v68c0 3.3-2.7 6-6 6H6c-3.3 0-6-2.7-6-6z" fill="none"/><use xlink:href="#u" transform="translate(6.944 904.653)"/><use xlink:href="#d" transform="translate(63.55 904.653)"/><use xlink:href="#m" transform="translate(160.401 904.653)"/><use xlink:href="#n" transform="translate(264.043 904.653)"/><path d="M340.5 900H379" stroke="#333" fill="none"/><path d="M340.5 900.5h-.5v-1h.5m39 .48.02.52H379v-1h.56" fill="#333"/><path d="M0 366c0-3.3 2.7-6 6-6h328c3.3 0 6 2.7 6 6v68c0 3.3-2.7 6-6 6H6c-3.3 0-6-2.7-6-6z" fill="none"/><use xlink:href="#j" transform="translate(7.53 404.653)"/><use xlink:href="#v" transform="translate(81.543 404.653)"/><use xlink:href="#d" transform="translate(138.148 404.653)"/><use xlink:href="#e" transform="translate(235 404.653)"/><path d="M340.5 400H379" stroke="#333" fill="none"/><path d="M340.5 400.5h-.5v-1h.5m39 .48.02.52H379v-1h.56" fill="#333"/><path d="M140 766c0-3.3 2.7-6 6-6h188c3.3 0 6 2.7 6 6v68c0 3.3-2.7 6-6 6H146c-3.3 0-6-2.7-6-6z" fill="none"/><use xlink:href="#w" transform="translate(164.198 804.653)"/><use xlink:href="#x" transform="translate(231.975 804.653)"/><path d="M340.5 800H379" stroke="#333" fill="none"/><path d="M340.5 800.5h-.5v-1h.5m39 .48.02.52H379v-1h.56" fill="#333"/><path d="M1000 621v142.84" stroke="#333" fill="none"/><path d="m999.98 620.5.52-.02v.53h-1v-.56" fill="#333"/><path d="m1000 778.6-4.64-14.26h9.28z" stroke="#333" fill="#333"/><defs><path fill="#333" d="M212-179c-10-28-35-45-73-45-59 0-87 40-87 99 0 60 29 101 89 101 43 0 62-24 78-52l27 14C228-24 195 4 139 4 59 4 22-46 18-125c-6-104 99-153 187-111 19 9 31 26 39 46" id="y"/><path fill="#333" d="M141-36C126-15 110 5 73 4 37 3 15-17 15-53c-1-64 63-63 125-63 3-35-9-54-41-54-24 1-41 7-42 31l-33-3c5-37 33-52 76-52 45 0 72 20 72 64v82c-1 20 7 32 28 27v20c-31 9-61-2-59-35zM48-53c0 20 12 33 32 33 41-3 63-29 60-74-43 2-92-5-92 41" id="z"/><path fill="#333" d="M117-194c89-4 53 116 60 194h-32v-121c0-31-8-49-39-48C34-167 62-67 57 0H25l-1-190h30c1 10-1 24 2 32 11-22 29-35 61-36" id="A"/><path fill="#333" d="M85-194c31 0 48 13 60 33l-1-100h32l1 261h-30c-2-10 0-23-3-31C134-8 116 4 85 4 32 4 16-35 15-94c0-66 23-100 70-100zm9 24c-40 0-46 34-46 75 0 40 6 74 45 74 42 0 51-32 51-76 0-42-9-74-50-73" id="B"/><path fill="#333" d="M24-231v-30h32v30H24zM24 0v-190h32V0H24" id="C"/><path fill="#333" d="M59-47c-2 24 18 29 38 22v24C64 9 27 4 27-40v-127H5v-23h24l9-43h21v43h35v23H59v120" id="D"/><path fill="#333" d="M100-194c63 0 86 42 84 106H49c0 40 14 67 53 68 26 1 43-12 49-29l28 8c-11 28-37 45-77 45C44 4 14-33 15-96c1-61 26-98 85-98zm52 81c6-60-76-77-97-28-3 7-6 17-6 28h103" id="E"/><path fill="#333" d="m205 0-28-72H64L36 0H1l101-248h38L239 0h-34zm-38-99-47-123c-12 45-31 82-46 123h93" id="F"/><path fill="#333" d="M96-169c-40 0-48 33-48 73s9 75 48 75c24 0 41-14 43-38l32 2c-6 37-31 61-74 61-59 0-76-41-82-99-10-93 101-131 147-64 4 7 5 14 7 22l-32 3c-4-21-16-35-41-35" id="G"/><path fill="#333" d="M115-194c55 1 70 41 70 98S169 2 115 4C84 4 66-9 55-30l1 105H24l-1-265h31l2 30c10-21 28-34 59-34zm-8 174c40 0 45-34 45-75s-6-73-45-74c-42 0-51 32-51 76 0 43 10 73 51 73" id="H"/><path fill="#333" d="M106-169C34-169 62-67 57 0H25v-261h32l-1 103c12-21 28-36 61-36 89 0 53 116 60 194h-32v-121c2-32-8-49-39-48" id="I"/><path fill="#333" d="M24 0v-261h32V0H24" id="J"/><path fill="#333" d="M266 0h-40l-56-210L115 0H75L2-248h35L96-30l15-64 43-154h32l59 218 59-218h35" id="K"/><path fill="#333" d="M100-194c62-1 85 37 85 99 1 63-27 99-86 99S16-35 15-95c0-66 28-99 85-99zM99-20c44 1 53-31 53-75 0-43-8-75-51-75s-53 32-53 75 10 74 51 75" id="L"/><path fill="#333" d="M114-163C36-179 61-72 57 0H25l-1-190h30c1 12-1 29 2 39 6-27 23-49 58-41v29" id="M"/><path fill="#333" d="M143 0 79-87 56-68V0H24v-261h32v163l83-92h37l-77 82L181 0h-38" id="N"/><path fill="#333" d="M101-234c-31-9-42 10-38 44h38v23H63V0H32v-167H5v-23h27c-7-52 17-82 69-68v24" id="O"/><path fill="#333" d="M206 0h-36l-40-164L89 0H53L-1-190h32L70-26l43-164h34l41 164 42-164h31" id="P"/><path fill="#333" d="M30 0v-248h187v28H63v79h144v27H63v87h162V0H30" id="Q"/><path fill="#333" d="M141 0 90-78 38 0H4l68-98-65-92h35l48 74 47-74h35l-64 92 68 98h-35" id="R"/><path fill="#333" d="M84 4C-5 8 30-112 23-190h32v120c0 31 7 50 39 49 72-2 45-101 50-169h31l1 190h-30c-1-10 1-25-2-33-11 22-28 36-60 37" id="S"/><path fill="#333" d="M185-189c-5-48-123-54-124 2 14 75 158 14 163 119 3 78-121 87-175 55-17-10-28-26-33-46l33-7c5 56 141 63 141-1 0-78-155-14-162-118-5-82 145-84 179-34 5 7 8 16 11 25" id="T"/><path fill="#333" d="M210-169c-67 3-38 105-44 169h-31v-121c0-29-5-50-35-48C34-165 62-65 56 0H25l-1-190h30c1 10-1 24 2 32 10-44 99-50 107 0 11-21 27-35 58-36 85-2 47 119 55 194h-31v-121c0-29-5-49-35-48" id="U"/><path fill="#333" d="M108 0H70L1-190h34L89-25l56-165h34" id="V"/><path fill="#333" d="M179-190 93 31C79 59 56 82 12 73V49c39 6 53-20 64-50L1-190h34L92-34l54-156h33" id="W"/><path fill="#333" d="M135-143c-3-34-86-38-87 0 15 53 115 12 119 90S17 21 10-45l28-5c4 36 97 45 98 0-10-56-113-15-118-90-4-57 82-63 122-42 12 7 21 19 24 35" id="X"/><path fill="#333" d="M177-190C167-65 218 103 67 71c-23-6-38-20-44-43l32-5c15 47 100 32 89-28v-30C133-14 115 1 83 1 29 1 15-40 15-95c0-56 16-97 71-98 29-1 48 16 59 35 1-10 0-23 2-32h30zM94-22c36 0 50-32 50-73 0-42-14-75-50-75-39 0-46 34-46 75s6 73 46 73" id="Y"/><g id="a"><use transform="rotate(.413) scale(.06173)" xlink:href="#y"/><use transform="matrix(.06173 0 0 .06173 15.988 0)" xlink:href="#z"/><use transform="matrix(.06173 0 0 .06173 28.333 0)" xlink:href="#A"/><use transform="matrix(.06173 0 0 .06173 40.679 0)" xlink:href="#B"/><use transform="matrix(.06173 0 0 .06173 53.025 0)" xlink:href="#C"/><use transform="matrix(.06173 0 0 .06173 57.901 0)" xlink:href="#B"/><use transform="matrix(.06173 0 0 .06173 70.247 0)" xlink:href="#z"/><use transform="matrix(.06173 0 0 .06173 82.593 0)" xlink:href="#D"/><use transform="matrix(.06173 0 0 .06173 88.765 0)" xlink:href="#E"/></g><g id="b"><use transform="rotate(.413) scale(.06173)" xlink:href="#F"/><use transform="matrix(.06173 0 0 .06173 14.815 0)" xlink:href="#G"/><use transform="matrix(.06173 0 0 .06173 25.926 0)" xlink:href="#G"/><use transform="matrix(.06173 0 0 .06173 37.037 0)" xlink:href="#E"/><use transform="matrix(.06173 0 0 .06173 49.383 0)" xlink:href="#H"/><use transform="matrix(.06173 0 0 .06173 61.728 0)" xlink:href="#D"/></g><g id="c"><use transform="rotate(.413) scale(.06173)" xlink:href="#y"/><use transform="matrix(.06173 0 0 .06173 15.988 0)" xlink:href="#I"/><use transform="matrix(.06173 0 0 .06173 28.333 0)" xlink:href="#C"/><use transform="matrix(.06173 0 0 .06173 33.21 0)" xlink:href="#J"/><use transform="matrix(.06173 0 0 .06173 38.086 0)" xlink:href="#B"/></g><g id="d"><use transform="rotate(.413) scale(.06173)" xlink:href="#K"/><use transform="matrix(.06173 0 0 .06173 20.494 0)" xlink:href="#L"/><use transform="matrix(.06173 0 0 .06173 32.84 0)" xlink:href="#M"/><use transform="matrix(.06173 0 0 .06173 40.185 0)" xlink:href="#N"/><use transform="matrix(.06173 0 0 .06173 51.296 0)" xlink:href="#O"/><use transform="matrix(.06173 0 0 .06173 57.47 0)" xlink:href="#J"/><use transform="matrix(.06173 0 0 .06173 62.346 0)" xlink:href="#L"/><use transform="matrix(.06173 0 0 .06173 74.691 0)" xlink:href="#P"/></g><g id="e"><use transform="rotate(.413) scale(.06173)" xlink:href="#Q"/><use transform="matrix(.06173 0 0 .06173 14.815 0)" xlink:href="#R"/><use transform="matrix(.06173 0 0 .06173 25.926 0)" xlink:href="#E"/><use transform="matrix(.06173 0 0 .06173 38.272 0)" xlink:href="#G"/><use transform="matrix(.06173 0 0 .06173 49.383 0)" xlink:href="#S"/><use transform="matrix(.06173 0 0 .06173 61.728 0)" xlink:href="#D"/><use transform="matrix(.06173 0 0 .06173 67.901 0)" xlink:href="#C"/><use transform="matrix(.06173 0 0 .06173 72.778 0)" xlink:href="#L"/><use transform="matrix(.06173 0 0 .06173 85.123 0)" xlink:href="#A"/></g><g id="f"><use transform="rotate(.413) scale(.06173)" xlink:href="#T"/><use transform="matrix(.06173 0 0 .06173 14.815 0)" xlink:href="#E"/><use transform="matrix(.06173 0 0 .06173 27.16 0)" xlink:href="#A"/><use transform="matrix(.06173 0 0 .06173 39.506 0)" xlink:href="#B"/></g><g id="g"><use transform="rotate(.413) scale(.06173)" xlink:href="#Q"/><use transform="matrix(.06173 0 0 .06173 14.815 0)" xlink:href="#U"/><use transform="matrix(.06173 0 0 .06173 33.272 0)" xlink:href="#z"/><use transform="matrix(.06173 0 0 .06173 45.617 0)" xlink:href="#C"/><use transform="matrix(.06173 0 0 .06173 50.494 0)" xlink:href="#J"/></g><g id="h"><use transform="rotate(.413) scale(.06173)" xlink:href="#F"/><use transform="matrix(.06173 0 0 .06173 14.815 0)" xlink:href="#G"/><use transform="matrix(.06173 0 0 .06173 25.926 0)" xlink:href="#D"/><use transform="matrix(.06173 0 0 .06173 32.099 0)" xlink:href="#C"/><use transform="matrix(.06173 0 0 .06173 36.975 0)" xlink:href="#V"/><use transform="matrix(.06173 0 0 .06173 48.086 0)" xlink:href="#C"/><use transform="matrix(.06173 0 0 .06173 52.963 0)" xlink:href="#D"/><use transform="matrix(.06173 0 0 .06173 59.136 0)" xlink:href="#W"/></g><g id="i"><use transform="rotate(.413) scale(.06173)" xlink:href="#y"/><use transform="matrix(.06173 0 0 .06173 15.988 0)" xlink:href="#z"/><use transform="matrix(.06173 0 0 .06173 28.333 0)" xlink:href="#A"/><use transform="matrix(.06173 0 0 .06173 40.679 0)" xlink:href="#B"/><use transform="matrix(.06173 0 0 .06173 53.025 0)" xlink:href="#C"/><use transform="matrix(.06173 0 0 .06173 57.901 0)" xlink:href="#B"/><use transform="matrix(.06173 0 0 .06173 70.247 0)" xlink:href="#z"/><use transform="matrix(.06173 0 0 .06173 82.593 0)" xlink:href="#D"/><use transform="matrix(.06173 0 0 .06173 88.765 0)" xlink:href="#E"/></g><g id="j"><use transform="rotate(.413) scale(.06173)" xlink:href="#T"/><use transform="matrix(.06173 0 0 .06173 14.815 0)" xlink:href="#H"/><use transform="matrix(.06173 0 0 .06173 27.16 0)" xlink:href="#z"/><use transform="matrix(.06173 0 0 .06173 39.506 0)" xlink:href="#P"/><use transform="matrix(.06173 0 0 .06173 55.494 0)" xlink:href="#A"/></g><g id="k"><use transform="rotate(.413) scale(.06173)" xlink:href="#F"/><use transform="matrix(.06173 0 0 .06173 14.815 0)" xlink:href="#G"/><use transform="matrix(.06173 0 0 .06173 25.926 0)" xlink:href="#D"/><use transform="matrix(.06173 0 0 .06173 32.099 0)" xlink:href="#C"/><use transform="matrix(.06173 0 0 .06173 36.975 0)" xlink:href="#V"/><use transform="matrix(.06173 0 0 .06173 48.086 0)" xlink:href="#C"/><use transform="matrix(.06173 0 0 .06173 52.963 0)" xlink:href="#D"/><use transform="matrix(.06173 0 0 .06173 59.136 0)" xlink:href="#W"/></g><g id="l"><use transform="rotate(.413) scale(.06173)" xlink:href="#F"/><use transform="matrix(.06173 0 0 .06173 14.815 0)" xlink:href="#G"/><use transform="matrix(.06173 0 0 .06173 25.926 0)" xlink:href="#D"/><use transform="matrix(.06173 0 0 .06173 32.099 0)" xlink:href="#C"/><use transform="matrix(.06173 0 0 .06173 36.975 0)" xlink:href="#V"/><use transform="matrix(.06173 0 0 .06173 48.086 0)" xlink:href="#C"/><use transform="matrix(.06173 0 0 .06173 52.963 0)" xlink:href="#D"/><use transform="matrix(.06173 0 0 .06173 59.136 0)" xlink:href="#W"/></g><g id="m"><use transform="rotate(.413) scale(.06173)" xlink:href="#Q"/><use transform="matrix(.06173 0 0 .06173 14.815 0)" xlink:href="#R"/><use transform="matrix(.06173 0 0 .06173 25.926 0)" xlink:href="#E"/><use transform="matrix(.06173 0 0 .06173 38.272 0)" xlink:href="#G"/><use transform="matrix(.06173 0 0 .06173 49.383 0)" xlink:href="#S"/><use transform="matrix(.06173 0 0 .06173 61.728 0)" xlink:href="#D"/><use transform="matrix(.06173 0 0 .06173 67.901 0)" xlink:href="#C"/><use transform="matrix(.06173 0 0 .06173 72.778 0)" xlink:href="#L"/><use transform="matrix(.06173 0 0 .06173 85.123 0)" xlink:href="#A"/></g><g id="n"><use transform="rotate(.413) scale(.06173)" xlink:href="#M"/><use transform="matrix(.06173 0 0 .06173 7.346 0)" xlink:href="#E"/><use transform="matrix(.06173 0 0 .06173 19.691 0)" xlink:href="#D"/><use transform="matrix(.06173 0 0 .06173 25.864 0)" xlink:href="#S"/><use transform="matrix(.06173 0 0 .06173 38.21 0)" xlink:href="#M"/><use transform="matrix(.06173 0 0 .06173 45.556 0)" xlink:href="#A"/><use transform="matrix(.06173 0 0 .06173 57.901 0)" xlink:href="#X"/></g><g id="o"><use transform="rotate(.413) scale(.06173)" xlink:href="#z"/><use transform="matrix(.06173 0 0 .06173 12.346 0)" xlink:href="#G"/><use transform="matrix(.06173 0 0 .06173 23.457 0)" xlink:href="#G"/><use transform="matrix(.06173 0 0 .06173 34.568 0)" xlink:href="#E"/><use transform="matrix(.06173 0 0 .06173 46.914 0)" xlink:href="#H"/><use transform="matrix(.06173 0 0 .06173 59.26 0)" xlink:href="#D"/><use transform="matrix(.06173 0 0 .06173 65.432 0)" xlink:href="#X"/></g><g id="p"><use transform="rotate(.413) scale(.06173)" xlink:href="#Q"/><use transform="matrix(.06173 0 0 .06173 14.815 0)" xlink:href="#U"/><use transform="matrix(.06173 0 0 .06173 33.272 0)" xlink:href="#z"/><use transform="matrix(.06173 0 0 .06173 45.617 0)" xlink:href="#C"/><use transform="matrix(.06173 0 0 .06173 50.494 0)" xlink:href="#J"/></g><g id="q"><use transform="rotate(.413) scale(.06173)" xlink:href="#C"/><use transform="matrix(.06173 0 0 .06173 4.877 0)" xlink:href="#X"/></g><g id="r"><use transform="rotate(.413) scale(.06173)" xlink:href="#X"/><use transform="matrix(.06173 0 0 .06173 11.111 0)" xlink:href="#E"/><use transform="matrix(.06173 0 0 .06173 23.457 0)" xlink:href="#A"/><use transform="matrix(.06173 0 0 .06173 35.802 0)" xlink:href="#D"/></g><g id="s"><use transform="rotate(.413) scale(.06173)" xlink:href="#M"/><use transform="matrix(.06173 0 0 .06173 7.346 0)" xlink:href="#E"/><use transform="matrix(.06173 0 0 .06173 19.691 0)" xlink:href="#G"/><use transform="matrix(.06173 0 0 .06173 30.802 0)" xlink:href="#E"/><use transform="matrix(.06173 0 0 .06173 43.148 0)" xlink:href="#C"/><use transform="matrix(.06173 0 0 .06173 48.025 0)" xlink:href="#V"/><use transform="matrix(.06173 0 0 .06173 59.136 0)" xlink:href="#E"/><use transform="matrix(.06173 0 0 .06173 71.481 0)" xlink:href="#X"/></g><g id="t"><use transform="rotate(.413) scale(.06173)" xlink:href="#E"/><use transform="matrix(.06173 0 0 .06173 12.346 0)" xlink:href="#U"/><use transform="matrix(.06173 0 0 .06173 30.802 0)" xlink:href="#z"/><use transform="matrix(.06173 0 0 .06173 43.148 0)" xlink:href="#C"/><use transform="matrix(.06173 0 0 .06173 48.025 0)" xlink:href="#J"/></g><g id="u"><use transform="rotate(.413) scale(.06173)" xlink:href="#y"/><use transform="matrix(.06173 0 0 .06173 15.988 0)" xlink:href="#I"/><use transform="matrix(.06173 0 0 .06173 28.333 0)" xlink:href="#C"/><use transform="matrix(.06173 0 0 .06173 33.21 0)" xlink:href="#J"/><use transform="matrix(.06173 0 0 .06173 38.086 0)" xlink:href="#B"/></g><g id="v"><use transform="rotate(.413) scale(.06173)" xlink:href="#y"/><use transform="matrix(.06173 0 0 .06173 15.988 0)" xlink:href="#I"/><use transform="matrix(.06173 0 0 .06173 28.333 0)" xlink:href="#C"/><use transform="matrix(.06173 0 0 .06173 33.21 0)" xlink:href="#J"/><use transform="matrix(.06173 0 0 .06173 38.086 0)" xlink:href="#B"/></g><g id="w"><use transform="rotate(.413) scale(.06173)" xlink:href="#T"/><use transform="matrix(.06173 0 0 .06173 14.815 0)" xlink:href="#C"/><use transform="matrix(.06173 0 0 .06173 19.691 0)" xlink:href="#Y"/><use transform="matrix(.06173 0 0 .06173 32.037 0)" xlink:href="#A"/><use transform="matrix(.06173 0 0 .06173 44.383 0)" xlink:href="#z"/><use transform="matrix(.06173 0 0 .06173 56.728 0)" xlink:href="#J"/></g><g id="x"><use transform="rotate(.413) scale(.06173)" xlink:href="#M"/><use transform="matrix(.06173 0 0 .06173 7.346 0)" xlink:href="#E"/><use transform="matrix(.06173 0 0 .06173 19.691 0)" xlink:href="#G"/><use transform="matrix(.06173 0 0 .06173 30.802 0)" xlink:href="#E"/><use transform="matrix(.06173 0 0 .06173 43.148 0)" xlink:href="#C"/><use transform="matrix(.06173 0 0 .06173 48.025 0)" xlink:href="#V"/><use transform="matrix(.06173 0 0 .06173 59.136 0)" xlink:href="#E"/><use transform="matrix(.06173 0 0 .06173 71.481 0)" xlink:href="#B"/></g></defs></g></svg>