<svg xmlns="http://www.w3.org/2000/svg" xmlns:xlink="http://www.w3.org/1999/xlink" xmlns:lucid="lucid" width="1140" height="1040"><g transform="translate(-1580 -60)" lucid:page-tab-id="0_0"><path d="M0 0h3677.73v1322.83H0z" fill="#fff"/><path d="M1600 81a1 1 0 0 1 1-1h1098a1 1 0 0 1 1 1v998a1 1 0 0 1-1 1H1601a1 1 0 0 1-1-1z" fill="#fff"/><path d="M1831.9 175a15 15 0 0 1 15-15h683.5a15 15 0 0 1 15 15v813.24a15 15 0 0 1-15 15h-683.5a15 15 0 0 1-15-15z" stroke="#333" fill="#127ae5"/><path d="M1864.32 207.43a15 15 0 0 1 15-15h618.65a15 15 0 0 1 15 15v456.5a15 15 0 0 1-15 15h-618.65a15 15 0 0 1-15-15z" fill="none"/><path d="m1865.28 202.25.68-1.63.92-1.5m2.3-2.68 1.33-1.14 1.5-.93m3.26-1.34 1.72-.4h2m3.97 0 3.98-.02m3.98 0h4m3.97 0h3.98m3.98 0h3.98m4 0h3.98m3.98 0h3.98m3.98 0h3.98m3.98 0h3.98m3.98 0h3.98m3.98 0h3.98m3.98 0h3.98m4 0h3.97m4 0h3.97m3.98-.02h3.98m3.98 0h4m3.97 0h3.98m3.98 0h3.98m4 0h3.97m4 0h3.97m3.98 0h3.98m3.98 0h3.98m3.98 0 3.98-.02m3.98 0h3.98m3.98 0h3.98m3.98 0h4m3.97 0h3.97m3.98 0h3.98m3.98 0h4m3.97 0h3.98m3.98 0h3.98m4-.02h3.97m3.98 0h4m3.97 0h3.98m3.98 0h3.98m3.98 0h3.98m3.98 0h3.98m3.98 0h3.98m3.98 0h3.98m4 0 3.97-.02m3.98 0h3.98m3.98 0h4m3.97 0h3.98m3.98 0h3.98m4 0h3.97m3.98 0h3.98m4 0h3.97m3.98 0h3.98m3.98-.02h3.98m3.98 0h3.98m3.98 0h3.98m3.98 0h3.98m3.98 0h3.98m4 0h3.97m3.98 0h4m3.97 0h3.98m3.98 0 3.98-.02m4 0h3.97m3.98 0h3.98m3.98 0h4m3.98 0h3.98m3.98 0h3.98m3.98 0h3.98m3.98 0h3.98m3.98 0h3.98m3.98-.02h3.98m3.98 0h4m3.97 0h4m3.97 0h3.98m3.98 0h3.98m4 0h3.97m3.98 0h3.98m3.98 0h4m3.98-.02h3.98m3.98 0h3.98m3.98 0h3.98m3.98 0h3.98m3.98 0h3.98m3.98 0h2l1.75.13m3.42.82 1.63.67 1.5.92m2.68 2.27 1.15 1.35.93 1.5m1.35 3.25.4 1.72v2m0 4.02v4.03m0 4.02.02 4.03m0 4.02v4.03m0 4.02v4.03m0 4.02v4.03m0 4.02v4.03m0 4.02v4.03m0 4.02v4.03m.02 4.02v4.03m0 4.02v4.03m0 4.02v4.03m0 4.02v4.02m0 4.02v4.02m0 4.03v4.02m.02 4.02v4.02m0 4.03v4.02m0 4.02v4.02m0 4.03V352m0 4.02v4.02m0 4.03v4.02m.02 4.02v4.02m0 4.03v4.02m0 4.02v4.02m0 4.03v4.02m0 4.02v4.02m0 4.03v4.02m0 4.02.02 4.02m0 4.03v4.02m0 4v4.04m0 4.02v4.03m0 4v4.04m0 4.02v4.03m0 4 .02 4.04m0 4.02v4.03m0 4v4.04m0 4.02v4.03m0 4v4.04m0 4.02V513m0 4 .02 4.04m0 4.02v4.03m0 4v4.04m0 4.02v4.03m0 4v4.04m0 4.02v4.03m0 4v4.03m.02 4.03v4.02m0 4.03v4.03m0 4.03v4.02m0 4.03v4.03m0 4.03v4.02m0 4.03v4.03m.02 4.03v4.02m0 4.03v4.03m0 4.03v4.02m0 4.03v4.03m0 4.03v4.02m0 4.03v2.02l-.13 1.76m-.82 3.42-.66 1.63-.92 1.5m-2.3 2.68-1.33 1.15-1.52.93m-3.24 1.34-1.72.4h-2m-3.97.02h-3.98m-3.98 0h-4m-3.97 0h-4m-3.97 0h-3.98m-3.98 0h-3.98m-3.98 0h-3.98m-3.98 0h-3.98m-3.98 0h-3.98m-3.98 0-3.98.02m-3.98 0h-4m-3.97 0h-3.98m-3.98 0h-3.98m-4 0h-3.97m-3.98 0h-3.98m-3.98 0h-4m-3.97 0h-3.98m-4 0-3.97.02m-3.98 0h-3.98m-3.98 0h-3.98m-3.98 0h-3.98m-3.98 0h-3.98m-3.98 0h-3.98m-3.98 0h-3.98m-4 0h-3.97m-3.98 0h-3.98m-4 .02h-3.97m-3.98 0h-3.98m-3.98 0h-4m-3.97 0h-3.98m-3.98 0h-4m-3.97 0h-3.98m-3.98 0h-3.98m-3.98 0h-3.98m-3.98 0-3.98.02m-3.98 0h-3.98m-3.98 0h-3.98m-3.98 0h-4m-3.97 0h-3.98m-4 0h-3.97m-3.98 0h-3.98m-3.98 0h-4m-3.97 0h-3.98m-3.98.02H2156m-4 0h-3.98m-3.98 0h-3.98m-3.98 0h-3.98m-3.98 0h-3.98m-3.98 0h-3.98m-3.98 0h-3.98m-3.98 0h-3.98m-4 0-3.97.02m-4 0h-3.97m-3.98 0h-3.98m-3.98 0h-4m-3.97 0h-3.98m-3.98 0h-3.98m-4 0h-3.98m-3.98 0h-3.98m-3.98 0h-3.98m-3.98.02h-3.98m-3.98 0h-3.98m-3.98 0h-3.98m-3.98 0h-3.98m-3.98 0h-4m-3.97 0h-3.97m-3.98 0h-3.98m-3.98 0h-4m-3.97 0-3.98.02m-3.98 0H1949m-4 0h-3.97m-3.98 0h-4m-3.97 0h-3.98m-3.98 0h-3.98m-3.98 0h-3.98m-3.98 0h-3.98m-3.98 0h-3.98m-3.98.02h-3.98m-4 0h-1.98l-1.76-.14m-3.4-.82-1.65-.68-1.5-.92m-2.66-2.28-1.15-1.34-.93-1.5m-1.35-3.26-.4-1.7v-2.03m0-4.02v-4.03m-.02-4.02v-4.03m0-4.02v-4.03m0-4.02v-4.03m0-4.02V624m0-4.02v-4.03m0-4.02v-4.02m-.02-4.02v-4.02m0-4.03v-4.02m0-4.02v-4.02m0-4.03v-4.02m0-4.02v-4.02m0-4.03v-4.02m-.02-4.02v-4.02m0-4.03v-4.02m0-4.02v-4.02m0-4.03v-4.02m0-4.02v-4.02m0-4.03v-4.02m0-4.02-.02-4.02m0-4.03v-4.02m0-4.02v-4.02m0-4.03v-4.02m0-4v-4.04m0-4.02V463m0-4-.02-4.04m0-4.02v-4.03m0-4v-4.04m0-4.02v-4.03m0-4v-4.04m0-4.02v-4.03m0-4-.02-4.04m0-4.02v-4.03m0-4v-4.04m0-4.02v-4.03m0-4v-4.04m0-4.02v-4.03m0-4v-4.04m-.02-4.02v-4.03m0-4v-4.04m0-4.02v-4.02m0-4.03v-4.03m0-4.03v-4.02m0-4.03v-4.03m-.02-4.03v-4.02m0-4.03v-4.03m0-4.03v-4.02m0-4.03v-4.03m0-4.03v-4.02m0-4.03v-4.03m-.02-4.03v-4.02m0-4.03v-4.03m0-4.03v-4.02m0-4.03v-4.03m0-4.03v-4.02m0-4.03v-4.03m0-4.03-.02-2 .14-1.77" stroke="#fff" fill="none"/><path d="M2107.57 239.86a15 15 0 0 1 15-15h132.16a15 15 0 0 1 15 15v132.17a15 15 0 0 1-15 15h-132.16a15 15 0 0 1-15-15z" stroke="#333" fill="#fff"/><use xlink:href="#a" transform="translate(2144.685 295.455)"/><use xlink:href="#b" transform="translate(2152.092 322.122)"/><path d="M2318.38 449.05a15 15 0 0 1 15-15h132.16a15 15 0 0 1 15 15v132.17a15 15 0 0 1-15 15h-132.16a15 15 0 0 1-15-15z" stroke="#333" fill="#fff"/><use xlink:href="#c" transform="translate(2333.922 518.988)"/><path d="M1864.32 724.73a15 15 0 0 1 15-15h618.65a15 15 0 0 1 15 15V954.2a15 15 0 0 1-15 15h-618.65a15 15 0 0 1-15-15z" stroke="#333" fill="#fff"/><use xlink:href="#d" transform="translate(2141.324 943.774)"/><path d="M2140 481.5a15 15 0 0 1 15-15h132.16a15 15 0 0 1 15 15v132.15a15 15 0 0 1-15 15H2155a15 15 0 0 1-15-15z" stroke="#333" fill="#e5e5e5"/><use xlink:href="#e" transform="translate(2187.025 537.077)"/><use xlink:href="#b" transform="translate(2184.525 563.743)"/><path d="M2123.78 465.27a15 15 0 0 1 15-15h132.17a15 15 0 0 1 15 15v132.16a15 15 0 0 1-15 15h-132.17a15 15 0 0 1-15-15z" stroke="#333" fill="#e5e5e5"/><use xlink:href="#e" transform="translate(2170.808 520.86)"/><use xlink:href="#b" transform="translate(2168.308 547.527)"/><path d="M2107.57 449.05a15 15 0 0 1 15-15h132.16a15 15 0 0 1 15 15v132.17a15 15 0 0 1-15 15h-132.16a15 15 0 0 1-15-15z" stroke="#333" fill="#fff"/><use xlink:href="#e" transform="translate(2154.592 504.644)"/><use xlink:href="#b" transform="translate(2152.092 531.311)"/><path d="M1896.76 757.16a15 15 0 0 1 15-15h132.16a15 15 0 0 1 15 15v132.16a15 15 0 0 1-15 15h-132.16a15 15 0 0 1-15-15z" stroke="#333" fill="#fff"/><use xlink:href="#f" transform="translate(1932.917 803.19)"/><use xlink:href="#g" transform="translate(1929.522 829.857)"/><use xlink:href="#h" transform="translate(1941.25 856.523)"/><path d="M2107.57 757.16a15 15 0 0 1 15-15h132.16a15 15 0 0 1 15 15v132.16a15 15 0 0 1-15 15h-132.16a15 15 0 0 1-15-15z" stroke="#333" fill="#fff"/><use xlink:href="#i" transform="translate(2160.673 812.752)"/><use xlink:href="#h" transform="translate(2152.061 839.42)"/><path d="M2318.38 757.16a15 15 0 0 1 15-15h132.16a15 15 0 0 1 15 15v132.16a15 15 0 0 1-15 15h-132.16a15 15 0 0 1-15-15z" stroke="#333" fill="#fff"/><use xlink:href="#e" transform="translate(2365.403 812.752)"/><use xlink:href="#h" transform="translate(2362.872 839.42)"/><path d="M2188.65 387.94v45.2" stroke="#282c33" fill="none"/><path d="M2189.15 387.95h-1v-.5h1zm0 45.69h-1v-.5h1z" stroke="#282c33" stroke-width=".05" fill="#282c33"/><path d="M2270.64 515.14h46.83" stroke="#282c33" fill="none"/><path d="M2270.65 515.64h-.5v-1h.5zm47.32 0h-.5v-1h.5z" stroke="#282c33" stroke-width=".05" fill="#282c33"/><path d="M2188.28 596.97 2034 741.33" stroke="#282c33" fill="none"/><path d="m2188.62 597.34-.67-.7 1.43-.02zm-154.27 144.34h-1.44l.78-.72z" stroke="#282c33" stroke-width=".05" fill="#282c33"/><path d="M2188.65 597.13v144.12" stroke="#282c33" fill="none"/><path d="M2189.15 597.14h-1v-.5l1-.02zm0 144.61h-1v-.5h1z" stroke="#282c33" stroke-width=".05" fill="#282c33"/><path d="m2189 596.97 154.4 144.52" stroke="#282c33" fill="none"/><path d="m2188.68 597.34-.76-.7 1.43-.02zm155.82 144.49h-1.45l.67-.72z" stroke="#282c33" stroke-width=".05" fill="#282c33"/><path d="M1896.76 449.05a15 15 0 0 1 15-15h132.16a15 15 0 0 1 15 15v132.17a15 15 0 0 1-15 15h-132.16a15 15 0 0 1-15-15z" stroke="#333" fill="#fff"/><use xlink:href="#j" transform="translate(1933.257 504.644)"/><use xlink:href="#k" transform="translate(1941.281 531.311)"/><path d="M2560 496.8a6 6 0 0 1 6-6h117.73a6 6 0 0 1 6 6v36.66a6 6 0 0 1-6 6H2566a6 6 0 0 1-6-6z" fill="none"/><use xlink:href="#l" transform="translate(2583.704 520.901)"/><path d="M2106.66 515.14h-46.83" stroke="#282c33" fill="none"/><path d="M2107.16 515.64h-.5v-1h.5zm-47.32 0h-.5v-1h.5z" stroke="#282c33" stroke-width=".05" fill="#282c33"/><path d="M2559.54 515.14h-78.1" stroke="#333" fill="none"/><path d="M2560.04 515.64h-.52v-1h.52zm-78.58 0h-.5v-1h.5z" stroke="#333" stroke-width=".05" fill="#333"/><path d="M1600 553.3a6 6 0 0 1 6-6h198.8a6 6 0 0 1 6 6v56.65a6 6 0 0 1-6 6H1606a6 6 0 0 1-6-6z" fill="none"/><use xlink:href="#m" transform="translate(1621.55 584.825)"/><use xlink:href="#n" transform="translate(1719.265 584.825)"/><path d="M1811.27 581.62h19.7" stroke="#333" fill="none"/><path d="M1811.3 582.12h-.52v-1h.5zm20.18 0h-.5v-1h.5z" stroke="#333" stroke-width=".05" fill="#333"/><path d="M1600 350.6a6 6 0 0 1 6-6h198.8a6 6 0 0 1 6 6v56.64a6 6 0 0 1-6 6H1606a6 6 0 0 1-6-6z" fill="none"/><use xlink:href="#m" transform="translate(1623.988 382.122)"/><use xlink:href="#o" transform="translate(1721.704 382.122)"/><path d="M1811.27 378.92h26a.07.07 0 0 1 .06.07.07.07 0 0 0 .07.06h26" stroke="#333" fill="none"/><path d="M1811.3 379.42h-.52v-1h.5zm52.6.14h-.52v-1h.5z" stroke="#333" stroke-width=".05" fill="#333"/><defs><path fill="#333" d="M63-220v92h138v28H63V0H30v-248h175v28H63" id="p"/><path fill="#333" d="M114-163C36-179 61-72 57 0H25l-1-190h30c1 12-1 29 2 39 6-27 23-49 58-41v29" id="q"/><path fill="#333" d="M100-194c62-1 85 37 85 99 1 63-27 99-86 99S16-35 15-95c0-66 28-99 85-99zM99-20c44 1 53-31 53-75 0-43-8-75-51-75s-53 32-53 75 10 74 51 75" id="r"/><path fill="#333" d="M117-194c89-4 53 116 60 194h-32v-121c0-31-8-49-39-48C34-167 62-67 57 0H25l-1-190h30c1 10-1 24 2 32 11-22 29-35 61-36" id="s"/><path fill="#333" d="M59-47c-2 24 18 29 38 22v24C64 9 27 4 27-40v-127H5v-23h24l9-43h21v43h35v23H59v120" id="t"/><path fill="#333" d="M100-194c63 0 86 42 84 106H49c0 40 14 67 53 68 26 1 43-12 49-29l28 8c-11 28-37 45-77 45C44 4 14-33 15-96c1-61 26-98 85-98zm52 81c6-60-76-77-97-28-3 7-6 17-6 28h103" id="u"/><path fill="#333" d="M85-194c31 0 48 13 60 33l-1-100h32l1 261h-30c-2-10 0-23-3-31C134-8 116 4 85 4 32 4 16-35 15-94c0-66 23-100 70-100zm9 24c-40 0-46 34-46 75 0 40 6 74 45 74 42 0 51-32 51-76 0-42-9-74-50-73" id="v"/><path fill="#333" d="M185-189c-5-48-123-54-124 2 14 75 158 14 163 119 3 78-121 87-175 55-17-10-28-26-33-46l33-7c5 56 141 63 141-1 0-78-155-14-162-118-5-82 145-84 179-34 5 7 8 16 11 25" id="w"/><path fill="#333" d="M108 0H70L1-190h34L89-25l56-165h34" id="x"/><path fill="#333" d="M24-231v-30h32v30H24zM24 0v-190h32V0H24" id="y"/><path fill="#333" d="M96-169c-40 0-48 33-48 73s9 75 48 75c24 0 41-14 43-38l32 2c-6 37-31 61-74 61-59 0-76-41-82-99-10-93 101-131 147-64 4 7 5 14 7 22l-32 3c-4-21-16-35-41-35" id="z"/><path fill="#333" d="M30 0v-248h187v28H63v79h144v27H63v87h162V0H30" id="A"/><path fill="#333" d="M24 0v-261h32V0H24" id="B"/><path fill="#333" d="M141-36C126-15 110 5 73 4 37 3 15-17 15-53c-1-64 63-63 125-63 3-35-9-54-41-54-24 1-41 7-42 31l-33-3c5-37 33-52 76-52 45 0 72 20 72 64v82c-1 20 7 32 28 27v20c-31 9-61-2-59-35zM48-53c0 20 12 33 32 33 41-3 63-29 60-74-43 2-92-5-92 41" id="C"/><path fill="#333" d="M135-143c-3-34-86-38-87 0 15 53 115 12 119 90S17 21 10-45l28-5c4 36 97 45 98 0-10-56-113-15-118-90-4-57 82-63 122-42 12 7 21 19 24 35" id="D"/><path fill="#333" d="M106-169C34-169 62-67 57 0H25v-261h32l-1 103c12-21 28-36 61-36 89 0 53 116 60 194h-32v-121c2-32-8-49-39-48" id="E"/><path fill="#333" d="M30-248c118-7 216 8 213 122C240-48 200 0 122 0H30v-248zM63-27c89 8 146-16 146-99s-60-101-146-95v194" id="F"/><path fill="#333" d="M115-194c53 0 69 39 70 98 0 66-23 100-70 100C84 3 66-7 56-30L54 0H23l1-261h32v101c10-23 28-34 59-34zm-8 174c40 0 45-34 45-75 0-40-5-75-45-74-42 0-51 32-51 76 0 43 10 73 51 73" id="G"/><path fill="#333" d="M197 0v-115H63V0H30v-248h33v105h134v-105h34V0h-34" id="H"/><path fill="#333" d="M179-190 93 31C79 59 56 82 12 73V49c39 6 53-20 64-50L1-190h34L92-34l54-156h33" id="I"/><path fill="#333" d="M266 0h-40l-56-210L115 0H75L2-248h35L96-30l15-64 43-154h32l59 218 59-218h35" id="J"/><path fill="#333" d="M143 0 79-87 56-68V0H24v-261h32v163l83-92h37l-77 82L181 0h-38" id="K"/><path fill="#333" d="M101-234c-31-9-42 10-38 44h38v23H63V0H32v-167H5v-23h27c-7-52 17-82 69-68v24" id="L"/><path fill="#333" d="M206 0h-36l-40-164L89 0H53L-1-190h32L70-26l43-164h34l41 164 42-164h31" id="M"/><path fill="#333" d="M141 0 90-78 38 0H4l68-98-65-92h35l48 74 47-74h35l-64 92 68 98h-35" id="N"/><path fill="#333" d="M84 4C-5 8 30-112 23-190h32v120c0 31 7 50 39 49 72-2 45-101 50-169h31l1 190h-30c-1-10 1-25-2-33-11 22-28 36-60 37" id="O"/><path fill="#333" d="M177-190C167-65 218 103 67 71c-23-6-38-20-44-43l32-5c15 47 100 32 89-28v-30C133-14 115 1 83 1 29 1 15-40 15-95c0-56 16-97 71-98 29-1 48 16 59 35 1-10 0-23 2-32h30zM94-22c36 0 50-32 50-73 0-42-14-75-50-75-39 0-46 34-46 75s6 73 46 73" id="P"/><path fill="#333" d="m240 0 2-218c-23 76-54 145-80 218h-23L58-218 59 0H30v-248h44l77 211c21-75 51-140 76-211h43V0h-30" id="Q"/><path fill="#333" d="M20-101c0-91 52-143 145-150 126-9 127 168 53 223-23 17-55 32-93 32C57 4 20-33 20-101zm216-33c5-57-18-91-73-90-77 1-110 51-110 125 0 49 23 75 73 75 72-1 104-45 110-110" id="R"/><path fill="#333" d="M67-162c32-53 139-36 121 50C175-51 163 2 97 4 68 4 52-11 42-31 38 6 28 39 22 75H-9l50-265h29c-1 10 0 20-3 28zm89 36c0-26-10-43-35-43-54 0-67 50-69 103-1 29 14 45 42 46 53 0 62-58 62-106" id="S"/><path fill="#333" d="M51-54c-9 22 5 41 31 30L79-1C43 14 10-4 19-52l22-115H19l5-23h22l19-43h21l-9 43h35l-4 23H73" id="T"/><path fill="#333" d="m50-231 6-30h32l-6 30H50zM6 0l37-190h31L37 0H6" id="U"/><path fill="#333" d="M30-147c31-64 166-65 159 27C183-49 158 1 86 4 9 8 1-88 30-147zM88-20c53 0 68-48 68-100 0-31-11-51-44-50-52 1-68 46-68 97 0 32 13 53 44 53" id="V"/><path fill="#333" d="M67-158c22-48 132-52 116 29L158 0h-32l25-140c3-38-53-32-70-12C52-117 51-52 38 0H6l36-190h30" id="W"/><path fill="#333" d="M165-48c-4 18 1 34 23 27l-3 20c-29 8-62 0-52-35h-2C116-14 99 4 63 4 30 4 8-16 8-49c0-68 71-67 138-67 10-26 0-56-31-54-26 1-42 9-47 31l-32-5c8-67 160-71 144 15-5 28-9 54-15 81zM42-50c3 52 80 24 89-6 7-12 7-24 11-38-47 1-103-4-100 44" id="X"/><path fill="#333" d="m6 0 50-261h32L37 0H6" id="Y"/><path fill="#333" d="M151-220 108 0H75l42-220H32l6-28h203l-5 28h-85" id="Z"/><path fill="#333" d="M111-194c62-3 86 47 72 106H45c-7 38 6 69 45 68 27-1 43-14 53-32l24 11C152-15 129 4 87 4 38 3 12-23 12-71c0-70 32-119 99-123zm44 81c14-66-71-72-95-28-4 8-8 17-11 28h106" id="aa"/><path fill="#333" d="M248-111c6-24 9-61-24-58-72 9-57 108-77 169h-31l26-142c3-37-50-30-64-10C52-115 50-51 37 0H6l36-190h30c-1 10-6 24-4 32 13-43 101-52 105 5 13-22 29-41 61-41 90 0 28 129 23 194h-31" id="ab"/><path fill="#333" d="M66-151c12-25 30-51 66-40l-6 26C45-176 58-65 38 0H6l36-190h30" id="ac"/><path fill="#333" d="M125-24c46 0 70-25 89-51l25 16C214-24 183 4 123 4 8 4-5-146 60-208c32-50 158-61 191-5 5 7 9 14 11 22l-32 10c-9-28-33-43-69-43-74 0-108 51-108 125 0 46 24 75 72 75" id="ad"/><path fill="#333" d="M67 3c-93-2-31-127-26-193h32L48-50c-3 39 53 32 70 12 30-34 30-101 43-152h32L157 0h-30c1-10 6-24 4-33-14 20-29 37-64 36" id="ae"/><path fill="#333" d="M55-144c13 50 104 24 104 88C159 21 15 23 1-39l26-10c6 40 102 42 102-4-13-50-104-23-104-87 0-71 143-71 148-8l-29 4c-5-35-85-37-89 0" id="af"/><path fill="#333" d="M194-120c59 52 2 134-86 124-53-6-90-18-98-63l31-7c8 30 29 43 70 43 46 0 84-17 71-62-32-43-135-20-137-98-3-89 178-90 191-16l-30 9c-8-48-127-53-127 5 0 53 81 35 115 65" id="ag"/><path fill="#333" d="M89 0H52L20-190h33L74-25l89-165h34" id="ah"/><g id="a"><use transform="rotate(.413) scale(.06173)" xlink:href="#p"/><use transform="matrix(.06173 0 0 .06173 13.519 0)" xlink:href="#q"/><use transform="matrix(.06173 0 0 .06173 20.864 0)" xlink:href="#r"/><use transform="matrix(.06173 0 0 .06173 33.21 0)" xlink:href="#s"/><use transform="matrix(.06173 0 0 .06173 45.556 0)" xlink:href="#t"/><use transform="matrix(.06173 0 0 .06173 51.728 0)" xlink:href="#u"/><use transform="matrix(.06173 0 0 .06173 64.074 0)" xlink:href="#s"/><use transform="matrix(.06173 0 0 .06173 76.42 0)" xlink:href="#v"/></g><g id="b"><use transform="rotate(.413) scale(.06173)" xlink:href="#w"/><use transform="matrix(.06173 0 0 .06173 14.815 0)" xlink:href="#u"/><use transform="matrix(.06173 0 0 .06173 27.16 0)" xlink:href="#q"/><use transform="matrix(.06173 0 0 .06173 34.506 0)" xlink:href="#x"/><use transform="matrix(.06173 0 0 .06173 45.617 0)" xlink:href="#y"/><use transform="matrix(.06173 0 0 .06173 50.494 0)" xlink:href="#z"/><use transform="matrix(.06173 0 0 .06173 61.605 0)" xlink:href="#u"/></g><g id="c"><use transform="rotate(.413) scale(.06173)" xlink:href="#A"/><use transform="matrix(.06173 0 0 .06173 14.815 0)" xlink:href="#B"/><use transform="matrix(.06173 0 0 .06173 19.691 0)" xlink:href="#C"/><use transform="matrix(.06173 0 0 .06173 32.037 0)" xlink:href="#D"/><use transform="matrix(.06173 0 0 .06173 43.148 0)" xlink:href="#t"/><use transform="matrix(.06173 0 0 .06173 49.321 0)" xlink:href="#y"/><use transform="matrix(.06173 0 0 .06173 54.198 0)" xlink:href="#z"/><use transform="matrix(.06173 0 0 .06173 65.309 0)" xlink:href="#D"/><use transform="matrix(.06173 0 0 .06173 76.42 0)" xlink:href="#u"/><use transform="matrix(.06173 0 0 .06173 88.765 0)" xlink:href="#C"/><use transform="matrix(.06173 0 0 .06173 101.111 0)" xlink:href="#q"/><use transform="matrix(.06173 0 0 .06173 108.457 0)" xlink:href="#z"/><use transform="matrix(.06173 0 0 .06173 119.568 0)" xlink:href="#E"/></g><g id="d"><use transform="rotate(.413) scale(.06173)" xlink:href="#F"/><use transform="matrix(.06173 0 0 .06173 15.988 0)" xlink:href="#C"/><use transform="matrix(.06173 0 0 .06173 28.333 0)" xlink:href="#t"/><use transform="matrix(.06173 0 0 .06173 34.506 0)" xlink:href="#C"/><use transform="matrix(.06173 0 0 .06173 46.852 0)" xlink:href="#G"/><use transform="matrix(.06173 0 0 .06173 59.198 0)" xlink:href="#C"/><use transform="matrix(.06173 0 0 .06173 71.543 0)" xlink:href="#D"/><use transform="matrix(.06173 0 0 .06173 82.654 0)" xlink:href="#u"/></g><g id="e"><use transform="rotate(.413) scale(.06173)" xlink:href="#H"/><use transform="matrix(.06173 0 0 .06173 15.988 0)" xlink:href="#y"/><use transform="matrix(.06173 0 0 .06173 20.864 0)" xlink:href="#D"/><use transform="matrix(.06173 0 0 .06173 31.975 0)" xlink:href="#t"/><use transform="matrix(.06173 0 0 .06173 38.148 0)" xlink:href="#r"/><use transform="matrix(.06173 0 0 .06173 50.494 0)" xlink:href="#q"/><use transform="matrix(.06173 0 0 .06173 57.84 0)" xlink:href="#I"/></g><g id="f"><use transform="rotate(.413) scale(.06173)" xlink:href="#J"/><use transform="matrix(.06173 0 0 .06173 20.494 0)" xlink:href="#r"/><use transform="matrix(.06173 0 0 .06173 32.84 0)" xlink:href="#q"/><use transform="matrix(.06173 0 0 .06173 40.185 0)" xlink:href="#K"/><use transform="matrix(.06173 0 0 .06173 51.296 0)" xlink:href="#L"/><use transform="matrix(.06173 0 0 .06173 57.47 0)" xlink:href="#B"/><use transform="matrix(.06173 0 0 .06173 62.346 0)" xlink:href="#r"/><use transform="matrix(.06173 0 0 .06173 74.691 0)" xlink:href="#M"/></g><g id="g"><use transform="rotate(.413) scale(.06173)" xlink:href="#A"/><use transform="matrix(.06173 0 0 .06173 14.815 0)" xlink:href="#N"/><use transform="matrix(.06173 0 0 .06173 25.926 0)" xlink:href="#u"/><use transform="matrix(.06173 0 0 .06173 38.272 0)" xlink:href="#z"/><use transform="matrix(.06173 0 0 .06173 49.383 0)" xlink:href="#O"/><use transform="matrix(.06173 0 0 .06173 61.728 0)" xlink:href="#t"/><use transform="matrix(.06173 0 0 .06173 67.901 0)" xlink:href="#y"/><use transform="matrix(.06173 0 0 .06173 72.778 0)" xlink:href="#r"/><use transform="matrix(.06173 0 0 .06173 85.123 0)" xlink:href="#s"/></g><g id="h"><use transform="rotate(.413) scale(.06173)" xlink:href="#D"/><use transform="matrix(.06173 0 0 .06173 11.111 0)" xlink:href="#t"/><use transform="matrix(.06173 0 0 .06173 17.284 0)" xlink:href="#r"/><use transform="matrix(.06173 0 0 .06173 29.63 0)" xlink:href="#q"/><use transform="matrix(.06173 0 0 .06173 36.975 0)" xlink:href="#C"/><use transform="matrix(.06173 0 0 .06173 49.321 0)" xlink:href="#P"/><use transform="matrix(.06173 0 0 .06173 61.667 0)" xlink:href="#u"/></g><g id="i"><use transform="rotate(.413) scale(.06173)" xlink:href="#A"/><use transform="matrix(.06173 0 0 .06173 14.815 0)" xlink:href="#x"/><use transform="matrix(.06173 0 0 .06173 25.926 0)" xlink:href="#u"/><use transform="matrix(.06173 0 0 .06173 38.272 0)" xlink:href="#s"/><use transform="matrix(.06173 0 0 .06173 50.617 0)" xlink:href="#t"/></g><g id="j"><use transform="rotate(.413) scale(.06173)" xlink:href="#Q"/><use transform="matrix(.06173 0 0 .06173 18.457 0)" xlink:href="#C"/><use transform="matrix(.06173 0 0 .06173 30.802 0)" xlink:href="#t"/><use transform="matrix(.06173 0 0 .06173 36.975 0)" xlink:href="#z"/><use transform="matrix(.06173 0 0 .06173 48.086 0)" xlink:href="#E"/><use transform="matrix(.06173 0 0 .06173 60.432 0)" xlink:href="#y"/><use transform="matrix(.06173 0 0 .06173 65.309 0)" xlink:href="#s"/><use transform="matrix(.06173 0 0 .06173 77.654 0)" xlink:href="#P"/></g><g id="k"><use transform="rotate(.413) scale(.06173)" xlink:href="#w"/><use transform="matrix(.06173 0 0 .06173 14.815 0)" xlink:href="#u"/><use transform="matrix(.06173 0 0 .06173 27.16 0)" xlink:href="#q"/><use transform="matrix(.06173 0 0 .06173 34.506 0)" xlink:href="#x"/><use transform="matrix(.06173 0 0 .06173 45.617 0)" xlink:href="#y"/><use transform="matrix(.06173 0 0 .06173 50.494 0)" xlink:href="#z"/><use transform="matrix(.06173 0 0 .06173 61.605 0)" xlink:href="#u"/></g><g id="l"><use transform="rotate(.413) scale(.06173)" xlink:href="#R"/><use transform="matrix(.06173 0 0 .06173 17.284 0)" xlink:href="#S"/><use transform="matrix(.06173 0 0 .06173 29.63 0)" xlink:href="#T"/><use transform="matrix(.06173 0 0 .06173 35.802 0)" xlink:href="#U"/><use transform="matrix(.06173 0 0 .06173 40.679 0)" xlink:href="#V"/><use transform="matrix(.06173 0 0 .06173 53.025 0)" xlink:href="#W"/><use transform="matrix(.06173 0 0 .06173 65.37 0)" xlink:href="#X"/><use transform="matrix(.06173 0 0 .06173 77.716 0)" xlink:href="#Y"/></g><g id="m"><use transform="rotate(.413) scale(.06173)" xlink:href="#Z"/><use transform="matrix(.06173 0 0 .06173 11.481 0)" xlink:href="#aa"/><use transform="matrix(.06173 0 0 .06173 23.827 0)" xlink:href="#ab"/><use transform="matrix(.06173 0 0 .06173 42.284 0)" xlink:href="#S"/><use transform="matrix(.06173 0 0 .06173 54.63 0)" xlink:href="#V"/><use transform="matrix(.06173 0 0 .06173 66.975 0)" xlink:href="#ac"/><use transform="matrix(.06173 0 0 .06173 74.321 0)" xlink:href="#X"/><use transform="matrix(.06173 0 0 .06173 86.667 0)" xlink:href="#Y"/></g><g id="n"><use transform="rotate(.413) scale(.06173)" xlink:href="#ad"/><use transform="matrix(.06173 0 0 .06173 15.988 0)" xlink:href="#Y"/><use transform="matrix(.06173 0 0 .06173 20.864 0)" xlink:href="#ae"/><use transform="matrix(.06173 0 0 .06173 33.21 0)" xlink:href="#af"/><use transform="matrix(.06173 0 0 .06173 44.321 0)" xlink:href="#T"/><use transform="matrix(.06173 0 0 .06173 50.494 0)" xlink:href="#aa"/><use transform="matrix(.06173 0 0 .06173 62.84 0)" xlink:href="#ac"/></g><g id="o"><use transform="rotate(.413) scale(.06173)" xlink:href="#ag"/><use transform="matrix(.06173 0 0 .06173 14.815 0)" xlink:href="#aa"/><use transform="matrix(.06173 0 0 .06173 27.16 0)" xlink:href="#ac"/><use transform="matrix(.06173 0 0 .06173 34.506 0)" xlink:href="#ah"/><use transform="matrix(.06173 0 0 .06173 45.617 0)" xlink:href="#aa"/><use transform="matrix(.06173 0 0 .06173 57.963 0)" xlink:href="#ac"/></g></defs></g></svg>