<svg xmlns="http://www.w3.org/2000/svg" xmlns:xlink="http://www.w3.org/1999/xlink" xmlns:lucid="lucid" width="1126" height="440"><g transform="translate(-80 -380)" lucid:page-tab-id="0_0"><path d="M0 0h1870.87v1322.83H0z" fill="#fff"/><path d="M301 730h898.5" stroke="#a9afb8" fill="none"/><path d="M301 730.5h-.5v-1h.5z" stroke="#a9afb8" stroke-width=".05" fill="#a9afb8"/><path d="M1199.5 730h.5M421 470h58" stroke="#a9afb8" fill="none"/><path d="M421.02 470.5h-.6l.1-.5-.08-.5h.58zm58.48-.5.07.5h-.6v-1h.6z" stroke="#a9afb8" stroke-width=".05" fill="#a9afb8"/><path d="M100.5 600h2m4.02 0h4m4.02 0h4m4.02 0h4m4.02 0h4m4.02 0h4m4.03 0h4m4.02 0h4m4.02 0h4m4.02 0h4m4 0h4.02m4.02 0h4m4.02 0h4m4.02 0h4m4.02 0h4m4.02 0h4m4.02 0h4.02m4 0h4.02m4 0h4.02m4 0h4.02m4 0h4.02m4 0h4.03m4 0H279m4 0h4m4.02 0h4m4.02 0h4m4.02 0h4m4.03 0h4m4 0h4.02m4 0h4.02m4 0h4.02m4 0h4.02m4.02 0h4m4.02 0h4m4.02 0h4m4.02 0h4m4.02 0h4m4.02 0h4.02m4 0h4.02m4 0h4.02m4 0h4.02m4 0h4.02m4 0h4.03m4 0h4.02m4 0h4.02m4 0h4.02m4 0h4m4.02 0h4m4.03 0h4m4.02 0h4m4.02 0h4m4 0h4.02m4 0h4.02m4.02 0h4m4.02 0h4m4.02 0h4m4.02 0h4m4.02 0h4m4.02 0h4.02m4 0h4.02m4 0h4.02m4 0h4.02m4 0h4.02m4 0h4.03m4 0h4m4.02 0h4m4.02 0h4m4.02 0h4m4.02 0h4m4.03 0h4.02m4 0h4.02m4 0h4.02m4 0h4.02m4 0h4.02m4 0h4.03m4 0h4.02m4 0h4.02m4 0h4.02m4 0h4m4.02 0h4.02m4 0h4.02m4 0h4.02m4 0h4.02m4 0h4.02m4 0h4.02m4.02 0h4m4.02 0h4m4.02 0h4m4.02 0h4m4.02 0h4m4.03 0h4m4.02 0h4m4 0h4.02m4 0h4.02m4 0h4.02m4 0h4.03m4 0h4m4.02 0h4m4.02 0h4m4.02 0h4m4.02 0h4.02m4 0h4.02m4 0h4.02m4 0h4.02m4 0h4.02m4 0h4.02m4.02 0h4m4.02 0h4m4.02 0h4m4.02 0h4m4.02 0h4m4.03 0h4m4.02 0h4m4.02 0h4m4.02 0h4m4 0h4.02m4 0h4.03m4 0h4.02m4 0h4.02m4 0h4m4.02 0h4m4.02 0h4.02m4 0h4.02m4 0h4.02m4 0h4.02m4 0h4.02m4 0h4.02m4.02 0h4m4.02 0h4m4.02 0h4m4.02 0h4m4.02 0h4m4.03 0h4m4 0h4.02m4 0h4.02m4 0h4.02m4 0h4.02m4 0h2.02M100.5 600h-.5m1099.5 0h.5" stroke="#a9afb8" fill="none"/><path d="M100 660h200v140H100z" stroke="#3a414a" fill="#f2f3f5"/><use xlink:href="#a" transform="translate(154.444 719.34)"/><use xlink:href="#b" transform="translate(158.735 746.007)"/><path d="M100 400h200v140H100z" stroke="#3a414a" fill="#f2f3f5"/><use xlink:href="#c" transform="translate(150.432 473.153)"/><use xlink:href="#d" transform="translate(201.42 473.153)"/><path d="M340 730c0 5.52-4.48 10-10 10s-10-4.48-10-10 4.48-10 10-10 10 4.48 10 10zm80-260c0 5.52-4.48 10-10 10s-10-4.48-10-10 4.48-10 10-10 10 4.48 10 10z" stroke="#3a414a" fill="#3a414a"/><path d="m330.16 719.02 74.64-222.98" stroke="#3a414a" fill="none"/><path d="m330.64 719.17-.13.4-.5-.07-.55.07.24-.72z" stroke="#3a414a" stroke-width=".05" fill="#3a414a"/><path d="m409.5 482.04-.15 15-8.8-2.94zM580 730c0 5.52-4.48 10-10 10s-10-4.48-10-10 4.48-10 10-10 10 4.48 10 10zm-80-260c0 5.52-4.48 10-10 10s-10-4.48-10-10 4.48-10 10-10 10 4.48 10 10z" stroke="#3a414a" fill="#3a414a"/><path d="m490.16 480.98 74.64 222.98" stroke="#3a414a" fill="none"/><path d="m490 480.5.5-.07.14.4-.95.32-.26-.73z" stroke="#3a414a" stroke-width=".05" fill="#3a414a"/><path d="m569.5 717.96-8.94-12.06 8.8-2.94z" stroke="#3a414a" fill="#3a414a"/><path d="M347.3 726.83a6 6 0 0 1-3.74-7.6l73.5-215.85a6 6 0 0 1 7.6-3.74l7.57 2.58a6 6 0 0 1 3.75 7.6L362.5 725.67a6 6 0 0 1-7.62 3.75z" fill="none"/><use xlink:href="#e" transform="rotate(-71.198 663.817 79.555)"/><use xlink:href="#f" transform="rotate(-71.198 639.209 45.181)"/><use xlink:href="#g" transform="rotate(-71.198 627.996 29.519)"/><path d="M468.9 499.8a6 6 0 0 1 7.65 3.7l74.8 215.38a6 6 0 0 1-3.7 7.64l-7.56 2.62a6 6 0 0 1-7.65-3.7l-74.8-215.38a6 6 0 0 1 3.7-7.64z" fill="none"/><use xlink:href="#h" transform="rotate(70.85 -156.636 618.395)"/><use xlink:href="#i" transform="rotate(70.85 -177.377 647.553)"/><path d="M620 730.56c0 5.52-4.48 10-10 10s-10-4.48-10-10c0-5.53 4.48-10 10-10s10 4.47 10 10zm80-260c0 5.52-4.48 10-10 10s-10-4.48-10-10c0-5.53 4.48-10 10-10s10 4.47 10 10z" stroke="#3a414a" fill="#3a414a"/><path d="M610.16 719.58 684.8 496.6" stroke="#3a414a" fill="none"/><path d="m610.64 719.73-.13.4-.5-.08-.55.08.24-.72z" stroke="#3a414a" stroke-width=".05" fill="#3a414a"/><path d="m689.5 482.6-.15 15-8.8-2.95zM860 730.56c0 5.52-4.48 10-10 10s-10-4.48-10-10c0-5.53 4.48-10 10-10s10 4.47 10 10zm-80-260c0 5.52-4.48 10-10 10s-10-4.48-10-10c0-5.53 4.48-10 10-10s10 4.47 10 10z" stroke="#3a414a" fill="#3a414a"/><path d="m770.16 481.54 74.64 222.98" stroke="#3a414a" fill="none"/><path d="m770 481.06.5-.08.14.4-.95.33-.26-.73z" stroke="#3a414a" stroke-width=".05" fill="#3a414a"/><path d="m849.5 718.52-8.94-12.06 8.8-2.94z" stroke="#3a414a" fill="#3a414a"/><path d="M633.75 727.6a6 6 0 0 1-3.8-7.6l72.42-216.2a6 6 0 0 1 7.6-3.78l7.6 2.54a6 6 0 0 1 3.77 7.6l-72.4 216.2a6 6 0 0 1-7.6 3.78z" fill="none"/><use xlink:href="#j" transform="rotate(-71.483 806.921 -114.76)"/><use xlink:href="#k" transform="rotate(-71.483 771.273 -164.294)"/><use xlink:href="#l" transform="rotate(-71.483 763.517 -175.072)"/><path d="M749.63 500.14a6 6 0 0 1 7.6 3.74l73.46 215.85a6 6 0 0 1-3.75 7.6l-7.58 2.6a6 6 0 0 1-7.6-3.76L738.3 510.33a6 6 0 0 1 3.76-7.62z" fill="none"/><use xlink:href="#m" transform="rotate(71.208 -9.632 805.817)"/><use xlink:href="#n" transform="rotate(71.208 -30.913 835.538)"/><use xlink:href="#o" transform="rotate(71.208 -41.716 850.624)"/><path d="M900 730.56c0 5.52-4.48 10-10 10s-10-4.48-10-10c0-5.53 4.48-10 10-10s10 4.47 10 10zm80-260c0 5.52-4.48 10-10 10s-10-4.48-10-10c0-5.53 4.48-10 10-10s10 4.47 10 10z" stroke="#3a414a" fill="#3a414a"/><path d="M890.16 719.58 964.8 496.6" stroke="#3a414a" fill="none"/><path d="m890.64 719.73-.13.4-.5-.08-.55.08.24-.72z" stroke="#3a414a" stroke-width=".05" fill="#3a414a"/><path d="m969.5 482.6-.15 15-8.8-2.95zM1140 730.56c0 5.52-4.48 10-10 10s-10-4.48-10-10c0-5.53 4.48-10 10-10s10 4.47 10 10zm-80-260c0 5.52-4.48 10-10 10s-10-4.48-10-10c0-5.53 4.48-10 10-10s10 4.47 10 10z" stroke="#3a414a" fill="#3a414a"/><path d="m1050.16 481.54 74.64 222.98" stroke="#3a414a" fill="none"/><path d="m1050 481.06.5-.08.14.4-.95.33-.26-.73z" stroke="#3a414a" stroke-width=".05" fill="#3a414a"/><path d="m1129.5 718.52-8.94-12.06 8.8-2.94z" stroke="#3a414a" fill="#3a414a"/><path d="M913.54 727.52a6 6 0 0 1-3.77-7.6l72.82-216.06a6 6 0 0 1 7.6-3.77l7.57 2.54a6 6 0 0 1 3.77 7.6L928.72 726.3a6 6 0 0 1-7.6 3.77z" fill="none"/><use xlink:href="#p" transform="rotate(-71.374 962.823 -289.583)"/><use xlink:href="#q" transform="rotate(-71.374 941.39 -319.423)"/><use xlink:href="#r" transform="rotate(-71.374 932.749 -331.456)"/><use xlink:href="#k" transform="rotate(-71.374 897.1 -381.089)"/><use xlink:href="#l" transform="rotate(-71.374 889.344 -391.888)"/><path d="M1028.35 500.53a6 6 0 0 1 7.66 3.66l75.86 215a6 6 0 0 1-3.66 7.66l-7.55 2.66a6 6 0 0 1-7.65-3.66l-75.85-215a6 6 0 0 1 3.66-7.67z" fill="none"/><use xlink:href="#s" transform="rotate(70.568 134.417 996.606)"/><use xlink:href="#t" transform="rotate(70.568 118.43 1019.2)"/><use xlink:href="#u" transform="rotate(70.568 84.531 1067.104)"/><path d="M701 470.56h58" stroke="#a9afb8" fill="none"/><path d="M701.02 471.06h-.6l.1-.5-.08-.5h.58zm58.48-.5.07.5h-.6v-1h.6z" stroke="#a9afb8" stroke-width=".05" fill="#a9afb8"/><path d="M981 470.56h58" stroke="#a9afb8" fill="none"/><path d="M981.02 471.06h-.6l.1-.5-.08-.5h.58zm58.48-.5.07.5h-.6v-1h.6z" stroke="#a9afb8" stroke-width=".05" fill="#a9afb8"/><defs><path fill="#3a414a" d="M127-220V0H93v-220H8v-28h204v28h-85" id="v"/><path fill="#3a414a" d="M100-194c63 0 86 42 84 106H49c0 40 14 67 53 68 26 1 43-12 49-29l28 8c-11 28-37 45-77 45C44 4 14-33 15-96c1-61 26-98 85-98zm52 81c6-60-76-77-97-28-3 7-6 17-6 28h103" id="w"/><path fill="#3a414a" d="M210-169c-67 3-38 105-44 169h-31v-121c0-29-5-50-35-48C34-165 62-65 56 0H25l-1-190h30c1 10-1 24 2 32 10-44 99-50 107 0 11-21 27-35 58-36 85-2 47 119 55 194h-31v-121c0-29-5-49-35-48" id="x"/><path fill="#3a414a" d="M115-194c55 1 70 41 70 98S169 2 115 4C84 4 66-9 55-30l1 105H24l-1-265h31l2 30c10-21 28-34 59-34zm-8 174c40 0 45-34 45-75s-6-73-45-74c-42 0-51 32-51 76 0 43 10 73 51 73" id="y"/><path fill="#3a414a" d="M100-194c62-1 85 37 85 99 1 63-27 99-86 99S16-35 15-95c0-66 28-99 85-99zM99-20c44 1 53-31 53-75 0-43-8-75-51-75s-53 32-53 75 10 74 51 75" id="z"/><path fill="#3a414a" d="M114-163C36-179 61-72 57 0H25l-1-190h30c1 12-1 29 2 39 6-27 23-49 58-41v29" id="A"/><path fill="#3a414a" d="M141-36C126-15 110 5 73 4 37 3 15-17 15-53c-1-64 63-63 125-63 3-35-9-54-41-54-24 1-41 7-42 31l-33-3c5-37 33-52 76-52 45 0 72 20 72 64v82c-1 20 7 32 28 27v20c-31 9-61-2-59-35zM48-53c0 20 12 33 32 33 41-3 63-29 60-74-43 2-92-5-92 41" id="B"/><path fill="#3a414a" d="M24 0v-261h32V0H24" id="C"/><path fill="#3a414a" d="M30-248c87 1 191-15 191 75 0 78-77 80-158 76V0H30v-248zm33 125c57 0 124 11 124-50 0-59-68-47-124-48v98" id="D"/><path fill="#3a414a" d="M59-47c-2 24 18 29 38 22v24C64 9 27 4 27-40v-127H5v-23h24l9-43h21v43h35v23H59v120" id="E"/><path fill="#3a414a" d="M101-234c-31-9-42 10-38 44h38v23H63V0H32v-167H5v-23h27c-7-52 17-82 69-68v24" id="F"/><path fill="#3a414a" d="M137-103V0h-34v-103L8-248h37l75 118 75-118h37" id="G"/><path fill="#3a414a" d="M84 4C-5 8 30-112 23-190h32v120c0 31 7 50 39 49 72-2 45-101 50-169h31l1 190h-30c-1-10 1-25-2-33-11 22-28 36-60 37" id="H"/><path fill="#3a414a" d="M96-169c-40 0-48 33-48 73s9 75 48 75c24 0 41-14 43-38l32 2c-6 37-31 61-74 61-59 0-76-41-82-99-10-93 101-131 147-64 4 7 5 14 7 22l-32 3c-4-21-16-35-41-35" id="I"/><path fill="#3a414a" d="M85-194c31 0 48 13 60 33l-1-100h32l1 261h-30c-2-10 0-23-3-31C134-8 116 4 85 4 32 4 16-35 15-94c0-66 23-100 70-100zm9 24c-40 0-46 34-46 75 0 40 6 74 45 74 42 0 51-32 51-76 0-42-9-74-50-73" id="J"/><path fill="#3a414a" d="M233-177c-1 41-23 64-60 70L243 0h-38l-65-103H63V0H30v-248c88 3 205-21 203 71zM63-129c60-2 137 13 137-47 0-61-80-42-137-45v92" id="K"/><path fill="#3a414a" d="M179-190 93 31C79 59 56 82 12 73V49c39 6 53-20 64-50L1-190h34L92-34l54-156h33" id="L"/><path fill="#3a414a" d="M141 0 90-78 38 0H4l68-98-65-92h35l48 74 47-74h35l-64 92 68 98h-35" id="M"/><path fill="#3a414a" d="M24-231v-30h32v30H24zM24 0v-190h32V0H24" id="N"/><path fill="#3a414a" d="M117-194c89-4 53 116 60 194h-32v-121c0-31-8-49-39-48C34-167 62-67 57 0H25l-1-190h30c1 10-1 24 2 32 11-22 29-35 61-36" id="O"/><path fill="#3a414a" d="M33 0v-248h34V0H33" id="P"/><path fill="#3a414a" d="M135-143c-3-34-86-38-87 0 15 53 115 12 119 90S17 21 10-45l28-5c4 36 97 45 98 0-10-56-113-15-118-90-4-57 82-63 122-42 12 7 21 19 24 35" id="Q"/><path fill="#3a414a" d="M212-179c-10-28-35-45-73-45-59 0-87 40-87 99 0 60 29 101 89 101 43 0 62-24 78-52l27 14C228-24 195 4 139 4 59 4 22-46 18-125c-6-104 99-153 187-111 19 9 31 26 39 46" id="R"/><path fill="#3a414a" d="m205 0-28-72H64L36 0H1l101-248h38L239 0h-34zm-38-99-47-123c-12 45-31 82-46 123h93" id="S"/><path fill="#3a414a" d="M206 0h-36l-40-164L89 0H53L-1-190h32L70-26l43-164h34l41 164 42-164h31" id="T"/><path fill="#3a414a" d="M115-194c53 0 69 39 70 98 0 66-23 100-70 100C84 3 66-7 56-30L54 0H23l1-261h32v101c10-23 28-34 59-34zm-8 174c40 0 45-34 45-75 0-40-5-75-45-74-42 0-51 32-51 76 0 43 10 73 51 73" id="U"/><path fill="#3a414a" d="M108 0H70L1-190h34L89-25l56-165h34" id="V"/><path fill="#3a414a" d="M266 0h-40l-56-210L115 0H75L2-248h35L96-30l15-64 43-154h32l59 218 59-218h35" id="W"/><path fill="#3a414a" d="M137 0h-34L2-248h35l83 218 83-218h36" id="X"/><path fill="#3a414a" d="M30 0v-248h187v28H63v79h144v27H63v87h162V0H30" id="Y"/><path fill="#3a414a" d="M143 0 79-87 56-68V0H24v-261h32v163l83-92h37l-77 82L181 0h-38" id="Z"/><g id="a"><use transform="rotate(.413) scale(.06173)" xlink:href="#v"/><use transform="matrix(.06173 0 0 .06173 11.05 0)" xlink:href="#w"/><use transform="matrix(.06173 0 0 .06173 23.395 0)" xlink:href="#x"/><use transform="matrix(.06173 0 0 .06173 41.852 0)" xlink:href="#y"/><use transform="matrix(.06173 0 0 .06173 54.198 0)" xlink:href="#z"/><use transform="matrix(.06173 0 0 .06173 66.543 0)" xlink:href="#A"/><use transform="matrix(.06173 0 0 .06173 73.889 0)" xlink:href="#B"/><use transform="matrix(.06173 0 0 .06173 86.235 0)" xlink:href="#C"/></g><g id="b"><use transform="rotate(.413) scale(.06173)" xlink:href="#D"/><use transform="matrix(.06173 0 0 .06173 14.815 0)" xlink:href="#C"/><use transform="matrix(.06173 0 0 .06173 19.691 0)" xlink:href="#B"/><use transform="matrix(.06173 0 0 .06173 32.037 0)" xlink:href="#E"/><use transform="matrix(.06173 0 0 .06173 38.21 0)" xlink:href="#F"/><use transform="matrix(.06173 0 0 .06173 44.383 0)" xlink:href="#z"/><use transform="matrix(.06173 0 0 .06173 56.728 0)" xlink:href="#A"/><use transform="matrix(.06173 0 0 .06173 64.074 0)" xlink:href="#x"/></g><g id="c"><use transform="rotate(.413) scale(.06173)" xlink:href="#G"/><use transform="matrix(.06173 0 0 .06173 12.778 0)" xlink:href="#z"/><use transform="matrix(.06173 0 0 .06173 25.123 0)" xlink:href="#H"/><use transform="matrix(.06173 0 0 .06173 37.47 0)" xlink:href="#A"/></g><g id="d"><use transform="rotate(.413) scale(.06173)" xlink:href="#I"/><use transform="matrix(.06173 0 0 .06173 11.111 0)" xlink:href="#z"/><use transform="matrix(.06173 0 0 .06173 23.457 0)" xlink:href="#J"/><use transform="matrix(.06173 0 0 .06173 35.802 0)" xlink:href="#w"/></g><g id="e"><use transform="rotate(.137) scale(.04321)" xlink:href="#K"/><use transform="matrix(.04321 0 0 .04321 11.191 0)" xlink:href="#w"/><use transform="matrix(.04321 0 0 .04321 19.833 0)" xlink:href="#B"/><use transform="matrix(.04321 0 0 .04321 28.475 0)" xlink:href="#J"/><use transform="matrix(.04321 0 0 .04321 37.117 0)" xlink:href="#L"/></g><g id="f"><use transform="rotate(.137) scale(.04321)" xlink:href="#F"/><use transform="matrix(.04321 0 0 .04321 4.321 0)" xlink:href="#z"/><use transform="matrix(.04321 0 0 .04321 12.963 0)" xlink:href="#A"/></g><g id="g"><use transform="rotate(.137) scale(.04321)" xlink:href="#w"/><use transform="matrix(.04321 0 0 .04321 8.642 0)" xlink:href="#M"/><use transform="matrix(.04321 0 0 .04321 16.42 0)" xlink:href="#w"/><use transform="matrix(.04321 0 0 .04321 25.062 0)" xlink:href="#I"/><use transform="matrix(.04321 0 0 .04321 32.84 0)" xlink:href="#H"/><use transform="matrix(.04321 0 0 .04321 41.481 0)" xlink:href="#E"/><use transform="matrix(.04321 0 0 .04321 45.802 0)" xlink:href="#N"/><use transform="matrix(.04321 0 0 .04321 49.216 0)" xlink:href="#z"/><use transform="matrix(.04321 0 0 .04321 57.858 0)" xlink:href="#O"/></g><g id="h"><use transform="rotate(.137) scale(.04321)" xlink:href="#P"/><use transform="matrix(.04321 0 0 .04321 4.321 0)" xlink:href="#Q"/><use transform="matrix(.04321 0 0 .04321 12.099 0)" xlink:href="#Q"/><use transform="matrix(.04321 0 0 .04321 19.877 0)" xlink:href="#H"/><use transform="matrix(.04321 0 0 .04321 28.519 0)" xlink:href="#w"/></g><g id="i"><use transform="rotate(.137) scale(.04321)" xlink:href="#R"/><use transform="matrix(.04321 0 0 .04321 11.191 0)" xlink:href="#z"/><use transform="matrix(.04321 0 0 .04321 19.833 0)" xlink:href="#x"/><use transform="matrix(.04321 0 0 .04321 32.753 0)" xlink:href="#x"/><use transform="matrix(.04321 0 0 .04321 45.673 0)" xlink:href="#B"/><use transform="matrix(.04321 0 0 .04321 54.315 0)" xlink:href="#O"/><use transform="matrix(.04321 0 0 .04321 62.957 0)" xlink:href="#J"/></g><g id="j"><use transform="rotate(.137) scale(.04321)" xlink:href="#S"/><use transform="matrix(.04321 0 0 .04321 10.068 0)" xlink:href="#T"/><use transform="matrix(.04321 0 0 .04321 21.26 0)" xlink:href="#B"/><use transform="matrix(.04321 0 0 .04321 29.901 0)" xlink:href="#N"/><use transform="matrix(.04321 0 0 .04321 33.315 0)" xlink:href="#E"/><use transform="matrix(.04321 0 0 .04321 37.636 0)" xlink:href="#B"/><use transform="matrix(.04321 0 0 .04321 46.278 0)" xlink:href="#U"/><use transform="matrix(.04321 0 0 .04321 54.92 0)" xlink:href="#C"/><use transform="matrix(.04321 0 0 .04321 58.333 0)" xlink:href="#w"/></g><g id="k"><use transform="rotate(.137) scale(.04321)" xlink:href="#N"/><use transform="matrix(.04321 0 0 .04321 3.414 0)" xlink:href="#Q"/></g><g id="l"><use transform="rotate(.137) scale(.04321)" xlink:href="#y"/><use transform="matrix(.04321 0 0 .04321 8.642 0)" xlink:href="#A"/><use transform="matrix(.04321 0 0 .04321 13.784 0)" xlink:href="#z"/><use transform="matrix(.04321 0 0 .04321 22.426 0)" xlink:href="#V"/><use transform="matrix(.04321 0 0 .04321 30.204 0)" xlink:href="#N"/><use transform="matrix(.04321 0 0 .04321 33.617 0)" xlink:href="#J"/><use transform="matrix(.04321 0 0 .04321 42.26 0)" xlink:href="#w"/><use transform="matrix(.04321 0 0 .04321 50.901 0)" xlink:href="#J"/></g><g id="m"><use transform="rotate(.137) scale(.04321)" xlink:href="#W"/><use transform="matrix(.04321 0 0 .04321 14.086 0)" xlink:href="#B"/><use transform="matrix(.04321 0 0 .04321 22.728 0)" xlink:href="#N"/><use transform="matrix(.04321 0 0 .04321 26.142 0)" xlink:href="#E"/><use transform="matrix(.04321 0 0 .04321 30.463 0)" xlink:href="#Q"/></g><g id="n"><use transform="rotate(.137) scale(.04321)" xlink:href="#z"/><use transform="matrix(.04321 0 0 .04321 8.642 0)" xlink:href="#O"/></g><g id="o"><use transform="rotate(.137) scale(.04321)" xlink:href="#S"/><use transform="matrix(.04321 0 0 .04321 10.068 0)" xlink:href="#T"/><use transform="matrix(.04321 0 0 .04321 21.26 0)" xlink:href="#B"/><use transform="matrix(.04321 0 0 .04321 29.901 0)" xlink:href="#N"/><use transform="matrix(.04321 0 0 .04321 33.315 0)" xlink:href="#E"/><use transform="matrix(.04321 0 0 .04321 37.636 0)" xlink:href="#B"/><use transform="matrix(.04321 0 0 .04321 46.278 0)" xlink:href="#U"/><use transform="matrix(.04321 0 0 .04321 54.92 0)" xlink:href="#C"/><use transform="matrix(.04321 0 0 .04321 58.333 0)" xlink:href="#w"/></g><g id="p"><use transform="rotate(.137) scale(.04321)" xlink:href="#X"/><use transform="matrix(.04321 0 0 .04321 9.204 0)" xlink:href="#B"/><use transform="matrix(.04321 0 0 .04321 17.846 0)" xlink:href="#C"/><use transform="matrix(.04321 0 0 .04321 21.26 0)" xlink:href="#H"/><use transform="matrix(.04321 0 0 .04321 29.901 0)" xlink:href="#w"/></g><g id="q"><use transform="rotate(.137) scale(.04321)" xlink:href="#z"/><use transform="matrix(.04321 0 0 .04321 8.642 0)" xlink:href="#F"/></g><g id="r"><use transform="rotate(.137) scale(.04321)" xlink:href="#S"/><use transform="matrix(.04321 0 0 .04321 10.068 0)" xlink:href="#T"/><use transform="matrix(.04321 0 0 .04321 21.26 0)" xlink:href="#B"/><use transform="matrix(.04321 0 0 .04321 29.901 0)" xlink:href="#N"/><use transform="matrix(.04321 0 0 .04321 33.315 0)" xlink:href="#E"/><use transform="matrix(.04321 0 0 .04321 37.636 0)" xlink:href="#B"/><use transform="matrix(.04321 0 0 .04321 46.278 0)" xlink:href="#U"/><use transform="matrix(.04321 0 0 .04321 54.92 0)" xlink:href="#C"/><use transform="matrix(.04321 0 0 .04321 58.333 0)" xlink:href="#w"/></g><g id="s"><use transform="rotate(.137) scale(.04321)" xlink:href="#Y"/><use transform="matrix(.04321 0 0 .04321 10.37 0)" xlink:href="#O"/><use transform="matrix(.04321 0 0 .04321 19.012 0)" xlink:href="#J"/></g><g id="t"><use transform="rotate(.137) scale(.04321)" xlink:href="#W"/><use transform="matrix(.04321 0 0 .04321 14.346 0)" xlink:href="#z"/><use transform="matrix(.04321 0 0 .04321 22.988 0)" xlink:href="#A"/><use transform="matrix(.04321 0 0 .04321 28.13 0)" xlink:href="#Z"/><use transform="matrix(.04321 0 0 .04321 35.907 0)" xlink:href="#F"/><use transform="matrix(.04321 0 0 .04321 40.228 0)" xlink:href="#C"/><use transform="matrix(.04321 0 0 .04321 43.642 0)" xlink:href="#z"/><use transform="matrix(.04321 0 0 .04321 52.284 0)" xlink:href="#T"/></g><g id="u"><use transform="rotate(.137) scale(.04321)" xlink:href="#Y"/><use transform="matrix(.04321 0 0 .04321 10.37 0)" xlink:href="#M"/><use transform="matrix(.04321 0 0 .04321 18.148 0)" xlink:href="#w"/><use transform="matrix(.04321 0 0 .04321 26.79 0)" xlink:href="#I"/><use transform="matrix(.04321 0 0 .04321 34.568 0)" xlink:href="#H"/><use transform="matrix(.04321 0 0 .04321 43.21 0)" xlink:href="#E"/><use transform="matrix(.04321 0 0 .04321 47.53 0)" xlink:href="#N"/><use transform="matrix(.04321 0 0 .04321 50.944 0)" xlink:href="#z"/><use transform="matrix(.04321 0 0 .04321 59.586 0)" xlink:href="#O"/></g></defs></g></svg>