<svg xmlns="http://www.w3.org/2000/svg" xmlns:xlink="http://www.w3.org/1999/xlink" xmlns:lucid="lucid" width="680" height="680"><g transform="translate(-260 -140)" lucid:page-tab-id="0_0"><path d="M0 0h1870.87v1322.83H0z" fill="#fff"/><path d="M320 700.12c0 11.05-8.95 20-20 20s-20-8.95-20-20 8.95-20 20-20 20 8.95 20 20zM620 700.12c0 11.05-8.95 20-20 20s-20-8.95-20-20 8.95-20 20-20 20 8.95 20 20zM920 700.12c0 11.05-8.95 20-20 20s-20-8.95-20-20 8.95-20 20-20 20 8.95 20 20z" stroke="#333" fill="#333"/><path d="M321 700.12h258" stroke="#333" fill="none"/><path d="M321 700.62h-.56l.06-.48-.02-.52h.53zM579.5 700.1l.02.52H579v-1h.56z" stroke="#333" stroke-width=".05" fill="#333"/><path d="M621 700.12h258" stroke="#333" fill="none"/><path d="M621 700.62h-.56l.06-.48-.02-.52h.53zM879.5 700.1l.02.52H879v-1h.56z" stroke="#333" stroke-width=".05" fill="#333"/><path d="M300.5 300.5c0 .28-.22.5-.5.5s-.5-.22-.5-.5.22-.5.5-.5.5.22.5.5zm0 2c0 .3-.22.5-.5.5s-.5-.2-.5-.5c0-.27.22-.5.5-.5s.5.23.5.5zm0 2.02c0 .27-.22.5-.5.5s-.5-.23-.5-.5c0-.28.22-.5.5-.5s.5.22.5.5zm0 2c0 .28-.22.5-.5.5s-.5-.22-.5-.5c0-.27.22-.5.5-.5s.5.23.5.5zm0 2.02c0 .27-.22.5-.5.5s-.5-.23-.5-.5c0-.28.22-.5.5-.5s.5.22.5.5zm0 2c0 .28-.22.5-.5.5s-.5-.22-.5-.5c0-.27.22-.5.5-.5s.5.23.5.5zm0 2.02c0 .27-.22.5-.5.5s-.5-.23-.5-.5c0-.28.22-.5.5-.5s.5.22.5.5zm0 2c0 .28-.22.5-.5.5s-.5-.22-.5-.5c0-.27.22-.5.5-.5s.5.23.5.5zm0 2c0 .3-.22.5-.5.5s-.5-.2-.5-.5c0-.26.22-.5.5-.5s.5.24.5.5zm0 2.02c0 .28-.22.5-.5.5s-.5-.22-.5-.5c0-.27.22-.5.5-.5s.5.23.5.5zm0 2c0 .3-.22.5-.5.5s-.5-.2-.5-.5c0-.26.22-.5.5-.5s.5.24.5.5zm0 2.02c0 .28-.22.5-.5.5s-.5-.22-.5-.5c0-.27.22-.5.5-.5s.5.23.5.5zm0 2c0 .3-.22.5-.5.5s-.5-.2-.5-.5c0-.26.22-.5.5-.5s.5.24.5.5zm0 2.02c0 .28-.22.5-.5.5s-.5-.22-.5-.5c0-.27.22-.5.5-.5s.5.23.5.5zm0 2c0 .3-.22.5-.5.5s-.5-.2-.5-.5c0-.27.22-.5.5-.5s.5.23.5.5zm0 2.02c0 .28-.22.5-.5.5s-.5-.22-.5-.5.22-.5.5-.5.5.22.5.5zm0 2c0 .3-.22.5-.5.5s-.5-.2-.5-.5c0-.27.22-.5.5-.5s.5.23.5.5zm0 2.02c0 .28-.22.5-.5.5s-.5-.22-.5-.5.22-.5.5-.5.5.22.5.5zm0 2c0 .28-.22.5-.5.5s-.5-.22-.5-.5c0-.27.22-.5.5-.5s.5.23.5.5zm0 2.02c0 .27-.22.5-.5.5s-.5-.23-.5-.5c0-.28.22-.5.5-.5s.5.22.5.5zm0 2c0 .28-.22.5-.5.5s-.5-.22-.5-.5c0-.27.22-.5.5-.5s.5.23.5.5zm0 2.02c0 .27-.22.5-.5.5s-.5-.23-.5-.5c0-.28.22-.5.5-.5s.5.22.5.5zm0 2c0 .28-.22.5-.5.5s-.5-.22-.5-.5c0-.27.22-.5.5-.5s.5.23.5.5zm0 2.02c0 .27-.22.5-.5.5s-.5-.23-.5-.5c0-.28.22-.5.5-.5s.5.22.5.5zm0 2c0 .28-.22.5-.5.5s-.5-.22-.5-.5c0-.27.22-.5.5-.5s.5.23.5.5zm0 2c0 .3-.22.5-.5.5s-.5-.2-.5-.5c0-.26.22-.5.5-.5s.5.24.5.5zm0 2.02c0 .28-.22.5-.5.5s-.5-.22-.5-.5c0-.27.22-.5.5-.5s.5.23.5.5zm0 2c0 .3-.22.5-.5.5s-.5-.2-.5-.5c0-.26.22-.5.5-.5s.5.24.5.5zm0 2.02c0 .28-.22.5-.5.5s-.5-.22-.5-.5c0-.27.22-.5.5-.5s.5.23.5.5zm0 2c0 .3-.22.5-.5.5s-.5-.2-.5-.5c0-.27.22-.5.5-.5s.5.23.5.5zm0 2.02c0 .28-.22.5-.5.5s-.5-.22-.5-.5.22-.5.5-.5.5.22.5.5zm0 2c0 .3-.22.5-.5.5s-.5-.2-.5-.5c0-.27.22-.5.5-.5s.5.23.5.5zm0 2.02c0 .28-.22.5-.5.5s-.5-.22-.5-.5.22-.5.5-.5.5.22.5.5zm0 2c0 .28-.22.5-.5.5s-.5-.22-.5-.5c0-.27.22-.5.5-.5s.5.23.5.5zm0 2.02c0 .27-.22.5-.5.5s-.5-.23-.5-.5c0-.28.22-.5.5-.5s.5.22.5.5zm0 2c0 .28-.22.5-.5.5s-.5-.22-.5-.5c0-.27.22-.5.5-.5s.5.23.5.5zm0 2.02c0 .27-.22.5-.5.5s-.5-.23-.5-.5c0-.28.22-.5.5-.5s.5.22.5.5zm0 2c0 .28-.22.5-.5.5s-.5-.22-.5-.5c0-.27.22-.5.5-.5s.5.23.5.5zm0 2.02c0 .27-.22.5-.5.5s-.5-.23-.5-.5c0-.28.22-.5.5-.5s.5.22.5.5zm0 2c0 .28-.22.5-.5.5s-.5-.22-.5-.5c0-.27.22-.5.5-.5s.5.23.5.5zm0 2c0 .3-.22.5-.5.5s-.5-.2-.5-.5c0-.26.22-.5.5-.5s.5.24.5.5zm0 2.02c0 .28-.22.5-.5.5s-.5-.22-.5-.5c0-.27.22-.5.5-.5s.5.23.5.5zm0 2c0 .3-.22.5-.5.5s-.5-.2-.5-.5c0-.26.22-.5.5-.5s.5.24.5.5zm0 2.02c0 .28-.22.5-.5.5s-.5-.22-.5-.5c0-.27.22-.5.5-.5s.5.23.5.5zm0 2c0 .3-.22.5-.5.5s-.5-.2-.5-.5c0-.26.22-.5.5-.5s.5.24.5.5zm0 2.02c0 .28-.22.5-.5.5s-.5-.22-.5-.5.22-.5.5-.5.5.22.5.5zm0 2c0 .3-.22.5-.5.5s-.5-.2-.5-.5c0-.27.22-.5.5-.5s.5.23.5.5zm0 2.02c0 .28-.22.5-.5.5s-.5-.22-.5-.5.22-.5.5-.5.5.22.5.5zm0 2c0 .28-.22.5-.5.5s-.5-.22-.5-.5c0-.27.22-.5.5-.5s.5.23.5.5zm0 2.02c0 .27-.22.5-.5.5s-.5-.23-.5-.5c0-.28.22-.5.5-.5s.5.22.5.5zm0 2c0 .28-.22.5-.5.5s-.5-.22-.5-.5c0-.27.22-.5.5-.5s.5.23.5.5zm0 2.02c0 .27-.22.5-.5.5s-.5-.23-.5-.5c0-.28.22-.5.5-.5s.5.22.5.5zm0 2c0 .28-.22.5-.5.5s-.5-.22-.5-.5c0-.27.22-.5.5-.5s.5.23.5.5zm0 2.02c0 .27-.22.5-.5.5s-.5-.23-.5-.5c0-.28.22-.5.5-.5s.5.22.5.5zm0 2c0 .28-.22.5-.5.5s-.5-.22-.5-.5c0-.27.22-.5.5-.5s.5.23.5.5zm0 2c0 .3-.22.5-.5.5s-.5-.2-.5-.5c0-.26.22-.5.5-.5s.5.24.5.5zm0 2.02c0 .28-.22.5-.5.5s-.5-.22-.5-.5c0-.27.22-.5.5-.5s.5.23.5.5zm0 2c0 .3-.22.5-.5.5s-.5-.2-.5-.5c0-.26.22-.5.5-.5s.5.24.5.5zm0 2.02c0 .28-.22.5-.5.5s-.5-.22-.5-.5c0-.27.22-.5.5-.5s.5.23.5.5zm0 2c0 .3-.22.5-.5.5s-.5-.2-.5-.5c0-.26.22-.5.5-.5s.5.24.5.5zm0 2.02c0 .28-.22.5-.5.5s-.5-.22-.5-.5.22-.5.5-.5.5.22.5.5zm0 2c0 .3-.22.5-.5.5s-.5-.2-.5-.5c0-.27.22-.5.5-.5s.5.23.5.5zm0 2.02c0 .28-.22.5-.5.5s-.5-.22-.5-.5.22-.5.5-.5.5.22.5.5zm0 2c0 .3-.22.5-.5.5s-.5-.2-.5-.5c0-.27.22-.5.5-.5s.5.23.5.5zm0 2.02c0 .27-.22.5-.5.5s-.5-.23-.5-.5c0-.28.22-.5.5-.5s.5.22.5.5zm0 2c0 .28-.22.5-.5.5s-.5-.22-.5-.5c0-.27.22-.5.5-.5s.5.23.5.5zm0 2.02c0 .27-.22.5-.5.5s-.5-.23-.5-.5c0-.28.22-.5.5-.5s.5.22.5.5zm0 2c0 .28-.22.5-.5.5s-.5-.22-.5-.5c0-.27.22-.5.5-.5s.5.23.5.5zm0 2.02c0 .27-.22.5-.5.5s-.5-.23-.5-.5c0-.28.22-.5.5-.5s.5.22.5.5zm0 2c0 .28-.22.5-.5.5s-.5-.22-.5-.5c0-.27.22-.5.5-.5s.5.23.5.5zm0 2c0 .3-.22.5-.5.5s-.5-.2-.5-.5c0-.26.22-.5.5-.5s.5.24.5.5zm0 2.02c0 .28-.22.5-.5.5s-.5-.22-.5-.5c0-.27.22-.5.5-.5s.5.23.5.5zm0 2c0 .3-.22.5-.5.5s-.5-.2-.5-.5c0-.26.22-.5.5-.5s.5.24.5.5zm0 2.02c0 .28-.22.5-.5.5s-.5-.22-.5-.5c0-.27.22-.5.5-.5s.5.23.5.5zm0 2c0 .3-.22.5-.5.5s-.5-.2-.5-.5c0-.26.22-.5.5-.5s.5.24.5.5zm0 2.02c0 .28-.22.5-.5.5s-.5-.22-.5-.5c0-.27.22-.5.5-.5s.5.23.5.5zm0 2c0 .3-.22.5-.5.5s-.5-.2-.5-.5c0-.27.22-.5.5-.5s.5.23.5.5zm0 2.02c0 .28-.22.5-.5.5s-.5-.22-.5-.5.22-.5.5-.5.5.22.5.5zm0 2c0 .3-.22.5-.5.5s-.5-.2-.5-.5c0-.27.22-.5.5-.5s.5.23.5.5zm0 2.02c0 .27-.22.5-.5.5s-.5-.23-.5-.5c0-.28.22-.5.5-.5s.5.22.5.5zm0 2c0 .28-.22.5-.5.5s-.5-.22-.5-.5c0-.27.22-.5.5-.5s.5.23.5.5zm0 2.02c0 .27-.22.5-.5.5s-.5-.23-.5-.5c0-.28.22-.5.5-.5s.5.22.5.5zm0 2c0 .28-.22.5-.5.5s-.5-.22-.5-.5c0-.27.22-.5.5-.5s.5.23.5.5zm0 2.02c0 .27-.22.5-.5.5s-.5-.23-.5-.5c0-.28.22-.5.5-.5s.5.22.5.5zm0 2c0 .28-.22.5-.5.5s-.5-.22-.5-.5c0-.27.22-.5.5-.5s.5.23.5.5zm0 2c0 .3-.22.5-.5.5s-.5-.2-.5-.5c0-.26.22-.5.5-.5s.5.24.5.5zm0 2.02c0 .28-.22.5-.5.5s-.5-.22-.5-.5c0-.27.22-.5.5-.5s.5.23.5.5zm0 2c0 .3-.22.5-.5.5s-.5-.2-.5-.5c0-.26.22-.5.5-.5s.5.24.5.5zm0 2.02c0 .28-.22.5-.5.5s-.5-.22-.5-.5c0-.27.22-.5.5-.5s.5.23.5.5zm0 2c0 .3-.22.5-.5.5s-.5-.2-.5-.5c0-.26.22-.5.5-.5s.5.24.5.5zm0 2.02c0 .28-.22.5-.5.5s-.5-.22-.5-.5c0-.27.22-.5.5-.5s.5.23.5.5zm0 2c0 .3-.22.5-.5.5s-.5-.2-.5-.5c0-.27.22-.5.5-.5s.5.23.5.5zm0 2.02c0 .28-.22.5-.5.5s-.5-.22-.5-.5.22-.5.5-.5.5.22.5.5zm0 2c0 .3-.22.5-.5.5s-.5-.2-.5-.5c0-.27.22-.5.5-.5s.5.23.5.5zm0 2.02c0 .27-.22.5-.5.5s-.5-.23-.5-.5c0-.28.22-.5.5-.5s.5.22.5.5zm.98 3c0 .27-.22.5-.5.5-.27 0-.5-.23-.5-.5 0-.3.23-.5.5-.5.28 0 .5.2.5.5zm0 2c0 .28-.22.5-.5.5-.27 0-.5-.22-.5-.5s.23-.5.5-.5c.28 0 .5.22.5.5zm0 2c0 .28-.22.5-.5.5-.27 0-.5-.22-.5-.5 0-.27.23-.5.5-.5.28 0 .5.23.5.5zm0 2.02c0 .27-.22.5-.5.5-.27 0-.5-.23-.5-.5 0-.28.23-.5.5-.5.28 0 .5.22.5.5zm0 2c0 .28-.22.5-.5.5-.27 0-.5-.22-.5-.5 0-.27.23-.5.5-.5.28 0 .5.23.5.5zm0 2.02c0 .27-.22.5-.5.5-.27 0-.5-.23-.5-.5 0-.28.23-.5.5-.5.28 0 .5.22.5.5zm0 2c0 .28-.22.5-.5.5-.27 0-.5-.22-.5-.5 0-.27.23-.5.5-.5.28 0 .5.23.5.5zm0 2.02c0 .27-.22.5-.5.5-.27 0-.5-.23-.5-.5 0-.28.23-.5.5-.5.28 0 .5.22.5.5zm0 2c0 .28-.22.5-.5.5-.27 0-.5-.22-.5-.5 0-.27.23-.5.5-.5.28 0 .5.23.5.5zm0 2c0 .3-.22.5-.5.5-.27 0-.5-.2-.5-.5 0-.26.23-.5.5-.5.28 0 .5.24.5.5zm0 2.02c0 .28-.22.5-.5.5-.27 0-.5-.22-.5-.5 0-.27.23-.5.5-.5.28 0 .5.23.5.5zm0 2c0 .3-.22.5-.5.5-.27 0-.5-.2-.5-.5 0-.26.23-.5.5-.5.28 0 .5.24.5.5zm0 2.02c0 .28-.22.5-.5.5-.27 0-.5-.22-.5-.5 0-.27.23-.5.5-.5.28 0 .5.23.5.5zm0 2c0 .3-.22.5-.5.5-.27 0-.5-.2-.5-.5 0-.26.23-.5.5-.5.28 0 .5.24.5.5zm0 2.02c0 .28-.22.5-.5.5-.27 0-.5-.22-.5-.5s.23-.5.5-.5c.28 0 .5.22.5.5zm0 2c0 .3-.22.5-.5.5-.27 0-.5-.2-.5-.5 0-.27.23-.5.5-.5.28 0 .5.23.5.5zm0 2.02c0 .28-.22.5-.5.5-.27 0-.5-.22-.5-.5s.23-.5.5-.5c.28 0 .5.22.5.5zm0 2c0 .3-.22.5-.5.5-.27 0-.5-.2-.5-.5 0-.27.23-.5.5-.5.28 0 .5.23.5.5zm0 2.02c0 .27-.22.5-.5.5-.27 0-.5-.23-.5-.5 0-.28.23-.5.5-.5.28 0 .5.22.5.5zm0 2c0 .28-.22.5-.5.5-.27 0-.5-.22-.5-.5 0-.27.23-.5.5-.5.28 0 .5.23.5.5zm0 2.02c0 .27-.22.5-.5.5-.27 0-.5-.23-.5-.5 0-.28.23-.5.5-.5.28 0 .5.22.5.5zm0 2c0 .28-.22.5-.5.5-.27 0-.5-.22-.5-.5 0-.27.23-.5.5-.5.28 0 .5.23.5.5zm0 2.02c0 .27-.22.5-.5.5-.27 0-.5-.23-.5-.5 0-.28.23-.5.5-.5.28 0 .5.22.5.5zm0 2c0 .28-.22.5-.5.5-.27 0-.5-.22-.5-.5 0-.27.23-.5.5-.5.28 0 .5.23.5.5zm0 2c0 .3-.22.5-.5.5-.27 0-.5-.2-.5-.5 0-.26.23-.5.5-.5.28 0 .5.24.5.5zm0 2.02c0 .28-.22.5-.5.5-.27 0-.5-.22-.5-.5 0-.27.23-.5.5-.5.28 0 .5.23.5.5zm0 2c0 .3-.22.5-.5.5-.27 0-.5-.2-.5-.5 0-.26.23-.5.5-.5.28 0 .5.24.5.5zm0 2.02c0 .28-.22.5-.5.5-.27 0-.5-.22-.5-.5 0-.27.23-.5.5-.5.28 0 .5.23.5.5zm0 2c0 .3-.22.5-.5.5-.27 0-.5-.2-.5-.5 0-.26.23-.5.5-.5.28 0 .5.24.5.5zm0 2.02c0 .28-.22.5-.5.5-.27 0-.5-.22-.5-.5 0-.27.23-.5.5-.5.28 0 .5.23.5.5zm0 2c0 .3-.22.5-.5.5-.27 0-.5-.2-.5-.5 0-.27.23-.5.5-.5.28 0 .5.23.5.5zm0 2.02c0 .28-.22.5-.5.5-.27 0-.5-.22-.5-.5s.23-.5.5-.5c.28 0 .5.22.5.5zm0 2c0 .3-.22.5-.5.5-.27 0-.5-.2-.5-.5 0-.27.23-.5.5-.5.28 0 .5.23.5.5zm0 2.02c0 .27-.22.5-.5.5-.27 0-.5-.23-.5-.5 0-.28.23-.5.5-.5.28 0 .5.22.5.5zm0 2c0 .28-.22.5-.5.5-.27 0-.5-.22-.5-.5 0-.27.23-.5.5-.5.28 0 .5.23.5.5zm0 2.02c0 .27-.22.5-.5.5-.27 0-.5-.23-.5-.5 0-.28.23-.5.5-.5.28 0 .5.22.5.5zm0 2c0 .28-.22.5-.5.5-.27 0-.5-.22-.5-.5 0-.27.23-.5.5-.5.28 0 .5.23.5.5zm0 2.02c0 .27-.22.5-.5.5-.27 0-.5-.23-.5-.5 0-.28.23-.5.5-.5.28 0 .5.22.5.5zm0 2c0 .28-.22.5-.5.5-.27 0-.5-.22-.5-.5 0-.27.23-.5.5-.5.28 0 .5.23.5.5zm0 2c0 .3-.22.5-.5.5-.27 0-.5-.2-.5-.5 0-.26.23-.5.5-.5.28 0 .5.24.5.5zm0 2.02c0 .28-.22.5-.5.5-.27 0-.5-.22-.5-.5 0-.27.23-.5.5-.5.28 0 .5.23.5.5zm0 2c0 .3-.22.5-.5.5-.27 0-.5-.2-.5-.5 0-.26.23-.5.5-.5.28 0 .5.24.5.5zm0 2.02c0 .28-.22.5-.5.5-.27 0-.5-.22-.5-.5 0-.27.23-.5.5-.5.28 0 .5.23.5.5zm0 2c0 .3-.22.5-.5.5-.27 0-.5-.2-.5-.5 0-.26.23-.5.5-.5.28 0 .5.24.5.5zm0 2.02c0 .28-.22.5-.5.5-.27 0-.5-.22-.5-.5 0-.27.23-.5.5-.5.28 0 .5.23.5.5zm0 2c0 .3-.22.5-.5.5-.27 0-.5-.2-.5-.5 0-.27.23-.5.5-.5.28 0 .5.23.5.5zm0 2.02c0 .28-.22.5-.5.5-.27 0-.5-.22-.5-.5s.23-.5.5-.5c.28 0 .5.22.5.5zm0 2c0 .3-.22.5-.5.5-.27 0-.5-.2-.5-.5 0-.27.23-.5.5-.5.28 0 .5.23.5.5zm0 2.02c0 .27-.22.5-.5.5-.27 0-.5-.23-.5-.5 0-.28.23-.5.5-.5.28 0 .5.22.5.5zm0 2c0 .28-.22.5-.5.5-.27 0-.5-.22-.5-.5 0-.27.23-.5.5-.5.28 0 .5.23.5.5zm0 2.02c0 .27-.22.5-.5.5-.27 0-.5-.23-.5-.5 0-.28.23-.5.5-.5.28 0 .5.22.5.5zm0 2c0 .28-.22.5-.5.5-.27 0-.5-.22-.5-.5 0-.27.23-.5.5-.5.28 0 .5.23.5.5zm0 2.02c0 .27-.22.5-.5.5-.27 0-.5-.23-.5-.5 0-.28.23-.5.5-.5.28 0 .5.22.5.5zm0 2c0 .28-.22.5-.5.5-.27 0-.5-.22-.5-.5 0-.27.23-.5.5-.5.28 0 .5.23.5.5zm0 2c0 .3-.22.5-.5.5-.27 0-.5-.2-.5-.5 0-.26.23-.5.5-.5.28 0 .5.24.5.5zm0 2.02c0 .28-.22.5-.5.5-.27 0-.5-.22-.5-.5 0-.27.23-.5.5-.5.28 0 .5.23.5.5zm0 2c0 .3-.22.5-.5.5-.27 0-.5-.2-.5-.5 0-.26.23-.5.5-.5.28 0 .5.24.5.5zm0 2.02c0 .28-.22.5-.5.5-.27 0-.5-.22-.5-.5 0-.27.23-.5.5-.5.28 0 .5.23.5.5zm0 2c0 .3-.22.5-.5.5-.27 0-.5-.2-.5-.5 0-.26.23-.5.5-.5.28 0 .5.24.5.5zm0 2.02c0 .28-.22.5-.5.5-.27 0-.5-.22-.5-.5 0-.27.23-.5.5-.5.28 0 .5.23.5.5zm0 2c0 .3-.22.5-.5.5-.27 0-.5-.2-.5-.5 0-.27.23-.5.5-.5.28 0 .5.23.5.5zm0 2.02c0 .28-.22.5-.5.5-.27 0-.5-.22-.5-.5s.23-.5.5-.5c.28 0 .5.22.5.5zm0 2c0 .3-.22.5-.5.5-.27 0-.5-.2-.5-.5 0-.27.23-.5.5-.5.28 0 .5.23.5.5zm0 2.02c0 .28-.22.5-.5.5-.27 0-.5-.22-.5-.5s.23-.5.5-.5c.28 0 .5.22.5.5zm0 2c0 .28-.22.5-.5.5-.27 0-.5-.22-.5-.5 0-.27.23-.5.5-.5.28 0 .5.23.5.5zm0 2.02c0 .27-.22.5-.5.5-.27 0-.5-.23-.5-.5 0-.28.23-.5.5-.5.28 0 .5.22.5.5zm0 2c0 .28-.22.5-.5.5-.27 0-.5-.22-.5-.5 0-.27.23-.5.5-.5.28 0 .5.23.5.5zm0 2.02c0 .27-.22.5-.5.5-.27 0-.5-.23-.5-.5 0-.28.23-.5.5-.5.28 0 .5.22.5.5zm0 2c0 .28-.22.5-.5.5-.27 0-.5-.22-.5-.5 0-.27.23-.5.5-.5.28 0 .5.23.5.5zm0 2.02c0 .27-.22.5-.5.5-.27 0-.5-.23-.5-.5 0-.28.23-.5.5-.5.28 0 .5.22.5.5zm0 2c0 .28-.22.5-.5.5-.27 0-.5-.22-.5-.5 0-.27.23-.5.5-.5.28 0 .5.23.5.5zm0 2c0 .3-.22.5-.5.5-.27 0-.5-.2-.5-.5 0-.26.23-.5.5-.5.28 0 .5.24.5.5zm0 2.02c0 .28-.22.5-.5.5-.27 0-.5-.22-.5-.5 0-.27.23-.5.5-.5.28 0 .5.23.5.5zm0 2c0 .3-.22.5-.5.5-.27 0-.5-.2-.5-.5 0-.26.23-.5.5-.5.28 0 .5.24.5.5zm0 2.02c0 .28-.22.5-.5.5-.27 0-.5-.22-.5-.5 0-.27.23-.5.5-.5.28 0 .5.23.5.5zm0 2c0 .3-.22.5-.5.5-.27 0-.5-.2-.5-.5 0-.26.23-.5.5-.5.28 0 .5.24.5.5zm0 2.02c0 .28-.22.5-.5.5-.27 0-.5-.22-.5-.5s.23-.5.5-.5c.28 0 .5.22.5.5zm0 2c0 .3-.22.5-.5.5-.27 0-.5-.2-.5-.5 0-.27.23-.5.5-.5.28 0 .5.23.5.5zm0 2.02c0 .28-.22.5-.5.5-.27 0-.5-.22-.5-.5s.23-.5.5-.5c.28 0 .5.22.5.5zm0 2c0 .28-.22.5-.5.5-.27 0-.5-.22-.5-.5 0-.27.23-.5.5-.5.28 0 .5.23.5.5zm0 2.02c0 .27-.22.5-.5.5-.27 0-.5-.23-.5-.5 0-.28.23-.5.5-.5.28 0 .5.22.5.5zm0 2c0 .28-.22.5-.5.5-.27 0-.5-.22-.5-.5 0-.27.23-.5.5-.5.28 0 .5.23.5.5zm0 2.02c0 .27-.22.5-.5.5-.27 0-.5-.23-.5-.5 0-.28.23-.5.5-.5.28 0 .5.22.5.5zm0 2c0 .28-.22.5-.5.5-.27 0-.5-.22-.5-.5 0-.27.23-.5.5-.5.28 0 .5.23.5.5zm0 2.02c0 .27-.22.5-.5.5-.27 0-.5-.23-.5-.5 0-.28.23-.5.5-.5.28 0 .5.22.5.5zm0 2c0 .28-.22.5-.5.5-.27 0-.5-.22-.5-.5 0-.27.23-.5.5-.5.28 0 .5.23.5.5zm0 2c0 .3-.22.5-.5.5-.27 0-.5-.2-.5-.5 0-.26.23-.5.5-.5.28 0 .5.24.5.5zm0 2.02c0 .28-.22.5-.5.5-.27 0-.5-.22-.5-.5 0-.27.23-.5.5-.5.28 0 .5.23.5.5zm0 2c0 .3-.22.5-.5.5-.27 0-.5-.2-.5-.5 0-.26.23-.5.5-.5.28 0 .5.24.5.5zm0 2.02c0 .28-.22.5-.5.5-.27 0-.5-.22-.5-.5 0-.27.23-.5.5-.5.28 0 .5.23.5.5zm0 2c0 .3-.22.5-.5.5-.27 0-.5-.2-.5-.5 0-.26.23-.5.5-.5.28 0 .5.24.5.5zm0 2.02c0 .28-.22.5-.5.5-.27 0-.5-.22-.5-.5s.23-.5.5-.5c.28 0 .5.22.5.5zm0 2c0 .3-.22.5-.5.5-.27 0-.5-.2-.5-.5 0-.27.23-.5.5-.5.28 0 .5.23.5.5zm0 2.02c0 .28-.22.5-.5.5-.27 0-.5-.22-.5-.5s.23-.5.5-.5c.28 0 .5.22.5.5z" fill="#333"/><path d="M300 300.5v-.5" stroke="#333" fill="none"/><path d="M301.48 679.8l-1-.12v-.45h1z" stroke="#333" stroke-width=".05" fill="#333"/><path d="M600.5 402c0 .28-.22.5-.5.5s-.5-.22-.5-.5.22-.5.5-.5.5.22.5.5zm0 2c0 .27-.22.5-.5.5s-.5-.23-.5-.5c0-.28.22-.5.5-.5s.5.22.5.5zm0 2c0 .26-.22.5-.5.5s-.5-.24-.5-.5c0-.3.22-.5.5-.5s.5.2.5.5zm0 1.98c0 .28-.22.5-.5.5s-.5-.22-.5-.5.22-.5.5-.5.5.22.5.5zm0 2c0 .27-.22.5-.5.5s-.5-.23-.5-.5c0-.28.22-.5.5-.5s.5.22.5.5zm0 2c0 .26-.22.5-.5.5s-.5-.24-.5-.5c0-.3.22-.5.5-.5s.5.2.5.5zm0 1.98c0 .28-.22.5-.5.5s-.5-.22-.5-.5c0-.27.22-.5.5-.5s.5.23.5.5zm0 2c0 .27-.22.5-.5.5s-.5-.23-.5-.5c0-.28.22-.5.5-.5s.5.22.5.5zm0 2c0 .27-.22.5-.5.5s-.5-.23-.5-.5c0-.3.22-.5.5-.5s.5.2.5.5zm0 1.98c0 .28-.22.5-.5.5s-.5-.22-.5-.5c0-.27.22-.5.5-.5s.5.23.5.5zm0 2c0 .27-.22.5-.5.5s-.5-.23-.5-.5c0-.28.22-.5.5-.5s.5.22.5.5zm0 2c0 .27-.22.5-.5.5s-.5-.23-.5-.5c0-.3.22-.5.5-.5s.5.2.5.5zm0 1.98c0 .28-.22.5-.5.5s-.5-.22-.5-.5c0-.27.22-.5.5-.5s.5.23.5.5zm0 2c0 .27-.22.5-.5.5s-.5-.23-.5-.5c0-.28.22-.5.5-.5s.5.22.5.5zm0 2c0 .27-.22.5-.5.5s-.5-.23-.5-.5c0-.28.22-.5.5-.5s.5.22.5.5zm0 2c0 .26-.22.5-.5.5s-.5-.24-.5-.5c0-.3.22-.5.5-.5s.5.2.5.5zm0 1.98c0 .27-.22.5-.5.5s-.5-.23-.5-.5c0-.28.22-.5.5-.5s.5.22.5.5zm0 2c0 .27-.22.5-.5.5s-.5-.23-.5-.5c0-.28.22-.5.5-.5s.5.22.5.5zm0 2c0 .26-.22.5-.5.5s-.5-.24-.5-.5c0-.3.22-.5.5-.5s.5.2.5.5zm0 1.98c0 .28-.22.5-.5.5s-.5-.22-.5-.5.22-.5.5-.5.5.22.5.5zm0 2c0 .27-.22.5-.5.5s-.5-.23-.5-.5c0-.28.22-.5.5-.5s.5.22.5.5zm0 2c0 .26-.22.5-.5.5s-.5-.24-.5-.5c0-.3.22-.5.5-.5s.5.2.5.5zm0 1.98c0 .28-.22.5-.5.5s-.5-.22-.5-.5.22-.5.5-.5.5.22.5.5zm0 2c0 .27-.22.5-.5.5s-.5-.23-.5-.5c0-.28.22-.5.5-.5s.5.22.5.5zm0 2c0 .26-.22.5-.5.5s-.5-.24-.5-.5c0-.3.22-.5.5-.5s.5.2.5.5zm0 1.98c0 .28-.22.5-.5.5s-.5-.22-.5-.5c0-.27.22-.5.5-.5s.5.23.5.5zm0 2c0 .27-.22.5-.5.5s-.5-.23-.5-.5c0-.28.22-.5.5-.5s.5.22.5.5zm0 2c0 .27-.22.5-.5.5s-.5-.23-.5-.5c0-.3.22-.5.5-.5s.5.2.5.5zm0 1.98c0 .28-.22.5-.5.5s-.5-.22-.5-.5c0-.27.22-.5.5-.5s.5.23.5.5zm0 2c0 .27-.22.5-.5.5s-.5-.23-.5-.5c0-.28.22-.5.5-.5s.5.22.5.5zm0 2c0 .27-.22.5-.5.5s-.5-.23-.5-.5c0-.3.22-.5.5-.5s.5.2.5.5zm0 1.98c0 .28-.22.5-.5.5s-.5-.22-.5-.5c0-.27.22-.5.5-.5s.5.23.5.5zm0 2c0 .27-.22.5-.5.5s-.5-.23-.5-.5c0-.28.22-.5.5-.5s.5.22.5.5zm0 2c0 .27-.22.5-.5.5s-.5-.23-.5-.5c0-.28.22-.5.5-.5s.5.22.5.5zm0 1.98c0 .28-.22.5-.5.5s-.5-.22-.5-.5c0-.27.22-.5.5-.5s.5.23.5.5zm0 2c0 .27-.22.5-.5.5s-.5-.23-.5-.5c0-.28.22-.5.5-.5s.5.22.5.5zm0 2c0 .27-.22.5-.5.5s-.5-.23-.5-.5c0-.28.22-.5.5-.5s.5.22.5.5zm0 2c0 .26-.22.5-.5.5s-.5-.24-.5-.5c0-.3.22-.5.5-.5s.5.2.5.5zm0 1.98c0 .28-.22.5-.5.5s-.5-.22-.5-.5.22-.5.5-.5.5.22.5.5zm0 2c0 .27-.22.5-.5.5s-.5-.23-.5-.5c0-.28.22-.5.5-.5s.5.22.5.5zm0 2c0 .26-.22.5-.5.5s-.5-.24-.5-.5c0-.3.22-.5.5-.5s.5.2.5.5zm0 1.98c0 .28-.22.5-.5.5s-.5-.22-.5-.5.22-.5.5-.5.5.22.5.5zm0 2c0 .27-.22.5-.5.5s-.5-.23-.5-.5c0-.28.22-.5.5-.5s.5.22.5.5zm0 2c0 .26-.22.5-.5.5s-.5-.24-.5-.5c0-.3.22-.5.5-.5s.5.2.5.5zm0 1.98c0 .28-.22.5-.5.5s-.5-.22-.5-.5c0-.27.22-.5.5-.5s.5.23.5.5zm0 2c0 .27-.22.5-.5.5s-.5-.23-.5-.5c0-.28.22-.5.5-.5s.5.22.5.5zm0 2c0 .27-.22.5-.5.5s-.5-.23-.5-.5c0-.3.22-.5.5-.5s.5.2.5.5zm0 1.98c0 .28-.22.5-.5.5s-.5-.22-.5-.5c0-.27.22-.5.5-.5s.5.23.5.5zm0 2c0 .27-.22.5-.5.5s-.5-.23-.5-.5c0-.28.22-.5.5-.5s.5.22.5.5zm0 2c0 .27-.22.5-.5.5s-.5-.23-.5-.5c0-.3.22-.5.5-.5s.5.2.5.5zm0 1.98c0 .28-.22.5-.5.5s-.5-.22-.5-.5c0-.27.22-.5.5-.5s.5.23.5.5zm0 2c0 .27-.22.5-.5.5s-.5-.23-.5-.5c0-.28.22-.5.5-.5s.5.22.5.5zm0 2c0 .27-.22.5-.5.5s-.5-.23-.5-.5c0-.3.22-.5.5-.5s.5.2.5.5zm0 1.98c0 .28-.22.5-.5.5s-.5-.22-.5-.5c0-.27.22-.5.5-.5s.5.23.5.5zm0 2c0 .27-.22.5-.5.5s-.5-.23-.5-.5c0-.28.22-.5.5-.5s.5.22.5.5zm0 2c0 .27-.22.5-.5.5s-.5-.23-.5-.5c0-.28.22-.5.5-.5s.5.22.5.5zm0 2c0 .26-.22.5-.5.5s-.5-.24-.5-.5c0-.3.22-.5.5-.5s.5.2.5.5zm0 1.98c0 .28-.22.5-.5.5s-.5-.22-.5-.5.22-.5.5-.5.5.22.5.5zm0 2c0 .27-.22.5-.5.5s-.5-.23-.5-.5c0-.28.22-.5.5-.5s.5.22.5.5zm0 2c0 .26-.22.5-.5.5s-.5-.24-.5-.5c0-.3.22-.5.5-.5s.5.2.5.5zm0 1.98c0 .28-.22.5-.5.5s-.5-.22-.5-.5.22-.5.5-.5.5.22.5.5zm0 2c0 .27-.22.5-.5.5s-.5-.23-.5-.5c0-.28.22-.5.5-.5s.5.22.5.5zm0 2c0 .26-.22.5-.5.5s-.5-.24-.5-.5c0-.3.22-.5.5-.5s.5.2.5.5zm0 1.98c0 .28-.22.5-.5.5s-.5-.22-.5-.5c0-.27.22-.5.5-.5s.5.23.5.5zm0 2c0 .27-.22.5-.5.5s-.5-.23-.5-.5c0-.28.22-.5.5-.5s.5.22.5.5zm0 2c0 .26-.22.5-.5.5s-.5-.24-.5-.5c0-.3.22-.5.5-.5s.5.2.5.5zm0 1.98c0 .28-.22.5-.5.5s-.5-.22-.5-.5c0-.27.22-.5.5-.5s.5.23.5.5zm0 2c0 .27-.22.5-.5.5s-.5-.23-.5-.5c0-.28.22-.5.5-.5s.5.22.5.5zm0 2c0 .27-.22.5-.5.5s-.5-.23-.5-.5c0-.3.22-.5.5-.5s.5.2.5.5zm0 1.98c0 .28-.22.5-.5.5s-.5-.22-.5-.5c0-.27.22-.5.5-.5s.5.23.5.5zm0 2c0 .27-.22.5-.5.5s-.5-.23-.5-.5c0-.28.22-.5.5-.5s.5.22.5.5zm0 2c0 .27-.22.5-.5.5s-.5-.23-.5-.5c0-.3.22-.5.5-.5s.5.2.5.5zm0 1.98c0 .28-.22.5-.5.5s-.5-.22-.5-.5c0-.27.22-.5.5-.5s.5.23.5.5zm0 2c0 .27-.22.5-.5.5s-.5-.23-.5-.5c0-.28.22-.5.5-.5s.5.22.5.5zm0 2c0 .27-.22.5-.5.5s-.5-.23-.5-.5c0-.28.22-.5.5-.5s.5.22.5.5zm0 2c0 .26-.22.5-.5.5s-.5-.24-.5-.5c0-.3.22-.5.5-.5s.5.2.5.5zm0 1.98c0 .28-.22.5-.5.5s-.5-.22-.5-.5.22-.5.5-.5.5.22.5.5zm0 2c0 .27-.22.5-.5.5s-.5-.23-.5-.5c0-.28.22-.5.5-.5s.5.22.5.5zm0 2c0 .26-.22.5-.5.5s-.5-.24-.5-.5c0-.3.22-.5.5-.5s.5.2.5.5zm0 1.98c0 .28-.22.5-.5.5s-.5-.22-.5-.5.22-.5.5-.5.5.22.5.5zm0 2c0 .27-.22.5-.5.5s-.5-.23-.5-.5c0-.28.22-.5.5-.5s.5.22.5.5zm0 2c0 .26-.22.5-.5.5s-.5-.24-.5-.5c0-.3.22-.5.5-.5s.5.2.5.5zm0 1.98c0 .28-.22.5-.5.5s-.5-.22-.5-.5.22-.5.5-.5.5.22.5.5zm0 2c0 .27-.22.5-.5.5s-.5-.23-.5-.5c0-.28.22-.5.5-.5s.5.22.5.5zm0 2c0 .26-.22.5-.5.5s-.5-.24-.5-.5c0-.3.22-.5.5-.5s.5.2.5.5zm0 1.98c0 .28-.22.5-.5.5s-.5-.22-.5-.5c0-.27.22-.5.5-.5s.5.23.5.5zm0 2c0 .27-.22.5-.5.5s-.5-.23-.5-.5c0-.28.22-.5.5-.5s.5.22.5.5zm0 2c0 .27-.22.5-.5.5s-.5-.23-.5-.5c0-.3.22-.5.5-.5s.5.2.5.5zm0 1.98c0 .28-.22.5-.5.5s-.5-.22-.5-.5c0-.27.22-.5.5-.5s.5.23.5.5zm0 2c0 .27-.22.5-.5.5s-.5-.23-.5-.5c0-.28.22-.5.5-.5s.5.22.5.5zm0 2c0 .27-.22.5-.5.5s-.5-.23-.5-.5c0-.3.22-.5.5-.5s.5.2.5.5zm0 1.98c0 .28-.22.5-.5.5s-.5-.22-.5-.5c0-.27.22-.5.5-.5s.5.23.5.5zm0 2c0 .27-.22.5-.5.5s-.5-.23-.5-.5c0-.28.22-.5.5-.5s.5.22.5.5zm0 2c0 .27-.22.5-.5.5s-.5-.23-.5-.5c0-.28.22-.5.5-.5s.5.22.5.5zm0 2c0 .26-.22.5-.5.5s-.5-.24-.5-.5c0-.3.22-.5.5-.5s.5.2.5.5zm0 1.98c0 .27-.22.5-.5.5s-.5-.23-.5-.5c0-.28.22-.5.5-.5s.5.22.5.5zm0 2c0 .27-.22.5-.5.5s-.5-.23-.5-.5c0-.28.22-.5.5-.5s.5.22.5.5zm0 2c0 .26-.22.5-.5.5s-.5-.24-.5-.5c0-.3.22-.5.5-.5s.5.2.5.5zm0 1.98c0 .28-.22.5-.5.5s-.5-.22-.5-.5.22-.5.5-.5.5.22.5.5zm0 2c0 .27-.22.5-.5.5s-.5-.23-.5-.5c0-.28.22-.5.5-.5s.5.22.5.5zm0 2c0 .26-.22.5-.5.5s-.5-.24-.5-.5c0-.3.22-.5.5-.5s.5.2.5.5zm0 1.98c0 .28-.22.5-.5.5s-.5-.22-.5-.5.22-.5.5-.5.5.22.5.5zm0 2c0 .27-.22.5-.5.5s-.5-.23-.5-.5c0-.28.22-.5.5-.5s.5.22.5.5zm0 2c0 .26-.22.5-.5.5s-.5-.24-.5-.5c0-.3.22-.5.5-.5s.5.2.5.5zm0 1.98c0 .28-.22.5-.5.5s-.5-.22-.5-.5c0-.27.22-.5.5-.5s.5.23.5.5zm0 2c0 .27-.22.5-.5.5s-.5-.23-.5-.5c0-.28.22-.5.5-.5s.5.22.5.5zm0 2c0 .27-.22.5-.5.5s-.5-.23-.5-.5c0-.3.22-.5.5-.5s.5.2.5.5zm0 1.98c0 .28-.22.5-.5.5s-.5-.22-.5-.5c0-.27.22-.5.5-.5s.5.23.5.5zm0 2c0 .27-.22.5-.5.5s-.5-.23-.5-.5c0-.28.22-.5.5-.5s.5.22.5.5zm0 2c0 .27-.22.5-.5.5s-.5-.23-.5-.5c0-.3.22-.5.5-.5s.5.2.5.5zm0 1.98c0 .28-.22.5-.5.5s-.5-.22-.5-.5c0-.27.22-.5.5-.5s.5.23.5.5zm0 2c0 .27-.22.5-.5.5s-.5-.23-.5-.5c0-.28.22-.5.5-.5s.5.22.5.5zm0 2c0 .27-.22.5-.5.5s-.5-.23-.5-.5c0-.28.22-.5.5-.5s.5.22.5.5zm0 1.98c0 .28-.22.5-.5.5s-.5-.22-.5-.5c0-.27.22-.5.5-.5s.5.23.5.5zm0 2c0 .27-.22.5-.5.5s-.5-.23-.5-.5c0-.28.22-.5.5-.5s.5.22.5.5zm0 2c0 .27-.22.5-.5.5s-.5-.23-.5-.5c0-.28.22-.5.5-.5s.5.22.5.5zm0 2c0 .26-.22.5-.5.5s-.5-.24-.5-.5c0-.3.22-.5.5-.5s.5.2.5.5zm0 1.98c0 .28-.22.5-.5.5s-.5-.22-.5-.5.22-.5.5-.5.5.22.5.5zm0 2c0 .27-.22.5-.5.5s-.5-.23-.5-.5c0-.28.22-.5.5-.5s.5.22.5.5zm0 2c0 .26-.22.5-.5.5s-.5-.24-.5-.5c0-.3.22-.5.5-.5s.5.2.5.5zm0 1.98c0 .28-.22.5-.5.5s-.5-.22-.5-.5.22-.5.5-.5.5.22.5.5zm0 2c0 .27-.22.5-.5.5s-.5-.23-.5-.5c0-.28.22-.5.5-.5s.5.22.5.5zm0 2c0 .26-.22.5-.5.5s-.5-.24-.5-.5c0-.3.22-.5.5-.5s.5.2.5.5zm0 1.98c0 .28-.22.5-.5.5s-.5-.22-.5-.5c0-.27.22-.5.5-.5s.5.23.5.5zm0 2c0 .27-.22.5-.5.5s-.5-.23-.5-.5c0-.28.22-.5.5-.5s.5.22.5.5zm0 2c0 .27-.22.5-.5.5s-.5-.23-.5-.5c0-.3.22-.5.5-.5s.5.2.5.5zm0 1.98c0 .28-.22.5-.5.5s-.5-.22-.5-.5c0-.27.22-.5.5-.5s.5.23.5.5zm0 2c0 .27-.22.5-.5.5s-.5-.23-.5-.5c0-.28.22-.5.5-.5s.5.22.5.5zm0 2c0 .27-.22.5-.5.5s-.5-.23-.5-.5c0-.3.22-.5.5-.5s.5.2.5.5zm0 1.98c0 .28-.22.5-.5.5s-.5-.22-.5-.5c0-.27.22-.5.5-.5s.5.23.5.5zm0 2c0 .27-.22.5-.5.5s-.5-.23-.5-.5c0-.28.22-.5.5-.5s.5.22.5.5zm0 2c0 .27-.22.5-.5.5s-.5-.23-.5-.5c0-.3.22-.5.5-.5s.5.2.5.5zm0 1.98c0 .28-.22.5-.5.5s-.5-.22-.5-.5c0-.27.22-.5.5-.5s.5.23.5.5zm0 2c0 .27-.22.5-.5.5s-.5-.23-.5-.5c0-.28.22-.5.5-.5s.5.22.5.5zm0 2c0 .27-.22.5-.5.5s-.5-.23-.5-.5c0-.28.22-.5.5-.5s.5.22.5.5zm0 2c0 .26-.22.5-.5.5s-.5-.24-.5-.5c0-.3.22-.5.5-.5s.5.2.5.5zm0 1.98c0 .28-.22.5-.5.5s-.5-.22-.5-.5.22-.5.5-.5.5.22.5.5zm0 2c0 .27-.22.5-.5.5s-.5-.23-.5-.5c0-.28.22-.5.5-.5s.5.22.5.5zm0 2c0 .26-.22.5-.5.5s-.5-.24-.5-.5c0-.3.22-.5.5-.5s.5.2.5.5z" fill="#333"/><path d="M600 402v-.5" stroke="#333" fill="none"/><path d="M600.5 679.68l-.48-.06-.52.02v-.53h1z" stroke="#333" stroke-width=".05" fill="#333"/><path d="M900.47 392.16c0 .28-.23.5-.5.5-.28 0-.5-.22-.5-.5 0-.27.22-.5.5-.5.27 0 .5.23.5.5zm0 2c0 .27-.23.5-.5.5-.28 0-.5-.23-.5-.5 0-.28.22-.5.5-.5.27 0 .5.22.5.5zm0 2c0 .26-.23.5-.5.5-.28 0-.5-.24-.5-.5 0-.3.22-.5.5-.5.27 0 .5.2.5.5zm0 1.98c0 .28-.23.5-.5.5-.28 0-.5-.22-.5-.5s.22-.5.5-.5c.27 0 .5.22.5.5zm0 2c0 .27-.23.5-.5.5-.28 0-.5-.23-.5-.5 0-.28.22-.5.5-.5.27 0 .5.22.5.5zm0 2c0 .26-.23.5-.5.5-.28 0-.5-.24-.5-.5 0-.3.22-.5.5-.5.27 0 .5.2.5.5zm0 1.98c0 .27-.23.5-.5.5-.28 0-.5-.23-.5-.5 0-.28.22-.5.5-.5.27 0 .5.22.5.5zm0 2c0 .27-.23.5-.5.5-.28 0-.5-.23-.5-.5 0-.3.22-.5.5-.5.27 0 .5.2.5.5zm0 1.98c0 .28-.23.5-.5.5-.28 0-.5-.22-.5-.5 0-.27.22-.5.5-.5.27 0 .5.23.5.5zm0 2c0 .27-.23.5-.5.5-.28 0-.5-.23-.5-.5 0-.28.22-.5.5-.5.27 0 .5.22.5.5zm0 2c0 .27-.23.5-.5.5-.28 0-.5-.23-.5-.5 0-.3.22-.5.5-.5.27 0 .5.2.5.5zm0 1.98c0 .28-.23.5-.5.5-.28 0-.5-.22-.5-.5 0-.27.22-.5.5-.5.27 0 .5.23.5.5zm0 2c0 .27-.23.5-.5.5-.28 0-.5-.23-.5-.5 0-.28.22-.5.5-.5.27 0 .5.22.5.5zm0 2c0 .26-.23.5-.5.5-.28 0-.5-.24-.5-.5 0-.3.22-.5.5-.5.27 0 .5.2.5.5zm0 1.98c0 .28-.23.5-.5.5-.28 0-.5-.22-.5-.5s.22-.5.5-.5c.27 0 .5.22.5.5zm0 2c0 .27-.23.5-.5.5-.28 0-.5-.23-.5-.5 0-.28.22-.5.5-.5.27 0 .5.22.5.5zm0 2c0 .26-.23.5-.5.5-.28 0-.5-.24-.5-.5 0-.3.22-.5.5-.5.27 0 .5.2.5.5zm0 1.98c0 .27-.23.5-.5.5-.28 0-.5-.23-.5-.5 0-.28.22-.5.5-.5.27 0 .5.22.5.5zm0 2c0 .27-.23.5-.5.5-.28 0-.5-.23-.5-.5 0-.28.22-.5.5-.5.27 0 .5.22.5.5zm0 1.98c0 .28-.23.5-.5.5-.28 0-.5-.22-.5-.5 0-.27.22-.5.5-.5.27 0 .5.23.5.5zm0 2c0 .27-.23.5-.5.5-.28 0-.5-.23-.5-.5 0-.28.22-.5.5-.5.27 0 .5.22.5.5zm0 2c0 .27-.23.5-.5.5-.28 0-.5-.23-.5-.5 0-.3.22-.5.5-.5.27 0 .5.2.5.5zm0 1.98c0 .28-.23.5-.5.5-.28 0-.5-.22-.5-.5 0-.27.22-.5.5-.5.27 0 .5.23.5.5zm0 2c0 .27-.23.5-.5.5-.28 0-.5-.23-.5-.5 0-.28.22-.5.5-.5.27 0 .5.22.5.5zm0 2c0 .26-.23.5-.5.5-.28 0-.5-.24-.5-.5 0-.3.22-.5.5-.5.27 0 .5.2.5.5zm0 1.98c0 .28-.23.5-.5.5-.28 0-.5-.22-.5-.5s.22-.5.5-.5c.27 0 .5.22.5.5zm0 2c0 .27-.23.5-.5.5-.28 0-.5-.23-.5-.5 0-.28.22-.5.5-.5.27 0 .5.22.5.5zm0 2c0 .26-.23.5-.5.5-.28 0-.5-.24-.5-.5 0-.3.22-.5.5-.5.27 0 .5.2.5.5zm0 1.98c0 .28-.23.5-.5.5-.28 0-.5-.22-.5-.5s.22-.5.5-.5c.27 0 .5.22.5.5zm0 2c0 .27-.23.5-.5.5-.28 0-.5-.23-.5-.5 0-.28.22-.5.5-.5.27 0 .5.22.5.5zm0 1.98c0 .28-.23.5-.5.5-.28 0-.5-.22-.5-.5 0-.27.22-.5.5-.5.27 0 .5.23.5.5zm0 2c0 .27-.23.5-.5.5-.28 0-.5-.23-.5-.5 0-.28.22-.5.5-.5.27 0 .5.22.5.5zm0 2c0 .27-.23.5-.5.5-.28 0-.5-.23-.5-.5 0-.3.22-.5.5-.5.27 0 .5.2.5.5zm0 1.98c0 .28-.23.5-.5.5-.28 0-.5-.22-.5-.5 0-.27.22-.5.5-.5.27 0 .5.23.5.5zm0 2c0 .27-.23.5-.5.5-.28 0-.5-.23-.5-.5 0-.28.22-.5.5-.5.27 0 .5.22.5.5zm0 2c0 .26-.23.5-.5.5-.28 0-.5-.24-.5-.5 0-.3.22-.5.5-.5.27 0 .5.2.5.5zm0 1.98c0 .28-.23.5-.5.5-.28 0-.5-.22-.5-.5 0-.27.22-.5.5-.5.27 0 .5.23.5.5zm0 2c0 .27-.23.5-.5.5-.28 0-.5-.23-.5-.5 0-.28.22-.5.5-.5.27 0 .5.22.5.5zm0 2c0 .26-.23.5-.5.5-.28 0-.5-.24-.5-.5 0-.3.22-.5.5-.5.27 0 .5.2.5.5zm0 1.98c0 .28-.23.5-.5.5-.28 0-.5-.22-.5-.5s.22-.5.5-.5c.27 0 .5.22.5.5zm0 2c0 .27-.23.5-.5.5-.28 0-.5-.23-.5-.5 0-.28.22-.5.5-.5.27 0 .5.22.5.5zm0 2c0 .26-.23.5-.5.5-.28 0-.5-.24-.5-.5 0-.3.22-.5.5-.5.27 0 .5.2.5.5zm0 1.98c0 .27-.23.5-.5.5-.28 0-.5-.23-.5-.5 0-.28.22-.5.5-.5.27 0 .5.22.5.5zm0 2c0 .27-.23.5-.5.5-.28 0-.5-.23-.5-.5 0-.3.22-.5.5-.5.27 0 .5.2.5.5zm0 1.98c0 .28-.23.5-.5.5-.28 0-.5-.22-.5-.5 0-.27.22-.5.5-.5.27 0 .5.23.5.5zm0 2c0 .27-.23.5-.5.5-.28 0-.5-.23-.5-.5 0-.28.22-.5.5-.5.27 0 .5.22.5.5zm0 2c0 .26-.23.5-.5.5-.28 0-.5-.24-.5-.5 0-.3.22-.5.5-.5.27 0 .5.2.5.5zm0 1.98c0 .28-.23.5-.5.5-.28 0-.5-.22-.5-.5 0-.27.22-.5.5-.5.27 0 .5.23.5.5zm0 2c0 .27-.23.5-.5.5-.28 0-.5-.23-.5-.5 0-.28.22-.5.5-.5.27 0 .5.22.5.5zm0 2c0 .26-.23.5-.5.5-.28 0-.5-.24-.5-.5 0-.3.22-.5.5-.5.27 0 .5.2.5.5zm0 1.98c0 .28-.23.5-.5.5-.28 0-.5-.22-.5-.5s.22-.5.5-.5c.27 0 .5.22.5.5zm0 2c0 .27-.23.5-.5.5-.28 0-.5-.23-.5-.5 0-.28.22-.5.5-.5.27 0 .5.22.5.5zm0 2c0 .26-.23.5-.5.5-.28 0-.5-.24-.5-.5 0-.3.22-.5.5-.5.27 0 .5.2.5.5zm0 1.98c0 .27-.23.5-.5.5-.28 0-.5-.23-.5-.5 0-.28.22-.5.5-.5.27 0 .5.22.5.5zm0 2c0 .27-.23.5-.5.5-.28 0-.5-.23-.5-.5 0-.3.22-.5.5-.5.27 0 .5.2.5.5zm0 1.98c0 .28-.23.5-.5.5-.28 0-.5-.22-.5-.5 0-.27.22-.5.5-.5.27 0 .5.23.5.5zm0 2c0 .27-.23.5-.5.5-.28 0-.5-.23-.5-.5 0-.28.22-.5.5-.5.27 0 .5.22.5.5zm0 2c0 .27-.23.5-.5.5-.28 0-.5-.23-.5-.5 0-.3.22-.5.5-.5.27 0 .5.2.5.5zm0 1.98c0 .28-.23.5-.5.5-.28 0-.5-.22-.5-.5 0-.27.22-.5.5-.5.27 0 .5.23.5.5zm0 2c0 .27-.23.5-.5.5-.28 0-.5-.23-.5-.5 0-.28.22-.5.5-.5.27 0 .5.22.5.5zm0 2c0 .26-.23.5-.5.5-.28 0-.5-.24-.5-.5 0-.3.22-.5.5-.5.27 0 .5.2.5.5zm0 1.98c0 .28-.23.5-.5.5-.28 0-.5-.22-.5-.5s.22-.5.5-.5c.27 0 .5.22.5.5zm0 2c0 .27-.23.5-.5.5-.28 0-.5-.23-.5-.5 0-.28.22-.5.5-.5.27 0 .5.22.5.5zm0 2c0 .26-.23.5-.5.5-.28 0-.5-.24-.5-.5 0-.3.22-.5.5-.5.27 0 .5.2.5.5zm0 1.98c0 .27-.23.5-.5.5-.28 0-.5-.23-.5-.5 0-.28.22-.5.5-.5.27 0 .5.22.5.5zm0 2c0 .27-.23.5-.5.5-.28 0-.5-.23-.5-.5 0-.28.22-.5.5-.5.27 0 .5.22.5.5zm0 1.98c0 .28-.23.5-.5.5-.28 0-.5-.22-.5-.5 0-.27.22-.5.5-.5.27 0 .5.23.5.5zm0 2c0 .27-.23.5-.5.5-.28 0-.5-.23-.5-.5 0-.28.22-.5.5-.5.27 0 .5.22.5.5zm0 2c0 .27-.23.5-.5.5-.28 0-.5-.23-.5-.5 0-.3.22-.5.5-.5.27 0 .5.2.5.5zm0 1.98c0 .28-.23.5-.5.5-.28 0-.5-.22-.5-.5 0-.27.22-.5.5-.5.27 0 .5.23.5.5zm0 2c0 .27-.23.5-.5.5-.28 0-.5-.23-.5-.5 0-.28.22-.5.5-.5.27 0 .5.22.5.5zm0 2c0 .26-.23.5-.5.5-.28 0-.5-.24-.5-.5 0-.3.22-.5.5-.5.27 0 .5.2.5.5zm0 1.98c0 .28-.23.5-.5.5-.28 0-.5-.22-.5-.5s.22-.5.5-.5c.27 0 .5.22.5.5zm0 2c0 .27-.23.5-.5.5-.28 0-.5-.23-.5-.5 0-.28.22-.5.5-.5.27 0 .5.22.5.5zm0 2c0 .26-.23.5-.5.5-.28 0-.5-.24-.5-.5 0-.3.22-.5.5-.5.27 0 .5.2.5.5zm0 1.98c0 .28-.23.5-.5.5-.28 0-.5-.22-.5-.5s.22-.5.5-.5c.27 0 .5.22.5.5zm0 2c0 .27-.23.5-.5.5-.28 0-.5-.23-.5-.5 0-.28.22-.5.5-.5.27 0 .5.22.5.5zm0 2c0 .26-.23.5-.5.5-.28 0-.5-.24-.5-.5 0-.3.22-.5.5-.5.27 0 .5.2.5.5zm0 1.98c0 .28-.23.5-.5.5-.28 0-.5-.22-.5-.5s.22-.5.5-.5c.27 0 .5.22.5.5zm0 2c0 .27-.23.5-.5.5-.28 0-.5-.23-.5-.5 0-.28.22-.5.5-.5.27 0 .5.22.5.5zm0 1.98c0 .28-.23.5-.5.5-.28 0-.5-.22-.5-.5 0-.27.22-.5.5-.5.27 0 .5.23.5.5zm0 2c0 .27-.23.5-.5.5-.28 0-.5-.23-.5-.5 0-.28.22-.5.5-.5.27 0 .5.22.5.5zm0 2c0 .27-.23.5-.5.5-.28 0-.5-.23-.5-.5 0-.3.22-.5.5-.5.27 0 .5.2.5.5zm0 1.98c0 .28-.23.5-.5.5-.28 0-.5-.22-.5-.5 0-.27.22-.5.5-.5.27 0 .5.23.5.5zm0 2c0 .27-.23.5-.5.5-.28 0-.5-.23-.5-.5 0-.28.22-.5.5-.5.27 0 .5.22.5.5zm0 2c0 .26-.23.5-.5.5-.28 0-.5-.24-.5-.5 0-.3.22-.5.5-.5.27 0 .5.2.5.5zm0 1.98c0 .28-.23.5-.5.5-.28 0-.5-.22-.5-.5s.22-.5.5-.5c.27 0 .5.22.5.5zm0 2c0 .27-.23.5-.5.5-.28 0-.5-.23-.5-.5 0-.28.22-.5.5-.5.27 0 .5.22.5.5zm0 2c0 .26-.23.5-.5.5-.28 0-.5-.24-.5-.5 0-.3.22-.5.5-.5.27 0 .5.2.5.5zm0 1.98c0 .28-.23.5-.5.5-.28 0-.5-.22-.5-.5s.22-.5.5-.5c.27 0 .5.22.5.5zm0 2c0 .27-.23.5-.5.5-.28 0-.5-.23-.5-.5 0-.28.22-.5.5-.5.27 0 .5.22.5.5zm0 1.98c0 .28-.23.5-.5.5-.28 0-.5-.22-.5-.5 0-.27.22-.5.5-.5.27 0 .5.23.5.5zm0 2c0 .27-.23.5-.5.5-.28 0-.5-.23-.5-.5 0-.28.22-.5.5-.5.27 0 .5.22.5.5zm0 2c0 .27-.23.5-.5.5-.28 0-.5-.23-.5-.5 0-.3.22-.5.5-.5.27 0 .5.2.5.5zm0 1.98c0 .28-.23.5-.5.5-.28 0-.5-.22-.5-.5 0-.27.22-.5.5-.5.27 0 .5.23.5.5zm0 2c0 .27-.23.5-.5.5-.28 0-.5-.23-.5-.5 0-.28.22-.5.5-.5.27 0 .5.22.5.5zm0 2c0 .26-.23.5-.5.5-.28 0-.5-.24-.5-.5 0-.3.22-.5.5-.5.27 0 .5.2.5.5zm0 1.98c0 .28-.23.5-.5.5-.28 0-.5-.22-.5-.5 0-.27.22-.5.5-.5.27 0 .5.23.5.5zm0 2c0 .27-.23.5-.5.5-.28 0-.5-.23-.5-.5 0-.28.22-.5.5-.5.27 0 .5.22.5.5zm0 2c0 .26-.23.5-.5.5-.28 0-.5-.24-.5-.5 0-.3.22-.5.5-.5.27 0 .5.2.5.5zm0 1.98c0 .28-.23.5-.5.5-.28 0-.5-.22-.5-.5s.22-.5.5-.5c.27 0 .5.22.5.5zm0 2c0 .27-.23.5-.5.5-.28 0-.5-.23-.5-.5 0-.28.22-.5.5-.5.27 0 .5.22.5.5zm0 2c0 .26-.23.5-.5.5-.28 0-.5-.24-.5-.5 0-.3.22-.5.5-.5.27 0 .5.2.5.5zm0 1.98c0 .27-.23.5-.5.5-.28 0-.5-.23-.5-.5 0-.28.22-.5.5-.5.27 0 .5.22.5.5zm0 2c0 .27-.23.5-.5.5-.28 0-.5-.23-.5-.5 0-.3.22-.5.5-.5.27 0 .5.2.5.5zm0 1.98c0 .28-.23.5-.5.5-.28 0-.5-.22-.5-.5 0-.27.22-.5.5-.5.27 0 .5.23.5.5zm0 2c0 .27-.23.5-.5.5-.28 0-.5-.23-.5-.5 0-.28.22-.5.5-.5.27 0 .5.22.5.5zm0 2c0 .27-.23.5-.5.5-.28 0-.5-.23-.5-.5 0-.3.22-.5.5-.5.27 0 .5.2.5.5zm0 1.98c0 .28-.23.5-.5.5-.28 0-.5-.22-.5-.5 0-.27.22-.5.5-.5.27 0 .5.23.5.5zm0 2c0 .27-.23.5-.5.5-.28 0-.5-.23-.5-.5 0-.28.22-.5.5-.5.27 0 .5.22.5.5zm0 2c0 .26-.23.5-.5.5-.28 0-.5-.24-.5-.5 0-.3.22-.5.5-.5.27 0 .5.2.5.5zm0 1.98c0 .28-.23.5-.5.5-.28 0-.5-.22-.5-.5s.22-.5.5-.5c.27 0 .5.22.5.5zm0 2c0 .27-.23.5-.5.5-.28 0-.5-.23-.5-.5 0-.28.22-.5.5-.5.27 0 .5.22.5.5zm0 2c0 .26-.23.5-.5.5-.28 0-.5-.24-.5-.5 0-.3.22-.5.5-.5.27 0 .5.2.5.5zm0 1.98c0 .27-.23.5-.5.5-.28 0-.5-.23-.5-.5 0-.28.22-.5.5-.5.27 0 .5.22.5.5zm0 2c0 .27-.23.5-.5.5-.28 0-.5-.23-.5-.5 0-.28.22-.5.5-.5.27 0 .5.22.5.5zm0 1.98c0 .28-.23.5-.5.5-.28 0-.5-.22-.5-.5 0-.27.22-.5.5-.5.27 0 .5.23.5.5zm0 2c0 .27-.23.5-.5.5-.28 0-.5-.23-.5-.5 0-.28.22-.5.5-.5.27 0 .5.22.5.5zm0 2c0 .27-.23.5-.5.5-.28 0-.5-.23-.5-.5 0-.3.22-.5.5-.5.27 0 .5.2.5.5zm0 1.98c0 .28-.23.5-.5.5-.28 0-.5-.22-.5-.5 0-.27.22-.5.5-.5.27 0 .5.23.5.5zm0 2c0 .27-.23.5-.5.5-.28 0-.5-.23-.5-.5 0-.28.22-.5.5-.5.27 0 .5.22.5.5zm0 2c0 .26-.23.5-.5.5-.28 0-.5-.24-.5-.5 0-.3.22-.5.5-.5.27 0 .5.2.5.5zm0 1.98c0 .28-.23.5-.5.5-.28 0-.5-.22-.5-.5s.22-.5.5-.5c.27 0 .5.22.5.5zm0 2c0 .27-.23.5-.5.5-.28 0-.5-.23-.5-.5 0-.28.22-.5.5-.5.27 0 .5.22.5.5zm0 2c0 .26-.23.5-.5.5-.28 0-.5-.24-.5-.5 0-.3.22-.5.5-.5.27 0 .5.2.5.5zm0 1.98c0 .28-.23.5-.5.5-.28 0-.5-.22-.5-.5s.22-.5.5-.5c.27 0 .5.22.5.5zm0 2c0 .27-.23.5-.5.5-.28 0-.5-.23-.5-.5 0-.28.22-.5.5-.5.27 0 .5.22.5.5zm0 1.98c0 .28-.23.5-.5.5-.28 0-.5-.22-.5-.5 0-.27.22-.5.5-.5.27 0 .5.23.5.5zm0 2c0 .27-.23.5-.5.5-.28 0-.5-.23-.5-.5 0-.28.22-.5.5-.5.27 0 .5.22.5.5zm0 2c0 .27-.23.5-.5.5-.28 0-.5-.23-.5-.5 0-.3.22-.5.5-.5.27 0 .5.2.5.5zm0 1.98c0 .28-.23.5-.5.5-.28 0-.5-.22-.5-.5 0-.27.22-.5.5-.5.27 0 .5.23.5.5zm0 2c0 .27-.23.5-.5.5-.28 0-.5-.23-.5-.5 0-.28.22-.5.5-.5.27 0 .5.22.5.5zm0 2c0 .26-.23.5-.5.5-.28 0-.5-.24-.5-.5 0-.3.22-.5.5-.5.27 0 .5.2.5.5zm0 1.98c0 .28-.23.5-.5.5-.28 0-.5-.22-.5-.5s.22-.5.5-.5c.27 0 .5.22.5.5zm0 2c0 .27-.23.5-.5.5-.28 0-.5-.23-.5-.5 0-.28.22-.5.5-.5.27 0 .5.22.5.5zm0 2c0 .26-.23.5-.5.5-.28 0-.5-.24-.5-.5 0-.3.22-.5.5-.5.27 0 .5.2.5.5zm0 1.98c0 .28-.23.5-.5.5-.28 0-.5-.22-.5-.5s.22-.5.5-.5c.27 0 .5.22.5.5zm0 2c0 .27-.23.5-.5.5-.28 0-.5-.23-.5-.5 0-.28.22-.5.5-.5.27 0 .5.22.5.5zm0 1.98c0 .28-.23.5-.5.5-.28 0-.5-.22-.5-.5 0-.27.22-.5.5-.5.27 0 .5.23.5.5zm0 2c0 .27-.23.5-.5.5-.28 0-.5-.23-.5-.5 0-.28.22-.5.5-.5.27 0 .5.22.5.5zm0 2c0 .27-.23.5-.5.5-.28 0-.5-.23-.5-.5 0-.3.22-.5.5-.5.27 0 .5.2.5.5zm0 1.98c0 .28-.23.5-.5.5-.28 0-.5-.22-.5-.5 0-.27.22-.5.5-.5.27 0 .5.23.5.5zm0 2c0 .27-.23.5-.5.5-.28 0-.5-.23-.5-.5 0-.28.22-.5.5-.5.27 0 .5.22.5.5zm0 2c0 .26-.23.5-.5.5-.28 0-.5-.24-.5-.5 0-.3.22-.5.5-.5.27 0 .5.2.5.5zm0 1.98c0 .28-.23.5-.5.5-.28 0-.5-.22-.5-.5 0-.27.22-.5.5-.5.27 0 .5.23.5.5z" fill="#333"/><path d="M899.97 392.17v-.5" stroke="#333" fill="none"/><path d="M900.47 679.68l-.45-.06-.55.02v-.53h1z" stroke="#333" stroke-width=".05" fill="#333"/><path d="M320 726.12c0-3.3 2.7-6 6-6h248c3.3 0 6 2.7 6 6v51.33c0 3.32-2.7 6-6 6H326c-3.3 0-6-2.68-6-6z" stroke="#000" stroke-opacity="0" fill="#fff" fill-opacity="0"/><use xlink:href="#a" transform="matrix(1,0,0,1,325,725.1206063893287) translate(8.740740740740733 31.27777777777778)"/><use xlink:href="#b" transform="matrix(1,0,0,1,325,725.1206063893287) translate(85.16049382716048 31.27777777777778)"/><use xlink:href="#c" transform="matrix(1,0,0,1,325,725.1206063893287) translate(137.3827160493827 31.27777777777778)"/><path d="M335.1 736.07l-20.74-20.8M335.1 736.06l.37.36" stroke="#333" fill="none"/><path d="M314.73 714.94l-.7.7-.4-.4.76-.64z" stroke="#333" stroke-width=".05" fill="#333"/><path d="M320 626c0-3.3 2.7-6 6-6h248c3.3 0 6 2.7 6 6v48.12c0 3.3-2.7 6-6 6H326c-3.3 0-6-2.7-6-6z" stroke="#000" stroke-opacity="0" fill="#fff" fill-opacity="0"/><use xlink:href="#a" transform="matrix(1,0,0,1,325,625) translate(24.90740740740742 30.52777777777778)"/><use xlink:href="#b" transform="matrix(1,0,0,1,325,625) translate(101.32716049382717 30.52777777777778)"/><use xlink:href="#d" transform="matrix(1,0,0,1,325,625) translate(153.5493827160494 30.52777777777778)"/><path d="M564.7 664.15l21.07 20.7M564.7 664.15l-.37-.35" stroke="#333" fill="none"/><path d="M586.5 684.88l-.76.65-.33-.33.7-.7z" stroke="#333" stroke-width=".05" fill="#333"/><path d="M620 726.12c0-3.3 2.7-6 6-6h248c3.3 0 6 2.7 6 6V794c0 3.3-2.7 6-6 6H626c-3.3 0-6-2.7-6-6z" stroke="#000" stroke-opacity="0" fill="#fff" fill-opacity="0"/><use xlink:href="#a" transform="matrix(1,0,0,1,625,725.1206063893287) translate(7.067901234567898 26.52777777777778)"/><use xlink:href="#b" transform="matrix(1,0,0,1,625,725.1206063893287) translate(83.48765432098764 26.52777777777778)"/><use xlink:href="#e" transform="matrix(1,0,0,1,625,725.1206063893287) translate(135.70987654320987 26.52777777777778)"/><use xlink:href="#f" transform="matrix(1,0,0,1,625,725.1206063893287) translate(83.14814814814815 53.19444444444445)"/><path d="M867.9 734.8l18.04-19.12M867.9 734.8l-.36.38" stroke="#333" fill="none"/><path d="M886.03 715.13l.67.48-.4.43-.73-.7.34-.34z" stroke="#333" stroke-width=".05" fill="#333"/><path d="M600 300.5v79M600 300.5v-.5M600 379.5v.5M900 300.5v79M900 300.5v-.5M900 379.5v.5M600.5 340h299M600.5 340h-.5M899.5 340h.5M300 200.5v79M300 200.5v-.5M300 279.5v.5M900 200.5v79M900 200.5v-.5M900 279.5v.5M300.5 240h599M300.5 240h-.5M899.5 240h.5" stroke="#333" fill="none"/><path d="M620 286c0-3.3 2.7-6 6-6h248c3.3 0 6 2.7 6 6v28c0 3.3-2.7 6-6 6H626c-3.3 0-6-2.7-6-6z" stroke="#000" stroke-opacity="0" stroke-width="3" fill="#fff" fill-opacity="0"/><g><use xlink:href="#g" transform="matrix(1,0,0,1,625.0000000000003,285) translate(11.944444444444443 19.71527777777778)"/><use xlink:href="#h" transform="matrix(1,0,0,1,625.0000000000003,285) translate(88.36419753086419 19.71527777777778)"/><use xlink:href="#i" transform="matrix(1,0,0,1,625.0000000000003,285) translate(140.58641975308643 19.71527777777778)"/></g><path d="M460 166c0-3.3 2.7-6 6-6h268c3.3 0 6 2.7 6 6v28c0 3.3-2.7 6-6 6H466c-3.3 0-6-2.7-6-6z" stroke="#000" stroke-opacity="0" stroke-width="3" fill="#fff" fill-opacity="0"/><g><use xlink:href="#g" transform="matrix(1,0,0,1,465,165) translate(48.05555555555556 19.71527777777778)"/><use xlink:href="#j" transform="matrix(1,0,0,1,465,165) translate(124.4753086419753 19.71527777777778)"/></g><defs><path fill="#333" d="M187 0l-14-72H61L19 0h-37l149-248h38L221 0h-34zm-19-99l-22-123L76-99h92" id="k"/><path fill="#333" d="M44-68c0 29 11 47 38 47 30 0 42-19 51-41l28 9C148-21 126 4 82 4 31 4 10-29 12-85c3-77 74-140 146-93 12 8 15 23 18 40l-31 5c-1-22-13-36-36-36-52 0-65 49-65 101" id="l"/><path fill="#333" d="M51-54c-9 22 5 41 31 30L79-1C43 14 10-4 19-52l22-115H19l5-23h22l19-43h21l-9 43h35l-4 23H73" id="m"/><path fill="#333" d="M50-231l6-30h32l-6 30H50zM6 0l37-190h31L37 0H6" id="n"/><path fill="#333" d="M89 0H52L20-190h33L74-25l89-165h34" id="o"/><path fill="#333" d="M198-190L69 30C53 58 25 83-20 72c4-11-1-27 19-22 33-1 43-29 59-52L20-190h32L79-34l84-156h35" id="p"/><g id="a"><use transform="matrix(0.06172839506172839,0,0,0.06172839506172839,0,0)" xlink:href="#k"/><use transform="matrix(0.06172839506172839,0,0,0.06172839506172839,14.814814814814813,0)" xlink:href="#l"/><use transform="matrix(0.06172839506172839,0,0,0.06172839506172839,25.925925925925924,0)" xlink:href="#m"/><use transform="matrix(0.06172839506172839,0,0,0.06172839506172839,32.098765432098766,0)" xlink:href="#n"/><use transform="matrix(0.06172839506172839,0,0,0.06172839506172839,36.97530864197531,0)" xlink:href="#o"/><use transform="matrix(0.06172839506172839,0,0,0.06172839506172839,48.08641975308642,0)" xlink:href="#n"/><use transform="matrix(0.06172839506172839,0,0,0.06172839506172839,52.96296296296296,0)" xlink:href="#m"/><use transform="matrix(0.06172839506172839,0,0,0.06172839506172839,59.135802469135804,0)" xlink:href="#p"/></g><path fill="#333" d="M151-220L108 0H75l42-220H32l6-28h203l-5 28h-85" id="q"/><path fill="#333" d="M165-48c-4 18 1 34 23 27l-3 20c-29 8-62 0-52-35h-2C116-14 99 4 63 4 30 4 8-16 8-49c0-68 71-67 138-67 10-26 0-56-31-54-26 1-42 9-47 31l-32-5c8-67 160-71 144 15-5 28-9 54-15 81zM42-50c3 52 80 24 89-6 7-12 7-24 11-38-47 1-103-4-100 44" id="r"/><path fill="#333" d="M55-144c13 50 104 24 104 88C159 21 15 23 1-39l26-10c6 40 102 42 102-4-13-50-104-23-104-87 0-71 143-71 148-8l-29 4c-5-35-85-37-89 0" id="s"/><path fill="#333" d="M127 0L80-88 50-66 37 0H6l51-261h31L57-100l99-90h39l-93 82L161 0h-34" id="t"/><g id="b"><use transform="matrix(0.06172839506172839,0,0,0.06172839506172839,0,0)" xlink:href="#q"/><use transform="matrix(0.06172839506172839,0,0,0.06172839506172839,11.481481481481481,0)" xlink:href="#r"/><use transform="matrix(0.06172839506172839,0,0,0.06172839506172839,23.827160493827158,0)" xlink:href="#s"/><use transform="matrix(0.06172839506172839,0,0,0.06172839506172839,34.938271604938265,0)" xlink:href="#t"/></g><path fill="#333" d="M194-120c59 52 2 134-86 124-53-6-90-18-98-63l31-7c8 30 29 43 70 43 46 0 84-17 71-62-32-43-135-20-137-98-3-89 178-90 191-16l-30 9c-8-48-127-53-127 5 0 53 81 35 115 65" id="u"/><path fill="#333" d="M67-158c15-20 31-36 64-36 94 0 33 127 27 194h-32l25-140c3-38-53-32-70-12C52-117 51-51 37 0H6l51-261h31" id="v"/><path fill="#333" d="M111-194c62-3 86 47 72 106H45c-7 38 6 69 45 68 27-1 43-14 53-32l24 11C152-15 129 4 87 4 38 3 12-23 12-71c0-70 32-119 99-123zm44 81c14-66-71-72-95-28-4 8-8 17-11 28h106" id="w"/><path fill="#333" d="M133-28C103 26-5 8 13-77c13-62 24-115 90-117 29-1 46 15 56 35l19-102h32L160 0h-30zM45-64c-2 27 10 43 35 43 54-1 69-50 69-103 0-29-15-46-42-46-53-1-58 58-62 106" id="x"/><path fill="#333" d="M67 3c-93-2-31-127-26-193h32L48-50c-3 39 53 32 70 12 30-34 30-101 43-152h32L157 0h-30c1-10 6-24 4-33-14 20-29 37-64 36" id="y"/><path fill="#333" d="M6 0l50-261h32L37 0H6" id="z"/><g id="c"><use transform="matrix(0.06172839506172839,0,0,0.06172839506172839,0,0)" xlink:href="#u"/><use transform="matrix(0.06172839506172839,0,0,0.06172839506172839,14.814814814814813,0)" xlink:href="#l"/><use transform="matrix(0.06172839506172839,0,0,0.06172839506172839,25.925925925925924,0)" xlink:href="#v"/><use transform="matrix(0.06172839506172839,0,0,0.06172839506172839,38.2716049382716,0)" xlink:href="#w"/><use transform="matrix(0.06172839506172839,0,0,0.06172839506172839,50.61728395061728,0)" xlink:href="#x"/><use transform="matrix(0.06172839506172839,0,0,0.06172839506172839,62.962962962962955,0)" xlink:href="#y"/><use transform="matrix(0.06172839506172839,0,0,0.06172839506172839,75.30864197530863,0)" xlink:href="#z"/><use transform="matrix(0.06172839506172839,0,0,0.06172839506172839,80.18518518518518,0)" xlink:href="#w"/><use transform="matrix(0.06172839506172839,0,0,0.06172839506172839,92.53086419753086,0)" xlink:href="#x"/></g><path fill="#333" d="M66-151c12-25 30-51 66-40l-6 26C45-176 58-65 38 0H6l36-190h30" id="A"/><g id="d"><use transform="matrix(0.06172839506172839,0,0,0.06172839506172839,0,0)" xlink:href="#u"/><use transform="matrix(0.06172839506172839,0,0,0.06172839506172839,14.814814814814813,0)" xlink:href="#m"/><use transform="matrix(0.06172839506172839,0,0,0.06172839506172839,20.98765432098765,0)" xlink:href="#r"/><use transform="matrix(0.06172839506172839,0,0,0.06172839506172839,33.33333333333333,0)" xlink:href="#A"/><use transform="matrix(0.06172839506172839,0,0,0.06172839506172839,40.679012345679006,0)" xlink:href="#m"/><use transform="matrix(0.06172839506172839,0,0,0.06172839506172839,46.85185185185185,0)" xlink:href="#w"/><use transform="matrix(0.06172839506172839,0,0,0.06172839506172839,59.197530864197525,0)" xlink:href="#x"/></g><path fill="#333" d="M125-24c46 0 70-25 89-51l25 16C214-24 183 4 123 4 8 4-5-146 60-208c32-50 158-61 191-5 5 7 9 14 11 22l-32 10c-9-28-33-43-69-43-74 0-108 51-108 125 0 46 24 75 72 75" id="B"/><path fill="#333" d="M30-147c31-64 166-65 159 27C183-49 158 1 86 4 9 8 1-88 30-147zM88-20c53 0 68-48 68-100 0-31-11-51-44-50-52 1-68 46-68 97 0 32 13 53 44 53" id="C"/><path fill="#333" d="M248-111c6-24 9-61-24-58-72 9-57 108-77 169h-31l26-142c3-37-50-30-64-10C52-115 50-51 37 0H6l36-190h30c-1 10-6 24-4 32 13-43 101-52 105 5 13-22 29-41 61-41 90 0 28 129 23 194h-31" id="D"/><path fill="#333" d="M67-162c32-53 139-36 121 50C175-51 163 2 97 4 68 4 52-11 42-31 38 6 28 39 22 75H-9l50-265h29c-1 10 0 20-3 28zm89 36c0-26-10-43-35-43-54 0-67 50-69 103-1 29 14 45 42 46 53 0 62-58 62-106" id="E"/><g id="e"><use transform="matrix(0.06172839506172839,0,0,0.06172839506172839,0,0)" xlink:href="#B"/><use transform="matrix(0.06172839506172839,0,0,0.06172839506172839,15.987654320987653,0)" xlink:href="#C"/><use transform="matrix(0.06172839506172839,0,0,0.06172839506172839,28.333333333333332,0)" xlink:href="#D"/><use transform="matrix(0.06172839506172839,0,0,0.06172839506172839,46.79012345679012,0)" xlink:href="#E"/><use transform="matrix(0.06172839506172839,0,0,0.06172839506172839,59.1358024691358,0)" xlink:href="#z"/><use transform="matrix(0.06172839506172839,0,0,0.06172839506172839,64.01234567901234,0)" xlink:href="#w"/><use transform="matrix(0.06172839506172839,0,0,0.06172839506172839,76.35802469135803,0)" xlink:href="#m"/><use transform="matrix(0.06172839506172839,0,0,0.06172839506172839,82.53086419753086,0)" xlink:href="#w"/><use transform="matrix(0.06172839506172839,0,0,0.06172839506172839,94.87654320987654,0)" xlink:href="#x"/></g><path fill="#333" d="M17-49c1-102 45-165 103-212h30C92-210 49-145 49-46 49 4 63 43 85 75H54C30 43 18 2 17-49" id="F"/><path fill="#333" d="M98-137C97-35 54 29-4 75h-31C23 23 67-41 67-140c0-50-15-89-37-121h31c24 32 36 73 37 124" id="G"/><g id="f"><use transform="matrix(0.06172839506172839,0,0,0.06172839506172839,0,0)" xlink:href="#F"/><use transform="matrix(0.06172839506172839,0,0,0.06172839506172839,7.345679012345679,0)" xlink:href="#B"/><use transform="matrix(0.06172839506172839,0,0,0.06172839506172839,23.333333333333332,0)" xlink:href="#z"/><use transform="matrix(0.06172839506172839,0,0,0.06172839506172839,28.209876543209873,0)" xlink:href="#C"/><use transform="matrix(0.06172839506172839,0,0,0.06172839506172839,40.55555555555555,0)" xlink:href="#s"/><use transform="matrix(0.06172839506172839,0,0,0.06172839506172839,51.66666666666666,0)" xlink:href="#w"/><use transform="matrix(0.06172839506172839,0,0,0.06172839506172839,64.01234567901234,0)" xlink:href="#x"/><use transform="matrix(0.06172839506172839,0,0,0.06172839506172839,76.35802469135803,0)" xlink:href="#G"/></g><g id="g"><use transform="matrix(0.06172839506172839,0,0,0.06172839506172839,0,0)" xlink:href="#k"/><use transform="matrix(0.06172839506172839,0,0,0.06172839506172839,14.814814814814813,0)" xlink:href="#l"/><use transform="matrix(0.06172839506172839,0,0,0.06172839506172839,25.925925925925924,0)" xlink:href="#m"/><use transform="matrix(0.06172839506172839,0,0,0.06172839506172839,32.098765432098766,0)" xlink:href="#n"/><use transform="matrix(0.06172839506172839,0,0,0.06172839506172839,36.97530864197531,0)" xlink:href="#o"/><use transform="matrix(0.06172839506172839,0,0,0.06172839506172839,48.08641975308642,0)" xlink:href="#n"/><use transform="matrix(0.06172839506172839,0,0,0.06172839506172839,52.96296296296296,0)" xlink:href="#m"/><use transform="matrix(0.06172839506172839,0,0,0.06172839506172839,59.135802469135804,0)" xlink:href="#p"/></g><g id="h"><use transform="matrix(0.06172839506172839,0,0,0.06172839506172839,0,0)" xlink:href="#q"/><use transform="matrix(0.06172839506172839,0,0,0.06172839506172839,11.481481481481481,0)" xlink:href="#r"/><use transform="matrix(0.06172839506172839,0,0,0.06172839506172839,23.827160493827158,0)" xlink:href="#s"/><use transform="matrix(0.06172839506172839,0,0,0.06172839506172839,34.938271604938265,0)" xlink:href="#t"/></g><path fill="#333" d="M11 0l48-248h184l-5 28H87l-15 79h140l-5 27H67L50-27h158l-5 27H11" id="H"/><path fill="#333" d="M124 0L87-78 21 0h-35l86-98-46-92h33l34 74 61-74h37l-83 92 50 98h-34" id="I"/><path fill="#333" d="M67-158c22-48 132-52 116 29L158 0h-32l25-140c3-38-53-32-70-12C52-117 51-52 38 0H6l36-190h30" id="J"/><g id="i"><use transform="matrix(0.06172839506172839,0,0,0.06172839506172839,0,0)" xlink:href="#H"/><use transform="matrix(0.06172839506172839,0,0,0.06172839506172839,14.814814814814813,0)" xlink:href="#I"/><use transform="matrix(0.06172839506172839,0,0,0.06172839506172839,25.925925925925924,0)" xlink:href="#w"/><use transform="matrix(0.06172839506172839,0,0,0.06172839506172839,38.2716049382716,0)" xlink:href="#l"/><use transform="matrix(0.06172839506172839,0,0,0.06172839506172839,49.38271604938271,0)" xlink:href="#y"/><use transform="matrix(0.06172839506172839,0,0,0.06172839506172839,61.728395061728385,0)" xlink:href="#m"/><use transform="matrix(0.06172839506172839,0,0,0.06172839506172839,67.90123456790123,0)" xlink:href="#n"/><use transform="matrix(0.06172839506172839,0,0,0.06172839506172839,72.77777777777777,0)" xlink:href="#C"/><use transform="matrix(0.06172839506172839,0,0,0.06172839506172839,85.12345679012346,0)" xlink:href="#J"/></g><g id="j"><use transform="matrix(0.06172839506172839,0,0,0.06172839506172839,0,0)" xlink:href="#H"/><use transform="matrix(0.06172839506172839,0,0,0.06172839506172839,14.814814814814813,0)" xlink:href="#I"/><use transform="matrix(0.06172839506172839,0,0,0.06172839506172839,25.925925925925924,0)" xlink:href="#w"/><use transform="matrix(0.06172839506172839,0,0,0.06172839506172839,38.2716049382716,0)" xlink:href="#l"/><use transform="matrix(0.06172839506172839,0,0,0.06172839506172839,49.38271604938271,0)" xlink:href="#y"/><use transform="matrix(0.06172839506172839,0,0,0.06172839506172839,61.728395061728385,0)" xlink:href="#m"/><use transform="matrix(0.06172839506172839,0,0,0.06172839506172839,67.90123456790123,0)" xlink:href="#n"/><use transform="matrix(0.06172839506172839,0,0,0.06172839506172839,72.77777777777777,0)" xlink:href="#C"/><use transform="matrix(0.06172839506172839,0,0,0.06172839506172839,85.12345679012346,0)" xlink:href="#J"/></g></defs></g></svg>