<svg xmlns="http://www.w3.org/2000/svg" xmlns:xlink="http://www.w3.org/1999/xlink" xmlns:lucid="lucid" width="1100" height="922.5"><g transform="translate(-120 -57.5)" lucid:page-tab-id="0_0"><path d="M0 0h1760v1360H0z" fill="#fff"/><path d="M140 186a6 6 0 0 1 6-6h348a6 6 0 0 1 6 6v248a6 6 0 0 1-6 6H146a6 6 0 0 1-6-6z" stroke="#3a414a" fill="#fff"/><use xlink:href="#a" transform="matrix(1,0,0,1,145,185) translate(39.987654320987815 130.0069444444444)"/><use xlink:href="#b" transform="matrix(1,0,0,1,145,185) translate(162.25925925925927 130.0069444444444)"/><path d="M500.96 310h322.2" stroke="#3a414a" fill="none"/><path d="M500.98 310.5h-.52v-1h.52z" stroke="#3a414a" stroke-width=".05" fill="#3a414a"/><path d="M837.92 310l-14.27 4.64v-9.28z" stroke="#3a414a" fill="#3a414a"/><path d="M840 186a6 6 0 0 1 6-6h348a6 6 0 0 1 6 6v248a6 6 0 0 1-6 6H846a6 6 0 0 1-6-6z" stroke="#3a414a" fill="#fff"/><use xlink:href="#c" transform="matrix(1,0,0,1,845,185) translate(35.888888888889 130.00694444444443)"/><use xlink:href="#d" transform="matrix(1,0,0,1,845,185) translate(158.1604938271605 130.00694444444443)"/><path d="M140 706a6 6 0 0 1 6-6h348a6 6 0 0 1 6 6v248a6 6 0 0 1-6 6H146a6 6 0 0 1-6-6z" stroke="#3a414a" fill="#fff"/><use xlink:href="#e" transform="matrix(1,0,0,1,145,705) translate(45.814814814814895 114.38194444444443)"/><use xlink:href="#f" transform="matrix(1,0,0,1,145,705) translate(168.08641975308643 114.38194444444443)"/><use xlink:href="#g" transform="matrix(1,0,0,1,145,705) translate(101.1234567901235 157.04861111111106)"/><path d="M320 699.04v-242.2" stroke="#3a414a" fill="none"/><path d="M320.5 699.54h-1v-.52h1z" stroke="#3a414a" stroke-width=".05" fill="#3a414a"/><path d="M320 442.08l4.64 14.27h-9.28z" stroke="#3a414a" fill="#3a414a"/><path d="M840 706a6 6 0 0 1 6-6h348a6 6 0 0 1 6 6v248a6 6 0 0 1-6 6H846a6 6 0 0 1-6-6z" stroke="#3a414a" fill="#fff"/><use xlink:href="#e" transform="matrix(1,0,0,1,845,705) translate(45.814814814814895 114.38194444444443)"/><use xlink:href="#f" transform="matrix(1,0,0,1,845,705) translate(168.08641975308643 114.38194444444443)"/><use xlink:href="#h" transform="matrix(1,0,0,1,845,705) translate(97.02469135802474 157.04861111111106)"/><path d="M500.96 830h322.2" stroke="#3a414a" fill="none"/><path d="M500.98 830.5h-.52v-1h.52z" stroke="#3a414a" stroke-width=".05" fill="#3a414a"/><path d="M837.92 830l-14.27 4.64v-9.28z" stroke="#3a414a" fill="#3a414a"/><path d="M1020 699.04v-242.2" stroke="#3a414a" fill="none"/><path d="M1020.5 699.54h-1v-.52h1z" stroke="#3a414a" stroke-width=".05" fill="#3a414a"/><path d="M1020 442.08l4.64 14.27h-9.28z" stroke="#3a414a" fill="#3a414a"/><path d="M190 83.5a6 6 0 0 1 6-6h248a6 6 0 0 1 6 6v53a6 6 0 0 1-6 6H196a6 6 0 0 1-6-6z" stroke="#000" stroke-opacity="0" fill="#fff" fill-opacity="0"/><use xlink:href="#i" transform="matrix(1,0,0,1,195,82.5) translate(20.601851851851904 33.54166666666666)"/><path d="M900 86a6 6 0 0 1 6-6h228a6 6 0 0 1 6 6v48a6 6 0 0 1-6 6H906a6 6 0 0 1-6-6z" stroke="#000" stroke-opacity="0" fill="#fff" fill-opacity="0"/><g><use xlink:href="#j" transform="matrix(1,0,0,1,905,85) translate(31.24691358024694 31.569444444444436)"/></g><path d="M550 226a6 6 0 0 1 6-6h228a6 6 0 0 1 6 6v62a6 6 0 0 1-6 6H556a6 6 0 0 1-6-6z" stroke="#000" stroke-opacity="0" fill="#fff" fill-opacity="0"/><g><use xlink:href="#k" transform="matrix(1,0,0,1,555,225) translate(13.629629629629648 21.333333333333332)"/><use xlink:href="#l" transform="matrix(1,0,0,1,555,225) translate(132.07407407407408 21.333333333333332)"/><use xlink:href="#m" transform="matrix(1,0,0,1,555,225) translate(53.62962962962964 53.33333333333333)"/></g><path d="M550 766a6 6 0 0 1 6-6h228a6 6 0 0 1 6 6v48a6 6 0 0 1-6 6H556a6 6 0 0 1-6-6z" stroke="#000" stroke-opacity="0" fill="#fff" fill-opacity="0"/><g><use xlink:href="#n" transform="matrix(1,0,0,1,555,765) translate(41.7777777777778 30.708333333333332)"/><use xlink:href="#o" transform="matrix(1,0,0,1,555,765) translate(133.48148148148147 30.708333333333332)"/></g><defs><path fill="#3a414a" d="M205 0l-28-72H64L36 0H1l101-248h38L239 0h-34zm-38-99l-47-123c-12 45-31 82-46 123h93" id="p"/><path fill="#3a414a" d="M96-169c-40 0-48 33-48 73s9 75 48 75c24 0 41-14 43-38l32 2c-6 37-31 61-74 61-59 0-76-41-82-99-10-93 101-131 147-64 4 7 5 14 7 22l-32 3c-4-21-16-35-41-35" id="q"/><path fill="#3a414a" d="M59-47c-2 24 18 29 38 22v24C64 9 27 4 27-40v-127H5v-23h24l9-43h21v43h35v23H59v120" id="r"/><path fill="#3a414a" d="M24-231v-30h32v30H24zM24 0v-190h32V0H24" id="s"/><path fill="#3a414a" d="M108 0H70L1-190h34L89-25l56-165h34" id="t"/><path fill="#3a414a" d="M179-190L93 31C79 59 56 82 12 73V49c39 6 53-20 64-50L1-190h34L92-34l54-156h33" id="u"/><g id="a"><use transform="matrix(0.09876543209876532,0,0,0.09876543209876532,0,0)" xlink:href="#p"/><use transform="matrix(0.09876543209876532,0,0,0.09876543209876532,23.703703703703674,0)" xlink:href="#q"/><use transform="matrix(0.09876543209876532,0,0,0.09876543209876532,41.48148148148143,0)" xlink:href="#r"/><use transform="matrix(0.09876543209876532,0,0,0.09876543209876532,51.35802469135796,0)" xlink:href="#s"/><use transform="matrix(0.09876543209876532,0,0,0.09876543209876532,59.16049382716042,0)" xlink:href="#t"/><use transform="matrix(0.09876543209876532,0,0,0.09876543209876532,76.93827160493818,0)" xlink:href="#s"/><use transform="matrix(0.09876543209876532,0,0,0.09876543209876532,84.74074074074063,0)" xlink:href="#r"/><use transform="matrix(0.09876543209876532,0,0,0.09876543209876532,94.61728395061716,0)" xlink:href="#u"/></g><path fill="#3a414a" d="M30-248c118-7 216 8 213 122C240-48 200 0 122 0H30v-248zM63-27c89 8 146-16 146-99s-60-101-146-95v194" id="v"/><path fill="#3a414a" d="M100-194c63 0 86 42 84 106H49c0 40 14 67 53 68 26 1 43-12 49-29l28 8c-11 28-37 45-77 45C44 4 14-33 15-96c1-61 26-98 85-98zm52 81c6-60-76-77-97-28-3 7-6 17-6 28h103" id="w"/><path fill="#3a414a" d="M101-234c-31-9-42 10-38 44h38v23H63V0H32v-167H5v-23h27c-7-52 17-82 69-68v24" id="x"/><path fill="#3a414a" d="M117-194c89-4 53 116 60 194h-32v-121c0-31-8-49-39-48C34-167 62-67 57 0H25l-1-190h30c1 10-1 24 2 32 11-22 29-35 61-36" id="y"/><path fill="#3a414a" d="M100-194c62-1 85 37 85 99 1 63-27 99-86 99S16-35 15-95c0-66 28-99 85-99zM99-20c44 1 53-31 53-75 0-43-8-75-51-75s-53 32-53 75 10 74 51 75" id="z"/><g id="b"><use transform="matrix(0.09876543209876532,0,0,0.09876543209876532,0,0)" xlink:href="#v"/><use transform="matrix(0.09876543209876532,0,0,0.09876543209876532,25.58024691358022,0)" xlink:href="#w"/><use transform="matrix(0.09876543209876532,0,0,0.09876543209876532,45.333333333333286,0)" xlink:href="#x"/><use transform="matrix(0.09876543209876532,0,0,0.09876543209876532,55.20987654320981,0)" xlink:href="#s"/><use transform="matrix(0.09876543209876532,0,0,0.09876543209876532,63.012345679012284,0)" xlink:href="#y"/><use transform="matrix(0.09876543209876532,0,0,0.09876543209876532,82.76543209876534,0)" xlink:href="#s"/><use transform="matrix(0.09876543209876532,0,0,0.09876543209876532,90.5679012345678,0)" xlink:href="#r"/><use transform="matrix(0.09876543209876532,0,0,0.09876543209876532,100.44444444444433,0)" xlink:href="#s"/><use transform="matrix(0.09876543209876532,0,0,0.09876543209876532,108.24691358024678,0)" xlink:href="#z"/><use transform="matrix(0.09876543209876532,0,0,0.09876543209876532,127.99999999999984,0)" xlink:href="#y"/></g><g id="c"><use transform="matrix(0.09876543209876536,0,0,0.09876543209876536,0,0)" xlink:href="#p"/><use transform="matrix(0.09876543209876536,0,0,0.09876543209876536,23.703703703703685,0)" xlink:href="#q"/><use transform="matrix(0.09876543209876536,0,0,0.09876543209876536,41.48148148148145,0)" xlink:href="#r"/><use transform="matrix(0.09876543209876536,0,0,0.09876543209876536,51.35802469135798,0)" xlink:href="#s"/><use transform="matrix(0.09876543209876536,0,0,0.09876543209876536,59.16049382716045,0)" xlink:href="#t"/><use transform="matrix(0.09876543209876536,0,0,0.09876543209876536,76.93827160493822,0)" xlink:href="#s"/><use transform="matrix(0.09876543209876536,0,0,0.09876543209876536,84.74074074074069,0)" xlink:href="#r"/><use transform="matrix(0.09876543209876536,0,0,0.09876543209876536,94.61728395061722,0)" xlink:href="#u"/></g><path fill="#3a414a" d="M30 0v-248h187v28H63v79h144v27H63v87h162V0H30" id="A"/><path fill="#3a414a" d="M141 0L90-78 38 0H4l68-98-65-92h35l48 74 47-74h35l-64 92 68 98h-35" id="B"/><path fill="#3a414a" d="M84 4C-5 8 30-112 23-190h32v120c0 31 7 50 39 49 72-2 45-101 50-169h31l1 190h-30c-1-10 1-25-2-33-11 22-28 36-60 37" id="C"/><g id="d"><use transform="matrix(0.09876543209876536,0,0,0.09876543209876536,0,0)" xlink:href="#A"/><use transform="matrix(0.09876543209876536,0,0,0.09876543209876536,23.703703703703685,0)" xlink:href="#B"/><use transform="matrix(0.09876543209876536,0,0,0.09876543209876536,41.48148148148145,0)" xlink:href="#w"/><use transform="matrix(0.09876543209876536,0,0,0.09876543209876536,61.234567901234534,0)" xlink:href="#q"/><use transform="matrix(0.09876543209876536,0,0,0.09876543209876536,79.0123456790123,0)" xlink:href="#C"/><use transform="matrix(0.09876543209876536,0,0,0.09876543209876536,98.76543209876537,0)" xlink:href="#r"/><use transform="matrix(0.09876543209876536,0,0,0.09876543209876536,108.64197530864189,0)" xlink:href="#s"/><use transform="matrix(0.09876543209876536,0,0,0.09876543209876536,116.44444444444437,0)" xlink:href="#z"/><use transform="matrix(0.09876543209876536,0,0,0.09876543209876536,136.19753086419743,0)" xlink:href="#y"/></g><g id="e"><use transform="matrix(0.09876543209876537,0,0,0.09876543209876537,0,0)" xlink:href="#p"/><use transform="matrix(0.09876543209876537,0,0,0.09876543209876537,23.703703703703688,0)" xlink:href="#q"/><use transform="matrix(0.09876543209876537,0,0,0.09876543209876537,41.48148148148145,0)" xlink:href="#r"/><use transform="matrix(0.09876543209876537,0,0,0.09876543209876537,51.35802469135799,0)" xlink:href="#s"/><use transform="matrix(0.09876543209876537,0,0,0.09876543209876537,59.160493827160444,0)" xlink:href="#t"/><use transform="matrix(0.09876543209876537,0,0,0.09876543209876537,76.93827160493822,0)" xlink:href="#s"/><use transform="matrix(0.09876543209876537,0,0,0.09876543209876537,84.74074074074069,0)" xlink:href="#r"/><use transform="matrix(0.09876543209876537,0,0,0.09876543209876537,94.61728395061724,0)" xlink:href="#u"/></g><path fill="#3a414a" d="M63-220v92h138v28H63V0H30v-248h175v28H63" id="D"/><g id="f"><use transform="matrix(0.09876543209876537,0,0,0.09876543209876537,0,0)" xlink:href="#D"/><use transform="matrix(0.09876543209876537,0,0,0.09876543209876537,21.629629629629616,0)" xlink:href="#C"/><use transform="matrix(0.09876543209876537,0,0,0.09876543209876537,41.382716049382694,0)" xlink:href="#y"/><use transform="matrix(0.09876543209876537,0,0,0.09876543209876537,61.13580246913576,0)" xlink:href="#q"/><use transform="matrix(0.09876543209876537,0,0,0.09876543209876537,78.91358024691354,0)" xlink:href="#r"/><use transform="matrix(0.09876543209876537,0,0,0.09876543209876537,88.79012345679007,0)" xlink:href="#s"/><use transform="matrix(0.09876543209876537,0,0,0.09876543209876537,96.59259259259254,0)" xlink:href="#z"/><use transform="matrix(0.09876543209876537,0,0,0.09876543209876537,116.34567901234561,0)" xlink:href="#y"/></g><g id="g"><use transform="matrix(0.09876543209876537,0,0,0.09876543209876537,0,0)" xlink:href="#v"/><use transform="matrix(0.09876543209876537,0,0,0.09876543209876537,25.580246913580233,0)" xlink:href="#w"/><use transform="matrix(0.09876543209876537,0,0,0.09876543209876537,45.33333333333331,0)" xlink:href="#x"/><use transform="matrix(0.09876543209876537,0,0,0.09876543209876537,55.209876543209845,0)" xlink:href="#s"/><use transform="matrix(0.09876543209876537,0,0,0.09876543209876537,63.01234567901232,0)" xlink:href="#y"/><use transform="matrix(0.09876543209876537,0,0,0.09876543209876537,82.76543209876539,0)" xlink:href="#s"/><use transform="matrix(0.09876543209876537,0,0,0.09876543209876537,90.56790123456786,0)" xlink:href="#r"/><use transform="matrix(0.09876543209876537,0,0,0.09876543209876537,100.4444444444444,0)" xlink:href="#s"/><use transform="matrix(0.09876543209876537,0,0,0.09876543209876537,108.24691358024687,0)" xlink:href="#z"/><use transform="matrix(0.09876543209876537,0,0,0.09876543209876537,127.99999999999994,0)" xlink:href="#y"/></g><g id="h"><use transform="matrix(0.09876543209876537,0,0,0.09876543209876537,0,0)" xlink:href="#A"/><use transform="matrix(0.09876543209876537,0,0,0.09876543209876537,23.703703703703688,0)" xlink:href="#B"/><use transform="matrix(0.09876543209876537,0,0,0.09876543209876537,41.48148148148145,0)" xlink:href="#w"/><use transform="matrix(0.09876543209876537,0,0,0.09876543209876537,61.23456790123453,0)" xlink:href="#q"/><use transform="matrix(0.09876543209876537,0,0,0.09876543209876537,79.0123456790123,0)" xlink:href="#C"/><use transform="matrix(0.09876543209876537,0,0,0.09876543209876537,98.76543209876537,0)" xlink:href="#r"/><use transform="matrix(0.09876543209876537,0,0,0.09876543209876537,108.6419753086419,0)" xlink:href="#s"/><use transform="matrix(0.09876543209876537,0,0,0.09876543209876537,116.4444444444444,0)" xlink:href="#z"/><use transform="matrix(0.09876543209876537,0,0,0.09876543209876537,136.19753086419746,0)" xlink:href="#y"/></g><path fill="#3a414a" d="M24-248c120-7 223 5 221 122C244-46 201 0 124 0H24v-248zM76-40c74 7 117-18 117-86 0-67-45-88-117-82v168" id="E"/><path fill="#3a414a" d="M185-48c-13 30-37 53-82 52C43 2 14-33 14-96s30-98 90-98c62 0 83 45 84 108H66c0 31 8 55 39 56 18 0 30-7 34-22zm-45-69c5-46-57-63-70-21-2 6-4 13-4 21h74" id="F"/><path fill="#3a414a" d="M128 0H69L1-190h53L99-40l48-150h52" id="G"/><path fill="#3a414a" d="M25 0v-261h50V0H25" id="H"/><path fill="#3a414a" d="M110-194c64 0 96 36 96 99 0 64-35 99-97 99-61 0-95-36-95-99 0-62 34-99 96-99zm-1 164c35 0 45-28 45-65 0-40-10-65-43-65-34 0-45 26-45 65 0 36 10 65 43 65" id="I"/><path fill="#3a414a" d="M135-194c53 0 70 44 70 98 0 56-19 98-73 100-31 1-45-17-59-34 3 33 2 69 2 105H25l-1-265h48c2 10 0 23 3 31 11-24 29-35 60-35zM114-30c33 0 39-31 40-66 0-38-9-64-40-64-56 0-55 130 0 130" id="J"/><path fill="#3a414a" d="M220-157c-53 9-28 100-34 157h-49v-107c1-27-5-49-29-50C55-147 81-57 75 0H25l-1-190h47c2 12-1 28 3 38 10-53 101-56 108 0 13-22 24-43 59-42 82 1 51 116 57 194h-49v-107c-1-25-5-48-29-50" id="K"/><path fill="#3a414a" d="M135-194c87-1 58 113 63 194h-50c-7-57 23-157-34-157-59 0-34 97-39 157H25l-1-190h47c2 12-1 28 3 38 12-26 28-41 61-42" id="L"/><path fill="#3a414a" d="M115-3C79 11 28 4 28-45v-112H4v-33h27l15-45h31v45h36v33H77v99c-1 23 16 31 38 25v30" id="M"/><g id="i"><use transform="matrix(0.09259259259259256,0,0,0.09259259259259256,0,0)" xlink:href="#E"/><use transform="matrix(0.09259259259259256,0,0,0.09259259259259256,23.981481481481474,0)" xlink:href="#F"/><use transform="matrix(0.09259259259259256,0,0,0.09259259259259256,42.499999999999986,0)" xlink:href="#G"/><use transform="matrix(0.09259259259259256,0,0,0.09259259259259256,61.0185185185185,0)" xlink:href="#F"/><use transform="matrix(0.09259259259259256,0,0,0.09259259259259256,79.53703703703701,0)" xlink:href="#H"/><use transform="matrix(0.09259259259259256,0,0,0.09259259259259256,88.79629629629626,0)" xlink:href="#I"/><use transform="matrix(0.09259259259259256,0,0,0.09259259259259256,109.07407407407403,0)" xlink:href="#J"/><use transform="matrix(0.09259259259259256,0,0,0.09259259259259256,129.3518518518518,0)" xlink:href="#K"/><use transform="matrix(0.09259259259259256,0,0,0.09259259259259256,158.9814814814814,0)" xlink:href="#F"/><use transform="matrix(0.09259259259259256,0,0,0.09259259259259256,177.49999999999991,0)" xlink:href="#L"/><use transform="matrix(0.09259259259259256,0,0,0.09259259259259256,197.77777777777766,0)" xlink:href="#M"/></g><path fill="#3a414a" d="M140-251c80 0 125 45 125 126S219 4 139 4C58 4 15-44 15-125s44-126 125-126zm-1 214c52 0 73-35 73-88 0-50-21-86-72-86-52 0-73 35-73 86s22 88 72 88" id="N"/><path fill="#3a414a" d="M135-150c-39-12-60 13-60 57V0H25l-1-190h47c2 13-1 29 3 40 6-28 27-53 61-41v41" id="O"/><path fill="#3a414a" d="M133-34C117-15 103 5 69 4 32 3 11-16 11-54c-1-60 55-63 116-61 1-26-3-47-28-47-18 1-26 9-28 27l-52-2c7-38 36-58 82-57s74 22 75 68l1 82c-1 14 12 18 25 15v27c-30 8-71 5-69-32zm-48 3c29 0 43-24 42-57-32 0-66-3-65 30 0 17 8 27 23 27" id="P"/><path fill="#3a414a" d="M25-224v-37h50v37H25zM25 0v-190h50V0H25" id="Q"/><g id="j"><use transform="matrix(0.0987654320987654,0,0,0.0987654320987654,0,0)" xlink:href="#N"/><use transform="matrix(0.0987654320987654,0,0,0.0987654320987654,27.654320987654312,0)" xlink:href="#J"/><use transform="matrix(0.0987654320987654,0,0,0.0987654320987654,49.283950617283935,0)" xlink:href="#F"/><use transform="matrix(0.0987654320987654,0,0,0.0987654320987654,69.03703703703701,0)" xlink:href="#O"/><use transform="matrix(0.0987654320987654,0,0,0.0987654320987654,82.86419753086416,0)" xlink:href="#P"/><use transform="matrix(0.0987654320987654,0,0,0.0987654320987654,102.61728395061722,0)" xlink:href="#M"/><use transform="matrix(0.0987654320987654,0,0,0.0987654320987654,114.37037037037034,0)" xlink:href="#Q"/><use transform="matrix(0.0987654320987654,0,0,0.0987654320987654,124.24691358024687,0)" xlink:href="#I"/><use transform="matrix(0.0987654320987654,0,0,0.0987654320987654,145.8765432098765,0)" xlink:href="#L"/></g><path fill="#3a414a" d="M185-189c-5-48-123-54-124 2 14 75 158 14 163 119 3 78-121 87-175 55-17-10-28-26-33-46l33-7c5 56 141 63 141-1 0-78-155-14-162-118-5-82 145-84 179-34 5 7 8 16 11 25" id="R"/><path fill="#3a414a" d="M106-169C34-169 62-67 57 0H25v-261h32l-1 103c12-21 28-36 61-36 89 0 53 116 60 194h-32v-121c2-32-8-49-39-48" id="S"/><path fill="#3a414a" d="M85-194c31 0 48 13 60 33l-1-100h32l1 261h-30c-2-10 0-23-3-31C134-8 116 4 85 4 32 4 16-35 15-94c0-66 23-100 70-100zm9 24c-40 0-46 34-46 75 0 40 6 74 45 74 42 0 51-32 51-76 0-42-9-74-50-73" id="T"/><path fill="#3a414a" d="M24 0v-261h32V0H24" id="U"/><g id="k"><use transform="matrix(0.07407407407407407,0,0,0.07407407407407407,0,0)" xlink:href="#R"/><use transform="matrix(0.07407407407407407,0,0,0.07407407407407407,17.77777777777778,0)" xlink:href="#q"/><use transform="matrix(0.07407407407407407,0,0,0.07407407407407407,31.11111111111111,0)" xlink:href="#S"/><use transform="matrix(0.07407407407407407,0,0,0.07407407407407407,45.925925925925924,0)" xlink:href="#w"/><use transform="matrix(0.07407407407407407,0,0,0.07407407407407407,60.74074074074074,0)" xlink:href="#T"/><use transform="matrix(0.07407407407407407,0,0,0.07407407407407407,75.55555555555554,0)" xlink:href="#C"/><use transform="matrix(0.07407407407407407,0,0,0.07407407407407407,90.37037037037035,0)" xlink:href="#U"/><use transform="matrix(0.07407407407407407,0,0,0.07407407407407407,96.2222222222222,0)" xlink:href="#w"/></g><g id="l"><use transform="matrix(0.07407407407407407,0,0,0.07407407407407407,0,0)" xlink:href="#p"/><use transform="matrix(0.07407407407407407,0,0,0.07407407407407407,17.77777777777778,0)" xlink:href="#q"/><use transform="matrix(0.07407407407407407,0,0,0.07407407407407407,31.11111111111111,0)" xlink:href="#r"/><use transform="matrix(0.07407407407407407,0,0,0.07407407407407407,38.51851851851852,0)" xlink:href="#s"/><use transform="matrix(0.07407407407407407,0,0,0.07407407407407407,44.37037037037037,0)" xlink:href="#t"/><use transform="matrix(0.07407407407407407,0,0,0.07407407407407407,57.703703703703695,0)" xlink:href="#s"/><use transform="matrix(0.07407407407407407,0,0,0.07407407407407407,63.55555555555554,0)" xlink:href="#r"/><use transform="matrix(0.07407407407407407,0,0,0.07407407407407407,70.96296296296295,0)" xlink:href="#u"/></g><path fill="#3a414a" d="M212-179c-10-28-35-45-73-45-59 0-87 40-87 99 0 60 29 101 89 101 43 0 62-24 78-52l27 14C228-24 195 4 139 4 59 4 22-46 18-125c-6-104 99-153 187-111 19 9 31 26 39 46" id="V"/><path fill="#3a414a" d="M210-169c-67 3-38 105-44 169h-31v-121c0-29-5-50-35-48C34-165 62-65 56 0H25l-1-190h30c1 10-1 24 2 32 10-44 99-50 107 0 11-21 27-35 58-36 85-2 47 119 55 194h-31v-121c0-29-5-49-35-48" id="W"/><path fill="#3a414a" d="M141-36C126-15 110 5 73 4 37 3 15-17 15-53c-1-64 63-63 125-63 3-35-9-54-41-54-24 1-41 7-42 31l-33-3c5-37 33-52 76-52 45 0 72 20 72 64v82c-1 20 7 32 28 27v20c-31 9-61-2-59-35zM48-53c0 20 12 33 32 33 41-3 63-29 60-74-43 2-92-5-92 41" id="X"/><g id="m"><use transform="matrix(0.07407407407407407,0,0,0.07407407407407407,0,0)" xlink:href="#V"/><use transform="matrix(0.07407407407407407,0,0,0.07407407407407407,19.185185185185183,0)" xlink:href="#z"/><use transform="matrix(0.07407407407407407,0,0,0.07407407407407407,34,0)" xlink:href="#W"/><use transform="matrix(0.07407407407407407,0,0,0.07407407407407407,56.148148148148145,0)" xlink:href="#W"/><use transform="matrix(0.07407407407407407,0,0,0.07407407407407407,78.29629629629629,0)" xlink:href="#X"/><use transform="matrix(0.07407407407407407,0,0,0.07407407407407407,93.1111111111111,0)" xlink:href="#y"/><use transform="matrix(0.07407407407407407,0,0,0.07407407407407407,107.92592592592591,0)" xlink:href="#T"/></g><g id="n"><use transform="matrix(0.07407407407407407,0,0,0.07407407407407407,0,0)" xlink:href="#p"/><use transform="matrix(0.07407407407407407,0,0,0.07407407407407407,17.77777777777778,0)" xlink:href="#q"/><use transform="matrix(0.07407407407407407,0,0,0.07407407407407407,31.11111111111111,0)" xlink:href="#r"/><use transform="matrix(0.07407407407407407,0,0,0.07407407407407407,38.51851851851852,0)" xlink:href="#s"/><use transform="matrix(0.07407407407407407,0,0,0.07407407407407407,44.37037037037037,0)" xlink:href="#t"/><use transform="matrix(0.07407407407407407,0,0,0.07407407407407407,57.703703703703695,0)" xlink:href="#s"/><use transform="matrix(0.07407407407407407,0,0,0.07407407407407407,63.55555555555554,0)" xlink:href="#r"/><use transform="matrix(0.07407407407407407,0,0,0.07407407407407407,70.96296296296295,0)" xlink:href="#u"/></g><path fill="#3a414a" d="M127-220V0H93v-220H8v-28h204v28h-85" id="Y"/><path fill="#3a414a" d="M135-143c-3-34-86-38-87 0 15 53 115 12 119 90S17 21 10-45l28-5c4 36 97 45 98 0-10-56-113-15-118-90-4-57 82-63 122-42 12 7 21 19 24 35" id="Z"/><path fill="#3a414a" d="M143 0L79-87 56-68V0H24v-261h32v163l83-92h37l-77 82L181 0h-38" id="aa"/><g id="o"><use transform="matrix(0.07407407407407407,0,0,0.07407407407407407,0,0)" xlink:href="#Y"/><use transform="matrix(0.07407407407407407,0,0,0.07407407407407407,13.259259259259258,0)" xlink:href="#X"/><use transform="matrix(0.07407407407407407,0,0,0.07407407407407407,28.074074074074073,0)" xlink:href="#Z"/><use transform="matrix(0.07407407407407407,0,0,0.07407407407407407,41.407407407407405,0)" xlink:href="#aa"/></g></defs></g></svg>