<svg xmlns="http://www.w3.org/2000/svg" xmlns:xlink="http://www.w3.org/1999/xlink" xmlns:lucid="lucid" width="1260" height="1246"><g transform="translate(460.2982670682245 416.3333333333335)" lucid:page-tab-id="0_0"><path d="M-1806.87-1258.83h3677.74v2581.66h-3677.74z" fill="#fff"/><path d="M199.55-334.7v2m0 4.04v4.02m0 4.02v4.02m0 4.02v4.02m0 4.02v4.02m0 4.02v4.02m0 4.02v4.02m0 4.02v4.02m0 4.02v4.02m0 4.02v4.02m0 4.02v4.02m0 4.02v4.02m0 4.02v4.02m0 4.02v4.02m0 4.02v4.02m0 4.03v4.03m0 4.02v4.02m0 4.02v4m0 4.03v4.02m0 4.02v4.02m0 4v4.03m0 4.02v4.02m0 4.02v4m0 4.03v4.02m0 4.02v4.02m0 4v4.03m0 4.02v4.02m0 4.02v4m0 4.03v4.02m0 4.03v4.02m0 4.02v4.02m0 4.02v4.02m0 4.02v4.02m0 4.02v4.02m0 4.02v4.02m0 4.02v4.02m0 4.02v4.02m0 4.02v4.02m0 4.02v4.02m0 4.02v4.02m0 4.02v4.02m0 4.02v4.02m0 4.02v4.02m0 4.03v4.02m0 4.02v4m0 4.03v4.02m0 4.02v4.02m0 4v4.03m0 4.02v4.02m0 4.02v4m0 4.03v4.02m0 4.02v4.02m0 4v4.03m0 4.02v4.02m0 4.02v4m0 4.03v4.02m0 4.02v4.02m0 4v4.04m0 4.02v4.02m0 4.02v4.02m0 4.02v4.02m0 4.02v4.02m0 4.02v4.02m0 4.02v4.02m0 4.02v4.02m0 4.02v4.02m0 4.02V198m0 4.02v4.02m0 4.02v4.02m0 4.02v4.02m0 4.02v4.02m0 4.02v4.03m0 4.03v4.02m0 4.02v4.02m0 4v4.03m0 4.02v4.02m0 4.02v4m0 4.03v4.02m0 4.02v4.02m0 4v4.03m0 4.02v4.02m0 4.02v4m0 4.03v4.02m0 4.02v4.02m0 4v4.03m0 4.02v4.02m0 4.03v4.02m0 4.02v4.02m0 4.02v4.02m0 4.02v4.02m0 4.02v4.02m0 4.02v4.02m0 4.02v4.02m0 4.02v4.02m0 4.02v4.02m0 4.02v4.02m0 4.02v4.02m0 4.02v4.02m0 4.02v4.02m0 4.02v4.02m0 4.02v4.03m0 4v4.03m0 4.02v4.02m0 4.02v4m0 4.03v4.02m0 4.02v4.02m0 4v4.03m0 4.02v4.02m0 4.02v4m0 4.03v4.02m0 4.02v4.02m0 4v4.03m0 4.02v4.02m0 4.02v4m0 4.03v4.03m0 4.02V592m0 4.02v4.02m0 4.02v4.02m0 4.02v4.02m0 4.02v4.02m0 4.02v4.02m0 4.02v4.02m0 4.02v4.02m0 4.02v4.02m0 4.02v4.02m0 4.02v4.02m0 4.02v4.02m0 4.02v4.02m0 4.02v4.02m0 4.03v4.02m0 4.02v4m0 4.03v4.02m0 4.02v4.02m0 4v4.03m0 4.02v4.02m0 4.02v4m0 4.03v4.02m0 4.02v4.02m0 4v4.03m0 4.02v4.02m0 4.02v4m0 4.03v4.02m0 4.02v4.02m0 4v4.04m0 4.02v2" stroke="#b2b2b2" fill="none"/><path d="M200.05-334.68h-1v-.52h1z" stroke="#b2b2b2" stroke-width=".05" fill="#b2b2b2"/><path d="M199.55 823.15v.52M399.55-334.7v2m0 4.04v4.02m0 4.02v4.02m0 4.02v4.02m0 4.02v4.02m0 4.02v4.02m0 4.02v4.02m0 4.02v4.02m0 4.02v4.02m0 4.02v4.02m0 4.02v4.02m0 4.02v4.02m0 4.02v4.02m0 4.02v4.02m0 4.02v4.02m0 4.03v4.03m0 4.02v4.02m0 4.02v4m0 4.03v4.02m0 4.02v4.02m0 4v4.03m0 4.02v4.02m0 4.02v4m0 4.03v4.02m0 4.02v4.02m0 4v4.03m0 4.02v4.02m0 4.02v4m0 4.03v4.02m0 4.03v4.02m0 4.02v4.02m0 4.02v4.02m0 4.02v4.02m0 4.02v4.02m0 4.02v4.02m0 4.02v4.02m0 4.02v4.02m0 4.02v4.02m0 4.02v4.02m0 4.02v4.02m0 4.02v4.02m0 4.02v4.02m0 4.02v4.02m0 4.03v4.02m0 4.02v4m0 4.03v4.02m0 4.02v4.02m0 4v4.03m0 4.02v4.02m0 4.02v4m0 4.03v4.02m0 4.02v4.02m0 4v4.03m0 4.02v4.02m0 4.02v4m0 4.03v4.02m0 4.02v4.02m0 4v4.04m0 4.02v4.02m0 4.02v4.02m0 4.02v4.02m0 4.02v4.02m0 4.02v4.02m0 4.02v4.02m0 4.02v4.02m0 4.02v4.02m0 4.02V198m0 4.02v4.02m0 4.02v4.02m0 4.02v4.02m0 4.02v4.02m0 4.02v4.03m0 4.03v4.02m0 4.02v4.02m0 4v4.03m0 4.02v4.02m0 4.02v4m0 4.03v4.02m0 4.02v4.02m0 4v4.03m0 4.02v4.02m0 4.02v4m0 4.03v4.02m0 4.02v4.02m0 4v4.03m0 4.02v4.02m0 4.03v4.02m0 4.02v4.02m0 4.02v4.02m0 4.02v4.02m0 4.02v4.02m0 4.02v4.02m0 4.02v4.02m0 4.02v4.02m0 4.02v4.02m0 4.02v4.02m0 4.02v4.02m0 4.02v4.02m0 4.02v4.02m0 4.02v4.02m0 4.02v4.03m0 4v4.03m0 4.02v4.02m0 4.02v4m0 4.03v4.02m0 4.02v4.02m0 4v4.03m0 4.02v4.02m0 4.02v4m0 4.03v4.02m0 4.02v4.02m0 4v4.03m0 4.02v4.02m0 4.02v4m0 4.03v4.03m0 4.02V592m0 4.02v4.02m0 4.02v4.02m0 4.02v4.02m0 4.02v4.02m0 4.02v4.02m0 4.02v4.02m0 4.02v4.02m0 4.02v4.02m0 4.02v4.02m0 4.02v4.02m0 4.02v4.02m0 4.02v4.02m0 4.02v4.02m0 4.03v4.02m0 4.02v4m0 4.03v4.02m0 4.02v4.02m0 4v4.03m0 4.02v4.02m0 4.02v4m0 4.03v4.02m0 4.02v4.02m0 4v4.03m0 4.02v4.02m0 4.02v4m0 4.03v4.02m0 4.02v4.02m0 4v4.04m0 4.02v2" stroke="#b2b2b2" fill="none"/><path d="M400.05-334.68h-1v-.52h1z" stroke="#b2b2b2" stroke-width=".05" fill="#b2b2b2"/><path d="M399.55 823.15v.52" stroke="#b2b2b2" fill="none"/><path d="M-440.3 268.67c0 8.28 6.72 15 15 15h150c8.3 0 15-6.72 15-15v-90c0-8.3-6.7-15-15-15h-150c-8.28 0-15 6.7-15 15z" stroke="#000" stroke-opacity="0" stroke-width="3" fill-opacity="0"/><use xlink:href="#a" transform="matrix(1,0,0,1,-435.2982670682245,168.66666666666652) translate(49.876543209876544 45.27777777777778)"/><use xlink:href="#b" transform="matrix(1,0,0,1,-435.2982670682245,168.66666666666652) translate(36.26543209876543 71.94444444444446)"/><path d="M219.7-276.33c0 11.04-8.95 20-20 20-11.04 0-20-8.96-20-20 0-11.05 8.96-20 20-20 11.05 0 20 8.95 20 20zM219.7-76.33c0 11.04-8.95 20-20 20-11.04 0-20-8.96-20-20 0-11.05 8.96-20 20-20 11.05 0 20 8.95 20 20z" stroke="#333" fill="#fff"/><path d="M219.7 123.67c0 11.04-8.95 20-20 20-11.04 0-20-8.96-20-20 0-11.05 8.96-20 20-20 11.05 0 20 8.95 20 20z" stroke="#333" fill="#c92d39"/><path d="M-180.3-300.9c0-3.32 2.7-6 6-6h288c3.32 0 6 2.68 6 6v49.14c0 3.3-2.68 6-6 6h-288c-3.3 0-6-2.7-6-6z" stroke="#000" stroke-opacity="0" stroke-width="3" fill="#fff" fill-opacity="0"/><use xlink:href="#c" transform="matrix(1,0,0,1,-175.2982670682245,-301.90241142001105) translate(34.62962962962966 30.77777777777778)"/><path d="M120.2-276.33h58.5" stroke="#333" fill="none"/><path d="M120.2-275.83h-.5v-1h.5zM179.2-276.36l.02.53h-.53v-1h.56z" stroke="#333" stroke-width=".05" fill="#333"/><path d="M-180.3-110.33c0-3.32 2.7-6 6-6h288c3.32 0 6 2.68 6 6v68c0 3.3-2.68 6-6 6h-288c-3.3 0-6-2.7-6-6z" stroke="#000" stroke-opacity="0" stroke-width="3" fill="#fff" fill-opacity="0"/><use xlink:href="#d" transform="matrix(1,0,0,1,-175.2982670682245,-111.33333333333348) translate(51.29629629629632 39.96527777777778)"/><path d="M120.2-76.33h58.5" stroke="#333" fill="none"/><path d="M120.2-75.83h-.5v-1h.5zM179.2-76.36l.02.53h-.53v-1h.56z" stroke="#333" stroke-width=".05" fill="#333"/><path d="M-200.3 49.67c0-3.32 2.7-6 6-6h308c3.32 0 6 2.68 6 6v148c0 3.3-2.68 6-6 6h-308c-3.3 0-6-2.7-6-6z" stroke="#000" stroke-opacity="0" stroke-width="3" fill="#fff" fill-opacity="0"/><use xlink:href="#e" transform="matrix(1,0,0,1,-200.2982670682245,43.666666666666515) translate(71.91358024691361 82.77777777777777)"/><path d="M199.7-255.33v142.1" stroke="#333" fill="none"/><path d="M199.68-255.83l.52-.02v.53h-1v-.57z" stroke="#333" stroke-width=".05" fill="#333"/><path d="M199.7-98.45l-4.63-14.27h9.27z" stroke="#333" fill="#333"/><path d="M120.2 123.67h58.5" stroke="#333" fill="none"/><path d="M120.2 124.17h-.5v-1h.5zM179.2 123.64l.02.53h-.53v-1h.56z" stroke="#333" stroke-width=".05" fill="#333"/><path d="M199.7-55.33v142.1" stroke="#333" fill="none"/><path d="M199.68-55.83l.52-.02v.53h-1v-.57z" stroke="#333" stroke-width=".05" fill="#333"/><path d="M199.7 101.55l-4.63-14.27h9.27z" stroke="#333" fill="#333"/><path d="M419.7 323.67c0 11.04-8.95 20-20 20-11.04 0-20-8.96-20-20 0-11.05 8.96-20 20-20 11.05 0 20 8.95 20 20zM419.7 523.67c0 11.04-8.95 20-20 20-11.04 0-20-8.96-20-20 0-11.05 8.96-20 20-20 11.05 0 20 8.95 20 20zM419.7 723.67c0 11.04-8.95 20-20 20-11.04 0-20-8.96-20-20 0-11.05 8.96-20 20-20 11.05 0 20 8.95 20 20z" stroke="#333" fill="#fff"/><path d="M479.7 289.67c0-3.32 2.7-6 6-6h288c3.32 0 6 2.68 6 6v68c0 3.3-2.68 6-6 6h-288c-3.3 0-6-2.7-6-6z" stroke="#000" stroke-opacity="0" stroke-width="3" fill="#fff" fill-opacity="0"/><use xlink:href="#c" transform="matrix(1,0,0,1,484.7017329317755,288.6666666666665) translate(34.62962962962966 39.65277777777778)"/><path d="M479.2 323.67h-58.5" stroke="#333" fill="none"/><path d="M479.7 324.17h-.5v-1h.5zM420.72 324.17h-.58l.06-.48-.02-.53h.54z" stroke="#333" stroke-width=".05" fill="#333"/><path d="M499.7 489.67c0-3.32 2.7-6 6-6h248c3.32 0 6 2.68 6 6v68c0 3.3-2.68 6-6 6h-248c-3.3 0-6-2.7-6-6z" stroke="#000" stroke-opacity="0" stroke-width="3" fill="#fff" fill-opacity="0"/><use xlink:href="#d" transform="matrix(1,0,0,1,504.7017329317755,488.6666666666665) translate(31.29629629629632 39.96527777777778)"/><path d="M499.2 523.67h-78.5" stroke="#333" fill="none"/><path d="M499.7 524.17h-.5v-1h.5zM420.7 524.17h-.56l.06-.48-.02-.53h.53z" stroke="#333" stroke-width=".05" fill="#333"/><path d="M499.4 649.67c0-3.32 2.7-6 6-6h248.3c3.32 0 6 2.68 6 6v148c0 3.3-2.68 6-6 6H505.4c-3.3 0-6-2.7-6-6z" stroke="#000" stroke-opacity="0" stroke-width="3" fill="#fff" fill-opacity="0"/><use xlink:href="#f" transform="matrix(1,0,0,1,499.403465863551,643.6666666666665) translate(18.456790123456827 82.77777777777777)"/><path d="M399.7 344.67v142.1" stroke="#333" fill="none"/><path d="M399.68 344.17l.52-.02v.53h-1v-.57z" stroke="#333" stroke-width=".05" fill="#333"/><path d="M399.7 501.55l-4.63-14.27h9.27z" stroke="#333" fill="#333"/><path d="M498.9 723.67h-78.2" stroke="#333" fill="none"/><path d="M499.4 724.17h-.5v-1h.5zM420.7 724.17h-.56l.06-.48-.02-.53h.53z" stroke="#333" stroke-width=".05" fill="#333"/><path d="M399.7 544.67v142.1" stroke="#333" fill="none"/><path d="M399.68 544.17l.52-.02v.53h-1v-.57z" stroke="#333" stroke-width=".05" fill="#333"/><path d="M399.7 701.55l-4.63-14.27h9.27z" stroke="#333" fill="#333"/><path d="M299.7 124.17v199M299.7 124.18v-.5M299.7 323.15v.52" stroke="#333" fill="none"/><path d="M119.7-381.33c0-8.3 6.72-15 15-15h129.7c8.3 0 15 6.7 15 15v31.13c0 8.3-6.7 15-15 15H134.7c-8.28 0-15-6.7-15-15z" stroke="#000" stroke-opacity="0" stroke-width="3" fill-opacity="0"/><use xlink:href="#g" transform="matrix(1,0,0,1,124.7017329317755,-391.3333333333335) translate(13.981481481481488 21.02777777777778)"/><use xlink:href="#h" transform="matrix(1,0,0,1,124.7017329317755,-391.3333333333335) translate(90.40123456790124 21.02777777777778)"/><use xlink:href="#i" transform="matrix(1,0,0,1,124.7017329317755,-391.3333333333335) translate(17.011172839506166 47.69444444444444)"/><use xlink:href="#j" transform="matrix(1,0,0,1,124.7017329317755,-391.3333333333335) translate(120.65314814814815 47.69444444444444)"/><path d="M-257.8-276.33h75M-257.73-276.33h-2.57" stroke="#333" stroke-width="5" fill="none"/><path d="M-180.3-273.83h-2.56v-5h2.56z" stroke="#333" stroke-width=".05" fill="#333"/><path d="M-257.8 723.67h75M-257.73 723.67h-2.57M-182.86 723.67h2.56" stroke="#333" stroke-width="5" fill="none"/><path d="M-219.2 723.17v-999M-219.2 723.15v.52M-219.2-275.82v-.5" stroke="#333" fill="none"/><path d="M262.2 123.67h75M262.27 123.67h-2.57M337.14 123.67h2.56M262.2 323.67h75M262.27 323.67h-2.57M337.14 323.67h2.56" stroke="#333" stroke-width="5" fill="none"/><path d="M-.3 206.43c0-8.28 6.72-15 15-15h130c8.3 0 15 6.72 15 15v31.14c0 8.28-6.7 15-15 15h-130c-8.28 0-15-6.72-15-15z" stroke="#000" stroke-opacity="0" stroke-width="3" fill-opacity="0"/><use xlink:href="#k" transform="matrix(1,0,0,1,4.701732931775496,196.43092191332244) translate(8.611111111111114 21.02777777777778)"/><use xlink:href="#l" transform="matrix(1,0,0,1,4.701732931775496,196.43092191332244) translate(67.74691358024691 21.02777777777778)"/><use xlink:href="#m" transform="matrix(1,0,0,1,4.701732931775496,196.43092191332244) translate(44.20253086419753 47.69444444444444)"/><path d="M160.2 222h139" stroke="#333" fill="none"/><path d="M160.2 222.5h-.5v-1h.5z" stroke="#333" stroke-width=".05" fill="#333"/><path d="M299.2 222h.5" stroke="#333" fill="none"/><path d="M319.7-381.33c0-8.3 6.72-15 15-15h129.7c8.3 0 15 6.7 15 15v31.13c0 8.3-6.7 15-15 15H334.7c-8.28 0-15-6.7-15-15z" stroke="#000" stroke-opacity="0" stroke-width="3" fill-opacity="0"/><g><use xlink:href="#g" transform="matrix(1,0,0,1,324.7017329317755,-391.3333333333335) translate(13.981481481481488 21.02777777777778)"/><use xlink:href="#h" transform="matrix(1,0,0,1,324.7017329317755,-391.3333333333335) translate(90.40123456790124 21.02777777777778)"/><use xlink:href="#i" transform="matrix(1,0,0,1,324.7017329317755,-391.3333333333335) translate(17.011172839506166 47.69444444444444)"/><use xlink:href="#n" transform="matrix(1,0,0,1,324.7017329317755,-391.3333333333335) translate(120.65314814814815 47.69444444444444)"/></g><path d="M-259.8 223.67h40.1" stroke="#333" fill="none"/><path d="M-259.8 224.17h-.5v-1h.5z" stroke="#333" stroke-width=".05" fill="#333"/><path d="M-219.7 223.67h.5" stroke="#333" fill="none"/><defs><path fill="#333" d="M205 0l-28-72H64L36 0H1l101-248h38L239 0h-34zm-38-99l-47-123c-12 45-31 82-46 123h93" id="o"/><path fill="#333" d="M96-169c-40 0-48 33-48 73s9 75 48 75c24 0 41-14 43-38l32 2c-6 37-31 61-74 61-59 0-76-41-82-99-10-93 101-131 147-64 4 7 5 14 7 22l-32 3c-4-21-16-35-41-35" id="p"/><path fill="#333" d="M59-47c-2 24 18 29 38 22v24C64 9 27 4 27-40v-127H5v-23h24l9-43h21v43h35v23H59v120" id="q"/><path fill="#333" d="M24-231v-30h32v30H24zM24 0v-190h32V0H24" id="r"/><path fill="#333" d="M108 0H70L1-190h34L89-25l56-165h34" id="s"/><path fill="#333" d="M179-190L93 31C79 59 56 82 12 73V49c39 6 53-20 64-50L1-190h34L92-34l54-156h33" id="t"/><g id="a"><use transform="matrix(0.06172839506172839,0,0,0.06172839506172839,0,0)" xlink:href="#o"/><use transform="matrix(0.06172839506172839,0,0,0.06172839506172839,14.814814814814813,0)" xlink:href="#p"/><use transform="matrix(0.06172839506172839,0,0,0.06172839506172839,25.925925925925924,0)" xlink:href="#q"/><use transform="matrix(0.06172839506172839,0,0,0.06172839506172839,32.098765432098766,0)" xlink:href="#r"/><use transform="matrix(0.06172839506172839,0,0,0.06172839506172839,36.97530864197531,0)" xlink:href="#s"/><use transform="matrix(0.06172839506172839,0,0,0.06172839506172839,48.08641975308642,0)" xlink:href="#r"/><use transform="matrix(0.06172839506172839,0,0,0.06172839506172839,52.96296296296296,0)" xlink:href="#q"/><use transform="matrix(0.06172839506172839,0,0,0.06172839506172839,59.135802469135804,0)" xlink:href="#t"/></g><path fill="#333" d="M30 0v-248h187v28H63v79h144v27H63v87h162V0H30" id="u"/><path fill="#333" d="M141 0L90-78 38 0H4l68-98-65-92h35l48 74 47-74h35l-64 92 68 98h-35" id="v"/><path fill="#333" d="M100-194c63 0 86 42 84 106H49c0 40 14 67 53 68 26 1 43-12 49-29l28 8c-11 28-37 45-77 45C44 4 14-33 15-96c1-61 26-98 85-98zm52 81c6-60-76-77-97-28-3 7-6 17-6 28h103" id="w"/><path fill="#333" d="M84 4C-5 8 30-112 23-190h32v120c0 31 7 50 39 49 72-2 45-101 50-169h31l1 190h-30c-1-10 1-25-2-33-11 22-28 36-60 37" id="x"/><path fill="#333" d="M100-194c62-1 85 37 85 99 1 63-27 99-86 99S16-35 15-95c0-66 28-99 85-99zM99-20c44 1 53-31 53-75 0-43-8-75-51-75s-53 32-53 75 10 74 51 75" id="y"/><path fill="#333" d="M117-194c89-4 53 116 60 194h-32v-121c0-31-8-49-39-48C34-167 62-67 57 0H25l-1-190h30c1 10-1 24 2 32 11-22 29-35 61-36" id="z"/><g id="b"><use transform="matrix(0.06172839506172839,0,0,0.06172839506172839,0,0)" xlink:href="#u"/><use transform="matrix(0.06172839506172839,0,0,0.06172839506172839,14.814814814814813,0)" xlink:href="#v"/><use transform="matrix(0.06172839506172839,0,0,0.06172839506172839,25.925925925925924,0)" xlink:href="#w"/><use transform="matrix(0.06172839506172839,0,0,0.06172839506172839,38.2716049382716,0)" xlink:href="#p"/><use transform="matrix(0.06172839506172839,0,0,0.06172839506172839,49.38271604938271,0)" xlink:href="#x"/><use transform="matrix(0.06172839506172839,0,0,0.06172839506172839,61.728395061728385,0)" xlink:href="#q"/><use transform="matrix(0.06172839506172839,0,0,0.06172839506172839,67.90123456790123,0)" xlink:href="#r"/><use transform="matrix(0.06172839506172839,0,0,0.06172839506172839,72.77777777777777,0)" xlink:href="#y"/><use transform="matrix(0.06172839506172839,0,0,0.06172839506172839,85.12345679012346,0)" xlink:href="#z"/></g><path fill="#333" d="M127-220V0H93v-220H8v-28h204v28h-85" id="A"/><path fill="#333" d="M141-36C126-15 110 5 73 4 37 3 15-17 15-53c-1-64 63-63 125-63 3-35-9-54-41-54-24 1-41 7-42 31l-33-3c5-37 33-52 76-52 45 0 72 20 72 64v82c-1 20 7 32 28 27v20c-31 9-61-2-59-35zM48-53c0 20 12 33 32 33 41-3 63-29 60-74-43 2-92-5-92 41" id="B"/><path fill="#333" d="M135-143c-3-34-86-38-87 0 15 53 115 12 119 90S17 21 10-45l28-5c4 36 97 45 98 0-10-56-113-15-118-90-4-57 82-63 122-42 12 7 21 19 24 35" id="C"/><path fill="#333" d="M143 0L79-87 56-68V0H24v-261h32v163l83-92h37l-77 82L181 0h-38" id="D"/><path fill="#333" d="M185-189c-5-48-123-54-124 2 14 75 158 14 163 119 3 78-121 87-175 55-17-10-28-26-33-46l33-7c5 56 141 63 141-1 0-78-155-14-162-118-5-82 145-84 179-34 5 7 8 16 11 25" id="E"/><path fill="#333" d="M106-169C34-169 62-67 57 0H25v-261h32l-1 103c12-21 28-36 61-36 89 0 53 116 60 194h-32v-121c2-32-8-49-39-48" id="F"/><path fill="#333" d="M85-194c31 0 48 13 60 33l-1-100h32l1 261h-30c-2-10 0-23-3-31C134-8 116 4 85 4 32 4 16-35 15-94c0-66 23-100 70-100zm9 24c-40 0-46 34-46 75 0 40 6 74 45 74 42 0 51-32 51-76 0-42-9-74-50-73" id="G"/><path fill="#333" d="M24 0v-261h32V0H24" id="H"/><g id="c"><use transform="matrix(0.06172839506172839,0,0,0.06172839506172839,0,0)" xlink:href="#o"/><use transform="matrix(0.06172839506172839,0,0,0.06172839506172839,14.814814814814813,0)" xlink:href="#p"/><use transform="matrix(0.06172839506172839,0,0,0.06172839506172839,25.925925925925924,0)" xlink:href="#q"/><use transform="matrix(0.06172839506172839,0,0,0.06172839506172839,32.098765432098766,0)" xlink:href="#r"/><use transform="matrix(0.06172839506172839,0,0,0.06172839506172839,36.97530864197531,0)" xlink:href="#s"/><use transform="matrix(0.06172839506172839,0,0,0.06172839506172839,48.08641975308642,0)" xlink:href="#r"/><use transform="matrix(0.06172839506172839,0,0,0.06172839506172839,52.96296296296296,0)" xlink:href="#q"/><use transform="matrix(0.06172839506172839,0,0,0.06172839506172839,59.135802469135804,0)" xlink:href="#t"/><use transform="matrix(0.06172839506172839,0,0,0.06172839506172839,70.24691358024691,0)" xlink:href="#A"/><use transform="matrix(0.06172839506172839,0,0,0.06172839506172839,81.29629629629629,0)" xlink:href="#B"/><use transform="matrix(0.06172839506172839,0,0,0.06172839506172839,93.64197530864197,0)" xlink:href="#C"/><use transform="matrix(0.06172839506172839,0,0,0.06172839506172839,104.75308641975309,0)" xlink:href="#D"/><use transform="matrix(0.06172839506172839,0,0,0.06172839506172839,115.8641975308642,0)" xlink:href="#E"/><use transform="matrix(0.06172839506172839,0,0,0.06172839506172839,130.679012345679,0)" xlink:href="#p"/><use transform="matrix(0.06172839506172839,0,0,0.06172839506172839,141.79012345679013,0)" xlink:href="#F"/><use transform="matrix(0.06172839506172839,0,0,0.06172839506172839,154.1358024691358,0)" xlink:href="#w"/><use transform="matrix(0.06172839506172839,0,0,0.06172839506172839,166.48148148148147,0)" xlink:href="#G"/><use transform="matrix(0.06172839506172839,0,0,0.06172839506172839,178.82716049382714,0)" xlink:href="#x"/><use transform="matrix(0.06172839506172839,0,0,0.06172839506172839,191.1728395061728,0)" xlink:href="#H"/><use transform="matrix(0.06172839506172839,0,0,0.06172839506172839,196.04938271604934,0)" xlink:href="#w"/><use transform="matrix(0.06172839506172839,0,0,0.06172839506172839,208.395061728395,0)" xlink:href="#G"/></g><path fill="#333" d="M114-163C36-179 61-72 57 0H25l-1-190h30c1 12-1 29 2 39 6-27 23-49 58-41v29" id="I"/><g id="d"><use transform="matrix(0.06172839506172839,0,0,0.06172839506172839,0,0)" xlink:href="#o"/><use transform="matrix(0.06172839506172839,0,0,0.06172839506172839,14.814814814814813,0)" xlink:href="#p"/><use transform="matrix(0.06172839506172839,0,0,0.06172839506172839,25.925925925925924,0)" xlink:href="#q"/><use transform="matrix(0.06172839506172839,0,0,0.06172839506172839,32.098765432098766,0)" xlink:href="#r"/><use transform="matrix(0.06172839506172839,0,0,0.06172839506172839,36.97530864197531,0)" xlink:href="#s"/><use transform="matrix(0.06172839506172839,0,0,0.06172839506172839,48.08641975308642,0)" xlink:href="#r"/><use transform="matrix(0.06172839506172839,0,0,0.06172839506172839,52.96296296296296,0)" xlink:href="#q"/><use transform="matrix(0.06172839506172839,0,0,0.06172839506172839,59.135802469135804,0)" xlink:href="#t"/><use transform="matrix(0.06172839506172839,0,0,0.06172839506172839,70.24691358024691,0)" xlink:href="#A"/><use transform="matrix(0.06172839506172839,0,0,0.06172839506172839,81.29629629629629,0)" xlink:href="#B"/><use transform="matrix(0.06172839506172839,0,0,0.06172839506172839,93.64197530864197,0)" xlink:href="#C"/><use transform="matrix(0.06172839506172839,0,0,0.06172839506172839,104.75308641975309,0)" xlink:href="#D"/><use transform="matrix(0.06172839506172839,0,0,0.06172839506172839,115.8641975308642,0)" xlink:href="#E"/><use transform="matrix(0.06172839506172839,0,0,0.06172839506172839,130.679012345679,0)" xlink:href="#q"/><use transform="matrix(0.06172839506172839,0,0,0.06172839506172839,136.85185185185185,0)" xlink:href="#B"/><use transform="matrix(0.06172839506172839,0,0,0.06172839506172839,149.19753086419752,0)" xlink:href="#I"/><use transform="matrix(0.06172839506172839,0,0,0.06172839506172839,156.5432098765432,0)" xlink:href="#q"/><use transform="matrix(0.06172839506172839,0,0,0.06172839506172839,162.71604938271602,0)" xlink:href="#w"/><use transform="matrix(0.06172839506172839,0,0,0.06172839506172839,175.0617283950617,0)" xlink:href="#G"/></g><path fill="#333" d="M63-220v92h138v28H63V0H30v-248h175v28H63" id="J"/><g id="e"><use transform="matrix(0.06172839506172839,0,0,0.06172839506172839,0,0)" xlink:href="#o"/><use transform="matrix(0.06172839506172839,0,0,0.06172839506172839,14.814814814814813,0)" xlink:href="#p"/><use transform="matrix(0.06172839506172839,0,0,0.06172839506172839,25.925925925925924,0)" xlink:href="#q"/><use transform="matrix(0.06172839506172839,0,0,0.06172839506172839,32.098765432098766,0)" xlink:href="#r"/><use transform="matrix(0.06172839506172839,0,0,0.06172839506172839,36.97530864197531,0)" xlink:href="#s"/><use transform="matrix(0.06172839506172839,0,0,0.06172839506172839,48.08641975308642,0)" xlink:href="#r"/><use transform="matrix(0.06172839506172839,0,0,0.06172839506172839,52.96296296296296,0)" xlink:href="#q"/><use transform="matrix(0.06172839506172839,0,0,0.06172839506172839,59.135802469135804,0)" xlink:href="#t"/><use transform="matrix(0.06172839506172839,0,0,0.06172839506172839,70.24691358024691,0)" xlink:href="#A"/><use transform="matrix(0.06172839506172839,0,0,0.06172839506172839,81.29629629629629,0)" xlink:href="#B"/><use transform="matrix(0.06172839506172839,0,0,0.06172839506172839,93.64197530864197,0)" xlink:href="#C"/><use transform="matrix(0.06172839506172839,0,0,0.06172839506172839,104.75308641975309,0)" xlink:href="#D"/><use transform="matrix(0.06172839506172839,0,0,0.06172839506172839,115.8641975308642,0)" xlink:href="#J"/><use transform="matrix(0.06172839506172839,0,0,0.06172839506172839,129.3827160493827,0)" xlink:href="#B"/><use transform="matrix(0.06172839506172839,0,0,0.06172839506172839,141.72839506172838,0)" xlink:href="#r"/><use transform="matrix(0.06172839506172839,0,0,0.06172839506172839,146.6049382716049,0)" xlink:href="#H"/><use transform="matrix(0.06172839506172839,0,0,0.06172839506172839,151.48148148148144,0)" xlink:href="#w"/><use transform="matrix(0.06172839506172839,0,0,0.06172839506172839,163.8271604938271,0)" xlink:href="#G"/></g><path fill="#333" d="M212-179c-10-28-35-45-73-45-59 0-87 40-87 99 0 60 29 101 89 101 43 0 62-24 78-52l27 14C228-24 195 4 139 4 59 4 22-46 18-125c-6-104 99-153 187-111 19 9 31 26 39 46" id="K"/><path fill="#333" d="M210-169c-67 3-38 105-44 169h-31v-121c0-29-5-50-35-48C34-165 62-65 56 0H25l-1-190h30c1 10-1 24 2 32 10-44 99-50 107 0 11-21 27-35 58-36 85-2 47 119 55 194h-31v-121c0-29-5-49-35-48" id="L"/><path fill="#333" d="M115-194c55 1 70 41 70 98S169 2 115 4C84 4 66-9 55-30l1 105H24l-1-265h31l2 30c10-21 28-34 59-34zm-8 174c40 0 45-34 45-75s-6-73-45-74c-42 0-51 32-51 76 0 43 10 73 51 73" id="M"/><g id="f"><use transform="matrix(0.06172839506172839,0,0,0.06172839506172839,0,0)" xlink:href="#o"/><use transform="matrix(0.06172839506172839,0,0,0.06172839506172839,14.814814814814813,0)" xlink:href="#p"/><use transform="matrix(0.06172839506172839,0,0,0.06172839506172839,25.925925925925924,0)" xlink:href="#q"/><use transform="matrix(0.06172839506172839,0,0,0.06172839506172839,32.098765432098766,0)" xlink:href="#r"/><use transform="matrix(0.06172839506172839,0,0,0.06172839506172839,36.97530864197531,0)" xlink:href="#s"/><use transform="matrix(0.06172839506172839,0,0,0.06172839506172839,48.08641975308642,0)" xlink:href="#r"/><use transform="matrix(0.06172839506172839,0,0,0.06172839506172839,52.96296296296296,0)" xlink:href="#q"/><use transform="matrix(0.06172839506172839,0,0,0.06172839506172839,59.135802469135804,0)" xlink:href="#t"/><use transform="matrix(0.06172839506172839,0,0,0.06172839506172839,70.24691358024691,0)" xlink:href="#A"/><use transform="matrix(0.06172839506172839,0,0,0.06172839506172839,81.29629629629629,0)" xlink:href="#B"/><use transform="matrix(0.06172839506172839,0,0,0.06172839506172839,93.64197530864197,0)" xlink:href="#C"/><use transform="matrix(0.06172839506172839,0,0,0.06172839506172839,104.75308641975309,0)" xlink:href="#D"/><use transform="matrix(0.06172839506172839,0,0,0.06172839506172839,115.8641975308642,0)" xlink:href="#K"/><use transform="matrix(0.06172839506172839,0,0,0.06172839506172839,131.85185185185185,0)" xlink:href="#y"/><use transform="matrix(0.06172839506172839,0,0,0.06172839506172839,144.19753086419752,0)" xlink:href="#L"/><use transform="matrix(0.06172839506172839,0,0,0.06172839506172839,162.6543209876543,0)" xlink:href="#M"/><use transform="matrix(0.06172839506172839,0,0,0.06172839506172839,174.99999999999997,0)" xlink:href="#H"/><use transform="matrix(0.06172839506172839,0,0,0.06172839506172839,179.8765432098765,0)" xlink:href="#w"/><use transform="matrix(0.06172839506172839,0,0,0.06172839506172839,192.22222222222217,0)" xlink:href="#q"/><use transform="matrix(0.06172839506172839,0,0,0.06172839506172839,198.395061728395,0)" xlink:href="#w"/><use transform="matrix(0.06172839506172839,0,0,0.06172839506172839,210.74074074074068,0)" xlink:href="#G"/></g><g id="g"><use transform="matrix(0.06172839506172839,0,0,0.06172839506172839,0,0)" xlink:href="#o"/><use transform="matrix(0.06172839506172839,0,0,0.06172839506172839,14.814814814814813,0)" xlink:href="#p"/><use transform="matrix(0.06172839506172839,0,0,0.06172839506172839,25.925925925925924,0)" xlink:href="#q"/><use transform="matrix(0.06172839506172839,0,0,0.06172839506172839,32.098765432098766,0)" xlink:href="#r"/><use transform="matrix(0.06172839506172839,0,0,0.06172839506172839,36.97530864197531,0)" xlink:href="#s"/><use transform="matrix(0.06172839506172839,0,0,0.06172839506172839,48.08641975308642,0)" xlink:href="#r"/><use transform="matrix(0.06172839506172839,0,0,0.06172839506172839,52.96296296296296,0)" xlink:href="#q"/><use transform="matrix(0.06172839506172839,0,0,0.06172839506172839,59.135802469135804,0)" xlink:href="#t"/></g><g id="h"><use transform="matrix(0.06172839506172839,0,0,0.06172839506172839,0,0)" xlink:href="#A"/><use transform="matrix(0.06172839506172839,0,0,0.06172839506172839,11.049382716049381,0)" xlink:href="#B"/><use transform="matrix(0.06172839506172839,0,0,0.06172839506172839,23.39506172839506,0)" xlink:href="#C"/><use transform="matrix(0.06172839506172839,0,0,0.06172839506172839,34.50617283950617,0)" xlink:href="#D"/></g><g id="i"><use transform="matrix(0.06172839506172839,0,0,0.06172839506172839,0,0)" xlink:href="#u"/><use transform="matrix(0.06172839506172839,0,0,0.06172839506172839,14.814814814814813,0)" xlink:href="#v"/><use transform="matrix(0.06172839506172839,0,0,0.06172839506172839,25.925925925925924,0)" xlink:href="#w"/><use transform="matrix(0.06172839506172839,0,0,0.06172839506172839,38.2716049382716,0)" xlink:href="#p"/><use transform="matrix(0.06172839506172839,0,0,0.06172839506172839,49.38271604938271,0)" xlink:href="#x"/><use transform="matrix(0.06172839506172839,0,0,0.06172839506172839,61.728395061728385,0)" xlink:href="#q"/><use transform="matrix(0.06172839506172839,0,0,0.06172839506172839,67.90123456790123,0)" xlink:href="#r"/><use transform="matrix(0.06172839506172839,0,0,0.06172839506172839,72.77777777777777,0)" xlink:href="#y"/><use transform="matrix(0.06172839506172839,0,0,0.06172839506172839,85.12345679012346,0)" xlink:href="#z"/></g><path fill="#333" d="M27 0v-27h64v-190l-56 39v-29l58-41h29v221h61V0H27" id="N"/><use transform="matrix(0.06172839506172839,0,0,0.06172839506172839,0,0)" xlink:href="#N" id="j"/><path fill="#333" d="M233-177c-1 41-23 64-60 70L243 0h-38l-65-103H63V0H30v-248c88 3 205-21 203 71zM63-129c60-2 137 13 137-47 0-61-80-42-137-45v92" id="O"/><g id="k"><use transform="matrix(0.06172839506172839,0,0,0.06172839506172839,0,0)" xlink:href="#O"/><use transform="matrix(0.06172839506172839,0,0,0.06172839506172839,15.987654320987653,0)" xlink:href="#w"/><use transform="matrix(0.06172839506172839,0,0,0.06172839506172839,28.333333333333332,0)" xlink:href="#q"/><use transform="matrix(0.06172839506172839,0,0,0.06172839506172839,34.50617283950617,0)" xlink:href="#I"/><use transform="matrix(0.06172839506172839,0,0,0.06172839506172839,41.85185185185185,0)" xlink:href="#t"/></g><path fill="#333" d="M160-131c35 5 61 23 61 61C221 17 115-2 30 0v-248c76 3 177-17 177 60 0 33-19 50-47 57zm-97-11c50-1 110 9 110-42 0-47-63-36-110-37v79zm0 115c55-2 124 14 124-45 0-56-70-42-124-44v89" id="P"/><path fill="#333" d="M101-234c-31-9-42 10-38 44h38v23H63V0H32v-167H5v-23h27c-7-52 17-82 69-68v24" id="Q"/><g id="l"><use transform="matrix(0.06172839506172839,0,0,0.06172839506172839,0,0)" xlink:href="#P"/><use transform="matrix(0.06172839506172839,0,0,0.06172839506172839,14.814814814814813,0)" xlink:href="#B"/><use transform="matrix(0.06172839506172839,0,0,0.06172839506172839,27.160493827160494,0)" xlink:href="#p"/><use transform="matrix(0.06172839506172839,0,0,0.06172839506172839,38.27160493827161,0)" xlink:href="#D"/><use transform="matrix(0.06172839506172839,0,0,0.06172839506172839,49.38271604938272,0)" xlink:href="#y"/><use transform="matrix(0.06172839506172839,0,0,0.06172839506172839,61.7283950617284,0)" xlink:href="#Q"/><use transform="matrix(0.06172839506172839,0,0,0.06172839506172839,67.46913580246914,0)" xlink:href="#Q"/></g><g id="m"><use transform="matrix(0.06172839506172839,0,0,0.06172839506172839,0,0)" xlink:href="#M"/><use transform="matrix(0.06172839506172839,0,0,0.06172839506172839,12.345679012345679,0)" xlink:href="#w"/><use transform="matrix(0.06172839506172839,0,0,0.06172839506172839,24.691358024691358,0)" xlink:href="#I"/><use transform="matrix(0.06172839506172839,0,0,0.06172839506172839,32.03703703703704,0)" xlink:href="#r"/><use transform="matrix(0.06172839506172839,0,0,0.06172839506172839,36.91358024691358,0)" xlink:href="#y"/><use transform="matrix(0.06172839506172839,0,0,0.06172839506172839,49.25925925925926,0)" xlink:href="#G"/></g><path fill="#333" d="M101-251c82-7 93 87 43 132L82-64C71-53 59-42 53-27h129V0H18c2-99 128-94 128-182 0-28-16-43-45-43s-46 15-49 41l-32-3c6-41 34-60 81-64" id="R"/><use transform="matrix(0.06172839506172839,0,0,0.06172839506172839,0,0)" xlink:href="#R" id="n"/></defs></g></svg>