<svg xmlns="http://www.w3.org/2000/svg" xmlns:xlink="http://www.w3.org/1999/xlink" xmlns:lucid="lucid" width="1140" height="1780"><g transform="translate(120 220)" lucid:page-tab-id="0_0"><path d="M-1806.87-1258.83h3677.74v3840.5h-3677.74z" fill="#fff"/><path d="M-100-199a1 1 0 0 1 1-1H999a1 1 0 0 1 1 1v1738a1 1 0 0 1-1 1H-99a1 1 0 0 1-1-1z" fill="#fff"/><path d="M480 941v1.98m0 3.96v3.96m0 3.96v3.96m0 3.96v3.96m0 3.96v3.96m0 3.96v3.96m0 3.96v3.96m0 3.96v3.96m0 3.96v3.96m0 3.96v3.96m0 3.96v3.96m0 3.96v3.96m0 3.96v3.96m0 3.96v3.96m0 3.96v3.96m0 3.96v3.96m0 3.96v3.96m0 3.96v3.96m0 3.96v3.96m0 3.96v3.96m0 3.96v3.96m0 3.96v3.96m0 3.96v3.96m0 3.96v3.96m0 3.96v3.96m0 3.96v1.98" stroke="#3a414a" fill="none"/><path d="M480.5 941h-1v-.5h1zm0 198.5h-1v-.5h1z" stroke="#3a414a" stroke-width=".05" fill="#3a414a"/><path d="M80 20h740v1480H80zM480 441v1.98m0 3.95v3.96m0 3.94v3.95m0 3.95v3.95m0 3.96v3.95m0 3.97v3.95m0 3.95v3.96m0 3.95v3.96m0 3.95v3.95m0 3.95v3.95m0 3.96v3.96m0 3.96v3.95m0 3.96v3.95m0 3.95v3.96m0 3.94v3.96m0 3.95v3.96m0 3.96v3.95m0 3.97v3.95m0 3.96v3.95m0 3.96v3.94m0 3.95v3.95m0 3.95v3.96m0 3.95v3.97m0 3.95v3.95m0 3.96v3.95m0 3.96v1.97" stroke="#3a414a" fill="none"/><path d="M480.5 441h-1v-.5h1z" stroke="#3a414a" stroke-width=".05" fill="#3a414a"/><path d="M480 638.7v.5M480-59v1.98m0 3.96v3.96m0 3.96v3.96m0 3.96v3.96m0 3.96v3.96m0 3.96v3.96m0 3.96v3.96m0 3.96v3.96m0 3.96v3.96m0 3.96v3.96m0 3.96v3.96m0 3.96v3.96m0 3.96v3.96m0 3.96v3.96m0 3.96v3.96m0 3.96v3.96m0 3.96v3.96m0 3.96v3.96m0 3.96v3.96m0 3.96v3.96m0 3.96v3.96m0 3.96v3.96m0 3.96v3.96m0 3.96v3.96m0 3.96v3.96m0 3.96V139" stroke="#3a414a" fill="none"/><path d="M480.5-59h-1v-.5h1zm0 198.5h-1v-.5h1z" stroke="#3a414a" stroke-width=".05" fill="#3a414a"/><path d="M180-59v1.98m0 3.96v3.96m0 3.96v3.96m0 3.96v3.96m0 3.96v3.96m0 3.96v3.96m0 3.96v3.96m0 3.96v3.96m0 3.96v3.96m0 3.96v3.96m0 3.96v3.96m0 3.96v3.96m0 3.96v3.96m0 3.96v3.96m0 3.96v3.96m0 3.96v3.96m0 3.96v3.96m0 3.96v3.96m0 3.96v3.96m0 3.96v3.96m0 3.96v3.96m0 3.96v3.96m0 3.96v3.96m0 3.96v3.96m0 3.96v3.96m0 3.96V139" stroke="#3a414a" fill="none"/><path d="M180.5-59h-1v-.5h1zm0 198.5h-1v-.5h1z" stroke="#3a414a" stroke-width=".05" fill="#3a414a"/><path d="M80-160h200v100H80z" stroke="#3a414a" fill="none"/><use xlink:href="#a" transform="translate(96.265 -106.472)"/><use xlink:href="#b" transform="translate(193.55 -106.472)"/><path d="M380-160h200v100H380z" stroke="#3a414a" fill="none"/><use xlink:href="#a" transform="translate(395.864 -106.472)"/><use xlink:href="#c" transform="translate(493.148 -106.472)"/><path d="M120 1080h660v380H120z" stroke="#3a414a" fill="none"/><path d="M160 140h40v1300h-40z" stroke="#3a414a" fill="#fff"/><path d="M120 580h660v380H120zm0-500h660v380H120z" stroke="#3a414a" fill="none"/><path d="M460 640h40v300h-40zm0 500h40v300h-40z" stroke="#3a414a" fill="#f2f3f5"/><path d="M480 1240h40v120h-40z" stroke="#3a414a" fill="#979ea8"/><path d="M460 140h40v300h-40z" stroke="#3a414a" fill="#f2f3f5"/><path d="M180.5 139.5h283.22" stroke="#3a414a" fill="none"/><path d="M180.5 139.5H177v-.5h3.5z" stroke="#3a414a" stroke-width=".05" fill="#3a414a"/><path d="m478.5 139.5-14.28 4.64v-9.28z" stroke="#3a414a" fill="#3a414a"/><path d="M478 440.5H200.5M202.5 425.5v30" stroke="#e81313" stroke-width="4" fill="none"/><path d="M480 740h40v120h-40z" stroke="#3a414a" fill="#979ea8"/><path d="M479.5 940.5H216.88" stroke="#3a414a" fill="none"/><path d="m202.12 940.5 14.26-4.64v9.28z" stroke="#3a414a" fill="#3a414a"/><path d="M201 639.2h262.9" stroke="#3a414a" fill="none"/><path d="M201 639.7h-.5v-1h.5z" stroke="#3a414a" stroke-width=".05" fill="#3a414a"/><path d="m478.38 639.47-14.34 4.38.16-9.27z" stroke="#3a414a" fill="#3a414a"/><path d="M201 1139.5h262.62" stroke="#3a414a" fill="none"/><path d="M201 1140h-.5v-1h.5z" stroke="#3a414a" stroke-width=".05" fill="#3a414a"/><path d="m478.38 1139.5-14.26 4.64v-9.28z" stroke="#3a414a" fill="#3a414a"/><path d="M479.5 1440.5H196.38" stroke="#3a414a" fill="none"/><path d="M483 1441h-3.5v-.5h3.5z" stroke="#3a414a" stroke-width=".05" fill="#3a414a"/><path d="m181.6 1440.5 14.28-4.64v9.28z" stroke="#3a414a" fill="#3a414a"/><path d="M120 1080h260v40H120z" stroke="#3a414a" fill="#fff"/><use xlink:href="#d" transform="translate(134 1105.278)"/><use xlink:href="#e" transform="translate(210.42 1105.278)"/><use xlink:href="#f" transform="translate(262.21 1105.278)"/><path d="M480 220h40v120h-40z" stroke="#3a414a" fill="#979ea8"/><path d="M120 580h260v40H120z" stroke="#3a414a" fill="#fff"/><use xlink:href="#d" transform="translate(134 605.278)"/><use xlink:href="#e" transform="translate(210.42 605.278)"/><use xlink:href="#f" transform="translate(262.21 605.278)"/><path d="M120 80h260v40H120z" stroke="#3a414a" fill="#fff"/><use xlink:href="#d" transform="translate(134 105.278)"/><use xlink:href="#e" transform="translate(210.42 105.278)"/><use xlink:href="#f" transform="translate(262.21 105.278)"/><path d="M80 20h260v40H80z" stroke="#3a414a" fill="#fff"/><use xlink:href="#d" transform="translate(94 45.278)"/><use xlink:href="#f" transform="translate(170.42 45.278)"/><path d="M220 146a6 6 0 0 1 6-6h208a6 6 0 0 1 6 6v28a6 6 0 0 1-6 6H226a6 6 0 0 1-6-6z" fill="none"/><use xlink:href="#g" transform="translate(243.26 162.972)"/><use xlink:href="#h" transform="translate(304.395 162.972)"/><use xlink:href="#i" transform="translate(345.827 162.972)"/><path d="M500 166a6 6 0 0 1 6-6h248a6 6 0 0 1 6 6v28a6 6 0 0 1-6 6H506a6 6 0 0 1-6-6z" fill="none"/><use xlink:href="#g" transform="translate(514.667 183.097)"/><use xlink:href="#j" transform="translate(575.802 183.097)"/><use xlink:href="#k" transform="translate(642.914 183.097)"/><use xlink:href="#i" transform="translate(674.42 183.097)"/><path d="M501 199.13h73a6 6 0 0 1 6 6v9.23a6 6 0 0 1-6 6h-37.12" stroke="#3a414a" fill="none"/><path d="M501 199.63h-.5v-1h.5z" stroke="#3a414a" stroke-width=".05" fill="#3a414a"/><path d="m522.12 220.36 14.26-4.63V225z" stroke="#3a414a" fill="#3a414a"/><path d="M521 340.5h1.9m3.78 0h3.78m3.8 0h3.78m3.78 0h3.8m3.77 0h3.78m3.78 0h3.8m3.78 0h3.78m3.8 0H574l.94.07.9.22.23.08m3.15 2.7.13.2.36.87.23.9v1.56m.05 3.1.02 1.54-.07.94-.22.9-.08.23m-2.7 3.16-.2.13-.87.35-.9.22h-2.08m-4.15 0h-4.15m-4.15.02h-4.14m-4.15 0H548m-4.14 0h-4.15m-4.16.02h-4.14m-4.15 0h-4.15m-4.14.02h-2.08" stroke="#3a414a" fill="none"/><path d="M521 341h-3.5v-.5h3v-.5h.5z" stroke="#3a414a" stroke-width=".05" fill="#3a414a"/><path d="m502.12 357.74 14.26-4.63v9.28z" stroke="#3a414a" fill="#3a414a"/><path d="M520 306a6 6 0 0 1 6-6h68a6 6 0 0 1 6 6v28a6 6 0 0 1-6 6h-68a6 6 0 0 1-6-6z" fill="none"/><use xlink:href="#l" transform="translate(533.383 323.097)"/><path d="M200 486a6 6 0 0 1 6-6h208a6 6 0 0 1 6 6v68a6 6 0 0 1-6 6H206a6 6 0 0 1-6-6z" fill="none"/><use xlink:href="#m" transform="translate(230.099 523.285)"/><use xlink:href="#n" transform="translate(277.407 523.285)"/><use xlink:href="#o" transform="translate(311.975 523.285)"/><use xlink:href="#p" transform="translate(331.728 523.285)"/><path d="M200 986a6 6 0 0 1 6-6h208a6 6 0 0 1 6 6v68a6 6 0 0 1-6 6H206a6 6 0 0 1-6-6z" fill="none"/><use xlink:href="#m" transform="translate(235.062 1023.285)"/><use xlink:href="#n" transform="translate(282.37 1023.285)"/><use xlink:href="#o" transform="translate(316.938 1023.285)"/><use xlink:href="#q" transform="translate(336.691 1023.285)"/><path d="M501 719.26h73a6 6 0 0 1 6 6v9.4a6 6 0 0 1-6 6h-37.12" stroke="#3a414a" fill="none"/><path d="M501 719.76h-.5v-1h.5z" stroke="#3a414a" stroke-width=".05" fill="#3a414a"/><path d="m522.12 740.66 14.26-4.64v9.27z" stroke="#3a414a" fill="#3a414a"/><path d="M521 860.5h1.9m3.78 0h3.78m3.8 0h3.78m3.78 0h3.8m3.77 0h3.78m3.78 0h3.8m3.78 0h3.78m3.8 0H574l.94.07.9.22.23.08m3.15 2.7.13.2.36.87.23.9v2.25m.05 4.47.02 2.23-.07.94-.22.9-.08.23m-2.7 3.15-.2.13-.87.36-.9.23h-2.08m-4.15 0h-4.15m-4.15 0-4.14.02m-4.15 0H548m-4.14.02h-4.15m-4.16 0h-4.14m-4.15.02h-4.15m-4.14 0h-2.08" stroke="#3a414a" fill="none"/><path d="M521 861h-3.5v-.5h3v-.5h.5z" stroke="#3a414a" stroke-width=".05" fill="#3a414a"/><path d="m502.12 880.5 14.26-4.64v9.28z" stroke="#3a414a" fill="#3a414a"/><path d="M501 1220h73a6 6 0 0 1 6 6v7.5a6 6 0 0 1-6 6h-37.6" stroke="#3a414a" fill="none"/><path d="M501 1220.5h-.5v-1h.5z" stroke="#3a414a" stroke-width=".05" fill="#3a414a"/><path d="m521.63 1239.5 14.27-4.64v9.28z" stroke="#3a414a" fill="#3a414a"/><path d="M520.95 1360.5h1.9m3.78 0h3.8m3.78 0h3.8m3.8 0h3.78m3.8 0h3.78m3.8 0h3.78m3.8 0h3.78m3.8 0H574l.94.07.9.22.23.08m3.15 2.7.13.2.36.87.23.9v2.23m.05 4.45.02 2.22-.07.94-.22.9-.08.22m-2.7 3.15-.2.13-.87.36-.9.22h-2.08m-4.15 0h-4.15m-4.15 0-4.14.02m-4.15 0H548m-4.14.02h-4.15m-4.16 0h-4.14m-4.15.02h-4.15m-4.14 0h-2.08" stroke="#3a414a" fill="none"/><path d="M520.96 1361h-3.5v-.5h3.04v-.5h.46z" stroke="#3a414a" stroke-width=".05" fill="#3a414a"/><path d="m502.12 1380.45 14.26-4.63v9.27z" stroke="#3a414a" fill="#3a414a"/><path d="M520 826a6 6 0 0 1 6-6h68a6 6 0 0 1 6 6v28a6 6 0 0 1-6 6h-68a6 6 0 0 1-6-6z" fill="none"/><use xlink:href="#l" transform="translate(533.383 843.097)"/><path d="M500 687.42a6 6 0 0 1 6-6h248a6 6 0 0 1 6 6v28a6 6 0 0 1-6 6H506a6 6 0 0 1-6-6z" fill="none"/><use xlink:href="#g" transform="translate(514.667 704.515)"/><use xlink:href="#j" transform="translate(575.802 704.515)"/><use xlink:href="#k" transform="translate(642.914 704.515)"/><use xlink:href="#i" transform="translate(674.42 704.515)"/><path d="M500 1186a6 6 0 0 1 6-6h248a6 6 0 0 1 6 6v28a6 6 0 0 1-6 6H506a6 6 0 0 1-6-6z" fill="none"/><use xlink:href="#g" transform="translate(514.667 1203.097)"/><use xlink:href="#j" transform="translate(575.802 1203.097)"/><use xlink:href="#k" transform="translate(642.914 1203.097)"/><use xlink:href="#i" transform="translate(674.42 1203.097)"/><path d="M520 1326a6 6 0 0 1 6-6h68a6 6 0 0 1 6 6v28a6 6 0 0 1-6 6h-68a6 6 0 0 1-6-6z" fill="none"/><use xlink:href="#l" transform="translate(533.383 1343.097)"/><path d="M220 906a6 6 0 0 1 6-6h208a6 6 0 0 1 6 6v28a6 6 0 0 1-6 6H226a6 6 0 0 1-6-6z" fill="none"/><use xlink:href="#r" transform="translate(224 923.556)"/><path d="M220 1406a6 6 0 0 1 6-6h208a6 6 0 0 1 6 6v28a6 6 0 0 1-6 6H226a6 6 0 0 1-6-6z" fill="none"/><use xlink:href="#s" transform="translate(210.173 1423.556)"/><path d="M220 646a6 6 0 0 1 6-6h208a6 6 0 0 1 6 6v28a6 6 0 0 1-6 6H226a6 6 0 0 1-6-6z" fill="none"/><use xlink:href="#g" transform="translate(243.26 662.972)"/><use xlink:href="#h" transform="translate(304.395 662.972)"/><use xlink:href="#i" transform="translate(345.827 662.972)"/><path d="M220 1146a6 6 0 0 1 6-6h208a6 6 0 0 1 6 6v28a6 6 0 0 1-6 6H226a6 6 0 0 1-6-6z" fill="none"/><use xlink:href="#g" transform="translate(243.26 1162.972)"/><use xlink:href="#h" transform="translate(304.395 1162.972)"/><use xlink:href="#i" transform="translate(345.827 1162.972)"/><defs><path fill="#3a414a" d="M127-220V0H93v-220H8v-28h204v28h-85" id="t"/><path fill="#3a414a" d="M100-194c63 0 86 42 84 106H49c0 40 14 67 53 68 26 1 43-12 49-29l28 8c-11 28-37 45-77 45C44 4 14-33 15-96c1-61 26-98 85-98zm52 81c6-60-76-77-97-28-3 7-6 17-6 28h103" id="u"/><path fill="#3a414a" d="M210-169c-67 3-38 105-44 169h-31v-121c0-29-5-50-35-48C34-165 62-65 56 0H25l-1-190h30c1 10-1 24 2 32 10-44 99-50 107 0 11-21 27-35 58-36 85-2 47 119 55 194h-31v-121c0-29-5-49-35-48" id="v"/><path fill="#3a414a" d="M115-194c55 1 70 41 70 98S169 2 115 4C84 4 66-9 55-30l1 105H24l-1-265h31l2 30c10-21 28-34 59-34zm-8 174c40 0 45-34 45-75s-6-73-45-74c-42 0-51 32-51 76 0 43 10 73 51 73" id="w"/><path fill="#3a414a" d="M100-194c62-1 85 37 85 99 1 63-27 99-86 99S16-35 15-95c0-66 28-99 85-99zM99-20c44 1 53-31 53-75 0-43-8-75-51-75s-53 32-53 75 10 74 51 75" id="x"/><path fill="#3a414a" d="M114-163C36-179 61-72 57 0H25l-1-190h30c1 12-1 29 2 39 6-27 23-49 58-41v29" id="y"/><path fill="#3a414a" d="M141-36C126-15 110 5 73 4 37 3 15-17 15-53c-1-64 63-63 125-63 3-35-9-54-41-54-24 1-41 7-42 31l-33-3c5-37 33-52 76-52 45 0 72 20 72 64v82c-1 20 7 32 28 27v20c-31 9-61-2-59-35zM48-53c0 20 12 33 32 33 41-3 63-29 60-74-43 2-92-5-92 41" id="z"/><path fill="#3a414a" d="M24 0v-261h32V0H24" id="A"/><path fill="#3a414a" d="M212-179c-10-28-35-45-73-45-59 0-87 40-87 99 0 60 29 101 89 101 43 0 62-24 78-52l27 14C228-24 195 4 139 4 59 4 22-46 18-125c-6-104 99-153 187-111 19 9 31 26 39 46" id="B"/><path fill="#3a414a" d="M84 4C-5 8 30-112 23-190h32v120c0 31 7 50 39 49 72-2 45-101 50-169h31l1 190h-30c-1-10 1-25-2-33-11 22-28 36-60 37" id="C"/><path fill="#3a414a" d="M135-143c-3-34-86-38-87 0 15 53 115 12 119 90S17 21 10-45l28-5c4 36 97 45 98 0-10-56-113-15-118-90-4-57 82-63 122-42 12 7 21 19 24 35" id="D"/><path fill="#3a414a" d="M59-47c-2 24 18 29 38 22v24C64 9 27 4 27-40v-127H5v-23h24l9-43h21v43h35v23H59v120" id="E"/><path fill="#3a414a" d="M266 0h-40l-56-210L115 0H75L2-248h35L96-30l15-64 43-154h32l59 218 59-218h35" id="F"/><path fill="#3a414a" d="M143 0 79-87 56-68V0H24v-261h32v163l83-92h37l-77 82L181 0h-38" id="G"/><path fill="#3a414a" d="m205 0-28-72H64L36 0H1l101-248h38L239 0h-34zm-38-99-47-123c-12 45-31 82-46 123h93" id="H"/><path fill="#3a414a" d="M96-169c-40 0-48 33-48 73s9 75 48 75c24 0 41-14 43-38l32 2c-6 37-31 61-74 61-59 0-76-41-82-99-10-93 101-131 147-64 4 7 5 14 7 22l-32 3c-4-21-16-35-41-35" id="I"/><path fill="#3a414a" d="M24-231v-30h32v30H24zM24 0v-190h32V0H24" id="J"/><path fill="#3a414a" d="M108 0H70L1-190h34L89-25l56-165h34" id="K"/><path fill="#3a414a" d="M179-190 93 31C79 59 56 82 12 73V49c39 6 53-20 64-50L1-190h34L92-34l54-156h33" id="L"/><path fill="#3a414a" d="M30 0v-248h187v28H63v79h144v27H63v87h162V0H30" id="M"/><path fill="#3a414a" d="M141 0 90-78 38 0H4l68-98-65-92h35l48 74 47-74h35l-64 92 68 98h-35" id="N"/><path fill="#3a414a" d="M117-194c89-4 53 116 60 194h-32v-121c0-31-8-49-39-48C34-167 62-67 57 0H25l-1-190h30c1 10-1 24 2 32 11-22 29-35 61-36" id="O"/><path fill="#3a414a" d="M87 75C49 33 22-17 22-94c0-76 28-126 65-167h31c-38 41-64 92-64 168S80 34 118 75H87" id="P"/><path fill="#3a414a" d="M33-261c38 41 65 92 65 168S71 34 33 75H2C39 34 66-17 66-93S39-220 2-261h31" id="Q"/><path fill="#3a414a" d="M101-234c-31-9-42 10-38 44h38v23H63V0H32v-167H5v-23h27c-7-52 17-82 69-68v24" id="R"/><path fill="#3a414a" d="M233-177c-1 41-23 64-60 70L243 0h-38l-65-103H63V0H30v-248c88 3 205-21 203 71zM63-129c60-2 137 13 137-47 0-61-80-42-137-45v92" id="S"/><path fill="#3a414a" d="M85-194c31 0 48 13 60 33l-1-100h32l1 261h-30c-2-10 0-23-3-31C134-8 116 4 85 4 32 4 16-35 15-94c0-66 23-100 70-100zm9 24c-40 0-46 34-46 75 0 40 6 74 45 74 42 0 51-32 51-76 0-42-9-74-50-73" id="T"/><path fill="#3a414a" d="M63-220v92h138v28H63V0H30v-248h175v28H63" id="U"/><g id="a"><use transform="rotate(.413) scale(.06173)" xlink:href="#t"/><use transform="matrix(.06173 0 0 .06173 11.05 0)" xlink:href="#u"/><use transform="matrix(.06173 0 0 .06173 23.395 0)" xlink:href="#v"/><use transform="matrix(.06173 0 0 .06173 41.852 0)" xlink:href="#w"/><use transform="matrix(.06173 0 0 .06173 54.198 0)" xlink:href="#x"/><use transform="matrix(.06173 0 0 .06173 66.543 0)" xlink:href="#y"/><use transform="matrix(.06173 0 0 .06173 73.889 0)" xlink:href="#z"/><use transform="matrix(.06173 0 0 .06173 86.235 0)" xlink:href="#A"/></g><g id="b"><use transform="rotate(.413) scale(.06173)" xlink:href="#B"/><use transform="matrix(.06173 0 0 .06173 15.988 0)" xlink:href="#A"/><use transform="matrix(.06173 0 0 .06173 20.864 0)" xlink:href="#C"/><use transform="matrix(.06173 0 0 .06173 33.21 0)" xlink:href="#D"/><use transform="matrix(.06173 0 0 .06173 44.321 0)" xlink:href="#E"/><use transform="matrix(.06173 0 0 .06173 50.494 0)" xlink:href="#u"/><use transform="matrix(.06173 0 0 .06173 62.84 0)" xlink:href="#y"/></g><g id="c"><use transform="rotate(.413) scale(.06173)" xlink:href="#F"/><use transform="matrix(.06173 0 0 .06173 20.494 0)" xlink:href="#x"/><use transform="matrix(.06173 0 0 .06173 32.84 0)" xlink:href="#y"/><use transform="matrix(.06173 0 0 .06173 40.185 0)" xlink:href="#G"/><use transform="matrix(.06173 0 0 .06173 51.296 0)" xlink:href="#u"/><use transform="matrix(.06173 0 0 .06173 63.642 0)" xlink:href="#y"/></g><g id="d"><use transform="rotate(.413) scale(.06173)" xlink:href="#H"/><use transform="matrix(.06173 0 0 .06173 14.815 0)" xlink:href="#I"/><use transform="matrix(.06173 0 0 .06173 25.926 0)" xlink:href="#E"/><use transform="matrix(.06173 0 0 .06173 32.099 0)" xlink:href="#J"/><use transform="matrix(.06173 0 0 .06173 36.975 0)" xlink:href="#K"/><use transform="matrix(.06173 0 0 .06173 48.086 0)" xlink:href="#J"/><use transform="matrix(.06173 0 0 .06173 52.963 0)" xlink:href="#E"/><use transform="matrix(.06173 0 0 .06173 59.136 0)" xlink:href="#L"/></g><g id="e"><use transform="rotate(.413) scale(.06173)" xlink:href="#t"/><use transform="matrix(.06173 0 0 .06173 11.05 0)" xlink:href="#z"/><use transform="matrix(.06173 0 0 .06173 23.395 0)" xlink:href="#D"/><use transform="matrix(.06173 0 0 .06173 34.506 0)" xlink:href="#G"/></g><g id="f"><use transform="rotate(.413) scale(.06173)" xlink:href="#M"/><use transform="matrix(.06173 0 0 .06173 14.815 0)" xlink:href="#N"/><use transform="matrix(.06173 0 0 .06173 25.926 0)" xlink:href="#u"/><use transform="matrix(.06173 0 0 .06173 38.272 0)" xlink:href="#I"/><use transform="matrix(.06173 0 0 .06173 49.383 0)" xlink:href="#C"/><use transform="matrix(.06173 0 0 .06173 61.728 0)" xlink:href="#E"/><use transform="matrix(.06173 0 0 .06173 67.901 0)" xlink:href="#J"/><use transform="matrix(.06173 0 0 .06173 72.778 0)" xlink:href="#x"/><use transform="matrix(.06173 0 0 .06173 85.123 0)" xlink:href="#O"/></g><g id="g"><use transform="scale(.04938)" xlink:href="#H"/><use transform="matrix(.04938 0 0 .04938 11.852 0)" xlink:href="#I"/><use transform="matrix(.04938 0 0 .04938 20.74 0)" xlink:href="#E"/><use transform="matrix(.04938 0 0 .04938 25.679 0)" xlink:href="#J"/><use transform="matrix(.04938 0 0 .04938 29.58 0)" xlink:href="#K"/><use transform="matrix(.04938 0 0 .04938 38.47 0)" xlink:href="#J"/><use transform="matrix(.04938 0 0 .04938 42.37 0)" xlink:href="#E"/><use transform="matrix(.04938 0 0 .04938 47.309 0)" xlink:href="#L"/></g><g id="h"><use transform="scale(.04938)" xlink:href="#t"/><use transform="matrix(.04938 0 0 .04938 8.84 0)" xlink:href="#z"/><use transform="matrix(.04938 0 0 .04938 18.716 0)" xlink:href="#D"/><use transform="matrix(.04938 0 0 .04938 27.605 0)" xlink:href="#G"/></g><g id="i"><use transform="scale(.04938)" xlink:href="#P"/><use transform="matrix(.04938 0 0 .04938 5.877 0)" xlink:href="#w"/><use transform="matrix(.04938 0 0 .04938 15.753 0)" xlink:href="#z"/><use transform="matrix(.04938 0 0 .04938 25.63 0)" xlink:href="#y"/><use transform="matrix(.04938 0 0 .04938 31.506 0)" xlink:href="#z"/><use transform="matrix(.04938 0 0 .04938 41.383 0)" xlink:href="#v"/><use transform="matrix(.04938 0 0 .04938 56.148 0)" xlink:href="#D"/><use transform="matrix(.04938 0 0 .04938 65.037 0)" xlink:href="#Q"/></g><g id="j"><use transform="scale(.04938)" xlink:href="#R"/><use transform="matrix(.04938 0 0 .04938 4.938 0)" xlink:href="#C"/><use transform="matrix(.04938 0 0 .04938 14.815 0)" xlink:href="#O"/><use transform="matrix(.04938 0 0 .04938 24.691 0)" xlink:href="#I"/><use transform="matrix(.04938 0 0 .04938 33.58 0)" xlink:href="#E"/><use transform="matrix(.04938 0 0 .04938 38.519 0)" xlink:href="#J"/><use transform="matrix(.04938 0 0 .04938 42.42 0)" xlink:href="#x"/><use transform="matrix(.04938 0 0 .04938 52.296 0)" xlink:href="#O"/></g><g id="k"><use transform="scale(.04938)" xlink:href="#I"/><use transform="matrix(.04938 0 0 .04938 8.889 0)" xlink:href="#z"/><use transform="matrix(.04938 0 0 .04938 18.765 0)" xlink:href="#A"/><use transform="matrix(.04938 0 0 .04938 22.667 0)" xlink:href="#A"/></g><g id="l"><use transform="scale(.04938)" xlink:href="#S"/><use transform="matrix(.04938 0 0 .04938 12.79 0)" xlink:href="#u"/><use transform="matrix(.04938 0 0 .04938 22.667 0)" xlink:href="#E"/><use transform="matrix(.04938 0 0 .04938 27.605 0)" xlink:href="#C"/><use transform="matrix(.04938 0 0 .04938 37.481 0)" xlink:href="#y"/><use transform="matrix(.04938 0 0 .04938 43.358 0)" xlink:href="#O"/></g><g id="m"><use transform="scale(.04938)" xlink:href="#S"/><use transform="matrix(.04938 0 0 .04938 12.79 0)" xlink:href="#u"/><use transform="matrix(.04938 0 0 .04938 22.667 0)" xlink:href="#E"/><use transform="matrix(.04938 0 0 .04938 27.605 0)" xlink:href="#y"/><use transform="matrix(.04938 0 0 .04938 33.481 0)" xlink:href="#L"/></g><g id="n"><use transform="scale(.04938)" xlink:href="#T"/><use transform="matrix(.04938 0 0 .04938 9.877 0)" xlink:href="#C"/><use transform="matrix(.04938 0 0 .04938 19.753 0)" xlink:href="#u"/></g><g id="o"><use transform="scale(.04938)" xlink:href="#E"/><use transform="matrix(.04938 0 0 .04938 4.938 0)" xlink:href="#x"/></g><g id="p"><use transform="scale(.04938)" xlink:href="#E"/><use transform="matrix(.04938 0 0 .04938 4.938 0)" xlink:href="#J"/><use transform="matrix(.04938 0 0 .04938 8.84 0)" xlink:href="#v"/><use transform="matrix(.04938 0 0 .04938 23.605 0)" xlink:href="#u"/><use transform="matrix(.04938 0 0 .04938 33.481 0)" xlink:href="#x"/><use transform="matrix(.04938 0 0 .04938 43.358 0)" xlink:href="#C"/><use transform="matrix(.04938 0 0 .04938 53.235 0)" xlink:href="#E"/></g><g id="q"><use transform="scale(.04938)" xlink:href="#R"/><use transform="matrix(.04938 0 0 .04938 4.938 0)" xlink:href="#z"/><use transform="matrix(.04938 0 0 .04938 14.815 0)" xlink:href="#J"/><use transform="matrix(.04938 0 0 .04938 18.716 0)" xlink:href="#A"/><use transform="matrix(.04938 0 0 .04938 22.617 0)" xlink:href="#C"/><use transform="matrix(.04938 0 0 .04938 32.494 0)" xlink:href="#y"/><use transform="matrix(.04938 0 0 .04938 38.37 0)" xlink:href="#u"/></g><g id="r"><use transform="scale(.04938)" xlink:href="#S"/><use transform="matrix(.04938 0 0 .04938 12.79 0)" xlink:href="#u"/><use transform="matrix(.04938 0 0 .04938 22.667 0)" xlink:href="#D"/><use transform="matrix(.04938 0 0 .04938 31.556 0)" xlink:href="#w"/><use transform="matrix(.04938 0 0 .04938 41.432 0)" xlink:href="#x"/><use transform="matrix(.04938 0 0 .04938 51.309 0)" xlink:href="#O"/><use transform="matrix(.04938 0 0 .04938 61.185 0)" xlink:href="#T"/><use transform="matrix(.04938 0 0 .04938 71.062 0)" xlink:href="#H"/><use transform="matrix(.04938 0 0 .04938 82.914 0)" xlink:href="#I"/><use transform="matrix(.04938 0 0 .04938 91.802 0)" xlink:href="#E"/><use transform="matrix(.04938 0 0 .04938 96.74 0)" xlink:href="#J"/><use transform="matrix(.04938 0 0 .04938 100.642 0)" xlink:href="#K"/><use transform="matrix(.04938 0 0 .04938 109.53 0)" xlink:href="#J"/><use transform="matrix(.04938 0 0 .04938 113.432 0)" xlink:href="#E"/><use transform="matrix(.04938 0 0 .04938 118.37 0)" xlink:href="#L"/><use transform="matrix(.04938 0 0 .04938 127.26 0)" xlink:href="#t"/><use transform="matrix(.04938 0 0 .04938 136.099 0)" xlink:href="#z"/><use transform="matrix(.04938 0 0 .04938 145.975 0)" xlink:href="#D"/><use transform="matrix(.04938 0 0 .04938 154.864 0)" xlink:href="#G"/><use transform="matrix(.04938 0 0 .04938 163.753 0)" xlink:href="#U"/><use transform="matrix(.04938 0 0 .04938 174.568 0)" xlink:href="#z"/><use transform="matrix(.04938 0 0 .04938 184.444 0)" xlink:href="#J"/><use transform="matrix(.04938 0 0 .04938 188.346 0)" xlink:href="#A"/><use transform="matrix(.04938 0 0 .04938 192.247 0)" xlink:href="#u"/><use transform="matrix(.04938 0 0 .04938 202.123 0)" xlink:href="#T"/></g><g id="s"><use transform="scale(.04938)" xlink:href="#S"/><use transform="matrix(.04938 0 0 .04938 12.79 0)" xlink:href="#u"/><use transform="matrix(.04938 0 0 .04938 22.667 0)" xlink:href="#D"/><use transform="matrix(.04938 0 0 .04938 31.556 0)" xlink:href="#w"/><use transform="matrix(.04938 0 0 .04938 41.432 0)" xlink:href="#x"/><use transform="matrix(.04938 0 0 .04938 51.309 0)" xlink:href="#O"/><use transform="matrix(.04938 0 0 .04938 61.185 0)" xlink:href="#T"/><use transform="matrix(.04938 0 0 .04938 71.062 0)" xlink:href="#H"/><use transform="matrix(.04938 0 0 .04938 82.914 0)" xlink:href="#I"/><use transform="matrix(.04938 0 0 .04938 91.802 0)" xlink:href="#E"/><use transform="matrix(.04938 0 0 .04938 96.74 0)" xlink:href="#J"/><use transform="matrix(.04938 0 0 .04938 100.642 0)" xlink:href="#K"/><use transform="matrix(.04938 0 0 .04938 109.53 0)" xlink:href="#J"/><use transform="matrix(.04938 0 0 .04938 113.432 0)" xlink:href="#E"/><use transform="matrix(.04938 0 0 .04938 118.37 0)" xlink:href="#L"/><use transform="matrix(.04938 0 0 .04938 127.26 0)" xlink:href="#t"/><use transform="matrix(.04938 0 0 .04938 136.099 0)" xlink:href="#z"/><use transform="matrix(.04938 0 0 .04938 145.975 0)" xlink:href="#D"/><use transform="matrix(.04938 0 0 .04938 154.864 0)" xlink:href="#G"/><use transform="matrix(.04938 0 0 .04938 163.753 0)" xlink:href="#B"/><use transform="matrix(.04938 0 0 .04938 176.543 0)" xlink:href="#x"/><use transform="matrix(.04938 0 0 .04938 186.42 0)" xlink:href="#v"/><use transform="matrix(.04938 0 0 .04938 201.185 0)" xlink:href="#w"/><use transform="matrix(.04938 0 0 .04938 211.062 0)" xlink:href="#A"/><use transform="matrix(.04938 0 0 .04938 214.963 0)" xlink:href="#u"/><use transform="matrix(.04938 0 0 .04938 224.84 0)" xlink:href="#E"/><use transform="matrix(.04938 0 0 .04938 229.778 0)" xlink:href="#u"/></g></defs></g></svg>