<svg xmlns="http://www.w3.org/2000/svg" xmlns:xlink="http://www.w3.org/1999/xlink" xmlns:lucid="lucid" width="1000" height="680"><g transform="translate(20 20)" lucid:page-tab-id="0_0"><path d="M0 0h1000v1000H0z" fill="#fff"/><path d="M0 1a1 1 0 0 1 1-1h958a1 1 0 0 1 1 1v638a1 1 0 0 1-1 1H1a1 1 0 0 1-1-1z" fill="#fff"/><path d="M160 147.08a6 6 0 0 1 6-6h202.5a6 6 0 0 1 6 6V290a6 6 0 0 1-6 6H166a6 6 0 0 1-6-6z" stroke="#3a414a" fill="#fff"/><use xlink:href="#a" transform="matrix(1,0,0,1,165.00000000000003,146.07595275001333) translate(18.117283950617477 76.68402777777774)"/><use xlink:href="#b" transform="matrix(1,0,0,1,165.00000000000003,146.07595275001333) translate(94.53703703703705 76.68402777777774)"/><path d="M375.47 218.54h184.8" stroke="#3a414a" fill="none"/><path d="M375.5 219.04h-.53v-1h.52z" stroke="#3a414a" stroke-width=".05" fill="#3a414a"/><path d="M575.02 218.54l-14.26 4.63v-9.27z" stroke="#3a414a" fill="#3a414a"/><path d="M577.1 147.08a6 6 0 0 1 6-6h202.5a6 6 0 0 1 6 6V290a6 6 0 0 1-6 6H583.1a6 6 0 0 1-6-6z" stroke="#3a414a" fill="#fff"/><use xlink:href="#c" transform="matrix(1,0,0,1,582.1040675610669,146.07595275001333) translate(15.555555555555742 76.68402777777774)"/><use xlink:href="#d" transform="matrix(1,0,0,1,582.1040675610669,146.07595275001333) translate(91.97530864197533 76.68402777777774)"/><path d="M160 386a6 6 0 0 1 6-6h202.5a6 6 0 0 1 6 6v142.92a6 6 0 0 1-6 6H166a6 6 0 0 1-6-6z" stroke="#3a414a" fill="#fff"/><use xlink:href="#e" transform="matrix(1,0,0,1,165.00000000000003,385) translate(21.759259259259352 63.09027777777776)"/><use xlink:href="#f" transform="matrix(1,0,0,1,165.00000000000003,385) translate(98.17901234567903 63.09027777777776)"/><use xlink:href="#g" transform="matrix(1,0,0,1,165.00000000000003,385) translate(56.32716049382721 89.75694444444439)"/><path d="M267.26 379.04v-66.2" stroke="#3a414a" fill="none"/><path d="M267.76 379.54h-1v-.52h1z" stroke="#3a414a" stroke-width=".05" fill="#3a414a"/><path d="M267.26 298.08l4.63 14.27h-9.28z" stroke="#3a414a" fill="#3a414a"/><path d="M577.1 386a6 6 0 0 1 6-6h202.5a6 6 0 0 1 6 6v142.92a6 6 0 0 1-6 6H583.1a6 6 0 0 1-6-6z" stroke="#3a414a" fill="#fff"/><use xlink:href="#e" transform="matrix(1,0,0,1,582.1040675610669,385) translate(21.759259259259352 63.09027777777776)"/><use xlink:href="#f" transform="matrix(1,0,0,1,582.1040675610669,385) translate(98.17901234567903 63.09027777777776)"/><use xlink:href="#h" transform="matrix(1,0,0,1,582.1040675610669,385) translate(53.76543209876549 89.75694444444439)"/><path d="M375.47 457.46h184.8" stroke="#3a414a" fill="none"/><path d="M375.5 457.96h-.53v-1h.52z" stroke="#3a414a" stroke-width=".05" fill="#3a414a"/><path d="M575.02 457.46l-14.26 4.64v-9.27z" stroke="#3a414a" fill="#3a414a"/><path d="M684.36 379.04v-66.2" stroke="#3a414a" fill="none"/><path d="M684.86 379.54h-1v-.52h1z" stroke="#3a414a" stroke-width=".05" fill="#3a414a"/><path d="M684.36 298.08l4.63 14.27h-9.28z" stroke="#3a414a" fill="#3a414a"/><path d="M620 84.37a6 6 0 0 1 6-6h131a6 6 0 0 1 6 6v24.66a6 6 0 0 1-6 6H626a6 6 0 0 1-6-6z" stroke="#000" stroke-opacity="0" fill="#fff" fill-opacity="0"/><g><use xlink:href="#i" transform="matrix(1,0,0,1,625,83.36554599390668) translate(18.296296296296376 19.46527777777775)"/></g><path d="M195.75 86a6 6 0 0 1 6-6h131a6 6 0 0 1 6 6v24.67a6 6 0 0 1-6 6h-131a6 6 0 0 1-6-6z" stroke="#000" stroke-opacity="0" fill="#fff" fill-opacity="0"/><g><use xlink:href="#j" transform="matrix(1,0,0,1,200.75177721952008,85) translate(1.6604938271606073 19.46527777777775)"/></g><defs><path fill="#3a414a" d="M205 0l-28-72H64L36 0H1l101-248h38L239 0h-34zm-38-99l-47-123c-12 45-31 82-46 123h93" id="k"/><path fill="#3a414a" d="M96-169c-40 0-48 33-48 73s9 75 48 75c24 0 41-14 43-38l32 2c-6 37-31 61-74 61-59 0-76-41-82-99-10-93 101-131 147-64 4 7 5 14 7 22l-32 3c-4-21-16-35-41-35" id="l"/><path fill="#3a414a" d="M59-47c-2 24 18 29 38 22v24C64 9 27 4 27-40v-127H5v-23h24l9-43h21v43h35v23H59v120" id="m"/><path fill="#3a414a" d="M24-231v-30h32v30H24zM24 0v-190h32V0H24" id="n"/><path fill="#3a414a" d="M108 0H70L1-190h34L89-25l56-165h34" id="o"/><path fill="#3a414a" d="M179-190L93 31C79 59 56 82 12 73V49c39 6 53-20 64-50L1-190h34L92-34l54-156h33" id="p"/><g id="a"><use transform="matrix(0.06172839506172825,0,0,0.06172839506172825,0,0)" xlink:href="#k"/><use transform="matrix(0.06172839506172825,0,0,0.06172839506172825,14.814814814814781,0)" xlink:href="#l"/><use transform="matrix(0.06172839506172825,0,0,0.06172839506172825,25.925925925925867,0)" xlink:href="#m"/><use transform="matrix(0.06172839506172825,0,0,0.06172839506172825,32.098765432098695,0)" xlink:href="#n"/><use transform="matrix(0.06172839506172825,0,0,0.06172839506172825,36.975308641975225,0)" xlink:href="#o"/><use transform="matrix(0.06172839506172825,0,0,0.06172839506172825,48.08641975308631,0)" xlink:href="#n"/><use transform="matrix(0.06172839506172825,0,0,0.06172839506172825,52.96296296296284,0)" xlink:href="#m"/><use transform="matrix(0.06172839506172825,0,0,0.06172839506172825,59.13580246913567,0)" xlink:href="#p"/></g><path fill="#3a414a" d="M30-248c118-7 216 8 213 122C240-48 200 0 122 0H30v-248zM63-27c89 8 146-16 146-99s-60-101-146-95v194" id="q"/><path fill="#3a414a" d="M100-194c63 0 86 42 84 106H49c0 40 14 67 53 68 26 1 43-12 49-29l28 8c-11 28-37 45-77 45C44 4 14-33 15-96c1-61 26-98 85-98zm52 81c6-60-76-77-97-28-3 7-6 17-6 28h103" id="r"/><path fill="#3a414a" d="M101-234c-31-9-42 10-38 44h38v23H63V0H32v-167H5v-23h27c-7-52 17-82 69-68v24" id="s"/><path fill="#3a414a" d="M117-194c89-4 53 116 60 194h-32v-121c0-31-8-49-39-48C34-167 62-67 57 0H25l-1-190h30c1 10-1 24 2 32 11-22 29-35 61-36" id="t"/><path fill="#3a414a" d="M100-194c62-1 85 37 85 99 1 63-27 99-86 99S16-35 15-95c0-66 28-99 85-99zM99-20c44 1 53-31 53-75 0-43-8-75-51-75s-53 32-53 75 10 74 51 75" id="u"/><g id="b"><use transform="matrix(0.06172839506172825,0,0,0.06172839506172825,0,0)" xlink:href="#q"/><use transform="matrix(0.06172839506172825,0,0,0.06172839506172825,15.987654320987618,0)" xlink:href="#r"/><use transform="matrix(0.06172839506172825,0,0,0.06172839506172825,28.333333333333268,0)" xlink:href="#s"/><use transform="matrix(0.06172839506172825,0,0,0.06172839506172825,34.50617283950609,0)" xlink:href="#n"/><use transform="matrix(0.06172839506172825,0,0,0.06172839506172825,39.38271604938262,0)" xlink:href="#t"/><use transform="matrix(0.06172839506172825,0,0,0.06172839506172825,51.72839506172827,0)" xlink:href="#n"/><use transform="matrix(0.06172839506172825,0,0,0.06172839506172825,56.6049382716048,0)" xlink:href="#m"/><use transform="matrix(0.06172839506172825,0,0,0.06172839506172825,62.77777777777763,0)" xlink:href="#n"/><use transform="matrix(0.06172839506172825,0,0,0.06172839506172825,67.65432098765416,0)" xlink:href="#u"/><use transform="matrix(0.06172839506172825,0,0,0.06172839506172825,79.99999999999982,0)" xlink:href="#t"/></g><g id="c"><use transform="matrix(0.061728395061728274,0,0,0.061728395061728274,0,0)" xlink:href="#k"/><use transform="matrix(0.061728395061728274,0,0,0.061728395061728274,14.814814814814786,0)" xlink:href="#l"/><use transform="matrix(0.061728395061728274,0,0,0.061728395061728274,25.925925925925874,0)" xlink:href="#m"/><use transform="matrix(0.061728395061728274,0,0,0.061728395061728274,32.0987654320987,0)" xlink:href="#n"/><use transform="matrix(0.061728395061728274,0,0,0.061728395061728274,36.97530864197523,0)" xlink:href="#o"/><use transform="matrix(0.061728395061728274,0,0,0.061728395061728274,48.08641975308632,0)" xlink:href="#n"/><use transform="matrix(0.061728395061728274,0,0,0.061728395061728274,52.96296296296285,0)" xlink:href="#m"/><use transform="matrix(0.061728395061728274,0,0,0.061728395061728274,59.135802469135676,0)" xlink:href="#p"/></g><path fill="#3a414a" d="M30 0v-248h187v28H63v79h144v27H63v87h162V0H30" id="v"/><path fill="#3a414a" d="M141 0L90-78 38 0H4l68-98-65-92h35l48 74 47-74h35l-64 92 68 98h-35" id="w"/><path fill="#3a414a" d="M84 4C-5 8 30-112 23-190h32v120c0 31 7 50 39 49 72-2 45-101 50-169h31l1 190h-30c-1-10 1-25-2-33-11 22-28 36-60 37" id="x"/><g id="d"><use transform="matrix(0.061728395061728274,0,0,0.061728395061728274,0,0)" xlink:href="#v"/><use transform="matrix(0.061728395061728274,0,0,0.061728395061728274,14.814814814814786,0)" xlink:href="#w"/><use transform="matrix(0.061728395061728274,0,0,0.061728395061728274,25.925925925925874,0)" xlink:href="#r"/><use transform="matrix(0.061728395061728274,0,0,0.061728395061728274,38.27160493827153,0)" xlink:href="#l"/><use transform="matrix(0.061728395061728274,0,0,0.061728395061728274,49.38271604938262,0)" xlink:href="#x"/><use transform="matrix(0.061728395061728274,0,0,0.061728395061728274,61.72839506172828,0)" xlink:href="#m"/><use transform="matrix(0.061728395061728274,0,0,0.061728395061728274,67.9012345679011,0)" xlink:href="#n"/><use transform="matrix(0.061728395061728274,0,0,0.061728395061728274,72.77777777777763,0)" xlink:href="#u"/><use transform="matrix(0.061728395061728274,0,0,0.061728395061728274,85.12345679012329,0)" xlink:href="#t"/></g><g id="e"><use transform="matrix(0.06172839506172832,0,0,0.06172839506172832,0,0)" xlink:href="#k"/><use transform="matrix(0.06172839506172832,0,0,0.06172839506172832,14.814814814814797,0)" xlink:href="#l"/><use transform="matrix(0.06172839506172832,0,0,0.06172839506172832,25.925925925925895,0)" xlink:href="#m"/><use transform="matrix(0.06172839506172832,0,0,0.06172839506172832,32.09876543209873,0)" xlink:href="#n"/><use transform="matrix(0.06172839506172832,0,0,0.06172839506172832,36.97530864197527,0)" xlink:href="#o"/><use transform="matrix(0.06172839506172832,0,0,0.06172839506172832,48.08641975308637,0)" xlink:href="#n"/><use transform="matrix(0.06172839506172832,0,0,0.06172839506172832,52.962962962962905,0)" xlink:href="#m"/><use transform="matrix(0.06172839506172832,0,0,0.06172839506172832,59.13580246913574,0)" xlink:href="#p"/></g><path fill="#3a414a" d="M63-220v92h138v28H63V0H30v-248h175v28H63" id="y"/><g id="f"><use transform="matrix(0.06172839506172832,0,0,0.06172839506172832,0,0)" xlink:href="#y"/><use transform="matrix(0.06172839506172832,0,0,0.06172839506172832,13.518518518518503,0)" xlink:href="#x"/><use transform="matrix(0.06172839506172832,0,0,0.06172839506172832,25.864197530864168,0)" xlink:href="#t"/><use transform="matrix(0.06172839506172832,0,0,0.06172839506172832,38.20987654320983,0)" xlink:href="#l"/><use transform="matrix(0.06172839506172832,0,0,0.06172839506172832,49.32098765432093,0)" xlink:href="#m"/><use transform="matrix(0.06172839506172832,0,0,0.06172839506172832,55.493827160493765,0)" xlink:href="#n"/><use transform="matrix(0.06172839506172832,0,0,0.06172839506172832,60.3703703703703,0)" xlink:href="#u"/><use transform="matrix(0.06172839506172832,0,0,0.06172839506172832,72.71604938271597,0)" xlink:href="#t"/></g><g id="g"><use transform="matrix(0.06172839506172832,0,0,0.06172839506172832,0,0)" xlink:href="#q"/><use transform="matrix(0.06172839506172832,0,0,0.06172839506172832,15.987654320987636,0)" xlink:href="#r"/><use transform="matrix(0.06172839506172832,0,0,0.06172839506172832,28.3333333333333,0)" xlink:href="#s"/><use transform="matrix(0.06172839506172832,0,0,0.06172839506172832,34.506172839506135,0)" xlink:href="#n"/><use transform="matrix(0.06172839506172832,0,0,0.06172839506172832,39.38271604938267,0)" xlink:href="#t"/><use transform="matrix(0.06172839506172832,0,0,0.06172839506172832,51.728395061728335,0)" xlink:href="#n"/><use transform="matrix(0.06172839506172832,0,0,0.06172839506172832,56.60493827160487,0)" xlink:href="#m"/><use transform="matrix(0.06172839506172832,0,0,0.06172839506172832,62.77777777777771,0)" xlink:href="#n"/><use transform="matrix(0.06172839506172832,0,0,0.06172839506172832,67.65432098765424,0)" xlink:href="#u"/><use transform="matrix(0.06172839506172832,0,0,0.06172839506172832,79.99999999999991,0)" xlink:href="#t"/></g><g id="h"><use transform="matrix(0.06172839506172832,0,0,0.06172839506172832,0,0)" xlink:href="#v"/><use transform="matrix(0.06172839506172832,0,0,0.06172839506172832,14.814814814814797,0)" xlink:href="#w"/><use transform="matrix(0.06172839506172832,0,0,0.06172839506172832,25.925925925925895,0)" xlink:href="#r"/><use transform="matrix(0.06172839506172832,0,0,0.06172839506172832,38.27160493827156,0)" xlink:href="#l"/><use transform="matrix(0.06172839506172832,0,0,0.06172839506172832,49.38271604938266,0)" xlink:href="#x"/><use transform="matrix(0.06172839506172832,0,0,0.06172839506172832,61.72839506172832,0)" xlink:href="#m"/><use transform="matrix(0.06172839506172832,0,0,0.06172839506172832,67.90123456790116,0)" xlink:href="#n"/><use transform="matrix(0.06172839506172832,0,0,0.06172839506172832,72.77777777777769,0)" xlink:href="#u"/><use transform="matrix(0.06172839506172832,0,0,0.06172839506172832,85.12345679012336,0)" xlink:href="#t"/></g><path fill="#3a414a" d="M140-251c81 0 123 46 123 126C263-46 219 4 140 4 59 4 17-45 17-125s42-126 123-126zm0 227c63 0 89-41 89-101s-29-99-89-99c-61 0-89 39-89 99S79-25 140-24" id="z"/><path fill="#3a414a" d="M115-194c55 1 70 41 70 98S169 2 115 4C84 4 66-9 55-30l1 105H24l-1-265h31l2 30c10-21 28-34 59-34zm-8 174c40 0 45-34 45-75s-6-73-45-74c-42 0-51 32-51 76 0 43 10 73 51 73" id="A"/><path fill="#3a414a" d="M114-163C36-179 61-72 57 0H25l-1-190h30c1 12-1 29 2 39 6-27 23-49 58-41v29" id="B"/><path fill="#3a414a" d="M141-36C126-15 110 5 73 4 37 3 15-17 15-53c-1-64 63-63 125-63 3-35-9-54-41-54-24 1-41 7-42 31l-33-3c5-37 33-52 76-52 45 0 72 20 72 64v82c-1 20 7 32 28 27v20c-31 9-61-2-59-35zM48-53c0 20 12 33 32 33 41-3 63-29 60-74-43 2-92-5-92 41" id="C"/><g id="i"><use transform="matrix(0.061728395061728294,0,0,0.061728395061728294,0,0)" xlink:href="#z"/><use transform="matrix(0.061728395061728294,0,0,0.061728395061728294,17.28395061728392,0)" xlink:href="#A"/><use transform="matrix(0.061728395061728294,0,0,0.061728395061728294,29.62962962962958,0)" xlink:href="#r"/><use transform="matrix(0.061728395061728294,0,0,0.061728395061728294,41.97530864197524,0)" xlink:href="#B"/><use transform="matrix(0.061728395061728294,0,0,0.061728395061728294,49.32098765432091,0)" xlink:href="#C"/><use transform="matrix(0.061728395061728294,0,0,0.061728395061728294,61.66666666666657,0)" xlink:href="#m"/><use transform="matrix(0.061728395061728294,0,0,0.061728395061728294,67.8395061728394,0)" xlink:href="#n"/><use transform="matrix(0.061728395061728294,0,0,0.061728395061728294,72.71604938271594,0)" xlink:href="#u"/><use transform="matrix(0.061728395061728294,0,0,0.061728395061728294,85.06172839506159,0)" xlink:href="#t"/></g><path fill="#3a414a" d="M24 0v-261h32V0H24" id="D"/><path fill="#3a414a" d="M210-169c-67 3-38 105-44 169h-31v-121c0-29-5-50-35-48C34-165 62-65 56 0H25l-1-190h30c1 10-1 24 2 32 10-44 99-50 107 0 11-21 27-35 58-36 85-2 47 119 55 194h-31v-121c0-29-5-49-35-48" id="E"/><g id="j"><use transform="matrix(0.061728395061728294,0,0,0.061728395061728294,0,0)" xlink:href="#q"/><use transform="matrix(0.061728395061728294,0,0,0.061728395061728294,15.987654320987629,0)" xlink:href="#r"/><use transform="matrix(0.061728395061728294,0,0,0.061728395061728294,28.333333333333286,0)" xlink:href="#o"/><use transform="matrix(0.061728395061728294,0,0,0.061728395061728294,39.44444444444438,0)" xlink:href="#r"/><use transform="matrix(0.061728395061728294,0,0,0.061728395061728294,51.79012345679004,0)" xlink:href="#D"/><use transform="matrix(0.061728395061728294,0,0,0.061728395061728294,56.66666666666658,0)" xlink:href="#u"/><use transform="matrix(0.061728395061728294,0,0,0.061728395061728294,69.01234567901224,0)" xlink:href="#A"/><use transform="matrix(0.061728395061728294,0,0,0.061728395061728294,81.3580246913579,0)" xlink:href="#E"/><use transform="matrix(0.061728395061728294,0,0,0.061728395061728294,99.81481481481465,0)" xlink:href="#r"/><use transform="matrix(0.061728395061728294,0,0,0.061728395061728294,112.16049382716031,0)" xlink:href="#t"/><use transform="matrix(0.061728395061728294,0,0,0.061728395061728294,124.50617283950596,0)" xlink:href="#m"/></g></defs></g></svg>