<svg xmlns="http://www.w3.org/2000/svg" xmlns:xlink="http://www.w3.org/1999/xlink" xmlns:lucid="lucid" width="860" height="620"><g transform="translate(-480 -340)" lucid:page-tab-id="0_0"><path d="M761.25 360h177.5v580h-177.5z" stroke="#333" stroke-width="3" fill="#fff"/><use xlink:href="#a" transform="matrix(1,0,0,1,772.25,371) translate(25.518518518518533 21.33333333333333)"/><path d="M500 400h100v100H500z" stroke="#333" stroke-width="3" fill="#fff"/><use xlink:href="#b" transform="matrix(1,0,0,1,505,405) translate(22.777777777777782 49.45833333333333)"/><use xlink:href="#c" transform="matrix(1,0,0,1,505,405) translate(52.407407407407405 49.45833333333333)"/><path d="M800 400h100v100H800z" stroke="#333" stroke-width="3" fill="#fff"/><use xlink:href="#d" transform="matrix(1,0,0,1,805,405) translate(37.592592592592595 49.45833333333333)"/><path d="M740 450c0 22.1-17.9 40-40 40s-40-17.9-40-40 17.9-40 40-40 40 17.9 40 40zM1100 400h100v100h-100z" stroke="#333" stroke-width="3" fill="#fff"/><use xlink:href="#e" transform="matrix(1,0,0,1,1105,405) translate(37.592592592592595 49.45833333333333)"/><path d="M800 600h100v100H800zM500 600h100v100H500z" stroke="#333" stroke-width="3" fill="#fff"/><use xlink:href="#f" transform="matrix(1,0,0,1,505,605) translate(37.592592592592595 49.45833333333333)"/><path d="M1100 600h100v100h-100z" stroke="#000" stroke-width="3"/><use xlink:href="#g" transform="matrix(1,0,0,1,1105,605) translate(22.03703703703704 49.45833333333333)"/><path d="M500 800h100v100H500z" stroke="#333" stroke-width="3" fill="#fff"/><use xlink:href="#h" transform="matrix(1,0,0,1,505,805) translate(15 49.45833333333333)"/><use xlink:href="#i" transform="matrix(1,0,0,1,505,805) translate(37.22222222222222 49.45833333333333)"/><use xlink:href="#j" transform="matrix(1,0,0,1,505,805) translate(60.18518518518518 49.45833333333333)"/><path d="M800 800h100v100H800z" stroke="#333" stroke-width="3" fill="#fff"/><use xlink:href="#d" transform="matrix(1,0,0,1,805,805) translate(37.592592592592595 49.45833333333333)"/><path d="M1100 800h100v100h-100z" stroke="#333" stroke-width="3" fill="#fff"/><use xlink:href="#d" transform="matrix(1,0,0,1,1105,805) translate(37.592592592592595 49.45833333333333)"/><path d="M740 650c0 22.1-17.9 40-40 40s-40-17.9-40-40 17.9-40 40-40 40 17.9 40 40zM740 850c0 22.1-17.9 40-40 40s-40-17.9-40-40 17.9-40 40-40 40 17.9 40 40zM1040 450c0 22.1-17.9 40-40 40s-40-17.9-40-40 17.9-40 40-40 40 17.9 40 40zM1040 650c0 22.1-17.9 40-40 40s-40-17.9-40-40 17.9-40 40-40 40 17.9 40 40zM1040 850c0 22.1-17.9 40-40 40s-40-17.9-40-40 17.9-40 40-40 40 17.9 40 40z" stroke="#333" stroke-width="3" fill="#fff"/><path d="M550 502.5V580" stroke="#333" stroke-width="2" fill="none"/><path d="M551 502.53h-2v-1.03h2z" fill="#333"/><path d="M550 595.26L545.36 581h9.28z" stroke="#333" stroke-width="2" fill="#333"/><path d="M550 702.5V780" stroke="#333" stroke-width="2" fill="none"/><path d="M551 702.53h-2v-1.03h2z" fill="#333"/><path d="M550 795.26L545.36 781h9.28z" stroke="#333" stroke-width="2" fill="#333"/><path d="M602.5 450H640" stroke="#333" stroke-width="2" fill="none"/><path d="M602.53 451h-1.03v-2h1.03z" fill="#333"/><path d="M655.26 450L641 454.64v-9.28z" stroke="#333" stroke-width="2" fill="#333"/><path d="M742.5 450H780" stroke="#333" stroke-width="2" fill="none"/><path d="M742.53 451h-1.1l.07-.98-.03-1.02h1.06z" fill="#333"/><path d="M795.26 450L781 454.64v-9.28z" stroke="#333" stroke-width="2" fill="#333"/><path d="M902.5 450H940" stroke="#333" stroke-width="2" fill="none"/><path d="M902.53 451h-1.03v-2h1.03z" fill="#333"/><path d="M955.26 450L941 454.64v-9.28z" stroke="#333" stroke-width="2" fill="#333"/><path d="M1042.5 450h37.5" stroke="#333" stroke-width="2" fill="none"/><path d="M1042.53 451h-1.1l.07-.98-.03-1.02h1.06z" fill="#333"/><path d="M1095.26 450l-14.26 4.64v-9.28z" stroke="#333" stroke-width="2" fill="#333"/><path d="M1150 502.5V580" stroke="#c92d39" stroke-width="2" fill="none"/><path d="M1151 502.53h-2v-1.03h2z" fill="#c92d39"/><path d="M1150 595.26l-4.64-14.26h9.28z" stroke="#c92d39" stroke-width="2" fill="#c92d39"/><path d="M1150 702.5V780" stroke="#c92d39" stroke-width="2" fill="none"/><path d="M1151 702.53h-2v-1.03h2z" fill="#c92d39"/><path d="M1150 795.26l-4.64-14.26h9.28z" stroke="#c92d39" stroke-width="2" fill="#c92d39"/><path d="M1097.5 850H1060" stroke="#333" stroke-width="2" fill="none"/><path d="M1098.5 851h-1.03v-2h1.03z" fill="#333"/><path d="M1044.74 850l14.26-4.64v9.28z" stroke="#333" stroke-width="2" fill="#333"/><path d="M957.5 850H920" stroke="#333" stroke-width="2" fill="none"/><path d="M958.5 849.98l.03 1.02h-1.06v-2h1.1z" fill="#333"/><path d="M904.74 850l14.26-4.64v9.28z" stroke="#333" stroke-width="2" fill="#333"/><path d="M797.5 850H760" stroke="#333" stroke-width="2" fill="none"/><path d="M798.5 851h-1.03v-2h1.03z" fill="#333"/><path d="M744.74 850l14.26-4.64v9.28z" stroke="#333" stroke-width="2" fill="#333"/><path d="M657.5 850H620" stroke="#333" stroke-width="2" fill="none"/><path d="M658.5 849.98l.03 1.02h-1.06v-2h1.1z" fill="#333"/><path d="M604.74 850l14.26-4.64v9.28z" stroke="#333" stroke-width="2" fill="#333"/><path d="M602.5 650h55" stroke="#333" stroke-width="2" fill="none"/><path d="M602.53 651h-1.03v-2h1.03zM658.5 649.98l.03 1.02h-1.06v-2h1.1z" fill="#333"/><path d="M742.5 650h55" stroke="#333" stroke-width="2" fill="none"/><path d="M742.53 651h-1.1l.07-.98-.03-1.02h1.06zM798.5 651h-1.03v-2h1.03z" fill="#333"/><path d="M850 597.5v-95" stroke="#333" stroke-width="2" fill="none"/><path d="M851 598.5h-2v-1.03h2zM851 502.53h-2v-1.03h2z" fill="#333"/><path d="M902.5 650h55" stroke="#333" stroke-width="2" fill="none"/><path d="M902.53 651h-1.03v-2h1.03zM958.5 649.98l.03 1.02h-1.06v-2h1.1z" fill="#333"/><path d="M1042.5 650h55" stroke="#333" stroke-width="2" fill="none"/><path d="M1042.53 651h-1.1l.07-.98-.03-1.02h1.06zM1098.5 651h-1.03v-2h1.03z" fill="#333"/><path d="M850 797.5v-95" stroke="#333" stroke-width="2" fill="none"/><path d="M851 798.5h-2v-1.03h2zM851 702.53h-2v-1.03h2z" fill="#333"/><path d="M1160 524.33c0-3.3 2.7-6 6-6h148c3.3 0 6 2.7 6 6v51.34c0 3.3-2.7 6-6 6h-148c-3.3 0-6-2.7-6-6z" stroke="#000" stroke-opacity="0" stroke-width="3" fill="#fff" fill-opacity="0"/><use xlink:href="#k" transform="matrix(1,0,0,1,1165,523.3333333333333) translate(0 31.27777777777778)"/><use xlink:href="#l" transform="matrix(1,0,0,1,1165,523.3333333333333) translate(73.82716049382715 31.27777777777778)"/><path d="M1160 724.33c0-3.3 2.7-6 6-6h128c3.3 0 6 2.7 6 6v51.34c0 3.3-2.7 6-6 6h-128c-3.3 0-6-2.7-6-6z" stroke="#000" stroke-opacity="0" stroke-width="3" fill="#fff" fill-opacity="0"/><g><use xlink:href="#k" transform="matrix(1,0,0,1,1165,723.3333333333334) translate(0 31.27777777777778)"/><use xlink:href="#m" transform="matrix(1,0,0,1,1165,723.3333333333334) translate(73.82716049382715 31.27777777777778)"/></g><defs><path fill="#333" d="M175 0L67-191c6 58 2 128 3 191H24v-248h59L193-55c-6-58-2-129-3-193h46V0h-61" id="n"/><path fill="#333" d="M185-48c-13 30-37 53-82 52C43 2 14-33 14-96s30-98 90-98c62 0 83 45 84 108H66c0 31 8 55 39 56 18 0 30-7 34-22zm-45-69c5-46-57-63-70-21-2 6-4 13-4 21h74" id="o"/><path fill="#333" d="M115-3C79 11 28 4 28-45v-112H4v-33h27l15-45h31v45h36v33H77v99c-1 23 16 31 38 25v30" id="p"/><path fill="#333" d="M231 0h-52l-39-155L100 0H48L-1-190h46L77-45c9-52 24-97 36-145h53l37 145 32-145h46" id="q"/><path fill="#333" d="M110-194c64 0 96 36 96 99 0 64-35 99-97 99-61 0-95-36-95-99 0-62 34-99 96-99zm-1 164c35 0 45-28 45-65 0-40-10-65-43-65-34 0-45 26-45 65 0 36 10 65 43 65" id="r"/><path fill="#333" d="M135-150c-39-12-60 13-60 57V0H25l-1-190h47c2 13-1 29 3 40 6-28 27-53 61-41v41" id="s"/><path fill="#333" d="M147 0L96-86 75-71V0H25v-261h50v150l67-79h53l-66 74L201 0h-54" id="t"/><g id="a"><use transform="matrix(0.07407407407407406,0,0,0.07407407407407406,0,0)" xlink:href="#n"/><use transform="matrix(0.07407407407407406,0,0,0.07407407407407406,19.18518518518518,0)" xlink:href="#o"/><use transform="matrix(0.07407407407407406,0,0,0.07407407407407406,33.99999999999999,0)" xlink:href="#p"/><use transform="matrix(0.07407407407407406,0,0,0.07407407407407406,42.81481481481481,0)" xlink:href="#q"/><use transform="matrix(0.07407407407407406,0,0,0.07407407407407406,63.55555555555554,0)" xlink:href="#r"/><use transform="matrix(0.07407407407407406,0,0,0.07407407407407406,79.77777777777776,0)" xlink:href="#s"/><use transform="matrix(0.07407407407407406,0,0,0.07407407407407406,90.14814814814812,0)" xlink:href="#t"/></g><path fill="#333" d="M144 0l-44-69L55 0H2l70-98-66-92h53l41 62 40-62h54l-67 91 71 99h-54" id="u"/><path fill="#333" d="M76-54c-1 42 2 86-19 110H24C36 42 46 24 48 0H25v-54h51" id="v"/><g id="b"><use transform="matrix(0.07407407407407406,0,0,0.07407407407407406,0,0)" xlink:href="#u"/><use transform="matrix(0.07407407407407406,0,0,0.07407407407407406,14.814814814814811,0)" xlink:href="#v"/></g><path fill="#333" d="M123 10C108 53 80 86 19 72V37c35 8 53-11 59-39L3-190h52l48 148c12-52 28-100 44-148h51" id="w"/><use transform="matrix(0.07407407407407406,0,0,0.07407407407407406,0,0)" xlink:href="#w" id="c"/><use transform="matrix(0.07407407407407407,0,0,0.07407407407407407,0,0)" xlink:href="#u" id="d"/><use transform="matrix(0.07407407407407406,0,0,0.07407407407407406,0,0)" xlink:href="#u" id="e"/><use transform="matrix(0.07407407407407407,0,0,0.07407407407407407,0,0)" xlink:href="#w" id="f"/><path fill="#fff" d="M144 0l-44-69L55 0H2l70-98-66-92h53l41 62 40-62h54l-67 91 71 99h-54" id="x"/><path fill="#fff" d="M125-100v72H85v-72H15v-39h70v-72h40v72h71v39h-71" id="y"/><g id="g"><use transform="matrix(0.07407407407407406,0,0,0.07407407407407406,0,0)" xlink:href="#x"/><use transform="matrix(0.07407407407407406,0,0,0.07407407407407406,14.814814814814811,0)" xlink:href="#y"/><use transform="matrix(0.07407407407407406,0,0,0.07407407407407406,30.370370370370363,0)" xlink:href="#y"/></g><use transform="matrix(0.07407407407407407,0,0,0.07407407407407407,0,0)" xlink:href="#u" id="h"/><path fill="#333" d="M125-100v72H85v-72H15v-39h70v-72h40v72h71v39h-71" id="z"/><use transform="matrix(0.07407407407407407,0,0,0.07407407407407407,0,0)" xlink:href="#z" id="i"/><use transform="matrix(0.07407407407407407,0,0,0.07407407407407407,0,0)" xlink:href="#w" id="j"/><path fill="#333" d="M63-220v92h138v28H63V0H30v-248h175v28H63" id="A"/><path fill="#333" d="M141-36C126-15 110 5 73 4 37 3 15-17 15-53c-1-64 63-63 125-63 3-35-9-54-41-54-24 1-41 7-42 31l-33-3c5-37 33-52 76-52 45 0 72 20 72 64v82c-1 20 7 32 28 27v20c-31 9-61-2-59-35zM48-53c0 20 12 33 32 33 41-3 63-29 60-74-43 2-92-5-92 41" id="B"/><path fill="#333" d="M24-231v-30h32v30H24zM24 0v-190h32V0H24" id="C"/><path fill="#333" d="M24 0v-261h32V0H24" id="D"/><path fill="#333" d="M84 4C-5 8 30-112 23-190h32v120c0 31 7 50 39 49 72-2 45-101 50-169h31l1 190h-30c-1-10 1-25-2-33-11 22-28 36-60 37" id="E"/><path fill="#333" d="M114-163C36-179 61-72 57 0H25l-1-190h30c1 12-1 29 2 39 6-27 23-49 58-41v29" id="F"/><path fill="#333" d="M100-194c63 0 86 42 84 106H49c0 40 14 67 53 68 26 1 43-12 49-29l28 8c-11 28-37 45-77 45C44 4 14-33 15-96c1-61 26-98 85-98zm52 81c6-60-76-77-97-28-3 7-6 17-6 28h103" id="G"/><g id="k"><use transform="matrix(0.06172839506172839,0,0,0.06172839506172839,0,0)" xlink:href="#A"/><use transform="matrix(0.06172839506172839,0,0,0.06172839506172839,13.518518518518517,0)" xlink:href="#B"/><use transform="matrix(0.06172839506172839,0,0,0.06172839506172839,25.864197530864196,0)" xlink:href="#C"/><use transform="matrix(0.06172839506172839,0,0,0.06172839506172839,30.74074074074074,0)" xlink:href="#D"/><use transform="matrix(0.06172839506172839,0,0,0.06172839506172839,35.617283950617285,0)" xlink:href="#E"/><use transform="matrix(0.06172839506172839,0,0,0.06172839506172839,47.96296296296296,0)" xlink:href="#F"/><use transform="matrix(0.06172839506172839,0,0,0.06172839506172839,55.30864197530864,0)" xlink:href="#G"/></g><path fill="#333" d="M115-194c53 0 69 39 70 98 0 66-23 100-70 100C84 3 66-7 56-30L54 0H23l1-261h32v101c10-23 28-34 59-34zm-8 174c40 0 45-34 45-75 0-40-5-75-45-74-42 0-51 32-51 76 0 43 10 73 51 73" id="H"/><path fill="#333" d="M101-234c-31-9-42 10-38 44h38v23H63V0H32v-167H5v-23h27c-7-52 17-82 69-68v24" id="I"/><path fill="#333" d="M100-194c62-1 85 37 85 99 1 63-27 99-86 99S16-35 15-95c0-66 28-99 85-99zM99-20c44 1 53-31 53-75 0-43-8-75-51-75s-53 32-53 75 10 74 51 75" id="J"/><g id="l"><use transform="matrix(0.06172839506172839,0,0,0.06172839506172839,0,0)" xlink:href="#H"/><use transform="matrix(0.06172839506172839,0,0,0.06172839506172839,12.345679012345679,0)" xlink:href="#G"/><use transform="matrix(0.06172839506172839,0,0,0.06172839506172839,24.691358024691358,0)" xlink:href="#I"/><use transform="matrix(0.06172839506172839,0,0,0.06172839506172839,30.864197530864196,0)" xlink:href="#J"/><use transform="matrix(0.06172839506172839,0,0,0.06172839506172839,43.20987654320987,0)" xlink:href="#F"/><use transform="matrix(0.06172839506172839,0,0,0.06172839506172839,50.55555555555555,0)" xlink:href="#G"/></g><path fill="#333" d="M59-47c-2 24 18 29 38 22v24C64 9 27 4 27-40v-127H5v-23h24l9-43h21v43h35v23H59v120" id="K"/><g id="m"><use transform="matrix(0.06172839506172839,0,0,0.06172839506172839,0,0)" xlink:href="#B"/><use transform="matrix(0.06172839506172839,0,0,0.06172839506172839,12.345679012345679,0)" xlink:href="#I"/><use transform="matrix(0.06172839506172839,0,0,0.06172839506172839,18.51851851851852,0)" xlink:href="#K"/><use transform="matrix(0.06172839506172839,0,0,0.06172839506172839,24.691358024691358,0)" xlink:href="#G"/><use transform="matrix(0.06172839506172839,0,0,0.06172839506172839,37.03703703703704,0)" xlink:href="#F"/></g></defs></g></svg>