<svg xmlns="http://www.w3.org/2000/svg" xmlns:xlink="http://www.w3.org/1999/xlink" xmlns:lucid="lucid" width="1301" height="699.33"><g transform="translate(-99.5 300.5)" lucid:page-tab-id="0_0"><path d="M0-500h1500V500H0z" fill="#fff"/><path d="M120-201.8a6 6 0 0 1 6-6h1248a6 6 0 0 1 6 6V254a6 6 0 0 1-6 6H126a6 6 0 0 1-6-6z" fill-opacity="0"/><path d="M123.7-207.34l.45-.17.9-.24.95-.07h2m4 0h4m4 0h4m4 0h4m4 0h4m4 0h4m4 0h4m4 0h4m4 0h4m4 0h4m4 0h4m4 0h4m4 0h4m4 0h4m4 0h4m4 0h4m4 0h4m4 0h4m4 0h4m4 0h4m4 0h4m4 0h4m4 0h4m4 0h4m4 0h4m4 0h4m4 0h4m4 0h4m4 0h4m4 0h4m4 0h4m4 0h4m4 0h4m4 0h4m4 0h4m4 0h4m4 0h4m4 0h4m4 0h4m4 0h4m4 0h4m4 0h4m4 0h4m4 0h4m4 0h4m4 0h4m4 0h4m4 0h4m4 0h4m4 0h4m4 0h4m4 0h4m4 0h4m4 0h4m4 0h4m4 0h4m4 0h4m4 0h4m4 0h4m4 0h4m4 0h4m4 0h4m4 0h4m4 0h4m4 0h4m4 0h4m4 0h4m4 0h4m4 0h4m4 0h4m4 0h4m4 0h4m4 0h4m4 0h4m4 0h4m4 0h4m4 0h4m4 0h4m4 0h4m4 0h4m4 0h4m4 0h4m4 0h4m4 0h4m4 0h4m4 0h4m4 0h4m4 0h4m4 0h4m4 0h4m4 0h4m4 0h4m4 0h4m4 0h4m4 0h4m4 0h4m4 0h4m4 0h4m4 0h4m4 0h4m4 0h4m4 0h4m4 0h4m4 0h4m4 0h4m4 0h4m4 0h4m4 0h4m4 0h4m4 0h4m4 0h4m4 0h4m4 0h4m4 0h4m4 0h4m4 0h4m4 0h4m4 0h4m4 0h4m4 0h4m4 0h4m4 0h4m4 0h4m4 0h4m4 0h4m4 0h4m4 0h4m4 0h4m4 0h4m4 0h4m4 0h4m4 0h4m4 0h4m4 0h4m4 0h4m4 0h4m4 0h4m4 0h4m4 0h4m4 0h4m4 0h4m4 0h4m4 0h4m4 0h4m4 0h4m4 0h4m4 0h4m4 0h4m4 0h4m4 0h4m4 0h4m4 0h4m4 0h4m4 0h4m4 0h4m4 0h4m4 0h2l.94.06.9.23.45.16m3.23 3.24l.18.44.23.9.07.95v2m0 4v4m0 4v3.98m0 4v4m0 4v4m0 4v4m0 4v4m0 4v4m0 3.98v4m0 4v4m0 4v4m0 4v4m0 4v4m0 4v4m0 3.98v4m0 4v4m0 4v4m0 4v4m0 4v4m0 4v4m0 3.98v4m0 4v4m0 4v4m0 4v4m0 4v4m0 4v4m0 4V8.1m0 4v4m0 4v4m0 4v4m0 4v4m0 4v4m0 3.98v4m0 4v4m0 4v4m0 4v4m0 4v4m0 4v4m0 3.98v4m0 4v4m0 4v4m0 4v4m0 4v4m0 4v4m0 3.98v4m0 4v4m0 4v4m0 4v4m0 4v4m0 4v4m0 3.98v4m0 4v4m0 4v4m0 4v4m0 4v4m0 4v4m0 3.98v4m0 4v2l-.07.94-.22.9-.17.45m-3.24 3.23l-.45.18-.9.23-.95.07h-2m-4 0h-4m-4 0h-4m-4 0h-4m-4 0h-4m-4 0h-4m-4 0h-4m-4 0h-4m-4 0h-4m-4 0h-4m-4 0h-4m-4 0h-4m-4 0h-4m-4 0h-4m-4 0h-4m-4 0h-4m-4 0h-4m-4 0h-4m-4 0h-4m-4 0h-4m-4 0h-4m-4 0h-4m-4 0h-4m-4 0h-4m-4 0h-4m-4 0h-4m-4 0h-4m-4 0h-4m-4 0h-4m-4 0h-4m-4 0h-4m-4 0h-4m-4 0h-4m-4 0h-4m-4 0h-4m-4 0h-4m-4 0h-4m-4 0h-4m-4 0h-4m-4 0h-4m-4 0h-4m-4 0h-4m-4 0h-4m-4 0h-4m-4 0h-4m-4 0h-4m-4 0h-4m-4 0h-4m-4 0h-4m-4 0h-4m-4 0h-4m-4 0h-4m-4 0h-4m-4 0h-4m-4 0h-4m-4 0h-4m-4 0h-4m-4 0h-4m-4 0h-4m-4 0h-4m-4 0h-4m-4 0h-4m-4 0h-4m-4 0h-4m-4 0h-4m-4 0h-4m-4 0h-4m-4 0h-4m-4 0h-4m-4 0h-4m-4 0h-4m-4 0h-4m-4 0h-4m-4 0h-4m-4 0h-4m-4 0h-4m-4 0h-4m-4 0h-4m-4 0h-4m-4 0h-4m-4 0h-4m-4 0h-4m-4 0h-4m-4 0h-4m-4 0h-4m-4 0h-4m-4 0h-4m-4 0h-4m-4 0h-4m-4 0h-4m-4 0h-4m-4 0h-4m-4 0h-4m-4 0h-4m-4 0h-4m-4 0h-4m-4 0h-4m-4 0h-4m-4 0h-4m-4 0h-4m-4 0h-4m-4 0h-4m-4 0h-4m-4 0h-4m-4 0h-4m-4 0h-4m-4 0h-4m-4 0h-4m-4 0h-4m-4 0h-4m-4 0h-4m-4 0h-4m-4 0h-4m-4 0h-4m-4 0h-4m-4 0h-4m-4 0h-4m-4 0h-4m-4 0h-4m-4 0h-4m-4 0h-4m-4 0h-4m-4 0h-4m-4 0h-4m-4 0h-4m-4 0h-4m-4 0h-4m-4 0h-4m-4 0h-4m-4 0h-4m-4 0h-4m-4 0h-4m-4 0h-4m-4 0h-4m-4 0h-4m-4 0h-4m-4 0h-4m-4 0h-4m-4 0h-4m-4 0h-4m-4 0h-4m-4 0h-4m-4 0h-4m-4 0h-4m-4 0h-4m-4 0h-4m-4 0h-4m-4 0h-4m-4 0h-4m-4 0h-4m-4 0h-4m-4 0h-4m-4 0h-4m-4 0h-4m-4 0h-4m-4 0h-4m-4 0h-2l-.94-.07-.9-.22-.45-.17m-3.23-3.24l-.18-.45-.23-.9-.07-.95v-2m0-4v-4m0-4v-4m0-4v-4m0-4v-4m0-3.98v-4m0-4v-4m0-4v-4m0-4v-4m0-4v-4m0-4v-4m0-3.98v-4m0-4v-4m0-4v-4m0-4v-4m0-4v-4m0-4v-3.98m0-4v-4m0-4v-4m0-4v-4m0-4v-4m0-4v-4m0-4V76.1m0-4v-4m0-4v-4m0-4v-4m0-4v-4m0-4v-4m0-4V28.1m0-4v-4m0-4v-4m0-4v-4m0-4v-4m0-4v-4m0-4v-4m0-3.98v-4m0-4v-4m0-4v-4m0-4v-4m0-4v-4m0-4v-3.98m0-4v-4m0-4v-4m0-4v-4m0-4v-4m0-4v-4m0-4v-3.98m0-4v-4m0-4v-4m0-4v-4m0-4v-4m0-4v-4m0-4v-3.98m0-4v-4m0-4v-4m0-4v-4m0-4v-4m0-4v-2l.07-.93.22-.9.17-.45" stroke="#000" fill="none"/><path d="M160-174a6 6 0 0 1 6-6h848a6 6 0 0 1 6 6v308a6 6 0 0 1-6 6H166a6 6 0 0 1-6-6z" fill-opacity="0"/><path d="M163.7-179.53l.45-.18.9-.23.95-.07h2m4 0h4m4 0h4m4 0h4m4 0h4m4 0h4m4 0h4m4 0h4m4 0h4m4 0h4m4 0h4m4 0h4m4 0h4m4 0h4m4 0h4m4 0h4m4 0h4m4 0h4m4 0h4m4 0h4m4 0h4m4 0h4m4 0h4m4 0h4m4 0h4m4 0h4m4 0h4m4 0h4m4 0h4m4 0h4m4 0h4m4 0h4m4 0h4m4 0h4m4 0h4m4 0h4m4 0h4m4 0h4m4 0h4m4 0h4m4 0h4m4 0h4m4 0h4m4 0h4m4 0h4m4 0h4m4 0h4m4 0h4m4 0h4m4 0h4m4 0h4m4 0h4m4 0h4m4 0h4m4 0h4m4 0h4m4 0h4m4 0h4m4 0h4m4 0h4m4 0h4m4 0h4m4 0h4m4 0h4m4 0h4m4 0h4m4 0h4m4 0h4m4 0h4m4 0h4m4 0h4m4 0h4m4 0h4m4 0h4m4 0h4m4 0h4m4 0h4m4 0h4m4 0h4m4 0h4m4 0h4m4 0h4m4 0h4m4 0h4m4 0h4m4 0h4m4 0h4m4 0h4m4 0h4m4 0h4m4 0h4m4 0h4m4 0h4m4 0h4m4 0h4m4 0h4m4 0h4m4 0h4m4 0h4m4 0h4m4 0h4m4 0h4m4 0h4m4 0h4m4 0h4m4 0h4m4 0h2l.94.07.9.22.45.17m3.23 3.24l.18.45.23.9.07.95v1.97m0 3.95v3.95m0 3.95v3.95m0 3.95v3.95m0 3.95v3.94m0 3.95v3.96m0 3.95v3.96m0 3.95v3.96m0 3.94v3.95m0 3.95v3.95m0 3.95v3.95m0 3.95v3.95m0 3.95v3.94m0 3.95v3.94m0 3.95v3.94m0 3.95v3.94m0 3.95v3.93m0 3.95v3.95m0 3.95v3.95m0 3.95v3.95m0 3.94v3.95m0 3.95v3.95m0 3.95v3.95m0 3.95v3.95m0 3.94v3.95m0 3.96v3.95m0 3.96v3.95m0 3.96v3.95m0 3.95v3.95m0 3.95V57m0 3.95v3.95m0 3.95v3.95m0 3.94v3.95m0 3.94v3.95m0 3.94v3.95m0 3.94v3.95m0 3.93v3.95m0 3.95v3.95m0 3.95v3.95m0 3.95V134l-.07.94-.22.9-.17.45m-3.24 3.23l-.45.18-.9.23-.95.07h-2m-4 0h-4m-4 0h-4m-4 0h-4m-4 0h-4m-4 0h-4m-4 0h-4m-4 0h-4m-4 0h-4m-4 0h-4m-4 0h-4m-4 0h-4m-4 0h-4m-4 0h-4m-4 0h-4m-4 0h-4m-4 0h-4m-4 0h-4m-4 0h-4m-4 0h-4m-4 0h-4m-4 0h-4m-4 0h-4m-4 0h-4m-4 0h-4m-4 0h-4m-4 0h-4m-4 0h-4m-4 0h-4m-4 0h-4m-4 0h-4m-4 0h-4m-4 0h-4m-4 0h-4m-4 0h-4m-4 0h-4m-4 0h-4m-4 0h-4m-4 0h-4m-4 0h-4m-4 0h-4m-4 0h-4m-4 0h-4m-4 0h-4m-4 0h-4m-4 0h-4m-4 0h-4m-4 0h-4m-4 0h-4m-4 0h-4m-4 0h-4m-4 0h-4m-4 0h-4m-4 0h-4m-4 0h-4m-4 0h-4m-4 0h-4m-4 0h-4m-4 0h-4m-4 0h-4m-4 0h-4m-4 0h-4m-4 0h-4m-4 0h-4m-4 0h-4m-4 0h-4m-4 0h-4m-4 0h-4m-4 0h-4m-4 0h-4m-4 0h-4m-4 0h-4m-4 0h-4m-4 0h-4m-4 0h-4m-4 0h-4m-4 0h-4m-4 0h-4m-4 0h-4m-4 0h-4m-4 0h-4m-4 0h-4m-4 0h-4m-4 0h-4m-4 0h-4m-4 0h-4m-4 0h-4m-4 0h-4m-4 0h-4m-4 0h-4m-4 0h-4m-4 0h-4m-4 0h-4m-4 0h-4m-4 0h-4m-4 0h-4m-4 0h-4m-4 0h-4m-4 0h-4m-4 0h-4m-4 0h-4m-4 0h-4m-4 0h-4m-4 0h-4m-4 0h-4m-4 0h-4m-4 0h-2l-.94-.07-.9-.22-.45-.17m-3.23-3.24l-.18-.45-.23-.9-.07-.95v-1.97m0-3.95v-3.95m0-3.95v-3.95m0-3.95v-3.95m0-3.94v-3.96m0-3.95v-3.96m0-3.95v-3.96m0-3.95v-3.96m0-3.94v-3.95m0-3.95v-3.95m0-3.95v-3.95m0-3.95v-3.95m0-3.95v-3.94m0-3.95v-3.94m0-3.95v-3.94m0-3.95v-3.94m0-3.95V5.7m0-3.95v-3.95m0-3.95v-3.95m0-3.95v-3.95m0-3.94v-3.95m0-3.95v-3.95m0-3.95v-3.95m0-3.95v-3.95m0-3.94v-3.95m0-3.96v-3.95m0-3.96v-3.95m0-3.96v-3.94m0-3.95v-3.95m0-3.95V-97m0-3.95v-3.95m0-3.95v-3.95m0-3.94v-3.95m0-3.94v-3.95m0-3.94v-3.95m0-3.94v-3.94m0-3.95v-3.95m0-3.95v-3.95m0-3.95v-3.95m0-3.95V-174l.07-.94.22-.9.17-.45" stroke="#000" fill="none"/><path d="M195-95.35a6 6 0 0 1 6-6h188a6 6 0 0 1 6 6v212.2a6 6 0 0 1-6 6H201a6 6 0 0 1-6-6z" stroke="#000" fill="#fff"/><use xlink:href="#a" transform="matrix(1,0,0,1,215,-81.35013291724448) translate(35.03086419753086 17.77777777777778)"/><use xlink:href="#b" transform="matrix(1,0,0,1,215,-81.35013291724448) translate(112.62345679012346 17.77777777777778)"/><path d="M470-274a6 6 0 0 1 6-6h228a6 6 0 0 1 6 6v28a6 6 0 0 1-6 6H476a6 6 0 0 1-6-6z" stroke="#000" stroke-opacity="0" fill="#fff" fill-opacity="0"/><use xlink:href="#c" transform="matrix(1,0,0,1,475,-275) translate(27.191358024691354 19.65277777777778)"/><use xlink:href="#d" transform="matrix(1,0,0,1,475,-275) translate(82.19135802469135 19.65277777777778)"/><path d="M314.5-141.35c0 10.9-8.84 19.75-19.75 19.75-10.9 0-19.75-8.84-19.75-19.75 0-10.9 8.84-19.75 19.75-19.75 10.9 0 19.75 8.84 19.75 19.75z" stroke="#3a414a" fill-opacity="0"/><path d="M304.68-141.35c0 5.48-4.45 9.92-9.93 9.92-5.48 0-9.93-4.44-9.93-9.92 0-5.48 4.45-9.93 9.93-9.93 5.48 0 9.93 4.45 9.93 9.93z" stroke="#3a414a" fill-opacity="0"/><path d="M297.6-141.35c0 1.58-1.27 2.86-2.85 2.86s-2.86-1.27-2.86-2.85 1.27-2.86 2.85-2.86 2.86 1.27 2.86 2.85z" stroke="#3a414a"/><path d="M287.87-101.35h13.76l-6.88-40z" stroke="#3a414a"/><path d="M590-239.5v58.5" stroke="#3a414a" fill="none"/><path d="M590.5-239.5h-1v-.5h1zM590.5-180.5h-1v-.5h1z" stroke="#3a414a" stroke-width=".05" fill="#3a414a"/><path d="M657.56 12.9c0 5.6-4.53 10.13-10.12 10.13-5.6 0-10.13-4.53-10.13-10.12 0-5.58 4.55-10.12 10.14-10.12 5.6 0 10.12 4.54 10.12 10.13zM752.7 12.9c0 5.6-4.55 10.13-10.14 10.13-5.6 0-10.12-4.53-10.12-10.12 0-5.58 4.53-10.12 10.12-10.12 5.6 0 10.13 4.54 10.13 10.13zM705.13 12.9c0 5.6-4.54 10.13-10.13 10.13-5.6 0-10.13-4.53-10.13-10.12 0-5.58 4.54-10.12 10.13-10.12 5.6 0 10.13 4.54 10.13 10.13z" stroke="#3a414a" stroke-width="2"/><path d="M215-34.3a6 6 0 0 1 6-6h148a6 6 0 0 1 6 6v51.33a6 6 0 0 1-6 6H221a6 6 0 0 1-6-6z" stroke="#000" fill="#fff" fill-opacity="0"/><use xlink:href="#e" transform="matrix(1,0,0,1,220,-35.30066458622273) translate(58.95061728395062 21.15277777777778)"/><use xlink:href="#f" transform="matrix(1,0,0,1,220,-35.30066458622273) translate(2.5 47.81944444444444)"/><use xlink:href="#g" transform="matrix(1,0,0,1,220,-35.30066458622273) translate(99.35185185185185 47.81944444444444)"/><path d="M215 44.65a6 6 0 0 1 6-6h148a6 6 0 0 1 6 6v51.33a6 6 0 0 1-6 6H221a6 6 0 0 1-6-6z" stroke="#000" fill="#fff" fill-opacity="0"/><use xlink:href="#e" transform="matrix(1,0,0,1,220,43.64986708275554) translate(58.95061728395062 21.15277777777778)"/><use xlink:href="#h" transform="matrix(1,0,0,1,220,43.64986708275554) translate(12.71604938271605 47.81944444444444)"/><use xlink:href="#g" transform="matrix(1,0,0,1,220,43.64986708275554) translate(89.1358024691358 47.81944444444444)"/><path d="M415-95.35a6 6 0 0 1 6-6h188a6 6 0 0 1 6 6v212.2a6 6 0 0 1-6 6H421a6 6 0 0 1-6-6z" stroke="#000" fill="#fff"/><use xlink:href="#a" transform="matrix(1,0,0,1,435,-81.35013291724448) translate(35.03086419753086 17.77777777777778)"/><use xlink:href="#i" transform="matrix(1,0,0,1,435,-81.35013291724448) translate(112.62345679012346 17.77777777777778)"/><path d="M534.5-141.35c0 10.9-8.84 19.75-19.75 19.75-10.9 0-19.75-8.84-19.75-19.75 0-10.9 8.84-19.75 19.75-19.75 10.9 0 19.75 8.84 19.75 19.75z" stroke="#3a414a" fill-opacity="0"/><path d="M524.67-141.35c0 5.48-4.44 9.92-9.92 9.92-5.48 0-9.93-4.44-9.93-9.92 0-5.48 4.45-9.93 9.93-9.93 5.48 0 9.92 4.45 9.92 9.93z" stroke="#3a414a" fill-opacity="0"/><path d="M517.6-141.35c0 1.58-1.27 2.86-2.85 2.86s-2.86-1.27-2.86-2.85 1.27-2.86 2.85-2.86 2.86 1.27 2.86 2.85z" stroke="#3a414a"/><path d="M507.87-101.35h13.76l-6.88-40z" stroke="#3a414a"/><path d="M435-34.3a6 6 0 0 1 6-6h148a6 6 0 0 1 6 6v51.33a6 6 0 0 1-6 6H441a6 6 0 0 1-6-6z" stroke="#000" fill="#fff" fill-opacity="0"/><use xlink:href="#e" transform="matrix(1,0,0,1,440,-35.30066458622273) translate(58.95061728395062 21.15277777777778)"/><use xlink:href="#f" transform="matrix(1,0,0,1,440,-35.30066458622273) translate(2.5 47.81944444444444)"/><use xlink:href="#g" transform="matrix(1,0,0,1,440,-35.30066458622273) translate(99.35185185185185 47.81944444444444)"/><path d="M435 44.65a6 6 0 0 1 6-6h148a6 6 0 0 1 6 6v51.33a6 6 0 0 1-6 6H441a6 6 0 0 1-6-6z" stroke="#000" fill="#fff" fill-opacity="0"/><use xlink:href="#e" transform="matrix(1,0,0,1,440,43.64986708275554) translate(58.95061728395062 21.15277777777778)"/><use xlink:href="#h" transform="matrix(1,0,0,1,440,43.64986708275554) translate(12.71604938271605 47.81944444444444)"/><use xlink:href="#g" transform="matrix(1,0,0,1,440,43.64986708275554) translate(89.1358024691358 47.81944444444444)"/><path d="M780-95.38a6 6 0 0 1 6-6h188a6 6 0 0 1 6 6v212.2a6 6 0 0 1-6 6H786a6 6 0 0 1-6-6z" stroke="#000" fill="#fff"/><use xlink:href="#a" transform="matrix(1,0,0,1,800,-81.38373208506692) translate(35.03086419753086 17.77777777777778)"/><use xlink:href="#j" transform="matrix(1,0,0,1,800,-81.38373208506692) translate(112.62345679012346 17.77777777777778)"/><path d="M899.5-144.2c0 10.9-8.84 19.74-19.75 19.74-10.9 0-19.75-8.85-19.75-19.75 0-10.92 8.84-19.76 19.75-19.76 10.9 0 19.75 8.84 19.75 19.75z" stroke="#3a414a" fill-opacity="0"/><path d="M889.67-144.2c0 5.47-4.44 9.9-9.92 9.9-5.48 0-9.92-4.43-9.92-9.9 0-5.5 4.44-9.94 9.92-9.94 5.48 0 9.92 4.44 9.92 9.93z" stroke="#3a414a" fill-opacity="0"/><path d="M882.6-144.2c0 1.57-1.27 2.85-2.85 2.85s-2.86-1.28-2.86-2.86c0-1.6 1.27-2.88 2.85-2.88s2.86 1.28 2.86 2.87z" stroke="#3a414a"/><path d="M872.87-101.38h13.76l-6.88-40z" stroke="#3a414a"/><path d="M800-34.33a6 6 0 0 1 6-6h148a6 6 0 0 1 6 6V17a6 6 0 0 1-6 6H806a6 6 0 0 1-6-6z" stroke="#000" fill="#fff" fill-opacity="0"/><use xlink:href="#e" transform="matrix(1,0,0,1,805,-35.33426375404529) translate(58.95061728395062 21.15277777777778)"/><use xlink:href="#f" transform="matrix(1,0,0,1,805,-35.33426375404529) translate(2.5 47.81944444444444)"/><use xlink:href="#g" transform="matrix(1,0,0,1,805,-35.33426375404529) translate(99.35185185185185 47.81944444444444)"/><path d="M800 44.62a6 6 0 0 1 6-6h148a6 6 0 0 1 6 6v51.33a6 6 0 0 1-6 6H806a6 6 0 0 1-6-6z" stroke="#000" fill="#fff" fill-opacity="0"/><use xlink:href="#e" transform="matrix(1,0,0,1,805,43.61626791493304) translate(58.95061728395062 21.15277777777778)"/><use xlink:href="#h" transform="matrix(1,0,0,1,805,43.61626791493304) translate(12.71604938271605 47.81944444444444)"/><use xlink:href="#g" transform="matrix(1,0,0,1,805,43.61626791493304) translate(89.1358024691358 47.81944444444444)"/><path d="M291.9 161a6 6 0 0 1 6-6H914a6 6 0 0 1 6 6v78a6 6 0 0 1-6 6H297.9a6 6 0 0 1-6-6z" stroke="#000" stroke-opacity="0" fill="#fff" fill-opacity="0"/><g><use xlink:href="#k" transform="matrix(1,0,0,1,296.88563564818384,160) translate(16.537037037037067 45.27777777777778)"/><use xlink:href="#l" transform="matrix(1,0,0,1,296.88563564818384,160) translate(63.38888888888892 45.27777777777778)"/><use xlink:href="#m" transform="matrix(1,0,0,1,296.88563564818384,160) translate(93.01851851851855 45.27777777777778)"/><use xlink:href="#n" transform="matrix(1,0,0,1,296.88563564818384,160) translate(153.45061728395063 45.27777777777778)"/><use xlink:href="#o" transform="matrix(1,0,0,1,296.88563564818384,160) translate(253.3888888888889 45.27777777777778)"/><use xlink:href="#p" transform="matrix(1,0,0,1,296.88563564818384,160) translate(283.01851851851853 45.27777777777778)"/><use xlink:href="#q" transform="matrix(1,0,0,1,296.88563564818384,160) translate(324.9938271604938 45.27777777777778)"/><use xlink:href="#r" transform="matrix(1,0,0,1,296.88563564818384,160) translate(380.54938271604937 45.27777777777778)"/><use xlink:href="#s" transform="matrix(1,0,0,1,296.88563564818384,160) translate(411.41358024691357 45.27777777777778)"/><use xlink:href="#t" transform="matrix(1,0,0,1,296.88563564818384,160) translate(460.7345679012345 45.27777777777778)"/><use xlink:href="#u" transform="matrix(1,0,0,1,296.88563564818384,160) translate(512.4629629629629 45.27777777777778)"/></g><path d="M290 306a6 6 0 0 1 6-6h908a6 6 0 0 1 6 6v66.33a6 6 0 0 1-6 6H296a6 6 0 0 1-6-6z" stroke="#000" stroke-opacity="0" fill="#fff" fill-opacity="0"/><g><use xlink:href="#v" transform="matrix(1,0,0,1,294.99999999999994,305) translate(49.78395061728395 39.34027777777778)"/><use xlink:href="#w" transform="matrix(1,0,0,1,294.99999999999994,305) translate(191.4506172839506 39.34027777777778)"/><use xlink:href="#x" transform="matrix(1,0,0,1,294.99999999999994,305) translate(237.00617283950618 39.34027777777778)"/><use xlink:href="#y" transform="matrix(1,0,0,1,294.99999999999994,305) translate(318.24074074074076 39.34027777777778)"/><use xlink:href="#z" transform="matrix(1,0,0,1,294.99999999999994,305) translate(379.78395061728395 39.34027777777778)"/><use xlink:href="#A" transform="matrix(1,0,0,1,294.99999999999994,305) translate(430.27777777777777 39.34027777777778)"/><use xlink:href="#B" transform="matrix(1,0,0,1,294.99999999999994,305) translate(509.0432098765432 39.34027777777778)"/><use xlink:href="#C" transform="matrix(1,0,0,1,294.99999999999994,305) translate(610.0308641975308 39.34027777777778)"/><use xlink:href="#D" transform="matrix(1,0,0,1,294.99999999999994,305) translate(638.3641975308642 39.34027777777778)"/><use xlink:href="#E" transform="matrix(1,0,0,1,294.99999999999994,305) translate(703.6111111111111 39.34027777777778)"/><use xlink:href="#F" transform="matrix(1,0,0,1,294.99999999999994,305) translate(773.858024691358 39.34027777777778)"/></g><path d="M750 299.5V261" stroke="#000" fill="none"/><path d="M750.5 300h-1v-.5h1zM750.5 261h-1v-.5h1z" stroke="#000" stroke-width=".05"/><path d="M1160-74a6 6 0 0 1 6-6h165.2a6 6 0 0 1 6 6V95.98a6 6 0 0 1-6 6H1166a6 6 0 0 1-6-6z" stroke="#fff" fill="#141414"/><g><use xlink:href="#G" transform="matrix(1,0,0,1,1172,-68) translate(18.111111111111136 70.70833333333333)"/><use xlink:href="#H" transform="matrix(1,0,0,1,1172,-68) translate(10.370370370370395 102.70833333333331)"/><use xlink:href="#I" transform="matrix(1,0,0,1,1172,-68) translate(63.62962962962963 102.70833333333331)"/></g><path d="M1159 11h-49.68" stroke="#000" fill="none"/><path d="M1159.5 11.5h-.5v-1h.5zM1109.33 11.5h-.58l.07-.5-.07-.5h.58z" stroke="#000" stroke-width=".05"/><path d="M1078.5 11H1021" stroke="#000" fill="none"/><path d="M1079 11l.06.5h-.58v-1h.58zM1021 11.5h-.5v-1h.5z" stroke="#000" stroke-width=".05"/><path d="M1107.8 11c0 7.67-6.22 13.9-13.9 13.9-7.68 0-13.9-6.23-13.9-13.9 0-7.7 6.22-13.9 13.9-13.9 7.68 0 13.9 6.2 13.9 13.9z" stroke="#3a414a" stroke-width="2" fill="#fff"/><defs><path fill="#3a414a" d="M247 0h-39l-15-214-24 57L95 0H56L31-248h35L82-30l101-218h33l16 218 101-218h35" id="J"/><path fill="#3a414a" d="M30-147c31-64 166-65 159 27C183-49 158 1 86 4 9 8 1-88 30-147zM88-20c53 0 68-48 68-100 0-31-11-51-44-50-52 1-68 46-68 97 0 32 13 53 44 53" id="K"/><path fill="#3a414a" d="M66-151c12-25 30-51 66-40l-6 26C45-176 58-65 38 0H6l36-190h30" id="L"/><path fill="#3a414a" d="M127 0L80-88 50-66 37 0H6l51-261h31L57-100l99-90h39l-93 82L161 0h-34" id="M"/><path fill="#3a414a" d="M111-194c62-3 86 47 72 106H45c-7 38 6 69 45 68 27-1 43-14 53-32l24 11C152-15 129 4 87 4 38 3 12-23 12-71c0-70 32-119 99-123zm44 81c14-66-71-72-95-28-4 8-8 17-11 28h106" id="N"/><g id="a"><use transform="matrix(0.06172839506172839,0,0,0.06172839506172839,0,0)" xlink:href="#J"/><use transform="matrix(0.06172839506172839,0,0,0.06172839506172839,20.925925925925924,0)" xlink:href="#K"/><use transform="matrix(0.06172839506172839,0,0,0.06172839506172839,33.2716049382716,0)" xlink:href="#L"/><use transform="matrix(0.06172839506172839,0,0,0.06172839506172839,40.61728395061728,0)" xlink:href="#M"/><use transform="matrix(0.06172839506172839,0,0,0.06172839506172839,51.72839506172839,0)" xlink:href="#N"/><use transform="matrix(0.06172839506172839,0,0,0.06172839506172839,64.07407407407408,0)" xlink:href="#L"/></g><path fill="#3a414a" d="M9 0l6-27h63l36-188-63 39 6-31 66-41h29L110-27h60l-5 27H9" id="O"/><use transform="matrix(0.06172839506172839,0,0,0.06172839506172839,0,0)" xlink:href="#O" id="b"/><path fill="#3a414a" d="M146-102V0H94v-102L6-248h54l60 105 60-105h54" id="P"/><path fill="#3a414a" d="M110-194c64 0 96 36 96 99 0 64-35 99-97 99-61 0-95-36-95-99 0-62 34-99 96-99zm-1 164c35 0 45-28 45-65 0-40-10-65-43-65-34 0-45 26-45 65 0 36 10 65 43 65" id="Q"/><path fill="#3a414a" d="M85 4C-2 5 27-109 22-190h50c7 57-23 150 33 157 60-5 35-97 40-157h50l1 190h-47c-2-12 1-28-3-38-12 25-28 42-61 42" id="R"/><path fill="#3a414a" d="M135-150c-39-12-60 13-60 57V0H25l-1-190h47c2 13-1 29 3 40 6-28 27-53 61-41v41" id="S"/><g id="c"><use transform="matrix(0.06172839506172839,0,0,0.06172839506172839,0,0)" xlink:href="#P"/><use transform="matrix(0.06172839506172839,0,0,0.06172839506172839,13.148148148148147,0)" xlink:href="#Q"/><use transform="matrix(0.06172839506172839,0,0,0.06172839506172839,26.666666666666664,0)" xlink:href="#R"/><use transform="matrix(0.06172839506172839,0,0,0.06172839506172839,40.18518518518518,0)" xlink:href="#S"/></g><path fill="#3a414a" d="M199 0l-22-63H83L61 0H9l90-248h61L250 0h-51zm-33-102l-36-108c-10 38-24 72-36 108h72" id="T"/><path fill="#3a414a" d="M135-194c53 0 70 44 70 98 0 56-19 98-73 100-31 1-45-17-59-34 3 33 2 69 2 105H25l-1-265h48c2 10 0 23 3 31 11-24 29-35 60-35zM114-30c33 0 39-31 40-66 0-38-9-64-40-64-56 0-55 130 0 130" id="U"/><path fill="#3a414a" d="M25 0v-261h50V0H25" id="V"/><path fill="#3a414a" d="M25-224v-37h50v37H25zM25 0v-190h50V0H25" id="W"/><path fill="#3a414a" d="M190-63c-7 42-38 67-86 67-59 0-84-38-90-98-12-110 154-137 174-36l-49 2c-2-19-15-32-35-32-30 0-35 28-38 64-6 74 65 87 74 30" id="X"/><path fill="#3a414a" d="M133-34C117-15 103 5 69 4 32 3 11-16 11-54c-1-60 55-63 116-61 1-26-3-47-28-47-18 1-26 9-28 27l-52-2c7-38 36-58 82-57s74 22 75 68l1 82c-1 14 12 18 25 15v27c-30 8-71 5-69-32zm-48 3c29 0 43-24 42-57-32 0-66-3-65 30 0 17 8 27 23 27" id="Y"/><path fill="#3a414a" d="M115-3C79 11 28 4 28-45v-112H4v-33h27l15-45h31v45h36v33H77v99c-1 23 16 31 38 25v30" id="Z"/><path fill="#3a414a" d="M135-194c87-1 58 113 63 194h-50c-7-57 23-157-34-157-59 0-34 97-39 157H25l-1-190h47c2 12-1 28 3 38 12-26 28-41 61-42" id="aa"/><g id="d"><use transform="matrix(0.06172839506172839,0,0,0.06172839506172839,0,0)" xlink:href="#T"/><use transform="matrix(0.06172839506172839,0,0,0.06172839506172839,15.987654320987653,0)" xlink:href="#U"/><use transform="matrix(0.06172839506172839,0,0,0.06172839506172839,29.50617283950617,0)" xlink:href="#U"/><use transform="matrix(0.06172839506172839,0,0,0.06172839506172839,43.02469135802469,0)" xlink:href="#V"/><use transform="matrix(0.06172839506172839,0,0,0.06172839506172839,49.19753086419753,0)" xlink:href="#W"/><use transform="matrix(0.06172839506172839,0,0,0.06172839506172839,55.370370370370374,0)" xlink:href="#X"/><use transform="matrix(0.06172839506172839,0,0,0.06172839506172839,67.71604938271605,0)" xlink:href="#Y"/><use transform="matrix(0.06172839506172839,0,0,0.06172839506172839,80.06172839506173,0)" xlink:href="#Z"/><use transform="matrix(0.06172839506172839,0,0,0.06172839506172839,87.40740740740742,0)" xlink:href="#W"/><use transform="matrix(0.06172839506172839,0,0,0.06172839506172839,93.58024691358025,0)" xlink:href="#Q"/><use transform="matrix(0.06172839506172839,0,0,0.06172839506172839,107.09876543209877,0)" xlink:href="#aa"/></g><path fill="#3a414a" d="M18-100v-36l175-74v27L42-118l151 64v27" id="ab"/><path fill="#3a414a" d="M0 4l72-265h28L28 4H0" id="ac"/><path fill="#3a414a" d="M18-27v-27l151-64-151-65v-27l175 74v36" id="ad"/><g id="e"><use transform="matrix(0.06172839506172839,0,0,0.06172839506172839,0,0)" xlink:href="#ab"/><use transform="matrix(0.06172839506172839,0,0,0.06172839506172839,12.962962962962962,0)" xlink:href="#ac"/><use transform="matrix(0.06172839506172839,0,0,0.06172839506172839,19.1358024691358,0)" xlink:href="#ad"/></g><path fill="#3a414a" d="M266 0h-40l-56-210L115 0H75L2-248h35L96-30l15-64 43-154h32l59 218 59-218h35" id="ae"/><path fill="#3a414a" d="M100-194c62-1 85 37 85 99 1 63-27 99-86 99S16-35 15-95c0-66 28-99 85-99zM99-20c44 1 53-31 53-75 0-43-8-75-51-75s-53 32-53 75 10 74 51 75" id="af"/><path fill="#3a414a" d="M114-163C36-179 61-72 57 0H25l-1-190h30c1 12-1 29 2 39 6-27 23-49 58-41v29" id="ag"/><path fill="#3a414a" d="M143 0L79-87 56-68V0H24v-261h32v163l83-92h37l-77 82L181 0h-38" id="ah"/><path fill="#3a414a" d="M101-234c-31-9-42 10-38 44h38v23H63V0H32v-167H5v-23h27c-7-52 17-82 69-68v24" id="ai"/><path fill="#3a414a" d="M24 0v-261h32V0H24" id="aj"/><path fill="#3a414a" d="M206 0h-36l-40-164L89 0H53L-1-190h32L70-26l43-164h34l41 164 42-164h31" id="ak"/><g id="f"><use transform="matrix(0.06172839506172839,0,0,0.06172839506172839,0,0)" xlink:href="#ae"/><use transform="matrix(0.06172839506172839,0,0,0.06172839506172839,20.493827160493826,0)" xlink:href="#af"/><use transform="matrix(0.06172839506172839,0,0,0.06172839506172839,32.839506172839506,0)" xlink:href="#ag"/><use transform="matrix(0.06172839506172839,0,0,0.06172839506172839,40.18518518518518,0)" xlink:href="#ah"/><use transform="matrix(0.06172839506172839,0,0,0.06172839506172839,51.29629629629629,0)" xlink:href="#ai"/><use transform="matrix(0.06172839506172839,0,0,0.06172839506172839,57.46913580246913,0)" xlink:href="#aj"/><use transform="matrix(0.06172839506172839,0,0,0.06172839506172839,62.34567901234568,0)" xlink:href="#af"/><use transform="matrix(0.06172839506172839,0,0,0.06172839506172839,74.69135802469135,0)" xlink:href="#ak"/></g><path fill="#3a414a" d="M96-169c-40 0-48 33-48 73s9 75 48 75c24 0 41-14 43-38l32 2c-6 37-31 61-74 61-59 0-76-41-82-99-10-93 101-131 147-64 4 7 5 14 7 22l-32 3c-4-21-16-35-41-35" id="al"/><path fill="#3a414a" d="M85-194c31 0 48 13 60 33l-1-100h32l1 261h-30c-2-10 0-23-3-31C134-8 116 4 85 4 32 4 16-35 15-94c0-66 23-100 70-100zm9 24c-40 0-46 34-46 75 0 40 6 74 45 74 42 0 51-32 51-76 0-42-9-74-50-73" id="am"/><path fill="#3a414a" d="M100-194c63 0 86 42 84 106H49c0 40 14 67 53 68 26 1 43-12 49-29l28 8c-11 28-37 45-77 45C44 4 14-33 15-96c1-61 26-98 85-98zm52 81c6-60-76-77-97-28-3 7-6 17-6 28h103" id="an"/><g id="g"><use transform="matrix(0.06172839506172839,0,0,0.06172839506172839,0,0)" xlink:href="#al"/><use transform="matrix(0.06172839506172839,0,0,0.06172839506172839,11.11111111111111,0)" xlink:href="#af"/><use transform="matrix(0.06172839506172839,0,0,0.06172839506172839,23.45679012345679,0)" xlink:href="#am"/><use transform="matrix(0.06172839506172839,0,0,0.06172839506172839,35.80246913580247,0)" xlink:href="#an"/></g><path fill="#3a414a" d="M205 0l-28-72H64L36 0H1l101-248h38L239 0h-34zm-38-99l-47-123c-12 45-31 82-46 123h93" id="ao"/><path fill="#3a414a" d="M59-47c-2 24 18 29 38 22v24C64 9 27 4 27-40v-127H5v-23h24l9-43h21v43h35v23H59v120" id="ap"/><path fill="#3a414a" d="M24-231v-30h32v30H24zM24 0v-190h32V0H24" id="aq"/><path fill="#3a414a" d="M108 0H70L1-190h34L89-25l56-165h34" id="ar"/><path fill="#3a414a" d="M179-190L93 31C79 59 56 82 12 73V49c39 6 53-20 64-50L1-190h34L92-34l54-156h33" id="as"/><g id="h"><use transform="matrix(0.06172839506172839,0,0,0.06172839506172839,0,0)" xlink:href="#ao"/><use transform="matrix(0.06172839506172839,0,0,0.06172839506172839,14.814814814814813,0)" xlink:href="#al"/><use transform="matrix(0.06172839506172839,0,0,0.06172839506172839,25.925925925925924,0)" xlink:href="#ap"/><use transform="matrix(0.06172839506172839,0,0,0.06172839506172839,32.098765432098766,0)" xlink:href="#aq"/><use transform="matrix(0.06172839506172839,0,0,0.06172839506172839,36.97530864197531,0)" xlink:href="#ar"/><use transform="matrix(0.06172839506172839,0,0,0.06172839506172839,48.08641975308642,0)" xlink:href="#aq"/><use transform="matrix(0.06172839506172839,0,0,0.06172839506172839,52.96296296296296,0)" xlink:href="#ap"/><use transform="matrix(0.06172839506172839,0,0,0.06172839506172839,59.135802469135804,0)" xlink:href="#as"/></g><path fill="#3a414a" d="M123-251c66 0 92 69 53 113C138-94 73-75 39-27h128l-5 27H-2c17-92 123-93 159-163 14-28-1-64-36-62-29 2-46 17-54 41l-30-6c13-36 37-61 86-61" id="at"/><use transform="matrix(0.06172839506172839,0,0,0.06172839506172839,0,0)" xlink:href="#at" id="i"/><path fill="#3a414a" d="M67-158c22-48 132-52 116 29L158 0h-32l25-140c3-38-53-32-70-12C52-117 51-52 38 0H6l36-190h30" id="au"/><use transform="matrix(0.06172839506172839,0,0,0.06172839506172839,0,0)" xlink:href="#au" id="j"/><path fill="#3a414a" d="M249-183c0 48-29 72-75 77L221 0h-36l-43-103H65L45 0H11l48-248c83 2 190-17 190 65zm-34 3c0-55-74-39-127-41l-18 92c63-1 145 13 145-51" id="av"/><path fill="#3a414a" d="M67 3c-93-2-31-127-26-193h32L48-50c-3 39 53 32 70 12 30-34 30-101 43-152h32L157 0h-30c1-10 6-24 4-33-14 20-29 37-64 36" id="aw"/><g id="k"><use transform="matrix(0.06172839506172839,0,0,0.06172839506172839,0,0)" xlink:href="#av"/><use transform="matrix(0.06172839506172839,0,0,0.06172839506172839,15.987654320987653,0)" xlink:href="#aw"/><use transform="matrix(0.06172839506172839,0,0,0.06172839506172839,28.333333333333332,0)" xlink:href="#au"/></g><path fill="#3a414a" d="M165-48c-4 18 1 34 23 27l-3 20c-29 8-62 0-52-35h-2C116-14 99 4 63 4 30 4 8-16 8-49c0-68 71-67 138-67 10-26 0-56-31-54-26 1-42 9-47 31l-32-5c8-67 160-71 144 15-5 28-9 54-15 81zM42-50c3 52 80 24 89-6 7-12 7-24 11-38-47 1-103-4-100 44" id="ax"/><path fill="#3a414a" d="M55-144c13 50 104 24 104 88C159 21 15 23 1-39l26-10c6 40 102 42 102-4-13-50-104-23-104-87 0-71 143-71 148-8l-29 4c-5-35-85-37-89 0" id="ay"/><g id="l"><use transform="matrix(0.06172839506172839,0,0,0.06172839506172839,0,0)" xlink:href="#ax"/><use transform="matrix(0.06172839506172839,0,0,0.06172839506172839,12.345679012345679,0)" xlink:href="#ay"/></g><path fill="#3a414a" d="M248-111c6-24 9-61-24-58-72 9-57 108-77 169h-31l26-142c3-37-50-30-64-10C52-115 50-51 37 0H6l36-190h30c-1 10-6 24-4 32 13-43 101-52 105 5 13-22 29-41 61-41 90 0 28 129 23 194h-31" id="az"/><path fill="#3a414a" d="M198-190L69 30C53 58 25 83-20 72c4-11-1-27 19-22 33-1 43-29 59-52L20-190h32L79-34l84-156h35" id="aA"/><g id="m"><use transform="matrix(0.06172839506172839,0,0,0.06172839506172839,0,0)" xlink:href="#az"/><use transform="matrix(0.06172839506172839,0,0,0.06172839506172839,18.456790123456788,0)" xlink:href="#ax"/><use transform="matrix(0.06172839506172839,0,0,0.06172839506172839,30.80246913580247,0)" xlink:href="#au"/><use transform="matrix(0.06172839506172839,0,0,0.06172839506172839,43.148148148148145,0)" xlink:href="#aA"/></g><path fill="#3a414a" d="M50-231l6-30h32l-6 30H50zM6 0l37-190h31L37 0H6" id="aB"/><path fill="#3a414a" d="M51-54c-9 22 5 41 31 30L79-1C43 14 10-4 19-52l22-115H19l5-23h22l19-43h21l-9 43h35l-4 23H73" id="aC"/><path fill="#3a414a" d="M44-68c0 29 11 47 38 47 30 0 42-19 51-41l28 9C148-21 126 4 82 4 31 4 10-29 12-85c3-77 74-140 146-93 12 8 15 23 18 40l-31 5c-1-22-13-36-36-36-52 0-65 49-65 101" id="aD"/><g id="n"><use transform="matrix(0.06172839506172839,0,0,0.06172839506172839,0,0)" xlink:href="#aB"/><use transform="matrix(0.06172839506172839,0,0,0.06172839506172839,4.876543209876543,0)" xlink:href="#au"/><use transform="matrix(0.06172839506172839,0,0,0.06172839506172839,17.22222222222222,0)" xlink:href="#ay"/><use transform="matrix(0.06172839506172839,0,0,0.06172839506172839,28.333333333333332,0)" xlink:href="#aC"/><use transform="matrix(0.06172839506172839,0,0,0.06172839506172839,34.50617283950617,0)" xlink:href="#ax"/><use transform="matrix(0.06172839506172839,0,0,0.06172839506172839,46.85185185185185,0)" xlink:href="#au"/><use transform="matrix(0.06172839506172839,0,0,0.06172839506172839,59.197530864197525,0)" xlink:href="#aD"/><use transform="matrix(0.06172839506172839,0,0,0.06172839506172839,70.30864197530863,0)" xlink:href="#N"/><use transform="matrix(0.06172839506172839,0,0,0.06172839506172839,82.65432098765432,0)" xlink:href="#ay"/></g><g id="o"><use transform="matrix(0.06172839506172839,0,0,0.06172839506172839,0,0)" xlink:href="#ax"/><use transform="matrix(0.06172839506172839,0,0,0.06172839506172839,12.345679012345679,0)" xlink:href="#ay"/></g><g id="p"><use transform="matrix(0.06172839506172839,0,0,0.06172839506172839,0,0)" xlink:href="#aA"/><use transform="matrix(0.06172839506172839,0,0,0.06172839506172839,11.11111111111111,0)" xlink:href="#K"/><use transform="matrix(0.06172839506172839,0,0,0.06172839506172839,23.45679012345679,0)" xlink:href="#aw"/></g><path fill="#3a414a" d="M133-28C103 26-5 8 13-77c13-62 24-115 90-117 29-1 46 15 56 35l19-102h32L160 0h-30zM45-64c-2 27 10 43 35 43 54-1 69-50 69-103 0-29-15-46-42-46-53-1-58 58-62 106" id="aE"/><g id="q"><use transform="matrix(0.06172839506172839,0,0,0.06172839506172839,0,0)" xlink:href="#au"/><use transform="matrix(0.06172839506172839,0,0,0.06172839506172839,12.345679012345679,0)" xlink:href="#N"/><use transform="matrix(0.06172839506172839,0,0,0.06172839506172839,24.691358024691358,0)" xlink:href="#N"/><use transform="matrix(0.06172839506172839,0,0,0.06172839506172839,37.03703703703704,0)" xlink:href="#aE"/></g><g id="r"><use transform="matrix(0.06172839506172839,0,0,0.06172839506172839,0,0)" xlink:href="#K"/><use transform="matrix(0.06172839506172839,0,0,0.06172839506172839,12.345679012345679,0)" xlink:href="#au"/></g><g id="s"><use transform="matrix(0.06172839506172839,0,0,0.06172839506172839,0,0)" xlink:href="#aA"/><use transform="matrix(0.06172839506172839,0,0,0.06172839506172839,11.11111111111111,0)" xlink:href="#K"/><use transform="matrix(0.06172839506172839,0,0,0.06172839506172839,23.45679012345679,0)" xlink:href="#aw"/><use transform="matrix(0.06172839506172839,0,0,0.06172839506172839,35.80246913580247,0)" xlink:href="#L"/></g><path fill="#3a414a" d="M6 0l50-261h32L37 0H6" id="aF"/><g id="t"><use transform="matrix(0.06172839506172839,0,0,0.06172839506172839,0,0)" xlink:href="#aF"/><use transform="matrix(0.06172839506172839,0,0,0.06172839506172839,4.876543209876543,0)" xlink:href="#K"/><use transform="matrix(0.06172839506172839,0,0,0.06172839506172839,17.22222222222222,0)" xlink:href="#aD"/><use transform="matrix(0.06172839506172839,0,0,0.06172839506172839,28.333333333333332,0)" xlink:href="#ax"/><use transform="matrix(0.06172839506172839,0,0,0.06172839506172839,40.67901234567901,0)" xlink:href="#aF"/></g><path fill="#3a414a" d="M67-158c15-20 31-36 64-36 94 0 33 127 27 194h-32l25-140c3-38-53-32-70-12C52-117 51-51 37 0H6l51-261h31" id="aG"/><path fill="#3a414a" d="M14 0l8-38h34L48 0H14" id="aH"/><g id="u"><use transform="matrix(0.06172839506172839,0,0,0.06172839506172839,0,0)" xlink:href="#az"/><use transform="matrix(0.06172839506172839,0,0,0.06172839506172839,18.456790123456788,0)" xlink:href="#ax"/><use transform="matrix(0.06172839506172839,0,0,0.06172839506172839,30.80246913580247,0)" xlink:href="#aD"/><use transform="matrix(0.06172839506172839,0,0,0.06172839506172839,41.91358024691358,0)" xlink:href="#aG"/><use transform="matrix(0.06172839506172839,0,0,0.06172839506172839,54.25925925925926,0)" xlink:href="#aB"/><use transform="matrix(0.06172839506172839,0,0,0.06172839506172839,59.135802469135804,0)" xlink:href="#au"/><use transform="matrix(0.06172839506172839,0,0,0.06172839506172839,71.48148148148148,0)" xlink:href="#N"/><use transform="matrix(0.06172839506172839,0,0,0.06172839506172839,83.82716049382717,0)" xlink:href="#aH"/></g><path fill="#3a414a" d="M24 0v-248h195v40H76v63h132v40H76v65h150V0H24" id="aI"/><path fill="#3a414a" d="M128 0H69L1-190h53L99-40l48-150h52" id="aJ"/><path fill="#3a414a" d="M220-157c-53 9-28 100-34 157h-49v-107c1-27-5-49-29-50C55-147 81-57 75 0H25l-1-190h47c2 12-1 28 3 38 10-53 101-56 108 0 13-22 24-43 59-42 82 1 51 116 57 194h-49v-107c-1-25-5-48-29-50" id="aK"/><path fill="#3a414a" d="M185-48c-13 30-37 53-82 52C43 2 14-33 14-96s30-98 90-98c62 0 83 45 84 108H66c0 31 8 55 39 56 18 0 30-7 34-22zm-45-69c5-46-57-63-70-21-2 6-4 13-4 21h74" id="aL"/><g id="v"><use transform="matrix(0.06172839506172839,0,0,0.06172839506172839,0,0)" xlink:href="#aI"/><use transform="matrix(0.06172839506172839,0,0,0.06172839506172839,14.814814814814813,0)" xlink:href="#aa"/><use transform="matrix(0.06172839506172839,0,0,0.06172839506172839,28.33333333333333,0)" xlink:href="#aJ"/><use transform="matrix(0.06172839506172839,0,0,0.06172839506172839,40.679012345679006,0)" xlink:href="#W"/><use transform="matrix(0.06172839506172839,0,0,0.06172839506172839,46.85185185185185,0)" xlink:href="#S"/><use transform="matrix(0.06172839506172839,0,0,0.06172839506172839,55.49382716049382,0)" xlink:href="#Q"/><use transform="matrix(0.06172839506172839,0,0,0.06172839506172839,69.01234567901234,0)" xlink:href="#aa"/><use transform="matrix(0.06172839506172839,0,0,0.06172839506172839,82.53086419753086,0)" xlink:href="#aK"/><use transform="matrix(0.06172839506172839,0,0,0.06172839506172839,102.28395061728395,0)" xlink:href="#aL"/><use transform="matrix(0.06172839506172839,0,0,0.06172839506172839,114.62962962962963,0)" xlink:href="#aa"/><use transform="matrix(0.06172839506172839,0,0,0.06172839506172839,128.14814814814815,0)" xlink:href="#Z"/></g><path fill="#3a414a" d="M123 10C108 53 80 86 19 72V37c35 8 53-11 59-39L3-190h52l48 148c12-52 28-100 44-148h51" id="aM"/><g id="w"><use transform="matrix(0.06172839506172839,0,0,0.06172839506172839,0,0)" xlink:href="#aM"/><use transform="matrix(0.06172839506172839,0,0,0.06172839506172839,12.345679012345679,0)" xlink:href="#Q"/><use transform="matrix(0.06172839506172839,0,0,0.06172839506172839,25.864197530864196,0)" xlink:href="#R"/></g><g id="x"><use transform="matrix(0.06172839506172839,0,0,0.06172839506172839,0,0)" xlink:href="#X"/><use transform="matrix(0.06172839506172839,0,0,0.06172839506172839,12.345679012345679,0)" xlink:href="#Q"/><use transform="matrix(0.06172839506172839,0,0,0.06172839506172839,25.864197530864196,0)" xlink:href="#aa"/><use transform="matrix(0.06172839506172839,0,0,0.06172839506172839,39.382716049382715,0)" xlink:href="#Z"/><use transform="matrix(0.06172839506172839,0,0,0.06172839506172839,46.72839506172839,0)" xlink:href="#S"/><use transform="matrix(0.06172839506172839,0,0,0.06172839506172839,55.37037037037037,0)" xlink:href="#Q"/><use transform="matrix(0.06172839506172839,0,0,0.06172839506172839,68.88888888888889,0)" xlink:href="#V"/></g><path fill="#3a414a" d="M67-93c0 74 22 123 53 168H70C40 30 18-18 18-93s22-123 52-168h50c-32 44-53 94-53 168" id="aN"/><g id="y"><use transform="matrix(0.06172839506172839,0,0,0.06172839506172839,0,0)" xlink:href="#aN"/><use transform="matrix(0.06172839506172839,0,0,0.06172839506172839,7.345679012345679,0)" xlink:href="#aM"/><use transform="matrix(0.06172839506172839,0,0,0.06172839506172839,19.691358024691358,0)" xlink:href="#Q"/><use transform="matrix(0.06172839506172839,0,0,0.06172839506172839,33.20987654320987,0)" xlink:href="#R"/><use transform="matrix(0.06172839506172839,0,0,0.06172839506172839,46.72839506172839,0)" xlink:href="#S"/></g><path fill="#3a414a" d="M231 0h-52l-39-155L100 0H48L-1-190h46L77-45c9-52 24-97 36-145h53l37 145 32-145h46" id="aO"/><g id="z"><use transform="matrix(0.06172839506172839,0,0,0.06172839506172839,0,0)" xlink:href="#Q"/><use transform="matrix(0.06172839506172839,0,0,0.06172839506172839,13.518518518518517,0)" xlink:href="#aO"/><use transform="matrix(0.06172839506172839,0,0,0.06172839506172839,30.80246913580247,0)" xlink:href="#aa"/></g><path fill="#3a414a" d="M76-54c-1 42 2 86-19 110H24C36 42 46 24 48 0H25v-54h51" id="aP"/><g id="A"><use transform="matrix(0.06172839506172839,0,0,0.06172839506172839,0,0)" xlink:href="#V"/><use transform="matrix(0.06172839506172839,0,0,0.06172839506172839,6.172839506172839,0)" xlink:href="#Y"/><use transform="matrix(0.06172839506172839,0,0,0.06172839506172839,18.51851851851852,0)" xlink:href="#U"/><use transform="matrix(0.06172839506172839,0,0,0.06172839506172839,32.03703703703704,0)" xlink:href="#Z"/><use transform="matrix(0.06172839506172839,0,0,0.06172839506172839,39.382716049382715,0)" xlink:href="#Q"/><use transform="matrix(0.06172839506172839,0,0,0.06172839506172839,52.901234567901234,0)" xlink:href="#U"/><use transform="matrix(0.06172839506172839,0,0,0.06172839506172839,66.41975308641975,0)" xlink:href="#aP"/></g><path fill="#3a414a" d="M14-72v-43h91v43H14" id="aQ"/><g id="B"><use transform="matrix(0.06172839506172839,0,0,0.06172839506172839,0,0)" xlink:href="#Q"/><use transform="matrix(0.06172839506172839,0,0,0.06172839506172839,13.518518518518517,0)" xlink:href="#aa"/><use transform="matrix(0.06172839506172839,0,0,0.06172839506172839,27.037037037037035,0)" xlink:href="#aQ"/><use transform="matrix(0.06172839506172839,0,0,0.06172839506172839,34.382716049382715,0)" xlink:href="#U"/><use transform="matrix(0.06172839506172839,0,0,0.06172839506172839,47.901234567901234,0)" xlink:href="#S"/><use transform="matrix(0.06172839506172839,0,0,0.06172839506172839,56.54320987654321,0)" xlink:href="#aL"/><use transform="matrix(0.06172839506172839,0,0,0.06172839506172839,68.88888888888889,0)" xlink:href="#aK"/><use transform="matrix(0.06172839506172839,0,0,0.06172839506172839,88.64197530864197,0)" xlink:href="#aP"/></g><g id="C"><use transform="matrix(0.06172839506172839,0,0,0.06172839506172839,0,0)" xlink:href="#Q"/><use transform="matrix(0.06172839506172839,0,0,0.06172839506172839,13.518518518518517,0)" xlink:href="#S"/></g><path fill="#3a414a" d="M88-194c31-1 46 15 58 34l-1-101h50l1 261h-48c-2-10 0-23-3-31C134-8 116 4 84 4 32 4 16-41 15-95c0-56 19-97 73-99zm17 164c33 0 40-30 41-66 1-37-9-64-41-64s-38 30-39 65c0 43 13 65 39 65" id="aR"/><g id="D"><use transform="matrix(0.06172839506172839,0,0,0.06172839506172839,0,0)" xlink:href="#X"/><use transform="matrix(0.06172839506172839,0,0,0.06172839506172839,12.345679012345679,0)" xlink:href="#V"/><use transform="matrix(0.06172839506172839,0,0,0.06172839506172839,18.51851851851852,0)" xlink:href="#Q"/><use transform="matrix(0.06172839506172839,0,0,0.06172839506172839,32.03703703703704,0)" xlink:href="#R"/><use transform="matrix(0.06172839506172839,0,0,0.06172839506172839,45.55555555555556,0)" xlink:href="#aR"/></g><path fill="#3a414a" d="M135-194c52 0 70 43 70 98 0 56-19 99-73 100-30 1-46-15-58-35L72 0H24l1-261h50v104c11-23 29-37 60-37zM114-30c31 0 40-27 40-66 0-37-7-63-39-63s-41 28-41 65c0 36 8 64 40 64" id="aS"/><path fill="#3a414a" d="M137-138c1-29-70-34-71-4 15 46 118 7 119 86 1 83-164 76-172 9l43-7c4 19 20 25 44 25 33 8 57-30 24-41C81-84 22-81 20-136c-2-80 154-74 161-7" id="aT"/><g id="E"><use transform="matrix(0.06172839506172839,0,0,0.06172839506172839,0,0)" xlink:href="#aS"/><use transform="matrix(0.06172839506172839,0,0,0.06172839506172839,13.518518518518517,0)" xlink:href="#Y"/><use transform="matrix(0.06172839506172839,0,0,0.06172839506172839,25.864197530864196,0)" xlink:href="#aT"/><use transform="matrix(0.06172839506172839,0,0,0.06172839506172839,38.20987654320987,0)" xlink:href="#aL"/><use transform="matrix(0.06172839506172839,0,0,0.06172839506172839,50.55555555555555,0)" xlink:href="#aR"/></g><path fill="#3a414a" d="M102-93c0 74-22 123-52 168H0C30 29 54-18 53-93c0-74-22-123-53-168h50c30 45 52 94 52 168" id="aU"/><g id="F"><use transform="matrix(0.06172839506172839,0,0,0.06172839506172839,0,0)" xlink:href="#aT"/><use transform="matrix(0.06172839506172839,0,0,0.06172839506172839,12.345679012345679,0)" xlink:href="#aL"/><use transform="matrix(0.06172839506172839,0,0,0.06172839506172839,24.691358024691358,0)" xlink:href="#S"/><use transform="matrix(0.06172839506172839,0,0,0.06172839506172839,33.33333333333333,0)" xlink:href="#aJ"/><use transform="matrix(0.06172839506172839,0,0,0.06172839506172839,45.679012345679006,0)" xlink:href="#aL"/><use transform="matrix(0.06172839506172839,0,0,0.06172839506172839,58.02469135802468,0)" xlink:href="#S"/><use transform="matrix(0.06172839506172839,0,0,0.06172839506172839,66.66666666666666,0)" xlink:href="#aT"/><use transform="matrix(0.06172839506172839,0,0,0.06172839506172839,79.01234567901234,0)" xlink:href="#aU"/></g><path fill="#fff" d="M136-208V0H84v-208H4v-40h212v40h-80" id="aV"/><path fill="#fff" d="M185-48c-13 30-37 53-82 52C43 2 14-33 14-96s30-98 90-98c62 0 83 45 84 108H66c0 31 8 55 39 56 18 0 30-7 34-22zm-45-69c5-46-57-63-70-21-2 6-4 13-4 21h74" id="aW"/><path fill="#fff" d="M220-157c-53 9-28 100-34 157h-49v-107c1-27-5-49-29-50C55-147 81-57 75 0H25l-1-190h47c2 12-1 28 3 38 10-53 101-56 108 0 13-22 24-43 59-42 82 1 51 116 57 194h-49v-107c-1-25-5-48-29-50" id="aX"/><path fill="#fff" d="M135-194c53 0 70 44 70 98 0 56-19 98-73 100-31 1-45-17-59-34 3 33 2 69 2 105H25l-1-265h48c2 10 0 23 3 31 11-24 29-35 60-35zM114-30c33 0 39-31 40-66 0-38-9-64-40-64-56 0-55 130 0 130" id="aY"/><path fill="#fff" d="M110-194c64 0 96 36 96 99 0 64-35 99-97 99-61 0-95-36-95-99 0-62 34-99 96-99zm-1 164c35 0 45-28 45-65 0-40-10-65-43-65-34 0-45 26-45 65 0 36 10 65 43 65" id="aZ"/><path fill="#fff" d="M135-150c-39-12-60 13-60 57V0H25l-1-190h47c2 13-1 29 3 40 6-28 27-53 61-41v41" id="ba"/><path fill="#fff" d="M133-34C117-15 103 5 69 4 32 3 11-16 11-54c-1-60 55-63 116-61 1-26-3-47-28-47-18 1-26 9-28 27l-52-2c7-38 36-58 82-57s74 22 75 68l1 82c-1 14 12 18 25 15v27c-30 8-71 5-69-32zm-48 3c29 0 43-24 42-57-32 0-66-3-65 30 0 17 8 27 23 27" id="bb"/><path fill="#fff" d="M25 0v-261h50V0H25" id="bc"/><g id="G"><use transform="matrix(0.07407407407407404,0,0,0.07407407407407404,0,0)" xlink:href="#aV"/><use transform="matrix(0.07407407407407404,0,0,0.07407407407407404,14.222222222222214,0)" xlink:href="#aW"/><use transform="matrix(0.07407407407407404,0,0,0.07407407407407404,29.037037037037024,0)" xlink:href="#aX"/><use transform="matrix(0.07407407407407404,0,0,0.07407407407407404,52.74074074074072,0)" xlink:href="#aY"/><use transform="matrix(0.07407407407407404,0,0,0.07407407407407404,68.96296296296293,0)" xlink:href="#aZ"/><use transform="matrix(0.07407407407407404,0,0,0.07407407407407404,85.18518518518515,0)" xlink:href="#ba"/><use transform="matrix(0.07407407407407404,0,0,0.07407407407407404,95.55555555555551,0)" xlink:href="#bb"/><use transform="matrix(0.07407407407407404,0,0,0.07407407407407404,110.37037037037032,0)" xlink:href="#bc"/></g><path fill="#fff" d="M88-194c31-1 46 15 58 34l-1-101h50l1 261h-48c-2-10 0-23-3-31C134-8 116 4 84 4 32 4 16-41 15-95c0-56 19-97 73-99zm17 164c33 0 40-30 41-66 1-37-9-64-41-64s-38 30-39 65c0 43 13 65 39 65" id="bd"/><path fill="#fff" d="M128 0H69L1-190h53L99-40l48-150h52" id="be"/><g id="H"><use transform="matrix(0.07407407407407404,0,0,0.07407407407407404,0,0)" xlink:href="#bd"/><use transform="matrix(0.07407407407407404,0,0,0.07407407407407404,16.222222222222214,0)" xlink:href="#aW"/><use transform="matrix(0.07407407407407404,0,0,0.07407407407407404,31.037037037037024,0)" xlink:href="#be"/></g><path fill="#fff" d="M137-138c1-29-70-34-71-4 15 46 118 7 119 86 1 83-164 76-172 9l43-7c4 19 20 25 44 25 33 8 57-30 24-41C81-84 22-81 20-136c-2-80 154-74 161-7" id="bf"/><g id="I"><use transform="matrix(0.07407407407407404,0,0,0.07407407407407404,0,0)" xlink:href="#bf"/><use transform="matrix(0.07407407407407404,0,0,0.07407407407407404,14.814814814814808,0)" xlink:href="#aW"/><use transform="matrix(0.07407407407407404,0,0,0.07407407407407404,29.629629629629616,0)" xlink:href="#ba"/><use transform="matrix(0.07407407407407404,0,0,0.07407407407407404,39.999999999999986,0)" xlink:href="#be"/><use transform="matrix(0.07407407407407404,0,0,0.07407407407407404,54.81481481481479,0)" xlink:href="#aW"/><use transform="matrix(0.07407407407407404,0,0,0.07407407407407404,69.6296296296296,0)" xlink:href="#ba"/></g></defs></g></svg>