<svg xmlns="http://www.w3.org/2000/svg" xmlns:xlink="http://www.w3.org/1999/xlink" xmlns:lucid="lucid" width="740" height="880"><g transform="translate(-480 -260)" lucid:page-tab-id="0_0"><path d="M780 380h140v740H780z" fill-opacity="0"/><path d="M790.37 380h10.37m5.2 0h10.36m5.18 0h10.37m5.2 0h10.36m5.2 0h10.36m5.2 0h10.36m5.18 0h10.37m5.2 0h10.36m5.18 0h5.2v5.03m0 5.04v10.07m0 5.03v10.07m0 5.03v10.07m0 5.03v10.07m0 5.04v10.06m0 5.04v10.07m0 5.03v10.07m0 5.03v10.07m0 5.03v10.07m0 5.04v10.05m0 5.04v10.06m0 5.03v10.06m0 5.03v10.06m0 5.03v10.06m0 5.04v10.06m0 5.04v10.07m0 5.03v10.07m0 5.03v10.07m0 5.03v10.07m0 5.04v10.07m0 5.04v10.08m0 5.03v10.08m0 5.03v10.08m0 5.03v10.08m0 5.04v10.07m0 5.02v10.07m0 5.02v10.07m0 5.02v10.07m0 5.03V823m0 5.03v10.07m0 5.03v10.07m0 5.03v10.07m0 5.03v10.07m0 5.04v10.06m0 5.04v10.07m0 5.04v10.07m0 5.04v10.07m0 5.04v10.07m0 5.05V974m0 5.05v10.07m0 5.03v10.07m0 5.03v10.07m0 5.03v10.07m0 5.04v10.06m0 5.04v10.07m0 5.03v10.07m0 5.03v10.07m0 5.03v10.07m0 5.04v5.03h-5.2m-5.17 0h-10.37m-5.2 0H883.7m-5.18 0h-10.37m-5.2 0H852.6m-5.2 0h-10.36m-5.2 0H821.5m-5.18 0h-10.37m-5.2 0h-10.36m-5.18 0H780v-5.03m0-5.04v-10.07m0-5.03v-10.07m0-5.03v-10.07m0-5.03v-10.07m0-5.04v-10.06m0-5.04v-10.07m0-5.03v-10.07m0-5.03v-10.07m0-5.03v-10.07m0-5.04v-10.05m0-5.04v-10.06m0-5.03v-10.06m0-5.03v-10.06m0-5.03v-10.06m0-5.04v-10.06m0-5.04v-10.07m0-5.03v-10.07m0-5.03v-10.07m0-5.03v-10.07m0-5.04v-10.07m0-5.04V797.8m0-5.03V782.7m0-5.03V767.6m0-5.03V752.5m0-5.04V737.4m0-5.02V722.3m0-5.02V707.2m0-5.02V692.1m0-5.03V677m0-5.03V661.9m0-5.03V646.8m0-5.03V631.7m0-5.03V616.6m0-5.04V601.5m0-5.04V586.4m0-5.04V571.3m0-5.04V556.2m0-5.04V541.1m0-5.05V526m0-5.05v-10.07m0-5.03v-10.07m0-5.03v-10.07m0-5.03v-10.07m0-5.04v-10.06m0-5.04v-10.07m0-5.03v-10.07m0-5.03v-10.07m0-5.03v-10.07m0-5.04V380h5.2" stroke="#333" fill="none"/><path d="M500 400h100v100H500z" stroke="#333" fill="#fff"/><use xlink:href="#a" transform="matrix(1,0,0,1,505,405) translate(22.777777777777782 49.45833333333333)"/><use xlink:href="#b" transform="matrix(1,0,0,1,505,405) translate(52.407407407407405 49.45833333333333)"/><path d="M800 400h100v100H800z" stroke="#333" fill="#fff"/><use xlink:href="#c" transform="matrix(1,0,0,1,805,405) translate(37.592592592592595 49.45833333333333)"/><path d="M720 450c0 11.05-8.95 20-20 20s-20-8.95-20-20 8.95-20 20-20 20 8.95 20 20zM1100 400h100v100h-100z" stroke="#333" fill="#fff"/><use xlink:href="#d" transform="matrix(1,0,0,1,1105,405) translate(37.592592592592595 49.45833333333333)"/><path d="M800 700h100v100H800zM500 700h100v100H500z" stroke="#333" fill="#fff"/><use xlink:href="#e" transform="matrix(1,0,0,1,505,705) translate(37.592592592592595 49.45833333333333)"/><path d="M1100 700h100v100h-100z" stroke="#333" fill="#c92d39"/><use xlink:href="#f" transform="matrix(1,0,0,1,1105,705) translate(22.03703703703704 49.45833333333333)"/><path d="M500 1000h100v100H500z" stroke="#333" fill="#fff"/><use xlink:href="#g" transform="matrix(1,0,0,1,505,1005) translate(15 49.45833333333333)"/><use xlink:href="#h" transform="matrix(1,0,0,1,505,1005) translate(37.22222222222222 49.45833333333333)"/><use xlink:href="#i" transform="matrix(1,0,0,1,505,1005) translate(60.18518518518518 49.45833333333333)"/><path d="M800 1000h100v100H800z" stroke="#333" fill="#fff"/><use xlink:href="#c" transform="matrix(1,0,0,1,805,1005) translate(37.592592592592595 49.45833333333333)"/><path d="M1100 1000h100v100h-100z" stroke="#333" fill="#fff"/><use xlink:href="#c" transform="matrix(1,0,0,1,1105,1005) translate(37.592592592592595 49.45833333333333)"/><path d="M550 501v78" stroke="#333" fill="none"/><path d="M550.5 501h-1v-.5h1M550.5 579.56l-.48-.06-.52.02V579h1" fill="#333"/><path d="M550 621v62.12" stroke="#333" fill="none"/><path d="M549.98 620.5l.52-.02v.53h-1v-.56" fill="#333"/><path d="M550 697.88l-4.64-14.26h9.28z" stroke="#333" fill="#333"/><path d="M550 921v62.12" stroke="#333" fill="none"/><path d="M549.98 920.5l.52-.02v.53h-1v-.56" fill="#333"/><path d="M550 997.88l-4.64-14.26h9.28z" stroke="#333" fill="#333"/><path d="M550 801v78" stroke="#333" fill="none"/><path d="M550.5 801h-1v-.5h1M550.5 879.56l-.48-.06-.52.02V879h1" fill="#333"/><path d="M601 450h78" stroke="#333" fill="none"/><path d="M601 450.5h-.5v-1h.5M679.5 449.98l.02.52H679v-1h.56" fill="#333"/><path d="M721 450h62.12" stroke="#333" fill="none"/><path d="M721 450.5h-.56l.06-.48-.02-.52h.53" fill="#333"/><path d="M797.88 450l-14.26 4.64v-9.28z" stroke="#333" fill="#333"/><path d="M901 450h78" stroke="#333" fill="none"/><path d="M901 450.5h-.5v-1h.5M979.5 449.98l.02.52H979v-1h.56" fill="#333"/><path d="M1021 450h62.12" stroke="#333" fill="none"/><path d="M1021 450.5h-.56l.06-.48-.02-.52h.53" fill="#333"/><path d="M1097.88 450l-14.26 4.64v-9.28z" stroke="#333" fill="#333"/><path d="M1150 621v62.12" stroke="#333" fill="none"/><path d="M1149.98 620.5l.52-.02v.53h-1v-.56" fill="#333"/><path d="M1150 697.88l-4.64-14.26h9.28z" stroke="#333" fill="#333"/><path d="M1150 501v78" stroke="#333" fill="none"/><path d="M1150.5 501h-1v-.5h1M1150.5 579.56l-.48-.06-.52.02V579h1" fill="#333"/><path d="M1150 921v62.12" stroke="#333" fill="none"/><path d="M1149.98 920.5l.52-.02v.53h-1v-.56" fill="#333"/><path d="M1150 997.88l-4.64-14.26h9.28z" stroke="#333" fill="#333"/><path d="M1150 801v78" stroke="#333" fill="none"/><path d="M1150.5 801h-1v-.5h1M1150.5 879.56l-.48-.06-.52.02V879h1" fill="#333"/><path d="M1099 1050h-78" stroke="#333" fill="none"/><path d="M1099.5 1050.5h-.5v-1h.5M1021 1050.5h-.56l.06-.48-.02-.52h.53" fill="#333"/><path d="M979 1050h-62.12" stroke="#333" fill="none"/><path d="M979.5 1049.98l.02.52H979v-1h.56" fill="#333"/><path d="M902.12 1050l14.26-4.64v9.28z" stroke="#333" fill="#333"/><path d="M799 1050h-78" stroke="#333" fill="none"/><path d="M799.5 1050.5h-.5v-1h.5M721 1050.5h-.56l.06-.48-.02-.52h.53" fill="#333"/><path d="M679 1050h-62.12" stroke="#333" fill="none"/><path d="M679.5 1049.98l.02.52H679v-1h.56" fill="#333"/><path d="M602.12 1050l14.26-4.64v9.28z" stroke="#333" fill="#333"/><path d="M601 750h78" stroke="#333" fill="none"/><path d="M601 750.5h-.5v-1h.5M679.5 749.98l.02.52H679v-1h.56" fill="#333"/><path d="M721 750h78" stroke="#333" fill="none"/><path d="M721 750.5h-.56l.06-.48-.02-.52h.53M799.5 750.5h-.5v-1h.5" fill="#333"/><path d="M850 699V501" stroke="#333" fill="none"/><path d="M850.5 699.5h-1v-.5h1M850.5 501h-1v-.5h1" fill="#333"/><path d="M901 750h78" stroke="#333" fill="none"/><path d="M901 750.5h-.5v-1h.5M979.5 749.98l.02.52H979v-1h.56" fill="#333"/><path d="M1021 750h78" stroke="#333" fill="none"/><path d="M1021 750.5h-.56l.06-.48-.02-.52h.53M1099.5 750.5h-.5v-1h.5" fill="#333"/><path d="M850 999V801" stroke="#333" fill="none"/><path d="M850.5 999.5h-1v-.5h1M850.5 801h-1v-.5h1" fill="#333"/><path d="M940 570h160v60H940z" stroke="#000" stroke-opacity="0" stroke-width="3" fill="#fff" fill-opacity="0"/><use xlink:href="#j" transform="matrix(1,0,0,1,945,575) translate(6.635802469135811 30.27777777777778)"/><use xlink:href="#k" transform="matrix(1,0,0,1,945,575) translate(80.46296296296296 30.27777777777778)"/><path d="M940 870h160v60H940z" stroke="#000" stroke-opacity="0" stroke-width="3" fill="#fff" fill-opacity="0"/><use xlink:href="#j" transform="matrix(1,0,0,1,945,875) translate(15.895061728395063 30.27777777777778)"/><use xlink:href="#l" transform="matrix(1,0,0,1,945,875) translate(89.72222222222221 30.27777777777778)"/><path d="M1020 450c0 11.05-8.95 20-20 20s-20-8.95-20-20 8.95-20 20-20 20 8.95 20 20zM720 750c0 11.05-8.95 20-20 20s-20-8.95-20-20 8.95-20 20-20 20 8.95 20 20zM720 1050c0 11.05-8.95 20-20 20s-20-8.95-20-20 8.95-20 20-20 20 8.95 20 20zM570 600c0 11.05-8.95 20-20 20s-20-8.95-20-20 8.95-20 20-20 20 8.95 20 20zM570 900c0 11.05-8.95 20-20 20s-20-8.95-20-20 8.95-20 20-20 20 8.95 20 20zM1020 750c0 11.05-8.95 20-20 20s-20-8.95-20-20 8.95-20 20-20 20 8.95 20 20zM1020 1050c0 11.05-8.95 20-20 20s-20-8.95-20-20 8.95-20 20-20 20 8.95 20 20z" stroke="#333" fill="#fff"/><path d="M1170 900c0 11.05-8.95 20-20 20s-20-8.95-20-20 8.95-20 20-20 20 8.95 20 20zM1170 600c0 11.05-8.95 20-20 20s-20-8.95-20-20 8.95-20 20-20 20 8.95 20 20z" stroke="#333" fill="#c92d39"/><path d="M1100.5 600h28.5" stroke="#333" fill="none"/><path d="M1100.5 600.5h-.5v-1h.5M1129.5 599.98l.02.52h-.53v-1h.56" fill="#333"/><path d="M1100.5 900h28.5" stroke="#333" fill="none"/><path d="M1100.5 900.5h-.5v-1h.5M1129.5 899.98l.02.52h-.53v-1h.56" fill="#333"/><path d="M740 280h220v60H740z" stroke="#000" stroke-opacity="0" stroke-width="3" fill="#fff" fill-opacity="0"/><use xlink:href="#m" transform="matrix(1,0,0,1,745,285) translate(1.4506172839506064 30.52777777777778)"/><use xlink:href="#n" transform="matrix(1,0,0,1,745,285) translate(130.89506172839506 30.52777777777778)"/><path d="M850 340.5V379" stroke="#333" fill="none"/><path d="M850.5 340.5h-1v-.5h1M850.5 379.5h-1v-.5h1" fill="#333"/><path d="M940 780h120v60H940z" stroke="#000" stroke-opacity="0" stroke-width="3" fill="#fff" fill-opacity="0"/><g><use xlink:href="#o" transform="matrix(1,0,0,1,945,785) translate(21.172839506172842 17.77777777777778)"/><use xlink:href="#p" transform="matrix(1,0,0,1,945,785) translate(24.19753086419753 44.44444444444444)"/></g><path d="M1060.4 809.7l38.7-30.98" stroke="#333" fill="none"/><path d="M1060.7 810.07l-.7.57v-1.28l.1-.07M1099.5 779.05l-.1.07-.6-.78.7-.57" fill="#333"/><defs><path fill="#333" d="M144 0l-44-69L55 0H2l70-98-66-92h53l41 62 40-62h54l-67 91 71 99h-54" id="q"/><path fill="#333" d="M76-54c-1 42 2 86-19 110H24C36 42 46 24 48 0H25v-54h51" id="r"/><g id="a"><use transform="matrix(0.07407407407407406,0,0,0.07407407407407406,0,0)" xlink:href="#q"/><use transform="matrix(0.07407407407407406,0,0,0.07407407407407406,14.814814814814811,0)" xlink:href="#r"/></g><path fill="#333" d="M123 10C108 53 80 86 19 72V37c35 8 53-11 59-39L3-190h52l48 148c12-52 28-100 44-148h51" id="s"/><use transform="matrix(0.07407407407407406,0,0,0.07407407407407406,0,0)" xlink:href="#s" id="b"/><use transform="matrix(0.07407407407407407,0,0,0.07407407407407407,0,0)" xlink:href="#q" id="c"/><use transform="matrix(0.07407407407407406,0,0,0.07407407407407406,0,0)" xlink:href="#q" id="d"/><use transform="matrix(0.07407407407407407,0,0,0.07407407407407407,0,0)" xlink:href="#s" id="e"/><path fill="#333" d="M125-100v72H85v-72H15v-39h70v-72h40v72h71v39h-71" id="t"/><g id="f"><use transform="matrix(0.07407407407407406,0,0,0.07407407407407406,0,0)" xlink:href="#q"/><use transform="matrix(0.07407407407407406,0,0,0.07407407407407406,14.814814814814811,0)" xlink:href="#t"/><use transform="matrix(0.07407407407407406,0,0,0.07407407407407406,30.370370370370363,0)" xlink:href="#t"/></g><use transform="matrix(0.07407407407407407,0,0,0.07407407407407407,0,0)" xlink:href="#q" id="g"/><use transform="matrix(0.07407407407407407,0,0,0.07407407407407407,0,0)" xlink:href="#t" id="h"/><use transform="matrix(0.07407407407407407,0,0,0.07407407407407407,0,0)" xlink:href="#s" id="i"/><path fill="#333" d="M87-220l-18 92h140l-5 28H64L45 0H11l48-248h178l-5 28H87" id="u"/><path fill="#333" d="M165-48c-4 18 1 34 23 27l-3 20c-29 8-62 0-52-35h-2C116-14 99 4 63 4 30 4 8-16 8-49c0-68 71-67 138-67 10-26 0-56-31-54-26 1-42 9-47 31l-32-5c8-67 160-71 144 15-5 28-9 54-15 81zM42-50c3 52 80 24 89-6 7-12 7-24 11-38-47 1-103-4-100 44" id="v"/><path fill="#333" d="M50-231l6-30h32l-6 30H50zM6 0l37-190h31L37 0H6" id="w"/><path fill="#333" d="M6 0l50-261h32L37 0H6" id="x"/><path fill="#333" d="M67 3c-93-2-31-127-26-193h32L48-50c-3 39 53 32 70 12 30-34 30-101 43-152h32L157 0h-30c1-10 6-24 4-33-14 20-29 37-64 36" id="y"/><path fill="#333" d="M66-151c12-25 30-51 66-40l-6 26C45-176 58-65 38 0H6l36-190h30" id="z"/><path fill="#333" d="M111-194c62-3 86 47 72 106H45c-7 38 6 69 45 68 27-1 43-14 53-32l24 11C152-15 129 4 87 4 38 3 12-23 12-71c0-70 32-119 99-123zm44 81c14-66-71-72-95-28-4 8-8 17-11 28h106" id="A"/><g id="j"><use transform="matrix(0.06172839506172839,0,0,0.06172839506172839,0,0)" xlink:href="#u"/><use transform="matrix(0.06172839506172839,0,0,0.06172839506172839,13.518518518518517,0)" xlink:href="#v"/><use transform="matrix(0.06172839506172839,0,0,0.06172839506172839,25.864197530864196,0)" xlink:href="#w"/><use transform="matrix(0.06172839506172839,0,0,0.06172839506172839,30.74074074074074,0)" xlink:href="#x"/><use transform="matrix(0.06172839506172839,0,0,0.06172839506172839,35.617283950617285,0)" xlink:href="#y"/><use transform="matrix(0.06172839506172839,0,0,0.06172839506172839,47.96296296296296,0)" xlink:href="#z"/><use transform="matrix(0.06172839506172839,0,0,0.06172839506172839,55.30864197530864,0)" xlink:href="#A"/></g><path fill="#333" d="M68-162c25-46 127-43 121 31C183-60 169 1 98 4 69 5 53-11 43-31L36 0H5l52-261h31zm88 36c2-27-9-43-34-43-55 0-70 51-70 103 0 29 15 45 43 46 52 0 58-58 61-106" id="B"/><path fill="#333" d="M76-167L44 0H12l33-167H18l4-23h27c3-47 25-81 82-69l-4 24c-35-8-44 15-46 45h37l-5 23H76" id="C"/><path fill="#333" d="M30-147c31-64 166-65 159 27C183-49 158 1 86 4 9 8 1-88 30-147zM88-20c53 0 68-48 68-100 0-31-11-51-44-50-52 1-68 46-68 97 0 32 13 53 44 53" id="D"/><g id="k"><use transform="matrix(0.06172839506172839,0,0,0.06172839506172839,0,0)" xlink:href="#B"/><use transform="matrix(0.06172839506172839,0,0,0.06172839506172839,12.345679012345679,0)" xlink:href="#A"/><use transform="matrix(0.06172839506172839,0,0,0.06172839506172839,24.691358024691358,0)" xlink:href="#C"/><use transform="matrix(0.06172839506172839,0,0,0.06172839506172839,30.864197530864196,0)" xlink:href="#D"/><use transform="matrix(0.06172839506172839,0,0,0.06172839506172839,43.20987654320987,0)" xlink:href="#z"/><use transform="matrix(0.06172839506172839,0,0,0.06172839506172839,50.55555555555555,0)" xlink:href="#A"/></g><path fill="#333" d="M51-54c-9 22 5 41 31 30L79-1C43 14 10-4 19-52l22-115H19l5-23h22l19-43h21l-9 43h35l-4 23H73" id="E"/><g id="l"><use transform="matrix(0.06172839506172839,0,0,0.06172839506172839,0,0)" xlink:href="#v"/><use transform="matrix(0.06172839506172839,0,0,0.06172839506172839,12.345679012345679,0)" xlink:href="#C"/><use transform="matrix(0.06172839506172839,0,0,0.06172839506172839,18.51851851851852,0)" xlink:href="#E"/><use transform="matrix(0.06172839506172839,0,0,0.06172839506172839,24.691358024691358,0)" xlink:href="#A"/><use transform="matrix(0.06172839506172839,0,0,0.06172839506172839,37.03703703703704,0)" xlink:href="#z"/></g><path fill="#333" d="M14 0l48-248h34L48 0H14" id="F"/><path fill="#333" d="M67-158c22-48 132-52 116 29L158 0h-32l25-140c3-38-53-32-70-12C52-117 51-52 38 0H6l36-190h30" id="G"/><path fill="#333" d="M248-111c6-24 9-61-24-58-72 9-57 108-77 169h-31l26-142c3-37-50-30-64-10C52-115 50-51 37 0H6l36-190h30c-1 10-6 24-4 32 13-43 101-52 105 5 13-22 29-41 61-41 90 0 28 129 23 194h-31" id="H"/><path fill="#333" d="M133-28C103 26-5 8 13-77c13-62 24-115 90-117 29-1 46 15 56 35l19-102h32L160 0h-30zM45-64c-2 27 10 43 35 43 54-1 69-50 69-103 0-29-15-46-42-46-53-1-58 58-62 106" id="I"/><g id="m"><use transform="matrix(0.06172839506172839,0,0,0.06172839506172839,0,0)" xlink:href="#F"/><use transform="matrix(0.06172839506172839,0,0,0.06172839506172839,6.172839506172839,0)" xlink:href="#G"/><use transform="matrix(0.06172839506172839,0,0,0.06172839506172839,18.51851851851852,0)" xlink:href="#E"/><use transform="matrix(0.06172839506172839,0,0,0.06172839506172839,24.691358024691358,0)" xlink:href="#A"/><use transform="matrix(0.06172839506172839,0,0,0.06172839506172839,37.03703703703704,0)" xlink:href="#z"/><use transform="matrix(0.06172839506172839,0,0,0.06172839506172839,44.382716049382715,0)" xlink:href="#H"/><use transform="matrix(0.06172839506172839,0,0,0.06172839506172839,62.839506172839506,0)" xlink:href="#A"/><use transform="matrix(0.06172839506172839,0,0,0.06172839506172839,75.18518518518519,0)" xlink:href="#I"/><use transform="matrix(0.06172839506172839,0,0,0.06172839506172839,87.53086419753087,0)" xlink:href="#w"/><use transform="matrix(0.06172839506172839,0,0,0.06172839506172839,92.40740740740742,0)" xlink:href="#v"/><use transform="matrix(0.06172839506172839,0,0,0.06172839506172839,104.7530864197531,0)" xlink:href="#E"/><use transform="matrix(0.06172839506172839,0,0,0.06172839506172839,110.92592592592594,0)" xlink:href="#A"/></g><path fill="#333" d="M188 0h-37l-8-164L71 0H34L18-190h31l8 164 75-164h34l8 164 74-164h31" id="J"/><path fill="#333" d="M127 0L80-88 50-66 37 0H6l51-261h31L57-100l99-90h39l-93 82L161 0h-34" id="K"/><g id="n"><use transform="matrix(0.06172839506172839,0,0,0.06172839506172839,0,0)" xlink:href="#G"/><use transform="matrix(0.06172839506172839,0,0,0.06172839506172839,12.345679012345679,0)" xlink:href="#A"/><use transform="matrix(0.06172839506172839,0,0,0.06172839506172839,24.691358024691358,0)" xlink:href="#E"/><use transform="matrix(0.06172839506172839,0,0,0.06172839506172839,30.864197530864196,0)" xlink:href="#J"/><use transform="matrix(0.06172839506172839,0,0,0.06172839506172839,46.85185185185185,0)" xlink:href="#D"/><use transform="matrix(0.06172839506172839,0,0,0.06172839506172839,59.197530864197525,0)" xlink:href="#z"/><use transform="matrix(0.06172839506172839,0,0,0.06172839506172839,66.5432098765432,0)" xlink:href="#K"/></g><g id="o"><use transform="matrix(0.06172839506172839,0,0,0.06172839506172839,0,0)" xlink:href="#u"/><use transform="matrix(0.06172839506172839,0,0,0.06172839506172839,13.518518518518517,0)" xlink:href="#v"/><use transform="matrix(0.06172839506172839,0,0,0.06172839506172839,25.864197530864196,0)" xlink:href="#w"/><use transform="matrix(0.06172839506172839,0,0,0.06172839506172839,30.74074074074074,0)" xlink:href="#x"/><use transform="matrix(0.06172839506172839,0,0,0.06172839506172839,35.617283950617285,0)" xlink:href="#y"/><use transform="matrix(0.06172839506172839,0,0,0.06172839506172839,47.96296296296296,0)" xlink:href="#z"/><use transform="matrix(0.06172839506172839,0,0,0.06172839506172839,55.30864197530864,0)" xlink:href="#A"/></g><path fill="#333" d="M103-194c29 0 47 14 56 36 2-11 5-23 8-32h30L160-5C157 61 82 97 21 62 9 55 4 45 1 30l28-7c7 42 83 31 92-3 4-16 9-38 13-55-13 20-29 36-62 36-40 0-60-25-60-64 0-71 23-131 91-131zm4 24c-53 0-58 54-61 104-2 27 10 44 36 44 49 0 65-50 67-102 1-29-15-46-42-46" id="L"/><g id="p"><use transform="matrix(0.06172839506172839,0,0,0.06172839506172839,0,0)" xlink:href="#I"/><use transform="matrix(0.06172839506172839,0,0,0.06172839506172839,12.345679012345679,0)" xlink:href="#y"/><use transform="matrix(0.06172839506172839,0,0,0.06172839506172839,24.691358024691358,0)" xlink:href="#z"/><use transform="matrix(0.06172839506172839,0,0,0.06172839506172839,32.03703703703704,0)" xlink:href="#w"/><use transform="matrix(0.06172839506172839,0,0,0.06172839506172839,36.91358024691358,0)" xlink:href="#G"/><use transform="matrix(0.06172839506172839,0,0,0.06172839506172839,49.25925925925926,0)" xlink:href="#L"/></g></defs></g></svg>