<svg xmlns="http://www.w3.org/2000/svg" xmlns:xlink="http://www.w3.org/1999/xlink" xmlns:lucid="lucid" width="540" height="740"><g transform="translate(-480 -380)" lucid:page-tab-id="0_0"><path d="M500 400h100v100H500zM770 450c0 11.05-8.95 20-20 20s-20-8.95-20-20 8.95-20 20-20 20 8.95 20 20zM900 400h100v100H900z" stroke="#333" fill="#fff"/><path d="M900 599.58h100v100H900z" stroke="#333" fill="#c92d39"/><path d="M500 1000h100v100H500zM900 1000h100v100H900z" stroke="#333" fill="#fff"/><path d="M550 501v228" stroke="#333" fill="none"/><path d="M550.5 501h-1v-.5h1M550.5 729.56l-.48-.06-.52.02V729h1" fill="#333"/><path d="M550 771v212.12" stroke="#333" fill="none"/><path d="M549.98 770.5l.52-.02v.53h-1v-.56" fill="#333"/><path d="M550 997.88l-4.64-14.26h9.28z" stroke="#333" fill="#333"/><path d="M601 450h128" stroke="#333" fill="none"/><path d="M601 450.5h-.5v-1h.5M729.5 449.98l.02.52H729v-1h.56" fill="#333"/><path d="M950 570.17v12.53" stroke="#333" fill="none"/><path d="M949.98 569.67l.52-.02v.53h-1v-.57" fill="#333"/><path d="M950 597.47l-4.64-14.27h9.28z" stroke="#333" fill="#333"/><path d="M950 501v27.17" stroke="#333" fill="none"/><path d="M950.5 501h-1v-.5h1M950.5 528.73l-.48-.06h-.52v-.52h1" fill="#333"/><path d="M950 969.33v13.8" stroke="#333" fill="none"/><path d="M949.98 968.83h.52v.52h-1v-.58" fill="#333"/><path d="M950 997.88l-4.64-14.26h9.28z" stroke="#333" fill="#333"/><path d="M950 901.42v25.9" stroke="#333" fill="none"/><path d="M950.5 901.43h-1v-.5h1M950.5 927.9l-.48-.07-.52.02v-.53h1" fill="#333"/><path d="M950 771v12.53" stroke="#333" fill="none"/><path d="M949.98 770.5l.52-.02v.53h-1v-.56" fill="#333"/><path d="M950 798.3l-4.64-14.27h9.28z" stroke="#333" fill="#333"/><path d="M950 700.58V729" stroke="#333" fill="none"/><path d="M950.5 700.6h-1v-.52h1M950.5 729.56l-.48-.06-.52.02V729h1" fill="#333"/><path d="M899 1050H771" stroke="#333" fill="none"/><path d="M899.5 1050.5h-.5v-1h.5M771 1050.5h-.56l.06-.48-.02-.52h.53" fill="#333"/><path d="M729 1050H616.88" stroke="#333" fill="none"/><path d="M729.5 1049.98l.02.52H729v-1h.56" fill="#333"/><path d="M602.12 1050l14.26-4.64v9.28z" stroke="#333" fill="#333"/><path d="M680 519.17h180v60H680z" stroke="#000" stroke-opacity="0" stroke-width="3" fill="#fff" fill-opacity="0"/><use xlink:href="#a" transform="matrix(1,0,0,1,685,524.1666666666667) translate(16.63580246913581 30.27777777777778)"/><use xlink:href="#b" transform="matrix(1,0,0,1,685,524.1666666666667) translate(90.46296296296296 30.27777777777778)"/><path d="M770 1050c0 11.05-8.95 20-20 20s-20-8.95-20-20 8.95-20 20-20 20 8.95 20 20zM570 750c0 11.05-8.95 20-20 20s-20-8.95-20-20 8.95-20 20-20 20 8.95 20 20z" stroke="#333" fill="#fff"/><path d="M970 948.33c0 11.05-8.95 20-20 20s-20-8.95-20-20c0-11.04 8.95-20 20-20s20 8.96 20 20zM970 549.17c0 11.04-8.95 20-20 20s-20-8.96-20-20c0-11.05 8.95-20 20-20s20 8.95 20 20z" stroke="#333" fill="#c92d39"/><path d="M860.5 549.17H929" stroke="#333" fill="none"/><path d="M860.5 549.67h-.5v-1h.5M929.5 549.14l.02.53H929v-1h.56" fill="#333"/><path d="M860.5 948.33H929" stroke="#333" fill="none"/><path d="M860.5 948.83h-.5v-1h.5M929.5 948.3l.02.53H929v-1h.56" fill="#333"/><path d="M771 450h112.12" stroke="#5e5e5e" fill="none"/><path d="M771 450.5h-.56l.06-.48-.02-.52h.53" fill="#5e5e5e"/><path d="M897.88 450l-14.26 4.64v-9.28z" stroke="#5e5e5e" fill="#5e5e5e"/><path d="M680 918.33h180v60H680z" stroke="#000" stroke-opacity="0" stroke-width="3" fill="#fff" fill-opacity="0"/><use xlink:href="#c" transform="matrix(1,0,0,1,685,923.3333333333335) translate(25.895061728395063 30.27777777777778)"/><use xlink:href="#d" transform="matrix(1,0,0,1,685,923.3333333333335) translate(99.72222222222221 30.27777777777778)"/><path d="M900 800.42h100v100H900zM970 750c0 11.05-8.95 20-20 20s-20-8.95-20-20 8.95-20 20-20 20 8.95 20 20z" stroke="#333" fill="#c92d39"/><path d="M680 720h180v60H680z" stroke="#000" stroke-opacity="0" stroke-width="3" fill="#fff" fill-opacity="0"/><use xlink:href="#c" transform="matrix(1,0,0,1,685,725) translate(6.141975308641975 30.52777777777778)"/><use xlink:href="#e" transform="matrix(1,0,0,1,685,725) translate(79.96913580246913 30.52777777777778)"/><path d="M860.5 750H929" stroke="#333" fill="none"/><path d="M860.5 750.5h-.5v-1h.5M929.5 749.98l.02.52H929v-1h.56" fill="#333"/><path d="M680 618.75h180v60H680z" stroke="#000" stroke-opacity="0" stroke-width="3" fill="#fff" fill-opacity="0"/><use xlink:href="#c" transform="matrix(1,0,0,1,685,623.75) translate(17.28395061728395 30.27777777777778)"/><use xlink:href="#f" transform="matrix(1,0,0,1,685,623.75) translate(91.1111111111111 30.27777777777778)"/><path d="M860.5 648.75H899" stroke="#333" fill="none"/><path d="M860.5 649.25h-.5v-1h.5M899.5 649.25h-.5v-1h.5" fill="#333"/><path d="M680 820.25h180v60.33H680z" stroke="#000" stroke-opacity="0" stroke-width="3" fill="#fff" fill-opacity="0"/><use xlink:href="#c" transform="matrix(1,0,0,1,685,825.2539812140258) translate(17.28395061728395 30.52777777777778)"/><use xlink:href="#f" transform="matrix(1,0,0,1,685,825.2539812140258) translate(91.1111111111111 30.52777777777778)"/><path d="M860.5 850.42H899" stroke="#333" fill="none"/><path d="M860.5 850.92h-.5v-1h.5M899.5 850.92h-.5v-1h.5" fill="#333"/><defs><path fill="#333" d="M87-220l-18 92h140l-5 28H64L45 0H11l48-248h178l-5 28H87" id="g"/><path fill="#333" d="M165-48c-4 18 1 34 23 27l-3 20c-29 8-62 0-52-35h-2C116-14 99 4 63 4 30 4 8-16 8-49c0-68 71-67 138-67 10-26 0-56-31-54-26 1-42 9-47 31l-32-5c8-67 160-71 144 15-5 28-9 54-15 81zM42-50c3 52 80 24 89-6 7-12 7-24 11-38-47 1-103-4-100 44" id="h"/><path fill="#333" d="M50-231l6-30h32l-6 30H50zM6 0l37-190h31L37 0H6" id="i"/><path fill="#333" d="M6 0l50-261h32L37 0H6" id="j"/><path fill="#333" d="M67 3c-93-2-31-127-26-193h32L48-50c-3 39 53 32 70 12 30-34 30-101 43-152h32L157 0h-30c1-10 6-24 4-33-14 20-29 37-64 36" id="k"/><path fill="#333" d="M66-151c12-25 30-51 66-40l-6 26C45-176 58-65 38 0H6l36-190h30" id="l"/><path fill="#333" d="M111-194c62-3 86 47 72 106H45c-7 38 6 69 45 68 27-1 43-14 53-32l24 11C152-15 129 4 87 4 38 3 12-23 12-71c0-70 32-119 99-123zm44 81c14-66-71-72-95-28-4 8-8 17-11 28h106" id="m"/><g id="a"><use transform="matrix(0.06172839506172839,0,0,0.06172839506172839,0,0)" xlink:href="#g"/><use transform="matrix(0.06172839506172839,0,0,0.06172839506172839,13.518518518518517,0)" xlink:href="#h"/><use transform="matrix(0.06172839506172839,0,0,0.06172839506172839,25.864197530864196,0)" xlink:href="#i"/><use transform="matrix(0.06172839506172839,0,0,0.06172839506172839,30.74074074074074,0)" xlink:href="#j"/><use transform="matrix(0.06172839506172839,0,0,0.06172839506172839,35.617283950617285,0)" xlink:href="#k"/><use transform="matrix(0.06172839506172839,0,0,0.06172839506172839,47.96296296296296,0)" xlink:href="#l"/><use transform="matrix(0.06172839506172839,0,0,0.06172839506172839,55.30864197530864,0)" xlink:href="#m"/></g><path fill="#333" d="M68-162c25-46 127-43 121 31C183-60 169 1 98 4 69 5 53-11 43-31L36 0H5l52-261h31zm88 36c2-27-9-43-34-43-55 0-70 51-70 103 0 29 15 45 43 46 52 0 58-58 61-106" id="n"/><path fill="#333" d="M76-167L44 0H12l33-167H18l4-23h27c3-47 25-81 82-69l-4 24c-35-8-44 15-46 45h37l-5 23H76" id="o"/><path fill="#333" d="M30-147c31-64 166-65 159 27C183-49 158 1 86 4 9 8 1-88 30-147zM88-20c53 0 68-48 68-100 0-31-11-51-44-50-52 1-68 46-68 97 0 32 13 53 44 53" id="p"/><g id="b"><use transform="matrix(0.06172839506172839,0,0,0.06172839506172839,0,0)" xlink:href="#n"/><use transform="matrix(0.06172839506172839,0,0,0.06172839506172839,12.345679012345679,0)" xlink:href="#m"/><use transform="matrix(0.06172839506172839,0,0,0.06172839506172839,24.691358024691358,0)" xlink:href="#o"/><use transform="matrix(0.06172839506172839,0,0,0.06172839506172839,30.864197530864196,0)" xlink:href="#p"/><use transform="matrix(0.06172839506172839,0,0,0.06172839506172839,43.20987654320987,0)" xlink:href="#l"/><use transform="matrix(0.06172839506172839,0,0,0.06172839506172839,50.55555555555555,0)" xlink:href="#m"/></g><g id="c"><use transform="matrix(0.06172839506172839,0,0,0.06172839506172839,0,0)" xlink:href="#g"/><use transform="matrix(0.06172839506172839,0,0,0.06172839506172839,13.518518518518517,0)" xlink:href="#h"/><use transform="matrix(0.06172839506172839,0,0,0.06172839506172839,25.864197530864196,0)" xlink:href="#i"/><use transform="matrix(0.06172839506172839,0,0,0.06172839506172839,30.74074074074074,0)" xlink:href="#j"/><use transform="matrix(0.06172839506172839,0,0,0.06172839506172839,35.617283950617285,0)" xlink:href="#k"/><use transform="matrix(0.06172839506172839,0,0,0.06172839506172839,47.96296296296296,0)" xlink:href="#l"/><use transform="matrix(0.06172839506172839,0,0,0.06172839506172839,55.30864197530864,0)" xlink:href="#m"/></g><path fill="#333" d="M51-54c-9 22 5 41 31 30L79-1C43 14 10-4 19-52l22-115H19l5-23h22l19-43h21l-9 43h35l-4 23H73" id="q"/><g id="d"><use transform="matrix(0.06172839506172839,0,0,0.06172839506172839,0,0)" xlink:href="#h"/><use transform="matrix(0.06172839506172839,0,0,0.06172839506172839,12.345679012345679,0)" xlink:href="#o"/><use transform="matrix(0.06172839506172839,0,0,0.06172839506172839,18.51851851851852,0)" xlink:href="#q"/><use transform="matrix(0.06172839506172839,0,0,0.06172839506172839,24.691358024691358,0)" xlink:href="#m"/><use transform="matrix(0.06172839506172839,0,0,0.06172839506172839,37.03703703703704,0)" xlink:href="#l"/></g><path fill="#333" d="M188 0h-37l-8-164L71 0H34L18-190h31l8 164 75-164h34l8 164 74-164h31" id="r"/><path fill="#333" d="M67-158c22-48 132-52 116 29L158 0h-32l25-140c3-38-53-32-70-12C52-117 51-52 38 0H6l36-190h30" id="s"/><g id="e"><use transform="matrix(0.06172839506172839,0,0,0.06172839506172839,0,0)" xlink:href="#n"/><use transform="matrix(0.06172839506172839,0,0,0.06172839506172839,12.345679012345679,0)" xlink:href="#m"/><use transform="matrix(0.06172839506172839,0,0,0.06172839506172839,24.691358024691358,0)" xlink:href="#q"/><use transform="matrix(0.06172839506172839,0,0,0.06172839506172839,30.864197530864196,0)" xlink:href="#r"/><use transform="matrix(0.06172839506172839,0,0,0.06172839506172839,46.85185185185185,0)" xlink:href="#m"/><use transform="matrix(0.06172839506172839,0,0,0.06172839506172839,59.197530864197525,0)" xlink:href="#m"/><use transform="matrix(0.06172839506172839,0,0,0.06172839506172839,71.5432098765432,0)" xlink:href="#s"/></g><path fill="#333" d="M133-28C103 26-5 8 13-77c13-62 24-115 90-117 29-1 46 15 56 35l19-102h32L160 0h-30zM45-64c-2 27 10 43 35 43 54-1 69-50 69-103 0-29-15-46-42-46-53-1-58 58-62 106" id="t"/><path fill="#333" d="M103-194c29 0 47 14 56 36 2-11 5-23 8-32h30L160-5C157 61 82 97 21 62 9 55 4 45 1 30l28-7c7 42 83 31 92-3 4-16 9-38 13-55-13 20-29 36-62 36-40 0-60-25-60-64 0-71 23-131 91-131zm4 24c-53 0-58 54-61 104-2 27 10 44 36 44 49 0 65-50 67-102 1-29-15-46-42-46" id="u"/><g id="f"><use transform="matrix(0.06172839506172839,0,0,0.06172839506172839,0,0)" xlink:href="#t"/><use transform="matrix(0.06172839506172839,0,0,0.06172839506172839,12.345679012345679,0)" xlink:href="#k"/><use transform="matrix(0.06172839506172839,0,0,0.06172839506172839,24.691358024691358,0)" xlink:href="#l"/><use transform="matrix(0.06172839506172839,0,0,0.06172839506172839,32.03703703703704,0)" xlink:href="#i"/><use transform="matrix(0.06172839506172839,0,0,0.06172839506172839,36.91358024691358,0)" xlink:href="#s"/><use transform="matrix(0.06172839506172839,0,0,0.06172839506172839,49.25925925925926,0)" xlink:href="#u"/></g></defs></g></svg>