<svg xmlns="http://www.w3.org/2000/svg" xmlns:xlink="http://www.w3.org/1999/xlink" xmlns:lucid="lucid" width="1721" height="879.33"><g transform="translate(-99.5 340.5)" lucid:page-tab-id="0_0"><path d="M0-500h2000v1500H0z" fill="#fff"/><path d="M120-201.8a6 6 0 0 1 6-6h928a6 6 0 0 1 6 6V254a6 6 0 0 1-6 6H126a6 6 0 0 1-6-6z" fill-opacity="0"/><path d="M123.7-207.34l.45-.17.9-.24.95-.07h2m4 0h4m4 0h4m4 0h4m4 0h4m4 0h4m4 0h4m4 0h4m4 0h4m4 0h4m4 0h4m4 0h4m4 0h4m4 0h4m4 0h4m4 0h4m4 0h4m4 0h4m4 0h4m4 0h4m4 0h4m4 0h4m4 0h4m4 0h4m4 0h4m4 0h4m4 0h4m4 0h4m4 0h4m4 0h4m4 0h4m4 0h4m4 0h4m4 0h4m4 0h4m4 0h4m4 0h4m4 0h4m4 0h4m4 0h4m4 0h4m4 0h4m4 0h4m4 0h4m4 0h4m4 0h4m4 0h4m4 0h4m4 0h4m4 0h4m4 0h4m4 0h4m4 0h4m4 0h4m4 0h4m4 0h4m4 0h4m4 0h4m4 0h4m4 0h4m4 0h4m4 0h4m4 0h4m4 0h4m4 0h4m4 0h4m4 0h4m4 0h4m4 0h4m4 0h4m4 0h4m4 0h4m4 0h4m4 0h4m4 0h4m4 0h4m4 0h4m4 0h4m4 0h4m4 0h4m4 0h4m4 0h4m4 0h4m4 0h4m4 0h4m4 0h4m4 0h4m4 0h4m4 0h4m4 0h4m4 0h4m4 0h4m4 0h4m4 0h4m4 0h4m4 0h4m4 0h4m4 0h4m4 0h4m4 0h4m4 0h4m4 0h4m4 0h4m4 0h4m4 0h4m4 0h4m4 0h4m4 0h4m4 0h4m4 0h4m4 0h4m4 0h4m4 0h4m4 0h4m4 0h4m4 0h4m4 0h2l.94.06.9.23.45.16m3.23 3.24l.18.44.23.9.07.95v2m0 4v4m0 4v3.98m0 4v4m0 4v4m0 4v4m0 4v4m0 4v4m0 3.98v4m0 4v4m0 4v4m0 4v4m0 4v4m0 4v4m0 3.98v4m0 4v4m0 4v4m0 4v4m0 4v4m0 4v4m0 3.98v4m0 4v4m0 4v4m0 4v4m0 4v4m0 4v4m0 4V8.1m0 4v4m0 4v4m0 4v4m0 4v4m0 4v4m0 3.98v4m0 4v4m0 4v4m0 4v4m0 4v4m0 4v4m0 3.98v4m0 4v4m0 4v4m0 4v4m0 4v4m0 4v4m0 3.98v4m0 4v4m0 4v4m0 4v4m0 4v4m0 4v4m0 3.98v4m0 4v4m0 4v4m0 4v4m0 4v4m0 4v4m0 3.98v4m0 4v2l-.07.94-.22.9-.17.45m-3.24 3.23l-.45.18-.9.23-.95.07h-2m-4 0h-4m-4 0h-4m-4 0h-4m-4 0h-4m-4 0h-4m-4 0h-4m-4 0h-4m-4 0h-4m-4 0h-4m-4 0h-4m-4 0h-4m-4 0h-4m-4 0h-4m-4 0h-4m-4 0h-4m-4 0h-4m-4 0h-4m-4 0h-4m-4 0h-4m-4 0h-4m-4 0h-4m-4 0h-4m-4 0h-4m-4 0h-4m-4 0h-4m-4 0h-4m-4 0h-4m-4 0h-4m-4 0h-4m-4 0h-4m-4 0h-4m-4 0h-4m-4 0h-4m-4 0h-4m-4 0h-4m-4 0h-4m-4 0h-4m-4 0h-4m-4 0h-4m-4 0h-4m-4 0h-4m-4 0h-4m-4 0h-4m-4 0h-4m-4 0h-4m-4 0h-4m-4 0h-4m-4 0h-4m-4 0h-4m-4 0h-4m-4 0h-4m-4 0h-4m-4 0h-4m-4 0h-4m-4 0h-4m-4 0h-4m-4 0h-4m-4 0h-4m-4 0h-4m-4 0h-4m-4 0h-4m-4 0h-4m-4 0h-4m-4 0h-4m-4 0h-4m-4 0h-4m-4 0h-4m-4 0h-4m-4 0h-4m-4 0h-4m-4 0h-4m-4 0h-4m-4 0h-4m-4 0h-4m-4 0h-4m-4 0h-4m-4 0h-4m-4 0h-4m-4 0h-4m-4 0h-4m-4 0h-4m-4 0h-4m-4 0h-4m-4 0h-4m-4 0h-4m-4 0h-4m-4 0h-4m-4 0h-4m-4 0h-4m-4 0h-4m-4 0h-4m-4 0h-4m-4 0h-4m-4 0h-4m-4 0h-4m-4 0h-4m-4 0h-4m-4 0h-4m-4 0h-4m-4 0h-4m-4 0h-4m-4 0h-4m-4 0h-4m-4 0h-4m-4 0h-4m-4 0h-4m-4 0h-4m-4 0h-4m-4 0h-4m-4 0h-4m-4 0h-4m-4 0h-4m-4 0h-4m-4 0h-4m-4 0h-4m-4 0h-2l-.94-.07-.9-.22-.45-.17m-3.23-3.24l-.18-.45-.23-.9-.07-.95v-2m0-4v-4m0-4v-4m0-4v-4m0-4v-4m0-3.98v-4m0-4v-4m0-4v-4m0-4v-4m0-4v-4m0-4v-4m0-3.98v-4m0-4v-4m0-4v-4m0-4v-4m0-4v-4m0-4v-3.98m0-4v-4m0-4v-4m0-4v-4m0-4v-4m0-4v-4m0-4V76.1m0-4v-4m0-4v-4m0-4v-4m0-4v-4m0-4v-4m0-4V28.1m0-4v-4m0-4v-4m0-4v-4m0-4v-4m0-4v-4m0-4v-4m0-3.98v-4m0-4v-4m0-4v-4m0-4v-4m0-4v-4m0-4v-3.98m0-4v-4m0-4v-4m0-4v-4m0-4v-4m0-4v-4m0-4v-3.98m0-4v-4m0-4v-4m0-4v-4m0-4v-4m0-4v-4m0-4v-3.98m0-4v-4m0-4v-4m0-4v-4m0-4v-4m0-4v-2l.07-.93.22-.9.17-.45" stroke="#000" fill="none"/><path d="M160-174a6 6 0 0 1 6-6h848a6 6 0 0 1 6 6v308a6 6 0 0 1-6 6H166a6 6 0 0 1-6-6z" fill-opacity="0"/><path d="M163.7-179.53l.45-.18.9-.23.95-.07h2m4 0h4m4 0h4m4 0h4m4 0h4m4 0h4m4 0h4m4 0h4m4 0h4m4 0h4m4 0h4m4 0h4m4 0h4m4 0h4m4 0h4m4 0h4m4 0h4m4 0h4m4 0h4m4 0h4m4 0h4m4 0h4m4 0h4m4 0h4m4 0h4m4 0h4m4 0h4m4 0h4m4 0h4m4 0h4m4 0h4m4 0h4m4 0h4m4 0h4m4 0h4m4 0h4m4 0h4m4 0h4m4 0h4m4 0h4m4 0h4m4 0h4m4 0h4m4 0h4m4 0h4m4 0h4m4 0h4m4 0h4m4 0h4m4 0h4m4 0h4m4 0h4m4 0h4m4 0h4m4 0h4m4 0h4m4 0h4m4 0h4m4 0h4m4 0h4m4 0h4m4 0h4m4 0h4m4 0h4m4 0h4m4 0h4m4 0h4m4 0h4m4 0h4m4 0h4m4 0h4m4 0h4m4 0h4m4 0h4m4 0h4m4 0h4m4 0h4m4 0h4m4 0h4m4 0h4m4 0h4m4 0h4m4 0h4m4 0h4m4 0h4m4 0h4m4 0h4m4 0h4m4 0h4m4 0h4m4 0h4m4 0h4m4 0h4m4 0h4m4 0h4m4 0h4m4 0h4m4 0h4m4 0h4m4 0h4m4 0h4m4 0h4m4 0h4m4 0h4m4 0h4m4 0h4m4 0h2l.94.07.9.22.45.17m3.23 3.24l.18.45.23.9.07.95v1.97m0 3.95v3.95m0 3.95v3.95m0 3.95v3.95m0 3.95v3.94m0 3.95v3.96m0 3.95v3.96m0 3.95v3.96m0 3.94v3.95m0 3.95v3.95m0 3.95v3.95m0 3.95v3.95m0 3.95v3.94m0 3.95v3.94m0 3.95v3.94m0 3.95v3.94m0 3.95v3.93m0 3.95v3.95m0 3.95v3.95m0 3.95v3.95m0 3.94v3.95m0 3.95v3.95m0 3.95v3.95m0 3.95v3.95m0 3.94v3.95m0 3.96v3.95m0 3.96v3.95m0 3.96v3.95m0 3.95v3.95m0 3.95V57m0 3.95v3.95m0 3.95v3.95m0 3.94v3.95m0 3.94v3.95m0 3.94v3.95m0 3.94v3.95m0 3.93v3.95m0 3.95v3.95m0 3.95v3.95m0 3.95V134l-.07.94-.22.9-.17.45m-3.24 3.23l-.45.18-.9.23-.95.07h-2m-4 0h-4m-4 0h-4m-4 0h-4m-4 0h-4m-4 0h-4m-4 0h-4m-4 0h-4m-4 0h-4m-4 0h-4m-4 0h-4m-4 0h-4m-4 0h-4m-4 0h-4m-4 0h-4m-4 0h-4m-4 0h-4m-4 0h-4m-4 0h-4m-4 0h-4m-4 0h-4m-4 0h-4m-4 0h-4m-4 0h-4m-4 0h-4m-4 0h-4m-4 0h-4m-4 0h-4m-4 0h-4m-4 0h-4m-4 0h-4m-4 0h-4m-4 0h-4m-4 0h-4m-4 0h-4m-4 0h-4m-4 0h-4m-4 0h-4m-4 0h-4m-4 0h-4m-4 0h-4m-4 0h-4m-4 0h-4m-4 0h-4m-4 0h-4m-4 0h-4m-4 0h-4m-4 0h-4m-4 0h-4m-4 0h-4m-4 0h-4m-4 0h-4m-4 0h-4m-4 0h-4m-4 0h-4m-4 0h-4m-4 0h-4m-4 0h-4m-4 0h-4m-4 0h-4m-4 0h-4m-4 0h-4m-4 0h-4m-4 0h-4m-4 0h-4m-4 0h-4m-4 0h-4m-4 0h-4m-4 0h-4m-4 0h-4m-4 0h-4m-4 0h-4m-4 0h-4m-4 0h-4m-4 0h-4m-4 0h-4m-4 0h-4m-4 0h-4m-4 0h-4m-4 0h-4m-4 0h-4m-4 0h-4m-4 0h-4m-4 0h-4m-4 0h-4m-4 0h-4m-4 0h-4m-4 0h-4m-4 0h-4m-4 0h-4m-4 0h-4m-4 0h-4m-4 0h-4m-4 0h-4m-4 0h-4m-4 0h-4m-4 0h-4m-4 0h-4m-4 0h-4m-4 0h-4m-4 0h-4m-4 0h-4m-4 0h-4m-4 0h-4m-4 0h-4m-4 0h-4m-4 0h-2l-.94-.07-.9-.22-.45-.17m-3.23-3.24l-.18-.45-.23-.9-.07-.95v-1.97m0-3.95v-3.95m0-3.95v-3.95m0-3.95v-3.95m0-3.94v-3.96m0-3.95v-3.96m0-3.95v-3.96m0-3.95v-3.96m0-3.94v-3.95m0-3.95v-3.95m0-3.95v-3.95m0-3.95v-3.95m0-3.95v-3.94m0-3.95v-3.94m0-3.95v-3.94m0-3.95v-3.94m0-3.95V5.7m0-3.95v-3.95m0-3.95v-3.95m0-3.95v-3.95m0-3.94v-3.95m0-3.95v-3.95m0-3.95v-3.95m0-3.95v-3.95m0-3.94v-3.95m0-3.96v-3.95m0-3.96v-3.95m0-3.96v-3.94m0-3.95v-3.95m0-3.95V-97m0-3.95v-3.95m0-3.95v-3.95m0-3.94v-3.95m0-3.94v-3.95m0-3.94v-3.95m0-3.94v-3.94m0-3.95v-3.95m0-3.95v-3.95m0-3.95v-3.95m0-3.95V-174l.07-.94.22-.9.17-.45" stroke="#000" fill="none"/><path d="M195-95.35a6 6 0 0 1 6-6h188a6 6 0 0 1 6 6v212.2a6 6 0 0 1-6 6H201a6 6 0 0 1-6-6z" stroke="#000" fill="#fff"/><use xlink:href="#a" transform="matrix(1,0,0,1,215,-81.35013291724448) translate(35.03086419753086 17.77777777777778)"/><use xlink:href="#b" transform="matrix(1,0,0,1,215,-81.35013291724448) translate(112.62345679012346 17.77777777777778)"/><path d="M470-274a6 6 0 0 1 6-6h228a6 6 0 0 1 6 6v28a6 6 0 0 1-6 6H476a6 6 0 0 1-6-6z" stroke="#000" stroke-opacity="0" fill="#fff" fill-opacity="0"/><use xlink:href="#c" transform="matrix(1,0,0,1,475,-275) translate(27.191358024691354 19.65277777777778)"/><use xlink:href="#d" transform="matrix(1,0,0,1,475,-275) translate(82.19135802469135 19.65277777777778)"/><path d="M314.5-141.35c0 10.9-8.84 19.75-19.75 19.75-10.9 0-19.75-8.84-19.75-19.75 0-10.9 8.84-19.75 19.75-19.75 10.9 0 19.75 8.84 19.75 19.75z" stroke="#3a414a" fill-opacity="0"/><path d="M304.68-141.35c0 5.48-4.45 9.92-9.93 9.92-5.48 0-9.93-4.44-9.93-9.92 0-5.48 4.45-9.93 9.93-9.93 5.48 0 9.93 4.45 9.93 9.93z" stroke="#3a414a" fill-opacity="0"/><path d="M297.6-141.35c0 1.58-1.27 2.86-2.85 2.86s-2.86-1.27-2.86-2.85 1.27-2.86 2.85-2.86 2.86 1.27 2.86 2.85z" stroke="#3a414a"/><path d="M287.87-101.35h13.76l-6.88-40z" stroke="#3a414a"/><path d="M590-239.5v58.5" stroke="#3a414a" fill="none"/><path d="M590.5-239.5h-1v-.5h1zM590.5-180.5h-1v-.5h1z" stroke="#3a414a" stroke-width=".05" fill="#3a414a"/><path d="M657.56 12.9c0 5.6-4.53 10.13-10.12 10.13-5.6 0-10.13-4.53-10.13-10.12 0-5.58 4.55-10.12 10.14-10.12 5.6 0 10.12 4.54 10.12 10.13zM752.7 12.9c0 5.6-4.55 10.13-10.14 10.13-5.6 0-10.12-4.53-10.12-10.12 0-5.58 4.53-10.12 10.12-10.12 5.6 0 10.13 4.54 10.13 10.13zM705.13 12.9c0 5.6-4.54 10.13-10.13 10.13-5.6 0-10.13-4.53-10.13-10.12 0-5.58 4.54-10.12 10.13-10.12 5.6 0 10.13 4.54 10.13 10.13z" stroke="#3a414a" stroke-width="2"/><path d="M1200-254a6 6 0 0 1 6-6h588a6 6 0 0 1 6 6v648a6 6 0 0 1-6 6h-588a6 6 0 0 1-6-6z" fill-opacity="0"/><path d="M1203.7-259.53l.45-.18.9-.23.95-.07h2m3.96 0h3.97m3.97 0h3.98m3.97 0h3.97m3.98 0h3.97m3.97 0h3.98m3.97 0h3.96m3.97 0h3.98m3.98 0h3.97m3.98 0h3.97m3.97 0h3.98m3.97 0h3.97m3.96 0h3.98m3.97 0h3.98m3.98 0h3.97m3.97 0h3.98m3.97 0h3.97m3.98 0h3.97m3.97 0h3.97m4 0h3.96m3.97 0h3.97m3.98 0h3.97m3.97 0h3.98m3.97 0h3.97m3.98 0h3.97m3.96 0h3.97m3.98 0h3.98m3.97 0h3.98m3.97 0h3.97m3.98 0h3.97m3.97 0h3.96m3.98 0h3.97m3.98 0h3.98m3.97 0h3.97m3.98 0h3.97m3.97 0h3.98m3.97 0h3.97m3.97 0h4m3.96 0h3.97m3.97 0h3.98m3.97 0h3.97m3.98 0h3.97m3.97 0h3.98m3.97 0h3.96m3.97 0h3.98m3.98 0h3.97m3.98 0h3.97m3.97 0h3.98m3.97 0h3.97m3.96 0h3.98m3.97 0h3.98m3.98 0h3.97m3.97 0h3.98m3.97 0h3.97m3.98 0h3.97m3.97 0h3.97m4 0h3.96m3.97 0h3.97m3.98 0h3.97m3.97 0h3.98m3.97 0h3.97m3.98 0h3.97m3.96 0h3.97m3.98 0h3.98m3.97 0h3.98m3.97 0h3.97m3.98 0h3.97m3.97 0h3.96m3.98 0h3.97m3.98 0h3.98m3.97 0h3.97m3.98 0h3.97m3.97 0h3.98m3.97 0h3.97m3.97 0h2l.94.07.9.22.45.17m3.23 3.24l.18.45.23.9.07.95v2m0 4v4m0 4v4m0 4v4m0 4v4m0 4v4m0 4v4m0 4v4m0 4v4m0 4v4m0 4v4m0 4v4m0 4v4m0 4v4m0 4v4m0 4v4m0 4v4m0 4v4m0 4v4m0 4v4m0 4v4m0 4v4m0 4v4m0 4v4m0 4v4m0 4v4m0 4v4m0 4v4m0 4v4m0 4v4m0 4v4m0 4v4m0 4v4m0 4v4m0 4v4m0 4v4m0 4v4m0 4v4m0 4v4m0 4v4m0 4v4m0 4v4m0 4v4m0 4v4m0 4v4m0 4v4m0 4v4m0 4v4m0 4v4m0 4v4m0 4v4m0 4v4m0 4v4m0 4v4m0 4v4m0 4v4m0 4v4m0 4v4m0 4v4m0 4v4m0 4v4m0 4v4m0 4v4m0 4v4m0 4v4m0 4v4m0 4v4m0 4v4m0 4v4m0 4v4m0 4v4m0 4v4m0 4v4m0 4v4m0 4v4m0 4v4m0 4v4m0 4v4m0 4v4m0 4v4m0 4v4m0 4v2l-.07.94-.22.9-.17.45m-3.24 3.23l-.45.18-.9.23-.95.07h-2m-3.96 0h-3.97m-3.97 0h-3.98m-3.97 0h-3.97m-3.98 0h-3.97m-3.97 0h-3.98m-3.97 0h-3.96m-3.97 0h-3.98m-3.98 0h-3.97m-3.98 0h-3.97m-3.97 0h-3.98m-3.97 0h-3.97m-3.96 0h-3.98m-3.97 0h-3.98m-3.98 0h-3.97m-3.97 0h-3.98m-3.97 0h-3.97m-3.98 0h-3.97m-3.97 0H1649m-4 0h-3.96m-3.97 0h-3.97m-3.98 0h-3.97m-3.97 0h-3.98m-3.97 0h-3.97m-3.98 0h-3.97m-3.96 0h-3.97m-3.98 0h-3.98m-3.97 0h-3.98m-3.97 0h-3.97m-3.98 0h-3.97m-3.97 0h-3.96m-3.98 0h-3.97m-3.98 0h-3.98m-3.97 0h-3.97m-3.98 0h-3.97m-3.97 0h-3.98m-3.97 0h-3.97m-3.97 0h-4m-3.96 0h-3.97m-3.97 0h-3.98m-3.97 0h-3.97m-3.98 0h-3.97m-3.97 0h-3.98m-3.97 0h-3.96m-3.97 0h-3.98m-3.98 0h-3.97m-3.98 0h-3.97m-3.97 0h-3.98m-3.97 0h-3.97m-3.96 0h-3.98m-3.97 0h-3.98m-3.98 0h-3.97m-3.97 0h-3.98m-3.97 0h-3.97m-3.98 0h-3.97m-3.97 0H1355m-4 0h-3.96m-3.97 0h-3.97m-3.98 0h-3.97m-3.97 0h-3.98m-3.97 0h-3.97m-3.98 0h-3.97m-3.96 0h-3.97m-3.98 0h-3.98m-3.97 0h-3.98m-3.97 0h-3.97m-3.98 0h-3.97m-3.97 0h-3.96m-3.98 0h-3.97m-3.98 0h-3.98m-3.97 0h-3.97m-3.98 0h-3.97m-3.97 0h-3.98m-3.97 0h-3.97m-3.97 0h-2l-.94-.07-.9-.22-.45-.17m-3.23-3.24l-.18-.45-.23-.9-.07-.95v-2m0-4v-4m0-4v-4m0-4v-4m0-4v-4m0-4v-4m0-4v-4m0-4v-4m0-4v-4m0-4v-4m0-4v-4m0-4v-4m0-4v-4m0-4v-4m0-4v-4m0-4v-4m0-4v-4m0-4v-4m0-4v-4m0-4v-4m0-4v-4m0-4v-4m0-4v-4m0-4v-4m0-4v-4m0-4v-4m0-4v-4m0-4v-4m0-4v-4m0-4v-4m0-4v-4m0-4v-4m0-4v-4m0-4v-4m0-4v-4m0-4v-4m0-4v-4m0-4v-4m0-4v-4m0-4v-4m0-4v-4m0-4v-4m0-4v-4m0-4v-4m0-4v-4m0-4v-4m0-4v-4m0-4v-4m0-4V8m0-4V0m0-4v-4m0-4v-4m0-4v-4m0-4v-4m0-4v-4m0-4v-4m0-4v-4m0-4v-4m0-4v-4m0-4v-4m0-4v-4m0-4v-4m0-4v-4m0-4v-4m0-4v-4m0-4v-4m0-4v-4m0-4v-4m0-4v-4m0-4v-4m0-4v-4m0-4v-4m0-4v-4m0-4v-4m0-4v-4m0-4v-4m0-4v-4m0-4v-4m0-4v-4m0-4v-4m0-4v-4m0-4v-2l.07-.94.22-.9.17-.45" stroke="#000" fill="none"/><path d="M215-34.3a6 6 0 0 1 6-6h148a6 6 0 0 1 6 6v51.33a6 6 0 0 1-6 6H221a6 6 0 0 1-6-6z" stroke="#000" fill="#fff" fill-opacity="0"/><use xlink:href="#e" transform="matrix(1,0,0,1,220,-35.30066458622273) translate(58.95061728395062 21.15277777777778)"/><use xlink:href="#f" transform="matrix(1,0,0,1,220,-35.30066458622273) translate(2.5 47.81944444444444)"/><use xlink:href="#g" transform="matrix(1,0,0,1,220,-35.30066458622273) translate(99.35185185185185 47.81944444444444)"/><path d="M215 44.65a6 6 0 0 1 6-6h148a6 6 0 0 1 6 6v51.33a6 6 0 0 1-6 6H221a6 6 0 0 1-6-6z" stroke="#000" fill="#fff" fill-opacity="0"/><use xlink:href="#e" transform="matrix(1,0,0,1,220,43.64986708275554) translate(58.95061728395062 21.15277777777778)"/><use xlink:href="#h" transform="matrix(1,0,0,1,220,43.64986708275554) translate(12.71604938271605 47.81944444444444)"/><use xlink:href="#g" transform="matrix(1,0,0,1,220,43.64986708275554) translate(89.1358024691358 47.81944444444444)"/><path d="M415-95.35a6 6 0 0 1 6-6h188a6 6 0 0 1 6 6v212.2a6 6 0 0 1-6 6H421a6 6 0 0 1-6-6z" stroke="#000" fill="#fff"/><use xlink:href="#a" transform="matrix(1,0,0,1,435,-81.35013291724448) translate(35.03086419753086 17.77777777777778)"/><use xlink:href="#i" transform="matrix(1,0,0,1,435,-81.35013291724448) translate(112.62345679012346 17.77777777777778)"/><path d="M534.5-141.35c0 10.9-8.84 19.75-19.75 19.75-10.9 0-19.75-8.84-19.75-19.75 0-10.9 8.84-19.75 19.75-19.75 10.9 0 19.75 8.84 19.75 19.75z" stroke="#3a414a" fill-opacity="0"/><path d="M524.67-141.35c0 5.48-4.44 9.92-9.92 9.92-5.48 0-9.93-4.44-9.93-9.92 0-5.48 4.45-9.93 9.93-9.93 5.48 0 9.92 4.45 9.92 9.93z" stroke="#3a414a" fill-opacity="0"/><path d="M517.6-141.35c0 1.58-1.27 2.86-2.85 2.86s-2.86-1.27-2.86-2.85 1.27-2.86 2.85-2.86 2.86 1.27 2.86 2.85z" stroke="#3a414a"/><path d="M507.87-101.35h13.76l-6.88-40z" stroke="#3a414a"/><path d="M435-34.3a6 6 0 0 1 6-6h148a6 6 0 0 1 6 6v51.33a6 6 0 0 1-6 6H441a6 6 0 0 1-6-6z" stroke="#000" fill="#fff" fill-opacity="0"/><use xlink:href="#e" transform="matrix(1,0,0,1,440,-35.30066458622273) translate(58.95061728395062 21.15277777777778)"/><use xlink:href="#f" transform="matrix(1,0,0,1,440,-35.30066458622273) translate(2.5 47.81944444444444)"/><use xlink:href="#g" transform="matrix(1,0,0,1,440,-35.30066458622273) translate(99.35185185185185 47.81944444444444)"/><path d="M435 44.65a6 6 0 0 1 6-6h148a6 6 0 0 1 6 6v51.33a6 6 0 0 1-6 6H441a6 6 0 0 1-6-6z" stroke="#000" fill="#fff" fill-opacity="0"/><use xlink:href="#e" transform="matrix(1,0,0,1,440,43.64986708275554) translate(58.95061728395062 21.15277777777778)"/><use xlink:href="#h" transform="matrix(1,0,0,1,440,43.64986708275554) translate(12.71604938271605 47.81944444444444)"/><use xlink:href="#g" transform="matrix(1,0,0,1,440,43.64986708275554) translate(89.1358024691358 47.81944444444444)"/><path d="M780-95.38a6 6 0 0 1 6-6h188a6 6 0 0 1 6 6v212.2a6 6 0 0 1-6 6H786a6 6 0 0 1-6-6z" stroke="#000" fill="#fff"/><use xlink:href="#a" transform="matrix(1,0,0,1,800,-81.38373208506692) translate(35.03086419753086 17.77777777777778)"/><use xlink:href="#j" transform="matrix(1,0,0,1,800,-81.38373208506692) translate(112.62345679012346 17.77777777777778)"/><path d="M899.5-144.2c0 10.9-8.84 19.74-19.75 19.74-10.9 0-19.75-8.85-19.75-19.75 0-10.92 8.84-19.76 19.75-19.76 10.9 0 19.75 8.84 19.75 19.75z" stroke="#3a414a" fill-opacity="0"/><path d="M889.67-144.2c0 5.47-4.44 9.9-9.92 9.9-5.48 0-9.92-4.43-9.92-9.9 0-5.5 4.44-9.94 9.92-9.94 5.48 0 9.92 4.44 9.92 9.93z" stroke="#3a414a" fill-opacity="0"/><path d="M882.6-144.2c0 1.57-1.27 2.85-2.85 2.85s-2.86-1.28-2.86-2.86c0-1.6 1.27-2.88 2.85-2.88s2.86 1.28 2.86 2.87z" stroke="#3a414a"/><path d="M872.87-101.38h13.76l-6.88-40z" stroke="#3a414a"/><path d="M800-34.33a6 6 0 0 1 6-6h148a6 6 0 0 1 6 6V17a6 6 0 0 1-6 6H806a6 6 0 0 1-6-6z" stroke="#000" fill="#fff" fill-opacity="0"/><use xlink:href="#e" transform="matrix(1,0,0,1,805,-35.33426375404529) translate(58.95061728395062 21.15277777777778)"/><use xlink:href="#f" transform="matrix(1,0,0,1,805,-35.33426375404529) translate(2.5 47.81944444444444)"/><use xlink:href="#g" transform="matrix(1,0,0,1,805,-35.33426375404529) translate(99.35185185185185 47.81944444444444)"/><path d="M800 44.62a6 6 0 0 1 6-6h148a6 6 0 0 1 6 6v51.33a6 6 0 0 1-6 6H806a6 6 0 0 1-6-6z" stroke="#000" fill="#fff" fill-opacity="0"/><use xlink:href="#e" transform="matrix(1,0,0,1,805,43.61626791493304) translate(58.95061728395062 21.15277777777778)"/><use xlink:href="#h" transform="matrix(1,0,0,1,805,43.61626791493304) translate(12.71604938271605 47.81944444444444)"/><use xlink:href="#g" transform="matrix(1,0,0,1,805,43.61626791493304) translate(89.1358024691358 47.81944444444444)"/><path d="M1147.3 30c0 7.68-6.22 13.9-13.9 13.9-7.68 0-13.9-6.22-13.9-13.9 0-7.68 6.22-13.9 13.9-13.9 7.68 0 13.9 6.22 13.9 13.9z" stroke="#3a414a" stroke-width="2" fill="#fff"/><path d="M291.9 161a6 6 0 0 1 6-6H874a6 6 0 0 1 6 6v78a6 6 0 0 1-6 6H297.9a6 6 0 0 1-6-6z" stroke="#000" stroke-opacity="0" fill="#fff" fill-opacity="0"/><use xlink:href="#k" transform="matrix(1,0,0,1,296.88563564818384,160) translate(20.611111111111086 30.27777777777778)"/><use xlink:href="#l" transform="matrix(1,0,0,1,296.88563564818384,160) translate(67.46296296296293 30.27777777777778)"/><use xlink:href="#m" transform="matrix(1,0,0,1,296.88563564818384,160) translate(97.09259259259257 30.27777777777778)"/><use xlink:href="#n" transform="matrix(1,0,0,1,296.88563564818384,160) translate(157.52469135802465 30.27777777777778)"/><use xlink:href="#o" transform="matrix(1,0,0,1,296.88563564818384,160) translate(257.46296296296293 30.27777777777778)"/><use xlink:href="#p" transform="matrix(1,0,0,1,296.88563564818384,160) translate(282.1543209876543 30.27777777777778)"/><use xlink:href="#q" transform="matrix(1,0,0,1,296.88563564818384,160) translate(331.4753086419753 30.27777777777778)"/><use xlink:href="#r" transform="matrix(1,0,0,1,296.88563564818384,160) translate(443.6358024691358 30.27777777777778)"/><use xlink:href="#s" transform="matrix(1,0,0,1,296.88563564818384,160) translate(474.5 30.27777777777778)"/><use xlink:href="#t" transform="matrix(1,0,0,1,296.88563564818384,160) translate(504.1296296296296 30.27777777777778)"/><use xlink:href="#u" transform="matrix(1,0,0,1,296.88563564818384,160) translate(103.82098765432099 56.94444444444445)"/><use xlink:href="#s" transform="matrix(1,0,0,1,296.88563564818384,160) translate(182.70987654320987 56.94444444444445)"/><use xlink:href="#v" transform="matrix(1,0,0,1,296.88563564818384,160) translate(212.3395061728395 56.94444444444445)"/><use xlink:href="#w" transform="matrix(1,0,0,1,296.88563564818384,160) translate(292.5864197530864 56.94444444444445)"/><use xlink:href="#x" transform="matrix(1,0,0,1,296.88563564818384,160) translate(317.27777777777777 56.94444444444445)"/><use xlink:href="#y" transform="matrix(1,0,0,1,296.88563564818384,160) translate(390.05555555555554 56.94444444444445)"/><use xlink:href="#z" transform="matrix(1,0,0,1,296.88563564818384,160) translate(427.0925925925926 56.94444444444445)"/><path d="M1199.5-92.45" stroke="#000" fill="none"/><path stroke="#000" stroke-width=".05"/><path stroke="#000" stroke-width=".05"/><path d="M130 306a6 6 0 0 1 6-6h908a6 6 0 0 1 6 6v66.33a6 6 0 0 1-6 6H136a6 6 0 0 1-6-6z" stroke="#000" stroke-opacity="0" fill="#fff" fill-opacity="0"/><use xlink:href="#A" transform="matrix(1,0,0,1,135,305) translate(92.25308641975312 39.34027777777778)"/><use xlink:href="#B" transform="matrix(1,0,0,1,135,305) translate(233.91975308641977 39.34027777777778)"/><use xlink:href="#C" transform="matrix(1,0,0,1,135,305) translate(279.47530864197535 39.34027777777778)"/><use xlink:href="#D" transform="matrix(1,0,0,1,135,305) translate(360.70987654320993 39.34027777777778)"/><use xlink:href="#E" transform="matrix(1,0,0,1,135,305) translate(422.2530864197531 39.34027777777778)"/><use xlink:href="#F" transform="matrix(1,0,0,1,135,305) translate(472.74691358024694 39.34027777777778)"/><use xlink:href="#G" transform="matrix(1,0,0,1,135,305) translate(567.5617283950618 39.34027777777778)"/><use xlink:href="#H" transform="matrix(1,0,0,1,135,305) translate(595.8950617283951 39.34027777777778)"/><use xlink:href="#I" transform="matrix(1,0,0,1,135,305) translate(661.141975308642 39.34027777777778)"/><use xlink:href="#J" transform="matrix(1,0,0,1,135,305) translate(731.3888888888889 39.34027777777778)"/><path d="M590 299.5V261" stroke="#000" fill="none"/><path d="M590.5 300h-1v-.5h1zM590.5 261h-1v-.5h1z" stroke="#000" stroke-width=".05"/><path d="M1254.26 30h-105.44" stroke="#000" fill="none"/><path d="M1254.76 30.5h-.5v-1h.5zM1148.83 30.5h-.58l.07-.5-.07-.5h.58z" stroke="#000" stroke-width=".05"/><path d="M1118 30h-97" stroke="#000" fill="none"/><path d="M1118.5 30l.06.5h-.58v-1h.58zM1021 30.5h-.5v-1h.5z" stroke="#000" stroke-width=".05"/><path d="M1272.83-119.78a15 15 0 0 1 15-15h295.1a15 15 0 0 1 15 15v419.1a15 15 0 0 1-15 15h-295.1a15 15 0 0 1-15-15z" stroke="#333" fill="#e5e5e5"/><path d="M1264.05-128.6a15 15 0 0 1 15-15h295.08a15 15 0 0 1 15 15v419.12a15 15 0 0 1-15 15h-295.08a15 15 0 0 1-15-15z" stroke="#333" fill="#e5e5e5"/><path d="M1255.26-137.4a15 15 0 0 1 15-15h295.1a15 15 0 0 1 15 15v419.1a15 15 0 0 1-15 15h-295.1a15 15 0 0 1-15-15z" stroke="#333" fill="#fff"/><path d="M1272.83-119.78a15 15 0 0 1 15-15h259.95a15 15 0 0 1 15 15v251.8a15 15 0 0 1-15 15h-259.95a15 15 0 0 1-15-15z" fill-opacity="0"/><path d="M1274.02-125.5l.45-1.1 1.23-2 .25-.3m2.77-2.76l.3-.26 2-1.23 1.1-.45m3.76-1.03l1.95-.15h2.03m4.07 0h4.06m4.05 0h4.06m4.07 0h4.06m4.06 0h4.06m4.06 0h4.06m4.06 0h4.06m4.06 0h4.07m4.06 0h4.05m4.06 0h4.07m4.06 0h4.07m4.06 0h4.06m4.06 0h4.06m4.06 0h4.06m4.07 0h4.06m4.05 0h4.06m4.07 0h4.06m4.07 0h4.06m4.06 0h4.06m4.06 0h4.06m4.07 0h4.06m4.06 0h4.05m4.06 0h4.07m4.07 0h4.06m4.06 0h4.06m4.06 0h4.06m4.07 0h4.07m4.06 0h4.06m4.05 0h4.06m4.07 0h4.07m4.06 0h4.06m4.06 0h4.06m4.06 0h2.04l1.95.15m3.77 1.03l1.08.45 2 1.23.3.26m2.77 2.76l.26.3 1.24 2 .45 1.1m1.02 3.76l.15 1.96v2.03m0 4.06v4.07m0 4.06v4.06m0 4.06v4.06m0 4.06v4.06m0 4.06v4.06m0 4.06v4.06m0 4.06v4.07m0 4.07v4.06m0 4.06v4.05m0 4.06v4.07m0 4.06v4.07m0 4.06v4.06m0 4.06v4.06m0 4.06v4.06m0 4.06V4.1m0 4.05v4.06m0 4.07v4.06m0 4.06v4.05m0 4.06v4.07m0 4.06v4.07m0 4.06v4.06m0 4.06v4.06m0 4.06v4.06m0 4.06v4.07m0 4.05v4.06m0 4.07v4.06m0 4.06v4.05m0 4.06v4.08m0 4.06v4.06m0 4.06v4.06m0 4.06V132l-.15 1.97m-1.03 3.76l-.46 1.1-1.23 2-.25.3m-2.76 2.76l-.3.25-2.02 1.23-1.08.45m-3.77 1.03l-1.95.15h-2.04m-4.06 0h-4.06m-4.06 0h-4.06m-4.06 0h-4.07m-4.06 0h-4.05m-4.06 0h-4.07m-4.06 0H1497m-4.06 0h-4.06m-4.06 0h-4.06m-4.06 0h-4.07m-4.06 0h-4.06m-4.05 0h-4.06m-4.07 0h-4.06m-4.07 0h-4.06m-4.06 0h-4.06m-4.06 0h-4.06m-4.07 0h-4.06m-4.06 0h-4.05m-4.06 0h-4.07m-4.07 0h-4.06m-4.06 0h-4.06m-4.06 0h-4.06m-4.07 0h-4.07m-4.06 0h-4.06m-4.05 0h-4.06m-4.07 0h-4.07m-4.06 0h-4.06m-4.06 0h-4.06m-4.06 0h-4.07m-4.07 0h-4.06m-4.06 0h-4.05m-4.06 0h-4.08m-4.06 0h-2.03l-1.95-.14m-3.77-1.03l-1.08-.45-2-1.23-.3-.26m-2.77-2.77l-.25-.3-1.23-2-.45-1.1m-1.03-3.76l-.17-1.96V130m0-4.06v-4.06m0-4.06v-4.06m0-4.06v-4.07m0-4.05V97.5m0-4.07v-4.06m0-4.06v-4.05m0-4.06V73.1m0-4.06V65m0-4.06v-4.06m0-4.06v-4.06m0-4.06v-4.07m0-4.06V32.5m0-4.05V24.4m0-4.07v-4.06m0-4.06V8.16m0-4.07V.03m0-4.06V-8.1m0-4.06v-4.06m0-4.06v-4.06m0-4.06v-4.07m0-4.06v-4.06m0-4.05v-4.06m0-4.07v-4.06m0-4.06v-4.05m0-4.07v-4.06m0-4.06v-4.06m0-4.06v-4.06m0-4.06v-4.06m0-4.06v-4.07m0-4.06v-4.06m0-4.05v-2.03l.16-1.96" stroke="#000" fill="none"/><path d="M1272.83 179.62a15 15 0 0 1 15-15h259.95a15 15 0 0 1 15 15v82.28a15 15 0 0 1-15 15h-259.95a15 15 0 0 1-15-15z" stroke="#333" fill="#fff"/><use xlink:href="#K" transform="matrix(1,0,0,1,1300.8323699421965,192.62331251365748) translate(59.03703703703709 21.340277777777764)"/><use xlink:href="#L" transform="matrix(1,0,0,1,1300.8323699421965,192.62331251365748) translate(63.97530864197535 48.006944444444414)"/><path d="M1307.98-84.56a15 15 0 0 1 15-15h66.64a15 15 0 0 1 15 15v63.46a15 15 0 0 1-15 15h-66.64a15 15 0 0 1-15-15z" stroke="#333" fill="#e5e5e5"/><path d="M1299.2-93.36a15 15 0 0 1 15-15h66.64a15 15 0 0 1 15 15v63.45a15 15 0 0 1-15 15h-66.65a15 15 0 0 1-15-15z" stroke="#333" fill="#e5e5e5"/><path d="M1290.4-102.17a15 15 0 0 1 15-15h66.65a15 15 0 0 1 15 15v63.46a15 15 0 0 1-15 15h-66.64a15 15 0 0 1-15-15z" stroke="#333" fill="#fff"/><use xlink:href="#M" transform="matrix(1,0,0,1,1295.4046242774566,-112.16843976252453) translate(7.993827160493872 35.22222222222221)"/><use xlink:href="#N" transform="matrix(1,0,0,1,1295.4046242774566,-112.16843976252453) translate(13.919753086419789 56.55555555555552)"/><path d="M1448.56-84.56a15 15 0 0 1 15-15h66.64a15 15 0 0 1 15 15v63.46a15 15 0 0 1-15 15h-66.64a15 15 0 0 1-15-15z" stroke="#333" fill="#e5e5e5"/><path d="M1439.77-93.36a15 15 0 0 1 15-15h66.65a15 15 0 0 1 15 15v63.45a15 15 0 0 1-15 15h-66.65a15 15 0 0 1-15-15z" stroke="#333" fill="#e5e5e5"/><path d="M1430.98-102.17a15 15 0 0 1 15-15h66.65a15 15 0 0 1 15 15v63.46a15 15 0 0 1-15 15h-66.65a15 15 0 0 1-15-15z" stroke="#333" fill="#fff"/><use xlink:href="#O" transform="matrix(1,0,0,1,1435.9826589595375,-112.16843976252453) translate(7.500000000000043 35.22222222222221)"/><use xlink:href="#P" transform="matrix(1,0,0,1,1435.9826589595375,-112.16843976252453) translate(13.919753086419789 56.55555555555552)"/><path d="M1307.98 51.94a15 15 0 0 1 15-15h66.64a15 15 0 0 1 15 15v63.45a15 15 0 0 1-15 15h-66.64a15 15 0 0 1-15-15z" stroke="#333" fill="#e5e5e5"/><use xlink:href="#Q" transform="matrix(1,0,0,1,1312.9768786127167,41.93642476351256) translate(9.024691358024718 33.527777777777764)"/><use xlink:href="#R" transform="matrix(1,0,0,1,1312.9768786127167,41.93642476351256) translate(6.524691358024725 60.19444444444441)"/><path d="M1299.2 43.13a15 15 0 0 1 15-15h66.64a15 15 0 0 1 15 15v63.45a15 15 0 0 1-15 15h-66.65a15 15 0 0 1-15-15z" stroke="#333" fill="#e5e5e5"/><use xlink:href="#Q" transform="matrix(1,0,0,1,1304.1907514450866,33.130432504881824) translate(9.024691358024718 33.527777777777764)"/><use xlink:href="#R" transform="matrix(1,0,0,1,1304.1907514450866,33.130432504881824) translate(6.524691358024725 60.19444444444441)"/><path d="M1290.4 34.32a15 15 0 0 1 15-15h66.65a15 15 0 0 1 15 15v63.46a15 15 0 0 1-15 15h-66.64a15 15 0 0 1-15-15z" stroke="#333" fill="#fff"/><use xlink:href="#S" transform="matrix(1,0,0,1,1295.4046242774566,24.324440246251143) translate(15.919753086419785 35.22222222222221)"/><use xlink:href="#N" transform="matrix(1,0,0,1,1295.4046242774566,24.324440246251143) translate(13.919753086419789 56.55555555555552)"/><path d="M1448.56 51.94a15 15 0 0 1 15-15h66.64a15 15 0 0 1 15 15v63.45a15 15 0 0 1-15 15h-66.64a15 15 0 0 1-15-15z" stroke="#333" fill="#e5e5e5"/><use xlink:href="#T" transform="matrix(1,0,0,1,1453.5549132947979,41.93642476351256) translate(8.006172839506206 33.527777777777764)"/><use xlink:href="#R" transform="matrix(1,0,0,1,1453.5549132947979,41.93642476351256) translate(6.524691358024725 60.19444444444441)"/><path d="M1439.77 43.13a15 15 0 0 1 15-15h66.65a15 15 0 0 1 15 15v63.45a15 15 0 0 1-15 15h-66.65a15 15 0 0 1-15-15z" stroke="#333" fill="#e5e5e5"/><g><use xlink:href="#T" transform="matrix(1,0,0,1,1444.7687861271672,33.130432504881824) translate(8.006172839506206 33.527777777777764)"/><use xlink:href="#R" transform="matrix(1,0,0,1,1444.7687861271672,33.130432504881824) translate(6.524691358024725 60.19444444444441)"/></g><path d="M1430.98 34.32a15 15 0 0 1 15-15h66.65a15 15 0 0 1 15 15v63.46a15 15 0 0 1-15 15h-66.65a15 15 0 0 1-15-15z" stroke="#333" fill="#fff"/><g><use xlink:href="#U" transform="matrix(1,0,0,1,1435.9826589595375,24.324440246251143) translate(15.104938271604968 35.22222222222221)"/><use xlink:href="#N" transform="matrix(1,0,0,1,1435.9826589595375,24.324440246251143) translate(13.919753086419789 56.55555555555552)"/></g><path d="M1646.24 189.26a6 6 0 0 1 6-6H1794a6 6 0 0 1 6 6v23.23a6 6 0 0 1-6 6h-141.76a6 6 0 0 1-6-6z" stroke="#000" stroke-opacity="0" fill="#fff" fill-opacity="0"/><g><use xlink:href="#V" transform="matrix(1,0,0,1,1651.2427745664738,188.26266279566408) translate(9.870370370370416 17.777777777777768)"/><use xlink:href="#W" transform="matrix(1,0,0,1,1651.2427745664738,188.26266279566408) translate(17.185185185185226 44.444444444444414)"/></g><path d="M1217.1-234a6 6 0 0 1 6-6h175.52a6 6 0 0 1 6 6v49.38a6 6 0 0 1-6 6h-175.5a6 6 0 0 1-6-6z" stroke="#000" stroke-opacity="0" fill="#fff" fill-opacity="0"/><g><use xlink:href="#X" transform="matrix(1,0,0,1,1222.1111787175068,-234.99999999999994) translate(5.04938271604945 30.777777777777768)"/><use xlink:href="#Y" transform="matrix(1,0,0,1,1222.1111787175068,-234.99999999999994) translate(102.76543209876543 30.777777777777768)"/></g><path d="M1310.87-178.12v24.73" stroke="#333" fill="none"/><path d="M1311.37-178.1h-1v-.52h1zM1311.37-152.9h-1v-.5h1z" stroke="#333" stroke-width=".05" fill="#333"/><path d="M1645.74 200.88H1618a.06.06 0 0 1-.06-.06.06.06 0 0 0-.06-.06h-27.75" stroke="#333" fill="none"/><path d="M1646.24 201.38h-.5v-1h.5zM1590.15 201.26h-.52v-1h.52z" stroke="#333" stroke-width=".05" fill="#333"/><path d="M1598.92 180.18H1622a6 6 0 0 1 6 6v14.2" stroke="#333" fill="none"/><path d="M1598.93 180.68h-.5v-1h.5z" stroke="#333" stroke-width=".05" fill="#333"/><path d="M1628 200.36v.5" stroke="#333" fill="none"/><path d="M1646.24 54.44a6 6 0 0 1 6-6h119.8a6 6 0 0 1 6 6v23.22a6 6 0 0 1-6 6h-119.8a6 6 0 0 1-6-6z" stroke="#000" stroke-opacity="0" fill="#fff" fill-opacity="0"/><g><use xlink:href="#Z" transform="matrix(1,0,0,1,1651.2427745664736,53.43963355707443) translate(3.129629629629669 17.777777777777768)"/><use xlink:href="#aa" transform="matrix(1,0,0,1,1651.2427745664736,53.43963355707443) translate(20.320987654321016 44.444444444444414)"/></g><path d="M1645.74 66.05h-117.12" stroke="#333" fill="none"/><path d="M1646.24 66.55h-.5v-1h.5zM1528.64 66.55h-.5v-1h.5z" stroke="#333" stroke-width=".05" fill="#333"/><path d="M1628.86 65.55v-130a6 6 0 0 0-6-6h-94.23M1628.86 65.54v.5" stroke="#333" fill="none"/><path d="M1528.64-69.94h-.5v-1h.5z" stroke="#333" stroke-width=".05" fill="#333"/><path d="M1408.2-201.8a6 6 0 0 1 6-6H1594a6 6 0 0 1 6 6v25.27a6 6 0 0 1-6 6h-179.8a6 6 0 0 1-6-6z" stroke="#000" stroke-opacity="0" fill="#fff" fill-opacity="0"/><g><use xlink:href="#X" transform="matrix(1,0,0,1,1413.2094446134606,-202.80859916782254) translate(9.487654320987716 19.527777777777768)"/><use xlink:href="#ab" transform="matrix(1,0,0,1,1413.2094446134606,-202.80859916782254) translate(107.2037037037037 19.527777777777768)"/></g><path d="M1204.68 344.33a6 6 0 0 1 6-6h414.24a6 6 0 0 1 6 6v28a6 6 0 0 1-6 6h-414.24a6 6 0 0 1-6-6z" stroke="#000" stroke-opacity="0" fill="#fff" fill-opacity="0"/><g><use xlink:href="#ac" transform="matrix(1,0,0,1,1209.6820809248557,343.33333333333337) translate(40.16666666666677 19.715277777777768)"/><use xlink:href="#ad" transform="matrix(1,0,0,1,1209.6820809248557,343.33333333333337) translate(159.7962962962963 19.715277777777768)"/><use xlink:href="#ae" transform="matrix(1,0,0,1,1209.6820809248557,343.33333333333337) translate(276.9567901234567 19.715277777777768)"/><use xlink:href="#af" transform="matrix(1,0,0,1,1209.6820809248557,343.33333333333337) translate(302.8209876543209 19.715277777777768)"/></g><path d="M1417.8 337.83V277.9" stroke="#333" fill="none"/><path d="M1418.3 338.33h-1v-.5h1zM1418.3 277.9h-1v-.5h1z" stroke="#333" stroke-width=".05" fill="#333"/><path d="M1504.1-170.03V-153a.1.1 0 0 0 .1.1.1.1 0 0 1 .12.1v17.02" stroke="#000" fill="none"/><path d="M1504.6-170.02h-1v-.5h1zM1504.82-135.28h-1v-.5h1z" stroke="#000" stroke-width=".05"/><path d="M1388.05-70.44H1414a6 6 0 0 1 6 6V.1a6 6 0 0 0 6 6h202.36" stroke="#000" fill="none"/><path d="M1388.07-69.94h-.52v-1h.52z" stroke="#000" stroke-width=".05"/><path d="M1628.35 6.1h.5M1388.05 66.05H1414a6 6 0 0 0 6-6V5.2" stroke="#000" fill="none"/><path d="M1388.07 66.55h-.52v-1h.52z" stroke="#000" stroke-width=".05"/><path d="M1420 5.2v-.5" stroke="#000" fill="none"/><path d="M1200 446a6 6 0 0 1 6-6h588a6 6 0 0 1 6 6v66.33a6 6 0 0 1-6 6h-588a6 6 0 0 1-6-6z" stroke="#000" stroke-opacity="0" fill="#fff" fill-opacity="0"/><g><use xlink:href="#A" transform="matrix(1,0,0,1,1205,445) translate(13.641975308641975 26.40277777777778)"/><use xlink:href="#B" transform="matrix(1,0,0,1,1205,445) translate(155.30864197530863 26.40277777777778)"/><use xlink:href="#C" transform="matrix(1,0,0,1,1205,445) translate(200.8641975308642 26.40277777777778)"/><use xlink:href="#D" transform="matrix(1,0,0,1,1205,445) translate(282.0987654320988 26.40277777777778)"/><use xlink:href="#E" transform="matrix(1,0,0,1,1205,445) translate(343.641975308642 26.40277777777778)"/><use xlink:href="#F" transform="matrix(1,0,0,1,1205,445) translate(394.1358024691358 26.40277777777778)"/><use xlink:href="#G" transform="matrix(1,0,0,1,1205,445) translate(488.95061728395063 26.40277777777778)"/><use xlink:href="#ag" transform="matrix(1,0,0,1,1205,445) translate(517.283950617284 26.40277777777778)"/><use xlink:href="#I" transform="matrix(1,0,0,1,1205,445) translate(216.69753086419755 53.06944444444445)"/><use xlink:href="#J" transform="matrix(1,0,0,1,1205,445) translate(286.94444444444446 53.06944444444445)"/></g><path d="M1500 439.5V401" stroke="#000" fill="none"/><path d="M1500.5 440h-1v-.5h1zM1500.5 401h-1v-.5h1z" stroke="#000" stroke-width=".05"/><path d="M1199.77-314a6 6 0 0 1 6-6H1594a6 6 0 0 1 6 6v28a6 6 0 0 1-6 6h-388.23a6 6 0 0 1-6-6z" stroke="#000" stroke-opacity="0" fill="#fff" fill-opacity="0"/><g><use xlink:href="#ah" transform="matrix(1,0,0,1,1204.7687861271672,-315) translate(40.43827160493828 19.65277777777778)"/><use xlink:href="#ai" transform="matrix(1,0,0,1,1204.7687861271672,-315) translate(167.2283950617284 19.65277777777778)"/><use xlink:href="#aj" transform="matrix(1,0,0,1,1204.7687861271672,-315) translate(271.5493827160494 19.65277777777778)"/></g><defs><path fill="#3a414a" d="M247 0h-39l-15-214-24 57L95 0H56L31-248h35L82-30l101-218h33l16 218 101-218h35" id="ak"/><path fill="#3a414a" d="M30-147c31-64 166-65 159 27C183-49 158 1 86 4 9 8 1-88 30-147zM88-20c53 0 68-48 68-100 0-31-11-51-44-50-52 1-68 46-68 97 0 32 13 53 44 53" id="al"/><path fill="#3a414a" d="M66-151c12-25 30-51 66-40l-6 26C45-176 58-65 38 0H6l36-190h30" id="am"/><path fill="#3a414a" d="M127 0L80-88 50-66 37 0H6l51-261h31L57-100l99-90h39l-93 82L161 0h-34" id="an"/><path fill="#3a414a" d="M111-194c62-3 86 47 72 106H45c-7 38 6 69 45 68 27-1 43-14 53-32l24 11C152-15 129 4 87 4 38 3 12-23 12-71c0-70 32-119 99-123zm44 81c14-66-71-72-95-28-4 8-8 17-11 28h106" id="ao"/><g id="a"><use transform="matrix(0.06172839506172839,0,0,0.06172839506172839,0,0)" xlink:href="#ak"/><use transform="matrix(0.06172839506172839,0,0,0.06172839506172839,20.925925925925924,0)" xlink:href="#al"/><use transform="matrix(0.06172839506172839,0,0,0.06172839506172839,33.2716049382716,0)" xlink:href="#am"/><use transform="matrix(0.06172839506172839,0,0,0.06172839506172839,40.61728395061728,0)" xlink:href="#an"/><use transform="matrix(0.06172839506172839,0,0,0.06172839506172839,51.72839506172839,0)" xlink:href="#ao"/><use transform="matrix(0.06172839506172839,0,0,0.06172839506172839,64.07407407407408,0)" xlink:href="#am"/></g><path fill="#3a414a" d="M9 0l6-27h63l36-188-63 39 6-31 66-41h29L110-27h60l-5 27H9" id="ap"/><use transform="matrix(0.06172839506172839,0,0,0.06172839506172839,0,0)" xlink:href="#ap" id="b"/><path fill="#3a414a" d="M146-102V0H94v-102L6-248h54l60 105 60-105h54" id="aq"/><path fill="#3a414a" d="M110-194c64 0 96 36 96 99 0 64-35 99-97 99-61 0-95-36-95-99 0-62 34-99 96-99zm-1 164c35 0 45-28 45-65 0-40-10-65-43-65-34 0-45 26-45 65 0 36 10 65 43 65" id="ar"/><path fill="#3a414a" d="M85 4C-2 5 27-109 22-190h50c7 57-23 150 33 157 60-5 35-97 40-157h50l1 190h-47c-2-12 1-28-3-38-12 25-28 42-61 42" id="as"/><path fill="#3a414a" d="M135-150c-39-12-60 13-60 57V0H25l-1-190h47c2 13-1 29 3 40 6-28 27-53 61-41v41" id="at"/><g id="c"><use transform="matrix(0.06172839506172839,0,0,0.06172839506172839,0,0)" xlink:href="#aq"/><use transform="matrix(0.06172839506172839,0,0,0.06172839506172839,13.148148148148147,0)" xlink:href="#ar"/><use transform="matrix(0.06172839506172839,0,0,0.06172839506172839,26.666666666666664,0)" xlink:href="#as"/><use transform="matrix(0.06172839506172839,0,0,0.06172839506172839,40.18518518518518,0)" xlink:href="#at"/></g><path fill="#3a414a" d="M199 0l-22-63H83L61 0H9l90-248h61L250 0h-51zm-33-102l-36-108c-10 38-24 72-36 108h72" id="au"/><path fill="#3a414a" d="M135-194c53 0 70 44 70 98 0 56-19 98-73 100-31 1-45-17-59-34 3 33 2 69 2 105H25l-1-265h48c2 10 0 23 3 31 11-24 29-35 60-35zM114-30c33 0 39-31 40-66 0-38-9-64-40-64-56 0-55 130 0 130" id="av"/><path fill="#3a414a" d="M25 0v-261h50V0H25" id="aw"/><path fill="#3a414a" d="M25-224v-37h50v37H25zM25 0v-190h50V0H25" id="ax"/><path fill="#3a414a" d="M190-63c-7 42-38 67-86 67-59 0-84-38-90-98-12-110 154-137 174-36l-49 2c-2-19-15-32-35-32-30 0-35 28-38 64-6 74 65 87 74 30" id="ay"/><path fill="#3a414a" d="M133-34C117-15 103 5 69 4 32 3 11-16 11-54c-1-60 55-63 116-61 1-26-3-47-28-47-18 1-26 9-28 27l-52-2c7-38 36-58 82-57s74 22 75 68l1 82c-1 14 12 18 25 15v27c-30 8-71 5-69-32zm-48 3c29 0 43-24 42-57-32 0-66-3-65 30 0 17 8 27 23 27" id="az"/><path fill="#3a414a" d="M115-3C79 11 28 4 28-45v-112H4v-33h27l15-45h31v45h36v33H77v99c-1 23 16 31 38 25v30" id="aA"/><path fill="#3a414a" d="M135-194c87-1 58 113 63 194h-50c-7-57 23-157-34-157-59 0-34 97-39 157H25l-1-190h47c2 12-1 28 3 38 12-26 28-41 61-42" id="aB"/><g id="d"><use transform="matrix(0.06172839506172839,0,0,0.06172839506172839,0,0)" xlink:href="#au"/><use transform="matrix(0.06172839506172839,0,0,0.06172839506172839,15.987654320987653,0)" xlink:href="#av"/><use transform="matrix(0.06172839506172839,0,0,0.06172839506172839,29.50617283950617,0)" xlink:href="#av"/><use transform="matrix(0.06172839506172839,0,0,0.06172839506172839,43.02469135802469,0)" xlink:href="#aw"/><use transform="matrix(0.06172839506172839,0,0,0.06172839506172839,49.19753086419753,0)" xlink:href="#ax"/><use transform="matrix(0.06172839506172839,0,0,0.06172839506172839,55.370370370370374,0)" xlink:href="#ay"/><use transform="matrix(0.06172839506172839,0,0,0.06172839506172839,67.71604938271605,0)" xlink:href="#az"/><use transform="matrix(0.06172839506172839,0,0,0.06172839506172839,80.06172839506173,0)" xlink:href="#aA"/><use transform="matrix(0.06172839506172839,0,0,0.06172839506172839,87.40740740740742,0)" xlink:href="#ax"/><use transform="matrix(0.06172839506172839,0,0,0.06172839506172839,93.58024691358025,0)" xlink:href="#ar"/><use transform="matrix(0.06172839506172839,0,0,0.06172839506172839,107.09876543209877,0)" xlink:href="#aB"/></g><path fill="#3a414a" d="M18-100v-36l175-74v27L42-118l151 64v27" id="aC"/><path fill="#3a414a" d="M0 4l72-265h28L28 4H0" id="aD"/><path fill="#3a414a" d="M18-27v-27l151-64-151-65v-27l175 74v36" id="aE"/><g id="e"><use transform="matrix(0.06172839506172839,0,0,0.06172839506172839,0,0)" xlink:href="#aC"/><use transform="matrix(0.06172839506172839,0,0,0.06172839506172839,12.962962962962962,0)" xlink:href="#aD"/><use transform="matrix(0.06172839506172839,0,0,0.06172839506172839,19.1358024691358,0)" xlink:href="#aE"/></g><path fill="#3a414a" d="M266 0h-40l-56-210L115 0H75L2-248h35L96-30l15-64 43-154h32l59 218 59-218h35" id="aF"/><path fill="#3a414a" d="M100-194c62-1 85 37 85 99 1 63-27 99-86 99S16-35 15-95c0-66 28-99 85-99zM99-20c44 1 53-31 53-75 0-43-8-75-51-75s-53 32-53 75 10 74 51 75" id="aG"/><path fill="#3a414a" d="M114-163C36-179 61-72 57 0H25l-1-190h30c1 12-1 29 2 39 6-27 23-49 58-41v29" id="aH"/><path fill="#3a414a" d="M143 0L79-87 56-68V0H24v-261h32v163l83-92h37l-77 82L181 0h-38" id="aI"/><path fill="#3a414a" d="M101-234c-31-9-42 10-38 44h38v23H63V0H32v-167H5v-23h27c-7-52 17-82 69-68v24" id="aJ"/><path fill="#3a414a" d="M24 0v-261h32V0H24" id="aK"/><path fill="#3a414a" d="M206 0h-36l-40-164L89 0H53L-1-190h32L70-26l43-164h34l41 164 42-164h31" id="aL"/><g id="f"><use transform="matrix(0.06172839506172839,0,0,0.06172839506172839,0,0)" xlink:href="#aF"/><use transform="matrix(0.06172839506172839,0,0,0.06172839506172839,20.493827160493826,0)" xlink:href="#aG"/><use transform="matrix(0.06172839506172839,0,0,0.06172839506172839,32.839506172839506,0)" xlink:href="#aH"/><use transform="matrix(0.06172839506172839,0,0,0.06172839506172839,40.18518518518518,0)" xlink:href="#aI"/><use transform="matrix(0.06172839506172839,0,0,0.06172839506172839,51.29629629629629,0)" xlink:href="#aJ"/><use transform="matrix(0.06172839506172839,0,0,0.06172839506172839,57.46913580246913,0)" xlink:href="#aK"/><use transform="matrix(0.06172839506172839,0,0,0.06172839506172839,62.34567901234568,0)" xlink:href="#aG"/><use transform="matrix(0.06172839506172839,0,0,0.06172839506172839,74.69135802469135,0)" xlink:href="#aL"/></g><path fill="#3a414a" d="M96-169c-40 0-48 33-48 73s9 75 48 75c24 0 41-14 43-38l32 2c-6 37-31 61-74 61-59 0-76-41-82-99-10-93 101-131 147-64 4 7 5 14 7 22l-32 3c-4-21-16-35-41-35" id="aM"/><path fill="#3a414a" d="M85-194c31 0 48 13 60 33l-1-100h32l1 261h-30c-2-10 0-23-3-31C134-8 116 4 85 4 32 4 16-35 15-94c0-66 23-100 70-100zm9 24c-40 0-46 34-46 75 0 40 6 74 45 74 42 0 51-32 51-76 0-42-9-74-50-73" id="aN"/><path fill="#3a414a" d="M100-194c63 0 86 42 84 106H49c0 40 14 67 53 68 26 1 43-12 49-29l28 8c-11 28-37 45-77 45C44 4 14-33 15-96c1-61 26-98 85-98zm52 81c6-60-76-77-97-28-3 7-6 17-6 28h103" id="aO"/><g id="g"><use transform="matrix(0.06172839506172839,0,0,0.06172839506172839,0,0)" xlink:href="#aM"/><use transform="matrix(0.06172839506172839,0,0,0.06172839506172839,11.11111111111111,0)" xlink:href="#aG"/><use transform="matrix(0.06172839506172839,0,0,0.06172839506172839,23.45679012345679,0)" xlink:href="#aN"/><use transform="matrix(0.06172839506172839,0,0,0.06172839506172839,35.80246913580247,0)" xlink:href="#aO"/></g><path fill="#3a414a" d="M205 0l-28-72H64L36 0H1l101-248h38L239 0h-34zm-38-99l-47-123c-12 45-31 82-46 123h93" id="aP"/><path fill="#3a414a" d="M59-47c-2 24 18 29 38 22v24C64 9 27 4 27-40v-127H5v-23h24l9-43h21v43h35v23H59v120" id="aQ"/><path fill="#3a414a" d="M24-231v-30h32v30H24zM24 0v-190h32V0H24" id="aR"/><path fill="#3a414a" d="M108 0H70L1-190h34L89-25l56-165h34" id="aS"/><path fill="#3a414a" d="M179-190L93 31C79 59 56 82 12 73V49c39 6 53-20 64-50L1-190h34L92-34l54-156h33" id="aT"/><g id="h"><use transform="matrix(0.06172839506172839,0,0,0.06172839506172839,0,0)" xlink:href="#aP"/><use transform="matrix(0.06172839506172839,0,0,0.06172839506172839,14.814814814814813,0)" xlink:href="#aM"/><use transform="matrix(0.06172839506172839,0,0,0.06172839506172839,25.925925925925924,0)" xlink:href="#aQ"/><use transform="matrix(0.06172839506172839,0,0,0.06172839506172839,32.098765432098766,0)" xlink:href="#aR"/><use transform="matrix(0.06172839506172839,0,0,0.06172839506172839,36.97530864197531,0)" xlink:href="#aS"/><use transform="matrix(0.06172839506172839,0,0,0.06172839506172839,48.08641975308642,0)" xlink:href="#aR"/><use transform="matrix(0.06172839506172839,0,0,0.06172839506172839,52.96296296296296,0)" xlink:href="#aQ"/><use transform="matrix(0.06172839506172839,0,0,0.06172839506172839,59.135802469135804,0)" xlink:href="#aT"/></g><path fill="#3a414a" d="M123-251c66 0 92 69 53 113C138-94 73-75 39-27h128l-5 27H-2c17-92 123-93 159-163 14-28-1-64-36-62-29 2-46 17-54 41l-30-6c13-36 37-61 86-61" id="aU"/><use transform="matrix(0.06172839506172839,0,0,0.06172839506172839,0,0)" xlink:href="#aU" id="i"/><path fill="#3a414a" d="M67-158c22-48 132-52 116 29L158 0h-32l25-140c3-38-53-32-70-12C52-117 51-52 38 0H6l36-190h30" id="aV"/><use transform="matrix(0.06172839506172839,0,0,0.06172839506172839,0,0)" xlink:href="#aV" id="j"/><path fill="#3a414a" d="M249-183c0 48-29 72-75 77L221 0h-36l-43-103H65L45 0H11l48-248c83 2 190-17 190 65zm-34 3c0-55-74-39-127-41l-18 92c63-1 145 13 145-51" id="aW"/><path fill="#3a414a" d="M67 3c-93-2-31-127-26-193h32L48-50c-3 39 53 32 70 12 30-34 30-101 43-152h32L157 0h-30c1-10 6-24 4-33-14 20-29 37-64 36" id="aX"/><g id="k"><use transform="matrix(0.06172839506172839,0,0,0.06172839506172839,0,0)" xlink:href="#aW"/><use transform="matrix(0.06172839506172839,0,0,0.06172839506172839,15.987654320987653,0)" xlink:href="#aX"/><use transform="matrix(0.06172839506172839,0,0,0.06172839506172839,28.333333333333332,0)" xlink:href="#aV"/></g><path fill="#3a414a" d="M165-48c-4 18 1 34 23 27l-3 20c-29 8-62 0-52-35h-2C116-14 99 4 63 4 30 4 8-16 8-49c0-68 71-67 138-67 10-26 0-56-31-54-26 1-42 9-47 31l-32-5c8-67 160-71 144 15-5 28-9 54-15 81zM42-50c3 52 80 24 89-6 7-12 7-24 11-38-47 1-103-4-100 44" id="aY"/><path fill="#3a414a" d="M55-144c13 50 104 24 104 88C159 21 15 23 1-39l26-10c6 40 102 42 102-4-13-50-104-23-104-87 0-71 143-71 148-8l-29 4c-5-35-85-37-89 0" id="aZ"/><g id="l"><use transform="matrix(0.06172839506172839,0,0,0.06172839506172839,0,0)" xlink:href="#aY"/><use transform="matrix(0.06172839506172839,0,0,0.06172839506172839,12.345679012345679,0)" xlink:href="#aZ"/></g><path fill="#3a414a" d="M248-111c6-24 9-61-24-58-72 9-57 108-77 169h-31l26-142c3-37-50-30-64-10C52-115 50-51 37 0H6l36-190h30c-1 10-6 24-4 32 13-43 101-52 105 5 13-22 29-41 61-41 90 0 28 129 23 194h-31" id="ba"/><path fill="#3a414a" d="M198-190L69 30C53 58 25 83-20 72c4-11-1-27 19-22 33-1 43-29 59-52L20-190h32L79-34l84-156h35" id="bb"/><g id="m"><use transform="matrix(0.06172839506172839,0,0,0.06172839506172839,0,0)" xlink:href="#ba"/><use transform="matrix(0.06172839506172839,0,0,0.06172839506172839,18.456790123456788,0)" xlink:href="#aY"/><use transform="matrix(0.06172839506172839,0,0,0.06172839506172839,30.80246913580247,0)" xlink:href="#aV"/><use transform="matrix(0.06172839506172839,0,0,0.06172839506172839,43.148148148148145,0)" xlink:href="#bb"/></g><path fill="#3a414a" d="M50-231l6-30h32l-6 30H50zM6 0l37-190h31L37 0H6" id="bc"/><path fill="#3a414a" d="M51-54c-9 22 5 41 31 30L79-1C43 14 10-4 19-52l22-115H19l5-23h22l19-43h21l-9 43h35l-4 23H73" id="bd"/><path fill="#3a414a" d="M44-68c0 29 11 47 38 47 30 0 42-19 51-41l28 9C148-21 126 4 82 4 31 4 10-29 12-85c3-77 74-140 146-93 12 8 15 23 18 40l-31 5c-1-22-13-36-36-36-52 0-65 49-65 101" id="be"/><g id="n"><use transform="matrix(0.06172839506172839,0,0,0.06172839506172839,0,0)" xlink:href="#bc"/><use transform="matrix(0.06172839506172839,0,0,0.06172839506172839,4.876543209876543,0)" xlink:href="#aV"/><use transform="matrix(0.06172839506172839,0,0,0.06172839506172839,17.22222222222222,0)" xlink:href="#aZ"/><use transform="matrix(0.06172839506172839,0,0,0.06172839506172839,28.333333333333332,0)" xlink:href="#bd"/><use transform="matrix(0.06172839506172839,0,0,0.06172839506172839,34.50617283950617,0)" xlink:href="#aY"/><use transform="matrix(0.06172839506172839,0,0,0.06172839506172839,46.85185185185185,0)" xlink:href="#aV"/><use transform="matrix(0.06172839506172839,0,0,0.06172839506172839,59.197530864197525,0)" xlink:href="#be"/><use transform="matrix(0.06172839506172839,0,0,0.06172839506172839,70.30864197530863,0)" xlink:href="#ao"/><use transform="matrix(0.06172839506172839,0,0,0.06172839506172839,82.65432098765432,0)" xlink:href="#aZ"/></g><path fill="#3a414a" d="M76-167L44 0H12l33-167H18l4-23h27c3-47 25-81 82-69l-4 24c-35-8-44 15-46 45h37l-5 23H76" id="bf"/><g id="o"><use transform="matrix(0.06172839506172839,0,0,0.06172839506172839,0,0)" xlink:href="#al"/><use transform="matrix(0.06172839506172839,0,0,0.06172839506172839,12.345679012345679,0)" xlink:href="#bf"/></g><g id="p"><use transform="matrix(0.06172839506172839,0,0,0.06172839506172839,0,0)" xlink:href="#bb"/><use transform="matrix(0.06172839506172839,0,0,0.06172839506172839,11.11111111111111,0)" xlink:href="#al"/><use transform="matrix(0.06172839506172839,0,0,0.06172839506172839,23.45679012345679,0)" xlink:href="#aX"/><use transform="matrix(0.06172839506172839,0,0,0.06172839506172839,35.80246913580247,0)" xlink:href="#am"/></g><path fill="#3a414a" d="M67-162c32-53 139-36 121 50C175-51 163 2 97 4 68 4 52-11 42-31 38 6 28 39 22 75H-9l50-265h29c-1 10 0 20-3 28zm89 36c0-26-10-43-35-43-54 0-67 50-69 103-1 29 14 45 42 46 53 0 62-58 62-106" id="bg"/><path fill="#3a414a" d="M6 0l50-261h32L37 0H6" id="bh"/><g id="q"><use transform="matrix(0.06172839506172839,0,0,0.06172839506172839,0,0)" xlink:href="#aY"/><use transform="matrix(0.06172839506172839,0,0,0.06172839506172839,12.345679012345679,0)" xlink:href="#bg"/><use transform="matrix(0.06172839506172839,0,0,0.06172839506172839,24.691358024691358,0)" xlink:href="#bg"/><use transform="matrix(0.06172839506172839,0,0,0.06172839506172839,37.03703703703704,0)" xlink:href="#bh"/><use transform="matrix(0.06172839506172839,0,0,0.06172839506172839,41.91358024691358,0)" xlink:href="#bc"/><use transform="matrix(0.06172839506172839,0,0,0.06172839506172839,46.79012345679013,0)" xlink:href="#be"/><use transform="matrix(0.06172839506172839,0,0,0.06172839506172839,57.90123456790124,0)" xlink:href="#aY"/><use transform="matrix(0.06172839506172839,0,0,0.06172839506172839,70.24691358024693,0)" xlink:href="#bd"/><use transform="matrix(0.06172839506172839,0,0,0.06172839506172839,76.41975308641976,0)" xlink:href="#bc"/><use transform="matrix(0.06172839506172839,0,0,0.06172839506172839,81.2962962962963,0)" xlink:href="#al"/><use transform="matrix(0.06172839506172839,0,0,0.06172839506172839,93.64197530864199,0)" xlink:href="#aV"/></g><g id="r"><use transform="matrix(0.06172839506172839,0,0,0.06172839506172839,0,0)" xlink:href="#al"/><use transform="matrix(0.06172839506172839,0,0,0.06172839506172839,12.345679012345679,0)" xlink:href="#aV"/></g><g id="s"><use transform="matrix(0.06172839506172839,0,0,0.06172839506172839,0,0)" xlink:href="#aY"/><use transform="matrix(0.06172839506172839,0,0,0.06172839506172839,12.345679012345679,0)" xlink:href="#aZ"/></g><g id="t"><use transform="matrix(0.06172839506172839,0,0,0.06172839506172839,0,0)" xlink:href="#ba"/><use transform="matrix(0.06172839506172839,0,0,0.06172839506172839,18.456790123456788,0)" xlink:href="#aY"/><use transform="matrix(0.06172839506172839,0,0,0.06172839506172839,30.80246913580247,0)" xlink:href="#aV"/><use transform="matrix(0.06172839506172839,0,0,0.06172839506172839,43.148148148148145,0)" xlink:href="#bb"/></g><path fill="#3a414a" d="M89 0H52L20-190h33L74-25l89-165h34" id="bi"/><g id="u"><use transform="matrix(0.06172839506172839,0,0,0.06172839506172839,0,0)" xlink:href="#aZ"/><use transform="matrix(0.06172839506172839,0,0,0.06172839506172839,11.11111111111111,0)" xlink:href="#ao"/><use transform="matrix(0.06172839506172839,0,0,0.06172839506172839,23.45679012345679,0)" xlink:href="#am"/><use transform="matrix(0.06172839506172839,0,0,0.06172839506172839,30.80246913580247,0)" xlink:href="#bi"/><use transform="matrix(0.06172839506172839,0,0,0.06172839506172839,41.91358024691358,0)" xlink:href="#ao"/><use transform="matrix(0.06172839506172839,0,0,0.06172839506172839,54.25925925925926,0)" xlink:href="#am"/><use transform="matrix(0.06172839506172839,0,0,0.06172839506172839,61.60493827160494,0)" xlink:href="#aZ"/></g><path fill="#3a414a" d="M133-28C103 26-5 8 13-77c13-62 24-115 90-117 29-1 46 15 56 35l19-102h32L160 0h-30zM45-64c-2 27 10 43 35 43 54-1 69-50 69-103 0-29-15-46-42-46-53-1-58 58-62 106" id="bj"/><g id="v"><use transform="matrix(0.06172839506172839,0,0,0.06172839506172839,0,0)" xlink:href="#aV"/><use transform="matrix(0.06172839506172839,0,0,0.06172839506172839,12.345679012345679,0)" xlink:href="#ao"/><use transform="matrix(0.06172839506172839,0,0,0.06172839506172839,24.691358024691358,0)" xlink:href="#ao"/><use transform="matrix(0.06172839506172839,0,0,0.06172839506172839,37.03703703703704,0)" xlink:href="#bj"/><use transform="matrix(0.06172839506172839,0,0,0.06172839506172839,49.382716049382715,0)" xlink:href="#ao"/><use transform="matrix(0.06172839506172839,0,0,0.06172839506172839,61.72839506172839,0)" xlink:href="#bj"/></g><g id="w"><use transform="matrix(0.06172839506172839,0,0,0.06172839506172839,0,0)" xlink:href="#bd"/><use transform="matrix(0.06172839506172839,0,0,0.06172839506172839,6.172839506172839,0)" xlink:href="#al"/></g><path fill="#3a414a" d="M67-158c15-20 31-36 64-36 94 0 33 127 27 194h-32l25-140c3-38-53-32-70-12C52-117 51-51 37 0H6l51-261h31" id="bk"/><g id="x"><use transform="matrix(0.06172839506172839,0,0,0.06172839506172839,0,0)" xlink:href="#bk"/><use transform="matrix(0.06172839506172839,0,0,0.06172839506172839,12.345679012345679,0)" xlink:href="#aY"/><use transform="matrix(0.06172839506172839,0,0,0.06172839506172839,24.691358024691358,0)" xlink:href="#aV"/><use transform="matrix(0.06172839506172839,0,0,0.06172839506172839,37.03703703703704,0)" xlink:href="#bj"/><use transform="matrix(0.06172839506172839,0,0,0.06172839506172839,49.382716049382715,0)" xlink:href="#bh"/><use transform="matrix(0.06172839506172839,0,0,0.06172839506172839,54.25925925925926,0)" xlink:href="#ao"/></g><g id="y"><use transform="matrix(0.06172839506172839,0,0,0.06172839506172839,0,0)" xlink:href="#bd"/><use transform="matrix(0.06172839506172839,0,0,0.06172839506172839,6.172839506172839,0)" xlink:href="#bk"/><use transform="matrix(0.06172839506172839,0,0,0.06172839506172839,18.51851851851852,0)" xlink:href="#ao"/></g><path fill="#3a414a" d="M14 0l8-38h34L48 0H14" id="bl"/><g id="z"><use transform="matrix(0.06172839506172839,0,0,0.06172839506172839,0,0)" xlink:href="#bh"/><use transform="matrix(0.06172839506172839,0,0,0.06172839506172839,4.876543209876543,0)" xlink:href="#al"/><use transform="matrix(0.06172839506172839,0,0,0.06172839506172839,17.22222222222222,0)" xlink:href="#aY"/><use transform="matrix(0.06172839506172839,0,0,0.06172839506172839,29.5679012345679,0)" xlink:href="#bj"/><use transform="matrix(0.06172839506172839,0,0,0.06172839506172839,41.913580246913575,0)" xlink:href="#bl"/></g><path fill="#3a414a" d="M24 0v-248h195v40H76v63h132v40H76v65h150V0H24" id="bm"/><path fill="#3a414a" d="M128 0H69L1-190h53L99-40l48-150h52" id="bn"/><path fill="#3a414a" d="M220-157c-53 9-28 100-34 157h-49v-107c1-27-5-49-29-50C55-147 81-57 75 0H25l-1-190h47c2 12-1 28 3 38 10-53 101-56 108 0 13-22 24-43 59-42 82 1 51 116 57 194h-49v-107c-1-25-5-48-29-50" id="bo"/><path fill="#3a414a" d="M185-48c-13 30-37 53-82 52C43 2 14-33 14-96s30-98 90-98c62 0 83 45 84 108H66c0 31 8 55 39 56 18 0 30-7 34-22zm-45-69c5-46-57-63-70-21-2 6-4 13-4 21h74" id="bp"/><g id="A"><use transform="matrix(0.06172839506172839,0,0,0.06172839506172839,0,0)" xlink:href="#bm"/><use transform="matrix(0.06172839506172839,0,0,0.06172839506172839,14.814814814814813,0)" xlink:href="#aB"/><use transform="matrix(0.06172839506172839,0,0,0.06172839506172839,28.33333333333333,0)" xlink:href="#bn"/><use transform="matrix(0.06172839506172839,0,0,0.06172839506172839,40.679012345679006,0)" xlink:href="#ax"/><use transform="matrix(0.06172839506172839,0,0,0.06172839506172839,46.85185185185185,0)" xlink:href="#at"/><use transform="matrix(0.06172839506172839,0,0,0.06172839506172839,55.49382716049382,0)" xlink:href="#ar"/><use transform="matrix(0.06172839506172839,0,0,0.06172839506172839,69.01234567901234,0)" xlink:href="#aB"/><use transform="matrix(0.06172839506172839,0,0,0.06172839506172839,82.53086419753086,0)" xlink:href="#bo"/><use transform="matrix(0.06172839506172839,0,0,0.06172839506172839,102.28395061728395,0)" xlink:href="#bp"/><use transform="matrix(0.06172839506172839,0,0,0.06172839506172839,114.62962962962963,0)" xlink:href="#aB"/><use transform="matrix(0.06172839506172839,0,0,0.06172839506172839,128.14814814814815,0)" xlink:href="#aA"/></g><path fill="#3a414a" d="M123 10C108 53 80 86 19 72V37c35 8 53-11 59-39L3-190h52l48 148c12-52 28-100 44-148h51" id="bq"/><g id="B"><use transform="matrix(0.06172839506172839,0,0,0.06172839506172839,0,0)" xlink:href="#bq"/><use transform="matrix(0.06172839506172839,0,0,0.06172839506172839,12.345679012345679,0)" xlink:href="#ar"/><use transform="matrix(0.06172839506172839,0,0,0.06172839506172839,25.864197530864196,0)" xlink:href="#as"/></g><g id="C"><use transform="matrix(0.06172839506172839,0,0,0.06172839506172839,0,0)" xlink:href="#ay"/><use transform="matrix(0.06172839506172839,0,0,0.06172839506172839,12.345679012345679,0)" xlink:href="#ar"/><use transform="matrix(0.06172839506172839,0,0,0.06172839506172839,25.864197530864196,0)" xlink:href="#aB"/><use transform="matrix(0.06172839506172839,0,0,0.06172839506172839,39.382716049382715,0)" xlink:href="#aA"/><use transform="matrix(0.06172839506172839,0,0,0.06172839506172839,46.72839506172839,0)" xlink:href="#at"/><use transform="matrix(0.06172839506172839,0,0,0.06172839506172839,55.37037037037037,0)" xlink:href="#ar"/><use transform="matrix(0.06172839506172839,0,0,0.06172839506172839,68.88888888888889,0)" xlink:href="#aw"/></g><path fill="#3a414a" d="M67-93c0 74 22 123 53 168H70C40 30 18-18 18-93s22-123 52-168h50c-32 44-53 94-53 168" id="br"/><g id="D"><use transform="matrix(0.06172839506172839,0,0,0.06172839506172839,0,0)" xlink:href="#br"/><use transform="matrix(0.06172839506172839,0,0,0.06172839506172839,7.345679012345679,0)" xlink:href="#bq"/><use transform="matrix(0.06172839506172839,0,0,0.06172839506172839,19.691358024691358,0)" xlink:href="#ar"/><use transform="matrix(0.06172839506172839,0,0,0.06172839506172839,33.20987654320987,0)" xlink:href="#as"/><use transform="matrix(0.06172839506172839,0,0,0.06172839506172839,46.72839506172839,0)" xlink:href="#at"/></g><path fill="#3a414a" d="M231 0h-52l-39-155L100 0H48L-1-190h46L77-45c9-52 24-97 36-145h53l37 145 32-145h46" id="bs"/><g id="E"><use transform="matrix(0.06172839506172839,0,0,0.06172839506172839,0,0)" xlink:href="#ar"/><use transform="matrix(0.06172839506172839,0,0,0.06172839506172839,13.518518518518517,0)" xlink:href="#bs"/><use transform="matrix(0.06172839506172839,0,0,0.06172839506172839,30.80246913580247,0)" xlink:href="#aB"/></g><path fill="#3a414a" d="M14-72v-43h91v43H14" id="bt"/><g id="F"><use transform="matrix(0.06172839506172839,0,0,0.06172839506172839,0,0)" xlink:href="#ar"/><use transform="matrix(0.06172839506172839,0,0,0.06172839506172839,13.518518518518517,0)" xlink:href="#aB"/><use transform="matrix(0.06172839506172839,0,0,0.06172839506172839,27.037037037037035,0)" xlink:href="#bt"/><use transform="matrix(0.06172839506172839,0,0,0.06172839506172839,34.382716049382715,0)" xlink:href="#av"/><use transform="matrix(0.06172839506172839,0,0,0.06172839506172839,47.901234567901234,0)" xlink:href="#at"/><use transform="matrix(0.06172839506172839,0,0,0.06172839506172839,56.54320987654321,0)" xlink:href="#bp"/><use transform="matrix(0.06172839506172839,0,0,0.06172839506172839,68.88888888888889,0)" xlink:href="#bo"/></g><g id="G"><use transform="matrix(0.06172839506172839,0,0,0.06172839506172839,0,0)" xlink:href="#ar"/><use transform="matrix(0.06172839506172839,0,0,0.06172839506172839,13.518518518518517,0)" xlink:href="#at"/></g><path fill="#3a414a" d="M88-194c31-1 46 15 58 34l-1-101h50l1 261h-48c-2-10 0-23-3-31C134-8 116 4 84 4 32 4 16-41 15-95c0-56 19-97 73-99zm17 164c33 0 40-30 41-66 1-37-9-64-41-64s-38 30-39 65c0 43 13 65 39 65" id="bu"/><g id="H"><use transform="matrix(0.06172839506172839,0,0,0.06172839506172839,0,0)" xlink:href="#ay"/><use transform="matrix(0.06172839506172839,0,0,0.06172839506172839,12.345679012345679,0)" xlink:href="#aw"/><use transform="matrix(0.06172839506172839,0,0,0.06172839506172839,18.51851851851852,0)" xlink:href="#ar"/><use transform="matrix(0.06172839506172839,0,0,0.06172839506172839,32.03703703703704,0)" xlink:href="#as"/><use transform="matrix(0.06172839506172839,0,0,0.06172839506172839,45.55555555555556,0)" xlink:href="#bu"/></g><path fill="#3a414a" d="M135-194c52 0 70 43 70 98 0 56-19 99-73 100-30 1-46-15-58-35L72 0H24l1-261h50v104c11-23 29-37 60-37zM114-30c31 0 40-27 40-66 0-37-7-63-39-63s-41 28-41 65c0 36 8 64 40 64" id="bv"/><path fill="#3a414a" d="M137-138c1-29-70-34-71-4 15 46 118 7 119 86 1 83-164 76-172 9l43-7c4 19 20 25 44 25 33 8 57-30 24-41C81-84 22-81 20-136c-2-80 154-74 161-7" id="bw"/><g id="I"><use transform="matrix(0.06172839506172839,0,0,0.06172839506172839,0,0)" xlink:href="#bv"/><use transform="matrix(0.06172839506172839,0,0,0.06172839506172839,13.518518518518517,0)" xlink:href="#az"/><use transform="matrix(0.06172839506172839,0,0,0.06172839506172839,25.864197530864196,0)" xlink:href="#bw"/><use transform="matrix(0.06172839506172839,0,0,0.06172839506172839,38.20987654320987,0)" xlink:href="#bp"/><use transform="matrix(0.06172839506172839,0,0,0.06172839506172839,50.55555555555555,0)" xlink:href="#bu"/></g><path fill="#3a414a" d="M102-93c0 74-22 123-52 168H0C30 29 54-18 53-93c0-74-22-123-53-168h50c30 45 52 94 52 168" id="bx"/><g id="J"><use transform="matrix(0.06172839506172839,0,0,0.06172839506172839,0,0)" xlink:href="#bw"/><use transform="matrix(0.06172839506172839,0,0,0.06172839506172839,12.345679012345679,0)" xlink:href="#bp"/><use transform="matrix(0.06172839506172839,0,0,0.06172839506172839,24.691358024691358,0)" xlink:href="#at"/><use transform="matrix(0.06172839506172839,0,0,0.06172839506172839,33.33333333333333,0)" xlink:href="#bn"/><use transform="matrix(0.06172839506172839,0,0,0.06172839506172839,45.679012345679006,0)" xlink:href="#bp"/><use transform="matrix(0.06172839506172839,0,0,0.06172839506172839,58.02469135802468,0)" xlink:href="#at"/><use transform="matrix(0.06172839506172839,0,0,0.06172839506172839,66.66666666666666,0)" xlink:href="#bw"/><use transform="matrix(0.06172839506172839,0,0,0.06172839506172839,79.01234567901234,0)" xlink:href="#bx"/></g><path fill="#333" d="M30-248c87 1 191-15 191 75 0 78-77 80-158 76V0H30v-248zm33 125c57 0 124 11 124-50 0-59-68-47-124-48v98" id="by"/><path fill="#333" d="M100-194c63 0 86 42 84 106H49c0 40 14 67 53 68 26 1 43-12 49-29l28 8c-11 28-37 45-77 45C44 4 14-33 15-96c1-61 26-98 85-98zm52 81c6-60-76-77-97-28-3 7-6 17-6 28h103" id="bz"/><path fill="#333" d="M114-163C36-179 61-72 57 0H25l-1-190h30c1 12-1 29 2 39 6-27 23-49 58-41v29" id="bA"/><path fill="#333" d="M135-143c-3-34-86-38-87 0 15 53 115 12 119 90S17 21 10-45l28-5c4 36 97 45 98 0-10-56-113-15-118-90-4-57 82-63 122-42 12 7 21 19 24 35" id="bB"/><path fill="#333" d="M24-231v-30h32v30H24zM24 0v-190h32V0H24" id="bC"/><path fill="#333" d="M59-47c-2 24 18 29 38 22v24C64 9 27 4 27-40v-127H5v-23h24l9-43h21v43h35v23H59v120" id="bD"/><path fill="#333" d="M117-194c89-4 53 116 60 194h-32v-121c0-31-8-49-39-48C34-167 62-67 57 0H25l-1-190h30c1 10-1 24 2 32 11-22 29-35 61-36" id="bE"/><path fill="#333" d="M96-169c-40 0-48 33-48 73s9 75 48 75c24 0 41-14 43-38l32 2c-6 37-31 61-74 61-59 0-76-41-82-99-10-93 101-131 147-64 4 7 5 14 7 22l-32 3c-4-21-16-35-41-35" id="bF"/><g id="K"><use transform="matrix(0.06172839506172834,0,0,0.06172839506172834,0,0)" xlink:href="#by"/><use transform="matrix(0.06172839506172834,0,0,0.06172839506172834,14.814814814814802,0)" xlink:href="#bz"/><use transform="matrix(0.06172839506172834,0,0,0.06172839506172834,27.160493827160472,0)" xlink:href="#bA"/><use transform="matrix(0.06172839506172834,0,0,0.06172839506172834,34.50617283950614,0)" xlink:href="#bB"/><use transform="matrix(0.06172839506172834,0,0,0.06172839506172834,45.61728395061724,0)" xlink:href="#bC"/><use transform="matrix(0.06172839506172834,0,0,0.06172839506172834,50.49382716049378,0)" xlink:href="#bB"/><use transform="matrix(0.06172839506172834,0,0,0.06172839506172834,61.60493827160488,0)" xlink:href="#bD"/><use transform="matrix(0.06172839506172834,0,0,0.06172839506172834,67.77777777777771,0)" xlink:href="#bz"/><use transform="matrix(0.06172839506172834,0,0,0.06172839506172834,80.12345679012338,0)" xlink:href="#bE"/><use transform="matrix(0.06172839506172834,0,0,0.06172839506172834,92.46913580246905,0)" xlink:href="#bF"/><use transform="matrix(0.06172839506172834,0,0,0.06172839506172834,103.58024691358015,0)" xlink:href="#bz"/></g><path fill="#333" d="M87 75C49 33 22-17 22-94c0-76 28-126 65-167h31c-38 41-64 92-64 168S80 34 118 75H87" id="bG"/><path fill="#333" d="M85-194c31 0 48 13 60 33l-1-100h32l1 261h-30c-2-10 0-23-3-31C134-8 116 4 85 4 32 4 16-35 15-94c0-66 23-100 70-100zm9 24c-40 0-46 34-46 75 0 40 6 74 45 74 42 0 51-32 51-76 0-42-9-74-50-73" id="bH"/><path fill="#333" d="M141-36C126-15 110 5 73 4 37 3 15-17 15-53c-1-64 63-63 125-63 3-35-9-54-41-54-24 1-41 7-42 31l-33-3c5-37 33-52 76-52 45 0 72 20 72 64v82c-1 20 7 32 28 27v20c-31 9-61-2-59-35zM48-53c0 20 12 33 32 33 41-3 63-29 60-74-43 2-92-5-92 41" id="bI"/><path fill="#333" d="M115-194c53 0 69 39 70 98 0 66-23 100-70 100C84 3 66-7 56-30L54 0H23l1-261h32v101c10-23 28-34 59-34zm-8 174c40 0 45-34 45-75 0-40-5-75-45-74-42 0-51 32-51 76 0 43 10 73 51 73" id="bJ"/><path fill="#333" d="M33-261c38 41 65 92 65 168S71 34 33 75H2C39 34 66-17 66-93S39-220 2-261h31" id="bK"/><g id="L"><use transform="matrix(0.06172839506172834,0,0,0.06172839506172834,0,0)" xlink:href="#bG"/><use transform="matrix(0.06172839506172834,0,0,0.06172839506172834,7.3456790123456726,0)" xlink:href="#bH"/><use transform="matrix(0.06172839506172834,0,0,0.06172839506172834,19.69135802469134,0)" xlink:href="#bI"/><use transform="matrix(0.06172839506172834,0,0,0.06172839506172834,32.03703703703701,0)" xlink:href="#bD"/><use transform="matrix(0.06172839506172834,0,0,0.06172839506172834,38.209876543209845,0)" xlink:href="#bI"/><use transform="matrix(0.06172839506172834,0,0,0.06172839506172834,50.555555555555515,0)" xlink:href="#bJ"/><use transform="matrix(0.06172839506172834,0,0,0.06172839506172834,62.901234567901184,0)" xlink:href="#bI"/><use transform="matrix(0.06172839506172834,0,0,0.06172839506172834,75.24691358024685,0)" xlink:href="#bB"/><use transform="matrix(0.06172839506172834,0,0,0.06172839506172834,86.35802469135795,0)" xlink:href="#bz"/><use transform="matrix(0.06172839506172834,0,0,0.06172839506172834,98.70370370370362,0)" xlink:href="#bK"/></g><path fill="#333" d="M63-220v92h138v28H63V0H30v-248h175v28H63" id="bL"/><path fill="#333" d="M100-194c62-1 85 37 85 99 1 63-27 99-86 99S16-35 15-95c0-66 28-99 85-99zM99-20c44 1 53-31 53-75 0-43-8-75-51-75s-53 32-53 75 10 74 51 75" id="bM"/><g id="M"><use transform="matrix(0.04938271604938266,0,0,0.04938271604938266,0,0)" xlink:href="#bL"/><use transform="matrix(0.04938271604938266,0,0,0.04938271604938266,10.814814814814802,0)" xlink:href="#bA"/><use transform="matrix(0.04938271604938266,0,0,0.04938271604938266,16.69135802469134,0)" xlink:href="#bM"/><use transform="matrix(0.04938271604938266,0,0,0.04938271604938266,26.56790123456787,0)" xlink:href="#bE"/><use transform="matrix(0.04938271604938266,0,0,0.04938271604938266,36.4444444444444,0)" xlink:href="#bD"/><use transform="matrix(0.04938271604938266,0,0,0.04938271604938266,41.382716049382665,0)" xlink:href="#bz"/><use transform="matrix(0.04938271604938266,0,0,0.04938271604938266,51.259259259259196,0)" xlink:href="#bE"/><use transform="matrix(0.04938271604938266,0,0,0.04938271604938266,61.13580246913573,0)" xlink:href="#bH"/></g><path fill="#333" d="M185-189c-5-48-123-54-124 2 14 75 158 14 163 119 3 78-121 87-175 55-17-10-28-26-33-46l33-7c5 56 141 63 141-1 0-78-155-14-162-118-5-82 145-84 179-34 5 7 8 16 11 25" id="bN"/><path fill="#333" d="M108 0H70L1-190h34L89-25l56-165h34" id="bO"/><g id="N"><use transform="matrix(0.04938271604938266,0,0,0.04938271604938266,0,0)" xlink:href="#bN"/><use transform="matrix(0.04938271604938266,0,0,0.04938271604938266,11.851851851851837,0)" xlink:href="#bz"/><use transform="matrix(0.04938271604938266,0,0,0.04938271604938266,21.72839506172837,0)" xlink:href="#bA"/><use transform="matrix(0.04938271604938266,0,0,0.04938271604938266,27.604938271604905,0)" xlink:href="#bO"/><use transform="matrix(0.04938271604938266,0,0,0.04938271604938266,36.49382716049379,0)" xlink:href="#bC"/><use transform="matrix(0.04938271604938266,0,0,0.04938271604938266,40.395061728395014,0)" xlink:href="#bF"/><use transform="matrix(0.04938271604938266,0,0,0.04938271604938266,49.28395061728389,0)" xlink:href="#bz"/></g><path fill="#333" d="M240 0l2-218c-23 76-54 145-80 218h-23L58-218 59 0H30v-248h44l77 211c21-75 51-140 76-211h43V0h-30" id="bP"/><path fill="#333" d="M106-169C34-169 62-67 57 0H25v-261h32l-1 103c12-21 28-36 61-36 89 0 53 116 60 194h-32v-121c2-32-8-49-39-48" id="bQ"/><path fill="#333" d="M177-190C167-65 218 103 67 71c-23-6-38-20-44-43l32-5c15 47 100 32 89-28v-30C133-14 115 1 83 1 29 1 15-40 15-95c0-56 16-97 71-98 29-1 48 16 59 35 1-10 0-23 2-32h30zM94-22c36 0 50-32 50-73 0-42-14-75-50-75-39 0-46 34-46 75s6 73 46 73" id="bR"/><g id="O"><use transform="matrix(0.04938271604938266,0,0,0.04938271604938266,0,0)" xlink:href="#bP"/><use transform="matrix(0.04938271604938266,0,0,0.04938271604938266,14.765432098765414,0)" xlink:href="#bI"/><use transform="matrix(0.04938271604938266,0,0,0.04938271604938266,24.641975308641946,0)" xlink:href="#bD"/><use transform="matrix(0.04938271604938266,0,0,0.04938271604938266,29.58024691358021,0)" xlink:href="#bF"/><use transform="matrix(0.04938271604938266,0,0,0.04938271604938266,38.46913580246909,0)" xlink:href="#bQ"/><use transform="matrix(0.04938271604938266,0,0,0.04938271604938266,48.34567901234562,0)" xlink:href="#bC"/><use transform="matrix(0.04938271604938266,0,0,0.04938271604938266,52.246913580246854,0)" xlink:href="#bE"/><use transform="matrix(0.04938271604938266,0,0,0.04938271604938266,62.12345679012337,0)" xlink:href="#bR"/></g><g id="P"><use transform="matrix(0.04938271604938266,0,0,0.04938271604938266,0,0)" xlink:href="#bN"/><use transform="matrix(0.04938271604938266,0,0,0.04938271604938266,11.851851851851837,0)" xlink:href="#bz"/><use transform="matrix(0.04938271604938266,0,0,0.04938271604938266,21.72839506172837,0)" xlink:href="#bA"/><use transform="matrix(0.04938271604938266,0,0,0.04938271604938266,27.604938271604905,0)" xlink:href="#bO"/><use transform="matrix(0.04938271604938266,0,0,0.04938271604938266,36.49382716049379,0)" xlink:href="#bC"/><use transform="matrix(0.04938271604938266,0,0,0.04938271604938266,40.395061728395014,0)" xlink:href="#bF"/><use transform="matrix(0.04938271604938266,0,0,0.04938271604938266,49.28395061728389,0)" xlink:href="#bz"/></g><path fill="#333" d="M197 0v-115H63V0H30v-248h33v105h134v-105h34V0h-34" id="bS"/><path fill="#333" d="M179-190L93 31C79 59 56 82 12 73V49c39 6 53-20 64-50L1-190h34L92-34l54-156h33" id="bT"/><g id="Q"><use transform="matrix(0.06172839506172834,0,0,0.06172839506172834,0,0)" xlink:href="#bS"/><use transform="matrix(0.06172839506172834,0,0,0.06172839506172834,15.987654320987641,0)" xlink:href="#bC"/><use transform="matrix(0.06172839506172834,0,0,0.06172839506172834,20.864197530864182,0)" xlink:href="#bB"/><use transform="matrix(0.06172839506172834,0,0,0.06172839506172834,31.975308641975282,0)" xlink:href="#bD"/><use transform="matrix(0.06172839506172834,0,0,0.06172839506172834,38.14814814814812,0)" xlink:href="#bM"/><use transform="matrix(0.06172839506172834,0,0,0.06172839506172834,50.49382716049379,0)" xlink:href="#bA"/><use transform="matrix(0.06172839506172834,0,0,0.06172839506172834,57.83950617283946,0)" xlink:href="#bT"/></g><g id="R"><use transform="matrix(0.06172839506172834,0,0,0.06172839506172834,0,0)" xlink:href="#bN"/><use transform="matrix(0.06172839506172834,0,0,0.06172839506172834,14.814814814814802,0)" xlink:href="#bz"/><use transform="matrix(0.06172839506172834,0,0,0.06172839506172834,27.160493827160472,0)" xlink:href="#bA"/><use transform="matrix(0.06172839506172834,0,0,0.06172839506172834,34.50617283950614,0)" xlink:href="#bO"/><use transform="matrix(0.06172839506172834,0,0,0.06172839506172834,45.61728395061724,0)" xlink:href="#bC"/><use transform="matrix(0.06172839506172834,0,0,0.06172839506172834,50.49382716049378,0)" xlink:href="#bF"/><use transform="matrix(0.06172839506172834,0,0,0.06172839506172834,61.60493827160488,0)" xlink:href="#bz"/></g><g id="S"><use transform="matrix(0.04938271604938266,0,0,0.04938271604938266,0,0)" xlink:href="#bS"/><use transform="matrix(0.04938271604938266,0,0,0.04938271604938266,12.79012345679011,0)" xlink:href="#bC"/><use transform="matrix(0.04938271604938266,0,0,0.04938271604938266,16.69135802469134,0)" xlink:href="#bB"/><use transform="matrix(0.04938271604938266,0,0,0.04938271604938266,25.58024691358022,0)" xlink:href="#bD"/><use transform="matrix(0.04938271604938266,0,0,0.04938271604938266,30.518518518518484,0)" xlink:href="#bM"/><use transform="matrix(0.04938271604938266,0,0,0.04938271604938266,40.395061728395014,0)" xlink:href="#bA"/><use transform="matrix(0.04938271604938266,0,0,0.04938271604938266,46.27160493827155,0)" xlink:href="#bT"/></g><path fill="#333" d="M266 0h-40l-56-210L115 0H75L2-248h35L96-30l15-64 43-154h32l59 218 59-218h35" id="bU"/><path fill="#333" d="M143 0L79-87 56-68V0H24v-261h32v163l83-92h37l-77 82L181 0h-38" id="bV"/><g id="T"><use transform="matrix(0.06172839506172834,0,0,0.06172839506172834,0,0)" xlink:href="#bU"/><use transform="matrix(0.06172839506172834,0,0,0.06172839506172834,20.49382716049381,0)" xlink:href="#bM"/><use transform="matrix(0.06172839506172834,0,0,0.06172839506172834,32.83950617283948,0)" xlink:href="#bA"/><use transform="matrix(0.06172839506172834,0,0,0.06172839506172834,40.18518518518515,0)" xlink:href="#bV"/><use transform="matrix(0.06172839506172834,0,0,0.06172839506172834,51.29629629629625,0)" xlink:href="#bz"/><use transform="matrix(0.06172839506172834,0,0,0.06172839506172834,63.641975308641925,0)" xlink:href="#bA"/></g><g id="U"><use transform="matrix(0.04938271604938266,0,0,0.04938271604938266,0,0)" xlink:href="#bU"/><use transform="matrix(0.04938271604938266,0,0,0.04938271604938266,16.395061728395046,0)" xlink:href="#bM"/><use transform="matrix(0.04938271604938266,0,0,0.04938271604938266,26.27160493827158,0)" xlink:href="#bA"/><use transform="matrix(0.04938271604938266,0,0,0.04938271604938266,32.14814814814812,0)" xlink:href="#bV"/><use transform="matrix(0.04938271604938266,0,0,0.04938271604938266,41.037037037036995,0)" xlink:href="#bz"/><use transform="matrix(0.04938271604938266,0,0,0.04938271604938266,50.91358024691352,0)" xlink:href="#bA"/></g><path fill="#333" d="M222 0l43-216c-8 16-17 34-26 49L143 0h-22L81-216 41 0H11l48-248h42l38 208 116-208h45L252 0h-30" id="bW"/><path fill="#333" d="M67 3c-93-2-31-127-26-193h32L48-50c-3 39 53 32 70 12 30-34 30-101 43-152h32L157 0h-30c1-10 6-24 4-33-14 20-29 37-64 36" id="bX"/><path fill="#333" d="M6 0l50-261h32L37 0H6" id="bY"/><path fill="#333" d="M51-54c-9 22 5 41 31 30L79-1C43 14 10-4 19-52l22-115H19l5-23h22l19-43h21l-9 43h35l-4 23H73" id="bZ"/><path fill="#333" d="M50-231l6-30h32l-6 30H50zM6 0l37-190h31L37 0H6" id="ca"/><path fill="#333" d="M18-82l6-28h88l-6 28H18" id="cb"/><path fill="#333" d="M125-24c46 0 70-25 89-51l25 16C214-24 183 4 123 4 8 4-5-146 60-208c32-50 158-61 191-5 5 7 9 14 11 22l-32 10c-9-28-33-43-69-43-74 0-108 51-108 125 0 46 24 75 72 75" id="cc"/><path fill="#333" d="M55-144c13 50 104 24 104 88C159 21 15 23 1-39l26-10c6 40 102 42 102-4-13-50-104-23-104-87 0-71 143-71 148-8l-29 4c-5-35-85-37-89 0" id="cd"/><path fill="#333" d="M111-194c62-3 86 47 72 106H45c-7 38 6 69 45 68 27-1 43-14 53-32l24 11C152-15 129 4 87 4 38 3 12-23 12-71c0-70 32-119 99-123zm44 81c14-66-71-72-95-28-4 8-8 17-11 28h106" id="ce"/><path fill="#333" d="M66-151c12-25 30-51 66-40l-6 26C45-176 58-65 38 0H6l36-190h30" id="cf"/><g id="V"><use transform="matrix(0.06172839506172835,0,0,0.06172839506172835,0,0)" xlink:href="#bW"/><use transform="matrix(0.06172839506172835,0,0,0.06172839506172835,18.456790123456777,0)" xlink:href="#bX"/><use transform="matrix(0.06172839506172835,0,0,0.06172839506172835,30.802469135802447,0)" xlink:href="#bY"/><use transform="matrix(0.06172839506172835,0,0,0.06172839506172835,35.679012345678984,0)" xlink:href="#bZ"/><use transform="matrix(0.06172839506172835,0,0,0.06172839506172835,41.85185185185182,0)" xlink:href="#ca"/><use transform="matrix(0.06172839506172835,0,0,0.06172839506172835,46.72839506172836,0)" xlink:href="#cb"/><use transform="matrix(0.06172839506172835,0,0,0.06172839506172835,54.07407407407403,0)" xlink:href="#cc"/><use transform="matrix(0.06172839506172835,0,0,0.06172839506172835,70.06172839506168,0)" xlink:href="#bY"/><use transform="matrix(0.06172839506172835,0,0,0.06172839506172835,74.93827160493822,0)" xlink:href="#bX"/><use transform="matrix(0.06172839506172835,0,0,0.06172839506172835,87.28395061728389,0)" xlink:href="#cd"/><use transform="matrix(0.06172839506172835,0,0,0.06172839506172835,98.39506172839499,0)" xlink:href="#bZ"/><use transform="matrix(0.06172839506172835,0,0,0.06172839506172835,104.56790123456783,0)" xlink:href="#ce"/><use transform="matrix(0.06172839506172835,0,0,0.06172839506172835,116.9135802469135,0)" xlink:href="#cf"/></g><path fill="#333" d="M249-183c0 48-29 72-75 77L221 0h-36l-43-103H65L45 0H11l48-248c83 2 190-17 190 65zm-34 3c0-55-74-39-127-41l-18 92c63-1 145 13 145-51" id="cg"/><path fill="#333" d="M67-162c32-53 139-36 121 50C175-51 163 2 97 4 68 4 52-11 42-31 38 6 28 39 22 75H-9l50-265h29c-1 10 0 20-3 28zm89 36c0-26-10-43-35-43-54 0-67 50-69 103-1 29 14 45 42 46 53 0 62-58 62-106" id="ch"/><path fill="#333" d="M44-68c0 29 11 47 38 47 30 0 42-19 51-41l28 9C148-21 126 4 82 4 31 4 10-29 12-85c3-77 74-140 146-93 12 8 15 23 18 40l-31 5c-1-22-13-36-36-36-52 0-65 49-65 101" id="ci"/><path fill="#333" d="M165-48c-4 18 1 34 23 27l-3 20c-29 8-62 0-52-35h-2C116-14 99 4 63 4 30 4 8-16 8-49c0-68 71-67 138-67 10-26 0-56-31-54-26 1-42 9-47 31l-32-5c8-67 160-71 144 15-5 28-9 54-15 81zM42-50c3 52 80 24 89-6 7-12 7-24 11-38-47 1-103-4-100 44" id="cj"/><path fill="#333" d="M30-147c31-64 166-65 159 27C183-49 158 1 86 4 9 8 1-88 30-147zM88-20c53 0 68-48 68-100 0-31-11-51-44-50-52 1-68 46-68 97 0 32 13 53 44 53" id="ck"/><path fill="#333" d="M67-158c22-48 132-52 116 29L158 0h-32l25-140c3-38-53-32-70-12C52-117 51-52 38 0H6l36-190h30" id="cl"/><g id="W"><use transform="matrix(0.06172839506172835,0,0,0.06172839506172835,0,0)" xlink:href="#cg"/><use transform="matrix(0.06172839506172835,0,0,0.06172839506172835,15.987654320987643,0)" xlink:href="#ce"/><use transform="matrix(0.06172839506172835,0,0,0.06172839506172835,28.333333333333314,0)" xlink:href="#ch"/><use transform="matrix(0.06172839506172835,0,0,0.06172839506172835,40.679012345678984,0)" xlink:href="#bY"/><use transform="matrix(0.06172839506172835,0,0,0.06172839506172835,45.55555555555552,0)" xlink:href="#ca"/><use transform="matrix(0.06172839506172835,0,0,0.06172839506172835,50.43209876543206,0)" xlink:href="#ci"/><use transform="matrix(0.06172839506172835,0,0,0.06172839506172835,61.54320987654316,0)" xlink:href="#cj"/><use transform="matrix(0.06172839506172835,0,0,0.06172839506172835,73.88888888888883,0)" xlink:href="#bZ"/><use transform="matrix(0.06172839506172835,0,0,0.06172839506172835,80.06172839506166,0)" xlink:href="#ca"/><use transform="matrix(0.06172839506172835,0,0,0.06172839506172835,84.93827160493821,0)" xlink:href="#ck"/><use transform="matrix(0.06172839506172835,0,0,0.06172839506172835,97.28395061728388,0)" xlink:href="#cl"/></g><path fill="#333" d="M151-220L108 0H75l42-220H32l6-28h203l-5 28h-85" id="cm"/><path fill="#333" d="M248-111c6-24 9-61-24-58-72 9-57 108-77 169h-31l26-142c3-37-50-30-64-10C52-115 50-51 37 0H6l36-190h30c-1 10-6 24-4 32 13-43 101-52 105 5 13-22 29-41 61-41 90 0 28 129 23 194h-31" id="cn"/><g id="X"><use transform="matrix(0.06172839506172835,0,0,0.06172839506172835,0,0)" xlink:href="#cm"/><use transform="matrix(0.06172839506172835,0,0,0.06172839506172835,11.481481481481474,0)" xlink:href="#ce"/><use transform="matrix(0.06172839506172835,0,0,0.06172839506172835,23.827160493827144,0)" xlink:href="#cn"/><use transform="matrix(0.06172839506172835,0,0,0.06172839506172835,42.28395061728392,0)" xlink:href="#ch"/><use transform="matrix(0.06172839506172835,0,0,0.06172839506172835,54.62962962962959,0)" xlink:href="#ck"/><use transform="matrix(0.06172839506172835,0,0,0.06172839506172835,66.97530864197526,0)" xlink:href="#cf"/><use transform="matrix(0.06172839506172835,0,0,0.06172839506172835,74.32098765432093,0)" xlink:href="#cj"/><use transform="matrix(0.06172839506172835,0,0,0.06172839506172835,86.6666666666666,0)" xlink:href="#bY"/></g><g id="Y"><use transform="matrix(0.06172839506172835,0,0,0.06172839506172835,0,0)" xlink:href="#cc"/><use transform="matrix(0.06172839506172835,0,0,0.06172839506172835,15.987654320987643,0)" xlink:href="#bY"/><use transform="matrix(0.06172839506172835,0,0,0.06172839506172835,20.864197530864182,0)" xlink:href="#bX"/><use transform="matrix(0.06172839506172835,0,0,0.06172839506172835,33.20987654320985,0)" xlink:href="#cd"/><use transform="matrix(0.06172839506172835,0,0,0.06172839506172835,44.32098765432096,0)" xlink:href="#bZ"/><use transform="matrix(0.06172839506172835,0,0,0.06172839506172835,50.493827160493794,0)" xlink:href="#ce"/><use transform="matrix(0.06172839506172835,0,0,0.06172839506172835,62.839506172839464,0)" xlink:href="#cf"/></g><path fill="#333" d="M179 0l23-115H67L45 0H11l48-248h34L72-143h135l21-105h32L212 0h-33" id="co"/><path fill="#333" d="M-8 0l5-24 140-142H31l5-24h145l-5 24L36-24h119l-5 24H-8" id="cp"/><path fill="#333" d="M198-190L69 30C53 58 25 83-20 72c4-11-1-27 19-22 33-1 43-29 59-52L20-190h32L79-34l84-156h35" id="cq"/><g id="Z"><use transform="matrix(0.06172839506172835,0,0,0.06172839506172835,0,0)" xlink:href="#co"/><use transform="matrix(0.06172839506172835,0,0,0.06172839506172835,15.987654320987643,0)" xlink:href="#ck"/><use transform="matrix(0.06172839506172835,0,0,0.06172839506172835,28.333333333333314,0)" xlink:href="#cf"/><use transform="matrix(0.06172839506172835,0,0,0.06172839506172835,35.679012345678984,0)" xlink:href="#ca"/><use transform="matrix(0.06172839506172835,0,0,0.06172839506172835,40.55555555555552,0)" xlink:href="#cp"/><use transform="matrix(0.06172839506172835,0,0,0.06172839506172835,51.66666666666663,0)" xlink:href="#ck"/><use transform="matrix(0.06172839506172835,0,0,0.06172839506172835,64.0123456790123,0)" xlink:href="#cl"/><use transform="matrix(0.06172839506172835,0,0,0.06172839506172835,76.35802469135797,0)" xlink:href="#bZ"/><use transform="matrix(0.06172839506172835,0,0,0.06172839506172835,82.5308641975308,0)" xlink:href="#cj"/><use transform="matrix(0.06172839506172835,0,0,0.06172839506172835,94.87654320987647,0)" xlink:href="#bY"/><use transform="matrix(0.06172839506172835,0,0,0.06172839506172835,99.75308641975302,0)" xlink:href="#bY"/><use transform="matrix(0.06172839506172835,0,0,0.06172839506172835,104.62962962962956,0)" xlink:href="#cq"/></g><path fill="#333" d="M68-162c25-46 127-43 121 31C183-60 169 1 98 4 69 5 53-11 43-31L36 0H5l52-261h31zm88 36c2-27-9-43-34-43-55 0-70 51-70 103 0 29 15 45 43 46 52 0 58-58 61-106" id="cr"/><g id="aa"><use transform="matrix(0.06172839506172835,0,0,0.06172839506172835,0,0)" xlink:href="#cd"/><use transform="matrix(0.06172839506172835,0,0,0.06172839506172835,11.111111111111104,0)" xlink:href="#ci"/><use transform="matrix(0.06172839506172835,0,0,0.06172839506172835,22.222222222222207,0)" xlink:href="#cj"/><use transform="matrix(0.06172839506172835,0,0,0.06172839506172835,34.56790123456788,0)" xlink:href="#bY"/><use transform="matrix(0.06172839506172835,0,0,0.06172839506172835,39.444444444444414,0)" xlink:href="#cj"/><use transform="matrix(0.06172839506172835,0,0,0.06172839506172835,51.790123456790084,0)" xlink:href="#cr"/><use transform="matrix(0.06172839506172835,0,0,0.06172839506172835,64.13580246913575,0)" xlink:href="#bY"/><use transform="matrix(0.06172839506172835,0,0,0.06172839506172835,69.0123456790123,0)" xlink:href="#ce"/></g><path fill="#333" d="M194-120c59 52 2 134-86 124-53-6-90-18-98-63l31-7c8 30 29 43 70 43 46 0 84-17 71-62-32-43-135-20-137-98-3-89 178-90 191-16l-30 9c-8-48-127-53-127 5 0 53 81 35 115 65" id="cs"/><path fill="#333" d="M89 0H52L20-190h33L74-25l89-165h34" id="ct"/><g id="ab"><use transform="matrix(0.06172839506172835,0,0,0.06172839506172835,0,0)" xlink:href="#cs"/><use transform="matrix(0.06172839506172835,0,0,0.06172839506172835,14.814814814814804,0)" xlink:href="#ce"/><use transform="matrix(0.06172839506172835,0,0,0.06172839506172835,27.160493827160472,0)" xlink:href="#cf"/><use transform="matrix(0.06172839506172835,0,0,0.06172839506172835,34.50617283950615,0)" xlink:href="#ct"/><use transform="matrix(0.06172839506172835,0,0,0.06172839506172835,45.61728395061725,0)" xlink:href="#ce"/><use transform="matrix(0.06172839506172835,0,0,0.06172839506172835,57.96296296296292,0)" xlink:href="#cf"/></g><path fill="#333" d="M133-28C103 26-5 8 13-77c13-62 24-115 90-117 29-1 46 15 56 35l19-102h32L160 0h-30zM45-64c-2 27 10 43 35 43 54-1 69-50 69-103 0-29-15-46-42-46-53-1-58 58-62 106" id="cu"/><path fill="#333" d="M58-38C53-5 46 26 28 46H7C19 32 27 18 32 0H17l7-38h34" id="cv"/><g id="ac"><use transform="matrix(0.06172839506172835,0,0,0.06172839506172835,0,0)" xlink:href="#cc"/><use transform="matrix(0.06172839506172835,0,0,0.06172839506172835,15.987654320987643,0)" xlink:href="#cj"/><use transform="matrix(0.06172839506172835,0,0,0.06172839506172835,28.333333333333314,0)" xlink:href="#cd"/><use transform="matrix(0.06172839506172835,0,0,0.06172839506172835,39.444444444444414,0)" xlink:href="#cd"/><use transform="matrix(0.06172839506172835,0,0,0.06172839506172835,50.555555555555515,0)" xlink:href="#cj"/><use transform="matrix(0.06172839506172835,0,0,0.06172839506172835,62.901234567901184,0)" xlink:href="#cl"/><use transform="matrix(0.06172839506172835,0,0,0.06172839506172835,75.24691358024685,0)" xlink:href="#cu"/><use transform="matrix(0.06172839506172835,0,0,0.06172839506172835,87.59259259259252,0)" xlink:href="#cf"/><use transform="matrix(0.06172839506172835,0,0,0.06172839506172835,94.9382716049382,0)" xlink:href="#cj"/><use transform="matrix(0.06172839506172835,0,0,0.06172839506172835,107.28395061728386,0)" xlink:href="#cv"/></g><path fill="#333" d="M238-179c0 84-86 86-175 82L45 0H11l48-248c82 0 179-12 179 69zm-34 1c0-53-64-42-116-43l-19 98c63 0 135 9 135-55" id="cw"/><path fill="#333" d="M103-194c29 0 47 14 56 36 2-11 5-23 8-32h30L160-5C157 61 82 97 21 62 9 55 4 45 1 30l28-7c7 42 83 31 92-3 4-16 9-38 13-55-13 20-29 36-62 36-40 0-60-25-60-64 0-71 23-131 91-131zm4 24c-53 0-58 54-61 104-2 27 10 44 36 44 49 0 65-50 67-102 1-29-15-46-42-46" id="cx"/><path fill="#333" d="M133-28C103 26-5 8 13-77c13-62 24-115 90-117 29-1 46 15 56 35 2-12 6-24 8-34h31L144 75h-31zM45-64c-2 27 10 43 35 43 54-1 69-50 69-103 0-29-15-46-42-46-53-1-58 58-62 106" id="cy"/><g id="ad"><use transform="matrix(0.06172839506172835,0,0,0.06172839506172835,0,0)" xlink:href="#cw"/><use transform="matrix(0.06172839506172835,0,0,0.06172839506172835,14.814814814814804,0)" xlink:href="#ck"/><use transform="matrix(0.06172839506172835,0,0,0.06172839506172835,27.160493827160472,0)" xlink:href="#cd"/><use transform="matrix(0.06172839506172835,0,0,0.06172839506172835,38.27160493827158,0)" xlink:href="#bZ"/><use transform="matrix(0.06172839506172835,0,0,0.06172839506172835,44.444444444444414,0)" xlink:href="#cx"/><use transform="matrix(0.06172839506172835,0,0,0.06172839506172835,56.790123456790084,0)" xlink:href="#cf"/><use transform="matrix(0.06172839506172835,0,0,0.06172839506172835,64.13580246913575,0)" xlink:href="#ce"/><use transform="matrix(0.06172839506172835,0,0,0.06172839506172835,76.48148148148142,0)" xlink:href="#cd"/><use transform="matrix(0.06172839506172835,0,0,0.06172839506172835,87.59259259259252,0)" xlink:href="#cy"/><use transform="matrix(0.06172839506172835,0,0,0.06172839506172835,99.9382716049382,0)" xlink:href="#bY"/><use transform="matrix(0.06172839506172835,0,0,0.06172839506172835,104.81481481481474,0)" xlink:href="#cv"/></g><g id="ae"><use transform="matrix(0.06172839506172835,0,0,0.06172839506172835,0,0)" xlink:href="#ck"/><use transform="matrix(0.06172839506172835,0,0,0.06172839506172835,12.34567901234567,0)" xlink:href="#cf"/></g><path fill="#333" d="M24-61C-1-165 59-251 163-251c67 1 105 36 105 101 0 88-46 140-124 152 2 33 24 47 60 39l-3 23c-50 15-89-11-89-61-46-3-79-26-88-64zm210-73c6-55-18-91-72-90-77 1-111 51-111 125 0 49 24 75 73 75 72 0 103-45 110-110" id="cz"/><path fill="#333" d="M11 0l48-248h34L50-27h125l-5 27H11" id="cA"/><g id="af"><use transform="matrix(0.06172839506172835,0,0,0.06172839506172835,0,0)" xlink:href="#bW"/><use transform="matrix(0.06172839506172835,0,0,0.06172839506172835,18.456790123456777,0)" xlink:href="#cq"/><use transform="matrix(0.06172839506172835,0,0,0.06172839506172835,29.56790123456788,0)" xlink:href="#cs"/><use transform="matrix(0.06172839506172835,0,0,0.06172839506172835,44.38271604938269,0)" xlink:href="#cz"/><use transform="matrix(0.06172839506172835,0,0,0.06172839506172835,61.66666666666663,0)" xlink:href="#cA"/></g><g id="ag"><use transform="matrix(0.06172839506172839,0,0,0.06172839506172839,0,0)" xlink:href="#ay"/><use transform="matrix(0.06172839506172839,0,0,0.06172839506172839,12.345679012345679,0)" xlink:href="#aw"/><use transform="matrix(0.06172839506172839,0,0,0.06172839506172839,18.51851851851852,0)" xlink:href="#ar"/><use transform="matrix(0.06172839506172839,0,0,0.06172839506172839,32.03703703703704,0)" xlink:href="#as"/><use transform="matrix(0.06172839506172839,0,0,0.06172839506172839,45.55555555555556,0)" xlink:href="#bu"/></g><path fill="#3a414a" d="M169-182c-1-43-94-46-97-3 18 66 151 10 154 114 3 95-165 93-204 36-6-8-10-19-12-30l50-8c3 46 112 56 116 5-17-69-150-10-154-114-4-87 153-88 188-35 5 8 8 18 10 28" id="cB"/><path fill="#3a414a" d="M121-226c-27-7-43 5-38 36h38v33H83V0H34v-157H6v-33h28c-9-59 32-81 87-68v32" id="cC"/><path fill="#3a414a" d="M114-157C55-157 80-60 75 0H25v-261h50l-1 109c12-26 28-41 61-42 86-1 58 113 63 194h-50c-7-57 23-157-34-157" id="cD"/><g id="ah"><use transform="matrix(0.06172839506172839,0,0,0.06172839506172839,0,0)" xlink:href="#cB"/><use transform="matrix(0.06172839506172839,0,0,0.06172839506172839,14.814814814814813,0)" xlink:href="#bp"/><use transform="matrix(0.06172839506172839,0,0,0.06172839506172839,27.160493827160494,0)" xlink:href="#aw"/><use transform="matrix(0.06172839506172839,0,0,0.06172839506172839,33.333333333333336,0)" xlink:href="#cC"/><use transform="matrix(0.06172839506172839,0,0,0.06172839506172839,40.67901234567901,0)" xlink:href="#bt"/><use transform="matrix(0.06172839506172839,0,0,0.06172839506172839,48.02469135802469,0)" xlink:href="#cD"/><use transform="matrix(0.06172839506172839,0,0,0.06172839506172839,61.54320987654321,0)" xlink:href="#ar"/><use transform="matrix(0.06172839506172839,0,0,0.06172839506172839,75.06172839506172,0)" xlink:href="#bw"/><use transform="matrix(0.06172839506172839,0,0,0.06172839506172839,87.4074074074074,0)" xlink:href="#aA"/><use transform="matrix(0.06172839506172839,0,0,0.06172839506172839,94.75308641975309,0)" xlink:href="#bp"/><use transform="matrix(0.06172839506172839,0,0,0.06172839506172839,107.09876543209877,0)" xlink:href="#bu"/></g><path fill="#3a414a" d="M136-208V0H84v-208H4v-40h212v40h-80" id="cE"/><g id="ai"><use transform="matrix(0.06172839506172839,0,0,0.06172839506172839,0,0)" xlink:href="#cE"/><use transform="matrix(0.06172839506172839,0,0,0.06172839506172839,11.851851851851851,0)" xlink:href="#bp"/><use transform="matrix(0.06172839506172839,0,0,0.06172839506172839,24.19753086419753,0)" xlink:href="#bo"/><use transform="matrix(0.06172839506172839,0,0,0.06172839506172839,43.95061728395062,0)" xlink:href="#av"/><use transform="matrix(0.06172839506172839,0,0,0.06172839506172839,57.46913580246914,0)" xlink:href="#ar"/><use transform="matrix(0.06172839506172839,0,0,0.06172839506172839,70.98765432098766,0)" xlink:href="#at"/><use transform="matrix(0.06172839506172839,0,0,0.06172839506172839,79.62962962962963,0)" xlink:href="#az"/><use transform="matrix(0.06172839506172839,0,0,0.06172839506172839,91.97530864197532,0)" xlink:href="#aw"/></g><g id="aj"><use transform="matrix(0.06172839506172839,0,0,0.06172839506172839,0,0)" xlink:href="#cB"/><use transform="matrix(0.06172839506172839,0,0,0.06172839506172839,14.814814814814813,0)" xlink:href="#bp"/><use transform="matrix(0.06172839506172839,0,0,0.06172839506172839,27.160493827160494,0)" xlink:href="#at"/><use transform="matrix(0.06172839506172839,0,0,0.06172839506172839,35.80246913580247,0)" xlink:href="#bn"/><use transform="matrix(0.06172839506172839,0,0,0.06172839506172839,48.148148148148145,0)" xlink:href="#ax"/><use transform="matrix(0.06172839506172839,0,0,0.06172839506172839,54.32098765432099,0)" xlink:href="#ay"/><use transform="matrix(0.06172839506172839,0,0,0.06172839506172839,66.66666666666667,0)" xlink:href="#bp"/></g></defs></g></svg>