<svg xmlns="http://www.w3.org/2000/svg" xmlns:xlink="http://www.w3.org/1999/xlink" xmlns:lucid="lucid" width="941" height="457.95"><g transform="translate(-79.5 360.5)" lucid:page-tab-id="0_0"><path d="M0-500h1000V500H0z" fill="#fff"/><path d="M100-194a6 6 0 0 1 6-6h328a6 6 0 0 1 6 6V-6a6 6 0 0 1-6 6H106a6 6 0 0 1-6-6z" fill-opacity="0"/><path d="M100.9-197.13l.25-.4.6-.7.72-.62.4-.25m1.73-.72l.46-.1.94-.08h1.5m1.98 0h2.98m2 0h2.97m2 0h2.97m2 0h2.97m2 0h2.97m2 0h2.97m2 0h2.98m2 0h2.97m2 0h2.97m2 0h2.97m1.98 0h2.98m2 0h2.97m2 0h2.97m2 0h2.97m2 0h2.97m1.98 0h3m1.97 0h2.98m1.98 0h2.98m2 0h2.97m2 0h2.98m2 0h2.97m2 0h2.97m2 0h2.97m1.98 0h2.98m2 0h2.97m2 0h2.97m2 0h2.97m2 0h2.97m2 0h2.97m2 0h2.98m2 0h2.97m2 0h2.97m2 0h2.97m1.98 0h2.98m2 0h2.97m2 0h2.97m2 0h2.97m2 0h2.97m2 0h2.97m2 0h2.98m2 0h2.97m2 0h2.97m2 0h2.97m1.98 0h2.98m1.98 0h3m1.98 0h2.98m1.98 0h3m1.98 0h2.98m1.98 0h3m1.97 0h2.98m1.98 0h3m1.97 0h3m1.97 0h3m1.97 0h3m1.97 0h2.98m2 0h2.97m1.98 0h2.98m2 0h2.97m2 0h2.97m2 0h2.97m2 0h2.97m2 0h2.97m2 0h2.98m2 0h2.97m2 0h2.97m2 0H434l.94.07.46.1m1.73.73l.4.25.7.6.62.72.25.4m.72 1.73l.1.46.08.94v1.48m0 1.98v2.97m0 1.98v2.98m0 1.98v2.97m0 1.97v2.97m0 1.98v2.97m0 1.98v2.97m0 1.98v2.97m0 1.97v2.96m0 1.98v2.97m0 2v2.96m0 1.98v2.97m0 1.98v2.97m0 1.98v2.97m0 1.98v2.97m0 1.98v2.96m0 1.97v2.97m0 1.98v2.97m0 1.97v2.97m0 1.98v2.96m0 1.98v2.97m0 1.98v2.98m0 1.98v2.97m0 1.98v2.97m0 1.98v2.97m0 1.98v2.97m0 1.98v2.97m0 1.98v2.96m0 1.98V-54m0 2v2.96m0 1.98v2.97m0 1.98v2.97m0 1.98v2.97m0 1.98v2.97m0 1.98v2.96m0 1.97v2.97m0 1.98v2.97m0 1.97v2.97m0 1.98V-6l-.07.94-.1.46m-.73 1.72l-.25.4-.6.72-.72.6-.4.26m-1.73.72l-.46.1L434 0h-1.5m-1.98 0h-2.98m-2 0h-2.97m-2 0h-2.97m-2 0h-2.97m-2 0h-2.97m-2 0h-2.97m-2 0h-2.98m-2 0h-2.97m-2 0h-2.97m-2 0h-2.97m-1.98 0h-2.98m-1.98 0h-3m-1.98 0h-2.98m-1.98 0h-3m-1.98 0h-2.98m-1.98 0h-3m-1.97 0h-2.98m-1.98 0h-3m-1.97 0h-3m-1.97 0h-3m-1.97 0h-3m-1.97 0h-2.98m-2 0h-2.97m-1.98 0h-2.98m-2 0h-2.97m-2 0h-2.97m-2 0h-2.97m-2 0h-2.97m-2 0h-2.97m-2 0h-2.98m-2 0h-2.97m-2 0h-2.97m-2 0h-2.97m-1.98 0h-2.98m-2 0h-2.97m-2 0h-2.97m-2 0h-2.97m-2 0h-2.97m-2 0h-2.97m-2 0h-2.98m-2 0h-2.97m-2 0h-2.97m-2 0h-2.97m-1.98 0h-2.98m-2 0h-2.97m-2 0h-2.97m-2 0h-2.97m-2 0h-2.97m-1.98 0h-3m-1.97 0h-2.98m-1.98 0h-2.98m-2 0h-2.97m-2 0h-2.98m-2 0h-2.97m-2 0h-2.97m-2 0h-2.97m-1.98 0h-2.98m-2 0h-2.97m-2 0h-2.97m-2 0h-2.97m-2 0h-2.97m-2 0h-2.97m-2 0h-2.98m-2 0h-2.97m-2 0h-2.97m-2 0H106l-.94-.07-.46-.1m-1.72-.73l-.4-.25-.72-.6-.6-.72-.26-.4m-.72-1.73l-.1-.46L100-6v-1.48m0-1.98v-2.97m0-1.98v-2.98m0-1.98v-2.97m0-1.98v-2.97m0-1.98v-2.97m0-1.98v-2.97m0-1.98v-2.97m0-1.98v-2.96m0-1.98V-52m0-2v-2.96m0-1.98v-2.97m0-1.98v-2.97m0-1.98v-2.97m0-1.98v-2.97m0-1.98v-2.96m0-1.97v-2.97m0-1.98v-2.97m0-1.97v-2.97m0-1.98v-2.96m0-1.98v-2.97m0-1.98v-2.98m0-1.98v-2.97m0-1.98v-2.97m0-1.98v-2.97m0-1.98v-2.97m0-1.98v-2.97m0-1.97v-2.96m0-1.98V-146m0-2v-2.96m0-1.98v-2.97m0-1.98v-2.97m0-1.98v-2.97m0-1.98v-2.97m0-1.98v-2.97m0-1.97v-2.97m0-1.98v-2.97m0-1.97v-2.97m0-1.98V-194l.07-.94.1-.46" stroke="#979ea8" fill="none"/><path d="M120-132.67a6 6 0 0 1 6-6h68a6 6 0 0 1 6 6v65.34a6 6 0 0 1-6 6h-68a6 6 0 0 1-6-6z" stroke="#3a414a" fill="#f2f3f5"/><use xlink:href="#a" transform="matrix(1,0,0,1,132,-126.66666666666666) translate(3.1543209876543266 19.194444444444443)"/><use xlink:href="#b" transform="matrix(1,0,0,1,132,-126.66666666666666) translate(23.679012345679013 37.8611111111111)"/><path d="M340-132.67a6 6 0 0 1 6-6h68a6 6 0 0 1 6 6v65.34a6 6 0 0 1-6 6h-68a6 6 0 0 1-6-6z" stroke="#3a414a" fill="#f2f3f5"/><use xlink:href="#c" transform="matrix(1,0,0,1,352,-126.66666666666666) translate(3.15432098765433 19.19444444444444)"/><use xlink:href="#d" transform="matrix(1,0,0,1,352,-126.66666666666666) translate(23.679012345679013 37.8611111111111)"/><path d="M240-100c0 5.52-4.48 10-10 10s-10-4.48-10-10 4.48-10 10-10 10 4.48 10 10zM280-98.98c0 5.52-4.48 10-10 10s-10-4.48-10-10 4.48-10 10-10 10 4.48 10 10zM320-98.98c0 5.52-4.48 10-10 10s-10-4.48-10-10 4.48-10 10-10 10 4.48 10 10z" stroke="#000" fill="#f2f3f5"/><path d="M560-274a6 6 0 0 1 6-6h148a6 6 0 0 1 6 6v146.48a6 6 0 0 1-6 6H566a6 6 0 0 1-6-6z" stroke="#3a414a" fill="#141414"/><use xlink:href="#e" transform="matrix(1,0,0,1,572,-268) translate(9.53703703703706 71.50694444444444)"/><use xlink:href="#f" transform="matrix(1,0,0,1,572,-268) translate(82.56172839506172 71.50694444444444)"/><path d="M440.88-100.32l118.24-99.36" stroke="#000" fill="none"/><path d="M441.2-99.95l-.7.6v-1.3l.07-.06zM559.5-199.35l-.07.06-.64-.75.7-.6z" stroke="#000" stroke-width=".05"/><path d="M140-254a6 6 0 0 1 6-6h248a6 6 0 0 1 6 6v48a6 6 0 0 1-6 6H146a6 6 0 0 1-6-6z" stroke="#000" stroke-opacity="0" fill="#fff" fill-opacity="0"/><use xlink:href="#g" transform="matrix(1,0,0,1,145,-255) translate(46.51234567901234 30.27777777777778)"/><use xlink:href="#h" transform="matrix(1,0,0,1,145,-255) translate(97.5 30.27777777777778)"/><path d="M560-334a6 6 0 0 1 6-6h148a6 6 0 0 1 6 6v48a6 6 0 0 1-6 6H566a6 6 0 0 1-6-6z" stroke="#000" stroke-opacity="0" fill="#fff" fill-opacity="0"/><use xlink:href="#i" transform="matrix(1,0,0,1,565,-335) translate(22.00617283950617 30.27777777777778)"/><path d="M560-75.52a6 6 0 0 1 6-6h148a6 6 0 0 1 6 6V70.95a6 6 0 0 1-6 6H566a6 6 0 0 1-6-6z" stroke="#3a414a" fill="#f2f3f5"/><use xlink:href="#j" transform="matrix(1,0,0,1,572,-69.52380952380952) translate(28.722222222222236 63.06944444444444)"/><use xlink:href="#k" transform="matrix(1,0,0,1,572,-69.52380952380952) translate(9.385802469135832 81.7361111111111)"/><use xlink:href="#l" transform="matrix(1,0,0,1,572,-69.52380952380952) translate(77.48456790123456 81.7361111111111)"/><path d="M440.9-99.68L559.1-2.6" stroke="#000" fill="none"/><path d="M441.2-100.06l-.62.77-.08-.05v-1.3zM559.5-2.93v1.3l-.7-.6.62-.77z" stroke="#000" stroke-width=".05"/><path d="M840-131.65a6 6 0 0 1 6-6h68a6 6 0 0 1 6 6v65.34a6 6 0 0 1-6 6h-68a6 6 0 0 1-6-6z" stroke="#3a414a" fill="#f2f3f5"/><use xlink:href="#m" transform="matrix(1,0,0,1,852,-125.64708879840671) translate(-3.8888888888888786 20.77777777777778)"/><use xlink:href="#n" transform="matrix(1,0,0,1,852,-125.64708879840671) translate(8.188271604938276 39.44444444444444)"/><path d="M760-254a6 6 0 0 1 6-6h228a6 6 0 0 1 6 6v48a6 6 0 0 1-6 6H766a6 6 0 0 1-6-6z" stroke="#000" stroke-opacity="0" fill="#fff" fill-opacity="0"/><use xlink:href="#o" transform="matrix(1,0,0,1,765,-255) translate(29.907407407407405 30.27777777777778)"/><use xlink:href="#p" transform="matrix(1,0,0,1,765,-255) translate(140.89506172839506 30.27777777777778)"/><path d="M839.12-99.3L720.88-200.44" stroke="#000" fill="none"/><path d="M839.5-99.64v1.32l-.72-.6.65-.77zM721.2-200.8l-.63.75-.07-.05v-1.32z" stroke="#000" stroke-width=".05"/><path d="M839.1-98.67L720.9-2.6" stroke="#000" fill="none"/><path d="M839.5-98.34l-.08.07-.63-.78.7-.58zM721.2-2.22l-.7.58v-1.3l.08-.06z" stroke="#000" stroke-width=".05"/><defs><path fill="#3a414a" d="M266 0h-40l-56-210L115 0H75L2-248h35L96-30l15-64 43-154h32l59 218 59-218h35" id="q"/><path fill="#3a414a" d="M100-194c62-1 85 37 85 99 1 63-27 99-86 99S16-35 15-95c0-66 28-99 85-99zM99-20c44 1 53-31 53-75 0-43-8-75-51-75s-53 32-53 75 10 74 51 75" id="r"/><path fill="#3a414a" d="M114-163C36-179 61-72 57 0H25l-1-190h30c1 12-1 29 2 39 6-27 23-49 58-41v29" id="s"/><path fill="#3a414a" d="M143 0L79-87 56-68V0H24v-261h32v163l83-92h37l-77 82L181 0h-38" id="t"/><path fill="#3a414a" d="M100-194c63 0 86 42 84 106H49c0 40 14 67 53 68 26 1 43-12 49-29l28 8c-11 28-37 45-77 45C44 4 14-33 15-96c1-61 26-98 85-98zm52 81c6-60-76-77-97-28-3 7-6 17-6 28h103" id="u"/><g id="a"><use transform="matrix(0.04320987654320986,0,0,0.04320987654320986,0,0)" xlink:href="#q"/><use transform="matrix(0.04320987654320986,0,0,0.04320987654320986,14.345679012345675,0)" xlink:href="#r"/><use transform="matrix(0.04320987654320986,0,0,0.04320987654320986,22.987654320987644,0)" xlink:href="#s"/><use transform="matrix(0.04320987654320986,0,0,0.04320987654320986,28.129629629629623,0)" xlink:href="#t"/><use transform="matrix(0.04320987654320986,0,0,0.04320987654320986,35.9074074074074,0)" xlink:href="#u"/><use transform="matrix(0.04320987654320986,0,0,0.04320987654320986,44.54938271604937,0)" xlink:href="#s"/></g><path fill="#3a414a" d="M27 0v-27h64v-190l-56 39v-29l58-41h29v221h61V0H27" id="v"/><use transform="matrix(0.04320987654320986,0,0,0.04320987654320986,0,0)" xlink:href="#v" id="b"/><g id="c"><use transform="matrix(0.04320987654320985,0,0,0.04320987654320985,0,0)" xlink:href="#q"/><use transform="matrix(0.04320987654320985,0,0,0.04320987654320985,14.345679012345672,0)" xlink:href="#r"/><use transform="matrix(0.04320987654320985,0,0,0.04320987654320985,22.987654320987648,0)" xlink:href="#s"/><use transform="matrix(0.04320987654320985,0,0,0.04320987654320985,28.12962962962962,0)" xlink:href="#t"/><use transform="matrix(0.04320987654320985,0,0,0.04320987654320985,35.90740740740739,0)" xlink:href="#u"/><use transform="matrix(0.04320987654320985,0,0,0.04320987654320985,44.549382716049365,0)" xlink:href="#s"/></g><path fill="#3a414a" d="M117-194c89-4 53 116 60 194h-32v-121c0-31-8-49-39-48C34-167 62-67 57 0H25l-1-190h30c1 10-1 24 2 32 11-22 29-35 61-36" id="w"/><use transform="matrix(0.04320987654320985,0,0,0.04320987654320985,0,0)" xlink:href="#w" id="d"/><path fill="#fff" d="M136-208V0H84v-208H4v-40h212v40h-80" id="x"/><path fill="#fff" d="M185-48c-13 30-37 53-82 52C43 2 14-33 14-96s30-98 90-98c62 0 83 45 84 108H66c0 31 8 55 39 56 18 0 30-7 34-22zm-45-69c5-46-57-63-70-21-2 6-4 13-4 21h74" id="y"/><path fill="#fff" d="M220-157c-53 9-28 100-34 157h-49v-107c1-27-5-49-29-50C55-147 81-57 75 0H25l-1-190h47c2 12-1 28 3 38 10-53 101-56 108 0 13-22 24-43 59-42 82 1 51 116 57 194h-49v-107c-1-25-5-48-29-50" id="z"/><path fill="#fff" d="M135-194c53 0 70 44 70 98 0 56-19 98-73 100-31 1-45-17-59-34 3 33 2 69 2 105H25l-1-265h48c2 10 0 23 3 31 11-24 29-35 60-35zM114-30c33 0 39-31 40-66 0-38-9-64-40-64-56 0-55 130 0 130" id="A"/><path fill="#fff" d="M110-194c64 0 96 36 96 99 0 64-35 99-97 99-61 0-95-36-95-99 0-62 34-99 96-99zm-1 164c35 0 45-28 45-65 0-40-10-65-43-65-34 0-45 26-45 65 0 36 10 65 43 65" id="B"/><path fill="#fff" d="M135-150c-39-12-60 13-60 57V0H25l-1-190h47c2 13-1 29 3 40 6-28 27-53 61-41v41" id="C"/><path fill="#fff" d="M133-34C117-15 103 5 69 4 32 3 11-16 11-54c-1-60 55-63 116-61 1-26-3-47-28-47-18 1-26 9-28 27l-52-2c7-38 36-58 82-57s74 22 75 68l1 82c-1 14 12 18 25 15v27c-30 8-71 5-69-32zm-48 3c29 0 43-24 42-57-32 0-66-3-65 30 0 17 8 27 23 27" id="D"/><path fill="#fff" d="M25 0v-261h50V0H25" id="E"/><g id="e"><use transform="matrix(0.04320987654320985,0,0,0.04320987654320985,0,0)" xlink:href="#x"/><use transform="matrix(0.04320987654320985,0,0,0.04320987654320985,8.296296296296292,0)" xlink:href="#y"/><use transform="matrix(0.04320987654320985,0,0,0.04320987654320985,16.938271604938265,0)" xlink:href="#z"/><use transform="matrix(0.04320987654320985,0,0,0.04320987654320985,30.765432098765416,0)" xlink:href="#A"/><use transform="matrix(0.04320987654320985,0,0,0.04320987654320985,40.22839506172838,0)" xlink:href="#B"/><use transform="matrix(0.04320987654320985,0,0,0.04320987654320985,49.69135802469134,0)" xlink:href="#C"/><use transform="matrix(0.04320987654320985,0,0,0.04320987654320985,55.74074074074072,0)" xlink:href="#D"/><use transform="matrix(0.04320987654320985,0,0,0.04320987654320985,64.3827160493827,0)" xlink:href="#E"/></g><path fill="#fff" d="M67-125c0 53 21 87 73 88 37 1 54-22 65-47l45 17C233-25 199 4 140 4 58 4 20-42 15-125 8-235 124-281 211-232c18 10 29 29 36 50l-46 12c-8-25-30-41-62-41-52 0-71 34-72 86" id="F"/><path fill="#fff" d="M85 4C-2 5 27-109 22-190h50c7 57-23 150 33 157 60-5 35-97 40-157h50l1 190h-47c-2-12 1-28-3-38-12 25-28 42-61 42" id="G"/><path fill="#fff" d="M88-194c31-1 46 15 58 34l-1-101h50l1 261h-48c-2-10 0-23-3-31C134-8 116 4 84 4 32 4 16-41 15-95c0-56 19-97 73-99zm17 164c33 0 40-30 41-66 1-37-9-64-41-64s-38 30-39 65c0 43 13 65 39 65" id="H"/><g id="f"><use transform="matrix(0.04320987654320985,0,0,0.04320987654320985,0,0)" xlink:href="#F"/><use transform="matrix(0.04320987654320985,0,0,0.04320987654320985,11.191358024691352,0)" xlink:href="#E"/><use transform="matrix(0.04320987654320985,0,0,0.04320987654320985,15.512345679012338,0)" xlink:href="#B"/><use transform="matrix(0.04320987654320985,0,0,0.04320987654320985,24.975308641975296,0)" xlink:href="#G"/><use transform="matrix(0.04320987654320985,0,0,0.04320987654320985,34.43827160493825,0)" xlink:href="#H"/></g><path fill="#3a414a" d="M137-103V0h-34v-103L8-248h37l75 118 75-118h37" id="I"/><path fill="#3a414a" d="M84 4C-5 8 30-112 23-190h32v120c0 31 7 50 39 49 72-2 45-101 50-169h31l1 190h-30c-1-10 1-25-2-33-11 22-28 36-60 37" id="J"/><g id="g"><use transform="matrix(0.06172839506172839,0,0,0.06172839506172839,0,0)" xlink:href="#I"/><use transform="matrix(0.06172839506172839,0,0,0.06172839506172839,12.777777777777777,0)" xlink:href="#r"/><use transform="matrix(0.06172839506172839,0,0,0.06172839506172839,25.123456790123456,0)" xlink:href="#J"/><use transform="matrix(0.06172839506172839,0,0,0.06172839506172839,37.46913580246913,0)" xlink:href="#s"/></g><path fill="#3a414a" d="M141-36C126-15 110 5 73 4 37 3 15-17 15-53c-1-64 63-63 125-63 3-35-9-54-41-54-24 1-41 7-42 31l-33-3c5-37 33-52 76-52 45 0 72 20 72 64v82c-1 20 7 32 28 27v20c-31 9-61-2-59-35zM48-53c0 20 12 33 32 33 41-3 63-29 60-74-43 2-92-5-92 41" id="K"/><path fill="#3a414a" d="M115-194c55 1 70 41 70 98S169 2 115 4C84 4 66-9 55-30l1 105H24l-1-265h31l2 30c10-21 28-34 59-34zm-8 174c40 0 45-34 45-75s-6-73-45-74c-42 0-51 32-51 76 0 43 10 73 51 73" id="L"/><path fill="#3a414a" d="M24 0v-261h32V0H24" id="M"/><path fill="#3a414a" d="M24-231v-30h32v30H24zM24 0v-190h32V0H24" id="N"/><path fill="#3a414a" d="M96-169c-40 0-48 33-48 73s9 75 48 75c24 0 41-14 43-38l32 2c-6 37-31 61-74 61-59 0-76-41-82-99-10-93 101-131 147-64 4 7 5 14 7 22l-32 3c-4-21-16-35-41-35" id="O"/><path fill="#3a414a" d="M59-47c-2 24 18 29 38 22v24C64 9 27 4 27-40v-127H5v-23h24l9-43h21v43h35v23H59v120" id="P"/><g id="h"><use transform="matrix(0.06172839506172839,0,0,0.06172839506172839,0,0)" xlink:href="#K"/><use transform="matrix(0.06172839506172839,0,0,0.06172839506172839,12.345679012345679,0)" xlink:href="#L"/><use transform="matrix(0.06172839506172839,0,0,0.06172839506172839,24.691358024691358,0)" xlink:href="#L"/><use transform="matrix(0.06172839506172839,0,0,0.06172839506172839,37.03703703703704,0)" xlink:href="#M"/><use transform="matrix(0.06172839506172839,0,0,0.06172839506172839,41.91358024691358,0)" xlink:href="#N"/><use transform="matrix(0.06172839506172839,0,0,0.06172839506172839,46.79012345679013,0)" xlink:href="#O"/><use transform="matrix(0.06172839506172839,0,0,0.06172839506172839,57.90123456790124,0)" xlink:href="#K"/><use transform="matrix(0.06172839506172839,0,0,0.06172839506172839,70.24691358024693,0)" xlink:href="#P"/><use transform="matrix(0.06172839506172839,0,0,0.06172839506172839,76.41975308641976,0)" xlink:href="#N"/><use transform="matrix(0.06172839506172839,0,0,0.06172839506172839,81.2962962962963,0)" xlink:href="#r"/><use transform="matrix(0.06172839506172839,0,0,0.06172839506172839,93.64197530864199,0)" xlink:href="#w"/></g><path fill="#3a414a" d="M185-189c-5-48-123-54-124 2 14 75 158 14 163 119 3 78-121 87-175 55-17-10-28-26-33-46l33-7c5 56 141 63 141-1 0-78-155-14-162-118-5-82 145-84 179-34 5 7 8 16 11 25" id="Q"/><path fill="#3a414a" d="M108 0H70L1-190h34L89-25l56-165h34" id="R"/><path fill="#3a414a" d="M135-143c-3-34-86-38-87 0 15 53 115 12 119 90S17 21 10-45l28-5c4 36 97 45 98 0-10-56-113-15-118-90-4-57 82-63 122-42 12 7 21 19 24 35" id="S"/><g id="i"><use transform="matrix(0.06172839506172839,0,0,0.06172839506172839,0,0)" xlink:href="#Q"/><use transform="matrix(0.06172839506172839,0,0,0.06172839506172839,14.814814814814813,0)" xlink:href="#J"/><use transform="matrix(0.06172839506172839,0,0,0.06172839506172839,27.160493827160494,0)" xlink:href="#L"/><use transform="matrix(0.06172839506172839,0,0,0.06172839506172839,39.50617283950617,0)" xlink:href="#u"/><use transform="matrix(0.06172839506172839,0,0,0.06172839506172839,51.85185185185185,0)" xlink:href="#s"/><use transform="matrix(0.06172839506172839,0,0,0.06172839506172839,59.197530864197525,0)" xlink:href="#R"/><use transform="matrix(0.06172839506172839,0,0,0.06172839506172839,70.30864197530863,0)" xlink:href="#N"/><use transform="matrix(0.06172839506172839,0,0,0.06172839506172839,75.18518518518518,0)" xlink:href="#S"/><use transform="matrix(0.06172839506172839,0,0,0.06172839506172839,86.29629629629629,0)" xlink:href="#r"/><use transform="matrix(0.06172839506172839,0,0,0.06172839506172839,98.64197530864197,0)" xlink:href="#s"/></g><path fill="#3a414a" d="M101-234c-31-9-42 10-38 44h38v23H63V0H32v-167H5v-23h27c-7-52 17-82 69-68v24" id="T"/><path fill="#3a414a" d="M16-82v-28h88v28H16" id="U"/><path fill="#3a414a" d="M106-169C34-169 62-67 57 0H25v-261h32l-1 103c12-21 28-36 61-36 89 0 53 116 60 194h-32v-121c2-32-8-49-39-48" id="V"/><path fill="#3a414a" d="M85-194c31 0 48 13 60 33l-1-100h32l1 261h-30c-2-10 0-23-3-31C134-8 116 4 85 4 32 4 16-35 15-94c0-66 23-100 70-100zm9 24c-40 0-46 34-46 75 0 40 6 74 45 74 42 0 51-32 51-76 0-42-9-74-50-73" id="W"/><g id="j"><use transform="matrix(0.04320987654320985,0,0,0.04320987654320985,0,0)" xlink:href="#Q"/><use transform="matrix(0.04320987654320985,0,0,0.04320987654320985,10.370370370370365,0)" xlink:href="#u"/><use transform="matrix(0.04320987654320985,0,0,0.04320987654320985,19.012345679012334,0)" xlink:href="#M"/><use transform="matrix(0.04320987654320985,0,0,0.04320987654320985,22.425925925925913,0)" xlink:href="#T"/><use transform="matrix(0.04320987654320985,0,0,0.04320987654320985,26.7469135802469,0)" xlink:href="#U"/><use transform="matrix(0.04320987654320985,0,0,0.04320987654320985,31.88888888888887,0)" xlink:href="#V"/><use transform="matrix(0.04320987654320985,0,0,0.04320987654320985,40.530864197530846,0)" xlink:href="#r"/><use transform="matrix(0.04320987654320985,0,0,0.04320987654320985,49.17283950617282,0)" xlink:href="#S"/><use transform="matrix(0.04320987654320985,0,0,0.04320987654320985,56.9506172839506,0)" xlink:href="#P"/><use transform="matrix(0.04320987654320985,0,0,0.04320987654320985,61.27160493827158,0)" xlink:href="#u"/><use transform="matrix(0.04320987654320985,0,0,0.04320987654320985,69.91358024691355,0)" xlink:href="#W"/></g><path fill="#3a414a" d="M127-220V0H93v-220H8v-28h204v28h-85" id="X"/><path fill="#3a414a" d="M210-169c-67 3-38 105-44 169h-31v-121c0-29-5-50-35-48C34-165 62-65 56 0H25l-1-190h30c1 10-1 24 2 32 10-44 99-50 107 0 11-21 27-35 58-36 85-2 47 119 55 194h-31v-121c0-29-5-49-35-48" id="Y"/><g id="k"><use transform="matrix(0.04320987654320985,0,0,0.04320987654320985,0,0)" xlink:href="#X"/><use transform="matrix(0.04320987654320985,0,0,0.04320987654320985,7.734567901234565,0)" xlink:href="#u"/><use transform="matrix(0.04320987654320985,0,0,0.04320987654320985,16.376543209876537,0)" xlink:href="#Y"/><use transform="matrix(0.04320987654320985,0,0,0.04320987654320985,29.296296296296287,0)" xlink:href="#L"/><use transform="matrix(0.04320987654320985,0,0,0.04320987654320985,37.93827160493825,0)" xlink:href="#r"/><use transform="matrix(0.04320987654320985,0,0,0.04320987654320985,46.58024691358022,0)" xlink:href="#s"/><use transform="matrix(0.04320987654320985,0,0,0.04320987654320985,51.72222222222221,0)" xlink:href="#K"/><use transform="matrix(0.04320987654320985,0,0,0.04320987654320985,60.364197530864175,0)" xlink:href="#M"/></g><path fill="#3a414a" d="M212-179c-10-28-35-45-73-45-59 0-87 40-87 99 0 60 29 101 89 101 43 0 62-24 78-52l27 14C228-24 195 4 139 4 59 4 22-46 18-125c-6-104 99-153 187-111 19 9 31 26 39 46" id="Z"/><g id="l"><use transform="matrix(0.04320987654320985,0,0,0.04320987654320985,0,0)" xlink:href="#Z"/><use transform="matrix(0.04320987654320985,0,0,0.04320987654320985,11.191358024691352,0)" xlink:href="#M"/><use transform="matrix(0.04320987654320985,0,0,0.04320987654320985,14.604938271604931,0)" xlink:href="#J"/><use transform="matrix(0.04320987654320985,0,0,0.04320987654320985,23.246913580246908,0)" xlink:href="#S"/><use transform="matrix(0.04320987654320985,0,0,0.04320987654320985,31.024691358024675,0)" xlink:href="#P"/><use transform="matrix(0.04320987654320985,0,0,0.04320987654320985,35.34567901234566,0)" xlink:href="#u"/><use transform="matrix(0.04320987654320985,0,0,0.04320987654320985,43.98765432098763,0)" xlink:href="#s"/></g><g id="m"><use transform="matrix(0.04320987654320986,0,0,0.04320987654320986,0,0)" xlink:href="#X"/><use transform="matrix(0.04320987654320986,0,0,0.04320987654320986,7.734567901234566,0)" xlink:href="#u"/><use transform="matrix(0.04320987654320986,0,0,0.04320987654320986,16.376543209876537,0)" xlink:href="#Y"/><use transform="matrix(0.04320987654320986,0,0,0.04320987654320986,29.296296296296287,0)" xlink:href="#L"/><use transform="matrix(0.04320987654320986,0,0,0.04320987654320986,37.93827160493826,0)" xlink:href="#r"/><use transform="matrix(0.04320987654320986,0,0,0.04320987654320986,46.58024691358023,0)" xlink:href="#s"/><use transform="matrix(0.04320987654320986,0,0,0.04320987654320986,51.7222222222222,0)" xlink:href="#K"/><use transform="matrix(0.04320987654320986,0,0,0.04320987654320986,60.36419753086418,0)" xlink:href="#M"/></g><g id="n"><use transform="matrix(0.04320987654320986,0,0,0.04320987654320986,0,0)" xlink:href="#Z"/><use transform="matrix(0.04320987654320986,0,0,0.04320987654320986,11.191358024691354,0)" xlink:href="#M"/><use transform="matrix(0.04320987654320986,0,0,0.04320987654320986,14.604938271604933,0)" xlink:href="#N"/><use transform="matrix(0.04320987654320986,0,0,0.04320987654320986,18.018518518518512,0)" xlink:href="#u"/><use transform="matrix(0.04320987654320986,0,0,0.04320987654320986,26.66049382716049,0)" xlink:href="#w"/><use transform="matrix(0.04320987654320986,0,0,0.04320987654320986,35.30246913580246,0)" xlink:href="#P"/></g><path fill="#3a414a" d="M33 0v-248h34V0H33" id="aa"/><path fill="#3a414a" d="M177-190C167-65 218 103 67 71c-23-6-38-20-44-43l32-5c15 47 100 32 89-28v-30C133-14 115 1 83 1 29 1 15-40 15-95c0-56 16-97 71-98 29-1 48 16 59 35 1-10 0-23 2-32h30zM94-22c36 0 50-32 50-73 0-42-14-75-50-75-39 0-46 34-46 75s6 73 46 73" id="ab"/><g id="o"><use transform="matrix(0.06172839506172839,0,0,0.06172839506172839,0,0)" xlink:href="#aa"/><use transform="matrix(0.06172839506172839,0,0,0.06172839506172839,6.172839506172839,0)" xlink:href="#w"/><use transform="matrix(0.06172839506172839,0,0,0.06172839506172839,18.51851851851852,0)" xlink:href="#P"/><use transform="matrix(0.06172839506172839,0,0,0.06172839506172839,24.691358024691358,0)" xlink:href="#u"/><use transform="matrix(0.06172839506172839,0,0,0.06172839506172839,37.03703703703704,0)" xlink:href="#ab"/><use transform="matrix(0.06172839506172839,0,0,0.06172839506172839,49.382716049382715,0)" xlink:href="#s"/><use transform="matrix(0.06172839506172839,0,0,0.06172839506172839,56.72839506172839,0)" xlink:href="#K"/><use transform="matrix(0.06172839506172839,0,0,0.06172839506172839,69.07407407407408,0)" xlink:href="#P"/><use transform="matrix(0.06172839506172839,0,0,0.06172839506172839,75.24691358024691,0)" xlink:href="#N"/><use transform="matrix(0.06172839506172839,0,0,0.06172839506172839,80.12345679012346,0)" xlink:href="#r"/><use transform="matrix(0.06172839506172839,0,0,0.06172839506172839,92.46913580246914,0)" xlink:href="#w"/></g><g id="p"><use transform="matrix(0.06172839506172839,0,0,0.06172839506172839,0,0)" xlink:href="#L"/><use transform="matrix(0.06172839506172839,0,0,0.06172839506172839,12.345679012345679,0)" xlink:href="#r"/><use transform="matrix(0.06172839506172839,0,0,0.06172839506172839,24.691358024691358,0)" xlink:href="#N"/><use transform="matrix(0.06172839506172839,0,0,0.06172839506172839,29.5679012345679,0)" xlink:href="#w"/><use transform="matrix(0.06172839506172839,0,0,0.06172839506172839,41.913580246913575,0)" xlink:href="#P"/><use transform="matrix(0.06172839506172839,0,0,0.06172839506172839,48.08641975308642,0)" xlink:href="#S"/></g></defs></g></svg>