<svg xmlns="http://www.w3.org/2000/svg" xmlns:xlink="http://www.w3.org/1999/xlink" xmlns:lucid="lucid" width="1314.25" height="1480"><g transform="translate(-185.75 -80)" lucid:page-tab-id="0_0"><path d="M0 0h1870.87v2581.67H0z" fill="#fff"/><path d="M850 161v9.9m0 9.93v19.83m0 9.9v19.84m0 9.92v19.83m0 9.9v19.84m0 9.9v19.84m0 9.9v19.84m0 9.92v19.83m0 9.9v19.84m0 9.92v19.8m0 9.93v19.83m0 9.9v19.84m0 9.92v19.83m0 9.9v19.84m0 9.9v19.84m0 9.9v19.84m0 9.92v19.83m0 9.9v19.84m0 9.92v19.8m0 9.93v19.83m0 9.9v19.84m0 9.92v19.83m0 9.9v19.84m0 9.9v19.84m0 9.9v19.84m0 9.92v19.83m0 9.9v19.84m0 9.92V974m0 9.93v19.83m0 9.9v19.84m0 9.92v19.83m0 9.9V1093m0 9.9v19.84m0 9.9v19.84m0 9.92v19.83m0 9.9v19.84m0 9.92v19.8m0 9.93v19.83m0 9.9v19.84m0 9.92v19.83m0 9.9v19.84m0 9.9v19.84m0 9.9v19.84m0 9.92v19.83m0 9.9v19.84m0 9.92v9.9" stroke="#333" fill="none"/><path d="M850.5 161h-1v-.5h1z" stroke="#333" stroke-width=".05" fill="#333"/><path d="M850 1499.5v.5M1190 161v9.9m0 9.93v19.83m0 9.9v19.84m0 9.92v19.83m0 9.9v19.84m0 9.9v19.84m0 9.9v19.84m0 9.92v19.83m0 9.9v19.84m0 9.92v19.8m0 9.93v19.83m0 9.9v19.84m0 9.92v19.83m0 9.9v19.84m0 9.9v19.84m0 9.9v19.84m0 9.92v19.83m0 9.9v19.84m0 9.92v19.8m0 9.93v19.83m0 9.9v19.84m0 9.92v19.83m0 9.9v19.84m0 9.9v19.84m0 9.9v19.84m0 9.92v19.83m0 9.9v19.84m0 9.92V974m0 9.93v19.83m0 9.9v19.84m0 9.92v19.83m0 9.9V1093m0 9.9v19.84m0 9.9v19.84m0 9.92v19.83m0 9.9v19.84m0 9.92v19.8m0 9.93v19.83m0 9.9v19.84m0 9.92v19.83m0 9.9v19.84m0 9.9v19.84m0 9.9v19.84m0 9.92v19.83m0 9.9v19.84m0 9.92v9.9" stroke="#333" fill="none"/><path d="M1190.5 161h-1v-.5h1z" stroke="#333" stroke-width=".05" fill="#333"/><path d="M1190 1499.5v.5M510 161v9.9m0 9.93v19.83m0 9.9v19.84m0 9.92v19.83m0 9.9v19.84m0 9.9v19.84m0 9.9v19.84m0 9.92v19.83m0 9.9v19.84m0 9.92v19.8m0 9.93v19.83m0 9.9v19.84m0 9.92v19.83m0 9.9v19.84m0 9.9v19.84m0 9.9v19.84m0 9.92v19.83m0 9.9v19.84m0 9.92v19.8m0 9.93v19.83m0 9.9v19.84m0 9.92v19.83m0 9.9v19.84m0 9.9v19.84m0 9.9v19.84m0 9.92v19.83m0 9.9v19.84m0 9.92V974m0 9.93v19.83m0 9.9v19.84m0 9.92v19.83m0 9.9V1093m0 9.9v19.84m0 9.9v19.84m0 9.92v19.83m0 9.9v19.84m0 9.92v19.8m0 9.93v19.83m0 9.9v19.84m0 9.92v19.83m0 9.9v19.84m0 9.9v19.84m0 9.9v19.84m0 9.92v19.83m0 9.9v19.84m0 9.92v9.9" stroke="#333" fill="none"/><path d="M510.5 161h-1v-.5h1z" stroke="#333" stroke-width=".05" fill="#333"/><path d="M510 1499.5v.5" stroke="#333" fill="none"/><path d="M1040 100h300v60h-300z" stroke="#333" fill="#fff"/><use xlink:href="#a" transform="matrix(1,0,0,1,1045,105) translate(61.26543209876543 30.27777777777778)"/><use xlink:href="#b" transform="matrix(1,0,0,1,1045,105) translate(158.54938271604937 30.27777777777778)"/><path d="M700 100h300v60H700z" stroke="#333" fill="#fff"/><use xlink:href="#a" transform="matrix(1,0,0,1,705,105) translate(73.5493827160494 30.27777777777778)"/><use xlink:href="#c" transform="matrix(1,0,0,1,705,105) translate(170.83333333333334 30.27777777777778)"/><path d="M1165 220h50v1320h-50z" stroke="#333" fill="#fff"/><path d="M1148.12 221.37h-415.7c-.1 0-.17-.07-.17-.17s-.08-.18-.18-.18H300.5" stroke="#333" fill="none"/><path d="M1162.88 221.37l-14.26 4.64v-9.26z" stroke="#333" fill="#333"/><path d="M300.5 221.02h-.5" stroke="#333" fill="none"/><path d="M825 320h50v800h-50z" stroke="#333" fill="#fff"/><path d="M1164 320h-123" stroke="#333" fill="none"/><path d="M1164.5 320.5h-.5v-1h.5zM1041 320.5h-.5v-1h.5z" stroke="#333" stroke-width=".05" fill="#333"/><path d="M824 358.6H551.67" stroke="#333" fill="none"/><path d="M824.5 359.1h-.5v-1h.5z" stroke="#333" stroke-width=".05" fill="#333"/><path d="M537.86 359.47l13.95-5.52.6 9.26z" stroke="#333" fill="#333"/><path d="M536.75 1079.4h271.37" stroke="#333" fill="none"/><path d="M536.76 1079.9h-.5v-1h.5z" stroke="#333" stroke-width=".05" fill="#333"/><path d="M822.88 1079.4l-14.26 4.65v-9.27z" stroke="#333" fill="#333"/><path d="M876 1120h123" stroke="#333" fill="none"/><path d="M875.5 1119.5h.5v1h-.5zM999.5 1120.5h-.5v-1h.5z" stroke="#333" stroke-width=".05" fill="#333"/><path d="M205.75 266c0-3.3 2.7-6 6-6h268c3.3 0 6 2.7 6 6v28.67c0 3.3-2.7 6-6 6h-268c-3.3 0-6-2.7-6-6z" stroke="#000" stroke-opacity="0" stroke-width="3" fill="#fff" fill-opacity="0"/><use xlink:href="#d" transform="matrix(1,0,0,1,210.75,265) translate(11.111111111111114 19.71527777777778)"/><use xlink:href="#e" transform="matrix(1,0,0,1,210.75,265) translate(64.1358024691358 19.71527777777778)"/><use xlink:href="#f" transform="matrix(1,0,0,1,210.75,265) translate(161.41975308641975 19.71527777777778)"/><path d="M535.75 360v720h-50V360z" stroke="#333" fill="#141414"/><path d="M1000 300h40v40h-40z" stroke="#141414" fill="#fff"/><path d="M930 366c0-3.3 2.7-6 6-6h168c3.3 0 6 2.7 6 6v28c0 3.3-2.7 6-6 6H936c-3.3 0-6-2.7-6-6z" stroke="#000" stroke-opacity="0" stroke-width="3" fill="#fff" fill-opacity="0"/><use xlink:href="#g" transform="matrix(1,0,0,1,935,365.0000000000001) translate(13.333333333333343 19.71527777777778)"/><use xlink:href="#h" transform="matrix(1,0,0,1,935,365.0000000000001) translate(110.61728395061729 19.71527777777778)"/><path d="M1020 359.5V341" stroke="#333" fill="none"/><path d="M1020.5 360h-1v-.5h1zM1020.5 341h-1v-.5h1z" stroke="#333" stroke-width=".05" fill="#333"/><path d="M1000 1100h40v40h-40z" stroke="#141414" fill="#fff"/><path d="M900 1157.67c0-3.32 2.7-6 6-6h228c3.3 0 6 2.68 6 6v104.66c0 3.32-2.7 6-6 6H906c-3.3 0-6-2.68-6-6z" stroke="#000" stroke-opacity="0" stroke-width="3" fill="#fff" fill-opacity="0"/><use xlink:href="#i" transform="matrix(1,0,0,1,905,1156.6666666666667) translate(21.944444444444443 31.15277777777778)"/><use xlink:href="#j" transform="matrix(1,0,0,1,905,1156.6666666666667) translate(116.94444444444444 31.15277777777778)"/><use xlink:href="#k" transform="matrix(1,0,0,1,905,1156.6666666666667) translate(35.27777777777777 57.81944444444445)"/><use xlink:href="#l" transform="matrix(1,0,0,1,905,1156.6666666666667) translate(87.5 57.81944444444445)"/><use xlink:href="#m" transform="matrix(1,0,0,1,905,1156.6666666666667) translate(60.123456790123456 84.48611111111111)"/><use xlink:href="#n" transform="matrix(1,0,0,1,905,1156.6666666666667) translate(103.27160493827161 84.48611111111111)"/><use xlink:href="#o" transform="matrix(1,0,0,1,905,1156.6666666666667) translate(139.07407407407408 84.48611111111111)"/><path d="M1020 1151.17V1141" stroke="#333" fill="none"/><path d="M1020.5 1151.67h-1v-.52h1zM1020.5 1141h-1v-.5h1z" stroke="#333" stroke-width=".05" fill="#333"/><path d="M360 100h300v60H360z" stroke="#333" fill="#fff"/><use xlink:href="#p" transform="matrix(1,0,0,1,365,105) translate(92.99382716049382 30.27777777777778)"/><use xlink:href="#q" transform="matrix(1,0,0,1,365,105) translate(143.98148148148147 30.27777777777778)"/><path d="M580 306c0-3.3 2.7-6 6-6h188.75c3.3 0 6 2.7 6 6v28c0 3.3-2.7 6-6 6H586c-3.3 0-6-2.7-6-6z" stroke="#000" stroke-opacity="0" stroke-width="3" fill="#fff" fill-opacity="0"/><use xlink:href="#r" transform="matrix(1,0,0,1,585,304.99999999999994) translate(33.27777777777777 19.71527777777778)"/><use xlink:href="#s" transform="matrix(1,0,0,1,585,304.99999999999994) translate(124.51234567901234 19.71527777777778)"/><path d="M582.08 1106c0-3.3 2.7-6 6-6h186.67c3.3 0 6 2.7 6 6v28c0 3.3-2.7 6-6 6H588.08c-3.3 0-6-2.7-6-6z" stroke="#000" stroke-opacity="0" stroke-width="3" fill="#fff" fill-opacity="0"/><use xlink:href="#t" transform="matrix(1,0,0,1,587.0833333333333,1105) translate(67.61728395061729 19.71527777777778)"/><path d="M520.5 420h287.62M520.5 420h-.5" stroke="#333" fill="none"/><path d="M822.88 420l-14.26 4.64v-9.28z" stroke="#333" fill="#333"/><path d="M876 438.25h38c3.3 0 6 2.7 6 6v69.65c0 3.3-2.7 6-6 6h-22.12" stroke="#333" fill="none"/><path d="M876 438.75h-.5v-1h.5z" stroke="#333" stroke-width=".05" fill="#333"/><path d="M877.12 519.9l14.26-4.64v9.27z" stroke="#333" fill="#333"/><path d="M824 539.93H552.63" stroke="#333" fill="none"/><path d="M824.5 540.43h-.5v-1h.5z" stroke="#333" stroke-width=".05" fill="#333"/><path d="M537.87 539.93l14.26-4.64v9.27z" stroke="#333" fill="#333"/><path d="M536.75 660.85h271.37" stroke="#333" fill="none"/><path d="M536.76 661.35h-.5v-1h.5z" stroke="#333" stroke-width=".05" fill="#333"/><path d="M822.88 660.85l-14.26 4.63v-9.27z" stroke="#333" fill="#333"/><path d="M824 781.16H552.63" stroke="#333" fill="none"/><path d="M824.5 781.66h-.5v-1h.5z" stroke="#333" stroke-width=".05" fill="#333"/><path d="M537.87 781.16l14.26-4.63v9.27z" stroke="#333" fill="#333"/><path d="M535.5 900h272.12M535.5 900h-.5" stroke="#333" fill="none"/><path d="M822.38 900l-14.26 4.64v-9.28z" stroke="#333" fill="#333"/><path d="M824 1020H552.63" stroke="#333" fill="none"/><path d="M824.5 1020.5h-.5v-1h.5z" stroke="#333" stroke-width=".05" fill="#333"/><path d="M537.87 1020l14.26-4.63v9.27z" stroke="#333" fill="#333"/><path d="M999 320H891.88" stroke="#333" fill="none"/><path d="M999.5 320.5h-.5v-1h.5z" stroke="#333" stroke-width=".05" fill="#333"/><path d="M877.12 320l14.26-4.64v9.28z" stroke="#333" fill="#333"/><path d="M345.75 259.5v-18.98s-.02 0-.02-.02v-18.98" stroke="#333" fill="none"/><path d="M346.25 260h-1v-.5h1z" stroke="#333" stroke-width=".05" fill="#333"/><path d="M345.73 221.53v-.5M876 680.34h38c3.3 0 6 2.7 6 6v69.64c0 3.32-2.7 6-6 6h-22.12" stroke="#333" fill="none"/><path d="M876 680.84h-.5v-1h.5z" stroke="#333" stroke-width=".05" fill="#333"/><path d="M877.12 761.98l14.26-4.63v9.27z" stroke="#333" fill="#333"/><path d="M876 921.86h38c3.3 0 6 2.7 6 6v67.38c0 3.3-2.7 6-6 6h-22.12" stroke="#333" fill="none"/><path d="M876 922.36h-.5v-1h.5z" stroke="#333" stroke-width=".05" fill="#333"/><path d="M877.12 1001.24l14.26-4.64v9.27z" stroke="#333" fill="#333"/><path d="M1041 1120h107.12" stroke="#333" fill="none"/><path d="M1041 1120.5h-.5v-1h.5z" stroke="#333" stroke-width=".05" fill="#333"/><path d="M1162.88 1120l-14.26 4.64v-9.28z" stroke="#333" fill="#333"/><path d="M590 446c0-3.3 2.7-6 6-6h168c3.3 0 6 2.7 6 6v28c0 3.3-2.7 6-6 6H596c-3.3 0-6-2.7-6-6z" stroke="#000" stroke-opacity="0" stroke-width="3" fill="#fff" fill-opacity="0"/><use xlink:href="#u" transform="matrix(1,0,0,1,595,445) translate(19.0432098765432 19.71527777777778)"/><use xlink:href="#v" transform="matrix(1,0,0,1,595,445) translate(127.5 19.71527777777778)"/><path d="M590 686c0-3.3 2.7-6 6-6h168c3.3 0 6 2.7 6 6v28c0 3.3-2.7 6-6 6H596c-3.3 0-6-2.7-6-6z" stroke="#000" stroke-opacity="0" stroke-width="3" fill="#fff" fill-opacity="0"/><use xlink:href="#u" transform="matrix(1,0,0,1,595,685) translate(19.0432098765432 19.71527777777778)"/><use xlink:href="#w" transform="matrix(1,0,0,1,595,685) translate(127.5 19.71527777777778)"/><path d="M940 466c0-3.3 2.7-6 6-6h108c3.3 0 6 2.7 6 6v28c0 3.3-2.7 6-6 6H946c-3.3 0-6-2.7-6-6z" stroke="#000" stroke-opacity="0" stroke-width="3" fill="#fff" fill-opacity="0"/><use xlink:href="#x" transform="matrix(1,0,0,1,945,465) translate(14.876543209876544 19.71527777777778)"/><use xlink:href="#v" transform="matrix(1,0,0,1,945,465) translate(71.66666666666667 19.71527777777778)"/><path d="M940 716.67c0-3.32 2.7-6 6-6h108c3.3 0 6 2.68 6 6v28c0 3.3-2.7 6-6 6H946c-3.3 0-6-2.7-6-6z" stroke="#000" stroke-opacity="0" stroke-width="3" fill="#fff" fill-opacity="0"/><use xlink:href="#x" transform="matrix(1,0,0,1,945,715.6666666666666) translate(14.876543209876544 19.71527777777778)"/><use xlink:href="#w" transform="matrix(1,0,0,1,945,715.6666666666666) translate(71.66666666666667 19.71527777777778)"/><path d="M940 946c0-3.3 2.7-6 6-6h108c3.3 0 6 2.7 6 6v28c0 3.3-2.7 6-6 6H946c-3.3 0-6-2.7-6-6z" stroke="#000" stroke-opacity="0" stroke-width="3" fill="#fff" fill-opacity="0"/><use xlink:href="#x" transform="matrix(1,0,0,1,945,945) translate(14.876543209876544 19.71527777777778)"/><use xlink:href="#y" transform="matrix(1,0,0,1,945,945) translate(71.66666666666667 19.71527777777778)"/><path d="M590 926c0-3.3 2.7-6 6-6h168c3.3 0 6 2.7 6 6v28c0 3.3-2.7 6-6 6H596c-3.3 0-6-2.7-6-6z" stroke="#000" stroke-opacity="0" stroke-width="3" fill="#fff" fill-opacity="0"/><use xlink:href="#u" transform="matrix(1,0,0,1,595,925) translate(19.0432098765432 19.71527777777778)"/><use xlink:href="#y" transform="matrix(1,0,0,1,595,925) translate(127.5 19.71527777777778)"/><path d="M590 486c0-3.3 2.7-6 6-6h168c3.3 0 6 2.7 6 6v28c0 3.3-2.7 6-6 6H596c-3.3 0-6-2.7-6-6z" stroke="#000" stroke-opacity="0" stroke-width="3" fill="#fff" fill-opacity="0"/><use xlink:href="#z" transform="matrix(1,0,0,1,595,484.99999999999994) translate(21.728395061728392 19.71527777777778)"/><use xlink:href="#A" transform="matrix(1,0,0,1,595,484.99999999999994) translate(123.58024691358025 19.71527777777778)"/><path d="M590.38 726c0-3.3 2.68-6 6-6h168c3.3 0 6 2.7 6 6v28c0 3.3-2.7 6-6 6h-168c-3.32 0-6-2.7-6-6z" stroke="#000" stroke-opacity="0" stroke-width="3" fill="#fff" fill-opacity="0"/><use xlink:href="#z" transform="matrix(1,0,0,1,595.375,725) translate(21.728395061728392 19.71527777777778)"/><use xlink:href="#A" transform="matrix(1,0,0,1,595.375,725) translate(123.58024691358025 19.71527777777778)"/><path d="M590.38 966c0-3.3 2.68-6 6-6h168c3.3 0 6 2.7 6 6v28c0 3.3-2.7 6-6 6h-168c-3.32 0-6-2.7-6-6z" stroke="#000" stroke-opacity="0" stroke-width="3" fill="#fff" fill-opacity="0"/><use xlink:href="#z" transform="matrix(1,0,0,1,595.375,965) translate(21.728395061728392 19.71527777777778)"/><use xlink:href="#A" transform="matrix(1,0,0,1,595.375,965) translate(123.58024691358025 19.71527777777778)"/><path d="M680 439.5v-19" stroke="#333" fill="none"/><path d="M680.5 440h-1v-.5h1z" stroke="#333" stroke-width=".05" fill="#333"/><path d="M680 420.5v-.5M680 520.5v19" stroke="#333" fill="none"/><path d="M680.5 520.5h-1v-.5h1z" stroke="#333" stroke-width=".05" fill="#333"/><path d="M680 539.5v.5M680.38 340.5v17.6" stroke="#333" fill="none"/><path d="M680.88 340.5h-1v-.5h1z" stroke="#333" stroke-width=".05" fill="#333"/><path d="M680.38 358.1v.5M939.5 480h-19" stroke="#333" fill="none"/><path d="M940 480.5h-.5v-1h.5z" stroke="#333" stroke-width=".05" fill="#333"/><path d="M920.5 480h-.5M939.5 730.67h-19" stroke="#333" fill="none"/><path d="M940 731.17h-.5v-1h.5z" stroke="#333" stroke-width=".05" fill="#333"/><path d="M920.5 730.67h-.5M939.5 960h-19" stroke="#333" fill="none"/><path d="M940 960.5h-.5v-1h.5z" stroke="#333" stroke-width=".05" fill="#333"/><path d="M920.5 960h-.5M680 679.5v-18.15" stroke="#333" fill="none"/><path d="M680.5 680h-1v-.5h1z" stroke="#333" stroke-width=".05" fill="#333"/><path d="M680 661.36v-.5M680.38 760.5v20.16" stroke="#333" fill="none"/><path d="M680.88 760.5h-1v-.5h1z" stroke="#333" stroke-width=".05" fill="#333"/><path d="M680.38 780.65v.5M680 919.5v-19" stroke="#333" fill="none"/><path d="M680.5 920h-1v-.5h1z" stroke="#333" stroke-width=".05" fill="#333"/><path d="M680 900.5v-.5M680.38 1000.5v19" stroke="#333" fill="none"/><path d="M680.88 1000.5h-1v-.5h1z" stroke="#333" stroke-width=".05" fill="#333"/><path d="M680.38 1019.5v.5M1216 1178.17h38c3.3 0 6 2.7 6 6v70.43c0 3.3-2.7 6-6 6h-22.12" stroke="#333" fill="none"/><path d="M1216 1178.67h-.5v-1h.5z" stroke="#333" stroke-width=".05" fill="#333"/><path d="M1217.12 1260.6l14.26-4.64v9.27z" stroke="#333" fill="#333"/><path d="M1216 1299.8h38c3.3 0 6 2.68 6 6v66.96c0 3.32-2.7 6-6 6h-22.12" stroke="#333" fill="none"/><path d="M1216 1300.3h-.5v-1h.5z" stroke="#333" stroke-width=".05" fill="#333"/><path d="M1217.12 1378.76l14.26-4.63v9.27z" stroke="#333" fill="#333"/><path d="M1216 1419.7h38c3.3 0 6 2.67 6 6v68.68c0 3.32-2.7 6-6 6h-22.12" stroke="#333" fill="none"/><path d="M1216 1420.2h-.5v-1h.5z" stroke="#333" stroke-width=".05" fill="#333"/><path d="M1217.12 1500.38l14.26-4.63v9.27z" stroke="#333" fill="#333"/><path d="M1280 1181c0-3.3 2.7-6 6-6h188c3.3 0 6 2.7 6 6v78c0 3.3-2.7 6-6 6h-188c-3.3 0-6-2.7-6-6z" stroke="#000" stroke-opacity="0" stroke-width="3" fill="#fff" fill-opacity="0"/><g><use xlink:href="#B" transform="matrix(1,0,0,1,1285,1180) translate(1.882716049382708 17.77777777777778)"/><use xlink:href="#C" transform="matrix(1,0,0,1,1285,1180) translate(47.56172839506172 17.77777777777778)"/><use xlink:href="#D" transform="matrix(1,0,0,1,1285,1180) translate(23.425925925925924 44.44444444444444)"/><use xlink:href="#E" transform="matrix(1,0,0,1,1285,1180) translate(86.38888888888889 44.44444444444444)"/><use xlink:href="#F" transform="matrix(1,0,0,1,1285,1180) translate(118.42592592592592 44.44444444444444)"/><use xlink:href="#G" transform="matrix(1,0,0,1,1285,1180) translate(148.05555555555554 44.44444444444444)"/><use xlink:href="#H" transform="matrix(1,0,0,1,1285,1180) translate(60.5246913580247 71.11111111111111)"/></g><path d="M1280 1306c0-3.3 2.7-6 6-6h188c3.3 0 6 2.7 6 6v78c0 3.3-2.7 6-6 6h-188c-3.3 0-6-2.7-6-6z" stroke="#000" stroke-opacity="0" stroke-width="3" fill="#fff" fill-opacity="0"/><g><use xlink:href="#B" transform="matrix(1,0,0,1,1285,1305) translate(1.882716049382708 17.77777777777778)"/><use xlink:href="#C" transform="matrix(1,0,0,1,1285,1305) translate(47.56172839506172 17.77777777777778)"/><use xlink:href="#D" transform="matrix(1,0,0,1,1285,1305) translate(23.425925925925924 44.44444444444444)"/><use xlink:href="#E" transform="matrix(1,0,0,1,1285,1305) translate(86.38888888888889 44.44444444444444)"/><use xlink:href="#I" transform="matrix(1,0,0,1,1285,1305) translate(118.42592592592592 44.44444444444444)"/><use xlink:href="#G" transform="matrix(1,0,0,1,1285,1305) translate(148.05555555555554 44.44444444444444)"/><use xlink:href="#H" transform="matrix(1,0,0,1,1285,1305) translate(60.5246913580247 71.11111111111111)"/></g><path d="M1280 1426c0-3.3 2.7-6 6-6h188c3.3 0 6 2.7 6 6v78c0 3.3-2.7 6-6 6h-188c-3.3 0-6-2.7-6-6z" stroke="#000" stroke-opacity="0" stroke-width="3" fill="#fff" fill-opacity="0"/><g><use xlink:href="#B" transform="matrix(1,0,0,1,1285,1425) translate(1.882716049382708 17.77777777777778)"/><use xlink:href="#C" transform="matrix(1,0,0,1,1285,1425) translate(47.56172839506172 17.77777777777778)"/><use xlink:href="#D" transform="matrix(1,0,0,1,1285,1425) translate(23.425925925925924 44.44444444444444)"/><use xlink:href="#E" transform="matrix(1,0,0,1,1285,1425) translate(86.38888888888889 44.44444444444444)"/><use xlink:href="#J" transform="matrix(1,0,0,1,1285,1425) translate(118.42592592592592 44.44444444444444)"/><use xlink:href="#G" transform="matrix(1,0,0,1,1285,1425) translate(148.05555555555554 44.44444444444444)"/><use xlink:href="#H" transform="matrix(1,0,0,1,1285,1425) translate(60.5246913580247 71.11111111111111)"/></g><path d="M1279.5 1220h-19" stroke="#333" fill="none"/><path d="M1280 1220.5h-.5v-1h.5z" stroke="#333" stroke-width=".05" fill="#333"/><path d="M1260.5 1220h-.5M1279.5 1345h-19" stroke="#333" fill="none"/><path d="M1280 1345.5h-.5v-1h.5z" stroke="#333" stroke-width=".05" fill="#333"/><path d="M1260.5 1345h-.5M1279.5 1465h-19" stroke="#333" fill="none"/><path d="M1280 1465.5h-.5v-1h.5z" stroke="#333" stroke-width=".05" fill="#333"/><path d="M1260.5 1465h-.5" stroke="#333" fill="none"/><defs><path fill="#333" d="M127-220V0H93v-220H8v-28h204v28h-85" id="K"/><path fill="#333" d="M100-194c63 0 86 42 84 106H49c0 40 14 67 53 68 26 1 43-12 49-29l28 8c-11 28-37 45-77 45C44 4 14-33 15-96c1-61 26-98 85-98zm52 81c6-60-76-77-97-28-3 7-6 17-6 28h103" id="L"/><path fill="#333" d="M210-169c-67 3-38 105-44 169h-31v-121c0-29-5-50-35-48C34-165 62-65 56 0H25l-1-190h30c1 10-1 24 2 32 10-44 99-50 107 0 11-21 27-35 58-36 85-2 47 119 55 194h-31v-121c0-29-5-49-35-48" id="M"/><path fill="#333" d="M115-194c55 1 70 41 70 98S169 2 115 4C84 4 66-9 55-30l1 105H24l-1-265h31l2 30c10-21 28-34 59-34zm-8 174c40 0 45-34 45-75s-6-73-45-74c-42 0-51 32-51 76 0 43 10 73 51 73" id="N"/><path fill="#333" d="M100-194c62-1 85 37 85 99 1 63-27 99-86 99S16-35 15-95c0-66 28-99 85-99zM99-20c44 1 53-31 53-75 0-43-8-75-51-75s-53 32-53 75 10 74 51 75" id="O"/><path fill="#333" d="M114-163C36-179 61-72 57 0H25l-1-190h30c1 12-1 29 2 39 6-27 23-49 58-41v29" id="P"/><path fill="#333" d="M141-36C126-15 110 5 73 4 37 3 15-17 15-53c-1-64 63-63 125-63 3-35-9-54-41-54-24 1-41 7-42 31l-33-3c5-37 33-52 76-52 45 0 72 20 72 64v82c-1 20 7 32 28 27v20c-31 9-61-2-59-35zM48-53c0 20 12 33 32 33 41-3 63-29 60-74-43 2-92-5-92 41" id="Q"/><path fill="#333" d="M24 0v-261h32V0H24" id="R"/><g id="a"><use transform="matrix(0.06172839506172839,0,0,0.06172839506172839,0,0)" xlink:href="#K"/><use transform="matrix(0.06172839506172839,0,0,0.06172839506172839,11.049382716049381,0)" xlink:href="#L"/><use transform="matrix(0.06172839506172839,0,0,0.06172839506172839,23.39506172839506,0)" xlink:href="#M"/><use transform="matrix(0.06172839506172839,0,0,0.06172839506172839,41.85185185185185,0)" xlink:href="#N"/><use transform="matrix(0.06172839506172839,0,0,0.06172839506172839,54.197530864197525,0)" xlink:href="#O"/><use transform="matrix(0.06172839506172839,0,0,0.06172839506172839,66.5432098765432,0)" xlink:href="#P"/><use transform="matrix(0.06172839506172839,0,0,0.06172839506172839,73.88888888888889,0)" xlink:href="#Q"/><use transform="matrix(0.06172839506172839,0,0,0.06172839506172839,86.23456790123457,0)" xlink:href="#R"/></g><path fill="#333" d="M212-179c-10-28-35-45-73-45-59 0-87 40-87 99 0 60 29 101 89 101 43 0 62-24 78-52l27 14C228-24 195 4 139 4 59 4 22-46 18-125c-6-104 99-153 187-111 19 9 31 26 39 46" id="S"/><path fill="#333" d="M84 4C-5 8 30-112 23-190h32v120c0 31 7 50 39 49 72-2 45-101 50-169h31l1 190h-30c-1-10 1-25-2-33-11 22-28 36-60 37" id="T"/><path fill="#333" d="M135-143c-3-34-86-38-87 0 15 53 115 12 119 90S17 21 10-45l28-5c4 36 97 45 98 0-10-56-113-15-118-90-4-57 82-63 122-42 12 7 21 19 24 35" id="U"/><path fill="#333" d="M59-47c-2 24 18 29 38 22v24C64 9 27 4 27-40v-127H5v-23h24l9-43h21v43h35v23H59v120" id="V"/><g id="b"><use transform="matrix(0.06172839506172839,0,0,0.06172839506172839,0,0)" xlink:href="#S"/><use transform="matrix(0.06172839506172839,0,0,0.06172839506172839,15.987654320987653,0)" xlink:href="#R"/><use transform="matrix(0.06172839506172839,0,0,0.06172839506172839,20.864197530864196,0)" xlink:href="#T"/><use transform="matrix(0.06172839506172839,0,0,0.06172839506172839,33.20987654320987,0)" xlink:href="#U"/><use transform="matrix(0.06172839506172839,0,0,0.06172839506172839,44.32098765432099,0)" xlink:href="#V"/><use transform="matrix(0.06172839506172839,0,0,0.06172839506172839,50.49382716049383,0)" xlink:href="#L"/><use transform="matrix(0.06172839506172839,0,0,0.06172839506172839,62.839506172839506,0)" xlink:href="#P"/></g><path fill="#333" d="M185-189c-5-48-123-54-124 2 14 75 158 14 163 119 3 78-121 87-175 55-17-10-28-26-33-46l33-7c5 56 141 63 141-1 0-78-155-14-162-118-5-82 145-84 179-34 5 7 8 16 11 25" id="W"/><path fill="#333" d="M30-248c118-7 216 8 213 122C240-48 200 0 122 0H30v-248zM63-27c89 8 146-16 146-99s-60-101-146-95v194" id="X"/><path fill="#333" d="M194 0L95-120 63-95V0H30v-248h33v124l119-124h40L117-140 236 0h-42" id="Y"/><g id="c"><use transform="matrix(0.06172839506172839,0,0,0.06172839506172839,0,0)" xlink:href="#W"/><use transform="matrix(0.06172839506172839,0,0,0.06172839506172839,14.814814814814813,0)" xlink:href="#X"/><use transform="matrix(0.06172839506172839,0,0,0.06172839506172839,30.80246913580247,0)" xlink:href="#Y"/></g><path fill="#333" d="M194-120c59 52 2 134-86 124-53-6-90-18-98-63l31-7c8 30 29 43 70 43 46 0 84-17 71-62-32-43-135-20-137-98-3-89 178-90 191-16l-30 9c-8-48-127-53-127 5 0 53 81 35 115 65" id="Z"/><path fill="#333" d="M51-54c-9 22 5 41 31 30L79-1C43 14 10-4 19-52l22-115H19l5-23h22l19-43h21l-9 43h35l-4 23H73" id="aa"/><path fill="#333" d="M165-48c-4 18 1 34 23 27l-3 20c-29 8-62 0-52-35h-2C116-14 99 4 63 4 30 4 8-16 8-49c0-68 71-67 138-67 10-26 0-56-31-54-26 1-42 9-47 31l-32-5c8-67 160-71 144 15-5 28-9 54-15 81zM42-50c3 52 80 24 89-6 7-12 7-24 11-38-47 1-103-4-100 44" id="ab"/><path fill="#333" d="M66-151c12-25 30-51 66-40l-6 26C45-176 58-65 38 0H6l36-190h30" id="ac"/><g id="d"><use transform="matrix(0.06172839506172839,0,0,0.06172839506172839,0,0)" xlink:href="#Z"/><use transform="matrix(0.06172839506172839,0,0,0.06172839506172839,14.814814814814813,0)" xlink:href="#aa"/><use transform="matrix(0.06172839506172839,0,0,0.06172839506172839,20.98765432098765,0)" xlink:href="#ab"/><use transform="matrix(0.06172839506172839,0,0,0.06172839506172839,33.33333333333333,0)" xlink:href="#ac"/><use transform="matrix(0.06172839506172839,0,0,0.06172839506172839,40.679012345679006,0)" xlink:href="#aa"/></g><path fill="#333" d="M247 0h-39l-15-214-24 57L95 0H56L31-248h35L82-30l101-218h33l16 218 101-218h35" id="ad"/><path fill="#333" d="M30-147c31-64 166-65 159 27C183-49 158 1 86 4 9 8 1-88 30-147zM88-20c53 0 68-48 68-100 0-31-11-51-44-50-52 1-68 46-68 97 0 32 13 53 44 53" id="ae"/><path fill="#333" d="M127 0L80-88 50-66 37 0H6l51-261h31L57-100l99-90h39l-93 82L161 0h-34" id="af"/><path fill="#333" d="M76-167L44 0H12l33-167H18l4-23h27c3-47 25-81 82-69l-4 24c-35-8-44 15-46 45h37l-5 23H76" id="ag"/><path fill="#333" d="M6 0l50-261h32L37 0H6" id="ah"/><path fill="#333" d="M188 0h-37l-8-164L71 0H34L18-190h31l8 164 75-164h34l8 164 74-164h31" id="ai"/><g id="e"><use transform="matrix(0.06172839506172839,0,0,0.06172839506172839,0,0)" xlink:href="#ad"/><use transform="matrix(0.06172839506172839,0,0,0.06172839506172839,20.925925925925924,0)" xlink:href="#ae"/><use transform="matrix(0.06172839506172839,0,0,0.06172839506172839,33.2716049382716,0)" xlink:href="#ac"/><use transform="matrix(0.06172839506172839,0,0,0.06172839506172839,40.61728395061728,0)" xlink:href="#af"/><use transform="matrix(0.06172839506172839,0,0,0.06172839506172839,51.72839506172839,0)" xlink:href="#ag"/><use transform="matrix(0.06172839506172839,0,0,0.06172839506172839,57.901234567901234,0)" xlink:href="#ah"/><use transform="matrix(0.06172839506172839,0,0,0.06172839506172839,62.77777777777778,0)" xlink:href="#ae"/><use transform="matrix(0.06172839506172839,0,0,0.06172839506172839,75.12345679012346,0)" xlink:href="#ai"/></g><path fill="#333" d="M11 0l48-248h184l-5 28H87l-15 79h140l-5 27H67L50-27h158l-5 27H11" id="aj"/><path fill="#333" d="M124 0L87-78 21 0h-35l86-98-46-92h33l34 74 61-74h37l-83 92 50 98h-34" id="ak"/><path fill="#333" d="M111-194c62-3 86 47 72 106H45c-7 38 6 69 45 68 27-1 43-14 53-32l24 11C152-15 129 4 87 4 38 3 12-23 12-71c0-70 32-119 99-123zm44 81c14-66-71-72-95-28-4 8-8 17-11 28h106" id="al"/><path fill="#333" d="M44-68c0 29 11 47 38 47 30 0 42-19 51-41l28 9C148-21 126 4 82 4 31 4 10-29 12-85c3-77 74-140 146-93 12 8 15 23 18 40l-31 5c-1-22-13-36-36-36-52 0-65 49-65 101" id="am"/><path fill="#333" d="M67 3c-93-2-31-127-26-193h32L48-50c-3 39 53 32 70 12 30-34 30-101 43-152h32L157 0h-30c1-10 6-24 4-33-14 20-29 37-64 36" id="an"/><path fill="#333" d="M50-231l6-30h32l-6 30H50zM6 0l37-190h31L37 0H6" id="ao"/><path fill="#333" d="M67-158c22-48 132-52 116 29L158 0h-32l25-140c3-38-53-32-70-12C52-117 51-52 38 0H6l36-190h30" id="ap"/><g id="f"><use transform="matrix(0.06172839506172839,0,0,0.06172839506172839,0,0)" xlink:href="#aj"/><use transform="matrix(0.06172839506172839,0,0,0.06172839506172839,14.814814814814813,0)" xlink:href="#ak"/><use transform="matrix(0.06172839506172839,0,0,0.06172839506172839,25.925925925925924,0)" xlink:href="#al"/><use transform="matrix(0.06172839506172839,0,0,0.06172839506172839,38.2716049382716,0)" xlink:href="#am"/><use transform="matrix(0.06172839506172839,0,0,0.06172839506172839,49.38271604938271,0)" xlink:href="#an"/><use transform="matrix(0.06172839506172839,0,0,0.06172839506172839,61.728395061728385,0)" xlink:href="#aa"/><use transform="matrix(0.06172839506172839,0,0,0.06172839506172839,67.90123456790123,0)" xlink:href="#ao"/><use transform="matrix(0.06172839506172839,0,0,0.06172839506172839,72.77777777777777,0)" xlink:href="#ae"/><use transform="matrix(0.06172839506172839,0,0,0.06172839506172839,85.12345679012346,0)" xlink:href="#ap"/></g><g id="g"><use transform="matrix(0.06172839506172839,0,0,0.06172839506172839,0,0)" xlink:href="#ad"/><use transform="matrix(0.06172839506172839,0,0,0.06172839506172839,20.925925925925924,0)" xlink:href="#ae"/><use transform="matrix(0.06172839506172839,0,0,0.06172839506172839,33.2716049382716,0)" xlink:href="#ac"/><use transform="matrix(0.06172839506172839,0,0,0.06172839506172839,40.61728395061728,0)" xlink:href="#af"/><use transform="matrix(0.06172839506172839,0,0,0.06172839506172839,51.72839506172839,0)" xlink:href="#ag"/><use transform="matrix(0.06172839506172839,0,0,0.06172839506172839,57.901234567901234,0)" xlink:href="#ah"/><use transform="matrix(0.06172839506172839,0,0,0.06172839506172839,62.77777777777778,0)" xlink:href="#ae"/><use transform="matrix(0.06172839506172839,0,0,0.06172839506172839,75.12345679012346,0)" xlink:href="#ai"/></g><path fill="#333" d="M151-220L108 0H75l42-220H32l6-28h203l-5 28h-85" id="aq"/><path fill="#333" d="M55-144c13 50 104 24 104 88C159 21 15 23 1-39l26-10c6 40 102 42 102-4-13-50-104-23-104-87 0-71 143-71 148-8l-29 4c-5-35-85-37-89 0" id="ar"/><g id="h"><use transform="matrix(0.06172839506172839,0,0,0.06172839506172839,0,0)" xlink:href="#aq"/><use transform="matrix(0.06172839506172839,0,0,0.06172839506172839,11.481481481481481,0)" xlink:href="#ab"/><use transform="matrix(0.06172839506172839,0,0,0.06172839506172839,23.827160493827158,0)" xlink:href="#ar"/><use transform="matrix(0.06172839506172839,0,0,0.06172839506172839,34.938271604938265,0)" xlink:href="#af"/></g><path fill="#333" d="M249-183c0 48-29 72-75 77L221 0h-36l-43-103H65L45 0H11l48-248c83 2 190-17 190 65zm-34 3c0-55-74-39-127-41l-18 92c63-1 145 13 145-51" id="as"/><path fill="#333" d="M67-162c32-53 139-36 121 50C175-51 163 2 97 4 68 4 52-11 42-31 38 6 28 39 22 75H-9l50-265h29c-1 10 0 20-3 28zm89 36c0-26-10-43-35-43-54 0-67 50-69 103-1 29 14 45 42 46 53 0 62-58 62-106" id="at"/><path fill="#333" d="M133-28C103 26-5 8 13-77c13-62 24-115 90-117 29-1 46 15 56 35l19-102h32L160 0h-30zM45-64c-2 27 10 43 35 43 54-1 69-50 69-103 0-29-15-46-42-46-53-1-58 58-62 106" id="au"/><g id="i"><use transform="matrix(0.06172839506172839,0,0,0.06172839506172839,0,0)" xlink:href="#as"/><use transform="matrix(0.06172839506172839,0,0,0.06172839506172839,15.987654320987653,0)" xlink:href="#al"/><use transform="matrix(0.06172839506172839,0,0,0.06172839506172839,28.333333333333332,0)" xlink:href="#ar"/><use transform="matrix(0.06172839506172839,0,0,0.06172839506172839,39.44444444444444,0)" xlink:href="#at"/><use transform="matrix(0.06172839506172839,0,0,0.06172839506172839,51.79012345679012,0)" xlink:href="#ae"/><use transform="matrix(0.06172839506172839,0,0,0.06172839506172839,64.1358024691358,0)" xlink:href="#ap"/><use transform="matrix(0.06172839506172839,0,0,0.06172839506172839,76.48148148148148,0)" xlink:href="#au"/></g><g id="j"><use transform="matrix(0.06172839506172839,0,0,0.06172839506172839,0,0)" xlink:href="#ad"/><use transform="matrix(0.06172839506172839,0,0,0.06172839506172839,20.925925925925924,0)" xlink:href="#ae"/><use transform="matrix(0.06172839506172839,0,0,0.06172839506172839,33.2716049382716,0)" xlink:href="#ac"/><use transform="matrix(0.06172839506172839,0,0,0.06172839506172839,40.61728395061728,0)" xlink:href="#af"/><use transform="matrix(0.06172839506172839,0,0,0.06172839506172839,51.72839506172839,0)" xlink:href="#ag"/><use transform="matrix(0.06172839506172839,0,0,0.06172839506172839,57.901234567901234,0)" xlink:href="#ah"/><use transform="matrix(0.06172839506172839,0,0,0.06172839506172839,62.77777777777778,0)" xlink:href="#ae"/><use transform="matrix(0.06172839506172839,0,0,0.06172839506172839,75.12345679012346,0)" xlink:href="#ai"/></g><g id="k"><use transform="matrix(0.06172839506172839,0,0,0.06172839506172839,0,0)" xlink:href="#aq"/><use transform="matrix(0.06172839506172839,0,0,0.06172839506172839,11.481481481481481,0)" xlink:href="#ab"/><use transform="matrix(0.06172839506172839,0,0,0.06172839506172839,23.827160493827158,0)" xlink:href="#ar"/><use transform="matrix(0.06172839506172839,0,0,0.06172839506172839,34.938271604938265,0)" xlink:href="#af"/></g><path fill="#333" d="M125-24c46 0 70-25 89-51l25 16C214-24 183 4 123 4 8 4-5-146 60-208c32-50 158-61 191-5 5 7 9 14 11 22l-32 10c-9-28-33-43-69-43-74 0-108 51-108 125 0 46 24 75 72 75" id="av"/><path fill="#333" d="M248-111c6-24 9-61-24-58-72 9-57 108-77 169h-31l26-142c3-37-50-30-64-10C52-115 50-51 37 0H6l36-190h30c-1 10-6 24-4 32 13-43 101-52 105 5 13-22 29-41 61-41 90 0 28 129 23 194h-31" id="aw"/><g id="l"><use transform="matrix(0.06172839506172839,0,0,0.06172839506172839,0,0)" xlink:href="#av"/><use transform="matrix(0.06172839506172839,0,0,0.06172839506172839,15.987654320987653,0)" xlink:href="#ae"/><use transform="matrix(0.06172839506172839,0,0,0.06172839506172839,28.333333333333332,0)" xlink:href="#aw"/><use transform="matrix(0.06172839506172839,0,0,0.06172839506172839,46.79012345679012,0)" xlink:href="#at"/><use transform="matrix(0.06172839506172839,0,0,0.06172839506172839,59.1358024691358,0)" xlink:href="#ah"/><use transform="matrix(0.06172839506172839,0,0,0.06172839506172839,64.01234567901234,0)" xlink:href="#al"/><use transform="matrix(0.06172839506172839,0,0,0.06172839506172839,76.35802469135803,0)" xlink:href="#aa"/><use transform="matrix(0.06172839506172839,0,0,0.06172839506172839,82.53086419753086,0)" xlink:href="#al"/><use transform="matrix(0.06172839506172839,0,0,0.06172839506172839,94.87654320987654,0)" xlink:href="#au"/></g><path fill="#333" d="M17-49c1-102 45-165 103-212h30C92-210 49-145 49-46 49 4 63 43 85 75H54C30 43 18 2 17-49" id="ax"/><path fill="#333" d="M9 0l6-27h63l36-188-63 39 6-31 66-41h29L110-27h60l-5 27H9" id="ay"/><path fill="#333" d="M58-38C53-5 46 26 28 46H7C19 32 27 18 32 0H17l7-38h34" id="az"/><g id="m"><use transform="matrix(0.06172839506172839,0,0,0.06172839506172839,0,0)" xlink:href="#ax"/><use transform="matrix(0.06172839506172839,0,0,0.06172839506172839,7.345679012345679,0)" xlink:href="#am"/><use transform="matrix(0.06172839506172839,0,0,0.06172839506172839,18.45679012345679,0)" xlink:href="#ay"/><use transform="matrix(0.06172839506172839,0,0,0.06172839506172839,30.80246913580247,0)" xlink:href="#az"/></g><path fill="#333" d="M123-251c66 0 92 69 53 113C138-94 73-75 39-27h128l-5 27H-2c17-92 123-93 159-163 14-28-1-64-36-62-29 2-46 17-54 41l-30-6c13-36 37-61 86-61" id="aA"/><g id="n"><use transform="matrix(0.06172839506172839,0,0,0.06172839506172839,0,0)" xlink:href="#am"/><use transform="matrix(0.06172839506172839,0,0,0.06172839506172839,11.11111111111111,0)" xlink:href="#aA"/><use transform="matrix(0.06172839506172839,0,0,0.06172839506172839,23.45679012345679,0)" xlink:href="#az"/></g><path fill="#333" d="M148-71c0-36-31-44-71-41l5-28c46 3 81-6 81-50 0-23-15-35-39-35-30 0-49 17-56 41l-32-3c12-39 42-63 90-64 43 0 69 19 71 60 1 43-30 58-65 66 27 5 49 22 49 53 0 85-133 99-164 35-4-7-7-15-9-22l29-9c8 25 25 45 58 45 34 1 53-17 53-48" id="aB"/><path fill="#333" d="M98-137C97-35 54 29-4 75h-31C23 23 67-41 67-140c0-50-15-89-37-121h31c24 32 36 73 37 124" id="aC"/><g id="o"><use transform="matrix(0.06172839506172839,0,0,0.06172839506172839,0,0)" xlink:href="#am"/><use transform="matrix(0.06172839506172839,0,0,0.06172839506172839,11.11111111111111,0)" xlink:href="#aB"/><use transform="matrix(0.06172839506172839,0,0,0.06172839506172839,23.45679012345679,0)" xlink:href="#aC"/></g><path fill="#333" d="M137-103V0h-34v-103L8-248h37l75 118 75-118h37" id="aD"/><g id="p"><use transform="matrix(0.06172839506172839,0,0,0.06172839506172839,0,0)" xlink:href="#aD"/><use transform="matrix(0.06172839506172839,0,0,0.06172839506172839,12.777777777777777,0)" xlink:href="#O"/><use transform="matrix(0.06172839506172839,0,0,0.06172839506172839,25.123456790123456,0)" xlink:href="#T"/><use transform="matrix(0.06172839506172839,0,0,0.06172839506172839,37.46913580246913,0)" xlink:href="#P"/></g><path fill="#333" d="M85-194c31 0 48 13 60 33l-1-100h32l1 261h-30c-2-10 0-23-3-31C134-8 116 4 85 4 32 4 16-35 15-94c0-66 23-100 70-100zm9 24c-40 0-46 34-46 75 0 40 6 74 45 74 42 0 51-32 51-76 0-42-9-74-50-73" id="aE"/><g id="q"><use transform="matrix(0.06172839506172839,0,0,0.06172839506172839,0,0)" xlink:href="#S"/><use transform="matrix(0.06172839506172839,0,0,0.06172839506172839,15.987654320987653,0)" xlink:href="#O"/><use transform="matrix(0.06172839506172839,0,0,0.06172839506172839,28.333333333333332,0)" xlink:href="#aE"/><use transform="matrix(0.06172839506172839,0,0,0.06172839506172839,40.67901234567901,0)" xlink:href="#L"/></g><path fill="#333" d="M87-220l-18 92h140l-5 28H64L45 0H11l48-248h178l-5 28H87" id="aF"/><g id="r"><use transform="matrix(0.06172839506172839,0,0,0.06172839506172839,0,0)" xlink:href="#aF"/><use transform="matrix(0.06172839506172839,0,0,0.06172839506172839,13.518518518518517,0)" xlink:href="#an"/><use transform="matrix(0.06172839506172839,0,0,0.06172839506172839,25.864197530864196,0)" xlink:href="#ap"/><use transform="matrix(0.06172839506172839,0,0,0.06172839506172839,38.20987654320987,0)" xlink:href="#am"/><use transform="matrix(0.06172839506172839,0,0,0.06172839506172839,49.32098765432099,0)" xlink:href="#aa"/><use transform="matrix(0.06172839506172839,0,0,0.06172839506172839,55.49382716049383,0)" xlink:href="#ao"/><use transform="matrix(0.06172839506172839,0,0,0.06172839506172839,60.370370370370374,0)" xlink:href="#ae"/><use transform="matrix(0.06172839506172839,0,0,0.06172839506172839,72.71604938271605,0)" xlink:href="#ap"/></g><g id="s"><use transform="matrix(0.06172839506172839,0,0,0.06172839506172839,0,0)" xlink:href="#am"/><use transform="matrix(0.06172839506172839,0,0,0.06172839506172839,11.11111111111111,0)" xlink:href="#ab"/><use transform="matrix(0.06172839506172839,0,0,0.06172839506172839,23.45679012345679,0)" xlink:href="#ah"/><use transform="matrix(0.06172839506172839,0,0,0.06172839506172839,28.333333333333336,0)" xlink:href="#ah"/></g><path fill="#333" d="M187 0l-14-72H61L19 0h-37l149-248h38L221 0h-34zm-19-99l-22-123L76-99h92" id="aG"/><g id="t"><use transform="matrix(0.06172839506172839,0,0,0.06172839506172839,0,0)" xlink:href="#aG"/><use transform="matrix(0.06172839506172839,0,0,0.06172839506172839,14.382716049382715,0)" xlink:href="#ai"/><use transform="matrix(0.06172839506172839,0,0,0.06172839506172839,30.370370370370367,0)" xlink:href="#ab"/><use transform="matrix(0.06172839506172839,0,0,0.06172839506172839,42.716049382716044,0)" xlink:href="#ao"/><use transform="matrix(0.06172839506172839,0,0,0.06172839506172839,47.59259259259259,0)" xlink:href="#aa"/></g><g id="u"><use transform="matrix(0.06172839506172839,0,0,0.06172839506172839,0,0)" xlink:href="#av"/><use transform="matrix(0.06172839506172839,0,0,0.06172839506172839,15.987654320987653,0)" xlink:href="#ae"/><use transform="matrix(0.06172839506172839,0,0,0.06172839506172839,28.333333333333332,0)" xlink:href="#aw"/><use transform="matrix(0.06172839506172839,0,0,0.06172839506172839,46.79012345679012,0)" xlink:href="#aw"/><use transform="matrix(0.06172839506172839,0,0,0.06172839506172839,65.24691358024691,0)" xlink:href="#ab"/><use transform="matrix(0.06172839506172839,0,0,0.06172839506172839,77.5925925925926,0)" xlink:href="#ap"/><use transform="matrix(0.06172839506172839,0,0,0.06172839506172839,89.93827160493828,0)" xlink:href="#au"/></g><g id="v"><use transform="matrix(0.06172839506172839,0,0,0.06172839506172839,0,0)" xlink:href="#am"/><use transform="matrix(0.06172839506172839,0,0,0.06172839506172839,11.11111111111111,0)" xlink:href="#ay"/></g><g id="w"><use transform="matrix(0.06172839506172839,0,0,0.06172839506172839,0,0)" xlink:href="#am"/><use transform="matrix(0.06172839506172839,0,0,0.06172839506172839,11.11111111111111,0)" xlink:href="#aA"/></g><path fill="#333" d="M238-179c0 84-86 86-175 82L45 0H11l48-248c82 0 179-12 179 69zm-34 1c0-53-64-42-116-43l-19 98c63 0 135 9 135-55" id="aH"/><path fill="#333" d="M67-158c15-20 31-36 64-36 94 0 33 127 27 194h-32l25-140c3-38-53-32-70-12C52-117 51-51 37 0H6l51-261h31" id="aI"/><g id="x"><use transform="matrix(0.06172839506172839,0,0,0.06172839506172839,0,0)" xlink:href="#aH"/><use transform="matrix(0.06172839506172839,0,0,0.06172839506172839,14.814814814814813,0)" xlink:href="#an"/><use transform="matrix(0.06172839506172839,0,0,0.06172839506172839,27.160493827160494,0)" xlink:href="#ar"/><use transform="matrix(0.06172839506172839,0,0,0.06172839506172839,38.27160493827161,0)" xlink:href="#aI"/></g><g id="y"><use transform="matrix(0.06172839506172839,0,0,0.06172839506172839,0,0)" xlink:href="#am"/><use transform="matrix(0.06172839506172839,0,0,0.06172839506172839,11.11111111111111,0)" xlink:href="#aB"/></g><path fill="#333" d="M68-162c25-46 127-43 121 31C183-60 169 1 98 4 69 5 53-11 43-31L36 0H5l52-261h31zm88 36c2-27-9-43-34-43-55 0-70 51-70 103 0 29 15 45 43 46 52 0 58-58 61-106" id="aJ"/><g id="z"><use transform="matrix(0.06172839506172839,0,0,0.06172839506172839,0,0)" xlink:href="#aG"/><use transform="matrix(0.06172839506172839,0,0,0.06172839506172839,14.382716049382715,0)" xlink:href="#ai"/><use transform="matrix(0.06172839506172839,0,0,0.06172839506172839,30.370370370370367,0)" xlink:href="#ab"/><use transform="matrix(0.06172839506172839,0,0,0.06172839506172839,42.716049382716044,0)" xlink:href="#ao"/><use transform="matrix(0.06172839506172839,0,0,0.06172839506172839,47.59259259259259,0)" xlink:href="#aa"/><use transform="matrix(0.06172839506172839,0,0,0.06172839506172839,53.76543209876543,0)" xlink:href="#ab"/><use transform="matrix(0.06172839506172839,0,0,0.06172839506172839,66.11111111111111,0)" xlink:href="#aJ"/><use transform="matrix(0.06172839506172839,0,0,0.06172839506172839,78.4567901234568,0)" xlink:href="#ah"/><use transform="matrix(0.06172839506172839,0,0,0.06172839506172839,83.33333333333334,0)" xlink:href="#al"/></g><g id="A"><use transform="matrix(0.06172839506172839,0,0,0.06172839506172839,0,0)" xlink:href="#ab"/><use transform="matrix(0.06172839506172839,0,0,0.06172839506172839,12.345679012345679,0)" xlink:href="#ay"/></g><g id="B"><use transform="matrix(0.06172839506172839,0,0,0.06172839506172839,0,0)" xlink:href="#aG"/><use transform="matrix(0.06172839506172839,0,0,0.06172839506172839,14.814814814814813,0)" xlink:href="#au"/><use transform="matrix(0.06172839506172839,0,0,0.06172839506172839,27.160493827160494,0)" xlink:href="#au"/></g><path fill="#333" d="M103-194c29 0 47 14 56 36 2-11 5-23 8-32h30L160-5C157 61 82 97 21 62 9 55 4 45 1 30l28-7c7 42 83 31 92-3 4-16 9-38 13-55-13 20-29 36-62 36-40 0-60-25-60-64 0-71 23-131 91-131zm4 24c-53 0-58 54-61 104-2 27 10 44 36 44 49 0 65-50 67-102 1-29-15-46-42-46" id="aK"/><g id="C"><use transform="matrix(0.06172839506172839,0,0,0.06172839506172839,0,0)" xlink:href="#am"/><use transform="matrix(0.06172839506172839,0,0,0.06172839506172839,11.11111111111111,0)" xlink:href="#ae"/><use transform="matrix(0.06172839506172839,0,0,0.06172839506172839,23.45679012345679,0)" xlink:href="#ac"/><use transform="matrix(0.06172839506172839,0,0,0.06172839506172839,30.80246913580247,0)" xlink:href="#ac"/><use transform="matrix(0.06172839506172839,0,0,0.06172839506172839,38.148148148148145,0)" xlink:href="#al"/><use transform="matrix(0.06172839506172839,0,0,0.06172839506172839,50.49382716049382,0)" xlink:href="#ar"/><use transform="matrix(0.06172839506172839,0,0,0.06172839506172839,61.60493827160494,0)" xlink:href="#at"/><use transform="matrix(0.06172839506172839,0,0,0.06172839506172839,73.95061728395062,0)" xlink:href="#ae"/><use transform="matrix(0.06172839506172839,0,0,0.06172839506172839,86.2962962962963,0)" xlink:href="#ap"/><use transform="matrix(0.06172839506172839,0,0,0.06172839506172839,98.64197530864199,0)" xlink:href="#au"/><use transform="matrix(0.06172839506172839,0,0,0.06172839506172839,110.98765432098767,0)" xlink:href="#ao"/><use transform="matrix(0.06172839506172839,0,0,0.06172839506172839,115.86419753086422,0)" xlink:href="#ap"/><use transform="matrix(0.06172839506172839,0,0,0.06172839506172839,128.2098765432099,0)" xlink:href="#aK"/></g><path fill="#333" d="M89 0H52L20-190h33L74-25l89-165h34" id="aL"/><g id="D"><use transform="matrix(0.06172839506172839,0,0,0.06172839506172839,0,0)" xlink:href="#aj"/><use transform="matrix(0.06172839506172839,0,0,0.06172839506172839,14.814814814814813,0)" xlink:href="#aL"/><use transform="matrix(0.06172839506172839,0,0,0.06172839506172839,25.925925925925924,0)" xlink:href="#al"/><use transform="matrix(0.06172839506172839,0,0,0.06172839506172839,38.2716049382716,0)" xlink:href="#ap"/><use transform="matrix(0.06172839506172839,0,0,0.06172839506172839,50.61728395061728,0)" xlink:href="#aa"/></g><g id="E"><use transform="matrix(0.06172839506172839,0,0,0.06172839506172839,0,0)" xlink:href="#ag"/><use transform="matrix(0.06172839506172839,0,0,0.06172839506172839,6.172839506172839,0)" xlink:href="#ae"/><use transform="matrix(0.06172839506172839,0,0,0.06172839506172839,18.51851851851852,0)" xlink:href="#ac"/></g><g id="F"><use transform="matrix(0.06172839506172839,0,0,0.06172839506172839,0,0)" xlink:href="#am"/><use transform="matrix(0.06172839506172839,0,0,0.06172839506172839,11.11111111111111,0)" xlink:href="#ay"/></g><g id="G"><use transform="matrix(0.06172839506172839,0,0,0.06172839506172839,0,0)" xlink:href="#aa"/><use transform="matrix(0.06172839506172839,0,0,0.06172839506172839,6.172839506172839,0)" xlink:href="#ae"/></g><path fill="#333" d="M179 0l23-115H67L45 0H11l48-248h34L72-143h135l21-105h32L212 0h-33" id="aM"/><path fill="#333" d="M198-190L69 30C53 58 25 83-20 72c4-11-1-27 19-22 33-1 43-29 59-52L20-190h32L79-34l84-156h35" id="aN"/><g id="H"><use transform="matrix(0.06172839506172839,0,0,0.06172839506172839,0,0)" xlink:href="#aM"/><use transform="matrix(0.06172839506172839,0,0,0.06172839506172839,15.987654320987653,0)" xlink:href="#ao"/><use transform="matrix(0.06172839506172839,0,0,0.06172839506172839,20.864197530864196,0)" xlink:href="#ar"/><use transform="matrix(0.06172839506172839,0,0,0.06172839506172839,31.975308641975307,0)" xlink:href="#aa"/><use transform="matrix(0.06172839506172839,0,0,0.06172839506172839,38.148148148148145,0)" xlink:href="#ae"/><use transform="matrix(0.06172839506172839,0,0,0.06172839506172839,50.49382716049382,0)" xlink:href="#ac"/><use transform="matrix(0.06172839506172839,0,0,0.06172839506172839,57.8395061728395,0)" xlink:href="#aN"/></g><g id="I"><use transform="matrix(0.06172839506172839,0,0,0.06172839506172839,0,0)" xlink:href="#am"/><use transform="matrix(0.06172839506172839,0,0,0.06172839506172839,11.11111111111111,0)" xlink:href="#aA"/></g><g id="J"><use transform="matrix(0.06172839506172839,0,0,0.06172839506172839,0,0)" xlink:href="#am"/><use transform="matrix(0.06172839506172839,0,0,0.06172839506172839,11.11111111111111,0)" xlink:href="#aB"/></g></defs></g></svg>