<svg xmlns="http://www.w3.org/2000/svg" xmlns:xlink="http://www.w3.org/1999/xlink" xmlns:lucid="lucid" width="1140" height="866"><g transform="translate(-320 -340)" lucid:page-tab-id="0_0"><path d="M0 0h1870.87v1322.83H0z" fill="#fff"/><path d="M1000 911v2m0 4v3.98m0 4v4m0 3.98v4m0 3.98v4m0 3.98v4m0 3.98v4m0 3.98v4m0 4v3.98m0 4v3.98m0 4v1.98" stroke="#ccc" fill="none"/><path d="M1000.5 911.02h-1v-.6l.5.1.5-.1m0 80.98-.5-.08-.5.07v-.6h1" fill="#ccc"/><path d="M1000 440.4v2m0 4.02v4m0 4v4m0 4.02v4m0 4v4m0 4.02v4m0 4v4m0 4.02v4m0 4v4.02m0 4v4m0 4v4.02m0 4v4m0 4v4.02m0 4v4m0 4v4.02m0 4v4m0 4v4.02m0 4v4m0 4v4.02m0 4v4m0 4.02v4m0 4v4m0 4.02v4m0 4v4m0 4.02v4m0 4v4m0 4.02v4m0 4v4m0 4.02v4m0 4v4.02m0 4v4m0 4v4.02m0 4v4m0 4v4.02m0 4v4m0 4v4.02m0 4v4m0 4v4.02m0 4v4m0 4v4.02m0 4v4m0 4.02v4m0 4v4m0 4.02v4m0 4v4m0 4.02v4m0 4v4m0 4.02v4m0 4v4m0 4.02v4m0 4v4.02m0 4v4m0 4v4.02m0 4v4m0 4V875m0 4v4m0 4v2" stroke="#ccc" fill="none"/><path d="M1000.5 440.42h-1v-.5h1m0 449.64-.5-.06-.5.06v-.58h1" fill="#ccc"/><path d="M1000 1012.84v2.02m0 4.06v4.06m0 4.06v4.06m0 4.05v4.06m0 4.07v4.06m0 4.06v4.04m0 4.06v4.06m0 4.06v4.06m0 4.05v4.06m0 4.05v4.06m0 4.07v4.05m0 4.06v4.06m0 4.06v4.05m0 4.06v4.07m0 4.06v4.06m0 4.04v4.06m0 4.06v4.06m0 4.06v4.05m0 4.06v4.05m0 4.06v4.07m0 4.05v4.06m0 4.06v4.06m0 4.06v4.05m0 4.07v2.03" stroke="#ccc" fill="none"/><path d="m1000 1012.34.5-.08v.6h-1v-.6" fill="#ccc"/><path d="M1000 1199.5v.5" stroke="#ccc" fill="none"/><path d="M1020 500c0 11.05-8.95 20-20 20s-20-8.95-20-20 8.95-20 20-20 20 8.95 20 20zm0 200c0 11.05-8.95 20-20 20s-20-8.95-20-20 8.95-20 20-20 20 8.95 20 20zm0 400c0 11.05-8.95 20-20 20s-20-8.95-20-20 8.95-20 20-20 20 8.95 20 20z" stroke="#333" fill="#fff"/><path d="M660 475.43a6 6 0 0 1 6-6h248a6 6 0 0 1 6 6v49.14a6 6 0 0 1-6 6H666a6 6 0 0 1-6-6z" fill="none"/><use xlink:href="#a" transform="translate(679.63 505.209)"/><path d="M920.46 500H979" stroke="#333" fill="none"/><path d="M920.48 500.5h-.52v-1h.52m59.02.48.02.52H979v-1h.56" fill="#333"/><path d="M660.6 666a6 6 0 0 1 6-6h248a6 6 0 0 1 6 6v68a6 6 0 0 1-6 6h-248a6 6 0 0 1-6-6z" fill="none"/><use xlink:href="#b" transform="translate(696.893 704.965)"/><path d="M921.06 700H979" stroke="#333" fill="none"/><path d="M921.07 700.5h-.5v-1h.5m58.43.48.02.52H979v-1h.56" fill="#333"/><path d="M660 1086a6 6 0 0 1 6-6h248a6 6 0 0 1 6 6v28a6 6 0 0 1-6 6H666a6 6 0 0 1-6-6z" fill="none"/><use xlink:href="#c" transform="translate(678.457 1105.278)"/><path d="M1000 521v142.12" stroke="#333" fill="none"/><path d="m999.98 520.5.52-.02v.53h-1v-.56" fill="#333"/><path d="m1000 677.88-4.64-14.26h9.28z" stroke="#333" fill="#333"/><path d="M920.46 1100H979" stroke="#333" fill="none"/><path d="M920.48 1100.5h-.5l-.02-1h.52m59.02.48.02.52H979v-1h.56" fill="#333"/><path d="M1000 809.18v253.94" stroke="#333" fill="none"/><path d="M1000.5 809.2h-1v-.6l.5.08.5-.08" fill="#333"/><path d="m1000 1077.88-4.64-14.26h9.28z" stroke="#333" fill="#333"/><path d="M1000 721v66.17" stroke="#333" fill="none"/><path d="m999.98 720.5.52-.02v.53h-1v-.56m1 67.28-.5-.06-.5.06v-.58h1" fill="#333"/><path d="M1200 873.83a6 6 0 0 0 6 6h228a6 6 0 0 0 6-6v-48a6 6 0 0 0-6-6h-228a6 6 0 0 0-6 6z" fill="none"/><use xlink:href="#d" transform="translate(1271.296 842.605)"/><use xlink:href="#e" transform="translate(1246.481 869.271)"/><use xlink:href="#f" transform="translate(1331.914 869.271)"/><path d="M1102.5 800h75m-74.94 0H1100m77.44 0h2.56" stroke="#333" stroke-width="5" fill="none"/><path d="M1140 899.5v-99m0 99v.5m0-99.5v-.5" stroke="#333" fill="none"/><path d="M1102.5 900h75m-74.94 0H1100m77.44 0h2.56M542.5 500h75m-74.94 0H540m77.44 0H620m-77.5 600h75m-74.94 0H540m77.44 0H620" stroke="#333" stroke-width="5" fill="none"/><path d="M579.67 1099.5v-599m0 599v.5m0-599.5v-.5" stroke="#333" fill="none"/><path d="M340 773.17a15 15 0 0 1 15-15h170a15 15 0 0 1 15 15v50a15 15 0 0 1-15 15H355a15 15 0 0 1-15-15z" fill="none"/><use xlink:href="#g" transform="translate(353.056 803.136)"/><use xlink:href="#h" transform="translate(429.475 803.136)"/><path d="M1199.54 849.83h-59.04" stroke="#333" fill="none"/><path d="M1200.04 850.33h-.52v-1h.52" fill="#333"/><path d="M1140.5 849.83h-.5m-599.6-51.66h38.77" stroke="#333" fill="none"/><path d="M540.42 798.67h-.5v-1h.5" fill="#333"/><path d="M579.15 798.17h.52" stroke="#333" fill="none"/><path d="M900 375a15 15 0 0 1 15-15h170a15 15 0 0 1 15 15v50a15 15 0 0 1-15 15H915a15 15 0 0 1-15-15z" fill="none"/><use xlink:href="#g" transform="translate(938.981 391.653)"/><use xlink:href="#i" transform="translate(1015.401 391.653)"/><use xlink:href="#h" transform="translate(951.265 418.32)"/><path d="M1010 798.17c0 5.52-4.48 10-10 10s-10-4.48-10-10 4.48-10 10-10 10 4.48 10 10zm0 203.66c0 5.52-4.48 10-10 10s-10-4.48-10-10 4.48-10 10-10 10 4.48 10 10zm0-101.83c0 5.52-4.48 10-10 10s-10-4.48-10-10 4.48-10 10-10 10 4.48 10 10z" stroke="#333" fill="#fff"/><path d="M800 774.17a6 6 0 0 1 6-6h128.3a6 6 0 0 1 6 6v48a6 6 0 0 1-6 6H806a6 6 0 0 1-6-6z" fill="none"/><use xlink:href="#j" transform="translate(821.796 803.699)"/><path d="M799.7 876a6 6 0 0 1 6-6H934a6 6 0 0 1 6 6v48a6 6 0 0 1-6 6H805.7a6 6 0 0 1-6-6z" fill="none"/><use xlink:href="#j" transform="translate(821.498 905.528)"/><path d="M800 977.83a6 6 0 0 1 6-6h128.3a6 6 0 0 1 6 6v48a6 6 0 0 1-6 6H806a6 6 0 0 1-6-6z" fill="none"/><use xlink:href="#j" transform="translate(821.796 1007.357)"/><path d="M940.76 798.17H989" stroke="#333" fill="none"/><path d="M940.77 798.67h-.5v-1h.5m48.73.51.07.5h-.6v-1h.6" fill="#333"/><path d="M940.46 900H989" stroke="#333" fill="none"/><path d="M940.48 900.5h-.52v-1h.52m49.02.5.07.5h-.6v-1h.6" fill="#333"/><path d="M940.76 1001.83H989" stroke="#333" fill="none"/><path d="M940.77 1002.33h-.5v-1h.5m48.73.51.07.5h-.6v-1h.6" fill="#333"/><defs><path fill="#333" d="m205 0-28-72H64L36 0H1l101-248h38L239 0h-34zm-38-99-47-123c-12 45-31 82-46 123h93" id="k"/><path fill="#333" d="M96-169c-40 0-48 33-48 73s9 75 48 75c24 0 41-14 43-38l32 2c-6 37-31 61-74 61-59 0-76-41-82-99-10-93 101-131 147-64 4 7 5 14 7 22l-32 3c-4-21-16-35-41-35" id="l"/><path fill="#333" d="M59-47c-2 24 18 29 38 22v24C64 9 27 4 27-40v-127H5v-23h24l9-43h21v43h35v23H59v120" id="m"/><path fill="#333" d="M24-231v-30h32v30H24zM24 0v-190h32V0H24" id="n"/><path fill="#333" d="M108 0H70L1-190h34L89-25l56-165h34" id="o"/><path fill="#333" d="M179-190 93 31C79 59 56 82 12 73V49c39 6 53-20 64-50L1-190h34L92-34l54-156h33" id="p"/><path fill="#333" d="M127-220V0H93v-220H8v-28h204v28h-85" id="q"/><path fill="#333" d="M141-36C126-15 110 5 73 4 37 3 15-17 15-53c-1-64 63-63 125-63 3-35-9-54-41-54-24 1-41 7-42 31l-33-3c5-37 33-52 76-52 45 0 72 20 72 64v82c-1 20 7 32 28 27v20c-31 9-61-2-59-35zM48-53c0 20 12 33 32 33 41-3 63-29 60-74-43 2-92-5-92 41" id="r"/><path fill="#333" d="M135-143c-3-34-86-38-87 0 15 53 115 12 119 90S17 21 10-45l28-5c4 36 97 45 98 0-10-56-113-15-118-90-4-57 82-63 122-42 12 7 21 19 24 35" id="s"/><path fill="#333" d="M143 0 79-87 56-68V0H24v-261h32v163l83-92h37l-77 82L181 0h-38" id="t"/><path fill="#333" d="M185-189c-5-48-123-54-124 2 14 75 158 14 163 119 3 78-121 87-175 55-17-10-28-26-33-46l33-7c5 56 141 63 141-1 0-78-155-14-162-118-5-82 145-84 179-34 5 7 8 16 11 25" id="u"/><path fill="#333" d="M106-169C34-169 62-67 57 0H25v-261h32l-1 103c12-21 28-36 61-36 89 0 53 116 60 194h-32v-121c2-32-8-49-39-48" id="v"/><path fill="#333" d="M100-194c63 0 86 42 84 106H49c0 40 14 67 53 68 26 1 43-12 49-29l28 8c-11 28-37 45-77 45C44 4 14-33 15-96c1-61 26-98 85-98zm52 81c6-60-76-77-97-28-3 7-6 17-6 28h103" id="w"/><path fill="#333" d="M85-194c31 0 48 13 60 33l-1-100h32l1 261h-30c-2-10 0-23-3-31C134-8 116 4 85 4 32 4 16-35 15-94c0-66 23-100 70-100zm9 24c-40 0-46 34-46 75 0 40 6 74 45 74 42 0 51-32 51-76 0-42-9-74-50-73" id="x"/><path fill="#333" d="M84 4C-5 8 30-112 23-190h32v120c0 31 7 50 39 49 72-2 45-101 50-169h31l1 190h-30c-1-10 1-25-2-33-11 22-28 36-60 37" id="y"/><path fill="#333" d="M24 0v-261h32V0H24" id="z"/><path fill="#333" d="M114-163C36-179 61-72 57 0H25l-1-190h30c1 12-1 29 2 39 6-27 23-49 58-41v29" id="A"/><path fill="#333" d="M212-179c-10-28-35-45-73-45-59 0-87 40-87 99 0 60 29 101 89 101 43 0 62-24 78-52l27 14C228-24 195 4 139 4 59 4 22-46 18-125c-6-104 99-153 187-111 19 9 31 26 39 46" id="B"/><path fill="#333" d="M100-194c62-1 85 37 85 99 1 63-27 99-86 99S16-35 15-95c0-66 28-99 85-99zM99-20c44 1 53-31 53-75 0-43-8-75-51-75s-53 32-53 75 10 74 51 75" id="C"/><path fill="#333" d="M210-169c-67 3-38 105-44 169h-31v-121c0-29-5-50-35-48C34-165 62-65 56 0H25l-1-190h30c1 10-1 24 2 32 10-44 99-50 107 0 11-21 27-35 58-36 85-2 47 119 55 194h-31v-121c0-29-5-49-35-48" id="D"/><path fill="#333" d="M115-194c55 1 70 41 70 98S169 2 115 4C84 4 66-9 55-30l1 105H24l-1-265h31l2 30c10-21 28-34 59-34zm-8 174c40 0 45-34 45-75s-6-73-45-74c-42 0-51 32-51 76 0 43 10 73 51 73" id="E"/><path fill="#333" d="M197 0v-115H63V0H30v-248h33v105h134v-105h34V0h-34" id="F"/><path fill="#333" d="M115-194c53 0 69 39 70 98 0 66-23 100-70 100C84 3 66-7 56-30L54 0H23l1-261h32v101c10-23 28-34 59-34zm-8 174c40 0 45-34 45-75 0-40-5-75-45-74-42 0-51 32-51 76 0 43 10 73 51 73" id="G"/><path fill="#333" d="M30 0v-248h187v28H63v79h144v27H63v87h162V0H30" id="H"/><path fill="#333" d="M141 0 90-78 38 0H4l68-98-65-92h35l48 74 47-74h35l-64 92 68 98h-35" id="I"/><path fill="#333" d="M117-194c89-4 53 116 60 194h-32v-121c0-31-8-49-39-48C34-167 62-67 57 0H25l-1-190h30c1 10-1 24 2 32 11-22 29-35 61-36" id="J"/><g id="a"><use transform="rotate(.413) scale(.06173)" xlink:href="#k"/><use transform="matrix(.06173 0 0 .06173 14.815 0)" xlink:href="#l"/><use transform="matrix(.06173 0 0 .06173 25.926 0)" xlink:href="#m"/><use transform="matrix(.06173 0 0 .06173 32.099 0)" xlink:href="#n"/><use transform="matrix(.06173 0 0 .06173 36.975 0)" xlink:href="#o"/><use transform="matrix(.06173 0 0 .06173 48.086 0)" xlink:href="#n"/><use transform="matrix(.06173 0 0 .06173 52.963 0)" xlink:href="#m"/><use transform="matrix(.06173 0 0 .06173 59.136 0)" xlink:href="#p"/><use transform="matrix(.06173 0 0 .06173 70.247 0)" xlink:href="#q"/><use transform="matrix(.06173 0 0 .06173 81.296 0)" xlink:href="#r"/><use transform="matrix(.06173 0 0 .06173 93.642 0)" xlink:href="#s"/><use transform="matrix(.06173 0 0 .06173 104.753 0)" xlink:href="#t"/><use transform="matrix(.06173 0 0 .06173 115.864 0)" xlink:href="#u"/><use transform="matrix(.06173 0 0 .06173 130.679 0)" xlink:href="#l"/><use transform="matrix(.06173 0 0 .06173 141.79 0)" xlink:href="#v"/><use transform="matrix(.06173 0 0 .06173 154.136 0)" xlink:href="#w"/><use transform="matrix(.06173 0 0 .06173 166.481 0)" xlink:href="#x"/><use transform="matrix(.06173 0 0 .06173 178.827 0)" xlink:href="#y"/><use transform="matrix(.06173 0 0 .06173 191.173 0)" xlink:href="#z"/><use transform="matrix(.06173 0 0 .06173 196.05 0)" xlink:href="#w"/><use transform="matrix(.06173 0 0 .06173 208.395 0)" xlink:href="#x"/></g><g id="b"><use transform="rotate(.413) scale(.06173)" xlink:href="#k"/><use transform="matrix(.06173 0 0 .06173 14.815 0)" xlink:href="#l"/><use transform="matrix(.06173 0 0 .06173 25.926 0)" xlink:href="#m"/><use transform="matrix(.06173 0 0 .06173 32.099 0)" xlink:href="#n"/><use transform="matrix(.06173 0 0 .06173 36.975 0)" xlink:href="#o"/><use transform="matrix(.06173 0 0 .06173 48.086 0)" xlink:href="#n"/><use transform="matrix(.06173 0 0 .06173 52.963 0)" xlink:href="#m"/><use transform="matrix(.06173 0 0 .06173 59.136 0)" xlink:href="#p"/><use transform="matrix(.06173 0 0 .06173 70.247 0)" xlink:href="#q"/><use transform="matrix(.06173 0 0 .06173 81.296 0)" xlink:href="#r"/><use transform="matrix(.06173 0 0 .06173 93.642 0)" xlink:href="#s"/><use transform="matrix(.06173 0 0 .06173 104.753 0)" xlink:href="#t"/><use transform="matrix(.06173 0 0 .06173 115.864 0)" xlink:href="#u"/><use transform="matrix(.06173 0 0 .06173 130.679 0)" xlink:href="#m"/><use transform="matrix(.06173 0 0 .06173 136.852 0)" xlink:href="#r"/><use transform="matrix(.06173 0 0 .06173 149.198 0)" xlink:href="#A"/><use transform="matrix(.06173 0 0 .06173 156.543 0)" xlink:href="#m"/><use transform="matrix(.06173 0 0 .06173 162.716 0)" xlink:href="#w"/><use transform="matrix(.06173 0 0 .06173 175.062 0)" xlink:href="#x"/></g><g id="c"><use transform="rotate(.413) scale(.06173)" xlink:href="#k"/><use transform="matrix(.06173 0 0 .06173 14.815 0)" xlink:href="#l"/><use transform="matrix(.06173 0 0 .06173 25.926 0)" xlink:href="#m"/><use transform="matrix(.06173 0 0 .06173 32.099 0)" xlink:href="#n"/><use transform="matrix(.06173 0 0 .06173 36.975 0)" xlink:href="#o"/><use transform="matrix(.06173 0 0 .06173 48.086 0)" xlink:href="#n"/><use transform="matrix(.06173 0 0 .06173 52.963 0)" xlink:href="#m"/><use transform="matrix(.06173 0 0 .06173 59.136 0)" xlink:href="#p"/><use transform="matrix(.06173 0 0 .06173 70.247 0)" xlink:href="#q"/><use transform="matrix(.06173 0 0 .06173 81.296 0)" xlink:href="#r"/><use transform="matrix(.06173 0 0 .06173 93.642 0)" xlink:href="#s"/><use transform="matrix(.06173 0 0 .06173 104.753 0)" xlink:href="#t"/><use transform="matrix(.06173 0 0 .06173 115.864 0)" xlink:href="#B"/><use transform="matrix(.06173 0 0 .06173 131.852 0)" xlink:href="#C"/><use transform="matrix(.06173 0 0 .06173 144.198 0)" xlink:href="#D"/><use transform="matrix(.06173 0 0 .06173 162.654 0)" xlink:href="#E"/><use transform="matrix(.06173 0 0 .06173 175 0)" xlink:href="#z"/><use transform="matrix(.06173 0 0 .06173 179.877 0)" xlink:href="#w"/><use transform="matrix(.06173 0 0 .06173 192.222 0)" xlink:href="#m"/><use transform="matrix(.06173 0 0 .06173 198.395 0)" xlink:href="#w"/><use transform="matrix(.06173 0 0 .06173 210.74 0)" xlink:href="#x"/></g><g id="d"><use transform="rotate(.413) scale(.06173)" xlink:href="#F"/><use transform="matrix(.06173 0 0 .06173 15.988 0)" xlink:href="#w"/><use transform="matrix(.06173 0 0 .06173 28.333 0)" xlink:href="#r"/><use transform="matrix(.06173 0 0 .06173 40.679 0)" xlink:href="#A"/><use transform="matrix(.06173 0 0 .06173 48.025 0)" xlink:href="#m"/><use transform="matrix(.06173 0 0 .06173 54.198 0)" xlink:href="#G"/><use transform="matrix(.06173 0 0 .06173 66.543 0)" xlink:href="#w"/><use transform="matrix(.06173 0 0 .06173 78.889 0)" xlink:href="#r"/><use transform="matrix(.06173 0 0 .06173 91.235 0)" xlink:href="#m"/></g><g id="e"><use transform="rotate(.413) scale(.06173)" xlink:href="#q"/><use transform="matrix(.06173 0 0 .06173 12.716 0)" xlink:href="#n"/><use transform="matrix(.06173 0 0 .06173 17.593 0)" xlink:href="#D"/><use transform="matrix(.06173 0 0 .06173 36.05 0)" xlink:href="#w"/><use transform="matrix(.06173 0 0 .06173 48.395 0)" xlink:href="#C"/><use transform="matrix(.06173 0 0 .06173 60.74 0)" xlink:href="#y"/><use transform="matrix(.06173 0 0 .06173 73.086 0)" xlink:href="#m"/></g><g id="f"><use transform="rotate(.413) scale(.06173)" xlink:href="#E"/><use transform="matrix(.06173 0 0 .06173 12.346 0)" xlink:href="#w"/><use transform="matrix(.06173 0 0 .06173 24.691 0)" xlink:href="#A"/><use transform="matrix(.06173 0 0 .06173 32.037 0)" xlink:href="#n"/><use transform="matrix(.06173 0 0 .06173 36.914 0)" xlink:href="#C"/><use transform="matrix(.06173 0 0 .06173 49.26 0)" xlink:href="#x"/></g><g id="g"><use transform="rotate(.413) scale(.06173)" xlink:href="#k"/><use transform="matrix(.06173 0 0 .06173 14.815 0)" xlink:href="#l"/><use transform="matrix(.06173 0 0 .06173 25.926 0)" xlink:href="#m"/><use transform="matrix(.06173 0 0 .06173 32.099 0)" xlink:href="#n"/><use transform="matrix(.06173 0 0 .06173 36.975 0)" xlink:href="#o"/><use transform="matrix(.06173 0 0 .06173 48.086 0)" xlink:href="#n"/><use transform="matrix(.06173 0 0 .06173 52.963 0)" xlink:href="#m"/><use transform="matrix(.06173 0 0 .06173 59.136 0)" xlink:href="#p"/></g><g id="h"><use transform="rotate(.413) scale(.06173)" xlink:href="#H"/><use transform="matrix(.06173 0 0 .06173 14.815 0)" xlink:href="#I"/><use transform="matrix(.06173 0 0 .06173 25.926 0)" xlink:href="#w"/><use transform="matrix(.06173 0 0 .06173 38.272 0)" xlink:href="#l"/><use transform="matrix(.06173 0 0 .06173 49.383 0)" xlink:href="#y"/><use transform="matrix(.06173 0 0 .06173 61.728 0)" xlink:href="#m"/><use transform="matrix(.06173 0 0 .06173 67.901 0)" xlink:href="#n"/><use transform="matrix(.06173 0 0 .06173 72.778 0)" xlink:href="#C"/><use transform="matrix(.06173 0 0 .06173 85.123 0)" xlink:href="#J"/></g><g id="i"><use transform="rotate(.413) scale(.06173)" xlink:href="#q"/><use transform="matrix(.06173 0 0 .06173 11.05 0)" xlink:href="#r"/><use transform="matrix(.06173 0 0 .06173 23.395 0)" xlink:href="#s"/><use transform="matrix(.06173 0 0 .06173 34.506 0)" xlink:href="#t"/></g><g id="j"><use transform="rotate(.413) scale(.06173)" xlink:href="#F"/><use transform="matrix(.06173 0 0 .06173 15.988 0)" xlink:href="#w"/><use transform="matrix(.06173 0 0 .06173 28.333 0)" xlink:href="#r"/><use transform="matrix(.06173 0 0 .06173 40.679 0)" xlink:href="#A"/><use transform="matrix(.06173 0 0 .06173 48.025 0)" xlink:href="#m"/><use transform="matrix(.06173 0 0 .06173 54.198 0)" xlink:href="#G"/><use transform="matrix(.06173 0 0 .06173 66.543 0)" xlink:href="#w"/><use transform="matrix(.06173 0 0 .06173 78.889 0)" xlink:href="#r"/><use transform="matrix(.06173 0 0 .06173 91.235 0)" xlink:href="#m"/></g></defs></g></svg>