<svg xmlns="http://www.w3.org/2000/svg" xmlns:xlink="http://www.w3.org/1999/xlink" xmlns:lucid="lucid" width="1641" height="901"><g transform="translate(280.5 460.5)" lucid:page-tab-id="0_0"><path d="M-500-500h2000V500H-500z" fill="#fff"/><path d="M-260-434a6 6 0 0 1 6-6h1588a6 6 0 0 1 6 6v848a6 6 0 0 1-6 6H-254a6 6 0 0 1-6-6z" stroke="#000" stroke-opacity="0" fill="#fff"/><path d="M500-405a15 15 0 0 1 15-15h430a15 15 0 0 1 15 15v790a15 15 0 0 1-15 15H515a15 15 0 0 1-15-15z" fill="#d7f4fa" fill-opacity=".4"/><path d="M501.2-410.72l.44-1.1 1.23-2 .25-.3m2.76-2.76l.3-.25 2-1.24 1.1-.44m3.76-1.05L515-420h2m3.97 0h3.98m3.98 0h4m3.97 0h3.98m3.98 0h3.98m3.98 0h4m3.97 0h3.97m3.98 0h3.98m3.98 0h4m3.98 0h3.98m3.98 0h3.98m3.98 0h3.98m4 0h3.97m3.98 0h3.98m4 0h3.97m3.98 0h3.98m4 0h3.97m3.98 0h3.98m3.98 0h3.98m4 0h3.97m3.97 0h3.98m3.98 0h3.98m4 0h3.98m3.98 0h3.98m3.98 0h3.98m3.98 0h4m3.97 0h3.98m3.98 0h4m3.97 0h3.98m3.98 0h4m3.97 0h3.98m3.98 0h3.98m3.98 0h4m3.97 0h3.97m3.98 0h3.98m3.98 0h4m3.98 0h3.98m3.98 0h3.98m3.98 0h3.98m4 0h3.97m3.98 0h3.98m4 0h3.97m3.98 0h3.98m4 0h3.97m3.98 0h3.98m3.98 0h3.98m4 0h3.97m3.97 0h3.98m3.98 0h3.98m4 0h3.98m3.98 0h3.98m3.98 0h3.98m3.98 0h4m3.97 0h3.98m3.98 0h2l1.96.15m3.76 1.04l1.1.44 2 1.23.3.25m2.76 2.76l.25.3 1.24 2 .45 1.1m1.03 3.77L960-405v2m0 4v3.98m0 3.98v4m0 3.98v4m0 3.98v4m0 3.98v4m0 3.98v4m0 3.98v4m0 3.98v4m0 3.98v4m0 3.98v4m0 3.98v4m0 3.98v4m0 3.98v4m0 3.98v4m0 3.98v4m0 3.98v4m0 3.98v4m0 3.98v4m0 3.98v4m0 3.98v4m0 3.98v4m0 3.98v4m0 3.98v4m0 3.98v4m0 3.98v4m0 3.98v4m0 3.98v4m0 3.98v4m0 3.98v4m0 3.98v4m0 3.98v4m0 3.98v4m0 3.98v4m0 3.98v4m0 3.98v4m0 3.98v4m0 3.98v4m0 3.98v4m0 3.98v4m0 3.98v4m0 3.98v4m0 3.98v4m0 3.98v4m0 3.98v4m0 3.98v4m0 3.98v4m0 3.98v4m0 3.98v3.98m0 4v4m0 3.97v4m0 3.98v3.98m0 4v3.98m0 4v3.98m0 4v3.98m0 4v3.98m0 4v3.98m0 4v3.98m0 4v3.98m0 4v3.98m0 4v3.98m0 4v3.98m0 4v3.98m0 4v3.98m0 4v3.98m0 4v3.98m0 4v3.98m0 4v3.98m0 4v3.98m0 4v3.98m0 4v3.98m0 4v3.98m0 4v3.98m0 4v3.98m0 4v3.98m0 4v3.98m0 4v3.98m0 4v3.98m0 4v3.98m0 4v3.98m0 4v3.98m0 4v3.98m0 4v3.98m0 4v3.98m0 4v3.98m0 4v3.98m0 4v3.98m0 4v3.98m0 4v3.98m0 4v3.98m0 4v3.98m0 4v3.98m0 4v3.98m0 4v3.98m0 4v3.98m0 4v3.98m0 4v3.98m0 4v3.98m0 3.98v4m0 4V385l-.15 1.95m-1.03 3.77l-.46 1.1-1.23 2-.25.3m-2.76 2.76l-.3.25-2 1.24-1.1.44m-3.76 1.05L945 400h-2m-3.97 0h-3.98m-3.98 0h-4m-3.97 0h-3.98m-3.98 0h-3.98m-3.98 0h-4m-3.97 0h-3.97m-3.98 0h-3.98m-3.98 0h-4m-3.98 0h-3.98m-3.98 0h-3.98m-3.98 0h-3.98m-4 0h-3.97m-3.98 0h-3.98m-4 0h-3.97m-3.98 0h-3.98m-4 0h-3.97m-3.98 0h-3.98m-3.98 0h-3.98m-4 0h-3.97m-3.97 0h-3.98m-3.98 0h-3.98m-4 0h-3.98m-3.98 0h-3.98m-3.98 0h-3.98m-3.98 0h-4m-3.97 0h-3.98m-3.98 0h-4m-3.97 0h-3.98m-3.98 0h-4m-3.97 0h-3.98m-3.98 0h-3.98m-3.98 0h-4m-3.97 0h-3.97m-3.98 0h-3.98m-3.98 0h-4m-3.98 0h-3.98m-3.98 0h-3.98m-3.98 0h-3.98m-4 0h-3.97m-3.98 0h-3.98m-4 0h-3.97m-3.98 0h-3.98m-4 0h-3.97m-3.98 0h-3.98m-3.98 0h-3.98m-4 0h-3.97m-3.97 0h-3.98m-3.98 0h-3.98m-4 0h-3.98m-3.98 0h-3.98m-3.98 0h-3.98m-3.98 0h-4m-3.97 0h-3.98m-3.98 0h-2l-1.96-.15m-3.76-1.04l-1.1-.44-2-1.23-.3-.25m-2.76-2.76l-.25-.3-1.24-2-.44-1.1m-1.05-3.77L500 385v-2m0-4v-3.98m0-3.98v-4m0-3.98v-4m0-3.98v-4m0-3.98v-4m0-3.98v-4m0-3.98v-4m0-3.98v-4m0-3.98v-4m0-3.98v-4m0-3.98v-4m0-3.98v-4m0-3.98v-4m0-3.98v-4m0-3.98v-4m0-3.98v-4m0-3.98v-4m0-3.98v-4m0-3.98v-4m0-3.98v-4m0-3.98v-4m0-3.98v-4m0-3.98v-4m0-3.98v-4m0-3.98v-4m0-3.98v-4m0-3.98v-4m0-3.98v-4m0-3.98v-4m0-3.98v-4m0-3.98v-4m0-3.98v-4m0-3.98v-4m0-3.98v-4m0-3.98v-4m0-3.98v-4m0-3.98v-4m0-3.98v-4m0-3.98v-4m0-3.98v-4m0-3.98v-4m0-3.98v-4m0-3.98v-4m0-3.98v-4m0-3.98v-4m0-3.98v-4m0-3.98V7.96m0-4V-.02m0-4v-4m0-3.97v-3.98m0-4v-3.98m0-4v-3.98m0-4v-3.98m0-4v-3.98m0-4v-3.98m0-4v-3.98m0-4v-3.98m0-4v-3.98m0-4v-3.98m0-4v-3.98m0-4v-3.98m0-4v-3.98m0-4v-3.98m0-4v-3.98m0-4v-3.98m0-4v-3.98m0-4v-3.98m0-4v-3.98m0-4v-3.98m0-4v-3.98m0-4v-3.98m0-4v-3.98m0-4v-3.98m0-4v-3.98m0-4v-3.98m0-4v-3.98m0-4v-3.98m0-4v-3.98m0-4v-3.98m0-4v-3.98m0-4v-3.98m0-4v-3.98m0-4v-3.98m0-4v-3.98m0-4v-3.98m0-4v-3.98m0-4v-3.98m0-4v-3.98m0-4v-3.98m0-4v-3.98m0-4v-3.98m0-4v-3.98m0-4v-3.98m0-4v-3.98m0-4v-3.98m0-4v-3.98m0-4v-3.98m0-3.98v-4m0-4V-405l.15-1.95" stroke="#333" fill="none"/><path d="M80-271.8a15 15 0 0 1 15-15h790a15 15 0 0 1 15 15v290a15 15 0 0 1-15 15H95a15 15 0 0 1-15-15z" fill="#eee" fill-opacity=".6"/><path d="M81.19-277.5l.44-1.1 1.22-2 .26-.3m2.77-2.77l.28-.25 2-1.23 1.1-.45m3.77-1.03l1.95-.16h2m3.98 0h4m3.98 0h4m3.98 0h4m3.98 0h4m3.98 0h4m3.98 0h4m3.98 0h4m3.98 0h4m3.98 0h4m3.98 0h4m3.98 0h4m3.98 0h4m3.98 0h4m3.98 0h4m3.98 0h4m3.98 0h4m3.98 0h4m3.98 0h4m3.98 0h4m3.98 0h4m3.98 0h4m3.98 0h4m3.98 0h4m3.98 0h4m3.98 0h4m3.98 0h4m3.98 0h4m3.98 0h4m3.98 0h4m3.98 0h4m3.98 0h4m3.98 0h4m3.98 0h4m3.98 0h4m3.98 0h4m3.98 0h4m3.98 0h4m3.98 0h4m3.98 0h4m3.98 0h4m3.98 0h4m3.98 0h4m3.98 0h4m3.98 0h4m3.98 0h4m3.98 0h4m3.98 0h4m3.98 0h3.98m4 0h4m3.98 0h4m3.98 0h3.98m4 0h3.98m4 0h3.98m4 0h3.98m4 0h3.98m4 0h3.98m4 0h3.98m4 0h3.98m4 0h3.98m4 0h3.98m4 0h3.98m4 0h3.98m4 0h3.98m4 0h3.98m4 0h3.98m4 0h3.98m4 0h3.98m4 0h3.98m4 0h3.98m4 0h3.98m4 0h3.98m4 0h3.98m4 0h3.98m4 0h3.98m4 0h3.98m4 0h3.98m4 0h3.98m4 0h3.98m4 0h3.98m4 0h3.98m4 0h3.98m4 0h3.98m4 0h3.98m4 0h3.98m4 0h3.98m4 0h3.98m4 0h3.98m4 0h3.98m4 0h3.98m4 0h3.98m4 0h3.98m4 0h3.98m4 0h3.98m4 0h3.98m4 0h3.98m4 0h3.98m4 0h3.98m4 0H879m4 0H885l1.96.17m3.76 1.03l1.1.45 2 1.23.3.25m2.76 2.77l.25.3 1.24 2 .45 1.1m1.03 3.76l.15 1.95v2.03m0 4.03v4.02m0 4.03v4.04m0 4.03v4.03m0 4.02v4.03m0 4.03v4.03m0 4.03v4.03m0 4.03v4.02m0 4.03v4.02m0 4.03v4.03m0 4.03v4.02m0 4.03v4.04m0 4.03v4.03m0 4.02v4.03m0 4.03v4.03m0 4.03v4.03m0 4.03v4.02m0 4.03v4.02m0 4.03v4.03m0 4.03v4.02m0 4.03v4.04m0 4.03v4.02m0 4.02v4.03m0 4.03v4.03m0 4.03v4.03m0 4.03v4.02m0 4.02v4.03m0 4.03v4.03m0 4.03v4.02m0 4.03v4.04m0 4.03v4.03m0 4.02v4.03m0 4.03V-12m0 4.03v4.03m0 4.03V4.1m0 4.02v4.03m0 4.03v2l-.15 1.97m-1.03 3.77l-.46 1.08-1.23 2-.25.3m-2.76 2.77l-.3.25-2 1.23-1.1.45m-3.76 1.03l-1.96.15h-2m-4 0h-3.98m-4 0h-3.98m-3.98 0h-4m-3.98 0h-4m-3.98 0h-4m-3.98 0h-4m-3.98 0h-4m-3.98 0h-4m-3.98 0h-4m-3.98 0h-4m-3.98 0h-4m-3.98 0h-4m-3.98 0h-4m-3.98 0h-4m-3.98 0h-4m-3.98 0h-4m-3.98 0h-4m-3.98 0h-4m-3.98 0h-4m-3.98 0h-4m-3.98 0h-4m-3.98 0h-4m-3.98 0h-4m-3.98 0h-4m-3.98 0h-4m-3.98 0h-4m-3.98 0h-4m-3.98 0h-4m-3.98 0h-4m-3.98 0h-4m-3.98 0h-4m-3.98 0h-4m-3.98 0h-4m-3.98 0h-4m-3.98 0h-4m-3.98 0h-4m-3.98 0h-4m-3.98 0h-4m-3.98 0h-4m-3.98 0h-4m-3.98 0h-4m-3.98 0h-4m-3.98 0h-4m-3.98 0h-4m-3.98 0h-4m-3.98 0h-4m-3.98 0h-4m-3.98 0h-3.98m-4 0h-4m-3.98 0h-4m-3.98 0h-3.98m-4 0h-3.98m-4 0h-3.98m-4 0h-3.98m-4 0h-3.98m-4 0h-3.98m-4 0h-3.98m-4 0h-3.98m-4 0h-3.98m-4 0h-3.98m-4 0h-3.98m-4 0h-3.98m-4 0h-3.98m-4 0h-3.98m-4 0h-3.98m-4 0h-3.98m-4 0h-3.98m-4 0h-3.98m-4 0h-3.98m-4 0h-3.98m-4 0h-3.98m-4 0h-3.98m-4 0h-3.98m-4 0h-3.98m-4 0h-3.98m-4 0h-3.98m-4 0h-3.98m-4 0h-3.98m-4 0h-3.98m-4 0h-3.98m-4 0h-3.98m-4 0h-3.98m-4 0h-3.98m-4 0h-3.98m-4 0h-3.98m-4 0h-3.98m-4 0h-3.98m-4 0h-3.98m-4 0h-3.98m-4 0h-3.98m-4 0h-3.98m-4 0h-3.98m-4 0h-3.98m-4 0h-3.98m-4 0h-3.98m-4 0h-3.98m-3.98 0h-4m-3.98 0h-4m-3.98 0h-2l-1.95-.14m-3.77-1.03l-1.1-.45-2-1.23-.3-.26m-2.76-2.77l-.26-.3-1.22-2-.45-1.1m-1.05-3.76L80 18.2v-2m0-4.03V8.14m0-4.02V.1m0-4.04v-4.03M80-12V-16m0-4.03v-4.03m0-4.03v-4.03m0-4.03v-4.03m0-4.02v-4.02m0-4.03v-4.03m0-4.03v-4.03m0-4.02v-4.03m0-4.04v-4.03m0-4.02v-4.02m0-4.03v-4.03m0-4.03v-4.03m0-4.03v-4.03m0-4.02v-4.02m0-4.03v-4.03m0-4.03v-4.02m0-4.03v-4.03m0-4.04v-4.03m0-4.02V-161m0-4.03v-4.03m0-4.02v-4.03m0-4.03v-4.03m0-4.02v-4.02m0-4.03v-4.03m0-4.03v-4.02m0-4.03v-4.03m0-4.04v-4.03m0-4.02v-4.02m0-4.03v-4.03m0-4.02v-4.03m0-4.03v-4.03m0-4.02v-4.02m0-4.03v-2.02l.15-1.94" stroke="#333" fill="none"/><path d="M640-226.8h200v200H640z" stroke="#3a414a" fill="#3a414a"/><use xlink:href="#a" transform="matrix(1,0,0,1,645,-221.78566326713167) translate(49.44444444444444 89.02777777777777)"/><use xlink:href="#b" transform="matrix(1,0,0,1,645,-221.78566326713167) translate(59.50617283950618 115.69444444444446)"/><path d="M140-226.8h200v200H140z" stroke="#3a414a" fill="#3a414a"/><use xlink:href="#a" transform="matrix(1,0,0,1,145,-221.78566326713167) translate(49.44444444444444 89.02777777777777)"/><use xlink:href="#c" transform="matrix(1,0,0,1,145,-221.78566326713167) translate(59.907407407407405 115.69444444444446)"/><path d="M639-80.12H356.88" stroke="#3a414a" fill="none"/><path d="M639.5-79.62h-.5v-1h.5z" stroke="#3a414a" stroke-width=".05" fill="#3a414a"/><path d="M342.12-80.12l14.26-4.63v9.27z" stroke="#3a414a" fill="#3a414a"/><path d="M500-40.8a6 6 0 0 1 6-6h128a6 6 0 0 1 6 6V-6a6 6 0 0 1-6 6H506a6 6 0 0 1-6-6z" stroke="#000" stroke-opacity="0" fill="#fff" fill-opacity="0"/><use xlink:href="#d" transform="matrix(1,0,0,1,505,-41.78566326713167) translate(24.5 22.9375)"/><use xlink:href="#e" transform="matrix(1,0,0,1,505,-41.78566326713167) translate(74.5 22.9375)"/><path d="M570-47.3V-79.6" stroke="#3a414a" fill="none"/><path d="M570.5-46.8h-1v-.5h1z" stroke="#3a414a" stroke-width=".05" fill="#3a414a"/><path d="M570-79.6v-.52" stroke="#3a414a" fill="none"/><path d="M540-380.8a6 6 0 0 1 6-6h368a6 6 0 0 1 6 6v68a6 6 0 0 1-6 6H546a6 6 0 0 1-6-6z" stroke="#000" stroke-opacity="0" fill="#fff" fill-opacity="0"/><use xlink:href="#f" transform="matrix(1,0,0,1,545,-381.78566326713167) translate(43.861111111111114 26.9375)"/><use xlink:href="#g" transform="matrix(1,0,0,1,545,-381.78566326713167) translate(90.47222222222223 26.9375)"/><use xlink:href="#h" transform="matrix(1,0,0,1,545,-381.78566326713167) translate(146.69444444444446 26.9375)"/><use xlink:href="#i" transform="matrix(1,0,0,1,545,-381.78566326713167) translate(198.5277777777778 26.9375)"/><use xlink:href="#j" transform="matrix(1,0,0,1,545,-381.78566326713167) translate(249.58333333333334 26.9375)"/><use xlink:href="#k" transform="matrix(1,0,0,1,545,-381.78566326713167) translate(308.41666666666663 26.9375)"/><use xlink:href="#l" transform="matrix(1,0,0,1,545,-381.78566326713167) translate(78.4722222222222 50.9375)"/><use xlink:href="#m" transform="matrix(1,0,0,1,545,-381.78566326713167) translate(181.69444444444446 50.9375)"/><path d="M80-360.8a6 6 0 0 1 6-6h248a6 6 0 0 1 6 6v28a6 6 0 0 1-6 6H86a6 6 0 0 1-6-6z" stroke="#000" stroke-opacity="0" fill="#fff" fill-opacity="0"/><use xlink:href="#n" transform="matrix(1,0,0,1,85,-361.78566326713167) translate(7.8611111111111 19.75)"/><use xlink:href="#o" transform="matrix(1,0,0,1,85,-361.78566326713167) translate(95.80555555555556 19.75)"/><use xlink:href="#p" transform="matrix(1,0,0,1,85,-361.78566326713167) translate(175.6388888888889 19.75)"/><path d="M210-326.3V-287.78" stroke="#3a414a" fill="none"/><path d="M210.5-326.27h-1v-.52h1zM210.5-287.3h-1v-.5h1z" stroke="#3a414a" stroke-width=".05" fill="#3a414a"/><path d="M660 171a6 6 0 0 1 6-6h33a6 6 0 0 0 6-6v-33a6 6 0 0 1 6-6h78a6 6 0 0 1 6 6v33a6 6 0 0 0 6 6h33a6 6 0 0 1 6 6v78a6 6 0 0 1-6 6h-33a6 6 0 0 0-6 6v33a6 6 0 0 1-6 6h-78a6 6 0 0 1-6-6v-33a6 6 0 0 0-6-6h-33a6 6 0 0 1-6-6z" stroke="#5e5e5e" fill="#3a414a"/><g><use xlink:href="#q" transform="matrix(1,0,0,1,665,125) translate(39.44444444444447 76.21527777777777)"/><use xlink:href="#r" transform="matrix(1,0,0,1,665,125) translate(56.697530864197546 102.88194444444443)"/></g><path d="M659 210H246a6 6 0 0 1-6-6V-9.9" stroke="#3a414a" fill="none"/><path d="M659.5 210.5h-.5v-1h.5z" stroke="#3a414a" stroke-width=".05" fill="#3a414a"/><path d="M240-24.67l4.63 14.27h-9.26z" stroke="#3a414a" fill="#3a414a"/><path d="M500 266a6 6 0 0 1 6-6h148a6 6 0 0 1 6 6v48a6 6 0 0 1-6 6H506a6 6 0 0 1-6-6z" stroke="#000" stroke-opacity="0" fill="#fff" fill-opacity="0"/><g><use xlink:href="#s" transform="matrix(1,0,0,1,505,265) translate(10.138888888888886 28.5)"/><use xlink:href="#t" transform="matrix(1,0,0,1,505,265) translate(57.86111111111111 28.5)"/></g><path d="M580 259.5v-49" stroke="#3a414a" fill="none"/><path d="M580.5 260h-1v-.5h1z" stroke="#3a414a" stroke-width=".05" fill="#3a414a"/><path d="M580 210.5v-.5" stroke="#3a414a" fill="none"/><defs><path fill="#fff" d="M127-220V0H93v-220H8v-28h204v28h-85" id="u"/><path fill="#fff" d="M100-194c63 0 86 42 84 106H49c0 40 14 67 53 68 26 1 43-12 49-29l28 8c-11 28-37 45-77 45C44 4 14-33 15-96c1-61 26-98 85-98zm52 81c6-60-76-77-97-28-3 7-6 17-6 28h103" id="v"/><path fill="#fff" d="M210-169c-67 3-38 105-44 169h-31v-121c0-29-5-50-35-48C34-165 62-65 56 0H25l-1-190h30c1 10-1 24 2 32 10-44 99-50 107 0 11-21 27-35 58-36 85-2 47 119 55 194h-31v-121c0-29-5-49-35-48" id="w"/><path fill="#fff" d="M115-194c55 1 70 41 70 98S169 2 115 4C84 4 66-9 55-30l1 105H24l-1-265h31l2 30c10-21 28-34 59-34zm-8 174c40 0 45-34 45-75s-6-73-45-74c-42 0-51 32-51 76 0 43 10 73 51 73" id="x"/><path fill="#fff" d="M100-194c62-1 85 37 85 99 1 63-27 99-86 99S16-35 15-95c0-66 28-99 85-99zM99-20c44 1 53-31 53-75 0-43-8-75-51-75s-53 32-53 75 10 74 51 75" id="y"/><path fill="#fff" d="M114-163C36-179 61-72 57 0H25l-1-190h30c1 12-1 29 2 39 6-27 23-49 58-41v29" id="z"/><path fill="#fff" d="M141-36C126-15 110 5 73 4 37 3 15-17 15-53c-1-64 63-63 125-63 3-35-9-54-41-54-24 1-41 7-42 31l-33-3c5-37 33-52 76-52 45 0 72 20 72 64v82c-1 20 7 32 28 27v20c-31 9-61-2-59-35zM48-53c0 20 12 33 32 33 41-3 63-29 60-74-43 2-92-5-92 41" id="A"/><path fill="#fff" d="M24 0v-261h32V0H24" id="B"/><g id="a"><use transform="matrix(0.06172839506172839,0,0,0.06172839506172839,0,0)" xlink:href="#u"/><use transform="matrix(0.06172839506172839,0,0,0.06172839506172839,11.049382716049381,0)" xlink:href="#v"/><use transform="matrix(0.06172839506172839,0,0,0.06172839506172839,23.39506172839506,0)" xlink:href="#w"/><use transform="matrix(0.06172839506172839,0,0,0.06172839506172839,41.85185185185185,0)" xlink:href="#x"/><use transform="matrix(0.06172839506172839,0,0,0.06172839506172839,54.197530864197525,0)" xlink:href="#y"/><use transform="matrix(0.06172839506172839,0,0,0.06172839506172839,66.5432098765432,0)" xlink:href="#z"/><use transform="matrix(0.06172839506172839,0,0,0.06172839506172839,73.88888888888889,0)" xlink:href="#A"/><use transform="matrix(0.06172839506172839,0,0,0.06172839506172839,86.23456790123457,0)" xlink:href="#B"/></g><path fill="#fff" d="M266 0h-40l-56-210L115 0H75L2-248h35L96-30l15-64 43-154h32l59 218 59-218h35" id="C"/><path fill="#fff" d="M143 0L79-87 56-68V0H24v-261h32v163l83-92h37l-77 82L181 0h-38" id="D"/><g id="b"><use transform="matrix(0.06172839506172839,0,0,0.06172839506172839,0,0)" xlink:href="#C"/><use transform="matrix(0.06172839506172839,0,0,0.06172839506172839,20.493827160493826,0)" xlink:href="#y"/><use transform="matrix(0.06172839506172839,0,0,0.06172839506172839,32.839506172839506,0)" xlink:href="#z"/><use transform="matrix(0.06172839506172839,0,0,0.06172839506172839,40.18518518518518,0)" xlink:href="#D"/><use transform="matrix(0.06172839506172839,0,0,0.06172839506172839,51.29629629629629,0)" xlink:href="#v"/><use transform="matrix(0.06172839506172839,0,0,0.06172839506172839,63.641975308641975,0)" xlink:href="#z"/></g><path fill="#fff" d="M212-179c-10-28-35-45-73-45-59 0-87 40-87 99 0 60 29 101 89 101 43 0 62-24 78-52l27 14C228-24 195 4 139 4 59 4 22-46 18-125c-6-104 99-153 187-111 19 9 31 26 39 46" id="E"/><path fill="#fff" d="M84 4C-5 8 30-112 23-190h32v120c0 31 7 50 39 49 72-2 45-101 50-169h31l1 190h-30c-1-10 1-25-2-33-11 22-28 36-60 37" id="F"/><path fill="#fff" d="M135-143c-3-34-86-38-87 0 15 53 115 12 119 90S17 21 10-45l28-5c4 36 97 45 98 0-10-56-113-15-118-90-4-57 82-63 122-42 12 7 21 19 24 35" id="G"/><path fill="#fff" d="M59-47c-2 24 18 29 38 22v24C64 9 27 4 27-40v-127H5v-23h24l9-43h21v43h35v23H59v120" id="H"/><g id="c"><use transform="matrix(0.06172839506172839,0,0,0.06172839506172839,0,0)" xlink:href="#E"/><use transform="matrix(0.06172839506172839,0,0,0.06172839506172839,15.987654320987653,0)" xlink:href="#B"/><use transform="matrix(0.06172839506172839,0,0,0.06172839506172839,20.864197530864196,0)" xlink:href="#F"/><use transform="matrix(0.06172839506172839,0,0,0.06172839506172839,33.20987654320987,0)" xlink:href="#G"/><use transform="matrix(0.06172839506172839,0,0,0.06172839506172839,44.32098765432099,0)" xlink:href="#H"/><use transform="matrix(0.06172839506172839,0,0,0.06172839506172839,50.49382716049383,0)" xlink:href="#v"/><use transform="matrix(0.06172839506172839,0,0,0.06172839506172839,62.839506172839506,0)" xlink:href="#z"/></g><path d="M11 0l48-248h34L50-27h125l-5 27H11" id="I"/><path d="M30-147c31-64 166-65 159 27C183-49 158 1 86 4 9 8 1-88 30-147zM88-20c53 0 68-48 68-100 0-31-11-51-44-50-52 1-68 46-68 97 0 32 13 53 44 53" id="J"/><path d="M67-158c22-48 132-52 116 29L158 0h-32l25-140c3-38-53-32-70-12C52-117 51-52 38 0H6l36-190h30" id="K"/><path d="M103-194c29 0 47 14 56 36 2-11 5-23 8-32h30L160-5C157 61 82 97 21 62 9 55 4 45 1 30l28-7c7 42 83 31 92-3 4-16 9-38 13-55-13 20-29 36-62 36-40 0-60-25-60-64 0-71 23-131 91-131zm4 24c-53 0-58 54-61 104-2 27 10 44 36 44 49 0 65-50 67-102 1-29-15-46-42-46" id="L"/><g id="d"><use transform="matrix(0.05555555555555555,0,0,0.05555555555555555,0,0)" xlink:href="#I"/><use transform="matrix(0.05555555555555555,0,0,0.05555555555555555,11.11111111111111,0)" xlink:href="#J"/><use transform="matrix(0.05555555555555555,0,0,0.05555555555555555,22.22222222222222,0)" xlink:href="#K"/><use transform="matrix(0.05555555555555555,0,0,0.05555555555555555,33.33333333333333,0)" xlink:href="#L"/></g><path d="M67-162c32-53 139-36 121 50C175-51 163 2 97 4 68 4 52-11 42-31 38 6 28 39 22 75H-9l50-265h29c-1 10 0 20-3 28zm89 36c0-26-10-43-35-43-54 0-67 50-69 103-1 29 14 45 42 46 53 0 62-58 62-106" id="M"/><path d="M6 0l50-261h32L37 0H6" id="N"/><g id="e"><use transform="matrix(0.05555555555555555,0,0,0.05555555555555555,0,0)" xlink:href="#M"/><use transform="matrix(0.05555555555555555,0,0,0.05555555555555555,11.11111111111111,0)" xlink:href="#J"/><use transform="matrix(0.05555555555555555,0,0,0.05555555555555555,22.22222222222222,0)" xlink:href="#N"/><use transform="matrix(0.05555555555555555,0,0,0.05555555555555555,26.61111111111111,0)" xlink:href="#N"/></g><path d="M138-103L118 0H85l20-103-68-145h35l54 119 98-119h38" id="O"/><path d="M67 3c-93-2-31-127-26-193h32L48-50c-3 39 53 32 70 12 30-34 30-101 43-152h32L157 0h-30c1-10 6-24 4-33-14 20-29 37-64 36" id="P"/><path d="M66-151c12-25 30-51 66-40l-6 26C45-176 58-65 38 0H6l36-190h30" id="Q"/><g id="f"><use transform="matrix(0.05555555555555555,0,0,0.05555555555555555,0,0)" xlink:href="#O"/><use transform="matrix(0.05555555555555555,0,0,0.05555555555555555,12.222222222222221,0)" xlink:href="#J"/><use transform="matrix(0.05555555555555555,0,0,0.05555555555555555,23.333333333333332,0)" xlink:href="#P"/><use transform="matrix(0.05555555555555555,0,0,0.05555555555555555,34.44444444444444,0)" xlink:href="#Q"/></g><path d="M187 0l-14-72H61L19 0h-37l149-248h38L221 0h-34zm-19-99l-22-123L76-99h92" id="R"/><path d="M247 0h-39l-15-214-24 57L95 0H56L31-248h35L82-30l101-218h33l16 218 101-218h35" id="S"/><path d="M194-120c59 52 2 134-86 124-53-6-90-18-98-63l31-7c8 30 29 43 70 43 46 0 84-17 71-62-32-43-135-20-137-98-3-89 178-90 191-16l-30 9c-8-48-127-53-127 5 0 53 81 35 115 65" id="T"/><path d="M58-38C53-5 46 26 28 46H7C19 32 27 18 32 0H17l7-38h34" id="U"/><g id="g"><use transform="matrix(0.05555555555555555,0,0,0.05555555555555555,0,0)" xlink:href="#R"/><use transform="matrix(0.05555555555555555,0,0,0.05555555555555555,12.944444444444443,0)" xlink:href="#S"/><use transform="matrix(0.05555555555555555,0,0,0.05555555555555555,31.777777777777775,0)" xlink:href="#T"/><use transform="matrix(0.05555555555555555,0,0,0.05555555555555555,45.11111111111111,0)" xlink:href="#U"/></g><path d="M52-101C46-14 166-7 216-51l9-45h-74l6-28h105l-18 87C217-12 181 4 130 4 60 4 18-31 18-101c0-106 78-167 188-146 30 6 48 27 59 54l-34 9c-10-26-31-41-67-40-75 1-107 50-112 123" id="V"/><path d="M125-24c46 0 70-25 89-51l25 16C214-24 183 4 123 4 8 4-5-146 60-208c32-50 158-61 191-5 5 7 9 14 11 22l-32 10c-9-28-33-43-69-43-74 0-108 51-108 125 0 46 24 75 72 75" id="W"/><path d="M238-179c0 84-86 86-175 82L45 0H11l48-248c82 0 179-12 179 69zm-34 1c0-53-64-42-116-43l-19 98c63 0 135 9 135-55" id="X"/><g id="h"><use transform="matrix(0.05555555555555555,0,0,0.05555555555555555,0,0)" xlink:href="#V"/><use transform="matrix(0.05555555555555555,0,0,0.05555555555555555,15.555555555555555,0)" xlink:href="#W"/><use transform="matrix(0.05555555555555555,0,0,0.05555555555555555,29.944444444444443,0)" xlink:href="#X"/><use transform="matrix(0.05555555555555555,0,0,0.05555555555555555,40.722222222222214,0)" xlink:href="#U"/></g><path d="M51-54c-9 22 5 41 31 30L79-1C43 14 10-4 19-52l22-115H19l5-23h22l19-43h21l-9 43h35l-4 23H73" id="Y"/><path d="M67-158c15-20 31-36 64-36 94 0 33 127 27 194h-32l25-140c3-38-53-32-70-12C52-117 51-51 37 0H6l51-261h31" id="Z"/><path d="M111-194c62-3 86 47 72 106H45c-7 38 6 69 45 68 27-1 43-14 53-32l24 11C152-15 129 4 87 4 38 3 12-23 12-71c0-70 32-119 99-123zm44 81c14-66-71-72-95-28-4 8-8 17-11 28h106" id="aa"/><g id="i"><use transform="matrix(0.05555555555555555,0,0,0.05555555555555555,0,0)" xlink:href="#J"/><use transform="matrix(0.05555555555555555,0,0,0.05555555555555555,11.11111111111111,0)" xlink:href="#Y"/><use transform="matrix(0.05555555555555555,0,0,0.05555555555555555,16.666666666666664,0)" xlink:href="#Z"/><use transform="matrix(0.05555555555555555,0,0,0.05555555555555555,27.777777777777775,0)" xlink:href="#aa"/><use transform="matrix(0.05555555555555555,0,0,0.05555555555555555,38.888888888888886,0)" xlink:href="#Q"/></g><path d="M44-68c0 29 11 47 38 47 30 0 42-19 51-41l28 9C148-21 126 4 82 4 31 4 10-29 12-85c3-77 74-140 146-93 12 8 15 23 18 40l-31 5c-1-22-13-36-36-36-52 0-65 49-65 101" id="ab"/><path d="M133-28C103 26-5 8 13-77c13-62 24-115 90-117 29-1 46 15 56 35l19-102h32L160 0h-30zM45-64c-2 27 10 43 35 43 54-1 69-50 69-103 0-29-15-46-42-46-53-1-58 58-62 106" id="ac"/><g id="j"><use transform="matrix(0.05555555555555555,0,0,0.05555555555555555,0,0)" xlink:href="#ab"/><use transform="matrix(0.05555555555555555,0,0,0.05555555555555555,10,0)" xlink:href="#N"/><use transform="matrix(0.05555555555555555,0,0,0.05555555555555555,14.388888888888888,0)" xlink:href="#J"/><use transform="matrix(0.05555555555555555,0,0,0.05555555555555555,25.5,0)" xlink:href="#P"/><use transform="matrix(0.05555555555555555,0,0,0.05555555555555555,36.611111111111114,0)" xlink:href="#ac"/><use transform="matrix(0.05555555555555555,0,0,0.05555555555555555,47.72222222222223,0)" xlink:href="#U"/></g><g id="k"><use transform="matrix(0.05555555555555555,0,0,0.05555555555555555,0,0)" xlink:href="#J"/><use transform="matrix(0.05555555555555555,0,0,0.05555555555555555,11.11111111111111,0)" xlink:href="#Q"/></g><path d="M55-144c13 50 104 24 104 88C159 21 15 23 1-39l26-10c6 40 102 42 102-4-13-50-104-23-104-87 0-71 143-71 148-8l-29 4c-5-35-85-37-89 0" id="ad"/><path d="M76-167L44 0H12l33-167H18l4-23h27c3-47 25-81 82-69l-4 24c-35-8-44 15-46 45h37l-5 23H76" id="ae"/><path d="M18-82l6-28h88l-6 28H18" id="af"/><g id="l"><use transform="matrix(0.05555555555555555,0,0,0.05555555555555555,0,0)" xlink:href="#ad"/><use transform="matrix(0.05555555555555555,0,0,0.05555555555555555,10,0)" xlink:href="#aa"/><use transform="matrix(0.05555555555555555,0,0,0.05555555555555555,21.11111111111111,0)" xlink:href="#N"/><use transform="matrix(0.05555555555555555,0,0,0.05555555555555555,25.5,0)" xlink:href="#ae"/><use transform="matrix(0.05555555555555555,0,0,0.05555555555555555,31.05555555555556,0)" xlink:href="#af"/><use transform="matrix(0.05555555555555555,0,0,0.05555555555555555,37.66666666666667,0)" xlink:href="#Z"/><use transform="matrix(0.05555555555555555,0,0,0.05555555555555555,48.777777777777786,0)" xlink:href="#J"/><use transform="matrix(0.05555555555555555,0,0,0.05555555555555555,59.8888888888889,0)" xlink:href="#ad"/><use transform="matrix(0.05555555555555555,0,0,0.05555555555555555,69.8888888888889,0)" xlink:href="#Y"/><use transform="matrix(0.05555555555555555,0,0,0.05555555555555555,75.44444444444446,0)" xlink:href="#aa"/><use transform="matrix(0.05555555555555555,0,0,0.05555555555555555,86.55555555555557,0)" xlink:href="#ac"/></g><path d="M89 0H52L20-190h33L74-25l89-165h34" id="ag"/><path d="M50-231l6-30h32l-6 30H50zM6 0l37-190h31L37 0H6" id="ah"/><path d="M248-111c6-24 9-61-24-58-72 9-57 108-77 169h-31l26-142c3-37-50-30-64-10C52-115 50-51 37 0H6l36-190h30c-1 10-6 24-4 32 13-43 101-52 105 5 13-22 29-41 61-41 90 0 28 129 23 194h-31" id="ai"/><g id="m"><use transform="matrix(0.05555555555555555,0,0,0.05555555555555555,0,0)" xlink:href="#aa"/><use transform="matrix(0.05555555555555555,0,0,0.05555555555555555,11.11111111111111,0)" xlink:href="#K"/><use transform="matrix(0.05555555555555555,0,0,0.05555555555555555,22.22222222222222,0)" xlink:href="#ag"/><use transform="matrix(0.05555555555555555,0,0,0.05555555555555555,32.22222222222222,0)" xlink:href="#ah"/><use transform="matrix(0.05555555555555555,0,0,0.05555555555555555,36.61111111111111,0)" xlink:href="#Q"/><use transform="matrix(0.05555555555555555,0,0,0.05555555555555555,43.222222222222214,0)" xlink:href="#J"/><use transform="matrix(0.05555555555555555,0,0,0.05555555555555555,54.33333333333333,0)" xlink:href="#K"/><use transform="matrix(0.05555555555555555,0,0,0.05555555555555555,65.44444444444444,0)" xlink:href="#ai"/><use transform="matrix(0.05555555555555555,0,0,0.05555555555555555,82.05555555555556,0)" xlink:href="#aa"/><use transform="matrix(0.05555555555555555,0,0,0.05555555555555555,93.16666666666667,0)" xlink:href="#K"/><use transform="matrix(0.05555555555555555,0,0,0.05555555555555555,104.27777777777779,0)" xlink:href="#Y"/></g><path d="M151-220L108 0H75l42-220H32l6-28h203l-5 28h-85" id="aj"/><path d="M165-48c-4 18 1 34 23 27l-3 20c-29 8-62 0-52-35h-2C116-14 99 4 63 4 30 4 8-16 8-49c0-68 71-67 138-67 10-26 0-56-31-54-26 1-42 9-47 31l-32-5c8-67 160-71 144 15-5 28-9 54-15 81zM42-50c3 52 80 24 89-6 7-12 7-24 11-38-47 1-103-4-100 44" id="ak"/><g id="n"><use transform="matrix(0.05555555555555555,0,0,0.05555555555555555,0,0)" xlink:href="#aj"/><use transform="matrix(0.05555555555555555,0,0,0.05555555555555555,10.333333333333332,0)" xlink:href="#aa"/><use transform="matrix(0.05555555555555555,0,0,0.05555555555555555,21.444444444444443,0)" xlink:href="#ai"/><use transform="matrix(0.05555555555555555,0,0,0.05555555555555555,38.05555555555556,0)" xlink:href="#M"/><use transform="matrix(0.05555555555555555,0,0,0.05555555555555555,49.16666666666667,0)" xlink:href="#J"/><use transform="matrix(0.05555555555555555,0,0,0.05555555555555555,60.277777777777786,0)" xlink:href="#Q"/><use transform="matrix(0.05555555555555555,0,0,0.05555555555555555,66.8888888888889,0)" xlink:href="#ak"/><use transform="matrix(0.05555555555555555,0,0,0.05555555555555555,78.00000000000001,0)" xlink:href="#N"/></g><g id="o"><use transform="matrix(0.05555555555555555,0,0,0.05555555555555555,0,0)" xlink:href="#X"/><use transform="matrix(0.05555555555555555,0,0,0.05555555555555555,13.333333333333332,0)" xlink:href="#N"/><use transform="matrix(0.05555555555555555,0,0,0.05555555555555555,17.72222222222222,0)" xlink:href="#ak"/><use transform="matrix(0.05555555555555555,0,0,0.05555555555555555,28.833333333333332,0)" xlink:href="#Y"/><use transform="matrix(0.05555555555555555,0,0,0.05555555555555555,34.388888888888886,0)" xlink:href="#ae"/><use transform="matrix(0.05555555555555555,0,0,0.05555555555555555,39.94444444444444,0)" xlink:href="#J"/><use transform="matrix(0.05555555555555555,0,0,0.05555555555555555,51.05555555555556,0)" xlink:href="#Q"/><use transform="matrix(0.05555555555555555,0,0,0.05555555555555555,57.66666666666668,0)" xlink:href="#ai"/></g><g id="p"><use transform="matrix(0.05555555555555555,0,0,0.05555555555555555,0,0)" xlink:href="#Q"/><use transform="matrix(0.05555555555555555,0,0,0.05555555555555555,6.611111111111111,0)" xlink:href="#P"/><use transform="matrix(0.05555555555555555,0,0,0.05555555555555555,17.72222222222222,0)" xlink:href="#K"/><use transform="matrix(0.05555555555555555,0,0,0.05555555555555555,28.833333333333332,0)" xlink:href="#Y"/><use transform="matrix(0.05555555555555555,0,0,0.05555555555555555,34.388888888888886,0)" xlink:href="#ah"/><use transform="matrix(0.05555555555555555,0,0,0.05555555555555555,38.77777777777777,0)" xlink:href="#ai"/><use transform="matrix(0.05555555555555555,0,0,0.05555555555555555,55.388888888888886,0)" xlink:href="#aa"/></g><g id="q"><use transform="matrix(0.06172839506172837,0,0,0.06172839506172837,0,0)" xlink:href="#u"/><use transform="matrix(0.06172839506172837,0,0,0.06172839506172837,11.04938271604938,0)" xlink:href="#v"/><use transform="matrix(0.06172839506172837,0,0,0.06172839506172837,23.395061728395053,0)" xlink:href="#w"/><use transform="matrix(0.06172839506172837,0,0,0.06172839506172837,41.85185185185183,0)" xlink:href="#x"/><use transform="matrix(0.06172839506172837,0,0,0.06172839506172837,54.1975308641975,0)" xlink:href="#y"/><use transform="matrix(0.06172839506172837,0,0,0.06172839506172837,66.54320987654317,0)" xlink:href="#z"/><use transform="matrix(0.06172839506172837,0,0,0.06172839506172837,73.88888888888884,0)" xlink:href="#A"/><use transform="matrix(0.06172839506172837,0,0,0.06172839506172837,86.23456790123451,0)" xlink:href="#B"/></g><path fill="#fff" d="M24-231v-30h32v30H24zM24 0v-190h32V0H24" id="al"/><path fill="#fff" d="M117-194c89-4 53 116 60 194h-32v-121c0-31-8-49-39-48C34-167 62-67 57 0H25l-1-190h30c1 10-1 24 2 32 11-22 29-35 61-36" id="am"/><g id="r"><use transform="matrix(0.06172839506172837,0,0,0.06172839506172837,0,0)" xlink:href="#E"/><use transform="matrix(0.06172839506172837,0,0,0.06172839506172837,15.987654320987648,0)" xlink:href="#B"/><use transform="matrix(0.06172839506172837,0,0,0.06172839506172837,20.86419753086419,0)" xlink:href="#al"/><use transform="matrix(0.06172839506172837,0,0,0.06172839506172837,25.74074074074073,0)" xlink:href="#v"/><use transform="matrix(0.06172839506172837,0,0,0.06172839506172837,38.0864197530864,0)" xlink:href="#am"/><use transform="matrix(0.06172839506172837,0,0,0.06172839506172837,50.43209876543207,0)" xlink:href="#H"/></g><g id="s"><use transform="matrix(0.05555555555555555,0,0,0.05555555555555555,0,0)" xlink:href="#T"/><use transform="matrix(0.05555555555555555,0,0,0.05555555555555555,13.333333333333332,0)" xlink:href="#Y"/><use transform="matrix(0.05555555555555555,0,0,0.05555555555555555,18.888888888888886,0)" xlink:href="#ak"/><use transform="matrix(0.05555555555555555,0,0,0.05555555555555555,30,0)" xlink:href="#Q"/><use transform="matrix(0.05555555555555555,0,0,0.05555555555555555,36.61111111111111,0)" xlink:href="#Y"/></g><path d="M127 0L80-88 50-66 37 0H6l51-261h31L57-100l99-90h39l-93 82L161 0h-34" id="an"/><path d="M188 0h-37l-8-164L71 0H34L18-190h31l8 164 75-164h34l8 164 74-164h31" id="ao"/><g id="t"><use transform="matrix(0.05555555555555555,0,0,0.05555555555555555,0,0)" xlink:href="#S"/><use transform="matrix(0.05555555555555555,0,0,0.05555555555555555,18.833333333333332,0)" xlink:href="#J"/><use transform="matrix(0.05555555555555555,0,0,0.05555555555555555,29.944444444444443,0)" xlink:href="#Q"/><use transform="matrix(0.05555555555555555,0,0,0.05555555555555555,36.55555555555556,0)" xlink:href="#an"/><use transform="matrix(0.05555555555555555,0,0,0.05555555555555555,46.55555555555556,0)" xlink:href="#ae"/><use transform="matrix(0.05555555555555555,0,0,0.05555555555555555,52.111111111111114,0)" xlink:href="#N"/><use transform="matrix(0.05555555555555555,0,0,0.05555555555555555,56.5,0)" xlink:href="#J"/><use transform="matrix(0.05555555555555555,0,0,0.05555555555555555,67.61111111111111,0)" xlink:href="#ao"/></g></defs></g></svg>