<svg xmlns="http://www.w3.org/2000/svg" xmlns:xlink="http://www.w3.org/1999/xlink" xmlns:lucid="lucid" width="1880" height="1887.67"><g transform="translate(60 -18.333)" lucid:page-tab-id="0_0"><path d="M700 102.17v2m0 4v3.98m0 4v4m0 3.98v4m0 4v4m0 3.98v4m0 4v4m0 4v3.98m0 4v4m0 3.98v4m0 4v4m0 3.98v4m0 4V200m0 4v4m0 3.98v4m0 4v4m0 3.98v4m0 4v3.98m0 4v4m0 3.98v4m0 4v4m0 3.98v4m0 4v3.98m0 4v4m0 4v3.98m0 4v4m0 3.98v4m0 4v3.98m0 4v4m0 4v3.98m0 4v4m0 3.98v4m0 4v3.98m0 4v4m0 4v3.98m0 4v4m0 3.98v4m0 4v4m0 3.98v4m0 4v3.98m0 4v4m0 3.98v4m0 4v4m0 3.98v4m0 4v3.98m0 4v4m0 3.98v4m0 4v4m0 3.98v4m0 4v3.98m0 4v4m0 4v3.98m0 4v4m0 3.98v4m0 4v3.98m0 4v4m0 4v3.98m0 4v4m0 3.98v4m0 4v3.98m0 4v4m0 4v3.98m0 4v4m0 3.98v4m0 4v4m0 3.98v4m0 4v3.98m0 4v4m0 3.98v4m0 4v4m0 3.98v4m0 4v3.98m0 4v4m0 3.98v4m0 4v4m0 3.98v4m0 4v3.98m0 4v4m0 4v3.98m0 4v4m0 3.98v4m0 4v3.98m0 4v4m0 4v3.98m0 4v4m0 3.98v4m0 4v3.98m0 4v4m0 4v3.98m0 4v4m0 3.98v4m0 4v4m0 3.98v4m0 4v3.98m0 4v4m0 3.98v4m0 4v4m0 3.98v4m0 4v4m0 4v4m0 3.98v4m0 4v4m0 3.98v4m0 4v3.98m0 4v4m0 4v3.98m0 4v4m0 3.98v4m0 4v3.98m0 4v4m0 4v3.98m0 4v4m0 3.98v4m0 4v3.98m0 4v4m0 4v3.98m0 4v4m0 3.98v4m0 4v4m0 3.98v4m0 4v3.98m0 4v4m0 3.98v4m0 4v4m0 3.98v4m0 4v3.98m0 4v4m0 3.98v4m0 4v4m0 3.98v4m0 4v3.98m0 4v4m0 4v3.98m0 4v4m0 3.98v4m0 4v3.98m0 4v4m0 4v3.98m0 4v4m0 3.98v4m0 4v3.98m0 4v4m0 4v3.98m0 4v4m0 3.98v4m0 4v4m0 3.98v4m0 4v3.98m0 4v4m0 3.98v4m0 4v4m0 3.98v4m0 4v3.98m0 4v4m0 3.98v4m0 4v4m0 3.98v4m0 4v3.98m0 4v4m0 4v3.98m0 4v4m0 3.98v4m0 4v3.98m0 4v4m0 4v3.98m0 4v4m0 3.98v4m0 4v3.98m0 4v4m0 4v3.98m0 4v4m0 3.98v4m0 4v4m0 3.98v4m0 4v3.98m0 4v4m0 3.98v4m0 4v4m0 3.98v4m0 4v3.98m0 4v4m0 3.98v4m0 4v4m0 3.98v4m0 4v3.98m0 4v4m0 4v3.98m0 4v4m0 3.98v4m0 4v3.98m0 4v4m0 4v3.98m0 4v4m0 3.98v4m0 4v3.98m0 4v4m0 4v3.98m0 4v4m0 3.98v4m0 4v4m0 3.98v4m0 4v3.98m0 4v4m0 3.98v4m0 4v4m0 3.98v4m0 4v3.98m0 4v4m0 3.98v4m0 4v4m0 3.98v4m0 4v3.98m0 4v4m0 4v3.98m0 4v4m0 3.98v4m0 4v3.98m0 4v4m0 4v3.98m0 4v4m0 3.98v4m0 4v3.98m0 4v4m0 4v3.98m0 4v4m0 3.98v2" stroke="#ccc" fill="none"/><path d="M700.5 102.18h-1v-.5h1" fill="#ccc"/><path d="M700 1899.5v.5M300 100.5v2m0 4v4m0 4v4m0 4v4m0 3.98v4m0 4v4m0 4v4m0 4v4m0 4v3.98m0 4v4m0 4v4m0 4v4m0 4v4m0 3.98v4m0 4v4m0 4v4m0 4v4m0 4v3.98m0 4v4m0 4v4m0 4v4m0 4v4m0 3.98v4m0 4v4m0 4v4m0 4v4m0 4v3.98m0 4v4m0 4v4m0 4v4m0 4v4m0 3.98v4m0 4v4m0 4v4m0 4v4m0 4v3.98m0 4v4m0 4v4m0 4v4m0 4v4m0 3.98v4m0 4v4m0 4v4m0 4v4m0 4v3.98m0 4v4m0 4v4m0 4v4m0 4v4m0 3.98v4m0 4v4m0 4v4m0 4v4m0 4v3.98m0 4v4m0 4v4m0 4v4m0 4v4m0 3.98v4m0 4v4m0 4v4m0 4v4m0 4v3.98m0 4v4m0 4v4m0 4v4m0 4v4m0 3.98v4m0 4v4m0 4v4m0 4v4m0 4v3.98m0 4v4m0 4v4m0 4v4m0 4v4m0 3.98v4m0 4v4m0 4v4m0 4v4m0 4v3.98m0 4v4m0 4v4m0 4v4m0 4v4m0 3.98v4m0 4v4m0 4v4m0 4v4m0 4v3.98m0 4v4m0 4v4m0 4v4m0 4v4m0 3.98v4m0 4v4m0 4v4m0 4v4m0 4v3.98m0 4v4m0 4v4m0 4v4m0 4v4m0 3.98v4m0 4v4m0 4v4m0 4v4m0 4V958m0 4v4m0 4v4m0 4v4m0 4v4m0 3.98v4m0 4v4m0 4v4m0 4v4m0 4v3.98m0 4v4m0 4v4m0 4v4m0 4v4m0 3.98v4m0 4v4m0 4v4m0 4v4m0 4v3.98m0 4v4m0 4v4m0 4v4m0 4v4m0 3.98v4m0 4v4m0 4v4m0 4v4m0 4v3.98m0 4v4m0 4v4m0 4v4m0 4v4m0 3.98v4m0 4v4m0 4v4m0 4v4m0 4v3.98m0 4v4m0 4v4m0 4v4m0 4v4m0 3.98v4m0 4v4m0 4v4m0 4v4m0 4v3.98m0 4v4m0 4v4m0 4v4m0 4v4m0 3.98v4m0 4v4m0 4v4m0 4v4m0 4v3.98m0 4v4m0 4v4m0 4v4m0 4v4m0 3.98v4m0 4v4m0 4v4m0 4v4m0 4v3.98m0 4v4m0 4v4m0 4v4m0 4v4m0 3.98v4m0 4v4m0 4v4m0 4v4m0 4v3.98m0 4v4m0 4v4m0 4v4m0 4v4m0 3.98v4m0 4v4m0 4v4m0 4v4m0 4v3.98m0 4v4m0 4v4m0 4v4m0 4v4m0 3.98v4m0 4v4m0 4v4m0 4v4m0 4v3.98m0 4v4m0 4v4m0 4v4m0 4v4m0 3.98v4m0 4v4m0 4v4m0 4v4m0 4v3.98m0 4v4m0 4v4m0 4v4m0 4v4m0 3.98v4m0 4v4m0 4v4m0 4v4m0 4v3.98m0 4v4m0 4v4m0 4v4m0 4v4m0 3.98v4m0 4v4m0 4v4m0 4v4m0 4v3.98m0 4v2" stroke="#ccc" fill="none"/><path d="M300.5 100.5h-1v-.5h1" fill="#ccc"/><path d="M300 1899.5v.5m800-1799.5v2m0 4v4m0 4v4m0 4v4m0 3.98v4m0 4v4m0 4v4m0 4v4m0 4v3.98m0 4v4m0 4v4m0 4v4m0 4v4m0 3.98v4m0 4v4m0 4v4m0 4v4m0 4v3.98m0 4v4m0 4v4m0 4v4m0 4v4m0 3.98v4m0 4v4m0 4v4m0 4v4m0 4v3.98m0 4v4m0 4v4m0 4v4m0 4v4m0 3.98v4m0 4v4m0 4v4m0 4v4m0 4v3.98m0 4v4m0 4v4m0 4v4m0 4v4m0 3.98v4m0 4v4m0 4v4m0 4v4m0 4v3.98m0 4v4m0 4v4m0 4v4m0 4v4m0 3.98v4m0 4v4m0 4v4m0 4v4m0 4v3.98m0 4v4m0 4v4m0 4v4m0 4v4m0 3.98v4m0 4v4m0 4v4m0 4v4m0 4v3.98m0 4v4m0 4v4m0 4v4m0 4v4m0 3.98v4m0 4v4m0 4v4m0 4v4m0 4v3.98m0 4v4m0 4v4m0 4v4m0 4v4m0 3.98v4m0 4v4m0 4v4m0 4v4m0 4v3.98m0 4v4m0 4v4m0 4v4m0 4v4m0 3.98v4m0 4v4m0 4v4m0 4v4m0 4v3.98m0 4v4m0 4v4m0 4v4m0 4v4m0 3.98v4m0 4v4m0 4v4m0 4v4m0 4v3.98m0 4v4m0 4v4m0 4v4m0 4v4m0 3.98v4m0 4v4m0 4v4m0 4v4m0 4V958m0 4v4m0 4v4m0 4v4m0 4v4m0 3.98v4m0 4v4m0 4v4m0 4v4m0 4v3.98m0 4v4m0 4v4m0 4v4m0 4v4m0 3.98v4m0 4v4m0 4v4m0 4v4m0 4v3.98m0 4v4m0 4v4m0 4v4m0 4v4m0 3.98v4m0 4v4m0 4v4m0 4v4m0 4v3.98m0 4v4m0 4v4m0 4v4m0 4v4m0 3.98v4m0 4v4m0 4v4m0 4v4m0 4v3.98m0 4v4m0 4v4m0 4v4m0 4v4m0 3.98v4m0 4v4m0 4v4m0 4v4m0 4v3.98m0 4v4m0 4v4m0 4v4m0 4v4m0 3.98v4m0 4v4m0 4v4m0 4v4m0 4v3.98m0 4v4m0 4v4m0 4v4m0 4v4m0 3.98v4m0 4v4m0 4v4m0 4v4m0 4v3.98m0 4v4m0 4v4m0 4v4m0 4v4m0 3.98v4m0 4v4m0 4v4m0 4v4m0 4v3.98m0 4v4m0 4v4m0 4v4m0 4v4m0 3.98v4m0 4v4m0 4v4m0 4v4m0 4v3.98m0 4v4m0 4v4m0 4v4m0 4v4m0 3.98v4m0 4v4m0 4v4m0 4v4m0 4v3.98m0 4v4m0 4v4m0 4v4m0 4v4m0 3.98v4m0 4v4m0 4v4m0 4v4m0 4v3.98m0 4v4m0 4v4m0 4v4m0 4v4m0 3.98v4m0 4v4m0 4v4m0 4v4m0 4v3.98m0 4v4m0 4v4m0 4v4m0 4v4m0 3.98v4m0 4v4m0 4v4m0 4v4m0 4v3.98m0 4v2" stroke="#ccc" fill="none"/><path d="M1100.5 100.5h-1v-.5h1" fill="#ccc"/><path d="M1100 1899.5v.5m400-1799.5v2m0 4v4.02m0 4v4.02m0 4v4m0 4.02v4m0 4.02v4m0 4v4.02m0 4v4.02m0 4v4m0 4.02v4m0 4.02v4m0 4v4.02m0 4v4.02m0 4v4m0 4.02v4m0 4.02v4m0 4v4.02m0 4v4.02m0 4v4m0 4.02v4m0 4.02v4m0 4v4.02m0 4v4.02m0 4v4m0 4.02v4m0 4.02v4m0 4v4.02m0 4v4.02m0 4v4m0 4.02v4m0 4.02v4m0 4V351m0 4v4.02m0 4v4m0 4.02v4m0 4.02v4m0 4v4.02m0 4v4.02m0 4v4m0 4.02v4m0 4.02v4m0 4v4.02m0 4v4.02m0 4v4m0 4.02v4m0 4.02v4m0 4v4.02m0 4v4.02m0 4v4m0 4.02v4m0 4.02v4m0 4v4.02m0 4v4.02m0 4v4m0 4.02v4m0 4.02v4m0 4v4.02m0 4v4.02m0 4v4m0 4.02v4m0 4.02v4m0 4v4.02m0 4v4.02m0 4v4m0 4.02v4m0 4.02v4m0 4v4.02m0 4v4.02m0 4v4m0 4.02v4m0 4.02v4m0 4.02v4m0 4v4.02m0 4v4.02m0 4v4m0 4.02v4m0 4.02v4m0 4v4.02m0 4v4.02m0 4v4m0 4.02v4m0 4.02v4m0 4v4.02m0 4v4.02m0 4v4m0 4.02v4m0 4.02v4m0 4v4.02m0 4v4.02m0 4v4m0 4.02v4m0 4.02v4m0 4V840m0 4v4m0 4v4m0 4.02v4m0 4.02v4m0 4v4.02m0 4v4.02m0 4v4m0 4.02v4m0 4.02v4m0 4v4.02m0 4v4.02m0 4v4m0 4.02v4m0 4.02v4m0 4v4.02m0 4v4.02m0 4v4m0 4.02v4m0 4.02v4m0 4v4.02m0 4v4.02m0 4v4m0 4.02v4m0 4.02v4m0 4v4.02m0 4v4.02m0 4v4m0 4.02v4m0 4.02v4m0 4v4.02m0 4v4.02m0 4v4m0 4.02v4m0 4.02v4m0 4v4.02m0 4v4.02m0 4v4m0 4.02v4m0 4.02v4m0 4v4.02m0 4v4.02m0 4v4m0 4.02v4m0 4.02v4m0 4v4.02m0 4v4.02m0 4v4m0 4.02v4m0 4.02v4m0 4v4.02m0 4v4.02m0 4v4m0 4.02v4m0 4.02v4m0 4v4.02m0 4v4.02m0 4v4m0 4.02v4m0 4.02v4m0 4v4.02m0 4v4.02m0 4v4m0 4.02v4m0 4.02v4m0 4v4.02m0 4v4.02m0 4v4m0 4.02v4m0 4.02v4m0 4v4.02m0 4v4.02m0 4v4.02m0 4v4m0 4.02v4m0 4.02v4m0 4v4.02m0 4v4.02m0 4v4m0 4.02v4m0 4.02v4m0 4v4.02m0 4v4.02m0 4v4m0 4.02v4m0 4.02v4m0 4v4.02m0 4v4.02m0 4v4m0 4.02v4m0 4.02v4m0 4v4.02m0 4v4.02m0 4v4m0 4.02v4m0 4.02v2" stroke="#ccc" fill="none"/><path d="M1500.5 100.5h-1v-.5h1" fill="#ccc"/><path d="M1500 1599.5v.5" stroke="#ccc" fill="none"/><path d="M720 200c0 11.05-8.95 20-20 20s-20-8.95-20-20 8.95-20 20-20 20 8.95 20 20z" stroke="#333" fill="#fff"/><path d="M360 346c0-3.3 2.7-6 6-6h268c3.3 0 6 2.7 6 6v108c0 3.3-2.7 6-6 6H366c-3.3 0-6-2.7-6-6z" fill="none"/><use xlink:href="#a" transform="translate(371.173 376.528)"/><use xlink:href="#b" transform="translate(485.802 376.528)"/><use xlink:href="#c" transform="translate(551.235 376.528)"/><use xlink:href="#d" transform="translate(610.309 376.528)"/><use xlink:href="#e" transform="translate(367.5 403.194)"/><use xlink:href="#f" transform="translate(474.784 403.194)"/><use xlink:href="#g" transform="translate(520.34 403.194)"/><use xlink:href="#h" transform="translate(454.938 429.861)"/><use xlink:href="#i" transform="translate(479.63 429.861)"/><path d="M1160 566c0-3.3 2.7-6 6-6h228c3.3 0 6 2.7 6 6v68c0 3.3-2.7 6-6 6h-228c-3.3 0-6-2.7-6-6z" fill="none"/><use xlink:href="#j" transform="translate(1192.5 591.528)"/><use xlink:href="#k" transform="translate(1299.784 591.528)"/><use xlink:href="#l" transform="translate(1181.327 618.194)"/><use xlink:href="#h" transform="translate(1288.55 618.194)"/><use xlink:href="#i" transform="translate(1313.24 618.194)"/><path d="M360 566c0-3.3 2.7-6 6-6h268c3.3 0 6 2.7 6 6v68c0 3.3-2.7 6-6 6H366c-3.3 0-6-2.7-6-6z" fill="none"/><use xlink:href="#a" transform="translate(393.95 582.778)"/><use xlink:href="#m" transform="translate(508.58 582.778)"/><use xlink:href="#n" transform="translate(569.012 582.778)"/><use xlink:href="#o" transform="translate(377.716 609.444)"/><use xlink:href="#p" transform="translate(446.728 609.444)"/><use xlink:href="#q" transform="translate(477.593 609.444)"/><use xlink:href="#r" transform="translate(514.63 609.444)"/><use xlink:href="#s" transform="translate(566.42 609.444)"/><use xlink:href="#t" transform="translate(464.846 636.111)"/><path d="M360 761c0-3.3 2.7-6 6-6h268c3.3 0 6 2.7 6 6v78c0 3.3-2.7 6-6 6H366c-3.3 0-6-2.7-6-6z" fill="none"/><use xlink:href="#u" transform="translate(389.444 777.778)"/><use xlink:href="#v" transform="translate(441.235 777.778)"/><use xlink:href="#w" transform="translate(503.272 777.778)"/><use xlink:href="#x" transform="translate(373.056 804.444)"/><use xlink:href="#m" transform="translate(487.685 804.444)"/><use xlink:href="#y" transform="translate(548.117 804.444)"/><use xlink:href="#z" transform="translate(576.389 804.444)"/><use xlink:href="#A" transform="translate(408.827 831.111)"/><use xlink:href="#B" transform="translate(496.42 831.111)"/><use xlink:href="#C" transform="translate(519.815 831.111)"/><path d="M360 1566c0-3.3 2.7-6 6-6h268c3.3 0 6 2.7 6 6v68c0 3.3-2.7 6-6 6H366c-3.3 0-6-2.7-6-6z" fill="none"/><use xlink:href="#D" transform="translate(374.198 1591.653)"/><use xlink:href="#E" transform="translate(498.827 1591.653)"/><use xlink:href="#F" transform="translate(567.901 1591.653)"/><use xlink:href="#G" transform="translate(438.95 1618.32)"/><use xlink:href="#H" transform="translate(461.111 1618.32)"/><path d="M360 1366c0-3.3 2.7-6 6-6h268c3.3 0 6 2.7 6 6v68c0 3.3-2.7 6-6 6H366c-3.3 0-6-2.7-6-6z" fill="none"/><use xlink:href="#I" transform="translate(389.66 1404.965)"/><use xlink:href="#J" transform="translate(420.401 1404.965)"/><use xlink:href="#K" transform="translate(520.34 1404.965)"/><path d="M540 44.33c0-3.3 2.7-6 6-6h308c3.3 0 6 2.7 6 6v51.34c0 3.3-2.7 6-6 6H546c-3.3 0-6-2.7-6-6z" fill="none"/><use xlink:href="#D" transform="translate(548.92 74.611)"/><use xlink:href="#E" transform="translate(673.55 74.611)"/><use xlink:href="#L" transform="translate(742.623 74.611)"/><path d="M1000 46c0-3.3 2.7-6 6-6h188c3.3 0 6 2.7 6 6v48c0 3.3-2.7 6-6 6h-188c-3.3 0-6-2.7-6-6z" fill="none"/><use xlink:href="#M" transform="translate(1049.444 75.278)"/><path d="M1400 46c0-3.3 2.7-6 6-6h188c3.3 0 6 2.7 6 6v48c0 3.3-2.7 6-6 6h-188c-3.3 0-6-2.7-6-6z" fill="none"/><use xlink:href="#N" transform="translate(1442.685 75.278)"/><path d="M720 400c0 11.05-8.95 20-20 20s-20-8.95-20-20 8.95-20 20-20 20 8.95 20 20zM320 200c0 11.05-8.95 20-20 20s-20-8.95-20-20 8.95-20 20-20 20 8.95 20 20z" stroke="#333" fill="#fff"/><path d="M200 46c0-3.3 2.7-6 6-6h188c3.3 0 6 2.7 6 6v48c0 3.3-2.7 6-6 6H206c-3.3 0-6-2.7-6-6z" fill="none"/><use xlink:href="#O" transform="translate(252.53 75.278)"/><path d="M321 200h342.12" stroke="#333" fill="none"/><path d="M321 200.5h-.56l.06-.48-.02-.52h.53" fill="#333"/><path d="m677.88 200-14.26 4.64v-9.28z" stroke="#333" fill="#333"/><path d="M700 221v142.12" stroke="#333" fill="none"/><path d="m699.98 220.5.52-.02v.53h-1v-.56" fill="#333"/><path d="m700 377.88-4.64-14.26h9.28z" stroke="#333" fill="#333"/><path d="M721 400h342.12" stroke="#333" fill="none"/><path d="M721 400.5h-.56l.06-.48-.02-.52h.53" fill="#333"/><path d="m1077.88 400-14.26 4.64v-9.28z" stroke="#333" fill="#333"/><path d="M1120 400c0 11.05-8.95 20-20 20s-20-8.95-20-20 8.95-20 20-20 20 8.95 20 20zm0 200c0 11.05-8.95 20-20 20s-20-8.95-20-20 8.95-20 20-20 20 8.95 20 20zm-400 0c0 11.05-8.95 20-20 20s-20-8.95-20-20 8.95-20 20-20 20 8.95 20 20zm0 200c0 11.05-8.95 20-20 20s-20-8.95-20-20 8.95-20 20-20 20 8.95 20 20z" stroke="#333" fill="#fff"/><path d="M1100 421v142.12" stroke="#333" fill="none"/><path d="m1099.98 420.5.52-.02v.53h-1v-.56" fill="#333"/><path d="m1100 577.88-4.64-14.26h9.28z" stroke="#333" fill="#333"/><path d="M1079 600H736.9" stroke="#333" fill="none"/><path d="m1079.5 599.98.02.52h-.53v-1h.56" fill="#333"/><path d="m722.12 600 14.27-4.64v9.28z" stroke="#333" fill="#333"/><path d="M700 621v142.12" stroke="#333" fill="none"/><path d="m699.98 620.5.52-.02v.53h-1v-.56" fill="#333"/><path d="m700 777.88-4.64-14.26h9.28z" stroke="#333" fill="#333"/><path d="M720 1000c0 11.05-8.95 20-20 20s-20-8.95-20-20 8.95-20 20-20 20 8.95 20 20z" stroke="#333" fill="#fff"/><path d="M-40 166c0-3.3 2.7-6 6-6h268c3.3 0 6 2.7 6 6v68c0 3.3-2.7 6-6 6H-34c-3.3 0-6-2.7-6-6z" fill="none"/><use xlink:href="#P" transform="translate(-10.37 191.528)"/><use xlink:href="#m" transform="translate(90.74 191.528)"/><use xlink:href="#Q" transform="translate(151.173 191.528)"/><use xlink:href="#R" transform="translate(169.691 191.528)"/><use xlink:href="#S" transform="translate(6.235 218.194)"/><use xlink:href="#T" transform="translate(130.864 218.194)"/><path d="M140 947.67c0-3.32 2.7-6 6-6h488c3.3 0 6 2.68 6 6v104.66c0 3.32-2.7 6-6 6H146c-3.3 0-6-2.68-6-6z" fill="none"/><use xlink:href="#a" transform="translate(191.512 964.444)"/><use xlink:href="#m" transform="translate(306.142 964.444)"/><use xlink:href="#U" transform="translate(366.574 964.444)"/><use xlink:href="#o" transform="translate(409.784 964.444)"/><use xlink:href="#p" transform="translate(478.796 964.444)"/><use xlink:href="#y" transform="translate(509.66 964.444)"/><use xlink:href="#z" transform="translate(537.932 964.444)"/><use xlink:href="#V" transform="translate(193.272 991.111)"/><use xlink:href="#W" transform="translate(299.383 991.111)"/><use xlink:href="#X" transform="translate(343.765 991.111)"/><use xlink:href="#Y" transform="translate(378.21 991.111)"/><use xlink:href="#Z" transform="translate(468.333 991.111)"/><use xlink:href="#aa" transform="translate(555.864 991.111)"/><use xlink:href="#ab" transform="translate(146.481 1017.778)"/><use xlink:href="#ac" transform="translate(258.642 1017.778)"/><use xlink:href="#ad" transform="translate(342.53 1017.778)"/><use xlink:href="#c" transform="translate(373.395 1017.778)"/><use xlink:href="#h" transform="translate(432.47 1017.778)"/><use xlink:href="#q" transform="translate(457.16 1017.778)"/><use xlink:href="#ae" transform="translate(494.198 1017.778)"/><use xlink:href="#d" transform="translate(615 1017.778)"/><use xlink:href="#af" transform="translate(300.03 1044.444)"/><use xlink:href="#ag" transform="translate(359.167 1044.444)"/><path d="M1520 1000c0 11.05-8.95 20-20 20s-20-8.95-20-20 8.95-20 20-20 20 8.95 20 20z" stroke="#333" fill="#fff"/><path d="M721 1000h742.12" stroke="#333" fill="none"/><path d="M721 1000.5h-.56l.06-.48-.02-.52h.53" fill="#333"/><path d="m1477.88 1000-14.26 4.64v-9.28z" stroke="#333" fill="#333"/><path d="M700 821v142.12" stroke="#333" fill="none"/><path d="m699.98 820.5.52-.02v.53h-1v-.56" fill="#333"/><path d="m700 977.88-4.64-14.26h9.28z" stroke="#333" fill="#333"/><path d="M1520 1200c0 11.05-8.95 20-20 20s-20-8.95-20-20 8.95-20 20-20 20 8.95 20 20zm-800 0c0 11.05-8.95 20-20 20s-20-8.95-20-20 8.95-20 20-20 20 8.95 20 20z" stroke="#333" fill="#fff"/><path d="M1479 1200H736.9" stroke="#333" fill="none"/><path d="m1479.5 1199.98.02.52h-.53v-1h.56" fill="#333"/><path d="m722.12 1200 14.27-4.64v9.28z" stroke="#333" fill="#333"/><path d="M1500 1021v142.12" stroke="#333" fill="none"/><path d="m1499.98 1020.5.52-.02v.53h-1v-.56" fill="#333"/><path d="m1500 1177.88-4.64-14.26h9.28z" stroke="#333" fill="#333"/><path d="M720 1400c0 11.05-8.95 20-20 20s-20-8.95-20-20 8.95-20 20-20 20 8.95 20 20zm0 200c0 11.05-8.95 20-20 20s-20-8.95-20-20 8.95-20 20-20 20 8.95 20 20zm0 200c0 11.05-8.95 20-20 20s-20-8.95-20-20 8.95-20 20-20 20 8.95 20 20zm-400 0c0 11.05-8.95 20-20 20s-20-8.95-20-20 8.95-20 20-20 20 8.95 20 20z" stroke="#333" fill="#fff"/><path d="M700 1221v142.12" stroke="#333" fill="none"/><path d="m699.98 1220.5.52-.02v.53h-1v-.56" fill="#333"/><path d="m700 1377.88-4.64-14.26h9.28z" stroke="#333" fill="#333"/><path d="M700 1421v142.12" stroke="#333" fill="none"/><path d="m699.98 1420.5.52-.02v.53h-1v-.56" fill="#333"/><path d="m700 1577.88-4.64-14.26h9.28z" stroke="#333" fill="#333"/><path d="M700 1621v142.12" stroke="#333" fill="none"/><path d="m699.98 1620.5.52-.02v.53h-1v-.56" fill="#333"/><path d="m700 1777.88-4.64-14.26h9.28z" stroke="#333" fill="#333"/><path d="M679 1800H336.88" stroke="#333" fill="none"/><path d="m679.5 1799.98.02.52H679v-1h.56" fill="#333"/><path d="m322.12 1800 14.26-4.64v9.28z" stroke="#333" fill="#333"/><path d="M-20 1766c0-3.3 2.7-6 6-6h268c3.3 0 6 2.7 6 6v68c0 3.3-2.7 6-6 6H-14c-3.3 0-6-2.7-6-6z" fill="none"/><use xlink:href="#P" transform="translate(-3.889 1804.653)"/><use xlink:href="#ah" transform="translate(97.222 1804.653)"/><use xlink:href="#ai" transform="translate(185.988 1804.653)"/><path d="M760 1746c0-3.3 2.7-6 6-6h288c3.3 0 6 2.7 6 6v108c0 3.3-2.7 6-6 6H766c-3.3 0-6-2.7-6-6z" fill="none"/><use xlink:href="#a" transform="translate(770.123 1790.278)"/><use xlink:href="#aj" transform="translate(884.753 1790.278)"/><use xlink:href="#q" transform="translate(954.938 1790.278)"/><use xlink:href="#F" transform="translate(991.975 1790.278)"/><use xlink:href="#h" transform="translate(831.667 1816.944)"/><use xlink:href="#q" transform="translate(856.358 1816.944)"/><use xlink:href="#ak" transform="translate(893.395 1816.944)"/><path d="M759.5 1800H721" stroke="#333" fill="none"/><path d="M760 1800.5h-.5v-1h.5m-39 1h-.56l.06-.48-.02-.52h.53" fill="#333"/><path d="M1560 1166c0-3.3 2.7-6 6-6h228c3.3 0 6 2.7 6 6v68c0 3.3-2.7 6-6 6h-228c-3.3 0-6-2.7-6-6z" fill="none"/><use xlink:href="#al" transform="translate(1588.179 1191.528)"/><use xlink:href="#am" transform="translate(1701.636 1191.528)"/><use xlink:href="#ag" transform="translate(1619.599 1218.194)"/><path d="M240.5 200H279" stroke="#333" fill="none"/><path d="M240.5 200.5h-.5v-1h.5m39 .48.02.52H279v-1h.56" fill="#333"/><path d="M640.5 400H679" stroke="#333" fill="none"/><path d="M640.5 400.5h-.5v-1h.5m39 .48.02.52H679v-1h.56" fill="#333"/><path d="M640.5 1600H679" stroke="#333" fill="none"/><path d="M640.5 1600.5h-.5v-1h.5m39 .48.02.52H679v-1h.56" fill="#333"/><path d="M640.5 1400H679" stroke="#333" fill="none"/><path d="M640.5 1400.5h-.5v-1h.5m39 .48.02.52H679v-1h.56" fill="#333"/><path d="M640.5 1000H679" stroke="#333" fill="none"/><path d="M640.5 1000.5h-.5v-1h.5m39 .48.02.52H679v-1h.56" fill="#333"/><path d="M640.5 800H679" stroke="#333" fill="none"/><path d="M640.5 800.5h-.5v-1h.5m39 .48.02.52H679v-1h.56" fill="#333"/><path d="M640.5 600H679" stroke="#333" fill="none"/><path d="M640.5 600.5h-.5v-1h.5m39 .48.02.52H679v-1h.56" fill="#333"/><path d="M1559.5 1200H1521" stroke="#333" fill="none"/><path d="M1560 1200.5h-.5v-1h.5m-39 1h-.56l.06-.48-.02-.52h.53" fill="#333"/><path d="M1159.5 600H1121" stroke="#333" fill="none"/><path d="M1160 600.5h-.5v-1h.5m-39 1h-.56l.06-.48-.02-.52h.53" fill="#333"/><defs><g id="a"><use transform="rotate(.413) scale(.06173)" xlink:href="#an"/><use transform="matrix(.06173 0 0 .06173 14.815 0)" xlink:href="#ao"/><use transform="matrix(.06173 0 0 .06173 27.16 0)" xlink:href="#ao"/><use transform="matrix(.06173 0 0 .06173 39.506 0)" xlink:href="#ap"/><use transform="matrix(.06173 0 0 .06173 44.383 0)" xlink:href="#aq"/><use transform="matrix(.06173 0 0 .06173 49.26 0)" xlink:href="#ar"/><use transform="matrix(.06173 0 0 .06173 60.37 0)" xlink:href="#as"/><use transform="matrix(.06173 0 0 .06173 72.716 0)" xlink:href="#at"/><use transform="matrix(.06173 0 0 .06173 78.889 0)" xlink:href="#aq"/><use transform="matrix(.06173 0 0 .06173 83.765 0)" xlink:href="#au"/><use transform="matrix(.06173 0 0 .06173 96.111 0)" xlink:href="#av"/></g><g id="b"><use transform="rotate(.413) scale(.06173)" xlink:href="#aw"/><use transform="matrix(.06173 0 0 .06173 11.111 0)" xlink:href="#ax"/><use transform="matrix(.06173 0 0 .06173 23.457 0)" xlink:href="#av"/><use transform="matrix(.06173 0 0 .06173 35.802 0)" xlink:href="#ay"/><use transform="matrix(.06173 0 0 .06173 48.148 0)" xlink:href="#aw"/></g><g id="c"><use transform="rotate(.413) scale(.06173)" xlink:href="#ax"/><use transform="matrix(.06173 0 0 .06173 12.346 0)" xlink:href="#az"/><use transform="matrix(.06173 0 0 .06173 30.802 0)" xlink:href="#as"/><use transform="matrix(.06173 0 0 .06173 43.148 0)" xlink:href="#aq"/><use transform="matrix(.06173 0 0 .06173 48.025 0)" xlink:href="#ap"/></g><g id="d"><use transform="rotate(.413) scale(.06173)" xlink:href="#at"/><use transform="matrix(.06173 0 0 .06173 6.173 0)" xlink:href="#au"/></g><g id="e"><use transform="rotate(.413) scale(.06173)" xlink:href="#aA"/><use transform="matrix(.06173 0 0 .06173 15.988 0)" xlink:href="#as"/><use transform="matrix(.06173 0 0 .06173 28.333 0)" xlink:href="#av"/><use transform="matrix(.06173 0 0 .06173 40.679 0)" xlink:href="#ay"/><use transform="matrix(.06173 0 0 .06173 53.025 0)" xlink:href="#aq"/><use transform="matrix(.06173 0 0 .06173 57.901 0)" xlink:href="#ay"/><use transform="matrix(.06173 0 0 .06173 70.247 0)" xlink:href="#as"/><use transform="matrix(.06173 0 0 .06173 82.593 0)" xlink:href="#at"/><use transform="matrix(.06173 0 0 .06173 88.765 0)" xlink:href="#ax"/></g><g id="f"><use transform="rotate(.413) scale(.06173)" xlink:href="#aB"/><use transform="matrix(.06173 0 0 .06173 15.988 0)" xlink:href="#aq"/><use transform="matrix(.06173 0 0 .06173 20.864 0)" xlink:href="#at"/><use transform="matrix(.06173 0 0 .06173 27.037 0)" xlink:href="#aC"/></g><g id="g"><use transform="rotate(.413) scale(.06173)" xlink:href="#aq"/><use transform="matrix(.06173 0 0 .06173 4.877 0)" xlink:href="#av"/><use transform="matrix(.06173 0 0 .06173 17.222 0)" xlink:href="#aw"/><use transform="matrix(.06173 0 0 .06173 28.333 0)" xlink:href="#at"/><use transform="matrix(.06173 0 0 .06173 34.506 0)" xlink:href="#aD"/><use transform="matrix(.06173 0 0 .06173 41.852 0)" xlink:href="#aE"/><use transform="matrix(.06173 0 0 .06173 54.198 0)" xlink:href="#ar"/><use transform="matrix(.06173 0 0 .06173 65.309 0)" xlink:href="#at"/><use transform="matrix(.06173 0 0 .06173 71.481 0)" xlink:href="#aq"/><use transform="matrix(.06173 0 0 .06173 76.358 0)" xlink:href="#au"/><use transform="matrix(.06173 0 0 .06173 88.704 0)" xlink:href="#av"/><use transform="matrix(.06173 0 0 .06173 101.05 0)" xlink:href="#aw"/></g><g id="h"><use transform="rotate(.413) scale(.06173)" xlink:href="#at"/><use transform="matrix(.06173 0 0 .06173 6.173 0)" xlink:href="#au"/></g><g id="i"><use transform="rotate(.413) scale(.06173)" xlink:href="#as"/><use transform="matrix(.06173 0 0 .06173 12.346 0)" xlink:href="#ar"/><use transform="matrix(.06173 0 0 .06173 23.457 0)" xlink:href="#ar"/><use transform="matrix(.06173 0 0 .06173 34.568 0)" xlink:href="#ax"/><use transform="matrix(.06173 0 0 .06173 46.914 0)" xlink:href="#ao"/><use transform="matrix(.06173 0 0 .06173 59.26 0)" xlink:href="#at"/></g><g id="j"><use transform="rotate(.413) scale(.06173)" xlink:href="#aA"/><use transform="matrix(.06173 0 0 .06173 15.988 0)" xlink:href="#as"/><use transform="matrix(.06173 0 0 .06173 28.333 0)" xlink:href="#av"/><use transform="matrix(.06173 0 0 .06173 40.679 0)" xlink:href="#ay"/><use transform="matrix(.06173 0 0 .06173 53.025 0)" xlink:href="#aq"/><use transform="matrix(.06173 0 0 .06173 57.901 0)" xlink:href="#ay"/><use transform="matrix(.06173 0 0 .06173 70.247 0)" xlink:href="#as"/><use transform="matrix(.06173 0 0 .06173 82.593 0)" xlink:href="#at"/><use transform="matrix(.06173 0 0 .06173 88.765 0)" xlink:href="#ax"/></g><g id="k"><use transform="rotate(.413) scale(.06173)" xlink:href="#aF"/><use transform="matrix(.06173 0 0 .06173 6.173 0)" xlink:href="#au"/><use transform="matrix(.06173 0 0 .06173 18.519 0)" xlink:href="#ap"/><use transform="matrix(.06173 0 0 .06173 23.395 0)" xlink:href="#ap"/><use transform="matrix(.06173 0 0 .06173 28.272 0)" xlink:href="#au"/><use transform="matrix(.06173 0 0 .06173 40.617 0)" xlink:href="#aB"/><use transform="matrix(.06173 0 0 .06173 56.605 0)" xlink:href="#aw"/></g><g id="l"><use transform="rotate(.413) scale(.06173)" xlink:href="#aq"/><use transform="matrix(.06173 0 0 .06173 4.877 0)" xlink:href="#av"/><use transform="matrix(.06173 0 0 .06173 17.222 0)" xlink:href="#at"/><use transform="matrix(.06173 0 0 .06173 23.395 0)" xlink:href="#aD"/><use transform="matrix(.06173 0 0 .06173 30.74 0)" xlink:href="#aE"/><use transform="matrix(.06173 0 0 .06173 43.086 0)" xlink:href="#ar"/><use transform="matrix(.06173 0 0 .06173 54.198 0)" xlink:href="#at"/><use transform="matrix(.06173 0 0 .06173 60.37 0)" xlink:href="#aq"/><use transform="matrix(.06173 0 0 .06173 65.247 0)" xlink:href="#au"/><use transform="matrix(.06173 0 0 .06173 77.593 0)" xlink:href="#av"/><use transform="matrix(.06173 0 0 .06173 89.938 0)" xlink:href="#aw"/></g><g id="m"><use transform="rotate(.413) scale(.06173)" xlink:href="#aw"/><use transform="matrix(.06173 0 0 .06173 11.111 0)" xlink:href="#at"/><use transform="matrix(.06173 0 0 .06173 17.284 0)" xlink:href="#as"/><use transform="matrix(.06173 0 0 .06173 29.63 0)" xlink:href="#aD"/><use transform="matrix(.06173 0 0 .06173 36.975 0)" xlink:href="#at"/><use transform="matrix(.06173 0 0 .06173 43.148 0)" xlink:href="#aw"/></g><g id="n"><use transform="rotate(.413) scale(.06173)" xlink:href="#as"/><use transform="matrix(.06173 0 0 .06173 12.346 0)" xlink:href="#av"/><use transform="matrix(.06173 0 0 .06173 24.691 0)" xlink:href="#ay"/></g><g id="o"><use transform="rotate(.413) scale(.06173)" xlink:href="#as"/><use transform="matrix(.06173 0 0 .06173 12.346 0)" xlink:href="#aB"/><use transform="matrix(.06173 0 0 .06173 28.333 0)" xlink:href="#as"/><use transform="matrix(.06173 0 0 .06173 40.679 0)" xlink:href="#aq"/><use transform="matrix(.06173 0 0 .06173 45.556 0)" xlink:href="#at"/><use transform="matrix(.06173 0 0 .06173 51.728 0)" xlink:href="#aw"/></g><g id="p"><use transform="rotate(.413) scale(.06173)" xlink:href="#au"/><use transform="matrix(.06173 0 0 .06173 12.346 0)" xlink:href="#av"/></g><g id="q"><use transform="rotate(.413) scale(.06173)" xlink:href="#at"/><use transform="matrix(.06173 0 0 .06173 6.173 0)" xlink:href="#aC"/><use transform="matrix(.06173 0 0 .06173 18.519 0)" xlink:href="#ax"/></g><g id="r"><use transform="rotate(.413) scale(.06173)" xlink:href="#aG"/><use transform="matrix(.06173 0 0 .06173 14.815 0)" xlink:href="#aG"/><use transform="matrix(.06173 0 0 .06173 29.63 0)" xlink:href="#aH"/></g><g id="s"><use transform="rotate(.413) scale(.06173)" xlink:href="#aI"/><use transform="matrix(.06173 0 0 .06173 12.716 0)" xlink:href="#aD"/><use transform="matrix(.06173 0 0 .06173 20.062 0)" xlink:href="#as"/><use transform="matrix(.06173 0 0 .06173 32.407 0)" xlink:href="#ar"/><use transform="matrix(.06173 0 0 .06173 43.519 0)" xlink:href="#ax"/></g><g id="t"><use transform="rotate(.413) scale(.06173)" xlink:href="#aG"/><use transform="matrix(.06173 0 0 .06173 14.815 0)" xlink:href="#ax"/><use transform="matrix(.06173 0 0 .06173 27.16 0)" xlink:href="#as"/><use transform="matrix(.06173 0 0 .06173 39.506 0)" xlink:href="#aD"/><use transform="matrix(.06173 0 0 .06173 46.852 0)" xlink:href="#ar"/><use transform="matrix(.06173 0 0 .06173 57.963 0)" xlink:href="#aC"/></g><g id="u"><use transform="rotate(.413) scale(.06173)" xlink:href="#aG"/><use transform="matrix(.06173 0 0 .06173 14.815 0)" xlink:href="#aG"/><use transform="matrix(.06173 0 0 .06173 29.63 0)" xlink:href="#aH"/></g><g id="v"><use transform="rotate(.413) scale(.06173)" xlink:href="#aI"/><use transform="matrix(.06173 0 0 .06173 12.716 0)" xlink:href="#aD"/><use transform="matrix(.06173 0 0 .06173 20.062 0)" xlink:href="#as"/><use transform="matrix(.06173 0 0 .06173 32.407 0)" xlink:href="#ar"/><use transform="matrix(.06173 0 0 .06173 43.519 0)" xlink:href="#ax"/></g><g id="w"><use transform="rotate(.413) scale(.06173)" xlink:href="#ar"/><use transform="matrix(.06173 0 0 .06173 11.111 0)" xlink:href="#au"/><use transform="matrix(.06173 0 0 .06173 23.457 0)" xlink:href="#az"/><use transform="matrix(.06173 0 0 .06173 41.914 0)" xlink:href="#ao"/><use transform="matrix(.06173 0 0 .06173 54.26 0)" xlink:href="#ap"/><use transform="matrix(.06173 0 0 .06173 59.136 0)" xlink:href="#ax"/><use transform="matrix(.06173 0 0 .06173 71.481 0)" xlink:href="#at"/><use transform="matrix(.06173 0 0 .06173 77.654 0)" xlink:href="#ax"/><use transform="matrix(.06173 0 0 .06173 90 0)" xlink:href="#aw"/><use transform="matrix(.06173 0 0 .06173 101.111 0)" xlink:href="#aJ"/></g><g id="x"><use transform="rotate(.413) scale(.06173)" xlink:href="#an"/><use transform="matrix(.06173 0 0 .06173 14.815 0)" xlink:href="#ao"/><use transform="matrix(.06173 0 0 .06173 27.16 0)" xlink:href="#ao"/><use transform="matrix(.06173 0 0 .06173 39.506 0)" xlink:href="#ap"/><use transform="matrix(.06173 0 0 .06173 44.383 0)" xlink:href="#aq"/><use transform="matrix(.06173 0 0 .06173 49.26 0)" xlink:href="#ar"/><use transform="matrix(.06173 0 0 .06173 60.37 0)" xlink:href="#as"/><use transform="matrix(.06173 0 0 .06173 72.716 0)" xlink:href="#at"/><use transform="matrix(.06173 0 0 .06173 78.889 0)" xlink:href="#aq"/><use transform="matrix(.06173 0 0 .06173 83.765 0)" xlink:href="#au"/><use transform="matrix(.06173 0 0 .06173 96.111 0)" xlink:href="#av"/></g><g id="y"><use transform="rotate(.413) scale(.06173)" xlink:href="#as"/><use transform="matrix(.06173 0 0 .06173 12.346 0)" xlink:href="#ap"/><use transform="matrix(.06173 0 0 .06173 17.222 0)" xlink:href="#ap"/></g><g id="z"><use transform="rotate(.413) scale(.06173)" xlink:href="#au"/><use transform="matrix(.06173 0 0 .06173 12.346 0)" xlink:href="#at"/><use transform="matrix(.06173 0 0 .06173 18.519 0)" xlink:href="#aC"/><use transform="matrix(.06173 0 0 .06173 30.864 0)" xlink:href="#ax"/><use transform="matrix(.06173 0 0 .06173 43.21 0)" xlink:href="#aD"/></g><g id="A"><use transform="rotate(.413) scale(.06173)" xlink:href="#aG"/><use transform="matrix(.06173 0 0 .06173 14.815 0)" xlink:href="#ax"/><use transform="matrix(.06173 0 0 .06173 27.16 0)" xlink:href="#as"/><use transform="matrix(.06173 0 0 .06173 39.506 0)" xlink:href="#aD"/><use transform="matrix(.06173 0 0 .06173 46.852 0)" xlink:href="#ar"/><use transform="matrix(.06173 0 0 .06173 57.963 0)" xlink:href="#aC"/><use transform="matrix(.06173 0 0 .06173 70.309 0)" xlink:href="#aw"/></g><g id="B"><use transform="rotate(.413) scale(.06173)" xlink:href="#aq"/><use transform="matrix(.06173 0 0 .06173 4.877 0)" xlink:href="#av"/></g><g id="C"><use transform="rotate(.413) scale(.06173)" xlink:href="#ao"/><use transform="matrix(.06173 0 0 .06173 12.346 0)" xlink:href="#as"/><use transform="matrix(.06173 0 0 .06173 24.691 0)" xlink:href="#aD"/><use transform="matrix(.06173 0 0 .06173 32.037 0)" xlink:href="#as"/><use transform="matrix(.06173 0 0 .06173 44.383 0)" xlink:href="#ap"/><use transform="matrix(.06173 0 0 .06173 49.26 0)" xlink:href="#ap"/><use transform="matrix(.06173 0 0 .06173 54.136 0)" xlink:href="#ax"/><use transform="matrix(.06173 0 0 .06173 66.481 0)" xlink:href="#ap"/></g><g id="D"><use transform="rotate(.413) scale(.06173)" xlink:href="#aK"/><use transform="matrix(.06173 0 0 .06173 14.815 0)" xlink:href="#as"/><use transform="matrix(.06173 0 0 .06173 27.16 0)" xlink:href="#ar"/><use transform="matrix(.06173 0 0 .06173 38.272 0)" xlink:href="#aL"/><use transform="matrix(.06173 0 0 .06173 49.383 0)" xlink:href="#aM"/><use transform="matrix(.06173 0 0 .06173 61.728 0)" xlink:href="#aD"/><use transform="matrix(.06173 0 0 .06173 69.074 0)" xlink:href="#au"/><use transform="matrix(.06173 0 0 .06173 81.42 0)" xlink:href="#aE"/><use transform="matrix(.06173 0 0 .06173 93.765 0)" xlink:href="#av"/><use transform="matrix(.06173 0 0 .06173 106.111 0)" xlink:href="#ay"/></g><g id="E"><use transform="rotate(.413) scale(.06173)" xlink:href="#aA"/><use transform="matrix(.06173 0 0 .06173 15.988 0)" xlink:href="#aC"/><use transform="matrix(.06173 0 0 .06173 28.333 0)" xlink:href="#ax"/><use transform="matrix(.06173 0 0 .06173 40.679 0)" xlink:href="#ar"/><use transform="matrix(.06173 0 0 .06173 51.79 0)" xlink:href="#aL"/></g><g id="F"><use transform="rotate(.413) scale(.06173)" xlink:href="#aD"/><use transform="matrix(.06173 0 0 .06173 7.346 0)" xlink:href="#ax"/><use transform="matrix(.06173 0 0 .06173 19.691 0)" xlink:href="#ao"/><use transform="matrix(.06173 0 0 .06173 32.037 0)" xlink:href="#au"/><use transform="matrix(.06173 0 0 .06173 44.383 0)" xlink:href="#aD"/><use transform="matrix(.06173 0 0 .06173 51.728 0)" xlink:href="#at"/></g><g id="G"><use transform="rotate(.413) scale(.06173)" xlink:href="#aq"/><use transform="matrix(.06173 0 0 .06173 4.877 0)" xlink:href="#aw"/></g><g id="H"><use transform="rotate(.413) scale(.06173)" xlink:href="#aM"/><use transform="matrix(.06173 0 0 .06173 12.346 0)" xlink:href="#ax"/><use transform="matrix(.06173 0 0 .06173 24.691 0)" xlink:href="#av"/><use transform="matrix(.06173 0 0 .06173 37.037 0)" xlink:href="#ax"/><use transform="matrix(.06173 0 0 .06173 49.383 0)" xlink:href="#aD"/><use transform="matrix(.06173 0 0 .06173 56.728 0)" xlink:href="#as"/><use transform="matrix(.06173 0 0 .06173 69.074 0)" xlink:href="#at"/><use transform="matrix(.06173 0 0 .06173 75.247 0)" xlink:href="#ax"/><use transform="matrix(.06173 0 0 .06173 87.593 0)" xlink:href="#ay"/></g><g id="I"><use transform="rotate(.413) scale(.06173)" xlink:href="#an"/><use transform="matrix(.06173 0 0 .06173 14.815 0)" xlink:href="#ap"/><use transform="matrix(.06173 0 0 .06173 19.691 0)" xlink:href="#ap"/></g><g id="J"><use transform="rotate(.413) scale(.06173)" xlink:href="#aG"/><use transform="matrix(.06173 0 0 .06173 14.815 0)" xlink:href="#ax"/><use transform="matrix(.06173 0 0 .06173 27.16 0)" xlink:href="#as"/><use transform="matrix(.06173 0 0 .06173 39.506 0)" xlink:href="#aD"/><use transform="matrix(.06173 0 0 .06173 46.852 0)" xlink:href="#ar"/><use transform="matrix(.06173 0 0 .06173 57.963 0)" xlink:href="#aC"/><use transform="matrix(.06173 0 0 .06173 70.309 0)" xlink:href="#ax"/><use transform="matrix(.06173 0 0 .06173 82.654 0)" xlink:href="#aw"/></g><g id="K"><use transform="rotate(.413) scale(.06173)" xlink:href="#ar"/><use transform="matrix(.06173 0 0 .06173 11.111 0)" xlink:href="#au"/><use transform="matrix(.06173 0 0 .06173 23.457 0)" xlink:href="#az"/><use transform="matrix(.06173 0 0 .06173 41.914 0)" xlink:href="#ao"/><use transform="matrix(.06173 0 0 .06173 54.26 0)" xlink:href="#ap"/><use transform="matrix(.06173 0 0 .06173 59.136 0)" xlink:href="#ax"/><use transform="matrix(.06173 0 0 .06173 71.481 0)" xlink:href="#at"/><use transform="matrix(.06173 0 0 .06173 77.654 0)" xlink:href="#ax"/></g><g id="L"><use transform="rotate(.413) scale(.06173)" xlink:href="#an"/><use transform="matrix(.06173 0 0 .06173 14.815 0)" xlink:href="#ao"/><use transform="matrix(.06173 0 0 .06173 27.16 0)" xlink:href="#ao"/><use transform="matrix(.06173 0 0 .06173 39.506 0)" xlink:href="#ap"/><use transform="matrix(.06173 0 0 .06173 44.383 0)" xlink:href="#aq"/><use transform="matrix(.06173 0 0 .06173 49.26 0)" xlink:href="#ar"/><use transform="matrix(.06173 0 0 .06173 60.37 0)" xlink:href="#as"/><use transform="matrix(.06173 0 0 .06173 72.716 0)" xlink:href="#at"/><use transform="matrix(.06173 0 0 .06173 78.889 0)" xlink:href="#aq"/><use transform="matrix(.06173 0 0 .06173 83.765 0)" xlink:href="#au"/><use transform="matrix(.06173 0 0 .06173 96.111 0)" xlink:href="#av"/></g><g id="M"><use transform="rotate(.413) scale(.06173)" xlink:href="#aA"/><use transform="matrix(.06173 0 0 .06173 15.988 0)" xlink:href="#as"/><use transform="matrix(.06173 0 0 .06173 28.333 0)" xlink:href="#av"/><use transform="matrix(.06173 0 0 .06173 40.679 0)" xlink:href="#ay"/><use transform="matrix(.06173 0 0 .06173 53.025 0)" xlink:href="#aq"/><use transform="matrix(.06173 0 0 .06173 57.901 0)" xlink:href="#ay"/><use transform="matrix(.06173 0 0 .06173 70.247 0)" xlink:href="#as"/><use transform="matrix(.06173 0 0 .06173 82.593 0)" xlink:href="#at"/><use transform="matrix(.06173 0 0 .06173 88.765 0)" xlink:href="#ax"/></g><g id="N"><use transform="rotate(.413) scale(.06173)" xlink:href="#aN"/><use transform="matrix(.06173 0 0 .06173 15.988 0)" xlink:href="#ax"/><use transform="matrix(.06173 0 0 .06173 28.333 0)" xlink:href="#aw"/><use transform="matrix(.06173 0 0 .06173 39.444 0)" xlink:href="#ax"/><use transform="matrix(.06173 0 0 .06173 51.79 0)" xlink:href="#as"/><use transform="matrix(.06173 0 0 .06173 64.136 0)" xlink:href="#aD"/><use transform="matrix(.06173 0 0 .06173 71.481 0)" xlink:href="#ar"/><use transform="matrix(.06173 0 0 .06173 82.593 0)" xlink:href="#aC"/><use transform="matrix(.06173 0 0 .06173 94.938 0)" xlink:href="#ax"/><use transform="matrix(.06173 0 0 .06173 107.284 0)" xlink:href="#aD"/></g><g id="O"><use transform="rotate(.413) scale(.06173)" xlink:href="#aA"/><use transform="matrix(.06173 0 0 .06173 15.988 0)" xlink:href="#au"/><use transform="matrix(.06173 0 0 .06173 28.333 0)" xlink:href="#az"/><use transform="matrix(.06173 0 0 .06173 46.79 0)" xlink:href="#ao"/><use transform="matrix(.06173 0 0 .06173 59.136 0)" xlink:href="#as"/><use transform="matrix(.06173 0 0 .06173 71.481 0)" xlink:href="#av"/><use transform="matrix(.06173 0 0 .06173 83.827 0)" xlink:href="#aO"/></g><g id="P"><use transform="rotate(.413) scale(.06173)" xlink:href="#aA"/><use transform="matrix(.06173 0 0 .06173 15.988 0)" xlink:href="#au"/><use transform="matrix(.06173 0 0 .06173 28.333 0)" xlink:href="#az"/><use transform="matrix(.06173 0 0 .06173 46.79 0)" xlink:href="#ao"/><use transform="matrix(.06173 0 0 .06173 59.136 0)" xlink:href="#as"/><use transform="matrix(.06173 0 0 .06173 71.481 0)" xlink:href="#av"/><use transform="matrix(.06173 0 0 .06173 83.827 0)" xlink:href="#aO"/></g><g id="R"><use transform="rotate(.413) scale(.06173)" xlink:href="#av"/><use transform="matrix(.06173 0 0 .06173 12.346 0)" xlink:href="#ax"/><use transform="matrix(.06173 0 0 .06173 24.691 0)" xlink:href="#aB"/></g><g id="S"><use transform="rotate(.413) scale(.06173)" xlink:href="#aK"/><use transform="matrix(.06173 0 0 .06173 14.815 0)" xlink:href="#as"/><use transform="matrix(.06173 0 0 .06173 27.16 0)" xlink:href="#ar"/><use transform="matrix(.06173 0 0 .06173 38.272 0)" xlink:href="#aL"/><use transform="matrix(.06173 0 0 .06173 49.383 0)" xlink:href="#aM"/><use transform="matrix(.06173 0 0 .06173 61.728 0)" xlink:href="#aD"/><use transform="matrix(.06173 0 0 .06173 69.074 0)" xlink:href="#au"/><use transform="matrix(.06173 0 0 .06173 81.42 0)" xlink:href="#aE"/><use transform="matrix(.06173 0 0 .06173 93.765 0)" xlink:href="#av"/><use transform="matrix(.06173 0 0 .06173 106.111 0)" xlink:href="#ay"/></g><g id="T"><use transform="rotate(.413) scale(.06173)" xlink:href="#aA"/><use transform="matrix(.06173 0 0 .06173 15.988 0)" xlink:href="#aC"/><use transform="matrix(.06173 0 0 .06173 28.333 0)" xlink:href="#ax"/><use transform="matrix(.06173 0 0 .06173 40.679 0)" xlink:href="#ar"/><use transform="matrix(.06173 0 0 .06173 51.79 0)" xlink:href="#aL"/></g><g id="U"><use transform="rotate(.413) scale(.06173)" xlink:href="#as"/><use transform="matrix(.06173 0 0 .06173 12.346 0)" xlink:href="#av"/><use transform="matrix(.06173 0 0 .06173 24.691 0)" xlink:href="#ay"/></g><g id="V"><use transform="rotate(.413) scale(.06173)" xlink:href="#aG"/><use transform="matrix(.06173 0 0 .06173 14.815 0)" xlink:href="#ax"/><use transform="matrix(.06173 0 0 .06173 27.16 0)" xlink:href="#as"/><use transform="matrix(.06173 0 0 .06173 39.506 0)" xlink:href="#aD"/><use transform="matrix(.06173 0 0 .06173 46.852 0)" xlink:href="#ar"/><use transform="matrix(.06173 0 0 .06173 57.963 0)" xlink:href="#aC"/><use transform="matrix(.06173 0 0 .06173 70.309 0)" xlink:href="#ax"/><use transform="matrix(.06173 0 0 .06173 82.654 0)" xlink:href="#aw"/><use transform="matrix(.06173 0 0 .06173 93.765 0)" xlink:href="#aJ"/></g><g id="W"><use transform="rotate(.413) scale(.06173)" xlink:href="#aI"/><use transform="matrix(.06173 0 0 .06173 13.519 0)" xlink:href="#aC"/><use transform="matrix(.06173 0 0 .06173 25.864 0)" xlink:href="#ax"/></g><g id="X"><use transform="rotate(.413) scale(.06173)" xlink:href="#aF"/><use transform="matrix(.06173 0 0 .06173 6.173 0)" xlink:href="#aE"/><use transform="matrix(.06173 0 0 .06173 18.519 0)" xlink:href="#ap"/><use transform="matrix(.06173 0 0 .06173 23.395 0)" xlink:href="#ap"/></g><g id="Y"><use transform="rotate(.413) scale(.06173)" xlink:href="#ao"/><use transform="matrix(.06173 0 0 .06173 12.346 0)" xlink:href="#as"/><use transform="matrix(.06173 0 0 .06173 24.691 0)" xlink:href="#ar"/><use transform="matrix(.06173 0 0 .06173 35.802 0)" xlink:href="#aL"/><use transform="matrix(.06173 0 0 .06173 46.914 0)" xlink:href="#as"/><use transform="matrix(.06173 0 0 .06173 59.26 0)" xlink:href="#aM"/><use transform="matrix(.06173 0 0 .06173 71.605 0)" xlink:href="#ax"/></g><g id="Z"><use transform="rotate(.413) scale(.06173)" xlink:href="#aq"/><use transform="matrix(.06173 0 0 .06173 4.877 0)" xlink:href="#av"/><use transform="matrix(.06173 0 0 .06173 17.222 0)" xlink:href="#ar"/><use transform="matrix(.06173 0 0 .06173 28.333 0)" xlink:href="#ap"/><use transform="matrix(.06173 0 0 .06173 33.21 0)" xlink:href="#aE"/><use transform="matrix(.06173 0 0 .06173 45.556 0)" xlink:href="#ay"/><use transform="matrix(.06173 0 0 .06173 57.901 0)" xlink:href="#ax"/><use transform="matrix(.06173 0 0 .06173 70.247 0)" xlink:href="#aw"/></g><g id="aa"><use transform="rotate(.413) scale(.06173)" xlink:href="#at"/><use transform="matrix(.06173 0 0 .06173 6.173 0)" xlink:href="#aC"/><use transform="matrix(.06173 0 0 .06173 18.519 0)" xlink:href="#ax"/></g><g id="ab"><use transform="rotate(.413) scale(.06173)" xlink:href="#as"/><use transform="matrix(.06173 0 0 .06173 12.346 0)" xlink:href="#ao"/><use transform="matrix(.06173 0 0 .06173 24.691 0)" xlink:href="#ao"/><use transform="matrix(.06173 0 0 .06173 37.037 0)" xlink:href="#ap"/><use transform="matrix(.06173 0 0 .06173 41.914 0)" xlink:href="#aq"/><use transform="matrix(.06173 0 0 .06173 46.79 0)" xlink:href="#ar"/><use transform="matrix(.06173 0 0 .06173 57.901 0)" xlink:href="#as"/><use transform="matrix(.06173 0 0 .06173 70.247 0)" xlink:href="#at"/><use transform="matrix(.06173 0 0 .06173 76.42 0)" xlink:href="#aq"/><use transform="matrix(.06173 0 0 .06173 81.296 0)" xlink:href="#au"/><use transform="matrix(.06173 0 0 .06173 93.642 0)" xlink:href="#av"/></g><g id="ac"><use transform="rotate(.413) scale(.06173)" xlink:href="#aw"/><use transform="matrix(.06173 0 0 .06173 11.111 0)" xlink:href="#ax"/><use transform="matrix(.06173 0 0 .06173 23.457 0)" xlink:href="#av"/><use transform="matrix(.06173 0 0 .06173 35.802 0)" xlink:href="#ay"/><use transform="matrix(.06173 0 0 .06173 48.148 0)" xlink:href="#aq"/><use transform="matrix(.06173 0 0 .06173 53.025 0)" xlink:href="#av"/><use transform="matrix(.06173 0 0 .06173 65.37 0)" xlink:href="#aM"/></g><g id="ad"><use transform="rotate(.413) scale(.06173)" xlink:href="#as"/><use transform="matrix(.06173 0 0 .06173 12.346 0)" xlink:href="#av"/></g><g id="ae"><use transform="rotate(.413) scale(.06173)" xlink:href="#aN"/><use transform="matrix(.06173 0 0 .06173 15.988 0)" xlink:href="#ax"/><use transform="matrix(.06173 0 0 .06173 28.333 0)" xlink:href="#aw"/><use transform="matrix(.06173 0 0 .06173 39.444 0)" xlink:href="#ax"/><use transform="matrix(.06173 0 0 .06173 51.79 0)" xlink:href="#as"/><use transform="matrix(.06173 0 0 .06173 64.136 0)" xlink:href="#aD"/><use transform="matrix(.06173 0 0 .06173 71.481 0)" xlink:href="#ar"/><use transform="matrix(.06173 0 0 .06173 82.593 0)" xlink:href="#aC"/><use transform="matrix(.06173 0 0 .06173 94.938 0)" xlink:href="#ax"/><use transform="matrix(.06173 0 0 .06173 107.284 0)" xlink:href="#aD"/></g><g id="af"><use transform="rotate(.413) scale(.06173)" xlink:href="#aP"/><use transform="matrix(.06173 0 0 .06173 11.111 0)" xlink:href="#ax"/><use transform="matrix(.06173 0 0 .06173 23.457 0)" xlink:href="#aD"/><use transform="matrix(.06173 0 0 .06173 30.802 0)" xlink:href="#aq"/><use transform="matrix(.06173 0 0 .06173 35.679 0)" xlink:href="#aF"/><use transform="matrix(.06173 0 0 .06173 41.852 0)" xlink:href="#aO"/></g><g id="ag"><use transform="rotate(.413) scale(.06173)" xlink:href="#ax"/><use transform="matrix(.06173 0 0 .06173 12.346 0)" xlink:href="#az"/><use transform="matrix(.06173 0 0 .06173 30.802 0)" xlink:href="#ao"/><use transform="matrix(.06173 0 0 .06173 43.148 0)" xlink:href="#ap"/><use transform="matrix(.06173 0 0 .06173 48.025 0)" xlink:href="#au"/><use transform="matrix(.06173 0 0 .06173 60.37 0)" xlink:href="#aO"/><use transform="matrix(.06173 0 0 .06173 71.481 0)" xlink:href="#az"/><use transform="matrix(.06173 0 0 .06173 89.938 0)" xlink:href="#ax"/><use transform="matrix(.06173 0 0 .06173 102.284 0)" xlink:href="#av"/><use transform="matrix(.06173 0 0 .06173 114.63 0)" xlink:href="#at"/></g><g id="ah"><use transform="rotate(.413) scale(.06173)" xlink:href="#aD"/><use transform="matrix(.06173 0 0 .06173 7.346 0)" xlink:href="#ax"/><use transform="matrix(.06173 0 0 .06173 19.691 0)" xlink:href="#ar"/><use transform="matrix(.06173 0 0 .06173 30.802 0)" xlink:href="#ax"/><use transform="matrix(.06173 0 0 .06173 43.148 0)" xlink:href="#aq"/><use transform="matrix(.06173 0 0 .06173 48.025 0)" xlink:href="#aP"/><use transform="matrix(.06173 0 0 .06173 59.136 0)" xlink:href="#ax"/><use transform="matrix(.06173 0 0 .06173 71.481 0)" xlink:href="#aw"/></g><g id="ai"><use transform="rotate(.413) scale(.06173)" xlink:href="#aD"/><use transform="matrix(.06173 0 0 .06173 7.346 0)" xlink:href="#ax"/><use transform="matrix(.06173 0 0 .06173 19.691 0)" xlink:href="#ao"/><use transform="matrix(.06173 0 0 .06173 32.037 0)" xlink:href="#au"/><use transform="matrix(.06173 0 0 .06173 44.383 0)" xlink:href="#aD"/><use transform="matrix(.06173 0 0 .06173 51.728 0)" xlink:href="#at"/></g><g id="aj"><use transform="rotate(.413) scale(.06173)" xlink:href="#ax"/><use transform="matrix(.06173 0 0 .06173 12.346 0)" xlink:href="#az"/><use transform="matrix(.06173 0 0 .06173 30.802 0)" xlink:href="#as"/><use transform="matrix(.06173 0 0 .06173 43.148 0)" xlink:href="#aq"/><use transform="matrix(.06173 0 0 .06173 48.025 0)" xlink:href="#ap"/><use transform="matrix(.06173 0 0 .06173 52.901 0)" xlink:href="#aw"/></g><g id="ak"><use transform="rotate(.413) scale(.06173)" xlink:href="#aA"/><use transform="matrix(.06173 0 0 .06173 15.988 0)" xlink:href="#au"/><use transform="matrix(.06173 0 0 .06173 28.333 0)" xlink:href="#az"/><use transform="matrix(.06173 0 0 .06173 46.79 0)" xlink:href="#ao"/><use transform="matrix(.06173 0 0 .06173 59.136 0)" xlink:href="#as"/><use transform="matrix(.06173 0 0 .06173 71.481 0)" xlink:href="#av"/><use transform="matrix(.06173 0 0 .06173 83.827 0)" xlink:href="#aO"/></g><g id="al"><use transform="rotate(.413) scale(.06173)" xlink:href="#aN"/><use transform="matrix(.06173 0 0 .06173 15.988 0)" xlink:href="#ax"/><use transform="matrix(.06173 0 0 .06173 28.333 0)" xlink:href="#aw"/><use transform="matrix(.06173 0 0 .06173 39.444 0)" xlink:href="#ax"/><use transform="matrix(.06173 0 0 .06173 51.79 0)" xlink:href="#as"/><use transform="matrix(.06173 0 0 .06173 64.136 0)" xlink:href="#ar"/><use transform="matrix(.06173 0 0 .06173 75.247 0)" xlink:href="#aC"/><use transform="matrix(.06173 0 0 .06173 87.593 0)" xlink:href="#ax"/><use transform="matrix(.06173 0 0 .06173 99.938 0)" xlink:href="#aD"/></g><g id="am"><use transform="rotate(.413) scale(.06173)" xlink:href="#aP"/><use transform="matrix(.06173 0 0 .06173 11.111 0)" xlink:href="#ax"/><use transform="matrix(.06173 0 0 .06173 23.457 0)" xlink:href="#aD"/><use transform="matrix(.06173 0 0 .06173 30.802 0)" xlink:href="#aq"/><use transform="matrix(.06173 0 0 .06173 35.679 0)" xlink:href="#aF"/><use transform="matrix(.06173 0 0 .06173 41.852 0)" xlink:href="#aq"/><use transform="matrix(.06173 0 0 .06173 46.728 0)" xlink:href="#ax"/><use transform="matrix(.06173 0 0 .06173 59.074 0)" xlink:href="#aw"/></g><path fill="#333" d="m205 0-28-72H64L36 0H1l101-248h38L239 0h-34zm-38-99-47-123c-12 45-31 82-46 123h93" id="an"/><path fill="#333" d="M115-194c55 1 70 41 70 98S169 2 115 4C84 4 66-9 55-30l1 105H24l-1-265h31l2 30c10-21 28-34 59-34zm-8 174c40 0 45-34 45-75s-6-73-45-74c-42 0-51 32-51 76 0 43 10 73 51 73" id="ao"/><path fill="#333" d="M24 0v-261h32V0H24" id="ap"/><path fill="#333" d="M24-231v-30h32v30H24zM24 0v-190h32V0H24" id="aq"/><path fill="#333" d="M96-169c-40 0-48 33-48 73s9 75 48 75c24 0 41-14 43-38l32 2c-6 37-31 61-74 61-59 0-76-41-82-99-10-93 101-131 147-64 4 7 5 14 7 22l-32 3c-4-21-16-35-41-35" id="ar"/><path fill="#333" d="M141-36C126-15 110 5 73 4 37 3 15-17 15-53c-1-64 63-63 125-63 3-35-9-54-41-54-24 1-41 7-42 31l-33-3c5-37 33-52 76-52 45 0 72 20 72 64v82c-1 20 7 32 28 27v20c-31 9-61-2-59-35zM48-53c0 20 12 33 32 33 41-3 63-29 60-74-43 2-92-5-92 41" id="as"/><path fill="#333" d="M59-47c-2 24 18 29 38 22v24C64 9 27 4 27-40v-127H5v-23h24l9-43h21v43h35v23H59v120" id="at"/><path fill="#333" d="M100-194c62-1 85 37 85 99 1 63-27 99-86 99S16-35 15-95c0-66 28-99 85-99zM99-20c44 1 53-31 53-75 0-43-8-75-51-75s-53 32-53 75 10 74 51 75" id="au"/><path fill="#333" d="M117-194c89-4 53 116 60 194h-32v-121c0-31-8-49-39-48C34-167 62-67 57 0H25l-1-190h30c1 10-1 24 2 32 11-22 29-35 61-36" id="av"/><path fill="#333" d="M135-143c-3-34-86-38-87 0 15 53 115 12 119 90S17 21 10-45l28-5c4 36 97 45 98 0-10-56-113-15-118-90-4-57 82-63 122-42 12 7 21 19 24 35" id="aw"/><path fill="#333" d="M100-194c63 0 86 42 84 106H49c0 40 14 67 53 68 26 1 43-12 49-29l28 8c-11 28-37 45-77 45C44 4 14-33 15-96c1-61 26-98 85-98zm52 81c6-60-76-77-97-28-3 7-6 17-6 28h103" id="ax"/><path fill="#333" d="M85-194c31 0 48 13 60 33l-1-100h32l1 261h-30c-2-10 0-23-3-31C134-8 116 4 85 4 32 4 16-35 15-94c0-66 23-100 70-100zm9 24c-40 0-46 34-46 75 0 40 6 74 45 74 42 0 51-32 51-76 0-42-9-74-50-73" id="ay"/><path fill="#333" d="M210-169c-67 3-38 105-44 169h-31v-121c0-29-5-50-35-48C34-165 62-65 56 0H25l-1-190h30c1 10-1 24 2 32 10-44 99-50 107 0 11-21 27-35 58-36 85-2 47 119 55 194h-31v-121c0-29-5-49-35-48" id="az"/><path fill="#333" d="M212-179c-10-28-35-45-73-45-59 0-87 40-87 99 0 60 29 101 89 101 43 0 62-24 78-52l27 14C228-24 195 4 139 4 59 4 22-46 18-125c-6-104 99-153 187-111 19 9 31 26 39 46" id="aA"/><path fill="#333" d="M206 0h-36l-40-164L89 0H53L-1-190h32L70-26l43-164h34l41 164 42-164h31" id="aB"/><path fill="#333" d="M106-169C34-169 62-67 57 0H25v-261h32l-1 103c12-21 28-36 61-36 89 0 53 116 60 194h-32v-121c2-32-8-49-39-48" id="aC"/><path fill="#333" d="M114-163C36-179 61-72 57 0H25l-1-190h30c1 12-1 29 2 39 6-27 23-49 58-41v29" id="aD"/><path fill="#333" d="M84 4C-5 8 30-112 23-190h32v120c0 31 7 50 39 49 72-2 45-101 50-169h31l1 190h-30c-1-10 1-25-2-33-11 22-28 36-60 37" id="aE"/><path fill="#333" d="M101-234c-31-9-42 10-38 44h38v23H63V0H32v-167H5v-23h27c-7-52 17-82 69-68v24" id="aF"/><path fill="#333" d="M185-189c-5-48-123-54-124 2 14 75 158 14 163 119 3 78-121 87-175 55-17-10-28-26-33-46l33-7c5 56 141 63 141-1 0-78-155-14-162-118-5-82 145-84 179-34 5 7 8 16 11 25" id="aG"/><path fill="#333" d="M190 0 58-211 59 0H30v-248h39L202-35l-2-213h31V0h-41" id="aH"/><path fill="#333" d="M127-220V0H93v-220H8v-28h204v28h-85" id="aI"/><path fill="#333" d="M33 0v-38h34V0H33" id="aJ"/><path fill="#333" d="M160-131c35 5 61 23 61 61C221 17 115-2 30 0v-248c76 3 177-17 177 60 0 33-19 50-47 57zm-97-11c50-1 110 9 110-42 0-47-63-36-110-37v79zm0 115c55-2 124 14 124-45 0-56-70-42-124-44v89" id="aK"/><path fill="#333" d="M143 0 79-87 56-68V0H24v-261h32v163l83-92h37l-77 82L181 0h-38" id="aL"/><path fill="#333" d="M177-190C167-65 218 103 67 71c-23-6-38-20-44-43l32-5c15 47 100 32 89-28v-30C133-14 115 1 83 1 29 1 15-40 15-95c0-56 16-97 71-98 29-1 48 16 59 35 1-10 0-23 2-32h30zM94-22c36 0 50-32 50-73 0-42-14-75-50-75-39 0-46 34-46 75s6 73 46 73" id="aM"/><path fill="#333" d="M233-177c-1 41-23 64-60 70L243 0h-38l-65-103H63V0H30v-248c88 3 205-21 203 71zM63-129c60-2 137 13 137-47 0-61-80-42-137-45v92" id="aN"/><path fill="#333" d="M179-190 93 31C79 59 56 82 12 73V49c39 6 53-20 64-50L1-190h34L92-34l54-156h33" id="aO"/><path fill="#333" d="M108 0H70L1-190h34L89-25l56-165h34" id="aP"/><use transform="rotate(.413) scale(.06173)" xlink:href="#as" id="Q"/></defs></g></svg>