<svg xmlns="http://www.w3.org/2000/svg" xmlns:xlink="http://www.w3.org/1999/xlink" xmlns:lucid="lucid" width="1000" height="1671"><g transform="translate(120 -135)" lucid:page-tab-id="0_0"><path d="M700 1421v2.07m0 4.14v4.16m0 4.14v4.14m0 4.15v4.13m0 4.14v4.14m0 4.16v4.14m0 4.14v4.15m0 4.13v2.07" stroke="#b2b2b2" fill="none"/><path d="m699.98 1420.5.52-.02v.53h-1v-.56m1 59.11-.48-.06-.52.02v-.53h1" fill="#b2b2b2"/><path d="M700 1321v2.07m0 4.14v4.16m0 4.14v4.14m0 4.15v4.13m0 4.14v4.14m0 4.16v4.14m0 4.14v4.15m0 4.13v2.07" stroke="#b2b2b2" fill="none"/><path d="m699.98 1320.5.52-.02v.53h-1v-.56m1 59.11-.48-.06-.52.02v-.53h1" fill="#b2b2b2"/><path d="M700 1521v2.07m0 4.14v4.16m0 4.14v4.14m0 4.15v4.13m0 4.14v4.14m0 4.16v4.14m0 4.14v4.15m0 4.13v2.07" stroke="#b2b2b2" fill="none"/><path d="m699.98 1520.5.52-.02v.53h-1v-.56m1 59.11-.48-.06-.52.02v-.53h1" fill="#b2b2b2"/><path d="M700 1621v2.03m0 4.06v4.04m0 4.06v4.06m0 4.05v4.07m0 4.06v4.05m0 4.06v4.06m0 4.05v4.06m0 4.07v4.05m0 4.06v4.06m0 4.05v4.05m0 4.06v4.06m0 4.06v4.06m0 4.06v4.05m0 4.05v4.06m0 4.06v4.06m0 4.06v4.05m0 4.06v4.05m0 4.05v4.06m0 4.06v4.05m0 4.06v4.06m0 4.04v4.06m0 4.06v4.05m0 4.07v2.03" stroke="#b2b2b2" fill="none"/><path d="m699.98 1620.5.52-.02v.53h-1v-.56" fill="#b2b2b2"/><path d="M700 1799.5v.5m0-1554.5v2m0 4v4m0 4.02v4m0 4v4.02m0 4v4m0 4.02v4m0 4v4m0 4.02v4m0 4v4.02m0 4v4m0 4v4.02m0 4v4m0 4.02v4m0 4v4m0 4.02v4m0 4v4.02m0 4v4m0 4v4.02m0 4v4m0 4.02v4m0 4v4.02m0 4v4m0 4v4.02m0 4v4m0 4.02v4m0 4v4m0 4.02v4m0 4v4.02m0 4v4m0 4v4.02m0 4v4m0 4.02v4m0 4v4m0 4.02v4m0 4v4.02m0 4v4m0 4.02v4m0 4v4m0 4.02v4m0 4v4.02m0 4v4m0 4V576m0 4v4m0 4.02v4m0 4v4m0 4.02v4m0 4v4.02m0 4v4m0 4.02v4m0 4v4m0 4.02v4m0 4v4.02m0 4v4m0 4v4.02m0 4v4m0 4.02v4m0 4v4m0 4.02v4m0 4v4.02m0 4v4m0 4v4.02m0 4v4m0 4.02v4m0 4v4.02m0 4v4m0 4v4.02m0 4v4m0 4.02v4m0 4v4m0 4.02v4m0 4v4.02m0 4v4m0 4v4.02m0 4v4m0 4.02v4m0 4v4m0 4.02v4m0 4v4.02m0 4v4m0 4.02v4m0 4v4m0 4.02v4m0 4v4.02m0 4v4m0 4v4.02m0 4v4m0 4.02v4m0 4v4m0 4.02v4m0 4v4.02m0 4v4m0 4.02v4m0 4v4m0 4.02v4m0 4v4.02m0 4v4m0 4v4.02m0 4v4m0 4.02v4m0 4v4m0 4.02v4m0 4v4.02m0 4v4m0 4v4.02m0 4v4m0 4.02v4m0 4v4.02m0 4v4m0 4v4.02m0 4v4m0 4.02v4m0 4v4m0 4.02v4m0 4v4.02m0 4v4m0 4v4.02m0 4v4m0 4.02v4m0 4v4m0 4.02v4m0 4v4.02m0 4v4m0 4.02v4m0 4v4m0 4.02v4m0 4v4.02m0 4v4m0 4v4.02m0 4v4m0 4.02v2" stroke="#b2b2b2" fill="none"/><path d="M700.5 245.5h-1v-.5h1m0 1034.56-.48-.06-.52.02v-.53h1" fill="#b2b2b2"/><path d="M400 1521v2.07m0 4.14v4.16m0 4.14v4.14m0 4.15v4.13m0 4.14v4.14m0 4.16v4.14m0 4.14v4.15m0 4.13v2.07" stroke="#b2b2b2" fill="none"/><path d="m399.98 1520.5.52-.02v.53h-1v-.56m1 59.11-.48-.06-.52.02v-.53h1" fill="#b2b2b2"/><path d="M400 240.5v2m0 4v4m0 3.98v4m0 4v4m0 3.98v4m0 4v4m0 3.98v4m0 4v4m0 3.98v4m0 4v4m0 4v3.98m0 4v4m0 4v3.98m0 4v4m0 4v3.98m0 4v4m0 4v3.98m0 4v4m0 4v3.98m0 4v4m0 4v3.98m0 4v4m0 4v3.98m0 4v4m0 4v4m0 3.98v4m0 4v4m0 3.98v4m0 4v4m0 3.98v4m0 4v4m0 3.98v4m0 4v4m0 3.98v4m0 4v4m0 3.98v4m0 4v4m0 3.98v4m0 4v4m0 3.98v4m0 4v4m0 4v3.98m0 4v4m0 4v3.98m0 4v4m0 4v3.98m0 4v4m0 4v3.98m0 4v4m0 4V634m0 4v4m0 4v4m0 4v4m0 4v3.98m0 4v4m0 4v4m0 3.98v4m0 4v4m0 3.98v4m0 4v4m0 3.98v4m0 4v4m0 3.98v4m0 4v4m0 3.98v4m0 4v4m0 3.98v4m0 4v4m0 3.98v4m0 4v4m0 3.98v4m0 4v4m0 4v3.98m0 4v4m0 4v3.98m0 4v4m0 4v3.98m0 4v4m0 4v3.98m0 4v4m0 4v3.98m0 4v4m0 4v3.98m0 4v4m0 4v3.98m0 4v4m0 4v4m0 3.98v4m0 4v4m0 3.98v4m0 4v4m0 3.98v4m0 4v4m0 3.98v4m0 4v4m0 3.98v4m0 4v4m0 3.98v4m0 4v4m0 3.98v4m0 4v4m0 3.98v4m0 4v4m0 4v3.98m0 4v4m0 4v3.98m0 4v4m0 4v3.98m0 4v4m0 4v3.98m0 4v4m0 4v3.98m0 4v4m0 4v3.98m0 4v4m0 4v3.98m0 4v4m0 4v4m0 3.98v4m0 4v4m0 3.98v4m0 4v4m0 3.98v4m0 4v4m0 3.98v4m0 4v4m0 3.98v4m0 4v4m0 3.98v4m0 4v4m0 3.98v4m0 4v4m0 3.98v4m0 4v4m0 4v3.98m0 4v4m0 4v3.98m0 4v4m0 4v3.98m0 4v4m0 4v3.98m0 4v4m0 4v3.98m0 4v4m0 4v3.98m0 4v4m0 4v3.98m0 4v4m0 4v4m0 3.98v4m0 4v4m0 3.98v4m0 4v4m0 3.98v4m0 4v4m0 3.98v2" stroke="#b2b2b2" fill="none"/><path d="M400.5 240.5h-1v-.5h1m0 1239.56-.48-.06-.52.02v-.53h1" fill="#b2b2b2"/><path d="M400 1621v2.03m0 4.06v4.04m0 4.06v4.06m0 4.05v4.07m0 4.06v4.05m0 4.06v4.06m0 4.05v4.06m0 4.07v4.05m0 4.06v4.06m0 4.05v4.05m0 4.06v4.06m0 4.06v4.06m0 4.06v4.05m0 4.05v4.06m0 4.06v4.06m0 4.06v4.05m0 4.06v4.05m0 4.05v4.06m0 4.06v4.05m0 4.06v4.06m0 4.04v4.06m0 4.06v4.05m0 4.07v2.03" stroke="#b2b2b2" fill="none"/><path d="m399.98 1620.5.52-.02v.53h-1v-.56" fill="#b2b2b2"/><path d="M400 1799.5v.5" stroke="#b2b2b2" fill="none"/><path d="M460 1060c22.1 0 40 17.9 40 40s-17.9 40-40 40H340c-22.1 0-40-17.9-40-40s17.9-40 40-40z" fill="none"/><path d="m465.86 1060.47 3.86.73m3.74 1.18 1.2.4 2.4 1.12m3.47 1.84 2.85 1.8.43.35m3.04 2.48.42.35 2.33 2.46m2.47 3.02 1.6 2.2.6 1.04m1.9 3.44 1.46 3.64m1.1 3.76.5 1.88.27 1.96m.43 3.9.07 1.96-.12 1.96m-.35 3.9-.73 3.86m-1.18 3.74-.4 1.2-1.12 2.4m-1.84 3.47-1.8 2.85-.35.43m-2.48 3.04-.35.42-2.46 2.33m-3.02 2.47-2.2 1.6-1.04.6m-3.44 1.9-3.64 1.46m-3.76 1.1-1.88.5-1.96.27m-3.9.43-1.96.07h-2m-4 0h-4m-4 0h-4m-4 0h-4m-4 0h-4m-4 0h-4m-4 0h-4m-4 0h-4m-4 0h-4m-4 0h-4m-4 0h-4m-4 0h-4m-4 0h-4m-4 0h-4m-4 0h-4m-4 0h-2l-1.96-.12m-3.9-.35-3.86-.73m-3.74-1.18-1.2-.4-2.4-1.12m-3.47-1.84-2.85-1.8-.43-.35m-3.04-2.48-.42-.35-2.33-2.46m-2.47-3.02-1.6-2.2-.6-1.04m-1.9-3.44-1.46-3.64m-1.1-3.76-.5-1.88-.27-1.96m-.43-3.9L300 1100l.12-1.96m.35-3.9.73-3.86m1.18-3.74.4-1.2 1.12-2.4m1.84-3.47 1.8-2.85.35-.43m2.48-3.04.35-.42 2.46-2.33m3.02-2.47 2.2-1.6 1.04-.6m3.44-1.9 3.64-1.46m3.76-1.1 1.88-.5 1.96-.27m3.9-.43 1.96-.07h2m4 0h4m4 0h4m4 0h4m4 0h4m4 0h4m4 0h4m4 0h4m4 0h4m4 0h4m4 0h4m4 0h4m4 0h4m4 0h4m4 0h4m4 0h2l1.96.12" stroke="#333" fill="none"/><path d="M760 1060c22.1 0 40 17.9 40 40s-17.9 40-40 40H640c-22.1 0-40-17.9-40-40s17.9-40 40-40z" fill="none"/><path d="m765.86 1060.47 3.86.73m3.74 1.18 1.2.4 2.4 1.12m3.47 1.84 2.85 1.8.43.35m3.04 2.48.42.35 2.33 2.46m2.47 3.02 1.6 2.2.6 1.04m1.9 3.44 1.46 3.64m1.1 3.76.5 1.88.27 1.96m.43 3.9.07 1.96-.12 1.96m-.35 3.9-.73 3.86m-1.18 3.74-.4 1.2-1.12 2.4m-1.84 3.47-1.8 2.85-.35.43m-2.48 3.04-.35.42-2.46 2.33m-3.02 2.47-2.2 1.6-1.04.6m-3.44 1.9-3.64 1.46m-3.76 1.1-1.88.5-1.96.27m-3.9.43-1.96.07h-2m-4 0h-4m-4 0h-4m-4 0h-4m-4 0h-4m-4 0h-4m-4 0h-4m-4 0h-4m-4 0h-4m-4 0h-4m-4 0h-4m-4 0h-4m-4 0h-4m-4 0h-4m-4 0h-4m-4 0h-2l-1.96-.12m-3.9-.35-3.86-.73m-3.74-1.18-1.2-.4-2.4-1.12m-3.47-1.84-2.85-1.8-.43-.35m-3.04-2.48-.42-.35-2.33-2.46m-2.47-3.02-1.6-2.2-.6-1.04m-1.9-3.44-1.46-3.64m-1.1-3.76-.5-1.88-.27-1.96m-.43-3.9L600 1100l.12-1.96m.35-3.9.73-3.86m1.18-3.74.4-1.2 1.12-2.4m1.84-3.47 1.8-2.85.35-.43m2.48-3.04.35-.42 2.46-2.33m3.02-2.47 2.2-1.6 1.04-.6m3.44-1.9 3.64-1.46m3.76-1.1 1.88-.5 1.96-.27m3.9-.43 1.96-.07h2m4 0h4m4 0h4m4 0h4m4 0h4m4 0h4m4 0h4m4 0h4m4 0h4m4 0h4m4 0h4m4 0h4m4 0h4m4 0h4m4 0h4m4 0h2l1.96.12" stroke="#333" fill="none"/><path d="M760 860c22.1 0 40 17.9 40 40s-17.9 40-40 40H640c-22.1 0-40-17.9-40-40s17.9-40 40-40z" fill="none"/><path d="m765.86 860.47 3.86.73m3.74 1.18 1.2.4 2.4 1.12m3.47 1.84 2.85 1.8.43.35m3.04 2.48.42.35 2.33 2.46m2.47 3.02 1.6 2.2.6 1.04m1.9 3.44 1.46 3.64m1.1 3.76.5 1.88.27 1.96m.43 3.9L800 900l-.12 1.96m-.35 3.9-.73 3.86m-1.18 3.74-.4 1.2-1.12 2.4m-1.84 3.47-1.8 2.85-.35.43m-2.48 3.04-.35.42-2.46 2.33m-3.02 2.47-2.2 1.6-1.04.6m-3.44 1.9-3.64 1.46m-3.76 1.1-1.88.5-1.96.27m-3.9.43L760 940h-2m-4 0h-4m-4 0h-4m-4 0h-4m-4 0h-4m-4 0h-4m-4 0h-4m-4 0h-4m-4 0h-4m-4 0h-4m-4 0h-4m-4 0h-4m-4 0h-4m-4 0h-4m-4 0h-4m-4 0h-2l-1.96-.12m-3.9-.35-3.86-.73m-3.74-1.18-1.2-.4-2.4-1.12m-3.47-1.84-2.85-1.8-.43-.35m-3.04-2.48-.42-.35-2.33-2.46m-2.47-3.02-1.6-2.2-.6-1.04m-1.9-3.44-1.46-3.64m-1.1-3.76-.5-1.88-.27-1.96m-.43-3.9L600 900l.12-1.96m.35-3.9.73-3.86m1.18-3.74.4-1.2 1.12-2.4m1.84-3.47 1.8-2.85.35-.43m2.48-3.04.35-.42 2.46-2.33m3.02-2.47 2.2-1.6 1.04-.6m3.44-1.9 3.64-1.46m3.76-1.1 1.88-.5 1.96-.27m3.9-.43L640 860h2m4 0h4m4 0h4m4 0h4m4 0h4m4 0h4m4 0h4m4 0h4m4 0h4m4 0h4m4 0h4m4 0h4m4 0h4m4 0h4m4 0h4m4 0h2l1.96.12" stroke="#333" fill="none"/><path d="M460 860c22.1 0 40 17.9 40 40s-17.9 40-40 40H340c-22.1 0-40-17.9-40-40s17.9-40 40-40z" fill="none"/><path d="m465.86 860.47 3.86.73m3.74 1.18 1.2.4 2.4 1.12m3.47 1.84 2.85 1.8.43.35m3.04 2.48.42.35 2.33 2.46m2.47 3.02 1.6 2.2.6 1.04m1.9 3.44 1.46 3.64m1.1 3.76.5 1.88.27 1.96m.43 3.9L500 900l-.12 1.96m-.35 3.9-.73 3.86m-1.18 3.74-.4 1.2-1.12 2.4m-1.84 3.47-1.8 2.85-.35.43m-2.48 3.04-.35.42-2.46 2.33m-3.02 2.47-2.2 1.6-1.04.6m-3.44 1.9-3.64 1.46m-3.76 1.1-1.88.5-1.96.27m-3.9.43L460 940h-2m-4 0h-4m-4 0h-4m-4 0h-4m-4 0h-4m-4 0h-4m-4 0h-4m-4 0h-4m-4 0h-4m-4 0h-4m-4 0h-4m-4 0h-4m-4 0h-4m-4 0h-4m-4 0h-4m-4 0h-2l-1.96-.12m-3.9-.35-3.86-.73m-3.74-1.18-1.2-.4-2.4-1.12m-3.47-1.84-2.85-1.8-.43-.35m-3.04-2.48-.42-.35-2.33-2.46m-2.47-3.02-1.6-2.2-.6-1.04m-1.9-3.44-1.46-3.64m-1.1-3.76-.5-1.88-.27-1.96m-.43-3.9L300 900l.12-1.96m.35-3.9.73-3.86m1.18-3.74.4-1.2 1.12-2.4m1.84-3.47 1.8-2.85.35-.43m2.48-3.04.35-.42 2.46-2.33m3.02-2.47 2.2-1.6 1.04-.6m3.44-1.9 3.64-1.46m3.76-1.1 1.88-.5 1.96-.27m3.9-.43L340 860h2m4 0h4m4 0h4m4 0h4m4 0h4m4 0h4m4 0h4m4 0h4m4 0h4m4 0h4m4 0h4m4 0h4m4 0h4m4 0h4m4 0h4m4 0h2l1.96.12" stroke="#333" fill="none"/><path d="M420 300c0 11.05-8.95 20-20 20s-20-8.95-20-20 8.95-20 20-20 20 8.95 20 20zm0 100c0 11.05-8.95 20-20 20s-20-8.95-20-20 8.95-20 20-20 20 8.95 20 20zm0 100c0 11.05-8.95 20-20 20s-20-8.95-20-20 8.95-20 20-20 20 8.95 20 20zm0 100c0 11.05-8.95 20-20 20s-20-8.95-20-20 8.95-20 20-20 20 8.95 20 20z" stroke="#333" fill="#fff"/><path d="M240 166c0-3.3 2.7-6 6-6h308c3.3 0 6 2.7 6 6v68c0 3.3-2.7 6-6 6H246c-3.3 0-6-2.7-6-6z" fill="none"/><use xlink:href="#a" transform="translate(279.136 191.528)"/><use xlink:href="#b" transform="translate(333.333 191.528)"/><use xlink:href="#c" transform="translate(457.963 191.528)"/><use xlink:href="#d" transform="translate(302.84 218.194)"/><use xlink:href="#e" transform="translate(399.691 218.194)"/><path d="M540 161c0-3.3 2.7-6 6-6h308c3.3 0 6 2.7 6 6v78c0 3.3-2.7 6-6 6H546c-3.3 0-6-2.7-6-6z" fill="none"/><use xlink:href="#f" transform="translate(568.981 177.778)"/><use xlink:href="#g" transform="translate(625.586 177.778)"/><use xlink:href="#h" transform="translate(722.438 177.778)"/><use xlink:href="#i" transform="translate(692.593 204.444)"/><use xlink:href="#j" transform="translate(607.5 231.111)"/><use xlink:href="#k" transform="translate(683.92 231.111)"/><path d="M420 700c0 11.05-8.95 20-20 20s-20-8.95-20-20 8.95-20 20-20 20 8.95 20 20z" stroke="#333" fill="#fff"/><path d="M400 321v42.12" stroke="#333" fill="none"/><path d="m399.98 320.5.52-.02v.53h-1v-.56" fill="#333"/><path d="m400 377.88-4.64-14.26h9.28z" stroke="#333" fill="#333"/><path d="M400 521v42.12" stroke="#333" fill="none"/><path d="m399.98 520.5.52-.02v.53h-1v-.56" fill="#333"/><path d="m400 577.88-4.64-14.26h9.28z" stroke="#333" fill="#333"/><path d="M421 400h242.12" stroke="#333" fill="none"/><path d="M421 400.5h-.56l.06-.48-.02-.52h.53" fill="#333"/><path d="m677.88 400-14.26 4.64v-9.28z" stroke="#333" fill="#333"/><path d="M436.88 500H679" stroke="#333" fill="none"/><path d="m422.12 500 14.26-4.64v9.28z" stroke="#333" fill="#333"/><path d="m679.5 499.98.02.52H679v-1h.56" fill="#333"/><path d="M421 600h242.12" stroke="#333" fill="none"/><path d="M421 600.5h-.56l.06-.48-.02-.52h.53" fill="#333"/><path d="m677.88 600-14.26 4.64v-9.28z" stroke="#333" fill="#333"/><path d="M720 400c0 11.05-8.95 20-20 20s-20-8.95-20-20 8.95-20 20-20 20 8.95 20 20zm0 100c0 11.05-8.95 20-20 20s-20-8.95-20-20 8.95-20 20-20 20 8.95 20 20zm0 100c0 11.05-8.95 20-20 20s-20-8.95-20-20 8.95-20 20-20 20 8.95 20 20zm0 100c0 11.05-8.95 20-20 20s-20-8.95-20-20 8.95-20 20-20 20 8.95 20 20z" stroke="#333" fill="#fff"/><path d="M679 700H436.9" stroke="#333" fill="none"/><path d="m679.5 699.98.02.52H679v-1h.56" fill="#333"/><path d="m422.12 700 14.27-4.64v9.28z" stroke="#333" fill="#333"/><path d="M360 900c0 11.05-8.95 20-20 20s-20-8.95-20-20 8.95-20 20-20 20 8.95 20 20zm120 0c0 11.05-8.95 20-20 20s-20-8.95-20-20 8.95-20 20-20 20 8.95 20 20z" stroke="#333" fill="#fff"/><path d="M403.66 900.1c0 1.97-1.6 3.56-3.55 3.56-1.95 0-3.54-1.6-3.54-3.55 0-1.95 1.6-3.54 3.55-3.54 1.97 0 3.56 1.6 3.56 3.55zm20-.05c0 1.96-1.6 3.55-3.55 3.55-1.95 0-3.54-1.6-3.54-3.55 0-1.96 1.6-3.54 3.55-3.54 1.97 0 3.56 1.6 3.56 3.55zm-40.12-.19c0 1.96-1.6 3.55-3.54 3.55-1.96 0-3.55-1.58-3.55-3.54s1.6-3.55 3.55-3.55c1.95 0 3.54 1.6 3.54 3.56z" stroke="#333" fill="#333"/><path d="M660 900c0 11.05-8.95 20-20 20s-20-8.95-20-20 8.95-20 20-20 20 8.95 20 20zm120-.2c0 11.06-8.95 20-20 20s-20-8.94-20-20c0-11.03 8.95-20 20-20s20 8.97 20 20z" stroke="#333" fill="#fff"/><path d="M703.73 899.92c0 1.96-1.58 3.55-3.54 3.55a3.56 3.56 0 0 1-3.56-3.55c0-1.96 1.6-3.54 3.55-3.54 1.95 0 3.53 1.58 3.53 3.54zm20-.05c0 1.96-1.58 3.54-3.54 3.54-1.97 0-3.56-1.57-3.56-3.53 0-1.96 1.6-3.55 3.55-3.55 1.95 0 3.53 1.6 3.53 3.55zm-40.11-.19c0 1.95-1.6 3.54-3.55 3.54-1.96 0-3.54-1.6-3.54-3.54 0-1.96 1.58-3.55 3.54-3.55s3.55 1.6 3.55 3.55z" stroke="#333" fill="#333"/><path d="M660 1100c0 11.05-8.95 20-20 20s-20-8.95-20-20 8.95-20 20-20 20 8.95 20 20zm120 0c0 11.05-8.95 20-20 20s-20-8.95-20-20 8.95-20 20-20 20 8.95 20 20z" stroke="#333" fill="#fff"/><path d="M703.77 1100.85c0 1.96-1.6 3.55-3.55 3.55-1.96 0-3.54-1.6-3.54-3.55 0-1.96 1.58-3.55 3.54-3.55s3.55 1.6 3.55 3.55zm20.23-.05c0 1.95-1.6 3.54-3.55 3.54-1.96 0-3.55-1.6-3.55-3.54 0-1.96 1.6-3.55 3.55-3.55 1.96 0 3.55 1.6 3.55 3.55zm-40.12-.2c0 1.96-1.58 3.55-3.54 3.55s-3.55-1.6-3.55-3.55c0-1.95 1.58-3.54 3.54-3.54s3.54 1.6 3.54 3.54z" stroke="#333" fill="#333"/><path d="M360 1100c0 11.05-8.95 20-20 20s-20-8.95-20-20 8.95-20 20-20 20 8.95 20 20zm120 0c0 11.05-8.95 20-20 20s-20-8.95-20-20 8.95-20 20-20 20 8.95 20 20z" stroke="#333" fill="#fff"/><path d="M403.57 1099.76c0 1.96-1.6 3.54-3.55 3.54-1.96 0-3.54-1.58-3.54-3.54s1.58-3.55 3.54-3.55 3.55 1.6 3.55 3.56zm20.33.11c0 1.96-1.6 3.54-3.55 3.54-1.96 0-3.54-1.57-3.54-3.53 0-1.96 1.6-3.55 3.55-3.55 1.96 0 3.55 1.6 3.55 3.55zm-40.1-.03c0 1.96-1.6 3.55-3.56 3.55s-3.55-1.6-3.55-3.56 1.58-3.55 3.54-3.55 3.55 1.58 3.55 3.54z" stroke="#333" fill="#333"/><path d="M420 1300c0 11.05-8.95 20-20 20s-20-8.95-20-20 8.95-20 20-20 20 8.95 20 20z" stroke="#333" fill="#fff"/><path d="M501 900h82.12" stroke="#333" fill="none"/><path d="M501 900.5h-.53l.03-.5-.02-.5h.53" fill="#333"/><path d="m597.88 900-14.26 4.64v-9.28z" stroke="#333" fill="#333"/><path d="M700 941v102.12" stroke="#333" fill="none"/><path d="M700.5 941h-1v-.5h1" fill="#333"/><path d="m700 1057.88-4.64-14.26h9.28z" stroke="#333" fill="#333"/><path d="M599 1100h-82.12" stroke="#333" fill="none"/><path d="m599.5 1100 .02.5H599v-1h.53" fill="#333"/><path d="m502.12 1100 14.26-4.64v9.28z" stroke="#333" fill="#333"/><path d="M400 1141v122.12" stroke="#333" fill="none"/><path d="M400.5 1141h-1v-.5h1" fill="#333"/><path d="m400 1277.88-4.64-14.26h9.28z" stroke="#333" fill="#333"/><path d="M700 421v42.12" stroke="#333" fill="none"/><path d="m699.98 420.5.52-.02v.53h-1v-.56" fill="#333"/><path d="m700 477.88-4.64-14.26h9.28z" stroke="#333" fill="#333"/><path d="M700 621v42.12" stroke="#333" fill="none"/><path d="m699.98 620.5.52-.02v.53h-1v-.56" fill="#333"/><path d="m700 677.88-4.64-14.26h9.28z" stroke="#333" fill="#333"/><path d="M400 721v122.12" stroke="#333" fill="none"/><path d="m399.98 720.5.52-.02v.53h-1v-.56" fill="#333"/><path d="m400 857.88-4.64-14.26h9.28z" stroke="#333" fill="#333"/><path d="M420 1400c0 11.05-8.95 20-20 20s-20-8.95-20-20 8.95-20 20-20 20 8.95 20 20z" stroke="#333" fill="#fff"/><path d="M-20 266c0-3.3 2.7-6 6-6h308c3.3 0 6 2.7 6 6v68c0 3.3-2.7 6-6 6H-14c-3.3 0-6-2.7-6-6z" fill="none"/><use xlink:href="#l" transform="translate(3.981 304.653)"/><use xlink:href="#m" transform="translate(100.833 304.653)"/><use xlink:href="#n" transform="translate(204.475 304.653)"/><path d="M-20 366c0-3.3 2.7-6 6-6h328c3.3 0 6 2.7 6 6v68c0 3.3-2.7 6-6 6H-14c-3.3 0-6-2.7-6-6z" fill="none"/><use xlink:href="#o" transform="translate(-12.47 404.653)"/><use xlink:href="#p" transform="translate(61.543 404.653)"/><use xlink:href="#g" transform="translate(118.148 404.653)"/><use xlink:href="#e" transform="translate(215 404.653)"/><path d="M720 1300c0 11.05-8.95 20-20 20s-20-8.95-20-20 8.95-20 20-20 20 8.95 20 20zm0 100c0 11.05-8.95 20-20 20s-20-8.95-20-20 8.95-20 20-20 20 8.95 20 20zm-300 100c0 11.05-8.95 20-20 20s-20-8.95-20-20 8.95-20 20-20 20 8.95 20 20z" stroke="#333" fill="#fff"/><path d="M421 1300h242.12" stroke="#333" fill="none"/><path d="M421 1300.5h-.56l.06-.48-.02-.52h.53" fill="#333"/><path d="m677.88 1300-14.26 4.64v-9.28z" stroke="#333" fill="#333"/><path d="M700 1321v42.12" stroke="#333" fill="none"/><path d="m699.98 1320.5.52-.02v.53h-1v-.56" fill="#333"/><path d="m700 1377.88-4.64-14.26h9.28z" stroke="#333" fill="#333"/><path d="M679 1400H436.88" stroke="#333" fill="none"/><path d="m679.5 1399.98.02.52H679v-1h.56" fill="#333"/><path d="m422.12 1400 14.26-4.64v9.28z" stroke="#333" fill="#333"/><path d="M400 1421v40.64" stroke="#333" fill="none"/><path d="m399.98 1420.5.52-.02v.53h-1v-.56" fill="#333"/><path d="m400 1476.4-4.64-14.26h9.28z" stroke="#333" fill="#333"/><path d="M-20 466c0-3.3 2.7-6 6-6h328c3.3 0 6 2.7 6 6v68c0 3.3-2.7 6-6 6H-14c-3.3 0-6-2.7-6-6z" fill="none"/><use xlink:href="#f" transform="translate(-13.056 504.653)"/><use xlink:href="#g" transform="translate(43.55 504.653)"/><use xlink:href="#m" transform="translate(140.401 504.653)"/><use xlink:href="#q" transform="translate(244.043 504.653)"/><path d="M-20 666c0-3.3 2.7-6 6-6h328c3.3 0 6 2.7 6 6v68c0 3.3-2.7 6-6 6H-14c-3.3 0-6-2.7-6-6z" fill="none"/><use xlink:href="#f" transform="translate(-13.056 704.653)"/><use xlink:href="#g" transform="translate(43.55 704.653)"/><use xlink:href="#m" transform="translate(140.401 704.653)"/><use xlink:href="#q" transform="translate(244.043 704.653)"/><path d="M-20 566c0-3.3 2.7-6 6-6h328c3.3 0 6 2.7 6 6v68c0 3.3-2.7 6-6 6H-14c-3.3 0-6-2.7-6-6z" fill="none"/><use xlink:href="#o" transform="translate(-12.47 604.653)"/><use xlink:href="#p" transform="translate(61.543 604.653)"/><use xlink:href="#g" transform="translate(118.148 604.653)"/><use xlink:href="#e" transform="translate(215 604.653)"/><path d="M-100 861c0-3.3 2.7-6 6-6h348c3.3 0 6 2.7 6 6v78c0 3.3-2.7 6-6 6H-94c-3.3 0-6-2.7-6-6z" fill="none"/><use xlink:href="#o" transform="translate(-88.025 890.278)"/><use xlink:href="#p" transform="translate(-14.012 890.278)"/><use xlink:href="#g" transform="translate(42.593 890.278)"/><use xlink:href="#r" transform="translate(139.444 890.278)"/><use xlink:href="#s" transform="translate(32.623 916.944)"/><use xlink:href="#t" transform="translate(56.019 916.944)"/><path d="M-80 1066c0-3.3 2.7-6 6-6h328c3.3 0 6 2.7 6 6v68c0 3.3-2.7 6-6 6H-74c-3.3 0-6-2.7-6-6z" fill="none"/><use xlink:href="#f" transform="translate(-73.056 1104.653)"/><use xlink:href="#g" transform="translate(-16.45 1104.653)"/><use xlink:href="#u" transform="translate(80.401 1104.653)"/><use xlink:href="#v" transform="translate(195.154 1104.653)"/><path d="M0 1266c0-3.3 2.7-6 6-6h328c3.3 0 6 2.7 6 6v68c0 3.3-2.7 6-6 6H6c-3.3 0-6-2.7-6-6z" fill="none"/><use xlink:href="#o" transform="translate(46.05 1304.653)"/><use xlink:href="#w" transform="translate(120.062 1304.653)"/><use xlink:href="#e" transform="translate(196.481 1304.653)"/><path d="M0 1366c0-3.3 2.7-6 6-6h328c3.3 0 6 2.7 6 6v68c0 3.3-2.7 6-6 6H6c-3.3 0-6-2.7-6-6z" fill="none"/><use xlink:href="#x" transform="translate(45.463 1404.653)"/><use xlink:href="#m" transform="translate(121.883 1404.653)"/><use xlink:href="#q" transform="translate(225.525 1404.653)"/><path d="M720 1500c0 11.05-8.95 20-20 20s-20-8.95-20-20 8.95-20 20-20 20 8.95 20 20zm-300 100c0 11.05-8.95 20-20 20s-20-8.95-20-20 8.95-20 20-20 20 8.95 20 20zm300 0c0 11.05-8.95 20-20 20s-20-8.95-20-20 8.95-20 20-20 20 8.95 20 20z" stroke="#333" fill="#fff"/><path d="M700 1521v39.82" stroke="#333" fill="none"/><path d="m699.98 1520.5.52-.02v.53h-1v-.56" fill="#333"/><path d="m700 1575.58-4.64-14.26h9.28z" stroke="#333" fill="#333"/><path d="M421 1500h242.12" stroke="#333" fill="none"/><path d="M421 1500.5h-.56l.06-.48-.02-.52h.53" fill="#333"/><path d="m677.88 1500-14.26 4.64v-9.28z" stroke="#333" fill="#333"/><path d="M679 1600H436.88" stroke="#333" fill="none"/><path d="m679.5 1599.98.02.52H679v-1h.56" fill="#333"/><path d="m422.12 1600 14.26-4.64v9.28z" stroke="#333" fill="#333"/><path d="M420 1700c0 11.05-8.95 20-20 20s-20-8.95-20-20 8.95-20 20-20 20 8.95 20 20z" stroke="#333" fill="#fff"/><path d="M0 1466c0-3.3 2.7-6 6-6h328c3.3 0 6 2.7 6 6v68c0 3.3-2.7 6-6 6H6c-3.3 0-6-2.7-6-6z" fill="none"/><use xlink:href="#o" transform="translate(46.05 1504.653)"/><use xlink:href="#w" transform="translate(120.062 1504.653)"/><use xlink:href="#e" transform="translate(196.481 1504.653)"/><path d="M0 1566c0-3.3 2.7-6 6-6h328c3.3 0 6 2.7 6 6v68c0 3.3-2.7 6-6 6H6c-3.3 0-6-2.7-6-6z" fill="none"/><use xlink:href="#x" transform="translate(45.463 1604.653)"/><use xlink:href="#m" transform="translate(121.883 1604.653)"/><use xlink:href="#q" transform="translate(225.525 1604.653)"/><path d="M20 1666c0-3.3 2.7-6 6-6h308c3.3 0 6 2.7 6 6v68c0 3.3-2.7 6-6 6H26c-3.3 0-6-2.7-6-6z" fill="none"/><use xlink:href="#l" transform="translate(45.247 1704.653)"/><use xlink:href="#m" transform="translate(142.099 1704.653)"/><use xlink:href="#q" transform="translate(245.74 1704.653)"/><path d="M340.5 1700H379" stroke="#333" fill="none"/><path d="M340.5 1700.5h-.5v-1h.5m39 .48.02.52H379v-1h.56" fill="#333"/><path d="M340.5 1600H379" stroke="#333" fill="none"/><path d="M340.5 1600.5h-.5v-1h.5m39 .48.02.52H379v-1h.56" fill="#333"/><path d="M340.5 1500H379" stroke="#333" fill="none"/><path d="M340.5 1500.5h-.5v-1h.5m39 .48.02.52H379v-1h.56" fill="#333"/><path d="M340.5 1400H379" stroke="#333" fill="none"/><path d="M340.5 1400.5h-.5v-1h.5m39 .48.02.52H379v-1h.56" fill="#333"/><path d="M340.5 1300H379" stroke="#333" fill="none"/><path d="M340.5 1300.5h-.5v-1h.5m39 .48.02.52H379v-1h.56" fill="#333"/><path d="M260.5 1100H299" stroke="#333" fill="none"/><path d="M260.5 1100.5h-.5v-1h.5m39 .5.02.5H299v-1h.53" fill="#333"/><path d="M260.5 900H299" stroke="#333" fill="none"/><path d="M260.5 900.5h-.5v-1h.5m39 .5.02.5H299v-1h.53" fill="#333"/><path d="M320.5 700H379" stroke="#333" fill="none"/><path d="M320.5 700.5h-.5v-1h.5m59 .48.02.52H379v-1h.56" fill="#333"/><path d="M320.5 600H379" stroke="#333" fill="none"/><path d="M320.5 600.5h-.5v-1h.5m59 .48.02.52H379v-1h.56" fill="#333"/><path d="M320.5 500H379" stroke="#333" fill="none"/><path d="M320.5 500.5h-.5v-1h.5m59 .48.02.52H379v-1h.56" fill="#333"/><path d="M320.5 400H379" stroke="#333" fill="none"/><path d="M320.5 400.5h-.5v-1h.5m59 .48.02.52H379v-1h.56" fill="#333"/><path d="M300.5 300H379" stroke="#333" fill="none"/><path d="M300.5 300.5h-.5v-1h.5m79 .48.02.52H379v-1h.56" fill="#333"/><path d="M400 1621v39.06" stroke="#333" fill="none"/><path d="m399.98 1620.5.52-.02v.53h-1v-.56" fill="#333"/><path d="m400 1674.83-4.64-14.27h9.28z" stroke="#333" fill="#333"/><defs><path fill="#333" d="m240 0 2-218c-23 76-54 145-80 218h-23L58-218 59 0H30v-248h44l77 211c21-75 51-140 76-211h43V0h-30" id="y"/><path fill="#333" d="M141-36C126-15 110 5 73 4 37 3 15-17 15-53c-1-64 63-63 125-63 3-35-9-54-41-54-24 1-41 7-42 31l-33-3c5-37 33-52 76-52 45 0 72 20 72 64v82c-1 20 7 32 28 27v20c-31 9-61-2-59-35zM48-53c0 20 12 33 32 33 41-3 63-29 60-74-43 2-92-5-92 41" id="z"/><path fill="#333" d="M24-231v-30h32v30H24zM24 0v-190h32V0H24" id="A"/><path fill="#333" d="M117-194c89-4 53 116 60 194h-32v-121c0-31-8-49-39-48C34-167 62-67 57 0H25l-1-190h30c1 10-1 24 2 32 11-22 29-35 61-36" id="B"/><path fill="#333" d="M160-131c35 5 61 23 61 61C221 17 115-2 30 0v-248c76 3 177-17 177 60 0 33-19 50-47 57zm-97-11c50-1 110 9 110-42 0-47-63-36-110-37v79zm0 115c55-2 124 14 124-45 0-56-70-42-124-44v89" id="C"/><path fill="#333" d="M96-169c-40 0-48 33-48 73s9 75 48 75c24 0 41-14 43-38l32 2c-6 37-31 61-74 61-59 0-76-41-82-99-10-93 101-131 147-64 4 7 5 14 7 22l-32 3c-4-21-16-35-41-35" id="D"/><path fill="#333" d="M143 0 79-87 56-68V0H24v-261h32v163l83-92h37l-77 82L181 0h-38" id="E"/><path fill="#333" d="M177-190C167-65 218 103 67 71c-23-6-38-20-44-43l32-5c15 47 100 32 89-28v-30C133-14 115 1 83 1 29 1 15-40 15-95c0-56 16-97 71-98 29-1 48 16 59 35 1-10 0-23 2-32h30zM94-22c36 0 50-32 50-73 0-42-14-75-50-75-39 0-46 34-46 75s6 73 46 73" id="F"/><path fill="#333" d="M114-163C36-179 61-72 57 0H25l-1-190h30c1 12-1 29 2 39 6-27 23-49 58-41v29" id="G"/><path fill="#333" d="M100-194c62-1 85 37 85 99 1 63-27 99-86 99S16-35 15-95c0-66 28-99 85-99zM99-20c44 1 53-31 53-75 0-43-8-75-51-75s-53 32-53 75 10 74 51 75" id="H"/><path fill="#333" d="M84 4C-5 8 30-112 23-190h32v120c0 31 7 50 39 49 72-2 45-101 50-169h31l1 190h-30c-1-10 1-25-2-33-11 22-28 36-60 37" id="I"/><path fill="#333" d="M85-194c31 0 48 13 60 33l-1-100h32l1 261h-30c-2-10 0-23-3-31C134-8 116 4 85 4 32 4 16-35 15-94c0-66 23-100 70-100zm9 24c-40 0-46 34-46 75 0 40 6 74 45 74 42 0 51-32 51-76 0-42-9-74-50-73" id="J"/><path fill="#333" d="M212-179c-10-28-35-45-73-45-59 0-87 40-87 99 0 60 29 101 89 101 43 0 62-24 78-52l27 14C228-24 195 4 139 4 59 4 22-46 18-125c-6-104 99-153 187-111 19 9 31 26 39 46" id="K"/><path fill="#333" d="M106-169C34-169 62-67 57 0H25v-261h32l-1 103c12-21 28-36 61-36 89 0 53 116 60 194h-32v-121c2-32-8-49-39-48" id="L"/><path fill="#333" d="M100-194c63 0 86 42 84 106H49c0 40 14 67 53 68 26 1 43-12 49-29l28 8c-11 28-37 45-77 45C44 4 14-33 15-96c1-61 26-98 85-98zm52 81c6-60-76-77-97-28-3 7-6 17-6 28h103" id="M"/><path fill="#333" d="M266 0h-40l-56-210L115 0H75L2-248h35L96-30l15-64 43-154h32l59 218 59-218h35" id="N"/><path fill="#333" d="M101-234c-31-9-42 10-38 44h38v23H63V0H32v-167H5v-23h27c-7-52 17-82 69-68v24" id="O"/><path fill="#333" d="M24 0v-261h32V0H24" id="P"/><path fill="#333" d="M206 0h-36l-40-164L89 0H53L-1-190h32L70-26l43-164h34l41 164 42-164h31" id="Q"/><path fill="#333" d="M30 0v-248h187v28H63v79h144v27H63v87h162V0H30" id="R"/><path fill="#333" d="M141 0 90-78 38 0H4l68-98-65-92h35l48 74 47-74h35l-64 92 68 98h-35" id="S"/><path fill="#333" d="M59-47c-2 24 18 29 38 22v24C64 9 27 4 27-40v-127H5v-23h24l9-43h21v43h35v23H59v120" id="T"/><path fill="#333" d="M135-143c-3-34-86-38-87 0 15 53 115 12 119 90S17 21 10-45l28-5c4 36 97 45 98 0-10-56-113-15-118-90-4-57 82-63 122-42 12 7 21 19 24 35" id="U"/><path fill="#333" d="M234-2c-28 10-62 0-77-18C117 19 8 12 13-65c3-43 29-61 60-76-25-40-17-114 47-108 35 3 59 15 59 50 0 44-40 53-71 69 14 26 32 50 51 72 14-21 24-43 30-72l26 8c-9 33-21 57-38 82 13 13 33 22 57 15v23zM97-151c25-10 52-18 56-48-1-18-13-29-33-29-42 0-39 50-23 77zM42-66c-3 51 71 58 98 28-20-24-41-51-56-80-23 10-40 24-42 52" id="V"/><path fill="#333" d="m205 0-28-72H64L36 0H1l101-248h38L239 0h-34zm-38-99-47-123c-12 45-31 82-46 123h93" id="W"/><path fill="#333" d="M108 0H70L1-190h34L89-25l56-165h34" id="X"/><path fill="#333" d="M179-190 93 31C79 59 56 82 12 73V49c39 6 53-20 64-50L1-190h34L92-34l54-156h33" id="Y"/><path fill="#333" d="M185-189c-5-48-123-54-124 2 14 75 158 14 163 119 3 78-121 87-175 55-17-10-28-26-33-46l33-7c5 56 141 63 141-1 0-78-155-14-162-118-5-82 145-84 179-34 5 7 8 16 11 25" id="Z"/><path fill="#333" d="M115-194c55 1 70 41 70 98S169 2 115 4C84 4 66-9 55-30l1 105H24l-1-265h31l2 30c10-21 28-34 59-34zm-8 174c40 0 45-34 45-75s-6-73-45-74c-42 0-51 32-51 76 0 43 10 73 51 73" id="aa"/><g id="a"><use transform="rotate(.413) scale(.06173)" xlink:href="#y"/><use transform="matrix(.06173 0 0 .06173 18.457 0)" xlink:href="#z"/><use transform="matrix(.06173 0 0 .06173 30.802 0)" xlink:href="#A"/><use transform="matrix(.06173 0 0 .06173 35.679 0)" xlink:href="#B"/></g><g id="b"><use transform="rotate(.413) scale(.06173)" xlink:href="#C"/><use transform="matrix(.06173 0 0 .06173 14.815 0)" xlink:href="#z"/><use transform="matrix(.06173 0 0 .06173 27.16 0)" xlink:href="#D"/><use transform="matrix(.06173 0 0 .06173 38.272 0)" xlink:href="#E"/><use transform="matrix(.06173 0 0 .06173 49.383 0)" xlink:href="#F"/><use transform="matrix(.06173 0 0 .06173 61.728 0)" xlink:href="#G"/><use transform="matrix(.06173 0 0 .06173 69.074 0)" xlink:href="#H"/><use transform="matrix(.06173 0 0 .06173 81.42 0)" xlink:href="#I"/><use transform="matrix(.06173 0 0 .06173 93.765 0)" xlink:href="#B"/><use transform="matrix(.06173 0 0 .06173 106.111 0)" xlink:href="#J"/></g><g id="c"><use transform="rotate(.413) scale(.06173)" xlink:href="#K"/><use transform="matrix(.06173 0 0 .06173 15.988 0)" xlink:href="#L"/><use transform="matrix(.06173 0 0 .06173 28.333 0)" xlink:href="#M"/><use transform="matrix(.06173 0 0 .06173 40.679 0)" xlink:href="#D"/><use transform="matrix(.06173 0 0 .06173 51.79 0)" xlink:href="#E"/></g><g id="d"><use transform="rotate(.413) scale(.06173)" xlink:href="#N"/><use transform="matrix(.06173 0 0 .06173 20.494 0)" xlink:href="#H"/><use transform="matrix(.06173 0 0 .06173 32.84 0)" xlink:href="#G"/><use transform="matrix(.06173 0 0 .06173 40.185 0)" xlink:href="#E"/><use transform="matrix(.06173 0 0 .06173 51.296 0)" xlink:href="#O"/><use transform="matrix(.06173 0 0 .06173 57.47 0)" xlink:href="#P"/><use transform="matrix(.06173 0 0 .06173 62.346 0)" xlink:href="#H"/><use transform="matrix(.06173 0 0 .06173 74.691 0)" xlink:href="#Q"/></g><g id="e"><use transform="rotate(.413) scale(.06173)" xlink:href="#R"/><use transform="matrix(.06173 0 0 .06173 14.815 0)" xlink:href="#S"/><use transform="matrix(.06173 0 0 .06173 25.926 0)" xlink:href="#M"/><use transform="matrix(.06173 0 0 .06173 38.272 0)" xlink:href="#D"/><use transform="matrix(.06173 0 0 .06173 49.383 0)" xlink:href="#I"/><use transform="matrix(.06173 0 0 .06173 61.728 0)" xlink:href="#T"/><use transform="matrix(.06173 0 0 .06173 67.901 0)" xlink:href="#A"/><use transform="matrix(.06173 0 0 .06173 72.778 0)" xlink:href="#H"/><use transform="matrix(.06173 0 0 .06173 85.123 0)" xlink:href="#B"/></g><g id="f"><use transform="rotate(.413) scale(.06173)" xlink:href="#K"/><use transform="matrix(.06173 0 0 .06173 15.988 0)" xlink:href="#L"/><use transform="matrix(.06173 0 0 .06173 28.333 0)" xlink:href="#A"/><use transform="matrix(.06173 0 0 .06173 33.21 0)" xlink:href="#P"/><use transform="matrix(.06173 0 0 .06173 38.086 0)" xlink:href="#J"/></g><g id="g"><use transform="rotate(.413) scale(.06173)" xlink:href="#N"/><use transform="matrix(.06173 0 0 .06173 20.494 0)" xlink:href="#H"/><use transform="matrix(.06173 0 0 .06173 32.84 0)" xlink:href="#G"/><use transform="matrix(.06173 0 0 .06173 40.185 0)" xlink:href="#E"/><use transform="matrix(.06173 0 0 .06173 51.296 0)" xlink:href="#O"/><use transform="matrix(.06173 0 0 .06173 57.47 0)" xlink:href="#P"/><use transform="matrix(.06173 0 0 .06173 62.346 0)" xlink:href="#H"/><use transform="matrix(.06173 0 0 .06173 74.691 0)" xlink:href="#Q"/></g><g id="h"><use transform="rotate(.413) scale(.06173)" xlink:href="#R"/><use transform="matrix(.06173 0 0 .06173 14.815 0)" xlink:href="#S"/><use transform="matrix(.06173 0 0 .06173 25.926 0)" xlink:href="#M"/><use transform="matrix(.06173 0 0 .06173 38.272 0)" xlink:href="#D"/><use transform="matrix(.06173 0 0 .06173 49.383 0)" xlink:href="#I"/><use transform="matrix(.06173 0 0 .06173 61.728 0)" xlink:href="#T"/><use transform="matrix(.06173 0 0 .06173 67.901 0)" xlink:href="#A"/><use transform="matrix(.06173 0 0 .06173 72.778 0)" xlink:href="#H"/><use transform="matrix(.06173 0 0 .06173 85.123 0)" xlink:href="#B"/><use transform="matrix(.06173 0 0 .06173 97.47 0)" xlink:href="#U"/></g><g id="j"><use transform="rotate(.413) scale(.06173)" xlink:href="#W"/><use transform="matrix(.06173 0 0 .06173 14.815 0)" xlink:href="#D"/><use transform="matrix(.06173 0 0 .06173 25.926 0)" xlink:href="#T"/><use transform="matrix(.06173 0 0 .06173 32.099 0)" xlink:href="#A"/><use transform="matrix(.06173 0 0 .06173 36.975 0)" xlink:href="#X"/><use transform="matrix(.06173 0 0 .06173 48.086 0)" xlink:href="#A"/><use transform="matrix(.06173 0 0 .06173 52.963 0)" xlink:href="#T"/><use transform="matrix(.06173 0 0 .06173 59.136 0)" xlink:href="#Y"/></g><g id="k"><use transform="rotate(.413) scale(.06173)" xlink:href="#R"/><use transform="matrix(.06173 0 0 .06173 14.815 0)" xlink:href="#S"/><use transform="matrix(.06173 0 0 .06173 25.926 0)" xlink:href="#M"/><use transform="matrix(.06173 0 0 .06173 38.272 0)" xlink:href="#D"/><use transform="matrix(.06173 0 0 .06173 49.383 0)" xlink:href="#I"/><use transform="matrix(.06173 0 0 .06173 61.728 0)" xlink:href="#T"/><use transform="matrix(.06173 0 0 .06173 67.901 0)" xlink:href="#A"/><use transform="matrix(.06173 0 0 .06173 72.778 0)" xlink:href="#H"/><use transform="matrix(.06173 0 0 .06173 85.123 0)" xlink:href="#B"/><use transform="matrix(.06173 0 0 .06173 97.47 0)" xlink:href="#U"/></g><g id="l"><use transform="rotate(.413) scale(.06173)" xlink:href="#N"/><use transform="matrix(.06173 0 0 .06173 20.494 0)" xlink:href="#H"/><use transform="matrix(.06173 0 0 .06173 32.84 0)" xlink:href="#G"/><use transform="matrix(.06173 0 0 .06173 40.185 0)" xlink:href="#E"/><use transform="matrix(.06173 0 0 .06173 51.296 0)" xlink:href="#O"/><use transform="matrix(.06173 0 0 .06173 57.47 0)" xlink:href="#P"/><use transform="matrix(.06173 0 0 .06173 62.346 0)" xlink:href="#H"/><use transform="matrix(.06173 0 0 .06173 74.691 0)" xlink:href="#Q"/></g><g id="m"><use transform="rotate(.413) scale(.06173)" xlink:href="#R"/><use transform="matrix(.06173 0 0 .06173 14.815 0)" xlink:href="#S"/><use transform="matrix(.06173 0 0 .06173 25.926 0)" xlink:href="#M"/><use transform="matrix(.06173 0 0 .06173 38.272 0)" xlink:href="#D"/><use transform="matrix(.06173 0 0 .06173 49.383 0)" xlink:href="#I"/><use transform="matrix(.06173 0 0 .06173 61.728 0)" xlink:href="#T"/><use transform="matrix(.06173 0 0 .06173 67.901 0)" xlink:href="#A"/><use transform="matrix(.06173 0 0 .06173 72.778 0)" xlink:href="#H"/><use transform="matrix(.06173 0 0 .06173 85.123 0)" xlink:href="#B"/></g><g id="n"><use transform="rotate(.413) scale(.06173)" xlink:href="#Z"/><use transform="matrix(.06173 0 0 .06173 14.815 0)" xlink:href="#T"/><use transform="matrix(.06173 0 0 .06173 20.988 0)" xlink:href="#z"/><use transform="matrix(.06173 0 0 .06173 33.333 0)" xlink:href="#G"/><use transform="matrix(.06173 0 0 .06173 40.679 0)" xlink:href="#T"/><use transform="matrix(.06173 0 0 .06173 46.852 0)" xlink:href="#M"/><use transform="matrix(.06173 0 0 .06173 59.198 0)" xlink:href="#J"/></g><g id="o"><use transform="rotate(.413) scale(.06173)" xlink:href="#Z"/><use transform="matrix(.06173 0 0 .06173 14.815 0)" xlink:href="#aa"/><use transform="matrix(.06173 0 0 .06173 27.16 0)" xlink:href="#z"/><use transform="matrix(.06173 0 0 .06173 39.506 0)" xlink:href="#Q"/><use transform="matrix(.06173 0 0 .06173 55.494 0)" xlink:href="#B"/></g><g id="p"><use transform="rotate(.413) scale(.06173)" xlink:href="#K"/><use transform="matrix(.06173 0 0 .06173 15.988 0)" xlink:href="#L"/><use transform="matrix(.06173 0 0 .06173 28.333 0)" xlink:href="#A"/><use transform="matrix(.06173 0 0 .06173 33.21 0)" xlink:href="#P"/><use transform="matrix(.06173 0 0 .06173 38.086 0)" xlink:href="#J"/></g><g id="q"><use transform="rotate(.413) scale(.06173)" xlink:href="#G"/><use transform="matrix(.06173 0 0 .06173 7.346 0)" xlink:href="#M"/><use transform="matrix(.06173 0 0 .06173 19.691 0)" xlink:href="#T"/><use transform="matrix(.06173 0 0 .06173 25.864 0)" xlink:href="#I"/><use transform="matrix(.06173 0 0 .06173 38.21 0)" xlink:href="#G"/><use transform="matrix(.06173 0 0 .06173 45.556 0)" xlink:href="#B"/><use transform="matrix(.06173 0 0 .06173 57.901 0)" xlink:href="#U"/></g><g id="r"><use transform="rotate(.413) scale(.06173)" xlink:href="#R"/><use transform="matrix(.06173 0 0 .06173 14.815 0)" xlink:href="#S"/><use transform="matrix(.06173 0 0 .06173 25.926 0)" xlink:href="#M"/><use transform="matrix(.06173 0 0 .06173 38.272 0)" xlink:href="#D"/><use transform="matrix(.06173 0 0 .06173 49.383 0)" xlink:href="#I"/><use transform="matrix(.06173 0 0 .06173 61.728 0)" xlink:href="#T"/><use transform="matrix(.06173 0 0 .06173 67.901 0)" xlink:href="#A"/><use transform="matrix(.06173 0 0 .06173 72.778 0)" xlink:href="#H"/><use transform="matrix(.06173 0 0 .06173 85.123 0)" xlink:href="#B"/><use transform="matrix(.06173 0 0 .06173 97.47 0)" xlink:href="#U"/></g><g id="s"><use transform="rotate(.413) scale(.06173)" xlink:href="#A"/><use transform="matrix(.06173 0 0 .06173 4.877 0)" xlink:href="#B"/></g><g id="t"><use transform="rotate(.413) scale(.06173)" xlink:href="#aa"/><use transform="matrix(.06173 0 0 .06173 12.346 0)" xlink:href="#z"/><use transform="matrix(.06173 0 0 .06173 24.691 0)" xlink:href="#G"/><use transform="matrix(.06173 0 0 .06173 32.037 0)" xlink:href="#z"/><use transform="matrix(.06173 0 0 .06173 44.383 0)" xlink:href="#P"/><use transform="matrix(.06173 0 0 .06173 49.26 0)" xlink:href="#P"/><use transform="matrix(.06173 0 0 .06173 54.136 0)" xlink:href="#M"/><use transform="matrix(.06173 0 0 .06173 66.481 0)" xlink:href="#P"/></g><g id="u"><use transform="rotate(.413) scale(.06173)" xlink:href="#R"/><use transform="matrix(.06173 0 0 .06173 14.815 0)" xlink:href="#S"/><use transform="matrix(.06173 0 0 .06173 25.926 0)" xlink:href="#M"/><use transform="matrix(.06173 0 0 .06173 38.272 0)" xlink:href="#D"/><use transform="matrix(.06173 0 0 .06173 49.383 0)" xlink:href="#I"/><use transform="matrix(.06173 0 0 .06173 61.728 0)" xlink:href="#T"/><use transform="matrix(.06173 0 0 .06173 67.901 0)" xlink:href="#A"/><use transform="matrix(.06173 0 0 .06173 72.778 0)" xlink:href="#H"/><use transform="matrix(.06173 0 0 .06173 85.123 0)" xlink:href="#B"/><use transform="matrix(.06173 0 0 .06173 97.47 0)" xlink:href="#U"/></g><g id="v"><use transform="rotate(.413) scale(.06173)" xlink:href="#G"/><use transform="matrix(.06173 0 0 .06173 7.346 0)" xlink:href="#M"/><use transform="matrix(.06173 0 0 .06173 19.691 0)" xlink:href="#T"/><use transform="matrix(.06173 0 0 .06173 25.864 0)" xlink:href="#I"/><use transform="matrix(.06173 0 0 .06173 38.21 0)" xlink:href="#G"/><use transform="matrix(.06173 0 0 .06173 45.556 0)" xlink:href="#B"/></g><g id="w"><use transform="rotate(.413) scale(.06173)" xlink:href="#W"/><use transform="matrix(.06173 0 0 .06173 14.815 0)" xlink:href="#D"/><use transform="matrix(.06173 0 0 .06173 25.926 0)" xlink:href="#T"/><use transform="matrix(.06173 0 0 .06173 32.099 0)" xlink:href="#A"/><use transform="matrix(.06173 0 0 .06173 36.975 0)" xlink:href="#X"/><use transform="matrix(.06173 0 0 .06173 48.086 0)" xlink:href="#A"/><use transform="matrix(.06173 0 0 .06173 52.963 0)" xlink:href="#T"/><use transform="matrix(.06173 0 0 .06173 59.136 0)" xlink:href="#Y"/></g><g id="x"><use transform="rotate(.413) scale(.06173)" xlink:href="#W"/><use transform="matrix(.06173 0 0 .06173 14.815 0)" xlink:href="#D"/><use transform="matrix(.06173 0 0 .06173 25.926 0)" xlink:href="#T"/><use transform="matrix(.06173 0 0 .06173 32.099 0)" xlink:href="#A"/><use transform="matrix(.06173 0 0 .06173 36.975 0)" xlink:href="#X"/><use transform="matrix(.06173 0 0 .06173 48.086 0)" xlink:href="#A"/><use transform="matrix(.06173 0 0 .06173 52.963 0)" xlink:href="#T"/><use transform="matrix(.06173 0 0 .06173 59.136 0)" xlink:href="#Y"/></g><use transform="rotate(.413) scale(.06173)" xlink:href="#V" id="i"/></defs></g></svg>