<svg xmlns="http://www.w3.org/2000/svg" xmlns:xlink="http://www.w3.org/1999/xlink" xmlns:lucid="lucid" width="1840" height="1061.42"><g transform="translate(1820 -160)" lucid:page-tab-id="0_0"><path d="M-1460 255c0-8.28 6.72-15 15-15H-15c8.28 0 15 6.72 15 15v130c0 8.28-6.72 15-15 15h-1430c-8.28 0-15-6.72-15-15z" stroke="#333" stroke-width="3" fill="#fff"/><use xlink:href="#a" transform="matrix(1,0,0,1,-1455,245) translate(605.7962962962964 83.56249999999999)"/><use xlink:href="#b" transform="matrix(1,0,0,1,-1455,245) translate(722.2901234567901 83.56249999999999)"/><use xlink:href="#c" transform="matrix(1,0,0,1,-1455,245) translate(834.327160493827 83.56249999999999)"/><path d="M-1000 575c0-8.28 6.72-15 15-15h970c8.28 0 15 6.72 15 15v210c0 8.28-6.72 15-15 15h-970c-8.28 0-15-6.72-15-15z" stroke="#333" stroke-width="3" fill="#fff"/><path d="M-960 615c0-8.28 6.72-15 15-15h510c8.28 0 15 6.72 15 15v130c0 8.28-6.72 15-15 15h-510c-8.28 0-15-6.72-15-15z" stroke="#333" stroke-width="3" fill="#fff"/><use xlink:href="#d" transform="matrix(1,0,0,1,-955,605) translate(159.24074074074082 71.76388888888889)"/><use xlink:href="#e" transform="matrix(1,0,0,1,-955,605) translate(267.3641975308642 71.76388888888889)"/><use xlink:href="#f" transform="matrix(1,0,0,1,-955,605) translate(252.65432098765433 98.43055555555551)"/><path d="M-200 615c0-8.28 6.72-15 15-15h130c8.28 0 15 6.72 15 15v130c0 8.28-6.72 15-15 15h-130c-8.28 0-15-6.72-15-15z" stroke="#333" stroke-width="3" fill="#fff"/><use xlink:href="#g" transform="matrix(1,0,0,1,-195,605) translate(25.259259259259295 53.01388888888888)"/><use xlink:href="#h" transform="matrix(1,0,0,1,-195,605) translate(23.302469135802504 90.3472222222222)"/><use xlink:href="#i" transform="matrix(1,0,0,1,-195,605) translate(62.65432098765433 117.01388888888883)"/><path d="M-1000 976.42c0-8.3 6.72-15 15-15h590c8.28 0 15 6.7 15 15v210c0 8.28-6.72 15-15 15h-590c-8.28 0-15-6.72-15-15z" stroke="#333" stroke-width="3" fill="#fff"/><path d="M-960 1016.42c0-8.3 6.72-15 15-15h130c8.28 0 15 6.7 15 15v130c0 8.28-6.72 15-15 15h-130c-8.28 0-15-6.72-15-15z" stroke="#333" stroke-width="3" fill="#fff"/><use xlink:href="#g" transform="matrix(1,0,0,1,-954.9999999999998,1006.4173228346456) translate(25.259259259259295 53.01388888888888)"/><use xlink:href="#h" transform="matrix(1,0,0,1,-954.9999999999998,1006.4173228346456) translate(23.302469135802504 90.3472222222222)"/><use xlink:href="#j" transform="matrix(1,0,0,1,-954.9999999999998,1006.4173228346456) translate(62.65432098765433 117.01388888888883)"/><path d="M-580 1016.42c0-8.3 6.72-15 15-15h130c8.28 0 15 6.7 15 15v130c0 8.28-6.72 15-15 15h-130c-8.28 0-15-6.72-15-15z" stroke="#333" stroke-width="3" fill="#fff"/><use xlink:href="#g" transform="matrix(1,0,0,1,-575,1006.4173228346456) translate(25.259259259259295 53.01388888888888)"/><use xlink:href="#h" transform="matrix(1,0,0,1,-575,1006.4173228346456) translate(23.302469135802504 90.3472222222222)"/><use xlink:href="#k" transform="matrix(1,0,0,1,-575,1006.4173228346456) translate(62.65432098765433 117.01388888888883)"/><path d="M-1460 615c0-8.28 6.72-15 15-15h130c8.28 0 15 6.72 15 15v130c0 8.28-6.72 15-15 15h-130c-8.28 0-15-6.72-15-15z" stroke="#333" stroke-width="3" fill="#fff"/><use xlink:href="#l" transform="matrix(1,0,0,1,-1455,605) translate(25.259259259259295 53.01388888888888)"/><use xlink:href="#e" transform="matrix(1,0,0,1,-1455,605) translate(23.302469135802504 90.3472222222222)"/><use xlink:href="#m" transform="matrix(1,0,0,1,-1455,605) translate(70.06172839506173 117.01388888888883)"/><path d="M-220 680h-197.5" stroke="#333" stroke-width="2" fill="none"/><path d="M-204.74 680l-14.26 4.64v-9.28z" stroke="#333" stroke-width="2" fill="#333"/><path d="M-417.47 680h-1.03" stroke="#333" stroke-width="2" fill="none"/><path d="M-420 626c0-3.3 2.7-6 6-6h208c3.3 0 6 2.7 6 6v48c0 3.3-2.7 6-6 6h-208c-3.3 0-6-2.7-6-6z" stroke="#000" stroke-opacity="0" stroke-width="3" fill="#fff" fill-opacity="0"/><use xlink:href="#n" transform="matrix(1,0,0,1,-415,625) translate(19.320987654320987 30.52777777777778)"/><use xlink:href="#o" transform="matrix(1,0,0,1,-415,625) translate(114.25925925925927 30.52777777777778)"/><use xlink:href="#p" transform="matrix(1,0,0,1,-415,625) translate(146.35802469135803 30.52777777777778)"/><path d="M-600 1081.42h-197.5" stroke="#333" stroke-width="2" fill="none"/><path d="M-584.74 1081.42l-14.26 4.63v-9.27z" stroke="#333" stroke-width="2" fill="#333"/><path d="M-797.47 1082.42h-1.03v-2h1.03z" fill="#333"/><path d="M-1418 402.5V580" stroke="#333" stroke-width="2" fill="none"/><path d="M-1417 402.53h-2v-1.03h2z" fill="#333"/><path d="M-1418 595.26l-4.63-14.26h9.28z" stroke="#333" stroke-width="2" fill="#333"/><path d="M-913.62 580V402.5" stroke="#333" stroke-width="2" fill="none"/><path d="M-913.62 595.26l-4.64-14.26h9.27z" stroke="#333" stroke-width="2" fill="#333"/><path d="M-912.62 402.53h-2v-1.03h2z" fill="#333"/><path d="M-120 597.5v-4.03m0-8.07v-8.07m0-8.07v-8.07m0-8.07v-8.07m0-8.07v-8.08m0-8.07v-8.06m0-8.08v-8.07m0-8.07v-8.07m0-8.06v-8.06m0-8.07v-8.06m0-8.07v-8.07m0-8.06V420" stroke="#333" stroke-width="2" fill="none"/><path d="M-119 598.5h-2v-1.03h2z" fill="#333"/><path d="M-120 404.74l4.64 14.26h-9.28z" stroke="#333" stroke-width="2" fill="#333"/><path d="M-918.4 762.5v218.9" stroke="#333" stroke-width="2" fill="none"/><path d="M-917.4 762.53h-2v-1.03h2z" fill="#333"/><path d="M-918.4 996.68l-4.63-14.27h9.27z" stroke="#333" stroke-width="2" fill="#333"/><path d="M-500 998.92v-3.9m0-7.83v-7.83m0-7.82v-7.82m0-7.8v-7.83m0-7.82v-7.82m0-7.82v-7.82m0-7.8v-7.83m0-7.83v-7.82m0-7.82v-7.82m0-7.8v-7.82m0-7.82v-7.82m0-7.82V823m0-7.82v-7.8m0-7.83v-7.82m0-7.82V780" stroke="#333" stroke-width="2" fill="none"/><path d="M-499 999.92h-2v-1.03h2z" fill="#333"/><path d="M-500 764.74l4.64 14.26h-9.28z" stroke="#333" stroke-width="2" fill="#333"/><path d="M-1799 320h319M-1798.97 320h-1.03" stroke="#333" stroke-width="2" fill="none"/><path d="M-1464.74 320l-14.26 4.64v-9.28z" stroke="#333" stroke-width="2" fill="#333"/><path d="M-1761.14 226c0-3.3 2.7-6 6-6h268c3.32 0 6 2.7 6 6v51.33c0 3.32-2.68 6-6 6h-268c-3.3 0-6-2.68-6-6z" stroke="#000" stroke-opacity="0" stroke-width="3" fill="#fff" fill-opacity="0"/><use xlink:href="#q" transform="matrix(1,0,0,1,-1756.1360634081902,225) translate(11.111111111111114 31.27777777777778)"/><use xlink:href="#r" transform="matrix(1,0,0,1,-1756.1360634081902,225) translate(64.1358024691358 31.27777777777778)"/><use xlink:href="#s" transform="matrix(1,0,0,1,-1756.1360634081902,225) translate(161.41975308641975 31.27777777777778)"/><path d="M-1338.47 597.5v-4.06m0-8.13v-8.1m0-8.14v-8.12m0-8.13v-8.1m0-8.14v-8.12m0-8.13v-8.1m0-8.14V496m0-8v-8m0-8v-8m0-8v-8m0-8v-8m0-8v-4" stroke="#333" stroke-width="2" fill="none"/><path d="M-1337.47 598.5h-2v-1.03h2z" fill="#333"/><path d="M-1338.47 404.74l4.63 14.26h-9.27z" stroke="#333" stroke-width="2" fill="#333"/><path d="M-800 450.37c0-3.32 2.7-6 6-6h448c3.3 0 6 2.68 6 6v51.33c0 3.3-2.7 6-6 6h-448c-3.3 0-6-2.7-6-6z" stroke="#000" stroke-opacity="0" stroke-width="3" fill="#fff" fill-opacity="0"/><use xlink:href="#t" transform="matrix(1,0,0,1,-795,449.367396593674) translate(17.512345679012356 31.27777777777778)"/><use xlink:href="#u" transform="matrix(1,0,0,1,-795,449.367396593674) translate(89.05555555555556 31.27777777777778)"/><use xlink:href="#v" transform="matrix(1,0,0,1,-795,449.367396593674) translate(128.88888888888889 31.27777777777778)"/><use xlink:href="#w" transform="matrix(1,0,0,1,-795,449.367396593674) translate(183.14814814814815 31.27777777777778)"/><use xlink:href="#x" transform="matrix(1,0,0,1,-795,449.367396593674) translate(241.0493827160494 31.27777777777778)"/><use xlink:href="#y" transform="matrix(1,0,0,1,-795,449.367396593674) translate(271.9135802469136 31.27777777777778)"/><use xlink:href="#z" transform="matrix(1,0,0,1,-795,449.367396593674) translate(328.51851851851853 31.27777777777778)"/><use xlink:href="#A" transform="matrix(1,0,0,1,-795,449.367396593674) translate(368.35185185185185 31.27777777777778)"/><path d="M-729.28 496.4c0-3.32 2.68-6 6-6H-226c3.3 0 6 2.68 6 6v51.33c0 3.3-2.7 6-6 6h-497.28c-3.32 0-6-2.7-6-6z" stroke="#000" stroke-opacity="0" stroke-width="3" fill="#fff" fill-opacity="0"/><use xlink:href="#B" transform="matrix(1,0,0,1,-724.2845432094623,495.39661559872405) translate(14.888888888888943 31.27777777777778)"/><use xlink:href="#C" transform="matrix(1,0,0,1,-724.2845432094623,495.39661559872405) translate(103.65432098765437 31.27777777777778)"/><use xlink:href="#D" transform="matrix(1,0,0,1,-724.2845432094623,495.39661559872405) translate(117.17283950617289 31.27777777777778)"/><use xlink:href="#E" transform="matrix(1,0,0,1,-724.2845432094623,495.39661559872405) translate(188.71604938271608 31.27777777777778)"/><use xlink:href="#F" transform="matrix(1,0,0,1,-724.2845432094623,495.39661559872405) translate(228.5493827160494 31.27777777777778)"/><use xlink:href="#x" transform="matrix(1,0,0,1,-724.2845432094623,495.39661559872405) translate(297.5617283950618 31.27777777777778)"/><use xlink:href="#y" transform="matrix(1,0,0,1,-724.2845432094623,495.39661559872405) translate(328.425925925926 31.27777777777778)"/><use xlink:href="#G" transform="matrix(1,0,0,1,-724.2845432094623,495.39661559872405) translate(385.03086419753083 31.27777777777778)"/><use xlink:href="#H" transform="matrix(1,0,0,1,-724.2845432094623,495.39661559872405) translate(430.9135802469135 31.27777777777778)"/><path d="M-219 522.06h98" stroke="#333" stroke-width="2" fill="none"/><path d="M-218.97 523.06H-220v-2h1.03z" fill="#333"/><path d="M-121.03 522.06h1.03M-842.06 998.92v-4.22m0-8.45v-8.44m0-8.43v-8.45m0-8.44v-8.45m0-8.44v-8.45m0-8.45v-8.44m0-8.44v-8.45m0-8.44v-8.42m0-8.38v-8.4m0-8.38v-8.4m0-8.4v-8.38m0-8.4v-8.38m0-8.4v-8.4m0-8.38V780" stroke="#333" stroke-width="2" fill="none"/><path d="M-841.06 999.92h-2v-1.03h2z" fill="#333"/><path d="M-842.06 764.74l4.64 14.26h-9.27z" stroke="#333" stroke-width="2" fill="#333"/><path d="M-842.06 597.5v-4.06m0-8.13v-8.1m0-8.14v-8.12m0-8.13v-8.1m0-8.14v-8.12m0-8.13v-8.1m0-8.14V496m0-8v-8m0-8v-8m0-8v-8m0-8v-8m0-8v-4" stroke="#333" stroke-width="2" fill="none"/><path d="M-841.06 598.5h-2v-1.03h2z" fill="#333"/><path d="M-842.06 404.74l4.64 14.26h-9.27z" stroke="#333" stroke-width="2" fill="#333"/><path d="M-801 476.03h-40.06" stroke="#333" stroke-width="2" fill="none"/><path d="M-800 477.03h-1.03v-2h1.03z" fill="#333"/><path d="M-841.03 476.04h-1.03" stroke="#333" stroke-width="2" fill="none"/><path d="M-1800 413.6c0-3.3 2.7-6 6-6h302.64c3.32 0 6 2.7 6 6v51.35c0 3.3-2.68 6-6 6H-1794c-3.3 0-6-2.7-6-6z" stroke="#000" stroke-opacity="0" stroke-width="3" fill="#fff" fill-opacity="0"/><use xlink:href="#t" transform="matrix(1,0,0,1,-1795,412.6130681603239) translate(10.96913580246914 31.27777777777778)"/><use xlink:href="#u" transform="matrix(1,0,0,1,-1795,412.6130681603239) translate(82.51234567901234 31.27777777777778)"/><use xlink:href="#I" transform="matrix(1,0,0,1,-1795,412.6130681603239) translate(122.34567901234567 31.27777777777778)"/><use xlink:href="#y" transform="matrix(1,0,0,1,-1795,412.6130681603239) translate(203.76543209876542 31.27777777777778)"/><use xlink:href="#J" transform="matrix(1,0,0,1,-1795,412.6130681603239) translate(260.3703703703703 31.27777777777778)"/><path d="M-1484.36 439.28h65.37" stroke="#333" stroke-width="2" fill="none"/><path d="M-1484.33 440.28h-1.03v-2h1.03z" fill="#333"/><path d="M-1419.02 439.28h1.03" stroke="#333" stroke-width="2" fill="none"/><path d="M-1780 546c0-3.3 2.7-6 6-6h282.64c3.32 0 6 2.7 6 6v50.08c0 3.3-2.68 6-6 6H-1774c-3.3 0-6-2.7-6-6z" stroke="#000" stroke-opacity="0" stroke-width="3" fill="#fff" fill-opacity="0"/><use xlink:href="#B" transform="matrix(1,0,0,1,-1775,545) translate(6.65432098765433 21.09027777777778)"/><use xlink:href="#C" transform="matrix(1,0,0,1,-1775,545) translate(95.41975308641976 21.09027777777778)"/><use xlink:href="#D" transform="matrix(1,0,0,1,-1775,545) translate(108.93827160493828 21.09027777777778)"/><use xlink:href="#K" transform="matrix(1,0,0,1,-1775,545) translate(180.48148148148147 21.09027777777778)"/><use xlink:href="#L" transform="matrix(1,0,0,1,-1775,545) translate(215.50617283950615 21.09027777777778)"/><use xlink:href="#x" transform="matrix(1,0,0,1,-1775,545) translate(30.21179012345679 47.75694444444444)"/><use xlink:href="#M" transform="matrix(1,0,0,1,-1775,545) translate(61.07598765432098 47.75694444444444)"/><use xlink:href="#y" transform="matrix(1,0,0,1,-1775,545) translate(98.11302469135802 47.75694444444444)"/><use xlink:href="#N" transform="matrix(1,0,0,1,-1775,545) translate(154.71796296296296 47.75694444444444)"/><use xlink:href="#H" transform="matrix(1,0,0,1,-1775,545) translate(200.60067901234567 47.75694444444444)"/><path d="M-1484.36 571.04h144.9" stroke="#333" stroke-width="2" fill="none"/><path d="M-1484.33 572.04h-1.03v-2h1.03z" fill="#333"/><path d="M-1339.5 571.04h1.03" stroke="#333" stroke-width="2" fill="none"/><path d="M-1260 450.37c0-3.32 2.7-6 6-6h293.36c3.3 0 6 2.68 6 6v51.33c0 3.3-2.7 6-6 6H-1254c-3.3 0-6-2.7-6-6z" stroke="#000" stroke-opacity="0" stroke-width="3" fill="#fff" fill-opacity="0"/><use xlink:href="#O" transform="matrix(1,0,0,1,-1255,449.367396593674) translate(4.064814814814838 31.27777777777778)"/><use xlink:href="#u" transform="matrix(1,0,0,1,-1255,449.367396593674) translate(75.60802469135804 31.27777777777778)"/><use xlink:href="#I" transform="matrix(1,0,0,1,-1255,449.367396593674) translate(115.44135802469137 31.27777777777778)"/><use xlink:href="#y" transform="matrix(1,0,0,1,-1255,449.367396593674) translate(196.86111111111111 31.27777777777778)"/><use xlink:href="#P" transform="matrix(1,0,0,1,-1255,449.367396593674) translate(253.46604938271605 31.27777777777778)"/><path d="M-953.64 476.03h39" stroke="#333" stroke-width="2" fill="none"/><path d="M-953.62 477.03h-1.02v-2h1.02z" fill="#333"/><path d="M-914.65 476.03h1.02" stroke="#333" stroke-width="2" fill="none"/><path d="M-460 866.78c0-3.32 2.7-6 6-6h288c3.3 0 6 2.68 6 6v51.33c0 3.33-2.7 6-6 6h-288c-3.3 0-6-2.67-6-6z" stroke="#000" stroke-opacity="0" stroke-width="3" fill="#fff" fill-opacity="0"/><use xlink:href="#B" transform="matrix(1,0,0,1,-455,865.7784311766093) translate(0.26851851851853326 17.77777777777778)"/><use xlink:href="#C" transform="matrix(1,0,0,1,-455,865.7784311766093) translate(89.03395061728396 17.77777777777778)"/><use xlink:href="#D" transform="matrix(1,0,0,1,-455,865.7784311766093) translate(102.55246913580248 17.77777777777778)"/><use xlink:href="#Q" transform="matrix(1,0,0,1,-455,865.7784311766093) translate(174.09567901234567 17.77777777777778)"/><use xlink:href="#R" transform="matrix(1,0,0,1,-455,865.7784311766093) translate(226.89197530864197 17.77777777777778)"/><use xlink:href="#x" transform="matrix(1,0,0,1,-455,865.7784311766093) translate(51.22530864197532 44.44444444444444)"/><use xlink:href="#y" transform="matrix(1,0,0,1,-455,865.7784311766093) translate(82.08950617283952 44.44444444444444)"/><use xlink:href="#S" transform="matrix(1,0,0,1,-455,865.7784311766093) translate(138.69444444444446 44.44444444444444)"/><use xlink:href="#H" transform="matrix(1,0,0,1,-455,865.7784311766093) translate(184.57716049382717 44.44444444444444)"/><path d="M-461 892.45h-38" stroke="#333" stroke-width="2" fill="none"/><path d="M-460 893.45h-1.03v-2h1.03z" fill="#333"/><path d="M-498.97 892.45H-500" stroke="#333" stroke-width="2" fill="none"/><path d="M-1420 854.16c0-3.3 2.7-6 6-6h433.36c3.3 0 6 2.7 6 6v51.34c0 3.3-2.7 6-6 6H-1414c-3.3 0-6-2.7-6-6z" stroke="#000" stroke-opacity="0" stroke-width="3" fill="#fff" fill-opacity="0"/><g><use xlink:href="#t" transform="matrix(1,0,0,1,-1415,853.164708377259) translate(4.03086419753086 31.27777777777778)"/><use xlink:href="#Q" transform="matrix(1,0,0,1,-1415,853.164708377259) translate(75.57407407407406 31.27777777777778)"/><use xlink:href="#v" transform="matrix(1,0,0,1,-1415,853.164708377259) translate(128.37037037037035 31.27777777777778)"/><use xlink:href="#w" transform="matrix(1,0,0,1,-1415,853.164708377259) translate(182.62962962962962 31.27777777777778)"/><use xlink:href="#x" transform="matrix(1,0,0,1,-1415,853.164708377259) translate(240.53086419753086 31.27777777777778)"/><use xlink:href="#y" transform="matrix(1,0,0,1,-1415,853.164708377259) translate(271.39506172839504 31.27777777777778)"/><use xlink:href="#T" transform="matrix(1,0,0,1,-1415,853.164708377259) translate(328 31.27777777777778)"/><use xlink:href="#A" transform="matrix(1,0,0,1,-1415,853.164708377259) translate(367.83333333333337 31.27777777777778)"/></g><path d="M-973.64 879.83H-843.06" stroke="#333" stroke-width="2" fill="none"/><path d="M-973.62 880.83h-1.02v-2h1.02z" fill="#333"/><path d="M-843.08 879.83h1.02" stroke="#333" stroke-width="2" fill="none"/><path d="M-1300 812.27c0-3.3 2.7-6 6-6h313.36c3.3 0 6 2.7 6 6v51.33c0 3.32-2.7 6-6 6H-1294c-3.3 0-6-2.68-6-6z" stroke="#000" stroke-opacity="0" stroke-width="3" fill="#fff" fill-opacity="0"/><g><use xlink:href="#t" transform="matrix(1,0,0,1,-1295,811.2700510679427) translate(9.987654320987644 31.27777777777778)"/><use xlink:href="#Q" transform="matrix(1,0,0,1,-1295,811.2700510679427) translate(81.53086419753085 31.27777777777778)"/><use xlink:href="#I" transform="matrix(1,0,0,1,-1295,811.2700510679427) translate(134.32716049382714 31.27777777777778)"/><use xlink:href="#y" transform="matrix(1,0,0,1,-1295,811.2700510679427) translate(215.74691358024688 31.27777777777778)"/><use xlink:href="#U" transform="matrix(1,0,0,1,-1295,811.2700510679427) translate(272.35185185185185 31.27777777777778)"/></g><path d="M-973.64 837.94h54.24" stroke="#333" stroke-width="2" fill="none"/><path d="M-973.62 838.94h-1.02v-2h1.02z" fill="#333"/><path d="M-919.42 837.94h1.02M-1380 597.5v-4.03m0-8.07v-8.07m0-8.07v-8.07m0-8.07v-8.07m0-8.07v-8.08m0-8.07v-8.06m0-8.08v-8.07m0-8.07v-8.07m0-8.06v-8.06m0-8.07v-8.06m0-8.07v-8.07m0-8.06V420" stroke="#333" stroke-width="2" fill="none"/><path d="M-1379 598.5h-2v-1.03h2z" fill="#333"/><path d="M-1380 404.74l4.64 14.26h-9.28z" stroke="#333" stroke-width="2" fill="#333"/><path d="M-1780 476.95c0-3.32 2.7-6 6-6h282.64c3.32 0 6 2.68 6 6v51.33c0 3.3-2.68 6-6 6H-1774c-3.3 0-6-2.7-6-6z" stroke="#000" stroke-opacity="0" stroke-width="3" fill="#fff" fill-opacity="0"/><g><use xlink:href="#t" transform="matrix(1,0,0,1,-1775,475.9464014936572) translate(19.00308641975309 17.77777777777778)"/><use xlink:href="#V" transform="matrix(1,0,0,1,-1775,475.9464014936572) translate(90.54629629629629 17.77777777777778)"/><use xlink:href="#W" transform="matrix(1,0,0,1,-1775,475.9464014936572) translate(129.14506172839504 17.77777777777778)"/><use xlink:href="#w" transform="matrix(1,0,0,1,-1775,475.9464014936572) translate(183.4043209876543 17.77777777777778)"/><use xlink:href="#X" transform="matrix(1,0,0,1,-1775,475.9464014936572) translate(241.30555555555554 17.77777777777778)"/><use xlink:href="#Y" transform="matrix(1,0,0,1,-1775,475.9464014936572) translate(62.212962962962976 44.44444444444444)"/><use xlink:href="#Z" transform="matrix(1,0,0,1,-1775,475.9464014936572) translate(118.8179012345679 44.44444444444444)"/><use xlink:href="#A" transform="matrix(1,0,0,1,-1775,475.9464014936572) translate(158.6512345679012 44.44444444444444)"/></g><path d="M-1484.36 502.6H-1381" stroke="#333" stroke-width="2" fill="none"/><path d="M-1484.33 503.6h-1.03v-2h1.03z" fill="#333"/><path d="M-1381.03 502.6h1.03" stroke="#333" stroke-width="2" fill="none"/><path d="M-1280 665c0-8.28 6.72-15 15-15h30c8.28 0 15 6.72 15 15v30c0 8.28-6.72 15-15 15h-30c-8.28 0-15-6.72-15-15z" stroke="#000" stroke-opacity="0" stroke-width="3" fill-opacity="0"/><g><use xlink:href="#aa" transform="matrix(1,0,0,1,-1275,655) translate(-0.21604938271604723 29.444444444444443)"/></g><path d="M-794.57 195c0-8.28 6.72-15 15-15h70c8.3 0 15 6.72 15 15v10c0 8.28-6.7 15-15 15h-70c-8.28 0-15-6.72-15-15z" stroke="#000" stroke-opacity="0" stroke-width="3" fill-opacity="0"/><g><use xlink:href="#ab" transform="matrix(1,0,0,1,-789.5669291338584,185) translate(12.314814814814817 19.65277777777778)"/></g><path d="M-1080 615c0-8.28 6.72-15 15-15h30c8.28 0 15 6.72 15 15v30c0 8.28-6.72 15-15 15h-30c-8.28 0-15-6.72-15-15z" stroke="#000" stroke-opacity="0" stroke-width="3" fill-opacity="0"/><g><use xlink:href="#aa" transform="matrix(1,0,0,1,-1075,605) translate(-0.21604938271604723 29.444444444444443)"/></g><path d="M-1100 715c0-8.28 6.72-15 15-15h50c8.28 0 15 6.72 15 15v30c0 8.28-6.72 15-15 15h-50c-8.28 0-15-6.72-15-15z" stroke="#000" stroke-opacity="0" stroke-width="3" fill-opacity="0"/><g><use xlink:href="#ab" transform="matrix(1,0,0,1,-1095,705) translate(2.3148148148148167 30.27777777777778)"/></g><path d="M-1080 1066.42c0-8.3 6.72-15 15-15h30c8.28 0 15 6.7 15 15v30c0 8.28-6.72 15-15 15h-30c-8.28 0-15-6.72-15-15z" stroke="#000" stroke-opacity="0" stroke-width="3" fill-opacity="0"/><g><use xlink:href="#aa" transform="matrix(1,0,0,1,-1075,1056.4173228346456) translate(-0.21604938271604723 29.444444444444443)"/></g><path d="M-1019 630h16.5" stroke="#333" stroke-width="2" fill="none"/><path d="M-1018.97 631h-1.03v-2h1.03zM-1001.5 631h-1.03v-2h1.03z" fill="#333"/><path d="M-1019 730h56.5" stroke="#333" stroke-width="2" fill="none"/><path d="M-1018.97 731h-1.03v-2h1.03zM-961.5 731h-1.03v-2h1.03z" fill="#333"/><path d="M-1280 680" stroke="#333" stroke-width="2" fill="none"/><path fill="#333"/><path fill="#333"/><path d="M-1297.5 680h16.5" stroke="#333" stroke-width="2" fill="none"/><path d="M-1297.47 681h-1.03v-2h1.03zM-1280 681h-1.03v-2h1.03z" fill="#333"/><path d="M-744.57 221v16.5" stroke="#333" stroke-width="2" fill="none"/><path d="M-743.57 221.03h-2V220h2zM-743.57 238.5h-2v-1.03h2z" fill="#333"/><path d="M-1019 1081.42h16.5" stroke="#333" stroke-width="2" fill="none"/><path d="M-1018.97 1082.42h-1.03v-2h1.03zM-1001.5 1082.42h-1.03v-2h1.03z" fill="#333"/><path d="M-1621.14 284.33V319" stroke="#333" stroke-width="2" fill="none"/><path d="M-1620.14 284.36h-2v-1.03h2z" fill="#333"/><path d="M-1621.14 318.97V320" stroke="#333" stroke-width="2" fill="none"/><defs><path fill="#333" d="M266 0h-40l-56-210L115 0H75L2-248h35L96-30l15-64 43-154h32l59 218 59-218h35" id="ac"/><path fill="#333" d="M100-194c62-1 85 37 85 99 1 63-27 99-86 99S16-35 15-95c0-66 28-99 85-99zM99-20c44 1 53-31 53-75 0-43-8-75-51-75s-53 32-53 75 10 74 51 75" id="ad"/><path fill="#333" d="M114-163C36-179 61-72 57 0H25l-1-190h30c1 12-1 29 2 39 6-27 23-49 58-41v29" id="ae"/><path fill="#333" d="M143 0L79-87 56-68V0H24v-261h32v163l83-92h37l-77 82L181 0h-38" id="af"/><path fill="#333" d="M101-234c-31-9-42 10-38 44h38v23H63V0H32v-167H5v-23h27c-7-52 17-82 69-68v24" id="ag"/><path fill="#333" d="M24 0v-261h32V0H24" id="ah"/><path fill="#333" d="M206 0h-36l-40-164L89 0H53L-1-190h32L70-26l43-164h34l41 164 42-164h31" id="ai"/><g id="a"><use transform="matrix(0.11111111111111108,0,0,0.11111111111111108,0,0)" xlink:href="#ac"/><use transform="matrix(0.061728395061728294,0,0,0.061728395061728294,37.66666666666666,0)" xlink:href="#ad"/><use transform="matrix(0.061728395061728294,0,0,0.061728395061728294,50.01234567901231,0)" xlink:href="#ae"/><use transform="matrix(0.061728395061728294,0,0,0.061728395061728294,57.35802469135798,0)" xlink:href="#af"/><use transform="matrix(0.061728395061728294,0,0,0.061728395061728294,68.46913580246908,0)" xlink:href="#ag"/><use transform="matrix(0.061728395061728294,0,0,0.061728395061728294,74.64197530864192,0)" xlink:href="#ah"/><use transform="matrix(0.061728395061728294,0,0,0.061728395061728294,79.51851851851845,0)" xlink:href="#ad"/><use transform="matrix(0.061728395061728294,0,0,0.061728395061728294,91.8641975308641,0)" xlink:href="#ai"/></g><path fill="#333" d="M30 0v-248h187v28H63v79h144v27H63v87h162V0H30" id="aj"/><path fill="#333" d="M141 0L90-78 38 0H4l68-98-65-92h35l48 74 47-74h35l-64 92 68 98h-35" id="ak"/><path fill="#333" d="M100-194c63 0 86 42 84 106H49c0 40 14 67 53 68 26 1 43-12 49-29l28 8c-11 28-37 45-77 45C44 4 14-33 15-96c1-61 26-98 85-98zm52 81c6-60-76-77-97-28-3 7-6 17-6 28h103" id="al"/><path fill="#333" d="M96-169c-40 0-48 33-48 73s9 75 48 75c24 0 41-14 43-38l32 2c-6 37-31 61-74 61-59 0-76-41-82-99-10-93 101-131 147-64 4 7 5 14 7 22l-32 3c-4-21-16-35-41-35" id="am"/><path fill="#333" d="M84 4C-5 8 30-112 23-190h32v120c0 31 7 50 39 49 72-2 45-101 50-169h31l1 190h-30c-1-10 1-25-2-33-11 22-28 36-60 37" id="an"/><path fill="#333" d="M59-47c-2 24 18 29 38 22v24C64 9 27 4 27-40v-127H5v-23h24l9-43h21v43h35v23H59v120" id="ao"/><path fill="#333" d="M24-231v-30h32v30H24zM24 0v-190h32V0H24" id="ap"/><path fill="#333" d="M117-194c89-4 53 116 60 194h-32v-121c0-31-8-49-39-48C34-167 62-67 57 0H25l-1-190h30c1 10-1 24 2 32 11-22 29-35 61-36" id="aq"/><g id="b"><use transform="matrix(0.0864197530864197,0,0,0.0864197530864197,0,0)" xlink:href="#aj"/><use transform="matrix(0.06172839506172834,0,0,0.06172839506172834,20.74074074074073,0)" xlink:href="#ak"/><use transform="matrix(0.06172839506172834,0,0,0.06172839506172834,31.851851851851833,0)" xlink:href="#al"/><use transform="matrix(0.06172839506172834,0,0,0.06172839506172834,44.1975308641975,0)" xlink:href="#am"/><use transform="matrix(0.06172839506172834,0,0,0.06172839506172834,55.3086419753086,0)" xlink:href="#an"/><use transform="matrix(0.06172839506172834,0,0,0.06172839506172834,67.65432098765427,0)" xlink:href="#ao"/><use transform="matrix(0.06172839506172834,0,0,0.06172839506172834,73.82716049382711,0)" xlink:href="#ap"/><use transform="matrix(0.06172839506172834,0,0,0.06172839506172834,78.70370370370365,0)" xlink:href="#ad"/><use transform="matrix(0.06172839506172834,0,0,0.06172839506172834,91.04938271604932,0)" xlink:href="#aq"/></g><path fill="#333" d="M27 0v-27h64v-190l-56 39v-29l58-41h29v221h61V0H27" id="ar"/><use transform="matrix(0.04938271604938266,0,0,0.04938271604938266,0,0)" xlink:href="#ar" id="c"/><g id="d"><use transform="matrix(0.0864197530864197,0,0,0.0864197530864197,0,0)" xlink:href="#ac"/><use transform="matrix(0.06172839506172834,0,0,0.06172839506172834,29.29629629629628,0)" xlink:href="#ad"/><use transform="matrix(0.06172839506172834,0,0,0.06172839506172834,41.641975308641946,0)" xlink:href="#ae"/><use transform="matrix(0.06172839506172834,0,0,0.06172839506172834,48.987654320987616,0)" xlink:href="#af"/><use transform="matrix(0.06172839506172834,0,0,0.06172839506172834,60.098765432098716,0)" xlink:href="#ag"/><use transform="matrix(0.06172839506172834,0,0,0.06172839506172834,66.27160493827155,0)" xlink:href="#ah"/><use transform="matrix(0.06172839506172834,0,0,0.06172839506172834,71.1481481481481,0)" xlink:href="#ad"/><use transform="matrix(0.06172839506172834,0,0,0.06172839506172834,83.49382716049377,0)" xlink:href="#ai"/></g><g id="e"><use transform="matrix(0.0864197530864197,0,0,0.0864197530864197,0,0)" xlink:href="#aj"/><use transform="matrix(0.06172839506172834,0,0,0.06172839506172834,20.74074074074073,0)" xlink:href="#ak"/><use transform="matrix(0.06172839506172834,0,0,0.06172839506172834,31.851851851851833,0)" xlink:href="#al"/><use transform="matrix(0.06172839506172834,0,0,0.06172839506172834,44.1975308641975,0)" xlink:href="#am"/><use transform="matrix(0.06172839506172834,0,0,0.06172839506172834,55.3086419753086,0)" xlink:href="#an"/><use transform="matrix(0.06172839506172834,0,0,0.06172839506172834,67.65432098765427,0)" xlink:href="#ao"/><use transform="matrix(0.06172839506172834,0,0,0.06172839506172834,73.82716049382711,0)" xlink:href="#ap"/><use transform="matrix(0.06172839506172834,0,0,0.06172839506172834,78.70370370370365,0)" xlink:href="#ad"/><use transform="matrix(0.06172839506172834,0,0,0.06172839506172834,91.04938271604932,0)" xlink:href="#aq"/></g><path fill="#333" d="M126-127c33 6 58 20 58 59 0 88-139 92-164 29-3-8-5-16-6-25l32-3c6 27 21 44 54 44 32 0 52-15 52-46 0-38-36-46-79-43v-28c39 1 72-4 72-42 0-27-17-43-46-43-28 0-47 15-49 41l-32-3c6-42 35-63 81-64 48-1 79 21 79 65 0 36-21 52-52 59" id="as"/><path fill="#333" d="M33 0v-38h34V0H33" id="at"/><g id="f"><use transform="matrix(0.04938271604938266,0,0,0.04938271604938266,0,0)" xlink:href="#as"/><use transform="matrix(0.04938271604938266,0,0,0.04938271604938266,9.876543209876532,0)" xlink:href="#at"/><use transform="matrix(0.04938271604938266,0,0,0.04938271604938266,14.8148148148148,0)" xlink:href="#ar"/></g><g id="g"><use transform="matrix(0.0864197530864197,0,0,0.0864197530864197,0,0)" xlink:href="#ac"/><use transform="matrix(0.06172839506172834,0,0,0.06172839506172834,29.29629629629628,0)" xlink:href="#ad"/><use transform="matrix(0.06172839506172834,0,0,0.06172839506172834,41.641975308641946,0)" xlink:href="#ae"/><use transform="matrix(0.06172839506172834,0,0,0.06172839506172834,48.987654320987616,0)" xlink:href="#af"/><use transform="matrix(0.06172839506172834,0,0,0.06172839506172834,60.098765432098716,0)" xlink:href="#ag"/><use transform="matrix(0.06172839506172834,0,0,0.06172839506172834,66.27160493827155,0)" xlink:href="#ah"/><use transform="matrix(0.06172839506172834,0,0,0.06172839506172834,71.1481481481481,0)" xlink:href="#ad"/><use transform="matrix(0.06172839506172834,0,0,0.06172839506172834,83.49382716049377,0)" xlink:href="#ai"/></g><g id="h"><use transform="matrix(0.0864197530864197,0,0,0.0864197530864197,0,0)" xlink:href="#aj"/><use transform="matrix(0.06172839506172834,0,0,0.06172839506172834,20.74074074074073,0)" xlink:href="#ak"/><use transform="matrix(0.06172839506172834,0,0,0.06172839506172834,31.851851851851833,0)" xlink:href="#al"/><use transform="matrix(0.06172839506172834,0,0,0.06172839506172834,44.1975308641975,0)" xlink:href="#am"/><use transform="matrix(0.06172839506172834,0,0,0.06172839506172834,55.3086419753086,0)" xlink:href="#an"/><use transform="matrix(0.06172839506172834,0,0,0.06172839506172834,67.65432098765427,0)" xlink:href="#ao"/><use transform="matrix(0.06172839506172834,0,0,0.06172839506172834,73.82716049382711,0)" xlink:href="#ap"/><use transform="matrix(0.06172839506172834,0,0,0.06172839506172834,78.70370370370365,0)" xlink:href="#ad"/><use transform="matrix(0.06172839506172834,0,0,0.06172839506172834,91.04938271604932,0)" xlink:href="#aq"/></g><path fill="#333" d="M101-251c82-7 93 87 43 132L82-64C71-53 59-42 53-27h129V0H18c2-99 128-94 128-182 0-28-16-43-45-43s-46 15-49 41l-32-3c6-41 34-60 81-64" id="au"/><g id="i"><use transform="matrix(0.04938271604938266,0,0,0.04938271604938266,0,0)" xlink:href="#as"/><use transform="matrix(0.04938271604938266,0,0,0.04938271604938266,9.876543209876532,0)" xlink:href="#at"/><use transform="matrix(0.04938271604938266,0,0,0.04938271604938266,14.8148148148148,0)" xlink:href="#au"/></g><path fill="#333" d="M155-56V0h-30v-56H8v-25l114-167h33v167h35v25h-35zm-30-156c-27 46-58 90-88 131h88v-131" id="av"/><g id="j"><use transform="matrix(0.04938271604938266,0,0,0.04938271604938266,0,0)" xlink:href="#av"/><use transform="matrix(0.04938271604938266,0,0,0.04938271604938266,9.876543209876532,0)" xlink:href="#at"/><use transform="matrix(0.04938271604938266,0,0,0.04938271604938266,14.8148148148148,0)" xlink:href="#ar"/></g><g id="k"><use transform="matrix(0.04938271604938266,0,0,0.04938271604938266,0,0)" xlink:href="#av"/><use transform="matrix(0.04938271604938266,0,0,0.04938271604938266,9.876543209876532,0)" xlink:href="#at"/><use transform="matrix(0.04938271604938266,0,0,0.04938271604938266,14.8148148148148,0)" xlink:href="#au"/></g><g id="l"><use transform="matrix(0.0864197530864197,0,0,0.0864197530864197,0,0)" xlink:href="#ac"/><use transform="matrix(0.06172839506172834,0,0,0.06172839506172834,29.29629629629628,0)" xlink:href="#ad"/><use transform="matrix(0.06172839506172834,0,0,0.06172839506172834,41.641975308641946,0)" xlink:href="#ae"/><use transform="matrix(0.06172839506172834,0,0,0.06172839506172834,48.987654320987616,0)" xlink:href="#af"/><use transform="matrix(0.06172839506172834,0,0,0.06172839506172834,60.098765432098716,0)" xlink:href="#ag"/><use transform="matrix(0.06172839506172834,0,0,0.06172839506172834,66.27160493827155,0)" xlink:href="#ah"/><use transform="matrix(0.06172839506172834,0,0,0.06172839506172834,71.1481481481481,0)" xlink:href="#ad"/><use transform="matrix(0.06172839506172834,0,0,0.06172839506172834,83.49382716049377,0)" xlink:href="#ai"/></g><use transform="matrix(0.04938271604938266,0,0,0.04938271604938266,0,0)" xlink:href="#au" id="m"/><path fill="#333" d="M212-179c-10-28-35-45-73-45-59 0-87 40-87 99 0 60 29 101 89 101 43 0 62-24 78-52l27 14C228-24 195 4 139 4 59 4 22-46 18-125c-6-104 99-153 187-111 19 9 31 26 39 46" id="aw"/><g id="n"><use transform="matrix(0.06172839506172839,0,0,0.06172839506172839,0,0)" xlink:href="#aw"/><use transform="matrix(0.06172839506172839,0,0,0.06172839506172839,15.987654320987653,0)" xlink:href="#ad"/><use transform="matrix(0.06172839506172839,0,0,0.06172839506172839,28.333333333333332,0)" xlink:href="#aq"/><use transform="matrix(0.06172839506172839,0,0,0.06172839506172839,40.67901234567901,0)" xlink:href="#ao"/><use transform="matrix(0.06172839506172839,0,0,0.06172839506172839,46.851851851851855,0)" xlink:href="#ap"/><use transform="matrix(0.06172839506172839,0,0,0.06172839506172839,51.7283950617284,0)" xlink:href="#aq"/><use transform="matrix(0.06172839506172839,0,0,0.06172839506172839,64.07407407407408,0)" xlink:href="#an"/><use transform="matrix(0.06172839506172839,0,0,0.06172839506172839,76.41975308641976,0)" xlink:href="#al"/></g><path fill="#333" d="M205 0l-28-72H64L36 0H1l101-248h38L239 0h-34zm-38-99l-47-123c-12 45-31 82-46 123h93" id="ax"/><path fill="#333" d="M135-143c-3-34-86-38-87 0 15 53 115 12 119 90S17 21 10-45l28-5c4 36 97 45 98 0-10-56-113-15-118-90-4-57 82-63 122-42 12 7 21 19 24 35" id="ay"/><g id="o"><use transform="matrix(0.06172839506172839,0,0,0.06172839506172839,0,0)" xlink:href="#ax"/><use transform="matrix(0.06172839506172839,0,0,0.06172839506172839,14.814814814814813,0)" xlink:href="#ay"/></g><path fill="#333" d="M190 0L58-211 59 0H30v-248h39L202-35l-2-213h31V0h-41" id="az"/><g id="p"><use transform="matrix(0.06172839506172839,0,0,0.06172839506172839,0,0)" xlink:href="#az"/><use transform="matrix(0.06172839506172839,0,0,0.06172839506172839,15.987654320987653,0)" xlink:href="#al"/><use transform="matrix(0.06172839506172839,0,0,0.06172839506172839,28.333333333333332,0)" xlink:href="#ai"/></g><path fill="#333" d="M194-120c59 52 2 134-86 124-53-6-90-18-98-63l31-7c8 30 29 43 70 43 46 0 84-17 71-62-32-43-135-20-137-98-3-89 178-90 191-16l-30 9c-8-48-127-53-127 5 0 53 81 35 115 65" id="aA"/><path fill="#333" d="M51-54c-9 22 5 41 31 30L79-1C43 14 10-4 19-52l22-115H19l5-23h22l19-43h21l-9 43h35l-4 23H73" id="aB"/><path fill="#333" d="M165-48c-4 18 1 34 23 27l-3 20c-29 8-62 0-52-35h-2C116-14 99 4 63 4 30 4 8-16 8-49c0-68 71-67 138-67 10-26 0-56-31-54-26 1-42 9-47 31l-32-5c8-67 160-71 144 15-5 28-9 54-15 81zM42-50c3 52 80 24 89-6 7-12 7-24 11-38-47 1-103-4-100 44" id="aC"/><path fill="#333" d="M66-151c12-25 30-51 66-40l-6 26C45-176 58-65 38 0H6l36-190h30" id="aD"/><g id="q"><use transform="matrix(0.06172839506172839,0,0,0.06172839506172839,0,0)" xlink:href="#aA"/><use transform="matrix(0.06172839506172839,0,0,0.06172839506172839,14.814814814814813,0)" xlink:href="#aB"/><use transform="matrix(0.06172839506172839,0,0,0.06172839506172839,20.98765432098765,0)" xlink:href="#aC"/><use transform="matrix(0.06172839506172839,0,0,0.06172839506172839,33.33333333333333,0)" xlink:href="#aD"/><use transform="matrix(0.06172839506172839,0,0,0.06172839506172839,40.679012345679006,0)" xlink:href="#aB"/></g><path fill="#333" d="M247 0h-39l-15-214-24 57L95 0H56L31-248h35L82-30l101-218h33l16 218 101-218h35" id="aE"/><path fill="#333" d="M30-147c31-64 166-65 159 27C183-49 158 1 86 4 9 8 1-88 30-147zM88-20c53 0 68-48 68-100 0-31-11-51-44-50-52 1-68 46-68 97 0 32 13 53 44 53" id="aF"/><path fill="#333" d="M127 0L80-88 50-66 37 0H6l51-261h31L57-100l99-90h39l-93 82L161 0h-34" id="aG"/><path fill="#333" d="M76-167L44 0H12l33-167H18l4-23h27c3-47 25-81 82-69l-4 24c-35-8-44 15-46 45h37l-5 23H76" id="aH"/><path fill="#333" d="M6 0l50-261h32L37 0H6" id="aI"/><path fill="#333" d="M188 0h-37l-8-164L71 0H34L18-190h31l8 164 75-164h34l8 164 74-164h31" id="aJ"/><g id="r"><use transform="matrix(0.06172839506172839,0,0,0.06172839506172839,0,0)" xlink:href="#aE"/><use transform="matrix(0.06172839506172839,0,0,0.06172839506172839,20.925925925925924,0)" xlink:href="#aF"/><use transform="matrix(0.06172839506172839,0,0,0.06172839506172839,33.2716049382716,0)" xlink:href="#aD"/><use transform="matrix(0.06172839506172839,0,0,0.06172839506172839,40.61728395061728,0)" xlink:href="#aG"/><use transform="matrix(0.06172839506172839,0,0,0.06172839506172839,51.72839506172839,0)" xlink:href="#aH"/><use transform="matrix(0.06172839506172839,0,0,0.06172839506172839,57.901234567901234,0)" xlink:href="#aI"/><use transform="matrix(0.06172839506172839,0,0,0.06172839506172839,62.77777777777778,0)" xlink:href="#aF"/><use transform="matrix(0.06172839506172839,0,0,0.06172839506172839,75.12345679012346,0)" xlink:href="#aJ"/></g><path fill="#333" d="M11 0l48-248h184l-5 28H87l-15 79h140l-5 27H67L50-27h158l-5 27H11" id="aK"/><path fill="#333" d="M124 0L87-78 21 0h-35l86-98-46-92h33l34 74 61-74h37l-83 92 50 98h-34" id="aL"/><path fill="#333" d="M111-194c62-3 86 47 72 106H45c-7 38 6 69 45 68 27-1 43-14 53-32l24 11C152-15 129 4 87 4 38 3 12-23 12-71c0-70 32-119 99-123zm44 81c14-66-71-72-95-28-4 8-8 17-11 28h106" id="aM"/><path fill="#333" d="M44-68c0 29 11 47 38 47 30 0 42-19 51-41l28 9C148-21 126 4 82 4 31 4 10-29 12-85c3-77 74-140 146-93 12 8 15 23 18 40l-31 5c-1-22-13-36-36-36-52 0-65 49-65 101" id="aN"/><path fill="#333" d="M67 3c-93-2-31-127-26-193h32L48-50c-3 39 53 32 70 12 30-34 30-101 43-152h32L157 0h-30c1-10 6-24 4-33-14 20-29 37-64 36" id="aO"/><path fill="#333" d="M50-231l6-30h32l-6 30H50zM6 0l37-190h31L37 0H6" id="aP"/><path fill="#333" d="M67-158c22-48 132-52 116 29L158 0h-32l25-140c3-38-53-32-70-12C52-117 51-52 38 0H6l36-190h30" id="aQ"/><g id="s"><use transform="matrix(0.06172839506172839,0,0,0.06172839506172839,0,0)" xlink:href="#aK"/><use transform="matrix(0.06172839506172839,0,0,0.06172839506172839,14.814814814814813,0)" xlink:href="#aL"/><use transform="matrix(0.06172839506172839,0,0,0.06172839506172839,25.925925925925924,0)" xlink:href="#aM"/><use transform="matrix(0.06172839506172839,0,0,0.06172839506172839,38.2716049382716,0)" xlink:href="#aN"/><use transform="matrix(0.06172839506172839,0,0,0.06172839506172839,49.38271604938271,0)" xlink:href="#aO"/><use transform="matrix(0.06172839506172839,0,0,0.06172839506172839,61.728395061728385,0)" xlink:href="#aB"/><use transform="matrix(0.06172839506172839,0,0,0.06172839506172839,67.90123456790123,0)" xlink:href="#aP"/><use transform="matrix(0.06172839506172839,0,0,0.06172839506172839,72.77777777777777,0)" xlink:href="#aF"/><use transform="matrix(0.06172839506172839,0,0,0.06172839506172839,85.12345679012346,0)" xlink:href="#aQ"/></g><path fill="#333" d="M238-179c0 84-86 86-175 82L45 0H11l48-248c82 0 179-12 179 69zm-34 1c0-53-64-42-116-43l-19 98c63 0 135 9 135-55" id="aR"/><g id="t"><use transform="matrix(0.06172839506172839,0,0,0.06172839506172839,0,0)" xlink:href="#aR"/><use transform="matrix(0.06172839506172839,0,0,0.06172839506172839,14.814814814814813,0)" xlink:href="#aC"/><use transform="matrix(0.06172839506172839,0,0,0.06172839506172839,27.160493827160494,0)" xlink:href="#aD"/><use transform="matrix(0.06172839506172839,0,0,0.06172839506172839,34.50617283950617,0)" xlink:href="#aM"/><use transform="matrix(0.06172839506172839,0,0,0.06172839506172839,46.85185185185185,0)" xlink:href="#aQ"/><use transform="matrix(0.06172839506172839,0,0,0.06172839506172839,59.197530864197525,0)" xlink:href="#aB"/></g><path fill="#333" d="M253 0h-61l-6-196c-25 68-54 131-82 196H42L26-248h50l7 204 86-204h55l8 204 82-204h51" id="aS"/><path fill="#333" d="M6 0l48-248h195l-8 40H98l-12 63h132l-7 40H79L66-40h150l-8 40H6" id="aT"/><path fill="#333" d="M6 0l7-41h62l31-161-67 37 8-42 70-41h48L124-41h57l-8 41H6" id="aU"/><g id="u"><use transform="matrix(0.04320987654320986,0,0,0.04320987654320986,0,0)" xlink:href="#aS"/><use transform="matrix(0.04320987654320986,0,0,0.04320987654320986,14.648148148148143,0)" xlink:href="#aT"/><use transform="matrix(0.04320987654320986,0,0,0.04320987654320986,25.018518518518515,0)" xlink:href="#aU"/></g><path fill="#333" d="M248-111c6-24 9-61-24-58-72 9-57 108-77 169h-31l26-142c3-37-50-30-64-10C52-115 50-51 37 0H6l36-190h30c-1 10-6 24-4 32 13-43 101-52 105 5 13-22 29-41 61-41 90 0 28 129 23 194h-31" id="aV"/><path fill="#333" d="M55-144c13 50 104 24 104 88C159 21 15 23 1-39l26-10c6 40 102 42 102-4-13-50-104-23-104-87 0-71 143-71 148-8l-29 4c-5-35-85-37-89 0" id="aW"/><g id="v"><use transform="matrix(0.06172839506172839,0,0,0.06172839506172839,0,0)" xlink:href="#aV"/><use transform="matrix(0.06172839506172839,0,0,0.06172839506172839,18.456790123456788,0)" xlink:href="#aO"/><use transform="matrix(0.06172839506172839,0,0,0.06172839506172839,30.80246913580247,0)" xlink:href="#aW"/><use transform="matrix(0.06172839506172839,0,0,0.06172839506172839,41.91358024691358,0)" xlink:href="#aB"/></g><g id="w"><use transform="matrix(0.06172839506172839,0,0,0.06172839506172839,0,0)" xlink:href="#aC"/><use transform="matrix(0.06172839506172839,0,0,0.06172839506172839,12.345679012345679,0)" xlink:href="#aJ"/><use transform="matrix(0.06172839506172839,0,0,0.06172839506172839,28.333333333333332,0)" xlink:href="#aC"/><use transform="matrix(0.06172839506172839,0,0,0.06172839506172839,40.67901234567901,0)" xlink:href="#aP"/><use transform="matrix(0.06172839506172839,0,0,0.06172839506172839,45.55555555555556,0)" xlink:href="#aB"/></g><g id="x"><use transform="matrix(0.06172839506172839,0,0,0.06172839506172839,0,0)" xlink:href="#aF"/><use transform="matrix(0.06172839506172839,0,0,0.06172839506172839,12.345679012345679,0)" xlink:href="#aQ"/></g><path fill="#333" d="M125-24c46 0 70-25 89-51l25 16C214-24 183 4 123 4 8 4-5-146 60-208c32-50 158-61 191-5 5 7 9 14 11 22l-32 10c-9-28-33-43-69-43-74 0-108 51-108 125 0 46 24 75 72 75" id="aX"/><path fill="#333" d="M67-158c15-20 31-36 64-36 94 0 33 127 27 194h-32l25-140c3-38-53-32-70-12C52-117 51-51 37 0H6l51-261h31" id="aY"/><path fill="#333" d="M133-28C103 26-5 8 13-77c13-62 24-115 90-117 29-1 46 15 56 35l19-102h32L160 0h-30zM45-64c-2 27 10 43 35 43 54-1 69-50 69-103 0-29-15-46-42-46-53-1-58 58-62 106" id="aZ"/><g id="y"><use transform="matrix(0.06172839506172839,0,0,0.06172839506172839,0,0)" xlink:href="#aX"/><use transform="matrix(0.06172839506172839,0,0,0.06172839506172839,15.987654320987653,0)" xlink:href="#aY"/><use transform="matrix(0.06172839506172839,0,0,0.06172839506172839,28.333333333333332,0)" xlink:href="#aP"/><use transform="matrix(0.06172839506172839,0,0,0.06172839506172839,33.20987654320987,0)" xlink:href="#aI"/><use transform="matrix(0.06172839506172839,0,0,0.06172839506172839,38.08641975308642,0)" xlink:href="#aZ"/></g><path fill="#333" d="M131-73c0-31-25-35-58-33l8-40c36 2 64-5 65-39 0-17-10-28-28-27-23 1-35 12-41 32l-47-9c11-39 39-63 90-62 44 1 76 17 76 60 0 42-26 59-63 64 28 5 48 20 48 54C181 22 9 32 3-60l49-7c3 21 16 31 40 31s39-13 39-37" id="ba"/><g id="z"><use transform="matrix(0.04320987654320986,0,0,0.04320987654320986,0,0)" xlink:href="#aS"/><use transform="matrix(0.04320987654320986,0,0,0.04320987654320986,14.648148148148143,0)" xlink:href="#aT"/><use transform="matrix(0.04320987654320986,0,0,0.04320987654320986,25.018518518518515,0)" xlink:href="#ba"/></g><path fill="#333" d="M67-162c32-53 139-36 121 50C175-51 163 2 97 4 68 4 52-11 42-31 38 6 28 39 22 75H-9l50-265h29c-1 10 0 20-3 28zm89 36c0-26-10-43-35-43-54 0-67 50-69 103-1 29 14 45 42 46 53 0 62-58 62-106" id="bb"/><g id="A"><use transform="matrix(0.06172839506172839,0,0,0.06172839506172839,0,0)" xlink:href="#aW"/><use transform="matrix(0.06172839506172839,0,0,0.06172839506172839,11.11111111111111,0)" xlink:href="#bb"/><use transform="matrix(0.06172839506172839,0,0,0.06172839506172839,23.45679012345679,0)" xlink:href="#aC"/><use transform="matrix(0.06172839506172839,0,0,0.06172839506172839,35.80246913580247,0)" xlink:href="#aJ"/><use transform="matrix(0.06172839506172839,0,0,0.06172839506172839,51.79012345679012,0)" xlink:href="#aQ"/></g><path fill="#333" d="M20-101c0-91 52-143 145-150 126-9 127 168 53 223-23 17-55 32-93 32C57 4 20-33 20-101zm216-33c5-57-18-91-73-90-77 1-110 51-110 125 0 49 23 75 73 75 72-1 104-45 110-110" id="bc"/><g id="B"><use transform="matrix(0.06172839506172839,0,0,0.06172839506172839,0,0)" xlink:href="#bc"/><use transform="matrix(0.06172839506172839,0,0,0.06172839506172839,17.28395061728395,0)" xlink:href="#bb"/><use transform="matrix(0.06172839506172839,0,0,0.06172839506172839,29.629629629629626,0)" xlink:href="#aB"/><use transform="matrix(0.06172839506172839,0,0,0.06172839506172839,35.80246913580247,0)" xlink:href="#aP"/><use transform="matrix(0.06172839506172839,0,0,0.06172839506172839,40.67901234567901,0)" xlink:href="#aF"/><use transform="matrix(0.06172839506172839,0,0,0.06172839506172839,53.02469135802469,0)" xlink:href="#aQ"/><use transform="matrix(0.06172839506172839,0,0,0.06172839506172839,65.37037037037037,0)" xlink:href="#aC"/><use transform="matrix(0.06172839506172839,0,0,0.06172839506172839,77.71604938271605,0)" xlink:href="#aI"/></g><path fill="#333" d="M18-82l6-28h88l-6 28H18" id="bd"/><use transform="matrix(0.06172839506172839,0,0,0.06172839506172839,0,0)" xlink:href="#bd" id="C"/><g id="D"><use transform="matrix(0.06172839506172839,0,0,0.06172839506172839,0,0)" xlink:href="#aR"/><use transform="matrix(0.06172839506172839,0,0,0.06172839506172839,14.814814814814813,0)" xlink:href="#aC"/><use transform="matrix(0.06172839506172839,0,0,0.06172839506172839,27.160493827160494,0)" xlink:href="#aD"/><use transform="matrix(0.06172839506172839,0,0,0.06172839506172839,34.50617283950617,0)" xlink:href="#aM"/><use transform="matrix(0.06172839506172839,0,0,0.06172839506172839,46.85185185185185,0)" xlink:href="#aQ"/><use transform="matrix(0.06172839506172839,0,0,0.06172839506172839,59.197530864197525,0)" xlink:href="#aB"/></g><g id="E"><use transform="matrix(0.04320987654320985,0,0,0.04320987654320985,0,0)" xlink:href="#aS"/><use transform="matrix(0.04320987654320985,0,0,0.04320987654320985,14.64814814814814,0)" xlink:href="#aT"/><use transform="matrix(0.04320987654320985,0,0,0.04320987654320985,25.018518518518505,0)" xlink:href="#aU"/></g><g id="F"><use transform="matrix(0.06172839506172839,0,0,0.06172839506172839,0,0)" xlink:href="#aC"/><use transform="matrix(0.06172839506172839,0,0,0.06172839506172839,12.345679012345679,0)" xlink:href="#aJ"/><use transform="matrix(0.06172839506172839,0,0,0.06172839506172839,28.333333333333332,0)" xlink:href="#aC"/><use transform="matrix(0.06172839506172839,0,0,0.06172839506172839,40.67901234567901,0)" xlink:href="#aP"/><use transform="matrix(0.06172839506172839,0,0,0.06172839506172839,45.55555555555556,0)" xlink:href="#aB"/><use transform="matrix(0.06172839506172839,0,0,0.06172839506172839,51.7283950617284,0)" xlink:href="#aW"/></g><path fill="#333" d="M101-200l41-18 12 35-44 11 33 37-32 21-26-44-26 44-33-21 33-37-44-11 12-35 42 18-3-48h38" id="be"/><g id="G"><use transform="matrix(0.04320987654320986,0,0,0.04320987654320986,0,0)" xlink:href="#aS"/><use transform="matrix(0.04320987654320986,0,0,0.04320987654320986,14.648148148148143,0)" xlink:href="#aT"/><use transform="matrix(0.04320987654320986,0,0,0.04320987654320986,25.018518518518515,0)" xlink:href="#ba"/><use transform="matrix(0.04320987654320986,0,0,0.04320987654320986,33.66049382716049,0)" xlink:href="#be"/></g><g id="H"><use transform="matrix(0.06172839506172839,0,0,0.06172839506172839,0,0)" xlink:href="#aD"/><use transform="matrix(0.06172839506172839,0,0,0.06172839506172839,7.345679012345679,0)" xlink:href="#aM"/><use transform="matrix(0.06172839506172839,0,0,0.06172839506172839,19.691358024691358,0)" xlink:href="#aW"/><use transform="matrix(0.06172839506172839,0,0,0.06172839506172839,30.80246913580247,0)" xlink:href="#aO"/><use transform="matrix(0.06172839506172839,0,0,0.06172839506172839,43.148148148148145,0)" xlink:href="#aI"/><use transform="matrix(0.06172839506172839,0,0,0.06172839506172839,48.02469135802469,0)" xlink:href="#aB"/></g><g id="I"><use transform="matrix(0.06172839506172839,0,0,0.06172839506172839,0,0)" xlink:href="#aW"/><use transform="matrix(0.06172839506172839,0,0,0.06172839506172839,11.11111111111111,0)" xlink:href="#bb"/><use transform="matrix(0.06172839506172839,0,0,0.06172839506172839,23.45679012345679,0)" xlink:href="#aC"/><use transform="matrix(0.06172839506172839,0,0,0.06172839506172839,35.80246913580247,0)" xlink:href="#aJ"/><use transform="matrix(0.06172839506172839,0,0,0.06172839506172839,51.79012345679012,0)" xlink:href="#aQ"/><use transform="matrix(0.06172839506172839,0,0,0.06172839506172839,64.1358024691358,0)" xlink:href="#aW"/></g><path fill="#333" d="M121-251c83 0 93 87 42 126-35 27-77 48-103 84h115l-7 41H-6C6-94 102-103 141-168c11-20 3-46-24-44-23 2-33 13-39 32l-47-10c12-38 39-61 90-61" id="bf"/><g id="J"><use transform="matrix(0.04320987654320986,0,0,0.04320987654320986,0,0)" xlink:href="#aS"/><use transform="matrix(0.04320987654320986,0,0,0.04320987654320986,14.648148148148143,0)" xlink:href="#aT"/><use transform="matrix(0.04320987654320986,0,0,0.04320987654320986,25.018518518518515,0)" xlink:href="#bf"/></g><g id="K"><use transform="matrix(0.03703703703703702,0,0,0.03703703703703702,0,0)" xlink:href="#aS"/><use transform="matrix(0.03703703703703702,0,0,0.03703703703703702,12.55555555555555,0)" xlink:href="#aT"/><use transform="matrix(0.03703703703703702,0,0,0.03703703703703702,21.444444444444436,0)" xlink:href="#aU"/></g><g id="L"><use transform="matrix(0.06172839506172839,0,0,0.06172839506172839,0,0)" xlink:href="#aC"/><use transform="matrix(0.06172839506172839,0,0,0.06172839506172839,12.345679012345679,0)" xlink:href="#aJ"/><use transform="matrix(0.06172839506172839,0,0,0.06172839506172839,28.333333333333332,0)" xlink:href="#aC"/><use transform="matrix(0.06172839506172839,0,0,0.06172839506172839,40.67901234567901,0)" xlink:href="#aP"/><use transform="matrix(0.06172839506172839,0,0,0.06172839506172839,45.55555555555556,0)" xlink:href="#aB"/><use transform="matrix(0.06172839506172839,0,0,0.06172839506172839,51.7283950617284,0)" xlink:href="#aW"/></g><g id="M"><use transform="matrix(0.06172839506172839,0,0,0.06172839506172839,0,0)" xlink:href="#aB"/><use transform="matrix(0.06172839506172839,0,0,0.06172839506172839,6.172839506172839,0)" xlink:href="#aY"/><use transform="matrix(0.06172839506172839,0,0,0.06172839506172839,18.51851851851852,0)" xlink:href="#aM"/></g><g id="N"><use transform="matrix(0.04320987654320986,0,0,0.04320987654320986,0,0)" xlink:href="#aS"/><use transform="matrix(0.04320987654320986,0,0,0.04320987654320986,14.648148148148143,0)" xlink:href="#aT"/><use transform="matrix(0.04320987654320986,0,0,0.04320987654320986,25.018518518518515,0)" xlink:href="#bf"/><use transform="matrix(0.04320987654320986,0,0,0.04320987654320986,33.66049382716049,0)" xlink:href="#be"/></g><g id="O"><use transform="matrix(0.06172839506172839,0,0,0.06172839506172839,0,0)" xlink:href="#aR"/><use transform="matrix(0.06172839506172839,0,0,0.06172839506172839,14.814814814814813,0)" xlink:href="#aC"/><use transform="matrix(0.06172839506172839,0,0,0.06172839506172839,27.160493827160494,0)" xlink:href="#aD"/><use transform="matrix(0.06172839506172839,0,0,0.06172839506172839,34.50617283950617,0)" xlink:href="#aM"/><use transform="matrix(0.06172839506172839,0,0,0.06172839506172839,46.85185185185185,0)" xlink:href="#aQ"/><use transform="matrix(0.06172839506172839,0,0,0.06172839506172839,59.197530864197525,0)" xlink:href="#aB"/></g><g id="P"><use transform="matrix(0.0493827160493827,0,0,0.0493827160493827,0,0)" xlink:href="#aS"/><use transform="matrix(0.0493827160493827,0,0,0.0493827160493827,16.740740740740733,0)" xlink:href="#aT"/><use transform="matrix(0.0493827160493827,0,0,0.0493827160493827,28.592592592592585,0)" xlink:href="#ba"/></g><path fill="#333" d="M8 0l10-54h51L59 0H8" id="bg"/><g id="Q"><use transform="matrix(0.04320987654320986,0,0,0.04320987654320986,0,0)" xlink:href="#aS"/><use transform="matrix(0.04320987654320986,0,0,0.04320987654320986,14.648148148148143,0)" xlink:href="#aT"/><use transform="matrix(0.04320987654320986,0,0,0.04320987654320986,25.018518518518515,0)" xlink:href="#ba"/><use transform="matrix(0.04320987654320986,0,0,0.04320987654320986,33.66049382716049,0)" xlink:href="#bg"/><use transform="matrix(0.04320987654320986,0,0,0.04320987654320986,37.981481481481474,0)" xlink:href="#aU"/></g><g id="R"><use transform="matrix(0.06172839506172839,0,0,0.06172839506172839,0,0)" xlink:href="#aC"/><use transform="matrix(0.06172839506172839,0,0,0.06172839506172839,12.345679012345679,0)" xlink:href="#aJ"/><use transform="matrix(0.06172839506172839,0,0,0.06172839506172839,28.333333333333332,0)" xlink:href="#aC"/><use transform="matrix(0.06172839506172839,0,0,0.06172839506172839,40.67901234567901,0)" xlink:href="#aP"/><use transform="matrix(0.06172839506172839,0,0,0.06172839506172839,45.55555555555556,0)" xlink:href="#aB"/><use transform="matrix(0.06172839506172839,0,0,0.06172839506172839,51.7283950617284,0)" xlink:href="#aW"/></g><path fill="#333" d="M154-50L144 0H97l10-50H-6l7-37 126-161h65L161-87h33l-7 37h-33zm-40-37l27-125c-29 45-64 83-95 125h68" id="bh"/><g id="S"><use transform="matrix(0.04320987654320986,0,0,0.04320987654320986,0,0)" xlink:href="#aS"/><use transform="matrix(0.04320987654320986,0,0,0.04320987654320986,14.648148148148143,0)" xlink:href="#aT"/><use transform="matrix(0.04320987654320986,0,0,0.04320987654320986,25.018518518518515,0)" xlink:href="#bh"/><use transform="matrix(0.04320987654320986,0,0,0.04320987654320986,33.66049382716049,0)" xlink:href="#be"/></g><g id="T"><use transform="matrix(0.04320987654320986,0,0,0.04320987654320986,0,0)" xlink:href="#aS"/><use transform="matrix(0.04320987654320986,0,0,0.04320987654320986,14.648148148148143,0)" xlink:href="#aT"/><use transform="matrix(0.04320987654320986,0,0,0.04320987654320986,25.018518518518515,0)" xlink:href="#bh"/></g><g id="U"><use transform="matrix(0.04320987654320986,0,0,0.04320987654320986,0,0)" xlink:href="#aS"/><use transform="matrix(0.04320987654320986,0,0,0.04320987654320986,14.648148148148143,0)" xlink:href="#aT"/><use transform="matrix(0.04320987654320986,0,0,0.04320987654320986,25.018518518518515,0)" xlink:href="#bh"/></g><g id="V"><use transform="matrix(0.04320987654320986,0,0,0.04320987654320986,0,0)" xlink:href="#aS"/><use transform="matrix(0.04320987654320986,0,0,0.04320987654320986,14.648148148148143,0)" xlink:href="#aT"/><use transform="matrix(0.04320987654320986,0,0,0.04320987654320986,25.018518518518515,0)" xlink:href="#aU"/></g><g id="W"><use transform="matrix(0.06172839506172839,0,0,0.06172839506172839,0,0)" xlink:href="#aV"/><use transform="matrix(0.06172839506172839,0,0,0.06172839506172839,18.456790123456788,0)" xlink:href="#aO"/><use transform="matrix(0.06172839506172839,0,0,0.06172839506172839,30.80246913580247,0)" xlink:href="#aW"/><use transform="matrix(0.06172839506172839,0,0,0.06172839506172839,41.91358024691358,0)" xlink:href="#aB"/></g><g id="X"><use transform="matrix(0.06172839506172839,0,0,0.06172839506172839,0,0)" xlink:href="#aF"/><use transform="matrix(0.06172839506172839,0,0,0.06172839506172839,12.345679012345679,0)" xlink:href="#aQ"/></g><g id="Y"><use transform="matrix(0.06172839506172839,0,0,0.06172839506172839,0,0)" xlink:href="#aX"/><use transform="matrix(0.06172839506172839,0,0,0.06172839506172839,15.987654320987653,0)" xlink:href="#aY"/><use transform="matrix(0.06172839506172839,0,0,0.06172839506172839,28.333333333333332,0)" xlink:href="#aP"/><use transform="matrix(0.06172839506172839,0,0,0.06172839506172839,33.20987654320987,0)" xlink:href="#aI"/><use transform="matrix(0.06172839506172839,0,0,0.06172839506172839,38.08641975308642,0)" xlink:href="#aZ"/></g><g id="Z"><use transform="matrix(0.04320987654320986,0,0,0.04320987654320986,0,0)" xlink:href="#aS"/><use transform="matrix(0.04320987654320986,0,0,0.04320987654320986,14.648148148148143,0)" xlink:href="#aT"/><use transform="matrix(0.04320987654320986,0,0,0.04320987654320986,25.018518518518515,0)" xlink:href="#bf"/></g><path fill="#333" d="M106-169C34-169 62-67 57 0H25v-261h32l-1 103c12-21 28-36 61-36 89 0 53 116 60 194h-32v-121c2-32-8-49-39-48" id="bi"/><path fill="#333" d="M85-194c31 0 48 13 60 33l-1-100h32l1 261h-30c-2-10 0-23-3-31C134-8 116 4 85 4 32 4 16-35 15-94c0-66 23-100 70-100zm9 24c-40 0-46 34-46 75 0 40 6 74 45 74 42 0 51-32 51-76 0-42-9-74-50-73" id="bj"/><g id="aa"><use transform="matrix(0.06172839506172839,0,0,0.06172839506172839,0,0)" xlink:href="#aw"/><use transform="matrix(0.06172839506172839,0,0,0.06172839506172839,15.987654320987653,0)" xlink:href="#bi"/><use transform="matrix(0.06172839506172839,0,0,0.06172839506172839,28.333333333333332,0)" xlink:href="#ap"/><use transform="matrix(0.06172839506172839,0,0,0.06172839506172839,33.20987654320987,0)" xlink:href="#ah"/><use transform="matrix(0.06172839506172839,0,0,0.06172839506172839,38.08641975308642,0)" xlink:href="#bj"/></g><path fill="#333" d="M30-248c87 1 191-15 191 75 0 78-77 80-158 76V0H30v-248zm33 125c57 0 124 11 124-50 0-59-68-47-124-48v98" id="bk"/><path fill="#333" d="M141-36C126-15 110 5 73 4 37 3 15-17 15-53c-1-64 63-63 125-63 3-35-9-54-41-54-24 1-41 7-42 31l-33-3c5-37 33-52 76-52 45 0 72 20 72 64v82c-1 20 7 32 28 27v20c-31 9-61-2-59-35zM48-53c0 20 12 33 32 33 41-3 63-29 60-74-43 2-92-5-92 41" id="bl"/><g id="ab"><use transform="matrix(0.06172839506172839,0,0,0.06172839506172839,0,0)" xlink:href="#bk"/><use transform="matrix(0.06172839506172839,0,0,0.06172839506172839,14.814814814814813,0)" xlink:href="#bl"/><use transform="matrix(0.06172839506172839,0,0,0.06172839506172839,27.160493827160494,0)" xlink:href="#ae"/><use transform="matrix(0.06172839506172839,0,0,0.06172839506172839,34.50617283950617,0)" xlink:href="#al"/><use transform="matrix(0.06172839506172839,0,0,0.06172839506172839,46.85185185185185,0)" xlink:href="#aq"/><use transform="matrix(0.06172839506172839,0,0,0.06172839506172839,59.197530864197525,0)" xlink:href="#ao"/></g></defs></g></svg>