<svg xmlns="http://www.w3.org/2000/svg" xmlns:xlink="http://www.w3.org/1999/xlink" xmlns:lucid="lucid" width="1182.32" height="600"><g transform="translate(1640 -280)" lucid:page-tab-id="0_0"><path d="M-1806.87 0H64v1322.83h-1870.87z" fill="#fff"/><path d="M-1160 715c0-8.28 6.72-15 15-15h130c8.28 0 15 6.72 15 15v130c0 8.28-6.72 15-15 15h-130c-8.28 0-15-6.72-15-15z" stroke="#282c33" fill="#fff"/><use xlink:href="#a" transform="translate(-1125.34 772.076)"/><use xlink:href="#b" transform="translate(-1128.735 802.299)"/><path d="M-1136.1 461v222.12" stroke="#282c33" fill="none"/><path d="M-1135.6 461h-1v-.5h1z" stroke="#282c33" stroke-width=".05" fill="#282c33"/><path d="m-1136.1 697.88-4.65-14.26h9.27z" stroke="#282c33" fill="#282c33"/><path d="M-1019.25 699v-1.98m0-3.97v-3.97m0-3.96v-3.97m0-3.96v-3.98m0-3.97v-3.96m0-3.98v-3.97m0-3.96v-3.98m0-3.97v-3.96m0-3.98v-3.96m0-3.97v-3.98m0-3.96v-3.97m0-3.98v-3.96m0-3.97v-3.98m0-3.96v-3.97m0-3.97v-3.97m0-3.97v-3.97m0-3.97V570m0-3.97v-3.97m0-3.97v-3.97m0-3.97v-3.96m0-3.97v-3.97m0-3.96v-3.97m0-3.97v-3.96m0-3.97v-3.97m0-3.96v-3.97m0-3.96v-3.97m0-3.97v-3.96m0-3.97v-3.97m0-3.96v-2" stroke="#282c33" fill="none"/><path d="M-1018.75 699.5h-1v-.5h1z" stroke="#282c33" stroke-width=".05" fill="#282c33"/><path d="m-1019.25 462.12 4.64 14.26h-9.3z" stroke="#282c33" fill="#282c33"/><path d="M-1620 481.28c0-3.3 2.7-6 6-6h408c3.3 0 6 2.7 6 6v51.34c0 3.3-2.7 6-6 6h-408c-3.3 0-6-2.7-6-6z" fill="none"/><use xlink:href="#c" transform="translate(-1549.877 498.062)"/><use xlink:href="#d" transform="translate(-1478.333 498.062)"/><use xlink:href="#e" transform="translate(-1397.037 498.062)"/><use xlink:href="#f" transform="translate(-1340.432 498.062)"/><use xlink:href="#g" transform="translate(-1591.76 524.729)"/><path d="M-1199.5 506.95h31.14a.3.3 0 0 0 .3-.3c0-.18.14-.32.3-.32h31.15" stroke="#282c33" fill="none"/><path d="M-1199.5 507.45h-.5v-1h.5z" stroke="#282c33" stroke-width=".05" fill="#282c33"/><path d="M-1136.63 506.33h.52" stroke="#282c33" fill="none"/><path d="M-940 620.8c0-3.3 2.7-6 6-6h450.32c3.3 0 6 2.7 6 6v50.1c0 3.3-2.7 6-6 6H-934c-3.3 0-6-2.7-6-6z" fill="none"/><use xlink:href="#h" transform="translate(-918.685 640.9)"/><use xlink:href="#i" transform="translate(-752.204 640.9)"/><use xlink:href="#j" transform="translate(-683.191 640.9)"/><use xlink:href="#k" transform="translate(-652.327 640.9)"/><use xlink:href="#e" transform="translate(-615.29 640.9)"/><use xlink:href="#l" transform="translate(-558.685 640.9)"/><use xlink:href="#m" transform="translate(-856.396 667.567)"/><path d="M-940.5 645.85h-38.85c-.15 0-.27.12-.27.28 0 .15-.13.27-.28.27h-38.85" stroke="#282c33" fill="none"/><path d="M-940 646.35h-.5v-1h.5z" stroke="#282c33" stroke-width=".05" fill="#282c33"/><path d="M-1018.74 646.4h-.5m-79.86 52.6V476.88" stroke="#282c33" fill="none"/><path d="M-1098.6 699.5h-1v-.5h1z" stroke="#282c33" stroke-width=".05" fill="#282c33"/><path d="m-1099.1 462.12 4.65 14.26h-9.27z" stroke="#282c33" fill="#282c33"/><path d="M-1600 544.14c0-3.3 2.7-6 6-6h390.32c3.3 0 6 2.7 6 6v78c0 3.32-2.7 6-6 6H-1594c-3.3 0-6-2.68-6-6z" fill="none"/><use xlink:href="#n" transform="translate(-1580.97 573.421)"/><use xlink:href="#o" transform="translate(-1510.66 573.421)"/><use xlink:href="#p" transform="translate(-1456.401 573.421)"/><use xlink:href="#j" transform="translate(-1398.5 573.421)"/><use xlink:href="#e" transform="translate(-1367.636 573.421)"/><use xlink:href="#q" transform="translate(-1311.03 573.421)"/><use xlink:href="#f" transform="translate(-1286.34 573.421)"/><use xlink:href="#r" transform="translate(-1553.778 600.088)"/><path d="M-1197.18 583.14h48.78s.02 0 .02.02h48.8" stroke="#282c33" fill="none"/><path d="M-1197.17 583.64h-.5v-1h.5z" stroke="#282c33" stroke-width=".05" fill="#282c33"/><path d="M-1099.6 583.17h.5" stroke="#282c33" fill="none"/><path d="M-960 765c0-8.28 6.72-15 15-15h70c8.28 0 15 6.72 15 15v30c0 8.28-6.72 15-15 15h-70c-8.28 0-15-6.72-15-15z" fill="none"/><use xlink:href="#s" transform="translate(-935.216 785.278)"/><path d="M-960 375c0-8.28 6.72-15 15-15h70c8.28 0 15 6.72 15 15v10c0 8.28-6.72 15-15 15h-70c-8.28 0-15-6.72-15-15z" fill="none"/><use xlink:href="#t" transform="translate(-942.685 384.653)"/><path d="M-999 780h38.5" stroke="#282c33" fill="none"/><path d="M-999 780.5h-.5v-1h.5zm39 0h-.5v-1h.5z" stroke="#282c33" stroke-width=".05" fill="#282c33"/><path d="M-1160 315c0-8.28 6.72-15 15-15h130c8.28 0 15 6.72 15 15v130c0 8.28-6.72 15-15 15h-130c-8.28 0-15-6.72-15-15z" stroke="#282c33" fill="#fff"/><use xlink:href="#a" transform="translate(-1125.34 372.076)"/><use xlink:href="#b" transform="translate(-1128.735 402.299)"/><path d="M-960.5 380H-999" stroke="#282c33" fill="none"/><path d="M-960 380.5h-.5v-1h.5zm-39 0h-.5v-1h.5z" stroke="#282c33" stroke-width=".05" fill="#282c33"/><path d="M-1060.9 461v1.98m0 3.97v3.97m0 3.96v3.97m0 3.96v3.98m0 3.97v3.96m0 3.98v3.97m0 3.96v3.98m0 3.97v3.96m0 3.98v3.96m0 3.97v3.98m0 3.96v3.97m0 3.98v3.96m0 3.97v3.98m0 3.96v3.97m0 3.97v3.97m0 3.97v3.97m0 3.97V590m0 3.97v3.97m0 3.97v3.97m0 3.97v3.96m0 3.97v3.97m0 3.96v3.97m0 3.97v3.96m0 3.97v3.97m0 3.96v3.97m0 3.96v3.97m0 3.97v3.96m0 3.97v3.97m0 3.96v2" stroke="#282c33" fill="none"/><path d="M-1060.4 461h-1v-.5h1z" stroke="#282c33" stroke-width=".05" fill="#282c33"/><path d="m-1060.9 697.88-4.64-14.26h9.27z" stroke="#282c33" fill="#282c33"/><path d="M-940 506c0-3.3 2.7-6 6-6h450.32c3.3 0 6 2.7 6 6v50.08c0 3.3-2.7 6-6 6H-934c-3.3 0-6-2.7-6-6z" fill="none"/><use xlink:href="#h" transform="translate(-920.753 526.09)"/><use xlink:href="#u" transform="translate(-754.272 526.09)"/><use xlink:href="#v" transform="translate(-637.05 526.09)"/><use xlink:href="#w" transform="translate(-515.938 526.09)"/><use xlink:href="#x" transform="translate(-854.544 552.757)"/><use xlink:href="#y" transform="translate(-726.396 552.757)"/><use xlink:href="#q" transform="translate(-637.57 552.757)"/><use xlink:href="#z" transform="translate(-612.878 552.757)"/><path d="M-940.5 531.04h-59.75c-.1 0-.2-.1-.2-.2a.2.2 0 0 0-.2-.2h-59.75" stroke="#282c33" fill="none"/><path d="M-940 531.54h-.5v-1h.5z" stroke="#282c33" stroke-width=".05" fill="#282c33"/><path d="M-1060.4 530.63h-.5" stroke="#282c33" fill="none"/><defs><path fill="#282c33" d="M266 0h-40l-56-210L115 0H75L2-248h35L96-30l15-64 43-154h32l59 218 59-218h35" id="A"/><path fill="#282c33" d="M100-194c62-1 85 37 85 99 1 63-27 99-86 99S16-35 15-95c0-66 28-99 85-99zM99-20c44 1 53-31 53-75 0-43-8-75-51-75s-53 32-53 75 10 74 51 75" id="B"/><path fill="#282c33" d="M114-163C36-179 61-72 57 0H25l-1-190h30c1 12-1 29 2 39 6-27 23-49 58-41v29" id="C"/><path fill="#282c33" d="M143 0 79-87 56-68V0H24v-261h32v163l83-92h37l-77 82L181 0h-38" id="D"/><path fill="#282c33" d="M101-234c-31-9-42 10-38 44h38v23H63V0H32v-167H5v-23h27c-7-52 17-82 69-68v24" id="E"/><path fill="#282c33" d="M24 0v-261h32V0H24" id="F"/><path fill="#282c33" d="M206 0h-36l-40-164L89 0H53L-1-190h32L70-26l43-164h34l41 164 42-164h31" id="G"/><path fill="#282c33" d="M30 0v-248h187v28H63v79h144v27H63v87h162V0H30" id="H"/><path fill="#282c33" d="M141 0 90-78 38 0H4l68-98-65-92h35l48 74 47-74h35l-64 92 68 98h-35" id="I"/><path fill="#282c33" d="M100-194c63 0 86 42 84 106H49c0 40 14 67 53 68 26 1 43-12 49-29l28 8c-11 28-37 45-77 45C44 4 14-33 15-96c1-61 26-98 85-98zm52 81c6-60-76-77-97-28-3 7-6 17-6 28h103" id="J"/><path fill="#282c33" d="M96-169c-40 0-48 33-48 73s9 75 48 75c24 0 41-14 43-38l32 2c-6 37-31 61-74 61-59 0-76-41-82-99-10-93 101-131 147-64 4 7 5 14 7 22l-32 3c-4-21-16-35-41-35" id="K"/><path fill="#282c33" d="M84 4C-5 8 30-112 23-190h32v120c0 31 7 50 39 49 72-2 45-101 50-169h31l1 190h-30c-1-10 1-25-2-33-11 22-28 36-60 37" id="L"/><path fill="#282c33" d="M59-47c-2 24 18 29 38 22v24C64 9 27 4 27-40v-127H5v-23h24l9-43h21v43h35v23H59v120" id="M"/><path fill="#282c33" d="M24-231v-30h32v30H24zM24 0v-190h32V0H24" id="N"/><path fill="#282c33" d="M117-194c89-4 53 116 60 194h-32v-121c0-31-8-49-39-48C34-167 62-67 57 0H25l-1-190h30c1 10-1 24 2 32 11-22 29-35 61-36" id="O"/><path fill="#282c33" d="M238-179c0 84-86 86-175 82L45 0H11l48-248c82 0 179-12 179 69zm-34 1c0-53-64-42-116-43l-19 98c63 0 135 9 135-55" id="P"/><path fill="#282c33" d="M165-48c-4 18 1 34 23 27l-3 20c-29 8-62 0-52-35h-2C116-14 99 4 63 4 30 4 8-16 8-49c0-68 71-67 138-67 10-26 0-56-31-54-26 1-42 9-47 31l-32-5c8-67 160-71 144 15-5 28-9 54-15 81zM42-50c3 52 80 24 89-6 7-12 7-24 11-38-47 1-103-4-100 44" id="Q"/><path fill="#282c33" d="M66-151c12-25 30-51 66-40l-6 26C45-176 58-65 38 0H6l36-190h30" id="R"/><path fill="#282c33" d="M111-194c62-3 86 47 72 106H45c-7 38 6 69 45 68 27-1 43-14 53-32l24 11C152-15 129 4 87 4 38 3 12-23 12-71c0-70 32-119 99-123zm44 81c14-66-71-72-95-28-4 8-8 17-11 28h106" id="S"/><path fill="#282c33" d="M67-158c22-48 132-52 116 29L158 0h-32l25-140c3-38-53-32-70-12C52-117 51-52 38 0H6l36-190h30" id="T"/><path fill="#282c33" d="M51-54c-9 22 5 41 31 30L79-1C43 14 10-4 19-52l22-115H19l5-23h22l19-43h21l-9 43h35l-4 23H73" id="U"/><path fill="#282c33" d="m50-231 6-30h32l-6 30H50zM6 0l37-190h31L37 0H6" id="V"/><path fill="#282c33" d="M55-144c13 50 104 24 104 88C159 21 15 23 1-39l26-10c6 40 102 42 102-4-13-50-104-23-104-87 0-71 143-71 148-8l-29 4c-5-35-85-37-89 0" id="W"/><path fill="#282c33" d="M125-24c46 0 70-25 89-51l25 16C214-24 183 4 123 4 8 4-5-146 60-208c32-50 158-61 191-5 5 7 9 14 11 22l-32 10c-9-28-33-43-69-43-74 0-108 51-108 125 0 46 24 75 72 75" id="X"/><path fill="#282c33" d="M67-158c15-20 31-36 64-36 94 0 33 127 27 194h-32l25-140c3-38-53-32-70-12C52-117 51-51 37 0H6l51-261h31" id="Y"/><path fill="#282c33" d="m6 0 50-261h32L37 0H6" id="Z"/><path fill="#282c33" d="M133-28C103 26-5 8 13-77c13-62 24-115 90-117 29-1 46 15 56 35l19-102h32L160 0h-30zM45-64c-2 27 10 43 35 43 54-1 69-50 69-103 0-29-15-46-42-46-53-1-58 58-62 106" id="aa"/><path fill="#282c33" d="M67-162c32-53 139-36 121 50C175-51 163 2 97 4 68 4 52-11 42-31 38 6 28 39 22 75H-9l50-265h29c-1 10 0 20-3 28zm89 36c0-26-10-43-35-43-54 0-67 50-69 103-1 29 14 45 42 46 53 0 62-58 62-106" id="ab"/><path fill="#282c33" d="M188 0h-37l-8-164L71 0H34L18-190h31l8 164 75-164h34l8 164 74-164h31" id="ac"/><path fill="#282c33" d="m44-154 7-36h35l-8 36H44zM14 0l7-36h35L49 0H14" id="ad"/><path fill="#282c33" d="M194-120c59 52 2 134-86 124-53-6-90-18-98-63l31-7c8 30 29 43 70 43 46 0 84-17 71-62-32-43-135-20-137-98-3-89 178-90 191-16l-30 9c-8-48-127-53-127 5 0 53 81 35 115 65" id="ae"/><path fill="#282c33" d="M247 0h-39l-15-214-24 57L95 0H56L31-248h35L82-30l101-218h33l16 218 101-218h35" id="af"/><path fill="#282c33" d="M30-147c31-64 166-65 159 27C183-49 158 1 86 4 9 8 1-88 30-147zM88-20c53 0 68-48 68-100 0-31-11-51-44-50-52 1-68 46-68 97 0 32 13 53 44 53" id="ag"/><path fill="#282c33" d="M127 0 80-88 50-66 37 0H6l51-261h31L57-100l99-90h39l-93 82L161 0h-34" id="ah"/><path fill="#282c33" d="M76-167 44 0H12l33-167H18l4-23h27c3-47 25-81 82-69l-4 24c-35-8-44 15-46 45h37l-5 23H76" id="ai"/><path fill="#282c33" d="m11 0 48-248h184l-5 28H87l-15 79h140l-5 27H67L50-27h158l-5 27H11" id="aj"/><path fill="#282c33" d="M124 0 87-78 21 0h-35l86-98-46-92h33l34 74 61-74h37l-83 92 50 98h-34" id="ak"/><path fill="#282c33" d="M44-68c0 29 11 47 38 47 30 0 42-19 51-41l28 9C148-21 126 4 82 4 31 4 10-29 12-85c3-77 74-140 146-93 12 8 15 23 18 40l-31 5c-1-22-13-36-36-36-52 0-65 49-65 101" id="al"/><path fill="#282c33" d="M67 3c-93-2-31-127-26-193h32L48-50c-3 39 53 32 70 12 30-34 30-101 43-152h32L157 0h-30c1-10 6-24 4-33-14 20-29 37-64 36" id="am"/><path fill="#282c33" d="m14 0 48-248h34L48 0H14" id="an"/><path fill="#282c33" d="M20-101c0-91 52-143 145-150 126-9 127 168 53 223-23 17-55 32-93 32C57 4 20-33 20-101zm216-33c5-57-18-91-73-90-77 1-110 51-110 125 0 49 23 75 73 75 72-1 104-45 110-110" id="ao"/><path fill="#282c33" d="m-2-79 4-24h200l-4 24H-2" id="ap"/><path fill="#282c33" d="M248-111c6-24 9-61-24-58-72 9-57 108-77 169h-31l26-142c3-37-50-30-64-10C52-115 50-51 37 0H6l36-190h30c-1 10-6 24-4 32 13-43 101-52 105 5 13-22 29-41 61-41 90 0 28 129 23 194h-31" id="aq"/><path fill="#282c33" d="M212-179c-10-28-35-45-73-45-59 0-87 40-87 99 0 60 29 101 89 101 43 0 62-24 78-52l27 14C228-24 195 4 139 4 59 4 22-46 18-125c-6-104 99-153 187-111 19 9 31 26 39 46" id="ar"/><path fill="#282c33" d="M106-169C34-169 62-67 57 0H25v-261h32l-1 103c12-21 28-36 61-36 89 0 53 116 60 194h-32v-121c2-32-8-49-39-48" id="as"/><path fill="#282c33" d="M85-194c31 0 48 13 60 33l-1-100h32l1 261h-30c-2-10 0-23-3-31C134-8 116 4 85 4 32 4 16-35 15-94c0-66 23-100 70-100zm9 24c-40 0-46 34-46 75 0 40 6 74 45 74 42 0 51-32 51-76 0-42-9-74-50-73" id="at"/><path fill="#282c33" d="M30-248c87 1 191-15 191 75 0 78-77 80-158 76V0H30v-248zm33 125c57 0 124 11 124-50 0-59-68-47-124-48v98" id="au"/><path fill="#282c33" d="M141-36C126-15 110 5 73 4 37 3 15-17 15-53c-1-64 63-63 125-63 3-35-9-54-41-54-24 1-41 7-42 31l-33-3c5-37 33-52 76-52 45 0 72 20 72 64v82c-1 20 7 32 28 27v20c-31 9-61-2-59-35zM48-53c0 20 12 33 32 33 41-3 63-29 60-74-43 2-92-5-92 41" id="av"/><path fill="#282c33" d="M103-194c29 0 47 14 56 36 2-11 5-23 8-32h30L160-5C157 61 82 97 21 62 9 55 4 45 1 30l28-7c7 42 83 31 92-3 4-16 9-38 13-55-13 20-29 36-62 36-40 0-60-25-60-64 0-71 23-131 91-131zm4 24c-53 0-58 54-61 104-2 27 10 44 36 44 49 0 65-50 67-102 1-29-15-46-42-46" id="aw"/><path fill="#282c33" d="M151-220 108 0H75l42-220H32l6-28h203l-5 28h-85" id="ax"/><path fill="#282c33" d="M249-183c0 48-29 72-75 77L221 0h-36l-43-103H65L45 0H11l48-248c83 2 190-17 190 65zm-34 3c0-55-74-39-127-41l-18 92c63-1 145 13 145-51" id="ay"/><path fill="#282c33" d="M133-28C103 26-5 8 13-77c13-62 24-115 90-117 29-1 46 15 56 35 2-12 6-24 8-34h31L144 75h-31zM45-64c-2 27 10 43 35 43 54-1 69-50 69-103 0-29-15-46-42-46-53-1-58 58-62 106" id="az"/><g id="a"><use transform="rotate(.413) scale(.06173)" xlink:href="#A"/><use transform="matrix(.06173 0 0 .06173 20.494 0)" xlink:href="#B"/><use transform="matrix(.06173 0 0 .06173 32.84 0)" xlink:href="#C"/><use transform="matrix(.06173 0 0 .06173 40.185 0)" xlink:href="#D"/><use transform="matrix(.06173 0 0 .06173 51.296 0)" xlink:href="#E"/><use transform="matrix(.06173 0 0 .06173 57.47 0)" xlink:href="#F"/><use transform="matrix(.06173 0 0 .06173 62.346 0)" xlink:href="#B"/><use transform="matrix(.06173 0 0 .06173 74.691 0)" xlink:href="#G"/></g><g id="b"><use transform="rotate(.413) scale(.06173)" xlink:href="#H"/><use transform="matrix(.06173 0 0 .06173 14.815 0)" xlink:href="#I"/><use transform="matrix(.06173 0 0 .06173 25.926 0)" xlink:href="#J"/><use transform="matrix(.06173 0 0 .06173 38.272 0)" xlink:href="#K"/><use transform="matrix(.06173 0 0 .06173 49.383 0)" xlink:href="#L"/><use transform="matrix(.06173 0 0 .06173 61.728 0)" xlink:href="#M"/><use transform="matrix(.06173 0 0 .06173 67.901 0)" xlink:href="#N"/><use transform="matrix(.06173 0 0 .06173 72.778 0)" xlink:href="#B"/><use transform="matrix(.06173 0 0 .06173 85.123 0)" xlink:href="#O"/></g><g id="c"><use transform="rotate(.413) scale(.06173)" xlink:href="#P"/><use transform="matrix(.06173 0 0 .06173 14.815 0)" xlink:href="#Q"/><use transform="matrix(.06173 0 0 .06173 27.16 0)" xlink:href="#R"/><use transform="matrix(.06173 0 0 .06173 34.506 0)" xlink:href="#S"/><use transform="matrix(.06173 0 0 .06173 46.852 0)" xlink:href="#T"/><use transform="matrix(.06173 0 0 .06173 59.198 0)" xlink:href="#U"/></g><g id="d"><use transform="rotate(.413) scale(.06173)" xlink:href="#V"/><use transform="matrix(.06173 0 0 .06173 4.877 0)" xlink:href="#T"/><use transform="matrix(.06173 0 0 .06173 17.222 0)" xlink:href="#V"/><use transform="matrix(.06173 0 0 .06173 22.099 0)" xlink:href="#U"/><use transform="matrix(.06173 0 0 .06173 28.272 0)" xlink:href="#V"/><use transform="matrix(.06173 0 0 .06173 33.148 0)" xlink:href="#Q"/><use transform="matrix(.06173 0 0 .06173 45.494 0)" xlink:href="#U"/><use transform="matrix(.06173 0 0 .06173 51.667 0)" xlink:href="#S"/><use transform="matrix(.06173 0 0 .06173 64.012 0)" xlink:href="#W"/></g><g id="e"><use transform="rotate(.413) scale(.06173)" xlink:href="#X"/><use transform="matrix(.06173 0 0 .06173 15.988 0)" xlink:href="#Y"/><use transform="matrix(.06173 0 0 .06173 28.333 0)" xlink:href="#V"/><use transform="matrix(.06173 0 0 .06173 33.21 0)" xlink:href="#Z"/><use transform="matrix(.06173 0 0 .06173 38.086 0)" xlink:href="#aa"/></g><g id="f"><use transform="rotate(.413) scale(.06173)" xlink:href="#W"/><use transform="matrix(.06173 0 0 .06173 11.111 0)" xlink:href="#ab"/><use transform="matrix(.06173 0 0 .06173 23.457 0)" xlink:href="#Q"/><use transform="matrix(.06173 0 0 .06173 35.802 0)" xlink:href="#ac"/><use transform="matrix(.06173 0 0 .06173 51.79 0)" xlink:href="#T"/><use transform="matrix(.06173 0 0 .06173 64.136 0)" xlink:href="#ad"/></g><g id="g"><use transform="rotate(.413) scale(.06173)" xlink:href="#ae"/><use transform="matrix(.06173 0 0 .06173 14.815 0)" xlink:href="#U"/><use transform="matrix(.06173 0 0 .06173 20.988 0)" xlink:href="#Q"/><use transform="matrix(.06173 0 0 .06173 33.333 0)" xlink:href="#R"/><use transform="matrix(.06173 0 0 .06173 40.679 0)" xlink:href="#U"/><use transform="matrix(.06173 0 0 .06173 46.852 0)" xlink:href="#X"/><use transform="matrix(.06173 0 0 .06173 62.84 0)" xlink:href="#Y"/><use transform="matrix(.06173 0 0 .06173 75.185 0)" xlink:href="#V"/><use transform="matrix(.06173 0 0 .06173 80.062 0)" xlink:href="#Z"/><use transform="matrix(.06173 0 0 .06173 84.938 0)" xlink:href="#aa"/><use transform="matrix(.06173 0 0 .06173 97.284 0)" xlink:href="#af"/><use transform="matrix(.06173 0 0 .06173 118.21 0)" xlink:href="#ag"/><use transform="matrix(.06173 0 0 .06173 130.556 0)" xlink:href="#R"/><use transform="matrix(.06173 0 0 .06173 137.901 0)" xlink:href="#ah"/><use transform="matrix(.06173 0 0 .06173 149.012 0)" xlink:href="#ai"/><use transform="matrix(.06173 0 0 .06173 155.185 0)" xlink:href="#Z"/><use transform="matrix(.06173 0 0 .06173 160.062 0)" xlink:href="#ag"/><use transform="matrix(.06173 0 0 .06173 172.407 0)" xlink:href="#ac"/><use transform="matrix(.06173 0 0 .06173 188.395 0)" xlink:href="#aj"/><use transform="matrix(.06173 0 0 .06173 203.21 0)" xlink:href="#ak"/><use transform="matrix(.06173 0 0 .06173 214.321 0)" xlink:href="#S"/><use transform="matrix(.06173 0 0 .06173 226.667 0)" xlink:href="#al"/><use transform="matrix(.06173 0 0 .06173 237.778 0)" xlink:href="#am"/><use transform="matrix(.06173 0 0 .06173 250.123 0)" xlink:href="#U"/><use transform="matrix(.06173 0 0 .06173 256.296 0)" xlink:href="#V"/><use transform="matrix(.06173 0 0 .06173 261.173 0)" xlink:href="#ag"/><use transform="matrix(.06173 0 0 .06173 273.519 0)" xlink:href="#T"/><use transform="matrix(.06173 0 0 .06173 285.864 0)" xlink:href="#an"/><use transform="matrix(.06173 0 0 .06173 292.037 0)" xlink:href="#T"/><use transform="matrix(.06173 0 0 .06173 304.383 0)" xlink:href="#V"/><use transform="matrix(.06173 0 0 .06173 309.26 0)" xlink:href="#U"/><use transform="matrix(.06173 0 0 .06173 315.432 0)" xlink:href="#V"/><use transform="matrix(.06173 0 0 .06173 320.309 0)" xlink:href="#Q"/><use transform="matrix(.06173 0 0 .06173 332.654 0)" xlink:href="#U"/><use transform="matrix(.06173 0 0 .06173 338.827 0)" xlink:href="#S"/><use transform="matrix(.06173 0 0 .06173 351.173 0)" xlink:href="#aa"/></g><g id="h"><use transform="rotate(.413) scale(.06173)" xlink:href="#ao"/><use transform="matrix(.06173 0 0 .06173 17.284 0)" xlink:href="#ab"/><use transform="matrix(.06173 0 0 .06173 29.63 0)" xlink:href="#U"/><use transform="matrix(.06173 0 0 .06173 35.802 0)" xlink:href="#V"/><use transform="matrix(.06173 0 0 .06173 40.679 0)" xlink:href="#ag"/><use transform="matrix(.06173 0 0 .06173 53.025 0)" xlink:href="#T"/><use transform="matrix(.06173 0 0 .06173 65.37 0)" xlink:href="#Q"/><use transform="matrix(.06173 0 0 .06173 77.716 0)" xlink:href="#Z"/><use transform="matrix(.06173 0 0 .06173 82.593 0)" xlink:href="#ap"/><use transform="matrix(.06173 0 0 .06173 94.938 0)" xlink:href="#P"/><use transform="matrix(.06173 0 0 .06173 109.753 0)" xlink:href="#Q"/><use transform="matrix(.06173 0 0 .06173 122.099 0)" xlink:href="#R"/><use transform="matrix(.06173 0 0 .06173 129.444 0)" xlink:href="#S"/><use transform="matrix(.06173 0 0 .06173 141.79 0)" xlink:href="#T"/><use transform="matrix(.06173 0 0 .06173 154.136 0)" xlink:href="#U"/></g><g id="i"><use transform="rotate(.413) scale(.06173)" xlink:href="#Q"/><use transform="matrix(.06173 0 0 .06173 12.346 0)" xlink:href="#ac"/><use transform="matrix(.06173 0 0 .06173 28.333 0)" xlink:href="#Q"/><use transform="matrix(.06173 0 0 .06173 40.679 0)" xlink:href="#V"/><use transform="matrix(.06173 0 0 .06173 45.556 0)" xlink:href="#U"/><use transform="matrix(.06173 0 0 .06173 51.728 0)" xlink:href="#W"/></g><g id="j"><use transform="rotate(.413) scale(.06173)" xlink:href="#ag"/><use transform="matrix(.06173 0 0 .06173 12.346 0)" xlink:href="#T"/></g><g id="k"><use transform="rotate(.413) scale(.06173)" xlink:href="#U"/><use transform="matrix(.06173 0 0 .06173 6.173 0)" xlink:href="#Y"/><use transform="matrix(.06173 0 0 .06173 18.519 0)" xlink:href="#S"/></g><g id="l"><use transform="rotate(.413) scale(.06173)" xlink:href="#R"/><use transform="matrix(.06173 0 0 .06173 7.346 0)" xlink:href="#S"/><use transform="matrix(.06173 0 0 .06173 19.691 0)" xlink:href="#W"/><use transform="matrix(.06173 0 0 .06173 30.802 0)" xlink:href="#am"/><use transform="matrix(.06173 0 0 .06173 43.148 0)" xlink:href="#Z"/><use transform="matrix(.06173 0 0 .06173 48.025 0)" xlink:href="#U"/><use transform="matrix(.06173 0 0 .06173 54.198 0)" xlink:href="#ad"/></g><g id="m"><use transform="rotate(.413) scale(.06173)" xlink:href="#af"/><use transform="matrix(.06173 0 0 .06173 20.926 0)" xlink:href="#ag"/><use transform="matrix(.06173 0 0 .06173 33.272 0)" xlink:href="#R"/><use transform="matrix(.06173 0 0 .06173 40.617 0)" xlink:href="#ah"/><use transform="matrix(.06173 0 0 .06173 51.728 0)" xlink:href="#ai"/><use transform="matrix(.06173 0 0 .06173 57.901 0)" xlink:href="#Z"/><use transform="matrix(.06173 0 0 .06173 62.778 0)" xlink:href="#ag"/><use transform="matrix(.06173 0 0 .06173 75.123 0)" xlink:href="#ac"/><use transform="matrix(.06173 0 0 .06173 91.111 0)" xlink:href="#aj"/><use transform="matrix(.06173 0 0 .06173 105.926 0)" xlink:href="#ak"/><use transform="matrix(.06173 0 0 .06173 117.037 0)" xlink:href="#S"/><use transform="matrix(.06173 0 0 .06173 129.383 0)" xlink:href="#al"/><use transform="matrix(.06173 0 0 .06173 140.494 0)" xlink:href="#am"/><use transform="matrix(.06173 0 0 .06173 152.84 0)" xlink:href="#U"/><use transform="matrix(.06173 0 0 .06173 159.012 0)" xlink:href="#V"/><use transform="matrix(.06173 0 0 .06173 163.889 0)" xlink:href="#ag"/><use transform="matrix(.06173 0 0 .06173 176.235 0)" xlink:href="#T"/><use transform="matrix(.06173 0 0 .06173 188.58 0)" xlink:href="#X"/><use transform="matrix(.06173 0 0 .06173 204.568 0)" xlink:href="#ag"/><use transform="matrix(.06173 0 0 .06173 216.914 0)" xlink:href="#aq"/><use transform="matrix(.06173 0 0 .06173 235.37 0)" xlink:href="#ab"/><use transform="matrix(.06173 0 0 .06173 247.716 0)" xlink:href="#Z"/><use transform="matrix(.06173 0 0 .06173 252.593 0)" xlink:href="#S"/><use transform="matrix(.06173 0 0 .06173 264.938 0)" xlink:href="#U"/><use transform="matrix(.06173 0 0 .06173 271.111 0)" xlink:href="#S"/><use transform="matrix(.06173 0 0 .06173 283.457 0)" xlink:href="#aa"/></g><g id="n"><use transform="rotate(.413) scale(.06173)" xlink:href="#P"/><use transform="matrix(.06173 0 0 .06173 14.815 0)" xlink:href="#Q"/><use transform="matrix(.06173 0 0 .06173 27.16 0)" xlink:href="#R"/><use transform="matrix(.06173 0 0 .06173 34.506 0)" xlink:href="#S"/><use transform="matrix(.06173 0 0 .06173 46.852 0)" xlink:href="#T"/><use transform="matrix(.06173 0 0 .06173 59.198 0)" xlink:href="#U"/></g><g id="o"><use transform="rotate(.413) scale(.06173)" xlink:href="#aq"/><use transform="matrix(.06173 0 0 .06173 18.457 0)" xlink:href="#am"/><use transform="matrix(.06173 0 0 .06173 30.802 0)" xlink:href="#W"/><use transform="matrix(.06173 0 0 .06173 41.914 0)" xlink:href="#U"/></g><g id="p"><use transform="rotate(.413) scale(.06173)" xlink:href="#Q"/><use transform="matrix(.06173 0 0 .06173 12.346 0)" xlink:href="#ac"/><use transform="matrix(.06173 0 0 .06173 28.333 0)" xlink:href="#Q"/><use transform="matrix(.06173 0 0 .06173 40.679 0)" xlink:href="#V"/><use transform="matrix(.06173 0 0 .06173 45.556 0)" xlink:href="#U"/></g><g id="q"><use transform="rotate(.413) scale(.06173)" xlink:href="#U"/><use transform="matrix(.06173 0 0 .06173 6.173 0)" xlink:href="#ag"/></g><g id="r"><use transform="rotate(.413) scale(.06173)" xlink:href="#X"/><use transform="matrix(.06173 0 0 .06173 15.988 0)" xlink:href="#Y"/><use transform="matrix(.06173 0 0 .06173 28.333 0)" xlink:href="#V"/><use transform="matrix(.06173 0 0 .06173 33.21 0)" xlink:href="#Z"/><use transform="matrix(.06173 0 0 .06173 38.086 0)" xlink:href="#aa"/><use transform="matrix(.06173 0 0 .06173 50.432 0)" xlink:href="#af"/><use transform="matrix(.06173 0 0 .06173 71.358 0)" xlink:href="#ag"/><use transform="matrix(.06173 0 0 .06173 83.704 0)" xlink:href="#R"/><use transform="matrix(.06173 0 0 .06173 91.05 0)" xlink:href="#ah"/><use transform="matrix(.06173 0 0 .06173 102.16 0)" xlink:href="#ai"/><use transform="matrix(.06173 0 0 .06173 108.333 0)" xlink:href="#Z"/><use transform="matrix(.06173 0 0 .06173 113.21 0)" xlink:href="#ag"/><use transform="matrix(.06173 0 0 .06173 125.556 0)" xlink:href="#ac"/><use transform="matrix(.06173 0 0 .06173 141.543 0)" xlink:href="#aj"/><use transform="matrix(.06173 0 0 .06173 156.358 0)" xlink:href="#ak"/><use transform="matrix(.06173 0 0 .06173 167.47 0)" xlink:href="#S"/><use transform="matrix(.06173 0 0 .06173 179.815 0)" xlink:href="#al"/><use transform="matrix(.06173 0 0 .06173 190.926 0)" xlink:href="#am"/><use transform="matrix(.06173 0 0 .06173 203.272 0)" xlink:href="#U"/><use transform="matrix(.06173 0 0 .06173 209.444 0)" xlink:href="#V"/><use transform="matrix(.06173 0 0 .06173 214.321 0)" xlink:href="#ag"/><use transform="matrix(.06173 0 0 .06173 226.667 0)" xlink:href="#T"/><use transform="matrix(.06173 0 0 .06173 239.012 0)" xlink:href="#ae"/><use transform="matrix(.06173 0 0 .06173 253.827 0)" xlink:href="#U"/><use transform="matrix(.06173 0 0 .06173 260 0)" xlink:href="#Q"/><use transform="matrix(.06173 0 0 .06173 272.346 0)" xlink:href="#R"/><use transform="matrix(.06173 0 0 .06173 279.691 0)" xlink:href="#U"/><use transform="matrix(.06173 0 0 .06173 285.864 0)" xlink:href="#S"/><use transform="matrix(.06173 0 0 .06173 298.21 0)" xlink:href="#aa"/></g><g id="s"><use transform="rotate(.413) scale(.06173)" xlink:href="#ar"/><use transform="matrix(.06173 0 0 .06173 15.988 0)" xlink:href="#as"/><use transform="matrix(.06173 0 0 .06173 28.333 0)" xlink:href="#N"/><use transform="matrix(.06173 0 0 .06173 33.21 0)" xlink:href="#F"/><use transform="matrix(.06173 0 0 .06173 38.086 0)" xlink:href="#at"/></g><g id="t"><use transform="rotate(.413) scale(.06173)" xlink:href="#au"/><use transform="matrix(.06173 0 0 .06173 14.815 0)" xlink:href="#av"/><use transform="matrix(.06173 0 0 .06173 27.16 0)" xlink:href="#C"/><use transform="matrix(.06173 0 0 .06173 34.506 0)" xlink:href="#J"/><use transform="matrix(.06173 0 0 .06173 46.852 0)" xlink:href="#O"/><use transform="matrix(.06173 0 0 .06173 59.198 0)" xlink:href="#M"/></g><g id="u"><use transform="rotate(.413) scale(.06173)" xlink:href="#ab"/><use transform="matrix(.06173 0 0 .06173 12.346 0)" xlink:href="#R"/><use transform="matrix(.06173 0 0 .06173 19.691 0)" xlink:href="#ag"/><use transform="matrix(.06173 0 0 .06173 32.037 0)" xlink:href="#ab"/><use transform="matrix(.06173 0 0 .06173 44.383 0)" xlink:href="#Q"/><use transform="matrix(.06173 0 0 .06173 56.728 0)" xlink:href="#aw"/><use transform="matrix(.06173 0 0 .06173 69.074 0)" xlink:href="#Q"/><use transform="matrix(.06173 0 0 .06173 81.42 0)" xlink:href="#U"/><use transform="matrix(.06173 0 0 .06173 87.593 0)" xlink:href="#S"/><use transform="matrix(.06173 0 0 .06173 99.938 0)" xlink:href="#W"/></g><g id="v"><use transform="rotate(.413) scale(.06173)" xlink:href="#ax"/><use transform="matrix(.06173 0 0 .06173 11.481 0)" xlink:href="#S"/><use transform="matrix(.06173 0 0 .06173 23.827 0)" xlink:href="#R"/><use transform="matrix(.06173 0 0 .06173 31.173 0)" xlink:href="#aq"/><use transform="matrix(.06173 0 0 .06173 49.63 0)" xlink:href="#V"/><use transform="matrix(.06173 0 0 .06173 54.506 0)" xlink:href="#T"/><use transform="matrix(.06173 0 0 .06173 66.852 0)" xlink:href="#Q"/><use transform="matrix(.06173 0 0 .06173 79.198 0)" xlink:href="#U"/><use transform="matrix(.06173 0 0 .06173 85.37 0)" xlink:href="#V"/><use transform="matrix(.06173 0 0 .06173 90.247 0)" xlink:href="#ag"/><use transform="matrix(.06173 0 0 .06173 102.593 0)" xlink:href="#T"/></g><g id="w"><use transform="rotate(.413) scale(.06173)" xlink:href="#ag"/><use transform="matrix(.06173 0 0 .06173 12.346 0)" xlink:href="#R"/></g><g id="x"><use transform="rotate(.413) scale(.06173)" xlink:href="#X"/><use transform="matrix(.06173 0 0 .06173 15.988 0)" xlink:href="#Q"/><use transform="matrix(.06173 0 0 .06173 28.333 0)" xlink:href="#T"/><use transform="matrix(.06173 0 0 .06173 40.679 0)" xlink:href="#al"/><use transform="matrix(.06173 0 0 .06173 51.79 0)" xlink:href="#S"/><use transform="matrix(.06173 0 0 .06173 64.136 0)" xlink:href="#Z"/><use transform="matrix(.06173 0 0 .06173 69.012 0)" xlink:href="#Z"/><use transform="matrix(.06173 0 0 .06173 73.889 0)" xlink:href="#Q"/><use transform="matrix(.06173 0 0 .06173 86.235 0)" xlink:href="#U"/><use transform="matrix(.06173 0 0 .06173 92.407 0)" xlink:href="#V"/><use transform="matrix(.06173 0 0 .06173 97.284 0)" xlink:href="#ag"/><use transform="matrix(.06173 0 0 .06173 109.63 0)" xlink:href="#T"/></g><g id="y"><use transform="rotate(.413) scale(.06173)" xlink:href="#ay"/><use transform="matrix(.06173 0 0 .06173 15.988 0)" xlink:href="#S"/><use transform="matrix(.06173 0 0 .06173 28.333 0)" xlink:href="#az"/><use transform="matrix(.06173 0 0 .06173 40.679 0)" xlink:href="#am"/><use transform="matrix(.06173 0 0 .06173 53.025 0)" xlink:href="#S"/><use transform="matrix(.06173 0 0 .06173 65.37 0)" xlink:href="#W"/><use transform="matrix(.06173 0 0 .06173 76.481 0)" xlink:href="#U"/></g><g id="z"><use transform="rotate(.413) scale(.06173)" xlink:href="#X"/><use transform="matrix(.06173 0 0 .06173 15.988 0)" xlink:href="#Y"/><use transform="matrix(.06173 0 0 .06173 28.333 0)" xlink:href="#V"/><use transform="matrix(.06173 0 0 .06173 33.21 0)" xlink:href="#Z"/><use transform="matrix(.06173 0 0 .06173 38.086 0)" xlink:href="#aa"/></g></defs></g></svg>