<svg xmlns="http://www.w3.org/2000/svg" xmlns:xlink="http://www.w3.org/1999/xlink" xmlns:lucid="lucid" width="1440" height="700"><g transform="translate(-280 80)" lucid:page-tab-id="0_0"><path d="M0-1258.83h1870.87v2581.66H0z" fill="#fff"/><path d="M678.67 395c0-8.28 6.7-15 15-15H1305c8.28 0 15 6.72 15 15v110c0 8.28-6.72 15-15 15H693.67c-8.3 0-15-6.72-15-15z" stroke="#282c33" fill="#fff"/><path d="M1105.43 418.33c0-8.28 6.72-15 15-15h130c8.3 0 15 6.72 15 15V485c0 8.28-6.7 15-15 15h-130c-8.28 0-15-6.72-15-15z" stroke="#282c33" fill="#fff"/><use xlink:href="#a" transform="translate(1140.094 431.549)"/><use xlink:href="#b" transform="translate(1136.699 458.215)"/><use xlink:href="#c" transform="translate(1161.754 481.326)"/><use xlink:href="#d" transform="translate(1199.236 481.326)"/><path d="M1088.55 451.67H886.43" stroke="#282c33" fill="none"/><path d="m1103.32 451.67-14.27 4.63v-9.27z" stroke="#282c33" fill="#282c33"/><path d="M886.45 452.17h-.52v-1h.52z" stroke="#282c33" stroke-width=".05" fill="#282c33"/><path d="M855.43 389.33c0-3.3 2.7-6 6-6h268c3.32 0 6 2.7 6 6v48c0 3.32-2.68 6-6 6h-268c-3.3 0-6-2.68-6-6z" fill="none"/><use xlink:href="#e" transform="translate(907.989 404.333)"/><use xlink:href="#f" transform="translate(995.155 404.333)"/><use xlink:href="#g" transform="translate(911.71 428.333)"/><path d="M766.38 383.12V101" stroke="#282c33" fill="none"/><path d="m766.38 397.88-4.64-14.26H771z" stroke="#282c33" fill="#282c33"/><path d="M766.88 101h-1v-.5h1z" stroke="#282c33" stroke-width=".05" fill="#282c33"/><path d="M1185.43 402.33v-1.98m0-3.96v-3.98m0-3.96v-3.97m0-3.97v-3.97m0-3.96v-3.97m0-3.96v-3.96m0-3.96v-3.96m0-3.97v-3.95m0-3.97v-3.96m0-3.97V329m0-3.98v-3.96m0-3.97v-3.97m0-3.96v-3.97m0-3.96v-3.97m0-3.96v-3.96m0-3.96v-3.97m0-3.95v-3.97m0-3.96v-3.96m0-3.97v-3.97m0-3.97v-3.96m0-3.97v-3.96m0-3.97v-3.96m0-3.97v-3.96m0-3.95v-3.97m0-3.96v-3.97m0-3.96v-3.98m0-3.96v-3.97m0-3.97v-3.97m0-3.96v-3.97m0-3.96v-3.96m0-3.96v-3.96m0-3.97v-3.95m0-3.97v-3.96m0-3.97v-3.96m0-3.98v-3.96m0-3.96v-3.97m0-3.96v-2" stroke="#282c33" fill="none"/><path d="M1185.93 402.83h-1v-.5h1z" stroke="#282c33" stroke-width=".05" fill="#282c33"/><path d="m1185.43 102.12 4.64 14.26h-9.27z" stroke="#282c33" fill="#282c33"/><path d="M360 274.95c0-3.32 2.7-6 6-6h348c3.3 0 6 2.68 6 6v49.46c0 3.32-2.7 6-6 6H366c-3.3 0-6-2.68-6-6z" fill="none"/><use xlink:href="#h" transform="translate(369.26 294.974)"/><use xlink:href="#i" transform="translate(440.802 294.974)"/><use xlink:href="#j" transform="translate(495.062 294.974)"/><use xlink:href="#k" transform="translate(552.963 294.974)"/><use xlink:href="#l" transform="translate(583.827 294.974)"/><use xlink:href="#m" transform="translate(640.432 294.974)"/><use xlink:href="#n" transform="translate(409.938 321.641)"/><path d="M1280 274.33c0-3.3 2.7-6 6-6h408c3.3 0 6 2.7 6 6v50.08c0 3.32-2.7 6-6 6h-408c-3.3 0-6-2.68-6-6z" fill="none"/><use xlink:href="#o" transform="translate(1294.012 294.421)"/><use xlink:href="#p" transform="translate(1460.494 294.421)"/><use xlink:href="#k" transform="translate(1529.506 294.421)"/><use xlink:href="#q" transform="translate(1560.37 294.421)"/><use xlink:href="#r" transform="translate(1625.617 294.421)"/><use xlink:href="#s" transform="translate(1342.104 321.088)"/><path d="M1279.5 299.37h-46.67c-.06 0-.1.05-.1.12 0 .05-.07.1-.13.1h-46.67" stroke="#282c33" fill="none"/><path d="M1280 299.87h-.5v-1h.5z" stroke="#282c33" stroke-width=".05" fill="#282c33"/><path d="M1185.95 299.6h-.52m-330.5 113.73H844c-3.3 0-6-2.68-6-6V116.88" stroke="#282c33" fill="none"/><path d="M855.43 413.83h-.5v-1h.5z" stroke="#282c33" stroke-width=".05" fill="#282c33"/><path d="m838 102.12 4.64 14.26h-9.27z" stroke="#282c33" fill="#282c33"/><path d="M720.5 299.68h117" stroke="#282c33" fill="none"/><path d="M720.5 300.18h-.5v-1h.5z" stroke="#282c33" stroke-width=".05" fill="#282c33"/><path d="M837.5 299.68h.5" stroke="#282c33" fill="none"/><path d="M300 131.24c0-3.3 2.7-6 6-6h393.36c3.3 0 6 2.7 6 6v78c0 3.32-2.7 6-6 6H306c-3.3 0-6-2.68-6-6z" fill="none"/><use xlink:href="#t" transform="translate(363.123 160.52)"/><use xlink:href="#u" transform="translate(434.667 160.52)"/><use xlink:href="#l" transform="translate(515.963 160.52)"/><use xlink:href="#v" transform="translate(572.568 160.52)"/><use xlink:href="#w" transform="translate(321.24 187.186)"/><path d="M705.86 170.24h60.02" stroke="#282c33" fill="none"/><path d="M705.87 170.74h-.5v-1h.5z" stroke="#282c33" stroke-width=".05" fill="#282c33"/><path d="M765.86 170.24h.52" stroke="#282c33" fill="none"/><path d="M949.33-45c0-8.28 6.72-15 15-15h70c8.3 0 15 6.72 15 15v10c0 8.28-6.7 15-15 15h-70c-8.28 0-15-6.72-15-15z" fill="none"/><use xlink:href="#x" transform="translate(966.648 -35.347)"/><path d="M949.33 555c0-8.28 6.72-15 15-15h70c8.3 0 15 6.72 15 15v30c0 8.28-6.7 15-15 15h-70c-8.28 0-15-6.72-15-15z" fill="none"/><use xlink:href="#y" transform="translate(974.117 575.278)"/><path d="M999.33 539.5V521" stroke="#282c33" fill="none"/><path d="M999.83 540h-1v-.5h1zm0-19h-1v-.5h1z" stroke="#282c33" stroke-width=".05" fill="#282c33"/><path d="M999.33-19.5V-1" stroke="#282c33" fill="none"/><path d="M999.83-19.5h-1v-.5h1zm0 19h-1V-1h1z" stroke="#282c33" stroke-width=".05" fill="#282c33"/><path d="M678.67 15c0-8.28 6.7-15 15-15H1305c8.28 0 15 6.72 15 15v70c0 8.28-6.72 15-15 15H693.67c-8.3 0-15-6.72-15-15z" stroke="#282c33" fill="#fff"/><use xlink:href="#z" transform="translate(901.272 55.201)"/><use xlink:href="#A" transform="translate(1000.593 55.201)"/><path d="M725.43 415c0-8.28 6.72-15 15-15h130c8.3 0 15 6.72 15 15v70c0 8.28-6.7 15-15 15h-130c-8.28 0-15-6.72-15-15z" stroke="#282c33" fill="#fff"/><use xlink:href="#a" transform="translate(760.094 431.215)"/><use xlink:href="#B" transform="translate(756.699 457.882)"/><use xlink:href="#C" transform="translate(781.754 480.993)"/><use xlink:href="#D" transform="translate(819.236 480.993)"/><path d="M995.43 443.83v7.34" stroke="#282c33" fill="none"/><path d="M995.93 443.85h-1v-.52h1z" stroke="#282c33" stroke-width=".05" fill="#282c33"/><path d="M995.43 451.15v.52m3.9-350.67v2.04m0 4.1v4.08m0 4.1v4.08m0 4.1v4.07m0 4.1v4.08m0 4.1v4.08m0 4.08v4.1m0 4.1v4.08m0 4.1v4.08m0 4.08v4.1m0 4.08v4.1m0 4.08v4.1m0 4.07v4.1m0 4.08v4.1m0 4.08v4.08m0 4.1v4.1m0 4.08v4.1m0 4.08v4.09m0 4.1v4.1m0 4.1v4.12m0 4.1v4.1m0 4.1v4.1m0 4.12v4.1m0 4.1v4.1m0 4.1v4.1m0 4.1v4.1m0 4.12v4.1m0 4.1v4.1m0 4.1v4.12m0 4.1v4.1m0 4.1v4.1m0 4.12v4.1m0 4.1v2.06" stroke="#282c33" fill="none"/><path d="M999.83 101h-1v-.5h1z" stroke="#282c33" stroke-width=".05" fill="#282c33"/><path d="m999.33 377.88-4.63-14.26h9.27z" stroke="#282c33" fill="#282c33"/><path d="M1280 152.46c0-3.32 2.7-6 6-6h348c3.3 0 6 2.68 6 6v50.07c0 3.32-2.7 6-6 6h-348c-3.3 0-6-2.68-6-6z" fill="none"/><use xlink:href="#E" transform="translate(1321.235 172.546)"/><use xlink:href="#F" transform="translate(1487.716 172.546)"/><use xlink:href="#G" transform="translate(1361.888 199.213)"/><use xlink:href="#H" transform="translate(1482.999 199.213)"/><use xlink:href="#I" transform="translate(1507.69 199.213)"/><path d="M1279.5 177.5H999.83" stroke="#282c33" fill="none"/><path d="M1280 178h-.5v-1h.5z" stroke="#282c33" stroke-width=".05" fill="#282c33"/><path d="M999.85 177.5h-.52" stroke="#282c33" fill="none"/><defs><path fill="#282c33" d="M266 0h-40l-56-210L115 0H75L2-248h35L96-30l15-64 43-154h32l59 218 59-218h35" id="J"/><path fill="#282c33" d="M100-194c62-1 85 37 85 99 1 63-27 99-86 99S16-35 15-95c0-66 28-99 85-99zM99-20c44 1 53-31 53-75 0-43-8-75-51-75s-53 32-53 75 10 74 51 75" id="K"/><path fill="#282c33" d="M114-163C36-179 61-72 57 0H25l-1-190h30c1 12-1 29 2 39 6-27 23-49 58-41v29" id="L"/><path fill="#282c33" d="M143 0 79-87 56-68V0H24v-261h32v163l83-92h37l-77 82L181 0h-38" id="M"/><path fill="#282c33" d="M101-234c-31-9-42 10-38 44h38v23H63V0H32v-167H5v-23h27c-7-52 17-82 69-68v24" id="N"/><path fill="#282c33" d="M24 0v-261h32V0H24" id="O"/><path fill="#282c33" d="M206 0h-36l-40-164L89 0H53L-1-190h32L70-26l43-164h34l41 164 42-164h31" id="P"/><path fill="#282c33" d="M30 0v-248h187v28H63v79h144v27H63v87h162V0H30" id="Q"/><path fill="#282c33" d="M141 0 90-78 38 0H4l68-98-65-92h35l48 74 47-74h35l-64 92 68 98h-35" id="R"/><path fill="#282c33" d="M100-194c63 0 86 42 84 106H49c0 40 14 67 53 68 26 1 43-12 49-29l28 8c-11 28-37 45-77 45C44 4 14-33 15-96c1-61 26-98 85-98zm52 81c6-60-76-77-97-28-3 7-6 17-6 28h103" id="S"/><path fill="#282c33" d="M96-169c-40 0-48 33-48 73s9 75 48 75c24 0 41-14 43-38l32 2c-6 37-31 61-74 61-59 0-76-41-82-99-10-93 101-131 147-64 4 7 5 14 7 22l-32 3c-4-21-16-35-41-35" id="T"/><path fill="#282c33" d="M84 4C-5 8 30-112 23-190h32v120c0 31 7 50 39 49 72-2 45-101 50-169h31l1 190h-30c-1-10 1-25-2-33-11 22-28 36-60 37" id="U"/><path fill="#282c33" d="M59-47c-2 24 18 29 38 22v24C64 9 27 4 27-40v-127H5v-23h24l9-43h21v43h35v23H59v120" id="V"/><path fill="#282c33" d="M24-231v-30h32v30H24zM24 0v-190h32V0H24" id="W"/><path fill="#282c33" d="M117-194c89-4 53 116 60 194h-32v-121c0-31-8-49-39-48C34-167 62-67 57 0H25l-1-190h30c1 10-1 24 2 32 11-22 29-35 61-36" id="X"/><path fill="#282c33" d="M233-177c-1 41-23 64-60 70L243 0h-38l-65-103H63V0H30v-248c88 3 205-21 203 71zM63-129c60-2 137 13 137-47 0-61-80-42-137-45v92" id="Y"/><path fill="#282c33" d="M101-251c82-7 93 87 43 132L82-64C71-53 59-42 53-27h129V0H18c2-99 128-94 128-182 0-28-16-43-45-43s-46 15-49 41l-32-3c6-41 34-60 81-64" id="Z"/><path fill="#333" d="M266 0h-40l-56-210L115 0H75L2-248h35L96-30l15-64 43-154h32l59 218 59-218h35" id="aa"/><path fill="#333" d="M100-194c62-1 85 37 85 99 1 63-27 99-86 99S16-35 15-95c0-66 28-99 85-99zM99-20c44 1 53-31 53-75 0-43-8-75-51-75s-53 32-53 75 10 74 51 75" id="ab"/><path fill="#333" d="M114-163C36-179 61-72 57 0H25l-1-190h30c1 12-1 29 2 39 6-27 23-49 58-41v29" id="ac"/><path fill="#333" d="M143 0 79-87 56-68V0H24v-261h32v163l83-92h37l-77 82L181 0h-38" id="ad"/><path fill="#333" d="M101-234c-31-9-42 10-38 44h38v23H63V0H32v-167H5v-23h27c-7-52 17-82 69-68v24" id="ae"/><path fill="#333" d="M24 0v-261h32V0H24" id="af"/><path fill="#333" d="M206 0h-36l-40-164L89 0H53L-1-190h32L70-26l43-164h34l41 164 42-164h31" id="ag"/><path fill="#333" d="M30 0v-248h187v28H63v79h144v27H63v87h162V0H30" id="ah"/><path fill="#333" d="M141 0 90-78 38 0H4l68-98-65-92h35l48 74 47-74h35l-64 92 68 98h-35" id="ai"/><path fill="#333" d="M100-194c63 0 86 42 84 106H49c0 40 14 67 53 68 26 1 43-12 49-29l28 8c-11 28-37 45-77 45C44 4 14-33 15-96c1-61 26-98 85-98zm52 81c6-60-76-77-97-28-3 7-6 17-6 28h103" id="aj"/><path fill="#333" d="M96-169c-40 0-48 33-48 73s9 75 48 75c24 0 41-14 43-38l32 2c-6 37-31 61-74 61-59 0-76-41-82-99-10-93 101-131 147-64 4 7 5 14 7 22l-32 3c-4-21-16-35-41-35" id="ak"/><path fill="#333" d="M84 4C-5 8 30-112 23-190h32v120c0 31 7 50 39 49 72-2 45-101 50-169h31l1 190h-30c-1-10 1-25-2-33-11 22-28 36-60 37" id="al"/><path fill="#333" d="M59-47c-2 24 18 29 38 22v24C64 9 27 4 27-40v-127H5v-23h24l9-43h21v43h35v23H59v120" id="am"/><path fill="#333" d="M24-231v-30h32v30H24zM24 0v-190h32V0H24" id="an"/><path fill="#333" d="M117-194c89-4 53 116 60 194h-32v-121c0-31-8-49-39-48C34-167 62-67 57 0H25l-1-190h30c1 10-1 24 2 32 11-22 29-35 61-36" id="ao"/><path fill="#333" d="M212-179c-10-28-35-45-73-45-59 0-87 40-87 99 0 60 29 101 89 101 43 0 62-24 78-52l27 14C228-24 195 4 139 4 59 4 22-46 18-125c-6-104 99-153 187-111 19 9 31 26 39 46" id="ap"/><path fill="#333" d="M85-194c31 0 48 13 60 33l-1-100h32l1 261h-30c-2-10 0-23-3-31C134-8 116 4 85 4 32 4 16-35 15-94c0-66 23-100 70-100zm9 24c-40 0-46 34-46 75 0 40 6 74 45 74 42 0 51-32 51-76 0-42-9-74-50-73" id="aq"/><path fill="#333" d="M16-82v-28h88v28H16" id="ar"/><path fill="#333" d="m205 0-28-72H64L36 0H1l101-248h38L239 0h-34zm-38-99-47-123c-12 45-31 82-46 123h93" id="as"/><path fill="#333" d="M135-143c-3-34-86-38-87 0 15 53 115 12 119 90S17 21 10-45l28-5c4 36 97 45 98 0-10-56-113-15-118-90-4-57 82-63 122-42 12 7 21 19 24 35" id="at"/><path fill="#333" d="M190 0 58-211 59 0H30v-248h39L202-35l-2-213h31V0h-41" id="au"/><path fill="#333" d="M238-179c0 84-86 86-175 82L45 0H11l48-248c82 0 179-12 179 69zm-34 1c0-53-64-42-116-43l-19 98c63 0 135 9 135-55" id="av"/><path fill="#333" d="M165-48c-4 18 1 34 23 27l-3 20c-29 8-62 0-52-35h-2C116-14 99 4 63 4 30 4 8-16 8-49c0-68 71-67 138-67 10-26 0-56-31-54-26 1-42 9-47 31l-32-5c8-67 160-71 144 15-5 28-9 54-15 81zM42-50c3 52 80 24 89-6 7-12 7-24 11-38-47 1-103-4-100 44" id="aw"/><path fill="#333" d="M66-151c12-25 30-51 66-40l-6 26C45-176 58-65 38 0H6l36-190h30" id="ax"/><path fill="#333" d="M111-194c62-3 86 47 72 106H45c-7 38 6 69 45 68 27-1 43-14 53-32l24 11C152-15 129 4 87 4 38 3 12-23 12-71c0-70 32-119 99-123zm44 81c14-66-71-72-95-28-4 8-8 17-11 28h106" id="ay"/><path fill="#333" d="M67-158c22-48 132-52 116 29L158 0h-32l25-140c3-38-53-32-70-12C52-117 51-52 38 0H6l36-190h30" id="az"/><path fill="#333" d="M51-54c-9 22 5 41 31 30L79-1C43 14 10-4 19-52l22-115H19l5-23h22l19-43h21l-9 43h35l-4 23H73" id="aA"/><path fill="#333" d="M248-111c6-24 9-61-24-58-72 9-57 108-77 169h-31l26-142c3-37-50-30-64-10C52-115 50-51 37 0H6l36-190h30c-1 10-6 24-4 32 13-43 101-52 105 5 13-22 29-41 61-41 90 0 28 129 23 194h-31" id="aB"/><path fill="#333" d="M67 3c-93-2-31-127-26-193h32L48-50c-3 39 53 32 70 12 30-34 30-101 43-152h32L157 0h-30c1-10 6-24 4-33-14 20-29 37-64 36" id="aC"/><path fill="#333" d="M55-144c13 50 104 24 104 88C159 21 15 23 1-39l26-10c6 40 102 42 102-4-13-50-104-23-104-87 0-71 143-71 148-8l-29 4c-5-35-85-37-89 0" id="aD"/><path fill="#333" d="M188 0h-37l-8-164L71 0H34L18-190h31l8 164 75-164h34l8 164 74-164h31" id="aE"/><path fill="#333" d="m50-231 6-30h32l-6 30H50zM6 0l37-190h31L37 0H6" id="aF"/><path fill="#333" d="M30-147c31-64 166-65 159 27C183-49 158 1 86 4 9 8 1-88 30-147zM88-20c53 0 68-48 68-100 0-31-11-51-44-50-52 1-68 46-68 97 0 32 13 53 44 53" id="aG"/><path fill="#333" d="M125-24c46 0 70-25 89-51l25 16C214-24 183 4 123 4 8 4-5-146 60-208c32-50 158-61 191-5 5 7 9 14 11 22l-32 10c-9-28-33-43-69-43-74 0-108 51-108 125 0 46 24 75 72 75" id="aH"/><path fill="#333" d="M67-158c15-20 31-36 64-36 94 0 33 127 27 194h-32l25-140c3-38-53-32-70-12C52-117 51-51 37 0H6l51-261h31" id="aI"/><path fill="#333" d="m6 0 50-261h32L37 0H6" id="aJ"/><path fill="#333" d="M133-28C103 26-5 8 13-77c13-62 24-115 90-117 29-1 46 15 56 35l19-102h32L160 0h-30zM45-64c-2 27 10 43 35 43 54-1 69-50 69-103 0-29-15-46-42-46-53-1-58 58-62 106" id="aK"/><path fill="#333" d="M67-162c32-53 139-36 121 50C175-51 163 2 97 4 68 4 52-11 42-31 38 6 28 39 22 75H-9l50-265h29c-1 10 0 20-3 28zm89 36c0-26-10-43-35-43-54 0-67 50-69 103-1 29 14 45 42 46 53 0 62-58 62-106" id="aL"/><path fill="#333" d="m44-154 7-36h35l-8 36H44zM14 0l7-36h35L49 0H14" id="aM"/><path fill="#333" d="M247 0h-39l-15-214-24 57L95 0H56L31-248h35L82-30l101-218h33l16 218 101-218h35" id="aN"/><path fill="#333" d="M127 0 80-88 50-66 37 0H6l51-261h31L57-100l99-90h39l-93 82L161 0h-34" id="aO"/><path fill="#333" d="M76-167 44 0H12l33-167H18l4-23h27c3-47 25-81 82-69l-4 24c-35-8-44 15-46 45h37l-5 23H76" id="aP"/><path fill="#333" d="m11 0 48-248h184l-5 28H87l-15 79h140l-5 27H67L50-27h158l-5 27H11" id="aQ"/><path fill="#333" d="M124 0 87-78 21 0h-35l86-98-46-92h33l34 74 61-74h37l-83 92 50 98h-34" id="aR"/><path fill="#333" d="M44-68c0 29 11 47 38 47 30 0 42-19 51-41l28 9C148-21 126 4 82 4 31 4 10-29 12-85c3-77 74-140 146-93 12 8 15 23 18 40l-31 5c-1-22-13-36-36-36-52 0-65 49-65 101" id="aS"/><path fill="#333" d="M194-120c59 52 2 134-86 124-53-6-90-18-98-63l31-7c8 30 29 43 70 43 46 0 84-17 71-62-32-43-135-20-137-98-3-89 178-90 191-16l-30 9c-8-48-127-53-127 5 0 53 81 35 115 65" id="aT"/><path fill="#333" d="M20-101c0-91 52-143 145-150 126-9 127 168 53 223-23 17-55 32-93 32C57 4 20-33 20-101zm216-33c5-57-18-91-73-90-77 1-110 51-110 125 0 49 23 75 73 75 72-1 104-45 110-110" id="aU"/><path fill="#333" d="m-2-79 4-24h200l-4 24H-2" id="aV"/><path fill="#333" d="m95-196 47-18 8 23-50 13 33 44-21 13-27-46-27 45-21-12 33-44-49-13 8-23 47 19-2-53h24" id="aW"/><path fill="#333" d="m14 0 48-248h34L48 0H14" id="aX"/><path fill="#333" d="M30-248c87 1 191-15 191 75 0 78-77 80-158 76V0H30v-248zm33 125c57 0 124 11 124-50 0-59-68-47-124-48v98" id="aY"/><path fill="#333" d="M141-36C126-15 110 5 73 4 37 3 15-17 15-53c-1-64 63-63 125-63 3-35-9-54-41-54-24 1-41 7-42 31l-33-3c5-37 33-52 76-52 45 0 72 20 72 64v82c-1 20 7 32 28 27v20c-31 9-61-2-59-35zM48-53c0 20 12 33 32 33 41-3 63-29 60-74-43 2-92-5-92 41" id="aZ"/><path fill="#333" d="M106-169C34-169 62-67 57 0H25v-261h32l-1 103c12-21 28-36 61-36 89 0 53 116 60 194h-32v-121c2-32-8-49-39-48" id="ba"/><path fill="#282c33" d="M27 0v-27h64v-190l-56 39v-29l58-41h29v221h61V0H27" id="bb"/><path fill="#333" d="M103-194c29 0 47 14 56 36 2-11 5-23 8-32h30L160-5C157 61 82 97 21 62 9 55 4 45 1 30l28-7c7 42 83 31 92-3 4-16 9-38 13-55-13 20-29 36-62 36-40 0-60-25-60-64 0-71 23-131 91-131zm4 24c-53 0-58 54-61 104-2 27 10 44 36 44 49 0 65-50 67-102 1-29-15-46-42-46" id="bc"/><path fill="#333" d="M151-220 108 0H75l42-220H32l6-28h203l-5 28h-85" id="bd"/><g id="a"><use transform="rotate(.413) scale(.06173)" xlink:href="#J"/><use transform="matrix(.06173 0 0 .06173 20.494 0)" xlink:href="#K"/><use transform="matrix(.06173 0 0 .06173 32.84 0)" xlink:href="#L"/><use transform="matrix(.06173 0 0 .06173 40.185 0)" xlink:href="#M"/><use transform="matrix(.06173 0 0 .06173 51.296 0)" xlink:href="#N"/><use transform="matrix(.06173 0 0 .06173 57.47 0)" xlink:href="#O"/><use transform="matrix(.06173 0 0 .06173 62.346 0)" xlink:href="#K"/><use transform="matrix(.06173 0 0 .06173 74.691 0)" xlink:href="#P"/></g><g id="b"><use transform="rotate(.413) scale(.06173)" xlink:href="#Q"/><use transform="matrix(.06173 0 0 .06173 14.815 0)" xlink:href="#R"/><use transform="matrix(.06173 0 0 .06173 25.926 0)" xlink:href="#S"/><use transform="matrix(.06173 0 0 .06173 38.272 0)" xlink:href="#T"/><use transform="matrix(.06173 0 0 .06173 49.383 0)" xlink:href="#U"/><use transform="matrix(.06173 0 0 .06173 61.728 0)" xlink:href="#V"/><use transform="matrix(.06173 0 0 .06173 67.901 0)" xlink:href="#W"/><use transform="matrix(.06173 0 0 .06173 72.778 0)" xlink:href="#K"/><use transform="matrix(.06173 0 0 .06173 85.123 0)" xlink:href="#X"/></g><g id="c"><use transform="scale(.04938)" xlink:href="#Y"/><use transform="matrix(.04938 0 0 .04938 12.79 0)" xlink:href="#U"/><use transform="matrix(.04938 0 0 .04938 22.667 0)" xlink:href="#X"/></g><g id="e"><use transform="scale(.05556)" xlink:href="#aa"/><use transform="matrix(.05556 0 0 .05556 18.444 0)" xlink:href="#ab"/><use transform="matrix(.05556 0 0 .05556 29.556 0)" xlink:href="#ac"/><use transform="matrix(.05556 0 0 .05556 36.167 0)" xlink:href="#ad"/><use transform="matrix(.05556 0 0 .05556 46.167 0)" xlink:href="#ae"/><use transform="matrix(.05556 0 0 .05556 51.722 0)" xlink:href="#af"/><use transform="matrix(.05556 0 0 .05556 56.111 0)" xlink:href="#ab"/><use transform="matrix(.05556 0 0 .05556 67.222 0)" xlink:href="#ag"/></g><g id="f"><use transform="scale(.05556)" xlink:href="#ah"/><use transform="matrix(.05556 0 0 .05556 13.333 0)" xlink:href="#ai"/><use transform="matrix(.05556 0 0 .05556 23.333 0)" xlink:href="#aj"/><use transform="matrix(.05556 0 0 .05556 34.444 0)" xlink:href="#ak"/><use transform="matrix(.05556 0 0 .05556 44.444 0)" xlink:href="#al"/><use transform="matrix(.05556 0 0 .05556 55.556 0)" xlink:href="#am"/><use transform="matrix(.05556 0 0 .05556 61.111 0)" xlink:href="#an"/><use transform="matrix(.05556 0 0 .05556 65.5 0)" xlink:href="#ab"/><use transform="matrix(.05556 0 0 .05556 76.611 0)" xlink:href="#ao"/></g><g id="g"><use transform="scale(.05556)" xlink:href="#ap"/><use transform="matrix(.05556 0 0 .05556 14.389 0)" xlink:href="#ab"/><use transform="matrix(.05556 0 0 .05556 25.5 0)" xlink:href="#ao"/><use transform="matrix(.05556 0 0 .05556 36.611 0)" xlink:href="#am"/><use transform="matrix(.05556 0 0 .05556 42.167 0)" xlink:href="#an"/><use transform="matrix(.05556 0 0 .05556 46.556 0)" xlink:href="#ao"/><use transform="matrix(.05556 0 0 .05556 57.667 0)" xlink:href="#al"/><use transform="matrix(.05556 0 0 .05556 68.778 0)" xlink:href="#aj"/><use transform="matrix(.05556 0 0 .05556 79.889 0)" xlink:href="#aq"/><use transform="matrix(.05556 0 0 .05556 91 0)" xlink:href="#ar"/><use transform="matrix(.05556 0 0 .05556 97.611 0)" xlink:href="#as"/><use transform="matrix(.05556 0 0 .05556 110.944 0)" xlink:href="#at"/><use transform="matrix(.05556 0 0 .05556 120.944 0)" xlink:href="#ar"/><use transform="matrix(.05556 0 0 .05556 127.556 0)" xlink:href="#au"/><use transform="matrix(.05556 0 0 .05556 141.944 0)" xlink:href="#aj"/><use transform="matrix(.05556 0 0 .05556 153.056 0)" xlink:href="#ag"/></g><g id="h"><use transform="rotate(.413) scale(.06173)" xlink:href="#av"/><use transform="matrix(.06173 0 0 .06173 14.815 0)" xlink:href="#aw"/><use transform="matrix(.06173 0 0 .06173 27.16 0)" xlink:href="#ax"/><use transform="matrix(.06173 0 0 .06173 34.506 0)" xlink:href="#ay"/><use transform="matrix(.06173 0 0 .06173 46.852 0)" xlink:href="#az"/><use transform="matrix(.06173 0 0 .06173 59.198 0)" xlink:href="#aA"/></g><g id="i"><use transform="rotate(.413) scale(.06173)" xlink:href="#aB"/><use transform="matrix(.06173 0 0 .06173 18.457 0)" xlink:href="#aC"/><use transform="matrix(.06173 0 0 .06173 30.802 0)" xlink:href="#aD"/><use transform="matrix(.06173 0 0 .06173 41.914 0)" xlink:href="#aA"/></g><g id="j"><use transform="rotate(.413) scale(.06173)" xlink:href="#aw"/><use transform="matrix(.06173 0 0 .06173 12.346 0)" xlink:href="#aE"/><use transform="matrix(.06173 0 0 .06173 28.333 0)" xlink:href="#aw"/><use transform="matrix(.06173 0 0 .06173 40.679 0)" xlink:href="#aF"/><use transform="matrix(.06173 0 0 .06173 45.556 0)" xlink:href="#aA"/></g><g id="k"><use transform="rotate(.413) scale(.06173)" xlink:href="#aG"/><use transform="matrix(.06173 0 0 .06173 12.346 0)" xlink:href="#az"/></g><g id="l"><use transform="rotate(.413) scale(.06173)" xlink:href="#aH"/><use transform="matrix(.06173 0 0 .06173 15.988 0)" xlink:href="#aI"/><use transform="matrix(.06173 0 0 .06173 28.333 0)" xlink:href="#aF"/><use transform="matrix(.06173 0 0 .06173 33.21 0)" xlink:href="#aJ"/><use transform="matrix(.06173 0 0 .06173 38.086 0)" xlink:href="#aK"/></g><g id="m"><use transform="rotate(.413) scale(.06173)" xlink:href="#aD"/><use transform="matrix(.06173 0 0 .06173 11.111 0)" xlink:href="#aL"/><use transform="matrix(.06173 0 0 .06173 23.457 0)" xlink:href="#aw"/><use transform="matrix(.06173 0 0 .06173 35.802 0)" xlink:href="#aE"/><use transform="matrix(.06173 0 0 .06173 51.79 0)" xlink:href="#az"/><use transform="matrix(.06173 0 0 .06173 64.136 0)" xlink:href="#aM"/></g><g id="n"><use transform="rotate(.413) scale(.06173)" xlink:href="#aN"/><use transform="matrix(.06173 0 0 .06173 20.926 0)" xlink:href="#aG"/><use transform="matrix(.06173 0 0 .06173 33.272 0)" xlink:href="#ax"/><use transform="matrix(.06173 0 0 .06173 40.617 0)" xlink:href="#aO"/><use transform="matrix(.06173 0 0 .06173 51.728 0)" xlink:href="#aP"/><use transform="matrix(.06173 0 0 .06173 57.901 0)" xlink:href="#aJ"/><use transform="matrix(.06173 0 0 .06173 62.778 0)" xlink:href="#aG"/><use transform="matrix(.06173 0 0 .06173 75.123 0)" xlink:href="#aE"/><use transform="matrix(.06173 0 0 .06173 91.111 0)" xlink:href="#aQ"/><use transform="matrix(.06173 0 0 .06173 105.926 0)" xlink:href="#aR"/><use transform="matrix(.06173 0 0 .06173 117.037 0)" xlink:href="#ay"/><use transform="matrix(.06173 0 0 .06173 129.383 0)" xlink:href="#aS"/><use transform="matrix(.06173 0 0 .06173 140.494 0)" xlink:href="#aC"/><use transform="matrix(.06173 0 0 .06173 152.84 0)" xlink:href="#aA"/><use transform="matrix(.06173 0 0 .06173 159.012 0)" xlink:href="#aF"/><use transform="matrix(.06173 0 0 .06173 163.889 0)" xlink:href="#aG"/><use transform="matrix(.06173 0 0 .06173 176.235 0)" xlink:href="#az"/><use transform="matrix(.06173 0 0 .06173 188.58 0)" xlink:href="#aT"/><use transform="matrix(.06173 0 0 .06173 203.395 0)" xlink:href="#aA"/><use transform="matrix(.06173 0 0 .06173 209.568 0)" xlink:href="#aw"/><use transform="matrix(.06173 0 0 .06173 221.914 0)" xlink:href="#ax"/><use transform="matrix(.06173 0 0 .06173 229.26 0)" xlink:href="#aA"/><use transform="matrix(.06173 0 0 .06173 235.432 0)" xlink:href="#ay"/><use transform="matrix(.06173 0 0 .06173 247.778 0)" xlink:href="#aK"/></g><g id="o"><use transform="rotate(.413) scale(.06173)" xlink:href="#aU"/><use transform="matrix(.06173 0 0 .06173 17.284 0)" xlink:href="#aL"/><use transform="matrix(.06173 0 0 .06173 29.63 0)" xlink:href="#aA"/><use transform="matrix(.06173 0 0 .06173 35.802 0)" xlink:href="#aF"/><use transform="matrix(.06173 0 0 .06173 40.679 0)" xlink:href="#aG"/><use transform="matrix(.06173 0 0 .06173 53.025 0)" xlink:href="#az"/><use transform="matrix(.06173 0 0 .06173 65.37 0)" xlink:href="#aw"/><use transform="matrix(.06173 0 0 .06173 77.716 0)" xlink:href="#aJ"/><use transform="matrix(.06173 0 0 .06173 82.593 0)" xlink:href="#aV"/><use transform="matrix(.06173 0 0 .06173 94.938 0)" xlink:href="#av"/><use transform="matrix(.06173 0 0 .06173 109.753 0)" xlink:href="#aw"/><use transform="matrix(.06173 0 0 .06173 122.099 0)" xlink:href="#ax"/><use transform="matrix(.06173 0 0 .06173 129.444 0)" xlink:href="#ay"/><use transform="matrix(.06173 0 0 .06173 141.79 0)" xlink:href="#az"/><use transform="matrix(.06173 0 0 .06173 154.136 0)" xlink:href="#aA"/></g><g id="p"><use transform="rotate(.413) scale(.06173)" xlink:href="#aw"/><use transform="matrix(.06173 0 0 .06173 12.346 0)" xlink:href="#aE"/><use transform="matrix(.06173 0 0 .06173 28.333 0)" xlink:href="#aw"/><use transform="matrix(.06173 0 0 .06173 40.679 0)" xlink:href="#aF"/><use transform="matrix(.06173 0 0 .06173 45.556 0)" xlink:href="#aA"/><use transform="matrix(.06173 0 0 .06173 51.728 0)" xlink:href="#aD"/></g><g id="q"><use transform="rotate(.413) scale(.06173)" xlink:href="#aH"/><use transform="matrix(.06173 0 0 .06173 15.988 0)" xlink:href="#aI"/><use transform="matrix(.06173 0 0 .06173 28.333 0)" xlink:href="#aF"/><use transform="matrix(.06173 0 0 .06173 33.21 0)" xlink:href="#aJ"/><use transform="matrix(.06173 0 0 .06173 38.086 0)" xlink:href="#aK"/><use transform="matrix(.06173 0 0 .06173 50.432 0)" xlink:href="#aW"/></g><g id="r"><use transform="rotate(.413) scale(.06173)" xlink:href="#ax"/><use transform="matrix(.06173 0 0 .06173 7.346 0)" xlink:href="#ay"/><use transform="matrix(.06173 0 0 .06173 19.691 0)" xlink:href="#aD"/><use transform="matrix(.06173 0 0 .06173 30.802 0)" xlink:href="#aC"/><use transform="matrix(.06173 0 0 .06173 43.148 0)" xlink:href="#aJ"/><use transform="matrix(.06173 0 0 .06173 48.025 0)" xlink:href="#aA"/><use transform="matrix(.06173 0 0 .06173 54.198 0)" xlink:href="#aM"/></g><g id="s"><use transform="rotate(.413) scale(.06173)" xlink:href="#aN"/><use transform="matrix(.06173 0 0 .06173 20.926 0)" xlink:href="#aG"/><use transform="matrix(.06173 0 0 .06173 33.272 0)" xlink:href="#ax"/><use transform="matrix(.06173 0 0 .06173 40.617 0)" xlink:href="#aO"/><use transform="matrix(.06173 0 0 .06173 51.728 0)" xlink:href="#aP"/><use transform="matrix(.06173 0 0 .06173 57.901 0)" xlink:href="#aJ"/><use transform="matrix(.06173 0 0 .06173 62.778 0)" xlink:href="#aG"/><use transform="matrix(.06173 0 0 .06173 75.123 0)" xlink:href="#aE"/><use transform="matrix(.06173 0 0 .06173 91.111 0)" xlink:href="#aQ"/><use transform="matrix(.06173 0 0 .06173 105.926 0)" xlink:href="#aR"/><use transform="matrix(.06173 0 0 .06173 117.037 0)" xlink:href="#ay"/><use transform="matrix(.06173 0 0 .06173 129.383 0)" xlink:href="#aS"/><use transform="matrix(.06173 0 0 .06173 140.494 0)" xlink:href="#aC"/><use transform="matrix(.06173 0 0 .06173 152.84 0)" xlink:href="#aA"/><use transform="matrix(.06173 0 0 .06173 159.012 0)" xlink:href="#aF"/><use transform="matrix(.06173 0 0 .06173 163.889 0)" xlink:href="#aG"/><use transform="matrix(.06173 0 0 .06173 176.235 0)" xlink:href="#az"/><use transform="matrix(.06173 0 0 .06173 188.58 0)" xlink:href="#aH"/><use transform="matrix(.06173 0 0 .06173 204.568 0)" xlink:href="#aG"/><use transform="matrix(.06173 0 0 .06173 216.914 0)" xlink:href="#aB"/><use transform="matrix(.06173 0 0 .06173 235.37 0)" xlink:href="#aL"/><use transform="matrix(.06173 0 0 .06173 247.716 0)" xlink:href="#aJ"/><use transform="matrix(.06173 0 0 .06173 252.593 0)" xlink:href="#ay"/><use transform="matrix(.06173 0 0 .06173 264.938 0)" xlink:href="#aA"/><use transform="matrix(.06173 0 0 .06173 271.111 0)" xlink:href="#ay"/><use transform="matrix(.06173 0 0 .06173 283.457 0)" xlink:href="#aK"/></g><g id="t"><use transform="rotate(.413) scale(.06173)" xlink:href="#av"/><use transform="matrix(.06173 0 0 .06173 14.815 0)" xlink:href="#aw"/><use transform="matrix(.06173 0 0 .06173 27.16 0)" xlink:href="#ax"/><use transform="matrix(.06173 0 0 .06173 34.506 0)" xlink:href="#ay"/><use transform="matrix(.06173 0 0 .06173 46.852 0)" xlink:href="#az"/><use transform="matrix(.06173 0 0 .06173 59.198 0)" xlink:href="#aA"/></g><g id="u"><use transform="rotate(.413) scale(.06173)" xlink:href="#aF"/><use transform="matrix(.06173 0 0 .06173 4.877 0)" xlink:href="#az"/><use transform="matrix(.06173 0 0 .06173 17.222 0)" xlink:href="#aF"/><use transform="matrix(.06173 0 0 .06173 22.099 0)" xlink:href="#aA"/><use transform="matrix(.06173 0 0 .06173 28.272 0)" xlink:href="#aF"/><use transform="matrix(.06173 0 0 .06173 33.148 0)" xlink:href="#aw"/><use transform="matrix(.06173 0 0 .06173 45.494 0)" xlink:href="#aA"/><use transform="matrix(.06173 0 0 .06173 51.667 0)" xlink:href="#ay"/><use transform="matrix(.06173 0 0 .06173 64.012 0)" xlink:href="#aD"/></g><g id="v"><use transform="rotate(.413) scale(.06173)" xlink:href="#aD"/><use transform="matrix(.06173 0 0 .06173 11.111 0)" xlink:href="#aL"/><use transform="matrix(.06173 0 0 .06173 23.457 0)" xlink:href="#aw"/><use transform="matrix(.06173 0 0 .06173 35.802 0)" xlink:href="#aE"/><use transform="matrix(.06173 0 0 .06173 51.79 0)" xlink:href="#az"/><use transform="matrix(.06173 0 0 .06173 64.136 0)" xlink:href="#aM"/></g><g id="w"><use transform="rotate(.413) scale(.06173)" xlink:href="#aT"/><use transform="matrix(.06173 0 0 .06173 14.815 0)" xlink:href="#aA"/><use transform="matrix(.06173 0 0 .06173 20.988 0)" xlink:href="#aw"/><use transform="matrix(.06173 0 0 .06173 33.333 0)" xlink:href="#ax"/><use transform="matrix(.06173 0 0 .06173 40.679 0)" xlink:href="#aA"/><use transform="matrix(.06173 0 0 .06173 46.852 0)" xlink:href="#aH"/><use transform="matrix(.06173 0 0 .06173 62.84 0)" xlink:href="#aI"/><use transform="matrix(.06173 0 0 .06173 75.185 0)" xlink:href="#aF"/><use transform="matrix(.06173 0 0 .06173 80.062 0)" xlink:href="#aJ"/><use transform="matrix(.06173 0 0 .06173 84.938 0)" xlink:href="#aK"/><use transform="matrix(.06173 0 0 .06173 97.284 0)" xlink:href="#aN"/><use transform="matrix(.06173 0 0 .06173 118.21 0)" xlink:href="#aG"/><use transform="matrix(.06173 0 0 .06173 130.556 0)" xlink:href="#ax"/><use transform="matrix(.06173 0 0 .06173 137.901 0)" xlink:href="#aO"/><use transform="matrix(.06173 0 0 .06173 149.012 0)" xlink:href="#aP"/><use transform="matrix(.06173 0 0 .06173 155.185 0)" xlink:href="#aJ"/><use transform="matrix(.06173 0 0 .06173 160.062 0)" xlink:href="#aG"/><use transform="matrix(.06173 0 0 .06173 172.407 0)" xlink:href="#aE"/><use transform="matrix(.06173 0 0 .06173 188.395 0)" xlink:href="#aQ"/><use transform="matrix(.06173 0 0 .06173 203.21 0)" xlink:href="#aR"/><use transform="matrix(.06173 0 0 .06173 214.321 0)" xlink:href="#ay"/><use transform="matrix(.06173 0 0 .06173 226.667 0)" xlink:href="#aS"/><use transform="matrix(.06173 0 0 .06173 237.778 0)" xlink:href="#aC"/><use transform="matrix(.06173 0 0 .06173 250.123 0)" xlink:href="#aA"/><use transform="matrix(.06173 0 0 .06173 256.296 0)" xlink:href="#aF"/><use transform="matrix(.06173 0 0 .06173 261.173 0)" xlink:href="#aG"/><use transform="matrix(.06173 0 0 .06173 273.519 0)" xlink:href="#az"/><use transform="matrix(.06173 0 0 .06173 285.864 0)" xlink:href="#aX"/><use transform="matrix(.06173 0 0 .06173 292.037 0)" xlink:href="#az"/><use transform="matrix(.06173 0 0 .06173 304.383 0)" xlink:href="#aF"/><use transform="matrix(.06173 0 0 .06173 309.26 0)" xlink:href="#aA"/><use transform="matrix(.06173 0 0 .06173 315.432 0)" xlink:href="#aF"/><use transform="matrix(.06173 0 0 .06173 320.309 0)" xlink:href="#aw"/><use transform="matrix(.06173 0 0 .06173 332.654 0)" xlink:href="#aA"/><use transform="matrix(.06173 0 0 .06173 338.827 0)" xlink:href="#ay"/><use transform="matrix(.06173 0 0 .06173 351.173 0)" xlink:href="#aK"/></g><g id="x"><use transform="rotate(.413) scale(.06173)" xlink:href="#aY"/><use transform="matrix(.06173 0 0 .06173 14.815 0)" xlink:href="#aZ"/><use transform="matrix(.06173 0 0 .06173 27.16 0)" xlink:href="#ac"/><use transform="matrix(.06173 0 0 .06173 34.506 0)" xlink:href="#aj"/><use transform="matrix(.06173 0 0 .06173 46.852 0)" xlink:href="#ao"/><use transform="matrix(.06173 0 0 .06173 59.198 0)" xlink:href="#am"/></g><g id="y"><use transform="rotate(.413) scale(.06173)" xlink:href="#ap"/><use transform="matrix(.06173 0 0 .06173 15.988 0)" xlink:href="#ba"/><use transform="matrix(.06173 0 0 .06173 28.333 0)" xlink:href="#an"/><use transform="matrix(.06173 0 0 .06173 33.21 0)" xlink:href="#af"/><use transform="matrix(.06173 0 0 .06173 38.086 0)" xlink:href="#aq"/></g><g id="z"><use transform="rotate(.413) scale(.06173)" xlink:href="#J"/><use transform="matrix(.06173 0 0 .06173 20.494 0)" xlink:href="#K"/><use transform="matrix(.06173 0 0 .06173 32.84 0)" xlink:href="#L"/><use transform="matrix(.06173 0 0 .06173 40.185 0)" xlink:href="#M"/><use transform="matrix(.06173 0 0 .06173 51.296 0)" xlink:href="#N"/><use transform="matrix(.06173 0 0 .06173 57.47 0)" xlink:href="#O"/><use transform="matrix(.06173 0 0 .06173 62.346 0)" xlink:href="#K"/><use transform="matrix(.06173 0 0 .06173 74.691 0)" xlink:href="#P"/></g><g id="A"><use transform="rotate(.413) scale(.06173)" xlink:href="#Q"/><use transform="matrix(.06173 0 0 .06173 14.815 0)" xlink:href="#R"/><use transform="matrix(.06173 0 0 .06173 25.926 0)" xlink:href="#S"/><use transform="matrix(.06173 0 0 .06173 38.272 0)" xlink:href="#T"/><use transform="matrix(.06173 0 0 .06173 49.383 0)" xlink:href="#U"/><use transform="matrix(.06173 0 0 .06173 61.728 0)" xlink:href="#V"/><use transform="matrix(.06173 0 0 .06173 67.901 0)" xlink:href="#W"/><use transform="matrix(.06173 0 0 .06173 72.778 0)" xlink:href="#K"/><use transform="matrix(.06173 0 0 .06173 85.123 0)" xlink:href="#X"/></g><g id="B"><use transform="rotate(.413) scale(.06173)" xlink:href="#Q"/><use transform="matrix(.06173 0 0 .06173 14.815 0)" xlink:href="#R"/><use transform="matrix(.06173 0 0 .06173 25.926 0)" xlink:href="#S"/><use transform="matrix(.06173 0 0 .06173 38.272 0)" xlink:href="#T"/><use transform="matrix(.06173 0 0 .06173 49.383 0)" xlink:href="#U"/><use transform="matrix(.06173 0 0 .06173 61.728 0)" xlink:href="#V"/><use transform="matrix(.06173 0 0 .06173 67.901 0)" xlink:href="#W"/><use transform="matrix(.06173 0 0 .06173 72.778 0)" xlink:href="#K"/><use transform="matrix(.06173 0 0 .06173 85.123 0)" xlink:href="#X"/></g><g id="C"><use transform="scale(.04938)" xlink:href="#Y"/><use transform="matrix(.04938 0 0 .04938 12.79 0)" xlink:href="#U"/><use transform="matrix(.04938 0 0 .04938 22.667 0)" xlink:href="#X"/></g><g id="E"><use transform="rotate(.413) scale(.06173)" xlink:href="#aU"/><use transform="matrix(.06173 0 0 .06173 17.284 0)" xlink:href="#aL"/><use transform="matrix(.06173 0 0 .06173 29.63 0)" xlink:href="#aA"/><use transform="matrix(.06173 0 0 .06173 35.802 0)" xlink:href="#aF"/><use transform="matrix(.06173 0 0 .06173 40.679 0)" xlink:href="#aG"/><use transform="matrix(.06173 0 0 .06173 53.025 0)" xlink:href="#az"/><use transform="matrix(.06173 0 0 .06173 65.37 0)" xlink:href="#aw"/><use transform="matrix(.06173 0 0 .06173 77.716 0)" xlink:href="#aJ"/><use transform="matrix(.06173 0 0 .06173 82.593 0)" xlink:href="#aV"/><use transform="matrix(.06173 0 0 .06173 94.938 0)" xlink:href="#av"/><use transform="matrix(.06173 0 0 .06173 109.753 0)" xlink:href="#aw"/><use transform="matrix(.06173 0 0 .06173 122.099 0)" xlink:href="#ax"/><use transform="matrix(.06173 0 0 .06173 129.444 0)" xlink:href="#ay"/><use transform="matrix(.06173 0 0 .06173 141.79 0)" xlink:href="#az"/><use transform="matrix(.06173 0 0 .06173 154.136 0)" xlink:href="#aA"/></g><g id="F"><use transform="rotate(.413) scale(.06173)" xlink:href="#aL"/><use transform="matrix(.06173 0 0 .06173 12.346 0)" xlink:href="#ax"/><use transform="matrix(.06173 0 0 .06173 19.691 0)" xlink:href="#aG"/><use transform="matrix(.06173 0 0 .06173 32.037 0)" xlink:href="#aL"/><use transform="matrix(.06173 0 0 .06173 44.383 0)" xlink:href="#aw"/><use transform="matrix(.06173 0 0 .06173 56.728 0)" xlink:href="#bc"/><use transform="matrix(.06173 0 0 .06173 69.074 0)" xlink:href="#aw"/><use transform="matrix(.06173 0 0 .06173 81.42 0)" xlink:href="#aA"/><use transform="matrix(.06173 0 0 .06173 87.593 0)" xlink:href="#ay"/><use transform="matrix(.06173 0 0 .06173 99.938 0)" xlink:href="#aD"/></g><g id="G"><use transform="rotate(.413) scale(.06173)" xlink:href="#bd"/><use transform="matrix(.06173 0 0 .06173 11.481 0)" xlink:href="#ay"/><use transform="matrix(.06173 0 0 .06173 23.827 0)" xlink:href="#ax"/><use transform="matrix(.06173 0 0 .06173 31.173 0)" xlink:href="#aB"/><use transform="matrix(.06173 0 0 .06173 49.63 0)" xlink:href="#aF"/><use transform="matrix(.06173 0 0 .06173 54.506 0)" xlink:href="#az"/><use transform="matrix(.06173 0 0 .06173 66.852 0)" xlink:href="#aw"/><use transform="matrix(.06173 0 0 .06173 79.198 0)" xlink:href="#aA"/><use transform="matrix(.06173 0 0 .06173 85.37 0)" xlink:href="#aF"/><use transform="matrix(.06173 0 0 .06173 90.247 0)" xlink:href="#aG"/><use transform="matrix(.06173 0 0 .06173 102.593 0)" xlink:href="#az"/></g><g id="H"><use transform="rotate(.413) scale(.06173)" xlink:href="#aA"/><use transform="matrix(.06173 0 0 .06173 6.173 0)" xlink:href="#aG"/></g><g id="I"><use transform="rotate(.413) scale(.06173)" xlink:href="#aH"/><use transform="matrix(.06173 0 0 .06173 15.988 0)" xlink:href="#aI"/><use transform="matrix(.06173 0 0 .06173 28.333 0)" xlink:href="#aF"/><use transform="matrix(.06173 0 0 .06173 33.21 0)" xlink:href="#aJ"/><use transform="matrix(.06173 0 0 .06173 38.086 0)" xlink:href="#aK"/></g><use transform="scale(.04938)" xlink:href="#Z" id="d"/><use transform="scale(.04938)" xlink:href="#bb" id="D"/></defs></g></svg>