<svg xmlns="http://www.w3.org/2000/svg" xmlns:xlink="http://www.w3.org/1999/xlink" xmlns:lucid="lucid" width="1040" height="900"><g transform="translate(-480 60)" lucid:page-tab-id="0_0"><path d="M920 140h160v160H920z" stroke="#333" stroke-width="3" fill="#fff"/><use xlink:href="#a" transform="matrix(1,0,0,1,925,145) translate(45.35802469135804 81.13888888888889)"/><path d="M640 400h160v160H640z" stroke="#333" stroke-width="3" fill="#fff"/><use xlink:href="#b" transform="matrix(1,0,0,1,645,405) translate(24.617283950617306 81.13888888888889)"/><path d="M1000 302.5V350H720v47.5" stroke="#333" stroke-width="2" fill="none"/><path d="M1001 302.53h-2v-1.03h2zM721 398.5h-2v-1.03h2z" fill="#333"/><path d="M500 660h160v160H500z" stroke="#333" stroke-width="3" fill="#fff"/><use xlink:href="#c" transform="matrix(1,0,0,1,505,665) translate(37.58024691358027 81.13888888888889)"/><path d="M780 660h160v160H780z" stroke="#333" stroke-width="3" fill="#fff"/><use xlink:href="#d" transform="matrix(1,0,0,1,785,665) translate(37.58024691358027 81.13888888888889)"/><path d="M720 562.5V610H583v47.5" stroke="#333" stroke-width="2" fill="none"/><path d="M721 562.53h-2v-1.03h2zM584 658.5h-2v-1.03h2z" fill="#333"/><path d="M720 562.5V610h137v47.5" stroke="#333" stroke-width="2" fill="none"/><path d="M721 562.53h-2v-1.03h2zM858 658.5h-2v-1.03h2z" fill="#333"/><path d="M1200 400h160v160h-160z" stroke="#333" stroke-width="3" fill="#fff"/><use xlink:href="#e" transform="matrix(1,0,0,1,1205,405) translate(24.617283950617306 81.13888888888889)"/><path d="M1060 660h160v160h-160z" stroke="#333" stroke-width="3" fill="#fff"/><use xlink:href="#c" transform="matrix(1,0,0,1,1065,665) translate(37.58024691358027 81.13888888888889)"/><path d="M1340 660h160v160h-160z" stroke="#333" stroke-width="3" fill="#fff"/><use xlink:href="#d" transform="matrix(1,0,0,1,1345,665) translate(37.58024691358027 81.13888888888889)"/><path d="M1280 562.5V610h-137v47.5" stroke="#333" stroke-width="2" fill="none"/><path d="M1281 562.53h-2v-1.03h2zM1144 658.5h-2v-1.03h2z" fill="#333"/><path d="M1280 562.5V610h137v47.5" stroke="#333" stroke-width="2" fill="none"/><path d="M1281 562.53h-2v-1.03h2zM1418 658.5h-2v-1.03h2z" fill="#333"/><path d="M1000 302.5V350h280v47.5" stroke="#333" stroke-width="2" fill="none"/><path d="M1001 302.53h-2v-1.03h2zM1281 398.5h-2v-1.03h2z" fill="#333"/><path d="M1040 0c0 22.1-17.9 40-40 40s-40-17.9-40-40 17.9-40 40-40 40 17.9 40 40z" stroke="#333" stroke-width="3" fill="#333"/><path d="M1000 42.5v95" stroke="#333" stroke-width="2" fill="none"/><path d="M999.98 41.5l1.02-.03v1.06h-2v-1.1zM1001 138.5h-2v-1.03h2z" fill="#333"/><defs><path fill="#333" d="M223 0c-34 10-63 1-63-40v-127H89c2 62-6 119-17 167H39c12-48 20-106 19-167-17-1-32 2-44 6v-24c62-12 148-2 219-5v23h-42v120c-1 21 11 31 32 24V0" id="f"/><path fill="#333" d="M87 75C49 33 22-17 22-94c0-76 28-126 65-167h31c-38 41-64 92-64 168S80 34 118 75H87" id="g"/><path fill="#333" d="M115-194c55 1 70 41 70 98S169 2 115 4C84 4 66-9 55-30l1 105H24l-1-265h31l2 30c10-21 28-34 59-34zm-8 174c40 0 45-34 45-75s-6-73-45-74c-42 0-51 32-51 76 0 43 10 73 51 73" id="h"/><path fill="#333" d="M33-261c38 41 65 92 65 168S71 34 33 75H2C39 34 66-17 66-93S39-220 2-261h31" id="i"/><g id="a"><use transform="matrix(0.0864197530864197,0,0,0.0864197530864197,0,0)" xlink:href="#f"/><use transform="matrix(0.0864197530864197,0,0,0.0864197530864197,21.432098765432087,0)" xlink:href="#g"/><use transform="matrix(0.0864197530864197,0,0,0.0864197530864197,31.716049382716033,0)" xlink:href="#h"/><use transform="matrix(0.0864197530864197,0,0,0.0864197530864197,48.99999999999997,0)" xlink:href="#i"/></g><path fill="#333" d="M68-38c1 34 0 65-14 84H32c9-13 17-26 17-46H33v-38h35" id="j"/><path fill="#333" d="M96-169c-40 0-48 33-48 73s9 75 48 75c24 0 41-14 43-38l32 2c-6 37-31 61-74 61-59 0-76-41-82-99-10-93 101-131 147-64 4 7 5 14 7 22l-32 3c-4-21-16-35-41-35" id="k"/><path fill="#333" d="M27 0v-27h64v-190l-56 39v-29l58-41h29v221h61V0H27" id="l"/><g id="b"><use transform="matrix(0.0864197530864197,0,0,0.0864197530864197,0,0)" xlink:href="#f"/><use transform="matrix(0.0864197530864197,0,0,0.0864197530864197,21.432098765432087,0)" xlink:href="#g"/><use transform="matrix(0.0864197530864197,0,0,0.0864197530864197,31.716049382716033,0)" xlink:href="#h"/><use transform="matrix(0.0864197530864197,0,0,0.0864197530864197,48.99999999999997,0)" xlink:href="#j"/><use transform="matrix(0.0864197530864197,0,0,0.0864197530864197,57.641975308641946,0)" xlink:href="#k"/><use transform="matrix(0.0864197530864197,0,0,0.0864197530864197,73.19753086419749,0)" xlink:href="#l"/><use transform="matrix(0.0864197530864197,0,0,0.0864197530864197,90.48148148148144,0)" xlink:href="#i"/></g><g id="c"><use transform="matrix(0.0864197530864197,0,0,0.0864197530864197,0,0)" xlink:href="#f"/><use transform="matrix(0.0864197530864197,0,0,0.0864197530864197,21.432098765432087,0)" xlink:href="#g"/><use transform="matrix(0.0864197530864197,0,0,0.0864197530864197,31.716049382716033,0)" xlink:href="#k"/><use transform="matrix(0.0864197530864197,0,0,0.0864197530864197,47.27160493827158,0)" xlink:href="#l"/><use transform="matrix(0.0864197530864197,0,0,0.0864197530864197,64.55555555555551,0)" xlink:href="#i"/></g><path fill="#333" d="M117-194c89-4 53 116 60 194h-32v-121c0-31-8-49-39-48C34-167 62-67 57 0H25l-1-190h30c1 10-1 24 2 32 11-22 29-35 61-36" id="m"/><g id="d"><use transform="matrix(0.0864197530864197,0,0,0.0864197530864197,0,0)" xlink:href="#f"/><use transform="matrix(0.0864197530864197,0,0,0.0864197530864197,21.432098765432087,0)" xlink:href="#g"/><use transform="matrix(0.0864197530864197,0,0,0.0864197530864197,31.716049382716033,0)" xlink:href="#k"/><use transform="matrix(0.0864197530864197,0,0,0.0864197530864197,47.27160493827158,0)" xlink:href="#m"/><use transform="matrix(0.0864197530864197,0,0,0.0864197530864197,64.55555555555551,0)" xlink:href="#i"/></g><g id="e"><use transform="matrix(0.0864197530864197,0,0,0.0864197530864197,0,0)" xlink:href="#f"/><use transform="matrix(0.0864197530864197,0,0,0.0864197530864197,21.432098765432087,0)" xlink:href="#g"/><use transform="matrix(0.0864197530864197,0,0,0.0864197530864197,31.716049382716033,0)" xlink:href="#h"/><use transform="matrix(0.0864197530864197,0,0,0.0864197530864197,48.99999999999997,0)" xlink:href="#j"/><use transform="matrix(0.0864197530864197,0,0,0.0864197530864197,57.641975308641946,0)" xlink:href="#k"/><use transform="matrix(0.0864197530864197,0,0,0.0864197530864197,73.19753086419749,0)" xlink:href="#m"/><use transform="matrix(0.0864197530864197,0,0,0.0864197530864197,90.48148148148144,0)" xlink:href="#i"/></g></defs></g></svg>