<svg xmlns="http://www.w3.org/2000/svg" xmlns:xlink="http://www.w3.org/1999/xlink" xmlns:lucid="lucid" width="1019" height="542.94"><g transform="translate(1540 -180)" lucid:page-tab-id="0_0"><path d="M-1806.87 0H64v1322.83h-1870.87z" fill="#fff"/><path d="M-1100 200.5v499m0-499v-.5m0 499.5v.5m300-499.5v499m0-499v-.5m0 499.5v.5" stroke="#282c33" fill="none"/><path d="M-1359 215c0-8.28 6.72-15 15-15h190c8.28 0 15 6.72 15 15v50c0 8.28-6.72 15-15 15h-190c-8.28 0-15-6.72-15-15z" fill="none"/><use xlink:href="#a" transform="translate(-1296.963 231.653)"/><use xlink:href="#b" transform="translate(-1345.76 258.32)"/><use xlink:href="#c" transform="translate(-1274.216 258.32)"/><use xlink:href="#d" transform="translate(-1211.377 258.32)"/><path d="M-1057 215c0-8.28 6.72-15 15-15h186c8.28 0 15 6.72 15 15v50c0 8.28-6.72 15-15 15h-186c-8.28 0-15-6.72-15-15z" fill="none"/><use xlink:href="#e" transform="translate(-1001.16 231.528)"/><use xlink:href="#b" transform="translate(-1045.76 258.194)"/><use xlink:href="#c" transform="translate(-974.216 258.194)"/><use xlink:href="#d" transform="translate(-911.377 258.194)"/><path d="M-757 215c0-8.28 6.72-15 15-15h186c8.28 0 15 6.72 15 15v50c0 8.28-6.72 15-15 15h-186c-8.28 0-15-6.72-15-15z" fill="none"/><use xlink:href="#f" transform="translate(-732.148 231.528)"/><use xlink:href="#g" transform="translate(-638.568 231.528)"/><use xlink:href="#b" transform="translate(-745.76 258.194)"/><use xlink:href="#c" transform="translate(-674.216 258.194)"/><use xlink:href="#d" transform="translate(-611.377 258.194)"/><path d="M-1320 615c0-8.28 6.72-15 15-15h110c8.28 0 15 6.72 15 15v72.94c0 8.28-6.72 15-15 15h-110c-8.28 0-15-6.72-15-15z" stroke="#282c33" fill="#fff"/><use xlink:href="#h" transform="translate(-1295.34 643.122)"/><use xlink:href="#i" transform="translate(-1298.735 669.788)"/><path d="M-1020 615c0-8.28 6.72-15 15-15h110c8.28 0 15 6.72 15 15v72.94c0 8.28-6.72 15-15 15h-110c-8.28 0-15-6.72-15-15z" stroke="#282c33" fill="#fff"/><use xlink:href="#h" transform="translate(-995.34 643.122)"/><use xlink:href="#i" transform="translate(-998.735 669.788)"/><path d="M-720 615c0-8.28 6.72-15 15-15h110c8.28 0 15 6.72 15 15v72.94c0 8.28-6.72 15-15 15h-110c-8.28 0-15-6.72-15-15z" stroke="#282c33" fill="#fff"/><use xlink:href="#h" transform="translate(-695.34 643.122)"/><use xlink:href="#i" transform="translate(-698.735 669.788)"/><path d="M-1520 355c0-8.28 6.72-15 15-15h130c8.28 0 15 6.72 15 15v7.06c0 8.3-6.72 15-15 15h-130c-8.28 0-15-6.7-15-15z" fill="none"/><use xlink:href="#j" transform="translate(-1472.68 364.528)"/><path d="M-1320 315c0-8.28 6.72-15 15-15h110c8.28 0 15 6.72 15 15v72.94c0 8.28-6.72 15-15 15h-110c-8.28 0-15-6.72-15-15z" stroke="#282c33" fill="#fff"/><use xlink:href="#h" transform="translate(-1295.34 343.122)"/><use xlink:href="#i" transform="translate(-1298.735 369.788)"/><path d="M-1020 315c0-8.28 6.72-15 15-15h110c8.28 0 15 6.72 15 15v72.94c0 8.28-6.72 15-15 15h-110c-8.28 0-15-6.72-15-15z" stroke="#282c33" fill="#fff"/><use xlink:href="#h" transform="translate(-995.34 343.122)"/><use xlink:href="#i" transform="translate(-998.735 369.788)"/><path d="M-720 315c0-8.28 6.72-15 15-15h110c8.28 0 15 6.72 15 15v72.94c0 8.28-6.72 15-15 15h-110c-8.28 0-15-6.72-15-15z" stroke="#282c33" fill="#fff"/><use xlink:href="#h" transform="translate(-695.34 343.122)"/><use xlink:href="#i" transform="translate(-698.735 369.788)"/><path d="M-1520 647.94c0-8.3 6.72-15 15-15h130c8.28 0 15 6.7 15 15V655c0 8.28-6.72 15-15 15h-130c-8.28 0-15-6.72-15-15z" fill="none"/><use xlink:href="#k" transform="translate(-1465.211 657.465)"/><path d="M-950 403.94v179.18" stroke="#282c33" fill="none"/><path d="M-949.5 403.95h-1v-.5h1z" stroke="#282c33" stroke-width=".05" fill="#282c33"/><path d="m-950 597.88-4.64-14.26h9.28z" stroke="#282c33" fill="#282c33"/><path d="M-1340 475c0-8.28 6.72-15 15-15h150c8.28 0 15 6.72 15 15v50c0 8.28-6.72 15-15 15h-150c-8.28 0-15-6.72-15-15z" fill="none"/><use xlink:href="#l" transform="translate(-1333.889 504.965)"/><use xlink:href="#m" transform="translate(-1251.296 504.965)"/><path d="M-1080 437.94c0-8.3 6.72-15 15-15h90c8.28 0 15 6.7 15 15V545c0 8.28-6.72 15-15 15h-90c-8.28 0-15-6.72-15-15z" fill="none"/><use xlink:href="#n" transform="translate(-1055.093 469.715)"/><use xlink:href="#o" transform="translate(-1074.198 496.381)"/><use xlink:href="#k" transform="translate(-1045.216 523.048)"/><path d="M-780 434.8c0-8.28 6.72-15 15-15h90c8.28 0 15 6.72 15 15v113.34c0 8.28-6.72 15-15 15h-90c-8.28 0-15-6.72-15-15z" fill="none"/><use xlink:href="#n" transform="translate(-755.093 442.913)"/><use xlink:href="#p" transform="translate(-749.63 469.58)"/><use xlink:href="#q" transform="translate(-780.988 496.246)"/><use xlink:href="#r" transform="translate(-769.352 522.913)"/><use xlink:href="#s" transform="translate(-689.167 522.913)"/><use xlink:href="#k" transform="translate(-745.216 549.58)"/><path d="M-650 403.94v179.18" stroke="#282c33" fill="none"/><path d="M-649.5 403.95h-1v-.5h1z" stroke="#282c33" stroke-width=".05" fill="#282c33"/><path d="m-650 597.88-4.64-14.26h9.28z" stroke="#282c33" fill="#282c33"/><defs><path fill="#333" d="m199 0-22-63H83L61 0H9l90-248h61L250 0h-51zm-33-102-36-108c-10 38-24 72-36 108h72" id="t"/><path fill="#333" d="M135-194c52 0 70 43 70 98 0 56-19 99-73 100-30 1-46-15-58-35L72 0H24l1-261h50v104c11-23 29-37 60-37zM114-30c31 0 40-27 40-66 0-37-7-63-39-63s-41 28-41 65c0 36 8 64 40 64" id="u"/><path fill="#333" d="M133-34C117-15 103 5 69 4 32 3 11-16 11-54c-1-60 55-63 116-61 1-26-3-47-28-47-18 1-26 9-28 27l-52-2c7-38 36-58 82-57s74 22 75 68l1 82c-1 14 12 18 25 15v27c-30 8-71 5-69-32zm-48 3c29 0 43-24 42-57-32 0-66-3-65 30 0 17 8 27 23 27" id="v"/><path fill="#333" d="M135-194c87-1 58 113 63 194h-50c-7-57 23-157-34-157-59 0-34 97-39 157H25l-1-190h47c2 12-1 28 3 38 12-26 28-41 61-42" id="w"/><path fill="#333" d="M88-194c31-1 46 15 58 34l-1-101h50l1 261h-48c-2-10 0-23-3-31C134-8 116 4 84 4 32 4 16-41 15-95c0-56 19-97 73-99zm17 164c33 0 40-30 41-66 1-37-9-64-41-64s-38 30-39 65c0 43 13 65 39 65" id="x"/><path fill="#333" d="M110-194c64 0 96 36 96 99 0 64-35 99-97 99-61 0-95-36-95-99 0-62 34-99 96-99zm-1 164c35 0 45-28 45-65 0-40-10-65-43-65-34 0-45 26-45 65 0 36 10 65 43 65" id="y"/><path fill="#333" d="M30-248c87 1 191-15 191 75 0 78-77 80-158 76V0H30v-248zm33 125c57 0 124 11 124-50 0-59-68-47-124-48v98" id="z"/><path fill="#333" d="M141-36C126-15 110 5 73 4 37 3 15-17 15-53c-1-64 63-63 125-63 3-35-9-54-41-54-24 1-41 7-42 31l-33-3c5-37 33-52 76-52 45 0 72 20 72 64v82c-1 20 7 32 28 27v20c-31 9-61-2-59-35zM48-53c0 20 12 33 32 33 41-3 63-29 60-74-43 2-92-5-92 41" id="A"/><path fill="#333" d="M114-163C36-179 61-72 57 0H25l-1-190h30c1 12-1 29 2 39 6-27 23-49 58-41v29" id="B"/><path fill="#333" d="M100-194c63 0 86 42 84 106H49c0 40 14 67 53 68 26 1 43-12 49-29l28 8c-11 28-37 45-77 45C44 4 14-33 15-96c1-61 26-98 85-98zm52 81c6-60-76-77-97-28-3 7-6 17-6 28h103" id="C"/><path fill="#333" d="M117-194c89-4 53 116 60 194h-32v-121c0-31-8-49-39-48C34-167 62-67 57 0H25l-1-190h30c1 10-1 24 2 32 11-22 29-35 61-36" id="D"/><path fill="#333" d="M59-47c-2 24 18 29 38 22v24C64 9 27 4 27-40v-127H5v-23h24l9-43h21v43h35v23H59v120" id="E"/><path fill="#333" d="M212-179c-10-28-35-45-73-45-59 0-87 40-87 99 0 60 29 101 89 101 43 0 62-24 78-52l27 14C228-24 195 4 139 4 59 4 22-46 18-125c-6-104 99-153 187-111 19 9 31 26 39 46" id="F"/><path fill="#333" d="M24 0v-261h32V0H24" id="G"/><path fill="#333" d="M100-194c62-1 85 37 85 99 1 63-27 99-86 99S16-35 15-95c0-66 28-99 85-99zM99-20c44 1 53-31 53-75 0-43-8-75-51-75s-53 32-53 75 10 74 51 75" id="H"/><path fill="#333" d="M135-143c-3-34-86-38-87 0 15 53 115 12 119 90S17 21 10-45l28-5c4 36 97 45 98 0-10-56-113-15-118-90-4-57 82-63 122-42 12 7 21 19 24 35" id="I"/><path fill="#333" d="M24-231v-30h32v30H24zM24 0v-190h32V0H24" id="J"/><path fill="#333" d="M96-169c-40 0-48 33-48 73s9 75 48 75c24 0 41-14 43-38l32 2c-6 37-31 61-74 61-59 0-76-41-82-99-10-93 101-131 147-64 4 7 5 14 7 22l-32 3c-4-21-16-35-41-35" id="K"/><path fill="#333" d="M179-190 93 31C79 59 56 82 12 73V49c39 6 53-20 64-50L1-190h34L92-34l54-156h33" id="L"/><path fill="#333" d="M136-208V0H84v-208H4v-40h212v40h-80" id="M"/><path fill="#333" d="M185-48c-13 30-37 53-82 52C43 2 14-33 14-96s30-98 90-98c62 0 83 45 84 108H66c0 31 8 55 39 56 18 0 30-7 34-22zm-45-69c5-46-57-63-70-21-2 6-4 13-4 21h74" id="N"/><path fill="#333" d="M135-150c-39-12-60 13-60 57V0H25l-1-190h47c2 13-1 29 3 40 6-28 27-53 61-41v41" id="O"/><path fill="#333" d="M220-157c-53 9-28 100-34 157h-49v-107c1-27-5-49-29-50C55-147 81-57 75 0H25l-1-190h47c2 12-1 28 3 38 10-53 101-56 108 0 13-22 24-43 59-42 82 1 51 116 57 194h-49v-107c-1-25-5-48-29-50" id="P"/><path fill="#333" d="M25-224v-37h50v37H25zM25 0v-190h50V0H25" id="Q"/><path fill="#333" d="M115-3C79 11 28 4 28-45v-112H4v-33h27l15-45h31v45h36v33H77v99c-1 23 16 31 38 25v30" id="R"/><path fill="#333" d="M240-174c0 40-23 61-54 70L253 0h-59l-57-94H76V0H24v-248c93 4 217-23 216 74zM76-134c48-2 112 12 112-38 0-48-66-32-112-35v73" id="S"/><path fill="#333" d="M84 4C32 4 15-41 15-95c0-55 18-99 73-99 29 0 47 12 58 34l2-30h48l-1 265h-49V-32C136-9 114 4 84 4zm21-34c32 0 41-29 41-66 0-36-9-64-40-64-33 0-39 30-40 65 0 43 13 65 39 65" id="T"/><path fill="#333" d="M85 4C-2 5 27-109 22-190h50c7 57-23 150 33 157 60-5 35-97 40-157h50l1 190h-47c-2-12 1-28-3-38-12 25-28 42-61 42" id="U"/><path fill="#333" d="M137-138c1-29-70-34-71-4 15 46 118 7 119 86 1 83-164 76-172 9l43-7c4 19 20 25 44 25 33 8 57-30 24-41C81-84 22-81 20-136c-2-80 154-74 161-7" id="V"/><path fill="#333" d="M67-125c0 53 21 87 73 88 37 1 54-22 65-47l45 17C233-25 199 4 140 4 58 4 20-42 15-125 8-235 124-281 211-232c18 10 29 29 36 50l-46 12c-8-25-30-41-62-41-52 0-71 34-72 86" id="W"/><path fill="#333" d="M190-63c-7 42-38 67-86 67-59 0-84-38-90-98-12-110 154-137 174-36l-49 2c-2-19-15-32-35-32-30 0-35 28-38 64-6 74 65 87 74 30" id="X"/><path fill="#333" d="M25 0v-261h50V0H25" id="Y"/><path fill="#282c33" d="M266 0h-40l-56-210L115 0H75L2-248h35L96-30l15-64 43-154h32l59 218 59-218h35" id="Z"/><path fill="#282c33" d="M100-194c62-1 85 37 85 99 1 63-27 99-86 99S16-35 15-95c0-66 28-99 85-99zM99-20c44 1 53-31 53-75 0-43-8-75-51-75s-53 32-53 75 10 74 51 75" id="aa"/><path fill="#282c33" d="M114-163C36-179 61-72 57 0H25l-1-190h30c1 12-1 29 2 39 6-27 23-49 58-41v29" id="ab"/><path fill="#282c33" d="M143 0 79-87 56-68V0H24v-261h32v163l83-92h37l-77 82L181 0h-38" id="ac"/><path fill="#282c33" d="M101-234c-31-9-42 10-38 44h38v23H63V0H32v-167H5v-23h27c-7-52 17-82 69-68v24" id="ad"/><path fill="#282c33" d="M24 0v-261h32V0H24" id="ae"/><path fill="#282c33" d="M206 0h-36l-40-164L89 0H53L-1-190h32L70-26l43-164h34l41 164 42-164h31" id="af"/><path fill="#282c33" d="M30 0v-248h187v28H63v79h144v27H63v87h162V0H30" id="ag"/><path fill="#282c33" d="M141 0 90-78 38 0H4l68-98-65-92h35l48 74 47-74h35l-64 92 68 98h-35" id="ah"/><path fill="#282c33" d="M100-194c63 0 86 42 84 106H49c0 40 14 67 53 68 26 1 43-12 49-29l28 8c-11 28-37 45-77 45C44 4 14-33 15-96c1-61 26-98 85-98zm52 81c6-60-76-77-97-28-3 7-6 17-6 28h103" id="ai"/><path fill="#282c33" d="M96-169c-40 0-48 33-48 73s9 75 48 75c24 0 41-14 43-38l32 2c-6 37-31 61-74 61-59 0-76-41-82-99-10-93 101-131 147-64 4 7 5 14 7 22l-32 3c-4-21-16-35-41-35" id="aj"/><path fill="#282c33" d="M84 4C-5 8 30-112 23-190h32v120c0 31 7 50 39 49 72-2 45-101 50-169h31l1 190h-30c-1-10 1-25-2-33-11 22-28 36-60 37" id="ak"/><path fill="#282c33" d="M59-47c-2 24 18 29 38 22v24C64 9 27 4 27-40v-127H5v-23h24l9-43h21v43h35v23H59v120" id="al"/><path fill="#282c33" d="M24-231v-30h32v30H24zM24 0v-190h32V0H24" id="am"/><path fill="#282c33" d="M117-194c89-4 53 116 60 194h-32v-121c0-31-8-49-39-48C34-167 62-67 57 0H25l-1-190h30c1 10-1 24 2 32 11-22 29-35 61-36" id="an"/><path fill="#333" d="M106-169C34-169 62-67 57 0H25v-261h32l-1 103c12-21 28-36 61-36 89 0 53 116 60 194h-32v-121c2-32-8-49-39-48" id="ao"/><path fill="#333" d="M85-194c31 0 48 13 60 33l-1-100h32l1 261h-30c-2-10 0-23-3-31C134-8 116 4 85 4 32 4 16-35 15-94c0-66 23-100 70-100zm9 24c-40 0-46 34-46 75 0 40 6 74 45 74 42 0 51-32 51-76 0-42-9-74-50-73" id="ap"/><path fill="#333" d="M190 0 58-211 59 0H30v-248h39L202-35l-2-213h31V0h-41" id="aq"/><path fill="#333" d="M177-190C167-65 218 103 67 71c-23-6-38-20-44-43l32-5c15 47 100 32 89-28v-30C133-14 115 1 83 1 29 1 15-40 15-95c0-56 16-97 71-98 29-1 48 16 59 35 1-10 0-23 2-32h30zM94-22c36 0 50-32 50-73 0-42-14-75-50-75-39 0-46 34-46 75s6 73 46 73" id="ar"/><path fill="#333" d="M115-194c55 1 70 41 70 98S169 2 115 4C84 4 66-9 55-30l1 105H24l-1-265h31l2 30c10-21 28-34 59-34zm-8 174c40 0 45-34 45-75s-6-73-45-74c-42 0-51 32-51 76 0 43 10 73 51 73" id="as"/><path fill="#333" d="M84 4C-5 8 30-112 23-190h32v120c0 31 7 50 39 49 72-2 45-101 50-169h31l1 190h-30c-1-10 1-25-2-33-11 22-28 36-60 37" id="at"/><path fill="#333" d="M127-220V0H93v-220H8v-28h204v28h-85" id="au"/><path fill="#333" d="M210-169c-67 3-38 105-44 169h-31v-121c0-29-5-50-35-48C34-165 62-65 56 0H25l-1-190h30c1 10-1 24 2 32 10-44 99-50 107 0 11-21 27-35 58-36 85-2 47 119 55 194h-31v-121c0-29-5-49-35-48" id="av"/><path fill="#333" d="M145-31C134-9 116 4 85 4 32 4 16-35 15-94c0-59 17-99 70-100 32-1 48 14 60 33 0-11-1-24 2-32h30l-1 268h-32zM93-21c41 0 51-33 51-76s-8-73-50-73c-40 0-46 35-46 75s5 74 45 74" id="aw"/><g id="a"><use transform="rotate(.413) scale(.06173)" xlink:href="#t"/><use transform="matrix(.06173 0 0 .06173 15.988 0)" xlink:href="#u"/><use transform="matrix(.06173 0 0 .06173 29.506 0)" xlink:href="#v"/><use transform="matrix(.06173 0 0 .06173 41.852 0)" xlink:href="#w"/><use transform="matrix(.06173 0 0 .06173 55.37 0)" xlink:href="#x"/><use transform="matrix(.06173 0 0 .06173 68.889 0)" xlink:href="#y"/><use transform="matrix(.06173 0 0 .06173 82.407 0)" xlink:href="#w"/></g><g id="b"><use transform="rotate(.413) scale(.06173)" xlink:href="#z"/><use transform="matrix(.06173 0 0 .06173 14.815 0)" xlink:href="#A"/><use transform="matrix(.06173 0 0 .06173 27.16 0)" xlink:href="#B"/><use transform="matrix(.06173 0 0 .06173 34.506 0)" xlink:href="#C"/><use transform="matrix(.06173 0 0 .06173 46.852 0)" xlink:href="#D"/><use transform="matrix(.06173 0 0 .06173 59.198 0)" xlink:href="#E"/></g><g id="c"><use transform="rotate(.413) scale(.06173)" xlink:href="#F"/><use transform="matrix(.06173 0 0 .06173 15.988 0)" xlink:href="#G"/><use transform="matrix(.06173 0 0 .06173 20.864 0)" xlink:href="#H"/><use transform="matrix(.06173 0 0 .06173 33.21 0)" xlink:href="#I"/><use transform="matrix(.06173 0 0 .06173 44.321 0)" xlink:href="#C"/></g><g id="d"><use transform="rotate(.413) scale(.06173)" xlink:href="#z"/><use transform="matrix(.06173 0 0 .06173 14.815 0)" xlink:href="#H"/><use transform="matrix(.06173 0 0 .06173 27.16 0)" xlink:href="#G"/><use transform="matrix(.06173 0 0 .06173 32.037 0)" xlink:href="#J"/><use transform="matrix(.06173 0 0 .06173 36.914 0)" xlink:href="#K"/><use transform="matrix(.06173 0 0 .06173 48.025 0)" xlink:href="#L"/></g><g id="e"><use transform="rotate(.413) scale(.06173)" xlink:href="#M"/><use transform="matrix(.06173 0 0 .06173 11.852 0)" xlink:href="#N"/><use transform="matrix(.06173 0 0 .06173 24.198 0)" xlink:href="#O"/><use transform="matrix(.06173 0 0 .06173 32.84 0)" xlink:href="#P"/><use transform="matrix(.06173 0 0 .06173 52.593 0)" xlink:href="#Q"/><use transform="matrix(.06173 0 0 .06173 58.765 0)" xlink:href="#w"/><use transform="matrix(.06173 0 0 .06173 72.284 0)" xlink:href="#v"/><use transform="matrix(.06173 0 0 .06173 84.63 0)" xlink:href="#R"/><use transform="matrix(.06173 0 0 .06173 91.975 0)" xlink:href="#N"/></g><g id="f"><use transform="rotate(.413) scale(.06173)" xlink:href="#S"/><use transform="matrix(.06173 0 0 .06173 15.988 0)" xlink:href="#N"/><use transform="matrix(.06173 0 0 .06173 28.333 0)" xlink:href="#T"/><use transform="matrix(.06173 0 0 .06173 41.852 0)" xlink:href="#U"/><use transform="matrix(.06173 0 0 .06173 55.37 0)" xlink:href="#N"/><use transform="matrix(.06173 0 0 .06173 67.716 0)" xlink:href="#V"/><use transform="matrix(.06173 0 0 .06173 80.062 0)" xlink:href="#R"/></g><g id="g"><use transform="rotate(.413) scale(.06173)" xlink:href="#W"/><use transform="matrix(.06173 0 0 .06173 15.988 0)" xlink:href="#v"/><use transform="matrix(.06173 0 0 .06173 28.333 0)" xlink:href="#w"/><use transform="matrix(.06173 0 0 .06173 41.852 0)" xlink:href="#X"/><use transform="matrix(.06173 0 0 .06173 54.198 0)" xlink:href="#N"/><use transform="matrix(.06173 0 0 .06173 66.543 0)" xlink:href="#Y"/></g><g id="h"><use transform="rotate(.413) scale(.06173)" xlink:href="#Z"/><use transform="matrix(.06173 0 0 .06173 20.494 0)" xlink:href="#aa"/><use transform="matrix(.06173 0 0 .06173 32.84 0)" xlink:href="#ab"/><use transform="matrix(.06173 0 0 .06173 40.185 0)" xlink:href="#ac"/><use transform="matrix(.06173 0 0 .06173 51.296 0)" xlink:href="#ad"/><use transform="matrix(.06173 0 0 .06173 57.47 0)" xlink:href="#ae"/><use transform="matrix(.06173 0 0 .06173 62.346 0)" xlink:href="#aa"/><use transform="matrix(.06173 0 0 .06173 74.691 0)" xlink:href="#af"/></g><g id="i"><use transform="rotate(.413) scale(.06173)" xlink:href="#ag"/><use transform="matrix(.06173 0 0 .06173 14.815 0)" xlink:href="#ah"/><use transform="matrix(.06173 0 0 .06173 25.926 0)" xlink:href="#ai"/><use transform="matrix(.06173 0 0 .06173 38.272 0)" xlink:href="#aj"/><use transform="matrix(.06173 0 0 .06173 49.383 0)" xlink:href="#ak"/><use transform="matrix(.06173 0 0 .06173 61.728 0)" xlink:href="#al"/><use transform="matrix(.06173 0 0 .06173 67.901 0)" xlink:href="#am"/><use transform="matrix(.06173 0 0 .06173 72.778 0)" xlink:href="#aa"/><use transform="matrix(.06173 0 0 .06173 85.123 0)" xlink:href="#an"/></g><g id="j"><use transform="rotate(.413) scale(.06173)" xlink:href="#z"/><use transform="matrix(.06173 0 0 .06173 14.815 0)" xlink:href="#A"/><use transform="matrix(.06173 0 0 .06173 27.16 0)" xlink:href="#B"/><use transform="matrix(.06173 0 0 .06173 34.506 0)" xlink:href="#C"/><use transform="matrix(.06173 0 0 .06173 46.852 0)" xlink:href="#D"/><use transform="matrix(.06173 0 0 .06173 59.198 0)" xlink:href="#E"/></g><g id="k"><use transform="rotate(.413) scale(.06173)" xlink:href="#F"/><use transform="matrix(.06173 0 0 .06173 15.988 0)" xlink:href="#ao"/><use transform="matrix(.06173 0 0 .06173 28.333 0)" xlink:href="#J"/><use transform="matrix(.06173 0 0 .06173 33.21 0)" xlink:href="#G"/><use transform="matrix(.06173 0 0 .06173 38.086 0)" xlink:href="#ap"/></g><g id="l"><use transform="rotate(.413) scale(.06173)" xlink:href="#aq"/><use transform="matrix(.06173 0 0 .06173 15.988 0)" xlink:href="#H"/><use transform="matrix(.06173 0 0 .06173 28.333 0)" xlink:href="#E"/><use transform="matrix(.06173 0 0 .06173 34.506 0)" xlink:href="#ao"/><use transform="matrix(.06173 0 0 .06173 46.852 0)" xlink:href="#J"/><use transform="matrix(.06173 0 0 .06173 51.728 0)" xlink:href="#D"/><use transform="matrix(.06173 0 0 .06173 64.074 0)" xlink:href="#ar"/></g><g id="m"><use transform="rotate(.413) scale(.06173)" xlink:href="#ao"/><use transform="matrix(.06173 0 0 .06173 12.346 0)" xlink:href="#A"/><use transform="matrix(.06173 0 0 .06173 24.691 0)" xlink:href="#as"/><use transform="matrix(.06173 0 0 .06173 37.037 0)" xlink:href="#as"/><use transform="matrix(.06173 0 0 .06173 49.383 0)" xlink:href="#C"/><use transform="matrix(.06173 0 0 .06173 61.728 0)" xlink:href="#D"/><use transform="matrix(.06173 0 0 .06173 74.074 0)" xlink:href="#I"/></g><g id="n"><use transform="rotate(.413) scale(.06173)" xlink:href="#F"/><use transform="matrix(.06173 0 0 .06173 15.988 0)" xlink:href="#G"/><use transform="matrix(.06173 0 0 .06173 20.864 0)" xlink:href="#at"/><use transform="matrix(.06173 0 0 .06173 33.21 0)" xlink:href="#I"/><use transform="matrix(.06173 0 0 .06173 44.321 0)" xlink:href="#E"/><use transform="matrix(.06173 0 0 .06173 50.494 0)" xlink:href="#C"/><use transform="matrix(.06173 0 0 .06173 62.84 0)" xlink:href="#B"/></g><g id="o"><use transform="rotate(.413) scale(.06173)" xlink:href="#au"/><use transform="matrix(.06173 0 0 .06173 11.05 0)" xlink:href="#C"/><use transform="matrix(.06173 0 0 .06173 23.395 0)" xlink:href="#B"/><use transform="matrix(.06173 0 0 .06173 30.74 0)" xlink:href="#av"/><use transform="matrix(.06173 0 0 .06173 49.198 0)" xlink:href="#J"/><use transform="matrix(.06173 0 0 .06173 54.074 0)" xlink:href="#D"/><use transform="matrix(.06173 0 0 .06173 66.42 0)" xlink:href="#A"/><use transform="matrix(.06173 0 0 .06173 78.765 0)" xlink:href="#E"/><use transform="matrix(.06173 0 0 .06173 84.938 0)" xlink:href="#C"/><use transform="matrix(.06173 0 0 .06173 97.284 0)" xlink:href="#I"/></g><g id="p"><use transform="rotate(.413) scale(.06173)" xlink:href="#I"/><use transform="matrix(.06173 0 0 .06173 11.111 0)" xlink:href="#C"/><use transform="matrix(.06173 0 0 .06173 23.457 0)" xlink:href="#D"/><use transform="matrix(.06173 0 0 .06173 35.802 0)" xlink:href="#ap"/><use transform="matrix(.06173 0 0 .06173 48.148 0)" xlink:href="#I"/></g><g id="q"><use transform="rotate(.413) scale(.06173)" xlink:href="#F"/><use transform="matrix(.06173 0 0 .06173 15.988 0)" xlink:href="#A"/><use transform="matrix(.06173 0 0 .06173 28.333 0)" xlink:href="#D"/><use transform="matrix(.06173 0 0 .06173 40.679 0)" xlink:href="#K"/><use transform="matrix(.06173 0 0 .06173 51.79 0)" xlink:href="#C"/><use transform="matrix(.06173 0 0 .06173 64.136 0)" xlink:href="#G"/><use transform="matrix(.06173 0 0 .06173 69.012 0)" xlink:href="#G"/><use transform="matrix(.06173 0 0 .06173 73.889 0)" xlink:href="#A"/><use transform="matrix(.06173 0 0 .06173 86.235 0)" xlink:href="#E"/><use transform="matrix(.06173 0 0 .06173 92.407 0)" xlink:href="#J"/><use transform="matrix(.06173 0 0 .06173 97.284 0)" xlink:href="#H"/><use transform="matrix(.06173 0 0 .06173 109.63 0)" xlink:href="#D"/></g><g id="r"><use transform="rotate(.413) scale(.06173)" xlink:href="#B"/><use transform="matrix(.06173 0 0 .06173 7.346 0)" xlink:href="#C"/><use transform="matrix(.06173 0 0 .06173 19.691 0)" xlink:href="#aw"/><use transform="matrix(.06173 0 0 .06173 32.037 0)" xlink:href="#at"/><use transform="matrix(.06173 0 0 .06173 44.383 0)" xlink:href="#C"/><use transform="matrix(.06173 0 0 .06173 56.728 0)" xlink:href="#I"/><use transform="matrix(.06173 0 0 .06173 67.84 0)" xlink:href="#E"/></g><g id="s"><use transform="rotate(.413) scale(.06173)" xlink:href="#E"/><use transform="matrix(.06173 0 0 .06173 6.173 0)" xlink:href="#H"/></g></defs></g></svg>