<svg xmlns="http://www.w3.org/2000/svg" xmlns:xlink="http://www.w3.org/1999/xlink" xmlns:lucid="lucid" width="1160" height="380"><g transform="translate(-220 -300)" lucid:page-tab-id="0_0"><path d="M1160 406c0-3.3 2.7-6 6-6h188c3.3 0 6 2.7 6 6v188c0 3.3-2.7 6-6 6h-188c-3.3 0-6-2.7-6-6zm-920 0c0-3.3 2.7-6 6-6h188c3.3 0 6 2.7 6 6v188c0 3.3-2.7 6-6 6H246c-3.3 0-6-2.7-6-6z" stroke="#333" fill="#fff"/><use xlink:href="#a" transform="translate(294.444 494.028)"/><use xlink:href="#b" transform="translate(311.698 520.694)"/><path d="M700 406c0-3.3 2.7-6 6-6h188c3.3 0 6 2.7 6 6v188c0 3.3-2.7 6-6 6H706c-3.3 0-6-2.7-6-6z" stroke="#333" fill="#127ae5"/><use xlink:href="#c" transform="translate(754.444 494.028)"/><use xlink:href="#d" transform="translate(764.907 520.694)"/><path d="M1180 426c0-3.3 2.7-6 6-6h148c3.3 0 6 2.7 6 6v148c0 3.3-2.7 6-6 6h-148c-3.3 0-6-2.7-6-6z" stroke="#333" fill="#141414"/><use xlink:href="#e" transform="translate(1214.66 475.59)"/><use xlink:href="#f" transform="translate(1237.191 502.257)"/><use xlink:href="#g" transform="translate(1211.265 528.924)"/><path d="M600 500c0 16.57-13.43 30-30 30s-30-13.43-30-30 13.43-30 30-30 30 13.43 30 30z" stroke="#333" fill="#fff"/><path d="M441 500h98" stroke="#333" fill="none"/><path d="M441 500.5h-.5v-1h.5m98.5.5.02.5H539v-1h.54" fill="#333"/><path d="M601 500h82.12" stroke="#333" fill="none"/><path d="M601 500.5h-.54l.04-.5-.02-.5h.53" fill="#333"/><path d="m697.88 500-14.26 4.64v-9.28z" stroke="#333" fill="#333"/><path d="M901 500h98" stroke="#333" fill="none"/><path d="M901 500.5h-.5v-1h.5m98.5.5.02.5H999v-1h.54" fill="#333"/><path d="M1060 500c0 16.57-13.43 30-30 30s-30-13.43-30-30 13.43-30 30-30 30 13.43 30 30z" stroke="#333" fill="#fff"/><path d="M1061 500h102.12" stroke="#333" fill="none"/><path d="M1061 500.5h-.54l.04-.5-.02-.5h.53" fill="#333"/><path d="m1177.88 500-14.26 4.64v-9.28z" stroke="#333" fill="#333"/><path d="M480 606c0-3.3 2.7-6 6-6h168c3.3 0 6 2.7 6 6v48c0 3.3-2.7 6-6 6H486c-3.3 0-6-2.7-6-6z" fill="none"/><use xlink:href="#h" transform="translate(539.198 635.278)"/><path d="M940 606c0-3.3 2.7-6 6-6h168c3.3 0 6 2.7 6 6v48c0 3.3-2.7 6-6 6H946c-3.3 0-6-2.7-6-6z" fill="none"/><use xlink:href="#i" transform="translate(958.765 635.278)"/><use xlink:href="#j" transform="translate(1055.617 635.278)"/><path d="M1030 599.5V531" stroke="#333" fill="none"/><path d="M1030.5 600h-1v-.5h1m-.5-69 .5-.02v.53h-1v-.54" fill="#333"/><path d="M570 599.5V531" stroke="#333" fill="none"/><path d="M570.5 600h-1v-.5h1m-.5-69 .5-.02v.53h-1v-.54" fill="#333"/><path d="M1160 326c0-3.3 2.7-6 6-6h188c3.3 0 6 2.7 6 6v48c0 3.3-2.7 6-6 6h-188c-3.3 0-6-2.7-6-6z" fill="none"/><use xlink:href="#k" transform="translate(1181.327 355.278)"/><use xlink:href="#l" transform="translate(1258.488 355.278)"/><path d="M1260 380.5V399" stroke="#333" fill="none"/><path d="M1260.5 380.5h-1v-.5h1m0 19.5h-1v-.5h1" fill="#333"/><defs><path fill="#333" d="M127-220V0H93v-220H8v-28h204v28h-85" id="m"/><path fill="#333" d="M100-194c63 0 86 42 84 106H49c0 40 14 67 53 68 26 1 43-12 49-29l28 8c-11 28-37 45-77 45C44 4 14-33 15-96c1-61 26-98 85-98zm52 81c6-60-76-77-97-28-3 7-6 17-6 28h103" id="n"/><path fill="#333" d="M210-169c-67 3-38 105-44 169h-31v-121c0-29-5-50-35-48C34-165 62-65 56 0H25l-1-190h30c1 10-1 24 2 32 10-44 99-50 107 0 11-21 27-35 58-36 85-2 47 119 55 194h-31v-121c0-29-5-49-35-48" id="o"/><path fill="#333" d="M115-194c55 1 70 41 70 98S169 2 115 4C84 4 66-9 55-30l1 105H24l-1-265h31l2 30c10-21 28-34 59-34zm-8 174c40 0 45-34 45-75s-6-73-45-74c-42 0-51 32-51 76 0 43 10 73 51 73" id="p"/><path fill="#333" d="M100-194c62-1 85 37 85 99 1 63-27 99-86 99S16-35 15-95c0-66 28-99 85-99zM99-20c44 1 53-31 53-75 0-43-8-75-51-75s-53 32-53 75 10 74 51 75" id="q"/><path fill="#333" d="M114-163C36-179 61-72 57 0H25l-1-190h30c1 12-1 29 2 39 6-27 23-49 58-41v29" id="r"/><path fill="#333" d="M141-36C126-15 110 5 73 4 37 3 15-17 15-53c-1-64 63-63 125-63 3-35-9-54-41-54-24 1-41 7-42 31l-33-3c5-37 33-52 76-52 45 0 72 20 72 64v82c-1 20 7 32 28 27v20c-31 9-61-2-59-35zM48-53c0 20 12 33 32 33 41-3 63-29 60-74-43 2-92-5-92 41" id="s"/><path fill="#333" d="M24 0v-261h32V0H24" id="t"/><path fill="#333" d="M212-179c-10-28-35-45-73-45-59 0-87 40-87 99 0 60 29 101 89 101 43 0 62-24 78-52l27 14C228-24 195 4 139 4 59 4 22-46 18-125c-6-104 99-153 187-111 19 9 31 26 39 46" id="u"/><path fill="#333" d="M24-231v-30h32v30H24zM24 0v-190h32V0H24" id="v"/><path fill="#333" d="M117-194c89-4 53 116 60 194h-32v-121c0-31-8-49-39-48C34-167 62-67 57 0H25l-1-190h30c1 10-1 24 2 32 11-22 29-35 61-36" id="w"/><path fill="#333" d="M59-47c-2 24 18 29 38 22v24C64 9 27 4 27-40v-127H5v-23h24l9-43h21v43h35v23H59v120" id="x"/><path fill="#fff" d="M127-220V0H93v-220H8v-28h204v28h-85" id="y"/><path fill="#fff" d="M100-194c63 0 86 42 84 106H49c0 40 14 67 53 68 26 1 43-12 49-29l28 8c-11 28-37 45-77 45C44 4 14-33 15-96c1-61 26-98 85-98zm52 81c6-60-76-77-97-28-3 7-6 17-6 28h103" id="z"/><path fill="#fff" d="M210-169c-67 3-38 105-44 169h-31v-121c0-29-5-50-35-48C34-165 62-65 56 0H25l-1-190h30c1 10-1 24 2 32 10-44 99-50 107 0 11-21 27-35 58-36 85-2 47 119 55 194h-31v-121c0-29-5-49-35-48" id="A"/><path fill="#fff" d="M115-194c55 1 70 41 70 98S169 2 115 4C84 4 66-9 55-30l1 105H24l-1-265h31l2 30c10-21 28-34 59-34zm-8 174c40 0 45-34 45-75s-6-73-45-74c-42 0-51 32-51 76 0 43 10 73 51 73" id="B"/><path fill="#fff" d="M100-194c62-1 85 37 85 99 1 63-27 99-86 99S16-35 15-95c0-66 28-99 85-99zM99-20c44 1 53-31 53-75 0-43-8-75-51-75s-53 32-53 75 10 74 51 75" id="C"/><path fill="#fff" d="M114-163C36-179 61-72 57 0H25l-1-190h30c1 12-1 29 2 39 6-27 23-49 58-41v29" id="D"/><path fill="#fff" d="M141-36C126-15 110 5 73 4 37 3 15-17 15-53c-1-64 63-63 125-63 3-35-9-54-41-54-24 1-41 7-42 31l-33-3c5-37 33-52 76-52 45 0 72 20 72 64v82c-1 20 7 32 28 27v20c-31 9-61-2-59-35zM48-53c0 20 12 33 32 33 41-3 63-29 60-74-43 2-92-5-92 41" id="E"/><path fill="#fff" d="M24 0v-261h32V0H24" id="F"/><path fill="#fff" d="M212-179c-10-28-35-45-73-45-59 0-87 40-87 99 0 60 29 101 89 101 43 0 62-24 78-52l27 14C228-24 195 4 139 4 59 4 22-46 18-125c-6-104 99-153 187-111 19 9 31 26 39 46" id="G"/><path fill="#fff" d="M84 4C-5 8 30-112 23-190h32v120c0 31 7 50 39 49 72-2 45-101 50-169h31l1 190h-30c-1-10 1-25-2-33-11 22-28 36-60 37" id="H"/><path fill="#fff" d="M135-143c-3-34-86-38-87 0 15 53 115 12 119 90S17 21 10-45l28-5c4 36 97 45 98 0-10-56-113-15-118-90-4-57 82-63 122-42 12 7 21 19 24 35" id="I"/><path fill="#fff" d="M59-47c-2 24 18 29 38 22v24C64 9 27 4 27-40v-127H5v-23h24l9-43h21v43h35v23H59v120" id="J"/><path fill="#fff" d="M266 0h-40l-56-210L115 0H75L2-248h35L96-30l15-64 43-154h32l59 218 59-218h35" id="K"/><path fill="#fff" d="M143 0 79-87 56-68V0H24v-261h32v163l83-92h37l-77 82L181 0h-38" id="L"/><path fill="#fff" d="M101-234c-31-9-42 10-38 44h38v23H63V0H32v-167H5v-23h27c-7-52 17-82 69-68v24" id="M"/><path fill="#fff" d="M206 0h-36l-40-164L89 0H53L-1-190h32L70-26l43-164h34l41 164 42-164h31" id="N"/><path fill="#fff" d="M30 0v-248h187v28H63v79h144v27H63v87h162V0H30" id="O"/><path fill="#fff" d="M141 0 90-78 38 0H4l68-98-65-92h35l48 74 47-74h35l-64 92 68 98h-35" id="P"/><path fill="#fff" d="M96-169c-40 0-48 33-48 73s9 75 48 75c24 0 41-14 43-38l32 2c-6 37-31 61-74 61-59 0-76-41-82-99-10-93 101-131 147-64 4 7 5 14 7 22l-32 3c-4-21-16-35-41-35" id="Q"/><path fill="#fff" d="M24-231v-30h32v30H24zM24 0v-190h32V0H24" id="R"/><path fill="#fff" d="M117-194c89-4 53 116 60 194h-32v-121c0-31-8-49-39-48C34-167 62-67 57 0H25l-1-190h30c1 10-1 24 2 32 11-22 29-35 61-36" id="S"/><path fill="#333" d="M185-189c-5-48-123-54-124 2 14 75 158 14 163 119 3 78-121 87-175 55-17-10-28-26-33-46l33-7c5 56 141 63 141-1 0-78-155-14-162-118-5-82 145-84 179-34 5 7 8 16 11 25" id="T"/><path fill="#333" d="M177-190C167-65 218 103 67 71c-23-6-38-20-44-43l32-5c15 47 100 32 89-28v-30C133-14 115 1 83 1 29 1 15-40 15-95c0-56 16-97 71-98 29-1 48 16 59 35 1-10 0-23 2-32h30zM94-22c36 0 50-32 50-73 0-42-14-75-50-75-39 0-46 34-46 75s6 73 46 73" id="U"/><path fill="#333" d="M266 0h-40l-56-210L115 0H75L2-248h35L96-30l15-64 43-154h32l59 218 59-218h35" id="V"/><path fill="#333" d="M143 0 79-87 56-68V0H24v-261h32v163l83-92h37l-77 82L181 0h-38" id="W"/><path fill="#333" d="M101-234c-31-9-42 10-38 44h38v23H63V0H32v-167H5v-23h27c-7-52 17-82 69-68v24" id="X"/><path fill="#333" d="M206 0h-36l-40-164L89 0H53L-1-190h32L70-26l43-164h34l41 164 42-164h31" id="Y"/><path fill="#333" d="M135-143c-3-34-86-38-87 0 15 53 115 12 119 90S17 21 10-45l28-5c4 36 97 45 98 0-10-56-113-15-118-90-4-57 82-63 122-42 12 7 21 19 24 35" id="Z"/><path fill="#333" d="M30-248c87 1 191-15 191 75 0 78-77 80-158 76V0H30v-248zm33 125c57 0 124 11 124-50 0-59-68-47-124-48v98" id="aa"/><path fill="#333" d="M96-169c-40 0-48 33-48 73s9 75 48 75c24 0 41-14 43-38l32 2c-6 37-31 61-74 61-59 0-76-41-82-99-10-93 101-131 147-64 4 7 5 14 7 22l-32 3c-4-21-16-35-41-35" id="ab"/><g id="a"><use transform="rotate(.413) scale(.06173)" xlink:href="#m"/><use transform="matrix(.06173 0 0 .06173 11.05 0)" xlink:href="#n"/><use transform="matrix(.06173 0 0 .06173 23.395 0)" xlink:href="#o"/><use transform="matrix(.06173 0 0 .06173 41.852 0)" xlink:href="#p"/><use transform="matrix(.06173 0 0 .06173 54.198 0)" xlink:href="#q"/><use transform="matrix(.06173 0 0 .06173 66.543 0)" xlink:href="#r"/><use transform="matrix(.06173 0 0 .06173 73.889 0)" xlink:href="#s"/><use transform="matrix(.06173 0 0 .06173 86.235 0)" xlink:href="#t"/></g><g id="b"><use transform="rotate(.413) scale(.06173)" xlink:href="#u"/><use transform="matrix(.06173 0 0 .06173 15.988 0)" xlink:href="#t"/><use transform="matrix(.06173 0 0 .06173 20.864 0)" xlink:href="#v"/><use transform="matrix(.06173 0 0 .06173 25.74 0)" xlink:href="#n"/><use transform="matrix(.06173 0 0 .06173 38.086 0)" xlink:href="#w"/><use transform="matrix(.06173 0 0 .06173 50.432 0)" xlink:href="#x"/></g><g id="c"><use transform="rotate(.413) scale(.06173)" xlink:href="#y"/><use transform="matrix(.06173 0 0 .06173 11.05 0)" xlink:href="#z"/><use transform="matrix(.06173 0 0 .06173 23.395 0)" xlink:href="#A"/><use transform="matrix(.06173 0 0 .06173 41.852 0)" xlink:href="#B"/><use transform="matrix(.06173 0 0 .06173 54.198 0)" xlink:href="#C"/><use transform="matrix(.06173 0 0 .06173 66.543 0)" xlink:href="#D"/><use transform="matrix(.06173 0 0 .06173 73.889 0)" xlink:href="#E"/><use transform="matrix(.06173 0 0 .06173 86.235 0)" xlink:href="#F"/></g><g id="d"><use transform="rotate(.413) scale(.06173)" xlink:href="#G"/><use transform="matrix(.06173 0 0 .06173 15.988 0)" xlink:href="#F"/><use transform="matrix(.06173 0 0 .06173 20.864 0)" xlink:href="#H"/><use transform="matrix(.06173 0 0 .06173 33.21 0)" xlink:href="#I"/><use transform="matrix(.06173 0 0 .06173 44.321 0)" xlink:href="#J"/><use transform="matrix(.06173 0 0 .06173 50.494 0)" xlink:href="#z"/><use transform="matrix(.06173 0 0 .06173 62.84 0)" xlink:href="#D"/></g><g id="e"><use transform="rotate(.413) scale(.06173)" xlink:href="#K"/><use transform="matrix(.06173 0 0 .06173 20.494 0)" xlink:href="#C"/><use transform="matrix(.06173 0 0 .06173 32.84 0)" xlink:href="#D"/><use transform="matrix(.06173 0 0 .06173 40.185 0)" xlink:href="#L"/><use transform="matrix(.06173 0 0 .06173 51.296 0)" xlink:href="#M"/><use transform="matrix(.06173 0 0 .06173 57.47 0)" xlink:href="#F"/><use transform="matrix(.06173 0 0 .06173 62.346 0)" xlink:href="#C"/><use transform="matrix(.06173 0 0 .06173 74.691 0)" xlink:href="#N"/></g><g id="f"><use transform="rotate(.413) scale(.06173)" xlink:href="#y"/><use transform="matrix(.06173 0 0 .06173 11.05 0)" xlink:href="#E"/><use transform="matrix(.06173 0 0 .06173 23.395 0)" xlink:href="#I"/><use transform="matrix(.06173 0 0 .06173 34.506 0)" xlink:href="#L"/></g><g id="g"><use transform="rotate(.413) scale(.06173)" xlink:href="#O"/><use transform="matrix(.06173 0 0 .06173 14.815 0)" xlink:href="#P"/><use transform="matrix(.06173 0 0 .06173 25.926 0)" xlink:href="#z"/><use transform="matrix(.06173 0 0 .06173 38.272 0)" xlink:href="#Q"/><use transform="matrix(.06173 0 0 .06173 49.383 0)" xlink:href="#H"/><use transform="matrix(.06173 0 0 .06173 61.728 0)" xlink:href="#J"/><use transform="matrix(.06173 0 0 .06173 67.901 0)" xlink:href="#R"/><use transform="matrix(.06173 0 0 .06173 72.778 0)" xlink:href="#C"/><use transform="matrix(.06173 0 0 .06173 85.123 0)" xlink:href="#S"/></g><g id="h"><use transform="rotate(.413) scale(.06173)" xlink:href="#T"/><use transform="matrix(.06173 0 0 .06173 14.815 0)" xlink:href="#v"/><use transform="matrix(.06173 0 0 .06173 19.691 0)" xlink:href="#U"/><use transform="matrix(.06173 0 0 .06173 32.037 0)" xlink:href="#w"/><use transform="matrix(.06173 0 0 .06173 44.383 0)" xlink:href="#s"/><use transform="matrix(.06173 0 0 .06173 56.728 0)" xlink:href="#t"/></g><g id="i"><use transform="rotate(.413) scale(.06173)" xlink:href="#V"/><use transform="matrix(.06173 0 0 .06173 20.494 0)" xlink:href="#q"/><use transform="matrix(.06173 0 0 .06173 32.84 0)" xlink:href="#r"/><use transform="matrix(.06173 0 0 .06173 40.185 0)" xlink:href="#W"/><use transform="matrix(.06173 0 0 .06173 51.296 0)" xlink:href="#X"/><use transform="matrix(.06173 0 0 .06173 57.47 0)" xlink:href="#t"/><use transform="matrix(.06173 0 0 .06173 62.346 0)" xlink:href="#q"/><use transform="matrix(.06173 0 0 .06173 74.691 0)" xlink:href="#Y"/></g><g id="j"><use transform="rotate(.413) scale(.06173)" xlink:href="#m"/><use transform="matrix(.06173 0 0 .06173 11.05 0)" xlink:href="#s"/><use transform="matrix(.06173 0 0 .06173 23.395 0)" xlink:href="#Z"/><use transform="matrix(.06173 0 0 .06173 34.506 0)" xlink:href="#W"/></g><g id="k"><use transform="rotate(.413) scale(.06173)" xlink:href="#V"/><use transform="matrix(.06173 0 0 .06173 20.494 0)" xlink:href="#q"/><use transform="matrix(.06173 0 0 .06173 32.84 0)" xlink:href="#r"/><use transform="matrix(.06173 0 0 .06173 40.185 0)" xlink:href="#W"/><use transform="matrix(.06173 0 0 .06173 51.296 0)" xlink:href="#n"/><use transform="matrix(.06173 0 0 .06173 63.642 0)" xlink:href="#r"/></g><g id="l"><use transform="rotate(.413) scale(.06173)" xlink:href="#aa"/><use transform="matrix(.06173 0 0 .06173 14.815 0)" xlink:href="#r"/><use transform="matrix(.06173 0 0 .06173 22.16 0)" xlink:href="#q"/><use transform="matrix(.06173 0 0 .06173 34.506 0)" xlink:href="#ab"/><use transform="matrix(.06173 0 0 .06173 45.617 0)" xlink:href="#n"/><use transform="matrix(.06173 0 0 .06173 57.963 0)" xlink:href="#Z"/><use transform="matrix(.06173 0 0 .06173 69.074 0)" xlink:href="#Z"/></g></defs></g></svg>