<svg xmlns="http://www.w3.org/2000/svg" width="1200" height="730" viewBox="0 0 1200 730"><defs><marker id="arrow-dark" markerHeight="6" markerWidth="8" orient="auto" refX="8" refY="3"><path fill="#9ca3af" d="M0,0 L8,3 L0,6"/></marker><style>text{font-family:Inter,&apos;Helvetica Neue&apos;,Arial,sans-serif}</style></defs><rect width="280" height="50" x="430" y="20" fill="#3b82f6" rx="12" ry="12"/><text x="570" y="51" fill="#fff" font-family="'SF Mono', 'Fira Code', 'Courier New', monospace" font-size="17" font-weight="600" text-anchor="middle">UI, CLI, SDK</text><line x1="570" x2="570" y1="70" y2="100" stroke="#9ca3af" stroke-width="2" marker-end="url(#arrow-dark)"/><text x="570" y="118" fill="#9ca3af" font-size="14" font-style="italic" text-anchor="middle">top-level primitives</text><line x1="570" x2="305" y1="125" y2="155" stroke="#9ca3af" stroke-width="2" marker-end="url(#arrow-dark)"/><line x1="570" x2="835" y1="125" y2="155" stroke="#9ca3af" stroke-width="2" marker-end="url(#arrow-dark)"/><rect width="300" height="55" x="150" y="160" fill="#22c55e" rx="12" ry="12"/><text x="300" y="180" fill="#fff" font-size="15" font-weight="700" text-anchor="middle"><tspan x="300" dy="0">Standalone Nexus Operation</tspan> <tspan x="300" dy="1.3em">Execution</tspan></text><rect width="265" height="50" x="15" y="240" fill="#374151" stroke="#4b5563" stroke-width="1" rx="0" ry="0"/><text x="147" y="258" fill="#e5e7eb" font-size="13" text-anchor="middle"><tspan x="147" dy="0">Execute a single Nexus Operation</tspan> <tspan x="147" dy="1.3em">across Namespaces reliably</tspan></text><line x1="300" x2="300" y1="215" y2="495" stroke="#9ca3af" stroke-width="2" marker-end="url(#arrow-dark)"/><rect width="300" height="55" x="685" y="160" fill="#3b82f6" rx="12" ry="12"/><text x="835" y="180" fill="#fff" font-size="15" font-weight="700" text-anchor="middle"><tspan x="835" dy="0">Workflow</tspan> <tspan x="835" dy="1.3em">Execution</tspan></text><line x1="835" x2="835" y1="215" y2="260" stroke="#9ca3af" stroke-width="2" marker-end="url(#arrow-dark)"/><rect width="220" height="45" x="725" y="265" fill="#3b82f6" rx="8" ry="8"/><text x="835" y="293" fill="#fff" font-size="13" font-weight="600" text-anchor="middle">Nexus Operation (Step 1)</text><line x1="835" x2="835" y1="310" y2="330" stroke="#9ca3af" stroke-width="2" marker-end="url(#arrow-dark)"/><rect width="220" height="45" x="725" y="335" fill="#3b82f6" rx="8" ry="8"/><text x="835" y="363" fill="#fff" font-size="13" font-weight="600" text-anchor="middle">Nexus Operation (Step 2)</text><line x1="835" x2="835" y1="380" y2="400" stroke="#9ca3af" stroke-width="2" marker-end="url(#arrow-dark)"/><rect width="220" height="45" x="725" y="405" fill="#3b82f6" rx="8" ry="8"/><text x="835" y="433" fill="#fff" font-size="13" font-weight="600" text-anchor="middle">Nexus Operation (Step 3)</text><rect width="215" height="95" x="970" y="290" fill="#374151" stroke="#4b5563" stroke-width="1" rx="0" ry="0"/><text x="1077" y="312" fill="#e5e7eb" font-size="13" text-anchor="middle"><tspan x="1077" dy="0">Workflows: Multi-step</tspan> <tspan x="1077" dy="1.3em">orchestration with automatic</tspan> <tspan x="1077" dy="1.3em">durability via event history</tspan> <tspan x="1077" dy="1.3em">&amp; replay</tspan></text><line x1="835" x2="835" y1="450" y2="495" stroke="#9ca3af" stroke-width="2" marker-end="url(#arrow-dark)"/><rect width="700" height="55" x="220" y="500" fill="#64748b" rx="12" ry="12"/><text x="570" y="521" fill="#fff" font-size="15" font-weight="700" text-anchor="middle"><tspan x="570" dy="0">Temporal Nexus Service, Operation Handlers</tspan> <tspan x="570" dy="1.3em">&amp; Worker Deployment</tspan></text><rect width="340" height="55" x="30" y="590" fill="#374151" stroke="#4b5563" stroke-width="1" rx="0" ry="0"/><text x="200" y="610" fill="#e5e7eb" font-size="13" text-anchor="middle"><tspan x="200" dy="0">Same Nexus programming model:</tspan> <tspan x="200" dy="1.3em">write once &amp; use anywhere.</tspan></text><rect width="490" height="55" x="420" y="590" fill="#374151" stroke="#4b5563" stroke-width="1" rx="0" ry="0"/><text x="665" y="610" fill="#e5e7eb" font-size="13" text-anchor="middle"><tspan x="665" dy="0">Nexus Operations can be called standalone or from a</tspan> <tspan x="665" dy="1.3em">Workflow, with the same Service contract and handlers.</tspan></text><rect width="18" height="18" x="15" y="690" fill="#22c55e" rx="8" ry="8"/><text x="40" y="704" fill="#e5e7eb" font-size="13">Standalone Nexus Operation</text><rect width="18" height="18" x="240" y="690" fill="#3b82f6" rx="8" ry="8"/><text x="265" y="704" fill="#e5e7eb" font-size="13">Workflow &amp; Nexus Operation Steps</text><rect width="18" height="18" x="510" y="690" fill="#64748b" rx="8" ry="8"/><text x="535" y="704" fill="#e5e7eb" font-size="13">Shared infrastructure</text><rect width="18" height="18" x="700" y="690" fill="#374151" stroke="#4b5563" stroke-width="1" rx="0" ry="0"/><text x="725" y="704" fill="#e5e7eb" font-size="13">Description</text></svg>