<svg xmlns="http://www.w3.org/2000/svg" xmlns:xlink="http://www.w3.org/1999/xlink" xmlns:lucid="lucid" width="1600.6" height="1246"><g transform="translate(-240 -60)" lucid:page-tab-id="0_0"><path d="M0 0h1870.87v1322.83H0z" fill="#fff"/><path d="M899.85 141.55v2m0 4.03v4.02m0 4.02v4.02m0 4.02v4.02m0 4.02v4.02m0 4.02v4.02m0 4.03v4m0 4.03v4.02m0 4.02v4.02m0 4v4.03m0 4.02v4.02m0 4.02v4m0 4.03v4.02m0 4.02v4.03m0 4.02v4.02m0 4.02v4.02m0 4.02v4.02m0 4.02v4.02m0 4.02v4.02m0 4.02v4.02m0 4.02v4.02m0 4.03v4.03m0 4.02v4.02m0 4.02v4m0 4.03v4.02m0 4.02v4.02m0 4v4.03m0 4.02v4.02m0 4.02v4.02m0 4.02v4.02m0 4.02v4.02m0 4.02v4.02m0 4.02v4.02m0 4.02v4.02m0 4.02v4.02m0 4.02V425m0 4.03v4.02m0 4.02v4.02m0 4v4.03m0 4.02v4.02m0 4.02v4m0 4.03v4.02m0 4.02v4.02m0 4v4.04m0 4.02v4.02m0 4.02v4.02m0 4.02v4.02m0 4.02v4.02m0 4.02v4.02m0 4.02v4.02m0 4.02v4.02m0 4.03v4.02m0 4.02v4m0 4.03v4.02m0 4.02v4.02m0 4v4.03m0 4.02v4.02m0 4.02v4m0 4.03v4.03m0 4.02V618m0 4.02v4.02m0 4.02v4.02m0 4.02v4.02m0 4.02v4.02m0 4.02v4.02m0 4.02v4.02m0 4.03v4.02m0 4v4.03m0 4.02v4.02m0 4.02v4m0 4.03v4.02m0 4.02v4.02m0 4v4.02m0 4.03v4.03m0 4.02v4.02m0 4.02v4.02m0 4.02v4.02m0 4.02v4.02m0 4.02v4.02m0 4.02v4.02m0 4.02v4.02m0 4.03v4m0 4.03v4.02m0 4.02V811m0 4v4.03m0 4.02v4.02m0 4.02v4m0 4.03v4.02m0 4.02v4.03m0 4.02v4.02m0 4.02v4.02m0 4.02v4.02m0 4.02v4.02m0 4.02v4.02m0 4.02v4.02m0 4.02v4.02m0 4.03v4.03m0 4.02v4.02m0 4.02v4m0 4.03v4.02m0 4.02v4.02m0 4v4.03m0 4.02v4.02m0 4.02v4.02m0 4.02v4.02m0 4.02v4.02m0 4.02v4.02m0 4.02v4.02m0 4.02v4.02m0 4.02v4.02m0 4.02v4.02m0 4.03v4.02m0 4.02v4.02m0 4v4.03m0 4.02v4.02m0 4.02v4m0 4.03v4.02m0 4.02v4.02m0 4v4.03m0 4.03v4.02m0 4.02v4.02m0 4.02v4.02m0 4.02v4.02m0 4.02v4.02m0 4.02v4.02m0 4.02v4.02m0 4.02v4.03m0 4.02v4m0 4.03v4.02m0 4.02v4.02m0 4v4.03m0 4.02v4.02m0 4.02v4m0 4.03v4.02m0 4.03v4.02m0 4.02v4.02m0 4.02v4.02m0 4.02v4.02m0 4.02v4.02m0 4.02v4.02m0 4.02v4.02m0 4.02v4.03m0 4v4.03m0 4.02v4.02m0 4.02v2" stroke="#b2b2b2" fill="none"/><path d="M900.35 141.56h-1v-.5h1" fill="#b2b2b2"/><path d="M899.85 1299.5v.5m200-1158.45v2m0 4.03v4.02m0 4.02v4.02m0 4.02v4.02m0 4.02v4.02m0 4.02v4.02m0 4.03v4m0 4.03v4.02m0 4.02v4.02m0 4v4.03m0 4.02v4.02m0 4.02v4m0 4.03v4.02m0 4.02v4.03m0 4.02v4.02m0 4.02v4.02m0 4.02v4.02m0 4.02v4.02m0 4.02v4.02m0 4.02v4.02m0 4.02v4.02m0 4.03v4.03m0 4.02v4.02m0 4.02v4m0 4.03v4.02m0 4.02v4.02m0 4v4.03m0 4.02v4.02m0 4.02v4.02m0 4.02v4.02m0 4.02v4.02m0 4.02v4.02m0 4.02v4.02m0 4.02v4.02m0 4.02v4.02m0 4.02V425m0 4.03v4.02m0 4.02v4.02m0 4v4.03m0 4.02v4.02m0 4.02v4m0 4.03v4.02m0 4.02v4.02m0 4v4.04m0 4.02v4.02m0 4.02v4.02m0 4.02v4.02m0 4.02v4.02m0 4.02v4.02m0 4.02v4.02m0 4.02v4.02m0 4.03v4.02m0 4.02v4m0 4.03v4.02m0 4.02v4.02m0 4v4.03m0 4.02v4.02m0 4.02v4m0 4.03v4.03m0 4.02V618m0 4.02v4.02m0 4.02v4.02m0 4.02v4.02m0 4.02v4.02m0 4.02v4.02m0 4.02v4.02m0 4.03v4.02m0 4v4.03m0 4.02v4.02m0 4.02v4m0 4.03v4.02m0 4.02v4.02m0 4v4.02m0 4.03v4.03m0 4.02v4.02m0 4.02v4.02m0 4.02v4.02m0 4.02v4.02m0 4.02v4.02m0 4.02v4.02m0 4.02v4.02m0 4.03v4m0 4.03v4.02m0 4.02V811m0 4v4.03m0 4.02v4.02m0 4.02v4m0 4.03v4.02m0 4.02v4.03m0 4.02v4.02m0 4.02v4.02m0 4.02v4.02m0 4.02v4.02m0 4.02v4.02m0 4.02v4.02m0 4.02v4.02m0 4.03v4.03m0 4.02v4.02m0 4.02v4m0 4.03v4.02m0 4.02v4.02m0 4v4.03m0 4.02v4.02m0 4.02v4.02m0 4.02v4.02m0 4.02v4.02m0 4.02v4.02m0 4.02v4.02m0 4.02v4.02m0 4.02v4.02m0 4.02v4.02m0 4.03v4.02m0 4.02v4.02m0 4v4.03m0 4.02v4.02m0 4.02v4m0 4.03v4.02m0 4.02v4.02m0 4v4.03m0 4.03v4.02m0 4.02v4.02m0 4.02v4.02m0 4.02v4.02m0 4.02v4.02m0 4.02v4.02m0 4.02v4.02m0 4.02v4.03m0 4.02v4m0 4.03v4.02m0 4.02v4.02m0 4v4.03m0 4.02v4.02m0 4.02v4m0 4.03v4.02m0 4.03v4.02m0 4.02v4.02m0 4.02v4.02m0 4.02v4.02m0 4.02v4.02m0 4.02v4.02m0 4.02v4.02m0 4.02v4.03m0 4v4.03m0 4.02v4.02m0 4.02v2" stroke="#b2b2b2" fill="none"/><path d="M1100.35 141.56h-1v-.5h1" fill="#b2b2b2"/><path d="M1099.85 1299.5v.5" stroke="#b2b2b2" fill="none"/><path d="M260 745a15 15 0 0 0 15 15h150a15 15 0 0 0 15-15v-90a15 15 0 0 0-15-15H275a15 15 0 0 0-15 15z" fill="none"/><use xlink:href="#a" transform="translate(314.877 690.278)"/><use xlink:href="#b" transform="translate(301.265 716.944)"/><path d="M920 200c0 11.05-8.95 20-20 20s-20-8.95-20-20 8.95-20 20-20 20 8.95 20 20zm0 200c0 11.05-8.95 20-20 20s-20-8.95-20-20 8.95-20 20-20 20 8.95 20 20z" stroke="#333" fill="#fff"/><path d="M920 600c0 11.05-8.95 20-20 20s-20-8.95-20-20 8.95-20 20-20 20 8.95 20 20z" stroke="#333" fill="#c92d39"/><path d="M520 175.43a6 6 0 0 1 6-6h288a6 6 0 0 1 6 6v49.14a6 6 0 0 1-6 6H526a6 6 0 0 1-6-6z" fill="none"/><use xlink:href="#c" transform="translate(559.63 205.209)"/><path d="M820.46 200H879" stroke="#333" fill="none"/><path d="M820.48 200.5h-.52v-1h.52m59.02.48.02.52H879v-1h.56" fill="#333"/><path d="M520 366a6 6 0 0 1 6-6h288a6 6 0 0 1 6 6v68a6 6 0 0 1-6 6H526a6 6 0 0 1-6-6z" fill="none"/><use xlink:href="#d" transform="translate(576.296 404.965)"/><path d="M820.46 400H879" stroke="#333" fill="none"/><path d="M820.48 400.5h-.52v-1h.52m59.02.48.02.52H879v-1h.56" fill="#333"/><path d="M500 526a6 6 0 0 1 6-6h308a6 6 0 0 1 6 6v148a6 6 0 0 1-6 6H506a6 6 0 0 1-6-6z" fill="none"/><use xlink:href="#e" transform="translate(571.914 602.778)"/><path d="M900 221v142.12" stroke="#333" fill="none"/><path d="m899.98 220.5.52-.02v.53h-1v-.56" fill="#333"/><path d="m900 377.88-4.64-14.26h9.28z" stroke="#333" fill="#333"/><path d="M820.46 600H879" stroke="#333" fill="none"/><path d="M820.48 600.5h-.52v-1h.52m59.02.48.02.52H879v-1h.56" fill="#333"/><path d="M900 421v142.12" stroke="#333" fill="none"/><path d="m899.98 420.5.52-.02v.53h-1v-.56" fill="#333"/><path d="m900 577.88-4.64-14.26h9.28z" stroke="#333" fill="#333"/><path d="M1120 800c0 11.05-8.95 20-20 20s-20-8.95-20-20 8.95-20 20-20 20 8.95 20 20zm0 200c0 11.05-8.95 20-20 20s-20-8.95-20-20 8.95-20 20-20 20 8.95 20 20zm0 200c0 11.05-8.95 20-20 20s-20-8.95-20-20 8.95-20 20-20 20 8.95 20 20z" stroke="#333" fill="#fff"/><path d="M1180 766a6 6 0 0 1 6-6h288a6 6 0 0 1 6 6v68a6 6 0 0 1-6 6h-288a6 6 0 0 1-6-6z" fill="none"/><use xlink:href="#f" transform="translate(1219.63 804.653)"/><path d="M1179.54 800H1121" stroke="#333" fill="none"/><path d="M1180.04 800.5h-.52v-1h.52m-59.04 1h-.56l.06-.48-.02-.52h.53" fill="#333"/><path d="M1200 966a6 6 0 0 1 6-6h248a6 6 0 0 1 6 6v68a6 6 0 0 1-6 6h-248a6 6 0 0 1-6-6z" fill="none"/><use xlink:href="#d" transform="translate(1236.296 1004.965)"/><path d="M1199.54 1000H1121" stroke="#333" fill="none"/><path d="M1200.04 1000.5h-.52v-1h.52m-79.04 1h-.56l.06-.48-.02-.52h.53" fill="#333"/><path d="M1199.7 1126a6 6 0 0 1 6-6H1454a6 6 0 0 1 6 6v148a6 6 0 0 1-6 6h-248.3a6 6 0 0 1-6-6z" fill="none"/><use xlink:href="#g" transform="translate(1218.159 1202.778)"/><path d="M1100 821v142.12" stroke="#333" fill="none"/><path d="m1099.98 820.5.52-.02v.53h-1v-.56" fill="#333"/><path d="m1100 977.88-4.64-14.26h9.28z" stroke="#333" fill="#333"/><path d="M1199.24 1200H1121" stroke="#333" fill="none"/><path d="M1199.74 1200.5h-.5v-1h.5m-78.74 1h-.56l.06-.48-.02-.52h.53" fill="#333"/><path d="M1100 1021v142.12" stroke="#333" fill="none"/><path d="m1099.98 1020.5.52-.02v.53h-1v-.56" fill="#333"/><path d="m1100 1177.88-4.64-14.26h9.28z" stroke="#333" fill="#333"/><path d="M1000 600.5v199m0-199v-.5m0 199.5v.5" stroke="#333" fill="none"/><path d="M820 95a15 15 0 0 1 15-15h129.7a15 15 0 0 1 15 15v31.14a15 15 0 0 1-15 15H835a15 15 0 0 1-15-15z" fill="none"/><use xlink:href="#h" transform="translate(838.981 106.028)"/><use xlink:href="#i" transform="translate(915.401 106.028)"/><use xlink:href="#j" transform="translate(841.511 132.694)"/><use xlink:href="#k" transform="translate(945.153 132.694)"/><path d="M442.5 200h75.04m-74.98 0H440" stroke="#333" stroke-width="5" fill="none"/><path d="M520.04 202.5h-2.57v-5h2.56" fill="#333"/><path d="M442.5 1200h75m-74.94 0H440m77.44 0H520" stroke="#333" stroke-width="5" fill="none"/><path d="M481.1 1199.5V700h.02V200.5m-.02 999v.5m.02-999.5v-.5" stroke="#333" fill="none"/><path d="M962.5 600h75m-74.94 0H960m77.44 0h2.56m-77.5 200h75m-74.94 0H960m77.44 0h2.56" stroke="#333" stroke-width="5" fill="none"/><path d="M700 682.76a15 15 0 0 1 15-15h130a15 15 0 0 1 15 15v31.14a15 15 0 0 1-15 15H715a15 15 0 0 1-15-15z" fill="none"/><use xlink:href="#l" transform="translate(713.611 693.792)"/><use xlink:href="#m" transform="translate(772.747 693.792)"/><use xlink:href="#n" transform="translate(749.203 720.459)"/><path d="M860.4 698.33h139.1" stroke="#333" fill="none"/><path d="M860.43 698.83h-.5l-.02-1h.53" fill="#333"/><path d="M999.5 698.33h.5" stroke="#333" fill="none"/><path d="M1020 95a15 15 0 0 1 15-15h129.7a15 15 0 0 1 15 15v31.14a15 15 0 0 1-15 15H1035a15 15 0 0 1-15-15z" fill="none"/><use xlink:href="#h" transform="translate(1038.981 106.028)"/><use xlink:href="#i" transform="translate(1115.401 106.028)"/><use xlink:href="#j" transform="translate(1041.511 132.694)"/><use xlink:href="#o" transform="translate(1145.153 132.694)"/><path d="M440.4 700h40.2" stroke="#333" fill="none"/><path d="M440.42 700.5h-.5v-1h.5" fill="#333"/><path d="M480.6 700h.5" stroke="#333" fill="none"/><path d="M1580.6 534a6 6 0 0 0 6 6h228a6 6 0 0 0 6-6v-68a6 6 0 0 0-6-6h-228a6 6 0 0 0-6 6z" fill="none"/><use xlink:href="#p" transform="translate(1629.794 491.528)"/><use xlink:href="#q" transform="translate(1627.078 518.194)"/><use xlink:href="#r" transform="translate(1712.51 518.194)"/><path d="M1503.1 400h75m-74.94 0h-2.56m77.43 0h2.57" stroke="#333" stroke-width="5" fill="none"/><path d="M1540.94 599.5v-199m0 199v.5m0-199.5v-.5" stroke="#333" fill="none"/><path d="M1503.1 600h75m-74.94 0h-2.56m77.43 0h2.57" stroke="#333" stroke-width="5" fill="none"/><path d="M1580.13 500h-38.7" stroke="#333" fill="none"/><path d="M1580.63 500.5h-.5v-1h.5" fill="#333"/><path d="M1541.46 500h-.52" stroke="#333" fill="none"/><path d="M1580.6 1134a6 6 0 0 0 6 6h228a6 6 0 0 0 6-6v-68a6 6 0 0 0-6-6h-228a6 6 0 0 0-6 6z" fill="none"/><use xlink:href="#p" transform="translate(1629.794 1091.528)"/><use xlink:href="#q" transform="translate(1627.078 1118.194)"/><use xlink:href="#r" transform="translate(1712.51 1118.194)"/><path d="M1503.1 1000h75m-74.94 0h-2.56m77.43 0h2.57" stroke="#333" stroke-width="5" fill="none"/><path d="M1540.94 1199.5v-199m0 199v.5m0-199.5v-.5" stroke="#333" fill="none"/><path d="M1503.1 1200h75m-74.94 0h-2.56m77.43 0h2.57" stroke="#333" stroke-width="5" fill="none"/><path d="M1580.13 1100h-38.7" stroke="#333" fill="none"/><path d="M1580.63 1100.5h-.5v-1h.5" fill="#333"/><path d="M1541.46 1100h-.52" stroke="#333" fill="none"/><defs><path fill="#333" d="m205 0-28-72H64L36 0H1l101-248h38L239 0h-34zm-38-99-47-123c-12 45-31 82-46 123h93" id="s"/><path fill="#333" d="M96-169c-40 0-48 33-48 73s9 75 48 75c24 0 41-14 43-38l32 2c-6 37-31 61-74 61-59 0-76-41-82-99-10-93 101-131 147-64 4 7 5 14 7 22l-32 3c-4-21-16-35-41-35" id="t"/><path fill="#333" d="M59-47c-2 24 18 29 38 22v24C64 9 27 4 27-40v-127H5v-23h24l9-43h21v43h35v23H59v120" id="u"/><path fill="#333" d="M24-231v-30h32v30H24zM24 0v-190h32V0H24" id="v"/><path fill="#333" d="M108 0H70L1-190h34L89-25l56-165h34" id="w"/><path fill="#333" d="M179-190 93 31C79 59 56 82 12 73V49c39 6 53-20 64-50L1-190h34L92-34l54-156h33" id="x"/><path fill="#333" d="M30 0v-248h187v28H63v79h144v27H63v87h162V0H30" id="y"/><path fill="#333" d="M141 0 90-78 38 0H4l68-98-65-92h35l48 74 47-74h35l-64 92 68 98h-35" id="z"/><path fill="#333" d="M100-194c63 0 86 42 84 106H49c0 40 14 67 53 68 26 1 43-12 49-29l28 8c-11 28-37 45-77 45C44 4 14-33 15-96c1-61 26-98 85-98zm52 81c6-60-76-77-97-28-3 7-6 17-6 28h103" id="A"/><path fill="#333" d="M84 4C-5 8 30-112 23-190h32v120c0 31 7 50 39 49 72-2 45-101 50-169h31l1 190h-30c-1-10 1-25-2-33-11 22-28 36-60 37" id="B"/><path fill="#333" d="M100-194c62-1 85 37 85 99 1 63-27 99-86 99S16-35 15-95c0-66 28-99 85-99zM99-20c44 1 53-31 53-75 0-43-8-75-51-75s-53 32-53 75 10 74 51 75" id="C"/><path fill="#333" d="M117-194c89-4 53 116 60 194h-32v-121c0-31-8-49-39-48C34-167 62-67 57 0H25l-1-190h30c1 10-1 24 2 32 11-22 29-35 61-36" id="D"/><path fill="#333" d="M127-220V0H93v-220H8v-28h204v28h-85" id="E"/><path fill="#333" d="M141-36C126-15 110 5 73 4 37 3 15-17 15-53c-1-64 63-63 125-63 3-35-9-54-41-54-24 1-41 7-42 31l-33-3c5-37 33-52 76-52 45 0 72 20 72 64v82c-1 20 7 32 28 27v20c-31 9-61-2-59-35zM48-53c0 20 12 33 32 33 41-3 63-29 60-74-43 2-92-5-92 41" id="F"/><path fill="#333" d="M135-143c-3-34-86-38-87 0 15 53 115 12 119 90S17 21 10-45l28-5c4 36 97 45 98 0-10-56-113-15-118-90-4-57 82-63 122-42 12 7 21 19 24 35" id="G"/><path fill="#333" d="M143 0 79-87 56-68V0H24v-261h32v163l83-92h37l-77 82L181 0h-38" id="H"/><path fill="#333" d="M185-189c-5-48-123-54-124 2 14 75 158 14 163 119 3 78-121 87-175 55-17-10-28-26-33-46l33-7c5 56 141 63 141-1 0-78-155-14-162-118-5-82 145-84 179-34 5 7 8 16 11 25" id="I"/><path fill="#333" d="M106-169C34-169 62-67 57 0H25v-261h32l-1 103c12-21 28-36 61-36 89 0 53 116 60 194h-32v-121c2-32-8-49-39-48" id="J"/><path fill="#333" d="M85-194c31 0 48 13 60 33l-1-100h32l1 261h-30c-2-10 0-23-3-31C134-8 116 4 85 4 32 4 16-35 15-94c0-66 23-100 70-100zm9 24c-40 0-46 34-46 75 0 40 6 74 45 74 42 0 51-32 51-76 0-42-9-74-50-73" id="K"/><path fill="#333" d="M24 0v-261h32V0H24" id="L"/><path fill="#333" d="M114-163C36-179 61-72 57 0H25l-1-190h30c1 12-1 29 2 39 6-27 23-49 58-41v29" id="M"/><path fill="#333" d="M63-220v92h138v28H63V0H30v-248h175v28H63" id="N"/><path fill="#333" d="M212-179c-10-28-35-45-73-45-59 0-87 40-87 99 0 60 29 101 89 101 43 0 62-24 78-52l27 14C228-24 195 4 139 4 59 4 22-46 18-125c-6-104 99-153 187-111 19 9 31 26 39 46" id="O"/><path fill="#333" d="M210-169c-67 3-38 105-44 169h-31v-121c0-29-5-50-35-48C34-165 62-65 56 0H25l-1-190h30c1 10-1 24 2 32 10-44 99-50 107 0 11-21 27-35 58-36 85-2 47 119 55 194h-31v-121c0-29-5-49-35-48" id="P"/><path fill="#333" d="M115-194c55 1 70 41 70 98S169 2 115 4C84 4 66-9 55-30l1 105H24l-1-265h31l2 30c10-21 28-34 59-34zm-8 174c40 0 45-34 45-75s-6-73-45-74c-42 0-51 32-51 76 0 43 10 73 51 73" id="Q"/><path fill="#333" d="M27 0v-27h64v-190l-56 39v-29l58-41h29v221h61V0H27" id="R"/><path fill="#333" d="M233-177c-1 41-23 64-60 70L243 0h-38l-65-103H63V0H30v-248c88 3 205-21 203 71zM63-129c60-2 137 13 137-47 0-61-80-42-137-45v92" id="S"/><path fill="#333" d="M160-131c35 5 61 23 61 61C221 17 115-2 30 0v-248c76 3 177-17 177 60 0 33-19 50-47 57zm-97-11c50-1 110 9 110-42 0-47-63-36-110-37v79zm0 115c55-2 124 14 124-45 0-56-70-42-124-44v89" id="T"/><path fill="#333" d="M101-234c-31-9-42 10-38 44h38v23H63V0H32v-167H5v-23h27c-7-52 17-82 69-68v24" id="U"/><path fill="#333" d="M101-251c82-7 93 87 43 132L82-64C71-53 59-42 53-27h129V0H18c2-99 128-94 128-182 0-28-16-43-45-43s-46 15-49 41l-32-3c6-41 34-60 81-64" id="V"/><path fill="#333" d="M16-82v-28h88v28H16" id="W"/><g id="a"><use transform="rotate(.413) scale(.06173)" xlink:href="#s"/><use transform="matrix(.06173 0 0 .06173 14.815 0)" xlink:href="#t"/><use transform="matrix(.06173 0 0 .06173 25.926 0)" xlink:href="#u"/><use transform="matrix(.06173 0 0 .06173 32.099 0)" xlink:href="#v"/><use transform="matrix(.06173 0 0 .06173 36.975 0)" xlink:href="#w"/><use transform="matrix(.06173 0 0 .06173 48.086 0)" xlink:href="#v"/><use transform="matrix(.06173 0 0 .06173 52.963 0)" xlink:href="#u"/><use transform="matrix(.06173 0 0 .06173 59.136 0)" xlink:href="#x"/></g><g id="b"><use transform="rotate(.413) scale(.06173)" xlink:href="#y"/><use transform="matrix(.06173 0 0 .06173 14.815 0)" xlink:href="#z"/><use transform="matrix(.06173 0 0 .06173 25.926 0)" xlink:href="#A"/><use transform="matrix(.06173 0 0 .06173 38.272 0)" xlink:href="#t"/><use transform="matrix(.06173 0 0 .06173 49.383 0)" xlink:href="#B"/><use transform="matrix(.06173 0 0 .06173 61.728 0)" xlink:href="#u"/><use transform="matrix(.06173 0 0 .06173 67.901 0)" xlink:href="#v"/><use transform="matrix(.06173 0 0 .06173 72.778 0)" xlink:href="#C"/><use transform="matrix(.06173 0 0 .06173 85.123 0)" xlink:href="#D"/></g><g id="c"><use transform="rotate(.413) scale(.06173)" xlink:href="#s"/><use transform="matrix(.06173 0 0 .06173 14.815 0)" xlink:href="#t"/><use transform="matrix(.06173 0 0 .06173 25.926 0)" xlink:href="#u"/><use transform="matrix(.06173 0 0 .06173 32.099 0)" xlink:href="#v"/><use transform="matrix(.06173 0 0 .06173 36.975 0)" xlink:href="#w"/><use transform="matrix(.06173 0 0 .06173 48.086 0)" xlink:href="#v"/><use transform="matrix(.06173 0 0 .06173 52.963 0)" xlink:href="#u"/><use transform="matrix(.06173 0 0 .06173 59.136 0)" xlink:href="#x"/><use transform="matrix(.06173 0 0 .06173 70.247 0)" xlink:href="#E"/><use transform="matrix(.06173 0 0 .06173 81.296 0)" xlink:href="#F"/><use transform="matrix(.06173 0 0 .06173 93.642 0)" xlink:href="#G"/><use transform="matrix(.06173 0 0 .06173 104.753 0)" xlink:href="#H"/><use transform="matrix(.06173 0 0 .06173 115.864 0)" xlink:href="#I"/><use transform="matrix(.06173 0 0 .06173 130.679 0)" xlink:href="#t"/><use transform="matrix(.06173 0 0 .06173 141.79 0)" xlink:href="#J"/><use transform="matrix(.06173 0 0 .06173 154.136 0)" xlink:href="#A"/><use transform="matrix(.06173 0 0 .06173 166.481 0)" xlink:href="#K"/><use transform="matrix(.06173 0 0 .06173 178.827 0)" xlink:href="#B"/><use transform="matrix(.06173 0 0 .06173 191.173 0)" xlink:href="#L"/><use transform="matrix(.06173 0 0 .06173 196.05 0)" xlink:href="#A"/><use transform="matrix(.06173 0 0 .06173 208.395 0)" xlink:href="#K"/></g><g id="d"><use transform="rotate(.413) scale(.06173)" xlink:href="#s"/><use transform="matrix(.06173 0 0 .06173 14.815 0)" xlink:href="#t"/><use transform="matrix(.06173 0 0 .06173 25.926 0)" xlink:href="#u"/><use transform="matrix(.06173 0 0 .06173 32.099 0)" xlink:href="#v"/><use transform="matrix(.06173 0 0 .06173 36.975 0)" xlink:href="#w"/><use transform="matrix(.06173 0 0 .06173 48.086 0)" xlink:href="#v"/><use transform="matrix(.06173 0 0 .06173 52.963 0)" xlink:href="#u"/><use transform="matrix(.06173 0 0 .06173 59.136 0)" xlink:href="#x"/><use transform="matrix(.06173 0 0 .06173 70.247 0)" xlink:href="#E"/><use transform="matrix(.06173 0 0 .06173 81.296 0)" xlink:href="#F"/><use transform="matrix(.06173 0 0 .06173 93.642 0)" xlink:href="#G"/><use transform="matrix(.06173 0 0 .06173 104.753 0)" xlink:href="#H"/><use transform="matrix(.06173 0 0 .06173 115.864 0)" xlink:href="#I"/><use transform="matrix(.06173 0 0 .06173 130.679 0)" xlink:href="#u"/><use transform="matrix(.06173 0 0 .06173 136.852 0)" xlink:href="#F"/><use transform="matrix(.06173 0 0 .06173 149.198 0)" xlink:href="#M"/><use transform="matrix(.06173 0 0 .06173 156.543 0)" xlink:href="#u"/><use transform="matrix(.06173 0 0 .06173 162.716 0)" xlink:href="#A"/><use transform="matrix(.06173 0 0 .06173 175.062 0)" xlink:href="#K"/></g><g id="e"><use transform="rotate(.413) scale(.06173)" xlink:href="#s"/><use transform="matrix(.06173 0 0 .06173 14.815 0)" xlink:href="#t"/><use transform="matrix(.06173 0 0 .06173 25.926 0)" xlink:href="#u"/><use transform="matrix(.06173 0 0 .06173 32.099 0)" xlink:href="#v"/><use transform="matrix(.06173 0 0 .06173 36.975 0)" xlink:href="#w"/><use transform="matrix(.06173 0 0 .06173 48.086 0)" xlink:href="#v"/><use transform="matrix(.06173 0 0 .06173 52.963 0)" xlink:href="#u"/><use transform="matrix(.06173 0 0 .06173 59.136 0)" xlink:href="#x"/><use transform="matrix(.06173 0 0 .06173 70.247 0)" xlink:href="#E"/><use transform="matrix(.06173 0 0 .06173 81.296 0)" xlink:href="#F"/><use transform="matrix(.06173 0 0 .06173 93.642 0)" xlink:href="#G"/><use transform="matrix(.06173 0 0 .06173 104.753 0)" xlink:href="#H"/><use transform="matrix(.06173 0 0 .06173 115.864 0)" xlink:href="#N"/><use transform="matrix(.06173 0 0 .06173 129.383 0)" xlink:href="#F"/><use transform="matrix(.06173 0 0 .06173 141.728 0)" xlink:href="#v"/><use transform="matrix(.06173 0 0 .06173 146.605 0)" xlink:href="#L"/><use transform="matrix(.06173 0 0 .06173 151.481 0)" xlink:href="#A"/><use transform="matrix(.06173 0 0 .06173 163.827 0)" xlink:href="#K"/></g><g id="f"><use transform="rotate(.413) scale(.06173)" xlink:href="#s"/><use transform="matrix(.06173 0 0 .06173 14.815 0)" xlink:href="#t"/><use transform="matrix(.06173 0 0 .06173 25.926 0)" xlink:href="#u"/><use transform="matrix(.06173 0 0 .06173 32.099 0)" xlink:href="#v"/><use transform="matrix(.06173 0 0 .06173 36.975 0)" xlink:href="#w"/><use transform="matrix(.06173 0 0 .06173 48.086 0)" xlink:href="#v"/><use transform="matrix(.06173 0 0 .06173 52.963 0)" xlink:href="#u"/><use transform="matrix(.06173 0 0 .06173 59.136 0)" xlink:href="#x"/><use transform="matrix(.06173 0 0 .06173 70.247 0)" xlink:href="#E"/><use transform="matrix(.06173 0 0 .06173 81.296 0)" xlink:href="#F"/><use transform="matrix(.06173 0 0 .06173 93.642 0)" xlink:href="#G"/><use transform="matrix(.06173 0 0 .06173 104.753 0)" xlink:href="#H"/><use transform="matrix(.06173 0 0 .06173 115.864 0)" xlink:href="#I"/><use transform="matrix(.06173 0 0 .06173 130.679 0)" xlink:href="#t"/><use transform="matrix(.06173 0 0 .06173 141.79 0)" xlink:href="#J"/><use transform="matrix(.06173 0 0 .06173 154.136 0)" xlink:href="#A"/><use transform="matrix(.06173 0 0 .06173 166.481 0)" xlink:href="#K"/><use transform="matrix(.06173 0 0 .06173 178.827 0)" xlink:href="#B"/><use transform="matrix(.06173 0 0 .06173 191.173 0)" xlink:href="#L"/><use transform="matrix(.06173 0 0 .06173 196.05 0)" xlink:href="#A"/><use transform="matrix(.06173 0 0 .06173 208.395 0)" xlink:href="#K"/></g><g id="g"><use transform="rotate(.413) scale(.06173)" xlink:href="#s"/><use transform="matrix(.06173 0 0 .06173 14.815 0)" xlink:href="#t"/><use transform="matrix(.06173 0 0 .06173 25.926 0)" xlink:href="#u"/><use transform="matrix(.06173 0 0 .06173 32.099 0)" xlink:href="#v"/><use transform="matrix(.06173 0 0 .06173 36.975 0)" xlink:href="#w"/><use transform="matrix(.06173 0 0 .06173 48.086 0)" xlink:href="#v"/><use transform="matrix(.06173 0 0 .06173 52.963 0)" xlink:href="#u"/><use transform="matrix(.06173 0 0 .06173 59.136 0)" xlink:href="#x"/><use transform="matrix(.06173 0 0 .06173 70.247 0)" xlink:href="#E"/><use transform="matrix(.06173 0 0 .06173 81.296 0)" xlink:href="#F"/><use transform="matrix(.06173 0 0 .06173 93.642 0)" xlink:href="#G"/><use transform="matrix(.06173 0 0 .06173 104.753 0)" xlink:href="#H"/><use transform="matrix(.06173 0 0 .06173 115.864 0)" xlink:href="#O"/><use transform="matrix(.06173 0 0 .06173 131.852 0)" xlink:href="#C"/><use transform="matrix(.06173 0 0 .06173 144.198 0)" xlink:href="#P"/><use transform="matrix(.06173 0 0 .06173 162.654 0)" xlink:href="#Q"/><use transform="matrix(.06173 0 0 .06173 175 0)" xlink:href="#L"/><use transform="matrix(.06173 0 0 .06173 179.877 0)" xlink:href="#A"/><use transform="matrix(.06173 0 0 .06173 192.222 0)" xlink:href="#u"/><use transform="matrix(.06173 0 0 .06173 198.395 0)" xlink:href="#A"/><use transform="matrix(.06173 0 0 .06173 210.74 0)" xlink:href="#K"/></g><g id="h"><use transform="rotate(.413) scale(.06173)" xlink:href="#s"/><use transform="matrix(.06173 0 0 .06173 14.815 0)" xlink:href="#t"/><use transform="matrix(.06173 0 0 .06173 25.926 0)" xlink:href="#u"/><use transform="matrix(.06173 0 0 .06173 32.099 0)" xlink:href="#v"/><use transform="matrix(.06173 0 0 .06173 36.975 0)" xlink:href="#w"/><use transform="matrix(.06173 0 0 .06173 48.086 0)" xlink:href="#v"/><use transform="matrix(.06173 0 0 .06173 52.963 0)" xlink:href="#u"/><use transform="matrix(.06173 0 0 .06173 59.136 0)" xlink:href="#x"/></g><g id="i"><use transform="rotate(.413) scale(.06173)" xlink:href="#E"/><use transform="matrix(.06173 0 0 .06173 11.05 0)" xlink:href="#F"/><use transform="matrix(.06173 0 0 .06173 23.395 0)" xlink:href="#G"/><use transform="matrix(.06173 0 0 .06173 34.506 0)" xlink:href="#H"/></g><g id="j"><use transform="rotate(.413) scale(.06173)" xlink:href="#y"/><use transform="matrix(.06173 0 0 .06173 14.815 0)" xlink:href="#z"/><use transform="matrix(.06173 0 0 .06173 25.926 0)" xlink:href="#A"/><use transform="matrix(.06173 0 0 .06173 38.272 0)" xlink:href="#t"/><use transform="matrix(.06173 0 0 .06173 49.383 0)" xlink:href="#B"/><use transform="matrix(.06173 0 0 .06173 61.728 0)" xlink:href="#u"/><use transform="matrix(.06173 0 0 .06173 67.901 0)" xlink:href="#v"/><use transform="matrix(.06173 0 0 .06173 72.778 0)" xlink:href="#C"/><use transform="matrix(.06173 0 0 .06173 85.123 0)" xlink:href="#D"/></g><g id="l"><use transform="rotate(.413) scale(.06173)" xlink:href="#S"/><use transform="matrix(.06173 0 0 .06173 15.988 0)" xlink:href="#A"/><use transform="matrix(.06173 0 0 .06173 28.333 0)" xlink:href="#u"/><use transform="matrix(.06173 0 0 .06173 34.506 0)" xlink:href="#M"/><use transform="matrix(.06173 0 0 .06173 41.852 0)" xlink:href="#x"/></g><g id="m"><use transform="rotate(.413) scale(.06173)" xlink:href="#T"/><use transform="matrix(.06173 0 0 .06173 14.815 0)" xlink:href="#F"/><use transform="matrix(.06173 0 0 .06173 27.16 0)" xlink:href="#t"/><use transform="matrix(.06173 0 0 .06173 38.272 0)" xlink:href="#H"/><use transform="matrix(.06173 0 0 .06173 49.383 0)" xlink:href="#C"/><use transform="matrix(.06173 0 0 .06173 61.728 0)" xlink:href="#U"/><use transform="matrix(.06173 0 0 .06173 67.47 0)" xlink:href="#U"/></g><g id="n"><use transform="rotate(.413) scale(.06173)" xlink:href="#Q"/><use transform="matrix(.06173 0 0 .06173 12.346 0)" xlink:href="#A"/><use transform="matrix(.06173 0 0 .06173 24.691 0)" xlink:href="#M"/><use transform="matrix(.06173 0 0 .06173 32.037 0)" xlink:href="#v"/><use transform="matrix(.06173 0 0 .06173 36.914 0)" xlink:href="#C"/><use transform="matrix(.06173 0 0 .06173 49.26 0)" xlink:href="#K"/></g><g id="p"><use transform="rotate(.413) scale(.06173)" xlink:href="#I"/><use transform="matrix(.06173 0 0 .06173 14.815 0)" xlink:href="#u"/><use transform="matrix(.06173 0 0 .06173 20.988 0)" xlink:href="#F"/><use transform="matrix(.06173 0 0 .06173 33.333 0)" xlink:href="#M"/><use transform="matrix(.06173 0 0 .06173 40.679 0)" xlink:href="#u"/><use transform="matrix(.06173 0 0 .06173 46.852 0)" xlink:href="#W"/><use transform="matrix(.06173 0 0 .06173 54.198 0)" xlink:href="#E"/><use transform="matrix(.06173 0 0 .06173 65.247 0)" xlink:href="#C"/><use transform="matrix(.06173 0 0 .06173 77.593 0)" xlink:href="#W"/><use transform="matrix(.06173 0 0 .06173 84.938 0)" xlink:href="#O"/><use transform="matrix(.06173 0 0 .06173 100.926 0)" xlink:href="#L"/><use transform="matrix(.06173 0 0 .06173 105.802 0)" xlink:href="#C"/><use transform="matrix(.06173 0 0 .06173 118.148 0)" xlink:href="#G"/><use transform="matrix(.06173 0 0 .06173 129.26 0)" xlink:href="#A"/></g><g id="q"><use transform="rotate(.413) scale(.06173)" xlink:href="#E"/><use transform="matrix(.06173 0 0 .06173 12.716 0)" xlink:href="#v"/><use transform="matrix(.06173 0 0 .06173 17.593 0)" xlink:href="#P"/><use transform="matrix(.06173 0 0 .06173 36.05 0)" xlink:href="#A"/><use transform="matrix(.06173 0 0 .06173 48.395 0)" xlink:href="#C"/><use transform="matrix(.06173 0 0 .06173 60.74 0)" xlink:href="#B"/><use transform="matrix(.06173 0 0 .06173 73.086 0)" xlink:href="#u"/></g><g id="r"><use transform="rotate(.413) scale(.06173)" xlink:href="#Q"/><use transform="matrix(.06173 0 0 .06173 12.346 0)" xlink:href="#A"/><use transform="matrix(.06173 0 0 .06173 24.691 0)" xlink:href="#M"/><use transform="matrix(.06173 0 0 .06173 32.037 0)" xlink:href="#v"/><use transform="matrix(.06173 0 0 .06173 36.914 0)" xlink:href="#C"/><use transform="matrix(.06173 0 0 .06173 49.26 0)" xlink:href="#K"/></g><use transform="rotate(.413) scale(.06173)" xlink:href="#R" id="k"/><use transform="rotate(.413) scale(.06173)" xlink:href="#V" id="o"/></defs></g></svg>