<svg xmlns="http://www.w3.org/2000/svg" xmlns:xlink="http://www.w3.org/1999/xlink" xmlns:lucid="lucid" width="952.02" height="500"><g transform="translate(-447.981 -260)" lucid:page-tab-id="0_0"><path d="M0 0h1870.87v1322.83H0z" fill="#fff"/><path d="M740 380h380v260H740z" stroke="#333" fill="#fff"/><path d="M760 400h340v100H760zm0 120h340v100H760z" stroke="#333" fill="#fff"/><path d="M1020 540h60v60h-60zm-80 0h60v60h-60z" stroke="#333" fill="#fff"/><path d="M860 420h60v60h-60z" stroke="#333" fill="#141414"/><path d="M860 540h60v60h-60zm-80 0h60v60h-60z" stroke="#333" fill="#fff"/><path d="M940 420h60v60h-60zm80 0h60v60h-60z" stroke="#333" fill="#141414"/><path d="M930 286c0-3.3 2.7-6 6-6h228c3.3 0 6 2.7 6 6v48c0 3.3-2.7 6-6 6H936c-3.3 0-6-2.7-6-6z" fill="none"/><use xlink:href="#a" transform="translate(978.333 315.278)"/><use xlink:href="#b" transform="translate(1075.617 315.278)"/><path d="M1050 419v-78.5" stroke="#333" fill="none"/><path d="M1050.5 419.5h-1v-.5h1zm0-79h-1v-.5h1z" stroke="#333" stroke-width=".05" fill="#333"/><path d="M930 686c0-3.3 2.7-6 6-6h228c3.3 0 6 2.7 6 6v48c0 3.3-2.7 6-6 6H936c-3.3 0-6-2.7-6-6z" fill="none"/><use xlink:href="#c" transform="translate(988.765 715.278)"/><use xlink:href="#b" transform="translate(1065.185 715.278)"/><path d="M1050 679.5V601" stroke="#333" fill="none"/><path d="M1050.5 680h-1v-.5h1zm0-79h-1v-.5h1z" stroke="#333" stroke-width=".05" fill="#333"/><path d="M692.33 686c0-3.3 2.7-6 6-6h228c3.3 0 6 2.7 6 6v48c0 3.3-2.7 6-6 6h-228c-3.3 0-6-2.7-6-6z" fill="none"/><use xlink:href="#c" transform="translate(714.676 715.278)"/><use xlink:href="#d" transform="translate(791.096 715.278)"/><use xlink:href="#e" transform="translate(843.318 715.278)"/><path d="M812.33 679.5V621" stroke="#333" fill="none"/><path d="M812.83 680h-1v-.5h1zm0-59h-1v-.5h1z" stroke="#333" stroke-width=".05" fill="#333"/><path d="M692.33 286c0-3.3 2.7-6 6-6h228c3.3 0 6 2.7 6 6v48c0 3.3-2.7 6-6 6h-228c-3.3 0-6-2.7-6-6z" fill="none"/><use xlink:href="#a" transform="translate(704.244 315.278)"/><use xlink:href="#d" transform="translate(801.528 315.278)"/><use xlink:href="#e" transform="translate(853.75 315.278)"/><path d="M812.33 340.5V399" stroke="#333" fill="none"/><path d="M812.83 340.5h-1v-.5h1zm0 59h-1v-.5h1z" stroke="#333" stroke-width=".05" fill="#333"/><path d="M1200 486c0-3.3 2.7-6 6-6h168c3.3 0 6 2.7 6 6v48c0 3.3-2.7 6-6 6h-168c-3.3 0-6-2.7-6-6z" fill="none"/><use xlink:href="#f" transform="translate(1230.556 515.278)"/><use xlink:href="#g" transform="translate(1282.778 515.278)"/><path d="M1199.5 510H1121" stroke="#333" fill="none"/><path d="M1200 510.5h-.5v-1h.5zm-79 0h-.5v-1h.5z" stroke="#333" stroke-width=".05" fill="#333"/><path d="M1101 450h82.62" stroke="#333" fill="none"/><path d="M1101 450.5h-.5v-1h.5z" stroke="#333" stroke-width=".05" fill="#333"/><path d="m1198.38 450-14.26 4.64v-9.28z" stroke="#333" fill="#333"/><path d="M1101 570h82.62" stroke="#333" fill="none"/><path d="M1101 570.5h-.5v-1h.5z" stroke="#333" stroke-width=".05" fill="#333"/><path d="m1198.38 570-14.26 4.64v-9.28z" stroke="#333" fill="#333"/><path d="M743.12 450H500.5" stroke="#333" fill="none"/><path d="m757.88 450-14.26 4.64v-9.28z" stroke="#333" fill="#333"/><path d="M500.5 450h-.5m243.12 120H500.5" stroke="#333" fill="none"/><path d="m757.88 570-14.26 4.64v-9.28z" stroke="#333" fill="#333"/><path d="M500.5 570h-.5" stroke="#333" fill="none"/><path d="M500 606c0-3.3 2.7-6 6-6h168c3.3 0 6 2.7 6 6v48c0 3.3-2.7 6-6 6H506c-3.3 0-6-2.7-6-6z" fill="none"/><use xlink:href="#h" transform="translate(479.414 634.444)"/><path d="M590 599.5v-29" stroke="#333" fill="none"/><path d="M590.5 600h-1v-.5h1z" stroke="#333" stroke-width=".05" fill="#333"/><path d="M590 570.5v-.5" stroke="#333" fill="none"/><path d="M500 366c0-3.3 2.7-6 6-6h168c3.3 0 6 2.7 6 6v48c0 3.3-2.7 6-6 6H506c-3.3 0-6-2.7-6-6z" fill="none"/><use xlink:href="#i" transform="translate(468.981 394.444)"/><path d="M590 420.5v29" stroke="#333" fill="none"/><path d="M590.5 420.5h-1v-.5h1z" stroke="#333" stroke-width=".05" fill="#333"/><path d="M590 449.5v.5" stroke="#333" fill="none"/><defs><path fill="#333" d="M247 0h-39l-15-214-24 57L95 0H56L31-248h35L82-30l101-218h33l16 218 101-218h35" id="j"/><path fill="#333" d="M30-147c31-64 166-65 159 27C183-49 158 1 86 4 9 8 1-88 30-147zM88-20c53 0 68-48 68-100 0-31-11-51-44-50-52 1-68 46-68 97 0 32 13 53 44 53" id="k"/><path fill="#333" d="M66-151c12-25 30-51 66-40l-6 26C45-176 58-65 38 0H6l36-190h30" id="l"/><path fill="#333" d="M127 0 80-88 50-66 37 0H6l51-261h31L57-100l99-90h39l-93 82L161 0h-34" id="m"/><path fill="#333" d="M76-167 44 0H12l33-167H18l4-23h27c3-47 25-81 82-69l-4 24c-35-8-44 15-46 45h37l-5 23H76" id="n"/><path fill="#333" d="m6 0 50-261h32L37 0H6" id="o"/><path fill="#333" d="M188 0h-37l-8-164L71 0H34L18-190h31l8 164 75-164h34l8 164 74-164h31" id="p"/><path fill="#333" d="M151-220 108 0H75l42-220H32l6-28h203l-5 28h-85" id="q"/><path fill="#333" d="M165-48c-4 18 1 34 23 27l-3 20c-29 8-62 0-52-35h-2C116-14 99 4 63 4 30 4 8-16 8-49c0-68 71-67 138-67 10-26 0-56-31-54-26 1-42 9-47 31l-32-5c8-67 160-71 144 15-5 28-9 54-15 81zM42-50c3 52 80 24 89-6 7-12 7-24 11-38-47 1-103-4-100 44" id="r"/><path fill="#333" d="M55-144c13 50 104 24 104 88C159 21 15 23 1-39l26-10c6 40 102 42 102-4-13-50-104-23-104-87 0-71 143-71 148-8l-29 4c-5-35-85-37-89 0" id="s"/><path fill="#333" d="m187 0-14-72H61L19 0h-37l149-248h38L221 0h-34zm-19-99-22-123L76-99h92" id="t"/><path fill="#333" d="M44-68c0 29 11 47 38 47 30 0 42-19 51-41l28 9C148-21 126 4 82 4 31 4 10-29 12-85c3-77 74-140 146-93 12 8 15 23 18 40l-31 5c-1-22-13-36-36-36-52 0-65 49-65 101" id="u"/><path fill="#333" d="M51-54c-9 22 5 41 31 30L79-1C43 14 10-4 19-52l22-115H19l5-23h22l19-43h21l-9 43h35l-4 23H73" id="v"/><path fill="#333" d="m50-231 6-30h32l-6 30H50zM6 0l37-190h31L37 0H6" id="w"/><path fill="#333" d="M89 0H52L20-190h33L74-25l89-165h34" id="x"/><path fill="#333" d="M198-190 69 30C53 58 25 83-20 72c4-11-1-27 19-22 33-1 43-29 59-52L20-190h32L79-34l84-156h35" id="y"/><path fill="#333" d="M24-61C-1-165 59-251 163-251c67 1 105 36 105 101 0 88-46 140-124 152 2 33 24 47 60 39l-3 23c-50 15-89-11-89-61-46-3-79-26-88-64zm210-73c6-55-18-91-72-90-77 1-111 51-111 125 0 49 24 75 73 75 72 0 103-45 110-110" id="z"/><path fill="#333" d="M67 3c-93-2-31-127-26-193h32L48-50c-3 39 53 32 70 12 30-34 30-101 43-152h32L157 0h-30c1-10 6-24 4-33-14 20-29 37-64 36" id="A"/><path fill="#333" d="M111-194c62-3 86 47 72 106H45c-7 38 6 69 45 68 27-1 43-14 53-32l24 11C152-15 129 4 87 4 38 3 12-23 12-71c0-70 32-119 99-123zm44 81c14-66-71-72-95-28-4 8-8 17-11 28h106" id="B"/><path fill="#333" d="M194-120c59 52 2 134-86 124-53-6-90-18-98-63l31-7c8 30 29 43 70 43 46 0 84-17 71-62-32-43-135-20-137-98-3-89 178-90 191-16l-30 9c-8-48-127-53-127 5 0 53 81 35 115 65" id="C"/><path fill="#333" d="M67-158c15-20 31-36 64-36 94 0 33 127 27 194h-32l25-140c3-38-53-32-70-12C52-117 51-51 37 0H6l51-261h31" id="D"/><path fill="#333" d="M133-28C103 26-5 8 13-77c13-62 24-115 90-117 29-1 46 15 56 35l19-102h32L160 0h-30zM45-64c-2 27 10 43 35 43 54-1 69-50 69-103 0-29-15-46-42-46-53-1-58 58-62 106" id="E"/><g id="a"><use transform="rotate(.413) scale(.06173)" xlink:href="#j"/><use transform="matrix(.06173 0 0 .06173 20.926 0)" xlink:href="#k"/><use transform="matrix(.06173 0 0 .06173 33.272 0)" xlink:href="#l"/><use transform="matrix(.06173 0 0 .06173 40.617 0)" xlink:href="#m"/><use transform="matrix(.06173 0 0 .06173 51.728 0)" xlink:href="#n"/><use transform="matrix(.06173 0 0 .06173 57.901 0)" xlink:href="#o"/><use transform="matrix(.06173 0 0 .06173 62.778 0)" xlink:href="#k"/><use transform="matrix(.06173 0 0 .06173 75.123 0)" xlink:href="#p"/></g><g id="b"><use transform="rotate(.413) scale(.06173)" xlink:href="#q"/><use transform="matrix(.06173 0 0 .06173 11.481 0)" xlink:href="#r"/><use transform="matrix(.06173 0 0 .06173 23.827 0)" xlink:href="#s"/><use transform="matrix(.06173 0 0 .06173 34.938 0)" xlink:href="#m"/></g><g id="c"><use transform="rotate(.413) scale(.06173)" xlink:href="#t"/><use transform="matrix(.06173 0 0 .06173 14.815 0)" xlink:href="#u"/><use transform="matrix(.06173 0 0 .06173 25.926 0)" xlink:href="#v"/><use transform="matrix(.06173 0 0 .06173 32.099 0)" xlink:href="#w"/><use transform="matrix(.06173 0 0 .06173 36.975 0)" xlink:href="#x"/><use transform="matrix(.06173 0 0 .06173 48.086 0)" xlink:href="#w"/><use transform="matrix(.06173 0 0 .06173 52.963 0)" xlink:href="#v"/><use transform="matrix(.06173 0 0 .06173 59.136 0)" xlink:href="#y"/></g><g id="d"><use transform="rotate(.413) scale(.06173)" xlink:href="#q"/><use transform="matrix(.06173 0 0 .06173 11.481 0)" xlink:href="#r"/><use transform="matrix(.06173 0 0 .06173 23.827 0)" xlink:href="#s"/><use transform="matrix(.06173 0 0 .06173 34.938 0)" xlink:href="#m"/></g><g id="e"><use transform="rotate(.413) scale(.06173)" xlink:href="#z"/><use transform="matrix(.06173 0 0 .06173 17.284 0)" xlink:href="#A"/><use transform="matrix(.06173 0 0 .06173 29.63 0)" xlink:href="#B"/><use transform="matrix(.06173 0 0 .06173 41.975 0)" xlink:href="#A"/><use transform="matrix(.06173 0 0 .06173 54.321 0)" xlink:href="#B"/></g><g id="f"><use transform="rotate(.413) scale(.06173)" xlink:href="#q"/><use transform="matrix(.06173 0 0 .06173 11.481 0)" xlink:href="#r"/><use transform="matrix(.06173 0 0 .06173 23.827 0)" xlink:href="#s"/><use transform="matrix(.06173 0 0 .06173 34.938 0)" xlink:href="#m"/></g><g id="g"><use transform="rotate(.413) scale(.06173)" xlink:href="#z"/><use transform="matrix(.06173 0 0 .06173 17.284 0)" xlink:href="#A"/><use transform="matrix(.06173 0 0 .06173 29.63 0)" xlink:href="#B"/><use transform="matrix(.06173 0 0 .06173 41.975 0)" xlink:href="#A"/><use transform="matrix(.06173 0 0 .06173 54.321 0)" xlink:href="#B"/></g><g id="h"><use transform="rotate(.413) scale(.06173)" xlink:href="#t"/><use transform="matrix(.06173 0 0 .06173 14.815 0)" xlink:href="#u"/><use transform="matrix(.06173 0 0 .06173 25.926 0)" xlink:href="#v"/><use transform="matrix(.06173 0 0 .06173 32.099 0)" xlink:href="#w"/><use transform="matrix(.06173 0 0 .06173 36.975 0)" xlink:href="#x"/><use transform="matrix(.06173 0 0 .06173 48.086 0)" xlink:href="#w"/><use transform="matrix(.06173 0 0 .06173 52.963 0)" xlink:href="#v"/><use transform="matrix(.06173 0 0 .06173 59.136 0)" xlink:href="#y"/><use transform="matrix(.06173 0 0 .06173 70.247 0)" xlink:href="#q"/><use transform="matrix(.06173 0 0 .06173 81.728 0)" xlink:href="#r"/><use transform="matrix(.06173 0 0 .06173 94.074 0)" xlink:href="#s"/><use transform="matrix(.06173 0 0 .06173 105.185 0)" xlink:href="#m"/><use transform="matrix(.06173 0 0 .06173 116.296 0)" xlink:href="#C"/><use transform="matrix(.06173 0 0 .06173 131.111 0)" xlink:href="#u"/><use transform="matrix(.06173 0 0 .06173 142.222 0)" xlink:href="#D"/><use transform="matrix(.06173 0 0 .06173 154.568 0)" xlink:href="#B"/><use transform="matrix(.06173 0 0 .06173 166.914 0)" xlink:href="#E"/><use transform="matrix(.06173 0 0 .06173 179.26 0)" xlink:href="#A"/><use transform="matrix(.06173 0 0 .06173 191.605 0)" xlink:href="#o"/><use transform="matrix(.06173 0 0 .06173 196.481 0)" xlink:href="#B"/><use transform="matrix(.06173 0 0 .06173 208.827 0)" xlink:href="#E"/></g><g id="i"><use transform="rotate(.413) scale(.06173)" xlink:href="#j"/><use transform="matrix(.06173 0 0 .06173 20.926 0)" xlink:href="#k"/><use transform="matrix(.06173 0 0 .06173 33.272 0)" xlink:href="#l"/><use transform="matrix(.06173 0 0 .06173 40.617 0)" xlink:href="#m"/><use transform="matrix(.06173 0 0 .06173 51.728 0)" xlink:href="#n"/><use transform="matrix(.06173 0 0 .06173 57.901 0)" xlink:href="#o"/><use transform="matrix(.06173 0 0 .06173 62.778 0)" xlink:href="#k"/><use transform="matrix(.06173 0 0 .06173 75.123 0)" xlink:href="#p"/><use transform="matrix(.06173 0 0 .06173 91.111 0)" xlink:href="#q"/><use transform="matrix(.06173 0 0 .06173 102.593 0)" xlink:href="#r"/><use transform="matrix(.06173 0 0 .06173 114.938 0)" xlink:href="#s"/><use transform="matrix(.06173 0 0 .06173 126.05 0)" xlink:href="#m"/><use transform="matrix(.06173 0 0 .06173 137.16 0)" xlink:href="#C"/><use transform="matrix(.06173 0 0 .06173 151.975 0)" xlink:href="#u"/><use transform="matrix(.06173 0 0 .06173 163.086 0)" xlink:href="#D"/><use transform="matrix(.06173 0 0 .06173 175.432 0)" xlink:href="#B"/><use transform="matrix(.06173 0 0 .06173 187.778 0)" xlink:href="#E"/><use transform="matrix(.06173 0 0 .06173 200.123 0)" xlink:href="#A"/><use transform="matrix(.06173 0 0 .06173 212.47 0)" xlink:href="#o"/><use transform="matrix(.06173 0 0 .06173 217.346 0)" xlink:href="#B"/><use transform="matrix(.06173 0 0 .06173 229.691 0)" xlink:href="#E"/></g></defs></g></svg>