<svg xmlns="http://www.w3.org/2000/svg" xmlns:xlink="http://www.w3.org/1999/xlink" xmlns:lucid="lucid" width="620" height="960"><g transform="translate(-520 -160)" lucid:page-tab-id="0_0"><path d="M0 0h1760v1360H0z" fill="#fff"/><path d="M920 180h200v120H920z" stroke="#3a414a" fill="#fff"/><use xlink:href="#a" transform="translate(943.556 246.153)"/><use xlink:href="#b" transform="translate(1040.84 246.153)"/><path d="M1000 390c0 16.57-13.43 30-30 30s-30-13.43-30-30 13.43-30 30-30 30 13.43 30 30z" stroke="#3a414a" fill="#fff"/><use xlink:href="#c" transform="translate(958.889 386.389)"/><use xlink:href="#d" transform="translate(954.29 399.722)"/><path d="M1100 390c0 16.57-13.43 30-30 30s-30-13.43-30-30 13.43-30 30-30 30 13.43 30 30z" stroke="#3a414a" fill="#fff"/><use xlink:href="#e" transform="translate(1058.596 386.389)"/><use xlink:href="#d" transform="translate(1054.29 399.722)"/><path d="M920 480h200v120H920z" stroke="#3a414a" fill="#fff"/><use xlink:href="#f" transform="translate(945.315 546.153)"/><use xlink:href="#g" transform="translate(998.34 546.153)"/><path d="M1000 690c0 16.57-13.43 30-30 30s-30-13.43-30-30 13.43-30 30-30 30 13.43 30 30z" stroke="#3a414a" fill="#fff"/><use xlink:href="#c" transform="translate(958.889 686.389)"/><use xlink:href="#d" transform="translate(954.29 699.722)"/><path d="M1100 690c0 16.57-13.43 30-30 30s-30-13.43-30-30 13.43-30 30-30 30 13.43 30 30z" stroke="#3a414a" fill="#fff"/><use xlink:href="#e" transform="translate(1058.596 686.389)"/><use xlink:href="#d" transform="translate(1054.29 699.722)"/><path d="M920 780h200v120H920z" stroke="#3a414a" fill="#fff"/><use xlink:href="#h" transform="translate(952.691 846.153)"/><use xlink:href="#i" transform="translate(1023 846.153)"/><path d="M970 343.12V301" stroke="#3a414a" fill="none"/><path d="m970 357.88-4.64-14.26h9.28z" stroke="#3a414a" fill="#3a414a"/><path d="M970.5 301h-1v-.5h1z" stroke="#3a414a" stroke-width=".05" fill="#3a414a"/><path d="M970 421v42.12" stroke="#3a414a" fill="none"/><path d="m970 420.5.5-.02v.53h-1v-.54z" stroke="#3a414a" stroke-width=".05" fill="#3a414a"/><path d="m970 477.88-4.64-14.26h9.28z" stroke="#3a414a" fill="#3a414a"/><path d="M1070 359v-42.12" stroke="#3a414a" fill="none"/><path d="m1070.5 359.54-.5-.04-.5.02V359h1z" stroke="#3a414a" stroke-width=".05" fill="#3a414a"/><path d="m1070 302.12 4.64 14.26h-9.28z" stroke="#3a414a" fill="#3a414a"/><path d="M1070 436.88V479" stroke="#3a414a" fill="none"/><path d="m1070 422.12 4.64 14.26h-9.28z" stroke="#3a414a" fill="#3a414a"/><path d="M1070.5 479.5h-1v-.5h1z" stroke="#3a414a" stroke-width=".05" fill="#3a414a"/><path d="M970 643.12V601" stroke="#3a414a" fill="none"/><path d="m970 657.88-4.64-14.26h9.28z" stroke="#3a414a" fill="#3a414a"/><path d="M970.5 601h-1v-.5h1z" stroke="#3a414a" stroke-width=".05" fill="#3a414a"/><path d="M970 721v42.12" stroke="#3a414a" fill="none"/><path d="m970 720.5.5-.02v.53h-1v-.54z" stroke="#3a414a" stroke-width=".05" fill="#3a414a"/><path d="m970 777.88-4.64-14.26h9.28z" stroke="#3a414a" fill="#3a414a"/><path d="M1070 659v-42.12" stroke="#3a414a" fill="none"/><path d="m1070.5 659.54-.5-.04-.5.02V659h1z" stroke="#3a414a" stroke-width=".05" fill="#3a414a"/><path d="m1070 602.12 4.64 14.26h-9.28z" stroke="#3a414a" fill="#3a414a"/><path d="M1070 736.88V779" stroke="#3a414a" fill="none"/><path d="m1070 722.12 4.64 14.26h-9.28z" stroke="#3a414a" fill="#3a414a"/><path d="M1070.5 779.5h-1v-.5h1z" stroke="#3a414a" stroke-width=".05" fill="#3a414a"/><path d="M860 210c0 16.57-13.43 30-30 30s-30-13.43-30-30 13.43-30 30-30 30 13.43 30 30z" stroke="#3a414a" fill="#fff"/><use xlink:href="#j" transform="translate(809.336 212.639)"/><path d="M860 270c0 16.57-13.43 30-30 30s-30-13.43-30-30 13.43-30 30-30 30 13.43 30 30z" stroke="#3a414a" fill="#fff"/><use xlink:href="#c" transform="translate(818.889 266.389)"/><use xlink:href="#d" transform="translate(814.29 279.722)"/><path d="M920 986a6 6 0 0 1 6-6h188a6 6 0 0 1 6 6v108a6 6 0 0 1-6 6H926a6 6 0 0 1-6-6z" stroke="#3a414a" fill="#fff"/><use xlink:href="#k" transform="translate(995.809 1046.153)"/><path d="M1020 979.04V901" stroke="#3a414a" fill="none"/><path d="M1020.5 979.54h-1v-.52h1zm0-78.54h-1v-.5h1z" stroke="#3a414a" stroke-width=".05" fill="#3a414a"/><path d="M540 180h200v120H540z" stroke="#3a414a" fill="#fff"/><use xlink:href="#a" transform="translate(556.765 246.153)"/><use xlink:href="#l" transform="translate(654.05 246.153)"/><path d="M540 386a6 6 0 0 1 6-6h188a6 6 0 0 1 6 6v108a6 6 0 0 1-6 6H546a6 6 0 0 1-6-6z" stroke="#3a414a" fill="#fff"/><use xlink:href="#f" transform="translate(561.58 446.153)"/><use xlink:href="#m" transform="translate(614.605 446.153)"/><path d="M640 379.04V301" stroke="#3a414a" fill="none"/><path d="M640.5 379.54h-1v-.52h1zm0-78.54h-1v-.5h1z" stroke="#3a414a" stroke-width=".05" fill="#3a414a"/><path d="M919.04 1040h-5.06m-5.06 0h-10.1m-5.06 0h-10.12m-5.05 0h-10.13m-5.05 0h-10.1m-5.07 0h-10.1m-5.07 0h-10.1m-5.07 0h-10.1m-5.06 0h-10.1m-5.07 0h-10.1m-5.06 0h-10.1m-5.06 0h-10.12m-5.05 0h-10.1m-5.07 0h-10.1m-5.07 0h-10.1m-5.07 0h-10.1m-5.07 0h-10.12m-5.06 0h-10.1m-5.06 0H646l-.94-.07-.9-.22-.88-.35-.8-.5-.72-.6-.6-.72-.5-.8-.37-.88-.23-.9V1030m0-4.93v-9.87m0-4.93v-9.87m0-4.94v-9.86m0-4.94v-9.87m0-4.94V956m0-4.94v-9.87m0-4.95v-9.86m0-4.95v-9.87m0-4.93-.02-9.87m0-4.93v-9.87m0-4.94v-9.86m0-4.94v-9.87m0-4.93v-9.87m0-4.93v-9.87m0-4.94v-9.86m0-4.94v-9.87m0-4.93v-9.87m0-4.93v-9.87m-.02-4.94v-9.87m0-4.93v-9.87m0-4.93v-9.87m0-4.93v-9.87m0-4.94v-9.86m0-4.93v-9.86m0-4.93v-9.86m0-4.94v-9.86m0-4.94v-9.87m0-4.93-.02-9.87m0-4.93v-9.87m0-4.94v-9.87m0-4.94v-9.88m0-4.93v-9.88m0-4.93v-9.88m0-4.94v-9.86m0-4.94v-4.93" stroke="#3a414a" fill="none"/><path d="M919.54 1040.5h-.52v-1h.52z" stroke="#3a414a" stroke-width=".05" fill="#3a414a"/><path d="m640 502.08 4.64 14.27h-9.28z" stroke="#3a414a" fill="#3a414a"/><path d="M876.88 210H919" stroke="#3a414a" fill="none"/><path d="m862.12 210 14.26-4.64v9.28z" stroke="#3a414a" fill="#3a414a"/><path d="M919.5 210.5h-.5v-1h.5z" stroke="#3a414a" stroke-width=".05" fill="#3a414a"/><path d="M861 270h42.12" stroke="#3a414a" fill="none"/><path d="M861 270.5h-.54l.04-.5-.02-.5h.53z" stroke="#3a414a" stroke-width=".05" fill="#3a414a"/><path d="m917.88 270-14.26 4.64v-9.28z" stroke="#3a414a" fill="#3a414a"/><path d="M799 210h-42.12" stroke="#3a414a" fill="none"/><path d="m799.5 210 .02.5H799v-1h.54z" stroke="#3a414a" stroke-width=".05" fill="#3a414a"/><path d="m742.12 210 14.26-4.64v9.28z" stroke="#3a414a" fill="#3a414a"/><path d="M783.12 270H741" stroke="#3a414a" fill="none"/><path d="m797.88 270-14.26 4.64v-9.28z" stroke="#3a414a" fill="#3a414a"/><path d="M741 270.5h-.5v-1h.5z" stroke="#3a414a" stroke-width=".05" fill="#3a414a"/><defs><path fill="#3a414a" d="M127-220V0H93v-220H8v-28h204v28h-85" id="n"/><path fill="#3a414a" d="M100-194c63 0 86 42 84 106H49c0 40 14 67 53 68 26 1 43-12 49-29l28 8c-11 28-37 45-77 45C44 4 14-33 15-96c1-61 26-98 85-98zm52 81c6-60-76-77-97-28-3 7-6 17-6 28h103" id="o"/><path fill="#3a414a" d="M210-169c-67 3-38 105-44 169h-31v-121c0-29-5-50-35-48C34-165 62-65 56 0H25l-1-190h30c1 10-1 24 2 32 10-44 99-50 107 0 11-21 27-35 58-36 85-2 47 119 55 194h-31v-121c0-29-5-49-35-48" id="p"/><path fill="#3a414a" d="M115-194c55 1 70 41 70 98S169 2 115 4C84 4 66-9 55-30l1 105H24l-1-265h31l2 30c10-21 28-34 59-34zm-8 174c40 0 45-34 45-75s-6-73-45-74c-42 0-51 32-51 76 0 43 10 73 51 73" id="q"/><path fill="#3a414a" d="M100-194c62-1 85 37 85 99 1 63-27 99-86 99S16-35 15-95c0-66 28-99 85-99zM99-20c44 1 53-31 53-75 0-43-8-75-51-75s-53 32-53 75 10 74 51 75" id="r"/><path fill="#3a414a" d="M114-163C36-179 61-72 57 0H25l-1-190h30c1 12-1 29 2 39 6-27 23-49 58-41v29" id="s"/><path fill="#3a414a" d="M141-36C126-15 110 5 73 4 37 3 15-17 15-53c-1-64 63-63 125-63 3-35-9-54-41-54-24 1-41 7-42 31l-33-3c5-37 33-52 76-52 45 0 72 20 72 64v82c-1 20 7 32 28 27v20c-31 9-61-2-59-35zM48-53c0 20 12 33 32 33 41-3 63-29 60-74-43 2-92-5-92 41" id="t"/><path fill="#3a414a" d="M24 0v-261h32V0H24" id="u"/><path fill="#3a414a" d="M212-179c-10-28-35-45-73-45-59 0-87 40-87 99 0 60 29 101 89 101 43 0 62-24 78-52l27 14C228-24 195 4 139 4 59 4 22-46 18-125c-6-104 99-153 187-111 19 9 31 26 39 46" id="v"/><path fill="#3a414a" d="M24-231v-30h32v30H24zM24 0v-190h32V0H24" id="w"/><path fill="#3a414a" d="M117-194c89-4 53 116 60 194h-32v-121c0-31-8-49-39-48C34-167 62-67 57 0H25l-1-190h30c1 10-1 24 2 32 11-22 29-35 61-36" id="x"/><path fill="#3a414a" d="M59-47c-2 24 18 29 38 22v24C64 9 27 4 27-40v-127H5v-23h24l9-43h21v43h35v23H59v120" id="y"/><path fill="#3a414a" d="M30 0v-248h187v28H63v79h144v27H63v87h162V0H30" id="z"/><path fill="#3a414a" d="M96-169c-40 0-48 33-48 73s9 75 48 75c24 0 41-14 43-38l32 2c-6 37-31 61-74 61-59 0-76-41-82-99-10-93 101-131 147-64 4 7 5 14 7 22l-32 3c-4-21-16-35-41-35" id="A"/><path fill="#3a414a" d="M33 0v-38h34V0H33" id="B"/><path fill="#3a414a" d="M233-177c-1 41-23 64-60 70L243 0h-38l-65-103H63V0H30v-248c88 3 205-21 203 71zM63-129c60-2 137 13 137-47 0-61-80-42-137-45v92" id="C"/><path fill="#3a414a" d="M135-143c-3-34-86-38-87 0 15 53 115 12 119 90S17 21 10-45l28-5c4 36 97 45 98 0-10-56-113-15-118-90-4-57 82-63 122-42 12 7 21 19 24 35" id="D"/><path fill="#3a414a" d="M84 4C-5 8 30-112 23-190h32v120c0 31 7 50 39 49 72-2 45-101 50-169h31l1 190h-30c-1-10 1-25-2-33-11 22-28 36-60 37" id="E"/><path fill="#3a414a" d="M30-248c118-7 216 8 213 122C240-48 200 0 122 0H30v-248zM63-27c89 8 146-16 146-99s-60-101-146-95v194" id="F"/><path fill="#3a414a" d="M108 0H70L1-190h34L89-25l56-165h34" id="G"/><path fill="#3a414a" d="M85-194c31 0 48 13 60 33l-1-100h32l1 261h-30c-2-10 0-23-3-31C134-8 116 4 85 4 32 4 16-35 15-94c0-66 23-100 70-100zm9 24c-40 0-46 34-46 75 0 40 6 74 45 74 42 0 51-32 51-76 0-42-9-74-50-73" id="H"/><path fill="#3a414a" d="M185-189c-5-48-123-54-124 2 14 75 158 14 163 119 3 78-121 87-175 55-17-10-28-26-33-46l33-7c5 56 141 63 141-1 0-78-155-14-162-118-5-82 145-84 179-34 5 7 8 16 11 25" id="I"/><path fill="#3a414a" d="M145-31C134-9 116 4 85 4 32 4 16-35 15-94c0-59 17-99 70-100 32-1 48 14 60 33 0-11-1-24 2-32h30l-1 268h-32zM93-21c41 0 51-33 51-76s-8-73-50-73c-40 0-46 35-46 75s5 74 45 74" id="J"/><path fill="#3a414a" d="M194 0 95-120 63-95V0H30v-248h33v124l119-124h40L117-140 236 0h-42" id="K"/><path fill="#3a414a" d="M179-190 93 31C79 59 56 82 12 73V49c39 6 53-20 64-50L1-190h34L92-34l54-156h33" id="L"/><g id="a"><use transform="rotate(.413) scale(.06173)" xlink:href="#n"/><use transform="translate(11.05) scale(.06173)" xlink:href="#o"/><use transform="translate(23.395) scale(.06173)" xlink:href="#p"/><use transform="translate(41.852) scale(.06173)" xlink:href="#q"/><use transform="translate(54.198) scale(.06173)" xlink:href="#r"/><use transform="translate(66.543) scale(.06173)" xlink:href="#s"/><use transform="translate(73.889) scale(.06173)" xlink:href="#t"/><use transform="translate(86.235) scale(.06173)" xlink:href="#u"/></g><g id="b"><use transform="rotate(.413) scale(.06173)" xlink:href="#v"/><use transform="translate(15.988) scale(.06173)" xlink:href="#u"/><use transform="translate(20.864) scale(.06173)" xlink:href="#w"/><use transform="translate(25.74) scale(.06173)" xlink:href="#o"/><use transform="translate(38.086) scale(.06173)" xlink:href="#x"/><use transform="translate(50.432) scale(.06173)" xlink:href="#y"/></g><g id="c"><use transform="scale(.03086)" xlink:href="#z"/><use transform="translate(7.407) scale(.03086)" xlink:href="#x"/><use transform="translate(13.58) scale(.03086)" xlink:href="#A"/><use transform="translate(19.136) scale(.03086)" xlink:href="#B"/></g><g id="d"><use transform="scale(.03086)" xlink:href="#C"/><use transform="translate(7.994) scale(.03086)" xlink:href="#o"/><use transform="translate(14.167) scale(.03086)" xlink:href="#D"/><use transform="translate(19.722) scale(.03086)" xlink:href="#E"/><use transform="translate(25.895) scale(.03086)" xlink:href="#u"/><use transform="translate(28.333) scale(.03086)" xlink:href="#y"/></g><g id="e"><use transform="scale(.03086)" xlink:href="#F"/><use transform="translate(7.994) scale(.03086)" xlink:href="#o"/><use transform="translate(14.167) scale(.03086)" xlink:href="#A"/><use transform="translate(19.722) scale(.03086)" xlink:href="#B"/></g><g id="f"><use transform="rotate(.413) scale(.06173)" xlink:href="#F"/><use transform="translate(15.988) scale(.06173)" xlink:href="#t"/><use transform="translate(28.333) scale(.06173)" xlink:href="#y"/><use transform="translate(34.506) scale(.06173)" xlink:href="#t"/></g><g id="g"><use transform="rotate(.413) scale(.06173)" xlink:href="#v"/><use transform="translate(15.988) scale(.06173)" xlink:href="#r"/><use transform="translate(28.333) scale(.06173)" xlink:href="#x"/><use transform="translate(40.679) scale(.06173)" xlink:href="#G"/><use transform="translate(51.79) scale(.06173)" xlink:href="#o"/><use transform="translate(64.136) scale(.06173)" xlink:href="#s"/><use transform="translate(71.481) scale(.06173)" xlink:href="#y"/><use transform="translate(77.654) scale(.06173)" xlink:href="#o"/><use transform="translate(90) scale(.06173)" xlink:href="#s"/></g><g id="h"><use transform="rotate(.413) scale(.06173)" xlink:href="#v"/><use transform="translate(15.988) scale(.06173)" xlink:href="#r"/><use transform="translate(28.333) scale(.06173)" xlink:href="#H"/><use transform="translate(40.679) scale(.06173)" xlink:href="#o"/><use transform="translate(53.025) scale(.06173)" xlink:href="#A"/></g><g id="i"><use transform="rotate(.413) scale(.06173)" xlink:href="#I"/><use transform="translate(14.815) scale(.06173)" xlink:href="#o"/><use transform="translate(27.16) scale(.06173)" xlink:href="#s"/><use transform="translate(34.506) scale(.06173)" xlink:href="#G"/><use transform="translate(45.617) scale(.06173)" xlink:href="#o"/><use transform="translate(57.963) scale(.06173)" xlink:href="#s"/></g><g id="j"><use transform="scale(.03086)" xlink:href="#C"/><use transform="translate(7.994) scale(.03086)" xlink:href="#o"/><use transform="translate(14.167) scale(.03086)" xlink:href="#J"/><use transform="translate(20.34) scale(.03086)" xlink:href="#E"/><use transform="translate(26.512) scale(.03086)" xlink:href="#o"/><use transform="translate(32.685) scale(.03086)" xlink:href="#D"/><use transform="translate(38.24) scale(.03086)" xlink:href="#y"/></g><g id="k"><use transform="rotate(.413) scale(.06173)" xlink:href="#K"/><use transform="translate(14.815) scale(.06173)" xlink:href="#o"/><use transform="translate(27.16) scale(.06173)" xlink:href="#L"/><use transform="translate(38.272) scale(.06173)" xlink:href="#D"/></g><g id="l"><use transform="rotate(.413) scale(.06173)" xlink:href="#v"/><use transform="translate(15.988) scale(.06173)" xlink:href="#u"/><use transform="translate(20.864) scale(.06173)" xlink:href="#E"/><use transform="translate(33.21) scale(.06173)" xlink:href="#D"/><use transform="translate(44.321) scale(.06173)" xlink:href="#y"/><use transform="translate(50.494) scale(.06173)" xlink:href="#o"/><use transform="translate(62.84) scale(.06173)" xlink:href="#s"/></g><g id="m"><use transform="rotate(.413) scale(.06173)" xlink:href="#z"/><use transform="translate(14.815) scale(.06173)" xlink:href="#x"/><use transform="translate(27.16) scale(.06173)" xlink:href="#A"/><use transform="translate(38.272) scale(.06173)" xlink:href="#s"/><use transform="translate(45.617) scale(.06173)" xlink:href="#L"/><use transform="translate(56.728) scale(.06173)" xlink:href="#q"/><use transform="translate(69.074) scale(.06173)" xlink:href="#y"/><use transform="translate(75.247) scale(.06173)" xlink:href="#w"/><use transform="translate(80.123) scale(.06173)" xlink:href="#r"/><use transform="translate(92.47) scale(.06173)" xlink:href="#x"/></g></defs></g></svg>