<svg xmlns="http://www.w3.org/2000/svg" xmlns:xlink="http://www.w3.org/1999/xlink" xmlns:lucid="lucid" width="1240" height="1440"><g transform="translate(-480.16475516143623 -260)" lucid:page-tab-id="0_0"><path d="M0 0h1870.87v2581.67H0z" fill="#fff"/><path d="M500.17 280h1200v1400h-1200z" stroke="#000" stroke-opacity="0" fill-opacity="0"/><path d="M700.16 1200h800v360h-800z" fill-opacity="0"/><path d="M710.23 1200h10.06m5.02 0h10.06m5.04 0h10.06m5.03 0h10.07m5.03 0h10.07m5.03 0h10.06m5.03 0h10.06m5.03 0h10.05m5.03 0h10.06m5.04 0h10.06m5.03 0h10.06m5.03 0h10.07m5.03 0h10.06m5.03 0h10.07m5.03 0h10.06m5.04 0h10.07m5.04 0h10.06m5.03 0h10.06m5.03 0H992m5.02 0h10.06m5.03 0h10.08m5.03 0h10.07m5.03 0h10.07m5.03 0h10.06m5.03 0h10.06m5.03 0h10.05m5.03 0h10.06m5.04 0h10.06m5.03 0h10.06m5.03 0h10.07m5.03 0h10.06m5.03 0h10.06m5.05 0h10.06m5.04 0h10.06m5.03 0h10.07m5.03 0h10.06m5.02 0h10.07m5.02 0h10.06m5.03 0h10.08m5.03 0h10.07m5.03 0h10.06m5.04 0h10.06m5.03 0h10.05m5.03 0h10.07m5.03 0h10.06m5.03 0h10.07m5.03 0h10.06m5.03 0h10.06m5.04 0h10.06m5.03 0h10.06m5.04 0H1475m5.04 0h10.06m5.03 0h5.03v5m0 5v10m0 5v10m0 5v10m0 5v10m0 5v10m0 5v10m0 5v10m0 5v10m0 5v10m0 5v10m0 5v10m0 5v10m0 5v10m0 5v10m0 5v10m0 5v10m0 5v10m0 5v10m0 5v10m0 5v10m0 5v10m0 5v10m0 5v10m0 5v5h-5.03m-5.03 0h-10.06m-5.03 0h-10.06m-5.03 0h-10.05m-5.03 0h-10.06m-5.04 0h-10.06m-5.03 0h-10.06m-5.03 0h-10.07m-5.03 0h-10.06m-5.03 0h-10.07m-5.03 0h-10.06m-5.04 0h-10.06m-5.04 0H1314m-5.03 0h-10.06m-5.03 0h-10.06m-5.02 0h-10.06m-5.03 0h-10.08m-5.03 0h-10.07m-5.03 0h-10.07m-5.03 0h-10.06m-5.03 0h-10.05m-5.04 0h-10.05m-5.03 0h-10.06m-5.03 0h-10.07m-5.03 0h-10.06m-5.03 0h-10.06m-5.04 0h-10.06m-5.03 0h-10.06m-5.04 0h-10.07m-5.04 0h-10.06m-5.03 0h-10.07m-5.03 0h-10.06m-5.02 0h-10.07m-5.02 0h-10.06m-5.03 0h-10.07m-5.04 0h-10.07m-5.03 0h-10.06m-5.03 0h-10.06m-5.03 0h-10.05m-5.03 0h-10.07m-5.03 0h-10.06m-5.03 0h-10.07m-5.03 0h-10.06m-5.03 0h-10.06m-5.04 0H831m-5.03 0H815.9m-5.04 0H800.8m-5.04 0H785.7m-5.03 0H770.6m-5.03 0H755.5m-5.02 0h-10.06m-5.03 0H725.3m-5.03 0h-10.07m-5.03 0h-5.04v-5m0-5v-10m0-5v-10m0-5v-10m0-5v-10m0-5v-10m0-5v-10m0-5v-10m0-5v-10m0-5v-10m0-5v-10m0-5v-10m0-5v-10m0-5v-10m0-5v-10m0-5v-10m0-5v-10m0-5v-10m0-5v-10m0-5v-10m0-5v-10m0-5v-10m0-5v-10m0-5v-10m0-5v-5h5.04" stroke="#333" fill="none"/><path d="M719.34 300h160v160h-160z" stroke="#000" fill="#fff"/><use xlink:href="#a" transform="matrix(1,0,0,1,724.3409793542551,305) translate(36.141975308641975 64.65277777777777)"/><use xlink:href="#b" transform="matrix(1,0,0,1,724.3409793542551,305) translate(39.87654320987654 91.31944444444446)"/><path d="M1019.34 300h160v160h-160z" stroke="#000" fill="#fff"/><use xlink:href="#c" transform="matrix(1,0,0,1,1024.340979354255,305) translate(11.913580246913583 78.71527777777777)"/><use xlink:href="#d" transform="matrix(1,0,0,1,1024.340979354255,305) translate(62.901234567901234 78.71527777777777)"/><path d="M1319.5 300h160v160h-160z" stroke="#000" fill="#fff"/><use xlink:href="#c" transform="matrix(1,0,0,1,1324.5057345156913,305) translate(32.25308641975309 78.71527777777777)"/><use xlink:href="#e" transform="matrix(1,0,0,1,1324.5057345156913,305) translate(83.24074074074073 78.71527777777777)"/><path d="M699.5 542.3h800v200h-800z" stroke="#000" fill="#fff"/><path d="M719.34 622.3h760v100h-760z" stroke="#000" fill="#fff"/><use xlink:href="#f" transform="matrix(1,0,0,1,724.3409793542551,627.3059222521802) translate(298.55555555555554 48.71527777777778)"/><use xlink:href="#g" transform="matrix(1,0,0,1,724.3409793542551,627.3059222521802) translate(395.8395061728395 48.71527777777778)"/><path d="M799.34 476.88v24.2a.08.08 0 0 0 .08.07.08.08 0 0 1 .1.1v24.17" stroke="#000" fill="none"/><path d="M799.34 462.12l4.64 14.26h-9.27zM799.5 540.2l-4.63-14.28h9.27z" stroke="#000"/><path d="M1099.34 476.88v24.2a.08.08 0 0 0 .08.07.08.08 0 0 1 .1.1v24.17" stroke="#000" fill="none"/><path d="M1099.34 462.12l4.64 14.26h-9.27zM1099.5 540.2l-4.63-14.28h9.27z" stroke="#000"/><path d="M1399.5 476.88v48.54" stroke="#000" fill="none"/><path d="M1399.5 462.12l4.64 14.26h-9.27zM1399.5 540.2l-4.63-14.28h9.27z" stroke="#000"/><path d="M700 921.3h800v116.4H700z" stroke="#000" fill="#fff"/><use xlink:href="#f" transform="matrix(1,0,0,1,705,926.2940184302697) translate(311.2654320987654 57.90277777777778)"/><use xlink:href="#h" transform="matrix(1,0,0,1,705,926.2940184302697) translate(408.54938271604937 57.90277777777778)"/><path d="M740 1380h160v160H740z" stroke="#000" fill="#fff"/><use xlink:href="#i" transform="matrix(1,0,0,1,744.9999999999998,1385) translate(39.50617283950618 50.59027777777778)"/><use xlink:href="#j" transform="matrix(1,0,0,1,744.9999999999998,1385) translate(34.90740740740741 77.25694444444446)"/><use xlink:href="#k" transform="matrix(1,0,0,1,744.9999999999998,1385) translate(68.82716049382717 103.92361111111111)"/><path d="M1300 739.2V799" stroke="#000" fill="none"/><path d="M1300 724.42l4.63 14.27h-9.27z" stroke="#000"/><path d="M1300.5 799.53l-.5-.03-.5.02V799h1z" stroke="#000" stroke-width=".05"/><path d="M1300 882.3v38" stroke="#000" fill="none"/><path d="M1300 881.8l.5-.02v.54h-1v-.54zM1300.5 920.8h-1v-.52h1z" stroke="#000" stroke-width=".05"/><path d="M1340.65 840.65c0 22.46-18.2 40.66-40.65 40.66s-40.65-18.2-40.65-40.65S1277.55 800 1300 800s40.65 18.2 40.65 40.65zM1299.67 1380h160v160h-160z" stroke="#000" fill="#fff"/><use xlink:href="#i" transform="matrix(1,0,0,1,1304.6704896771278,1385) translate(39.50617283950618 50.59027777777778)"/><use xlink:href="#j" transform="matrix(1,0,0,1,1304.6704896771278,1385) translate(34.90740740740741 77.25694444444446)"/><use xlink:href="#l" transform="matrix(1,0,0,1,1304.6704896771278,1385) translate(68.82716049382717 103.92361111111111)"/><path d="M1020 1339.17c0 11.04-8.95 20-20 20s-20-8.96-20-20c0-11.05 8.95-20 20-20s20 8.95 20 20zM1120 1339.17c0 11.04-8.95 20-20 20s-20-8.96-20-20c0-11.05 8.95-20 20-20s20 8.95 20 20zM1220 1339.17c0 11.04-8.95 20-20 20s-20-8.96-20-20c0-11.05 8.95-20 20-20s20 8.95 20 20z" stroke="#5e5e5e" fill="#333"/><path d="M979.34 564.97a6 6 0 0 1 6-6h228a6 6 0 0 1 6 6v51.34a6 6 0 0 1-6 6h-228a6 6 0 0 1-6-6z" stroke="#000" stroke-opacity="0" stroke-width="3" fill="#fff" fill-opacity="0"/><use xlink:href="#c" transform="matrix(1,0,0,1,984.3409793542551,563.9725889188469) translate(28.85802469135801 21.15277777777778)"/><use xlink:href="#m" transform="matrix(1,0,0,1,984.3409793542551,563.9725889188469) translate(79.84567901234567 21.15277777777778)"/><use xlink:href="#n" transform="matrix(1,0,0,1,984.3409793542551,563.9725889188469) translate(23.703703703703695 47.81944444444444)"/><use xlink:href="#o" transform="matrix(1,0,0,1,984.3409793542551,563.9725889188469) translate(111.29629629629629 47.81944444444444)"/><use xlink:href="#p" transform="matrix(1,0,0,1,984.3409793542551,563.9725889188469) translate(123.64197530864197 47.81944444444444)"/><path d="M940.65 840.65c0 22.46-18.2 40.66-40.65 40.66s-40.65-18.2-40.65-40.65S877.55 800 900 800s40.65 18.2 40.65 40.65z" stroke="#000" fill="#fff"/><path d="M900.34 723.3v75.72" stroke="#000" fill="none"/><path d="M900.84 723.32h-1v-.5h1zM900.84 799.55l-.84-.05h-.16v-.5h1z" stroke="#000" stroke-width=".05"/><path d="M900 882.3v18.97a.03.03 0 0 1-.03.03.03.03 0 0 0-.03.03v3.08" stroke="#000" fill="none"/><path d="M900 881.8l.5-.02v.54h-1v-.54z" stroke="#000" stroke-width=".05"/><path d="M899.94 919.18l-4.64-14.27h9.28z" stroke="#000"/><path d="M1300 1054.58v23.1" stroke="#000" fill="none"/><path d="M1300 1039.8l4.63 14.28h-9.27z" stroke="#000"/><path d="M1300.5 1078.22l-.5-.03-.5.02v-.54h1z" stroke="#000" stroke-width=".05"/><path d="M1300 1161v38" stroke="#000" fill="none"/><path d="M1300 1160.5l.5-.02v.53h-1v-.53zM1300.5 1199.5h-1v-.5h1z" stroke="#000" stroke-width=".05"/><path d="M1340.65 1119.35c0 22.45-18.2 40.65-40.65 40.65s-40.65-18.2-40.65-40.65 18.2-40.66 40.65-40.66 40.65 18.2 40.65 40.65zM940.65 1119.35c0 22.45-18.2 40.65-40.65 40.65s-40.65-18.2-40.65-40.65 18.2-40.66 40.65-40.66 40.65 18.2 40.65 40.65z" stroke="#000" fill="#fff"/><path d="M900.34 1038.7v39" stroke="#000" fill="none"/><path d="M900.84 1038.7h-1v-.5h1zM900.84 1078.24l-.84-.05h-.16v-.5h1z" stroke="#000" stroke-width=".05"/><path d="M900 1161v22.12" stroke="#000" fill="none"/><path d="M900 1160.5l.5-.02v.53h-1v-.53z" stroke="#000" stroke-width=".05"/><path d="M900 1197.88l-4.63-14.26h9.26z" stroke="#000"/><path d="M979.84 1383.5a6 6 0 0 1 6-6h228a6 6 0 0 1 6 6v51.33a6 6 0 0 1-6 6h-228a6 6 0 0 1-6-6z" stroke="#000" stroke-opacity="0" stroke-width="3" fill="#fff" fill-opacity="0"/><use xlink:href="#c" transform="matrix(1,0,0,1,984.8352448385638,1382.5) translate(54.012345679012356 21.15277777777778)"/><use xlink:href="#q" transform="matrix(1,0,0,1,984.8352448385638,1382.5) translate(105 21.15277777777778)"/><use xlink:href="#r" transform="matrix(1,0,0,1,984.8352448385638,1382.5) translate(63.17901234567901 47.81944444444444)"/><path d="M941.65 840.65h28.44a.33.33 0 0 0 .3-.32.33.33 0 0 1 .34-.33h28.43" stroke="#000" fill="none"/><path d="M941.67 841.15h-.55l.03-.5-.02-.5h.54zM999.67 840.5h-.5v-1h.5z" stroke="#000" stroke-width=".05"/><path d="M1258.35 840.65h-28.6a.33.33 0 0 1-.33-.32.33.33 0 0 0-.32-.33h-28.6" stroke="#000" fill="none"/><path d="M1258.85 840.65l.02.5h-.54v-1h.55zM1200.5 840.5h-.5v-1h.5z" stroke="#000" stroke-width=".05"/><path d="M999.67 786a6 6 0 0 1 6-6H1194a6 6 0 0 1 6 6v108a6 6 0 0 1-6 6h-188.33a6 6 0 0 1-6-6z" stroke="#000" stroke-opacity="0" stroke-width="3" fill="#fff" fill-opacity="0"/><use xlink:href="#s" transform="matrix(1,0,0,1,1004.6704896771275,785) translate(65.9320987654321 31.52777777777778)"/><use xlink:href="#t" transform="matrix(1,0,0,1,1004.6704896771275,785) translate(20.9320987654321 58.19444444444445)"/><use xlink:href="#u" transform="matrix(1,0,0,1,1004.6704896771275,785) translate(51.08641975308642 84.86111111111111)"/><path d="M941.65 1119.35h57.53" stroke="#000" fill="none"/><path d="M941.67 1119.85h-.55l.03-.5-.02-.5h.54zM999.67 1119.85h-.5v-1h.5z" stroke="#000" stroke-width=".05"/><path d="M1258.38 1118.85h-57.88" stroke="#000" fill="none"/><path d="M1258.85 1119.34h-.5v-1h.56zM1200.5 1119.35h-.5v-1h.5z" stroke="#000" stroke-width=".05"/><path d="M999.67 1064.85a6 6 0 0 1 6-6H1194a6 6 0 0 1 6 6v108a6 6 0 0 1-6 6h-188.33a6 6 0 0 1-6-6z" stroke="#000" stroke-opacity="0" stroke-width="3" fill="#fff" fill-opacity="0"/><g><use xlink:href="#s" transform="matrix(1,0,0,1,1004.6704896771275,1063.84703887391) translate(65.9320987654321 31.52777777777778)"/><use xlink:href="#t" transform="matrix(1,0,0,1,1004.6704896771275,1063.84703887391) translate(20.9320987654321 58.19444444444445)"/><use xlink:href="#u" transform="matrix(1,0,0,1,1004.6704896771275,1063.84703887391) translate(51.08641975308642 84.86111111111111)"/></g><path d="M740 1220h160v100H740z" stroke="#333" fill="#fff"/><g><use xlink:href="#v" transform="matrix(1,0,0,1,744.9999999999997,1225) translate(29.444444444444443 37.46527777777778)"/><use xlink:href="#g" transform="matrix(1,0,0,1,744.9999999999997,1225) translate(46.69753086419753 64.13194444444446)"/></g><path d="M820 1363.12v-26.24" stroke="#000" fill="none"/><path d="M820 1377.88l-4.63-14.26h9.26zM820 1322.12l4.63 14.26h-9.26z" stroke="#000"/><path d="M1380.55 1336.88v26.24" stroke="#000" fill="none"/><path d="M1380.55 1322.12l4.64 14.26h-9.28zM1380.55 1377.88l-4.63-14.26h9.27z" stroke="#000"/><path d="M700 1619.33a6 6 0 0 1 6-6h788a6 6 0 0 1 6 6V1674a6 6 0 0 1-6 6H706a6 6 0 0 1-6-6z" stroke="#000" stroke-opacity="0" stroke-width="3" fill="#fff" fill-opacity="0"/><g><use xlink:href="#w" transform="matrix(1,0,0,1,705,1618.3333333333335) translate(47.83950617283949 32.02777777777778)"/><use xlink:href="#x" transform="matrix(1,0,0,1,705,1618.3333333333335) translate(124.99999999999997 32.02777777777778)"/><use xlink:href="#y" transform="matrix(1,0,0,1,705,1618.3333333333335) translate(234.81481481481478 32.02777777777778)"/><use xlink:href="#z" transform="matrix(1,0,0,1,705,1618.3333333333335) translate(273.02469135802465 32.02777777777778)"/><use xlink:href="#A" transform="matrix(1,0,0,1,705,1618.3333333333335) translate(322.3456790123456 32.02777777777778)"/><use xlink:href="#B" transform="matrix(1,0,0,1,705,1618.3333333333335) translate(434.5061728395061 32.02777777777778)"/><use xlink:href="#C" transform="matrix(1,0,0,1,705,1618.3333333333335) translate(488.82716049382714 32.02777777777778)"/><use xlink:href="#D" transform="matrix(1,0,0,1,705,1618.3333333333335) translate(604.1358024691358 32.02777777777778)"/><use xlink:href="#E" transform="matrix(1,0,0,1,705,1618.3333333333335) translate(647.3456790123457 32.02777777777778)"/></g><path d="M1100 1612.83V1587a.08.08 0 0 1 .08-.08.08.08 0 0 0 .1-.1l-.02-25.82" stroke="#000" fill="none"/><path d="M1100.5 1613.33h-1v-.5h1zM1100.66 1561h-1v-.5h1z" stroke="#000" stroke-width=".05"/><path d="M1299.67 1220h160v100h-160z" stroke="#333" fill="#fff"/><g><use xlink:href="#F" transform="matrix(1,0,0,1,1304.6704896771278,1225) translate(29.444444444444443 37.46527777777778)"/><use xlink:href="#G" transform="matrix(1,0,0,1,1304.6704896771278,1225) translate(46.69753086419753 64.13194444444446)"/></g><defs><path fill="#333" d="M205 0l-28-72H64L36 0H1l101-248h38L239 0h-34zm-38-99l-47-123c-12 45-31 82-46 123h93" id="H"/><path fill="#333" d="M117-194c89-4 53 116 60 194h-32v-121c0-31-8-49-39-48C34-167 62-67 57 0H25l-1-190h30c1 10-1 24 2 32 11-22 29-35 61-36" id="I"/><path fill="#333" d="M100-194c62-1 85 37 85 99 1 63-27 99-86 99S16-35 15-95c0-66 28-99 85-99zM99-20c44 1 53-31 53-75 0-43-8-75-51-75s-53 32-53 75 10 74 51 75" id="J"/><path fill="#333" d="M59-47c-2 24 18 29 38 22v24C64 9 27 4 27-40v-127H5v-23h24l9-43h21v43h35v23H59v120" id="K"/><path fill="#333" d="M106-169C34-169 62-67 57 0H25v-261h32l-1 103c12-21 28-36 61-36 89 0 53 116 60 194h-32v-121c2-32-8-49-39-48" id="L"/><path fill="#333" d="M100-194c63 0 86 42 84 106H49c0 40 14 67 53 68 26 1 43-12 49-29l28 8c-11 28-37 45-77 45C44 4 14-33 15-96c1-61 26-98 85-98zm52 81c6-60-76-77-97-28-3 7-6 17-6 28h103" id="M"/><path fill="#333" d="M114-163C36-179 61-72 57 0H25l-1-190h30c1 12-1 29 2 39 6-27 23-49 58-41v29" id="N"/><g id="a"><use transform="matrix(0.06172839506172839,0,0,0.06172839506172839,0,0)" xlink:href="#H"/><use transform="matrix(0.06172839506172839,0,0,0.06172839506172839,14.814814814814813,0)" xlink:href="#I"/><use transform="matrix(0.06172839506172839,0,0,0.06172839506172839,27.160493827160494,0)" xlink:href="#J"/><use transform="matrix(0.06172839506172839,0,0,0.06172839506172839,39.50617283950617,0)" xlink:href="#K"/><use transform="matrix(0.06172839506172839,0,0,0.06172839506172839,45.67901234567901,0)" xlink:href="#L"/><use transform="matrix(0.06172839506172839,0,0,0.06172839506172839,58.02469135802469,0)" xlink:href="#M"/><use transform="matrix(0.06172839506172839,0,0,0.06172839506172839,70.37037037037037,0)" xlink:href="#N"/></g><path fill="#333" d="M135-143c-3-34-86-38-87 0 15 53 115 12 119 90S17 21 10-45l28-5c4 36 97 45 98 0-10-56-113-15-118-90-4-57 82-63 122-42 12 7 21 19 24 35" id="O"/><path fill="#333" d="M108 0H70L1-190h34L89-25l56-165h34" id="P"/><path fill="#333" d="M24-231v-30h32v30H24zM24 0v-190h32V0H24" id="Q"/><path fill="#333" d="M96-169c-40 0-48 33-48 73s9 75 48 75c24 0 41-14 43-38l32 2c-6 37-31 61-74 61-59 0-76-41-82-99-10-93 101-131 147-64 4 7 5 14 7 22l-32 3c-4-21-16-35-41-35" id="R"/><g id="b"><use transform="matrix(0.06172839506172839,0,0,0.06172839506172839,0,0)" xlink:href="#O"/><use transform="matrix(0.06172839506172839,0,0,0.06172839506172839,11.11111111111111,0)" xlink:href="#M"/><use transform="matrix(0.06172839506172839,0,0,0.06172839506172839,23.45679012345679,0)" xlink:href="#N"/><use transform="matrix(0.06172839506172839,0,0,0.06172839506172839,30.80246913580247,0)" xlink:href="#P"/><use transform="matrix(0.06172839506172839,0,0,0.06172839506172839,41.91358024691358,0)" xlink:href="#Q"/><use transform="matrix(0.06172839506172839,0,0,0.06172839506172839,46.79012345679013,0)" xlink:href="#R"/><use transform="matrix(0.06172839506172839,0,0,0.06172839506172839,57.90123456790124,0)" xlink:href="#M"/></g><path fill="#333" d="M137-103V0h-34v-103L8-248h37l75 118 75-118h37" id="S"/><path fill="#333" d="M84 4C-5 8 30-112 23-190h32v120c0 31 7 50 39 49 72-2 45-101 50-169h31l1 190h-30c-1-10 1-25-2-33-11 22-28 36-60 37" id="T"/><g id="c"><use transform="matrix(0.06172839506172839,0,0,0.06172839506172839,0,0)" xlink:href="#S"/><use transform="matrix(0.06172839506172839,0,0,0.06172839506172839,12.777777777777777,0)" xlink:href="#J"/><use transform="matrix(0.06172839506172839,0,0,0.06172839506172839,25.123456790123456,0)" xlink:href="#T"/><use transform="matrix(0.06172839506172839,0,0,0.06172839506172839,37.46913580246913,0)" xlink:href="#N"/></g><path fill="#333" d="M206 0h-36l-40-164L89 0H53L-1-190h32L70-26l43-164h34l41 164 42-164h31" id="U"/><path fill="#333" d="M115-194c53 0 69 39 70 98 0 66-23 100-70 100C84 3 66-7 56-30L54 0H23l1-261h32v101c10-23 28-34 59-34zm-8 174c40 0 45-34 45-75 0-40-5-75-45-74-42 0-51 32-51 76 0 43 10 73 51 73" id="V"/><g id="d"><use transform="matrix(0.06172839506172839,0,0,0.06172839506172839,0,0)" xlink:href="#U"/><use transform="matrix(0.06172839506172839,0,0,0.06172839506172839,15.987654320987653,0)" xlink:href="#M"/><use transform="matrix(0.06172839506172839,0,0,0.06172839506172839,28.333333333333332,0)" xlink:href="#V"/><use transform="matrix(0.06172839506172839,0,0,0.06172839506172839,40.67901234567901,0)" xlink:href="#O"/><use transform="matrix(0.06172839506172839,0,0,0.06172839506172839,51.79012345679013,0)" xlink:href="#Q"/><use transform="matrix(0.06172839506172839,0,0,0.06172839506172839,56.66666666666667,0)" xlink:href="#K"/><use transform="matrix(0.06172839506172839,0,0,0.06172839506172839,62.83950617283951,0)" xlink:href="#M"/></g><path fill="#333" d="M212-179c-10-28-35-45-73-45-59 0-87 40-87 99 0 60 29 101 89 101 43 0 62-24 78-52l27 14C228-24 195 4 139 4 59 4 22-46 18-125c-6-104 99-153 187-111 19 9 31 26 39 46" id="W"/><path fill="#333" d="M30 0v-248h33v221h125V0H30" id="X"/><path fill="#333" d="M33 0v-248h34V0H33" id="Y"/><g id="e"><use transform="matrix(0.06172839506172839,0,0,0.06172839506172839,0,0)" xlink:href="#W"/><use transform="matrix(0.06172839506172839,0,0,0.06172839506172839,15.987654320987653,0)" xlink:href="#X"/><use transform="matrix(0.06172839506172839,0,0,0.06172839506172839,28.333333333333332,0)" xlink:href="#Y"/></g><path fill="#333" d="M127-220V0H93v-220H8v-28h204v28h-85" id="Z"/><path fill="#333" d="M210-169c-67 3-38 105-44 169h-31v-121c0-29-5-50-35-48C34-165 62-65 56 0H25l-1-190h30c1 10-1 24 2 32 10-44 99-50 107 0 11-21 27-35 58-36 85-2 47 119 55 194h-31v-121c0-29-5-49-35-48" id="aa"/><path fill="#333" d="M115-194c55 1 70 41 70 98S169 2 115 4C84 4 66-9 55-30l1 105H24l-1-265h31l2 30c10-21 28-34 59-34zm-8 174c40 0 45-34 45-75s-6-73-45-74c-42 0-51 32-51 76 0 43 10 73 51 73" id="ab"/><path fill="#333" d="M141-36C126-15 110 5 73 4 37 3 15-17 15-53c-1-64 63-63 125-63 3-35-9-54-41-54-24 1-41 7-42 31l-33-3c5-37 33-52 76-52 45 0 72 20 72 64v82c-1 20 7 32 28 27v20c-31 9-61-2-59-35zM48-53c0 20 12 33 32 33 41-3 63-29 60-74-43 2-92-5-92 41" id="ac"/><path fill="#333" d="M24 0v-261h32V0H24" id="ad"/><g id="f"><use transform="matrix(0.06172839506172839,0,0,0.06172839506172839,0,0)" xlink:href="#Z"/><use transform="matrix(0.06172839506172839,0,0,0.06172839506172839,11.049382716049381,0)" xlink:href="#M"/><use transform="matrix(0.06172839506172839,0,0,0.06172839506172839,23.39506172839506,0)" xlink:href="#aa"/><use transform="matrix(0.06172839506172839,0,0,0.06172839506172839,41.85185185185185,0)" xlink:href="#ab"/><use transform="matrix(0.06172839506172839,0,0,0.06172839506172839,54.197530864197525,0)" xlink:href="#J"/><use transform="matrix(0.06172839506172839,0,0,0.06172839506172839,66.5432098765432,0)" xlink:href="#N"/><use transform="matrix(0.06172839506172839,0,0,0.06172839506172839,73.88888888888889,0)" xlink:href="#ac"/><use transform="matrix(0.06172839506172839,0,0,0.06172839506172839,86.23456790123457,0)" xlink:href="#ad"/></g><g id="g"><use transform="matrix(0.06172839506172839,0,0,0.06172839506172839,0,0)" xlink:href="#W"/><use transform="matrix(0.06172839506172839,0,0,0.06172839506172839,15.987654320987653,0)" xlink:href="#ad"/><use transform="matrix(0.06172839506172839,0,0,0.06172839506172839,20.864197530864196,0)" xlink:href="#Q"/><use transform="matrix(0.06172839506172839,0,0,0.06172839506172839,25.74074074074074,0)" xlink:href="#M"/><use transform="matrix(0.06172839506172839,0,0,0.06172839506172839,38.08641975308642,0)" xlink:href="#I"/><use transform="matrix(0.06172839506172839,0,0,0.06172839506172839,50.432098765432094,0)" xlink:href="#K"/></g><g id="h"><use transform="matrix(0.06172839506172839,0,0,0.06172839506172839,0,0)" xlink:href="#W"/><use transform="matrix(0.06172839506172839,0,0,0.06172839506172839,15.987654320987653,0)" xlink:href="#ad"/><use transform="matrix(0.06172839506172839,0,0,0.06172839506172839,20.864197530864196,0)" xlink:href="#T"/><use transform="matrix(0.06172839506172839,0,0,0.06172839506172839,33.20987654320987,0)" xlink:href="#O"/><use transform="matrix(0.06172839506172839,0,0,0.06172839506172839,44.32098765432099,0)" xlink:href="#K"/><use transform="matrix(0.06172839506172839,0,0,0.06172839506172839,50.49382716049383,0)" xlink:href="#M"/><use transform="matrix(0.06172839506172839,0,0,0.06172839506172839,62.839506172839506,0)" xlink:href="#N"/></g><path fill="#333" d="M266 0h-40l-56-210L115 0H75L2-248h35L96-30l15-64 43-154h32l59 218 59-218h35" id="ae"/><path fill="#333" d="M143 0L79-87 56-68V0H24v-261h32v163l83-92h37l-77 82L181 0h-38" id="af"/><g id="i"><use transform="matrix(0.06172839506172839,0,0,0.06172839506172839,0,0)" xlink:href="#ae"/><use transform="matrix(0.06172839506172839,0,0,0.06172839506172839,20.493827160493826,0)" xlink:href="#J"/><use transform="matrix(0.06172839506172839,0,0,0.06172839506172839,32.839506172839506,0)" xlink:href="#N"/><use transform="matrix(0.06172839506172839,0,0,0.06172839506172839,40.18518518518518,0)" xlink:href="#af"/><use transform="matrix(0.06172839506172839,0,0,0.06172839506172839,51.29629629629629,0)" xlink:href="#M"/><use transform="matrix(0.06172839506172839,0,0,0.06172839506172839,63.641975308641975,0)" xlink:href="#N"/></g><path fill="#333" d="M30-248c87 1 191-15 191 75 0 78-77 80-158 76V0H30v-248zm33 125c57 0 124 11 124-50 0-59-68-47-124-48v98" id="ag"/><g id="j"><use transform="matrix(0.06172839506172839,0,0,0.06172839506172839,0,0)" xlink:href="#ag"/><use transform="matrix(0.06172839506172839,0,0,0.06172839506172839,14.814814814814813,0)" xlink:href="#N"/><use transform="matrix(0.06172839506172839,0,0,0.06172839506172839,22.160493827160494,0)" xlink:href="#J"/><use transform="matrix(0.06172839506172839,0,0,0.06172839506172839,34.50617283950617,0)" xlink:href="#R"/><use transform="matrix(0.06172839506172839,0,0,0.06172839506172839,45.61728395061728,0)" xlink:href="#M"/><use transform="matrix(0.06172839506172839,0,0,0.06172839506172839,57.962962962962955,0)" xlink:href="#O"/><use transform="matrix(0.06172839506172839,0,0,0.06172839506172839,69.07407407407406,0)" xlink:href="#O"/></g><path fill="#333" d="M27 0v-27h64v-190l-56 39v-29l58-41h29v221h61V0H27" id="ah"/><use transform="matrix(0.06172839506172839,0,0,0.06172839506172839,0,0)" xlink:href="#ah" id="k"/><use transform="matrix(0.06172839506172839,0,0,0.06172839506172839,0,0)" xlink:href="#I" id="l"/><path fill="#333" d="M47-170H22l-4-78h33" id="ai"/><g id="m"><use transform="matrix(0.06172839506172839,0,0,0.06172839506172839,0,0)" xlink:href="#ac"/><use transform="matrix(0.06172839506172839,0,0,0.06172839506172839,12.345679012345679,0)" xlink:href="#ab"/><use transform="matrix(0.06172839506172839,0,0,0.06172839506172839,24.691358024691358,0)" xlink:href="#ab"/><use transform="matrix(0.06172839506172839,0,0,0.06172839506172839,37.03703703703704,0)" xlink:href="#ad"/><use transform="matrix(0.06172839506172839,0,0,0.06172839506172839,41.91358024691358,0)" xlink:href="#Q"/><use transform="matrix(0.06172839506172839,0,0,0.06172839506172839,46.79012345679013,0)" xlink:href="#R"/><use transform="matrix(0.06172839506172839,0,0,0.06172839506172839,57.90123456790124,0)" xlink:href="#ac"/><use transform="matrix(0.06172839506172839,0,0,0.06172839506172839,70.24691358024693,0)" xlink:href="#K"/><use transform="matrix(0.06172839506172839,0,0,0.06172839506172839,76.41975308641976,0)" xlink:href="#Q"/><use transform="matrix(0.06172839506172839,0,0,0.06172839506172839,81.2962962962963,0)" xlink:href="#J"/><use transform="matrix(0.06172839506172839,0,0,0.06172839506172839,93.64197530864199,0)" xlink:href="#I"/><use transform="matrix(0.06172839506172839,0,0,0.06172839506172839,105.98765432098767,0)" xlink:href="#ai"/><use transform="matrix(0.06172839506172839,0,0,0.06172839506172839,110.1851851851852,0)" xlink:href="#O"/></g><path fill="#333" d="M101-234c-31-9-42 10-38 44h38v23H63V0H32v-167H5v-23h27c-7-52 17-82 69-68v24" id="aj"/><path fill="#333" d="M85-194c31 0 48 13 60 33l-1-100h32l1 261h-30c-2-10 0-23-3-31C134-8 116 4 85 4 32 4 16-35 15-94c0-66 23-100 70-100zm9 24c-40 0-46 34-46 75 0 40 6 74 45 74 42 0 51-32 51-76 0-42-9-74-50-73" id="ak"/><g id="n"><use transform="matrix(0.06172839506172839,0,0,0.06172839506172839,0,0)" xlink:href="#aj"/><use transform="matrix(0.06172839506172839,0,0,0.06172839506172839,6.172839506172839,0)" xlink:href="#N"/><use transform="matrix(0.06172839506172839,0,0,0.06172839506172839,13.518518518518519,0)" xlink:href="#J"/><use transform="matrix(0.06172839506172839,0,0,0.06172839506172839,25.864197530864196,0)" xlink:href="#I"/><use transform="matrix(0.06172839506172839,0,0,0.06172839506172839,38.20987654320987,0)" xlink:href="#K"/><use transform="matrix(0.06172839506172839,0,0,0.06172839506172839,44.382716049382715,0)" xlink:href="#M"/><use transform="matrix(0.06172839506172839,0,0,0.06172839506172839,56.72839506172839,0)" xlink:href="#I"/><use transform="matrix(0.06172839506172839,0,0,0.06172839506172839,69.07407407407408,0)" xlink:href="#ak"/></g><path fill="#333" d="M0 4l72-265h28L28 4H0" id="al"/><use transform="matrix(0.06172839506172839,0,0,0.06172839506172839,0,0)" xlink:href="#al" id="o"/><path fill="#333" d="M177-190C167-65 218 103 67 71c-23-6-38-20-44-43l32-5c15 47 100 32 89-28v-30C133-14 115 1 83 1 29 1 15-40 15-95c0-56 16-97 71-98 29-1 48 16 59 35 1-10 0-23 2-32h30zM94-22c36 0 50-32 50-73 0-42-14-75-50-75-39 0-46 34-46 75s6 73 46 73" id="am"/><path fill="#333" d="M179-190L93 31C79 59 56 82 12 73V49c39 6 53-20 64-50L1-190h34L92-34l54-156h33" id="an"/><g id="p"><use transform="matrix(0.06172839506172839,0,0,0.06172839506172839,0,0)" xlink:href="#am"/><use transform="matrix(0.06172839506172839,0,0,0.06172839506172839,12.345679012345679,0)" xlink:href="#ac"/><use transform="matrix(0.06172839506172839,0,0,0.06172839506172839,24.691358024691358,0)" xlink:href="#K"/><use transform="matrix(0.06172839506172839,0,0,0.06172839506172839,30.864197530864196,0)" xlink:href="#M"/><use transform="matrix(0.06172839506172839,0,0,0.06172839506172839,43.20987654320987,0)" xlink:href="#U"/><use transform="matrix(0.06172839506172839,0,0,0.06172839506172839,59.197530864197525,0)" xlink:href="#ac"/><use transform="matrix(0.06172839506172839,0,0,0.06172839506172839,71.5432098765432,0)" xlink:href="#an"/></g><g id="q"><use transform="matrix(0.06172839506172839,0,0,0.06172839506172839,0,0)" xlink:href="#ae"/><use transform="matrix(0.06172839506172839,0,0,0.06172839506172839,20.493827160493826,0)" xlink:href="#J"/><use transform="matrix(0.06172839506172839,0,0,0.06172839506172839,32.839506172839506,0)" xlink:href="#N"/><use transform="matrix(0.06172839506172839,0,0,0.06172839506172839,40.18518518518518,0)" xlink:href="#af"/><use transform="matrix(0.06172839506172839,0,0,0.06172839506172839,51.29629629629629,0)" xlink:href="#M"/><use transform="matrix(0.06172839506172839,0,0,0.06172839506172839,63.641975308641975,0)" xlink:href="#N"/></g><g id="r"><use transform="matrix(0.06172839506172839,0,0,0.06172839506172839,0,0)" xlink:href="#ag"/><use transform="matrix(0.06172839506172839,0,0,0.06172839506172839,14.814814814814813,0)" xlink:href="#N"/><use transform="matrix(0.06172839506172839,0,0,0.06172839506172839,22.160493827160494,0)" xlink:href="#J"/><use transform="matrix(0.06172839506172839,0,0,0.06172839506172839,34.50617283950617,0)" xlink:href="#R"/><use transform="matrix(0.06172839506172839,0,0,0.06172839506172839,45.61728395061728,0)" xlink:href="#M"/><use transform="matrix(0.06172839506172839,0,0,0.06172839506172839,57.962962962962955,0)" xlink:href="#O"/><use transform="matrix(0.06172839506172839,0,0,0.06172839506172839,69.07407407407406,0)" xlink:href="#O"/><use transform="matrix(0.06172839506172839,0,0,0.06172839506172839,80.18518518518518,0)" xlink:href="#M"/><use transform="matrix(0.06172839506172839,0,0,0.06172839506172839,92.53086419753086,0)" xlink:href="#O"/></g><path fill="#333" d="M233-177c-1 41-23 64-60 70L243 0h-38l-65-103H63V0H30v-248c88 3 205-21 203 71zM63-129c60-2 137 13 137-47 0-61-80-42-137-45v92" id="ao"/><g id="s"><use transform="matrix(0.06172839506172839,0,0,0.06172839506172839,0,0)" xlink:href="#am"/><use transform="matrix(0.06172839506172839,0,0,0.06172839506172839,12.345679012345679,0)" xlink:href="#ao"/><use transform="matrix(0.06172839506172839,0,0,0.06172839506172839,28.333333333333332,0)" xlink:href="#ag"/><use transform="matrix(0.06172839506172839,0,0,0.06172839506172839,43.148148148148145,0)" xlink:href="#W"/></g><g id="t"><use transform="matrix(0.06172839506172839,0,0,0.06172839506172839,0,0)" xlink:href="#R"/><use transform="matrix(0.06172839506172839,0,0,0.06172839506172839,11.11111111111111,0)" xlink:href="#J"/><use transform="matrix(0.06172839506172839,0,0,0.06172839506172839,23.45679012345679,0)" xlink:href="#aa"/><use transform="matrix(0.06172839506172839,0,0,0.06172839506172839,41.91358024691358,0)" xlink:href="#aa"/><use transform="matrix(0.06172839506172839,0,0,0.06172839506172839,60.37037037037037,0)" xlink:href="#T"/><use transform="matrix(0.06172839506172839,0,0,0.06172839506172839,72.71604938271605,0)" xlink:href="#I"/><use transform="matrix(0.06172839506172839,0,0,0.06172839506172839,85.06172839506173,0)" xlink:href="#Q"/><use transform="matrix(0.06172839506172839,0,0,0.06172839506172839,89.93827160493828,0)" xlink:href="#R"/><use transform="matrix(0.06172839506172839,0,0,0.06172839506172839,101.0493827160494,0)" xlink:href="#ac"/><use transform="matrix(0.06172839506172839,0,0,0.06172839506172839,113.39506172839508,0)" xlink:href="#K"/><use transform="matrix(0.06172839506172839,0,0,0.06172839506172839,119.56790123456791,0)" xlink:href="#Q"/><use transform="matrix(0.06172839506172839,0,0,0.06172839506172839,124.44444444444446,0)" xlink:href="#J"/><use transform="matrix(0.06172839506172839,0,0,0.06172839506172839,136.79012345679013,0)" xlink:href="#I"/></g><g id="u"><use transform="matrix(0.06172839506172839,0,0,0.06172839506172839,0,0)" xlink:href="#R"/><use transform="matrix(0.06172839506172839,0,0,0.06172839506172839,11.11111111111111,0)" xlink:href="#L"/><use transform="matrix(0.06172839506172839,0,0,0.06172839506172839,23.45679012345679,0)" xlink:href="#ac"/><use transform="matrix(0.06172839506172839,0,0,0.06172839506172839,35.80246913580247,0)" xlink:href="#I"/><use transform="matrix(0.06172839506172839,0,0,0.06172839506172839,48.148148148148145,0)" xlink:href="#I"/><use transform="matrix(0.06172839506172839,0,0,0.06172839506172839,60.49382716049382,0)" xlink:href="#M"/><use transform="matrix(0.06172839506172839,0,0,0.06172839506172839,72.8395061728395,0)" xlink:href="#ad"/><use transform="matrix(0.06172839506172839,0,0,0.06172839506172839,77.71604938271605,0)" xlink:href="#O"/></g><g id="v"><use transform="matrix(0.06172839506172839,0,0,0.06172839506172839,0,0)" xlink:href="#Z"/><use transform="matrix(0.06172839506172839,0,0,0.06172839506172839,11.049382716049381,0)" xlink:href="#M"/><use transform="matrix(0.06172839506172839,0,0,0.06172839506172839,23.39506172839506,0)" xlink:href="#aa"/><use transform="matrix(0.06172839506172839,0,0,0.06172839506172839,41.85185185185185,0)" xlink:href="#ab"/><use transform="matrix(0.06172839506172839,0,0,0.06172839506172839,54.197530864197525,0)" xlink:href="#J"/><use transform="matrix(0.06172839506172839,0,0,0.06172839506172839,66.5432098765432,0)" xlink:href="#N"/><use transform="matrix(0.06172839506172839,0,0,0.06172839506172839,73.88888888888889,0)" xlink:href="#ac"/><use transform="matrix(0.06172839506172839,0,0,0.06172839506172839,86.23456790123457,0)" xlink:href="#ad"/></g><g id="w"><use transform="matrix(0.06172839506172839,0,0,0.06172839506172839,0,0)" xlink:href="#ae"/><use transform="matrix(0.06172839506172839,0,0,0.06172839506172839,20.493827160493826,0)" xlink:href="#J"/><use transform="matrix(0.06172839506172839,0,0,0.06172839506172839,32.839506172839506,0)" xlink:href="#N"/><use transform="matrix(0.06172839506172839,0,0,0.06172839506172839,40.18518518518518,0)" xlink:href="#af"/><use transform="matrix(0.06172839506172839,0,0,0.06172839506172839,51.29629629629629,0)" xlink:href="#M"/><use transform="matrix(0.06172839506172839,0,0,0.06172839506172839,63.641975308641975,0)" xlink:href="#N"/></g><g id="x"><use transform="matrix(0.06172839506172839,0,0,0.06172839506172839,0,0)" xlink:href="#ag"/><use transform="matrix(0.06172839506172839,0,0,0.06172839506172839,14.814814814814813,0)" xlink:href="#N"/><use transform="matrix(0.06172839506172839,0,0,0.06172839506172839,22.160493827160494,0)" xlink:href="#J"/><use transform="matrix(0.06172839506172839,0,0,0.06172839506172839,34.50617283950617,0)" xlink:href="#R"/><use transform="matrix(0.06172839506172839,0,0,0.06172839506172839,45.61728395061728,0)" xlink:href="#M"/><use transform="matrix(0.06172839506172839,0,0,0.06172839506172839,57.962962962962955,0)" xlink:href="#O"/><use transform="matrix(0.06172839506172839,0,0,0.06172839506172839,69.07407407407406,0)" xlink:href="#O"/><use transform="matrix(0.06172839506172839,0,0,0.06172839506172839,80.18518518518518,0)" xlink:href="#M"/><use transform="matrix(0.06172839506172839,0,0,0.06172839506172839,92.53086419753086,0)" xlink:href="#O"/></g><g id="y"><use transform="matrix(0.06172839506172839,0,0,0.06172839506172839,0,0)" xlink:href="#N"/><use transform="matrix(0.06172839506172839,0,0,0.06172839506172839,7.345679012345679,0)" xlink:href="#T"/><use transform="matrix(0.06172839506172839,0,0,0.06172839506172839,19.691358024691358,0)" xlink:href="#I"/></g><g id="z"><use transform="matrix(0.06172839506172839,0,0,0.06172839506172839,0,0)" xlink:href="#an"/><use transform="matrix(0.06172839506172839,0,0,0.06172839506172839,11.11111111111111,0)" xlink:href="#J"/><use transform="matrix(0.06172839506172839,0,0,0.06172839506172839,23.45679012345679,0)" xlink:href="#T"/><use transform="matrix(0.06172839506172839,0,0,0.06172839506172839,35.80246913580247,0)" xlink:href="#N"/></g><g id="A"><use transform="matrix(0.06172839506172839,0,0,0.06172839506172839,0,0)" xlink:href="#ac"/><use transform="matrix(0.06172839506172839,0,0,0.06172839506172839,12.345679012345679,0)" xlink:href="#ab"/><use transform="matrix(0.06172839506172839,0,0,0.06172839506172839,24.691358024691358,0)" xlink:href="#ab"/><use transform="matrix(0.06172839506172839,0,0,0.06172839506172839,37.03703703703704,0)" xlink:href="#ad"/><use transform="matrix(0.06172839506172839,0,0,0.06172839506172839,41.91358024691358,0)" xlink:href="#Q"/><use transform="matrix(0.06172839506172839,0,0,0.06172839506172839,46.79012345679013,0)" xlink:href="#R"/><use transform="matrix(0.06172839506172839,0,0,0.06172839506172839,57.90123456790124,0)" xlink:href="#ac"/><use transform="matrix(0.06172839506172839,0,0,0.06172839506172839,70.24691358024693,0)" xlink:href="#K"/><use transform="matrix(0.06172839506172839,0,0,0.06172839506172839,76.41975308641976,0)" xlink:href="#Q"/><use transform="matrix(0.06172839506172839,0,0,0.06172839506172839,81.2962962962963,0)" xlink:href="#J"/><use transform="matrix(0.06172839506172839,0,0,0.06172839506172839,93.64197530864199,0)" xlink:href="#I"/></g><g id="B"><use transform="matrix(0.06172839506172839,0,0,0.06172839506172839,0,0)" xlink:href="#R"/><use transform="matrix(0.06172839506172839,0,0,0.06172839506172839,11.11111111111111,0)" xlink:href="#J"/><use transform="matrix(0.06172839506172839,0,0,0.06172839506172839,23.45679012345679,0)" xlink:href="#ak"/><use transform="matrix(0.06172839506172839,0,0,0.06172839506172839,35.80246913580247,0)" xlink:href="#M"/></g><path fill="#333" d="M87 75C49 33 22-17 22-94c0-76 28-126 65-167h31c-38 41-64 92-64 168S80 34 118 75H87" id="ap"/><g id="C"><use transform="matrix(0.06172839506172839,0,0,0.06172839506172839,0,0)" xlink:href="#ap"/><use transform="matrix(0.06172839506172839,0,0,0.06172839506172839,7.345679012345679,0)" xlink:href="#ae"/><use transform="matrix(0.06172839506172839,0,0,0.06172839506172839,27.839506172839503,0)" xlink:href="#J"/><use transform="matrix(0.06172839506172839,0,0,0.06172839506172839,40.18518518518518,0)" xlink:href="#N"/><use transform="matrix(0.06172839506172839,0,0,0.06172839506172839,47.53086419753086,0)" xlink:href="#af"/><use transform="matrix(0.06172839506172839,0,0,0.06172839506172839,58.641975308641975,0)" xlink:href="#aj"/><use transform="matrix(0.06172839506172839,0,0,0.06172839506172839,64.81481481481481,0)" xlink:href="#ad"/><use transform="matrix(0.06172839506172839,0,0,0.06172839506172839,69.69135802469135,0)" xlink:href="#J"/><use transform="matrix(0.06172839506172839,0,0,0.06172839506172839,82.03703703703704,0)" xlink:href="#U"/><use transform="matrix(0.06172839506172839,0,0,0.06172839506172839,98.0246913580247,0)" xlink:href="#O"/></g><g id="D"><use transform="matrix(0.06172839506172839,0,0,0.06172839506172839,0,0)" xlink:href="#ac"/><use transform="matrix(0.06172839506172839,0,0,0.06172839506172839,12.345679012345679,0)" xlink:href="#I"/><use transform="matrix(0.06172839506172839,0,0,0.06172839506172839,24.691358024691358,0)" xlink:href="#ak"/></g><path fill="#333" d="M33-261c38 41 65 92 65 168S71 34 33 75H2C39 34 66-17 66-93S39-220 2-261h31" id="aq"/><g id="E"><use transform="matrix(0.06172839506172839,0,0,0.06172839506172839,0,0)" xlink:href="#H"/><use transform="matrix(0.06172839506172839,0,0,0.06172839506172839,14.814814814814813,0)" xlink:href="#R"/><use transform="matrix(0.06172839506172839,0,0,0.06172839506172839,25.925925925925924,0)" xlink:href="#K"/><use transform="matrix(0.06172839506172839,0,0,0.06172839506172839,32.098765432098766,0)" xlink:href="#Q"/><use transform="matrix(0.06172839506172839,0,0,0.06172839506172839,36.97530864197531,0)" xlink:href="#P"/><use transform="matrix(0.06172839506172839,0,0,0.06172839506172839,48.08641975308642,0)" xlink:href="#Q"/><use transform="matrix(0.06172839506172839,0,0,0.06172839506172839,52.96296296296296,0)" xlink:href="#K"/><use transform="matrix(0.06172839506172839,0,0,0.06172839506172839,59.135802469135804,0)" xlink:href="#Q"/><use transform="matrix(0.06172839506172839,0,0,0.06172839506172839,64.01234567901234,0)" xlink:href="#M"/><use transform="matrix(0.06172839506172839,0,0,0.06172839506172839,76.35802469135803,0)" xlink:href="#O"/><use transform="matrix(0.06172839506172839,0,0,0.06172839506172839,87.46913580246914,0)" xlink:href="#aq"/></g><g id="F"><use transform="matrix(0.06172839506172839,0,0,0.06172839506172839,0,0)" xlink:href="#Z"/><use transform="matrix(0.06172839506172839,0,0,0.06172839506172839,11.049382716049381,0)" xlink:href="#M"/><use transform="matrix(0.06172839506172839,0,0,0.06172839506172839,23.39506172839506,0)" xlink:href="#aa"/><use transform="matrix(0.06172839506172839,0,0,0.06172839506172839,41.85185185185185,0)" xlink:href="#ab"/><use transform="matrix(0.06172839506172839,0,0,0.06172839506172839,54.197530864197525,0)" xlink:href="#J"/><use transform="matrix(0.06172839506172839,0,0,0.06172839506172839,66.5432098765432,0)" xlink:href="#N"/><use transform="matrix(0.06172839506172839,0,0,0.06172839506172839,73.88888888888889,0)" xlink:href="#ac"/><use transform="matrix(0.06172839506172839,0,0,0.06172839506172839,86.23456790123457,0)" xlink:href="#ad"/></g><g id="G"><use transform="matrix(0.06172839506172839,0,0,0.06172839506172839,0,0)" xlink:href="#W"/><use transform="matrix(0.06172839506172839,0,0,0.06172839506172839,15.987654320987653,0)" xlink:href="#ad"/><use transform="matrix(0.06172839506172839,0,0,0.06172839506172839,20.864197530864196,0)" xlink:href="#Q"/><use transform="matrix(0.06172839506172839,0,0,0.06172839506172839,25.74074074074074,0)" xlink:href="#M"/><use transform="matrix(0.06172839506172839,0,0,0.06172839506172839,38.08641975308642,0)" xlink:href="#I"/><use transform="matrix(0.06172839506172839,0,0,0.06172839506172839,50.432098765432094,0)" xlink:href="#K"/></g></defs></g></svg>