<svg xmlns="http://www.w3.org/2000/svg" xmlns:xlink="http://www.w3.org/1999/xlink" xmlns:lucid="lucid" width="1490" height="1240"><g transform="translate(-1400 60)" lucid:page-tab-id="0_0"><path d="M0-1258.83h3677.73v2581.66H0z" fill="#fff"/><path d="M1780 95c0-8.28 6.72-15 15-15h710c8.28 0 15 6.72 15 15v1050c0 8.28-6.72 15-15 15h-710c-8.28 0-15-6.72-15-15z" stroke="#333" stroke-width="3" fill="#127ae5"/><path d="M2200 173c0-8.28 6.72-15 15-15h170c8.28 0 15 6.72 15 15v170c0 8.28-6.72 15-15 15h-170c-8.28 0-15-6.72-15-15z" stroke="#333" stroke-width="3" fill="#fff"/><use xlink:href="#a" transform="matrix(1,0,0,1,2205,162.99999999999955) translate(32.86419753086422 84.26388888888889)"/><use xlink:href="#b" transform="matrix(1,0,0,1,2205,162.99999999999955) translate(43.2345679012346 121.5972222222222)"/><path d="M1820 815c0-8.28 6.72-15 15-15h630c8.28 0 15 6.72 15 15v290c0 8.28-6.72 15-15 15h-630c-8.28 0-15-6.72-15-15z" stroke="#333" stroke-width="3" fill="#fff"/><use xlink:href="#c" transform="matrix(1,0,0,1,1839,819) translate(244.50000000000003 275.47093048888894)"/><path d="M2240 513c0-8.28 6.72-15 15-15h170c8.28 0 15 6.72 15 15v170c0 8.28-6.72 15-15 15h-170c-8.28 0-15-6.72-15-15z" stroke="#333" stroke-width="3" fill="#e5e5e5"/><use xlink:href="#d" transform="matrix(1,0,0,1,2245,502.99999999999955) translate(46.7345679012346 84.26388888888889)"/><use xlink:href="#b" transform="matrix(1,0,0,1,2245,502.99999999999955) translate(43.2345679012346 121.5972222222222)"/><path d="M2220 493c0-8.28 6.72-15 15-15h170c8.28 0 15 6.72 15 15v170c0 8.28-6.72 15-15 15h-170c-8.28 0-15-6.72-15-15z" stroke="#333" stroke-width="3" fill="#e5e5e5"/><use xlink:href="#d" transform="matrix(1,0,0,1,2225,482.99999999999955) translate(46.7345679012346 84.26388888888889)"/><use xlink:href="#b" transform="matrix(1,0,0,1,2225,482.99999999999955) translate(43.2345679012346 121.5972222222222)"/><path d="M2200 473c0-8.28 6.72-15 15-15h170c8.28 0 15 6.72 15 15v170c0 8.28-6.72 15-15 15h-170c-8.28 0-15-6.72-15-15z" stroke="#333" stroke-width="3" fill="#fff"/><use xlink:href="#e" transform="matrix(1,0,0,1,2205,462.99999999999955) translate(32.00000000000004 84.26388888888889)"/><use xlink:href="#b" transform="matrix(1,0,0,1,2205,462.99999999999955) translate(43.2345679012346 121.5972222222222)"/><path d="M2200 855c0-8.28 6.72-15 15-15h170c8.28 0 15 6.72 15 15v170c0 8.28-6.72 15-15 15h-170c-8.28 0-15-6.72-15-15z" stroke="#333" stroke-width="3" fill="#fff"/><use xlink:href="#f" transform="matrix(1,0,0,1,2205,845) translate(63.06790123456792 84.26388888888889)"/><use xlink:href="#g" transform="matrix(1,0,0,1,2205,845) translate(43.19135802469138 121.5972222222222)"/><path d="M1820 135c0-8.28 6.72-15 15-15h630c8.28 0 15 6.72 15 15v590c0 8.28-6.72 15-15 15h-630c-8.28 0-15-6.72-15-15z" fill-opacity="0"/><path d="M1829.3 121.26l1.8-.75 3.9-.5h6.06m12.1 0h12.13m12.1 0h12.12m12.1 0h12.13m12.12 0h12.1m12.13 0h12.1m12.13 0h12.1m12.13 0h12.1m12.13 0h12.1m12.12 0h12.1m12.13 0h12.12m12.1 0h12.13m12.1 0h12.13m12.1 0h12.13m12.1 0h12.13m12.1 0h12.12m12.1 0h12.13m12.12 0h12.1m12.13 0h12.1m12.13 0h12.1m12.13 0h12.1m12.13 0h12.1m12.12 0h12.1m12.13 0h12.12m12.1 0h12.13m12.1 0h12.13m12.1 0h6.07l3.9.5 1.8.76m8.04 8.05l.75 1.8.5 3.9v5.9m0 11.8v11.8m0 11.8v11.8m0 11.8v11.8m0 11.8v11.8m0 11.8v11.8m0 11.8v11.8m0 11.8v11.8m0 11.8v11.8m0 11.8v11.8m0 11.8v11.8m0 11.8v11.8m0 11.8v11.8m0 11.8v11.8m0 11.8v11.8m0 11.8v11.8m0 11.8v11.8m0 11.8v11.8m0 11.8v11.8m0 11.8v11.8m0 11.8v11.8m0 11.8v11.8m0 11.8v11.8m0 11.8v11.8m0 11.8v11.8m0 11.8v5.9l-.5 3.9-.76 1.8m-8.05 8.04l-1.8.75-3.9.5h-6.06m-12.1 0h-12.13m-12.1 0h-12.12m-12.1 0h-12.13m-12.12 0h-12.1m-12.13 0h-12.1m-12.13 0h-12.1m-12.13 0h-12.1m-12.13 0h-12.1m-12.12 0h-12.1m-12.13 0h-12.12m-12.1 0h-12.13m-12.1 0h-12.13m-12.1 0h-12.13m-12.1 0h-12.13m-12.1 0h-12.12m-12.1 0h-12.13m-12.12 0h-12.1m-12.13 0h-12.1m-12.13 0h-12.1m-12.13 0h-12.1m-12.13 0h-12.1m-12.12 0h-12.1m-12.13 0h-12.12m-12.1 0h-12.13m-12.1 0h-12.13m-12.1 0H1835l-3.9-.5-1.8-.76m-8.04-8.05l-.75-1.8-.5-3.9v-5.9m0-11.8v-11.8m0-11.8v-11.8m0-11.8v-11.8m0-11.8v-11.8m0-11.8v-11.8m0-11.8v-11.8m0-11.8v-11.8m0-11.8v-11.8m0-11.8v-11.8m0-11.8v-11.8m0-11.8v-11.8m0-11.8v-11.8m0-11.8v-11.8m0-11.8v-11.8m0-11.8v-11.8m0-11.8v-11.8m0-11.8v-11.8m0-11.8v-11.8m0-11.8v-11.8m0-11.8v-11.8m0-11.8v-11.8m0-11.8v-11.8m0-11.8v-11.8m0-11.8v-11.8m0-11.8V135l.5-3.9.76-1.8" stroke="#fff" stroke-width="3" fill="none"/><path d="M2300 360.5v95" stroke="#282c33" stroke-width="2" fill="none"/><path d="M2301 360.53h-2v-1.03h2zM2301 456.5h-2v-1.03h2z" stroke="#282c33" stroke-width=".05" fill="#282c33"/><path d="M2300 660.5v177" stroke="#282c33" stroke-width="2" fill="none"/><path d="M2301 660.53h-2v-1.03h2zM2301 838.5h-2v-1.03h2z" stroke="#282c33" stroke-width=".05" fill="#282c33"/><path d="M1860 473c0-8.28 6.72-15 15-15h170c8.28 0 15 6.72 15 15v170c0 8.28-6.72 15-15 15h-170c-8.28 0-15-6.72-15-15z" stroke="#333" stroke-width="3" fill="#fff"/><use xlink:href="#h" transform="matrix(1,0,0,1,1865,462.99999999999955) translate(46.7345679012346 84.26388888888889)"/><use xlink:href="#i" transform="matrix(1,0,0,1,1865,462.99999999999955) translate(43.2345679012346 121.5972222222222)"/><path d="M2197.5 558h-135" stroke="#282c33" stroke-width="2" fill="none"/><path d="M2198.5 559h-1.03v-2h1.03zM2062.53 559h-1.03v-2h1.03z" stroke="#282c33" stroke-width=".05" fill="#282c33"/><path d="M1420 279.33c0-3.3 2.7-6 6-6h298c3.3 0 6 2.7 6 6V352c0 3.3-2.7 6-6 6h-298c-3.3 0-6-2.7-6-6z" stroke="#000" stroke-opacity="0" stroke-width="3" fill="#fff" fill-opacity="0"/><use xlink:href="#j" transform="matrix(1,0,0,1,1425,278.3333333333329) translate(35.88271604938275 43.638888888888886)"/><use xlink:href="#k" transform="matrix(1,0,0,1,1425,278.3333333333329) translate(172.68518518518516 43.638888888888886)"/><path d="M1731 315.67h86.5" stroke="#333" stroke-width="2" fill="none"/><path d="M1731.03 316.67H1730v-2h1.03zM1818.5 316.67h-1.03v-2h1.03z" stroke="#333" stroke-width=".05" fill="#333"/><path d="M1940-34c0-3.3 2.7-6 6-6h408c3.3 0 6 2.7 6 6v48c0 3.3-2.7 6-6 6h-408c-3.3 0-6-2.7-6-6z" stroke="#000" stroke-opacity="0" stroke-width="3" fill="#fff" fill-opacity="0"/><use xlink:href="#l" transform="matrix(1,0,0,1,1945,-35) translate(83.14814814814818 31.138888888888886)"/><use xlink:href="#m" transform="matrix(1,0,0,1,1945,-35) translate(228.59259259259258 31.138888888888886)"/><path d="M2150 21v56.5" stroke="#333" stroke-width="2" fill="none"/><path d="M2151 21.03h-2V20h2zM2151 78.5h-2v-1.03h2z" stroke="#333" stroke-width=".05" fill="#333"/><path d="M2570 524c0-3.3 2.7-6 6-6h288c3.3 0 6 2.7 6 6v68c0 3.3-2.7 6-6 6h-288c-3.3 0-6-2.7-6-6z" stroke="#000" stroke-opacity="0" stroke-width="3" fill="#fff" fill-opacity="0"/><g><use xlink:href="#n" transform="matrix(1,0,0,1,2575,522.9999999999995) translate(2.7098765432099015 40.201388888888886)"/><use xlink:href="#o" transform="matrix(1,0,0,1,2575,522.9999999999995) translate(173.38888888888889 40.201388888888886)"/></g><path d="M2569 558h-166.5" stroke="#333" stroke-width="2" fill="none"/><path d="M2570 559h-1.03v-2h1.03zM2402.53 559h-1.03v-2h1.03z" stroke="#333" stroke-width=".05" fill="#333"/><defs><path fill="#333" d="M63-220v92h138v28H63V0H30v-248h175v28H63" id="p"/><path fill="#333" d="M114-163C36-179 61-72 57 0H25l-1-190h30c1 12-1 29 2 39 6-27 23-49 58-41v29" id="q"/><path fill="#333" d="M100-194c62-1 85 37 85 99 1 63-27 99-86 99S16-35 15-95c0-66 28-99 85-99zM99-20c44 1 53-31 53-75 0-43-8-75-51-75s-53 32-53 75 10 74 51 75" id="r"/><path fill="#333" d="M117-194c89-4 53 116 60 194h-32v-121c0-31-8-49-39-48C34-167 62-67 57 0H25l-1-190h30c1 10-1 24 2 32 11-22 29-35 61-36" id="s"/><path fill="#333" d="M59-47c-2 24 18 29 38 22v24C64 9 27 4 27-40v-127H5v-23h24l9-43h21v43h35v23H59v120" id="t"/><path fill="#333" d="M100-194c63 0 86 42 84 106H49c0 40 14 67 53 68 26 1 43-12 49-29l28 8c-11 28-37 45-77 45C44 4 14-33 15-96c1-61 26-98 85-98zm52 81c6-60-76-77-97-28-3 7-6 17-6 28h103" id="u"/><path fill="#333" d="M85-194c31 0 48 13 60 33l-1-100h32l1 261h-30c-2-10 0-23-3-31C134-8 116 4 85 4 32 4 16-35 15-94c0-66 23-100 70-100zm9 24c-40 0-46 34-46 75 0 40 6 74 45 74 42 0 51-32 51-76 0-42-9-74-50-73" id="v"/><g id="a"><use transform="matrix(0.0864197530864197,0,0,0.0864197530864197,0,0)" xlink:href="#p"/><use transform="matrix(0.0864197530864197,0,0,0.0864197530864197,18.925925925925917,0)" xlink:href="#q"/><use transform="matrix(0.0864197530864197,0,0,0.0864197530864197,29.209876543209862,0)" xlink:href="#r"/><use transform="matrix(0.0864197530864197,0,0,0.0864197530864197,46.493827160493815,0)" xlink:href="#s"/><use transform="matrix(0.0864197530864197,0,0,0.0864197530864197,63.77777777777775,0)" xlink:href="#t"/><use transform="matrix(0.0864197530864197,0,0,0.0864197530864197,72.41975308641972,0)" xlink:href="#u"/><use transform="matrix(0.0864197530864197,0,0,0.0864197530864197,89.70370370370368,0)" xlink:href="#s"/><use transform="matrix(0.0864197530864197,0,0,0.0864197530864197,106.98765432098762,0)" xlink:href="#v"/></g><path fill="#333" d="M185-189c-5-48-123-54-124 2 14 75 158 14 163 119 3 78-121 87-175 55-17-10-28-26-33-46l33-7c5 56 141 63 141-1 0-78-155-14-162-118-5-82 145-84 179-34 5 7 8 16 11 25" id="w"/><path fill="#333" d="M108 0H70L1-190h34L89-25l56-165h34" id="x"/><path fill="#333" d="M24-231v-30h32v30H24zM24 0v-190h32V0H24" id="y"/><path fill="#333" d="M96-169c-40 0-48 33-48 73s9 75 48 75c24 0 41-14 43-38l32 2c-6 37-31 61-74 61-59 0-76-41-82-99-10-93 101-131 147-64 4 7 5 14 7 22l-32 3c-4-21-16-35-41-35" id="z"/><g id="b"><use transform="matrix(0.0864197530864197,0,0,0.0864197530864197,0,0)" xlink:href="#w"/><use transform="matrix(0.0864197530864197,0,0,0.0864197530864197,20.74074074074073,0)" xlink:href="#u"/><use transform="matrix(0.0864197530864197,0,0,0.0864197530864197,38.02469135802467,0)" xlink:href="#q"/><use transform="matrix(0.0864197530864197,0,0,0.0864197530864197,48.30864197530862,0)" xlink:href="#x"/><use transform="matrix(0.0864197530864197,0,0,0.0864197530864197,63.86419753086416,0)" xlink:href="#y"/><use transform="matrix(0.0864197530864197,0,0,0.0864197530864197,70.69135802469131,0)" xlink:href="#z"/><use transform="matrix(0.0864197530864197,0,0,0.0864197530864197,86.24691358024685,0)" xlink:href="#u"/></g><path fill="#333" d="M30-248c118-7 216 8 213 122C240-48 200 0 122 0H30v-248zM63-27c89 8 146-16 146-99s-60-101-146-95v194" id="A"/><path fill="#333" d="M141-36C126-15 110 5 73 4 37 3 15-17 15-53c-1-64 63-63 125-63 3-35-9-54-41-54-24 1-41 7-42 31l-33-3c5-37 33-52 76-52 45 0 72 20 72 64v82c-1 20 7 32 28 27v20c-31 9-61-2-59-35zM48-53c0 20 12 33 32 33 41-3 63-29 60-74-43 2-92-5-92 41" id="B"/><path fill="#333" d="M115-194c53 0 69 39 70 98 0 66-23 100-70 100C84 3 66-7 56-30L54 0H23l1-261h32v101c10-23 28-34 59-34zm-8 174c40 0 45-34 45-75 0-40-5-75-45-74-42 0-51 32-51 76 0 43 10 73 51 73" id="C"/><path fill="#333" d="M135-143c-3-34-86-38-87 0 15 53 115 12 119 90S17 21 10-45l28-5c4 36 97 45 98 0-10-56-113-15-118-90-4-57 82-63 122-42 12 7 21 19 24 35" id="D"/><g id="c"><use transform="matrix(0.0864197530864197,0,0,0.0864197530864197,0,0)" xlink:href="#A"/><use transform="matrix(0.0864197530864197,0,0,0.0864197530864197,22.382716049382704,0)" xlink:href="#B"/><use transform="matrix(0.0864197530864197,0,0,0.0864197530864197,39.66666666666664,0)" xlink:href="#t"/><use transform="matrix(0.0864197530864197,0,0,0.0864197530864197,48.30864197530862,0)" xlink:href="#B"/><use transform="matrix(0.0864197530864197,0,0,0.0864197530864197,65.59259259259255,0)" xlink:href="#C"/><use transform="matrix(0.0864197530864197,0,0,0.0864197530864197,82.8765432098765,0)" xlink:href="#B"/><use transform="matrix(0.0864197530864197,0,0,0.0864197530864197,100.16049382716047,0)" xlink:href="#D"/><use transform="matrix(0.0864197530864197,0,0,0.0864197530864197,115.716049382716,0)" xlink:href="#u"/></g><path fill="#333" d="M197 0v-115H63V0H30v-248h33v105h134v-105h34V0h-34" id="E"/><path fill="#333" d="M179-190L93 31C79 59 56 82 12 73V49c39 6 53-20 64-50L1-190h34L92-34l54-156h33" id="F"/><g id="d"><use transform="matrix(0.0864197530864197,0,0,0.0864197530864197,0,0)" xlink:href="#E"/><use transform="matrix(0.0864197530864197,0,0,0.0864197530864197,22.382716049382704,0)" xlink:href="#y"/><use transform="matrix(0.0864197530864197,0,0,0.0864197530864197,29.209876543209862,0)" xlink:href="#D"/><use transform="matrix(0.0864197530864197,0,0,0.0864197530864197,44.76543209876541,0)" xlink:href="#t"/><use transform="matrix(0.0864197530864197,0,0,0.0864197530864197,53.407407407407376,0)" xlink:href="#r"/><use transform="matrix(0.0864197530864197,0,0,0.0864197530864197,70.69135802469131,0)" xlink:href="#q"/><use transform="matrix(0.0864197530864197,0,0,0.0864197530864197,80.97530864197526,0)" xlink:href="#F"/></g><path fill="#333" d="M240 0l2-218c-23 76-54 145-80 218h-23L58-218 59 0H30v-248h44l77 211c21-75 51-140 76-211h43V0h-30" id="G"/><path fill="#333" d="M106-169C34-169 62-67 57 0H25v-261h32l-1 103c12-21 28-36 61-36 89 0 53 116 60 194h-32v-121c2-32-8-49-39-48" id="H"/><path fill="#333" d="M177-190C167-65 218 103 67 71c-23-6-38-20-44-43l32-5c15 47 100 32 89-28v-30C133-14 115 1 83 1 29 1 15-40 15-95c0-56 16-97 71-98 29-1 48 16 59 35 1-10 0-23 2-32h30zM94-22c36 0 50-32 50-73 0-42-14-75-50-75-39 0-46 34-46 75s6 73 46 73" id="I"/><g id="e"><use transform="matrix(0.0864197530864197,0,0,0.0864197530864197,0,0)" xlink:href="#G"/><use transform="matrix(0.0864197530864197,0,0,0.0864197530864197,25.839506172839492,0)" xlink:href="#B"/><use transform="matrix(0.0864197530864197,0,0,0.0864197530864197,43.123456790123434,0)" xlink:href="#t"/><use transform="matrix(0.0864197530864197,0,0,0.0864197530864197,51.7654320987654,0)" xlink:href="#z"/><use transform="matrix(0.0864197530864197,0,0,0.0864197530864197,67.32098765432094,0)" xlink:href="#H"/><use transform="matrix(0.0864197530864197,0,0,0.0864197530864197,84.60493827160488,0)" xlink:href="#y"/><use transform="matrix(0.0864197530864197,0,0,0.0864197530864197,91.43209876543203,0)" xlink:href="#s"/><use transform="matrix(0.0864197530864197,0,0,0.0864197530864197,108.71604938271597,0)" xlink:href="#I"/></g><path fill="#333" d="M127-220V0H93v-220H8v-28h204v28h-85" id="J"/><path fill="#333" d="M143 0L79-87 56-68V0H24v-261h32v163l83-92h37l-77 82L181 0h-38" id="K"/><g id="f"><use transform="matrix(0.0864197530864197,0,0,0.0864197530864197,0,0)" xlink:href="#J"/><use transform="matrix(0.0864197530864197,0,0,0.0864197530864197,15.46913580246913,0)" xlink:href="#B"/><use transform="matrix(0.0864197530864197,0,0,0.0864197530864197,32.753086419753075,0)" xlink:href="#D"/><use transform="matrix(0.0864197530864197,0,0,0.0864197530864197,48.30864197530862,0)" xlink:href="#K"/></g><g id="g"><use transform="matrix(0.0864197530864197,0,0,0.0864197530864197,0,0)" xlink:href="#D"/><use transform="matrix(0.0864197530864197,0,0,0.0864197530864197,15.555555555555546,0)" xlink:href="#t"/><use transform="matrix(0.0864197530864197,0,0,0.0864197530864197,24.197530864197518,0)" xlink:href="#r"/><use transform="matrix(0.0864197530864197,0,0,0.0864197530864197,41.48148148148146,0)" xlink:href="#q"/><use transform="matrix(0.0864197530864197,0,0,0.0864197530864197,51.7654320987654,0)" xlink:href="#B"/><use transform="matrix(0.0864197530864197,0,0,0.0864197530864197,69.04938271604934,0)" xlink:href="#I"/><use transform="matrix(0.0864197530864197,0,0,0.0864197530864197,86.33333333333329,0)" xlink:href="#u"/></g><g id="h"><use transform="matrix(0.0864197530864197,0,0,0.0864197530864197,0,0)" xlink:href="#E"/><use transform="matrix(0.0864197530864197,0,0,0.0864197530864197,22.382716049382704,0)" xlink:href="#y"/><use transform="matrix(0.0864197530864197,0,0,0.0864197530864197,29.209876543209862,0)" xlink:href="#D"/><use transform="matrix(0.0864197530864197,0,0,0.0864197530864197,44.76543209876541,0)" xlink:href="#t"/><use transform="matrix(0.0864197530864197,0,0,0.0864197530864197,53.407407407407376,0)" xlink:href="#r"/><use transform="matrix(0.0864197530864197,0,0,0.0864197530864197,70.69135802469131,0)" xlink:href="#q"/><use transform="matrix(0.0864197530864197,0,0,0.0864197530864197,80.97530864197526,0)" xlink:href="#F"/></g><g id="i"><use transform="matrix(0.0864197530864197,0,0,0.0864197530864197,0,0)" xlink:href="#w"/><use transform="matrix(0.0864197530864197,0,0,0.0864197530864197,20.74074074074073,0)" xlink:href="#u"/><use transform="matrix(0.0864197530864197,0,0,0.0864197530864197,38.02469135802467,0)" xlink:href="#q"/><use transform="matrix(0.0864197530864197,0,0,0.0864197530864197,48.30864197530862,0)" xlink:href="#x"/><use transform="matrix(0.0864197530864197,0,0,0.0864197530864197,63.86419753086416,0)" xlink:href="#y"/><use transform="matrix(0.0864197530864197,0,0,0.0864197530864197,70.69135802469131,0)" xlink:href="#z"/><use transform="matrix(0.0864197530864197,0,0,0.0864197530864197,86.24691358024685,0)" xlink:href="#u"/></g><path fill="#333" d="M151-220L108 0H75l42-220H32l6-28h203l-5 28h-85" id="L"/><path fill="#333" d="M111-194c62-3 86 47 72 106H45c-7 38 6 69 45 68 27-1 43-14 53-32l24 11C152-15 129 4 87 4 38 3 12-23 12-71c0-70 32-119 99-123zm44 81c14-66-71-72-95-28-4 8-8 17-11 28h106" id="M"/><path fill="#333" d="M248-111c6-24 9-61-24-58-72 9-57 108-77 169h-31l26-142c3-37-50-30-64-10C52-115 50-51 37 0H6l36-190h30c-1 10-6 24-4 32 13-43 101-52 105 5 13-22 29-41 61-41 90 0 28 129 23 194h-31" id="N"/><path fill="#333" d="M67-162c32-53 139-36 121 50C175-51 163 2 97 4 68 4 52-11 42-31 38 6 28 39 22 75H-9l50-265h29c-1 10 0 20-3 28zm89 36c0-26-10-43-35-43-54 0-67 50-69 103-1 29 14 45 42 46 53 0 62-58 62-106" id="O"/><path fill="#333" d="M30-147c31-64 166-65 159 27C183-49 158 1 86 4 9 8 1-88 30-147zM88-20c53 0 68-48 68-100 0-31-11-51-44-50-52 1-68 46-68 97 0 32 13 53 44 53" id="P"/><path fill="#333" d="M66-151c12-25 30-51 66-40l-6 26C45-176 58-65 38 0H6l36-190h30" id="Q"/><path fill="#333" d="M165-48c-4 18 1 34 23 27l-3 20c-29 8-62 0-52-35h-2C116-14 99 4 63 4 30 4 8-16 8-49c0-68 71-67 138-67 10-26 0-56-31-54-26 1-42 9-47 31l-32-5c8-67 160-71 144 15-5 28-9 54-15 81zM42-50c3 52 80 24 89-6 7-12 7-24 11-38-47 1-103-4-100 44" id="R"/><path fill="#333" d="M6 0l50-261h32L37 0H6" id="S"/><g id="j"><use transform="matrix(0.08641975308641973,0,0,0.08641975308641973,0,0)" xlink:href="#L"/><use transform="matrix(0.08641975308641973,0,0,0.08641975308641973,16.07407407407407,0)" xlink:href="#M"/><use transform="matrix(0.08641975308641973,0,0,0.08641975308641973,33.35802469135801,0)" xlink:href="#N"/><use transform="matrix(0.08641975308641973,0,0,0.08641975308641973,59.19753086419751,0)" xlink:href="#O"/><use transform="matrix(0.08641975308641973,0,0,0.08641975308641973,76.48148148148145,0)" xlink:href="#P"/><use transform="matrix(0.08641975308641973,0,0,0.08641975308641973,93.76543209876539,0)" xlink:href="#Q"/><use transform="matrix(0.08641975308641973,0,0,0.08641975308641973,104.04938271604937,0)" xlink:href="#R"/><use transform="matrix(0.08641975308641973,0,0,0.08641975308641973,121.3333333333333,0)" xlink:href="#S"/></g><path fill="#333" d="M194-120c59 52 2 134-86 124-53-6-90-18-98-63l31-7c8 30 29 43 70 43 46 0 84-17 71-62-32-43-135-20-137-98-3-89 178-90 191-16l-30 9c-8-48-127-53-127 5 0 53 81 35 115 65" id="T"/><path fill="#333" d="M89 0H52L20-190h33L74-25l89-165h34" id="U"/><g id="k"><use transform="matrix(0.08641975308641973,0,0,0.08641975308641973,0,0)" xlink:href="#T"/><use transform="matrix(0.08641975308641973,0,0,0.08641975308641973,20.740740740740737,0)" xlink:href="#M"/><use transform="matrix(0.08641975308641973,0,0,0.08641975308641973,38.02469135802468,0)" xlink:href="#Q"/><use transform="matrix(0.08641975308641973,0,0,0.08641975308641973,48.30864197530863,0)" xlink:href="#U"/><use transform="matrix(0.08641975308641973,0,0,0.08641975308641973,63.86419753086418,0)" xlink:href="#M"/><use transform="matrix(0.08641975308641973,0,0,0.08641975308641973,81.14814814814812,0)" xlink:href="#Q"/></g><g id="l"><use transform="matrix(0.08641975308641973,0,0,0.08641975308641973,0,0)" xlink:href="#L"/><use transform="matrix(0.08641975308641973,0,0,0.08641975308641973,16.07407407407407,0)" xlink:href="#M"/><use transform="matrix(0.08641975308641973,0,0,0.08641975308641973,33.35802469135801,0)" xlink:href="#N"/><use transform="matrix(0.08641975308641973,0,0,0.08641975308641973,59.19753086419751,0)" xlink:href="#O"/><use transform="matrix(0.08641975308641973,0,0,0.08641975308641973,76.48148148148145,0)" xlink:href="#P"/><use transform="matrix(0.08641975308641973,0,0,0.08641975308641973,93.76543209876539,0)" xlink:href="#Q"/><use transform="matrix(0.08641975308641973,0,0,0.08641975308641973,104.04938271604937,0)" xlink:href="#R"/><use transform="matrix(0.08641975308641973,0,0,0.08641975308641973,121.3333333333333,0)" xlink:href="#S"/></g><path fill="#333" d="M125-24c46 0 70-25 89-51l25 16C214-24 183 4 123 4 8 4-5-146 60-208c32-50 158-61 191-5 5 7 9 14 11 22l-32 10c-9-28-33-43-69-43-74 0-108 51-108 125 0 46 24 75 72 75" id="V"/><path fill="#333" d="M67 3c-93-2-31-127-26-193h32L48-50c-3 39 53 32 70 12 30-34 30-101 43-152h32L157 0h-30c1-10 6-24 4-33-14 20-29 37-64 36" id="W"/><path fill="#333" d="M55-144c13 50 104 24 104 88C159 21 15 23 1-39l26-10c6 40 102 42 102-4-13-50-104-23-104-87 0-71 143-71 148-8l-29 4c-5-35-85-37-89 0" id="X"/><path fill="#333" d="M51-54c-9 22 5 41 31 30L79-1C43 14 10-4 19-52l22-115H19l5-23h22l19-43h21l-9 43h35l-4 23H73" id="Y"/><g id="m"><use transform="matrix(0.08641975308641973,0,0,0.08641975308641973,0,0)" xlink:href="#V"/><use transform="matrix(0.08641975308641973,0,0,0.08641975308641973,22.38271604938271,0)" xlink:href="#S"/><use transform="matrix(0.08641975308641973,0,0,0.08641975308641973,29.20987654320987,0)" xlink:href="#W"/><use transform="matrix(0.08641975308641973,0,0,0.08641975308641973,46.493827160493815,0)" xlink:href="#X"/><use transform="matrix(0.08641975308641973,0,0,0.08641975308641973,62.04938271604937,0)" xlink:href="#Y"/><use transform="matrix(0.08641975308641973,0,0,0.08641975308641973,70.69135802469134,0)" xlink:href="#M"/><use transform="matrix(0.08641975308641973,0,0,0.08641975308641973,87.97530864197529,0)" xlink:href="#Q"/></g><path fill="#333" d="M179 0l23-115H67L45 0H11l48-248h34L72-143h135l21-105h32L212 0h-33" id="Z"/><path fill="#333" d="M50-231l6-30h32l-6 30H50zM6 0l37-190h31L37 0H6" id="aa"/><path fill="#333" d="M-8 0l5-24 140-142H31l5-24h145l-5 24L36-24h119l-5 24H-8" id="ab"/><path fill="#333" d="M67-158c22-48 132-52 116 29L158 0h-32l25-140c3-38-53-32-70-12C52-117 51-52 38 0H6l36-190h30" id="ac"/><path fill="#333" d="M198-190L69 30C53 58 25 83-20 72c4-11-1-27 19-22 33-1 43-29 59-52L20-190h32L79-34l84-156h35" id="ad"/><g id="n"><use transform="matrix(0.08641975308641973,0,0,0.08641975308641973,0,0)" xlink:href="#Z"/><use transform="matrix(0.08641975308641973,0,0,0.08641975308641973,22.38271604938271,0)" xlink:href="#P"/><use transform="matrix(0.08641975308641973,0,0,0.08641975308641973,39.66666666666666,0)" xlink:href="#Q"/><use transform="matrix(0.08641975308641973,0,0,0.08641975308641973,49.950617283950606,0)" xlink:href="#aa"/><use transform="matrix(0.08641975308641973,0,0,0.08641975308641973,56.777777777777764,0)" xlink:href="#ab"/><use transform="matrix(0.08641975308641973,0,0,0.08641975308641973,72.33333333333331,0)" xlink:href="#P"/><use transform="matrix(0.08641975308641973,0,0,0.08641975308641973,89.61728395061726,0)" xlink:href="#ac"/><use transform="matrix(0.08641975308641973,0,0,0.08641975308641973,106.90123456790121,0)" xlink:href="#Y"/><use transform="matrix(0.08641975308641973,0,0,0.08641975308641973,115.54320987654319,0)" xlink:href="#R"/><use transform="matrix(0.08641975308641973,0,0,0.08641975308641973,132.82716049382714,0)" xlink:href="#S"/><use transform="matrix(0.08641975308641973,0,0,0.08641975308641973,139.6543209876543,0)" xlink:href="#S"/><use transform="matrix(0.08641975308641973,0,0,0.08641975308641973,146.48148148148147,0)" xlink:href="#ad"/></g><path fill="#333" d="M44-68c0 29 11 47 38 47 30 0 42-19 51-41l28 9C148-21 126 4 82 4 31 4 10-29 12-85c3-77 74-140 146-93 12 8 15 23 18 40l-31 5c-1-22-13-36-36-36-52 0-65 49-65 101" id="ae"/><path fill="#333" d="M68-162c25-46 127-43 121 31C183-60 169 1 98 4 69 5 53-11 43-31L36 0H5l52-261h31zm88 36c2-27-9-43-34-43-55 0-70 51-70 103 0 29 15 45 43 46 52 0 58-58 61-106" id="af"/><g id="o"><use transform="matrix(0.08641975308641973,0,0,0.08641975308641973,0,0)" xlink:href="#X"/><use transform="matrix(0.08641975308641973,0,0,0.08641975308641973,15.555555555555552,0)" xlink:href="#ae"/><use transform="matrix(0.08641975308641973,0,0,0.08641975308641973,31.111111111111104,0)" xlink:href="#R"/><use transform="matrix(0.08641975308641973,0,0,0.08641975308641973,48.39506172839505,0)" xlink:href="#S"/><use transform="matrix(0.08641975308641973,0,0,0.08641975308641973,55.22222222222221,0)" xlink:href="#R"/><use transform="matrix(0.08641975308641973,0,0,0.08641975308641973,72.50617283950615,0)" xlink:href="#af"/><use transform="matrix(0.08641975308641973,0,0,0.08641975308641973,89.7901234567901,0)" xlink:href="#S"/><use transform="matrix(0.08641975308641973,0,0,0.08641975308641973,96.61728395061726,0)" xlink:href="#M"/></g></defs></g></svg>