<svg xmlns="http://www.w3.org/2000/svg" xmlns:xlink="http://www.w3.org/1999/xlink" xmlns:lucid="lucid" width="880" height="520"><g transform="translate(-100 -51.429)" lucid:page-tab-id="0_0"><path d="M300 431.43h480v120H300z" stroke="#333" stroke-width="4" fill="#fff"/><use xlink:href="#a" transform="translate(494.444 497.206)"/><path d="M300 77.43c0-3.32 2.7-6 6-6h468c3.3 0 6 2.68 6 6v318c0 3.3-2.7 6-6 6H306c-3.3 0-6-2.7-6-6z" fill="#e5e5e5" fill-opacity=".35"/><path d="M329.4 71.43H345m15.6 0h15.6m15.6 0h15.6m15.6 0h15.6m15.6 0h15.6m15.6 0H501m15.6 0h15.6m15.6 0h15.6m15.6 0h15.6m15.6 0h15.6m15.6 0H657m15.6 0h15.6m15.6 0h15.6m15.6 0h15.6m15.6 0h7.8l3.03.82 2.15 2.15.82 3.03v7.95m0 15.9v15.9m0 15.9v15.9m0 15.9v15.9m0 15.9v15.9m0 15.9v15.9m0 15.9v15.9m0 15.9v15.9m0 15.9v15.9m0 15.9v15.9m0 15.9v7.95l-.82 3.03-2.15 2.15-3.03.83h-7.8m-15.6 0H735m-15.6 0h-15.6m-15.6 0h-15.6m-15.6 0h-15.6m-15.6 0h-15.6m-15.6 0H579m-15.6 0h-15.6m-15.6 0h-15.6m-15.6 0h-15.6m-15.6 0h-15.6m-15.6 0H423m-15.6 0h-15.6m-15.6 0h-15.6m-15.6 0h-15.6m-15.6 0H306l-3.03-.82-2.15-2.14-.82-3.03v-7.95m0-15.9v-15.9m0-15.9v-15.9m0-15.9v-15.9m0-15.9v-15.9m0-15.9v-15.9m0-15.9v-15.9m0-15.9v-15.9m0-15.9v-15.9m0-15.9v-15.9m0-15.9v-7.95l.82-3.03 2.15-2.15 3.03-.82h7.8" stroke="#333" stroke-width="4" fill="none"/><path d="M330 101.43h120v120H330z" stroke="#333" stroke-width="4" fill="#fff"/><use xlink:href="#b" transform="translate(370.05 170.929)"/><path d="M330 257.43c0-3.32 2.7-6 6-6h108c3.3 0 6 2.68 6 6v108c0 3.3-2.7 6-6 6H336c-3.3 0-6-2.7-6-6z" stroke="#333" stroke-width="4" fill="#fff"/><use xlink:href="#c" transform="translate(347.901 294.984)"/><use xlink:href="#d" transform="translate(411.728 294.984)"/><use xlink:href="#e" transform="translate(367.877 333.206)"/><path d="M390 247.43v-22" stroke="#333" stroke-width="4" fill="none"/><path d="M392 249.43h-4v-2.05h4zm0-23.95h-4v-2.05h4z" fill="#333"/><path d="M630 101.43h120v120H630z" stroke="#333" stroke-width="4" fill="#fff"/><use xlink:href="#f" transform="translate(668.198 169.429)"/><path d="M630 257.43c0-3.32 2.7-6 6-6h108c3.3 0 6 2.68 6 6v108c0 3.3-2.7 6-6 6H636c-3.3 0-6-2.7-6-6z" stroke="#333" stroke-width="4" fill="#fff"/><use xlink:href="#c" transform="translate(647.901 294.984)"/><use xlink:href="#d" transform="translate(711.728 294.984)"/><use xlink:href="#g" transform="translate(667.877 333.206)"/><path d="M690 247.43v-22" stroke="#333" stroke-width="4" fill="none"/><path d="M692 249.43h-4v-2.05h4zm0-23.95h-4v-2.05h4z" fill="#333"/><path d="M516 237.03c0 3.3-2.7 6-6 6s-6-2.7-6-6c0-3.32 2.7-6 6-6s6 2.68 6 6zm30 0c0 3.3-2.7 6-6 6s-6-2.7-6-6c0-3.32 2.7-6 6-6s6 2.68 6 6zm30 0c0 3.3-2.7 6-6 6s-6-2.7-6-6c0-3.32 2.7-6 6-6s6 2.68 6 6z" stroke="#333" stroke-width="4" fill="#333"/><path d="M540 427.43v-22" stroke="#333" stroke-width="4" fill="none"/><path d="M542 429.43h-4v-2.05h4zm0-23.95h-4v-2.05h4z" fill="#333"/><path d="M240 491.43c0 33.14-26.86 60-60 60s-60-26.86-60-60 26.86-60 60-60 60 26.86 60 60z" stroke="#333" stroke-width="4" fill="#fff"/><use xlink:href="#h" transform="translate(138.673 495.456)"/><path d="M244 491.43h31.26" stroke="#333" stroke-width="4" fill="none"/><path d="M244.05 493.43h-2.13l.08-2-.07-2h2.12z" fill="#333"/><path d="m291.53 491.43-14.27 4.63v-9.27z" stroke="#333" stroke-width="4" fill="#333"/><path d="M960 491.43c0 33.14-26.86 60-60 60s-60-26.86-60-60 26.86-60 60-60 60 26.86 60 60z" stroke="#333" stroke-width="4" fill="#fff"/><use xlink:href="#i" transform="translate(850.03 495.456)"/><path d="M784 491.43h31.26" stroke="#333" stroke-width="4" fill="none"/><path d="M784.05 493.43H782v-4h2.05z" fill="#333"/><path d="m831.53 491.43-14.27 4.63v-9.27z" stroke="#333" stroke-width="4" fill="#333"/><defs><path fill="#333" d="M127-220V0H93v-220H8v-28h204v28h-85" id="j"/><path fill="#333" d="M100-194c63 0 86 42 84 106H49c0 40 14 67 53 68 26 1 43-12 49-29l28 8c-11 28-37 45-77 45C44 4 14-33 15-96c1-61 26-98 85-98zm52 81c6-60-76-77-97-28-3 7-6 17-6 28h103" id="k"/><path fill="#333" d="M210-169c-67 3-38 105-44 169h-31v-121c0-29-5-50-35-48C34-165 62-65 56 0H25l-1-190h30c1 10-1 24 2 32 10-44 99-50 107 0 11-21 27-35 58-36 85-2 47 119 55 194h-31v-121c0-29-5-49-35-48" id="l"/><path fill="#333" d="M115-194c55 1 70 41 70 98S169 2 115 4C84 4 66-9 55-30l1 105H24l-1-265h31l2 30c10-21 28-34 59-34zm-8 174c40 0 45-34 45-75s-6-73-45-74c-42 0-51 32-51 76 0 43 10 73 51 73" id="m"/><path fill="#333" d="M100-194c62-1 85 37 85 99 1 63-27 99-86 99S16-35 15-95c0-66 28-99 85-99zM99-20c44 1 53-31 53-75 0-43-8-75-51-75s-53 32-53 75 10 74 51 75" id="n"/><path fill="#333" d="M114-163C36-179 61-72 57 0H25l-1-190h30c1 12-1 29 2 39 6-27 23-49 58-41v29" id="o"/><path fill="#333" d="M141-36C126-15 110 5 73 4 37 3 15-17 15-53c-1-64 63-63 125-63 3-35-9-54-41-54-24 1-41 7-42 31l-33-3c5-37 33-52 76-52 45 0 72 20 72 64v82c-1 20 7 32 28 27v20c-31 9-61-2-59-35zM48-53c0 20 12 33 32 33 41-3 63-29 60-74-43 2-92-5-92 41" id="p"/><path fill="#333" d="M24 0v-261h32V0H24" id="q"/><path fill="#333" d="M223 0c-34 10-63 1-63-40v-127H89c2 62-6 119-17 167H39c12-48 20-106 19-167-17-1-32 2-44 6v-24c62-12 148-2 219-5v23h-42v120c-1 21 11 31 32 24V0" id="r"/><path fill="#333" d="M27 0v-27h64v-190l-56 39v-29l58-41h29v221h61V0H27" id="s"/><path fill="#333" d="M185-189c-5-48-123-54-124 2 14 75 158 14 163 119 3 78-121 87-175 55-17-10-28-26-33-46l33-7c5 56 141 63 141-1 0-78-155-14-162-118-5-82 145-84 179-34 5 7 8 16 11 25" id="t"/><path fill="#333" d="M59-47c-2 24 18 29 38 22v24C64 9 27 4 27-40v-127H5v-23h24l9-43h21v43h35v23H59v120" id="u"/><path fill="#333" d="M101-234c-31-9-42 10-38 44h38v23H63V0H32v-167H5v-23h27c-7-52 17-82 69-68v24" id="v"/><path fill="#333" d="M117-194c89-4 53 116 60 194h-32v-121c0-31-8-49-39-48C34-167 62-67 57 0H25l-1-190h30c1 10-1 24 2 32 11-22 29-35 61-36" id="w"/><path fill="#333" d="M233-177c-1 41-23 64-60 70L243 0h-38l-65-103H63V0H30v-248c88 3 205-21 203 71zM63-129c60-2 137 13 137-47 0-61-80-42-137-45v92" id="x"/><path fill="#333" d="M145-31C134-9 116 4 85 4 32 4 16-35 15-94c0-59 17-99 70-100 32-1 48 14 60 33 0-11-1-24 2-32h30l-1 268h-32zM93-21c41 0 51-33 51-76s-8-73-50-73c-40 0-46 35-46 75s5 74 45 74" id="y"/><path fill="#333" d="M84 4C-5 8 30-112 23-190h32v120c0 31 7 50 39 49 72-2 45-101 50-169h31l1 190h-30c-1-10 1-25-2-33-11 22-28 36-60 37" id="z"/><path fill="#333" d="M135-143c-3-34-86-38-87 0 15 53 115 12 119 90S17 21 10-45l28-5c4 36 97 45 98 0-10-56-113-15-118-90-4-57 82-63 122-42 12 7 21 19 24 35" id="A"/><g id="a"><use transform="rotate(.413) scale(.06173)" xlink:href="#j"/><use transform="matrix(.06173 0 0 .06173 11.05 0)" xlink:href="#k"/><use transform="matrix(.06173 0 0 .06173 23.395 0)" xlink:href="#l"/><use transform="matrix(.06173 0 0 .06173 41.852 0)" xlink:href="#m"/><use transform="matrix(.06173 0 0 .06173 54.198 0)" xlink:href="#n"/><use transform="matrix(.06173 0 0 .06173 66.543 0)" xlink:href="#o"/><use transform="matrix(.06173 0 0 .06173 73.889 0)" xlink:href="#p"/><use transform="matrix(.06173 0 0 .06173 86.235 0)" xlink:href="#q"/></g><g id="b"><use transform="scale(.11111)" xlink:href="#r"/><use transform="matrix(.06173 0 0 .06173 27.556 0)" xlink:href="#s"/></g><g id="c"><use transform="scale(.0679)" xlink:href="#t"/><use transform="translate(16.296) scale(.0679)" xlink:href="#u"/><use transform="translate(23.086) scale(.0679)" xlink:href="#p"/><use transform="translate(36.667) scale(.0679)" xlink:href="#u"/><use transform="translate(43.457) scale(.0679)" xlink:href="#k"/></g><g id="d"><use transform="scale(.0679)" xlink:href="#n"/><use transform="translate(13.58) scale(.0679)" xlink:href="#v"/></g><g id="e"><use transform="scale(.09877)" xlink:href="#r"/><use transform="matrix(.09877 0 0 .09877 24.494 0)" xlink:href="#s"/></g><g id="f"><use transform="scale(.11111)" xlink:href="#r"/><use transform="matrix(.08025 0 0 .08025 27.556 0)" xlink:href="#w"/></g><g id="g"><use transform="scale(.09877)" xlink:href="#r"/><use transform="matrix(.09877 0 0 .09877 24.494 0)" xlink:href="#w"/></g><g id="h"><use transform="rotate(.413) scale(.06173)" xlink:href="#x"/><use transform="matrix(.06173 0 0 .06173 15.988 0)" xlink:href="#k"/><use transform="matrix(.06173 0 0 .06173 28.333 0)" xlink:href="#y"/><use transform="matrix(.06173 0 0 .06173 40.679 0)" xlink:href="#z"/><use transform="matrix(.06173 0 0 .06173 53.025 0)" xlink:href="#k"/><use transform="matrix(.06173 0 0 .06173 65.37 0)" xlink:href="#A"/><use transform="matrix(.06173 0 0 .06173 76.481 0)" xlink:href="#u"/></g><g id="i"><use transform="rotate(.413) scale(.06173)" xlink:href="#x"/><use transform="matrix(.06173 0 0 .06173 15.988 0)" xlink:href="#k"/><use transform="matrix(.06173 0 0 .06173 28.333 0)" xlink:href="#A"/><use transform="matrix(.06173 0 0 .06173 39.444 0)" xlink:href="#m"/><use transform="matrix(.06173 0 0 .06173 51.79 0)" xlink:href="#n"/><use transform="matrix(.06173 0 0 .06173 64.136 0)" xlink:href="#w"/><use transform="matrix(.06173 0 0 .06173 76.481 0)" xlink:href="#A"/><use transform="matrix(.06173 0 0 .06173 87.593 0)" xlink:href="#k"/></g></defs></g></svg>