<svg xmlns="http://www.w3.org/2000/svg" xmlns:xlink="http://www.w3.org/1999/xlink" xmlns:lucid="lucid" width="1140" height="620"><g transform="translate(-380 -140)" lucid:page-tab-id="0_0"><path d="M0 0h1870.87v1322.83H0z" fill="#fff"/><path d="M400 161a1 1 0 0 1 1-1h1098a1 1 0 0 1 1 1v578a1 1 0 0 1-1 1H401a1 1 0 0 1-1-1z" fill="#fff"/><path d="M535.7 315a15 15 0 0 1 15-15h769.46a15 15 0 0 1 15 15v259.45a15 15 0 0 1-15 15H550.7a15 15 0 0 1-15-15z" stroke="#333" fill="#127ae5"/><path d="M560.05 340.26a15 15 0 0 1 15-15h714.33a15 15 0 0 1 15 15v204.32a15 15 0 0 1-15 15H575.05a15 15 0 0 1-15-15z" stroke="#333" fill="#fff"/><use xlink:href="#a" transform="translate(885.055 527.123)"/><path d="M587.62 367.82a15 15 0 0 1 15-15h121.62a15 15 0 0 1 15 15v116.3a15 15 0 0 1-15 15H602.62a15 15 0 0 1-15-15z" stroke="#333" fill="#fff"/><use xlink:href="#b" transform="translate(640.814 418.415)"/><use xlink:href="#c" transform="translate(626.616 445.081)"/><path d="M766.8 367.82a15 15 0 0 1 15-15h121.63a15 15 0 0 1 15 15v116.3a15 15 0 0 1-15 15H781.8a15 15 0 0 1-15-15z" stroke="#333" fill="#fff"/><use xlink:href="#d" transform="translate(797.472 405.57)"/><use xlink:href="#e" transform="translate(794.077 432.238)"/><use xlink:href="#f" transform="translate(805.805 458.904)"/><path d="M946 367.82a15 15 0 0 1 15-15h121.62a15 15 0 0 1 15 15v116.3a15 15 0 0 1-15 15H961a15 15 0 0 1-15-15z" stroke="#333" fill="#fff"/><use xlink:href="#g" transform="translate(993.606 418.415)"/><use xlink:href="#c" transform="translate(984.994 445.081)"/><path d="M1125.2 367.82a15 15 0 0 1 15-15h121.6a15 15 0 0 1 15 15v116.3a15 15 0 0 1-15 15h-121.6a15 15 0 0 1-15-15z" stroke="#333" fill="#fff"/><use xlink:href="#h" transform="translate(1161.437 418.415)"/><use xlink:href="#c" transform="translate(1164.184 445.081)"/><path d="M587.62 623a6 6 0 0 1 6-6h677.2a6 6 0 0 1 6 6v56.93a6 6 0 0 1-6 6H593.6a6 6 0 0 1-6-6z" fill="none"/><use xlink:href="#i" transform="translate(673.147 654.541)"/><use xlink:href="#j" transform="translate(792.777 654.541)"/><use xlink:href="#k" transform="translate(879.135 654.541)"/><use xlink:href="#l" transform="translate(922.344 654.541)"/><use xlink:href="#m" transform="translate(1049.011 654.541)"/><use xlink:href="#n" transform="translate(1087.221 654.541)"/><path d="M932.22 616.55V560.5" stroke="#333" fill="none"/><path d="M932.72 617.05h-1v-.5h1zm0-56.55h-1v-.5h1z" stroke="#333" stroke-width=".05" fill="#333"/><path d="M838.42 220.07a6 6 0 0 1 6-6h182.03a6 6 0 0 1 6 6v46.35a6 6 0 0 1-6 6H844.42a6 6 0 0 1-6-6z" fill="none"/><use xlink:href="#o" transform="translate(851.97 249.095)"/><use xlink:href="#p" transform="translate(949.685 249.095)"/><path d="M935.43 272.88v26.2" stroke="#333" fill="none"/><path d="M935.93 272.9h-1v-.52h1zm0 26.68h-1v-.52h1z" stroke="#333" stroke-width=".05" fill="#333"/><defs><path fill="#333" d="M30-248c118-7 216 8 213 122C240-48 200 0 122 0H30v-248zM63-27c89 8 146-16 146-99s-60-101-146-95v194" id="q"/><path fill="#333" d="M141-36C126-15 110 5 73 4 37 3 15-17 15-53c-1-64 63-63 125-63 3-35-9-54-41-54-24 1-41 7-42 31l-33-3c5-37 33-52 76-52 45 0 72 20 72 64v82c-1 20 7 32 28 27v20c-31 9-61-2-59-35zM48-53c0 20 12 33 32 33 41-3 63-29 60-74-43 2-92-5-92 41" id="r"/><path fill="#333" d="M59-47c-2 24 18 29 38 22v24C64 9 27 4 27-40v-127H5v-23h24l9-43h21v43h35v23H59v120" id="s"/><path fill="#333" d="M115-194c53 0 69 39 70 98 0 66-23 100-70 100C84 3 66-7 56-30L54 0H23l1-261h32v101c10-23 28-34 59-34zm-8 174c40 0 45-34 45-75 0-40-5-75-45-74-42 0-51 32-51 76 0 43 10 73 51 73" id="t"/><path fill="#333" d="M135-143c-3-34-86-38-87 0 15 53 115 12 119 90S17 21 10-45l28-5c4 36 97 45 98 0-10-56-113-15-118-90-4-57 82-63 122-42 12 7 21 19 24 35" id="u"/><path fill="#333" d="M100-194c63 0 86 42 84 106H49c0 40 14 67 53 68 26 1 43-12 49-29l28 8c-11 28-37 45-77 45C44 4 14-33 15-96c1-61 26-98 85-98zm52 81c6-60-76-77-97-28-3 7-6 17-6 28h103" id="v"/><path fill="#333" d="M127-220V0H93v-220H8v-28h204v28h-85" id="w"/><path fill="#333" d="M143 0 79-87 56-68V0H24v-261h32v163l83-92h37l-77 82L181 0h-38" id="x"/><path fill="#333" d="M100-194c62-1 85 37 85 99 1 63-27 99-86 99S16-35 15-95c0-66 28-99 85-99zM99-20c44 1 53-31 53-75 0-43-8-75-51-75s-53 32-53 75 10 74 51 75" id="y"/><path fill="#333" d="M114-163C36-179 61-72 57 0H25l-1-190h30c1 12-1 29 2 39 6-27 23-49 58-41v29" id="z"/><path fill="#333" d="M177-190C167-65 218 103 67 71c-23-6-38-20-44-43l32-5c15 47 100 32 89-28v-30C133-14 115 1 83 1 29 1 15-40 15-95c0-56 16-97 71-98 29-1 48 16 59 35 1-10 0-23 2-32h30zM94-22c36 0 50-32 50-73 0-42-14-75-50-75-39 0-46 34-46 75s6 73 46 73" id="A"/><path fill="#333" d="M266 0h-40l-56-210L115 0H75L2-248h35L96-30l15-64 43-154h32l59 218 59-218h35" id="B"/><path fill="#333" d="M101-234c-31-9-42 10-38 44h38v23H63V0H32v-167H5v-23h27c-7-52 17-82 69-68v24" id="C"/><path fill="#333" d="M24 0v-261h32V0H24" id="D"/><path fill="#333" d="M206 0h-36l-40-164L89 0H53L-1-190h32L70-26l43-164h34l41 164 42-164h31" id="E"/><path fill="#333" d="M30 0v-248h187v28H63v79h144v27H63v87h162V0H30" id="F"/><path fill="#333" d="M141 0 90-78 38 0H4l68-98-65-92h35l48 74 47-74h35l-64 92 68 98h-35" id="G"/><path fill="#333" d="M96-169c-40 0-48 33-48 73s9 75 48 75c24 0 41-14 43-38l32 2c-6 37-31 61-74 61-59 0-76-41-82-99-10-93 101-131 147-64 4 7 5 14 7 22l-32 3c-4-21-16-35-41-35" id="H"/><path fill="#333" d="M84 4C-5 8 30-112 23-190h32v120c0 31 7 50 39 49 72-2 45-101 50-169h31l1 190h-30c-1-10 1-25-2-33-11 22-28 36-60 37" id="I"/><path fill="#333" d="M24-231v-30h32v30H24zM24 0v-190h32V0H24" id="J"/><path fill="#333" d="M117-194c89-4 53 116 60 194h-32v-121c0-31-8-49-39-48C34-167 62-67 57 0H25l-1-190h30c1 10-1 24 2 32 11-22 29-35 61-36" id="K"/><path fill="#333" d="M108 0H70L1-190h34L89-25l56-165h34" id="L"/><path fill="#333" d="M137 0h-34L2-248h35l83 218 83-218h36" id="M"/><path fill="#333" d="M179-190 93 31C79 59 56 82 12 73V49c39 6 53-20 64-50L1-190h34L92-34l54-156h33" id="N"/><path fill="#333" d="M125-24c46 0 70-25 89-51l25 16C214-24 183 4 123 4 8 4-5-146 60-208c32-50 158-61 191-5 5 7 9 14 11 22l-32 10c-9-28-33-43-69-43-74 0-108 51-108 125 0 46 24 75 72 75" id="O"/><path fill="#333" d="M165-48c-4 18 1 34 23 27l-3 20c-29 8-62 0-52-35h-2C116-14 99 4 63 4 30 4 8-16 8-49c0-68 71-67 138-67 10-26 0-56-31-54-26 1-42 9-47 31l-32-5c8-67 160-71 144 15-5 28-9 54-15 81zM42-50c3 52 80 24 89-6 7-12 7-24 11-38-47 1-103-4-100 44" id="P"/><path fill="#333" d="M55-144c13 50 104 24 104 88C159 21 15 23 1-39l26-10c6 40 102 42 102-4-13-50-104-23-104-87 0-71 143-71 148-8l-29 4c-5-35-85-37-89 0" id="Q"/><path fill="#333" d="M67-158c22-48 132-52 116 29L158 0h-32l25-140c3-38-53-32-70-12C52-117 51-52 38 0H6l36-190h30" id="R"/><path fill="#333" d="M133-28C103 26-5 8 13-77c13-62 24-115 90-117 29-1 46 15 56 35l19-102h32L160 0h-30zM45-64c-2 27 10 43 35 43 54-1 69-50 69-103 0-29-15-46-42-46-53-1-58 58-62 106" id="S"/><path fill="#333" d="M66-151c12-25 30-51 66-40l-6 26C45-176 58-65 38 0H6l36-190h30" id="T"/><path fill="#333" d="M58-38C53-5 46 26 28 46H7C19 32 27 18 32 0H17l7-38h34" id="U"/><path fill="#333" d="m222 0 43-216c-8 16-17 34-26 49L143 0h-22L81-216 41 0H11l48-248h42l38 208 116-208h45L252 0h-30" id="V"/><path fill="#333" d="M198-190 69 30C53 58 25 83-20 72c4-11-1-27 19-22 33-1 43-29 59-52L20-190h32L79-34l84-156h35" id="W"/><path fill="#333" d="M194-120c59 52 2 134-86 124-53-6-90-18-98-63l31-7c8 30 29 43 70 43 46 0 84-17 71-62-32-43-135-20-137-98-3-89 178-90 191-16l-30 9c-8-48-127-53-127 5 0 53 81 35 115 65" id="X"/><path fill="#333" d="M24-61C-1-165 59-251 163-251c67 1 105 36 105 101 0 88-46 140-124 152 2 33 24 47 60 39l-3 23c-50 15-89-11-89-61-46-3-79-26-88-64zm210-73c6-55-18-91-72-90-77 1-111 51-111 125 0 49 24 75 73 75 72 0 103-45 110-110" id="Y"/><path fill="#333" d="m11 0 48-248h34L50-27h125l-5 27H11" id="Z"/><path fill="#333" d="M238-179c0 84-86 86-175 82L45 0H11l48-248c82 0 179-12 179 69zm-34 1c0-53-64-42-116-43l-19 98c63 0 135 9 135-55" id="aa"/><path fill="#333" d="M30-147c31-64 166-65 159 27C183-49 158 1 86 4 9 8 1-88 30-147zM88-20c53 0 68-48 68-100 0-31-11-51-44-50-52 1-68 46-68 97 0 32 13 53 44 53" id="ab"/><path fill="#333" d="M51-54c-9 22 5 41 31 30L79-1C43 14 10-4 19-52l22-115H19l5-23h22l19-43h21l-9 43h35l-4 23H73" id="ac"/><path fill="#333" d="M103-194c29 0 47 14 56 36 2-11 5-23 8-32h30L160-5C157 61 82 97 21 62 9 55 4 45 1 30l28-7c7 42 83 31 92-3 4-16 9-38 13-55-13 20-29 36-62 36-40 0-60-25-60-64 0-71 23-131 91-131zm4 24c-53 0-58 54-61 104-2 27 10 44 36 44 49 0 65-50 67-102 1-29-15-46-42-46" id="ad"/><path fill="#333" d="M111-194c62-3 86 47 72 106H45c-7 38 6 69 45 68 27-1 43-14 53-32l24 11C152-15 129 4 87 4 38 3 12-23 12-71c0-70 32-119 99-123zm44 81c14-66-71-72-95-28-4 8-8 17-11 28h106" id="ae"/><path fill="#333" d="M67 3c-93-2-31-127-26-193h32L48-50c-3 39 53 32 70 12 30-34 30-101 43-152h32L157 0h-30c1-10 6-24 4-33-14 20-29 37-64 36" id="af"/><path fill="#333" d="M67-162c32-53 139-36 121 50C175-51 163 2 97 4 68 4 52-11 42-31 38 6 28 39 22 75H-9l50-265h29c-1 10 0 20-3 28zm89 36c0-26-10-43-35-43-54 0-67 50-69 103-1 29 14 45 42 46 53 0 62-58 62-106" id="ag"/><path fill="#333" d="m14 0 8-38h34L48 0H14" id="ah"/><path fill="#333" d="M151-220 108 0H75l42-220H32l6-28h203l-5 28h-85" id="ai"/><path fill="#333" d="M248-111c6-24 9-61-24-58-72 9-57 108-77 169h-31l26-142c3-37-50-30-64-10C52-115 50-51 37 0H6l36-190h30c-1 10-6 24-4 32 13-43 101-52 105 5 13-22 29-41 61-41 90 0 28 129 23 194h-31" id="aj"/><path fill="#333" d="m6 0 50-261h32L37 0H6" id="ak"/><g id="a"><use transform="rotate(.413) scale(.06173)" xlink:href="#q"/><use transform="matrix(.06173 0 0 .06173 15.988 0)" xlink:href="#r"/><use transform="matrix(.06173 0 0 .06173 28.333 0)" xlink:href="#s"/><use transform="matrix(.06173 0 0 .06173 34.506 0)" xlink:href="#r"/><use transform="matrix(.06173 0 0 .06173 46.852 0)" xlink:href="#t"/><use transform="matrix(.06173 0 0 .06173 59.198 0)" xlink:href="#r"/><use transform="matrix(.06173 0 0 .06173 71.543 0)" xlink:href="#u"/><use transform="matrix(.06173 0 0 .06173 82.654 0)" xlink:href="#v"/></g><g id="b"><use transform="rotate(.413) scale(.06173)" xlink:href="#w"/><use transform="matrix(.06173 0 0 .06173 11.05 0)" xlink:href="#r"/><use transform="matrix(.06173 0 0 .06173 23.395 0)" xlink:href="#u"/><use transform="matrix(.06173 0 0 .06173 34.506 0)" xlink:href="#x"/></g><g id="c"><use transform="rotate(.413) scale(.06173)" xlink:href="#u"/><use transform="matrix(.06173 0 0 .06173 11.111 0)" xlink:href="#s"/><use transform="matrix(.06173 0 0 .06173 17.284 0)" xlink:href="#y"/><use transform="matrix(.06173 0 0 .06173 29.63 0)" xlink:href="#z"/><use transform="matrix(.06173 0 0 .06173 36.975 0)" xlink:href="#r"/><use transform="matrix(.06173 0 0 .06173 49.321 0)" xlink:href="#A"/><use transform="matrix(.06173 0 0 .06173 61.667 0)" xlink:href="#v"/></g><g id="d"><use transform="rotate(.413) scale(.06173)" xlink:href="#B"/><use transform="matrix(.06173 0 0 .06173 20.494 0)" xlink:href="#y"/><use transform="matrix(.06173 0 0 .06173 32.84 0)" xlink:href="#z"/><use transform="matrix(.06173 0 0 .06173 40.185 0)" xlink:href="#x"/><use transform="matrix(.06173 0 0 .06173 51.296 0)" xlink:href="#C"/><use transform="matrix(.06173 0 0 .06173 57.47 0)" xlink:href="#D"/><use transform="matrix(.06173 0 0 .06173 62.346 0)" xlink:href="#y"/><use transform="matrix(.06173 0 0 .06173 74.691 0)" xlink:href="#E"/></g><g id="e"><use transform="rotate(.413) scale(.06173)" xlink:href="#F"/><use transform="matrix(.06173 0 0 .06173 14.815 0)" xlink:href="#G"/><use transform="matrix(.06173 0 0 .06173 25.926 0)" xlink:href="#v"/><use transform="matrix(.06173 0 0 .06173 38.272 0)" xlink:href="#H"/><use transform="matrix(.06173 0 0 .06173 49.383 0)" xlink:href="#I"/><use transform="matrix(.06173 0 0 .06173 61.728 0)" xlink:href="#s"/><use transform="matrix(.06173 0 0 .06173 67.901 0)" xlink:href="#J"/><use transform="matrix(.06173 0 0 .06173 72.778 0)" xlink:href="#y"/><use transform="matrix(.06173 0 0 .06173 85.123 0)" xlink:href="#K"/></g><g id="f"><use transform="rotate(.413) scale(.06173)" xlink:href="#u"/><use transform="matrix(.06173 0 0 .06173 11.111 0)" xlink:href="#s"/><use transform="matrix(.06173 0 0 .06173 17.284 0)" xlink:href="#y"/><use transform="matrix(.06173 0 0 .06173 29.63 0)" xlink:href="#z"/><use transform="matrix(.06173 0 0 .06173 36.975 0)" xlink:href="#r"/><use transform="matrix(.06173 0 0 .06173 49.321 0)" xlink:href="#A"/><use transform="matrix(.06173 0 0 .06173 61.667 0)" xlink:href="#v"/></g><g id="g"><use transform="rotate(.413) scale(.06173)" xlink:href="#F"/><use transform="matrix(.06173 0 0 .06173 14.815 0)" xlink:href="#L"/><use transform="matrix(.06173 0 0 .06173 25.926 0)" xlink:href="#v"/><use transform="matrix(.06173 0 0 .06173 38.272 0)" xlink:href="#K"/><use transform="matrix(.06173 0 0 .06173 50.617 0)" xlink:href="#s"/></g><g id="h"><use transform="rotate(.413) scale(.06173)" xlink:href="#M"/><use transform="matrix(.06173 0 0 .06173 14.383 0)" xlink:href="#J"/><use transform="matrix(.06173 0 0 .06173 19.26 0)" xlink:href="#u"/><use transform="matrix(.06173 0 0 .06173 30.37 0)" xlink:href="#J"/><use transform="matrix(.06173 0 0 .06173 35.247 0)" xlink:href="#t"/><use transform="matrix(.06173 0 0 .06173 47.593 0)" xlink:href="#J"/><use transform="matrix(.06173 0 0 .06173 52.47 0)" xlink:href="#D"/><use transform="matrix(.06173 0 0 .06173 57.346 0)" xlink:href="#J"/><use transform="matrix(.06173 0 0 .06173 62.222 0)" xlink:href="#s"/><use transform="matrix(.06173 0 0 .06173 68.395 0)" xlink:href="#N"/></g><g id="i"><use transform="rotate(.413) scale(.06173)" xlink:href="#O"/><use transform="matrix(.06173 0 0 .06173 15.988 0)" xlink:href="#P"/><use transform="matrix(.06173 0 0 .06173 28.333 0)" xlink:href="#Q"/><use transform="matrix(.06173 0 0 .06173 39.444 0)" xlink:href="#Q"/><use transform="matrix(.06173 0 0 .06173 50.556 0)" xlink:href="#P"/><use transform="matrix(.06173 0 0 .06173 62.901 0)" xlink:href="#R"/><use transform="matrix(.06173 0 0 .06173 75.247 0)" xlink:href="#S"/><use transform="matrix(.06173 0 0 .06173 87.593 0)" xlink:href="#T"/><use transform="matrix(.06173 0 0 .06173 94.938 0)" xlink:href="#P"/><use transform="matrix(.06173 0 0 .06173 107.284 0)" xlink:href="#U"/></g><g id="j"><use transform="rotate(.413) scale(.06173)" xlink:href="#V"/><use transform="matrix(.06173 0 0 .06173 18.457 0)" xlink:href="#W"/><use transform="matrix(.06173 0 0 .06173 29.568 0)" xlink:href="#X"/><use transform="matrix(.06173 0 0 .06173 44.383 0)" xlink:href="#Y"/><use transform="matrix(.06173 0 0 .06173 61.667 0)" xlink:href="#Z"/><use transform="matrix(.06173 0 0 .06173 74.012 0)" xlink:href="#U"/></g><g id="k"><use transform="rotate(.413) scale(.06173)" xlink:href="#P"/><use transform="matrix(.06173 0 0 .06173 12.346 0)" xlink:href="#R"/><use transform="matrix(.06173 0 0 .06173 24.691 0)" xlink:href="#S"/></g><g id="l"><use transform="rotate(.413) scale(.06173)" xlink:href="#aa"/><use transform="matrix(.06173 0 0 .06173 14.815 0)" xlink:href="#ab"/><use transform="matrix(.06173 0 0 .06173 27.16 0)" xlink:href="#Q"/><use transform="matrix(.06173 0 0 .06173 38.272 0)" xlink:href="#ac"/><use transform="matrix(.06173 0 0 .06173 44.444 0)" xlink:href="#ad"/><use transform="matrix(.06173 0 0 .06173 56.79 0)" xlink:href="#T"/><use transform="matrix(.06173 0 0 .06173 64.136 0)" xlink:href="#ae"/><use transform="matrix(.06173 0 0 .06173 76.481 0)" xlink:href="#X"/><use transform="matrix(.06173 0 0 .06173 91.296 0)" xlink:href="#Y"/><use transform="matrix(.06173 0 0 .06173 108.58 0)" xlink:href="#Z"/></g><g id="m"><use transform="rotate(.413) scale(.06173)" xlink:href="#P"/><use transform="matrix(.06173 0 0 .06173 12.346 0)" xlink:href="#T"/><use transform="matrix(.06173 0 0 .06173 19.691 0)" xlink:href="#ae"/></g><g id="n"><use transform="rotate(.413) scale(.06173)" xlink:href="#Q"/><use transform="matrix(.06173 0 0 .06173 11.111 0)" xlink:href="#af"/><use transform="matrix(.06173 0 0 .06173 23.457 0)" xlink:href="#ag"/><use transform="matrix(.06173 0 0 .06173 35.802 0)" xlink:href="#ag"/><use transform="matrix(.06173 0 0 .06173 48.148 0)" xlink:href="#ab"/><use transform="matrix(.06173 0 0 .06173 60.494 0)" xlink:href="#T"/><use transform="matrix(.06173 0 0 .06173 67.84 0)" xlink:href="#ac"/><use transform="matrix(.06173 0 0 .06173 74.012 0)" xlink:href="#ae"/><use transform="matrix(.06173 0 0 .06173 86.358 0)" xlink:href="#S"/><use transform="matrix(.06173 0 0 .06173 98.704 0)" xlink:href="#ah"/></g><g id="o"><use transform="rotate(.413) scale(.06173)" xlink:href="#ai"/><use transform="matrix(.06173 0 0 .06173 11.481 0)" xlink:href="#ae"/><use transform="matrix(.06173 0 0 .06173 23.827 0)" xlink:href="#aj"/><use transform="matrix(.06173 0 0 .06173 42.284 0)" xlink:href="#ag"/><use transform="matrix(.06173 0 0 .06173 54.63 0)" xlink:href="#ab"/><use transform="matrix(.06173 0 0 .06173 66.975 0)" xlink:href="#T"/><use transform="matrix(.06173 0 0 .06173 74.321 0)" xlink:href="#P"/><use transform="matrix(.06173 0 0 .06173 86.667 0)" xlink:href="#ak"/></g><g id="p"><use transform="rotate(.413) scale(.06173)" xlink:href="#O"/><use transform="matrix(.06173 0 0 .06173 15.988 0)" xlink:href="#ak"/><use transform="matrix(.06173 0 0 .06173 20.864 0)" xlink:href="#af"/><use transform="matrix(.06173 0 0 .06173 33.21 0)" xlink:href="#Q"/><use transform="matrix(.06173 0 0 .06173 44.321 0)" xlink:href="#ac"/><use transform="matrix(.06173 0 0 .06173 50.494 0)" xlink:href="#ae"/><use transform="matrix(.06173 0 0 .06173 62.84 0)" xlink:href="#T"/></g></defs></g></svg>