<svg xmlns="http://www.w3.org/2000/svg" xmlns:xlink="http://www.w3.org/1999/xlink" xmlns:lucid="lucid" width="1140" height="1040"><g transform="translate(-280 1200)" lucid:page-tab-id="0_0"><path d="M300-1179a1 1 0 0 1 1-1h1098a1 1 0 0 1 1 1v998a1 1 0 0 1-1 1H301a1 1 0 0 1-1-1z" fill="#fff"/><path d="M354.93-841.12a15 15 0 0 1 15-15h947.9a15 15 0 0 1 15 15v528.8a15 15 0 0 1-15 15h-947.9a15 15 0 0 1-15-15z" stroke="#333" fill="#127ae5"/><path d="M556.72-810.08a15 15 0 0 1 15-15h715.07a15 15 0 0 1 15 15v466.72a15 15 0 0 1-15 15H571.7a15 15 0 0 1-15-15z" fill="#f2f3f5"/><path d="M557.9-815.8l.45-1.08 1.23-2 .26-.3m2.76-2.78l.3-.25 2-1.24 1.1-.45m3.76-1.02l1.96-.16h2m4.02 0h4.02m4.02 0h4m4.03 0h4.03m4.02 0h4m4.03 0h4.02m4 0h4.03m4.02 0h4.02m4 0H638m4.02 0h4.02m4 0h4.03m4.02 0h4m4.02 0h4.02m4.02 0h4m4.03 0h4m4.03 0h4m4.03 0h4.02m4 0h4.03m4.03 0h4.02m4 0h4.03m4.02 0h4.02m4 0h4.03m4.02 0h4m4.03 0h4.02m4.02 0h4m4.03 0h4.02m4 0h4.02m4.02 0h4.02m4 0h4.03m4 0h4.03m4 0h4.03m4.02 0h4.02m4 0h4.03m4.02 0h4m4.03 0h4.02m4.02 0h4m4.03 0h4.02m4.02 0h4m4.02 0h4.02m4 0h4.03m4.02 0h4m4.02 0h4.02m4.02 0h4.02m4 0h4.03m4.03 0h4m4.03 0h4.02m4.02 0h4m4.03 0h4.02m4.02 0h4m4.03 0h4.02m4 0h4.03m4.02 0h4.02m4 0h4.02m4.02 0h4.02m4 0h4.03m4 0h4.02m4.02 0h4.02m4.02 0h4m4.03 0h4.03m4.02 0h4m4.03 0h4.02m4.02 0h4m4.03 0h4.02m4 0h4.03m4.02 0h4.02m4 0h4.03m4.02 0h4m4.02 0h4.02m4.02 0h4m4.03 0h4m4.03 0h4m4.03 0h4.02m4 0h4.03m4.03 0h4.02m4 0h4.03m4.02 0h4.02m4 0h4.03m4.02 0h4.02m4 0h4.02m4.02 0h4m4.03 0h4.02m4 0h4.02m4.02 0h4.02m4.02 0h4m4.03 0h4.03m4 0h4.03m4.02 0h4.02m4 0h4.03m4.02 0h4.02m4 0h2.02l1.95.16m3.76 1.03l1.1.46 2 1.23.3.25m2.77 2.76l.26.3 1.23 2.02.45 1.08m1.04 3.77l.15 1.95v2.02m0 4.02v4.02m0 4.03v4.03m0 4.02v4.03m0 4.02v4.02m0 4.03v4.02m0 4.03v4.02m0 4.02v4.02m0 4.03v4m0 4.04v4.02m0 4.02v4.02m0 4.03v4.02m0 4.03v4.02m0 4.02v4.03m0 4.02v4.02m0 4.02v4.02m0 4.02v4.03m0 4v4.03m0 4.03v4.02m0 4.02v4.03m0 4.02v4.02m0 4.03v4.02m0 4.02v4.03m0 4.02v4m0 4.04v4.02m0 4.03v4m0 4.03v4.02m0 4.03v4.02m0 4.02v4.03m0 4.02v4.02m0 4.02v4.02m0 4.03v4.02m0 4v4.04m0 4.02v4.02m0 4.03v4.03m0 4.02v4.03m0 4.02v4.02m0 4.03v4.02m0 4.02v4.02m0 4.02v4.02m0 4.03v4m0 4.03v4.03m0 4.02v4.02m0 4.03v4.02m0 4.02v4.03m0 4.02v4.03m0 4.02v4.02m0 4v4.04m0 4.02v4.02m0 4.03v4.03m0 4.02v4.03m0 4.02v4.03m0 4.02v4.02m0 4.03v4.02m0 4.02v4.03m0 4.02v4m0 4.04v4.02m0 4.02v4.03m0 4.03v2l-.16 1.97m-1.03 3.76l-.44 1.1-1.23 2-.26.3m-2.76 2.76l-.3.26-2 1.23-1.1.46m-3.75 1.03l-1.96.14h-2.02m-4 0h-4.03m-4.02 0h-4.02m-4 0h-4.02m-4.02 0h-4.02m-4 0h-4.03m-4 0h-4.02m-4.02 0h-4.02m-4.02 0h-4m-4.03 0h-4.03m-4.02 0h-4m-4.03 0h-4.02m-4.02 0h-4m-4.03 0h-4.02m-4 0h-4.03m-4.02 0h-4.02m-4 0h-4.03m-4.02 0h-4m-4.02 0h-4.02m-4.02 0h-4m-4.03 0h-4m-4.03 0h-4m-4.03 0h-4.02m-4 0h-4.03m-4.03 0h-4.02m-4 0h-4.03m-4.02 0h-4.02m-4 0h-4.03m-4.02 0h-4m-4.03 0h-4.02m-4.02 0h-4m-4.03 0h-4.02m-4 0h-4.02m-4.02 0h-4.02m-4 0h-4.03m-4 0h-4.03m-4 0h-4.03m-4.02 0h-4.02m-4 0h-4.03m-4.02 0h-4.02m-4 0h-4.03m-4.02 0h-4m-4.03 0h-4.02m-4.02 0h-4m-4.02 0h-4.02m-4 0h-4.03m-4.02 0h-4m-4.02 0h-4.02m-4.02 0h-4.02m-4 0h-4.03m-4.03 0h-4.02m-4 0H875m-4.02 0h-4m-4.03 0h-4.02m-4.02 0h-4m-4.03 0h-4.02m-4 0h-4.03m-4.02 0h-4.02m-4 0h-4.02m-4.02 0h-4.02m-4 0h-4.03m-4 0h-4.03m-4 0h-4.03m-4.02 0h-4m-4.03 0h-4.03m-4.02 0h-4m-4.03 0h-4.02m-4 0h-4.03m-4.02 0h-4.02m-4 0h-4.03m-4.02 0h-4.02m-4 0h-4.03m-4.02 0h-4m-4.02 0h-4.02m-4.02 0h-4m-4.03 0h-4m-4.03 0h-4m-4.03 0h-4.02m-4 0h-4.03m-4.03 0h-4.02m-4 0H642m-4.02 0h-4.02m-4 0h-4.03m-4.02 0h-4m-4.03 0h-4.02m-4.02 0h-4m-4.03 0h-4.02m-4 0h-4.02m-4.02 0h-4.02m-4 0h-2.02l-1.96-.15m-3.77-1.04l-1.1-.45-2-1.22-.3-.26m-2.76-2.76l-.26-.3-1.23-2-.45-1.1m-1.03-3.76l-.15-1.96v-2m0-4.03v-4.02m0-4.02v-4.02m0-4.03v-4m0-4.03v-4.03m0-4.02v-4.02m0-4.03v-4.02m0-4.02v-4.03m0-4.02v-4.02m0-4.03v-4.02m0-4v-4.04m0-4.02v-4.02m0-4.03v-4.03m0-4.02v-4.03m0-4.02v-4.03m0-4.02v-4.02m0-4.03v-4.02m0-4.02v-4.03m0-4.02v-4m0-4.04v-4.02m0-4.02v-4.03m0-4.03v-4.02m0-4.03v-4.02m0-4.02v-4.03m0-4.02v-4.02m0-4.02v-4.02m0-4.02v-4.03m0-4v-4.03m0-4.03v-4.02m0-4.03v-4.03m0-4.02v-4.02m0-4.03v-4.02m0-4.02v-4.03m0-4.02v-4m0-4.04v-4.02m0-4.03v-4m0-4.03v-4.03m0-4.02v-4.02m0-4.03v-4.02m0-4.02v-4.03m0-4.02v-4.02m0-4.03v-4.02m0-4v-4.04m0-4.02v-4.02m0-4.03v-4.03m0-4.02v-4.03m0-4.02v-4.02m0-4.03v-4.02m0-4.02v-4.02m0-4.02v-4.02m0-4.03v-4m0-4.03v-4.03m0-4.02v-4.02m0-4.03v-4.02m0-4.03v-4.02m0-4.02v-4.03m0-4.02V-796m0-4.02v-4.02m0-4.02v-2.02l.15-1.95" stroke="#fff" fill="none"/><path d="M572.24-1105a15 15 0 0 1 15-15h125.22a15 15 0 0 1 15 15v125.22a15 15 0 0 1-15 15H587.24a15 15 0 0 1-15-15z" stroke="#333" fill="#fff"/><use xlink:href="#a" transform="matrix(1,0,0,1,577.2388059701492,-1115) translate(58.83333333333334 77.09027777777777)"/><path d="M758.5-1105a15 15 0 0 1 15-15h125.23a15 15 0 0 1 15 15v125.22a15 15 0 0 1-15 15H773.5a15 15 0 0 1-15-15z" stroke="#333" fill="#fff"/><use xlink:href="#b" transform="matrix(1,0,0,1,763.5074626865671,-1115) translate(36.24074074074077 77.09027777777777)"/><use xlink:href="#c" transform="matrix(1,0,0,1,763.5074626865671,-1115) translate(87.59876543209876 77.09027777777777)"/><path d="M944.78-1105a15 15 0 0 1 15-15H1085a15 15 0 0 1 15 15v125.22a15 15 0 0 1-15 15H959.78a15 15 0 0 1-15-15z" stroke="#333" fill="#fff"/><use xlink:href="#d" transform="matrix(1,0,0,1,949.7761194029852,-1115) translate(37.506172839506206 63.402777777777764)"/><use xlink:href="#e" transform="matrix(1,0,0,1,949.7761194029852,-1115) translate(21.179012345679055 90.0694444444444)"/><path d="M1131.05-1105a15 15 0 0 1 15-15h125.22a15 15 0 0 1 15 15v125.22a15 15 0 0 1-15 15h-125.22a15 15 0 0 1-15-15z" stroke="#333" fill="#fff"/><use xlink:href="#f" transform="matrix(1,0,0,1,1136.0447761194032,-1115) translate(18.80246913580251 63.402777777777764)"/><use xlink:href="#g" transform="matrix(1,0,0,1,1136.0447761194032,-1115) translate(70.5925925925926 63.402777777777764)"/><use xlink:href="#h" transform="matrix(1,0,0,1,1136.0447761194032,-1115) translate(26.11728395061732 90.0694444444444)"/><path d="M572.24-794.55a15 15 0 0 1 15-15h684.03a15 15 0 0 1 15 15v125.22a15 15 0 0 1-15 15H587.24a15 15 0 0 1-15-15z" stroke="#333" fill="#fff"/><use xlink:href="#i" transform="matrix(1,0,0,1,577.2388059701493,-804.5522388059702) translate(304.53703703703707 63.402777777777764)"/><use xlink:href="#j" transform="matrix(1,0,0,1,577.2388059701493,-804.5522388059702) translate(312.9938271604939 90.0694444444444)"/><path d="M649.85-963.78v70.62a6 6 0 0 0 6 6h267.4a6 6 0 0 1 6 6v70.6" stroke="#333" fill="none"/><path d="M650.33-963.76h-.95v-.52h.95zM929.73-810.05h-.95v-.52h.95z" stroke="#333" stroke-width=".05" fill="#333"/><path d="M836.12-963.78v70.62a6 6 0 0 0 6 6h81.13a6 6 0 0 1 6 6v70.6" stroke="#333" fill="none"/><path d="M836.6-963.76h-.96v-.52h.95zM929.73-810.05h-.95v-.52h.95z" stroke="#333" stroke-width=".05" fill="#333"/><path d="M1022.4-963.78v70.62a6 6 0 0 1-6 6h-81.15a6 6 0 0 0-6 6v70.6" stroke="#333" fill="none"/><path d="M1022.86-963.76h-.95v-.52h.96zM929.73-810.05h-.95v-.52h.95z" stroke="#333" stroke-width=".05" fill="#333"/><path d="M1208.66-963.78v70.62a6 6 0 0 1-6 6h-267.4a6 6 0 0 0-6 6v70.6" stroke="#333" fill="none"/><path d="M1209.13-963.76h-.95v-.52h.95zM929.73-810.05h-.95v-.52h.95z" stroke="#333" stroke-width=".05" fill="#333"/><path d="M572.24-484.1a15 15 0 0 1 15-15h125.22a15 15 0 0 1 15 15v125.22a15 15 0 0 1-15 15H587.24a15 15 0 0 1-15-15z" stroke="#333" fill="#fff"/><use xlink:href="#k" transform="matrix(1,0,0,1,577.2388059701493,-494.10447761194035) translate(28.000000000000036 63.402777777777764)"/><use xlink:href="#l" transform="matrix(1,0,0,1,577.2388059701493,-494.10447761194035) translate(36.024691358024725 90.0694444444444)"/><path d="M385.97-484.1a15 15 0 0 1 15-15H526.2a15 15 0 0 1 15 15v125.22a15 15 0 0 1-15 15H400.96a15 15 0 0 1-15-15z" stroke="#333" fill="#fff"/><use xlink:href="#m" transform="matrix(1,0,0,1,390.9701492537314,-494.10447761194035) translate(25.500000000000043 77.09027777777777)"/><path d="M944.78-484.1a15 15 0 0 1 15-15H1085a15 15 0 0 1 15 15v125.22a15 15 0 0 1-15 15H959.78a15 15 0 0 1-15-15z" stroke="#333" fill="#fff"/><use xlink:href="#n" transform="matrix(1,0,0,1,949.776119402985,-494.10447761194035) translate(38.52469135802472 63.402777777777764)"/><use xlink:href="#l" transform="matrix(1,0,0,1,949.776119402985,-494.10447761194035) translate(36.024691358024725 90.0694444444444)"/><path d="M758.5-484.1a15 15 0 0 1 15-15h125.23a15 15 0 0 1 15 15v125.22a15 15 0 0 1-15 15H773.5a15 15 0 0 1-15-15z" stroke="#333" fill="#fff"/><use xlink:href="#o" transform="matrix(1,0,0,1,763.5074626865672,-494.10447761194035) translate(37.506172839506206 63.402777777777764)"/><use xlink:href="#l" transform="matrix(1,0,0,1,763.5074626865672,-494.10447761194035) translate(36.024691358024725 90.0694444444444)"/><path d="M1131.05-484.1a15 15 0 0 1 15-15h125.22a15 15 0 0 1 15 15v125.22a15 15 0 0 1-15 15h-125.22a15 15 0 0 1-15-15z" stroke="#333" fill="#fff"/><use xlink:href="#p" transform="matrix(1,0,0,1,1136.0447761194032,-494.10447761194035) translate(7.043209876543273 77.09027777777777)"/><path d="M929.25-653.33v70.6a6 6 0 0 1-6 6H469.58a6 6 0 0 0-6 6v70.63" stroke="#282c33" fill="none"/><path d="M929.73-653.32h-.95v-.5h.95zM464.06-499.6h-.95v-.52h.96z" stroke="#282c33" stroke-width=".05" fill="#282c33"/><path d="M929.25-653.33v70.6a6 6 0 0 1-6 6h-267.4a6 6 0 0 0-6 6v70.63" stroke="#282c33" fill="none"/><path d="M929.73-653.32h-.95v-.5h.95zM650.33-499.6h-.95v-.52h.95z" stroke="#282c33" stroke-width=".05" fill="#282c33"/><path d="M929.25-653.33v70.6a6 6 0 0 1-6 6h-81.13a6 6 0 0 0-6 6v70.63" stroke="#282c33" fill="none"/><path d="M929.73-653.32h-.95v-.5h.95zM836.6-499.6h-.96v-.52h.95z" stroke="#282c33" stroke-width=".05" fill="#282c33"/><path d="M929.25-653.33v70.6a6 6 0 0 0 6 6h81.14a6 6 0 0 1 6 6v70.63" stroke="#282c33" fill="none"/><path d="M929.73-653.32h-.95v-.5h.95zM1022.86-499.6h-.95v-.52h.96z" stroke="#282c33" stroke-width=".05" fill="#282c33"/><path d="M1140-274a6 6 0 0 1 6-6h128a6 6 0 0 1 6 6v48a6 6 0 0 1-6 6h-128a6 6 0 0 1-6-6z" stroke="#000" stroke-opacity="0" stroke-width="3" fill="#fff" fill-opacity="0"/><use xlink:href="#q" transform="matrix(1,0,0,1,1145,-275) translate(24.20370370370373 30.277777777777768)"/><path d="M929.25-653.33v70.6a6 6 0 0 0 6 6h267.4a6 6 0 0 1 6 6v70.63" stroke="#282c33" fill="none"/><path d="M929.73-653.32h-.95v-.5h.95zM1209.13-499.6h-.95v-.52h.95z" stroke="#282c33" stroke-width=".05" fill="#282c33"/><path d="M1210-280.5V-342.88" stroke="#333" fill="none"/><path d="M1210.47-280h-.94v-.5h.94zM1210.48-342.87h-.95v-.5h.95z" stroke="#333" stroke-width=".05" fill="#333"/><path d="M800-274a6 6 0 0 1 6-6h247.25a6 6 0 0 1 6 6v48a6 6 0 0 1-6 6H806a6 6 0 0 1-6-6z" stroke="#000" stroke-opacity="0" stroke-width="3" fill="#fff" fill-opacity="0"/><use xlink:href="#r" transform="matrix(1,0,0,1,805,-275) translate(43.487654320987716 30.277777777777768)"/><use xlink:href="#s" transform="matrix(1,0,0,1,805,-275) translate(141.2037037037037 30.277777777777768)"/><path d="M929.63-280.5v-46.86" stroke="#333" fill="none"/><path d="M930.1-280h-.95v-.5h.95zM930.1-327.35h-.95v-.5h.95z" stroke="#333" stroke-width=".05" fill="#333"/><path d="M360-274a6 6 0 0 1 6-6h228a6 6 0 0 1 6 6v48a6 6 0 0 1-6 6H366a6 6 0 0 1-6-6z" stroke="#000" stroke-opacity="0" stroke-width="3" fill="#fff" fill-opacity="0"/><g><use xlink:href="#r" transform="matrix(1,0,0,1,365,-275) translate(29.16666666666673 30.527777777777768)"/><use xlink:href="#t" transform="matrix(1,0,0,1,365,-275) translate(126.88271604938271 30.527777777777768)"/></g><path d="M480-280.5v-7.9l-.03-.02v-7.9" stroke="#333" fill="none"/><path d="M480.48-280h-.96v-.5h.96zM480.45-296.3h-.95v-.5h.95z" stroke="#333" stroke-width=".05" fill="#333"/><defs><path fill="#333" d="M59-47c-2 24 18 29 38 22v24C64 9 27 4 27-40v-127H5v-23h24l9-43h21v43h35v23H59v120" id="u"/><path fill="#333" d="M96-169c-40 0-48 33-48 73s9 75 48 75c24 0 41-14 43-38l32 2c-6 37-31 61-74 61-59 0-76-41-82-99-10-93 101-131 147-64 4 7 5 14 7 22l-32 3c-4-21-16-35-41-35" id="v"/><path fill="#333" d="M24 0v-261h32V0H24" id="w"/><g id="a"><use transform="matrix(0.06172839506172834,0,0,0.06172839506172834,0,0)" xlink:href="#u"/><use transform="matrix(0.06172839506172834,0,0,0.06172839506172834,6.172839506172834,0)" xlink:href="#v"/><use transform="matrix(0.06172839506172834,0,0,0.06172839506172834,17.283950617283935,0)" xlink:href="#u"/><use transform="matrix(0.06172839506172834,0,0,0.06172839506172834,23.45679012345677,0)" xlink:href="#w"/></g><path fill="#333" d="M266 0h-40l-56-210L115 0H75L2-248h35L96-30l15-64 43-154h32l59 218 59-218h35" id="x"/><path fill="#333" d="M100-194c63 0 86 42 84 106H49c0 40 14 67 53 68 26 1 43-12 49-29l28 8c-11 28-37 45-77 45C44 4 14-33 15-96c1-61 26-98 85-98zm52 81c6-60-76-77-97-28-3 7-6 17-6 28h103" id="y"/><path fill="#333" d="M115-194c53 0 69 39 70 98 0 66-23 100-70 100C84 3 66-7 56-30L54 0H23l1-261h32v101c10-23 28-34 59-34zm-8 174c40 0 45-34 45-75 0-40-5-75-45-74-42 0-51 32-51 76 0 43 10 73 51 73" id="z"/><g id="b"><use transform="matrix(0.06172839506172834,0,0,0.06172839506172834,0,0)" xlink:href="#x"/><use transform="matrix(0.06172839506172834,0,0,0.06172839506172834,20.49382716049381,0)" xlink:href="#y"/><use transform="matrix(0.06172839506172834,0,0,0.06172839506172834,32.83950617283948,0)" xlink:href="#z"/></g><path fill="#333" d="M232-93c-1 65-40 97-104 97C67 4 28-28 28-90v-158h33c8 89-33 224 67 224 102 0 64-133 71-224h33v155" id="A"/><path fill="#333" d="M33 0v-248h34V0H33" id="B"/><g id="c"><use transform="matrix(0.06172839506172834,0,0,0.06172839506172834,0,0)" xlink:href="#A"/><use transform="matrix(0.06172839506172834,0,0,0.06172839506172834,15.987654320987641,0)" xlink:href="#B"/></g><path fill="#333" d="M100-194c62-1 85 37 85 99 1 63-27 99-86 99S16-35 15-95c0-66 28-99 85-99zM99-20c44 1 53-31 53-75 0-43-8-75-51-75s-53 32-53 75 10 74 51 75" id="C"/><path fill="#333" d="M114-163C36-179 61-72 57 0H25l-1-190h30c1 12-1 29 2 39 6-27 23-49 58-41v29" id="D"/><path fill="#333" d="M143 0L79-87 56-68V0H24v-261h32v163l83-92h37l-77 82L181 0h-38" id="E"/><g id="d"><use transform="matrix(0.06172839506172834,0,0,0.06172839506172834,0,0)" xlink:href="#x"/><use transform="matrix(0.06172839506172834,0,0,0.06172839506172834,20.49382716049381,0)" xlink:href="#C"/><use transform="matrix(0.06172839506172834,0,0,0.06172839506172834,32.83950617283948,0)" xlink:href="#D"/><use transform="matrix(0.06172839506172834,0,0,0.06172839506172834,40.18518518518515,0)" xlink:href="#E"/><use transform="matrix(0.06172839506172834,0,0,0.06172839506172834,51.29629629629625,0)" xlink:href="#y"/><use transform="matrix(0.06172839506172834,0,0,0.06172839506172834,63.641975308641925,0)" xlink:href="#D"/></g><path fill="#333" d="M30-248c87 1 191-15 191 75 0 78-77 80-158 76V0H30v-248zm33 125c57 0 124 11 124-50 0-59-68-47-124-48v98" id="F"/><path fill="#333" d="M135-143c-3-34-86-38-87 0 15 53 115 12 119 90S17 21 10-45l28-5c4 36 97 45 98 0-10-56-113-15-118-90-4-57 82-63 122-42 12 7 21 19 24 35" id="G"/><g id="e"><use transform="matrix(0.06172839506172834,0,0,0.06172839506172834,0,0)" xlink:href="#F"/><use transform="matrix(0.06172839506172834,0,0,0.06172839506172834,14.814814814814802,0)" xlink:href="#D"/><use transform="matrix(0.06172839506172834,0,0,0.06172839506172834,22.160493827160476,0)" xlink:href="#C"/><use transform="matrix(0.06172839506172834,0,0,0.06172839506172834,34.50617283950614,0)" xlink:href="#v"/><use transform="matrix(0.06172839506172834,0,0,0.06172839506172834,45.61728395061724,0)" xlink:href="#y"/><use transform="matrix(0.06172839506172834,0,0,0.06172839506172834,57.96296296296291,0)" xlink:href="#G"/><use transform="matrix(0.06172839506172834,0,0,0.06172839506172834,69.07407407407402,0)" xlink:href="#G"/><use transform="matrix(0.06172839506172834,0,0,0.06172839506172834,80.18518518518512,0)" xlink:href="#y"/><use transform="matrix(0.06172839506172834,0,0,0.06172839506172834,92.53086419753079,0)" xlink:href="#G"/></g><path fill="#333" d="M185-189c-5-48-123-54-124 2 14 75 158 14 163 119 3 78-121 87-175 55-17-10-28-26-33-46l33-7c5 56 141 63 141-1 0-78-155-14-162-118-5-82 145-84 179-34 5 7 8 16 11 25" id="H"/><path fill="#333" d="M30-248c118-7 216 8 213 122C240-48 200 0 122 0H30v-248zM63-27c89 8 146-16 146-99s-60-101-146-95v194" id="I"/><path fill="#333" d="M194 0L95-120 63-95V0H30v-248h33v124l119-124h40L117-140 236 0h-42" id="J"/><g id="f"><use transform="matrix(0.06172839506172834,0,0,0.06172839506172834,0,0)" xlink:href="#H"/><use transform="matrix(0.06172839506172834,0,0,0.06172839506172834,14.814814814814802,0)" xlink:href="#I"/><use transform="matrix(0.06172839506172834,0,0,0.06172839506172834,30.802469135802443,0)" xlink:href="#J"/></g><path fill="#333" d="M212-179c-10-28-35-45-73-45-59 0-87 40-87 99 0 60 29 101 89 101 43 0 62-24 78-52l27 14C228-24 195 4 139 4 59 4 22-46 18-125c-6-104 99-153 187-111 19 9 31 26 39 46" id="K"/><path fill="#333" d="M24-231v-30h32v30H24zM24 0v-190h32V0H24" id="L"/><path fill="#333" d="M117-194c89-4 53 116 60 194h-32v-121c0-31-8-49-39-48C34-167 62-67 57 0H25l-1-190h30c1 10-1 24 2 32 11-22 29-35 61-36" id="M"/><g id="g"><use transform="matrix(0.06172839506172834,0,0,0.06172839506172834,0,0)" xlink:href="#K"/><use transform="matrix(0.06172839506172834,0,0,0.06172839506172834,15.987654320987641,0)" xlink:href="#w"/><use transform="matrix(0.06172839506172834,0,0,0.06172839506172834,20.864197530864182,0)" xlink:href="#L"/><use transform="matrix(0.06172839506172834,0,0,0.06172839506172834,25.74074074074072,0)" xlink:href="#y"/><use transform="matrix(0.06172839506172834,0,0,0.06172839506172834,38.08641975308639,0)" xlink:href="#M"/><use transform="matrix(0.06172839506172834,0,0,0.06172839506172834,50.43209876543206,0)" xlink:href="#u"/></g><path fill="#333" d="M141-36C126-15 110 5 73 4 37 3 15-17 15-53c-1-64 63-63 125-63 3-35-9-54-41-54-24 1-41 7-42 31l-33-3c5-37 33-52 76-52 45 0 72 20 72 64v82c-1 20 7 32 28 27v20c-31 9-61-2-59-35zM48-53c0 20 12 33 32 33 41-3 63-29 60-74-43 2-92-5-92 41" id="N"/><g id="h"><use transform="matrix(0.06172839506172834,0,0,0.06172839506172834,0,0)" xlink:href="#L"/><use transform="matrix(0.06172839506172834,0,0,0.06172839506172834,4.876543209876539,0)" xlink:href="#M"/><use transform="matrix(0.06172839506172834,0,0,0.06172839506172834,17.222222222222207,0)" xlink:href="#G"/><use transform="matrix(0.06172839506172834,0,0,0.06172839506172834,28.333333333333307,0)" xlink:href="#u"/><use transform="matrix(0.06172839506172834,0,0,0.06172839506172834,34.50617283950614,0)" xlink:href="#N"/><use transform="matrix(0.06172839506172834,0,0,0.06172839506172834,46.85185185185181,0)" xlink:href="#M"/><use transform="matrix(0.06172839506172834,0,0,0.06172839506172834,59.19753086419748,0)" xlink:href="#v"/><use transform="matrix(0.06172839506172834,0,0,0.06172839506172834,70.30864197530859,0)" xlink:href="#y"/><use transform="matrix(0.06172839506172834,0,0,0.06172839506172834,82.65432098765426,0)" xlink:href="#G"/></g><path fill="#333" d="M76-208v77h127v40H76V0H24v-248h183v40H76" id="O"/><path fill="#333" d="M135-150c-39-12-60 13-60 57V0H25l-1-190h47c2 13-1 29 3 40 6-28 27-53 61-41v41" id="P"/><path fill="#333" d="M110-194c64 0 96 36 96 99 0 64-35 99-97 99-61 0-95-36-95-99 0-62 34-99 96-99zm-1 164c35 0 45-28 45-65 0-40-10-65-43-65-34 0-45 26-45 65 0 36 10 65 43 65" id="Q"/><path fill="#333" d="M135-194c87-1 58 113 63 194h-50c-7-57 23-157-34-157-59 0-34 97-39 157H25l-1-190h47c2 12-1 28 3 38 12-26 28-41 61-42" id="R"/><path fill="#333" d="M115-3C79 11 28 4 28-45v-112H4v-33h27l15-45h31v45h36v33H77v99c-1 23 16 31 38 25v30" id="S"/><path fill="#333" d="M185-48c-13 30-37 53-82 52C43 2 14-33 14-96s30-98 90-98c62 0 83 45 84 108H66c0 31 8 55 39 56 18 0 30-7 34-22zm-45-69c5-46-57-63-70-21-2 6-4 13-4 21h74" id="T"/><path fill="#333" d="M88-194c31-1 46 15 58 34l-1-101h50l1 261h-48c-2-10 0-23-3-31C134-8 116 4 84 4 32 4 16-41 15-95c0-56 19-97 73-99zm17 164c33 0 40-30 41-66 1-37-9-64-41-64s-38 30-39 65c0 43 13 65 39 65" id="U"/><g id="i"><use transform="matrix(0.06172839506172834,0,0,0.06172839506172834,0,0)" xlink:href="#O"/><use transform="matrix(0.06172839506172834,0,0,0.06172839506172834,13.518518518518507,0)" xlink:href="#P"/><use transform="matrix(0.06172839506172834,0,0,0.06172839506172834,22.160493827160472,0)" xlink:href="#Q"/><use transform="matrix(0.06172839506172834,0,0,0.06172839506172834,35.67901234567898,0)" xlink:href="#R"/><use transform="matrix(0.06172839506172834,0,0,0.06172839506172834,49.19753086419748,0)" xlink:href="#S"/><use transform="matrix(0.06172839506172834,0,0,0.06172839506172834,56.54320987654315,0)" xlink:href="#T"/><use transform="matrix(0.06172839506172834,0,0,0.06172839506172834,68.88888888888881,0)" xlink:href="#R"/><use transform="matrix(0.06172839506172834,0,0,0.06172839506172834,82.40740740740732,0)" xlink:href="#U"/></g><path fill="#333" d="M169-182c-1-43-94-46-97-3 18 66 151 10 154 114 3 95-165 93-204 36-6-8-10-19-12-30l50-8c3 46 112 56 116 5-17-69-150-10-154-114-4-87 153-88 188-35 5 8 8 18 10 28" id="V"/><path fill="#333" d="M128 0H69L1-190h53L99-40l48-150h52" id="W"/><path fill="#333" d="M25-224v-37h50v37H25zM25 0v-190h50V0H25" id="X"/><path fill="#333" d="M190-63c-7 42-38 67-86 67-59 0-84-38-90-98-12-110 154-137 174-36l-49 2c-2-19-15-32-35-32-30 0-35 28-38 64-6 74 65 87 74 30" id="Y"/><g id="j"><use transform="matrix(0.06172839506172834,0,0,0.06172839506172834,0,0)" xlink:href="#V"/><use transform="matrix(0.06172839506172834,0,0,0.06172839506172834,14.814814814814802,0)" xlink:href="#T"/><use transform="matrix(0.06172839506172834,0,0,0.06172839506172834,27.160493827160472,0)" xlink:href="#P"/><use transform="matrix(0.06172839506172834,0,0,0.06172839506172834,35.80246913580244,0)" xlink:href="#W"/><use transform="matrix(0.06172839506172834,0,0,0.06172839506172834,48.14814814814811,0)" xlink:href="#X"/><use transform="matrix(0.06172839506172834,0,0,0.06172839506172834,54.320987654320945,0)" xlink:href="#Y"/><use transform="matrix(0.06172839506172834,0,0,0.06172839506172834,66.66666666666661,0)" xlink:href="#T"/></g><path fill="#333" d="M240 0l2-218c-23 76-54 145-80 218h-23L58-218 59 0H30v-248h44l77 211c21-75 51-140 76-211h43V0h-30" id="Z"/><path fill="#333" d="M106-169C34-169 62-67 57 0H25v-261h32l-1 103c12-21 28-36 61-36 89 0 53 116 60 194h-32v-121c2-32-8-49-39-48" id="aa"/><path fill="#333" d="M177-190C167-65 218 103 67 71c-23-6-38-20-44-43l32-5c15 47 100 32 89-28v-30C133-14 115 1 83 1 29 1 15-40 15-95c0-56 16-97 71-98 29-1 48 16 59 35 1-10 0-23 2-32h30zM94-22c36 0 50-32 50-73 0-42-14-75-50-75-39 0-46 34-46 75s6 73 46 73" id="ab"/><g id="k"><use transform="matrix(0.06172839506172834,0,0,0.06172839506172834,0,0)" xlink:href="#Z"/><use transform="matrix(0.06172839506172834,0,0,0.06172839506172834,18.456790123456774,0)" xlink:href="#N"/><use transform="matrix(0.06172839506172834,0,0,0.06172839506172834,30.80246913580244,0)" xlink:href="#u"/><use transform="matrix(0.06172839506172834,0,0,0.06172839506172834,36.975308641975275,0)" xlink:href="#v"/><use transform="matrix(0.06172839506172834,0,0,0.06172839506172834,48.086419753086375,0)" xlink:href="#aa"/><use transform="matrix(0.06172839506172834,0,0,0.06172839506172834,60.432098765432045,0)" xlink:href="#L"/><use transform="matrix(0.06172839506172834,0,0,0.06172839506172834,65.30864197530859,0)" xlink:href="#M"/><use transform="matrix(0.06172839506172834,0,0,0.06172839506172834,77.65432098765426,0)" xlink:href="#ab"/></g><path fill="#333" d="M108 0H70L1-190h34L89-25l56-165h34" id="ac"/><g id="l"><use transform="matrix(0.06172839506172834,0,0,0.06172839506172834,0,0)" xlink:href="#H"/><use transform="matrix(0.06172839506172834,0,0,0.06172839506172834,14.814814814814802,0)" xlink:href="#y"/><use transform="matrix(0.06172839506172834,0,0,0.06172839506172834,27.160493827160472,0)" xlink:href="#D"/><use transform="matrix(0.06172839506172834,0,0,0.06172839506172834,34.50617283950614,0)" xlink:href="#ac"/><use transform="matrix(0.06172839506172834,0,0,0.06172839506172834,45.61728395061724,0)" xlink:href="#L"/><use transform="matrix(0.06172839506172834,0,0,0.06172839506172834,50.49382716049378,0)" xlink:href="#v"/><use transform="matrix(0.06172839506172834,0,0,0.06172839506172834,61.60493827160488,0)" xlink:href="#y"/></g><g id="m"><use transform="matrix(0.06172839506172834,0,0,0.06172839506172834,0,0)" xlink:href="#I"/><use transform="matrix(0.06172839506172834,0,0,0.06172839506172834,15.987654320987641,0)" xlink:href="#N"/><use transform="matrix(0.06172839506172834,0,0,0.06172839506172834,28.333333333333307,0)" xlink:href="#u"/><use transform="matrix(0.06172839506172834,0,0,0.06172839506172834,34.50617283950614,0)" xlink:href="#N"/><use transform="matrix(0.06172839506172834,0,0,0.06172839506172834,46.85185185185181,0)" xlink:href="#z"/><use transform="matrix(0.06172839506172834,0,0,0.06172839506172834,59.19753086419748,0)" xlink:href="#N"/><use transform="matrix(0.06172839506172834,0,0,0.06172839506172834,71.54320987654314,0)" xlink:href="#G"/><use transform="matrix(0.06172839506172834,0,0,0.06172839506172834,82.65432098765424,0)" xlink:href="#y"/></g><path fill="#333" d="M197 0v-115H63V0H30v-248h33v105h134v-105h34V0h-34" id="ad"/><path fill="#333" d="M179-190L93 31C79 59 56 82 12 73V49c39 6 53-20 64-50L1-190h34L92-34l54-156h33" id="ae"/><g id="n"><use transform="matrix(0.06172839506172834,0,0,0.06172839506172834,0,0)" xlink:href="#ad"/><use transform="matrix(0.06172839506172834,0,0,0.06172839506172834,15.987654320987641,0)" xlink:href="#L"/><use transform="matrix(0.06172839506172834,0,0,0.06172839506172834,20.864197530864182,0)" xlink:href="#G"/><use transform="matrix(0.06172839506172834,0,0,0.06172839506172834,31.975308641975282,0)" xlink:href="#u"/><use transform="matrix(0.06172839506172834,0,0,0.06172839506172834,38.14814814814812,0)" xlink:href="#C"/><use transform="matrix(0.06172839506172834,0,0,0.06172839506172834,50.49382716049379,0)" xlink:href="#D"/><use transform="matrix(0.06172839506172834,0,0,0.06172839506172834,57.83950617283946,0)" xlink:href="#ae"/></g><g id="o"><use transform="matrix(0.06172839506172834,0,0,0.06172839506172834,0,0)" xlink:href="#x"/><use transform="matrix(0.06172839506172834,0,0,0.06172839506172834,20.49382716049381,0)" xlink:href="#C"/><use transform="matrix(0.06172839506172834,0,0,0.06172839506172834,32.83950617283948,0)" xlink:href="#D"/><use transform="matrix(0.06172839506172834,0,0,0.06172839506172834,40.18518518518515,0)" xlink:href="#E"/><use transform="matrix(0.06172839506172834,0,0,0.06172839506172834,51.29629629629625,0)" xlink:href="#y"/><use transform="matrix(0.06172839506172834,0,0,0.06172839506172834,63.641975308641925,0)" xlink:href="#D"/></g><path fill="#333" d="M30 0v-248h187v28H63v79h144v27H63v87h162V0H30" id="af"/><g id="p"><use transform="matrix(0.06172839506172834,0,0,0.06172839506172834,0,0)" xlink:href="#af"/><use transform="matrix(0.06172839506172834,0,0,0.06172839506172834,14.814814814814802,0)" xlink:href="#w"/><use transform="matrix(0.06172839506172834,0,0,0.06172839506172834,19.69135802469134,0)" xlink:href="#N"/><use transform="matrix(0.06172839506172834,0,0,0.06172839506172834,32.03703703703701,0)" xlink:href="#G"/><use transform="matrix(0.06172839506172834,0,0,0.06172839506172834,43.14814814814811,0)" xlink:href="#u"/><use transform="matrix(0.06172839506172834,0,0,0.06172839506172834,49.320987654320945,0)" xlink:href="#L"/><use transform="matrix(0.06172839506172834,0,0,0.06172839506172834,54.19753086419748,0)" xlink:href="#v"/><use transform="matrix(0.06172839506172834,0,0,0.06172839506172834,65.30864197530859,0)" xlink:href="#G"/><use transform="matrix(0.06172839506172834,0,0,0.06172839506172834,76.41975308641969,0)" xlink:href="#y"/><use transform="matrix(0.06172839506172834,0,0,0.06172839506172834,88.76543209876536,0)" xlink:href="#N"/><use transform="matrix(0.06172839506172834,0,0,0.06172839506172834,101.11111111111103,0)" xlink:href="#D"/><use transform="matrix(0.06172839506172834,0,0,0.06172839506172834,108.4567901234567,0)" xlink:href="#v"/><use transform="matrix(0.06172839506172834,0,0,0.06172839506172834,119.5679012345678,0)" xlink:href="#aa"/></g><path fill="#333" d="M20-101c0-91 52-143 145-150 126-9 127 168 53 223-23 17-55 32-93 32C57 4 20-33 20-101zm216-33c5-57-18-91-73-90-77 1-110 51-110 125 0 49 23 75 73 75 72-1 104-45 110-110" id="ag"/><path fill="#333" d="M67-162c32-53 139-36 121 50C175-51 163 2 97 4 68 4 52-11 42-31 38 6 28 39 22 75H-9l50-265h29c-1 10 0 20-3 28zm89 36c0-26-10-43-35-43-54 0-67 50-69 103-1 29 14 45 42 46 53 0 62-58 62-106" id="ah"/><path fill="#333" d="M51-54c-9 22 5 41 31 30L79-1C43 14 10-4 19-52l22-115H19l5-23h22l19-43h21l-9 43h35l-4 23H73" id="ai"/><path fill="#333" d="M50-231l6-30h32l-6 30H50zM6 0l37-190h31L37 0H6" id="aj"/><path fill="#333" d="M30-147c31-64 166-65 159 27C183-49 158 1 86 4 9 8 1-88 30-147zM88-20c53 0 68-48 68-100 0-31-11-51-44-50-52 1-68 46-68 97 0 32 13 53 44 53" id="ak"/><path fill="#333" d="M67-158c22-48 132-52 116 29L158 0h-32l25-140c3-38-53-32-70-12C52-117 51-52 38 0H6l36-190h30" id="al"/><path fill="#333" d="M165-48c-4 18 1 34 23 27l-3 20c-29 8-62 0-52-35h-2C116-14 99 4 63 4 30 4 8-16 8-49c0-68 71-67 138-67 10-26 0-56-31-54-26 1-42 9-47 31l-32-5c8-67 160-71 144 15-5 28-9 54-15 81zM42-50c3 52 80 24 89-6 7-12 7-24 11-38-47 1-103-4-100 44" id="am"/><path fill="#333" d="M6 0l50-261h32L37 0H6" id="an"/><g id="q"><use transform="matrix(0.06172839506172835,0,0,0.06172839506172835,0,0)" xlink:href="#ag"/><use transform="matrix(0.06172839506172835,0,0,0.06172839506172835,17.28395061728394,0)" xlink:href="#ah"/><use transform="matrix(0.06172839506172835,0,0,0.06172839506172835,29.62962962962961,0)" xlink:href="#ai"/><use transform="matrix(0.06172839506172835,0,0,0.06172839506172835,35.80246913580244,0)" xlink:href="#aj"/><use transform="matrix(0.06172839506172835,0,0,0.06172839506172835,40.67901234567898,0)" xlink:href="#ak"/><use transform="matrix(0.06172839506172835,0,0,0.06172839506172835,53.02469135802465,0)" xlink:href="#al"/><use transform="matrix(0.06172839506172835,0,0,0.06172839506172835,65.37037037037032,0)" xlink:href="#am"/><use transform="matrix(0.06172839506172835,0,0,0.06172839506172835,77.716049382716,0)" xlink:href="#an"/></g><path fill="#333" d="M151-220L108 0H75l42-220H32l6-28h203l-5 28h-85" id="ao"/><path fill="#333" d="M111-194c62-3 86 47 72 106H45c-7 38 6 69 45 68 27-1 43-14 53-32l24 11C152-15 129 4 87 4 38 3 12-23 12-71c0-70 32-119 99-123zm44 81c14-66-71-72-95-28-4 8-8 17-11 28h106" id="ap"/><path fill="#333" d="M248-111c6-24 9-61-24-58-72 9-57 108-77 169h-31l26-142c3-37-50-30-64-10C52-115 50-51 37 0H6l36-190h30c-1 10-6 24-4 32 13-43 101-52 105 5 13-22 29-41 61-41 90 0 28 129 23 194h-31" id="aq"/><path fill="#333" d="M66-151c12-25 30-51 66-40l-6 26C45-176 58-65 38 0H6l36-190h30" id="ar"/><g id="r"><use transform="matrix(0.06172839506172835,0,0,0.06172839506172835,0,0)" xlink:href="#ao"/><use transform="matrix(0.06172839506172835,0,0,0.06172839506172835,11.481481481481474,0)" xlink:href="#ap"/><use transform="matrix(0.06172839506172835,0,0,0.06172839506172835,23.827160493827144,0)" xlink:href="#aq"/><use transform="matrix(0.06172839506172835,0,0,0.06172839506172835,42.28395061728392,0)" xlink:href="#ah"/><use transform="matrix(0.06172839506172835,0,0,0.06172839506172835,54.62962962962959,0)" xlink:href="#ak"/><use transform="matrix(0.06172839506172835,0,0,0.06172839506172835,66.97530864197526,0)" xlink:href="#ar"/><use transform="matrix(0.06172839506172835,0,0,0.06172839506172835,74.32098765432093,0)" xlink:href="#am"/><use transform="matrix(0.06172839506172835,0,0,0.06172839506172835,86.6666666666666,0)" xlink:href="#an"/></g><path fill="#333" d="M194-120c59 52 2 134-86 124-53-6-90-18-98-63l31-7c8 30 29 43 70 43 46 0 84-17 71-62-32-43-135-20-137-98-3-89 178-90 191-16l-30 9c-8-48-127-53-127 5 0 53 81 35 115 65" id="as"/><path fill="#333" d="M89 0H52L20-190h33L74-25l89-165h34" id="at"/><g id="s"><use transform="matrix(0.06172839506172835,0,0,0.06172839506172835,0,0)" xlink:href="#as"/><use transform="matrix(0.06172839506172835,0,0,0.06172839506172835,14.814814814814804,0)" xlink:href="#ap"/><use transform="matrix(0.06172839506172835,0,0,0.06172839506172835,27.160493827160472,0)" xlink:href="#ar"/><use transform="matrix(0.06172839506172835,0,0,0.06172839506172835,34.50617283950615,0)" xlink:href="#at"/><use transform="matrix(0.06172839506172835,0,0,0.06172839506172835,45.61728395061725,0)" xlink:href="#ap"/><use transform="matrix(0.06172839506172835,0,0,0.06172839506172835,57.96296296296292,0)" xlink:href="#ar"/></g><path fill="#333" d="M44-68c0 29 11 47 38 47 30 0 42-19 51-41l28 9C148-21 126 4 82 4 31 4 10-29 12-85c3-77 74-140 146-93 12 8 15 23 18 40l-31 5c-1-22-13-36-36-36-52 0-65 49-65 101" id="au"/><g id="t"><use transform="matrix(0.06172839506172835,0,0,0.06172839506172835,0,0)" xlink:href="#as"/><use transform="matrix(0.06172839506172835,0,0,0.06172839506172835,14.814814814814804,0)" xlink:href="#ap"/><use transform="matrix(0.06172839506172835,0,0,0.06172839506172835,27.160493827160472,0)" xlink:href="#ar"/><use transform="matrix(0.06172839506172835,0,0,0.06172839506172835,34.50617283950615,0)" xlink:href="#at"/><use transform="matrix(0.06172839506172835,0,0,0.06172839506172835,45.61728395061725,0)" xlink:href="#aj"/><use transform="matrix(0.06172839506172835,0,0,0.06172839506172835,50.49382716049379,0)" xlink:href="#au"/><use transform="matrix(0.06172839506172835,0,0,0.06172839506172835,61.604938271604894,0)" xlink:href="#ap"/></g></defs></g></svg>