<svg xmlns="http://www.w3.org/2000/svg" xmlns:xlink="http://www.w3.org/1999/xlink" xmlns:lucid="lucid" width="1140" height="1020"><g transform="translate(1420 2520)" lucid:page-tab-id="0_0"><path d="M-1400-2499a1 1 0 0 1 1-1h1098a1 1 0 0 1 1 1v978a1 1 0 0 1-1 1h-1098a1 1 0 0 1-1-1z" fill="#fff"/><path d="M-1105.38-2309.8a15 15 0 0 1 15-15h528.5a15 15 0 0 1 15 15v739.8a15 15 0 0 1-15 15h-528.5a15 15 0 0 1-15-15z" stroke="#333" fill="#e5e5e5"/><path d="M-1120.47-2324.9a15 15 0 0 1 15-15h528.5a15 15 0 0 1 15 15v739.8a15 15 0 0 1-15 15h-528.5a15 15 0 0 1-15-15z" stroke="#333" fill="#e5e5e5"/><path d="M-1135.57-2340a15 15 0 0 1 15-15h528.5a15 15 0 0 1 15 15v739.8a15 15 0 0 1-15 15h-528.5a15 15 0 0 1-15-15z" stroke="#333" fill="#127ae5"/><path d="M-1105.38-2309.8a15 15 0 0 1 15-15h468.12a15 15 0 0 1 15 15v453a15 15 0 0 1-15 15h-468.12a15 15 0 0 1-15-15z" fill="#f2f3f5"/><path d="M-1104.2-2315.53l.46-1.1 1.23-2 .24-.3m2.77-2.76l.3-.25 2-1.23 1.1-.45m3.77-1.03l1.95-.15h2m3.95 0h3.97m3.97 0h3.97m3.97 0h3.97m3.98 0h3.96m3.97 0h3.98m3.96 0h3.97m3.98 0h3.96m3.97 0h3.98m3.97 0h3.96m3.98 0h3.97m3.96 0h3.98m3.97 0h3.97m3.96 0h3.97m3.97 0h3.96m3.97 0h3.97m3.97 0h3.95m3.97 0h3.97m3.95 0h3.97m3.97 0h3.95m3.97 0h3.97m3.96 0h3.96m3.97 0h3.96m3.96 0h3.97m3.96 0h3.97m3.96 0h3.96m3.97 0h3.96m3.96 0h3.97m3.96 0h3.96m3.97 0h3.97m3.96 0h3.97m3.97 0h3.96m3.97 0h3.97m3.97 0h3.96m3.97 0h3.97m3.96 0h3.97m3.97 0h3.97m3.96 0h3.97m3.97 0h3.96m3.97 0h3.97m3.96 0h3.97m3.97 0h3.96m3.97 0h3.97m3.97 0h3.97m3.97 0h3.97m3.97 0h3.97m3.97 0h3.98m3.96 0h3.97m3.98 0h3.96m3.97 0h3.98m3.97 0h3.96m3.98 0h3.97m3.96 0h3.98m3.97 0h3.97m3.96 0h3.97m3.97 0h3.96m3.97 0h3.97m3.96 0h3.97m3.97 0h3.96m3.97 0h2l1.94.14m3.76 1.03l1.1.45 2 1.23.3.26m2.76 2.77l.25.3 1.23 2 .45 1.1m1.03 3.76l.16 1.96v1.98m0 3.97v3.97m0 3.98v3.97m0 3.97v3.98m0 3.97v3.97m0 3.97v3.97m0 4v3.96m0 3.98v3.97m0 3.98v3.98m0 3.97v3.97m0 3.98v3.97m0 3.98v3.97m0 3.97v3.98m0 3.97v3.98m0 3.97v3.97m0 3.98v3.97m0 3.96v3.98m0 3.97v4m0 3.96v3.97m0 3.98v3.98m0 3.98v3.97m0 3.97v3.98m0 3.97v3.97m0 3.98v3.97m0 3.98v3.97m0 3.97v3.97m0 3.97v3.98m0 3.97v3.96m0 3.98v3.97m0 4v3.96m0 3.97v3.98m0 3.98v3.97m0 3.98v3.97m0 3.98v3.97m0 3.97v3.98m0 3.97v3.98m0 3.97v3.97m0 3.97v3.97m0 3.97v4m0 3.96v3.98m0 3.97v3.98m0 3.98v3.97m0 3.98v3.98m0 3.97v3.98m0 3.97v3.97m0 3.98v3.97m0 3.98v3.97m0 3.97v3.98m0 3.97v3.96m0 3.98v3.97m0 4v3.96m0 3.97v3.98m0 3.98v3.98m0 3.97v3.97m0 3.98v3.97m0 3.98v3.97m0 3.97v3.98m0 3.97v2l-.16 1.94m-1.03 3.77l-.45 1.1-1.23 2-.25.3m-2.77 2.76l-.3.24-2 1.23-1.1.45m-3.76 1.03l-1.96.16h-2m-3.96 0h-3.96m-3.97 0h-3.97m-3.96 0h-3.97m-3.97 0h-3.96m-3.97 0h-3.97m-3.97 0h-3.95m-3.97 0h-3.97m-3.95 0h-3.97m-3.97 0h-3.95m-3.97 0h-3.97m-3.96 0h-3.96m-3.97 0h-3.96m-3.96 0h-3.97m-3.96 0h-3.97m-3.96 0h-3.96m-3.97 0h-3.96m-3.96 0h-3.97m-3.97 0h-3.96m-3.97 0H-775m-3.96 0h-3.97m-3.97 0h-3.96m-3.97 0h-3.97m-3.97 0h-3.96m-3.97 0h-3.97m-3.96 0h-3.97m-3.97 0h-3.96m-3.97 0h-3.97m-3.97 0h-3.96m-3.97 0h-3.97m-3.96 0h-3.97m-3.97 0h-3.97m-3.97 0h-3.97m-3.97 0h-3.97m-3.97 0H-894m-3.98 0h-3.96m-3.97 0h-3.98m-3.96 0h-3.97m-3.98 0h-3.96m-3.97 0h-3.98m-3.97 0h-3.96m-3.98 0h-3.97m-3.96 0h-3.98m-3.97 0h-3.96m-3.98 0h-3.97m-3.97 0h-3.96m-3.97 0h-3.97m-3.96 0h-3.97m-3.97 0h-3.97m-3.95 0h-3.97m-3.97 0h-3.95m-3.97 0h-3.97m-3.95 0h-3.97m-3.97 0h-3.96m-3.96 0h-3.97m-3.96 0h-3.96m-3.97 0h-3.96m-3.97 0h-3.96m-3.96 0h-3.97m-3.96 0h-1.98l-1.95-.15m-3.77-1.03l-1.1-.45-2-1.23-.3-.25m-2.76-2.78l-.25-.3-1.24-2-.45-1.1m-1.02-3.76l-.16-1.95v-1.98m0-3.97v-3.98m0-3.97v-3.97m0-3.98v-3.97m0-3.98v-3.97m0-3.97v-3.98m0-3.97v-3.97m0-3.97v-3.97m0-4v-3.96m0-3.98v-3.97m0-3.98v-3.98m0-3.97v-3.97m0-3.98v-3.97m0-3.98v-3.97m0-3.97v-3.98m0-3.97v-3.97m0-3.97v-3.97m0-3.98v-3.97m0-3.96v-3.98m0-3.97v-4m0-3.96v-3.97m0-3.98v-3.98m0-3.97v-3.98m0-3.97v-3.98m0-3.97v-3.97m0-3.98v-3.97m0-3.98v-3.97m0-3.97v-3.97m0-3.97v-3.97m0-4v-3.96m0-3.98v-3.97m0-3.98v-3.98m0-3.97v-3.98m0-3.98v-3.97m0-3.98v-3.97m0-3.97v-3.98m0-3.97v-3.98m0-3.97v-3.97m0-3.98v-3.97m0-3.97v-3.97m0-3.97v-4m0-3.96v-3.98m0-3.97v-3.98m0-3.98v-3.97m0-3.97v-3.98m0-3.97v-3.98m0-3.97v-3.97m0-3.98v-3.97m0-3.97v-3.97m0-3.97v-3.98m0-3.97v-3.96m0-3.98v-3.97m0-4v-3.96m0-3.97v-3.98m0-3.98v-3.97m0-3.98v-3.97m0-3.98v-3.97m0-3.97v-2l.16-1.95" stroke="#fff" fill="none"/><path d="M-1105.38-1796.6a15 15 0 0 1 15-15h468.12a15 15 0 0 1 15 15v162.45a15 15 0 0 1-15 15h-468.12a15 15 0 0 1-15-15z" stroke="#333" fill="#fff"/><use xlink:href="#a" transform="matrix(1,0,0,1,-1077.377358490566,-1783.6037735849059) translate(174.00000000000006 73.43402777777777)"/><path d="M-1045-2249.43a15 15 0 0 1 15-15h136.04a15 15 0 0 1 15 15v130.2a15 15 0 0 1-15 15H-1030a15 15 0 0 1-15-15z" stroke="#333" fill="#e5e5e5"/><use xlink:href="#b" transform="matrix(1,0,0,1,-1040,-2259.433962264151) translate(34.11728395061732 64.96527777777777)"/><use xlink:href="#c" transform="matrix(1,0,0,1,-1040,-2259.433962264151) translate(41.524691358024725 91.6319444444444)"/><path d="M-1060.1-2264.53a15 15 0 0 1 15-15h136.04a15 15 0 0 1 15 15v130.2a15 15 0 0 1-15 15h-136.03a15 15 0 0 1-15-15z" stroke="#333" fill="#e5e5e5"/><use xlink:href="#b" transform="matrix(1,0,0,1,-1055.0943396226417,-2274.5283018867926) translate(34.11728395061732 64.96527777777777)"/><use xlink:href="#c" transform="matrix(1,0,0,1,-1055.0943396226417,-2274.5283018867926) translate(41.524691358024725 91.6319444444444)"/><path d="M-1075.2-2279.62a15 15 0 0 1 15-15h136.05a15 15 0 0 1 15 15v130.2a15 15 0 0 1-15 15h-136.04a15 15 0 0 1-15-15z" stroke="#333" fill="#fff"/><use xlink:href="#b" transform="matrix(1,0,0,1,-1070.188679245283,-2289.622641509434) translate(34.11728395061732 64.96527777777777)"/><use xlink:href="#c" transform="matrix(1,0,0,1,-1070.188679245283,-2289.622641509434) translate(41.524691358024725 91.6319444444444)"/><path d="M-803.5-2249.43a15 15 0 0 1 15-15h136.05a15 15 0 0 1 15 15v130.2a15 15 0 0 1-15 15H-788.5a15 15 0 0 1-15-15z" stroke="#333" fill="#e5e5e5"/><use xlink:href="#d" transform="matrix(1,0,0,1,-798.4905660377358,-2259.433962264151) translate(33.500000000000036 64.96527777777777)"/><use xlink:href="#e" transform="matrix(1,0,0,1,-798.4905660377358,-2259.433962264151) translate(41.524691358024725 91.6319444444444)"/><path d="M-818.6-2264.53a15 15 0 0 1 15-15h136.05a15 15 0 0 1 15 15v130.2a15 15 0 0 1-15 15H-803.6a15 15 0 0 1-15-15z" stroke="#333" fill="#e5e5e5"/><use xlink:href="#d" transform="matrix(1,0,0,1,-813.5849056603777,-2274.5283018867926) translate(33.500000000000036 64.96527777777777)"/><use xlink:href="#e" transform="matrix(1,0,0,1,-813.5849056603777,-2274.5283018867926) translate(41.524691358024725 91.6319444444444)"/><path d="M-833.68-2279.62a15 15 0 0 1 15-15h136.04a15 15 0 0 1 15 15v130.2a15 15 0 0 1-15 15h-136.04a15 15 0 0 1-15-15z" stroke="#333" fill="#fff"/><use xlink:href="#d" transform="matrix(1,0,0,1,-828.6792452830189,-2289.622641509434) translate(33.500000000000036 64.96527777777777)"/><use xlink:href="#e" transform="matrix(1,0,0,1,-828.6792452830189,-2289.622641509434) translate(41.524691358024725 91.6319444444444)"/><path d="M-1045-2015.47a15 15 0 0 1 15-15h136.04a15 15 0 0 1 15 15v130.2a15 15 0 0 1-15 15H-1030a15 15 0 0 1-15-15z" stroke="#333" fill="#e5e5e5"/><use xlink:href="#f" transform="matrix(1,0,0,1,-1040,-2025.4716981132076) translate(44.02469135802472 64.96527777777777)"/><use xlink:href="#g" transform="matrix(1,0,0,1,-1040,-2025.4716981132076) translate(41.524691358024725 91.6319444444444)"/><path d="M-1060.1-2030.57a15 15 0 0 1 15-15h136.04a15 15 0 0 1 15 15v130.2a15 15 0 0 1-15 15h-136.03a15 15 0 0 1-15-15z" stroke="#333" fill="#e5e5e5"/><use xlink:href="#f" transform="matrix(1,0,0,1,-1055.0943396226417,-2040.566037735849) translate(44.02469135802472 64.96527777777777)"/><use xlink:href="#g" transform="matrix(1,0,0,1,-1055.0943396226417,-2040.566037735849) translate(41.524691358024725 91.6319444444444)"/><path d="M-1075.2-2045.66a15 15 0 0 1 15-15h136.05a15 15 0 0 1 15 15v130.2a15 15 0 0 1-15 15h-136.04a15 15 0 0 1-15-15z" stroke="#333" fill="#fff"/><use xlink:href="#h" transform="matrix(1,0,0,1,-1070.188679245283,-2055.6603773584907) translate(44.02469135802472 64.96527777777777)"/><use xlink:href="#c" transform="matrix(1,0,0,1,-1070.188679245283,-2055.6603773584907) translate(41.524691358024725 91.6319444444444)"/><path d="M-803.5-2015.47a15 15 0 0 1 15-15h136.05a15 15 0 0 1 15 15v130.2a15 15 0 0 1-15 15H-788.5a15 15 0 0 1-15-15z" stroke="#333" fill="#e5e5e5"/><use xlink:href="#i" transform="matrix(1,0,0,1,-798.4905660377358,-2025.4716981132076) translate(43.006172839506206 64.96527777777777)"/><use xlink:href="#c" transform="matrix(1,0,0,1,-798.4905660377358,-2025.4716981132076) translate(41.524691358024725 91.6319444444444)"/><path d="M-818.6-2030.57a15 15 0 0 1 15-15h136.05a15 15 0 0 1 15 15v130.2a15 15 0 0 1-15 15H-803.6a15 15 0 0 1-15-15z" stroke="#333" fill="#e5e5e5"/><use xlink:href="#i" transform="matrix(1,0,0,1,-813.5849056603777,-2040.566037735849) translate(43.006172839506206 64.96527777777777)"/><use xlink:href="#c" transform="matrix(1,0,0,1,-813.5849056603777,-2040.566037735849) translate(41.524691358024725 91.6319444444444)"/><path d="M-833.68-2045.66a15 15 0 0 1 15-15h136.04a15 15 0 0 1 15 15v130.2a15 15 0 0 1-15 15h-136.04a15 15 0 0 1-15-15z" stroke="#333" fill="#fff"/><use xlink:href="#i" transform="matrix(1,0,0,1,-828.6792452830189,-2055.6603773584907) translate(43.006172839506206 64.96527777777777)"/><use xlink:href="#c" transform="matrix(1,0,0,1,-828.6792452830189,-2055.6603773584907) translate(41.524691358024725 91.6319444444444)"/><path d="M-501.6-1775.13a6 6 0 0 1 6-6H-351a6 6 0 0 1 6 6v51.33a6 6 0 0 1-6 6h-144.6a6 6 0 0 1-6-6z" stroke="#000" stroke-opacity="0" stroke-width="3" fill="#fff" fill-opacity="0"/><use xlink:href="#j" transform="matrix(1,0,0,1,-496.60377358490564,-1776.1320754695757) translate(11.370370370370416 21.152777777777768)"/><use xlink:href="#k" transform="matrix(1,0,0,1,-496.60377358490564,-1776.1320754695757) translate(18.685185185185226 47.819444444444414)"/><path d="M-1018.82-2459a6 6 0 0 1 6-6h313a6 6 0 0 1 6 6v68a6 6 0 0 1-6 6h-313a6 6 0 0 1-6-6z" stroke="#000" stroke-opacity="0" stroke-width="3" fill="#fff" fill-opacity="0"/><use xlink:href="#l" transform="matrix(1,0,0,1,-1013.8207547169812,-2460) translate(72.16666666666673 39.65277777777777)"/><use xlink:href="#m" transform="matrix(1,0,0,1,-1013.8207547169812,-2460) translate(169.8827160493827 39.65277777777777)"/><path d="M-502.1-1749.46h-29.2a.23.23 0 0 1-.24-.24.23.23 0 0 0-.23-.23h-29.2" stroke="#333" fill="none"/><path d="M-501.6-1749h-.52v-.94h.52zM-560.97-1749.45h-.5v-.95h.5z" stroke="#333" stroke-width=".05" fill="#333"/><path d="M-545.9-1785.14H-527a6 6 0 0 1 6 6v29.18" stroke="#333" fill="none"/><path d="M-545.87-1784.66h-.52v-.95h.53z" stroke="#333" stroke-width=".05" fill="#333"/><path d="M-521.02-1749.98v.52" stroke="#333" fill="none"/><path d="M-501.6-2006.23a6 6 0 0 1 6-6H-351a6 6 0 0 1 6 6v51.33a6 6 0 0 1-6 6h-144.6a6 6 0 0 1-6-6z" stroke="#000" stroke-opacity="0" stroke-width="3" fill="#fff" fill-opacity="0"/><use xlink:href="#n" transform="matrix(1,0,0,1,-496.60377358490564,-2007.2320506354688) translate(15.629629629629669 21.152777777777768)"/><use xlink:href="#o" transform="matrix(1,0,0,1,-496.60377358490564,-2007.2320506354688) translate(32.820987654321016 47.819444444444414)"/><path d="M-502.1-1980.57h-164.54" stroke="#333" fill="none"/><path d="M-501.6-1980.1h-.52v-.94h.52zM-666.63-1980.1h-.5v-.94h.5z" stroke="#333" stroke-width=".05" fill="#333"/><path d="M-525.97-1981.07v-227.46a6 6 0 0 0-6-6h-134.67M-525.97-1981.08v.5" stroke="#333" fill="none"/><path d="M-666.63-2214.05h-.5v-.95h.5z" stroke="#333" stroke-width=".05" fill="#333"/><path d="M-1355-2242.98a6 6 0 0 1 6-6h151.96a6 6 0 0 1 6 6v51.9a6 6 0 0 1-6 6H-1349a6 6 0 0 1-6-6z" stroke="#000" stroke-opacity="0" stroke-width="3" fill="#fff" fill-opacity="0"/><g><use xlink:href="#p" transform="matrix(1,0,0,1,-1350,-2243.980687671383) translate(31.228395061728428 21.152777777777768)"/><use xlink:href="#q" transform="matrix(1,0,0,1,-1350,-2243.980687671383) translate(44.345679012345705 47.819444444444414)"/></g><path d="M-1190.54-2217.03h42.07l.02-.02h42.07" stroke="#333" fill="none"/><path d="M-1190.53-2216.56h-.5v-.95h.5zM-1105.88-2216.58h-.5v-.95h.5z" stroke="#333" stroke-width=".05" fill="#333"/><path d="M-1355-2006.23a6 6 0 0 1 6-6h151.96a6 6 0 0 1 6 6v51.33a6 6 0 0 1-6 6H-1349a6 6 0 0 1-6-6z" stroke="#000" stroke-opacity="0" stroke-width="3" fill="#fff" fill-opacity="0"/><g><use xlink:href="#r" transform="matrix(1,0,0,1,-1350,-2007.2320506354688) translate(19.12962962962967 21.152777777777768)"/><use xlink:href="#s" transform="matrix(1,0,0,1,-1350,-2007.2320506354688) translate(36.320987654321016 47.819444444444414)"/></g><path d="M-1190.54-1980.57h114.35" stroke="#333" fill="none"/><path d="M-1190.53-1980.1h-.5v-.94h.5zM-1075.7-1980.1h-.5v-.94h.5z" stroke="#333" stroke-width=".05" fill="#333"/><path d="M-1076.2-2174.35h-78.55a6 6 0 0 0-6 6v187.28" stroke="#333" fill="none"/><path d="M-1075.7-2173.87h-.5v-.95h.5z" stroke="#333" stroke-width=".05" fill="#333"/><path d="M-1160.75-1981.08v.5" stroke="#333" fill="none"/><defs><path fill="#333" d="M30-248c118-7 216 8 213 122C240-48 200 0 122 0H30v-248zM63-27c89 8 146-16 146-99s-60-101-146-95v194" id="t"/><path fill="#333" d="M141-36C126-15 110 5 73 4 37 3 15-17 15-53c-1-64 63-63 125-63 3-35-9-54-41-54-24 1-41 7-42 31l-33-3c5-37 33-52 76-52 45 0 72 20 72 64v82c-1 20 7 32 28 27v20c-31 9-61-2-59-35zM48-53c0 20 12 33 32 33 41-3 63-29 60-74-43 2-92-5-92 41" id="u"/><path fill="#333" d="M59-47c-2 24 18 29 38 22v24C64 9 27 4 27-40v-127H5v-23h24l9-43h21v43h35v23H59v120" id="v"/><path fill="#333" d="M115-194c53 0 69 39 70 98 0 66-23 100-70 100C84 3 66-7 56-30L54 0H23l1-261h32v101c10-23 28-34 59-34zm-8 174c40 0 45-34 45-75 0-40-5-75-45-74-42 0-51 32-51 76 0 43 10 73 51 73" id="w"/><path fill="#333" d="M135-143c-3-34-86-38-87 0 15 53 115 12 119 90S17 21 10-45l28-5c4 36 97 45 98 0-10-56-113-15-118-90-4-57 82-63 122-42 12 7 21 19 24 35" id="x"/><path fill="#333" d="M100-194c63 0 86 42 84 106H49c0 40 14 67 53 68 26 1 43-12 49-29l28 8c-11 28-37 45-77 45C44 4 14-33 15-96c1-61 26-98 85-98zm52 81c6-60-76-77-97-28-3 7-6 17-6 28h103" id="y"/><g id="a"><use transform="matrix(0.06172839506172834,0,0,0.06172839506172834,0,0)" xlink:href="#t"/><use transform="matrix(0.06172839506172834,0,0,0.06172839506172834,15.987654320987641,0)" xlink:href="#u"/><use transform="matrix(0.06172839506172834,0,0,0.06172839506172834,28.333333333333307,0)" xlink:href="#v"/><use transform="matrix(0.06172839506172834,0,0,0.06172839506172834,34.50617283950614,0)" xlink:href="#u"/><use transform="matrix(0.06172839506172834,0,0,0.06172839506172834,46.85185185185181,0)" xlink:href="#w"/><use transform="matrix(0.06172839506172834,0,0,0.06172839506172834,59.19753086419748,0)" xlink:href="#u"/><use transform="matrix(0.06172839506172834,0,0,0.06172839506172834,71.54320987654314,0)" xlink:href="#x"/><use transform="matrix(0.06172839506172834,0,0,0.06172839506172834,82.65432098765424,0)" xlink:href="#y"/></g><path fill="#333" d="M63-220v92h138v28H63V0H30v-248h175v28H63" id="z"/><path fill="#333" d="M114-163C36-179 61-72 57 0H25l-1-190h30c1 12-1 29 2 39 6-27 23-49 58-41v29" id="A"/><path fill="#333" d="M100-194c62-1 85 37 85 99 1 63-27 99-86 99S16-35 15-95c0-66 28-99 85-99zM99-20c44 1 53-31 53-75 0-43-8-75-51-75s-53 32-53 75 10 74 51 75" id="B"/><path fill="#333" d="M117-194c89-4 53 116 60 194h-32v-121c0-31-8-49-39-48C34-167 62-67 57 0H25l-1-190h30c1 10-1 24 2 32 11-22 29-35 61-36" id="C"/><path fill="#333" d="M85-194c31 0 48 13 60 33l-1-100h32l1 261h-30c-2-10 0-23-3-31C134-8 116 4 85 4 32 4 16-35 15-94c0-66 23-100 70-100zm9 24c-40 0-46 34-46 75 0 40 6 74 45 74 42 0 51-32 51-76 0-42-9-74-50-73" id="D"/><g id="b"><use transform="matrix(0.06172839506172834,0,0,0.06172839506172834,0,0)" xlink:href="#z"/><use transform="matrix(0.06172839506172834,0,0,0.06172839506172834,13.518518518518507,0)" xlink:href="#A"/><use transform="matrix(0.06172839506172834,0,0,0.06172839506172834,20.86419753086418,0)" xlink:href="#B"/><use transform="matrix(0.06172839506172834,0,0,0.06172839506172834,33.209876543209845,0)" xlink:href="#C"/><use transform="matrix(0.06172839506172834,0,0,0.06172839506172834,45.555555555555515,0)" xlink:href="#v"/><use transform="matrix(0.06172839506172834,0,0,0.06172839506172834,51.72839506172835,0)" xlink:href="#y"/><use transform="matrix(0.06172839506172834,0,0,0.06172839506172834,64.07407407407402,0)" xlink:href="#C"/><use transform="matrix(0.06172839506172834,0,0,0.06172839506172834,76.41975308641969,0)" xlink:href="#D"/></g><path fill="#333" d="M185-189c-5-48-123-54-124 2 14 75 158 14 163 119 3 78-121 87-175 55-17-10-28-26-33-46l33-7c5 56 141 63 141-1 0-78-155-14-162-118-5-82 145-84 179-34 5 7 8 16 11 25" id="E"/><path fill="#333" d="M108 0H70L1-190h34L89-25l56-165h34" id="F"/><path fill="#333" d="M24-231v-30h32v30H24zM24 0v-190h32V0H24" id="G"/><path fill="#333" d="M96-169c-40 0-48 33-48 73s9 75 48 75c24 0 41-14 43-38l32 2c-6 37-31 61-74 61-59 0-76-41-82-99-10-93 101-131 147-64 4 7 5 14 7 22l-32 3c-4-21-16-35-41-35" id="H"/><g id="c"><use transform="matrix(0.06172839506172834,0,0,0.06172839506172834,0,0)" xlink:href="#E"/><use transform="matrix(0.06172839506172834,0,0,0.06172839506172834,14.814814814814802,0)" xlink:href="#y"/><use transform="matrix(0.06172839506172834,0,0,0.06172839506172834,27.160493827160472,0)" xlink:href="#A"/><use transform="matrix(0.06172839506172834,0,0,0.06172839506172834,34.50617283950614,0)" xlink:href="#F"/><use transform="matrix(0.06172839506172834,0,0,0.06172839506172834,45.61728395061724,0)" xlink:href="#G"/><use transform="matrix(0.06172839506172834,0,0,0.06172839506172834,50.49382716049378,0)" xlink:href="#H"/><use transform="matrix(0.06172839506172834,0,0,0.06172839506172834,61.60493827160488,0)" xlink:href="#y"/></g><path fill="#333" d="M240 0l2-218c-23 76-54 145-80 218h-23L58-218 59 0H30v-248h44l77 211c21-75 51-140 76-211h43V0h-30" id="I"/><path fill="#333" d="M106-169C34-169 62-67 57 0H25v-261h32l-1 103c12-21 28-36 61-36 89 0 53 116 60 194h-32v-121c2-32-8-49-39-48" id="J"/><path fill="#333" d="M177-190C167-65 218 103 67 71c-23-6-38-20-44-43l32-5c15 47 100 32 89-28v-30C133-14 115 1 83 1 29 1 15-40 15-95c0-56 16-97 71-98 29-1 48 16 59 35 1-10 0-23 2-32h30zM94-22c36 0 50-32 50-73 0-42-14-75-50-75-39 0-46 34-46 75s6 73 46 73" id="K"/><g id="d"><use transform="matrix(0.06172839506172834,0,0,0.06172839506172834,0,0)" xlink:href="#I"/><use transform="matrix(0.06172839506172834,0,0,0.06172839506172834,18.456790123456774,0)" xlink:href="#u"/><use transform="matrix(0.06172839506172834,0,0,0.06172839506172834,30.80246913580244,0)" xlink:href="#v"/><use transform="matrix(0.06172839506172834,0,0,0.06172839506172834,36.975308641975275,0)" xlink:href="#H"/><use transform="matrix(0.06172839506172834,0,0,0.06172839506172834,48.086419753086375,0)" xlink:href="#J"/><use transform="matrix(0.06172839506172834,0,0,0.06172839506172834,60.432098765432045,0)" xlink:href="#G"/><use transform="matrix(0.06172839506172834,0,0,0.06172839506172834,65.30864197530859,0)" xlink:href="#C"/><use transform="matrix(0.06172839506172834,0,0,0.06172839506172834,77.65432098765426,0)" xlink:href="#K"/></g><g id="e"><use transform="matrix(0.06172839506172834,0,0,0.06172839506172834,0,0)" xlink:href="#E"/><use transform="matrix(0.06172839506172834,0,0,0.06172839506172834,14.814814814814802,0)" xlink:href="#y"/><use transform="matrix(0.06172839506172834,0,0,0.06172839506172834,27.160493827160472,0)" xlink:href="#A"/><use transform="matrix(0.06172839506172834,0,0,0.06172839506172834,34.50617283950614,0)" xlink:href="#F"/><use transform="matrix(0.06172839506172834,0,0,0.06172839506172834,45.61728395061724,0)" xlink:href="#G"/><use transform="matrix(0.06172839506172834,0,0,0.06172839506172834,50.49382716049378,0)" xlink:href="#H"/><use transform="matrix(0.06172839506172834,0,0,0.06172839506172834,61.60493827160488,0)" xlink:href="#y"/></g><path fill="#333" d="M197 0v-115H63V0H30v-248h33v105h134v-105h34V0h-34" id="L"/><path fill="#333" d="M179-190L93 31C79 59 56 82 12 73V49c39 6 53-20 64-50L1-190h34L92-34l54-156h33" id="M"/><g id="f"><use transform="matrix(0.06172839506172834,0,0,0.06172839506172834,0,0)" xlink:href="#L"/><use transform="matrix(0.06172839506172834,0,0,0.06172839506172834,15.987654320987641,0)" xlink:href="#G"/><use transform="matrix(0.06172839506172834,0,0,0.06172839506172834,20.864197530864182,0)" xlink:href="#x"/><use transform="matrix(0.06172839506172834,0,0,0.06172839506172834,31.975308641975282,0)" xlink:href="#v"/><use transform="matrix(0.06172839506172834,0,0,0.06172839506172834,38.14814814814812,0)" xlink:href="#B"/><use transform="matrix(0.06172839506172834,0,0,0.06172839506172834,50.49382716049379,0)" xlink:href="#A"/><use transform="matrix(0.06172839506172834,0,0,0.06172839506172834,57.83950617283946,0)" xlink:href="#M"/></g><g id="g"><use transform="matrix(0.06172839506172834,0,0,0.06172839506172834,0,0)" xlink:href="#E"/><use transform="matrix(0.06172839506172834,0,0,0.06172839506172834,14.814814814814802,0)" xlink:href="#y"/><use transform="matrix(0.06172839506172834,0,0,0.06172839506172834,27.160493827160472,0)" xlink:href="#A"/><use transform="matrix(0.06172839506172834,0,0,0.06172839506172834,34.50617283950614,0)" xlink:href="#F"/><use transform="matrix(0.06172839506172834,0,0,0.06172839506172834,45.61728395061724,0)" xlink:href="#G"/><use transform="matrix(0.06172839506172834,0,0,0.06172839506172834,50.49382716049378,0)" xlink:href="#H"/><use transform="matrix(0.06172839506172834,0,0,0.06172839506172834,61.60493827160488,0)" xlink:href="#y"/></g><g id="h"><use transform="matrix(0.06172839506172834,0,0,0.06172839506172834,0,0)" xlink:href="#L"/><use transform="matrix(0.06172839506172834,0,0,0.06172839506172834,15.987654320987641,0)" xlink:href="#G"/><use transform="matrix(0.06172839506172834,0,0,0.06172839506172834,20.864197530864182,0)" xlink:href="#x"/><use transform="matrix(0.06172839506172834,0,0,0.06172839506172834,31.975308641975282,0)" xlink:href="#v"/><use transform="matrix(0.06172839506172834,0,0,0.06172839506172834,38.14814814814812,0)" xlink:href="#B"/><use transform="matrix(0.06172839506172834,0,0,0.06172839506172834,50.49382716049379,0)" xlink:href="#A"/><use transform="matrix(0.06172839506172834,0,0,0.06172839506172834,57.83950617283946,0)" xlink:href="#M"/></g><path fill="#333" d="M266 0h-40l-56-210L115 0H75L2-248h35L96-30l15-64 43-154h32l59 218 59-218h35" id="N"/><path fill="#333" d="M143 0L79-87 56-68V0H24v-261h32v163l83-92h37l-77 82L181 0h-38" id="O"/><g id="i"><use transform="matrix(0.06172839506172834,0,0,0.06172839506172834,0,0)" xlink:href="#N"/><use transform="matrix(0.06172839506172834,0,0,0.06172839506172834,20.49382716049381,0)" xlink:href="#B"/><use transform="matrix(0.06172839506172834,0,0,0.06172839506172834,32.83950617283948,0)" xlink:href="#A"/><use transform="matrix(0.06172839506172834,0,0,0.06172839506172834,40.18518518518515,0)" xlink:href="#O"/><use transform="matrix(0.06172839506172834,0,0,0.06172839506172834,51.29629629629625,0)" xlink:href="#y"/><use transform="matrix(0.06172839506172834,0,0,0.06172839506172834,63.641975308641925,0)" xlink:href="#A"/></g><path fill="#333" d="M222 0l43-216c-8 16-17 34-26 49L143 0h-22L81-216 41 0H11l48-248h42l38 208 116-208h45L252 0h-30" id="P"/><path fill="#333" d="M67 3c-93-2-31-127-26-193h32L48-50c-3 39 53 32 70 12 30-34 30-101 43-152h32L157 0h-30c1-10 6-24 4-33-14 20-29 37-64 36" id="Q"/><path fill="#333" d="M6 0l50-261h32L37 0H6" id="R"/><path fill="#333" d="M51-54c-9 22 5 41 31 30L79-1C43 14 10-4 19-52l22-115H19l5-23h22l19-43h21l-9 43h35l-4 23H73" id="S"/><path fill="#333" d="M50-231l6-30h32l-6 30H50zM6 0l37-190h31L37 0H6" id="T"/><path fill="#333" d="M18-82l6-28h88l-6 28H18" id="U"/><path fill="#333" d="M125-24c46 0 70-25 89-51l25 16C214-24 183 4 123 4 8 4-5-146 60-208c32-50 158-61 191-5 5 7 9 14 11 22l-32 10c-9-28-33-43-69-43-74 0-108 51-108 125 0 46 24 75 72 75" id="V"/><path fill="#333" d="M55-144c13 50 104 24 104 88C159 21 15 23 1-39l26-10c6 40 102 42 102-4-13-50-104-23-104-87 0-71 143-71 148-8l-29 4c-5-35-85-37-89 0" id="W"/><path fill="#333" d="M111-194c62-3 86 47 72 106H45c-7 38 6 69 45 68 27-1 43-14 53-32l24 11C152-15 129 4 87 4 38 3 12-23 12-71c0-70 32-119 99-123zm44 81c14-66-71-72-95-28-4 8-8 17-11 28h106" id="X"/><path fill="#333" d="M66-151c12-25 30-51 66-40l-6 26C45-176 58-65 38 0H6l36-190h30" id="Y"/><g id="j"><use transform="matrix(0.06172839506172835,0,0,0.06172839506172835,0,0)" xlink:href="#P"/><use transform="matrix(0.06172839506172835,0,0,0.06172839506172835,18.456790123456777,0)" xlink:href="#Q"/><use transform="matrix(0.06172839506172835,0,0,0.06172839506172835,30.802469135802447,0)" xlink:href="#R"/><use transform="matrix(0.06172839506172835,0,0,0.06172839506172835,35.679012345678984,0)" xlink:href="#S"/><use transform="matrix(0.06172839506172835,0,0,0.06172839506172835,41.85185185185182,0)" xlink:href="#T"/><use transform="matrix(0.06172839506172835,0,0,0.06172839506172835,46.72839506172836,0)" xlink:href="#U"/><use transform="matrix(0.06172839506172835,0,0,0.06172839506172835,54.07407407407403,0)" xlink:href="#V"/><use transform="matrix(0.06172839506172835,0,0,0.06172839506172835,70.06172839506168,0)" xlink:href="#R"/><use transform="matrix(0.06172839506172835,0,0,0.06172839506172835,74.93827160493822,0)" xlink:href="#Q"/><use transform="matrix(0.06172839506172835,0,0,0.06172839506172835,87.28395061728389,0)" xlink:href="#W"/><use transform="matrix(0.06172839506172835,0,0,0.06172839506172835,98.39506172839499,0)" xlink:href="#S"/><use transform="matrix(0.06172839506172835,0,0,0.06172839506172835,104.56790123456783,0)" xlink:href="#X"/><use transform="matrix(0.06172839506172835,0,0,0.06172839506172835,116.9135802469135,0)" xlink:href="#Y"/></g><path fill="#333" d="M249-183c0 48-29 72-75 77L221 0h-36l-43-103H65L45 0H11l48-248c83 2 190-17 190 65zm-34 3c0-55-74-39-127-41l-18 92c63-1 145 13 145-51" id="Z"/><path fill="#333" d="M67-162c32-53 139-36 121 50C175-51 163 2 97 4 68 4 52-11 42-31 38 6 28 39 22 75H-9l50-265h29c-1 10 0 20-3 28zm89 36c0-26-10-43-35-43-54 0-67 50-69 103-1 29 14 45 42 46 53 0 62-58 62-106" id="aa"/><path fill="#333" d="M44-68c0 29 11 47 38 47 30 0 42-19 51-41l28 9C148-21 126 4 82 4 31 4 10-29 12-85c3-77 74-140 146-93 12 8 15 23 18 40l-31 5c-1-22-13-36-36-36-52 0-65 49-65 101" id="ab"/><path fill="#333" d="M165-48c-4 18 1 34 23 27l-3 20c-29 8-62 0-52-35h-2C116-14 99 4 63 4 30 4 8-16 8-49c0-68 71-67 138-67 10-26 0-56-31-54-26 1-42 9-47 31l-32-5c8-67 160-71 144 15-5 28-9 54-15 81zM42-50c3 52 80 24 89-6 7-12 7-24 11-38-47 1-103-4-100 44" id="ac"/><path fill="#333" d="M30-147c31-64 166-65 159 27C183-49 158 1 86 4 9 8 1-88 30-147zM88-20c53 0 68-48 68-100 0-31-11-51-44-50-52 1-68 46-68 97 0 32 13 53 44 53" id="ad"/><path fill="#333" d="M67-158c22-48 132-52 116 29L158 0h-32l25-140c3-38-53-32-70-12C52-117 51-52 38 0H6l36-190h30" id="ae"/><g id="k"><use transform="matrix(0.06172839506172835,0,0,0.06172839506172835,0,0)" xlink:href="#Z"/><use transform="matrix(0.06172839506172835,0,0,0.06172839506172835,15.987654320987643,0)" xlink:href="#X"/><use transform="matrix(0.06172839506172835,0,0,0.06172839506172835,28.333333333333314,0)" xlink:href="#aa"/><use transform="matrix(0.06172839506172835,0,0,0.06172839506172835,40.679012345678984,0)" xlink:href="#R"/><use transform="matrix(0.06172839506172835,0,0,0.06172839506172835,45.55555555555552,0)" xlink:href="#T"/><use transform="matrix(0.06172839506172835,0,0,0.06172839506172835,50.43209876543206,0)" xlink:href="#ab"/><use transform="matrix(0.06172839506172835,0,0,0.06172839506172835,61.54320987654316,0)" xlink:href="#ac"/><use transform="matrix(0.06172839506172835,0,0,0.06172839506172835,73.88888888888883,0)" xlink:href="#S"/><use transform="matrix(0.06172839506172835,0,0,0.06172839506172835,80.06172839506166,0)" xlink:href="#T"/><use transform="matrix(0.06172839506172835,0,0,0.06172839506172835,84.93827160493821,0)" xlink:href="#ad"/><use transform="matrix(0.06172839506172835,0,0,0.06172839506172835,97.28395061728388,0)" xlink:href="#ae"/></g><path fill="#333" d="M151-220L108 0H75l42-220H32l6-28h203l-5 28h-85" id="af"/><path fill="#333" d="M248-111c6-24 9-61-24-58-72 9-57 108-77 169h-31l26-142c3-37-50-30-64-10C52-115 50-51 37 0H6l36-190h30c-1 10-6 24-4 32 13-43 101-52 105 5 13-22 29-41 61-41 90 0 28 129 23 194h-31" id="ag"/><g id="l"><use transform="matrix(0.06172839506172835,0,0,0.06172839506172835,0,0)" xlink:href="#af"/><use transform="matrix(0.06172839506172835,0,0,0.06172839506172835,11.481481481481474,0)" xlink:href="#X"/><use transform="matrix(0.06172839506172835,0,0,0.06172839506172835,23.827160493827144,0)" xlink:href="#ag"/><use transform="matrix(0.06172839506172835,0,0,0.06172839506172835,42.28395061728392,0)" xlink:href="#aa"/><use transform="matrix(0.06172839506172835,0,0,0.06172839506172835,54.62962962962959,0)" xlink:href="#ad"/><use transform="matrix(0.06172839506172835,0,0,0.06172839506172835,66.97530864197526,0)" xlink:href="#Y"/><use transform="matrix(0.06172839506172835,0,0,0.06172839506172835,74.32098765432093,0)" xlink:href="#ac"/><use transform="matrix(0.06172839506172835,0,0,0.06172839506172835,86.6666666666666,0)" xlink:href="#R"/></g><path fill="#333" d="M194-120c59 52 2 134-86 124-53-6-90-18-98-63l31-7c8 30 29 43 70 43 46 0 84-17 71-62-32-43-135-20-137-98-3-89 178-90 191-16l-30 9c-8-48-127-53-127 5 0 53 81 35 115 65" id="ah"/><path fill="#333" d="M89 0H52L20-190h33L74-25l89-165h34" id="ai"/><g id="m"><use transform="matrix(0.06172839506172835,0,0,0.06172839506172835,0,0)" xlink:href="#ah"/><use transform="matrix(0.06172839506172835,0,0,0.06172839506172835,14.814814814814804,0)" xlink:href="#X"/><use transform="matrix(0.06172839506172835,0,0,0.06172839506172835,27.160493827160472,0)" xlink:href="#Y"/><use transform="matrix(0.06172839506172835,0,0,0.06172839506172835,34.50617283950615,0)" xlink:href="#ai"/><use transform="matrix(0.06172839506172835,0,0,0.06172839506172835,45.61728395061725,0)" xlink:href="#T"/><use transform="matrix(0.06172839506172835,0,0,0.06172839506172835,50.49382716049379,0)" xlink:href="#ab"/><use transform="matrix(0.06172839506172835,0,0,0.06172839506172835,61.604938271604894,0)" xlink:href="#X"/></g><path fill="#333" d="M179 0l23-115H67L45 0H11l48-248h34L72-143h135l21-105h32L212 0h-33" id="aj"/><path fill="#333" d="M-8 0l5-24 140-142H31l5-24h145l-5 24L36-24h119l-5 24H-8" id="ak"/><path fill="#333" d="M198-190L69 30C53 58 25 83-20 72c4-11-1-27 19-22 33-1 43-29 59-52L20-190h32L79-34l84-156h35" id="al"/><g id="n"><use transform="matrix(0.06172839506172835,0,0,0.06172839506172835,0,0)" xlink:href="#aj"/><use transform="matrix(0.06172839506172835,0,0,0.06172839506172835,15.987654320987643,0)" xlink:href="#ad"/><use transform="matrix(0.06172839506172835,0,0,0.06172839506172835,28.333333333333314,0)" xlink:href="#Y"/><use transform="matrix(0.06172839506172835,0,0,0.06172839506172835,35.679012345678984,0)" xlink:href="#T"/><use transform="matrix(0.06172839506172835,0,0,0.06172839506172835,40.55555555555552,0)" xlink:href="#ak"/><use transform="matrix(0.06172839506172835,0,0,0.06172839506172835,51.66666666666663,0)" xlink:href="#ad"/><use transform="matrix(0.06172839506172835,0,0,0.06172839506172835,64.0123456790123,0)" xlink:href="#ae"/><use transform="matrix(0.06172839506172835,0,0,0.06172839506172835,76.35802469135797,0)" xlink:href="#S"/><use transform="matrix(0.06172839506172835,0,0,0.06172839506172835,82.5308641975308,0)" xlink:href="#ac"/><use transform="matrix(0.06172839506172835,0,0,0.06172839506172835,94.87654320987647,0)" xlink:href="#R"/><use transform="matrix(0.06172839506172835,0,0,0.06172839506172835,99.75308641975302,0)" xlink:href="#R"/><use transform="matrix(0.06172839506172835,0,0,0.06172839506172835,104.62962962962956,0)" xlink:href="#al"/></g><path fill="#333" d="M68-162c25-46 127-43 121 31C183-60 169 1 98 4 69 5 53-11 43-31L36 0H5l52-261h31zm88 36c2-27-9-43-34-43-55 0-70 51-70 103 0 29 15 45 43 46 52 0 58-58 61-106" id="am"/><g id="o"><use transform="matrix(0.06172839506172835,0,0,0.06172839506172835,0,0)" xlink:href="#W"/><use transform="matrix(0.06172839506172835,0,0,0.06172839506172835,11.111111111111104,0)" xlink:href="#ab"/><use transform="matrix(0.06172839506172835,0,0,0.06172839506172835,22.222222222222207,0)" xlink:href="#ac"/><use transform="matrix(0.06172839506172835,0,0,0.06172839506172835,34.56790123456788,0)" xlink:href="#R"/><use transform="matrix(0.06172839506172835,0,0,0.06172839506172835,39.444444444444414,0)" xlink:href="#ac"/><use transform="matrix(0.06172839506172835,0,0,0.06172839506172835,51.790123456790084,0)" xlink:href="#am"/><use transform="matrix(0.06172839506172835,0,0,0.06172839506172835,64.13580246913575,0)" xlink:href="#R"/><use transform="matrix(0.06172839506172835,0,0,0.06172839506172835,69.0123456790123,0)" xlink:href="#X"/></g><g id="p"><use transform="matrix(0.06172839506172835,0,0,0.06172839506172835,0,0)" xlink:href="#af"/><use transform="matrix(0.06172839506172835,0,0,0.06172839506172835,11.481481481481474,0)" xlink:href="#X"/><use transform="matrix(0.06172839506172835,0,0,0.06172839506172835,23.827160493827144,0)" xlink:href="#ag"/><use transform="matrix(0.06172839506172835,0,0,0.06172839506172835,42.28395061728392,0)" xlink:href="#aa"/><use transform="matrix(0.06172839506172835,0,0,0.06172839506172835,54.62962962962959,0)" xlink:href="#ad"/><use transform="matrix(0.06172839506172835,0,0,0.06172839506172835,66.97530864197526,0)" xlink:href="#Y"/><use transform="matrix(0.06172839506172835,0,0,0.06172839506172835,74.32098765432093,0)" xlink:href="#ac"/><use transform="matrix(0.06172839506172835,0,0,0.06172839506172835,86.6666666666666,0)" xlink:href="#R"/></g><g id="q"><use transform="matrix(0.06172839506172835,0,0,0.06172839506172835,0,0)" xlink:href="#ah"/><use transform="matrix(0.06172839506172835,0,0,0.06172839506172835,14.814814814814804,0)" xlink:href="#X"/><use transform="matrix(0.06172839506172835,0,0,0.06172839506172835,27.160493827160472,0)" xlink:href="#Y"/><use transform="matrix(0.06172839506172835,0,0,0.06172839506172835,34.50617283950615,0)" xlink:href="#ai"/><use transform="matrix(0.06172839506172835,0,0,0.06172839506172835,45.61728395061725,0)" xlink:href="#X"/><use transform="matrix(0.06172839506172835,0,0,0.06172839506172835,57.96296296296292,0)" xlink:href="#Y"/></g><g id="r"><use transform="matrix(0.06172839506172835,0,0,0.06172839506172835,0,0)" xlink:href="#aj"/><use transform="matrix(0.06172839506172835,0,0,0.06172839506172835,15.987654320987643,0)" xlink:href="#ad"/><use transform="matrix(0.06172839506172835,0,0,0.06172839506172835,28.333333333333314,0)" xlink:href="#Y"/><use transform="matrix(0.06172839506172835,0,0,0.06172839506172835,35.679012345678984,0)" xlink:href="#T"/><use transform="matrix(0.06172839506172835,0,0,0.06172839506172835,40.55555555555552,0)" xlink:href="#ak"/><use transform="matrix(0.06172839506172835,0,0,0.06172839506172835,51.66666666666663,0)" xlink:href="#ad"/><use transform="matrix(0.06172839506172835,0,0,0.06172839506172835,64.0123456790123,0)" xlink:href="#ae"/><use transform="matrix(0.06172839506172835,0,0,0.06172839506172835,76.35802469135797,0)" xlink:href="#S"/><use transform="matrix(0.06172839506172835,0,0,0.06172839506172835,82.5308641975308,0)" xlink:href="#ac"/><use transform="matrix(0.06172839506172835,0,0,0.06172839506172835,94.87654320987647,0)" xlink:href="#R"/><use transform="matrix(0.06172839506172835,0,0,0.06172839506172835,99.75308641975302,0)" xlink:href="#R"/><use transform="matrix(0.06172839506172835,0,0,0.06172839506172835,104.62962962962956,0)" xlink:href="#al"/></g><g id="s"><use transform="matrix(0.06172839506172835,0,0,0.06172839506172835,0,0)" xlink:href="#W"/><use transform="matrix(0.06172839506172835,0,0,0.06172839506172835,11.111111111111104,0)" xlink:href="#ab"/><use transform="matrix(0.06172839506172835,0,0,0.06172839506172835,22.222222222222207,0)" xlink:href="#ac"/><use transform="matrix(0.06172839506172835,0,0,0.06172839506172835,34.56790123456788,0)" xlink:href="#R"/><use transform="matrix(0.06172839506172835,0,0,0.06172839506172835,39.444444444444414,0)" xlink:href="#ac"/><use transform="matrix(0.06172839506172835,0,0,0.06172839506172835,51.790123456790084,0)" xlink:href="#am"/><use transform="matrix(0.06172839506172835,0,0,0.06172839506172835,64.13580246913575,0)" xlink:href="#R"/><use transform="matrix(0.06172839506172835,0,0,0.06172839506172835,69.0123456790123,0)" xlink:href="#X"/></g></defs></g></svg>