<svg xmlns="http://www.w3.org/2000/svg" xmlns:xlink="http://www.w3.org/1999/xlink" xmlns:lucid="lucid" width="1140" height="740"><g transform="translate(-480 -80)" lucid:page-tab-id="0_0"><path d="M0 0h1870.87v1322.83H0z" fill="#fff"/><path d="M500 101a1 1 0 0 1 1-1h1098a1 1 0 0 1 1 1v698a1 1 0 0 1-1 1H501a1 1 0 0 1-1-1z" fill="#fff"/><path d="M780 151.84a15 15 0 0 1 15-15h363.68a15 15 0 0 1 15 15v596.32a15 15 0 0 1-15 15H795a15 15 0 0 1-15-15z" stroke="#333" fill="#127ae5"/><path d="M869.47 221.63a15 15 0 0 1 15-15h148.95a15 15 0 0 1 15 15v148.95a15 15 0 0 1-15 15H884.47a15 15 0 0 1-15-15z" stroke="#333" fill="#fff"/><use xlink:href="#a" transform="translate(901.276 282.274)"/><use xlink:href="#b" transform="translate(910.906 316.94)"/><path d="M905.26 525.84a15 15 0 0 1 15-15h148.95a15 15 0 0 1 15 15V674.8a15 15 0 0 1-15 15H920.27a15 15 0 0 1-15-15z" stroke="#333" fill="#e5e5e5"/><use xlink:href="#c" transform="translate(949.945 586.484)"/><use xlink:href="#b" transform="translate(946.695 621.151)"/><path d="M887.37 507.95a15 15 0 0 1 15-15h148.95a15 15 0 0 1 15 15V656.9a15 15 0 0 1-15 15H902.37a15 15 0 0 1-15-15z" stroke="#333" fill="#e5e5e5"/><use xlink:href="#c" transform="translate(932.05 568.59)"/><use xlink:href="#b" transform="translate(928.8 603.256)"/><path d="M869.47 490.05a15 15 0 0 1 15-15h148.95a15 15 0 0 1 15 15V639a15 15 0 0 1-15 15H884.47a15 15 0 0 1-15-15z" stroke="#333" fill="#fff"/><use xlink:href="#d" transform="translate(912.832 550.695)"/><use xlink:href="#b" transform="translate(910.906 585.362)"/><path d="M958.95 386.5v87.64" stroke="#333" fill="none"/><path d="M959.45 386.5h-1v-.5h1zm0 88.14h-1v-.5h1z" stroke="#333" stroke-width=".05" fill="#333"/><path d="M833.68 205.53a15 15 0 0 1 15-15H1105a15 15 0 0 1 15 15v488.94a15 15 0 0 1-15 15H848.68a15 15 0 0 1-15-15z" fill="none"/><path d="m834.64 200.35.68-1.63.92-1.5m2.3-2.68 1.33-1.15 1.5-.93m3.25-1.35 1.72-.4h2.02m4.04 0 4.04-.02m4.04 0h4.04m4.05 0h4.04m4.05 0h4.04m4.03-.02h4.04m4.05 0h4.04m4.04 0h4.04m4.04 0 4.04-.02m4.05 0h4.04m4.05 0h4.04m4.03 0h4.04m4.05-.02h4.04m4.04 0h4.04m4.04 0h4.04m4.04 0 4.05-.02m4.05 0h4.04m4.03 0h4.04m4.04 0h4.06m4.04-.02h4.04m4.04 0h4.04m4.04 0h4.05m4.05 0 4.04-.02m4.03 0h4.04m4.04 0h4.06m4.04 0h4.04m4.04-.02h4.04m4.04 0h4.04m4.05 0h4.04m4.03 0 4.04-.02m4.04 0h4.05m4.05 0h4.04m4.04 0h2.02l1.76.12m3.42.83 1.63.66 1.52.92m2.67 2.3 1.14 1.33.92 1.5m1.34 3.26.42 1.72v2m0 4.04v4.03m0 4.02v4.03m0 4.03v4.03m0 4.02v4.03m0 4.04v4.02m0 4.03v4.02m.02 4.02v4.03m0 4.03v4.03m0 4.02v4.03m0 4.03v4.03m0 4.03v4.03m0 4v4.04m0 4.03.02 4.03m0 4.02v4.03m0 4.03V326m0 4.03v4.03m0 4.02v4.03m0 4.04v4.03m0 4.02v4.02m.02 4.03v4.02m0 4.03v4.03m0 4.02v4.03m0 4.03v4.04m0 4.02v4.03m0 4.02v4.02m0 4.03v4.03m.02 4.02v4.03m0 4.03v4.03m0 4.03v4.03m0 4.03v4m0 4.04v4.03m0 4.02v4.02m0 4.03.02 4.03m0 4.02v4.03m0 4.03v4.02m0 4.03v4.04m0 4.02v4.03m0 4.02v4.03m0 4.02v4.03m.02 4.03v4.02m0 4.03v4.03m0 4.03v4.03m0 4.03v4.02m0 4.02v4.03m0 4.03v4.02m0 4.03.02 4.03m0 4.02v4.03m0 4.03v4.03m0 4v4.04m0 4.03v4.02m0 4.02v4.03m0 4.02V624m.02 4.03v4.03m0 4.02v4.03m0 4.04v4.02m0 4.03v4.02m0 4.02v4.03m0 4.03v4.03m0 4.02v4.03m.02 4.03v4.03m0 4.03v2l-.14 1.77m-.82 3.42-.67 1.63-.93 1.5m-2.28 2.68-1.34 1.15-1.5.93m-3.26 1.35-1.7.4h-2.03m-4.05 0-4.04.02m-4.04 0h-4.04m-4.04 0h-4.04m-4.05 0H1073m-4.05.02h-4.04m-4.03 0h-4.04m-4.05 0h-4.04m-4.04 0-4.04.02m-4.04 0h-4.04m-4.04 0h-4.05m-4.05 0h-4.04m-4.03.02h-4.04m-4.04 0h-4.06m-4.04 0h-4.04m-4.04 0-4.04.02m-4.04 0H976m-4.05 0h-4.04m-4.03 0h-4.04m-4.04.02h-4.06m-4.04 0h-4.04m-4.04 0h-4.04m-4.04 0-4.04.02m-4.05 0h-4.04m-4.03 0h-4.04m-4.04 0h-4.05m-4.05.02h-4.04m-4.04 0h-4.04m-4.04 0H879m-4.05 0-4.04.02m-4.03 0h-4.04m-4.04 0h-4.05m-4.04 0h-2.02l-1.76-.12m-3.4-.83-1.65-.66-1.5-.92m-2.67-2.3-1.15-1.33-.92-1.5m-1.35-3.26-.4-1.72v-2m0-4.04v-4.03m-.02-4.02v-4.03m0-4.03v-4.03m0-4.02v-4.03m0-4.04v-4.02m0-4.03v-4.02m0-4.02v-4.03m0-4.03-.02-4.03m0-4.02v-4.03m0-4.03v-4.03m0-4.03v-4.03m0-4v-4.04m0-4.03v-4.03m0-4.02v-4.03m-.02-4.03V574m0-4.03v-4.03m0-4.02v-4.03m0-4.04v-4.03m0-4.02v-4.02m0-4.03v-4.02m0-4.03-.02-4.03m0-4.02v-4.03m0-4.03v-4.04m0-4.02v-4.03m0-4.02v-4.02m0-4.03v-4.03m0-4.02v-4.03m-.02-4.03v-4.03m0-4.03v-4.03m0-4.03v-4m0-4.04v-4.03m0-4.02v-4.02m0-4.03v-4.03m0-4.02v-4.03m-.02-4.03v-4.02m0-4.03v-4.04m0-4.02v-4.03m0-4.02v-4.03m0-4.02v-4.03m0-4.03v-4.02m0-4.03-.02-4.03m0-4.03v-4.03m0-4.03v-4.02m0-4.02v-4.03m0-4.03v-4.02m0-4.03v-4.03m0-4.02v-4.03m-.02-4.03v-4.03m0-4v-4.04m0-4.03v-4.02m0-4.02v-4.03m0-4.02V276m0-4.03v-4.03m0-4.02-.02-4.03m0-4.04v-4.02m0-4.03v-4.02m0-4.02v-4.03m0-4.03v-4.03m0-4.02v-4.03m0-4.03v-4.03m-.02-4.03v-2l.14-1.77" stroke="#fff" fill="none"/><path d="M1227.37 541.02a6 6 0 0 1 6-6H1454a6 6 0 0 1 6 6v72.66a6 6 0 0 1-6 6h-220.63a6 6 0 0 1-6-6z" fill="none"/><use xlink:href="#e" transform="translate(1234.733 584.222)"/><use xlink:href="#f" transform="translate(1361.763 584.222)"/><path d="M1227.37 317.33a6 6 0 0 1 6-6H1454a6 6 0 0 1 6 6V390a6 6 0 0 1-6 6h-220.63a6 6 0 0 1-6-6z" fill="none"/><use xlink:href="#e" transform="translate(1237.902 360.538)"/><use xlink:href="#g" transform="translate(1364.933 360.538)"/><path d="M1226.9 353.67h-52.7a.32.32 0 0 0-.3.32.32.32 0 0 1-.33.3h-52.7" stroke="#333" fill="none"/><path d="M1227.4 354.17h-.5v-1h.5zm-106.52.63h-.5v-1h.5z" stroke="#333" stroke-width=".05" fill="#333"/><path d="M1226.9 577.35h-25.84a.3.3 0 0 1-.3-.3.3.3 0 0 0-.28-.27h-25.85" stroke="#333" fill="none"/><path d="M1227.4 577.85h-.5v-1h.5zm-52.76-.57h-.5v-1h.5z" stroke="#333" stroke-width=".05" fill="#333"/><defs><path fill="#333" d="M63-220v92h138v28H63V0H30v-248h175v28H63" id="h"/><path fill="#333" d="M114-163C36-179 61-72 57 0H25l-1-190h30c1 12-1 29 2 39 6-27 23-49 58-41v29" id="i"/><path fill="#333" d="M100-194c62-1 85 37 85 99 1 63-27 99-86 99S16-35 15-95c0-66 28-99 85-99zM99-20c44 1 53-31 53-75 0-43-8-75-51-75s-53 32-53 75 10 74 51 75" id="j"/><path fill="#333" d="M117-194c89-4 53 116 60 194h-32v-121c0-31-8-49-39-48C34-167 62-67 57 0H25l-1-190h30c1 10-1 24 2 32 11-22 29-35 61-36" id="k"/><path fill="#333" d="M59-47c-2 24 18 29 38 22v24C64 9 27 4 27-40v-127H5v-23h24l9-43h21v43h35v23H59v120" id="l"/><path fill="#333" d="M100-194c63 0 86 42 84 106H49c0 40 14 67 53 68 26 1 43-12 49-29l28 8c-11 28-37 45-77 45C44 4 14-33 15-96c1-61 26-98 85-98zm52 81c6-60-76-77-97-28-3 7-6 17-6 28h103" id="m"/><path fill="#333" d="M85-194c31 0 48 13 60 33l-1-100h32l1 261h-30c-2-10 0-23-3-31C134-8 116 4 85 4 32 4 16-35 15-94c0-66 23-100 70-100zm9 24c-40 0-46 34-46 75 0 40 6 74 45 74 42 0 51-32 51-76 0-42-9-74-50-73" id="n"/><path fill="#333" d="M185-189c-5-48-123-54-124 2 14 75 158 14 163 119 3 78-121 87-175 55-17-10-28-26-33-46l33-7c5 56 141 63 141-1 0-78-155-14-162-118-5-82 145-84 179-34 5 7 8 16 11 25" id="o"/><path fill="#333" d="M108 0H70L1-190h34L89-25l56-165h34" id="p"/><path fill="#333" d="M24-231v-30h32v30H24zM24 0v-190h32V0H24" id="q"/><path fill="#333" d="M96-169c-40 0-48 33-48 73s9 75 48 75c24 0 41-14 43-38l32 2c-6 37-31 61-74 61-59 0-76-41-82-99-10-93 101-131 147-64 4 7 5 14 7 22l-32 3c-4-21-16-35-41-35" id="r"/><path fill="#333" d="M197 0v-115H63V0H30v-248h33v105h134v-105h34V0h-34" id="s"/><path fill="#333" d="M135-143c-3-34-86-38-87 0 15 53 115 12 119 90S17 21 10-45l28-5c4 36 97 45 98 0-10-56-113-15-118-90-4-57 82-63 122-42 12 7 21 19 24 35" id="t"/><path fill="#333" d="M179-190 93 31C79 59 56 82 12 73V49c39 6 53-20 64-50L1-190h34L92-34l54-156h33" id="u"/><path fill="#333" d="M266 0h-40l-56-210L115 0H75L2-248h35L96-30l15-64 43-154h32l59 218 59-218h35" id="v"/><path fill="#333" d="M143 0 79-87 56-68V0H24v-261h32v163l83-92h37l-77 82L181 0h-38" id="w"/><path fill="#333" d="M151-220 108 0H75l42-220H32l6-28h203l-5 28h-85" id="x"/><path fill="#333" d="M111-194c62-3 86 47 72 106H45c-7 38 6 69 45 68 27-1 43-14 53-32l24 11C152-15 129 4 87 4 38 3 12-23 12-71c0-70 32-119 99-123zm44 81c14-66-71-72-95-28-4 8-8 17-11 28h106" id="y"/><path fill="#333" d="M248-111c6-24 9-61-24-58-72 9-57 108-77 169h-31l26-142c3-37-50-30-64-10C52-115 50-51 37 0H6l36-190h30c-1 10-6 24-4 32 13-43 101-52 105 5 13-22 29-41 61-41 90 0 28 129 23 194h-31" id="z"/><path fill="#333" d="M67-162c32-53 139-36 121 50C175-51 163 2 97 4 68 4 52-11 42-31 38 6 28 39 22 75H-9l50-265h29c-1 10 0 20-3 28zm89 36c0-26-10-43-35-43-54 0-67 50-69 103-1 29 14 45 42 46 53 0 62-58 62-106" id="A"/><path fill="#333" d="M30-147c31-64 166-65 159 27C183-49 158 1 86 4 9 8 1-88 30-147zM88-20c53 0 68-48 68-100 0-31-11-51-44-50-52 1-68 46-68 97 0 32 13 53 44 53" id="B"/><path fill="#333" d="M66-151c12-25 30-51 66-40l-6 26C45-176 58-65 38 0H6l36-190h30" id="C"/><path fill="#333" d="M165-48c-4 18 1 34 23 27l-3 20c-29 8-62 0-52-35h-2C116-14 99 4 63 4 30 4 8-16 8-49c0-68 71-67 138-67 10-26 0-56-31-54-26 1-42 9-47 31l-32-5c8-67 160-71 144 15-5 28-9 54-15 81zM42-50c3 52 80 24 89-6 7-12 7-24 11-38-47 1-103-4-100 44" id="D"/><path fill="#333" d="m6 0 50-261h32L37 0H6" id="E"/><path fill="#333" d="M125-24c46 0 70-25 89-51l25 16C214-24 183 4 123 4 8 4-5-146 60-208c32-50 158-61 191-5 5 7 9 14 11 22l-32 10c-9-28-33-43-69-43-74 0-108 51-108 125 0 46 24 75 72 75" id="F"/><path fill="#333" d="M67 3c-93-2-31-127-26-193h32L48-50c-3 39 53 32 70 12 30-34 30-101 43-152h32L157 0h-30c1-10 6-24 4-33-14 20-29 37-64 36" id="G"/><path fill="#333" d="M55-144c13 50 104 24 104 88C159 21 15 23 1-39l26-10c6 40 102 42 102-4-13-50-104-23-104-87 0-71 143-71 148-8l-29 4c-5-35-85-37-89 0" id="H"/><path fill="#333" d="M51-54c-9 22 5 41 31 30L79-1C43 14 10-4 19-52l22-115H19l5-23h22l19-43h21l-9 43h35l-4 23H73" id="I"/><path fill="#333" d="M194-120c59 52 2 134-86 124-53-6-90-18-98-63l31-7c8 30 29 43 70 43 46 0 84-17 71-62-32-43-135-20-137-98-3-89 178-90 191-16l-30 9c-8-48-127-53-127 5 0 53 81 35 115 65" id="J"/><path fill="#333" d="M89 0H52L20-190h33L74-25l89-165h34" id="K"/><g id="a"><use transform="scale(.08025)" xlink:href="#h"/><use transform="matrix(.08025 0 0 .08025 17.574 0)" xlink:href="#i"/><use transform="matrix(.08025 0 0 .08025 27.123 0)" xlink:href="#j"/><use transform="matrix(.08025 0 0 .08025 43.173 0)" xlink:href="#k"/><use transform="matrix(.08025 0 0 .08025 59.222 0)" xlink:href="#l"/><use transform="matrix(.08025 0 0 .08025 67.247 0)" xlink:href="#m"/><use transform="matrix(.08025 0 0 .08025 83.296 0)" xlink:href="#k"/><use transform="matrix(.08025 0 0 .08025 99.346 0)" xlink:href="#n"/></g><g id="b"><use transform="scale(.08025)" xlink:href="#o"/><use transform="matrix(.08025 0 0 .08025 19.26 0)" xlink:href="#m"/><use transform="matrix(.08025 0 0 .08025 35.309 0)" xlink:href="#i"/><use transform="matrix(.08025 0 0 .08025 44.858 0)" xlink:href="#p"/><use transform="matrix(.08025 0 0 .08025 59.302 0)" xlink:href="#q"/><use transform="matrix(.08025 0 0 .08025 65.642 0)" xlink:href="#r"/><use transform="matrix(.08025 0 0 .08025 80.086 0)" xlink:href="#m"/></g><g id="c"><use transform="scale(.08025)" xlink:href="#s"/><use transform="matrix(.08025 0 0 .08025 20.784 0)" xlink:href="#q"/><use transform="matrix(.08025 0 0 .08025 27.123 0)" xlink:href="#t"/><use transform="matrix(.08025 0 0 .08025 41.568 0)" xlink:href="#l"/><use transform="matrix(.08025 0 0 .08025 49.593 0)" xlink:href="#j"/><use transform="matrix(.08025 0 0 .08025 65.642 0)" xlink:href="#i"/><use transform="matrix(.08025 0 0 .08025 75.191 0)" xlink:href="#u"/></g><g id="d"><use transform="scale(.08025)" xlink:href="#v"/><use transform="matrix(.08025 0 0 .08025 26.642 0)" xlink:href="#j"/><use transform="matrix(.08025 0 0 .08025 42.691 0)" xlink:href="#i"/><use transform="matrix(.08025 0 0 .08025 52.24 0)" xlink:href="#w"/><use transform="matrix(.08025 0 0 .08025 66.685 0)" xlink:href="#m"/><use transform="matrix(.08025 0 0 .08025 82.735 0)" xlink:href="#i"/></g><g id="e"><use transform="scale(.08025)" xlink:href="#x"/><use transform="matrix(.08025 0 0 .08025 14.926 0)" xlink:href="#y"/><use transform="matrix(.08025 0 0 .08025 30.975 0)" xlink:href="#z"/><use transform="matrix(.08025 0 0 .08025 54.97 0)" xlink:href="#A"/><use transform="matrix(.08025 0 0 .08025 71.019 0)" xlink:href="#B"/><use transform="matrix(.08025 0 0 .08025 87.068 0)" xlink:href="#C"/><use transform="matrix(.08025 0 0 .08025 96.617 0)" xlink:href="#D"/><use transform="matrix(.08025 0 0 .08025 112.667 0)" xlink:href="#E"/></g><g id="f"><use transform="scale(.08025)" xlink:href="#F"/><use transform="matrix(.08025 0 0 .08025 20.784 0)" xlink:href="#E"/><use transform="matrix(.08025 0 0 .08025 27.123 0)" xlink:href="#G"/><use transform="matrix(.08025 0 0 .08025 43.173 0)" xlink:href="#H"/><use transform="matrix(.08025 0 0 .08025 57.617 0)" xlink:href="#I"/><use transform="matrix(.08025 0 0 .08025 65.642 0)" xlink:href="#y"/><use transform="matrix(.08025 0 0 .08025 81.691 0)" xlink:href="#C"/></g><g id="g"><use transform="scale(.08025)" xlink:href="#J"/><use transform="matrix(.08025 0 0 .08025 19.26 0)" xlink:href="#y"/><use transform="matrix(.08025 0 0 .08025 35.309 0)" xlink:href="#C"/><use transform="matrix(.08025 0 0 .08025 44.858 0)" xlink:href="#K"/><use transform="matrix(.08025 0 0 .08025 59.302 0)" xlink:href="#y"/><use transform="matrix(.08025 0 0 .08025 75.352 0)" xlink:href="#C"/></g></defs></g></svg>