<svg xmlns="http://www.w3.org/2000/svg" xmlns:xlink="http://www.w3.org/1999/xlink" xmlns:lucid="lucid" width="1781.93" height="1203.33"><g transform="translate(810.545 -2600)" lucid:page-tab-id="0_0"><path d="M-1806.87 2517.67h3677.74V3840.5h-3677.74z" fill="#fff"/><path d="M-198.62 3687.33c0 .56-.44 1-1 1-.55 0-1-.44-1-1 0-.55.45-1 1-1 .56 0 1 .45 1 1zm0-3.98c0 .55-.44 1-1 1-.55 0-1-.45-1-1s.45-1 1-1c.56 0 1 .45 1 1zm0-4c0 .56-.44 1-1 1-.55 0-1-.44-1-1 0-.54.45-1 1-1 .56 0 1 .46 1 1zm0-3.97c0 .55-.44 1-1 1-.55 0-1-.45-1-1 0-.56.45-1 1-1 .56 0 1 .44 1 1zm0-4c0 .56-.44 1-1 1-.55 0-1-.44-1-1 0-.54.45-1 1-1 .56 0 1 .46 1 1zm0-3.98c0 .56-.44 1-1 1-.55 0-1-.44-1-1 0-.55.45-1 1-1 .56 0 1 .45 1 1zm0-3.98c0 .55-.44 1-1 1-.55 0-1-.45-1-1s.45-1 1-1c.56 0 1 .45 1 1zm0-4c0 .57-.44 1-1 1-.55 0-1-.43-1-1 0-.54.45-1 1-1 .56 0 1 .46 1 1zm0-3.97c0 .55-.44 1-1 1-.55 0-1-.45-1-1s.45-1 1-1c.56 0 1 .45 1 1zm0-4c0 .56-.44 1-1 1-.55 0-1-.44-1-1 0-.54.45-1 1-1 .56 0 1 .46 1 1zm0-3.97c0 .55-.44 1-1 1-.55 0-1-.45-1-1 0-.56.45-1 1-1 .56 0 1 .44 1 1zm0-4c0 .56-.44 1-1 1-.55 0-1-.44-1-1 0-.54.45-1 1-1 .56 0 1 .46 1 1zm0-3.98c0 .56-.44 1-1 1-.55 0-1-.44-1-1 0-.55.45-1 1-1 .56 0 1 .45 1 1zm0-3.98c0 .55-.44 1-1 1-.55 0-1-.45-1-1s.45-1 1-1c.56 0 1 .45 1 1zm0-4c0 .57-.44 1-1 1-.55 0-1-.43-1-1 0-.54.45-1 1-1 .56 0 1 .46 1 1zm0-3.97c0 .55-.44 1-1 1-.55 0-1-.45-1-1s.45-1 1-1c.56 0 1 .45 1 1zm0-4c0 .56-.44 1-1 1-.55 0-1-.44-1-1 0-.54.45-1 1-1 .56 0 1 .46 1 1zm0-3.97c0 .55-.44 1-1 1-.55 0-1-.45-1-1 0-.56.45-1 1-1 .56 0 1 .44 1 1zm0-4c0 .56-.44 1-1 1-.55 0-1-.44-1-1 0-.54.45-1 1-1 .56 0 1 .46 1 1zm0-3.98c0 .56-.44 1-1 1-.55 0-1-.44-1-1 0-.55.45-1 1-1 .56 0 1 .45 1 1zm0-3.98c0 .55-.44 1-1 1-.55 0-1-.45-1-1s.45-1 1-1c.56 0 1 .45 1 1zm0-4c0 .57-.44 1-1 1-.55 0-1-.43-1-1 0-.54.45-1 1-1 .56 0 1 .46 1 1zm0-3.97c0 .55-.44 1-1 1-.55 0-1-.45-1-1 0-.56.45-1 1-1 .56 0 1 .44 1 1zm0-4c0 .56-.44 1-1 1-.55 0-1-.44-1-1 0-.54.45-1 1-1 .56 0 1 .46 1 1zm0-3.97c0 .55-.44 1-1 1-.55 0-1-.45-1-1 0-.56.45-1 1-1 .56 0 1 .44 1 1zm0-4c0 .56-.44 1-1 1-.55 0-1-.44-1-1 0-.54.45-1 1-1 .56 0 1 .46 1 1zm0-3.98c0 .56-.44 1-1 1-.55 0-1-.44-1-1 0-.55.45-1 1-1 .56 0 1 .45 1 1zm0-3.98c0 .55-.44 1-1 1-.55 0-1-.45-1-1s.45-1 1-1c.56 0 1 .45 1 1zm0-4c0 .57-.44 1-1 1-.55 0-1-.43-1-1 0-.54.45-1 1-1 .56 0 1 .46 1 1zm0-3.97c0 .55-.44 1-1 1-.55 0-1-.45-1-1 0-.56.45-1 1-1 .56 0 1 .44 1 1zm0-4c0 .56-.44 1-1 1-.55 0-1-.44-1-1 0-.54.45-1 1-1 .56 0 1 .46 1 1zm0-3.97c0 .55-.44 1-1 1-.55 0-1-.45-1-1 0-.56.45-1 1-1 .56 0 1 .44 1 1zm0-4c0 .56-.44 1-1 1-.55 0-1-.44-1-1 0-.54.45-1 1-1 .56 0 1 .46 1 1zm0-3.98c0 .56-.44 1-1 1-.55 0-1-.44-1-1 0-.55.45-1 1-1 .56 0 1 .45 1 1zm0-3.98c0 .55-.44 1-1 1-.55 0-1-.45-1-1s.45-1 1-1c.56 0 1 .45 1 1zm0-4c0 .56-.44 1-1 1-.55 0-1-.44-1-1 0-.54.45-1 1-1 .56 0 1 .46 1 1zm0-3.97c0 .55-.44 1-1 1-.55 0-1-.45-1-1 0-.56.45-1 1-1 .56 0 1 .44 1 1zm0-4c0 .56-.44 1-1 1-.55 0-1-.44-1-1 0-.54.45-1 1-1 .56 0 1 .46 1 1zm0-3.97c0 .55-.44 1-1 1-.55 0-1-.45-1-1 0-.56.45-1 1-1 .56 0 1 .44 1 1zm0-4c0 .56-.44 1-1 1-.55 0-1-.44-1-1 0-.54.45-1 1-1 .56 0 1 .46 1 1zm0-3.98c0 .56-.44 1-1 1-.55 0-1-.44-1-1 0-.55.45-1 1-1 .56 0 1 .45 1 1zm0-3.98c0 .55-.44 1-1 1-.55 0-1-.45-1-1s.45-1 1-1c.56 0 1 .45 1 1zm0-4c0 .56-.44 1-1 1-.55 0-1-.44-1-1 0-.54.45-1 1-1 .56 0 1 .46 1 1zm0-3.97c0 .55-.44 1-1 1-.55 0-1-.45-1-1 0-.56.45-1 1-1 .56 0 1 .44 1 1zm0-4c0 .56-.44 1-1 1-.55 0-1-.44-1-1 0-.54.45-1 1-1 .56 0 1 .46 1 1zm0-3.97c0 .55-.44 1-1 1-.55 0-1-.45-1-1 0-.56.45-1 1-1 .56 0 1 .44 1 1zm0-4c0 .56-.44 1-1 1-.55 0-1-.44-1-1 0-.54.45-1 1-1 .56 0 1 .46 1 1zm0-3.98c0 .56-.44 1-1 1-.55 0-1-.44-1-1 0-.55.45-1 1-1 .56 0 1 .45 1 1zm0-3.98c0 .55-.44 1-1 1-.55 0-1-.45-1-1s.45-1 1-1c.56 0 1 .45 1 1zm0-4c0 .56-.44 1-1 1-.55 0-1-.44-1-1 0-.54.45-1 1-1 .56 0 1 .46 1 1zm0-3.97c0 .55-.44 1-1 1-.55 0-1-.45-1-1 0-.56.45-1 1-1 .56 0 1 .44 1 1zm0-4c0 .56-.44 1-1 1-.55 0-1-.44-1-1 0-.54.45-1 1-1 .56 0 1 .46 1 1zm0-3.97c0 .55-.44 1-1 1-.55 0-1-.45-1-1 0-.56.45-1 1-1 .56 0 1 .44 1 1zm0-4c0 .56-.44 1-1 1-.55 0-1-.44-1-1 0-.54.45-1 1-1 .56 0 1 .46 1 1zm0-3.98c0 .56-.44 1-1 1-.55 0-1-.44-1-1 0-.55.45-1 1-1 .56 0 1 .45 1 1zm0-3.98c0 .55-.44 1-1 1-.55 0-1-.45-1-1s.45-1 1-1c.56 0 1 .45 1 1zm0-4c0 .56-.44 1-1 1-.55 0-1-.44-1-1 0-.54.45-1 1-1 .56 0 1 .46 1 1zm0-3.97c0 .55-.44 1-1 1-.55 0-1-.45-1-1 0-.56.45-1 1-1 .56 0 1 .44 1 1zm0-4c0 .56-.44 1-1 1-.55 0-1-.44-1-1 0-.54.45-1 1-1 .56 0 1 .46 1 1zm0-3.98c0 .56-.44 1-1 1-.55 0-1-.44-1-1 0-.55.45-1 1-1 .56 0 1 .45 1 1zm0-3.98c0 .54-.44 1-1 1-.55 0-1-.46-1-1 0-.56.45-1 1-1 .56 0 1 .44 1 1zm0-4c0 .56-.44 1-1 1-.55 0-1-.44-1-1 0-.55.45-1 1-1 .56 0 1 .45 1 1zm0-3.98c0 .55-.44 1-1 1-.55 0-1-.45-1-1s.45-1 1-1c.56 0 1 .45 1 1zm0-4c0 .56-.44 1-1 1-.55 0-1-.44-1-1 0-.54.45-1 1-1 .56 0 1 .46 1 1zm0-3.97c0 .55-.44 1-1 1-.55 0-1-.45-1-1 0-.56.45-1 1-1 .56 0 1 .44 1 1zm0-4c0 .56-.44 1-1 1-.55 0-1-.44-1-1 0-.54.45-1 1-1 .56 0 1 .46 1 1zm0-3.98c0 .56-.44 1-1 1-.55 0-1-.44-1-1 0-.55.45-1 1-1 .56 0 1 .45 1 1zm0-3.98c0 .54-.44 1-1 1-.55 0-1-.46-1-1 0-.56.45-1 1-1 .56 0 1 .44 1 1zm0-4c0 .56-.44 1-1 1-.55 0-1-.44-1-1 0-.55.45-1 1-1 .56 0 1 .45 1 1zm0-3.98c0 .55-.44 1-1 1-.55 0-1-.45-1-1s.45-1 1-1c.56 0 1 .45 1 1zm0-4c0 .56-.44 1-1 1-.55 0-1-.44-1-1 0-.54.45-1 1-1 .56 0 1 .46 1 1zm0-3.97c0 .55-.44 1-1 1-.55 0-1-.45-1-1 0-.56.45-1 1-1 .56 0 1 .44 1 1zm0-4c0 .56-.44 1-1 1-.55 0-1-.44-1-1 0-.54.45-1 1-1 .56 0 1 .46 1 1zm0-3.98c0 .56-.44 1-1 1-.55 0-1-.44-1-1 0-.55.45-1 1-1 .56 0 1 .45 1 1zm0-3.98c0 .54-.44 1-1 1-.55 0-1-.46-1-1 0-.56.45-1 1-1 .56 0 1 .44 1 1zm0-4c0 .56-.44 1-1 1-.55 0-1-.44-1-1 0-.55.45-1 1-1 .56 0 1 .45 1 1zm0-3.98c0 .55-.44 1-1 1-.55 0-1-.45-1-1s.45-1 1-1c.56 0 1 .45 1 1zm0-4c0 .56-.44 1-1 1-.55 0-1-.44-1-1 0-.54.45-1 1-1 .56 0 1 .46 1 1zm0-3.97c0 .55-.44 1-1 1-.55 0-1-.45-1-1 0-.56.45-1 1-1 .56 0 1 .44 1 1zm0-4c0 .56-.44 1-1 1-.55 0-1-.44-1-1 0-.54.45-1 1-1 .56 0 1 .46 1 1zm0-3.98c0 .56-.44 1-1 1-.55 0-1-.44-1-1 0-.55.45-1 1-1 .56 0 1 .45 1 1zm0-3.98c0 .54-.44 1-1 1-.55 0-1-.46-1-1 0-.56.45-1 1-1 .56 0 1 .44 1 1zm0-4c0 .56-.44 1-1 1-.55 0-1-.44-1-1 0-.55.45-1 1-1 .56 0 1 .45 1 1zm0-3.98c0 .55-.44 1-1 1-.55 0-1-.45-1-1 0-.56.45-1 1-1 .56 0 1 .44 1 1zm0-4c0 .56-.44 1-1 1-.55 0-1-.44-1-1 0-.54.45-1 1-1 .56 0 1 .46 1 1zm0-3.97c0 .55-.44 1-1 1-.55 0-1-.45-1-1 0-.56.45-1 1-1 .56 0 1 .44 1 1zm0-4c0 .56-.44 1-1 1-.55 0-1-.44-1-1 0-.54.45-1 1-1 .56 0 1 .46 1 1zm0-3.98c0 .56-.44 1-1 1-.55 0-1-.44-1-1 0-.55.45-1 1-1 .56 0 1 .45 1 1zm0-3.98c0 .54-.44 1-1 1-.55 0-1-.46-1-1 0-.56.45-1 1-1 .56 0 1 .44 1 1zm0-4c0 .56-.44 1-1 1-.55 0-1-.44-1-1 0-.55.45-1 1-1 .56 0 1 .45 1 1zm0-3.98c0 .55-.44 1-1 1-.55 0-1-.45-1-1 0-.56.45-1 1-1 .56 0 1 .44 1 1zm0-4c0 .56-.44 1-1 1-.55 0-1-.44-1-1 0-.54.45-1 1-1 .56 0 1 .46 1 1zm0-3.97c0 .55-.44 1-1 1-.55 0-1-.45-1-1 0-.56.45-1 1-1 .56 0 1 .44 1 1zm0-4c0 .56-.44 1-1 1-.55 0-1-.44-1-1 0-.54.45-1 1-1 .56 0 1 .46 1 1zm0-3.98c0 .56-.44 1-1 1-.55 0-1-.44-1-1 0-.55.45-1 1-1 .56 0 1 .45 1 1zm0-3.98c0 .54-.44 1-1 1-.55 0-1-.46-1-1 0-.56.45-1 1-1 .56 0 1 .44 1 1zm0-4c0 .55-.44 1-1 1-.55 0-1-.45-1-1s.45-1 1-1c.56 0 1 .45 1 1zm0-3.98c0 .55-.44 1-1 1-.55 0-1-.45-1-1 0-.56.45-1 1-1 .56 0 1 .44 1 1zm0-4c0 .56-.44 1-1 1-.55 0-1-.44-1-1 0-.54.45-1 1-1 .56 0 1 .46 1 1zm0-3.97c0 .55-.44 1-1 1-.55 0-1-.45-1-1 0-.56.45-1 1-1 .56 0 1 .44 1 1zm0-4c0 .56-.44 1-1 1-.55 0-1-.44-1-1 0-.54.45-1 1-1 .56 0 1 .46 1 1zm0-3.98c0 .56-.44 1-1 1-.55 0-1-.44-1-1 0-.55.45-1 1-1 .56 0 1 .45 1 1zm0-3.98c0 .54-.44 1-1 1-.55 0-1-.46-1-1 0-.56.45-1 1-1 .56 0 1 .44 1 1zm0-4c0 .55-.44 1-1 1-.55 0-1-.45-1-1s.45-1 1-1c.56 0 1 .45 1 1zm0-3.98c0 .55-.44 1-1 1-.55 0-1-.45-1-1 0-.56.45-1 1-1 .56 0 1 .44 1 1zm0-4c0 .56-.44 1-1 1-.55 0-1-.44-1-1 0-.54.45-1 1-1 .56 0 1 .46 1 1zm0-3.97c0 .55-.44 1-1 1-.55 0-1-.45-1-1 0-.56.45-1 1-1 .56 0 1 .44 1 1zm0-4c0 .56-.44 1-1 1-.55 0-1-.44-1-1 0-.54.45-1 1-1 .56 0 1 .46 1 1zm0-3.98c0 .56-.44 1-1 1-.55 0-1-.44-1-1 0-.55.45-1 1-1 .56 0 1 .45 1 1zm0-3.98c0 .54-.44 1-1 1-.55 0-1-.46-1-1 0-.56.45-1 1-1 .56 0 1 .44 1 1zm0-4c0 .55-.44 1-1 1-.55 0-1-.45-1-1s.45-1 1-1c.56 0 1 .45 1 1zm0-3.98c0 .55-.44 1-1 1-.55 0-1-.45-1-1 0-.56.45-1 1-1 .56 0 1 .44 1 1zm0-4c0 .56-.44 1-1 1-.55 0-1-.44-1-1 0-.54.45-1 1-1 .56 0 1 .46 1 1zm0-3.97c0 .55-.44 1-1 1-.55 0-1-.45-1-1 0-.56.45-1 1-1 .56 0 1 .44 1 1zm0-4c0 .56-.44 1-1 1-.55 0-1-.44-1-1 0-.54.45-1 1-1 .56 0 1 .46 1 1zm0-3.98c0 .56-.44 1-1 1-.55 0-1-.44-1-1 0-.55.45-1 1-1 .56 0 1 .45 1 1zm0-3.98c0 .54-.44 1-1 1-.55 0-1-.46-1-1 0-.56.45-1 1-1 .56 0 1 .44 1 1zm0-4c0 .55-.44 1-1 1-.55 0-1-.45-1-1s.45-1 1-1c.56 0 1 .45 1 1zm0-3.98c0 .55-.44 1-1 1-.55 0-1-.45-1-1 0-.56.45-1 1-1 .56 0 1 .44 1 1zm0-4c0 .56-.44 1-1 1-.55 0-1-.44-1-1 0-.54.45-1 1-1 .56 0 1 .46 1 1zm0-3.97c0 .55-.44 1-1 1-.55 0-1-.45-1-1 0-.56.45-1 1-1 .56 0 1 .44 1 1zm0-4c0 .56-.44 1-1 1-.55 0-1-.44-1-1 0-.54.45-1 1-1 .56 0 1 .46 1 1zm0-3.98c0 .56-.44 1-1 1-.55 0-1-.44-1-1 0-.55.45-1 1-1 .56 0 1 .45 1 1zm0-3.98c0 .54-.44 1-1 1-.55 0-1-.46-1-1 0-.56.45-1 1-1 .56 0 1 .44 1 1zm0-4c0 .55-.44 1-1 1-.55 0-1-.45-1-1s.45-1 1-1c.56 0 1 .45 1 1zm0-3.98c0 .55-.44 1-1 1-.55 0-1-.45-1-1 0-.56.45-1 1-1 .56 0 1 .44 1 1zm0-4c0 .56-.44 1-1 1-.55 0-1-.44-1-1 0-.54.45-1 1-1 .56 0 1 .46 1 1zm0-3.97c0 .55-.44 1-1 1-.55 0-1-.45-1-1 0-.56.45-1 1-1 .56 0 1 .44 1 1zm0-4c0 .56-.44 1-1 1-.55 0-1-.44-1-1 0-.54.45-1 1-1 .56 0 1 .46 1 1zm0-3.98c0 .56-.44 1-1 1-.55 0-1-.44-1-1 0-.55.45-1 1-1 .56 0 1 .45 1 1zm0-3.98c0 .54-.44 1-1 1-.55 0-1-.46-1-1 0-.56.45-1 1-1 .56 0 1 .44 1 1zm0-4c0 .55-.44 1-1 1-.55 0-1-.45-1-1s.45-1 1-1c.56 0 1 .45 1 1zm0-3.98c0 .55-.44 1-1 1-.55 0-1-.45-1-1 0-.56.45-1 1-1 .56 0 1 .44 1 1zm0-4c0 .56-.44 1-1 1-.55 0-1-.44-1-1 0-.54.45-1 1-1 .56 0 1 .46 1 1zm0-3.98c0 .56-.44 1-1 1-.55 0-1-.44-1-1 0-.55.45-1 1-1 .56 0 1 .45 1 1zm0-3.98c0 .55-.44 1-1 1-.55 0-1-.45-1-1s.45-1 1-1c.56 0 1 .45 1 1zm0-4c0 .57-.44 1-1 1-.55 0-1-.43-1-1 0-.54.45-1 1-1 .56 0 1 .46 1 1zm0-3.97c0 .54-.44 1-1 1-.55 0-1-.46-1-1 0-.56.45-1 1-1 .56 0 1 .44 1 1zm0-4c0 .55-.44 1-1 1-.55 0-1-.45-1-1s.45-1 1-1c.56 0 1 .45 1 1zm0-3.98c0 .55-.44 1-1 1-.55 0-1-.45-1-1 0-.56.45-1 1-1 .56 0 1 .44 1 1zm0-4c0 .56-.44 1-1 1-.55 0-1-.44-1-1 0-.54.45-1 1-1 .56 0 1 .46 1 1zm0-3.98c0 .56-.44 1-1 1-.55 0-1-.44-1-1 0-.55.45-1 1-1 .56 0 1 .45 1 1zm0-3.98c0 .55-.44 1-1 1-.55 0-1-.45-1-1s.45-1 1-1c.56 0 1 .45 1 1zm0-4c0 .57-.44 1-1 1-.55 0-1-.43-1-1 0-.54.45-1 1-1 .56 0 1 .46 1 1zm0-3.97c0 .54-.44 1-1 1-.55 0-1-.46-1-1 0-.56.45-1 1-1 .56 0 1 .44 1 1zm0-4c0 .55-.44 1-1 1-.55 0-1-.45-1-1s.45-1 1-1c.56 0 1 .45 1 1zm0-3.98c0 .55-.44 1-1 1-.55 0-1-.45-1-1 0-.56.45-1 1-1 .56 0 1 .44 1 1zm0-4c0 .56-.44 1-1 1-.55 0-1-.44-1-1 0-.54.45-1 1-1 .56 0 1 .46 1 1zm0-3.98c0 .56-.44 1-1 1-.55 0-1-.44-1-1 0-.55.45-1 1-1 .56 0 1 .45 1 1zm0-3.98c0 .55-.44 1-1 1-.55 0-1-.45-1-1s.45-1 1-1c.56 0 1 .45 1 1zm0-4c0 .57-.44 1-1 1-.55 0-1-.43-1-1 0-.54.45-1 1-1 .56 0 1 .46 1 1zm0-3.97c0 .54-.44 1-1 1-.55 0-1-.46-1-1 0-.56.45-1 1-1 .56 0 1 .44 1 1zm0-4c0 .55-.44 1-1 1-.55 0-1-.45-1-1s.45-1 1-1c.56 0 1 .45 1 1zm0-3.98c0 .55-.44 1-1 1-.55 0-1-.45-1-1 0-.56.45-1 1-1 .56 0 1 .44 1 1zm0-4c0 .56-.44 1-1 1-.55 0-1-.44-1-1 0-.54.45-1 1-1 .56 0 1 .46 1 1zm0-3.98c0 .56-.44 1-1 1-.55 0-1-.44-1-1 0-.55.45-1 1-1 .56 0 1 .45 1 1zm0-3.98c0 .55-.44 1-1 1-.55 0-1-.45-1-1s.45-1 1-1c.56 0 1 .45 1 1zm0-4c0 .57-.44 1-1 1-.55 0-1-.43-1-1 0-.54.45-1 1-1 .56 0 1 .46 1 1zm0-3.97c0 .54-.44 1-1 1-.55 0-1-.46-1-1 0-.56.45-1 1-1 .56 0 1 .44 1 1zm0-4c0 .55-.44 1-1 1-.55 0-1-.45-1-1s.45-1 1-1c.56 0 1 .45 1 1zm0-3.98c0 .55-.44 1-1 1-.55 0-1-.45-1-1 0-.56.45-1 1-1 .56 0 1 .44 1 1zm0-4c0 .56-.44 1-1 1-.55 0-1-.44-1-1 0-.54.45-1 1-1 .56 0 1 .46 1 1zm0-3.98c0 .56-.44 1-1 1-.55 0-1-.44-1-1 0-.55.45-1 1-1 .56 0 1 .45 1 1zm0-3.98c0 .55-.44 1-1 1-.55 0-1-.45-1-1s.45-1 1-1c.56 0 1 .45 1 1zm0-4c0 .57-.44 1-1 1-.55 0-1-.43-1-1 0-.54.45-1 1-1 .56 0 1 .46 1 1zm0-3.97c0 .54-.44 1-1 1-.55 0-1-.46-1-1 0-.56.45-1 1-1 .56 0 1 .44 1 1zm0-4c0 .55-.44 1-1 1-.55 0-1-.45-1-1s.45-1 1-1c.56 0 1 .45 1 1zm0-3.98c0 .55-.44 1-1 1-.55 0-1-.45-1-1 0-.56.45-1 1-1 .56 0 1 .44 1 1zm0-4c0 .56-.44 1-1 1-.55 0-1-.44-1-1 0-.54.45-1 1-1 .56 0 1 .46 1 1zm0-3.98c0 .56-.44 1-1 1-.55 0-1-.44-1-1 0-.55.45-1 1-1 .56 0 1 .45 1 1zm0-3.98c0 .55-.44 1-1 1-.55 0-1-.45-1-1s.45-1 1-1c.56 0 1 .45 1 1zm0-4c0 .57-.44 1-1 1-.55 0-1-.43-1-1 0-.54.45-1 1-1 .56 0 1 .46 1 1zm0-3.97c0 .54-.44 1-1 1-.55 0-1-.46-1-1 0-.56.45-1 1-1 .56 0 1 .44 1 1zm0-4c0 .55-.44 1-1 1-.55 0-1-.45-1-1s.45-1 1-1c.56 0 1 .45 1 1zm0-3.98c0 .55-.44 1-1 1-.55 0-1-.45-1-1 0-.56.45-1 1-1 .56 0 1 .44 1 1zm0-4c0 .56-.44 1-1 1-.55 0-1-.44-1-1 0-.54.45-1 1-1 .56 0 1 .46 1 1zm0-3.98c0 .56-.44 1-1 1-.55 0-1-.44-1-1 0-.55.45-1 1-1 .56 0 1 .45 1 1zm0-3.98c0 .55-.44 1-1 1-.55 0-1-.45-1-1s.45-1 1-1c.56 0 1 .45 1 1zm0-4c0 .57-.44 1-1 1-.55 0-1-.43-1-1 0-.54.45-1 1-1 .56 0 1 .46 1 1zm0-3.97c0 .54-.44 1-1 1-.55 0-1-.46-1-1 0-.57.45-1 1-1 .56 0 1 .43 1 1zm0-4c0 .55-.44 1-1 1-.55 0-1-.45-1-1s.45-1 1-1c.56 0 1 .45 1 1zm0-3.98c0 .55-.44 1-1 1-.55 0-1-.45-1-1 0-.56.45-1 1-1 .56 0 1 .44 1 1zm0-4c0 .56-.44 1-1 1-.55 0-1-.44-1-1 0-.54.45-1 1-1 .56 0 1 .46 1 1zm0-3.98c0 .56-.44 1-1 1-.55 0-1-.44-1-1 0-.55.45-1 1-1 .56 0 1 .45 1 1zm0-3.98c0 .55-.44 1-1 1-.55 0-1-.45-1-1s.45-1 1-1c.56 0 1 .45 1 1zm0-4c0 .57-.44 1-1 1-.55 0-1-.43-1-1 0-.54.45-1 1-1 .56 0 1 .46 1 1zm0-3.97c0 .54-.44 1-1 1-.55 0-1-.46-1-1 0-.57.45-1 1-1 .56 0 1 .43 1 1zm0-4c0 .55-.44 1-1 1-.55 0-1-.45-1-1s.45-1 1-1c.56 0 1 .45 1 1zm0-3.98c0 .55-.44 1-1 1-.55 0-1-.45-1-1 0-.56.45-1 1-1 .56 0 1 .44 1 1zm0-4c0 .56-.44 1-1 1-.55 0-1-.44-1-1 0-.54.45-1 1-1 .56 0 1 .46 1 1zm0-3.98c0 .56-.44 1-1 1-.55 0-1-.44-1-1 0-.55.45-1 1-1 .56 0 1 .45 1 1zm0-3.98c0 .55-.44 1-1 1-.55 0-1-.45-1-1s.45-1 1-1c.56 0 1 .45 1 1zm0-4c0 .57-.44 1-1 1-.55 0-1-.43-1-1 0-.54.45-1 1-1 .56 0 1 .46 1 1zm0-3.97c0 .54-.44 1-1 1-.55 0-1-.46-1-1 0-.57.45-1 1-1 .56 0 1 .43 1 1zm0-4c0 .55-.44 1-1 1-.55 0-1-.45-1-1s.45-1 1-1c.56 0 1 .45 1 1zm0-3.98c0 .55-.44 1-1 1-.55 0-1-.45-1-1 0-.56.45-1 1-1 .56 0 1 .44 1 1zm0-4c0 .56-.44 1-1 1-.55 0-1-.44-1-1 0-.54.45-1 1-1 .56 0 1 .46 1 1zm0-3.98c0 .56-.44 1-1 1-.55 0-1-.44-1-1 0-.55.45-1 1-1 .56 0 1 .45 1 1zm0-3.98c0 .55-.44 1-1 1-.55 0-1-.45-1-1s.45-1 1-1c.56 0 1 .45 1 1zm0-4c0 .56-.44 1-1 1-.55 0-1-.44-1-1 0-.54.45-1 1-1 .56 0 1 .46 1 1zm0-3.97c0 .54-.44 1-1 1-.55 0-1-.46-1-1 0-.57.45-1 1-1 .56 0 1 .43 1 1zm0-4c0 .55-.44 1-1 1-.55 0-1-.45-1-1s.45-1 1-1c.56 0 1 .45 1 1zm0-3.98c0 .55-.44 1-1 1-.55 0-1-.45-1-1 0-.56.45-1 1-1 .56 0 1 .44 1 1zm0-4c0 .56-.44 1-1 1-.55 0-1-.44-1-1 0-.54.45-1 1-1 .56 0 1 .46 1 1zm0-3.98c0 .56-.44 1-1 1-.55 0-1-.44-1-1 0-.55.45-1 1-1 .56 0 1 .45 1 1zm0-3.98c0 .55-.44 1-1 1-.55 0-1-.45-1-1s.45-1 1-1c.56 0 1 .45 1 1zm0-4c0 .56-.44 1-1 1-.55 0-1-.44-1-1 0-.54.45-1 1-1 .56 0 1 .46 1 1zm0-3.97c0 .54-.44 1-1 1-.55 0-1-.46-1-1 0-.57.45-1 1-1 .56 0 1 .43 1 1zm0-4c0 .55-.44 1-1 1-.55 0-1-.45-1-1s.45-1 1-1c.56 0 1 .45 1 1zm0-3.98c0 .55-.44 1-1 1-.55 0-1-.45-1-1 0-.56.45-1 1-1 .56 0 1 .44 1 1zm0-4c0 .56-.44 1-1 1-.55 0-1-.44-1-1 0-.54.45-1 1-1 .56 0 1 .46 1 1zm0-3.98c0 .56-.44 1-1 1-.55 0-1-.44-1-1 0-.55.45-1 1-1 .56 0 1 .45 1 1zm0-3.98c0 .55-.44 1-1 1-.55 0-1-.45-1-1s.45-1 1-1c.56 0 1 .45 1 1zm0-4c0 .56-.44 1-1 1-.55 0-1-.44-1-1 0-.54.45-1 1-1 .56 0 1 .46 1 1zm0-3.97c0 .54-.44 1-1 1-.55 0-1-.46-1-1 0-.57.45-1 1-1 .56 0 1 .43 1 1zm0-4c0 .55-.44 1-1 1-.55 0-1-.45-1-1s.45-1 1-1c.56 0 1 .45 1 1zm0-3.98c0 .55-.44 1-1 1-.55 0-1-.45-1-1 0-.56.45-1 1-1 .56 0 1 .44 1 1zm0-4c0 .56-.44 1-1 1-.55 0-1-.44-1-1 0-.54.45-1 1-1 .56 0 1 .46 1 1zm0-3.98c0 .56-.44 1-1 1-.55 0-1-.44-1-1 0-.55.45-1 1-1 .56 0 1 .45 1 1zm0-3.98c0 .55-.44 1-1 1-.55 0-1-.45-1-1s.45-1 1-1c.56 0 1 .45 1 1zm0-4c0 .56-.44 1-1 1-.55 0-1-.44-1-1 0-.54.45-1 1-1 .56 0 1 .46 1 1zm0-3.97c0 .54-.44 1-1 1-.55 0-1-.46-1-1 0-.57.45-1 1-1 .56 0 1 .43 1 1z" fill="#333"/><path d="M-199.62 3687.3v1.03" stroke="#333" stroke-width="2" fill="none"/><path d="M-198.62 2802.53h-2v-1.03h2z" stroke="#333" stroke-width=".05" fill="#333"/><path d="M201.38 3687.33c0 .56-.44 1-1 1-.55 0-1-.44-1-1 0-.55.45-1 1-1 .56 0 1 .45 1 1zm0-3.98c0 .55-.44 1-1 1-.55 0-1-.45-1-1s.45-1 1-1c.56 0 1 .45 1 1zm0-4c0 .56-.44 1-1 1-.55 0-1-.44-1-1 0-.54.45-1 1-1 .56 0 1 .46 1 1zm0-3.97c0 .55-.44 1-1 1-.55 0-1-.45-1-1 0-.56.45-1 1-1 .56 0 1 .44 1 1zm0-4c0 .56-.44 1-1 1-.55 0-1-.44-1-1 0-.54.45-1 1-1 .56 0 1 .46 1 1zm0-3.98c0 .56-.44 1-1 1-.55 0-1-.44-1-1 0-.55.45-1 1-1 .56 0 1 .45 1 1zm0-3.98c0 .55-.44 1-1 1-.55 0-1-.45-1-1s.45-1 1-1c.56 0 1 .45 1 1zm0-4c0 .57-.44 1-1 1-.55 0-1-.43-1-1 0-.54.45-1 1-1 .56 0 1 .46 1 1zm0-3.97c0 .55-.44 1-1 1-.55 0-1-.45-1-1s.45-1 1-1c.56 0 1 .45 1 1zm0-4c0 .56-.44 1-1 1-.55 0-1-.44-1-1 0-.54.45-1 1-1 .56 0 1 .46 1 1zm0-3.97c0 .55-.44 1-1 1-.55 0-1-.45-1-1 0-.56.45-1 1-1 .56 0 1 .44 1 1zm0-4c0 .56-.44 1-1 1-.55 0-1-.44-1-1 0-.54.45-1 1-1 .56 0 1 .46 1 1zm0-3.98c0 .56-.44 1-1 1-.55 0-1-.44-1-1 0-.55.45-1 1-1 .56 0 1 .45 1 1zm0-3.98c0 .55-.44 1-1 1-.55 0-1-.45-1-1s.45-1 1-1c.56 0 1 .45 1 1zm0-4c0 .57-.44 1-1 1-.55 0-1-.43-1-1 0-.54.45-1 1-1 .56 0 1 .46 1 1zm0-3.97c0 .55-.44 1-1 1-.55 0-1-.45-1-1s.45-1 1-1c.56 0 1 .45 1 1zm0-4c0 .56-.44 1-1 1-.55 0-1-.44-1-1 0-.54.45-1 1-1 .56 0 1 .46 1 1zm0-3.97c0 .55-.44 1-1 1-.55 0-1-.45-1-1 0-.56.45-1 1-1 .56 0 1 .44 1 1zm0-4c0 .56-.44 1-1 1-.55 0-1-.44-1-1 0-.54.45-1 1-1 .56 0 1 .46 1 1zm0-3.98c0 .56-.44 1-1 1-.55 0-1-.44-1-1 0-.55.45-1 1-1 .56 0 1 .45 1 1zm0-3.98c0 .55-.44 1-1 1-.55 0-1-.45-1-1s.45-1 1-1c.56 0 1 .45 1 1zm0-4c0 .57-.44 1-1 1-.55 0-1-.43-1-1 0-.54.45-1 1-1 .56 0 1 .46 1 1zm0-3.97c0 .55-.44 1-1 1-.55 0-1-.45-1-1 0-.56.45-1 1-1 .56 0 1 .44 1 1zm0-4c0 .56-.44 1-1 1-.55 0-1-.44-1-1 0-.54.45-1 1-1 .56 0 1 .46 1 1zm0-3.97c0 .55-.44 1-1 1-.55 0-1-.45-1-1 0-.56.45-1 1-1 .56 0 1 .44 1 1zm0-4c0 .56-.44 1-1 1-.55 0-1-.44-1-1 0-.54.45-1 1-1 .56 0 1 .46 1 1zm0-3.98c0 .56-.44 1-1 1-.55 0-1-.44-1-1 0-.55.45-1 1-1 .56 0 1 .45 1 1zm0-3.98c0 .55-.44 1-1 1-.55 0-1-.45-1-1s.45-1 1-1c.56 0 1 .45 1 1zm0-4c0 .57-.44 1-1 1-.55 0-1-.43-1-1 0-.54.45-1 1-1 .56 0 1 .46 1 1zm0-3.97c0 .55-.44 1-1 1-.55 0-1-.45-1-1 0-.56.45-1 1-1 .56 0 1 .44 1 1zm0-4c0 .56-.44 1-1 1-.55 0-1-.44-1-1 0-.54.45-1 1-1 .56 0 1 .46 1 1zm0-3.97c0 .55-.44 1-1 1-.55 0-1-.45-1-1 0-.56.45-1 1-1 .56 0 1 .44 1 1zm0-4c0 .56-.44 1-1 1-.55 0-1-.44-1-1 0-.54.45-1 1-1 .56 0 1 .46 1 1zm0-3.98c0 .56-.44 1-1 1-.55 0-1-.44-1-1 0-.55.45-1 1-1 .56 0 1 .45 1 1zm0-3.98c0 .55-.44 1-1 1-.55 0-1-.45-1-1s.45-1 1-1c.56 0 1 .45 1 1zm0-4c0 .56-.44 1-1 1-.55 0-1-.44-1-1 0-.54.45-1 1-1 .56 0 1 .46 1 1zm0-3.97c0 .55-.44 1-1 1-.55 0-1-.45-1-1 0-.56.45-1 1-1 .56 0 1 .44 1 1zm0-4c0 .56-.44 1-1 1-.55 0-1-.44-1-1 0-.54.45-1 1-1 .56 0 1 .46 1 1zm0-3.97c0 .55-.44 1-1 1-.55 0-1-.45-1-1 0-.56.45-1 1-1 .56 0 1 .44 1 1zm0-4c0 .56-.44 1-1 1-.55 0-1-.44-1-1 0-.54.45-1 1-1 .56 0 1 .46 1 1zm0-3.98c0 .56-.44 1-1 1-.55 0-1-.44-1-1 0-.55.45-1 1-1 .56 0 1 .45 1 1zm0-3.98c0 .55-.44 1-1 1-.55 0-1-.45-1-1s.45-1 1-1c.56 0 1 .45 1 1zm0-4c0 .56-.44 1-1 1-.55 0-1-.44-1-1 0-.54.45-1 1-1 .56 0 1 .46 1 1zm0-3.97c0 .55-.44 1-1 1-.55 0-1-.45-1-1 0-.56.45-1 1-1 .56 0 1 .44 1 1zm0-4c0 .56-.44 1-1 1-.55 0-1-.44-1-1 0-.54.45-1 1-1 .56 0 1 .46 1 1zm0-3.97c0 .55-.44 1-1 1-.55 0-1-.45-1-1 0-.56.45-1 1-1 .56 0 1 .44 1 1zm0-4c0 .56-.44 1-1 1-.55 0-1-.44-1-1 0-.54.45-1 1-1 .56 0 1 .46 1 1zm0-3.98c0 .56-.44 1-1 1-.55 0-1-.44-1-1 0-.55.45-1 1-1 .56 0 1 .45 1 1zm0-3.98c0 .55-.44 1-1 1-.55 0-1-.45-1-1s.45-1 1-1c.56 0 1 .45 1 1zm0-4c0 .56-.44 1-1 1-.55 0-1-.44-1-1 0-.54.45-1 1-1 .56 0 1 .46 1 1zm0-3.97c0 .55-.44 1-1 1-.55 0-1-.45-1-1 0-.56.45-1 1-1 .56 0 1 .44 1 1zm0-4c0 .56-.44 1-1 1-.55 0-1-.44-1-1 0-.54.45-1 1-1 .56 0 1 .46 1 1zm0-3.97c0 .55-.44 1-1 1-.55 0-1-.45-1-1 0-.56.45-1 1-1 .56 0 1 .44 1 1zm0-4c0 .56-.44 1-1 1-.55 0-1-.44-1-1 0-.54.45-1 1-1 .56 0 1 .46 1 1zm0-3.98c0 .56-.44 1-1 1-.55 0-1-.44-1-1 0-.55.45-1 1-1 .56 0 1 .45 1 1zm0-3.98c0 .55-.44 1-1 1-.55 0-1-.45-1-1s.45-1 1-1c.56 0 1 .45 1 1zm0-4c0 .56-.44 1-1 1-.55 0-1-.44-1-1 0-.54.45-1 1-1 .56 0 1 .46 1 1zm0-3.97c0 .55-.44 1-1 1-.55 0-1-.45-1-1 0-.56.45-1 1-1 .56 0 1 .44 1 1zm0-4c0 .56-.44 1-1 1-.55 0-1-.44-1-1 0-.54.45-1 1-1 .56 0 1 .46 1 1zm0-3.98c0 .56-.44 1-1 1-.55 0-1-.44-1-1 0-.55.45-1 1-1 .56 0 1 .45 1 1zm0-3.98c0 .54-.44 1-1 1-.55 0-1-.46-1-1 0-.56.45-1 1-1 .56 0 1 .44 1 1zm0-4c0 .56-.44 1-1 1-.55 0-1-.44-1-1 0-.55.45-1 1-1 .56 0 1 .45 1 1zm0-3.98c0 .55-.44 1-1 1-.55 0-1-.45-1-1s.45-1 1-1c.56 0 1 .45 1 1zm0-4c0 .56-.44 1-1 1-.55 0-1-.44-1-1 0-.54.45-1 1-1 .56 0 1 .46 1 1zm0-3.97c0 .55-.44 1-1 1-.55 0-1-.45-1-1 0-.56.45-1 1-1 .56 0 1 .44 1 1zm0-4c0 .56-.44 1-1 1-.55 0-1-.44-1-1 0-.54.45-1 1-1 .56 0 1 .46 1 1zm0-3.98c0 .56-.44 1-1 1-.55 0-1-.44-1-1 0-.55.45-1 1-1 .56 0 1 .45 1 1zm0-3.98c0 .54-.44 1-1 1-.55 0-1-.46-1-1 0-.56.45-1 1-1 .56 0 1 .44 1 1zm0-4c0 .56-.44 1-1 1-.55 0-1-.44-1-1 0-.55.45-1 1-1 .56 0 1 .45 1 1zm0-3.98c0 .55-.44 1-1 1-.55 0-1-.45-1-1s.45-1 1-1c.56 0 1 .45 1 1zm0-4c0 .56-.44 1-1 1-.55 0-1-.44-1-1 0-.54.45-1 1-1 .56 0 1 .46 1 1zm0-3.97c0 .55-.44 1-1 1-.55 0-1-.45-1-1 0-.56.45-1 1-1 .56 0 1 .44 1 1zm0-4c0 .56-.44 1-1 1-.55 0-1-.44-1-1 0-.54.45-1 1-1 .56 0 1 .46 1 1zm0-3.98c0 .56-.44 1-1 1-.55 0-1-.44-1-1 0-.55.45-1 1-1 .56 0 1 .45 1 1zm0-3.98c0 .54-.44 1-1 1-.55 0-1-.46-1-1 0-.56.45-1 1-1 .56 0 1 .44 1 1zm0-4c0 .56-.44 1-1 1-.55 0-1-.44-1-1 0-.55.45-1 1-1 .56 0 1 .45 1 1zm0-3.98c0 .55-.44 1-1 1-.55 0-1-.45-1-1s.45-1 1-1c.56 0 1 .45 1 1zm0-4c0 .56-.44 1-1 1-.55 0-1-.44-1-1 0-.54.45-1 1-1 .56 0 1 .46 1 1zm0-3.97c0 .55-.44 1-1 1-.55 0-1-.45-1-1 0-.56.45-1 1-1 .56 0 1 .44 1 1zm0-4c0 .56-.44 1-1 1-.55 0-1-.44-1-1 0-.54.45-1 1-1 .56 0 1 .46 1 1zm0-3.98c0 .56-.44 1-1 1-.55 0-1-.44-1-1 0-.55.45-1 1-1 .56 0 1 .45 1 1zm0-3.98c0 .54-.44 1-1 1-.55 0-1-.46-1-1 0-.56.45-1 1-1 .56 0 1 .44 1 1zm0-4c0 .56-.44 1-1 1-.55 0-1-.44-1-1 0-.55.45-1 1-1 .56 0 1 .45 1 1zm0-3.98c0 .55-.44 1-1 1-.55 0-1-.45-1-1 0-.56.45-1 1-1 .56 0 1 .44 1 1zm0-4c0 .56-.44 1-1 1-.55 0-1-.44-1-1 0-.54.45-1 1-1 .56 0 1 .46 1 1zm0-3.97c0 .55-.44 1-1 1-.55 0-1-.45-1-1 0-.56.45-1 1-1 .56 0 1 .44 1 1zm0-4c0 .56-.44 1-1 1-.55 0-1-.44-1-1 0-.54.45-1 1-1 .56 0 1 .46 1 1zm0-3.98c0 .56-.44 1-1 1-.55 0-1-.44-1-1 0-.55.45-1 1-1 .56 0 1 .45 1 1zm0-3.98c0 .54-.44 1-1 1-.55 0-1-.46-1-1 0-.56.45-1 1-1 .56 0 1 .44 1 1zm0-4c0 .56-.44 1-1 1-.55 0-1-.44-1-1 0-.55.45-1 1-1 .56 0 1 .45 1 1zm0-3.98c0 .55-.44 1-1 1-.55 0-1-.45-1-1 0-.56.45-1 1-1 .56 0 1 .44 1 1zm0-4c0 .56-.44 1-1 1-.55 0-1-.44-1-1 0-.54.45-1 1-1 .56 0 1 .46 1 1zm0-3.97c0 .55-.44 1-1 1-.55 0-1-.45-1-1 0-.56.45-1 1-1 .56 0 1 .44 1 1zm0-4c0 .56-.44 1-1 1-.55 0-1-.44-1-1 0-.54.45-1 1-1 .56 0 1 .46 1 1zm0-3.98c0 .56-.44 1-1 1-.55 0-1-.44-1-1 0-.55.45-1 1-1 .56 0 1 .45 1 1zm0-3.98c0 .54-.44 1-1 1-.55 0-1-.46-1-1 0-.56.45-1 1-1 .56 0 1 .44 1 1zm0-4c0 .55-.44 1-1 1-.55 0-1-.45-1-1s.45-1 1-1c.56 0 1 .45 1 1zm0-3.98c0 .55-.44 1-1 1-.55 0-1-.45-1-1 0-.56.45-1 1-1 .56 0 1 .44 1 1zm0-4c0 .56-.44 1-1 1-.55 0-1-.44-1-1 0-.54.45-1 1-1 .56 0 1 .46 1 1zm0-3.97c0 .55-.44 1-1 1-.55 0-1-.45-1-1 0-.56.45-1 1-1 .56 0 1 .44 1 1zm0-4c0 .56-.44 1-1 1-.55 0-1-.44-1-1 0-.54.45-1 1-1 .56 0 1 .46 1 1zm0-3.98c0 .56-.44 1-1 1-.55 0-1-.44-1-1 0-.55.45-1 1-1 .56 0 1 .45 1 1zm0-3.98c0 .54-.44 1-1 1-.55 0-1-.46-1-1 0-.56.45-1 1-1 .56 0 1 .44 1 1zm0-4c0 .55-.44 1-1 1-.55 0-1-.45-1-1s.45-1 1-1c.56 0 1 .45 1 1zm0-3.98c0 .55-.44 1-1 1-.55 0-1-.45-1-1 0-.56.45-1 1-1 .56 0 1 .44 1 1zm0-4c0 .56-.44 1-1 1-.55 0-1-.44-1-1 0-.54.45-1 1-1 .56 0 1 .46 1 1zm0-3.97c0 .55-.44 1-1 1-.55 0-1-.45-1-1 0-.56.45-1 1-1 .56 0 1 .44 1 1zm0-4c0 .56-.44 1-1 1-.55 0-1-.44-1-1 0-.54.45-1 1-1 .56 0 1 .46 1 1zm0-3.98c0 .56-.44 1-1 1-.55 0-1-.44-1-1 0-.55.45-1 1-1 .56 0 1 .45 1 1zm0-3.98c0 .54-.44 1-1 1-.55 0-1-.46-1-1 0-.56.45-1 1-1 .56 0 1 .44 1 1zm0-4c0 .55-.44 1-1 1-.55 0-1-.45-1-1s.45-1 1-1c.56 0 1 .45 1 1zm0-3.98c0 .55-.44 1-1 1-.55 0-1-.45-1-1 0-.56.45-1 1-1 .56 0 1 .44 1 1zm0-4c0 .56-.44 1-1 1-.55 0-1-.44-1-1 0-.54.45-1 1-1 .56 0 1 .46 1 1zm0-3.97c0 .55-.44 1-1 1-.55 0-1-.45-1-1 0-.56.45-1 1-1 .56 0 1 .44 1 1zm0-4c0 .56-.44 1-1 1-.55 0-1-.44-1-1 0-.54.45-1 1-1 .56 0 1 .46 1 1zm0-3.98c0 .56-.44 1-1 1-.55 0-1-.44-1-1 0-.55.45-1 1-1 .56 0 1 .45 1 1zm0-3.98c0 .54-.44 1-1 1-.55 0-1-.46-1-1 0-.56.45-1 1-1 .56 0 1 .44 1 1zm0-4c0 .55-.44 1-1 1-.55 0-1-.45-1-1s.45-1 1-1c.56 0 1 .45 1 1zm0-3.98c0 .55-.44 1-1 1-.55 0-1-.45-1-1 0-.56.45-1 1-1 .56 0 1 .44 1 1zm0-4c0 .56-.44 1-1 1-.55 0-1-.44-1-1 0-.54.45-1 1-1 .56 0 1 .46 1 1zm0-3.97c0 .55-.44 1-1 1-.55 0-1-.45-1-1 0-.56.45-1 1-1 .56 0 1 .44 1 1zm0-4c0 .56-.44 1-1 1-.55 0-1-.44-1-1 0-.54.45-1 1-1 .56 0 1 .46 1 1zm0-3.98c0 .56-.44 1-1 1-.55 0-1-.44-1-1 0-.55.45-1 1-1 .56 0 1 .45 1 1zm0-3.98c0 .54-.44 1-1 1-.55 0-1-.46-1-1 0-.56.45-1 1-1 .56 0 1 .44 1 1zm0-4c0 .55-.44 1-1 1-.55 0-1-.45-1-1s.45-1 1-1c.56 0 1 .45 1 1zm0-3.98c0 .55-.44 1-1 1-.55 0-1-.45-1-1 0-.56.45-1 1-1 .56 0 1 .44 1 1zm0-4c0 .56-.44 1-1 1-.55 0-1-.44-1-1 0-.54.45-1 1-1 .56 0 1 .46 1 1zm0-3.97c0 .55-.44 1-1 1-.55 0-1-.45-1-1 0-.56.45-1 1-1 .56 0 1 .44 1 1zm0-4c0 .56-.44 1-1 1-.55 0-1-.44-1-1 0-.54.45-1 1-1 .56 0 1 .46 1 1zm0-3.98c0 .56-.44 1-1 1-.55 0-1-.44-1-1 0-.55.45-1 1-1 .56 0 1 .45 1 1zm0-3.98c0 .54-.44 1-1 1-.55 0-1-.46-1-1 0-.56.45-1 1-1 .56 0 1 .44 1 1zm0-4c0 .55-.44 1-1 1-.55 0-1-.45-1-1s.45-1 1-1c.56 0 1 .45 1 1zm0-3.98c0 .55-.44 1-1 1-.55 0-1-.45-1-1 0-.56.45-1 1-1 .56 0 1 .44 1 1zm0-4c0 .56-.44 1-1 1-.55 0-1-.44-1-1 0-.54.45-1 1-1 .56 0 1 .46 1 1zm0-3.98c0 .56-.44 1-1 1-.55 0-1-.44-1-1 0-.55.45-1 1-1 .56 0 1 .45 1 1zm0-3.98c0 .55-.44 1-1 1-.55 0-1-.45-1-1s.45-1 1-1c.56 0 1 .45 1 1zm0-4c0 .57-.44 1-1 1-.55 0-1-.43-1-1 0-.54.45-1 1-1 .56 0 1 .46 1 1zm0-3.97c0 .54-.44 1-1 1-.55 0-1-.46-1-1 0-.56.45-1 1-1 .56 0 1 .44 1 1zm0-4c0 .55-.44 1-1 1-.55 0-1-.45-1-1s.45-1 1-1c.56 0 1 .45 1 1zm0-3.98c0 .55-.44 1-1 1-.55 0-1-.45-1-1 0-.56.45-1 1-1 .56 0 1 .44 1 1zm0-4c0 .56-.44 1-1 1-.55 0-1-.44-1-1 0-.54.45-1 1-1 .56 0 1 .46 1 1zm0-3.98c0 .56-.44 1-1 1-.55 0-1-.44-1-1 0-.55.45-1 1-1 .56 0 1 .45 1 1zm0-3.98c0 .55-.44 1-1 1-.55 0-1-.45-1-1s.45-1 1-1c.56 0 1 .45 1 1zm0-4c0 .57-.44 1-1 1-.55 0-1-.43-1-1 0-.54.45-1 1-1 .56 0 1 .46 1 1zm0-3.97c0 .54-.44 1-1 1-.55 0-1-.46-1-1 0-.56.45-1 1-1 .56 0 1 .44 1 1zm0-4c0 .55-.44 1-1 1-.55 0-1-.45-1-1s.45-1 1-1c.56 0 1 .45 1 1zm0-3.98c0 .55-.44 1-1 1-.55 0-1-.45-1-1 0-.56.45-1 1-1 .56 0 1 .44 1 1zm0-4c0 .56-.44 1-1 1-.55 0-1-.44-1-1 0-.54.45-1 1-1 .56 0 1 .46 1 1zm0-3.98c0 .56-.44 1-1 1-.55 0-1-.44-1-1 0-.55.45-1 1-1 .56 0 1 .45 1 1zm0-3.98c0 .55-.44 1-1 1-.55 0-1-.45-1-1s.45-1 1-1c.56 0 1 .45 1 1zm0-4c0 .57-.44 1-1 1-.55 0-1-.43-1-1 0-.54.45-1 1-1 .56 0 1 .46 1 1zm0-3.97c0 .54-.44 1-1 1-.55 0-1-.46-1-1 0-.56.45-1 1-1 .56 0 1 .44 1 1zm0-4c0 .55-.44 1-1 1-.55 0-1-.45-1-1s.45-1 1-1c.56 0 1 .45 1 1zm0-3.98c0 .55-.44 1-1 1-.55 0-1-.45-1-1 0-.56.45-1 1-1 .56 0 1 .44 1 1zm0-4c0 .56-.44 1-1 1-.55 0-1-.44-1-1 0-.54.45-1 1-1 .56 0 1 .46 1 1zm0-3.98c0 .56-.44 1-1 1-.55 0-1-.44-1-1 0-.55.45-1 1-1 .56 0 1 .45 1 1zm0-3.98c0 .55-.44 1-1 1-.55 0-1-.45-1-1s.45-1 1-1c.56 0 1 .45 1 1zm0-4c0 .57-.44 1-1 1-.55 0-1-.43-1-1 0-.54.45-1 1-1 .56 0 1 .46 1 1zm0-3.97c0 .54-.44 1-1 1-.55 0-1-.46-1-1 0-.56.45-1 1-1 .56 0 1 .44 1 1zm0-4c0 .55-.44 1-1 1-.55 0-1-.45-1-1s.45-1 1-1c.56 0 1 .45 1 1zm0-3.98c0 .55-.44 1-1 1-.55 0-1-.45-1-1 0-.56.45-1 1-1 .56 0 1 .44 1 1zm0-4c0 .56-.44 1-1 1-.55 0-1-.44-1-1 0-.54.45-1 1-1 .56 0 1 .46 1 1zm0-3.98c0 .56-.44 1-1 1-.55 0-1-.44-1-1 0-.55.45-1 1-1 .56 0 1 .45 1 1zm0-3.98c0 .55-.44 1-1 1-.55 0-1-.45-1-1s.45-1 1-1c.56 0 1 .45 1 1zm0-4c0 .57-.44 1-1 1-.55 0-1-.43-1-1 0-.54.45-1 1-1 .56 0 1 .46 1 1zm0-3.97c0 .54-.44 1-1 1-.55 0-1-.46-1-1 0-.56.45-1 1-1 .56 0 1 .44 1 1zm0-4c0 .55-.44 1-1 1-.55 0-1-.45-1-1s.45-1 1-1c.56 0 1 .45 1 1zm0-3.98c0 .55-.44 1-1 1-.55 0-1-.45-1-1 0-.56.45-1 1-1 .56 0 1 .44 1 1zm0-4c0 .56-.44 1-1 1-.55 0-1-.44-1-1 0-.54.45-1 1-1 .56 0 1 .46 1 1zm0-3.98c0 .56-.44 1-1 1-.55 0-1-.44-1-1 0-.55.45-1 1-1 .56 0 1 .45 1 1zm0-3.98c0 .55-.44 1-1 1-.55 0-1-.45-1-1s.45-1 1-1c.56 0 1 .45 1 1zm0-4c0 .57-.44 1-1 1-.55 0-1-.43-1-1 0-.54.45-1 1-1 .56 0 1 .46 1 1zm0-3.97c0 .54-.44 1-1 1-.55 0-1-.46-1-1 0-.56.45-1 1-1 .56 0 1 .44 1 1zm0-4c0 .55-.44 1-1 1-.55 0-1-.45-1-1s.45-1 1-1c.56 0 1 .45 1 1zm0-3.98c0 .55-.44 1-1 1-.55 0-1-.45-1-1 0-.56.45-1 1-1 .56 0 1 .44 1 1zm0-4c0 .56-.44 1-1 1-.55 0-1-.44-1-1 0-.54.45-1 1-1 .56 0 1 .46 1 1zm0-3.98c0 .56-.44 1-1 1-.55 0-1-.44-1-1 0-.55.45-1 1-1 .56 0 1 .45 1 1zm0-3.98c0 .55-.44 1-1 1-.55 0-1-.45-1-1s.45-1 1-1c.56 0 1 .45 1 1zm0-4c0 .57-.44 1-1 1-.55 0-1-.43-1-1 0-.54.45-1 1-1 .56 0 1 .46 1 1zm0-3.97c0 .54-.44 1-1 1-.55 0-1-.46-1-1 0-.57.45-1 1-1 .56 0 1 .43 1 1zm0-4c0 .55-.44 1-1 1-.55 0-1-.45-1-1s.45-1 1-1c.56 0 1 .45 1 1zm0-3.98c0 .55-.44 1-1 1-.55 0-1-.45-1-1 0-.56.45-1 1-1 .56 0 1 .44 1 1zm0-4c0 .56-.44 1-1 1-.55 0-1-.44-1-1 0-.54.45-1 1-1 .56 0 1 .46 1 1zm0-3.98c0 .56-.44 1-1 1-.55 0-1-.44-1-1 0-.55.45-1 1-1 .56 0 1 .45 1 1zm0-3.98c0 .55-.44 1-1 1-.55 0-1-.45-1-1s.45-1 1-1c.56 0 1 .45 1 1zm0-4c0 .57-.44 1-1 1-.55 0-1-.43-1-1 0-.54.45-1 1-1 .56 0 1 .46 1 1zm0-3.97c0 .54-.44 1-1 1-.55 0-1-.46-1-1 0-.57.45-1 1-1 .56 0 1 .43 1 1zm0-4c0 .55-.44 1-1 1-.55 0-1-.45-1-1s.45-1 1-1c.56 0 1 .45 1 1zm0-3.98c0 .55-.44 1-1 1-.55 0-1-.45-1-1 0-.56.45-1 1-1 .56 0 1 .44 1 1zm0-4c0 .56-.44 1-1 1-.55 0-1-.44-1-1 0-.54.45-1 1-1 .56 0 1 .46 1 1zm0-3.98c0 .56-.44 1-1 1-.55 0-1-.44-1-1 0-.55.45-1 1-1 .56 0 1 .45 1 1zm0-3.98c0 .55-.44 1-1 1-.55 0-1-.45-1-1s.45-1 1-1c.56 0 1 .45 1 1zm0-4c0 .57-.44 1-1 1-.55 0-1-.43-1-1 0-.54.45-1 1-1 .56 0 1 .46 1 1zm0-3.97c0 .54-.44 1-1 1-.55 0-1-.46-1-1 0-.57.45-1 1-1 .56 0 1 .43 1 1zm0-4c0 .55-.44 1-1 1-.55 0-1-.45-1-1s.45-1 1-1c.56 0 1 .45 1 1zm0-3.98c0 .55-.44 1-1 1-.55 0-1-.45-1-1 0-.56.45-1 1-1 .56 0 1 .44 1 1zm0-4c0 .56-.44 1-1 1-.55 0-1-.44-1-1 0-.54.45-1 1-1 .56 0 1 .46 1 1zm0-3.98c0 .56-.44 1-1 1-.55 0-1-.44-1-1 0-.55.45-1 1-1 .56 0 1 .45 1 1zm0-3.98c0 .55-.44 1-1 1-.55 0-1-.45-1-1s.45-1 1-1c.56 0 1 .45 1 1zm0-4c0 .56-.44 1-1 1-.55 0-1-.44-1-1 0-.54.45-1 1-1 .56 0 1 .46 1 1zm0-3.97c0 .54-.44 1-1 1-.55 0-1-.46-1-1 0-.57.45-1 1-1 .56 0 1 .43 1 1zm0-4c0 .55-.44 1-1 1-.55 0-1-.45-1-1s.45-1 1-1c.56 0 1 .45 1 1zm0-3.98c0 .55-.44 1-1 1-.55 0-1-.45-1-1 0-.56.45-1 1-1 .56 0 1 .44 1 1zm0-4c0 .56-.44 1-1 1-.55 0-1-.44-1-1 0-.54.45-1 1-1 .56 0 1 .46 1 1zm0-3.98c0 .56-.44 1-1 1-.55 0-1-.44-1-1 0-.55.45-1 1-1 .56 0 1 .45 1 1zm0-3.98c0 .55-.44 1-1 1-.55 0-1-.45-1-1s.45-1 1-1c.56 0 1 .45 1 1zm0-4c0 .56-.44 1-1 1-.55 0-1-.44-1-1 0-.54.45-1 1-1 .56 0 1 .46 1 1zm0-3.97c0 .54-.44 1-1 1-.55 0-1-.46-1-1 0-.57.45-1 1-1 .56 0 1 .43 1 1zm0-4c0 .55-.44 1-1 1-.55 0-1-.45-1-1s.45-1 1-1c.56 0 1 .45 1 1zm0-3.98c0 .55-.44 1-1 1-.55 0-1-.45-1-1 0-.56.45-1 1-1 .56 0 1 .44 1 1zm0-4c0 .56-.44 1-1 1-.55 0-1-.44-1-1 0-.54.45-1 1-1 .56 0 1 .46 1 1zm0-3.98c0 .56-.44 1-1 1-.55 0-1-.44-1-1 0-.55.45-1 1-1 .56 0 1 .45 1 1zm0-3.98c0 .55-.44 1-1 1-.55 0-1-.45-1-1s.45-1 1-1c.56 0 1 .45 1 1zm0-4c0 .56-.44 1-1 1-.55 0-1-.44-1-1 0-.54.45-1 1-1 .56 0 1 .46 1 1zm0-3.97c0 .54-.44 1-1 1-.55 0-1-.46-1-1 0-.57.45-1 1-1 .56 0 1 .43 1 1zm0-4c0 .55-.44 1-1 1-.55 0-1-.45-1-1s.45-1 1-1c.56 0 1 .45 1 1zm0-3.98c0 .55-.44 1-1 1-.55 0-1-.45-1-1 0-.56.45-1 1-1 .56 0 1 .44 1 1zm0-4c0 .56-.44 1-1 1-.55 0-1-.44-1-1 0-.54.45-1 1-1 .56 0 1 .46 1 1zm0-3.98c0 .56-.44 1-1 1-.55 0-1-.44-1-1 0-.55.45-1 1-1 .56 0 1 .45 1 1zm0-3.98c0 .55-.44 1-1 1-.55 0-1-.45-1-1s.45-1 1-1c.56 0 1 .45 1 1zm0-4c0 .56-.44 1-1 1-.55 0-1-.44-1-1 0-.54.45-1 1-1 .56 0 1 .46 1 1zm0-3.97c0 .54-.44 1-1 1-.55 0-1-.46-1-1 0-.57.45-1 1-1 .56 0 1 .43 1 1z" fill="#333"/><path d="M200.38 3687.3v1.03" stroke="#333" stroke-width="2" fill="none"/><path d="M201.38 2802.53h-2v-1.03h2z" stroke="#333" stroke-width=".05" fill="#333"/><path d="M601.38 3687.33c0 .56-.44 1-1 1-.55 0-1-.44-1-1 0-.55.45-1 1-1 .56 0 1 .45 1 1zm0-3.98c0 .55-.44 1-1 1-.55 0-1-.45-1-1s.45-1 1-1c.56 0 1 .45 1 1zm0-4c0 .56-.44 1-1 1-.55 0-1-.44-1-1 0-.54.45-1 1-1 .56 0 1 .46 1 1zm0-3.97c0 .55-.44 1-1 1-.55 0-1-.45-1-1 0-.56.45-1 1-1 .56 0 1 .44 1 1zm0-4c0 .56-.44 1-1 1-.55 0-1-.44-1-1 0-.54.45-1 1-1 .56 0 1 .46 1 1zm0-3.98c0 .56-.44 1-1 1-.55 0-1-.44-1-1 0-.55.45-1 1-1 .56 0 1 .45 1 1zm0-3.98c0 .55-.44 1-1 1-.55 0-1-.45-1-1s.45-1 1-1c.56 0 1 .45 1 1zm0-4c0 .57-.44 1-1 1-.55 0-1-.43-1-1 0-.54.45-1 1-1 .56 0 1 .46 1 1zm0-3.97c0 .55-.44 1-1 1-.55 0-1-.45-1-1s.45-1 1-1c.56 0 1 .45 1 1zm0-4c0 .56-.44 1-1 1-.55 0-1-.44-1-1 0-.54.45-1 1-1 .56 0 1 .46 1 1zm0-3.97c0 .55-.44 1-1 1-.55 0-1-.45-1-1 0-.56.45-1 1-1 .56 0 1 .44 1 1zm0-4c0 .56-.44 1-1 1-.55 0-1-.44-1-1 0-.54.45-1 1-1 .56 0 1 .46 1 1zm0-3.98c0 .56-.44 1-1 1-.55 0-1-.44-1-1 0-.55.45-1 1-1 .56 0 1 .45 1 1zm0-3.98c0 .55-.44 1-1 1-.55 0-1-.45-1-1s.45-1 1-1c.56 0 1 .45 1 1zm0-4c0 .57-.44 1-1 1-.55 0-1-.43-1-1 0-.54.45-1 1-1 .56 0 1 .46 1 1zm0-3.97c0 .55-.44 1-1 1-.55 0-1-.45-1-1s.45-1 1-1c.56 0 1 .45 1 1zm0-4c0 .56-.44 1-1 1-.55 0-1-.44-1-1 0-.54.45-1 1-1 .56 0 1 .46 1 1zm0-3.97c0 .55-.44 1-1 1-.55 0-1-.45-1-1 0-.56.45-1 1-1 .56 0 1 .44 1 1zm0-4c0 .56-.44 1-1 1-.55 0-1-.44-1-1 0-.54.45-1 1-1 .56 0 1 .46 1 1zm0-3.98c0 .56-.44 1-1 1-.55 0-1-.44-1-1 0-.55.45-1 1-1 .56 0 1 .45 1 1zm0-3.98c0 .55-.44 1-1 1-.55 0-1-.45-1-1s.45-1 1-1c.56 0 1 .45 1 1zm0-4c0 .57-.44 1-1 1-.55 0-1-.43-1-1 0-.54.45-1 1-1 .56 0 1 .46 1 1zm0-3.97c0 .55-.44 1-1 1-.55 0-1-.45-1-1 0-.56.45-1 1-1 .56 0 1 .44 1 1zm0-4c0 .56-.44 1-1 1-.55 0-1-.44-1-1 0-.54.45-1 1-1 .56 0 1 .46 1 1zm0-3.97c0 .55-.44 1-1 1-.55 0-1-.45-1-1 0-.56.45-1 1-1 .56 0 1 .44 1 1zm0-4c0 .56-.44 1-1 1-.55 0-1-.44-1-1 0-.54.45-1 1-1 .56 0 1 .46 1 1zm0-3.98c0 .56-.44 1-1 1-.55 0-1-.44-1-1 0-.55.45-1 1-1 .56 0 1 .45 1 1zm0-3.98c0 .55-.44 1-1 1-.55 0-1-.45-1-1s.45-1 1-1c.56 0 1 .45 1 1zm0-4c0 .57-.44 1-1 1-.55 0-1-.43-1-1 0-.54.45-1 1-1 .56 0 1 .46 1 1zm0-3.97c0 .55-.44 1-1 1-.55 0-1-.45-1-1 0-.56.45-1 1-1 .56 0 1 .44 1 1zm0-4c0 .56-.44 1-1 1-.55 0-1-.44-1-1 0-.54.45-1 1-1 .56 0 1 .46 1 1zm0-3.97c0 .55-.44 1-1 1-.55 0-1-.45-1-1 0-.56.45-1 1-1 .56 0 1 .44 1 1zm0-4c0 .56-.44 1-1 1-.55 0-1-.44-1-1 0-.54.45-1 1-1 .56 0 1 .46 1 1zm0-3.98c0 .56-.44 1-1 1-.55 0-1-.44-1-1 0-.55.45-1 1-1 .56 0 1 .45 1 1zm0-3.98c0 .55-.44 1-1 1-.55 0-1-.45-1-1s.45-1 1-1c.56 0 1 .45 1 1zm0-4c0 .56-.44 1-1 1-.55 0-1-.44-1-1 0-.54.45-1 1-1 .56 0 1 .46 1 1zm0-3.97c0 .55-.44 1-1 1-.55 0-1-.45-1-1 0-.56.45-1 1-1 .56 0 1 .44 1 1zm0-4c0 .56-.44 1-1 1-.55 0-1-.44-1-1 0-.54.45-1 1-1 .56 0 1 .46 1 1zm0-3.97c0 .55-.44 1-1 1-.55 0-1-.45-1-1 0-.56.45-1 1-1 .56 0 1 .44 1 1zm0-4c0 .56-.44 1-1 1-.55 0-1-.44-1-1 0-.54.45-1 1-1 .56 0 1 .46 1 1zm0-3.98c0 .56-.44 1-1 1-.55 0-1-.44-1-1 0-.55.45-1 1-1 .56 0 1 .45 1 1zm0-3.98c0 .55-.44 1-1 1-.55 0-1-.45-1-1s.45-1 1-1c.56 0 1 .45 1 1zm0-4c0 .56-.44 1-1 1-.55 0-1-.44-1-1 0-.54.45-1 1-1 .56 0 1 .46 1 1zm0-3.97c0 .55-.44 1-1 1-.55 0-1-.45-1-1 0-.56.45-1 1-1 .56 0 1 .44 1 1zm0-4c0 .56-.44 1-1 1-.55 0-1-.44-1-1 0-.54.45-1 1-1 .56 0 1 .46 1 1zm0-3.97c0 .55-.44 1-1 1-.55 0-1-.45-1-1 0-.56.45-1 1-1 .56 0 1 .44 1 1zm0-4c0 .56-.44 1-1 1-.55 0-1-.44-1-1 0-.54.45-1 1-1 .56 0 1 .46 1 1zm0-3.98c0 .56-.44 1-1 1-.55 0-1-.44-1-1 0-.55.45-1 1-1 .56 0 1 .45 1 1zm0-3.98c0 .55-.44 1-1 1-.55 0-1-.45-1-1s.45-1 1-1c.56 0 1 .45 1 1zm0-4c0 .56-.44 1-1 1-.55 0-1-.44-1-1 0-.54.45-1 1-1 .56 0 1 .46 1 1zm0-3.97c0 .55-.44 1-1 1-.55 0-1-.45-1-1 0-.56.45-1 1-1 .56 0 1 .44 1 1zm0-4c0 .56-.44 1-1 1-.55 0-1-.44-1-1 0-.54.45-1 1-1 .56 0 1 .46 1 1zm0-3.97c0 .55-.44 1-1 1-.55 0-1-.45-1-1 0-.56.45-1 1-1 .56 0 1 .44 1 1zm0-4c0 .56-.44 1-1 1-.55 0-1-.44-1-1 0-.54.45-1 1-1 .56 0 1 .46 1 1zm0-3.98c0 .56-.44 1-1 1-.55 0-1-.44-1-1 0-.55.45-1 1-1 .56 0 1 .45 1 1zm0-3.98c0 .55-.44 1-1 1-.55 0-1-.45-1-1s.45-1 1-1c.56 0 1 .45 1 1zm0-4c0 .56-.44 1-1 1-.55 0-1-.44-1-1 0-.54.45-1 1-1 .56 0 1 .46 1 1zm0-3.97c0 .55-.44 1-1 1-.55 0-1-.45-1-1 0-.56.45-1 1-1 .56 0 1 .44 1 1zm0-4c0 .56-.44 1-1 1-.55 0-1-.44-1-1 0-.54.45-1 1-1 .56 0 1 .46 1 1zm0-3.98c0 .56-.44 1-1 1-.55 0-1-.44-1-1 0-.55.45-1 1-1 .56 0 1 .45 1 1zm0-3.98c0 .54-.44 1-1 1-.55 0-1-.46-1-1 0-.56.45-1 1-1 .56 0 1 .44 1 1zm0-4c0 .56-.44 1-1 1-.55 0-1-.44-1-1 0-.55.45-1 1-1 .56 0 1 .45 1 1zm0-3.98c0 .55-.44 1-1 1-.55 0-1-.45-1-1s.45-1 1-1c.56 0 1 .45 1 1zm0-4c0 .56-.44 1-1 1-.55 0-1-.44-1-1 0-.54.45-1 1-1 .56 0 1 .46 1 1zm0-3.97c0 .55-.44 1-1 1-.55 0-1-.45-1-1 0-.56.45-1 1-1 .56 0 1 .44 1 1zm0-4c0 .56-.44 1-1 1-.55 0-1-.44-1-1 0-.54.45-1 1-1 .56 0 1 .46 1 1zm0-3.98c0 .56-.44 1-1 1-.55 0-1-.44-1-1 0-.55.45-1 1-1 .56 0 1 .45 1 1zm0-3.98c0 .54-.44 1-1 1-.55 0-1-.46-1-1 0-.56.45-1 1-1 .56 0 1 .44 1 1zm0-4c0 .56-.44 1-1 1-.55 0-1-.44-1-1 0-.55.45-1 1-1 .56 0 1 .45 1 1zm0-3.98c0 .55-.44 1-1 1-.55 0-1-.45-1-1s.45-1 1-1c.56 0 1 .45 1 1zm0-4c0 .56-.44 1-1 1-.55 0-1-.44-1-1 0-.54.45-1 1-1 .56 0 1 .46 1 1zm0-3.97c0 .55-.44 1-1 1-.55 0-1-.45-1-1 0-.56.45-1 1-1 .56 0 1 .44 1 1zm0-4c0 .56-.44 1-1 1-.55 0-1-.44-1-1 0-.54.45-1 1-1 .56 0 1 .46 1 1zm0-3.98c0 .56-.44 1-1 1-.55 0-1-.44-1-1 0-.55.45-1 1-1 .56 0 1 .45 1 1zm0-3.98c0 .54-.44 1-1 1-.55 0-1-.46-1-1 0-.56.45-1 1-1 .56 0 1 .44 1 1zm0-4c0 .56-.44 1-1 1-.55 0-1-.44-1-1 0-.55.45-1 1-1 .56 0 1 .45 1 1zm0-3.98c0 .55-.44 1-1 1-.55 0-1-.45-1-1s.45-1 1-1c.56 0 1 .45 1 1zm0-4c0 .56-.44 1-1 1-.55 0-1-.44-1-1 0-.54.45-1 1-1 .56 0 1 .46 1 1zm0-3.97c0 .55-.44 1-1 1-.55 0-1-.45-1-1 0-.56.45-1 1-1 .56 0 1 .44 1 1zm0-4c0 .56-.44 1-1 1-.55 0-1-.44-1-1 0-.54.45-1 1-1 .56 0 1 .46 1 1zm0-3.98c0 .56-.44 1-1 1-.55 0-1-.44-1-1 0-.55.45-1 1-1 .56 0 1 .45 1 1zm0-3.98c0 .54-.44 1-1 1-.55 0-1-.46-1-1 0-.56.45-1 1-1 .56 0 1 .44 1 1zm0-4c0 .56-.44 1-1 1-.55 0-1-.44-1-1 0-.55.45-1 1-1 .56 0 1 .45 1 1zm0-3.98c0 .55-.44 1-1 1-.55 0-1-.45-1-1 0-.56.45-1 1-1 .56 0 1 .44 1 1zm0-4c0 .56-.44 1-1 1-.55 0-1-.44-1-1 0-.54.45-1 1-1 .56 0 1 .46 1 1zm0-3.97c0 .55-.44 1-1 1-.55 0-1-.45-1-1 0-.56.45-1 1-1 .56 0 1 .44 1 1zm0-4c0 .56-.44 1-1 1-.55 0-1-.44-1-1 0-.54.45-1 1-1 .56 0 1 .46 1 1zm0-3.98c0 .56-.44 1-1 1-.55 0-1-.44-1-1 0-.55.45-1 1-1 .56 0 1 .45 1 1zm0-3.98c0 .54-.44 1-1 1-.55 0-1-.46-1-1 0-.56.45-1 1-1 .56 0 1 .44 1 1zm0-4c0 .56-.44 1-1 1-.55 0-1-.44-1-1 0-.55.45-1 1-1 .56 0 1 .45 1 1zm0-3.98c0 .55-.44 1-1 1-.55 0-1-.45-1-1 0-.56.45-1 1-1 .56 0 1 .44 1 1zm0-4c0 .56-.44 1-1 1-.55 0-1-.44-1-1 0-.54.45-1 1-1 .56 0 1 .46 1 1zm0-3.97c0 .55-.44 1-1 1-.55 0-1-.45-1-1 0-.56.45-1 1-1 .56 0 1 .44 1 1zm0-4c0 .56-.44 1-1 1-.55 0-1-.44-1-1 0-.54.45-1 1-1 .56 0 1 .46 1 1zm0-3.98c0 .56-.44 1-1 1-.55 0-1-.44-1-1 0-.55.45-1 1-1 .56 0 1 .45 1 1zm0-3.98c0 .54-.44 1-1 1-.55 0-1-.46-1-1 0-.56.45-1 1-1 .56 0 1 .44 1 1zm0-4c0 .55-.44 1-1 1-.55 0-1-.45-1-1s.45-1 1-1c.56 0 1 .45 1 1zm0-3.98c0 .55-.44 1-1 1-.55 0-1-.45-1-1 0-.56.45-1 1-1 .56 0 1 .44 1 1zm0-4c0 .56-.44 1-1 1-.55 0-1-.44-1-1 0-.54.45-1 1-1 .56 0 1 .46 1 1zm0-3.97c0 .55-.44 1-1 1-.55 0-1-.45-1-1 0-.56.45-1 1-1 .56 0 1 .44 1 1zm0-4c0 .56-.44 1-1 1-.55 0-1-.44-1-1 0-.54.45-1 1-1 .56 0 1 .46 1 1zm0-3.98c0 .56-.44 1-1 1-.55 0-1-.44-1-1 0-.55.45-1 1-1 .56 0 1 .45 1 1zm0-3.98c0 .54-.44 1-1 1-.55 0-1-.46-1-1 0-.56.45-1 1-1 .56 0 1 .44 1 1zm0-4c0 .55-.44 1-1 1-.55 0-1-.45-1-1s.45-1 1-1c.56 0 1 .45 1 1zm0-3.98c0 .55-.44 1-1 1-.55 0-1-.45-1-1 0-.56.45-1 1-1 .56 0 1 .44 1 1zm0-4c0 .56-.44 1-1 1-.55 0-1-.44-1-1 0-.54.45-1 1-1 .56 0 1 .46 1 1zm0-3.97c0 .55-.44 1-1 1-.55 0-1-.45-1-1 0-.56.45-1 1-1 .56 0 1 .44 1 1zm0-4c0 .56-.44 1-1 1-.55 0-1-.44-1-1 0-.54.45-1 1-1 .56 0 1 .46 1 1zm0-3.98c0 .56-.44 1-1 1-.55 0-1-.44-1-1 0-.55.45-1 1-1 .56 0 1 .45 1 1zm0-3.98c0 .54-.44 1-1 1-.55 0-1-.46-1-1 0-.56.45-1 1-1 .56 0 1 .44 1 1zm0-4c0 .55-.44 1-1 1-.55 0-1-.45-1-1s.45-1 1-1c.56 0 1 .45 1 1zm0-3.98c0 .55-.44 1-1 1-.55 0-1-.45-1-1 0-.56.45-1 1-1 .56 0 1 .44 1 1zm0-4c0 .56-.44 1-1 1-.55 0-1-.44-1-1 0-.54.45-1 1-1 .56 0 1 .46 1 1zm0-3.97c0 .55-.44 1-1 1-.55 0-1-.45-1-1 0-.56.45-1 1-1 .56 0 1 .44 1 1zm0-4c0 .56-.44 1-1 1-.55 0-1-.44-1-1 0-.54.45-1 1-1 .56 0 1 .46 1 1zm0-3.98c0 .56-.44 1-1 1-.55 0-1-.44-1-1 0-.55.45-1 1-1 .56 0 1 .45 1 1zm0-3.98c0 .54-.44 1-1 1-.55 0-1-.46-1-1 0-.56.45-1 1-1 .56 0 1 .44 1 1zm0-4c0 .55-.44 1-1 1-.55 0-1-.45-1-1s.45-1 1-1c.56 0 1 .45 1 1zm0-3.98c0 .55-.44 1-1 1-.55 0-1-.45-1-1 0-.56.45-1 1-1 .56 0 1 .44 1 1zm0-4c0 .56-.44 1-1 1-.55 0-1-.44-1-1 0-.54.45-1 1-1 .56 0 1 .46 1 1zm0-3.97c0 .55-.44 1-1 1-.55 0-1-.45-1-1 0-.56.45-1 1-1 .56 0 1 .44 1 1zm0-4c0 .56-.44 1-1 1-.55 0-1-.44-1-1 0-.54.45-1 1-1 .56 0 1 .46 1 1zm0-3.98c0 .56-.44 1-1 1-.55 0-1-.44-1-1 0-.55.45-1 1-1 .56 0 1 .45 1 1zm0-3.98c0 .54-.44 1-1 1-.55 0-1-.46-1-1 0-.56.45-1 1-1 .56 0 1 .44 1 1zm0-4c0 .55-.44 1-1 1-.55 0-1-.45-1-1s.45-1 1-1c.56 0 1 .45 1 1zm0-3.98c0 .55-.44 1-1 1-.55 0-1-.45-1-1 0-.56.45-1 1-1 .56 0 1 .44 1 1zm0-4c0 .56-.44 1-1 1-.55 0-1-.44-1-1 0-.54.45-1 1-1 .56 0 1 .46 1 1zm0-3.97c0 .55-.44 1-1 1-.55 0-1-.45-1-1 0-.56.45-1 1-1 .56 0 1 .44 1 1zm0-4c0 .56-.44 1-1 1-.55 0-1-.44-1-1 0-.54.45-1 1-1 .56 0 1 .46 1 1zm0-3.98c0 .56-.44 1-1 1-.55 0-1-.44-1-1 0-.55.45-1 1-1 .56 0 1 .45 1 1zm0-3.98c0 .54-.44 1-1 1-.55 0-1-.46-1-1 0-.56.45-1 1-1 .56 0 1 .44 1 1zm0-4c0 .55-.44 1-1 1-.55 0-1-.45-1-1s.45-1 1-1c.56 0 1 .45 1 1zm0-3.98c0 .55-.44 1-1 1-.55 0-1-.45-1-1 0-.56.45-1 1-1 .56 0 1 .44 1 1zm0-4c0 .56-.44 1-1 1-.55 0-1-.44-1-1 0-.54.45-1 1-1 .56 0 1 .46 1 1zm0-3.98c0 .56-.44 1-1 1-.55 0-1-.44-1-1 0-.55.45-1 1-1 .56 0 1 .45 1 1zm0-3.98c0 .55-.44 1-1 1-.55 0-1-.45-1-1s.45-1 1-1c.56 0 1 .45 1 1zm0-4c0 .57-.44 1-1 1-.55 0-1-.43-1-1 0-.54.45-1 1-1 .56 0 1 .46 1 1zm0-3.97c0 .54-.44 1-1 1-.55 0-1-.46-1-1 0-.56.45-1 1-1 .56 0 1 .44 1 1zm0-4c0 .55-.44 1-1 1-.55 0-1-.45-1-1s.45-1 1-1c.56 0 1 .45 1 1zm0-3.98c0 .55-.44 1-1 1-.55 0-1-.45-1-1 0-.56.45-1 1-1 .56 0 1 .44 1 1zm0-4c0 .56-.44 1-1 1-.55 0-1-.44-1-1 0-.54.45-1 1-1 .56 0 1 .46 1 1zm0-3.98c0 .56-.44 1-1 1-.55 0-1-.44-1-1 0-.55.45-1 1-1 .56 0 1 .45 1 1zm0-3.98c0 .55-.44 1-1 1-.55 0-1-.45-1-1s.45-1 1-1c.56 0 1 .45 1 1zm0-4c0 .57-.44 1-1 1-.55 0-1-.43-1-1 0-.54.45-1 1-1 .56 0 1 .46 1 1zm0-3.97c0 .54-.44 1-1 1-.55 0-1-.46-1-1 0-.56.45-1 1-1 .56 0 1 .44 1 1zm0-4c0 .55-.44 1-1 1-.55 0-1-.45-1-1s.45-1 1-1c.56 0 1 .45 1 1zm0-3.98c0 .55-.44 1-1 1-.55 0-1-.45-1-1 0-.56.45-1 1-1 .56 0 1 .44 1 1zm0-4c0 .56-.44 1-1 1-.55 0-1-.44-1-1 0-.54.45-1 1-1 .56 0 1 .46 1 1zm0-3.98c0 .56-.44 1-1 1-.55 0-1-.44-1-1 0-.55.45-1 1-1 .56 0 1 .45 1 1zm0-3.98c0 .55-.44 1-1 1-.55 0-1-.45-1-1s.45-1 1-1c.56 0 1 .45 1 1zm0-4c0 .57-.44 1-1 1-.55 0-1-.43-1-1 0-.54.45-1 1-1 .56 0 1 .46 1 1zm0-3.97c0 .54-.44 1-1 1-.55 0-1-.46-1-1 0-.56.45-1 1-1 .56 0 1 .44 1 1zm0-4c0 .55-.44 1-1 1-.55 0-1-.45-1-1s.45-1 1-1c.56 0 1 .45 1 1zm0-3.98c0 .55-.44 1-1 1-.55 0-1-.45-1-1 0-.56.45-1 1-1 .56 0 1 .44 1 1zm0-4c0 .56-.44 1-1 1-.55 0-1-.44-1-1 0-.54.45-1 1-1 .56 0 1 .46 1 1zm0-3.98c0 .56-.44 1-1 1-.55 0-1-.44-1-1 0-.55.45-1 1-1 .56 0 1 .45 1 1zm0-3.98c0 .55-.44 1-1 1-.55 0-1-.45-1-1s.45-1 1-1c.56 0 1 .45 1 1zm0-4c0 .57-.44 1-1 1-.55 0-1-.43-1-1 0-.54.45-1 1-1 .56 0 1 .46 1 1zm0-3.97c0 .54-.44 1-1 1-.55 0-1-.46-1-1 0-.56.45-1 1-1 .56 0 1 .44 1 1zm0-4c0 .55-.44 1-1 1-.55 0-1-.45-1-1s.45-1 1-1c.56 0 1 .45 1 1zm0-3.98c0 .55-.44 1-1 1-.55 0-1-.45-1-1 0-.56.45-1 1-1 .56 0 1 .44 1 1zm0-4c0 .56-.44 1-1 1-.55 0-1-.44-1-1 0-.54.45-1 1-1 .56 0 1 .46 1 1zm0-3.98c0 .56-.44 1-1 1-.55 0-1-.44-1-1 0-.55.45-1 1-1 .56 0 1 .45 1 1zm0-3.98c0 .55-.44 1-1 1-.55 0-1-.45-1-1s.45-1 1-1c.56 0 1 .45 1 1zm0-4c0 .57-.44 1-1 1-.55 0-1-.43-1-1 0-.54.45-1 1-1 .56 0 1 .46 1 1zm0-3.97c0 .54-.44 1-1 1-.55 0-1-.46-1-1 0-.56.45-1 1-1 .56 0 1 .44 1 1zm0-4c0 .55-.44 1-1 1-.55 0-1-.45-1-1s.45-1 1-1c.56 0 1 .45 1 1zm0-3.98c0 .55-.44 1-1 1-.55 0-1-.45-1-1 0-.56.45-1 1-1 .56 0 1 .44 1 1zm0-4c0 .56-.44 1-1 1-.55 0-1-.44-1-1 0-.54.45-1 1-1 .56 0 1 .46 1 1zm0-3.98c0 .56-.44 1-1 1-.55 0-1-.44-1-1 0-.55.45-1 1-1 .56 0 1 .45 1 1zm0-3.98c0 .55-.44 1-1 1-.55 0-1-.45-1-1s.45-1 1-1c.56 0 1 .45 1 1zm0-4c0 .57-.44 1-1 1-.55 0-1-.43-1-1 0-.54.45-1 1-1 .56 0 1 .46 1 1zm0-3.97c0 .54-.44 1-1 1-.55 0-1-.46-1-1 0-.56.45-1 1-1 .56 0 1 .44 1 1zm0-4c0 .55-.44 1-1 1-.55 0-1-.45-1-1s.45-1 1-1c.56 0 1 .45 1 1zm0-3.98c0 .55-.44 1-1 1-.55 0-1-.45-1-1 0-.56.45-1 1-1 .56 0 1 .44 1 1zm0-4c0 .56-.44 1-1 1-.55 0-1-.44-1-1 0-.54.45-1 1-1 .56 0 1 .46 1 1zm0-3.98c0 .56-.44 1-1 1-.55 0-1-.44-1-1 0-.55.45-1 1-1 .56 0 1 .45 1 1zm0-3.98c0 .55-.44 1-1 1-.55 0-1-.45-1-1s.45-1 1-1c.56 0 1 .45 1 1zm0-4c0 .57-.44 1-1 1-.55 0-1-.43-1-1 0-.54.45-1 1-1 .56 0 1 .46 1 1zm0-3.97c0 .54-.44 1-1 1-.55 0-1-.46-1-1 0-.57.45-1 1-1 .56 0 1 .43 1 1zm0-4c0 .55-.44 1-1 1-.55 0-1-.45-1-1s.45-1 1-1c.56 0 1 .45 1 1zm0-3.98c0 .55-.44 1-1 1-.55 0-1-.45-1-1 0-.56.45-1 1-1 .56 0 1 .44 1 1zm0-4c0 .56-.44 1-1 1-.55 0-1-.44-1-1 0-.54.45-1 1-1 .56 0 1 .46 1 1zm0-3.98c0 .56-.44 1-1 1-.55 0-1-.44-1-1 0-.55.45-1 1-1 .56 0 1 .45 1 1zm0-3.98c0 .55-.44 1-1 1-.55 0-1-.45-1-1s.45-1 1-1c.56 0 1 .45 1 1zm0-4c0 .57-.44 1-1 1-.55 0-1-.43-1-1 0-.54.45-1 1-1 .56 0 1 .46 1 1zm0-3.97c0 .54-.44 1-1 1-.55 0-1-.46-1-1 0-.57.45-1 1-1 .56 0 1 .43 1 1zm0-4c0 .55-.44 1-1 1-.55 0-1-.45-1-1s.45-1 1-1c.56 0 1 .45 1 1zm0-3.98c0 .55-.44 1-1 1-.55 0-1-.45-1-1 0-.56.45-1 1-1 .56 0 1 .44 1 1zm0-4c0 .56-.44 1-1 1-.55 0-1-.44-1-1 0-.54.45-1 1-1 .56 0 1 .46 1 1zm0-3.98c0 .56-.44 1-1 1-.55 0-1-.44-1-1 0-.55.45-1 1-1 .56 0 1 .45 1 1zm0-3.98c0 .55-.44 1-1 1-.55 0-1-.45-1-1s.45-1 1-1c.56 0 1 .45 1 1zm0-4c0 .57-.44 1-1 1-.55 0-1-.43-1-1 0-.54.45-1 1-1 .56 0 1 .46 1 1zm0-3.97c0 .54-.44 1-1 1-.55 0-1-.46-1-1 0-.57.45-1 1-1 .56 0 1 .43 1 1zm0-4c0 .55-.44 1-1 1-.55 0-1-.45-1-1s.45-1 1-1c.56 0 1 .45 1 1zm0-3.98c0 .55-.44 1-1 1-.55 0-1-.45-1-1 0-.56.45-1 1-1 .56 0 1 .44 1 1zm0-4c0 .56-.44 1-1 1-.55 0-1-.44-1-1 0-.54.45-1 1-1 .56 0 1 .46 1 1zm0-3.98c0 .56-.44 1-1 1-.55 0-1-.44-1-1 0-.55.45-1 1-1 .56 0 1 .45 1 1zm0-3.98c0 .55-.44 1-1 1-.55 0-1-.45-1-1s.45-1 1-1c.56 0 1 .45 1 1zm0-4c0 .56-.44 1-1 1-.55 0-1-.44-1-1 0-.54.45-1 1-1 .56 0 1 .46 1 1zm0-3.97c0 .54-.44 1-1 1-.55 0-1-.46-1-1 0-.57.45-1 1-1 .56 0 1 .43 1 1zm0-4c0 .55-.44 1-1 1-.55 0-1-.45-1-1s.45-1 1-1c.56 0 1 .45 1 1zm0-3.98c0 .55-.44 1-1 1-.55 0-1-.45-1-1 0-.56.45-1 1-1 .56 0 1 .44 1 1zm0-4c0 .56-.44 1-1 1-.55 0-1-.44-1-1 0-.54.45-1 1-1 .56 0 1 .46 1 1zm0-3.98c0 .56-.44 1-1 1-.55 0-1-.44-1-1 0-.55.45-1 1-1 .56 0 1 .45 1 1zm0-3.98c0 .55-.44 1-1 1-.55 0-1-.45-1-1s.45-1 1-1c.56 0 1 .45 1 1zm0-4c0 .56-.44 1-1 1-.55 0-1-.44-1-1 0-.54.45-1 1-1 .56 0 1 .46 1 1zm0-3.97c0 .54-.44 1-1 1-.55 0-1-.46-1-1 0-.57.45-1 1-1 .56 0 1 .43 1 1zm0-4c0 .55-.44 1-1 1-.55 0-1-.45-1-1s.45-1 1-1c.56 0 1 .45 1 1zm0-3.98c0 .55-.44 1-1 1-.55 0-1-.45-1-1 0-.56.45-1 1-1 .56 0 1 .44 1 1zm0-4c0 .56-.44 1-1 1-.55 0-1-.44-1-1 0-.54.45-1 1-1 .56 0 1 .46 1 1zm0-3.98c0 .56-.44 1-1 1-.55 0-1-.44-1-1 0-.55.45-1 1-1 .56 0 1 .45 1 1zm0-3.98c0 .55-.44 1-1 1-.55 0-1-.45-1-1s.45-1 1-1c.56 0 1 .45 1 1zm0-4c0 .56-.44 1-1 1-.55 0-1-.44-1-1 0-.54.45-1 1-1 .56 0 1 .46 1 1zm0-3.97c0 .54-.44 1-1 1-.55 0-1-.46-1-1 0-.57.45-1 1-1 .56 0 1 .43 1 1zm0-4c0 .55-.44 1-1 1-.55 0-1-.45-1-1s.45-1 1-1c.56 0 1 .45 1 1zm0-3.98c0 .55-.44 1-1 1-.55 0-1-.45-1-1 0-.56.45-1 1-1 .56 0 1 .44 1 1zm0-4c0 .56-.44 1-1 1-.55 0-1-.44-1-1 0-.54.45-1 1-1 .56 0 1 .46 1 1zm0-3.98c0 .56-.44 1-1 1-.55 0-1-.44-1-1 0-.55.45-1 1-1 .56 0 1 .45 1 1zm0-3.98c0 .55-.44 1-1 1-.55 0-1-.45-1-1s.45-1 1-1c.56 0 1 .45 1 1zm0-4c0 .56-.44 1-1 1-.55 0-1-.44-1-1 0-.54.45-1 1-1 .56 0 1 .46 1 1zm0-3.97c0 .54-.44 1-1 1-.55 0-1-.46-1-1 0-.57.45-1 1-1 .56 0 1 .43 1 1z" fill="#333"/><path d="M600.38 3687.3v1.03" stroke="#333" stroke-width="2" fill="none"/><path d="M601.38 2802.53h-2v-1.03h2z" stroke="#333" stroke-width=".05" fill="#333"/><path d="M-494.62 3688.33H864.94m-1359.44 0h-5.12" stroke="#333" stroke-width="10" fill="none"/><path d="m884.2 3688.33-14.26 4.64v-9.27z" stroke="#333" stroke-width="10" fill="#333"/><path d="M-319.62 3715.17c0-3.32 2.7-6 6-6h228c3.32 0 6 2.68 6 6v51.33c0 3.3-2.68 6-6 6h-228c-3.3 0-6-2.7-6-6z" fill="none"/><use xlink:href="#a" transform="translate(-291.838 3745.444)"/><use xlink:href="#b" transform="translate(-202.208 3745.444)"/><use xlink:href="#c" transform="translate(-152.887 3745.444)"/><path d="M-499.62 2715c0-8.28 6.72-15 15-15h470c8.3 0 15 6.72 15 15v70c0 8.28-6.7 15-15 15h-470c-8.28 0-15-6.72-15-15z" stroke="#fff" stroke-width="3" fill="#141414"/><use xlink:href="#d" transform="translate(-354.14 2749.889)"/><use xlink:href="#e" transform="translate(-248.486 2749.889)"/><use xlink:href="#f" transform="translate(-287.856 2780.111)"/><use xlink:href="#g" transform="translate(-252.054 2780.111)"/><path d="M.38 2715c0-8.28 6.72-15 15-15h370c8.3 0 15 6.72 15 15v70c0 8.28-6.7 15-15 15h-370c-8.28 0-15-6.72-15-15z" stroke="#fff" stroke-width="3" fill="#141414"/><use xlink:href="#d" transform="translate(95.86 2749.889)"/><use xlink:href="#e" transform="translate(201.514 2749.889)"/><use xlink:href="#h" transform="translate(158.44 2780.111)"/><use xlink:href="#g" transform="translate(201.65 2780.111)"/><path d="M400.38 2715c0-8.28 6.72-15 15-15h370c8.3 0 15 6.72 15 15v70c0 8.28-6.7 15-15 15h-370c-8.28 0-15-6.72-15-15z" stroke="#fff" stroke-width="3" fill="#141414"/><use xlink:href="#d" transform="translate(495.86 2749.889)"/><use xlink:href="#i" transform="translate(601.514 2749.889)"/><use xlink:href="#j" transform="translate(560.94 2780.111)"/><use xlink:href="#g" transform="translate(599.15 2780.111)"/><path d="M-479.62 2959.58c0 11.5-8.95 20.84-20 20.84-11.04 0-20-9.33-20-20.84 0-11.5 8.96-20.83 20-20.83 11.05 0 20 9.33 20 20.83z" stroke="#333" stroke-width="3" fill="#333"/><path d="M80.38 3726c0-3.3 2.7-6 6-6h228c3.32 0 6 2.7 6 6v51.33c0 3.32-2.68 6-6 6h-228c-3.3 0-6-2.68-6-6z" fill="none"/><use xlink:href="#k" transform="translate(105.91 3742.778)"/><use xlink:href="#b" transform="translate(200.045 3742.778)"/><use xlink:href="#l" transform="translate(249.366 3742.778)"/><use xlink:href="#m" transform="translate(160.292 3769.444)"/><path d="M-179.28 2960.42c0 11.5-8.96 20.83-20 20.83-11.05 0-20-9.33-20-20.83 0-11.5 8.95-20.84 20-20.84 11.04 0 20 9.33 20 20.84z" stroke="#333" stroke-width="3" fill="#333"/><path d="M-477.1 2959.58h255.4" stroke="#333" stroke-width="2" fill="none"/><path d="M-477.1 2960.58h-1.12l.1-.96-.06-1.04h1.1zm256.3-.2.03.2h-.95v-2h1.15z" stroke="#333" stroke-width=".05" fill="#333"/><path d="M-176.78 2960.42H-22.5" stroke="#333" stroke-width="2" fill="none"/><path d="M-176.75 2961.42h-1.14l.12-.96-.06-1.04h1.1zm155.25-1.04.06 1.04h-1.1v-2h1.15z" stroke="#333" stroke-width=".05" fill="#333"/><path d="M20.38 3160.42c0 11.5-8.95 20.83-20 20.83-11.04 0-20-9.33-20-20.83 0-11.5 8.96-20.84 20-20.84 11.05 0 20 9.33 20 20.84zm60.52-.84c0 11.5-8.97 20.84-20 20.84-11.06 0-20-9.33-20-20.84 0-11.5 8.94-20.83 20-20.83 11.03 0 20 9.33 20 20.83zm339.48.84c0 11.5-8.95 20.83-20 20.83-11.04 0-20-9.33-20-20.83 0-11.5 8.96-20.84 20-20.84 11.05 0 20 9.33 20 20.84zm400 200c0 11.5-8.95 20.83-20 20.83-11.04 0-20-9.33-20-20.83 0-11.5 8.96-20.84 20-20.84 11.05 0 20 9.33 20 20.84zm-400 0c0 11.5-8.95 20.83-20 20.83-11.04 0-20-9.33-20-20.83 0-11.5 8.96-20.84 20-20.84 11.05 0 20 9.33 20 20.84zm200-.84c0 11.5-8.95 20.84-20 20.84-11.04 0-20-9.33-20-20.84 0-11.5 8.96-20.83 20-20.83 11.05 0 20 9.33 20 20.83z" stroke="#333" stroke-width="3" fill="#333"/><path d="M22.9 3160.42h15.54" stroke="#333" stroke-width="2" fill="none"/><path d="M22.9 3161.42h-1.1l.1-.96-.06-1.04h1.1zm16.48-1.88.12 1.88h-1.1v-2h1z" stroke="#333" stroke-width=".05" fill="#333"/><path d="M83.4 3159.58h294.57" stroke="#333" stroke-width="2" fill="none"/><path d="M83.4 3160.58h-1.1l.1-.96-.06-1.04h1.1zm295.48-.2v.2h-.93v-2h1.14z" stroke="#333" stroke-width=".05" fill="#333"/><path d="M422.9 3360.42h155.03" stroke="#333" stroke-width="2" fill="none"/><path d="M422.9 3361.42h-1.12l.1-.96-.06-1.04h1.1zm155.98-1.88.12 1.88h-1.1v-2h1z" stroke="#333" stroke-width=".05" fill="#333"/><path d="M622.9 3359.58h155.07" stroke="#333" stroke-width="2" fill="none"/><path d="M622.9 3360.58h-1.12l.1-.96-.06-1.04h1.1zm155.98-.2v.2h-.93v-2h1.14z" stroke="#333" stroke-width=".05" fill="#333"/><path d="M-787.54 3130.8c0-3.32 2.68-6 6-6h566.56c3.3 0 6 2.68 6 6v148.4c0 3.32-2.7 6-6 6h-566.56c-3.32 0-6-2.68-6-6z" fill="none"/><use xlink:href="#n" transform="translate(-787.545 3157.663)"/><use xlink:href="#o" transform="translate(-765.322 3157.663)"/><use xlink:href="#p" transform="translate(-668.038 3157.663)"/><use xlink:href="#q" transform="translate(-564.397 3157.663)"/><use xlink:href="#r" transform="translate(-765.322 3184.33)"/><use xlink:href="#s" transform="translate(-751.804 3184.33)"/><use xlink:href="#t" transform="translate(-701.495 3184.33)"/><use xlink:href="#u" transform="translate(-682.977 3184.33)"/><use xlink:href="#v" transform="translate(-628.78 3184.33)"/><use xlink:href="#w" transform="translate(-523.903 3184.33)"/><use xlink:href="#x" transform="translate(-461.001 3184.33)"/><use xlink:href="#y" transform="translate(-419.026 3184.33)"/><use xlink:href="#z" transform="translate(-394.335 3184.33)"/><use xlink:href="#A" transform="translate(-345.014 3184.33)"/><use xlink:href="#r" transform="translate(-765.322 3210.997)"/><use xlink:href="#s" transform="translate(-751.804 3210.997)"/><use xlink:href="#t" transform="translate(-701.495 3210.997)"/><use xlink:href="#B" transform="translate(-682.977 3210.997)"/><use xlink:href="#C" transform="translate(-623.841 3210.997)"/><use xlink:href="#D" transform="translate(-787.545 3237.663)"/><use xlink:href="#E" transform="translate(-765.322 3237.663)"/><use xlink:href="#F" transform="translate(-711.125 3237.663)"/><use xlink:href="#G" transform="translate(-630.878 3237.663)"/><use xlink:href="#H" transform="translate(-608.718 3237.663)"/><use xlink:href="#I" transform="translate(-787.545 3264.33)"/><use xlink:href="#J" transform="translate(-765.322 3264.33)"/><use xlink:href="#K" transform="translate(-697.545 3264.33)"/><use xlink:href="#L" transform="translate(-617.298 3264.33)"/><use xlink:href="#M" transform="translate(-600.076 3264.33)"/><use xlink:href="#N" transform="translate(-553.594 3264.33)"/><use xlink:href="#O" transform="translate(-515.384 3264.33)"/><path d="M480.38 3715.17c0-3.32 2.7-6 6-6h228c3.32 0 6 2.68 6 6v51.33c0 3.3-2.68 6-6 6h-228c-3.3 0-6-2.7-6-6z" fill="none"/><use xlink:href="#P" transform="translate(489.243 3745.444)"/><use xlink:href="#b" transform="translate(616.712 3745.444)"/><use xlink:href="#c" transform="translate(666.033 3745.444)"/><path d="M-499.62 3123.8v-140.9" stroke="#333" stroke-width="2" fill="none"/><path d="M-498.62 3124.8h-2v-1.03h2zm-1.04-142.88 1.04-.07v1.1h-2v-1.14z" stroke="#333" stroke-width=".05" fill="#333"/><path d="M-368.56 3004.13c0-3.32 2.68-6 6-6h137.28c3.3 0 6 2.68 6 6v78c0 3.3-2.7 6-6 6h-137.28c-3.32 0-6-2.7-6-6z" fill="none"/><use xlink:href="#Q" transform="translate(-339.12 3020.903)"/><use xlink:href="#R" transform="translate(-316.589 3047.57)"/><use xlink:href="#S" transform="translate(-346.002 3074.236)"/><path d="m-235.78 2997.46 21.88-19.3" stroke="#333" stroke-width="2" fill="none"/><path d="M-235.16 2998.13h-2.88l1.62-1.43zm22.01-20.63.85.58-.96.84-1.32-1.5.76-.67z" stroke="#333" stroke-width=".05" fill="#333"/><path d="M-156.83 3244.75c0-3.3 2.7-6 6-6H151.6c3.3 0 6 2.7 6 6v129.67c0 3.3-2.7 6-6 6h-302.43c-3.3 0-6-2.7-6-6z" fill="none"/><use xlink:href="#n" transform="translate(-151.827 3261.528)"/><use xlink:href="#o" transform="translate(-129.605 3261.528)"/><use xlink:href="#p" transform="translate(-32.32 3261.528)"/><use xlink:href="#T" transform="translate(71.321 3261.528)"/><use xlink:href="#D" transform="translate(-151.827 3288.194)"/><use xlink:href="#J" transform="translate(-129.605 3288.194)"/><use xlink:href="#K" transform="translate(-61.827 3288.194)"/><use xlink:href="#L" transform="translate(18.42 3288.194)"/><use xlink:href="#M" transform="translate(35.642 3288.194)"/><use xlink:href="#U" transform="translate(82.124 3288.194)"/><use xlink:href="#V" transform="translate(-129.605 3314.861)"/><use xlink:href="#I" transform="translate(-151.827 3341.528)"/><use xlink:href="#W" transform="translate(-129.605 3341.528)"/><use xlink:href="#F" transform="translate(-70.469 3341.528)"/><use xlink:href="#G" transform="translate(9.778 3341.528)"/><use xlink:href="#X" transform="translate(31.939 3341.528)"/><use xlink:href="#Y" transform="translate(73.914 3341.528)"/><use xlink:href="#Z" transform="translate(-129.605 3368.194)"/><use xlink:href="#G" transform="translate(-49.358 3368.194)"/><use xlink:href="#aa" transform="translate(-27.197 3368.194)"/><path d="M.38 3237.75v-54" stroke="#333" stroke-width="2" fill="none"/><path d="M1.38 3238.75h-2v-1.03h2zm-1.04-55.99 1.04-.07v1.08h-2v-1.14z" stroke="#333" stroke-width=".05" fill="#333"/><path d="M-100 3025.17c0-3.32 2.7-6 6-6H94c3.3 0 6 2.68 6 6v78c0 3.3-2.7 6-6 6H-94c-3.3 0-6-2.7-6-6z" fill="none"/><use xlink:href="#Q" transform="translate(-45.556 3041.944)"/><use xlink:href="#ab" transform="translate(-48.735 3068.611)"/><use xlink:href="#ac" transform="translate(-30.154 3095.278)"/><path d="M0 3018.17v-34.42" stroke="#333" stroke-width="2" fill="none"/><path d="M1 3019.17h-2v-1.03h2zm-1.04-36.41 1.04-.07v1.08h-2v-1.14z" stroke="#333" stroke-width=".05" fill="#333"/><path d="M681.7 2860.8c0-3.32 2.7-6 6-6h228c3.33 0 6 2.68 6 6v131.33c0 3.3-2.67 6-6 6h-228c-3.3 0-6-2.7-6-6z" fill="none"/><use xlink:href="#ad" transform="translate(704.953 2881.757)"/><use xlink:href="#ae" transform="translate(793.78 2881.757)"/><use xlink:href="#af" transform="translate(723.286 2908.424)"/><use xlink:href="#ag" transform="translate(770.076 2908.424)"/><use xlink:href="#ah" transform="translate(791.866 2935.09)"/><use xlink:href="#ai" transform="translate(701.249 2961.757)"/><use xlink:href="#ai" transform="translate(707.422 2961.757)"/><use xlink:href="#aj" transform="translate(804.706 2961.757)"/><use xlink:href="#ak" transform="translate(707.514 2988.424)"/><use xlink:href="#G" transform="translate(793.564 2988.424)"/><use xlink:href="#al" transform="translate(815.724 2988.424)"/><path d="M-439.62 2880h200v36.67h-200z" fill="none"/><use xlink:href="#am" transform="translate(-432.82 2904.465)"/><use xlink:href="#an" transform="translate(-369.98 2904.465)"/><use xlink:href="#ao" transform="translate(-319.486 2904.465)"/><path d="M-339.62 2917.67v40.91" stroke="#333" stroke-width="2" fill="none"/><path d="M-338.62 2917.7h-2v-1.03h2z" stroke="#333" stroke-width=".05" fill="#333"/><path d="M-339.62 2958.56v1.02" stroke="#333" stroke-width="2" fill="none"/><path d="M60 3026c0-3.3 2.7-6 6-6h126.4c3.3 0 6 2.7 6 6v78c0 3.3-2.7 6-6 6H66c-3.3 0-6-2.7-6-6z" fill="none"/><use xlink:href="#Q" transform="translate(83.944 3042.778)"/><use xlink:href="#R" transform="translate(106.475 3069.444)"/><use xlink:href="#S" transform="translate(77.062 3096.111)"/><path d="M96.1 3110.8 74.33 3141" stroke="#333" stroke-width="2" fill="none"/><path d="m96.9 3111.42-1.6-1.17.16-.25h2.47zm-21.76 30.13-.6.82-1.64-1.14.62-.85z" stroke="#333" stroke-width=".05" fill="#333"/><path d="M300.38 3025.17c0-3.32 2.7-6 6-6h188c3.32 0 6 2.68 6 6v78c0 3.3-2.68 6-6 6h-188c-3.3 0-6-2.7-6-6z" fill="none"/><use xlink:href="#Q" transform="translate(354.83 3041.944)"/><use xlink:href="#ap" transform="translate(351.65 3068.611)"/><use xlink:href="#aq" transform="translate(346.774 3095.278)"/><path d="M400.38 3110.17v26.9" stroke="#333" stroke-width="2" fill="none"/><path d="M401.38 3110.2h-2v-1.03h2zm0 28-.95-.12-1.05.07v-1.1h2z" stroke="#333" stroke-width=".05" fill="#333"/><path d="M210.38 3446c0-3.3 2.7-6 6-6h368c3.32 0 6 2.7 6 6v88c0 3.3-2.68 6-6 6h-368c-3.3 0-6-2.7-6-6z" fill="none"/><use xlink:href="#n" transform="translate(215.385 3468.403)"/><use xlink:href="#o" transform="translate(237.607 3468.403)"/><use xlink:href="#p" transform="translate(334.89 3468.403)"/><use xlink:href="#T" transform="translate(438.533 3468.403)"/><use xlink:href="#D" transform="translate(215.385 3495.07)"/><use xlink:href="#J" transform="translate(237.607 3495.07)"/><use xlink:href="#K" transform="translate(305.385 3495.07)"/><use xlink:href="#L" transform="translate(385.632 3495.07)"/><use xlink:href="#M" transform="translate(402.854 3495.07)"/><use xlink:href="#N" transform="translate(449.335 3495.07)"/><use xlink:href="#V" transform="translate(487.545 3495.07)"/><use xlink:href="#I" transform="translate(215.385 3521.736)"/><use xlink:href="#E" transform="translate(237.607 3521.736)"/><use xlink:href="#F" transform="translate(291.804 3521.736)"/><use xlink:href="#G" transform="translate(372.051 3521.736)"/><use xlink:href="#ar" transform="translate(394.212 3521.736)"/><path d="M400.38 3439v-55.25" stroke="#333" stroke-width="2" fill="none"/><path d="M401.38 3440h-2v-1.03h2zm-1.04-57.24 1.04-.07v1.08h-2v-1.14z" stroke="#333" stroke-width=".05" fill="#333"/><path d="M620.38 3406c0-3.3 2.7-6 6-6h128c3.32 0 6 2.7 6 6v78c0 3.3-2.68 6-6 6h-128c-3.3 0-6-2.7-6-6z" fill="none"/><use xlink:href="#Q" transform="translate(644.83 3422.778)"/><use xlink:href="#R" transform="translate(667.36 3449.444)"/><use xlink:href="#S" transform="translate(637.946 3476.111)"/><path d="m640.9 3399.3-23.93-23.94" stroke="#333" stroke-width="2" fill="none"/><path d="M643.02 3400h-2.82l-.02-.02 1.4-1.4zm-25.32-25.33-1.42 1.4-.76-.75.77-.7.54-.8z" stroke="#333" stroke-width=".05" fill="#333"/><path d="M700.38 3216c0-3.3 2.7-6 6-6h188c3.32 0 6 2.7 6 6v78c0 3.3-2.68 6-6 6h-188c-3.3 0-6-2.7-6-6z" fill="none"/><use xlink:href="#Q" transform="translate(754.83 3232.778)"/><use xlink:href="#ap" transform="translate(751.65 3259.444)"/><use xlink:href="#aq" transform="translate(746.774 3286.111)"/><path d="M800.38 3301v36.08" stroke="#333" stroke-width="2" fill="none"/><path d="M801.38 3301.03h-2V3300h2zm0 37.17-.95-.12-1.05.07v-1.1h2z" stroke="#333" stroke-width=".05" fill="#333"/><path d="M20 2960.42c0 11.5-8.95 20.83-20 20.83s-20-9.33-20-20.83c0-11.5 8.95-20.84 20-20.84s20 9.33 20 20.84z" stroke="#333" stroke-width="3" fill="#c92d39"/><path d="M130.38 2620h140v40h-140z" fill="none"/><use xlink:href="#W" transform="translate(150.477 2644.653)"/><use xlink:href="#as" transform="translate(209.613 2644.653)"/><path d="M200.38 2661v36.5" stroke="#333" stroke-width="2" fill="none"/><path d="M201.38 2661.03h-2V2660h2zm0 37.47h-2v-1.03h2z" stroke="#333" stroke-width=".05" fill="#333"/><defs><g id="a"><use transform="rotate(.413) scale(.06173)" xlink:href="#at"/><use transform="matrix(.06173 0 0 .06173 18.457 0)" xlink:href="#au"/><use transform="matrix(.06173 0 0 .06173 30.802 0)" xlink:href="#av"/><use transform="matrix(.06173 0 0 .06173 43.148 0)" xlink:href="#aw"/><use transform="matrix(.06173 0 0 .06173 55.494 0)" xlink:href="#ax"/><use transform="matrix(.06173 0 0 .06173 67.84 0)" xlink:href="#ay"/><use transform="matrix(.06173 0 0 .06173 77.284 0)" xlink:href="#az"/></g><g id="b"><use transform="rotate(.413) scale(.06173)" xlink:href="#aA"/><use transform="matrix(.06173 0 0 .06173 12.346 0)" xlink:href="#aB"/><use transform="matrix(.06173 0 0 .06173 24.691 0)" xlink:href="#aC"/></g><g id="c"><use transform="rotate(.413) scale(.06173)" xlink:href="#aD"/><use transform="matrix(.06173 0 0 .06173 15.988 0)" xlink:href="#aE"/><use transform="matrix(.06173 0 0 .06173 29.506 0)" xlink:href="#aF"/></g><g id="d"><use transform="rotate(.137) scale(.08642)" xlink:href="#aG"/><use transform="matrix(.06173 0 0 .06173 29.296 0)" xlink:href="#aH"/><use transform="matrix(.06173 0 0 .06173 41.642 0)" xlink:href="#aI"/><use transform="matrix(.06173 0 0 .06173 48.988 0)" xlink:href="#aJ"/><use transform="matrix(.06173 0 0 .06173 60.099 0)" xlink:href="#aK"/><use transform="matrix(.06173 0 0 .06173 66.272 0)" xlink:href="#aL"/><use transform="matrix(.06173 0 0 .06173 71.148 0)" xlink:href="#aH"/><use transform="matrix(.06173 0 0 .06173 83.494 0)" xlink:href="#aM"/></g><g id="e"><use transform="rotate(.137) scale(.08642)" xlink:href="#aN"/><use transform="matrix(.06173 0 0 .06173 20.74 0)" xlink:href="#aO"/><use transform="matrix(.06173 0 0 .06173 31.852 0)" xlink:href="#aP"/><use transform="matrix(.06173 0 0 .06173 44.198 0)" xlink:href="#aQ"/><use transform="matrix(.06173 0 0 .06173 55.309 0)" xlink:href="#aR"/><use transform="matrix(.06173 0 0 .06173 67.654 0)" xlink:href="#aS"/><use transform="matrix(.06173 0 0 .06173 73.827 0)" xlink:href="#aT"/><use transform="matrix(.06173 0 0 .06173 78.704 0)" xlink:href="#aH"/><use transform="matrix(.06173 0 0 .06173 91.05 0)" xlink:href="#aU"/></g><g id="f"><use transform="rotate(.413) scale(.06173)" xlink:href="#aV"/><use transform="matrix(.06173 0 0 .06173 12.346 0)" xlink:href="#aW"/><use transform="matrix(.06173 0 0 .06173 23.457 0)" xlink:href="#aS"/></g><g id="g"><use transform="rotate(.413) scale(.06173)" xlink:href="#aX"/><use transform="matrix(.06173 0 0 .06173 15.988 0)" xlink:href="#aR"/><use transform="matrix(.06173 0 0 .06173 28.333 0)" xlink:href="#aU"/></g><g id="h"><use transform="rotate(.413) scale(.06173)" xlink:href="#aY"/><use transform="matrix(.06173 0 0 .06173 12.346 0)" xlink:href="#aU"/><use transform="matrix(.06173 0 0 .06173 24.691 0)" xlink:href="#aZ"/></g><g id="i"><use transform="rotate(.137) scale(.08642)" xlink:href="#aN"/><use transform="matrix(.06173 0 0 .06173 20.74 0)" xlink:href="#aO"/><use transform="matrix(.06173 0 0 .06173 31.852 0)" xlink:href="#aP"/><use transform="matrix(.06173 0 0 .06173 44.198 0)" xlink:href="#aQ"/><use transform="matrix(.06173 0 0 .06173 55.309 0)" xlink:href="#aR"/><use transform="matrix(.06173 0 0 .06173 67.654 0)" xlink:href="#aS"/><use transform="matrix(.06173 0 0 .06173 73.827 0)" xlink:href="#aT"/><use transform="matrix(.06173 0 0 .06173 78.704 0)" xlink:href="#aH"/><use transform="matrix(.06173 0 0 .06173 91.05 0)" xlink:href="#aU"/></g><g id="j"><use transform="rotate(.413) scale(.06173)" xlink:href="#ba"/><use transform="matrix(.06173 0 0 .06173 12.346 0)" xlink:href="#aI"/><use transform="matrix(.06173 0 0 .06173 19.691 0)" xlink:href="#aZ"/></g><g id="k"><use transform="rotate(.413) scale(.06173)" xlink:href="#aE"/><use transform="matrix(.06173 0 0 .06173 11.852 0)" xlink:href="#bb"/><use transform="matrix(.06173 0 0 .06173 24.198 0)" xlink:href="#bc"/><use transform="matrix(.06173 0 0 .06173 36.543 0)" xlink:href="#bd"/><use transform="matrix(.06173 0 0 .06173 47.654 0)" xlink:href="#aw"/><use transform="matrix(.06173 0 0 .06173 60 0)" xlink:href="#ax"/><use transform="matrix(.06173 0 0 .06173 72.346 0)" xlink:href="#ay"/><use transform="matrix(.06173 0 0 .06173 81.79 0)" xlink:href="#az"/></g><g id="l"><use transform="rotate(.413) scale(.06173)" xlink:href="#aD"/><use transform="matrix(.06173 0 0 .06173 15.988 0)" xlink:href="#aE"/><use transform="matrix(.06173 0 0 .06173 29.506 0)" xlink:href="#aF"/></g><g id="m"><use transform="rotate(.413) scale(.06173)" xlink:href="#be"/><use transform="matrix(.06173 0 0 .06173 14.815 0)" xlink:href="#bf"/><use transform="matrix(.06173 0 0 .06173 25.926 0)" xlink:href="#bg"/><use transform="matrix(.06173 0 0 .06173 30.802 0)" xlink:href="#aB"/><use transform="matrix(.06173 0 0 .06173 43.148 0)" xlink:href="#aB"/><use transform="matrix(.06173 0 0 .06173 55.494 0)" xlink:href="#bc"/><use transform="matrix(.06173 0 0 .06173 67.84 0)" xlink:href="#aw"/></g><g id="n"><use transform="rotate(.413) scale(.06173)" xlink:href="#bh"/><use transform="matrix(.06173 0 0 .06173 12.346 0)" xlink:href="#bi"/></g><g id="o"><use transform="rotate(.413) scale(.06173)" xlink:href="#bj"/><use transform="matrix(.06173 0 0 .06173 20.926 0)" xlink:href="#au"/><use transform="matrix(.06173 0 0 .06173 33.272 0)" xlink:href="#bk"/><use transform="matrix(.06173 0 0 .06173 40.617 0)" xlink:href="#bf"/><use transform="matrix(.06173 0 0 .06173 51.728 0)" xlink:href="#bl"/><use transform="matrix(.06173 0 0 .06173 57.901 0)" xlink:href="#bm"/><use transform="matrix(.06173 0 0 .06173 62.778 0)" xlink:href="#au"/><use transform="matrix(.06173 0 0 .06173 75.123 0)" xlink:href="#bn"/></g><g id="p"><use transform="rotate(.413) scale(.06173)" xlink:href="#bo"/><use transform="matrix(.06173 0 0 .06173 14.815 0)" xlink:href="#bp"/><use transform="matrix(.06173 0 0 .06173 25.926 0)" xlink:href="#bc"/><use transform="matrix(.06173 0 0 .06173 38.272 0)" xlink:href="#bq"/><use transform="matrix(.06173 0 0 .06173 49.383 0)" xlink:href="#bb"/><use transform="matrix(.06173 0 0 .06173 61.728 0)" xlink:href="#br"/><use transform="matrix(.06173 0 0 .06173 67.901 0)" xlink:href="#bg"/><use transform="matrix(.06173 0 0 .06173 72.778 0)" xlink:href="#au"/><use transform="matrix(.06173 0 0 .06173 85.123 0)" xlink:href="#av"/></g><g id="q"><use transform="rotate(.413) scale(.06173)" xlink:href="#be"/><use transform="matrix(.06173 0 0 .06173 14.815 0)" xlink:href="#br"/><use transform="matrix(.06173 0 0 .06173 20.988 0)" xlink:href="#ax"/><use transform="matrix(.06173 0 0 .06173 33.333 0)" xlink:href="#bk"/><use transform="matrix(.06173 0 0 .06173 40.679 0)" xlink:href="#br"/><use transform="matrix(.06173 0 0 .06173 46.852 0)" xlink:href="#bc"/><use transform="matrix(.06173 0 0 .06173 59.198 0)" xlink:href="#aw"/></g><g id="s"><use transform="rotate(.413) scale(.06173)" xlink:href="#bj"/><use transform="matrix(.06173 0 0 .06173 20.74 0)" xlink:href="#bg"/><use transform="matrix(.06173 0 0 .06173 25.617 0)" xlink:href="#br"/><use transform="matrix(.06173 0 0 .06173 31.79 0)" xlink:href="#bt"/></g><g id="u"><use transform="rotate(.413) scale(.06173)" xlink:href="#aF"/><use transform="matrix(.06173 0 0 .06173 15.988 0)" xlink:href="#bk"/><use transform="matrix(.06173 0 0 .06173 23.333 0)" xlink:href="#au"/><use transform="matrix(.06173 0 0 .06173 35.679 0)" xlink:href="#av"/></g><g id="v"><use transform="rotate(.413) scale(.06173)" xlink:href="#be"/><use transform="matrix(.06173 0 0 .06173 14.815 0)" xlink:href="#bq"/><use transform="matrix(.06173 0 0 .06173 25.926 0)" xlink:href="#bt"/><use transform="matrix(.06173 0 0 .06173 38.272 0)" xlink:href="#bc"/><use transform="matrix(.06173 0 0 .06173 50.617 0)" xlink:href="#aw"/><use transform="matrix(.06173 0 0 .06173 62.963 0)" xlink:href="#bb"/><use transform="matrix(.06173 0 0 .06173 75.309 0)" xlink:href="#bm"/><use transform="matrix(.06173 0 0 .06173 80.185 0)" xlink:href="#bc"/><use transform="matrix(.06173 0 0 .06173 92.53 0)" xlink:href="#bu"/></g><g id="w"><use transform="rotate(.413) scale(.06173)" xlink:href="#bo"/><use transform="matrix(.06173 0 0 .06173 14.815 0)" xlink:href="#bv"/><use transform="matrix(.06173 0 0 .06173 25.926 0)" xlink:href="#bc"/><use transform="matrix(.06173 0 0 .06173 38.272 0)" xlink:href="#bk"/><use transform="matrix(.06173 0 0 .06173 45.617 0)" xlink:href="#ay"/></g><g id="x"><use transform="rotate(.413) scale(.06173)" xlink:href="#aw"/><use transform="matrix(.06173 0 0 .06173 12.346 0)" xlink:href="#ax"/><use transform="matrix(.06173 0 0 .06173 24.691 0)" xlink:href="#ay"/></g><g id="y"><use transform="rotate(.413) scale(.06173)" xlink:href="#ax"/><use transform="matrix(.06173 0 0 .06173 12.346 0)" xlink:href="#br"/></g><g id="z"><use transform="rotate(.413) scale(.06173)" xlink:href="#aA"/><use transform="matrix(.06173 0 0 .06173 12.346 0)" xlink:href="#aB"/><use transform="matrix(.06173 0 0 .06173 24.691 0)" xlink:href="#aC"/></g><g id="A"><use transform="rotate(.413) scale(.06173)" xlink:href="#aD"/><use transform="matrix(.06173 0 0 .06173 15.988 0)" xlink:href="#aE"/><use transform="matrix(.06173 0 0 .06173 29.506 0)" xlink:href="#aF"/></g><g id="B"><use transform="rotate(.413) scale(.06173)" xlink:href="#bw"/><use transform="matrix(.06173 0 0 .06173 15.988 0)" xlink:href="#bc"/><use transform="matrix(.06173 0 0 .06173 28.333 0)" xlink:href="#br"/><use transform="matrix(.06173 0 0 .06173 34.506 0)" xlink:href="#bk"/><use transform="matrix(.06173 0 0 .06173 41.852 0)" xlink:href="#ay"/></g><g id="C"><use transform="rotate(.413) scale(.06173)" xlink:href="#bx"/><use transform="matrix(.06173 0 0 .06173 14.815 0)" xlink:href="#au"/><use transform="matrix(.06173 0 0 .06173 27.16 0)" xlink:href="#bm"/><use transform="matrix(.06173 0 0 .06173 32.037 0)" xlink:href="#bg"/><use transform="matrix(.06173 0 0 .06173 36.914 0)" xlink:href="#bq"/><use transform="matrix(.06173 0 0 .06173 48.025 0)" xlink:href="#ay"/></g><g id="D"><use transform="rotate(.413) scale(.06173)" xlink:href="#by"/><use transform="matrix(.06173 0 0 .06173 12.346 0)" xlink:href="#bi"/></g><g id="E"><use transform="rotate(.413) scale(.06173)" xlink:href="#aF"/><use transform="matrix(.06173 0 0 .06173 15.988 0)" xlink:href="#bk"/><use transform="matrix(.06173 0 0 .06173 23.333 0)" xlink:href="#au"/><use transform="matrix(.06173 0 0 .06173 35.679 0)" xlink:href="#av"/></g><g id="F"><use transform="rotate(.413) scale(.06173)" xlink:href="#bz"/><use transform="matrix(.06173 0 0 .06173 14.815 0)" xlink:href="#ax"/><use transform="matrix(.06173 0 0 .06173 27.16 0)" xlink:href="#bq"/><use transform="matrix(.06173 0 0 .06173 38.272 0)" xlink:href="#bf"/><use transform="matrix(.06173 0 0 .06173 49.383 0)" xlink:href="#au"/><use transform="matrix(.06173 0 0 .06173 61.728 0)" xlink:href="#bl"/><use transform="matrix(.06173 0 0 .06173 67.901 0)" xlink:href="#bl"/></g><g id="G"><use transform="rotate(.413) scale(.06173)" xlink:href="#bg"/><use transform="matrix(.06173 0 0 .06173 4.877 0)" xlink:href="#bd"/></g><g id="H"><use transform="rotate(.413) scale(.06173)" xlink:href="#bd"/><use transform="matrix(.06173 0 0 .06173 11.111 0)" xlink:href="#bc"/><use transform="matrix(.06173 0 0 .06173 23.457 0)" xlink:href="#br"/></g><g id="I"><use transform="rotate(.413) scale(.06173)" xlink:href="#bA"/><use transform="matrix(.06173 0 0 .06173 12.346 0)" xlink:href="#bi"/></g><g id="J"><use transform="rotate(.413) scale(.06173)" xlink:href="#be"/><use transform="matrix(.06173 0 0 .06173 14.815 0)" xlink:href="#bg"/><use transform="matrix(.06173 0 0 .06173 19.691 0)" xlink:href="#bB"/><use transform="matrix(.06173 0 0 .06173 32.037 0)" xlink:href="#av"/><use transform="matrix(.06173 0 0 .06173 44.383 0)" xlink:href="#ax"/><use transform="matrix(.06173 0 0 .06173 56.728 0)" xlink:href="#bm"/></g><g id="K"><use transform="rotate(.413) scale(.06173)" xlink:href="#bo"/><use transform="matrix(.06173 0 0 .06173 14.815 0)" xlink:href="#bv"/><use transform="matrix(.06173 0 0 .06173 25.926 0)" xlink:href="#bc"/><use transform="matrix(.06173 0 0 .06173 38.272 0)" xlink:href="#av"/><use transform="matrix(.06173 0 0 .06173 50.617 0)" xlink:href="#br"/><use transform="matrix(.06173 0 0 .06173 56.79 0)" xlink:href="#bd"/><use transform="matrix(.06173 0 0 .06173 67.901 0)" xlink:href="#az"/></g><g id="L"><use transform="rotate(.413) scale(.06173)" xlink:href="#bg"/><use transform="matrix(.06173 0 0 .06173 4.877 0)" xlink:href="#bl"/></g><g id="M"><use transform="rotate(.413) scale(.06173)" xlink:href="#ax"/><use transform="matrix(.06173 0 0 .06173 12.346 0)" xlink:href="#av"/><use transform="matrix(.06173 0 0 .06173 24.691 0)" xlink:href="#ay"/><use transform="matrix(.06173 0 0 .06173 34.136 0)" xlink:href="#az"/></g><g id="N"><use transform="rotate(.413) scale(.06173)" xlink:href="#ax"/><use transform="matrix(.06173 0 0 .06173 12.346 0)" xlink:href="#bk"/><use transform="matrix(.06173 0 0 .06173 19.691 0)" xlink:href="#bc"/></g><g id="O"><use transform="rotate(.413) scale(.06173)" xlink:href="#bk"/><use transform="matrix(.06173 0 0 .06173 7.346 0)" xlink:href="#bc"/><use transform="matrix(.06173 0 0 .06173 19.691 0)" xlink:href="#bq"/><use transform="matrix(.06173 0 0 .06173 30.802 0)" xlink:href="#au"/><use transform="matrix(.06173 0 0 .06173 43.148 0)" xlink:href="#bk"/><use transform="matrix(.06173 0 0 .06173 50.494 0)" xlink:href="#aw"/><use transform="matrix(.06173 0 0 .06173 62.84 0)" xlink:href="#bc"/><use transform="matrix(.06173 0 0 .06173 75.185 0)" xlink:href="#aw"/></g><g id="P"><use transform="rotate(.413) scale(.06173)" xlink:href="#bj"/><use transform="matrix(.06173 0 0 .06173 20.494 0)" xlink:href="#bc"/><use transform="matrix(.06173 0 0 .06173 32.84 0)" xlink:href="#aw"/><use transform="matrix(.06173 0 0 .06173 45.185 0)" xlink:href="#av"/><use transform="matrix(.06173 0 0 .06173 57.53 0)" xlink:href="#bc"/><use transform="matrix(.06173 0 0 .06173 69.877 0)" xlink:href="#bd"/><use transform="matrix(.06173 0 0 .06173 80.988 0)" xlink:href="#aw"/><use transform="matrix(.06173 0 0 .06173 93.333 0)" xlink:href="#ax"/><use transform="matrix(.06173 0 0 .06173 105.679 0)" xlink:href="#ay"/><use transform="matrix(.06173 0 0 .06173 115.123 0)" xlink:href="#az"/></g><g id="Q"><use transform="rotate(.413) scale(.06173)" xlink:href="#bj"/><use transform="matrix(.06173 0 0 .06173 20.926 0)" xlink:href="#au"/><use transform="matrix(.06173 0 0 .06173 33.272 0)" xlink:href="#bk"/><use transform="matrix(.06173 0 0 .06173 40.617 0)" xlink:href="#bf"/><use transform="matrix(.06173 0 0 .06173 51.728 0)" xlink:href="#bl"/><use transform="matrix(.06173 0 0 .06173 57.901 0)" xlink:href="#bm"/><use transform="matrix(.06173 0 0 .06173 62.778 0)" xlink:href="#au"/><use transform="matrix(.06173 0 0 .06173 75.123 0)" xlink:href="#bn"/></g><g id="R"><use transform="rotate(.413) scale(.06173)" xlink:href="#aE"/><use transform="matrix(.06173 0 0 .06173 11.481 0)" xlink:href="#ax"/><use transform="matrix(.06173 0 0 .06173 23.827 0)" xlink:href="#bd"/><use transform="matrix(.06173 0 0 .06173 34.938 0)" xlink:href="#bf"/></g><g id="S"><use transform="rotate(.413) scale(.06173)" xlink:href="#be"/><use transform="matrix(.06173 0 0 .06173 14.815 0)" xlink:href="#bq"/><use transform="matrix(.06173 0 0 .06173 25.926 0)" xlink:href="#bt"/><use transform="matrix(.06173 0 0 .06173 38.272 0)" xlink:href="#bc"/><use transform="matrix(.06173 0 0 .06173 50.617 0)" xlink:href="#aw"/><use transform="matrix(.06173 0 0 .06173 62.963 0)" xlink:href="#bb"/><use transform="matrix(.06173 0 0 .06173 75.309 0)" xlink:href="#bm"/><use transform="matrix(.06173 0 0 .06173 80.185 0)" xlink:href="#bc"/><use transform="matrix(.06173 0 0 .06173 92.53 0)" xlink:href="#aw"/></g><g id="T"><use transform="rotate(.413) scale(.06173)" xlink:href="#be"/><use transform="matrix(.06173 0 0 .06173 14.815 0)" xlink:href="#br"/><use transform="matrix(.06173 0 0 .06173 20.988 0)" xlink:href="#ax"/><use transform="matrix(.06173 0 0 .06173 33.333 0)" xlink:href="#bk"/><use transform="matrix(.06173 0 0 .06173 40.679 0)" xlink:href="#br"/><use transform="matrix(.06173 0 0 .06173 46.852 0)" xlink:href="#bc"/><use transform="matrix(.06173 0 0 .06173 59.198 0)" xlink:href="#aw"/></g><g id="U"><use transform="rotate(.413) scale(.06173)" xlink:href="#ax"/><use transform="matrix(.06173 0 0 .06173 12.346 0)" xlink:href="#bk"/><use transform="matrix(.06173 0 0 .06173 19.691 0)" xlink:href="#bc"/></g><g id="V"><use transform="rotate(.413) scale(.06173)" xlink:href="#bk"/><use transform="matrix(.06173 0 0 .06173 7.346 0)" xlink:href="#bc"/><use transform="matrix(.06173 0 0 .06173 19.691 0)" xlink:href="#bq"/><use transform="matrix(.06173 0 0 .06173 30.802 0)" xlink:href="#au"/><use transform="matrix(.06173 0 0 .06173 43.148 0)" xlink:href="#bk"/><use transform="matrix(.06173 0 0 .06173 50.494 0)" xlink:href="#aw"/><use transform="matrix(.06173 0 0 .06173 62.84 0)" xlink:href="#bc"/><use transform="matrix(.06173 0 0 .06173 75.185 0)" xlink:href="#aw"/></g><g id="W"><use transform="rotate(.413) scale(.06173)" xlink:href="#bw"/><use transform="matrix(.06173 0 0 .06173 15.988 0)" xlink:href="#bc"/><use transform="matrix(.06173 0 0 .06173 28.333 0)" xlink:href="#br"/><use transform="matrix(.06173 0 0 .06173 34.506 0)" xlink:href="#bk"/><use transform="matrix(.06173 0 0 .06173 41.852 0)" xlink:href="#ay"/></g><g id="X"><use transform="rotate(.413) scale(.06173)" xlink:href="#bd"/><use transform="matrix(.06173 0 0 .06173 11.111 0)" xlink:href="#bc"/><use transform="matrix(.06173 0 0 .06173 23.457 0)" xlink:href="#br"/><use transform="matrix(.06173 0 0 .06173 29.63 0)" xlink:href="#az"/></g><g id="Y"><use transform="rotate(.413) scale(.06173)" xlink:href="#aF"/><use transform="matrix(.06173 0 0 .06173 15.988 0)" xlink:href="#bk"/><use transform="matrix(.06173 0 0 .06173 23.333 0)" xlink:href="#au"/><use transform="matrix(.06173 0 0 .06173 35.679 0)" xlink:href="#av"/></g><g id="Z"><use transform="rotate(.413) scale(.06173)" xlink:href="#bz"/><use transform="matrix(.06173 0 0 .06173 14.815 0)" xlink:href="#ax"/><use transform="matrix(.06173 0 0 .06173 27.16 0)" xlink:href="#bq"/><use transform="matrix(.06173 0 0 .06173 38.272 0)" xlink:href="#bf"/><use transform="matrix(.06173 0 0 .06173 49.383 0)" xlink:href="#au"/><use transform="matrix(.06173 0 0 .06173 61.728 0)" xlink:href="#bl"/><use transform="matrix(.06173 0 0 .06173 67.901 0)" xlink:href="#bl"/></g><g id="aa"><use transform="rotate(.413) scale(.06173)" xlink:href="#bg"/><use transform="matrix(.06173 0 0 .06173 4.877 0)" xlink:href="#bB"/><use transform="matrix(.06173 0 0 .06173 17.222 0)" xlink:href="#av"/><use transform="matrix(.06173 0 0 .06173 29.568 0)" xlink:href="#au"/><use transform="matrix(.06173 0 0 .06173 41.914 0)" xlink:href="#bk"/><use transform="matrix(.06173 0 0 .06173 49.26 0)" xlink:href="#bc"/><use transform="matrix(.06173 0 0 .06173 61.605 0)" xlink:href="#aw"/></g><g id="ab"><use transform="rotate(.413) scale(.06173)" xlink:href="#bo"/><use transform="matrix(.06173 0 0 .06173 14.815 0)" xlink:href="#bp"/><use transform="matrix(.06173 0 0 .06173 25.926 0)" xlink:href="#bc"/><use transform="matrix(.06173 0 0 .06173 38.272 0)" xlink:href="#bq"/><use transform="matrix(.06173 0 0 .06173 49.383 0)" xlink:href="#bb"/><use transform="matrix(.06173 0 0 .06173 61.728 0)" xlink:href="#br"/><use transform="matrix(.06173 0 0 .06173 67.901 0)" xlink:href="#bg"/><use transform="matrix(.06173 0 0 .06173 72.778 0)" xlink:href="#au"/><use transform="matrix(.06173 0 0 .06173 85.123 0)" xlink:href="#av"/></g><g id="ac"><use transform="rotate(.413) scale(.06173)" xlink:href="#bC"/><use transform="matrix(.06173 0 0 .06173 13.519 0)" xlink:href="#ax"/><use transform="matrix(.06173 0 0 .06173 25.864 0)" xlink:href="#bg"/><use transform="matrix(.06173 0 0 .06173 30.74 0)" xlink:href="#bm"/><use transform="matrix(.06173 0 0 .06173 35.617 0)" xlink:href="#bc"/><use transform="matrix(.06173 0 0 .06173 47.963 0)" xlink:href="#aw"/></g><g id="ad"><use transform="rotate(.413) scale(.06173)" xlink:href="#bw"/><use transform="matrix(.06173 0 0 .06173 15.988 0)" xlink:href="#bc"/><use transform="matrix(.06173 0 0 .06173 28.333 0)" xlink:href="#aB"/><use transform="matrix(.06173 0 0 .06173 40.679 0)" xlink:href="#bc"/><use transform="matrix(.06173 0 0 .06173 53.025 0)" xlink:href="#ax"/><use transform="matrix(.06173 0 0 .06173 65.37 0)" xlink:href="#br"/><use transform="matrix(.06173 0 0 .06173 71.543 0)" xlink:href="#bd"/></g><g id="ae"><use transform="rotate(.413) scale(.06173)" xlink:href="#bg"/><use transform="matrix(.06173 0 0 .06173 4.877 0)" xlink:href="#av"/><use transform="matrix(.06173 0 0 .06173 17.222 0)" xlink:href="#aw"/><use transform="matrix(.06173 0 0 .06173 29.568 0)" xlink:href="#bc"/><use transform="matrix(.06173 0 0 .06173 41.914 0)" xlink:href="#bl"/><use transform="matrix(.06173 0 0 .06173 48.086 0)" xlink:href="#bg"/><use transform="matrix(.06173 0 0 .06173 52.963 0)" xlink:href="#av"/><use transform="matrix(.06173 0 0 .06173 65.309 0)" xlink:href="#bg"/><use transform="matrix(.06173 0 0 .06173 70.185 0)" xlink:href="#br"/><use transform="matrix(.06173 0 0 .06173 76.358 0)" xlink:href="#bc"/><use transform="matrix(.06173 0 0 .06173 88.704 0)" xlink:href="#bm"/><use transform="matrix(.06173 0 0 .06173 93.58 0)" xlink:href="#ay"/></g><g id="af"><use transform="rotate(.413) scale(.06173)" xlink:href="#bb"/><use transform="matrix(.06173 0 0 .06173 12.346 0)" xlink:href="#av"/><use transform="matrix(.06173 0 0 .06173 24.691 0)" xlink:href="#br"/><use transform="matrix(.06173 0 0 .06173 30.864 0)" xlink:href="#bg"/><use transform="matrix(.06173 0 0 .06173 35.74 0)" xlink:href="#bm"/></g><g id="ag"><use transform="rotate(.413) scale(.06173)" xlink:href="#aE"/><use transform="matrix(.06173 0 0 .06173 11.481 0)" xlink:href="#bc"/><use transform="matrix(.06173 0 0 .06173 23.827 0)" xlink:href="#bk"/><use transform="matrix(.06173 0 0 .06173 31.173 0)" xlink:href="#aC"/><use transform="matrix(.06173 0 0 .06173 49.63 0)" xlink:href="#bg"/><use transform="matrix(.06173 0 0 .06173 54.506 0)" xlink:href="#av"/><use transform="matrix(.06173 0 0 .06173 66.852 0)" xlink:href="#ax"/><use transform="matrix(.06173 0 0 .06173 79.198 0)" xlink:href="#br"/><use transform="matrix(.06173 0 0 .06173 85.37 0)" xlink:href="#bc"/><use transform="matrix(.06173 0 0 .06173 97.716 0)" xlink:href="#aw"/></g><g id="ah"><use transform="rotate(.413) scale(.06173)" xlink:href="#au"/><use transform="matrix(.06173 0 0 .06173 12.346 0)" xlink:href="#bk"/></g><g id="ai"><use transform="rotate(.413) scale(.06173)" xlink:href="#bj"/><use transform="matrix(.06173 0 0 .06173 20.926 0)" xlink:href="#au"/><use transform="matrix(.06173 0 0 .06173 33.272 0)" xlink:href="#bk"/><use transform="matrix(.06173 0 0 .06173 40.617 0)" xlink:href="#bf"/><use transform="matrix(.06173 0 0 .06173 51.728 0)" xlink:href="#bl"/><use transform="matrix(.06173 0 0 .06173 57.901 0)" xlink:href="#bm"/><use transform="matrix(.06173 0 0 .06173 62.778 0)" xlink:href="#au"/><use transform="matrix(.06173 0 0 .06173 75.123 0)" xlink:href="#bn"/></g><g id="aj"><use transform="rotate(.413) scale(.06173)" xlink:href="#bo"/><use transform="matrix(.06173 0 0 .06173 14.815 0)" xlink:href="#bp"/><use transform="matrix(.06173 0 0 .06173 25.926 0)" xlink:href="#bc"/><use transform="matrix(.06173 0 0 .06173 38.272 0)" xlink:href="#bq"/><use transform="matrix(.06173 0 0 .06173 49.383 0)" xlink:href="#bb"/><use transform="matrix(.06173 0 0 .06173 61.728 0)" xlink:href="#br"/><use transform="matrix(.06173 0 0 .06173 67.901 0)" xlink:href="#bg"/><use transform="matrix(.06173 0 0 .06173 72.778 0)" xlink:href="#au"/><use transform="matrix(.06173 0 0 .06173 85.123 0)" xlink:href="#av"/></g><g id="ak"><use transform="rotate(.413) scale(.06173)" xlink:href="#aE"/><use transform="matrix(.06173 0 0 .06173 13.333 0)" xlink:href="#bg"/><use transform="matrix(.06173 0 0 .06173 18.21 0)" xlink:href="#aC"/><use transform="matrix(.06173 0 0 .06173 36.667 0)" xlink:href="#bc"/><use transform="matrix(.06173 0 0 .06173 49.012 0)" xlink:href="#au"/><use transform="matrix(.06173 0 0 .06173 61.358 0)" xlink:href="#bb"/><use transform="matrix(.06173 0 0 .06173 73.704 0)" xlink:href="#br"/></g><g id="al"><use transform="rotate(.413) scale(.06173)" xlink:href="#bk"/><use transform="matrix(.06173 0 0 .06173 7.346 0)" xlink:href="#bc"/><use transform="matrix(.06173 0 0 .06173 19.691 0)" xlink:href="#ax"/><use transform="matrix(.06173 0 0 .06173 32.037 0)" xlink:href="#bq"/><use transform="matrix(.06173 0 0 .06173 43.148 0)" xlink:href="#bt"/><use transform="matrix(.06173 0 0 .06173 55.494 0)" xlink:href="#bc"/><use transform="matrix(.06173 0 0 .06173 67.84 0)" xlink:href="#aw"/></g><g id="am"><use transform="rotate(.413) scale(.06173)" xlink:href="#bD"/><use transform="matrix(.06173 0 0 .06173 15.988 0)" xlink:href="#bc"/><use transform="matrix(.06173 0 0 .06173 28.333 0)" xlink:href="#bm"/><use transform="matrix(.06173 0 0 .06173 33.21 0)" xlink:href="#ax"/><use transform="matrix(.06173 0 0 .06173 45.556 0)" xlink:href="#ay"/></g><g id="an"><use transform="rotate(.413) scale(.06173)" xlink:href="#bl"/><use transform="matrix(.06173 0 0 .06173 6.173 0)" xlink:href="#bk"/><use transform="matrix(.06173 0 0 .06173 13.519 0)" xlink:href="#au"/><use transform="matrix(.06173 0 0 .06173 25.864 0)" xlink:href="#aC"/></g><g id="ao"><use transform="rotate(.413) scale(.06173)" xlink:href="#bz"/><use transform="matrix(.06173 0 0 .06173 14.815 0)" xlink:href="#ax"/><use transform="matrix(.06173 0 0 .06173 27.16 0)" xlink:href="#bq"/><use transform="matrix(.06173 0 0 .06173 38.272 0)" xlink:href="#bf"/><use transform="matrix(.06173 0 0 .06173 49.383 0)" xlink:href="#au"/><use transform="matrix(.06173 0 0 .06173 61.728 0)" xlink:href="#bl"/><use transform="matrix(.06173 0 0 .06173 67.901 0)" xlink:href="#bl"/></g><g id="ap"><use transform="rotate(.413) scale(.06173)" xlink:href="#bo"/><use transform="matrix(.06173 0 0 .06173 14.815 0)" xlink:href="#bp"/><use transform="matrix(.06173 0 0 .06173 25.926 0)" xlink:href="#bc"/><use transform="matrix(.06173 0 0 .06173 38.272 0)" xlink:href="#bq"/><use transform="matrix(.06173 0 0 .06173 49.383 0)" xlink:href="#bb"/><use transform="matrix(.06173 0 0 .06173 61.728 0)" xlink:href="#br"/><use transform="matrix(.06173 0 0 .06173 67.901 0)" xlink:href="#bg"/><use transform="matrix(.06173 0 0 .06173 72.778 0)" xlink:href="#au"/><use transform="matrix(.06173 0 0 .06173 85.123 0)" xlink:href="#av"/></g><g id="aq"><use transform="rotate(.413) scale(.06173)" xlink:href="#aF"/><use transform="matrix(.06173 0 0 .06173 15.988 0)" xlink:href="#au"/><use transform="matrix(.06173 0 0 .06173 28.333 0)" xlink:href="#aC"/><use transform="matrix(.06173 0 0 .06173 46.79 0)" xlink:href="#aB"/><use transform="matrix(.06173 0 0 .06173 59.136 0)" xlink:href="#bm"/><use transform="matrix(.06173 0 0 .06173 64.012 0)" xlink:href="#bc"/><use transform="matrix(.06173 0 0 .06173 76.358 0)" xlink:href="#br"/><use transform="matrix(.06173 0 0 .06173 82.53 0)" xlink:href="#bc"/><use transform="matrix(.06173 0 0 .06173 94.877 0)" xlink:href="#aw"/></g><g id="ar"><use transform="rotate(.413) scale(.06173)" xlink:href="#bd"/><use transform="matrix(.06173 0 0 .06173 11.111 0)" xlink:href="#bc"/><use transform="matrix(.06173 0 0 .06173 23.457 0)" xlink:href="#br"/></g><g id="as"><use transform="rotate(.413) scale(.06173)" xlink:href="#bw"/><use transform="matrix(.06173 0 0 .06173 15.988 0)" xlink:href="#bb"/><use transform="matrix(.06173 0 0 .06173 28.333 0)" xlink:href="#av"/></g><path fill="#333" d="m222 0 43-216c-8 16-17 34-26 49L143 0h-22L81-216 41 0H11l48-248h42l38 208 116-208h45L252 0h-30" id="at"/><path fill="#333" d="M30-147c31-64 166-65 159 27C183-49 158 1 86 4 9 8 1-88 30-147zM88-20c53 0 68-48 68-100 0-31-11-51-44-50-52 1-68 46-68 97 0 32 13 53 44 53" id="au"/><path fill="#333" d="M67-158c22-48 132-52 116 29L158 0h-32l25-140c3-38-53-32-70-12C52-117 51-52 38 0H6l36-190h30" id="av"/><path fill="#333" d="M133-28C103 26-5 8 13-77c13-62 24-115 90-117 29-1 46 15 56 35l19-102h32L160 0h-30zM45-64c-2 27 10 43 35 43 54-1 69-50 69-103 0-29-15-46-42-46-53-1-58 58-62 106" id="aw"/><path fill="#333" d="M165-48c-4 18 1 34 23 27l-3 20c-29 8-62 0-52-35h-2C116-14 99 4 63 4 30 4 8-16 8-49c0-68 71-67 138-67 10-26 0-56-31-54-26 1-42 9-47 31l-32-5c8-67 160-71 144 15-5 28-9 54-15 81zM42-50c3 52 80 24 89-6 7-12 7-24 11-38-47 1-103-4-100 44" id="ax"/><path fill="#333" d="M198-190 69 30C53 58 25 83-20 72c4-11-1-27 19-22 33-1 43-29 59-52L20-190h32L79-34l84-156h35" id="ay"/><path fill="#333" d="M58-38C53-5 46 26 28 46H7C19 32 27 18 32 0H17l7-38h34" id="az"/><path fill="#333" d="M149-56 138 0h-32l11-56H2l5-25 144-167h35L154-81h33l-5 25h-33zm-4-147L40-81h82" id="aA"/><path fill="#333" d="M67-162c32-53 139-36 121 50C175-51 163 2 97 4 68 4 52-11 42-31 38 6 28 39 22 75H-9l50-265h29c-1 10 0 20-3 28zm89 36c0-26-10-43-35-43-54 0-67 50-69 103-1 29 14 45 42 46 53 0 62-58 62-106" id="aB"/><path fill="#333" d="M248-111c6-24 9-61-24-58-72 9-57 108-77 169h-31l26-142c3-37-50-30-64-10C52-115 50-51 37 0H6l36-190h30c-1 10-6 24-4 32 13-43 101-52 105 5 13-22 29-41 61-41 90 0 28 129 23 194h-31" id="aC"/><path fill="#333" d="M62-99C39-31 123 0 170-40s38-139 58-208h34C234-144 253 4 115 4 49 4 18-43 31-112l26-136h34" id="aD"/><path fill="#333" d="M151-220 108 0H75l42-220H32l6-28h203l-5 28h-85" id="aE"/><path fill="#333" d="M125-24c46 0 70-25 89-51l25 16C214-24 183 4 123 4 8 4-5-146 60-208c32-50 158-61 191-5 5 7 9 14 11 22l-32 10c-9-28-33-43-69-43-74 0-108 51-108 125 0 46 24 75 72 75" id="aF"/><path fill="#fff" d="M266 0h-40l-56-210L115 0H75L2-248h35L96-30l15-64 43-154h32l59 218 59-218h35" id="aG"/><path fill="#fff" d="M100-194c62-1 85 37 85 99 1 63-27 99-86 99S16-35 15-95c0-66 28-99 85-99zM99-20c44 1 53-31 53-75 0-43-8-75-51-75s-53 32-53 75 10 74 51 75" id="aH"/><path fill="#fff" d="M114-163C36-179 61-72 57 0H25l-1-190h30c1 12-1 29 2 39 6-27 23-49 58-41v29" id="aI"/><path fill="#fff" d="M143 0 79-87 56-68V0H24v-261h32v163l83-92h37l-77 82L181 0h-38" id="aJ"/><path fill="#fff" d="M101-234c-31-9-42 10-38 44h38v23H63V0H32v-167H5v-23h27c-7-52 17-82 69-68v24" id="aK"/><path fill="#fff" d="M24 0v-261h32V0H24" id="aL"/><path fill="#fff" d="M206 0h-36l-40-164L89 0H53L-1-190h32L70-26l43-164h34l41 164 42-164h31" id="aM"/><path fill="#fff" d="M30 0v-248h187v28H63v79h144v27H63v87h162V0H30" id="aN"/><path fill="#fff" d="M141 0 90-78 38 0H4l68-98-65-92h35l48 74 47-74h35l-64 92 68 98h-35" id="aO"/><path fill="#fff" d="M100-194c63 0 86 42 84 106H49c0 40 14 67 53 68 26 1 43-12 49-29l28 8c-11 28-37 45-77 45C44 4 14-33 15-96c1-61 26-98 85-98zm52 81c6-60-76-77-97-28-3 7-6 17-6 28h103" id="aP"/><path fill="#fff" d="M96-169c-40 0-48 33-48 73s9 75 48 75c24 0 41-14 43-38l32 2c-6 37-31 61-74 61-59 0-76-41-82-99-10-93 101-131 147-64 4 7 5 14 7 22l-32 3c-4-21-16-35-41-35" id="aQ"/><path fill="#fff" d="M84 4C-5 8 30-112 23-190h32v120c0 31 7 50 39 49 72-2 45-101 50-169h31l1 190h-30c-1-10 1-25-2-33-11 22-28 36-60 37" id="aR"/><path fill="#fff" d="M59-47c-2 24 18 29 38 22v24C64 9 27 4 27-40v-127H5v-23h24l9-43h21v43h35v23H59v120" id="aS"/><path fill="#fff" d="M24-231v-30h32v30H24zM24 0v-190h32V0H24" id="aT"/><path fill="#fff" d="M117-194c89-4 53 116 60 194h-32v-121c0-31-8-49-39-48C34-167 62-67 57 0H25l-1-190h30c1 10-1 24 2 32 11-22 29-35 61-36" id="aU"/><path fill="#fff" d="M27 0v-27h64v-190l-56 39v-29l58-41h29v221h61V0H27" id="aV"/><path fill="#fff" d="M135-143c-3-34-86-38-87 0 15 53 115 12 119 90S17 21 10-45l28-5c4 36 97 45 98 0-10-56-113-15-118-90-4-57 82-63 122-42 12 7 21 19 24 35" id="aW"/><path fill="#fff" d="M233-177c-1 41-23 64-60 70L243 0h-38l-65-103H63V0H30v-248c88 3 205-21 203 71zM63-129c60-2 137 13 137-47 0-61-80-42-137-45v92" id="aX"/><path fill="#fff" d="M101-251c82-7 93 87 43 132L82-64C71-53 59-42 53-27h129V0H18c2-99 128-94 128-182 0-28-16-43-45-43s-46 15-49 41l-32-3c6-41 34-60 81-64" id="aY"/><path fill="#fff" d="M85-194c31 0 48 13 60 33l-1-100h32l1 261h-30c-2-10 0-23-3-31C134-8 116 4 85 4 32 4 16-35 15-94c0-66 23-100 70-100zm9 24c-40 0-46 34-46 75 0 40 6 74 45 74 42 0 51-32 51-76 0-42-9-74-50-73" id="aZ"/><path fill="#fff" d="M126-127c33 6 58 20 58 59 0 88-139 92-164 29-3-8-5-16-6-25l32-3c6 27 21 44 54 44 32 0 52-15 52-46 0-38-36-46-79-43v-28c39 1 72-4 72-42 0-27-17-43-46-43-28 0-47 15-49 41l-32-3c6-42 35-63 81-64 48-1 79 21 79 65 0 36-21 52-52 59" id="ba"/><path fill="#333" d="M67 3c-93-2-31-127-26-193h32L48-50c-3 39 53 32 70 12 30-34 30-101 43-152h32L157 0h-30c1-10 6-24 4-33-14 20-29 37-64 36" id="bb"/><path fill="#333" d="M111-194c62-3 86 47 72 106H45c-7 38 6 69 45 68 27-1 43-14 53-32l24 11C152-15 129 4 87 4 38 3 12-23 12-71c0-70 32-119 99-123zm44 81c14-66-71-72-95-28-4 8-8 17-11 28h106" id="bc"/><path fill="#333" d="M55-144c13 50 104 24 104 88C159 21 15 23 1-39l26-10c6 40 102 42 102-4-13-50-104-23-104-87 0-71 143-71 148-8l-29 4c-5-35-85-37-89 0" id="bd"/><path fill="#333" d="M194-120c59 52 2 134-86 124-53-6-90-18-98-63l31-7c8 30 29 43 70 43 46 0 84-17 71-62-32-43-135-20-137-98-3-89 178-90 191-16l-30 9c-8-48-127-53-127 5 0 53 81 35 115 65" id="be"/><path fill="#333" d="M127 0 80-88 50-66 37 0H6l51-261h31L57-100l99-90h39l-93 82L161 0h-34" id="bf"/><path fill="#333" d="m50-231 6-30h32l-6 30H50zM6 0l37-190h31L37 0H6" id="bg"/><path fill="#333" d="m9 0 6-27h63l36-188-63 39 6-31 66-41h29L110-27h60l-5 27H9" id="bh"/><path fill="#333" d="m14 0 8-38h34L48 0H14" id="bi"/><path fill="#333" d="M247 0h-39l-15-214-24 57L95 0H56L31-248h35L82-30l101-218h33l16 218 101-218h35" id="bj"/><path fill="#333" d="M66-151c12-25 30-51 66-40l-6 26C45-176 58-65 38 0H6l36-190h30" id="bk"/><path fill="#333" d="M76-167 44 0H12l33-167H18l4-23h27c3-47 25-81 82-69l-4 24c-35-8-44 15-46 45h37l-5 23H76" id="bl"/><path fill="#333" d="m6 0 50-261h32L37 0H6" id="bm"/><path fill="#333" d="M188 0h-37l-8-164L71 0H34L18-190h31l8 164 75-164h34l8 164 74-164h31" id="bn"/><path fill="#333" d="m11 0 48-248h184l-5 28H87l-15 79h140l-5 27H67L50-27h158l-5 27H11" id="bo"/><path fill="#333" d="M124 0 87-78 21 0h-35l86-98-46-92h33l34 74 61-74h37l-83 92 50 98h-34" id="bp"/><path fill="#333" d="M44-68c0 29 11 47 38 47 30 0 42-19 51-41l28 9C148-21 126 4 82 4 31 4 10-29 12-85c3-77 74-140 146-93 12 8 15 23 18 40l-31 5c-1-22-13-36-36-36-52 0-65 49-65 101" id="bq"/><path fill="#333" d="M51-54c-9 22 5 41 31 30L79-1C43 14 10-4 19-52l22-115H19l5-23h22l19-43h21l-9 43h35l-4 23H73" id="br"/><path fill="#333" d="m18-82 6-28h88l-6 28H18" id="bs"/><path fill="#333" d="M67-158c15-20 31-36 64-36 94 0 33 127 27 194h-32l25-140c3-38-53-32-70-12C52-117 51-51 37 0H6l51-261h31" id="bt"/><path fill="#333" d="m44-154 7-36h35l-8 36H44zM14 0l7-36h35L49 0H14" id="bu"/><path fill="#333" d="M89 0H52L20-190h33L74-25l89-165h34" id="bv"/><path fill="#333" d="M249-183c0 48-29 72-75 77L221 0h-36l-43-103H65L45 0H11l48-248c83 2 190-17 190 65zm-34 3c0-55-74-39-127-41l-18 92c63-1 145 13 145-51" id="bw"/><path fill="#333" d="M238-179c0 84-86 86-175 82L45 0H11l48-248c82 0 179-12 179 69zm-34 1c0-53-64-42-116-43l-19 98c63 0 135 9 135-55" id="bx"/><path fill="#333" d="M123-251c66 0 92 69 53 113C138-94 73-75 39-27h128l-5 27H-2c17-92 123-93 159-163 14-28-1-64-36-62-29 2-46 17-54 41l-30-6c13-36 37-61 86-61" id="by"/><path fill="#333" d="M219-77C219 17 104-2 11 0l48-248c73 2 169-15 169 57 0 38-24 54-60 60 29 5 51 21 51 54zm-26-111c0-44-62-31-105-33l-16 79c55 0 121 9 121-46zm-7 110c-1-49-69-36-119-38L50-27c61-1 137 12 136-51" id="bz"/><path fill="#333" d="M148-71c0-36-31-44-71-41l5-28c46 3 81-6 81-50 0-23-15-35-39-35-30 0-49 17-56 41l-32-3c12-39 42-63 90-64 43 0 69 19 71 60 1 43-30 58-65 66 27 5 49 22 49 53 0 85-133 99-164 35-4-7-7-15-9-22l29-9c8 25 25 45 58 45 34 1 53-17 53-48" id="bA"/><path fill="#333" d="M103-194c29 0 47 14 56 36 2-11 5-23 8-32h30L160-5C157 61 82 97 21 62 9 55 4 45 1 30l28-7c7 42 83 31 92-3 4-16 9-38 13-55-13 20-29 36-62 36-40 0-60-25-60-64 0-71 23-131 91-131zm4 24c-53 0-58 54-61 104-2 27 10 44 36 44 49 0 65-50 67-102 1-29-15-46-42-46" id="bB"/><path fill="#333" d="m87-220-18 92h140l-5 28H64L45 0H11l48-248h178l-5 28H87" id="bC"/><path fill="#333" d="M248-139C247-14 144 9 11 0l48-248c105-6 190 8 189 109zm-34 0c1-70-52-87-126-82L50-27c98 7 163-21 164-112" id="bD"/><use transform="rotate(.413) scale(.06173)" xlink:href="#bs" id="r"/><use transform="rotate(.413) scale(.06173)" xlink:href="#ax" id="t"/></defs></g></svg>