<svg xmlns="http://www.w3.org/2000/svg" xmlns:xlink="http://www.w3.org/1999/xlink" xmlns:lucid="lucid" width="1280" height="940"><g transform="translate(-120 1140)" lucid:page-tab-id="0_0"><path d="M0-1296h1760V64H0z" fill="#fff"/><path d="M300.37-1114c0-3.3 2.7-6 6-6h268c3.3 0 6 2.7 6 6v48c0 3.3-2.7 6-6 6h-268c-3.3 0-6-2.7-6-6z" fill="none"/><use xlink:href="#a" transform="translate(354.505 -1084.722)"/><use xlink:href="#b" transform="translate(452.221 -1084.722)"/><path d="M950.37-1114c0-3.3 2.7-6 6-6h248c3.3 0 6 2.7 6 6v48c0 3.3-2.7 6-6 6h-248c-3.3 0-6-2.7-6-6z" fill="none"/><use xlink:href="#c" transform="translate(989.413 -1084.722)"/><use xlink:href="#b" transform="translate(1097.314 -1084.722)"/><path d="M780-1054c0-3.3 2.7-6 6-6h208c3.3 0 6 2.7 6 6v48c0 3.3-2.7 6-6 6H786c-3.3 0-6-2.7-6-6z" fill="none"/><use xlink:href="#d" transform="translate(839.636 -1037.222)"/><use xlink:href="#e" transform="translate(836.272 -1010.556)"/><path d="M890-999.5v38.5" stroke="#333" fill="none"/><path d="M890.5-999.5h-1v-.5h1zm0 39h-1v-.5h1z" stroke="#333" stroke-width=".05" fill="#333"/><path d="M260-300h360v80H260z" stroke="#333" fill="#fff"/><use xlink:href="#f" transform="translate(411.698 -255.347)"/><path d="M360-380c0 11.05-8.95 20-20 20s-20-8.95-20-20 8.95-20 20-20 20 8.95 20 20zm200 0c0 11.05-8.95 20-20 20s-20-8.95-20-20 8.95-20 20-20 20 8.95 20 20z" stroke="#333" fill="#fff"/><path d="M340-359v58" stroke="#333" fill="none"/><path d="m339.98-359.5.52-.02v.53h-1v-.56zm.52 59h-1v-.5h1z" stroke="#333" stroke-width=".05" fill="#333"/><path d="M340-401v-42.12" stroke="#333" fill="none"/><path d="m340.5-400.44-.48-.06-.52.02v-.53h1z" stroke="#333" stroke-width=".05" fill="#333"/><path d="m340-457.88 4.64 14.26h-9.28z" stroke="#333" fill="#333"/><path d="M540-359v42.12" stroke="#333" fill="none"/><path d="m539.98-359.5.52-.02v.53h-1v-.56z" stroke="#333" stroke-width=".05" fill="#333"/><path d="m540-302.12-4.64-14.26h9.28z" stroke="#333" fill="#333"/><path d="M540-401v-58" stroke="#333" fill="none"/><path d="m540.5-400.44-.48-.06-.52.02v-.53h1zm0-58.56h-1v-.5h1z" stroke="#333" stroke-width=".05" fill="#333"/><path d="M1160-1054c0-3.3 2.7-6 6-6h208c3.3 0 6 2.7 6 6v48c0 3.3-2.7 6-6 6h-208c-3.3 0-6-2.7-6-6z" fill="none"/><use xlink:href="#g" transform="translate(1181.173 -1024.722)"/><use xlink:href="#h" transform="translate(1293.395 -1024.722)"/><use xlink:href="#i" transform="translate(1323.025 -1024.722)"/><path d="M400.86-394c0-3.3 2.7-6 6-6H474c3.3 0 6 2.7 6 6v28c0 3.3-2.7 6-6 6h-67.14c-3.3 0-6-2.7-6-6z" fill="none"/><use xlink:href="#j" transform="translate(417.209 -377.028)"/><path d="M480.5-380H519" stroke="#333" fill="none"/><path d="M480.5-379.5h-.5v-1h.5zm39-.52.02.52H519v-1h.56z" stroke="#333" stroke-width=".05" fill="#333"/><path d="M400.36-380H361" stroke="#333" fill="none"/><path d="M400.86-379.5h-.5v-1h.5zm-39.86 0h-.56l.06-.48-.02-.52h.53z" stroke="#333" stroke-width=".05" fill="#333"/><path d="M160-945c0-8.28 6.72-15 15-15h530c8.28 0 15 6.72 15 15v310c0 8.28-6.72 15-15 15H175c-8.28 0-15-6.72-15-15z" fill="none"/><path d="m161.26-950.7.74-1.8 1.2-1.55m2.75-2.75 1.56-1.2 1.8-.74m3.76-1L175-960h2m4.02 0h4.02m4 0h4.03m4 0h4.03m4 0h4.03m4 0h4.03m4 0h4.03m4 0h4.02m4 0h4.03m4.02 0h4m4.03 0h4m4.03 0h4m4.03 0h4m4.03 0h4m4.02 0h4m4.03 0h4m4.03 0h4m4.03 0h4.02m4.02 0h4m4.03 0h4m4.03 0h4m4.03 0h4m4.03 0h4m4.03 0h4m4.02 0h4m4.03 0h4.02m4 0h4.03m4 0h4.03m4 0h4.03m4 0h4.03m4 0h4.02m4 0h4.03m4 0H434m4 0h4.03m4.02 0h4.02m4 0h4.03m4 0h4.03m4 0h4.03m4 0h4.03m4 0h4.03m4 0h4.02m4 0h4.03m4.02 0h4m4.03 0h4m4.03 0h4m4.03 0h4m4.03 0h4m4.02 0h4m4.03 0h4m4.03 0h4m4.03 0h4.02m4.02 0h4m4.03 0h4m4.03 0h4m4.03 0h4m4.03 0h4m4.03 0h4m4.02 0h4m4.03 0h4.02m4 0h4.03m4 0h4.03m4 0h4.03m4 0h4.03m4 0h4.02m4 0h4.03m4 0H699m4 0h2l1.94.25m3.75 1 1.8.75 1.55 1.2m2.75 2.75 1.2 1.56.74 1.8m1 3.76L720-945v2m0 3.96v3.98m0 3.97v3.98m0 3.98v3.97m0 3.98v3.98m0 3.98v3.97m0 3.98v3.98m0 3.97v3.98m0 3.97v3.98m0 3.97v3.98m0 3.97v3.97m0 3.98v3.97m0 3.98v3.97m0 3.98v3.97m0 3.97v3.97m0 3.97v3.98m0 3.97v3.97m0 3.97v3.98m0 3.97v3.96m0 3.98v3.97m0 4v3.96m0 3.98v3.97m0 3.98v3.98m0 3.97v3.98m0 3.98v3.98m0 3.97v3.98m0 3.98v3.97m0 3.98v3.97m0 3.98v3.97m0 3.98v3.97m0 3.97v3.98m0 3.97v3.98m0 3.97v3.98m0 3.97v3.97m0 3.97v3.97m0 3.98v3.97m0 3.97v3.97m0 3.98v3.97m0 3.96v3.98m0 3.97v2l-.25 1.94m-1 3.75-.75 1.8-1.2 1.55m-2.75 2.75-1.56 1.2-1.8.74m-3.76 1L705-620h-2m-4.02 0h-4.02m-4 0h-4.03m-4 0h-4.03m-4 0h-4.03m-4 0h-4.03m-4 0h-4.03m-4 0h-4.02m-4 0h-4.03m-4.02 0h-4m-4.03 0h-4m-4.03 0h-4m-4.03 0h-4m-4.03 0h-4m-4.02 0h-4m-4.03 0h-4m-4.03 0h-4m-4.03 0h-4.02m-4.02 0h-4m-4.03 0h-4m-4.03 0h-4m-4.03 0h-4m-4.03 0h-4m-4.03 0h-4m-4.02 0h-4m-4.03 0h-4.02m-4 0h-4.03m-4 0h-4.03m-4 0h-4.03m-4 0h-4.03m-4 0h-4.02m-4 0h-4.03m-4 0H446m-4 0h-4.03m-4.02 0h-4.02m-4 0h-4.03m-4 0h-4.03m-4 0h-4.03m-4 0h-4.03m-4 0h-4.03m-4 0h-4.02m-4 0h-4.03m-4.02 0h-4m-4.03 0h-4m-4.03 0h-4m-4.03 0h-4m-4.03 0h-4m-4.02 0h-4m-4.03 0h-4m-4.03 0h-4m-4.03 0h-4.02m-4.02 0h-4m-4.03 0h-4m-4.03 0h-4m-4.03 0h-4m-4.03 0h-4m-4.03 0h-4m-4.02 0h-4m-4.03 0h-4.02m-4 0h-4.03m-4 0h-4.03m-4 0h-4.03m-4 0h-4.03m-4 0h-4.02m-4 0h-4.03m-4 0H181m-4 0h-2l-1.94-.25m-3.75-1-1.8-.75-1.55-1.2m-2.75-2.75-1.2-1.56-.74-1.8m-1-3.76L160-635v-2m0-3.96v-3.98m0-3.97v-3.98m0-3.98v-3.97m0-3.98v-3.98m0-3.98v-3.97m0-3.98v-3.98m0-3.97v-3.98m0-3.97v-3.98m0-3.97v-3.98m0-3.97v-3.97m0-3.98v-3.97m0-3.98v-3.97m0-3.98v-3.97m0-3.97v-3.97m0-3.97v-3.98m0-3.97v-3.97m0-3.97v-3.98m0-3.97v-3.96m0-3.98V-788m0-4v-3.96m0-3.98v-3.97m0-3.98v-3.98m0-3.97v-3.98m0-3.98v-3.98m0-3.97v-3.98m0-3.98v-3.97m0-3.98v-3.97m0-3.98v-3.97m0-3.98v-3.97m0-3.97v-3.98m0-3.97v-3.98m0-3.97v-3.98m0-3.97v-3.97m0-3.97v-3.97m0-3.98v-3.97m0-3.97v-3.97m0-3.98v-3.97m0-3.96v-3.98m0-3.97v-2l.25-1.94" stroke="#333" fill="none"/><path d="M160-600h560v140H160z" stroke="#333" fill="#fff"/><use xlink:href="#k" transform="translate(350.093 -540.66)"/><use xlink:href="#l" transform="translate(447.377 -540.66)"/><use xlink:href="#m" transform="translate(395.71 -513.993)"/><path d="M560-765c0-8.28 6.72-15 15-15h110c8.28 0 15 6.72 15 15v110c0 8.28-6.72 15-15 15H575c-8.28 0-15-6.72-15-15z" stroke="#333" fill="#fff"/><use xlink:href="#n" transform="translate(582.47 -704.41)"/><use xlink:href="#o" transform="translate(640.494 -704.41)"/><use xlink:href="#p" transform="translate(665.185 -704.41)"/><path d="M180-940h140v140H180z" stroke="#333" fill="#141414"/><use xlink:href="#q" transform="translate(200.26 -893.861)"/><use xlink:href="#r" transform="translate(198.302 -856.528)"/><use xlink:href="#s" transform="translate(243.827 -826.306)"/><path d="M560-940h140v140H560z" stroke="#333" fill="#141414"/><use xlink:href="#t" transform="translate(580.26 -893.861)"/><use xlink:href="#u" transform="translate(578.302 -856.528)"/><use xlink:href="#v" transform="translate(623.827 -826.306)"/><path d="M520-1054c0-3.3 2.7-6 6-6h208c3.3 0 6 2.7 6 6v48c0 3.3-2.7 6-6 6H526c-3.3 0-6-2.7-6-6z" fill="none"/><use xlink:href="#a" transform="translate(527.414 -1024.722)"/><use xlink:href="#e" transform="translate(625.13 -1024.722)"/><path d="M630-999.5v38.5" stroke="#333" fill="none"/><path d="M630.5-999.5h-1v-.5h1zm0 39h-1v-.5h1z" stroke="#333" stroke-width=".05" fill="#333"/><path d="M180-765c0-8.28 6.72-15 15-15h110c8.28 0 15 6.72 15 15v110c0 8.28-6.72 15-15 15H195c-8.28 0-15-6.72-15-15z" stroke="#333" fill="#fff"/><use xlink:href="#w" transform="translate(202.47 -704.41)"/><use xlink:href="#x" transform="translate(260.494 -704.41)"/><use xlink:href="#y" transform="translate(285.185 -704.41)"/><path d="M140-1054c0-3.3 2.7-6 6-6h208c3.3 0 6 2.7 6 6v48c0 3.3-2.7 6-6 6H146c-3.3 0-6-2.7-6-6z" fill="none"/><use xlink:href="#z" transform="translate(179.784 -1037.222)"/><use xlink:href="#A" transform="translate(288.179 -1037.222)"/><use xlink:href="#B" transform="translate(162.994 -1010.556)"/><use xlink:href="#C" transform="translate(271.574 -1010.556)"/><use xlink:href="#D" transform="translate(301.204 -1010.556)"/><path d="M250-999.5v58.5" stroke="#333" fill="none"/><path d="M250.5-999.5h-1v-.5h1zm0 59h-1v-.5h1z" stroke="#333" stroke-width=".05" fill="#333"/><path d="M440-601v-18" stroke="#333" fill="none"/><path d="M440.5-600.5h-1v-.5h1zm0-18.5h-1v-.5h1z" stroke="#333" stroke-width=".05" fill="#333"/><path d="M450-790c0 5.52-4.48 10-10 10s-10-4.48-10-10 4.48-10 10-10 10 4.48 10 10zm45 0c0 5.52-4.48 10-10 10s-10-4.48-10-10 4.48-10 10-10 10 4.48 10 10zm-95 0c0 5.52-4.48 10-10 10s-10-4.48-10-10 4.48-10 10-10 10 4.48 10 10z" stroke="#333" fill="#333"/><path d="M340.74-920H540v100H340.74z" fill="none"/><use xlink:href="#E" transform="translate(359.43 -886.715)"/><use xlink:href="#F" transform="translate(396.912 -886.715)"/><use xlink:href="#G" transform="translate(443.282 -886.715)"/><use xlink:href="#H" transform="translate(463.035 -886.715)"/><use xlink:href="#I" transform="translate(347.603 -865.382)"/><use xlink:href="#J" transform="translate(382.171 -865.382)"/><use xlink:href="#K" transform="translate(441.233 -865.382)"/><use xlink:href="#L" transform="translate(460.986 -865.382)"/><use xlink:href="#M" transform="translate(397.307 -844.049)"/><path d="M440-819.5v18.5" stroke="#333" fill="none"/><path d="M440.5-819.5h-1v-.5h1zm0 19.06-.5-.06-.5.06v-.58h1z" stroke="#333" stroke-width=".05" fill="#333"/><path d="M340-734c0-3.3 2.7-6 6-6h188c3.3 0 6 2.7 6 6v48c0 3.3-2.7 6-6 6H346c-3.3 0-6-2.7-6-6z" fill="none"/><use xlink:href="#N" transform="translate(387.704 -717.653)"/><use xlink:href="#O" transform="translate(473.53 -717.653)"/><use xlink:href="#P" transform="translate(367.901 -696.32)"/><use xlink:href="#Q" transform="translate(446.074 -696.32)"/><path d="M339.5-710H321" stroke="#333" fill="none"/><path d="M340-709.5h-.5v-1h.5zm-19 0h-.5v-1h.5z" stroke="#333" stroke-width=".05" fill="#333"/><path d="M540.5-710H559" stroke="#333" fill="none"/><path d="M540.5-709.5h-.5v-1h.5zm19 0h-.5v-1h.5z" stroke="#333" stroke-width=".05" fill="#333"/><path d="M800-945c0-8.28 6.72-15 15-15h530c8.28 0 15 6.72 15 15v310c0 8.28-6.72 15-15 15H815c-8.28 0-15-6.72-15-15z" fill="none"/><path d="m801.26-950.7.74-1.8 1.2-1.55m2.75-2.75 1.56-1.2 1.8-.74m3.76-1L815-960h2m4.02 0h4.02m4 0h4.03m4 0h4.03m4 0h4.03m4 0h4.03m4 0h4.03m4 0h4.02m4 0h4.03m4.02 0h4m4.03 0h4m4.03 0h4m4.03 0h4m4.03 0h4m4.02 0h4m4.03 0h4m4.03 0h4m4.03 0h4.02m4.02 0h4m4.03 0h4m4.03 0h4m4.03 0h4m4.03 0h4m4.03 0h4m4.02 0h4m4.03 0h4.02m4 0h4.03m4 0h4.03m4 0h4.03m4 0h4.03m4 0h4.02m4 0h4.03m4 0h4.03m4 0h4.03m4.02 0h4.02m4 0h4.03m4 0h4.03m4 0h4.03m4 0h4.03m4 0h4.03m4 0h4.02m4 0h4.03m4.02 0h4m4.03 0h4m4.03 0h4m4.03 0h4m4.03 0h4m4.02 0h4m4.03 0h4m4.03 0h4m4.03 0h4.02m4.02 0h4m4.03 0h4m4.03 0h4m4.03 0h4m4.03 0h4m4.03 0h4m4.02 0h4m4.03 0h4.02m4 0h4.03m4 0h4.03m4 0h4.03m4 0h4.03m4 0h4.02m4 0h4.03m4 0h4.03m4 0h2.02l1.94.25m3.75 1 1.8.75 1.55 1.2m2.75 2.75 1.2 1.56.74 1.8m1 3.76.26 1.94v2m0 3.96v3.98m0 3.97v3.98m0 3.98v3.97m0 3.98v3.98m0 3.98v3.97m0 3.98v3.98m0 3.97v3.98m0 3.97v3.98m0 3.97v3.98m0 3.97v3.97m0 3.98v3.97m0 3.98v3.97m0 3.98v3.97m0 3.97v3.97m0 3.97v3.98m0 3.97v3.97m0 3.97v3.98m0 3.97v3.96m0 3.98v3.97m0 4v3.96m0 3.98v3.97m0 3.98v3.98m0 3.97v3.98m0 3.98v3.98m0 3.97v3.98m0 3.98v3.97m0 3.98v3.97m0 3.98v3.97m0 3.98v3.97m0 3.97v3.98m0 3.97v3.98m0 3.97v3.98m0 3.97v3.97m0 3.97v3.97m0 3.98v3.97m0 3.97v3.97m0 3.98v3.97m0 3.96v3.98m0 3.97v2l-.25 1.94m-1 3.75-.75 1.8-1.2 1.55m-2.75 2.75-1.56 1.2-1.8.74m-3.76 1-1.94.26h-2m-4.02 0h-4.02m-4 0h-4.03m-4 0h-4.03m-4 0h-4.03m-4 0h-4.03m-4 0h-4.03m-4 0h-4.02m-4 0h-4.03m-4.02 0h-4m-4.03 0h-4m-4.03 0h-4m-4.03 0h-4m-4.03 0h-4m-4.02 0h-4m-4.03 0h-4m-4.03 0h-4m-4.03 0h-4.02m-4.02 0h-4m-4.03 0h-4m-4.03 0h-4m-4.03 0h-4m-4.03 0h-4m-4.03 0h-4m-4.02 0h-4m-4.03 0h-4.02m-4 0h-4.03m-4 0h-4.03m-4 0h-4.03m-4 0h-4.03m-4 0h-4.02m-4 0h-4.03m-4 0H1086m-4 0h-4.03m-4.02 0h-4.02m-4 0h-4.03m-4 0h-4.03m-4 0h-4.03m-4 0h-4.03m-4 0h-4.03m-4 0h-4.02m-4 0h-4.03m-4.02 0h-4m-4.03 0h-4m-4.03 0h-4m-4.03 0h-4m-4.03 0h-4m-4.02 0h-4m-4.03 0h-4m-4.03 0h-4m-4.03 0h-4.02m-4.02 0h-4m-4.03 0h-4m-4.03 0h-4m-4.03 0h-4m-4.03 0h-4m-4.03 0h-4m-4.02 0h-4m-4.03 0h-4.02m-4 0h-4.03m-4 0h-4.03m-4 0h-4.03m-4 0h-4.03m-4 0h-4.02m-4 0h-4.03m-4 0H821m-4 0h-2l-1.94-.25m-3.75-1-1.8-.75-1.55-1.2m-2.75-2.75-1.2-1.56-.74-1.8m-1-3.76L800-635v-2m0-3.96v-3.98m0-3.97v-3.98m0-3.98v-3.97m0-3.98v-3.98m0-3.98v-3.97m0-3.98v-3.98m0-3.97v-3.98m0-3.97v-3.98m0-3.97v-3.98m0-3.97v-3.97m0-3.98v-3.97m0-3.98v-3.97m0-3.98v-3.97m0-3.97v-3.97m0-3.97v-3.98m0-3.97v-3.97m0-3.97v-3.98m0-3.97v-3.96m0-3.98V-788m0-4v-3.96m0-3.98v-3.97m0-3.98v-3.98m0-3.97v-3.98m0-3.98v-3.98m0-3.97v-3.98m0-3.98v-3.97m0-3.98v-3.97m0-3.98v-3.97m0-3.98v-3.97m0-3.97v-3.98m0-3.97v-3.98m0-3.97v-3.98m0-3.97v-3.97m0-3.97v-3.97m0-3.98v-3.97m0-3.97v-3.97m0-3.98v-3.97m0-3.96v-3.98m0-3.97v-2l.25-1.94" stroke="#333" fill="none"/><path d="M800-600h560v140H800z" stroke="#333" fill="#fff"/><use xlink:href="#R" transform="translate(1043.025 -524.41)"/><path d="M1200-765c0-8.28 6.72-15 15-15h110c8.28 0 15 6.72 15 15v110c0 8.28-6.72 15-15 15h-110c-8.28 0-15-6.72-15-15z" stroke="#333" fill="#fff"/><use xlink:href="#n" transform="translate(1222.47 -704.41)"/><use xlink:href="#o" transform="translate(1280.494 -704.41)"/><use xlink:href="#p" transform="translate(1305.185 -704.41)"/><path d="M820-940h140v140H820z" stroke="#333" fill="#fff"/><use xlink:href="#S" transform="translate(847.47 -892.847)"/><use xlink:href="#T" transform="translate(842.5 -866.18)"/><use xlink:href="#U" transform="translate(883.827 -839.514)"/><path d="M1200-940h140v140h-140z" stroke="#333" fill="#fff"/><use xlink:href="#S" transform="translate(1227.47 -892.847)"/><use xlink:href="#T" transform="translate(1222.5 -866.18)"/><use xlink:href="#V" transform="translate(1263.827 -839.514)"/><path d="M820-765c0-8.28 6.72-15 15-15h110c8.28 0 15 6.72 15 15v110c0 8.28-6.72 15-15 15H835c-8.28 0-15-6.72-15-15z" stroke="#333" fill="#fff"/><use xlink:href="#n" transform="translate(842.47 -704.41)"/><use xlink:href="#o" transform="translate(900.494 -704.41)"/><use xlink:href="#W" transform="translate(925.185 -704.41)"/><path d="M1080-601v-18" stroke="#333" fill="none"/><path d="M1080.5-600.5h-1v-.5h1zm0-18.5h-1v-.5h1z" stroke="#333" stroke-width=".05" fill="#333"/><path d="M1090-790c0 5.52-4.48 10-10 10s-10-4.48-10-10 4.48-10 10-10 10 4.48 10 10zm45 0c0 5.52-4.48 10-10 10s-10-4.48-10-10 4.48-10 10-10 10 4.48 10 10zm-95 0c0 5.52-4.48 10-10 10s-10-4.48-10-10 4.48-10 10-10 10 4.48 10 10z" stroke="#333" fill="#333"/><path d="M1270-999.5v58.5" stroke="#333" fill="none"/><path d="M1270.5-999.5h-1v-.5h1zm0 59h-1v-.5h1z" stroke="#333" stroke-width=".05" fill="#333"/><path d="M900.37-300h360v80h-360z" stroke="#333" fill="#fff"/><use xlink:href="#f" transform="translate(1052.067 -255.347)"/><path d="M1000.37-380c0 11.05-8.95 20-20 20s-20-8.95-20-20 8.95-20 20-20 20 8.95 20 20zm200 0c0 11.05-8.95 20-20 20s-20-8.95-20-20 8.95-20 20-20 20 8.95 20 20z" stroke="#333" fill="#fff"/><path d="M980.37-359v58" stroke="#333" fill="none"/><path d="m980.35-359.5.52-.02v.53h-1v-.56zm.52 59h-1v-.5h1z" stroke="#333" stroke-width=".05" fill="#333"/><path d="M980.37-401v-41.12" stroke="#333" fill="none"/><path d="m980.87-400.44-.48-.06-.53.02v-.53h1z" stroke="#333" stroke-width=".05" fill="#333"/><path d="m980.37-456.88 4.63 14.26h-9.27z" stroke="#333" fill="#333"/><path d="M1180.37-359v42.12" stroke="#333" fill="none"/><path d="m1180.35-359.5.52-.02v.53h-1v-.56z" stroke="#333" stroke-width=".05" fill="#333"/><path d="m1180.37-302.12-4.64-14.26h9.27z" stroke="#333" fill="#333"/><path d="M1180.37-401v-57" stroke="#333" fill="none"/><path d="m1180.87-400.44-.48-.06-.53.02v-.53h1z" stroke="#333" stroke-width=".05" fill="#333"/><path d="M1180.37-458v-.5" stroke="#333" fill="none"/><defs><path fill="#333" d="M151-220 108 0H75l42-220H32l6-28h203l-5 28h-85" id="X"/><path fill="#333" d="M111-194c62-3 86 47 72 106H45c-7 38 6 69 45 68 27-1 43-14 53-32l24 11C152-15 129 4 87 4 38 3 12-23 12-71c0-70 32-119 99-123zm44 81c14-66-71-72-95-28-4 8-8 17-11 28h106" id="Y"/><path fill="#333" d="M248-111c6-24 9-61-24-58-72 9-57 108-77 169h-31l26-142c3-37-50-30-64-10C52-115 50-51 37 0H6l36-190h30c-1 10-6 24-4 32 13-43 101-52 105 5 13-22 29-41 61-41 90 0 28 129 23 194h-31" id="Z"/><path fill="#333" d="M67-162c32-53 139-36 121 50C175-51 163 2 97 4 68 4 52-11 42-31 38 6 28 39 22 75H-9l50-265h29c-1 10 0 20-3 28zm89 36c0-26-10-43-35-43-54 0-67 50-69 103-1 29 14 45 42 46 53 0 62-58 62-106" id="aa"/><path fill="#333" d="M30-147c31-64 166-65 159 27C183-49 158 1 86 4 9 8 1-88 30-147zM88-20c53 0 68-48 68-100 0-31-11-51-44-50-52 1-68 46-68 97 0 32 13 53 44 53" id="ab"/><path fill="#333" d="M66-151c12-25 30-51 66-40l-6 26C45-176 58-65 38 0H6l36-190h30" id="ac"/><path fill="#333" d="M165-48c-4 18 1 34 23 27l-3 20c-29 8-62 0-52-35h-2C116-14 99 4 63 4 30 4 8-16 8-49c0-68 71-67 138-67 10-26 0-56-31-54-26 1-42 9-47 31l-32-5c8-67 160-71 144 15-5 28-9 54-15 81zM42-50c3 52 80 24 89-6 7-12 7-24 11-38-47 1-103-4-100 44" id="ad"/><path fill="#333" d="m6 0 50-261h32L37 0H6" id="ae"/><path fill="#333" d="M194-120c59 52 2 134-86 124-53-6-90-18-98-63l31-7c8 30 29 43 70 43 46 0 84-17 71-62-32-43-135-20-137-98-3-89 178-90 191-16l-30 9c-8-48-127-53-127 5 0 53 81 35 115 65" id="af"/><path fill="#333" d="M198-190 69 30C53 58 25 83-20 72c4-11-1-27 19-22 33-1 43-29 59-52L20-190h32L79-34l84-156h35" id="ag"/><path fill="#333" d="M55-144c13 50 104 24 104 88C159 21 15 23 1-39l26-10c6 40 102 42 102-4-13-50-104-23-104-87 0-71 143-71 148-8l-29 4c-5-35-85-37-89 0" id="ah"/><path fill="#333" d="M51-54c-9 22 5 41 31 30L79-1C43 14 10-4 19-52l22-115H19l5-23h22l19-43h21l-9 43h35l-4 23H73" id="ai"/><path fill="#333" d="M133-28C103 26-5 8 13-77c13-62 24-115 90-117 29-1 46 15 56 35l19-102h32L160 0h-30zM45-64c-2 27 10 43 35 43 54-1 69-50 69-103 0-29-15-46-42-46-53-1-58 58-62 106" id="aj"/><path fill="#333" d="m50-231 6-30h32l-6 30H50zM6 0l37-190h31L37 0H6" id="ak"/><path fill="#333" d="M67-158c22-48 132-52 116 29L158 0h-32l25-140c3-38-53-32-70-12C52-117 51-52 38 0H6l36-190h30" id="al"/><path fill="#333" d="m187 0-14-72H61L19 0h-37l149-248h38L221 0h-34zm-19-99-22-123L76-99h92" id="am"/><path fill="#333" d="M44-68c0 29 11 47 38 47 30 0 42-19 51-41l28 9C148-21 126 4 82 4 31 4 10-29 12-85c3-77 74-140 146-93 12 8 15 23 18 40l-31 5c-1-22-13-36-36-36-52 0-65 49-65 101" id="an"/><path fill="#333" d="M212-179c-10-28-35-45-73-45-59 0-87 40-87 99 0 60 29 101 89 101 43 0 62-24 78-52l27 14C228-24 195 4 139 4 59 4 22-46 18-125c-6-104 99-153 187-111 19 9 31 26 39 46" id="ao"/><path fill="#333" d="M24 0v-261h32V0H24" id="ap"/><path fill="#333" d="M24-231v-30h32v30H24zM24 0v-190h32V0H24" id="aq"/><path fill="#333" d="M100-194c63 0 86 42 84 106H49c0 40 14 67 53 68 26 1 43-12 49-29l28 8c-11 28-37 45-77 45C44 4 14-33 15-96c1-61 26-98 85-98zm52 81c6-60-76-77-97-28-3 7-6 17-6 28h103" id="ar"/><path fill="#333" d="M117-194c89-4 53 116 60 194h-32v-121c0-31-8-49-39-48C34-167 62-67 57 0H25l-1-190h30c1 10-1 24 2 32 11-22 29-35 61-36" id="as"/><path fill="#333" d="M59-47c-2 24 18 29 38 22v24C64 9 27 4 27-40v-127H5v-23h24l9-43h21v43h35v23H59v120" id="at"/><path fill="#333" d="M248-139C247-14 144 9 11 0l48-248c105-6 190 8 189 109zm-34 0c1-70-52-87-126-82L50-27c98 7 163-21 164-112" id="au"/><path fill="#333" d="M89 0H52L20-190h33L74-25l89-165h34" id="av"/><path fill="#333" d="M68-162c25-46 127-43 121 31C183-60 169 1 98 4 69 5 53-11 43-31L36 0H5l52-261h31zm88 36c2-27-9-43-34-43-55 0-70 51-70 103 0 29 15 45 43 46 52 0 58-58 61-106" id="aw"/><path fill="#333" d="M67 3c-93-2-31-127-26-193h32L48-50c-3 39 53 32 70 12 30-34 30-101 43-152h32L157 0h-30c1-10 6-24 4-33-14 20-29 37-64 36" id="ax"/><path fill="#333" d="M103-194c29 0 47 14 56 36 2-11 5-23 8-32h30L160-5C157 61 82 97 21 62 9 55 4 45 1 30l28-7c7 42 83 31 92-3 4-16 9-38 13-55-13 20-29 36-62 36-40 0-60-25-60-64 0-71 23-131 91-131zm4 24c-53 0-58 54-61 104-2 27 10 44 36 44 49 0 65-50 67-102 1-29-15-46-42-46" id="ay"/><path fill="#333" d="M249-183c0 48-29 72-75 77L221 0h-36l-43-103H65L45 0H11l48-248c83 2 190-17 190 65zm-34 3c0-55-74-39-127-41l-18 92c63-1 145 13 145-51" id="az"/><path fill="#333" d="M238-179c0 84-86 86-175 82L45 0H11l48-248c82 0 179-12 179 69zm-34 1c0-53-64-42-116-43l-19 98c63 0 135 9 135-55" id="aA"/><path fill="#333" d="M125-24c46 0 70-25 89-51l25 16C214-24 183 4 123 4 8 4-5-146 60-208c32-50 158-61 191-5 5 7 9 14 11 22l-32 10c-9-28-33-43-69-43-74 0-108 51-108 125 0 46 24 75 72 75" id="aB"/><path fill="#333" d="M127-220V0H93v-220H8v-28h204v28h-85" id="aC"/><path fill="#333" d="M210-169c-67 3-38 105-44 169h-31v-121c0-29-5-50-35-48C34-165 62-65 56 0H25l-1-190h30c1 10-1 24 2 32 10-44 99-50 107 0 11-21 27-35 58-36 85-2 47 119 55 194h-31v-121c0-29-5-49-35-48" id="aD"/><path fill="#333" d="M115-194c55 1 70 41 70 98S169 2 115 4C84 4 66-9 55-30l1 105H24l-1-265h31l2 30c10-21 28-34 59-34zm-8 174c40 0 45-34 45-75s-6-73-45-74c-42 0-51 32-51 76 0 43 10 73 51 73" id="aE"/><path fill="#333" d="M100-194c62-1 85 37 85 99 1 63-27 99-86 99S16-35 15-95c0-66 28-99 85-99zM99-20c44 1 53-31 53-75 0-43-8-75-51-75s-53 32-53 75 10 74 51 75" id="aF"/><path fill="#333" d="M114-163C36-179 61-72 57 0H25l-1-190h30c1 12-1 29 2 39 6-27 23-49 58-41v29" id="aG"/><path fill="#333" d="M141-36C126-15 110 5 73 4 37 3 15-17 15-53c-1-64 63-63 125-63 3-35-9-54-41-54-24 1-41 7-42 31l-33-3c5-37 33-52 76-52 45 0 72 20 72 64v82c-1 20 7 32 28 27v20c-31 9-61-2-59-35zM48-53c0 20 12 33 32 33 41-3 63-29 60-74-43 2-92-5-92 41" id="aH"/><path fill="#333" d="M30-248c87 1 191-15 191 75 0 78-77 80-158 76V0H30v-248zm33 125c57 0 124 11 124-50 0-59-68-47-124-48v98" id="aI"/><path fill="#333" d="M101-234c-31-9-42 10-38 44h38v23H63V0H32v-167H5v-23h27c-7-52 17-82 69-68v24" id="aJ"/><path fill="#333" d="M87 75C49 33 22-17 22-94c0-76 28-126 65-167h31c-38 41-64 92-64 168S80 34 118 75H87" id="aK"/><path fill="#333" d="M84 4C-5 8 30-112 23-190h32v120c0 31 7 50 39 49 72-2 45-101 50-169h31l1 190h-30c-1-10 1-25-2-33-11 22-28 36-60 37" id="aL"/><path fill="#333" d="M33-261c38 41 65 92 65 168S71 34 33 75H2C39 34 66-17 66-93S39-220 2-261h31" id="aM"/><path fill="#333" d="M185-189c-5-48-123-54-124 2 14 75 158 14 163 119 3 78-121 87-175 55-17-10-28-26-33-46l33-7c5 56 141 63 141-1 0-78-155-14-162-118-5-82 145-84 179-34 5 7 8 16 11 25" id="aN"/><path fill="#fff" d="M266 0h-40l-56-210L115 0H75L2-248h35L96-30l15-64 43-154h32l59 218 59-218h35" id="aO"/><path fill="#fff" d="M100-194c62-1 85 37 85 99 1 63-27 99-86 99S16-35 15-95c0-66 28-99 85-99zM99-20c44 1 53-31 53-75 0-43-8-75-51-75s-53 32-53 75 10 74 51 75" id="aP"/><path fill="#fff" d="M114-163C36-179 61-72 57 0H25l-1-190h30c1 12-1 29 2 39 6-27 23-49 58-41v29" id="aQ"/><path fill="#fff" d="M143 0 79-87 56-68V0H24v-261h32v163l83-92h37l-77 82L181 0h-38" id="aR"/><path fill="#fff" d="M101-234c-31-9-42 10-38 44h38v23H63V0H32v-167H5v-23h27c-7-52 17-82 69-68v24" id="aS"/><path fill="#fff" d="M24 0v-261h32V0H24" id="aT"/><path fill="#fff" d="M206 0h-36l-40-164L89 0H53L-1-190h32L70-26l43-164h34l41 164 42-164h31" id="aU"/><path fill="#fff" d="M30 0v-248h187v28H63v79h144v27H63v87h162V0H30" id="aV"/><path fill="#fff" d="M141 0 90-78 38 0H4l68-98-65-92h35l48 74 47-74h35l-64 92 68 98h-35" id="aW"/><path fill="#fff" d="M100-194c63 0 86 42 84 106H49c0 40 14 67 53 68 26 1 43-12 49-29l28 8c-11 28-37 45-77 45C44 4 14-33 15-96c1-61 26-98 85-98zm52 81c6-60-76-77-97-28-3 7-6 17-6 28h103" id="aX"/><path fill="#fff" d="M96-169c-40 0-48 33-48 73s9 75 48 75c24 0 41-14 43-38l32 2c-6 37-31 61-74 61-59 0-76-41-82-99-10-93 101-131 147-64 4 7 5 14 7 22l-32 3c-4-21-16-35-41-35" id="aY"/><path fill="#fff" d="M84 4C-5 8 30-112 23-190h32v120c0 31 7 50 39 49 72-2 45-101 50-169h31l1 190h-30c-1-10 1-25-2-33-11 22-28 36-60 37" id="aZ"/><path fill="#fff" d="M59-47c-2 24 18 29 38 22v24C64 9 27 4 27-40v-127H5v-23h24l9-43h21v43h35v23H59v120" id="ba"/><path fill="#fff" d="M24-231v-30h32v30H24zM24 0v-190h32V0H24" id="bb"/><path fill="#fff" d="M117-194c89-4 53 116 60 194h-32v-121c0-31-8-49-39-48C34-167 62-67 57 0H25l-1-190h30c1 10-1 24 2 32 11-22 29-35 61-36" id="bc"/><path fill="#fff" d="M27 0v-27h64v-190l-56 39v-29l58-41h29v221h61V0H27" id="bd"/><path fill="#333" d="M27 0v-27h64v-190l-56 39v-29l58-41h29v221h61V0H27" id="be"/><path fill="#333" d="M247 0h-39l-15-214-24 57L95 0H56L31-248h35L82-30l101-218h33l16 218 101-218h35" id="bf"/><path fill="#333" d="M127 0 80-88 50-66 37 0H6l51-261h31L57-100l99-90h39l-93 82L161 0h-34" id="bg"/><path fill="#333" d="M76-167 44 0H12l33-167H18l4-23h27c3-47 25-81 82-69l-4 24c-35-8-44 15-46 45h37l-5 23H76" id="bh"/><path fill="#333" d="M188 0h-37l-8-164L71 0H34L18-190h31l8 164 75-164h34l8 164 74-164h31" id="bi"/><path fill="#333" d="m11 0 48-248h184l-5 28H87l-15 79h140l-5 27H67L50-27h158l-5 27H11" id="bj"/><path fill="#333" d="M124 0 87-78 21 0h-35l86-98-46-92h33l34 74 61-74h37l-83 92 50 98h-34" id="bk"/><path fill="#333" d="M108 0H70L1-190h34L89-25l56-165h34" id="bl"/><path fill="#333" d="M96-169c-40 0-48 33-48 73s9 75 48 75c24 0 41-14 43-38l32 2c-6 37-31 61-74 61-59 0-76-41-82-99-10-93 101-131 147-64 4 7 5 14 7 22l-32 3c-4-21-16-35-41-35" id="bm"/><path fill="#333" d="M63-220v92h138v28H63V0H30v-248h175v28H63" id="bn"/><path fill="#333" d="M141 0 90-78 38 0H4l68-98-65-92h35l48 74 47-74h35l-64 92 68 98h-35" id="bo"/><g id="a"><use transform="rotate(.413) scale(.06173)" xlink:href="#X"/><use transform="matrix(.06173 0 0 .06173 11.481 0)" xlink:href="#Y"/><use transform="matrix(.06173 0 0 .06173 23.827 0)" xlink:href="#Z"/><use transform="matrix(.06173 0 0 .06173 42.284 0)" xlink:href="#aa"/><use transform="matrix(.06173 0 0 .06173 54.63 0)" xlink:href="#ab"/><use transform="matrix(.06173 0 0 .06173 66.975 0)" xlink:href="#ac"/><use transform="matrix(.06173 0 0 .06173 74.321 0)" xlink:href="#ad"/><use transform="matrix(.06173 0 0 .06173 86.667 0)" xlink:href="#ae"/></g><g id="b"><use transform="rotate(.413) scale(.06173)" xlink:href="#af"/><use transform="matrix(.06173 0 0 .06173 14.815 0)" xlink:href="#ag"/><use transform="matrix(.06173 0 0 .06173 25.926 0)" xlink:href="#ah"/><use transform="matrix(.06173 0 0 .06173 37.037 0)" xlink:href="#ai"/><use transform="matrix(.06173 0 0 .06173 43.21 0)" xlink:href="#Y"/><use transform="matrix(.06173 0 0 .06173 55.556 0)" xlink:href="#Z"/></g><g id="c"><use transform="rotate(.413) scale(.06173)" xlink:href="#X"/><use transform="matrix(.06173 0 0 .06173 11.852 0)" xlink:href="#ac"/><use transform="matrix(.06173 0 0 .06173 19.198 0)" xlink:href="#ad"/><use transform="matrix(.06173 0 0 .06173 31.543 0)" xlink:href="#aj"/><use transform="matrix(.06173 0 0 .06173 43.889 0)" xlink:href="#ak"/><use transform="matrix(.06173 0 0 .06173 48.765 0)" xlink:href="#ai"/><use transform="matrix(.06173 0 0 .06173 54.938 0)" xlink:href="#ak"/><use transform="matrix(.06173 0 0 .06173 59.815 0)" xlink:href="#ab"/><use transform="matrix(.06173 0 0 .06173 72.16 0)" xlink:href="#al"/><use transform="matrix(.06173 0 0 .06173 84.506 0)" xlink:href="#ad"/><use transform="matrix(.06173 0 0 .06173 96.852 0)" xlink:href="#ae"/></g><g id="d"><use transform="rotate(.413) scale(.06173)" xlink:href="#X"/><use transform="matrix(.06173 0 0 .06173 11.852 0)" xlink:href="#ac"/><use transform="matrix(.06173 0 0 .06173 19.198 0)" xlink:href="#ad"/><use transform="matrix(.06173 0 0 .06173 31.543 0)" xlink:href="#aj"/><use transform="matrix(.06173 0 0 .06173 43.889 0)" xlink:href="#ak"/><use transform="matrix(.06173 0 0 .06173 48.765 0)" xlink:href="#ai"/><use transform="matrix(.06173 0 0 .06173 54.938 0)" xlink:href="#ak"/><use transform="matrix(.06173 0 0 .06173 59.815 0)" xlink:href="#ab"/><use transform="matrix(.06173 0 0 .06173 72.16 0)" xlink:href="#al"/><use transform="matrix(.06173 0 0 .06173 84.506 0)" xlink:href="#ad"/><use transform="matrix(.06173 0 0 .06173 96.852 0)" xlink:href="#ae"/></g><g id="e"><use transform="rotate(.413) scale(.06173)" xlink:href="#am"/><use transform="matrix(.06173 0 0 .06173 14.815 0)" xlink:href="#aa"/><use transform="matrix(.06173 0 0 .06173 27.16 0)" xlink:href="#aa"/><use transform="matrix(.06173 0 0 .06173 39.506 0)" xlink:href="#ae"/><use transform="matrix(.06173 0 0 .06173 44.383 0)" xlink:href="#ak"/><use transform="matrix(.06173 0 0 .06173 49.26 0)" xlink:href="#an"/><use transform="matrix(.06173 0 0 .06173 60.37 0)" xlink:href="#ad"/><use transform="matrix(.06173 0 0 .06173 72.716 0)" xlink:href="#ai"/><use transform="matrix(.06173 0 0 .06173 78.889 0)" xlink:href="#ak"/><use transform="matrix(.06173 0 0 .06173 83.765 0)" xlink:href="#ab"/><use transform="matrix(.06173 0 0 .06173 96.111 0)" xlink:href="#al"/></g><g id="f"><use transform="rotate(.413) scale(.06173)" xlink:href="#ao"/><use transform="matrix(.06173 0 0 .06173 15.988 0)" xlink:href="#ap"/><use transform="matrix(.06173 0 0 .06173 20.864 0)" xlink:href="#aq"/><use transform="matrix(.06173 0 0 .06173 25.74 0)" xlink:href="#ar"/><use transform="matrix(.06173 0 0 .06173 38.086 0)" xlink:href="#as"/><use transform="matrix(.06173 0 0 .06173 50.432 0)" xlink:href="#at"/></g><g id="g"><use transform="rotate(.413) scale(.06173)" xlink:href="#au"/><use transform="matrix(.06173 0 0 .06173 15.988 0)" xlink:href="#Y"/><use transform="matrix(.06173 0 0 .06173 28.333 0)" xlink:href="#av"/><use transform="matrix(.06173 0 0 .06173 39.444 0)" xlink:href="#Y"/><use transform="matrix(.06173 0 0 .06173 51.79 0)" xlink:href="#ae"/><use transform="matrix(.06173 0 0 .06173 56.667 0)" xlink:href="#ab"/><use transform="matrix(.06173 0 0 .06173 69.012 0)" xlink:href="#aa"/><use transform="matrix(.06173 0 0 .06173 81.358 0)" xlink:href="#Y"/><use transform="matrix(.06173 0 0 .06173 93.704 0)" xlink:href="#aj"/></g><g id="h"><use transform="rotate(.413) scale(.06173)" xlink:href="#aw"/><use transform="matrix(.06173 0 0 .06173 12.346 0)" xlink:href="#ag"/></g><g id="i"><use transform="rotate(.413) scale(.06173)" xlink:href="#ag"/><use transform="matrix(.06173 0 0 .06173 11.111 0)" xlink:href="#ab"/><use transform="matrix(.06173 0 0 .06173 23.457 0)" xlink:href="#ax"/></g><g id="j"><use transform="scale(.04938)" xlink:href="#ay"/><use transform="matrix(.04938 0 0 .04938 9.877 0)" xlink:href="#az"/><use transform="matrix(.04938 0 0 .04938 22.667 0)" xlink:href="#aA"/><use transform="matrix(.04938 0 0 .04938 34.519 0)" xlink:href="#aB"/></g><g id="k"><use transform="rotate(.413) scale(.06173)" xlink:href="#aC"/><use transform="matrix(.06173 0 0 .06173 11.05 0)" xlink:href="#ar"/><use transform="matrix(.06173 0 0 .06173 23.395 0)" xlink:href="#aD"/><use transform="matrix(.06173 0 0 .06173 41.852 0)" xlink:href="#aE"/><use transform="matrix(.06173 0 0 .06173 54.198 0)" xlink:href="#aF"/><use transform="matrix(.06173 0 0 .06173 66.543 0)" xlink:href="#aG"/><use transform="matrix(.06173 0 0 .06173 73.889 0)" xlink:href="#aH"/><use transform="matrix(.06173 0 0 .06173 86.235 0)" xlink:href="#ap"/></g><g id="l"><use transform="rotate(.413) scale(.06173)" xlink:href="#aI"/><use transform="matrix(.06173 0 0 .06173 14.815 0)" xlink:href="#ap"/><use transform="matrix(.06173 0 0 .06173 19.691 0)" xlink:href="#aH"/><use transform="matrix(.06173 0 0 .06173 32.037 0)" xlink:href="#at"/><use transform="matrix(.06173 0 0 .06173 38.21 0)" xlink:href="#aJ"/><use transform="matrix(.06173 0 0 .06173 44.383 0)" xlink:href="#aF"/><use transform="matrix(.06173 0 0 .06173 56.728 0)" xlink:href="#aG"/><use transform="matrix(.06173 0 0 .06173 64.074 0)" xlink:href="#aD"/></g><g id="m"><use transform="rotate(.413) scale(.06173)" xlink:href="#aK"/><use transform="matrix(.06173 0 0 .06173 7.346 0)" xlink:href="#aG"/><use transform="matrix(.06173 0 0 .06173 14.691 0)" xlink:href="#aL"/><use transform="matrix(.06173 0 0 .06173 27.037 0)" xlink:href="#as"/><use transform="matrix(.06173 0 0 .06173 39.383 0)" xlink:href="#at"/><use transform="matrix(.06173 0 0 .06173 45.556 0)" xlink:href="#aq"/><use transform="matrix(.06173 0 0 .06173 50.432 0)" xlink:href="#aD"/><use transform="matrix(.06173 0 0 .06173 68.889 0)" xlink:href="#ar"/><use transform="matrix(.06173 0 0 .06173 81.235 0)" xlink:href="#aM"/></g><g id="n"><use transform="rotate(.413) scale(.06173)" xlink:href="#aN"/><use transform="matrix(.06173 0 0 .06173 14.815 0)" xlink:href="#at"/><use transform="matrix(.06173 0 0 .06173 20.988 0)" xlink:href="#aH"/><use transform="matrix(.06173 0 0 .06173 33.333 0)" xlink:href="#at"/><use transform="matrix(.06173 0 0 .06173 39.506 0)" xlink:href="#ar"/></g><g id="o"><use transform="rotate(.413) scale(.06173)" xlink:href="#aF"/><use transform="matrix(.06173 0 0 .06173 12.346 0)" xlink:href="#aJ"/></g><g id="q"><use transform="rotate(.137) scale(.08642)" xlink:href="#aO"/><use transform="matrix(.06173 0 0 .06173 29.296 0)" xlink:href="#aP"/><use transform="matrix(.06173 0 0 .06173 41.642 0)" xlink:href="#aQ"/><use transform="matrix(.06173 0 0 .06173 48.988 0)" xlink:href="#aR"/><use transform="matrix(.06173 0 0 .06173 60.099 0)" xlink:href="#aS"/><use transform="matrix(.06173 0 0 .06173 66.272 0)" xlink:href="#aT"/><use transform="matrix(.06173 0 0 .06173 71.148 0)" xlink:href="#aP"/><use transform="matrix(.06173 0 0 .06173 83.494 0)" xlink:href="#aU"/></g><g id="r"><use transform="rotate(.137) scale(.08642)" xlink:href="#aV"/><use transform="matrix(.06173 0 0 .06173 20.74 0)" xlink:href="#aW"/><use transform="matrix(.06173 0 0 .06173 31.852 0)" xlink:href="#aX"/><use transform="matrix(.06173 0 0 .06173 44.198 0)" xlink:href="#aY"/><use transform="matrix(.06173 0 0 .06173 55.309 0)" xlink:href="#aZ"/><use transform="matrix(.06173 0 0 .06173 67.654 0)" xlink:href="#ba"/><use transform="matrix(.06173 0 0 .06173 73.827 0)" xlink:href="#bb"/><use transform="matrix(.06173 0 0 .06173 78.704 0)" xlink:href="#aP"/><use transform="matrix(.06173 0 0 .06173 91.05 0)" xlink:href="#bc"/></g><g id="t"><use transform="rotate(.137) scale(.08642)" xlink:href="#aO"/><use transform="matrix(.06173 0 0 .06173 29.296 0)" xlink:href="#aP"/><use transform="matrix(.06173 0 0 .06173 41.642 0)" xlink:href="#aQ"/><use transform="matrix(.06173 0 0 .06173 48.988 0)" xlink:href="#aR"/><use transform="matrix(.06173 0 0 .06173 60.099 0)" xlink:href="#aS"/><use transform="matrix(.06173 0 0 .06173 66.272 0)" xlink:href="#aT"/><use transform="matrix(.06173 0 0 .06173 71.148 0)" xlink:href="#aP"/><use transform="matrix(.06173 0 0 .06173 83.494 0)" xlink:href="#aU"/></g><g id="u"><use transform="rotate(.137) scale(.08642)" xlink:href="#aV"/><use transform="matrix(.06173 0 0 .06173 20.74 0)" xlink:href="#aW"/><use transform="matrix(.06173 0 0 .06173 31.852 0)" xlink:href="#aX"/><use transform="matrix(.06173 0 0 .06173 44.198 0)" xlink:href="#aY"/><use transform="matrix(.06173 0 0 .06173 55.309 0)" xlink:href="#aZ"/><use transform="matrix(.06173 0 0 .06173 67.654 0)" xlink:href="#ba"/><use transform="matrix(.06173 0 0 .06173 73.827 0)" xlink:href="#bb"/><use transform="matrix(.06173 0 0 .06173 78.704 0)" xlink:href="#aP"/><use transform="matrix(.06173 0 0 .06173 91.05 0)" xlink:href="#bc"/></g><g id="w"><use transform="rotate(.413) scale(.06173)" xlink:href="#aN"/><use transform="matrix(.06173 0 0 .06173 14.815 0)" xlink:href="#at"/><use transform="matrix(.06173 0 0 .06173 20.988 0)" xlink:href="#aH"/><use transform="matrix(.06173 0 0 .06173 33.333 0)" xlink:href="#at"/><use transform="matrix(.06173 0 0 .06173 39.506 0)" xlink:href="#ar"/></g><g id="x"><use transform="rotate(.413) scale(.06173)" xlink:href="#aF"/><use transform="matrix(.06173 0 0 .06173 12.346 0)" xlink:href="#aJ"/></g><g id="z"><use transform="rotate(.413) scale(.06173)" xlink:href="#bf"/><use transform="matrix(.06173 0 0 .06173 20.926 0)" xlink:href="#ab"/><use transform="matrix(.06173 0 0 .06173 33.272 0)" xlink:href="#ac"/><use transform="matrix(.06173 0 0 .06173 40.617 0)" xlink:href="#bg"/><use transform="matrix(.06173 0 0 .06173 51.728 0)" xlink:href="#bh"/><use transform="matrix(.06173 0 0 .06173 57.901 0)" xlink:href="#ae"/><use transform="matrix(.06173 0 0 .06173 62.778 0)" xlink:href="#ab"/><use transform="matrix(.06173 0 0 .06173 75.123 0)" xlink:href="#bi"/><use transform="matrix(.06173 0 0 .06173 91.111 0)" xlink:href="#ah"/></g><g id="A"><use transform="rotate(.413) scale(.06173)" xlink:href="#ad"/><use transform="matrix(.06173 0 0 .06173 12.346 0)" xlink:href="#ac"/><use transform="matrix(.06173 0 0 .06173 19.691 0)" xlink:href="#Y"/></g><g id="B"><use transform="rotate(.413) scale(.06173)" xlink:href="#aj"/><use transform="matrix(.06173 0 0 .06173 12.346 0)" xlink:href="#Y"/><use transform="matrix(.06173 0 0 .06173 24.691 0)" xlink:href="#av"/><use transform="matrix(.06173 0 0 .06173 35.802 0)" xlink:href="#Y"/><use transform="matrix(.06173 0 0 .06173 48.148 0)" xlink:href="#ae"/><use transform="matrix(.06173 0 0 .06173 53.025 0)" xlink:href="#ab"/><use transform="matrix(.06173 0 0 .06173 65.37 0)" xlink:href="#aa"/><use transform="matrix(.06173 0 0 .06173 77.716 0)" xlink:href="#Y"/><use transform="matrix(.06173 0 0 .06173 90.062 0)" xlink:href="#aj"/></g><g id="C"><use transform="rotate(.413) scale(.06173)" xlink:href="#aw"/><use transform="matrix(.06173 0 0 .06173 12.346 0)" xlink:href="#ag"/></g><g id="D"><use transform="rotate(.413) scale(.06173)" xlink:href="#ag"/><use transform="matrix(.06173 0 0 .06173 11.111 0)" xlink:href="#ab"/><use transform="matrix(.06173 0 0 .06173 23.457 0)" xlink:href="#ax"/></g><g id="E"><use transform="scale(.04938)" xlink:href="#aB"/><use transform="matrix(.04938 0 0 .04938 12.79 0)" xlink:href="#ad"/><use transform="matrix(.04938 0 0 .04938 22.667 0)" xlink:href="#al"/></g><g id="F"><use transform="scale(.04938)" xlink:href="#ah"/><use transform="matrix(.04938 0 0 .04938 8.889 0)" xlink:href="#an"/><use transform="matrix(.04938 0 0 .04938 17.778 0)" xlink:href="#ad"/><use transform="matrix(.04938 0 0 .04938 27.654 0)" xlink:href="#ae"/><use transform="matrix(.04938 0 0 .04938 31.556 0)" xlink:href="#Y"/></g><g id="G"><use transform="scale(.04938)" xlink:href="#ai"/><use transform="matrix(.04938 0 0 .04938 4.938 0)" xlink:href="#ab"/></g><g id="H"><use transform="scale(.04938)" xlink:href="#Z"/><use transform="matrix(.04938 0 0 .04938 14.765 0)" xlink:href="#ak"/><use transform="matrix(.04938 0 0 .04938 18.667 0)" xlink:href="#ae"/><use transform="matrix(.04938 0 0 .04938 22.568 0)" xlink:href="#ae"/><use transform="matrix(.04938 0 0 .04938 26.47 0)" xlink:href="#ak"/><use transform="matrix(.04938 0 0 .04938 30.37 0)" xlink:href="#ab"/><use transform="matrix(.04938 0 0 .04938 40.247 0)" xlink:href="#al"/><use transform="matrix(.04938 0 0 .04938 50.123 0)" xlink:href="#ah"/></g><g id="I"><use transform="scale(.04938)" xlink:href="#ad"/><use transform="matrix(.04938 0 0 .04938 9.877 0)" xlink:href="#al"/><use transform="matrix(.04938 0 0 .04938 19.753 0)" xlink:href="#aj"/></g><g id="J"><use transform="scale(.04938)" xlink:href="#aw"/><use transform="matrix(.04938 0 0 .04938 9.877 0)" xlink:href="#ak"/><use transform="matrix(.04938 0 0 .04938 13.778 0)" xlink:href="#ae"/><use transform="matrix(.04938 0 0 .04938 17.679 0)" xlink:href="#ae"/><use transform="matrix(.04938 0 0 .04938 21.58 0)" xlink:href="#ak"/><use transform="matrix(.04938 0 0 .04938 25.481 0)" xlink:href="#ab"/><use transform="matrix(.04938 0 0 .04938 35.358 0)" xlink:href="#al"/><use transform="matrix(.04938 0 0 .04938 45.235 0)" xlink:href="#ah"/></g><g id="K"><use transform="scale(.04938)" xlink:href="#ab"/><use transform="matrix(.04938 0 0 .04938 9.877 0)" xlink:href="#bh"/></g><g id="L"><use transform="scale(.04938)" xlink:href="#bf"/><use transform="matrix(.04938 0 0 .04938 16.74 0)" xlink:href="#ab"/><use transform="matrix(.04938 0 0 .04938 26.617 0)" xlink:href="#ac"/><use transform="matrix(.04938 0 0 .04938 32.494 0)" xlink:href="#bg"/><use transform="matrix(.04938 0 0 .04938 41.383 0)" xlink:href="#bh"/><use transform="matrix(.04938 0 0 .04938 46.321 0)" xlink:href="#ae"/><use transform="matrix(.04938 0 0 .04938 50.222 0)" xlink:href="#ab"/><use transform="matrix(.04938 0 0 .04938 60.099 0)" xlink:href="#bi"/></g><g id="M"><use transform="scale(.04938)" xlink:href="#bj"/><use transform="matrix(.04938 0 0 .04938 11.852 0)" xlink:href="#bk"/><use transform="matrix(.04938 0 0 .04938 20.74 0)" xlink:href="#Y"/><use transform="matrix(.04938 0 0 .04938 30.617 0)" xlink:href="#an"/><use transform="matrix(.04938 0 0 .04938 39.506 0)" xlink:href="#ax"/><use transform="matrix(.04938 0 0 .04938 49.383 0)" xlink:href="#ai"/><use transform="matrix(.04938 0 0 .04938 54.321 0)" xlink:href="#ak"/><use transform="matrix(.04938 0 0 .04938 58.222 0)" xlink:href="#ab"/><use transform="matrix(.04938 0 0 .04938 68.099 0)" xlink:href="#al"/><use transform="matrix(.04938 0 0 .04938 77.975 0)" xlink:href="#ah"/></g><g id="N"><use transform="scale(.04938)" xlink:href="#aA"/><use transform="matrix(.04938 0 0 .04938 11.852 0)" xlink:href="#ac"/><use transform="matrix(.04938 0 0 .04938 17.728 0)" xlink:href="#Y"/><use transform="matrix(.04938 0 0 .04938 27.605 0)" xlink:href="#ah"/><use transform="matrix(.04938 0 0 .04938 36.494 0)" xlink:href="#Y"/><use transform="matrix(.04938 0 0 .04938 46.37 0)" xlink:href="#ac"/><use transform="matrix(.04938 0 0 .04938 52.247 0)" xlink:href="#av"/><use transform="matrix(.04938 0 0 .04938 61.136 0)" xlink:href="#Y"/><use transform="matrix(.04938 0 0 .04938 71.012 0)" xlink:href="#aj"/></g><g id="O"><use transform="scale(.04938)" xlink:href="#aw"/><use transform="matrix(.04938 0 0 .04938 9.877 0)" xlink:href="#ag"/></g><g id="P"><use transform="scale(.04938)" xlink:href="#X"/><use transform="matrix(.04938 0 0 .04938 9.185 0)" xlink:href="#Y"/><use transform="matrix(.04938 0 0 .04938 19.062 0)" xlink:href="#Z"/><use transform="matrix(.04938 0 0 .04938 33.827 0)" xlink:href="#aa"/><use transform="matrix(.04938 0 0 .04938 43.704 0)" xlink:href="#ab"/><use transform="matrix(.04938 0 0 .04938 53.58 0)" xlink:href="#ac"/><use transform="matrix(.04938 0 0 .04938 59.457 0)" xlink:href="#ad"/><use transform="matrix(.04938 0 0 .04938 69.333 0)" xlink:href="#ae"/></g><g id="Q"><use transform="scale(.04938)" xlink:href="#aA"/><use transform="matrix(.04938 0 0 .04938 11.852 0)" xlink:href="#ae"/><use transform="matrix(.04938 0 0 .04938 15.753 0)" xlink:href="#ad"/><use transform="matrix(.04938 0 0 .04938 25.63 0)" xlink:href="#ai"/><use transform="matrix(.04938 0 0 .04938 30.568 0)" xlink:href="#bh"/><use transform="matrix(.04938 0 0 .04938 35.506 0)" xlink:href="#ab"/><use transform="matrix(.04938 0 0 .04938 45.383 0)" xlink:href="#ac"/><use transform="matrix(.04938 0 0 .04938 51.26 0)" xlink:href="#Z"/></g><g id="R"><use transform="rotate(.413) scale(.06173)" xlink:href="#aN"/><use transform="matrix(.06173 0 0 .06173 14.815 0)" xlink:href="#ar"/><use transform="matrix(.06173 0 0 .06173 27.16 0)" xlink:href="#aG"/><use transform="matrix(.06173 0 0 .06173 34.506 0)" xlink:href="#bl"/><use transform="matrix(.06173 0 0 .06173 45.617 0)" xlink:href="#aq"/><use transform="matrix(.06173 0 0 .06173 50.494 0)" xlink:href="#bm"/><use transform="matrix(.06173 0 0 .06173 61.605 0)" xlink:href="#ar"/></g><g id="S"><use transform="rotate(.413) scale(.06173)" xlink:href="#bn"/><use transform="matrix(.06173 0 0 .06173 13.519 0)" xlink:href="#aL"/><use transform="matrix(.06173 0 0 .06173 25.864 0)" xlink:href="#as"/><use transform="matrix(.06173 0 0 .06173 38.21 0)" xlink:href="#bm"/><use transform="matrix(.06173 0 0 .06173 49.321 0)" xlink:href="#at"/><use transform="matrix(.06173 0 0 .06173 55.494 0)" xlink:href="#aq"/><use transform="matrix(.06173 0 0 .06173 60.37 0)" xlink:href="#aF"/><use transform="matrix(.06173 0 0 .06173 72.716 0)" xlink:href="#as"/></g><g id="T"><use transform="rotate(.413) scale(.06173)" xlink:href="#ar"/><use transform="matrix(.06173 0 0 .06173 12.346 0)" xlink:href="#bo"/><use transform="matrix(.06173 0 0 .06173 23.457 0)" xlink:href="#ar"/><use transform="matrix(.06173 0 0 .06173 35.802 0)" xlink:href="#bm"/><use transform="matrix(.06173 0 0 .06173 46.914 0)" xlink:href="#aL"/><use transform="matrix(.06173 0 0 .06173 59.26 0)" xlink:href="#at"/><use transform="matrix(.06173 0 0 .06173 65.432 0)" xlink:href="#aq"/><use transform="matrix(.06173 0 0 .06173 70.309 0)" xlink:href="#aF"/><use transform="matrix(.06173 0 0 .06173 82.654 0)" xlink:href="#as"/></g><use transform="rotate(.413) scale(.06173)" xlink:href="#as" id="p"/><use transform="rotate(.413) scale(.06173)" xlink:href="#bd" id="s"/><use transform="rotate(.413) scale(.06173)" xlink:href="#bc" id="v"/><use transform="rotate(.413) scale(.06173)" xlink:href="#be" id="y"/><use transform="rotate(.413) scale(.06173)" xlink:href="#be" id="U"/><use transform="rotate(.413) scale(.06173)" xlink:href="#as" id="V"/><use transform="rotate(.413) scale(.06173)" xlink:href="#be" id="W"/></defs></g></svg>