<svg xmlns="http://www.w3.org/2000/svg" xmlns:xlink="http://www.w3.org/1999/xlink" xmlns:lucid="lucid" width="1000" height="900"><g transform="translate(-340.0000000000001 1260)" lucid:page-tab-id="0_0"><path d="M640-1105c0-8.28 6.72-15 15-15h350c8.28 0 15 6.72 15 15v710c0 8.28-6.72 15-15 15H655c-8.28 0-15-6.72-15-15z" fill-opacity="0"/><path d="M649.3-1118.74l1.8-.75 3.9-.5h5.83m11.67 0h11.67m11.66 0h11.67m11.67 0h11.66m11.67 0h11.67m11.66 0h11.67m11.67 0h11.66m11.67 0h11.67m11.66 0h11.67m11.67 0h11.66m11.67 0h11.67m11.66 0h11.67m11.67 0h11.66m11.67 0h11.67m11.66 0h11.67m11.67 0h5.83l3.9.5 1.8.76m8.04 8.05l.75 1.8.5 3.9v5.92m0 11.83v11.83m0 11.84v11.83m0 11.83v11.84m0 11.83v11.83m0 11.84v11.83m0 11.83v11.84m0 11.83v11.83m0 11.84v11.83m0 11.83v11.84m0 11.83v11.83m0 11.84v11.83m0 11.83v11.84m0 11.83v11.83m0 11.84v11.83m0 11.83v11.84m0 11.83v11.83m0 11.84v11.83m0 11.83v11.84m0 11.83v11.83m0 11.84v11.83m0 11.83v11.84m0 11.83v11.83m0 11.84v11.83m0 11.83v11.84m0 11.83v11.83m0 11.84v11.83m0 11.83v11.84m0 11.83v11.83m0 11.84v11.83m0 11.83v5.92l-.5 3.9-.76 1.8m-8.05 8.04l-1.8.75-3.9.5h-5.83m-11.67 0h-11.67m-11.66 0H952.5m-11.67 0h-11.66m-11.67 0h-11.67m-11.66 0H882.5m-11.67 0h-11.66m-11.67 0h-11.67m-11.66 0H812.5m-11.67 0h-11.66m-11.67 0h-11.67m-11.66 0H742.5m-11.67 0h-11.66m-11.67 0h-11.67m-11.66 0H672.5m-11.67 0H655l-3.9-.5-1.8-.76m-8.04-8.05l-.75-1.8-.5-3.9v-5.92m0-11.83v-11.83m0-11.84v-11.83m0-11.83v-11.84m0-11.83v-11.83m0-11.84v-11.83m0-11.83v-11.84m0-11.83v-11.83m0-11.84v-11.83m0-11.83v-11.84m0-11.83v-11.83m0-11.84v-11.83m0-11.83v-11.84m0-11.83v-11.83m0-11.84v-11.83m0-11.83v-11.84m0-11.83v-11.83m0-11.84v-11.83m0-11.83v-11.84m0-11.83v-11.83m0-11.84v-11.83m0-11.83v-11.84m0-11.83v-11.83m0-11.84v-11.83m0-11.83v-11.84m0-11.83v-11.83m0-11.84v-11.83m0-11.83v-11.84m0-11.83v-11.83m0-11.84v-11.83m0-11.83v-5.92l.5-3.9.76-1.8" stroke="#333" stroke-width="3" fill="none"/><path d="M660-1085c0-8.28 6.72-15 15-15h310c8.28 0 15 6.72 15 15v310c0 8.28-6.72 15-15 15H675c-8.28 0-15-6.72-15-15z" fill-opacity="0"/><path d="M669.3-1098.74l1.8-.75 3.9-.5h5.96m11.92 0h11.93m11.93 0h11.92m11.93 0h11.92m11.92 0h11.93m11.92 0h11.92m11.92 0h11.92m11.92 0h11.92m11.93 0h11.93m11.92 0h11.93m11.92 0h11.92m11.93 0h11.92m11.92 0h11.92m11.92 0H985l3.9.5 1.8.76m8.04 8.05l.75 1.8.5 3.9v5.96m0 11.92v11.93m0 11.93v11.92m0 11.93v11.92m0 11.92v11.93m0 11.92v11.92m0 11.92v11.92m0 11.92v11.92m0 11.93v11.93m0 11.92v11.93m0 11.92v11.92m0 11.93v11.92m0 11.92v11.92m0 11.92v5.96l-.5 3.9-.76 1.8m-8.05 8.04l-1.8.75-3.9.5h-5.96m-11.92 0H955.2m-11.93 0h-11.92m-11.93 0H907.5m-11.92 0h-11.93m-11.92 0H859.8m-11.92 0h-11.92m-11.92 0h-11.92m-11.93 0h-11.93m-11.92 0h-11.93m-11.92 0h-11.92m-11.93 0h-11.92m-11.92 0H692.9m-11.92 0H675l-3.9-.5-1.8-.76m-8.04-8.05l-.75-1.8-.5-3.9v-5.96m0-11.92v-11.93m0-11.93v-11.92m0-11.93v-11.92m0-11.92v-11.93m0-11.92v-11.92m0-11.92v-11.92m0-11.92v-11.92m0-11.93v-11.93m0-11.92v-11.93m0-11.92v-11.92m0-11.93v-11.92m0-11.92v-11.92m0-11.92v-5.96l.5-3.9.76-1.8" stroke="#333" stroke-width="3" fill="none"/><path d="M660-725c0-8.28 6.72-15 15-15h310c8.28 0 15 6.72 15 15v310c0 8.28-6.72 15-15 15H675c-8.28 0-15-6.72-15-15z" stroke="#333" stroke-width="3" fill="#fff"/><use xlink:href="#a" transform="matrix(1,0,0,1,665.0000000000001,-735) translate(75.0925925925926 156.99652777777777)"/><use xlink:href="#b" transform="matrix(1,0,0,1,665.0000000000001,-735) translate(172.37654320987656 156.99652777777777)"/><use xlink:href="#c" transform="matrix(1,0,0,1,665.0000000000001,-735) translate(116.38888888888889 183.66319444444443)"/><path d="M840-905c0-8.28 6.72-15 15-15h110c8.28 0 15 6.72 15 15v110c0 8.28-6.72 15-15 15H855c-8.28 0-15-6.72-15-15z" stroke="#5e5e5e" stroke-width="3" fill="#141414"/><use xlink:href="#d" transform="matrix(1,0,0,1,845,-915) translate(15.25925925925926 53.326388888888886)"/><use xlink:href="#e" transform="matrix(1,0,0,1,845,-915) translate(13.302469135802468 90.6597222222222)"/><path d="M680-1065c0-8.28 6.72-15 15-15h110c8.28 0 15 6.72 15 15v110c0 8.28-6.72 15-15 15H695c-8.28 0-15-6.72-15-15z" stroke="#5e5e5e" stroke-width="3" fill="#141414"/><use xlink:href="#d" transform="matrix(1,0,0,1,685,-1075) translate(15.25925925925926 53.326388888888886)"/><use xlink:href="#e" transform="matrix(1,0,0,1,685,-1075) translate(13.302469135802468 90.6597222222222)"/><path d="M840-1065c0-8.28 6.72-15 15-15h110c8.28 0 15 6.72 15 15v110c0 8.28-6.72 15-15 15H855c-8.28 0-15-6.72-15-15z" stroke="#5e5e5e" stroke-width="3" fill="#141414"/><use xlink:href="#d" transform="matrix(1,0,0,1,845,-1075) translate(15.25925925925926 53.326388888888886)"/><use xlink:href="#e" transform="matrix(1,0,0,1,845,-1075) translate(13.302469135802468 90.6597222222222)"/><path d="M700-1234c0-3.3 2.7-6 6-6h228c3.3 0 6 2.7 6 6v48c0 3.3-2.7 6-6 6H706c-3.3 0-6-2.7-6-6z" stroke="#000" stroke-opacity="0" stroke-width="3" fill="#fff" fill-opacity="0"/><use xlink:href="#a" transform="matrix(1,0,0,1,705,-1235) translate(29.351851851851848 30.27777777777778)"/><use xlink:href="#f" transform="matrix(1,0,0,1,705,-1235) translate(126.6358024691358 30.27777777777778)"/><path d="M1080-954c0-3.3 2.7-6 6-6h228c3.3 0 6 2.7 6 6v48c0 3.3-2.7 6-6 6h-228c-3.3 0-6-2.7-6-6z" stroke="#000" stroke-opacity="0" stroke-width="3" fill="#fff" fill-opacity="0"/><use xlink:href="#a" transform="matrix(1,0,0,1,1085,-955) translate(12.129629629629619 30.27777777777778)"/><use xlink:href="#g" transform="matrix(1,0,0,1,1085,-955) translate(109.41358024691357 30.27777777777778)"/><path d="M1079-930h-76.5" stroke="#333" stroke-width="2" fill="none"/><path d="M1080-929h-1.03v-2h1.03M1002.53-929h-1.03v-2h1.03" fill="#333"/><path d="M820-1179v56.5" stroke="#333" stroke-width="2" fill="none"/><path d="M821-1178.97h-2v-1.03h2M821-1121.5h-2v-1.03h2" fill="#333"/><path d="M680-905c0-8.28 6.72-15 15-15h110c8.28 0 15 6.72 15 15v110c0 8.28-6.72 15-15 15H695c-8.28 0-15-6.72-15-15z" stroke="#5e5e5e" stroke-width="3" fill="#141414"/><use xlink:href="#d" transform="matrix(1,0,0,1,685,-915) translate(15.25925925925926 53.326388888888886)"/><use xlink:href="#e" transform="matrix(1,0,0,1,685,-915) translate(13.302469135802468 90.6597222222222)"/><path d="M360-954c0-3.3 2.7-6 6-6h208c3.3 0 6 2.7 6 6v48c0 3.3-2.7 6-6 6H366c-3.3 0-6-2.7-6-6z" stroke="#000" stroke-opacity="0" stroke-width="3" fill="#fff" fill-opacity="0"/><use xlink:href="#h" transform="matrix(1,0,0,1,365.0000000000001,-955) translate(16.172839506172835 30.27777777777778)"/><use xlink:href="#i" transform="matrix(1,0,0,1,365.0000000000001,-955) translate(128.39506172839506 30.27777777777778)"/><use xlink:href="#j" transform="matrix(1,0,0,1,365.0000000000001,-955) translate(158.02469135802468 30.27777777777778)"/><path d="M581-930h33c3.3 0 6 2.7 6 6v68c0 3.3 2.7 6 6 6h51.5" stroke="#333" stroke-width="2" fill="none"/><path d="M581.03-929H580v-2h1.03M678.5-849h-1.03v-2h1.03" fill="#333"/><path d="M581-930h33c3.3 0 6-2.7 6-6v-68c0-3.3 2.7-6 6-6h51.5" stroke="#333" stroke-width="2" fill="none"/><path d="M581.03-929H580v-2h1.03M678.5-1009h-1.03v-2h1.03" fill="#333"/><path d="M830-742.5v-15" stroke="#333" stroke-width="2" fill="none"/><path d="M831-741.5h-2v-1.03h2M831-757.47h-2v-1.03h2" fill="#333"/><defs><path fill="#333" d="M127-220V0H93v-220H8v-28h204v28h-85" id="k"/><path fill="#333" d="M100-194c63 0 86 42 84 106H49c0 40 14 67 53 68 26 1 43-12 49-29l28 8c-11 28-37 45-77 45C44 4 14-33 15-96c1-61 26-98 85-98zm52 81c6-60-76-77-97-28-3 7-6 17-6 28h103" id="l"/><path fill="#333" d="M210-169c-67 3-38 105-44 169h-31v-121c0-29-5-50-35-48C34-165 62-65 56 0H25l-1-190h30c1 10-1 24 2 32 10-44 99-50 107 0 11-21 27-35 58-36 85-2 47 119 55 194h-31v-121c0-29-5-49-35-48" id="m"/><path fill="#333" d="M115-194c55 1 70 41 70 98S169 2 115 4C84 4 66-9 55-30l1 105H24l-1-265h31l2 30c10-21 28-34 59-34zm-8 174c40 0 45-34 45-75s-6-73-45-74c-42 0-51 32-51 76 0 43 10 73 51 73" id="n"/><path fill="#333" d="M100-194c62-1 85 37 85 99 1 63-27 99-86 99S16-35 15-95c0-66 28-99 85-99zM99-20c44 1 53-31 53-75 0-43-8-75-51-75s-53 32-53 75 10 74 51 75" id="o"/><path fill="#333" d="M114-163C36-179 61-72 57 0H25l-1-190h30c1 12-1 29 2 39 6-27 23-49 58-41v29" id="p"/><path fill="#333" d="M141-36C126-15 110 5 73 4 37 3 15-17 15-53c-1-64 63-63 125-63 3-35-9-54-41-54-24 1-41 7-42 31l-33-3c5-37 33-52 76-52 45 0 72 20 72 64v82c-1 20 7 32 28 27v20c-31 9-61-2-59-35zM48-53c0 20 12 33 32 33 41-3 63-29 60-74-43 2-92-5-92 41" id="q"/><path fill="#333" d="M24 0v-261h32V0H24" id="r"/><g id="a"><use transform="matrix(0.06172839506172839,0,0,0.06172839506172839,0,0)" xlink:href="#k"/><use transform="matrix(0.06172839506172839,0,0,0.06172839506172839,11.049382716049381,0)" xlink:href="#l"/><use transform="matrix(0.06172839506172839,0,0,0.06172839506172839,23.39506172839506,0)" xlink:href="#m"/><use transform="matrix(0.06172839506172839,0,0,0.06172839506172839,41.85185185185185,0)" xlink:href="#n"/><use transform="matrix(0.06172839506172839,0,0,0.06172839506172839,54.197530864197525,0)" xlink:href="#o"/><use transform="matrix(0.06172839506172839,0,0,0.06172839506172839,66.5432098765432,0)" xlink:href="#p"/><use transform="matrix(0.06172839506172839,0,0,0.06172839506172839,73.88888888888889,0)" xlink:href="#q"/><use transform="matrix(0.06172839506172839,0,0,0.06172839506172839,86.23456790123457,0)" xlink:href="#r"/></g><path fill="#333" d="M30-248c87 1 191-15 191 75 0 78-77 80-158 76V0H30v-248zm33 125c57 0 124 11 124-50 0-59-68-47-124-48v98" id="s"/><path fill="#333" d="M59-47c-2 24 18 29 38 22v24C64 9 27 4 27-40v-127H5v-23h24l9-43h21v43h35v23H59v120" id="t"/><path fill="#333" d="M101-234c-31-9-42 10-38 44h38v23H63V0H32v-167H5v-23h27c-7-52 17-82 69-68v24" id="u"/><g id="b"><use transform="matrix(0.06172839506172839,0,0,0.06172839506172839,0,0)" xlink:href="#s"/><use transform="matrix(0.06172839506172839,0,0,0.06172839506172839,14.814814814814813,0)" xlink:href="#r"/><use transform="matrix(0.06172839506172839,0,0,0.06172839506172839,19.691358024691354,0)" xlink:href="#q"/><use transform="matrix(0.06172839506172839,0,0,0.06172839506172839,32.03703703703703,0)" xlink:href="#t"/><use transform="matrix(0.06172839506172839,0,0,0.06172839506172839,38.20987654320987,0)" xlink:href="#u"/><use transform="matrix(0.06172839506172839,0,0,0.06172839506172839,44.382716049382715,0)" xlink:href="#o"/><use transform="matrix(0.06172839506172839,0,0,0.06172839506172839,56.72839506172839,0)" xlink:href="#p"/><use transform="matrix(0.06172839506172839,0,0,0.06172839506172839,64.07407407407408,0)" xlink:href="#m"/></g><path fill="#333" d="M87 75C49 33 22-17 22-94c0-76 28-126 65-167h31c-38 41-64 92-64 168S80 34 118 75H87" id="v"/><path fill="#333" d="M233-177c-1 41-23 64-60 70L243 0h-38l-65-103H63V0H30v-248c88 3 205-21 203 71zM63-129c60-2 137 13 137-47 0-61-80-42-137-45v92" id="w"/><path fill="#333" d="M84 4C-5 8 30-112 23-190h32v120c0 31 7 50 39 49 72-2 45-101 50-169h31l1 190h-30c-1-10 1-25-2-33-11 22-28 36-60 37" id="x"/><path fill="#333" d="M117-194c89-4 53 116 60 194h-32v-121c0-31-8-49-39-48C34-167 62-67 57 0H25l-1-190h30c1 10-1 24 2 32 11-22 29-35 61-36" id="y"/><path fill="#333" d="M24-231v-30h32v30H24zM24 0v-190h32V0H24" id="z"/><path fill="#333" d="M33-261c38 41 65 92 65 168S71 34 33 75H2C39 34 66-17 66-93S39-220 2-261h31" id="A"/><g id="c"><use transform="matrix(0.06172839506172839,0,0,0.06172839506172839,0,0)" xlink:href="#v"/><use transform="matrix(0.06172839506172839,0,0,0.06172839506172839,7.345679012345679,0)" xlink:href="#w"/><use transform="matrix(0.06172839506172839,0,0,0.06172839506172839,23.333333333333332,0)" xlink:href="#x"/><use transform="matrix(0.06172839506172839,0,0,0.06172839506172839,35.67901234567901,0)" xlink:href="#y"/><use transform="matrix(0.06172839506172839,0,0,0.06172839506172839,48.02469135802469,0)" xlink:href="#t"/><use transform="matrix(0.06172839506172839,0,0,0.06172839506172839,54.19753086419753,0)" xlink:href="#z"/><use transform="matrix(0.06172839506172839,0,0,0.06172839506172839,59.074074074074076,0)" xlink:href="#m"/><use transform="matrix(0.06172839506172839,0,0,0.06172839506172839,77.53086419753086,0)" xlink:href="#l"/><use transform="matrix(0.06172839506172839,0,0,0.06172839506172839,89.87654320987654,0)" xlink:href="#A"/></g><path fill="#fff" d="M266 0h-40l-56-210L115 0H75L2-248h35L96-30l15-64 43-154h32l59 218 59-218h35" id="B"/><path fill="#fff" d="M100-194c62-1 85 37 85 99 1 63-27 99-86 99S16-35 15-95c0-66 28-99 85-99zM99-20c44 1 53-31 53-75 0-43-8-75-51-75s-53 32-53 75 10 74 51 75" id="C"/><path fill="#fff" d="M114-163C36-179 61-72 57 0H25l-1-190h30c1 12-1 29 2 39 6-27 23-49 58-41v29" id="D"/><path fill="#fff" d="M143 0L79-87 56-68V0H24v-261h32v163l83-92h37l-77 82L181 0h-38" id="E"/><path fill="#fff" d="M101-234c-31-9-42 10-38 44h38v23H63V0H32v-167H5v-23h27c-7-52 17-82 69-68v24" id="F"/><path fill="#fff" d="M24 0v-261h32V0H24" id="G"/><path fill="#fff" d="M206 0h-36l-40-164L89 0H53L-1-190h32L70-26l43-164h34l41 164 42-164h31" id="H"/><g id="d"><use transform="matrix(0.08641975308641973,0,0,0.08641975308641973,0,0)" xlink:href="#B"/><use transform="matrix(0.06172839506172839,0,0,0.06172839506172839,29.29629629629629,0)" xlink:href="#C"/><use transform="matrix(0.06172839506172839,0,0,0.06172839506172839,41.64197530864197,0)" xlink:href="#D"/><use transform="matrix(0.06172839506172839,0,0,0.06172839506172839,48.987654320987644,0)" xlink:href="#E"/><use transform="matrix(0.06172839506172839,0,0,0.06172839506172839,60.09876543209876,0)" xlink:href="#F"/><use transform="matrix(0.06172839506172839,0,0,0.06172839506172839,66.2716049382716,0)" xlink:href="#G"/><use transform="matrix(0.06172839506172839,0,0,0.06172839506172839,71.14814814814814,0)" xlink:href="#C"/><use transform="matrix(0.06172839506172839,0,0,0.06172839506172839,83.49382716049382,0)" xlink:href="#H"/></g><path fill="#fff" d="M30 0v-248h187v28H63v79h144v27H63v87h162V0H30" id="I"/><path fill="#fff" d="M141 0L90-78 38 0H4l68-98-65-92h35l48 74 47-74h35l-64 92 68 98h-35" id="J"/><path fill="#fff" d="M100-194c63 0 86 42 84 106H49c0 40 14 67 53 68 26 1 43-12 49-29l28 8c-11 28-37 45-77 45C44 4 14-33 15-96c1-61 26-98 85-98zm52 81c6-60-76-77-97-28-3 7-6 17-6 28h103" id="K"/><path fill="#fff" d="M96-169c-40 0-48 33-48 73s9 75 48 75c24 0 41-14 43-38l32 2c-6 37-31 61-74 61-59 0-76-41-82-99-10-93 101-131 147-64 4 7 5 14 7 22l-32 3c-4-21-16-35-41-35" id="L"/><path fill="#fff" d="M84 4C-5 8 30-112 23-190h32v120c0 31 7 50 39 49 72-2 45-101 50-169h31l1 190h-30c-1-10 1-25-2-33-11 22-28 36-60 37" id="M"/><path fill="#fff" d="M59-47c-2 24 18 29 38 22v24C64 9 27 4 27-40v-127H5v-23h24l9-43h21v43h35v23H59v120" id="N"/><path fill="#fff" d="M24-231v-30h32v30H24zM24 0v-190h32V0H24" id="O"/><path fill="#fff" d="M117-194c89-4 53 116 60 194h-32v-121c0-31-8-49-39-48C34-167 62-67 57 0H25l-1-190h30c1 10-1 24 2 32 11-22 29-35 61-36" id="P"/><g id="e"><use transform="matrix(0.0864197530864197,0,0,0.0864197530864197,0,0)" xlink:href="#I"/><use transform="matrix(0.06172839506172839,0,0,0.06172839506172839,20.74074074074073,0)" xlink:href="#J"/><use transform="matrix(0.06172839506172839,0,0,0.06172839506172839,31.851851851851844,0)" xlink:href="#K"/><use transform="matrix(0.06172839506172839,0,0,0.06172839506172839,44.19753086419752,0)" xlink:href="#L"/><use transform="matrix(0.06172839506172839,0,0,0.06172839506172839,55.30864197530863,0)" xlink:href="#M"/><use transform="matrix(0.06172839506172839,0,0,0.06172839506172839,67.65432098765432,0)" xlink:href="#N"/><use transform="matrix(0.06172839506172839,0,0,0.06172839506172839,73.82716049382715,0)" xlink:href="#O"/><use transform="matrix(0.06172839506172839,0,0,0.06172839506172839,78.7037037037037,0)" xlink:href="#C"/><use transform="matrix(0.06172839506172839,0,0,0.06172839506172839,91.04938271604938,0)" xlink:href="#P"/></g><path fill="#333" d="M185-189c-5-48-123-54-124 2 14 75 158 14 163 119 3 78-121 87-175 55-17-10-28-26-33-46l33-7c5 56 141 63 141-1 0-78-155-14-162-118-5-82 145-84 179-34 5 7 8 16 11 25" id="Q"/><path fill="#333" d="M179-190L93 31C79 59 56 82 12 73V49c39 6 53-20 64-50L1-190h34L92-34l54-156h33" id="R"/><path fill="#333" d="M135-143c-3-34-86-38-87 0 15 53 115 12 119 90S17 21 10-45l28-5c4 36 97 45 98 0-10-56-113-15-118-90-4-57 82-63 122-42 12 7 21 19 24 35" id="S"/><g id="f"><use transform="matrix(0.06172839506172839,0,0,0.06172839506172839,0,0)" xlink:href="#Q"/><use transform="matrix(0.06172839506172839,0,0,0.06172839506172839,14.814814814814813,0)" xlink:href="#R"/><use transform="matrix(0.06172839506172839,0,0,0.06172839506172839,25.925925925925924,0)" xlink:href="#S"/><use transform="matrix(0.06172839506172839,0,0,0.06172839506172839,37.03703703703704,0)" xlink:href="#t"/><use transform="matrix(0.06172839506172839,0,0,0.06172839506172839,43.20987654320988,0)" xlink:href="#l"/><use transform="matrix(0.06172839506172839,0,0,0.06172839506172839,55.55555555555556,0)" xlink:href="#m"/></g><path fill="#333" d="M205 0l-28-72H64L36 0H1l101-248h38L239 0h-34zm-38-99l-47-123c-12 45-31 82-46 123h93" id="T"/><path fill="#333" d="M96-169c-40 0-48 33-48 73s9 75 48 75c24 0 41-14 43-38l32 2c-6 37-31 61-74 61-59 0-76-41-82-99-10-93 101-131 147-64 4 7 5 14 7 22l-32 3c-4-21-16-35-41-35" id="U"/><g id="g"><use transform="matrix(0.06172839506172839,0,0,0.06172839506172839,0,0)" xlink:href="#T"/><use transform="matrix(0.06172839506172839,0,0,0.06172839506172839,14.814814814814813,0)" xlink:href="#n"/><use transform="matrix(0.06172839506172839,0,0,0.06172839506172839,27.160493827160494,0)" xlink:href="#n"/><use transform="matrix(0.06172839506172839,0,0,0.06172839506172839,39.50617283950617,0)" xlink:href="#r"/><use transform="matrix(0.06172839506172839,0,0,0.06172839506172839,44.382716049382715,0)" xlink:href="#z"/><use transform="matrix(0.06172839506172839,0,0,0.06172839506172839,49.25925925925926,0)" xlink:href="#U"/><use transform="matrix(0.06172839506172839,0,0,0.06172839506172839,60.37037037037037,0)" xlink:href="#q"/><use transform="matrix(0.06172839506172839,0,0,0.06172839506172839,72.71604938271605,0)" xlink:href="#t"/><use transform="matrix(0.06172839506172839,0,0,0.06172839506172839,78.88888888888889,0)" xlink:href="#z"/><use transform="matrix(0.06172839506172839,0,0,0.06172839506172839,83.76543209876543,0)" xlink:href="#o"/><use transform="matrix(0.06172839506172839,0,0,0.06172839506172839,96.11111111111111,0)" xlink:href="#y"/></g><path fill="#333" d="M30-248c118-7 216 8 213 122C240-48 200 0 122 0H30v-248zM63-27c89 8 146-16 146-99s-60-101-146-95v194" id="V"/><path fill="#333" d="M108 0H70L1-190h34L89-25l56-165h34" id="W"/><path fill="#333" d="M85-194c31 0 48 13 60 33l-1-100h32l1 261h-30c-2-10 0-23-3-31C134-8 116 4 85 4 32 4 16-35 15-94c0-66 23-100 70-100zm9 24c-40 0-46 34-46 75 0 40 6 74 45 74 42 0 51-32 51-76 0-42-9-74-50-73" id="X"/><g id="h"><use transform="matrix(0.06172839506172839,0,0,0.06172839506172839,0,0)" xlink:href="#V"/><use transform="matrix(0.06172839506172839,0,0,0.06172839506172839,15.987654320987653,0)" xlink:href="#l"/><use transform="matrix(0.06172839506172839,0,0,0.06172839506172839,28.333333333333332,0)" xlink:href="#W"/><use transform="matrix(0.06172839506172839,0,0,0.06172839506172839,39.44444444444444,0)" xlink:href="#l"/><use transform="matrix(0.06172839506172839,0,0,0.06172839506172839,51.79012345679012,0)" xlink:href="#r"/><use transform="matrix(0.06172839506172839,0,0,0.06172839506172839,56.666666666666664,0)" xlink:href="#o"/><use transform="matrix(0.06172839506172839,0,0,0.06172839506172839,69.01234567901234,0)" xlink:href="#n"/><use transform="matrix(0.06172839506172839,0,0,0.06172839506172839,81.35802469135803,0)" xlink:href="#l"/><use transform="matrix(0.06172839506172839,0,0,0.06172839506172839,93.70370370370371,0)" xlink:href="#X"/></g><path fill="#333" d="M115-194c53 0 69 39 70 98 0 66-23 100-70 100C84 3 66-7 56-30L54 0H23l1-261h32v101c10-23 28-34 59-34zm-8 174c40 0 45-34 45-75 0-40-5-75-45-74-42 0-51 32-51 76 0 43 10 73 51 73" id="Y"/><g id="i"><use transform="matrix(0.06172839506172839,0,0,0.06172839506172839,0,0)" xlink:href="#Y"/><use transform="matrix(0.06172839506172839,0,0,0.06172839506172839,12.345679012345679,0)" xlink:href="#R"/></g><g id="j"><use transform="matrix(0.06172839506172839,0,0,0.06172839506172839,0,0)" xlink:href="#R"/><use transform="matrix(0.06172839506172839,0,0,0.06172839506172839,11.11111111111111,0)" xlink:href="#o"/><use transform="matrix(0.06172839506172839,0,0,0.06172839506172839,23.45679012345679,0)" xlink:href="#x"/></g></defs></g></svg>