<svg xmlns="http://www.w3.org/2000/svg" xmlns:xlink="http://www.w3.org/1999/xlink" xmlns:lucid="lucid" width="1909.5" height="2019.33"><g transform="translate(3280 840)" lucid:page-tab-id="0_0"><path d="M-3220-425c0-8.28 6.72-15 15-15h1750c8.28 0 15 6.72 15 15V955c0 8.28-6.72 15-15 15h-1750c-8.28 0-15-6.72-15-15z" stroke="#333" stroke-width="3" fill="#e5e5e5"/><use xlink:href="#a" transform="matrix(1,0,0,1,-3188,-408) translate(1463.3703703703704 49.88888888888887)"/><use xlink:href="#b" transform="matrix(1,0,0,1,-3188,-408) translate(1599.567901234568 49.88888888888887)"/><path d="M-3240-445c0-8.28 6.72-15 15-15h1750c8.28 0 15 6.72 15 15V935c0 8.28-6.72 15-15 15h-1750c-8.28 0-15-6.72-15-15z" stroke="#333" stroke-width="3" fill="#e5e5e5"/><use xlink:href="#a" transform="matrix(1,0,0,1,-3208,-428) translate(1463.3703703703704 49.88888888888887)"/><use xlink:href="#b" transform="matrix(1,0,0,1,-3208,-428) translate(1599.567901234568 49.88888888888887)"/><path d="M-3260-465c0-8.28 6.72-15 15-15h1750c8.28 0 15 6.72 15 15V915c0 8.28-6.72 15-15 15h-1750c-8.28 0-15-6.72-15-15z" stroke="#333" stroke-width="3" fill="#fff"/><use xlink:href="#a" transform="matrix(1,0,0,1,-3228,-448) translate(1463.3703703703704 49.88888888888887)"/><use xlink:href="#b" transform="matrix(1,0,0,1,-3228,-448) translate(1599.567901234568 49.88888888888887)"/><path d="M-3119.05-285c0-8.28 6.72-15 15-15H-1555c8.28 0 15 6.72 15 15v90c0 8.28-6.72 15-15 15h-1549.05c-8.28 0-15-6.72-15-15z" stroke="#333" stroke-width="3" fill="#e5e5e5"/><use xlink:href="#c" transform="matrix(1,0,0,1,-3114.046703404979,-295) translate(666.7777777777778 62.70138888888888)"/><use xlink:href="#d" transform="matrix(1,0,0,1,-3114.046703404979,-295) translate(799.6913580246913 62.70138888888888)"/><path d="M-3139.05-305c0-8.28 6.72-15 15-15H-1575c8.28 0 15 6.72 15 15v90c0 8.28-6.72 15-15 15h-1549.05c-8.28 0-15-6.72-15-15z" stroke="#333" stroke-width="3" fill="#e5e5e5"/><use xlink:href="#c" transform="matrix(1,0,0,1,-3134.046703404979,-315) translate(666.7777777777778 62.70138888888888)"/><use xlink:href="#d" transform="matrix(1,0,0,1,-3134.046703404979,-315) translate(799.6913580246913 62.70138888888888)"/><path d="M-3159.05-325c0-8.28 6.72-15 15-15H-1595c8.28 0 15 6.72 15 15v90c0 8.28-6.72 15-15 15h-1549.05c-8.28 0-15-6.72-15-15z" stroke="#333" stroke-width="3" fill="#fff"/><use xlink:href="#c" transform="matrix(1,0,0,1,-3154.0467034049784,-335) translate(666.7777777777778 62.70138888888888)"/><use xlink:href="#d" transform="matrix(1,0,0,1,-3154.0467034049784,-335) translate(799.6913580246913 62.70138888888888)"/><path d="M-3200 555c0-8.28 6.72-15 15-15h1050c8.28 0 15 6.72 15 15v310c0 8.28-6.72 15-15 15h-1050c-8.28 0-15-6.72-15-15z" stroke="#333" stroke-width="3" fill="#fff"/><use xlink:href="#e" transform="matrix(1,0,0,1,-3172,568) translate(445.5 275.74324408888884)"/><path d="M-3118.16-5c0-8.28 6.72-15 15-15h190c8.28 0 15 6.72 15 15v182.25c0 8.3-6.72 15-15 15h-190c-8.28 0-15-6.7-15-15z" stroke="#333" stroke-width="3" fill="#e5e5e5"/><use xlink:href="#f" transform="matrix(1,0,0,1,-3113.160350733924,-15.000000000000114) translate(42.50000000000004 88.32638888888889)"/><use xlink:href="#d" transform="matrix(1,0,0,1,-3113.160350733924,-15.000000000000114) translate(53.7345679012346 125.6597222222222)"/><path d="M-3138.16-25c0-8.28 6.72-15 15-15h190c8.28 0 15 6.72 15 15v182.25c0 8.3-6.72 15-15 15h-190c-8.28 0-15-6.7-15-15z" stroke="#333" stroke-width="3" fill="#e5e5e5"/><use xlink:href="#f" transform="matrix(1,0,0,1,-3133.160350733924,-35.00000000000023) translate(42.50000000000004 88.32638888888889)"/><use xlink:href="#d" transform="matrix(1,0,0,1,-3133.160350733924,-35.00000000000023) translate(53.7345679012346 125.6597222222222)"/><path d="M-3158.16-45c0-8.28 6.72-15 15-15h190c8.28 0 15 6.72 15 15v182.25c0 8.3-6.72 15-15 15h-190c-8.28 0-15-6.7-15-15z" stroke="#333" stroke-width="3" fill="#fff"/><use xlink:href="#f" transform="matrix(1,0,0,1,-3153.160350733924,-55.000000000000114) translate(42.50000000000004 88.32638888888889)"/><use xlink:href="#d" transform="matrix(1,0,0,1,-3153.160350733924,-55.000000000000114) translate(53.7345679012346 125.6597222222222)"/><path d="M-3050 577.5V154.75" stroke="#333" stroke-width="2" fill="none"/><path d="M-3049 578.5h-2v-1.03h2zM-3049 154.78h-2v-1.03h2z" fill="#333"/><path d="M-3048.16-62.5v-155" stroke="#333" stroke-width="2" fill="none"/><path d="M-3047.16-61.5h-2v-1.03h2zM-3047.16-217.47h-2v-1.03h2z" fill="#333"/><path d="M-3160 595c0-8.28 6.72-15 15-15h190c8.28 0 15 6.72 15 15v182.25c0 8.3-6.72 15-15 15h-190c-8.28 0-15-6.7-15-15z" stroke="#333" stroke-width="3" fill="#fff"/><use xlink:href="#g" transform="matrix(1,0,0,1,-3155,584.9999999999999) translate(73.56790123456793 88.32638888888889)"/><use xlink:href="#h" transform="matrix(1,0,0,1,-3155,584.9999999999999) translate(53.69135802469138 125.6597222222222)"/><path d="M-2900 595c0-8.28 6.72-15 15-15h190c8.28 0 15 6.72 15 15v182.25c0 8.3-6.72 15-15 15h-190c-8.28 0-15-6.7-15-15z" stroke="#333" stroke-width="3" fill="#fff"/><use xlink:href="#i" transform="matrix(1,0,0,1,-2895,584.9999999999999) translate(42.024691358024725 88.32638888888889)"/><use xlink:href="#j" transform="matrix(1,0,0,1,-2895,584.9999999999999) translate(53.69135802469138 125.6597222222222)"/><path d="M-2790 577.5V180.37c0-.2.16-.37.37-.37.2 0 .36-.16.36-.37V-217.5" stroke="#333" stroke-width="2" fill="none"/><path d="M-2789 578.5h-2v-1.03h2zM-2788.27-217.47h-2v-1.03h2z" fill="#333"/><path d="M-2640 595c0-8.28 6.72-15 15-15h190c8.28 0 15 6.72 15 15v182.25c0 8.3-6.72 15-15 15h-190c-8.28 0-15-6.7-15-15z" stroke="#333" stroke-width="3" fill="#fff"/><use xlink:href="#k" transform="matrix(1,0,0,1,-2635,584.9999999999999) translate(65.74691358024694 88.32638888888889)"/><use xlink:href="#h" transform="matrix(1,0,0,1,-2635,584.9999999999999) translate(53.69135802469138 125.6597222222222)"/><path d="M-2380 595c0-8.28 6.72-15 15-15h190c8.28 0 15 6.72 15 15v182.25c0 8.3-6.72 15-15 15h-190c-8.28 0-15-6.7-15-15z" stroke="#333" stroke-width="3" fill="#fff"/><use xlink:href="#l" transform="matrix(1,0,0,1,-2375,584.9999999999999) translate(49.84567901234572 88.32638888888889)"/><use xlink:href="#h" transform="matrix(1,0,0,1,-2375,584.9999999999999) translate(53.69135802469138 125.6597222222222)"/><path d="M-2599.43-5c0-8.28 6.72-15 15-15h190c8.3 0 15 6.72 15 15v182.25c0 8.3-6.7 15-15 15h-190c-8.28 0-15-6.7-15-15z" stroke="#333" stroke-width="3" fill="#e5e5e5"/><use xlink:href="#m" transform="matrix(1,0,0,1,-2594.4268153384364,-14.999999999999545) translate(57.2345679012346 88.32638888888889)"/><use xlink:href="#n" transform="matrix(1,0,0,1,-2594.4268153384364,-14.999999999999545) translate(53.7345679012346 125.6597222222222)"/><path d="M-2619.43-25c0-8.28 6.72-15 15-15h190c8.3 0 15 6.72 15 15v182.25c0 8.3-6.7 15-15 15h-190c-8.28 0-15-6.7-15-15z" stroke="#333" stroke-width="3" fill="#e5e5e5"/><use xlink:href="#m" transform="matrix(1,0,0,1,-2614.4268153384364,-34.99999999999966) translate(57.2345679012346 88.32638888888889)"/><use xlink:href="#n" transform="matrix(1,0,0,1,-2614.4268153384364,-34.99999999999966) translate(53.7345679012346 125.6597222222222)"/><path d="M-2639.43-45c0-8.28 6.72-15 15-15h190c8.3 0 15 6.72 15 15v182.25c0 8.3-6.7 15-15 15h-190c-8.28 0-15-6.7-15-15z" stroke="#333" stroke-width="3" fill="#fff"/><use xlink:href="#m" transform="matrix(1,0,0,1,-2634.4268153384364,-54.99999999999966) translate(57.2345679012346 88.32638888888889)"/><use xlink:href="#n" transform="matrix(1,0,0,1,-2634.4268153384364,-54.99999999999966) translate(53.7345679012346 125.6597222222222)"/><path d="M-2308.9 577.5V426c0-3.3-2.7-6-6-6h-153.63c-3.32 0-6-2.7-6-6V154.75" stroke="#333" stroke-width="2" fill="none"/><path d="M-2307.9 578.5h-2v-1.03h2zM-2473.53 154.78h-2v-1.03h2z" fill="#333"/><path d="M-2270 577.5V180.2c0-.1.1-.2.2-.2.12 0 .22-.1.22-.2v-397.3" stroke="#333" stroke-width="2" fill="none"/><path d="M-2269 578.5h-2v-1.03h2zM-2268.58-217.47h-2v-1.03h2z" fill="#333"/><path d="M-2529.43-62.5v-155" stroke="#333" stroke-width="2" fill="none"/><path d="M-2528.43-61.5h-2v-1.03h2zM-2528.43-217.47h-2v-1.03h2z" fill="#333"/><path d="M-2120.95-45c0-8.28 6.7-15 15-15h190c8.28 0 15 6.72 15 15v182.25c0 8.3-6.72 15-15 15h-190c-8.3 0-15-6.7-15-15z" stroke="#333" stroke-width="3" fill="#fff"/><use xlink:href="#o" transform="matrix(1,0,0,1,-2115.9532965950216,-54.999999999999886) translate(13.160493827160536 107.35763888888889)"/><path d="M-2010.95-62.5v-77.37c0-.07.05-.13.13-.13.07 0 .13-.06.13-.13v-77.37" stroke="#333" stroke-width="2" fill="none"/><path d="M-2009.95-61.5h-2v-1.03h2zM-2009.7-217.47h-2v-1.03h2z" fill="#333"/><path d="M-2123.45 46.13h-293.47" stroke="#333" stroke-width="2" fill="none"/><path d="M-2122.45 47.13h-1.03v-2h1.03zM-2416.9 47.13h-1.03v-2h1.03z" fill="#333"/><path d="M-1770-5c0-8.28 6.72-15 15-15h190c8.28 0 15 6.72 15 15v182.25c0 8.3-6.72 15-15 15h-190c-8.28 0-15-6.7-15-15z" stroke="#333" stroke-width="3" fill="#e5e5e5"/><use xlink:href="#p" transform="matrix(1,0,0,1,-1765,-14.999999999999545) translate(55.80864197530866 88.32638888888889)"/><use xlink:href="#n" transform="matrix(1,0,0,1,-1765,-14.999999999999545) translate(53.7345679012346 125.6597222222222)"/><path d="M-1790-25c0-8.28 6.72-15 15-15h190c8.28 0 15 6.72 15 15v182.25c0 8.3-6.72 15-15 15h-190c-8.28 0-15-6.7-15-15z" stroke="#333" stroke-width="3" fill="#e5e5e5"/><use xlink:href="#p" transform="matrix(1,0,0,1,-1785,-34.99999999999966) translate(55.80864197530866 88.32638888888889)"/><use xlink:href="#n" transform="matrix(1,0,0,1,-1785,-34.99999999999966) translate(53.7345679012346 125.6597222222222)"/><path d="M-1810-45c0-8.28 6.72-15 15-15h190c8.28 0 15 6.72 15 15v182.25c0 8.3-6.72 15-15 15h-190c-8.28 0-15-6.7-15-15z" stroke="#333" stroke-width="3" fill="#fff"/><use xlink:href="#p" transform="matrix(1,0,0,1,-1805,-54.99999999999966) translate(55.80864197530866 88.32638888888889)"/><use xlink:href="#n" transform="matrix(1,0,0,1,-1805,-54.99999999999966) translate(53.7345679012346 125.6597222222222)"/><path d="M-1700-62.5v-77.46c0-.02.02-.04.04-.04s.03-.02.03-.04v-77.46" stroke="#5e5e5e" stroke-width="2" fill="none"/><path d="M-1699-61.5h-2v-1.03h2zM-1698.93-217.47h-2v-1.03h2z" fill="#5e5e5e"/><path d="M-2020 635c0-3.3 2.7-6 6-6h388c3.3 0 6 2.7 6 6v119c0 3.3-2.7 6-6 6h-388c-3.3 0-6-2.7-6-6z" stroke="#000" stroke-opacity="0" stroke-width="3" fill="#fff" fill-opacity="0"/><use xlink:href="#q" transform="matrix(1,0,0,1,-2015,634) translate(24.882716049382736 47.576388888888886)"/><use xlink:href="#r" transform="matrix(1,0,0,1,-2015,634) translate(192.3641975308642 47.576388888888886)"/><use xlink:href="#s" transform="matrix(1,0,0,1,-2015,634) translate(313.2654320987654 47.576388888888886)"/><use xlink:href="#t" transform="matrix(1,0,0,1,-2015,634) translate(6.172839506172863 84.90972222222221)"/><use xlink:href="#u" transform="matrix(1,0,0,1,-2015,634) translate(183.50617283950615 84.90972222222221)"/><use xlink:href="#v" transform="matrix(1,0,0,1,-2015,634) translate(236.99999999999997 84.90972222222221)"/><path d="M-2021 694.5h-96.5" stroke="#333" stroke-width="2" fill="none"/><path d="M-2020 695.5h-1.03v-2h1.03zM-2117.47 695.5h-1.03v-2h1.03z" fill="#333"/><path d="M-2140 246c0-3.3 2.7-6 6-6h248c3.3 0 6 2.7 6 6v119c0 3.3-2.7 6-6 6h-248c-3.3 0-6-2.7-6-6z" stroke="#000" stroke-opacity="0" stroke-width="3" fill="#fff" fill-opacity="0"/><use xlink:href="#w" transform="matrix(1,0,0,1,-2135,245) translate(36.93827160493829 47.576388888888886)"/><use xlink:href="#x" transform="matrix(1,0,0,1,-2135,245) translate(169.85185185185185 47.576388888888886)"/><use xlink:href="#y" transform="matrix(1,0,0,1,-2135,245) translate(25.74691358024694 84.90972222222221)"/><path d="M-2010 239v-84.25" stroke="#333" stroke-width="2" fill="none"/><path d="M-2009 240h-2v-1.03h2zM-2009 154.78h-2v-1.03h2z" fill="#333"/><path d="M-1640 242.94c0-3.32 2.7-6 6-6h127c3.3 0 6 2.68 6 6v44.12c0 3.32-2.7 6-6 6h-127c-3.3 0-6-2.68-6-6z" stroke="#000" stroke-opacity="0" stroke-width="3" fill="#fff" fill-opacity="0"/><use xlink:href="#z" transform="matrix(1,0,0,1,-1635,241.93706687933116) translate(4.956790123456798 30.763888888888886)"/><path d="M-1570.5 235.94v-41.2" stroke="#333" stroke-width="2" fill="none"/><path d="M-1569.5 236.94h-2v-1.03h2zM-1569.5 194.78h-2v-1.03h2z" fill="#333"/><path d="M-2980 246c0-3.3 2.7-6 6-6h127c3.3 0 6 2.7 6 6v44.13c0 3.3-2.7 6-6 6h-127c-3.3 0-6-2.7-6-6z" stroke="#000" stroke-opacity="0" stroke-width="3" fill="#fff" fill-opacity="0"/><use xlink:href="#z" transform="matrix(1,0,0,1,-2974.9999999999995,244.9999999999999) translate(4.956790123456798 30.763888888888886)"/><path d="M-2910.5 239v-44.58" stroke="#333" stroke-width="2" fill="none"/><path d="M-2909.5 240h-2v-1.03h2zM-2909.5 194.44h-2v-.9l2-.25z" fill="#333"/><path d="M-2587.4 154.75V414c0 3.3-2.68 6-6 6h-147.17c-3.3 0-6 2.7-6 6v151.5" stroke="#333" stroke-width="2" fill="none"/><path d="M-2586.4 154.78h-2v-1.03h2zM-2745.57 578.5h-2v-1.03h2z" fill="#333"/><path d="M-2530 577.5V154.75" stroke="#333" stroke-width="2" fill="none"/><path d="M-2529 578.5h-2v-1.03h2zM-2529 154.78h-2v-1.03h2z" fill="#333"/><path d="M-2460 242.94c0-3.32 2.7-6 6-6h127c3.3 0 6 2.68 6 6v44.12c0 3.32-2.7 6-6 6h-127c-3.3 0-6-2.68-6-6z" stroke="#000" stroke-opacity="0" stroke-width="3" fill="#fff" fill-opacity="0"/><use xlink:href="#z" transform="matrix(1,0,0,1,-2455,241.93706687933116) translate(4.956790123456798 30.763888888888886)"/><path d="M-2390.5 235.94v-41.7" stroke="#333" stroke-width="2" fill="none"/><path d="M-2389.5 236.94h-2v-1.03h2zM-2389.5 194.28h-2v-.9l1.36-.18.64-.26z" fill="#333"/><path d="M-1628.74-134c0-3.3 2.7-6 6-6h127c3.3 0 6 2.7 6 6v44.13c0 3.3-2.7 6-6 6h-127c-3.3 0-6-2.7-6-6z" stroke="#000" stroke-opacity="0" stroke-width="3" fill="#fff" fill-opacity="0"/><use xlink:href="#z" transform="matrix(1,0,0,1,-1623.736239417751,-135) translate(4.956790123456798 30.763888888888886)"/><path d="M-1559.24-141v-36.5" stroke="#333" stroke-width="2" fill="none"/><path d="M-1558.24-140h-2v-1.03h2zM-1558.24-177.47h-2v-1.03h2z" fill="#333"/><path d="M-3160-805c0-8.28 6.72-15 15-15h190c8.28 0 15 6.72 15 15v182.25c0 8.3-6.72 15-15 15h-190c-8.28 0-15-6.7-15-15z" stroke="#333" stroke-width="3" fill="#fff"/><use xlink:href="#A" transform="matrix(1,0,0,1,-3155,-815) translate(85.66666666666667 107.35763888888889)"/><path d="M-2780-805c0-8.28 6.72-15 15-15h190c8.28 0 15 6.72 15 15v182.25c0 8.3-6.72 15-15 15h-190c-8.28 0-15-6.7-15-15z" stroke="#333" stroke-width="3" fill="#fff"/><use xlink:href="#B" transform="matrix(1,0,0,1,-2775,-815) translate(54.03703703703707 107.35763888888889)"/><use xlink:href="#C" transform="matrix(1,0,0,1,-2775,-815) translate(125.93827160493827 107.35763888888889)"/><path d="M-3050-605.25v262.75" stroke="#333" stroke-width="2" fill="none"/><path d="M-3049-605.22h-2v-1.03h2zM-3049-341.5h-2v-1.03h2z" fill="#333"/><path d="M-2670-605.25v262.75" stroke="#333" stroke-width="2" fill="none"/><path d="M-2669-605.22h-2v-1.03h2zM-2669-341.5h-2v-1.03h2z" fill="#333"/><path d="M-2400-805c0-8.28 6.72-15 15-15h190c8.28 0 15 6.72 15 15v182.25c0 8.3-6.72 15-15 15h-190c-8.28 0-15-6.7-15-15z" stroke="#333" stroke-width="3" fill="#fff"/><g><use xlink:href="#D" transform="matrix(1,0,0,1,-2395,-815) translate(55.80864197530866 88.32638888888889)"/><use xlink:href="#E" transform="matrix(1,0,0,1,-2395,-815) translate(32.95061728395066 125.6597222222222)"/></g><path d="M-2010-805c0-8.28 6.72-15 15-15h190c8.28 0 15 6.72 15 15v182.25c0 8.3-6.72 15-15 15h-190c-8.28 0-15-6.7-15-15z" stroke="#333" stroke-width="3" fill="#fff"/><g><use xlink:href="#F" transform="matrix(1,0,0,1,-2005,-815) translate(29.623456790123498 88.32638888888889)"/><use xlink:href="#G" transform="matrix(1,0,0,1,-2005,-815) translate(102.12962962962963 88.32638888888889)"/><use xlink:href="#H" transform="matrix(1,0,0,1,-2005,-815) translate(39.86419753086423 125.6597222222222)"/></g><path d="M-2290-605.25v262.75" stroke="#333" stroke-width="2" fill="none"/><path d="M-2289-605.22h-2v-1.03h2zM-2289-341.5h-2v-1.03h2z" fill="#333"/><path d="M-1900-605.25v262.75" stroke="#333" stroke-width="2" fill="none"/><path d="M-1899-605.22h-2v-1.03h2zM-1899-341.5h-2v-1.03h2z" fill="#333"/><path d="M-1750.5 1006c0-3.3 2.68-6 6-6h348c3.3 0 6 2.7 6 6v147.33c0 3.32-2.7 6-6 6h-348c-3.32 0-6-2.68-6-6z" stroke="#000" stroke-opacity="0" stroke-width="3" fill="#fff" fill-opacity="0"/><g><use xlink:href="#I" transform="matrix(1,0,0,1,-1745.503702801065,1005) translate(13.506172839506206 62.388888888888886)"/><use xlink:href="#J" transform="matrix(1,0,0,1,-1745.503702801065,1005) translate(196.11111111111111 62.388888888888886)"/><use xlink:href="#K" transform="matrix(1,0,0,1,-1745.503702801065,1005) translate(90.89506172839508 99.72222222222221)"/><use xlink:href="#L" transform="matrix(1,0,0,1,-1745.503702801065,1005) translate(121.91975308641976 99.72222222222221)"/></g><path d="M-1570.5 999v-26.5" stroke="#333" stroke-width="2" fill="none"/><path d="M-1569.5 1000h-2v-1.03h2zM-1569.5 972.53h-2v-1.03h2z" fill="#333"/><path d="M-2560 1006c0-3.3 2.7-6 6-6h528c3.3 0 6 2.7 6 6v147.33c0 3.32-2.7 6-6 6h-528c-3.3 0-6-2.68-6-6z" stroke="#000" stroke-opacity="0" stroke-width="3" fill="#fff" fill-opacity="0"/><g><use xlink:href="#M" transform="matrix(1,0,0,1,-2555,1005) translate(36.54938271604942 43.638888888888886)"/><use xlink:href="#N" transform="matrix(1,0,0,1,-2555,1005) translate(64.80864197530867 43.638888888888886)"/><use xlink:href="#O" transform="matrix(1,0,0,1,-2555,1005) translate(154.51234567901236 43.638888888888886)"/><use xlink:href="#P" transform="matrix(1,0,0,1,-2555,1005) translate(278.8703703703704 43.638888888888886)"/><use xlink:href="#Q" transform="matrix(1,0,0,1,-2555,1005) translate(313.4382716049383 43.638888888888886)"/><use xlink:href="#R" transform="matrix(1,0,0,1,-2555,1005) translate(365.2901234567901 43.638888888888886)"/><use xlink:href="#S" transform="matrix(1,0,0,1,-2555,1005) translate(0.9012345679012697 80.97222222222221)"/><use xlink:href="#T" transform="matrix(1,0,0,1,-2555,1005) translate(100.97530864197532 80.97222222222221)"/><use xlink:href="#U" transform="matrix(1,0,0,1,-2555,1005) translate(161.4691358024691 80.97222222222221)"/><use xlink:href="#V" transform="matrix(1,0,0,1,-2555,1005) translate(201.04938271604934 80.97222222222221)"/><use xlink:href="#P" transform="matrix(1,0,0,1,-2555,1005) translate(340.96296296296293 80.97222222222221)"/><use xlink:href="#W" transform="matrix(1,0,0,1,-2555,1005) translate(375.53086419753083 80.97222222222221)"/><use xlink:href="#X" transform="matrix(1,0,0,1,-2555,1005) translate(415.19753086419746 80.97222222222221)"/><use xlink:href="#K" transform="matrix(1,0,0,1,-2555,1005) translate(107.11111111111114 118.30555555555554)"/><use xlink:href="#Y" transform="matrix(1,0,0,1,-2555,1005) translate(138.13580246913583 118.30555555555554)"/><use xlink:href="#Z" transform="matrix(1,0,0,1,-2555,1005) translate(298.7037037037037 118.30555555555554)"/><use xlink:href="#aa" transform="matrix(1,0,0,1,-2555,1005) translate(324.6296296296296 118.30555555555554)"/></g><path d="M-2290 999v-66.5" stroke="#333" stroke-width="2" fill="none"/><path d="M-2289 1000h-2v-1.03h2zM-2289 932.53h-2v-1.03h2z" fill="#333"/><defs><path fill="#333" d="M127-220V0H93v-220H8v-28h204v28h-85" id="ab"/><path fill="#333" d="M100-194c63 0 86 42 84 106H49c0 40 14 67 53 68 26 1 43-12 49-29l28 8c-11 28-37 45-77 45C44 4 14-33 15-96c1-61 26-98 85-98zm52 81c6-60-76-77-97-28-3 7-6 17-6 28h103" id="ac"/><path fill="#333" d="M210-169c-67 3-38 105-44 169h-31v-121c0-29-5-50-35-48C34-165 62-65 56 0H25l-1-190h30c1 10-1 24 2 32 10-44 99-50 107 0 11-21 27-35 58-36 85-2 47 119 55 194h-31v-121c0-29-5-49-35-48" id="ad"/><path fill="#333" d="M115-194c55 1 70 41 70 98S169 2 115 4C84 4 66-9 55-30l1 105H24l-1-265h31l2 30c10-21 28-34 59-34zm-8 174c40 0 45-34 45-75s-6-73-45-74c-42 0-51 32-51 76 0 43 10 73 51 73" id="ae"/><path fill="#333" d="M100-194c62-1 85 37 85 99 1 63-27 99-86 99S16-35 15-95c0-66 28-99 85-99zM99-20c44 1 53-31 53-75 0-43-8-75-51-75s-53 32-53 75 10 74 51 75" id="af"/><path fill="#333" d="M114-163C36-179 61-72 57 0H25l-1-190h30c1 12-1 29 2 39 6-27 23-49 58-41v29" id="ag"/><path fill="#333" d="M141-36C126-15 110 5 73 4 37 3 15-17 15-53c-1-64 63-63 125-63 3-35-9-54-41-54-24 1-41 7-42 31l-33-3c5-37 33-52 76-52 45 0 72 20 72 64v82c-1 20 7 32 28 27v20c-31 9-61-2-59-35zM48-53c0 20 12 33 32 33 41-3 63-29 60-74-43 2-92-5-92 41" id="ah"/><path fill="#333" d="M24 0v-261h32V0H24" id="ai"/><g id="a"><use transform="matrix(0.08641975308641969,0,0,0.08641975308641969,0,0)" xlink:href="#ab"/><use transform="matrix(0.08641975308641969,0,0,0.08641975308641969,15.469135802469125,0)" xlink:href="#ac"/><use transform="matrix(0.08641975308641969,0,0,0.08641975308641969,32.75308641975306,0)" xlink:href="#ad"/><use transform="matrix(0.08641975308641969,0,0,0.08641975308641969,58.59259259259255,0)" xlink:href="#ae"/><use transform="matrix(0.08641975308641969,0,0,0.08641975308641969,75.87654320987649,0)" xlink:href="#af"/><use transform="matrix(0.08641975308641969,0,0,0.08641975308641969,93.16049382716042,0)" xlink:href="#ag"/><use transform="matrix(0.08641975308641969,0,0,0.08641975308641969,103.44444444444437,0)" xlink:href="#ah"/><use transform="matrix(0.08641975308641969,0,0,0.08641975308641969,120.7283950617283,0)" xlink:href="#ai"/></g><path fill="#333" d="M185-189c-5-48-123-54-124 2 14 75 158 14 163 119 3 78-121 87-175 55-17-10-28-26-33-46l33-7c5 56 141 63 141-1 0-78-155-14-162-118-5-82 145-84 179-34 5 7 8 16 11 25" id="aj"/><path fill="#333" d="M108 0H70L1-190h34L89-25l56-165h34" id="ak"/><g id="b"><use transform="matrix(0.08641975308641969,0,0,0.08641975308641969,0,0)" xlink:href="#aj"/><use transform="matrix(0.08641975308641969,0,0,0.08641975308641969,20.740740740740726,0)" xlink:href="#ac"/><use transform="matrix(0.08641975308641969,0,0,0.08641975308641969,38.02469135802467,0)" xlink:href="#ag"/><use transform="matrix(0.08641975308641969,0,0,0.08641975308641969,48.30864197530861,0)" xlink:href="#ak"/><use transform="matrix(0.08641975308641969,0,0,0.08641975308641969,63.86419753086415,0)" xlink:href="#ac"/><use transform="matrix(0.08641975308641969,0,0,0.08641975308641969,81.1481481481481,0)" xlink:href="#ag"/></g><path fill="#333" d="M63-220v92h138v28H63V0H30v-248h175v28H63" id="al"/><path fill="#333" d="M117-194c89-4 53 116 60 194h-32v-121c0-31-8-49-39-48C34-167 62-67 57 0H25l-1-190h30c1 10-1 24 2 32 11-22 29-35 61-36" id="am"/><path fill="#333" d="M59-47c-2 24 18 29 38 22v24C64 9 27 4 27-40v-127H5v-23h24l9-43h21v43h35v23H59v120" id="an"/><path fill="#333" d="M85-194c31 0 48 13 60 33l-1-100h32l1 261h-30c-2-10 0-23-3-31C134-8 116 4 85 4 32 4 16-35 15-94c0-66 23-100 70-100zm9 24c-40 0-46 34-46 75 0 40 6 74 45 74 42 0 51-32 51-76 0-42-9-74-50-73" id="ao"/><g id="c"><use transform="matrix(0.0864197530864197,0,0,0.0864197530864197,0,0)" xlink:href="#al"/><use transform="matrix(0.0864197530864197,0,0,0.0864197530864197,18.925925925925917,0)" xlink:href="#ag"/><use transform="matrix(0.0864197530864197,0,0,0.0864197530864197,29.209876543209862,0)" xlink:href="#af"/><use transform="matrix(0.0864197530864197,0,0,0.0864197530864197,46.493827160493815,0)" xlink:href="#am"/><use transform="matrix(0.0864197530864197,0,0,0.0864197530864197,63.77777777777775,0)" xlink:href="#an"/><use transform="matrix(0.0864197530864197,0,0,0.0864197530864197,72.41975308641972,0)" xlink:href="#ac"/><use transform="matrix(0.0864197530864197,0,0,0.0864197530864197,89.70370370370368,0)" xlink:href="#am"/><use transform="matrix(0.0864197530864197,0,0,0.0864197530864197,106.98765432098762,0)" xlink:href="#ao"/></g><path fill="#333" d="M24-231v-30h32v30H24zM24 0v-190h32V0H24" id="ap"/><path fill="#333" d="M96-169c-40 0-48 33-48 73s9 75 48 75c24 0 41-14 43-38l32 2c-6 37-31 61-74 61-59 0-76-41-82-99-10-93 101-131 147-64 4 7 5 14 7 22l-32 3c-4-21-16-35-41-35" id="aq"/><g id="d"><use transform="matrix(0.0864197530864197,0,0,0.0864197530864197,0,0)" xlink:href="#aj"/><use transform="matrix(0.0864197530864197,0,0,0.0864197530864197,20.74074074074073,0)" xlink:href="#ac"/><use transform="matrix(0.0864197530864197,0,0,0.0864197530864197,38.02469135802467,0)" xlink:href="#ag"/><use transform="matrix(0.0864197530864197,0,0,0.0864197530864197,48.30864197530862,0)" xlink:href="#ak"/><use transform="matrix(0.0864197530864197,0,0,0.0864197530864197,63.86419753086416,0)" xlink:href="#ap"/><use transform="matrix(0.0864197530864197,0,0,0.0864197530864197,70.69135802469131,0)" xlink:href="#aq"/><use transform="matrix(0.0864197530864197,0,0,0.0864197530864197,86.24691358024685,0)" xlink:href="#ac"/></g><path fill="#333" d="M30-248c118-7 216 8 213 122C240-48 200 0 122 0H30v-248zM63-27c89 8 146-16 146-99s-60-101-146-95v194" id="ar"/><path fill="#333" d="M115-194c53 0 69 39 70 98 0 66-23 100-70 100C84 3 66-7 56-30L54 0H23l1-261h32v101c10-23 28-34 59-34zm-8 174c40 0 45-34 45-75 0-40-5-75-45-74-42 0-51 32-51 76 0 43 10 73 51 73" id="as"/><path fill="#333" d="M135-143c-3-34-86-38-87 0 15 53 115 12 119 90S17 21 10-45l28-5c4 36 97 45 98 0-10-56-113-15-118-90-4-57 82-63 122-42 12 7 21 19 24 35" id="at"/><g id="e"><use transform="matrix(0.0864197530864197,0,0,0.0864197530864197,0,0)" xlink:href="#ar"/><use transform="matrix(0.0864197530864197,0,0,0.0864197530864197,22.382716049382704,0)" xlink:href="#ah"/><use transform="matrix(0.0864197530864197,0,0,0.0864197530864197,39.66666666666664,0)" xlink:href="#an"/><use transform="matrix(0.0864197530864197,0,0,0.0864197530864197,48.30864197530862,0)" xlink:href="#ah"/><use transform="matrix(0.0864197530864197,0,0,0.0864197530864197,65.59259259259255,0)" xlink:href="#as"/><use transform="matrix(0.0864197530864197,0,0,0.0864197530864197,82.8765432098765,0)" xlink:href="#ah"/><use transform="matrix(0.0864197530864197,0,0,0.0864197530864197,100.16049382716047,0)" xlink:href="#at"/><use transform="matrix(0.0864197530864197,0,0,0.0864197530864197,115.716049382716,0)" xlink:href="#ac"/></g><path fill="#333" d="M240 0l2-218c-23 76-54 145-80 218h-23L58-218 59 0H30v-248h44l77 211c21-75 51-140 76-211h43V0h-30" id="au"/><path fill="#333" d="M106-169C34-169 62-67 57 0H25v-261h32l-1 103c12-21 28-36 61-36 89 0 53 116 60 194h-32v-121c2-32-8-49-39-48" id="av"/><path fill="#333" d="M177-190C167-65 218 103 67 71c-23-6-38-20-44-43l32-5c15 47 100 32 89-28v-30C133-14 115 1 83 1 29 1 15-40 15-95c0-56 16-97 71-98 29-1 48 16 59 35 1-10 0-23 2-32h30zM94-22c36 0 50-32 50-73 0-42-14-75-50-75-39 0-46 34-46 75s6 73 46 73" id="aw"/><g id="f"><use transform="matrix(0.0864197530864197,0,0,0.0864197530864197,0,0)" xlink:href="#au"/><use transform="matrix(0.0864197530864197,0,0,0.0864197530864197,25.839506172839492,0)" xlink:href="#ah"/><use transform="matrix(0.0864197530864197,0,0,0.0864197530864197,43.123456790123434,0)" xlink:href="#an"/><use transform="matrix(0.0864197530864197,0,0,0.0864197530864197,51.7654320987654,0)" xlink:href="#aq"/><use transform="matrix(0.0864197530864197,0,0,0.0864197530864197,67.32098765432094,0)" xlink:href="#av"/><use transform="matrix(0.0864197530864197,0,0,0.0864197530864197,84.60493827160488,0)" xlink:href="#ap"/><use transform="matrix(0.0864197530864197,0,0,0.0864197530864197,91.43209876543203,0)" xlink:href="#am"/><use transform="matrix(0.0864197530864197,0,0,0.0864197530864197,108.71604938271597,0)" xlink:href="#aw"/></g><path fill="#333" d="M143 0L79-87 56-68V0H24v-261h32v163l83-92h37l-77 82L181 0h-38" id="ax"/><g id="g"><use transform="matrix(0.0864197530864197,0,0,0.0864197530864197,0,0)" xlink:href="#ab"/><use transform="matrix(0.0864197530864197,0,0,0.0864197530864197,15.46913580246913,0)" xlink:href="#ah"/><use transform="matrix(0.0864197530864197,0,0,0.0864197530864197,32.753086419753075,0)" xlink:href="#at"/><use transform="matrix(0.0864197530864197,0,0,0.0864197530864197,48.30864197530862,0)" xlink:href="#ax"/></g><g id="h"><use transform="matrix(0.0864197530864197,0,0,0.0864197530864197,0,0)" xlink:href="#at"/><use transform="matrix(0.0864197530864197,0,0,0.0864197530864197,15.555555555555546,0)" xlink:href="#an"/><use transform="matrix(0.0864197530864197,0,0,0.0864197530864197,24.197530864197518,0)" xlink:href="#af"/><use transform="matrix(0.0864197530864197,0,0,0.0864197530864197,41.48148148148146,0)" xlink:href="#ag"/><use transform="matrix(0.0864197530864197,0,0,0.0864197530864197,51.7654320987654,0)" xlink:href="#ah"/><use transform="matrix(0.0864197530864197,0,0,0.0864197530864197,69.04938271604934,0)" xlink:href="#aw"/><use transform="matrix(0.0864197530864197,0,0,0.0864197530864197,86.33333333333329,0)" xlink:href="#ac"/></g><path fill="#333" d="M266 0h-40l-56-210L115 0H75L2-248h35L96-30l15-64 43-154h32l59 218 59-218h35" id="ay"/><path fill="#333" d="M101-234c-31-9-42 10-38 44h38v23H63V0H32v-167H5v-23h27c-7-52 17-82 69-68v24" id="az"/><path fill="#333" d="M206 0h-36l-40-164L89 0H53L-1-190h32L70-26l43-164h34l41 164 42-164h31" id="aA"/><g id="i"><use transform="matrix(0.0864197530864197,0,0,0.0864197530864197,0,0)" xlink:href="#ay"/><use transform="matrix(0.0864197530864197,0,0,0.0864197530864197,28.691358024691343,0)" xlink:href="#af"/><use transform="matrix(0.0864197530864197,0,0,0.0864197530864197,45.975308641975296,0)" xlink:href="#ag"/><use transform="matrix(0.0864197530864197,0,0,0.0864197530864197,56.25925925925924,0)" xlink:href="#ax"/><use transform="matrix(0.0864197530864197,0,0,0.0864197530864197,71.81481481481478,0)" xlink:href="#az"/><use transform="matrix(0.0864197530864197,0,0,0.0864197530864197,80.45679012345676,0)" xlink:href="#ai"/><use transform="matrix(0.0864197530864197,0,0,0.0864197530864197,87.2839506172839,0)" xlink:href="#af"/><use transform="matrix(0.0864197530864197,0,0,0.0864197530864197,104.56790123456784,0)" xlink:href="#aA"/></g><g id="j"><use transform="matrix(0.0864197530864197,0,0,0.0864197530864197,0,0)" xlink:href="#at"/><use transform="matrix(0.0864197530864197,0,0,0.0864197530864197,15.555555555555546,0)" xlink:href="#an"/><use transform="matrix(0.0864197530864197,0,0,0.0864197530864197,24.197530864197518,0)" xlink:href="#af"/><use transform="matrix(0.0864197530864197,0,0,0.0864197530864197,41.48148148148146,0)" xlink:href="#ag"/><use transform="matrix(0.0864197530864197,0,0,0.0864197530864197,51.7654320987654,0)" xlink:href="#ah"/><use transform="matrix(0.0864197530864197,0,0,0.0864197530864197,69.04938271604934,0)" xlink:href="#aw"/><use transform="matrix(0.0864197530864197,0,0,0.0864197530864197,86.33333333333329,0)" xlink:href="#ac"/></g><path fill="#333" d="M30 0v-248h187v28H63v79h144v27H63v87h162V0H30" id="aB"/><g id="k"><use transform="matrix(0.0864197530864197,0,0,0.0864197530864197,0,0)" xlink:href="#aB"/><use transform="matrix(0.0864197530864197,0,0,0.0864197530864197,20.74074074074073,0)" xlink:href="#ak"/><use transform="matrix(0.0864197530864197,0,0,0.0864197530864197,36.296296296296276,0)" xlink:href="#ac"/><use transform="matrix(0.0864197530864197,0,0,0.0864197530864197,53.58024691358022,0)" xlink:href="#am"/><use transform="matrix(0.0864197530864197,0,0,0.0864197530864197,70.86419753086416,0)" xlink:href="#an"/></g><path fill="#333" d="M137 0h-34L2-248h35l83 218 83-218h36" id="aC"/><path fill="#333" d="M179-190L93 31C79 59 56 82 12 73V49c39 6 53-20 64-50L1-190h34L92-34l54-156h33" id="aD"/><g id="l"><use transform="matrix(0.0864197530864197,0,0,0.0864197530864197,0,0)" xlink:href="#aC"/><use transform="matrix(0.0864197530864197,0,0,0.0864197530864197,20.135802469135793,0)" xlink:href="#ap"/><use transform="matrix(0.0864197530864197,0,0,0.0864197530864197,26.962962962962955,0)" xlink:href="#at"/><use transform="matrix(0.0864197530864197,0,0,0.0864197530864197,42.5185185185185,0)" xlink:href="#ap"/><use transform="matrix(0.0864197530864197,0,0,0.0864197530864197,49.345679012345656,0)" xlink:href="#as"/><use transform="matrix(0.0864197530864197,0,0,0.0864197530864197,66.62962962962959,0)" xlink:href="#ap"/><use transform="matrix(0.0864197530864197,0,0,0.0864197530864197,73.45679012345674,0)" xlink:href="#ai"/><use transform="matrix(0.0864197530864197,0,0,0.0864197530864197,80.28395061728389,0)" xlink:href="#ap"/><use transform="matrix(0.0864197530864197,0,0,0.0864197530864197,87.11111111111104,0)" xlink:href="#an"/><use transform="matrix(0.0864197530864197,0,0,0.0864197530864197,95.75308641975302,0)" xlink:href="#aD"/></g><path fill="#333" d="M197 0v-115H63V0H30v-248h33v105h134v-105h34V0h-34" id="aE"/><g id="m"><use transform="matrix(0.0864197530864197,0,0,0.0864197530864197,0,0)" xlink:href="#aE"/><use transform="matrix(0.0864197530864197,0,0,0.0864197530864197,22.382716049382704,0)" xlink:href="#ap"/><use transform="matrix(0.0864197530864197,0,0,0.0864197530864197,29.209876543209862,0)" xlink:href="#at"/><use transform="matrix(0.0864197530864197,0,0,0.0864197530864197,44.76543209876541,0)" xlink:href="#an"/><use transform="matrix(0.0864197530864197,0,0,0.0864197530864197,53.407407407407376,0)" xlink:href="#af"/><use transform="matrix(0.0864197530864197,0,0,0.0864197530864197,70.69135802469131,0)" xlink:href="#ag"/><use transform="matrix(0.0864197530864197,0,0,0.0864197530864197,80.97530864197526,0)" xlink:href="#aD"/></g><g id="n"><use transform="matrix(0.0864197530864197,0,0,0.0864197530864197,0,0)" xlink:href="#aj"/><use transform="matrix(0.0864197530864197,0,0,0.0864197530864197,20.74074074074073,0)" xlink:href="#ac"/><use transform="matrix(0.0864197530864197,0,0,0.0864197530864197,38.02469135802467,0)" xlink:href="#ag"/><use transform="matrix(0.0864197530864197,0,0,0.0864197530864197,48.30864197530862,0)" xlink:href="#ak"/><use transform="matrix(0.0864197530864197,0,0,0.0864197530864197,63.86419753086416,0)" xlink:href="#ap"/><use transform="matrix(0.0864197530864197,0,0,0.0864197530864197,70.69135802469131,0)" xlink:href="#aq"/><use transform="matrix(0.0864197530864197,0,0,0.0864197530864197,86.24691358024685,0)" xlink:href="#ac"/></g><g id="o"><use transform="matrix(0.0864197530864197,0,0,0.0864197530864197,0,0)" xlink:href="#aB"/><use transform="matrix(0.0864197530864197,0,0,0.0864197530864197,20.74074074074073,0)" xlink:href="#ai"/><use transform="matrix(0.0864197530864197,0,0,0.0864197530864197,27.567901234567888,0)" xlink:href="#ah"/><use transform="matrix(0.0864197530864197,0,0,0.0864197530864197,44.85185185185184,0)" xlink:href="#at"/><use transform="matrix(0.0864197530864197,0,0,0.0864197530864197,60.407407407407376,0)" xlink:href="#an"/><use transform="matrix(0.0864197530864197,0,0,0.0864197530864197,69.04938271604935,0)" xlink:href="#ap"/><use transform="matrix(0.0864197530864197,0,0,0.0864197530864197,75.8765432098765,0)" xlink:href="#aq"/><use transform="matrix(0.0864197530864197,0,0,0.0864197530864197,91.43209876543204,0)" xlink:href="#at"/><use transform="matrix(0.0864197530864197,0,0,0.0864197530864197,106.9876543209876,0)" xlink:href="#ac"/><use transform="matrix(0.0864197530864197,0,0,0.0864197530864197,124.27160493827154,0)" xlink:href="#ah"/><use transform="matrix(0.0864197530864197,0,0,0.0864197530864197,141.5555555555555,0)" xlink:href="#ag"/><use transform="matrix(0.0864197530864197,0,0,0.0864197530864197,151.83950617283944,0)" xlink:href="#aq"/><use transform="matrix(0.0864197530864197,0,0,0.0864197530864197,167.39506172839498,0)" xlink:href="#av"/></g><g id="p"><use transform="matrix(0.0864197530864197,0,0,0.0864197530864197,0,0)" xlink:href="#ay"/><use transform="matrix(0.0864197530864197,0,0,0.0864197530864197,28.691358024691343,0)" xlink:href="#af"/><use transform="matrix(0.0864197530864197,0,0,0.0864197530864197,45.975308641975296,0)" xlink:href="#ag"/><use transform="matrix(0.0864197530864197,0,0,0.0864197530864197,56.25925925925924,0)" xlink:href="#ax"/><use transform="matrix(0.0864197530864197,0,0,0.0864197530864197,71.81481481481478,0)" xlink:href="#ac"/><use transform="matrix(0.0864197530864197,0,0,0.0864197530864197,89.09876543209873,0)" xlink:href="#ag"/></g><path fill="#333" d="M125-24c46 0 70-25 89-51l25 16C214-24 183 4 123 4 8 4-5-146 60-208c32-50 158-61 191-5 5 7 9 14 11 22l-32 10c-9-28-33-43-69-43-74 0-108 51-108 125 0 46 24 75 72 75" id="aF"/><path fill="#333" d="M165-48c-4 18 1 34 23 27l-3 20c-29 8-62 0-52-35h-2C116-14 99 4 63 4 30 4 8-16 8-49c0-68 71-67 138-67 10-26 0-56-31-54-26 1-42 9-47 31l-32-5c8-67 160-71 144 15-5 28-9 54-15 81zM42-50c3 52 80 24 89-6 7-12 7-24 11-38-47 1-103-4-100 44" id="aG"/><path fill="#333" d="M55-144c13 50 104 24 104 88C159 21 15 23 1-39l26-10c6 40 102 42 102-4-13-50-104-23-104-87 0-71 143-71 148-8l-29 4c-5-35-85-37-89 0" id="aH"/><path fill="#333" d="M67-158c22-48 132-52 116 29L158 0h-32l25-140c3-38-53-32-70-12C52-117 51-52 38 0H6l36-190h30" id="aI"/><path fill="#333" d="M133-28C103 26-5 8 13-77c13-62 24-115 90-117 29-1 46 15 56 35l19-102h32L160 0h-30zM45-64c-2 27 10 43 35 43 54-1 69-50 69-103 0-29-15-46-42-46-53-1-58 58-62 106" id="aJ"/><path fill="#333" d="M66-151c12-25 30-51 66-40l-6 26C45-176 58-65 38 0H6l36-190h30" id="aK"/><path fill="#333" d="M58-38C53-5 46 26 28 46H7C19 32 27 18 32 0H17l7-38h34" id="aL"/><g id="q"><use transform="matrix(0.08641975308641973,0,0,0.08641975308641973,0,0)" xlink:href="#aF"/><use transform="matrix(0.08641975308641973,0,0,0.08641975308641973,22.38271604938271,0)" xlink:href="#aG"/><use transform="matrix(0.08641975308641973,0,0,0.08641975308641973,39.66666666666666,0)" xlink:href="#aH"/><use transform="matrix(0.08641975308641973,0,0,0.08641975308641973,55.22222222222221,0)" xlink:href="#aH"/><use transform="matrix(0.08641975308641973,0,0,0.08641975308641973,70.77777777777776,0)" xlink:href="#aG"/><use transform="matrix(0.08641975308641973,0,0,0.08641975308641973,88.0617283950617,0)" xlink:href="#aI"/><use transform="matrix(0.08641975308641973,0,0,0.08641975308641973,105.34567901234566,0)" xlink:href="#aJ"/><use transform="matrix(0.08641975308641973,0,0,0.08641975308641973,122.6296296296296,0)" xlink:href="#aK"/><use transform="matrix(0.08641975308641973,0,0,0.08641975308641973,132.91358024691357,0)" xlink:href="#aG"/><use transform="matrix(0.08641975308641973,0,0,0.08641975308641973,150.19753086419752,0)" xlink:href="#aL"/></g><path fill="#333" d="M222 0l43-216c-8 16-17 34-26 49L143 0h-22L81-216 41 0H11l48-248h42l38 208 116-208h45L252 0h-30" id="aM"/><path fill="#333" d="M198-190L69 30C53 58 25 83-20 72c4-11-1-27 19-22 33-1 43-29 59-52L20-190h32L79-34l84-156h35" id="aN"/><path fill="#333" d="M194-120c59 52 2 134-86 124-53-6-90-18-98-63l31-7c8 30 29 43 70 43 46 0 84-17 71-62-32-43-135-20-137-98-3-89 178-90 191-16l-30 9c-8-48-127-53-127 5 0 53 81 35 115 65" id="aO"/><path fill="#333" d="M24-61C-1-165 59-251 163-251c67 1 105 36 105 101 0 88-46 140-124 152 2 33 24 47 60 39l-3 23c-50 15-89-11-89-61-46-3-79-26-88-64zm210-73c6-55-18-91-72-90-77 1-111 51-111 125 0 49 24 75 73 75 72 0 103-45 110-110" id="aP"/><path fill="#333" d="M11 0l48-248h34L50-27h125l-5 27H11" id="aQ"/><g id="r"><use transform="matrix(0.08641975308641973,0,0,0.08641975308641973,0,0)" xlink:href="#aM"/><use transform="matrix(0.08641975308641973,0,0,0.08641975308641973,25.8395061728395,0)" xlink:href="#aN"/><use transform="matrix(0.08641975308641973,0,0,0.08641975308641973,41.39506172839505,0)" xlink:href="#aO"/><use transform="matrix(0.08641975308641973,0,0,0.08641975308641973,62.13580246913578,0)" xlink:href="#aP"/><use transform="matrix(0.08641975308641973,0,0,0.08641975308641973,86.33333333333331,0)" xlink:href="#aQ"/><use transform="matrix(0.08641975308641973,0,0,0.08641975308641973,103.61728395061726,0)" xlink:href="#aL"/></g><g id="s"><use transform="matrix(0.08641975308641973,0,0,0.08641975308641973,0,0)" xlink:href="#aG"/><use transform="matrix(0.08641975308641973,0,0,0.08641975308641973,17.283950617283946,0)" xlink:href="#aI"/><use transform="matrix(0.08641975308641973,0,0,0.08641975308641973,34.56790123456789,0)" xlink:href="#aJ"/></g><path fill="#333" d="M238-179c0 84-86 86-175 82L45 0H11l48-248c82 0 179-12 179 69zm-34 1c0-53-64-42-116-43l-19 98c63 0 135 9 135-55" id="aR"/><path fill="#333" d="M30-147c31-64 166-65 159 27C183-49 158 1 86 4 9 8 1-88 30-147zM88-20c53 0 68-48 68-100 0-31-11-51-44-50-52 1-68 46-68 97 0 32 13 53 44 53" id="aS"/><path fill="#333" d="M51-54c-9 22 5 41 31 30L79-1C43 14 10-4 19-52l22-115H19l5-23h22l19-43h21l-9 43h35l-4 23H73" id="aT"/><path fill="#333" d="M103-194c29 0 47 14 56 36 2-11 5-23 8-32h30L160-5C157 61 82 97 21 62 9 55 4 45 1 30l28-7c7 42 83 31 92-3 4-16 9-38 13-55-13 20-29 36-62 36-40 0-60-25-60-64 0-71 23-131 91-131zm4 24c-53 0-58 54-61 104-2 27 10 44 36 44 49 0 65-50 67-102 1-29-15-46-42-46" id="aU"/><path fill="#333" d="M111-194c62-3 86 47 72 106H45c-7 38 6 69 45 68 27-1 43-14 53-32l24 11C152-15 129 4 87 4 38 3 12-23 12-71c0-70 32-119 99-123zm44 81c14-66-71-72-95-28-4 8-8 17-11 28h106" id="aV"/><g id="t"><use transform="matrix(0.08641975308641973,0,0,0.08641975308641973,0,0)" xlink:href="#aR"/><use transform="matrix(0.08641975308641973,0,0,0.08641975308641973,20.740740740740737,0)" xlink:href="#aS"/><use transform="matrix(0.08641975308641973,0,0,0.08641975308641973,38.02469135802468,0)" xlink:href="#aH"/><use transform="matrix(0.08641975308641973,0,0,0.08641975308641973,53.58024691358023,0)" xlink:href="#aT"/><use transform="matrix(0.08641975308641973,0,0,0.08641975308641973,62.22222222222221,0)" xlink:href="#aU"/><use transform="matrix(0.08641975308641973,0,0,0.08641975308641973,79.50617283950615,0)" xlink:href="#aK"/><use transform="matrix(0.08641975308641973,0,0,0.08641975308641973,89.7901234567901,0)" xlink:href="#aV"/><use transform="matrix(0.08641975308641973,0,0,0.08641975308641973,107.07407407407405,0)" xlink:href="#aO"/><use transform="matrix(0.08641975308641973,0,0,0.08641975308641973,127.81481481481478,0)" xlink:href="#aP"/><use transform="matrix(0.08641975308641973,0,0,0.08641975308641973,152.0123456790123,0)" xlink:href="#aQ"/></g><g id="u"><use transform="matrix(0.08641975308641973,0,0,0.08641975308641973,0,0)" xlink:href="#aG"/><use transform="matrix(0.08641975308641973,0,0,0.08641975308641973,17.283950617283946,0)" xlink:href="#aK"/><use transform="matrix(0.08641975308641973,0,0,0.08641975308641973,27.567901234567895,0)" xlink:href="#aV"/></g><path fill="#333" d="M67 3c-93-2-31-127-26-193h32L48-50c-3 39 53 32 70 12 30-34 30-101 43-152h32L157 0h-30c1-10 6-24 4-33-14 20-29 37-64 36" id="aW"/><path fill="#333" d="M67-162c32-53 139-36 121 50C175-51 163 2 97 4 68 4 52-11 42-31 38 6 28 39 22 75H-9l50-265h29c-1 10 0 20-3 28zm89 36c0-26-10-43-35-43-54 0-67 50-69 103-1 29 14 45 42 46 53 0 62-58 62-106" id="aX"/><path fill="#333" d="M14 0l8-38h34L48 0H14" id="aY"/><g id="v"><use transform="matrix(0.08641975308641973,0,0,0.08641975308641973,0,0)" xlink:href="#aH"/><use transform="matrix(0.08641975308641973,0,0,0.08641975308641973,15.555555555555552,0)" xlink:href="#aW"/><use transform="matrix(0.08641975308641973,0,0,0.08641975308641973,32.8395061728395,0)" xlink:href="#aX"/><use transform="matrix(0.08641975308641973,0,0,0.08641975308641973,50.12345679012345,0)" xlink:href="#aX"/><use transform="matrix(0.08641975308641973,0,0,0.08641975308641973,67.40740740740739,0)" xlink:href="#aS"/><use transform="matrix(0.08641975308641973,0,0,0.08641975308641973,84.69135802469134,0)" xlink:href="#aK"/><use transform="matrix(0.08641975308641973,0,0,0.08641975308641973,94.97530864197529,0)" xlink:href="#aT"/><use transform="matrix(0.08641975308641973,0,0,0.08641975308641973,103.61728395061726,0)" xlink:href="#aV"/><use transform="matrix(0.08641975308641973,0,0,0.08641975308641973,120.90123456790121,0)" xlink:href="#aJ"/><use transform="matrix(0.08641975308641973,0,0,0.08641975308641973,138.18518518518516,0)" xlink:href="#aY"/></g><path fill="#333" d="M20-101c0-91 52-143 145-150 126-9 127 168 53 223-23 17-55 32-93 32C57 4 20-33 20-101zm216-33c5-57-18-91-73-90-77 1-110 51-110 125 0 49 23 75 73 75 72-1 104-45 110-110" id="aZ"/><path fill="#333" d="M50-231l6-30h32l-6 30H50zM6 0l37-190h31L37 0H6" id="ba"/><path fill="#333" d="M6 0l50-261h32L37 0H6" id="bb"/><g id="w"><use transform="matrix(0.08641975308641973,0,0,0.08641975308641973,0,0)" xlink:href="#aZ"/><use transform="matrix(0.08641975308641973,0,0,0.08641975308641973,24.197530864197525,0)" xlink:href="#aX"/><use transform="matrix(0.08641975308641973,0,0,0.08641975308641973,41.48148148148147,0)" xlink:href="#aT"/><use transform="matrix(0.08641975308641973,0,0,0.08641975308641973,50.12345679012345,0)" xlink:href="#ba"/><use transform="matrix(0.08641975308641973,0,0,0.08641975308641973,56.95061728395059,0)" xlink:href="#aS"/><use transform="matrix(0.08641975308641973,0,0,0.08641975308641973,74.23456790123454,0)" xlink:href="#aI"/><use transform="matrix(0.08641975308641973,0,0,0.08641975308641973,91.5185185185185,0)" xlink:href="#aG"/><use transform="matrix(0.08641975308641973,0,0,0.08641975308641973,108.80246913580244,0)" xlink:href="#bb"/><use transform="matrix(0.08641975308641973,0,0,0.08641975308641973,115.6296296296296,0)" xlink:href="#aL"/></g><path fill="#333" d="M68-162c25-46 127-43 121 31C183-60 169 1 98 4 69 5 53-11 43-31L36 0H5l52-261h31zm88 36c2-27-9-43-34-43-55 0-70 51-70 103 0 29 15 45 43 46 52 0 58-58 61-106" id="bc"/><g id="x"><use transform="matrix(0.08641975308641973,0,0,0.08641975308641973,0,0)" xlink:href="#bc"/><use transform="matrix(0.08641975308641973,0,0,0.08641975308641973,17.283950617283946,0)" xlink:href="#aW"/><use transform="matrix(0.08641975308641973,0,0,0.08641975308641973,34.56790123456789,0)" xlink:href="#aT"/></g><path fill="#333" d="M44-68c0 29 11 47 38 47 30 0 42-19 51-41l28 9C148-21 126 4 82 4 31 4 10-29 12-85c3-77 74-140 146-93 12 8 15 23 18 40l-31 5c-1-22-13-36-36-36-52 0-65 49-65 101" id="bd"/><path fill="#333" d="M248-111c6-24 9-61-24-58-72 9-57 108-77 169h-31l26-142c3-37-50-30-64-10C52-115 50-51 37 0H6l36-190h30c-1 10-6 24-4 32 13-43 101-52 105 5 13-22 29-41 61-41 90 0 28 129 23 194h-31" id="be"/><g id="y"><use transform="matrix(0.08641975308641973,0,0,0.08641975308641973,0,0)" xlink:href="#aK"/><use transform="matrix(0.08641975308641973,0,0,0.08641975308641973,10.28395061728395,0)" xlink:href="#aV"/><use transform="matrix(0.08641975308641973,0,0,0.08641975308641973,27.567901234567895,0)" xlink:href="#bd"/><use transform="matrix(0.08641975308641973,0,0,0.08641975308641973,43.12345679012345,0)" xlink:href="#aS"/><use transform="matrix(0.08641975308641973,0,0,0.08641975308641973,60.4074074074074,0)" xlink:href="#be"/><use transform="matrix(0.08641975308641973,0,0,0.08641975308641973,86.24691358024688,0)" xlink:href="#be"/><use transform="matrix(0.08641975308641973,0,0,0.08641975308641973,112.08641975308637,0)" xlink:href="#aV"/><use transform="matrix(0.08641975308641973,0,0,0.08641975308641973,129.37037037037032,0)" xlink:href="#aI"/><use transform="matrix(0.08641975308641973,0,0,0.08641975308641973,146.65432098765427,0)" xlink:href="#aJ"/><use transform="matrix(0.08641975308641973,0,0,0.08641975308641973,163.93827160493822,0)" xlink:href="#aV"/><use transform="matrix(0.08641975308641973,0,0,0.08641975308641973,181.22222222222217,0)" xlink:href="#aJ"/></g><g id="z"><use transform="matrix(0.08641975308641973,0,0,0.08641975308641973,0,0)" xlink:href="#aO"/><use transform="matrix(0.08641975308641973,0,0,0.08641975308641973,20.740740740740737,0)" xlink:href="#bd"/><use transform="matrix(0.08641975308641973,0,0,0.08641975308641973,36.29629629629629,0)" xlink:href="#aG"/><use transform="matrix(0.08641975308641973,0,0,0.08641975308641973,53.58024691358023,0)" xlink:href="#bb"/><use transform="matrix(0.08641975308641973,0,0,0.08641975308641973,60.4074074074074,0)" xlink:href="#aG"/><use transform="matrix(0.08641975308641973,0,0,0.08641975308641973,77.69135802469134,0)" xlink:href="#bc"/><use transform="matrix(0.08641975308641973,0,0,0.08641975308641973,94.97530864197529,0)" xlink:href="#bb"/><use transform="matrix(0.08641975308641973,0,0,0.08641975308641973,101.80246913580245,0)" xlink:href="#aV"/></g><g id="A"><use transform="matrix(0.0864197530864197,0,0,0.0864197530864197,0,0)" xlink:href="#an"/><use transform="matrix(0.0864197530864197,0,0,0.0864197530864197,8.641975308641971,0)" xlink:href="#aq"/><use transform="matrix(0.0864197530864197,0,0,0.0864197530864197,24.197530864197518,0)" xlink:href="#an"/><use transform="matrix(0.0864197530864197,0,0,0.0864197530864197,32.83950617283949,0)" xlink:href="#ai"/></g><g id="B"><use transform="matrix(0.0864197530864197,0,0,0.0864197530864197,0,0)" xlink:href="#ay"/><use transform="matrix(0.0864197530864197,0,0,0.0864197530864197,28.691358024691343,0)" xlink:href="#ac"/><use transform="matrix(0.0864197530864197,0,0,0.0864197530864197,45.975308641975296,0)" xlink:href="#as"/></g><path fill="#333" d="M232-93c-1 65-40 97-104 97C67 4 28-28 28-90v-158h33c8 89-33 224 67 224 102 0 64-133 71-224h33v155" id="bf"/><path fill="#333" d="M33 0v-248h34V0H33" id="bg"/><g id="C"><use transform="matrix(0.0864197530864197,0,0,0.0864197530864197,0,0)" xlink:href="#bf"/><use transform="matrix(0.0864197530864197,0,0,0.0864197530864197,22.382716049382704,0)" xlink:href="#bg"/></g><g id="D"><use transform="matrix(0.0864197530864197,0,0,0.0864197530864197,0,0)" xlink:href="#ay"/><use transform="matrix(0.0864197530864197,0,0,0.0864197530864197,28.691358024691343,0)" xlink:href="#af"/><use transform="matrix(0.0864197530864197,0,0,0.0864197530864197,45.975308641975296,0)" xlink:href="#ag"/><use transform="matrix(0.0864197530864197,0,0,0.0864197530864197,56.25925925925924,0)" xlink:href="#ax"/><use transform="matrix(0.0864197530864197,0,0,0.0864197530864197,71.81481481481478,0)" xlink:href="#ac"/><use transform="matrix(0.0864197530864197,0,0,0.0864197530864197,89.09876543209873,0)" xlink:href="#ag"/></g><path fill="#333" d="M30-248c87 1 191-15 191 75 0 78-77 80-158 76V0H30v-248zm33 125c57 0 124 11 124-50 0-59-68-47-124-48v98" id="bh"/><g id="E"><use transform="matrix(0.0864197530864197,0,0,0.0864197530864197,0,0)" xlink:href="#bh"/><use transform="matrix(0.0864197530864197,0,0,0.0864197530864197,20.74074074074073,0)" xlink:href="#ag"/><use transform="matrix(0.0864197530864197,0,0,0.0864197530864197,31.024691358024675,0)" xlink:href="#af"/><use transform="matrix(0.0864197530864197,0,0,0.0864197530864197,48.30864197530862,0)" xlink:href="#aq"/><use transform="matrix(0.0864197530864197,0,0,0.0864197530864197,63.86419753086416,0)" xlink:href="#ac"/><use transform="matrix(0.0864197530864197,0,0,0.0864197530864197,81.1481481481481,0)" xlink:href="#at"/><use transform="matrix(0.0864197530864197,0,0,0.0864197530864197,96.70370370370364,0)" xlink:href="#at"/><use transform="matrix(0.0864197530864197,0,0,0.0864197530864197,112.25925925925918,0)" xlink:href="#ac"/><use transform="matrix(0.0864197530864197,0,0,0.0864197530864197,129.54320987654313,0)" xlink:href="#at"/></g><path fill="#333" d="M194 0L95-120 63-95V0H30v-248h33v124l119-124h40L117-140 236 0h-42" id="bi"/><g id="F"><use transform="matrix(0.0864197530864197,0,0,0.0864197530864197,0,0)" xlink:href="#aj"/><use transform="matrix(0.0864197530864197,0,0,0.0864197530864197,20.74074074074073,0)" xlink:href="#ar"/><use transform="matrix(0.0864197530864197,0,0,0.0864197530864197,43.123456790123434,0)" xlink:href="#bi"/></g><path fill="#333" d="M212-179c-10-28-35-45-73-45-59 0-87 40-87 99 0 60 29 101 89 101 43 0 62-24 78-52l27 14C228-24 195 4 139 4 59 4 22-46 18-125c-6-104 99-153 187-111 19 9 31 26 39 46" id="bj"/><g id="G"><use transform="matrix(0.0864197530864197,0,0,0.0864197530864197,0,0)" xlink:href="#bj"/><use transform="matrix(0.0864197530864197,0,0,0.0864197530864197,22.382716049382704,0)" xlink:href="#ai"/><use transform="matrix(0.0864197530864197,0,0,0.0864197530864197,29.209876543209862,0)" xlink:href="#ap"/><use transform="matrix(0.0864197530864197,0,0,0.0864197530864197,36.03703703703702,0)" xlink:href="#ac"/><use transform="matrix(0.0864197530864197,0,0,0.0864197530864197,53.32098765432096,0)" xlink:href="#am"/><use transform="matrix(0.0864197530864197,0,0,0.0864197530864197,70.60493827160491,0)" xlink:href="#an"/></g><g id="H"><use transform="matrix(0.0864197530864197,0,0,0.0864197530864197,0,0)" xlink:href="#ap"/><use transform="matrix(0.0864197530864197,0,0,0.0864197530864197,6.827160493827157,0)" xlink:href="#am"/><use transform="matrix(0.0864197530864197,0,0,0.0864197530864197,24.111111111111097,0)" xlink:href="#at"/><use transform="matrix(0.0864197530864197,0,0,0.0864197530864197,39.66666666666664,0)" xlink:href="#an"/><use transform="matrix(0.0864197530864197,0,0,0.0864197530864197,48.30864197530862,0)" xlink:href="#ah"/><use transform="matrix(0.0864197530864197,0,0,0.0864197530864197,65.59259259259255,0)" xlink:href="#am"/><use transform="matrix(0.0864197530864197,0,0,0.0864197530864197,82.8765432098765,0)" xlink:href="#aq"/><use transform="matrix(0.0864197530864197,0,0,0.0864197530864197,98.43209876543204,0)" xlink:href="#ac"/><use transform="matrix(0.0864197530864197,0,0,0.0864197530864197,115.716049382716,0)" xlink:href="#at"/></g><path fill="#333" d="M18-82l6-28h88l-6 28H18" id="bk"/><g id="I"><use transform="matrix(0.08641975308641973,0,0,0.08641975308641973,0,0)" xlink:href="#aM"/><use transform="matrix(0.08641975308641973,0,0,0.08641975308641973,25.8395061728395,0)" xlink:href="#aW"/><use transform="matrix(0.08641975308641973,0,0,0.08641975308641973,43.12345679012344,0)" xlink:href="#bb"/><use transform="matrix(0.08641975308641973,0,0,0.08641975308641973,49.9506172839506,0)" xlink:href="#aT"/><use transform="matrix(0.08641975308641973,0,0,0.08641975308641973,58.59259259259257,0)" xlink:href="#ba"/><use transform="matrix(0.08641975308641973,0,0,0.08641975308641973,65.41975308641973,0)" xlink:href="#bk"/><use transform="matrix(0.08641975308641973,0,0,0.08641975308641973,75.70370370370368,0)" xlink:href="#aF"/><use transform="matrix(0.08641975308641973,0,0,0.08641975308641973,98.0864197530864,0)" xlink:href="#bb"/><use transform="matrix(0.08641975308641973,0,0,0.08641975308641973,104.91358024691355,0)" xlink:href="#aW"/><use transform="matrix(0.08641975308641973,0,0,0.08641975308641973,122.1975308641975,0)" xlink:href="#aH"/><use transform="matrix(0.08641975308641973,0,0,0.08641975308641973,137.75308641975306,0)" xlink:href="#aT"/><use transform="matrix(0.08641975308641973,0,0,0.08641975308641973,146.39506172839504,0)" xlink:href="#aV"/><use transform="matrix(0.08641975308641973,0,0,0.08641975308641973,163.67901234567898,0)" xlink:href="#aK"/></g><g id="J"><use transform="matrix(0.08641975308641973,0,0,0.08641975308641973,0,0)" xlink:href="#aK"/><use transform="matrix(0.08641975308641973,0,0,0.08641975308641973,10.28395061728395,0)" xlink:href="#aV"/><use transform="matrix(0.08641975308641973,0,0,0.08641975308641973,27.567901234567895,0)" xlink:href="#aX"/><use transform="matrix(0.08641975308641973,0,0,0.08641975308641973,44.85185185185184,0)" xlink:href="#bb"/><use transform="matrix(0.08641975308641973,0,0,0.08641975308641973,51.679012345679,0)" xlink:href="#ba"/><use transform="matrix(0.08641975308641973,0,0,0.08641975308641973,58.50617283950616,0)" xlink:href="#bd"/><use transform="matrix(0.08641975308641973,0,0,0.08641975308641973,74.0617283950617,0)" xlink:href="#aG"/><use transform="matrix(0.08641975308641973,0,0,0.08641975308641973,91.34567901234566,0)" xlink:href="#aT"/><use transform="matrix(0.08641975308641973,0,0,0.08641975308641973,99.98765432098763,0)" xlink:href="#ba"/><use transform="matrix(0.08641975308641973,0,0,0.08641975308641973,106.8148148148148,0)" xlink:href="#aS"/><use transform="matrix(0.08641975308641973,0,0,0.08641975308641973,124.09876543209874,0)" xlink:href="#aI"/></g><g id="K"><use transform="matrix(0.08641975308641973,0,0,0.08641975308641973,0,0)" xlink:href="#ba"/><use transform="matrix(0.08641975308641973,0,0,0.08641975308641973,6.827160493827159,0)" xlink:href="#aH"/></g><g id="L"><use transform="matrix(0.08641975308641973,0,0,0.08641975308641973,0,0)" xlink:href="#aH"/><use transform="matrix(0.08641975308641973,0,0,0.08641975308641973,15.555555555555552,0)" xlink:href="#aW"/><use transform="matrix(0.08641975308641973,0,0,0.08641975308641973,32.8395061728395,0)" xlink:href="#aX"/><use transform="matrix(0.08641975308641973,0,0,0.08641975308641973,50.12345679012345,0)" xlink:href="#aX"/><use transform="matrix(0.08641975308641973,0,0,0.08641975308641973,67.40740740740739,0)" xlink:href="#aS"/><use transform="matrix(0.08641975308641973,0,0,0.08641975308641973,84.69135802469134,0)" xlink:href="#aK"/><use transform="matrix(0.08641975308641973,0,0,0.08641975308641973,94.97530864197529,0)" xlink:href="#aT"/><use transform="matrix(0.08641975308641973,0,0,0.08641975308641973,103.61728395061726,0)" xlink:href="#aV"/><use transform="matrix(0.08641975308641973,0,0,0.08641975308641973,120.90123456790121,0)" xlink:href="#aJ"/></g><path fill="#333" d="M187 0l-14-72H61L19 0h-37l149-248h38L221 0h-34zm-19-99l-22-123L76-99h92" id="bl"/><use transform="matrix(0.08641975308641973,0,0,0.08641975308641973,0,0)" xlink:href="#bl" id="M"/><g id="N"><use transform="matrix(0.08641975308641973,0,0,0.08641975308641973,0,0)" xlink:href="#aH"/><use transform="matrix(0.08641975308641973,0,0,0.08641975308641973,15.555555555555552,0)" xlink:href="#ba"/><use transform="matrix(0.08641975308641973,0,0,0.08641975308641973,22.38271604938271,0)" xlink:href="#aI"/><use transform="matrix(0.08641975308641973,0,0,0.08641975308641973,39.66666666666666,0)" xlink:href="#aU"/><use transform="matrix(0.08641975308641973,0,0,0.08641975308641973,56.950617283950606,0)" xlink:href="#bb"/><use transform="matrix(0.08641975308641973,0,0,0.08641975308641973,63.777777777777764,0)" xlink:href="#aV"/></g><g id="O"><use transform="matrix(0.08641975308641973,0,0,0.08641975308641973,0,0)" xlink:href="#ba"/><use transform="matrix(0.08641975308641973,0,0,0.08641975308641973,6.827160493827159,0)" xlink:href="#aI"/><use transform="matrix(0.08641975308641973,0,0,0.08641975308641973,24.111111111111107,0)" xlink:href="#aH"/><use transform="matrix(0.08641975308641973,0,0,0.08641975308641973,39.66666666666666,0)" xlink:href="#aT"/><use transform="matrix(0.08641975308641973,0,0,0.08641975308641973,48.30864197530863,0)" xlink:href="#aG"/><use transform="matrix(0.08641975308641973,0,0,0.08641975308641973,65.59259259259258,0)" xlink:href="#aI"/><use transform="matrix(0.08641975308641973,0,0,0.08641975308641973,82.87654320987653,0)" xlink:href="#bd"/><use transform="matrix(0.08641975308641973,0,0,0.08641975308641973,98.4320987654321,0)" xlink:href="#aV"/></g><path fill="#333" d="M76-167L44 0H12l33-167H18l4-23h27c3-47 25-81 82-69l-4 24c-35-8-44 15-46 45h37l-5 23H76" id="bm"/><g id="P"><use transform="matrix(0.08641975308641973,0,0,0.08641975308641973,0,0)" xlink:href="#aS"/><use transform="matrix(0.08641975308641973,0,0,0.08641975308641973,17.283950617283946,0)" xlink:href="#bm"/></g><path fill="#333" d="M67-158c15-20 31-36 64-36 94 0 33 127 27 194h-32l25-140c3-38-53-32-70-12C52-117 51-51 37 0H6l51-261h31" id="bn"/><g id="Q"><use transform="matrix(0.08641975308641973,0,0,0.08641975308641973,0,0)" xlink:href="#aT"/><use transform="matrix(0.08641975308641973,0,0,0.08641975308641973,8.641975308641973,0)" xlink:href="#bn"/><use transform="matrix(0.08641975308641973,0,0,0.08641975308641973,25.925925925925917,0)" xlink:href="#aV"/></g><path fill="#333" d="M151-220L108 0H75l42-220H32l6-28h203l-5 28h-85" id="bo"/><g id="R"><use transform="matrix(0.08641975308641973,0,0,0.08641975308641973,0,0)" xlink:href="#bo"/><use transform="matrix(0.08641975308641973,0,0,0.08641975308641973,16.07407407407407,0)" xlink:href="#aV"/><use transform="matrix(0.08641975308641973,0,0,0.08641975308641973,33.35802469135801,0)" xlink:href="#be"/><use transform="matrix(0.08641975308641973,0,0,0.08641975308641973,59.19753086419751,0)" xlink:href="#aX"/><use transform="matrix(0.08641975308641973,0,0,0.08641975308641973,76.48148148148145,0)" xlink:href="#aS"/><use transform="matrix(0.08641975308641973,0,0,0.08641975308641973,93.76543209876539,0)" xlink:href="#aK"/><use transform="matrix(0.08641975308641973,0,0,0.08641975308641973,104.04938271604937,0)" xlink:href="#aG"/><use transform="matrix(0.08641975308641973,0,0,0.08641975308641973,121.3333333333333,0)" xlink:href="#bb"/></g><path fill="#333" d="M89 0H52L20-190h33L74-25l89-165h34" id="bp"/><g id="S"><use transform="matrix(0.08641975308641973,0,0,0.08641975308641973,0,0)" xlink:href="#aO"/><use transform="matrix(0.08641975308641973,0,0,0.08641975308641973,20.740740740740737,0)" xlink:href="#aV"/><use transform="matrix(0.08641975308641973,0,0,0.08641975308641973,38.02469135802468,0)" xlink:href="#aK"/><use transform="matrix(0.08641975308641973,0,0,0.08641975308641973,48.30864197530863,0)" xlink:href="#bp"/><use transform="matrix(0.08641975308641973,0,0,0.08641975308641973,63.86419753086418,0)" xlink:href="#aV"/><use transform="matrix(0.08641975308641973,0,0,0.08641975308641973,81.14814814814812,0)" xlink:href="#aK"/></g><g id="T"><use transform="matrix(0.08641975308641973,0,0,0.08641975308641973,0,0)" xlink:href="#aG"/><use transform="matrix(0.08641975308641973,0,0,0.08641975308641973,17.283950617283946,0)" xlink:href="#aI"/><use transform="matrix(0.08641975308641973,0,0,0.08641975308641973,34.56790123456789,0)" xlink:href="#aJ"/></g><g id="U"><use transform="matrix(0.08641975308641973,0,0,0.08641975308641973,0,0)" xlink:href="#aG"/><use transform="matrix(0.08641975308641973,0,0,0.08641975308641973,17.283950617283946,0)" xlink:href="#bb"/><use transform="matrix(0.08641975308641973,0,0,0.08641975308641973,24.111111111111107,0)" xlink:href="#bb"/></g><g id="V"><use transform="matrix(0.08641975308641973,0,0,0.08641975308641973,0,0)" xlink:href="#ba"/><use transform="matrix(0.08641975308641973,0,0,0.08641975308641973,6.827160493827159,0)" xlink:href="#aI"/><use transform="matrix(0.08641975308641973,0,0,0.08641975308641973,24.111111111111107,0)" xlink:href="#aH"/><use transform="matrix(0.08641975308641973,0,0,0.08641975308641973,39.66666666666666,0)" xlink:href="#aT"/><use transform="matrix(0.08641975308641973,0,0,0.08641975308641973,48.30864197530863,0)" xlink:href="#aG"/><use transform="matrix(0.08641975308641973,0,0,0.08641975308641973,65.59259259259258,0)" xlink:href="#aI"/><use transform="matrix(0.08641975308641973,0,0,0.08641975308641973,82.87654320987653,0)" xlink:href="#bd"/><use transform="matrix(0.08641975308641973,0,0,0.08641975308641973,98.4320987654321,0)" xlink:href="#aV"/><use transform="matrix(0.08641975308641973,0,0,0.08641975308641973,115.71604938271605,0)" xlink:href="#aH"/></g><g id="W"><use transform="matrix(0.08641975308641973,0,0,0.08641975308641973,0,0)" xlink:href="#ba"/><use transform="matrix(0.08641975308641973,0,0,0.08641975308641973,6.827160493827159,0)" xlink:href="#aT"/><use transform="matrix(0.08641975308641973,0,0,0.08641975308641973,15.469135802469133,0)" xlink:href="#aH"/></g><g id="X"><use transform="matrix(0.08641975308641973,0,0,0.08641975308641973,0,0)" xlink:href="#aH"/><use transform="matrix(0.08641975308641973,0,0,0.08641975308641973,15.555555555555552,0)" xlink:href="#aV"/><use transform="matrix(0.08641975308641973,0,0,0.08641975308641973,32.8395061728395,0)" xlink:href="#aK"/><use transform="matrix(0.08641975308641973,0,0,0.08641975308641973,43.12345679012345,0)" xlink:href="#bp"/><use transform="matrix(0.08641975308641973,0,0,0.08641975308641973,58.679012345679,0)" xlink:href="#ba"/><use transform="matrix(0.08641975308641973,0,0,0.08641975308641973,65.50617283950616,0)" xlink:href="#bd"/><use transform="matrix(0.08641975308641973,0,0,0.08641975308641973,81.06172839506172,0)" xlink:href="#aV"/><use transform="matrix(0.08641975308641973,0,0,0.08641975308641973,98.34567901234568,0)" xlink:href="#aH"/></g><g id="Y"><use transform="matrix(0.08641975308641973,0,0,0.08641975308641973,0,0)" xlink:href="#bd"/><use transform="matrix(0.08641975308641973,0,0,0.08641975308641973,15.555555555555552,0)" xlink:href="#aS"/><use transform="matrix(0.08641975308641973,0,0,0.08641975308641973,32.8395061728395,0)" xlink:href="#aI"/><use transform="matrix(0.08641975308641973,0,0,0.08641975308641973,50.12345679012345,0)" xlink:href="#aH"/><use transform="matrix(0.08641975308641973,0,0,0.08641975308641973,65.679012345679,0)" xlink:href="#ba"/><use transform="matrix(0.08641975308641973,0,0,0.08641975308641973,72.50617283950616,0)" xlink:href="#aJ"/><use transform="matrix(0.08641975308641973,0,0,0.08641975308641973,89.7901234567901,0)" xlink:href="#aV"/><use transform="matrix(0.08641975308641973,0,0,0.08641975308641973,107.07407407407408,0)" xlink:href="#aK"/><use transform="matrix(0.08641975308641973,0,0,0.08641975308641973,117.35802469135803,0)" xlink:href="#aV"/><use transform="matrix(0.08641975308641973,0,0,0.08641975308641973,134.64197530864195,0)" xlink:href="#aJ"/></g><use transform="matrix(0.08641975308641973,0,0,0.08641975308641973,0,0)" xlink:href="#aG" id="Z"/><g id="aa"><use transform="matrix(0.08641975308641973,0,0,0.08641975308641973,0,0)" xlink:href="#aF"/><use transform="matrix(0.08641975308641973,0,0,0.08641975308641973,22.38271604938271,0)" xlink:href="#bb"/><use transform="matrix(0.08641975308641973,0,0,0.08641975308641973,29.20987654320987,0)" xlink:href="#aW"/><use transform="matrix(0.08641975308641973,0,0,0.08641975308641973,46.493827160493815,0)" xlink:href="#aH"/><use transform="matrix(0.08641975308641973,0,0,0.08641975308641973,62.04938271604937,0)" xlink:href="#aT"/><use transform="matrix(0.08641975308641973,0,0,0.08641975308641973,70.69135802469134,0)" xlink:href="#aV"/><use transform="matrix(0.08641975308641973,0,0,0.08641975308641973,87.97530864197529,0)" xlink:href="#aK"/></g></defs></g></svg>