<svg xmlns="http://www.w3.org/2000/svg" xmlns:xlink="http://www.w3.org/1999/xlink" xmlns:lucid="lucid" width="1240" height="480"><g transform="translate(1320 1220)" lucid:page-tab-id="0_0"><path d="M-1040-1085c0-8.28 6.72-15 15-15h530c8.28 0 15 6.72 15 15v310c0 8.28-6.72 15-15 15h-530c-8.28 0-15-6.72-15-15z" fill-opacity="0"/><path d="M-1030.7-1098.74l1.8-.75 3.9-.5h6.02m12.05 0h12.04m12.06 0h12.04m12.05 0h12.05m12.04 0h12.05m12.03 0h12.05m12.04 0h12.05m12.04 0h12.06m12.04 0h12.05m12.05 0h12.04m12.05 0h12.03m12.05 0h12.04m12.05 0h12.04m12.06 0h12.04m12.05 0h12.05m12.04 0h12.05m12.03 0h12.05m12.04 0h12.05m12.04 0h12.06m12.04 0h12.05m12.05 0h12.04m12.05 0h12.03m12.05 0h6.02l3.9.5 1.8.76m8.04 8.05l.75 1.8.5 3.9v5.96m0 11.92v11.93m0 11.93v11.92m0 11.93v11.92m0 11.92v11.93m0 11.92v11.92m0 11.92v11.92m0 11.92v11.92m0 11.93v11.93m0 11.92v11.93m0 11.92v11.92m0 11.93v11.92m0 11.92v11.92m0 11.92v5.96l-.5 3.9-.76 1.8m-8.05 8.04l-1.8.75-3.9.5h-6.02m-12.05 0h-12.04m-12.06 0h-12.04m-12.05 0h-12.05m-12.04 0h-12.05m-12.03 0h-12.05m-12.04 0h-12.05m-12.04 0h-12.06m-12.04 0h-12.05m-12.05 0h-12.04m-12.05 0h-12.03m-12.05 0h-12.04m-12.05 0h-12.04m-12.06 0h-12.04m-12.05 0h-12.05m-12.04 0h-12.05m-12.03 0h-12.05m-12.04 0h-12.05m-12.04 0h-12.06m-12.04 0h-12.05m-12.05 0h-12.04m-12.05 0h-12.03m-12.05 0h-6.02l-3.9-.5-1.8-.76m-8.04-8.05l-.75-1.8-.5-3.9v-5.96m0-11.92v-11.93m0-11.93v-11.92m0-11.93v-11.92m0-11.92v-11.93m0-11.92v-11.92m0-11.92v-11.92m0-11.92v-11.92m0-11.93v-11.93m0-11.92v-11.93m0-11.92v-11.92m0-11.93v-11.92m0-11.92v-11.92m0-11.92v-5.96l.5-3.9.76-1.8" stroke="#333" stroke-width="3" fill="none"/><path d="M-1020-920h520v140h-520z" stroke="#333" stroke-width="3" fill="#127ae5"/><use xlink:href="#a" transform="matrix(1,0,0,1,-998,-898) translate(133.39506172839515 52.88888888888887)"/><use xlink:href="#b" transform="matrix(1,0,0,1,-998,-898) translate(241.02469135802468 52.88888888888887)"/><path d="M-870-1194c0-3.3 2.7-6 6-6h208c3.3 0 6 2.7 6 6v48c0 3.3-2.7 6-6 6h-208c-3.3 0-6-2.7-6-6z" stroke="#000" stroke-opacity="0" stroke-width="3" fill="#fff" fill-opacity="0"/><use xlink:href="#c" transform="matrix(1,0,0,1,-865,-1195) translate(14.876543209876615 20.965277777777768)"/><use xlink:href="#d" transform="matrix(1,0,0,1,-865,-1195) translate(112.5925925925926 20.965277777777768)"/><use xlink:href="#e" transform="matrix(1,0,0,1,-865,-1195) translate(56.38888888888893 47.631944444444414)"/><path d="M-760-1139v36.5" stroke="#333" stroke-width="2" fill="none"/><path d="M-759-1138.97h-2v-1.03h2M-759-1101.5h-2v-1.03h2" fill="#333"/><path d="M-440-882.33c0-3.32 2.7-6 6-6h328c3.3 0 6 2.68 6 6v64.66c0 3.32-2.7 6-6 6h-328c-3.3 0-6-2.68-6-6z" stroke="#000" stroke-opacity="0" stroke-width="3" fill="#fff" fill-opacity="0"/><use xlink:href="#f" transform="matrix(1,0,0,1,-435,-883.3333333671173) translate(18.765432098765444 24.05902777777778)"/><use xlink:href="#g" transform="matrix(1,0,0,1,-435,-883.3333333671173) translate(79.25925925925927 24.05902777777778)"/><use xlink:href="#h" transform="matrix(1,0,0,1,-435,-883.3333333671173) translate(152.03703703703704 24.05902777777778)"/><use xlink:href="#i" transform="matrix(1,0,0,1,-435,-883.3333333671173) translate(245.80246913580245 24.05902777777778)"/><use xlink:href="#j" transform="matrix(1,0,0,1,-435,-883.3333333671173) translate(275.4320987654321 24.05902777777778)"/><use xlink:href="#k" transform="matrix(1,0,0,1,-435,-883.3333333671173) translate(10.895061728395063 50.72569444444445)"/><use xlink:href="#l" transform="matrix(1,0,0,1,-435,-883.3333333671173) translate(108.17901234567901 50.72569444444445)"/><use xlink:href="#h" transform="matrix(1,0,0,1,-435,-883.3333333671173) translate(172.2530864197531 50.72569444444445)"/><use xlink:href="#i" transform="matrix(1,0,0,1,-435,-883.3333333671173) translate(266.0185185185185 50.72569444444445)"/><use xlink:href="#m" transform="matrix(1,0,0,1,-435,-883.3333333671173) translate(295.64814814814815 50.72569444444445)"/><path d="M-441-850h-56.5" stroke="#333" stroke-width="2" fill="none"/><path d="M-440-849h-1.03v-2h1.03M-497.47-849h-1.03v-2h1.03" fill="#333"/><path d="M-1020-1080h140v140h-140z" stroke="#333" stroke-width="3" fill="#fff"/><g><use xlink:href="#n" transform="matrix(1,0,0,1,-1015,-1075) translate(25.104938271604937 41.138888888888886)"/><use xlink:href="#o" transform="matrix(1,0,0,1,-1015,-1075) translate(21.94444444444445 78.4722222222222)"/><use xlink:href="#p" transform="matrix(1,0,0,1,-1015,-1075) translate(58.82716049382716 108.69444444444443)"/></g><path d="M-642.5-1080h140v140h-140z" stroke="#333" stroke-width="3" fill="#fff"/><g><use xlink:href="#n" transform="matrix(1,0,0,1,-637.5,-1075) translate(25.104938271604937 41.138888888888886)"/><use xlink:href="#o" transform="matrix(1,0,0,1,-637.5,-1075) translate(21.94444444444445 78.4722222222222)"/><use xlink:href="#q" transform="matrix(1,0,0,1,-637.5,-1075) translate(58.82716049382716 108.69444444444443)"/></g><path d="M-1300-1034c0-3.3 2.7-6 6-6h208c3.3 0 6 2.7 6 6v48c0 3.3-2.7 6-6 6h-208c-3.3 0-6-2.7-6-6z" stroke="#000" stroke-opacity="0" stroke-width="3" fill="#fff" fill-opacity="0"/><g><use xlink:href="#r" transform="matrix(1,0,0,1,-1295,-1035) translate(44.629629629629626 17.77777777777778)"/><use xlink:href="#s" transform="matrix(1,0,0,1,-1295,-1035) translate(133.33333333333334 17.77777777777778)"/><use xlink:href="#t" transform="matrix(1,0,0,1,-1295,-1035) translate(25.40123456790124 44.44444444444444)"/><use xlink:href="#u" transform="matrix(1,0,0,1,-1295,-1035) translate(119.16666666666667 44.44444444444444)"/><use xlink:href="#v" transform="matrix(1,0,0,1,-1295,-1035) translate(148.7962962962963 44.44444444444444)"/></g><path d="M-1079-1010h56.5" stroke="#333" stroke-width="2" fill="none"/><path d="M-1078.97-1009h-1.03v-2h1.03M-1021.5-1009h-1.03v-2h1.03" fill="#333"/><path d="M-750-1010c0 5.52-4.48 10-10 10s-10-4.48-10-10 4.48-10 10-10 10 4.48 10 10zM-705-1010c0 5.52-4.48 10-10 10s-10-4.48-10-10 4.48-10 10-10 10 4.48 10 10zM-800-1010c0 5.52-4.48 10-10 10s-10-4.48-10-10 4.48-10 10-10 10 4.48 10 10z" stroke="#333" stroke-width="3" fill="#333"/><defs><path fill="#fff" d="M127-220V0H93v-220H8v-28h204v28h-85" id="w"/><path fill="#fff" d="M100-194c63 0 86 42 84 106H49c0 40 14 67 53 68 26 1 43-12 49-29l28 8c-11 28-37 45-77 45C44 4 14-33 15-96c1-61 26-98 85-98zm52 81c6-60-76-77-97-28-3 7-6 17-6 28h103" id="x"/><path fill="#fff" d="M210-169c-67 3-38 105-44 169h-31v-121c0-29-5-50-35-48C34-165 62-65 56 0H25l-1-190h30c1 10-1 24 2 32 10-44 99-50 107 0 11-21 27-35 58-36 85-2 47 119 55 194h-31v-121c0-29-5-49-35-48" id="y"/><path fill="#fff" d="M115-194c55 1 70 41 70 98S169 2 115 4C84 4 66-9 55-30l1 105H24l-1-265h31l2 30c10-21 28-34 59-34zm-8 174c40 0 45-34 45-75s-6-73-45-74c-42 0-51 32-51 76 0 43 10 73 51 73" id="z"/><path fill="#fff" d="M100-194c62-1 85 37 85 99 1 63-27 99-86 99S16-35 15-95c0-66 28-99 85-99zM99-20c44 1 53-31 53-75 0-43-8-75-51-75s-53 32-53 75 10 74 51 75" id="A"/><path fill="#fff" d="M114-163C36-179 61-72 57 0H25l-1-190h30c1 12-1 29 2 39 6-27 23-49 58-41v29" id="B"/><path fill="#fff" d="M141-36C126-15 110 5 73 4 37 3 15-17 15-53c-1-64 63-63 125-63 3-35-9-54-41-54-24 1-41 7-42 31l-33-3c5-37 33-52 76-52 45 0 72 20 72 64v82c-1 20 7 32 28 27v20c-31 9-61-2-59-35zM48-53c0 20 12 33 32 33 41-3 63-29 60-74-43 2-92-5-92 41" id="C"/><path fill="#fff" d="M24 0v-261h32V0H24" id="D"/><g id="a"><use transform="matrix(0.08641975308641969,0,0,0.08641975308641969,0,0)" xlink:href="#w"/><use transform="matrix(0.06172839506172832,0,0,0.06172839506172832,18.925925925925913,0)" xlink:href="#x"/><use transform="matrix(0.06172839506172832,0,0,0.06172839506172832,31.27160493827158,0)" xlink:href="#y"/><use transform="matrix(0.06172839506172832,0,0,0.06172839506172832,49.72839506172835,0)" xlink:href="#z"/><use transform="matrix(0.06172839506172832,0,0,0.06172839506172832,62.07407407407401,0)" xlink:href="#A"/><use transform="matrix(0.06172839506172832,0,0,0.06172839506172832,74.41975308641968,0)" xlink:href="#B"/><use transform="matrix(0.06172839506172832,0,0,0.06172839506172832,81.76543209876534,0)" xlink:href="#C"/><use transform="matrix(0.06172839506172832,0,0,0.06172839506172832,94.11111111111101,0)" xlink:href="#D"/></g><path fill="#fff" d="M212-179c-10-28-35-45-73-45-59 0-87 40-87 99 0 60 29 101 89 101 43 0 62-24 78-52l27 14C228-24 195 4 139 4 59 4 22-46 18-125c-6-104 99-153 187-111 19 9 31 26 39 46" id="E"/><path fill="#fff" d="M84 4C-5 8 30-112 23-190h32v120c0 31 7 50 39 49 72-2 45-101 50-169h31l1 190h-30c-1-10 1-25-2-33-11 22-28 36-60 37" id="F"/><path fill="#fff" d="M135-143c-3-34-86-38-87 0 15 53 115 12 119 90S17 21 10-45l28-5c4 36 97 45 98 0-10-56-113-15-118-90-4-57 82-63 122-42 12 7 21 19 24 35" id="G"/><path fill="#fff" d="M59-47c-2 24 18 29 38 22v24C64 9 27 4 27-40v-127H5v-23h24l9-43h21v43h35v23H59v120" id="H"/><g id="b"><use transform="matrix(0.08641975308641969,0,0,0.08641975308641969,0,0)" xlink:href="#E"/><use transform="matrix(0.06172839506172832,0,0,0.06172839506172832,22.3827160493827,0)" xlink:href="#D"/><use transform="matrix(0.06172839506172832,0,0,0.06172839506172832,27.259259259259238,0)" xlink:href="#F"/><use transform="matrix(0.06172839506172832,0,0,0.06172839506172832,39.6049382716049,0)" xlink:href="#G"/><use transform="matrix(0.06172839506172832,0,0,0.06172839506172832,50.716049382716,0)" xlink:href="#H"/><use transform="matrix(0.06172839506172832,0,0,0.06172839506172832,56.888888888888836,0)" xlink:href="#x"/><use transform="matrix(0.06172839506172832,0,0,0.06172839506172832,69.2345679012345,0)" xlink:href="#B"/></g><path fill="#333" d="M151-220L108 0H75l42-220H32l6-28h203l-5 28h-85" id="I"/><path fill="#333" d="M111-194c62-3 86 47 72 106H45c-7 38 6 69 45 68 27-1 43-14 53-32l24 11C152-15 129 4 87 4 38 3 12-23 12-71c0-70 32-119 99-123zm44 81c14-66-71-72-95-28-4 8-8 17-11 28h106" id="J"/><path fill="#333" d="M248-111c6-24 9-61-24-58-72 9-57 108-77 169h-31l26-142c3-37-50-30-64-10C52-115 50-51 37 0H6l36-190h30c-1 10-6 24-4 32 13-43 101-52 105 5 13-22 29-41 61-41 90 0 28 129 23 194h-31" id="K"/><path fill="#333" d="M67-162c32-53 139-36 121 50C175-51 163 2 97 4 68 4 52-11 42-31 38 6 28 39 22 75H-9l50-265h29c-1 10 0 20-3 28zm89 36c0-26-10-43-35-43-54 0-67 50-69 103-1 29 14 45 42 46 53 0 62-58 62-106" id="L"/><path fill="#333" d="M30-147c31-64 166-65 159 27C183-49 158 1 86 4 9 8 1-88 30-147zM88-20c53 0 68-48 68-100 0-31-11-51-44-50-52 1-68 46-68 97 0 32 13 53 44 53" id="M"/><path fill="#333" d="M66-151c12-25 30-51 66-40l-6 26C45-176 58-65 38 0H6l36-190h30" id="N"/><path fill="#333" d="M165-48c-4 18 1 34 23 27l-3 20c-29 8-62 0-52-35h-2C116-14 99 4 63 4 30 4 8-16 8-49c0-68 71-67 138-67 10-26 0-56-31-54-26 1-42 9-47 31l-32-5c8-67 160-71 144 15-5 28-9 54-15 81zM42-50c3 52 80 24 89-6 7-12 7-24 11-38-47 1-103-4-100 44" id="O"/><path fill="#333" d="M6 0l50-261h32L37 0H6" id="P"/><g id="c"><use transform="matrix(0.06172839506172835,0,0,0.06172839506172835,0,0)" xlink:href="#I"/><use transform="matrix(0.06172839506172835,0,0,0.06172839506172835,11.481481481481474,0)" xlink:href="#J"/><use transform="matrix(0.06172839506172835,0,0,0.06172839506172835,23.827160493827144,0)" xlink:href="#K"/><use transform="matrix(0.06172839506172835,0,0,0.06172839506172835,42.28395061728392,0)" xlink:href="#L"/><use transform="matrix(0.06172839506172835,0,0,0.06172839506172835,54.62962962962959,0)" xlink:href="#M"/><use transform="matrix(0.06172839506172835,0,0,0.06172839506172835,66.97530864197526,0)" xlink:href="#N"/><use transform="matrix(0.06172839506172835,0,0,0.06172839506172835,74.32098765432093,0)" xlink:href="#O"/><use transform="matrix(0.06172839506172835,0,0,0.06172839506172835,86.6666666666666,0)" xlink:href="#P"/></g><path fill="#333" d="M238-179c0 84-86 86-175 82L45 0H11l48-248c82 0 179-12 179 69zm-34 1c0-53-64-42-116-43l-19 98c63 0 135 9 135-55" id="Q"/><path fill="#333" d="M51-54c-9 22 5 41 31 30L79-1C43 14 10-4 19-52l22-115H19l5-23h22l19-43h21l-9 43h35l-4 23H73" id="R"/><path fill="#333" d="M76-167L44 0H12l33-167H18l4-23h27c3-47 25-81 82-69l-4 24c-35-8-44 15-46 45h37l-5 23H76" id="S"/><g id="d"><use transform="matrix(0.06172839506172835,0,0,0.06172839506172835,0,0)" xlink:href="#Q"/><use transform="matrix(0.06172839506172835,0,0,0.06172839506172835,14.814814814814804,0)" xlink:href="#P"/><use transform="matrix(0.06172839506172835,0,0,0.06172839506172835,19.691358024691343,0)" xlink:href="#O"/><use transform="matrix(0.06172839506172835,0,0,0.06172839506172835,32.03703703703701,0)" xlink:href="#R"/><use transform="matrix(0.06172839506172835,0,0,0.06172839506172835,38.209876543209845,0)" xlink:href="#S"/><use transform="matrix(0.06172839506172835,0,0,0.06172839506172835,44.38271604938268,0)" xlink:href="#M"/><use transform="matrix(0.06172839506172835,0,0,0.06172839506172835,56.72839506172835,0)" xlink:href="#N"/><use transform="matrix(0.06172839506172835,0,0,0.06172839506172835,64.07407407407402,0)" xlink:href="#K"/></g><path fill="#333" d="M17-49c1-102 45-165 103-212h30C92-210 49-145 49-46 49 4 63 43 85 75H54C30 43 18 2 17-49" id="T"/><path fill="#333" d="M249-183c0 48-29 72-75 77L221 0h-36l-43-103H65L45 0H11l48-248c83 2 190-17 190 65zm-34 3c0-55-74-39-127-41l-18 92c63-1 145 13 145-51" id="U"/><path fill="#333" d="M67 3c-93-2-31-127-26-193h32L48-50c-3 39 53 32 70 12 30-34 30-101 43-152h32L157 0h-30c1-10 6-24 4-33-14 20-29 37-64 36" id="V"/><path fill="#333" d="M67-158c22-48 132-52 116 29L158 0h-32l25-140c3-38-53-32-70-12C52-117 51-52 38 0H6l36-190h30" id="W"/><path fill="#333" d="M50-231l6-30h32l-6 30H50zM6 0l37-190h31L37 0H6" id="X"/><path fill="#333" d="M98-137C97-35 54 29-4 75h-31C23 23 67-41 67-140c0-50-15-89-37-121h31c24 32 36 73 37 124" id="Y"/><g id="e"><use transform="matrix(0.06172839506172835,0,0,0.06172839506172835,0,0)" xlink:href="#T"/><use transform="matrix(0.06172839506172835,0,0,0.06172839506172835,7.345679012345673,0)" xlink:href="#U"/><use transform="matrix(0.06172839506172835,0,0,0.06172839506172835,23.333333333333314,0)" xlink:href="#V"/><use transform="matrix(0.06172839506172835,0,0,0.06172839506172835,35.679012345678984,0)" xlink:href="#W"/><use transform="matrix(0.06172839506172835,0,0,0.06172839506172835,48.024691358024654,0)" xlink:href="#R"/><use transform="matrix(0.06172839506172835,0,0,0.06172839506172835,54.19753086419749,0)" xlink:href="#X"/><use transform="matrix(0.06172839506172835,0,0,0.06172839506172835,59.074074074074026,0)" xlink:href="#K"/><use transform="matrix(0.06172839506172835,0,0,0.06172839506172835,77.5308641975308,0)" xlink:href="#J"/><use transform="matrix(0.06172839506172835,0,0,0.06172839506172835,89.87654320987647,0)" xlink:href="#Y"/></g><path fill="#333" d="M140-251c81 0 123 46 123 126C263-46 219 4 140 4 59 4 17-45 17-125s42-126 123-126zm0 227c63 0 89-41 89-101s-29-99-89-99c-61 0-89 39-89 99S79-25 140-24" id="Z"/><path fill="#333" d="M115-194c55 1 70 41 70 98S169 2 115 4C84 4 66-9 55-30l1 105H24l-1-265h31l2 30c10-21 28-34 59-34zm-8 174c40 0 45-34 45-75s-6-73-45-74c-42 0-51 32-51 76 0 43 10 73 51 73" id="aa"/><path fill="#333" d="M100-194c63 0 86 42 84 106H49c0 40 14 67 53 68 26 1 43-12 49-29l28 8c-11 28-37 45-77 45C44 4 14-33 15-96c1-61 26-98 85-98zm52 81c6-60-76-77-97-28-3 7-6 17-6 28h103" id="ab"/><path fill="#333" d="M117-194c89-4 53 116 60 194h-32v-121c0-31-8-49-39-48C34-167 62-67 57 0H25l-1-190h30c1 10-1 24 2 32 11-22 29-35 61-36" id="ac"/><g id="f"><use transform="matrix(0.06172839506172839,0,0,0.06172839506172839,0,0)" xlink:href="#Z"/><use transform="matrix(0.06172839506172839,0,0,0.06172839506172839,17.28395061728395,0)" xlink:href="#aa"/><use transform="matrix(0.06172839506172839,0,0,0.06172839506172839,29.629629629629626,0)" xlink:href="#ab"/><use transform="matrix(0.06172839506172839,0,0,0.06172839506172839,41.9753086419753,0)" xlink:href="#ac"/></g><path fill="#333" d="M135-143c-3-34-86-38-87 0 15 53 115 12 119 90S17 21 10-45l28-5c4 36 97 45 98 0-10-56-113-15-118-90-4-57 82-63 122-42 12 7 21 19 24 35" id="ad"/><path fill="#333" d="M100-194c62-1 85 37 85 99 1 63-27 99-86 99S16-35 15-95c0-66 28-99 85-99zM99-20c44 1 53-31 53-75 0-43-8-75-51-75s-53 32-53 75 10 74 51 75" id="ae"/><path fill="#333" d="M84 4C-5 8 30-112 23-190h32v120c0 31 7 50 39 49 72-2 45-101 50-169h31l1 190h-30c-1-10 1-25-2-33-11 22-28 36-60 37" id="af"/><path fill="#333" d="M114-163C36-179 61-72 57 0H25l-1-190h30c1 12-1 29 2 39 6-27 23-49 58-41v29" id="ag"/><path fill="#333" d="M96-169c-40 0-48 33-48 73s9 75 48 75c24 0 41-14 43-38l32 2c-6 37-31 61-74 61-59 0-76-41-82-99-10-93 101-131 147-64 4 7 5 14 7 22l-32 3c-4-21-16-35-41-35" id="ah"/><g id="g"><use transform="matrix(0.06172839506172839,0,0,0.06172839506172839,0,0)" xlink:href="#ad"/><use transform="matrix(0.06172839506172839,0,0,0.06172839506172839,11.11111111111111,0)" xlink:href="#ae"/><use transform="matrix(0.06172839506172839,0,0,0.06172839506172839,23.45679012345679,0)" xlink:href="#af"/><use transform="matrix(0.06172839506172839,0,0,0.06172839506172839,35.80246913580247,0)" xlink:href="#ag"/><use transform="matrix(0.06172839506172839,0,0,0.06172839506172839,43.148148148148145,0)" xlink:href="#ah"/><use transform="matrix(0.06172839506172839,0,0,0.06172839506172839,54.25925925925925,0)" xlink:href="#ab"/></g><path fill="#333" d="M141-36C126-15 110 5 73 4 37 3 15-17 15-53c-1-64 63-63 125-63 3-35-9-54-41-54-24 1-41 7-42 31l-33-3c5-37 33-52 76-52 45 0 72 20 72 64v82c-1 20 7 32 28 27v20c-31 9-61-2-59-35zM48-53c0 20 12 33 32 33 41-3 63-29 60-74-43 2-92-5-92 41" id="ai"/><path fill="#333" d="M59-47c-2 24 18 29 38 22v24C64 9 27 4 27-40v-127H5v-23h24l9-43h21v43h35v23H59v120" id="aj"/><path fill="#333" d="M85-194c31 0 48 13 60 33l-1-100h32l1 261h-30c-2-10 0-23-3-31C134-8 116 4 85 4 32 4 16-35 15-94c0-66 23-100 70-100zm9 24c-40 0-46 34-46 75 0 40 6 74 45 74 42 0 51-32 51-76 0-42-9-74-50-73" id="ak"/><g id="h"><use transform="matrix(0.06172839506172839,0,0,0.06172839506172839,0,0)" xlink:href="#ae"/><use transform="matrix(0.06172839506172839,0,0,0.06172839506172839,12.345679012345679,0)" xlink:href="#aa"/><use transform="matrix(0.06172839506172839,0,0,0.06172839506172839,24.691358024691358,0)" xlink:href="#ab"/><use transform="matrix(0.06172839506172839,0,0,0.06172839506172839,37.03703703703704,0)" xlink:href="#ag"/><use transform="matrix(0.06172839506172839,0,0,0.06172839506172839,44.382716049382715,0)" xlink:href="#ai"/><use transform="matrix(0.06172839506172839,0,0,0.06172839506172839,56.72839506172839,0)" xlink:href="#aj"/><use transform="matrix(0.06172839506172839,0,0,0.06172839506172839,62.901234567901234,0)" xlink:href="#ab"/><use transform="matrix(0.06172839506172839,0,0,0.06172839506172839,75.24691358024691,0)" xlink:href="#ak"/></g><path fill="#333" d="M115-194c53 0 69 39 70 98 0 66-23 100-70 100C84 3 66-7 56-30L54 0H23l1-261h32v101c10-23 28-34 59-34zm-8 174c40 0 45-34 45-75 0-40-5-75-45-74-42 0-51 32-51 76 0 43 10 73 51 73" id="al"/><path fill="#333" d="M179-190L93 31C79 59 56 82 12 73V49c39 6 53-20 64-50L1-190h34L92-34l54-156h33" id="am"/><g id="i"><use transform="matrix(0.06172839506172839,0,0,0.06172839506172839,0,0)" xlink:href="#al"/><use transform="matrix(0.06172839506172839,0,0,0.06172839506172839,12.345679012345679,0)" xlink:href="#am"/></g><g id="j"><use transform="matrix(0.06172839506172839,0,0,0.06172839506172839,0,0)" xlink:href="#am"/><use transform="matrix(0.06172839506172839,0,0,0.06172839506172839,11.11111111111111,0)" xlink:href="#ae"/><use transform="matrix(0.06172839506172839,0,0,0.06172839506172839,23.45679012345679,0)" xlink:href="#af"/></g><path fill="#333" d="M127-220V0H93v-220H8v-28h204v28h-85" id="an"/><path fill="#333" d="M210-169c-67 3-38 105-44 169h-31v-121c0-29-5-50-35-48C34-165 62-65 56 0H25l-1-190h30c1 10-1 24 2 32 10-44 99-50 107 0 11-21 27-35 58-36 85-2 47 119 55 194h-31v-121c0-29-5-49-35-48" id="ao"/><path fill="#333" d="M24 0v-261h32V0H24" id="ap"/><g id="k"><use transform="matrix(0.06172839506172839,0,0,0.06172839506172839,0,0)" xlink:href="#an"/><use transform="matrix(0.06172839506172839,0,0,0.06172839506172839,11.049382716049381,0)" xlink:href="#ab"/><use transform="matrix(0.06172839506172839,0,0,0.06172839506172839,23.39506172839506,0)" xlink:href="#ao"/><use transform="matrix(0.06172839506172839,0,0,0.06172839506172839,41.85185185185185,0)" xlink:href="#aa"/><use transform="matrix(0.06172839506172839,0,0,0.06172839506172839,54.197530864197525,0)" xlink:href="#ae"/><use transform="matrix(0.06172839506172839,0,0,0.06172839506172839,66.5432098765432,0)" xlink:href="#ag"/><use transform="matrix(0.06172839506172839,0,0,0.06172839506172839,73.88888888888889,0)" xlink:href="#ai"/><use transform="matrix(0.06172839506172839,0,0,0.06172839506172839,86.23456790123457,0)" xlink:href="#ap"/></g><path fill="#333" d="M212-179c-10-28-35-45-73-45-59 0-87 40-87 99 0 60 29 101 89 101 43 0 62-24 78-52l27 14C228-24 195 4 139 4 59 4 22-46 18-125c-6-104 99-153 187-111 19 9 31 26 39 46" id="aq"/><g id="l"><use transform="matrix(0.06172839506172839,0,0,0.06172839506172839,0,0)" xlink:href="#aq"/><use transform="matrix(0.06172839506172839,0,0,0.06172839506172839,15.987654320987653,0)" xlink:href="#ap"/><use transform="matrix(0.06172839506172839,0,0,0.06172839506172839,20.864197530864196,0)" xlink:href="#ae"/><use transform="matrix(0.06172839506172839,0,0,0.06172839506172839,33.20987654320987,0)" xlink:href="#af"/><use transform="matrix(0.06172839506172839,0,0,0.06172839506172839,45.55555555555555,0)" xlink:href="#ak"/></g><g id="m"><use transform="matrix(0.06172839506172839,0,0,0.06172839506172839,0,0)" xlink:href="#af"/><use transform="matrix(0.06172839506172839,0,0,0.06172839506172839,12.345679012345679,0)" xlink:href="#ad"/></g><path fill="#333" d="M266 0h-40l-56-210L115 0H75L2-248h35L96-30l15-64 43-154h32l59 218 59-218h35" id="ar"/><path fill="#333" d="M143 0L79-87 56-68V0H24v-261h32v163l83-92h37l-77 82L181 0h-38" id="as"/><g id="n"><use transform="matrix(0.08641975308641973,0,0,0.08641975308641973,0,0)" xlink:href="#ar"/><use transform="matrix(0.06172839506172839,0,0,0.06172839506172839,29.29629629629629,0)" xlink:href="#ae"/><use transform="matrix(0.06172839506172839,0,0,0.06172839506172839,41.64197530864197,0)" xlink:href="#ag"/><use transform="matrix(0.06172839506172839,0,0,0.06172839506172839,48.987654320987644,0)" xlink:href="#as"/><use transform="matrix(0.06172839506172839,0,0,0.06172839506172839,60.09876543209876,0)" xlink:href="#ab"/><use transform="matrix(0.06172839506172839,0,0,0.06172839506172839,72.44444444444444,0)" xlink:href="#ag"/></g><path fill="#333" d="M30-248c87 1 191-15 191 75 0 78-77 80-158 76V0H30v-248zm33 125c57 0 124 11 124-50 0-59-68-47-124-48v98" id="at"/><g id="o"><use transform="matrix(0.0864197530864197,0,0,0.0864197530864197,0,0)" xlink:href="#at"/><use transform="matrix(0.06172839506172839,0,0,0.06172839506172839,20.74074074074073,0)" xlink:href="#ag"/><use transform="matrix(0.06172839506172839,0,0,0.06172839506172839,28.08641975308641,0)" xlink:href="#ae"/><use transform="matrix(0.06172839506172839,0,0,0.06172839506172839,40.43209876543209,0)" xlink:href="#ah"/><use transform="matrix(0.06172839506172839,0,0,0.06172839506172839,51.5432098765432,0)" xlink:href="#ab"/><use transform="matrix(0.06172839506172839,0,0,0.06172839506172839,63.888888888888886,0)" xlink:href="#ad"/><use transform="matrix(0.06172839506172839,0,0,0.06172839506172839,74.99999999999999,0)" xlink:href="#ad"/></g><path fill="#333" d="M27 0v-27h64v-190l-56 39v-29l58-41h29v221h61V0H27" id="au"/><use transform="matrix(0.06172839506172839,0,0,0.06172839506172839,0,0)" xlink:href="#au" id="p"/><use transform="matrix(0.06172839506172839,0,0,0.06172839506172839,0,0)" xlink:href="#ac" id="q"/><path fill="#333" d="M247 0h-39l-15-214-24 57L95 0H56L31-248h35L82-30l101-218h33l16 218 101-218h35" id="av"/><path fill="#333" d="M127 0L80-88 50-66 37 0H6l51-261h31L57-100l99-90h39l-93 82L161 0h-34" id="aw"/><path fill="#333" d="M55-144c13 50 104 24 104 88C159 21 15 23 1-39l26-10c6 40 102 42 102-4-13-50-104-23-104-87 0-71 143-71 148-8l-29 4c-5-35-85-37-89 0" id="ax"/><g id="r"><use transform="matrix(0.06172839506172839,0,0,0.06172839506172839,0,0)" xlink:href="#av"/><use transform="matrix(0.06172839506172839,0,0,0.06172839506172839,20.925925925925924,0)" xlink:href="#M"/><use transform="matrix(0.06172839506172839,0,0,0.06172839506172839,33.2716049382716,0)" xlink:href="#N"/><use transform="matrix(0.06172839506172839,0,0,0.06172839506172839,40.61728395061728,0)" xlink:href="#aw"/><use transform="matrix(0.06172839506172839,0,0,0.06172839506172839,51.72839506172839,0)" xlink:href="#J"/><use transform="matrix(0.06172839506172839,0,0,0.06172839506172839,64.07407407407408,0)" xlink:href="#N"/><use transform="matrix(0.06172839506172839,0,0,0.06172839506172839,71.41975308641976,0)" xlink:href="#ax"/></g><g id="s"><use transform="matrix(0.06172839506172839,0,0,0.06172839506172839,0,0)" xlink:href="#O"/><use transform="matrix(0.06172839506172839,0,0,0.06172839506172839,12.345679012345679,0)" xlink:href="#N"/><use transform="matrix(0.06172839506172839,0,0,0.06172839506172839,19.691358024691358,0)" xlink:href="#J"/></g><path fill="#333" d="M133-28C103 26-5 8 13-77c13-62 24-115 90-117 29-1 46 15 56 35l19-102h32L160 0h-30zM45-64c-2 27 10 43 35 43 54-1 69-50 69-103 0-29-15-46-42-46-53-1-58 58-62 106" id="ay"/><g id="t"><use transform="matrix(0.06172839506172839,0,0,0.06172839506172839,0,0)" xlink:href="#M"/><use transform="matrix(0.06172839506172839,0,0,0.06172839506172839,12.345679012345679,0)" xlink:href="#L"/><use transform="matrix(0.06172839506172839,0,0,0.06172839506172839,24.691358024691358,0)" xlink:href="#J"/><use transform="matrix(0.06172839506172839,0,0,0.06172839506172839,37.03703703703704,0)" xlink:href="#N"/><use transform="matrix(0.06172839506172839,0,0,0.06172839506172839,44.382716049382715,0)" xlink:href="#O"/><use transform="matrix(0.06172839506172839,0,0,0.06172839506172839,56.72839506172839,0)" xlink:href="#R"/><use transform="matrix(0.06172839506172839,0,0,0.06172839506172839,62.901234567901234,0)" xlink:href="#J"/><use transform="matrix(0.06172839506172839,0,0,0.06172839506172839,75.24691358024691,0)" xlink:href="#ay"/></g><path fill="#333" d="M68-162c25-46 127-43 121 31C183-60 169 1 98 4 69 5 53-11 43-31L36 0H5l52-261h31zm88 36c2-27-9-43-34-43-55 0-70 51-70 103 0 29 15 45 43 46 52 0 58-58 61-106" id="az"/><path fill="#333" d="M198-190L69 30C53 58 25 83-20 72c4-11-1-27 19-22 33-1 43-29 59-52L20-190h32L79-34l84-156h35" id="aA"/><g id="u"><use transform="matrix(0.06172839506172839,0,0,0.06172839506172839,0,0)" xlink:href="#az"/><use transform="matrix(0.06172839506172839,0,0,0.06172839506172839,12.345679012345679,0)" xlink:href="#aA"/></g><g id="v"><use transform="matrix(0.06172839506172839,0,0,0.06172839506172839,0,0)" xlink:href="#aA"/><use transform="matrix(0.06172839506172839,0,0,0.06172839506172839,11.11111111111111,0)" xlink:href="#M"/><use transform="matrix(0.06172839506172839,0,0,0.06172839506172839,23.45679012345679,0)" xlink:href="#V"/></g></defs></g></svg>