<svg xmlns="http://www.w3.org/2000/svg" xmlns:xlink="http://www.w3.org/1999/xlink" xmlns:lucid="lucid" width="1140" height="740"><g transform="translate(2020 2020)" lucid:page-tab-id="0_0"><path d="M-2000-2000h1500v1000h-1500z" fill="#fff"/><path d="M-2000-1999a1 1 0 0 1 1-1h1098a1 1 0 0 1 1 1v698a1 1 0 0 1-1 1h-1098a1 1 0 0 1-1-1z" fill="#fff"/><path d="M-1729.45-1813.33a15 15 0 0 1 15-15h530a15 15 0 0 1 15 15v310a15 15 0 0 1-15 15h-530a15 15 0 0 1-15-15z" fill="none"/><path d="m-1728.5-1818.5.7-1.64.9-1.5m2.3-2.68 1.34-1.15 1.5-.92m3.25-1.34 1.7-.4h2m3.97 0h3.97m3.97 0h3.98m3.98-.02h3.97m3.97 0h3.98m3.97 0h3.97m3.97 0h3.97m3.97 0h3.97m3.98 0h3.98m3.97 0h3.97m3.98-.02h3.97m3.97 0h3.97m3.97 0h3.97m3.97 0h3.98m3.98 0h3.97m3.97 0h3.98m3.97 0h3.97m3.97 0 3.97-.02m3.97 0h3.97m3.98 0h3.98m3.97 0h3.97m3.98 0h3.97m3.97 0h3.97m3.97 0h3.97m3.97 0 4-.02m3.96 0h3.97m3.97 0h3.98m3.97 0h3.97m3.97 0h3.97m3.97 0h3.97m4 0h3.96m3.97 0h3.97m3.98-.02h3.97m3.97 0h3.97m3.97 0h3.97m3.97 0h4m3.96 0h3.97m3.97 0h3.98m3.97 0h3.97m3.97-.02h3.97m3.97 0h3.97m4 0h3.96m3.97 0h3.97m3.98 0h3.97m3.97 0h3.97m3.97 0h3.97m3.97 0 4-.02m3.96 0h3.97m3.97 0h3.98m3.97 0h3.97m3.97 0h3.97m3.97 0h3.97m4 0h3.96m3.97 0 3.97-.02m3.98 0h3.97m3.97 0h3.97m3.97 0h3.97m3.97 0h4m3.96 0h3.97m3.97 0h3.98m3.97 0h3.97m3.97-.02h3.97m3.97 0h3.97m4 0h3.96m3.97 0h3.97m3.98 0h3.97m3.97 0h3.97m3.97 0h1.98l1.76.13m3.43.83 1.63.67 1.5.92m2.68 2.3 1.15 1.33.9 1.5m1.36 3.25.4 1.72v2m0 4 .02 4m0 4.02v4m0 4v4m0 4v4.02m0 4v4m.02 4v4.02m0 4v4m0 4v4m0 4.02v4m.02 4v4m0 4.02v4m0 4v4m0 4v4.02m0 4 .02 4m0 4v4.02m0 4v4m0 4v4m0 4.02.02 4m0 4v4m0 4.02v4m0 4v4m0 4v4.02m.02 4v4m0 4v4.02m0 4v4m0 4v4m.02 4.02v4m0 4v4m0 4.02v4m0 4v4m0 4 .02 4.02m0 4v4m0 4v4.02m0 4v4m0 4 .02 4m0 4.02v4m0 4v4m0 4.02v4m0 4v2l-.12 1.77m-.83 3.42-.68 1.63-.92 1.5m-2.3 2.68-1.33 1.14-1.5.92m-3.25 1.35-1.72.4h-2m-3.96 0-3.97.02m-3.97 0h-3.98m-3.97 0h-3.97m-3.98 0h-3.97m-3.97 0h-3.97m-4 0h-3.96m-3.97 0h-3.97m-3.98 0h-3.97m-3.97 0h-3.98m-3.97 0h-3.97m-3.97 0h-4m-3.96 0-3.97.02m-3.97 0h-3.98m-3.97 0h-3.97m-3.98 0h-3.97m-3.97 0h-3.97m-4 0h-3.96m-3.97 0h-3.97m-3.98 0h-3.97m-3.97.02h-3.98m-3.97 0h-3.97m-3.97 0h-4m-3.96 0h-3.97m-3.97 0h-3.98m-3.97 0h-3.97m-3.98 0h-3.97m-3.97.02h-3.97m-4 0h-3.96m-3.97 0h-3.97m-3.98 0h-3.97m-3.97 0h-3.98m-3.97 0h-3.97m-3.97 0h-4m-3.96 0-3.97.02m-3.97 0h-3.98m-3.97 0h-3.97m-3.98 0h-3.97m-3.97 0h-3.97m-4 0h-3.96m-3.97 0h-3.97m-3.98 0-3.97.02m-3.97 0h-3.98m-3.97 0h-3.97m-3.97 0h-4m-3.96 0h-3.97m-3.97 0h-3.98m-3.97 0h-3.97m-3.98 0h-3.97m-3.97.02h-3.97m-4 0h-3.96m-3.97 0h-3.97m-3.98 0h-3.97m-3.97 0h-3.98m-3.97 0h-3.97m-3.97 0h-4m-3.96.02h-3.97m-3.97 0h-3.98m-3.97 0h-3.97m-3.98 0h-3.97m-3.97 0h-3.97m-4 0h-3.96m-3.97 0h-3.98m-3.98 0-3.97.02m-3.97 0h-3.98m-3.97 0h-3.97m-3.97 0h-4m-3.96 0h-2l-1.75-.13m-3.42-.82-1.64-.67-1.5-.92m-2.67-2.27-1.15-1.35-.92-1.5m-1.35-3.25-.4-1.72v-2m0-4-.02-4m0-4v-4m0-4v-4.02m0-4v-4m0-4-.02-4m0-4.02v-4m0-4v-4m0-4.02v-4m0-4v-4m0-4v-4.02m0-4v-4m-.02-4v-4.02m0-4v-4m0-4v-4m0-4.02v-4m-.02-4v-4m0-4.02v-4m0-4v-4m0-4v-4.02m0-4-.02-4m0-4v-4.02m0-4v-4m0-4v-4m0-4.02-.02-4m0-4v-4m0-4.02v-4m0-4v-4m0-4-.02-4.02m0-4v-4m0-4v-4.02m0-4v-4m0-4v-4m-.02-4.02v-4m0-4v-4m0-4.02v-4m0-4v-4m-.02-4v-4.02m0-4v-4m0-4v-2l.13-1.77" stroke="#333" fill="none"/><path d="M-1709.45-1648.33h520v140h-520z" stroke="#333" fill="#127ae5"/><use xlink:href="#a" transform="translate(-1546.915 -1573.444)"/><use xlink:href="#b" transform="translate(-1447.162 -1573.444)"/><path d="M-1370.55-1922.33a6 6 0 0 1 6-6h208a6 6 0 0 1 6 6v48a6 6 0 0 1-6 6h-208a6 6 0 0 1-6-6z" fill="none"/><use xlink:href="#c" transform="translate(-1350.677 -1902.368)"/><use xlink:href="#d" transform="translate(-1252.961 -1902.368)"/><use xlink:href="#e" transform="translate(-1309.165 -1875.701)"/><path d="M-1260.55-1867.87v19.27h-.02v19.3" stroke="#333" fill="none"/><path d="M-1260.05-1867.86h-1v-.5h1zm-.03 39.06h-1v-.52h1z" stroke="#333" stroke-width=".05" fill="#333"/><path d="M-1729.45-1442.33a6 6 0 0 1 6-6h548a6 6 0 0 1 6 6v64.66a6 6 0 0 1-6 6h-548a6 6 0 0 1-6-6z" fill="none"/><use xlink:href="#f" transform="translate(-1595.68 -1419.274)"/><use xlink:href="#g" transform="translate(-1535.187 -1419.274)"/><use xlink:href="#h" transform="translate(-1462.409 -1419.274)"/><use xlink:href="#i" transform="translate(-1368.644 -1419.274)"/><use xlink:href="#j" transform="translate(-1339.014 -1419.274)"/><use xlink:href="#k" transform="translate(-1603.767 -1392.608)"/><use xlink:href="#l" transform="translate(-1506.051 -1392.608)"/><use xlink:href="#h" transform="translate(-1441.977 -1392.608)"/><use xlink:href="#i" transform="translate(-1348.211 -1392.608)"/><use xlink:href="#m" transform="translate(-1318.582 -1392.608)"/><path d="M-1449.45-1448.8v-58.53" stroke="#333" fill="none"/><path d="M-1448.95-1448.3h-1v-.5h1zm0-59.02h-1v-.5h1z" stroke="#333" stroke-width=".05" fill="#333"/><path d="M-1709.45-1808.33h140v140h-140z" stroke="#333" fill="#fff"/><use xlink:href="#n" transform="translate(-1674.94 -1761.18)"/><use xlink:href="#o" transform="translate(-1679.539 -1734.514)"/><use xlink:href="#p" transform="translate(-1645.619 -1707.847)"/><path d="M-1331.95-1808.33h140v140h-140z" stroke="#333" fill="#fff"/><use xlink:href="#n" transform="translate(-1297.44 -1761.18)"/><use xlink:href="#o" transform="translate(-1302.039 -1734.514)"/><use xlink:href="#q" transform="translate(-1268.119 -1707.847)"/><path d="M-1749.45-1922.33a6 6 0 0 1 6-6h208a6 6 0 0 1 6 6v48a6 6 0 0 1-6 6h-208a6 6 0 0 1-6-6z" fill="none"/><use xlink:href="#r" transform="translate(-1699.816 -1905.556)"/><use xlink:href="#s" transform="translate(-1611.113 -1905.556)"/><use xlink:href="#h" transform="translate(-1719.045 -1878.889)"/><use xlink:href="#i" transform="translate(-1625.28 -1878.889)"/><use xlink:href="#t" transform="translate(-1595.65 -1878.889)"/><path d="M-1639.45-1867.87v58.54" stroke="#333" fill="none"/><path d="M-1638.95-1867.86h-1v-.5h1zm0 59.03h-1v-.52h1z" stroke="#333" stroke-width=".05" fill="#333"/><path d="M-1439.45-1738.33c0 5.52-4.47 10-10 10-5.52 0-10-4.48-10-10 0-5.53 4.48-10 10-10 5.53 0 10 4.47 10 10zm45 0c0 5.52-4.47 10-10 10-5.52 0-10-4.48-10-10 0-5.53 4.48-10 10-10 5.53 0 10 4.47 10 10zm-95 0c0 5.52-4.47 10-10 10-5.52 0-10-4.48-10-10 0-5.53 4.48-10 10-10 5.53 0 10 4.47 10 10z" stroke="#333" fill="#333"/><defs><path fill="#fff" d="M127-220V0H93v-220H8v-28h204v28h-85" id="u"/><path fill="#fff" d="M100-194c63 0 86 42 84 106H49c0 40 14 67 53 68 26 1 43-12 49-29l28 8c-11 28-37 45-77 45C44 4 14-33 15-96c1-61 26-98 85-98zm52 81c6-60-76-77-97-28-3 7-6 17-6 28h103" id="v"/><path fill="#fff" d="M210-169c-67 3-38 105-44 169h-31v-121c0-29-5-50-35-48C34-165 62-65 56 0H25l-1-190h30c1 10-1 24 2 32 10-44 99-50 107 0 11-21 27-35 58-36 85-2 47 119 55 194h-31v-121c0-29-5-49-35-48" id="w"/><path fill="#fff" d="M115-194c55 1 70 41 70 98S169 2 115 4C84 4 66-9 55-30l1 105H24l-1-265h31l2 30c10-21 28-34 59-34zm-8 174c40 0 45-34 45-75s-6-73-45-74c-42 0-51 32-51 76 0 43 10 73 51 73" id="x"/><path fill="#fff" d="M100-194c62-1 85 37 85 99 1 63-27 99-86 99S16-35 15-95c0-66 28-99 85-99zM99-20c44 1 53-31 53-75 0-43-8-75-51-75s-53 32-53 75 10 74 51 75" id="y"/><path fill="#fff" d="M114-163C36-179 61-72 57 0H25l-1-190h30c1 12-1 29 2 39 6-27 23-49 58-41v29" id="z"/><path fill="#fff" d="M141-36C126-15 110 5 73 4 37 3 15-17 15-53c-1-64 63-63 125-63 3-35-9-54-41-54-24 1-41 7-42 31l-33-3c5-37 33-52 76-52 45 0 72 20 72 64v82c-1 20 7 32 28 27v20c-31 9-61-2-59-35zM48-53c0 20 12 33 32 33 41-3 63-29 60-74-43 2-92-5-92 41" id="A"/><path fill="#fff" d="M24 0v-261h32V0H24" id="B"/><path fill="#fff" d="M212-179c-10-28-35-45-73-45-59 0-87 40-87 99 0 60 29 101 89 101 43 0 62-24 78-52l27 14C228-24 195 4 139 4 59 4 22-46 18-125c-6-104 99-153 187-111 19 9 31 26 39 46" id="C"/><path fill="#fff" d="M84 4C-5 8 30-112 23-190h32v120c0 31 7 50 39 49 72-2 45-101 50-169h31l1 190h-30c-1-10 1-25-2-33-11 22-28 36-60 37" id="D"/><path fill="#fff" d="M135-143c-3-34-86-38-87 0 15 53 115 12 119 90S17 21 10-45l28-5c4 36 97 45 98 0-10-56-113-15-118-90-4-57 82-63 122-42 12 7 21 19 24 35" id="E"/><path fill="#fff" d="M59-47c-2 24 18 29 38 22v24C64 9 27 4 27-40v-127H5v-23h24l9-43h21v43h35v23H59v120" id="F"/><path fill="#333" d="M151-220 108 0H75l42-220H32l6-28h203l-5 28h-85" id="G"/><path fill="#333" d="M111-194c62-3 86 47 72 106H45c-7 38 6 69 45 68 27-1 43-14 53-32l24 11C152-15 129 4 87 4 38 3 12-23 12-71c0-70 32-119 99-123zm44 81c14-66-71-72-95-28-4 8-8 17-11 28h106" id="H"/><path fill="#333" d="M248-111c6-24 9-61-24-58-72 9-57 108-77 169h-31l26-142c3-37-50-30-64-10C52-115 50-51 37 0H6l36-190h30c-1 10-6 24-4 32 13-43 101-52 105 5 13-22 29-41 61-41 90 0 28 129 23 194h-31" id="I"/><path fill="#333" d="M67-162c32-53 139-36 121 50C175-51 163 2 97 4 68 4 52-11 42-31 38 6 28 39 22 75H-9l50-265h29c-1 10 0 20-3 28zm89 36c0-26-10-43-35-43-54 0-67 50-69 103-1 29 14 45 42 46 53 0 62-58 62-106" id="J"/><path fill="#333" d="M30-147c31-64 166-65 159 27C183-49 158 1 86 4 9 8 1-88 30-147zM88-20c53 0 68-48 68-100 0-31-11-51-44-50-52 1-68 46-68 97 0 32 13 53 44 53" id="K"/><path fill="#333" d="M66-151c12-25 30-51 66-40l-6 26C45-176 58-65 38 0H6l36-190h30" id="L"/><path fill="#333" d="M165-48c-4 18 1 34 23 27l-3 20c-29 8-62 0-52-35h-2C116-14 99 4 63 4 30 4 8-16 8-49c0-68 71-67 138-67 10-26 0-56-31-54-26 1-42 9-47 31l-32-5c8-67 160-71 144 15-5 28-9 54-15 81zM42-50c3 52 80 24 89-6 7-12 7-24 11-38-47 1-103-4-100 44" id="M"/><path fill="#333" d="m6 0 50-261h32L37 0H6" id="N"/><path fill="#333" d="M238-179c0 84-86 86-175 82L45 0H11l48-248c82 0 179-12 179 69zm-34 1c0-53-64-42-116-43l-19 98c63 0 135 9 135-55" id="O"/><path fill="#333" d="M51-54c-9 22 5 41 31 30L79-1C43 14 10-4 19-52l22-115H19l5-23h22l19-43h21l-9 43h35l-4 23H73" id="P"/><path fill="#333" d="M76-167 44 0H12l33-167H18l4-23h27c3-47 25-81 82-69l-4 24c-35-8-44 15-46 45h37l-5 23H76" id="Q"/><path fill="#333" d="M17-49c1-102 45-165 103-212h30C92-210 49-145 49-46 49 4 63 43 85 75H54C30 43 18 2 17-49" id="R"/><path fill="#333" d="M249-183c0 48-29 72-75 77L221 0h-36l-43-103H65L45 0H11l48-248c83 2 190-17 190 65zm-34 3c0-55-74-39-127-41l-18 92c63-1 145 13 145-51" id="S"/><path fill="#333" d="M67 3c-93-2-31-127-26-193h32L48-50c-3 39 53 32 70 12 30-34 30-101 43-152h32L157 0h-30c1-10 6-24 4-33-14 20-29 37-64 36" id="T"/><path fill="#333" d="M67-158c22-48 132-52 116 29L158 0h-32l25-140c3-38-53-32-70-12C52-117 51-52 38 0H6l36-190h30" id="U"/><path fill="#333" d="m50-231 6-30h32l-6 30H50zM6 0l37-190h31L37 0H6" id="V"/><path fill="#333" d="M98-137C97-35 54 29-4 75h-31C23 23 67-41 67-140c0-50-15-89-37-121h31c24 32 36 73 37 124" id="W"/><path fill="#333" d="M20-101c0-91 52-143 145-150 126-9 127 168 53 223-23 17-55 32-93 32C57 4 20-33 20-101zm216-33c5-57-18-91-73-90-77 1-110 51-110 125 0 49 23 75 73 75 72-1 104-45 110-110" id="X"/><path fill="#333" d="M55-144c13 50 104 24 104 88C159 21 15 23 1-39l26-10c6 40 102 42 102-4-13-50-104-23-104-87 0-71 143-71 148-8l-29 4c-5-35-85-37-89 0" id="Y"/><path fill="#333" d="M44-68c0 29 11 47 38 47 30 0 42-19 51-41l28 9C148-21 126 4 82 4 31 4 10-29 12-85c3-77 74-140 146-93 12 8 15 23 18 40l-31 5c-1-22-13-36-36-36-52 0-65 49-65 101" id="Z"/><path fill="#333" d="M133-28C103 26-5 8 13-77c13-62 24-115 90-117 29-1 46 15 56 35l19-102h32L160 0h-30zM45-64c-2 27 10 43 35 43 54-1 69-50 69-103 0-29-15-46-42-46-53-1-58 58-62 106" id="aa"/><path fill="#333" d="M68-162c25-46 127-43 121 31C183-60 169 1 98 4 69 5 53-11 43-31L36 0H5l52-261h31zm88 36c2-27-9-43-34-43-55 0-70 51-70 103 0 29 15 45 43 46 52 0 58-58 61-106" id="ab"/><path fill="#333" d="M198-190 69 30C53 58 25 83-20 72c4-11-1-27 19-22 33-1 43-29 59-52L20-190h32L79-34l84-156h35" id="ac"/><path fill="#333" d="M125-24c46 0 70-25 89-51l25 16C214-24 183 4 123 4 8 4-5-146 60-208c32-50 158-61 191-5 5 7 9 14 11 22l-32 10c-9-28-33-43-69-43-74 0-108 51-108 125 0 46 24 75 72 75" id="ad"/><path fill="#333" d="M266 0h-40l-56-210L115 0H75L2-248h35L96-30l15-64 43-154h32l59 218 59-218h35" id="ae"/><path fill="#333" d="M100-194c62-1 85 37 85 99 1 63-27 99-86 99S16-35 15-95c0-66 28-99 85-99zM99-20c44 1 53-31 53-75 0-43-8-75-51-75s-53 32-53 75 10 74 51 75" id="af"/><path fill="#333" d="M114-163C36-179 61-72 57 0H25l-1-190h30c1 12-1 29 2 39 6-27 23-49 58-41v29" id="ag"/><path fill="#333" d="M143 0 79-87 56-68V0H24v-261h32v163l83-92h37l-77 82L181 0h-38" id="ah"/><path fill="#333" d="M100-194c63 0 86 42 84 106H49c0 40 14 67 53 68 26 1 43-12 49-29l28 8c-11 28-37 45-77 45C44 4 14-33 15-96c1-61 26-98 85-98zm52 81c6-60-76-77-97-28-3 7-6 17-6 28h103" id="ai"/><path fill="#333" d="M30-248c87 1 191-15 191 75 0 78-77 80-158 76V0H30v-248zm33 125c57 0 124 11 124-50 0-59-68-47-124-48v98" id="aj"/><path fill="#333" d="M96-169c-40 0-48 33-48 73s9 75 48 75c24 0 41-14 43-38l32 2c-6 37-31 61-74 61-59 0-76-41-82-99-10-93 101-131 147-64 4 7 5 14 7 22l-32 3c-4-21-16-35-41-35" id="ak"/><path fill="#333" d="M135-143c-3-34-86-38-87 0 15 53 115 12 119 90S17 21 10-45l28-5c4 36 97 45 98 0-10-56-113-15-118-90-4-57 82-63 122-42 12 7 21 19 24 35" id="al"/><path fill="#333" d="M27 0v-27h64v-190l-56 39v-29l58-41h29v221h61V0H27" id="am"/><path fill="#333" d="M117-194c89-4 53 116 60 194h-32v-121c0-31-8-49-39-48C34-167 62-67 57 0H25l-1-190h30c1 10-1 24 2 32 11-22 29-35 61-36" id="an"/><path fill="#333" d="M247 0h-39l-15-214-24 57L95 0H56L31-248h35L82-30l101-218h33l16 218 101-218h35" id="ao"/><path fill="#333" d="M127 0 80-88 50-66 37 0H6l51-261h31L57-100l99-90h39l-93 82L161 0h-34" id="ap"/><g id="a"><use transform="rotate(.413) scale(.06173)" xlink:href="#u"/><use transform="matrix(.06173 0 0 .06173 11.05 0)" xlink:href="#v"/><use transform="matrix(.06173 0 0 .06173 23.395 0)" xlink:href="#w"/><use transform="matrix(.06173 0 0 .06173 41.852 0)" xlink:href="#x"/><use transform="matrix(.06173 0 0 .06173 54.198 0)" xlink:href="#y"/><use transform="matrix(.06173 0 0 .06173 66.543 0)" xlink:href="#z"/><use transform="matrix(.06173 0 0 .06173 73.889 0)" xlink:href="#A"/><use transform="matrix(.06173 0 0 .06173 86.235 0)" xlink:href="#B"/></g><g id="b"><use transform="rotate(.413) scale(.06173)" xlink:href="#C"/><use transform="matrix(.06173 0 0 .06173 15.988 0)" xlink:href="#B"/><use transform="matrix(.06173 0 0 .06173 20.864 0)" xlink:href="#D"/><use transform="matrix(.06173 0 0 .06173 33.21 0)" xlink:href="#E"/><use transform="matrix(.06173 0 0 .06173 44.321 0)" xlink:href="#F"/><use transform="matrix(.06173 0 0 .06173 50.494 0)" xlink:href="#v"/><use transform="matrix(.06173 0 0 .06173 62.84 0)" xlink:href="#z"/></g><g id="c"><use transform="rotate(.413) scale(.06173)" xlink:href="#G"/><use transform="matrix(.06173 0 0 .06173 11.481 0)" xlink:href="#H"/><use transform="matrix(.06173 0 0 .06173 23.827 0)" xlink:href="#I"/><use transform="matrix(.06173 0 0 .06173 42.284 0)" xlink:href="#J"/><use transform="matrix(.06173 0 0 .06173 54.63 0)" xlink:href="#K"/><use transform="matrix(.06173 0 0 .06173 66.975 0)" xlink:href="#L"/><use transform="matrix(.06173 0 0 .06173 74.321 0)" xlink:href="#M"/><use transform="matrix(.06173 0 0 .06173 86.667 0)" xlink:href="#N"/></g><g id="d"><use transform="rotate(.413) scale(.06173)" xlink:href="#O"/><use transform="matrix(.06173 0 0 .06173 14.815 0)" xlink:href="#N"/><use transform="matrix(.06173 0 0 .06173 19.691 0)" xlink:href="#M"/><use transform="matrix(.06173 0 0 .06173 32.037 0)" xlink:href="#P"/><use transform="matrix(.06173 0 0 .06173 38.21 0)" xlink:href="#Q"/><use transform="matrix(.06173 0 0 .06173 44.383 0)" xlink:href="#K"/><use transform="matrix(.06173 0 0 .06173 56.728 0)" xlink:href="#L"/><use transform="matrix(.06173 0 0 .06173 64.074 0)" xlink:href="#I"/></g><g id="e"><use transform="rotate(.413) scale(.06173)" xlink:href="#R"/><use transform="matrix(.06173 0 0 .06173 7.346 0)" xlink:href="#S"/><use transform="matrix(.06173 0 0 .06173 23.333 0)" xlink:href="#T"/><use transform="matrix(.06173 0 0 .06173 35.679 0)" xlink:href="#U"/><use transform="matrix(.06173 0 0 .06173 48.025 0)" xlink:href="#P"/><use transform="matrix(.06173 0 0 .06173 54.198 0)" xlink:href="#V"/><use transform="matrix(.06173 0 0 .06173 59.074 0)" xlink:href="#I"/><use transform="matrix(.06173 0 0 .06173 77.53 0)" xlink:href="#H"/><use transform="matrix(.06173 0 0 .06173 89.877 0)" xlink:href="#W"/></g><g id="f"><use transform="rotate(.413) scale(.06173)" xlink:href="#X"/><use transform="matrix(.06173 0 0 .06173 17.284 0)" xlink:href="#J"/><use transform="matrix(.06173 0 0 .06173 29.63 0)" xlink:href="#H"/><use transform="matrix(.06173 0 0 .06173 41.975 0)" xlink:href="#U"/></g><g id="g"><use transform="rotate(.413) scale(.06173)" xlink:href="#Y"/><use transform="matrix(.06173 0 0 .06173 11.111 0)" xlink:href="#K"/><use transform="matrix(.06173 0 0 .06173 23.457 0)" xlink:href="#T"/><use transform="matrix(.06173 0 0 .06173 35.802 0)" xlink:href="#L"/><use transform="matrix(.06173 0 0 .06173 43.148 0)" xlink:href="#Z"/><use transform="matrix(.06173 0 0 .06173 54.26 0)" xlink:href="#H"/></g><g id="h"><use transform="rotate(.413) scale(.06173)" xlink:href="#K"/><use transform="matrix(.06173 0 0 .06173 12.346 0)" xlink:href="#J"/><use transform="matrix(.06173 0 0 .06173 24.691 0)" xlink:href="#H"/><use transform="matrix(.06173 0 0 .06173 37.037 0)" xlink:href="#L"/><use transform="matrix(.06173 0 0 .06173 44.383 0)" xlink:href="#M"/><use transform="matrix(.06173 0 0 .06173 56.728 0)" xlink:href="#P"/><use transform="matrix(.06173 0 0 .06173 62.901 0)" xlink:href="#H"/><use transform="matrix(.06173 0 0 .06173 75.247 0)" xlink:href="#aa"/></g><g id="i"><use transform="rotate(.413) scale(.06173)" xlink:href="#ab"/><use transform="matrix(.06173 0 0 .06173 12.346 0)" xlink:href="#ac"/></g><g id="j"><use transform="rotate(.413) scale(.06173)" xlink:href="#ac"/><use transform="matrix(.06173 0 0 .06173 11.111 0)" xlink:href="#K"/><use transform="matrix(.06173 0 0 .06173 23.457 0)" xlink:href="#T"/></g><g id="k"><use transform="rotate(.413) scale(.06173)" xlink:href="#G"/><use transform="matrix(.06173 0 0 .06173 11.481 0)" xlink:href="#H"/><use transform="matrix(.06173 0 0 .06173 23.827 0)" xlink:href="#I"/><use transform="matrix(.06173 0 0 .06173 42.284 0)" xlink:href="#J"/><use transform="matrix(.06173 0 0 .06173 54.63 0)" xlink:href="#K"/><use transform="matrix(.06173 0 0 .06173 66.975 0)" xlink:href="#L"/><use transform="matrix(.06173 0 0 .06173 74.321 0)" xlink:href="#M"/><use transform="matrix(.06173 0 0 .06173 86.667 0)" xlink:href="#N"/></g><g id="l"><use transform="rotate(.413) scale(.06173)" xlink:href="#ad"/><use transform="matrix(.06173 0 0 .06173 15.988 0)" xlink:href="#N"/><use transform="matrix(.06173 0 0 .06173 20.864 0)" xlink:href="#K"/><use transform="matrix(.06173 0 0 .06173 33.21 0)" xlink:href="#T"/><use transform="matrix(.06173 0 0 .06173 45.556 0)" xlink:href="#aa"/></g><g id="m"><use transform="rotate(.413) scale(.06173)" xlink:href="#T"/><use transform="matrix(.06173 0 0 .06173 12.346 0)" xlink:href="#Y"/></g><g id="n"><use transform="rotate(.413) scale(.06173)" xlink:href="#ae"/><use transform="matrix(.06173 0 0 .06173 20.494 0)" xlink:href="#af"/><use transform="matrix(.06173 0 0 .06173 32.84 0)" xlink:href="#ag"/><use transform="matrix(.06173 0 0 .06173 40.185 0)" xlink:href="#ah"/><use transform="matrix(.06173 0 0 .06173 51.296 0)" xlink:href="#ai"/><use transform="matrix(.06173 0 0 .06173 63.642 0)" xlink:href="#ag"/></g><g id="o"><use transform="rotate(.413) scale(.06173)" xlink:href="#aj"/><use transform="matrix(.06173 0 0 .06173 14.815 0)" xlink:href="#ag"/><use transform="matrix(.06173 0 0 .06173 22.16 0)" xlink:href="#af"/><use transform="matrix(.06173 0 0 .06173 34.506 0)" xlink:href="#ak"/><use transform="matrix(.06173 0 0 .06173 45.617 0)" xlink:href="#ai"/><use transform="matrix(.06173 0 0 .06173 57.963 0)" xlink:href="#al"/><use transform="matrix(.06173 0 0 .06173 69.074 0)" xlink:href="#al"/></g><g id="r"><use transform="rotate(.413) scale(.06173)" xlink:href="#ao"/><use transform="matrix(.06173 0 0 .06173 20.926 0)" xlink:href="#K"/><use transform="matrix(.06173 0 0 .06173 33.272 0)" xlink:href="#L"/><use transform="matrix(.06173 0 0 .06173 40.617 0)" xlink:href="#ap"/><use transform="matrix(.06173 0 0 .06173 51.728 0)" xlink:href="#H"/><use transform="matrix(.06173 0 0 .06173 64.074 0)" xlink:href="#L"/><use transform="matrix(.06173 0 0 .06173 71.42 0)" xlink:href="#Y"/></g><g id="s"><use transform="rotate(.413) scale(.06173)" xlink:href="#M"/><use transform="matrix(.06173 0 0 .06173 12.346 0)" xlink:href="#L"/><use transform="matrix(.06173 0 0 .06173 19.691 0)" xlink:href="#H"/></g><g id="t"><use transform="rotate(.413) scale(.06173)" xlink:href="#ac"/><use transform="matrix(.06173 0 0 .06173 11.111 0)" xlink:href="#K"/><use transform="matrix(.06173 0 0 .06173 23.457 0)" xlink:href="#T"/></g><use transform="rotate(.413) scale(.06173)" xlink:href="#am" id="p"/><use transform="rotate(.413) scale(.06173)" xlink:href="#an" id="q"/></defs></g></svg>