<svg xmlns="http://www.w3.org/2000/svg" xmlns:xlink="http://www.w3.org/1999/xlink" xmlns:lucid="lucid" width="1140" height="840"><g transform="translate(-480 -80)" lucid:page-tab-id="0_0"><path d="M500 101a1 1 0 0 1 1-1h1098a1 1 0 0 1 1 1v798a1 1 0 0 1-1 1H501a1 1 0 0 1-1-1z" fill="#fff"/><path d="M780 151.84a15 15 0 0 1 15-15h363.68a15 15 0 0 1 15 15v596.32a15 15 0 0 1-15 15H795a15 15 0 0 1-15-15z" stroke="#333" fill="#127ae5"/><path d="M833.68 205.53a15 15 0 0 1 15-15H1105a15 15 0 0 1 15 15v488.94a15 15 0 0 1-15 15H848.68a15 15 0 0 1-15-15z" fill="#dfe3e8"/><path d="M834.87 199.8l.45-1.08 1.23-2 .25-.3m2.77-2.77l.3-.26 2-1.24 1.1-.45m3.76-1.02l1.95-.15h2m4 0h4.02m4 0h4m4 0h4.02m4 0h4m4 0h4.02m4 0h4m4 0h4.02m4 0h4m4 0h4m4.02 0h4m4 0h4m4.02 0h4m4 0h4.02m4 0h4m4 0h4m4.02 0h4m4 0h4m4.02 0h4m4 0h4m4.02 0h4m4 0h4m4.02 0h4m4 0h4m4.02 0h4m4 0h4m4.02 0h4m4 0h4m4.02 0h4m4 0h4m4.02 0h4m4 0h4m4.02 0h2l1.95.15m3.77 1.03l1.1.46 2 1.23.3.25m2.76 2.76l.25.3 1.23 2.02.46 1.08m1.03 3.77l.15 1.96v2m0 4v4.02m0 4v4m0 4.02v4m0 4.02v4m0 4v4m0 4.02v4m0 4v4.02m0 4v4m0 4.02v4m0 4.02v4m0 4v4.02m0 4v4.02m0 4v4m0 4.02v4m0 4v4.02m0 4v4.02m0 4v4m0 4.02v4m0 4.02v4m0 4v4.02m0 4v4.02m0 4v4m0 4.02v4m0 4v4.02m0 4v4.02m0 4v4m0 4.02v4m0 4.02v4m0 4V440m0 4V448m0 4v4m0 4.02v4m0 4.02v4m0 4v4.02m0 4v4m0 4.02v4m0 4.02v4m0 4v4.02m0 4v4.02m0 4v4m0 4.02v4m0 4v4.02m0 4v4.02m0 4v4m0 4.02v4m0 4.02v4m0 4v4.02m0 4v4.02m0 4v4m0 4.02v4m0 4v4.02m0 4v4.02m0 4v4m0 4.02v4m0 4.02v4m0 4v4.02m0 4v4m0 4.02v4m0 4.02v4m0 4v4.02m0 4v2l-.15 1.97m-1.03 3.77l-.45 1.08-1.23 2-.26.3m-2.77 2.77l-.28.26-2 1.24-1.1.45m-3.77 1.02l-1.95.15h-2m-4 0h-4m-4.02 0h-4m-4 0h-4m-4.02 0h-4m-4 0h-4m-4.02 0h-4m-4 0h-4m-4.02 0h-4m-4 0h-4m-4.02 0h-4m-4 0h-4m-4.02 0h-4m-4 0h-4m-4.02 0h-4m-4 0h-4m-4 0h-4.02m-4 0h-4m-4 0h-4.02m-4 0h-4m-4.02 0h-4m-4 0h-4m-4 0h-4.02m-4 0h-4m-4 0h-4.02m-4 0h-4m-4 0h-4.02m-4 0h-4m-4 0h-4.02m-4 0h-4m-4 0h-4.02m-4 0h-4m-4 0h-2.02l-1.95-.15m-3.77-1.03l-1.1-.46-2-1.23-.3-.25m-2.76-2.76l-.25-.3-1.23-2.02-.45-1.08m-1.03-3.77l-.16-1.96v-2m0-4v-4.02m0-4v-4m0-4.02v-4m0-4v-4.02m0-4v-4m0-4.02v-4m0-4v-4.02m0-4v-4m0-4.02v-4m0-4.02v-4m0-4v-4.02m0-4v-4.02m0-4v-4m0-4.02v-4m0-4v-4.02m0-4v-4.02m0-4v-4m0-4.02v-4m0-4.02v-4m0-4v-4.02m0-4v-4.02m0-4v-4m0-4.02v-4m0-4v-4.02m0-4v-4.02m0-4v-4m0-4.02v-4m0-4.02v-4m0-4V460m0-4V452m0-4v-4m0-4.02v-4m0-4.02v-4m0-4v-4.02m0-4v-4m0-4.02v-4m0-4.02v-4m0-4v-4.02m0-4v-4.02m0-4v-4m0-4.02v-4m0-4v-4.02m0-4v-4.02m0-4v-4m0-4.02v-4m0-4.02v-4m0-4v-4.02m0-4v-4.02m0-4v-4m0-4.02v-4m0-4v-4.02m0-4v-4.02m0-4v-4m0-4.02v-4m0-4.02v-4m0-4v-4.02m0-4v-4m0-4.02v-4m0-4.02v-4m0-4v-4.02m0-4v-2l.16-1.97" stroke="#fff" fill="none"/><path d="M869.47 221.63a15 15 0 0 1 15-15h148.95a15 15 0 0 1 15 15v148.95a15 15 0 0 1-15 15H884.47a15 15 0 0 1-15-15z" stroke="#333" fill="#fff"/><use xlink:href="#a" transform="matrix(1,0,0,1,874.4736842105264,211.63157894736804) translate(26.80246913580249 70.6423611111111)"/><use xlink:href="#b" transform="matrix(1,0,0,1,874.4736842105264,211.63157894736804) translate(36.43209876543211 105.30902777777776)"/><path d="M905.26 525.84a15 15 0 0 1 15-15h148.95a15 15 0 0 1 15 15V674.8a15 15 0 0 1-15 15H920.27a15 15 0 0 1-15-15z" stroke="#333" fill="#e5e5e5"/><use xlink:href="#c" transform="matrix(1,0,0,1,910.2631578947369,515.8421052631575) translate(39.682098765432116 70.6423611111111)"/><use xlink:href="#b" transform="matrix(1,0,0,1,910.2631578947369,515.8421052631575) translate(36.43209876543211 105.30902777777776)"/><path d="M887.37 507.95a15 15 0 0 1 15-15h148.95a15 15 0 0 1 15 15V656.9a15 15 0 0 1-15 15H902.37a15 15 0 0 1-15-15z" stroke="#333" fill="#e5e5e5"/><use xlink:href="#c" transform="matrix(1,0,0,1,892.3684210526317,497.9473684210522) translate(39.682098765432116 70.6423611111111)"/><use xlink:href="#b" transform="matrix(1,0,0,1,892.3684210526317,497.9473684210522) translate(36.43209876543211 105.30902777777776)"/><path d="M869.47 490.05a15 15 0 0 1 15-15h148.95a15 15 0 0 1 15 15V639a15 15 0 0 1-15 15H884.47a15 15 0 0 1-15-15z" stroke="#333" fill="#fff"/><use xlink:href="#d" transform="matrix(1,0,0,1,874.4736842105264,480.0526315789469) translate(35.10802469135804 70.6423611111111)"/><use xlink:href="#e" transform="matrix(1,0,0,1,874.4736842105264,480.0526315789469) translate(33.141975308641996 105.30902777777776)"/><path d="M958.95 386.58v87.47" stroke="#333" fill="none"/><path d="M959.42 386.6h-.95v-.52h.95zM959.42 474.55h-.95v-.5h.95z" stroke="#333" stroke-width=".05" fill="#333"/><path d="M860.53 806a6 6 0 0 1 6-6h220.63a6 6 0 0 1 6 6v72.67a6 6 0 0 1-6 6H866.53a6 6 0 0 1-6-6z" stroke="#000" stroke-opacity="0" stroke-width="3" fill="#fff" fill-opacity="0"/><use xlink:href="#f" transform="matrix(1,0,0,1,865.5263157894738,805) translate(51.99691358024693 25.4548611111111)"/><use xlink:href="#g" transform="matrix(1,0,0,1,865.5263157894738,805) translate(63.43209876543211 60.12152777777775)"/><path d="M1227.37 317.33a6 6 0 0 1 6-6H1454a6 6 0 0 1 6 6V390a6 6 0 0 1-6 6h-220.63a6 6 0 0 1-6-6z" stroke="#000" stroke-opacity="0" stroke-width="3" fill="#fff" fill-opacity="0"/><g><use xlink:href="#h" transform="matrix(1,0,0,1,1232.3684210526317,316.3333333333333) translate(5.533950617283978 44.2048611111111)"/><use xlink:href="#i" transform="matrix(1,0,0,1,1232.3684210526317,316.3333333333333) translate(132.56481481481478 44.2048611111111)"/></g><path d="M1226.87 353.67h-52.65a.28.28 0 0 0-.3.28.28.28 0 0 1-.27.28H1121" stroke="#333" fill="none"/><path d="M1227.37 354.14h-.5v-.95h.5zM1121 354.7h-.5v-.95h.5z" stroke="#333" stroke-width=".05" fill="#333"/><defs><path fill="#333" d="M63-220v92h138v28H63V0H30v-248h175v28H63" id="j"/><path fill="#333" d="M114-163C36-179 61-72 57 0H25l-1-190h30c1 12-1 29 2 39 6-27 23-49 58-41v29" id="k"/><path fill="#333" d="M100-194c62-1 85 37 85 99 1 63-27 99-86 99S16-35 15-95c0-66 28-99 85-99zM99-20c44 1 53-31 53-75 0-43-8-75-51-75s-53 32-53 75 10 74 51 75" id="l"/><path fill="#333" d="M117-194c89-4 53 116 60 194h-32v-121c0-31-8-49-39-48C34-167 62-67 57 0H25l-1-190h30c1 10-1 24 2 32 11-22 29-35 61-36" id="m"/><path fill="#333" d="M59-47c-2 24 18 29 38 22v24C64 9 27 4 27-40v-127H5v-23h24l9-43h21v43h35v23H59v120" id="n"/><path fill="#333" d="M100-194c63 0 86 42 84 106H49c0 40 14 67 53 68 26 1 43-12 49-29l28 8c-11 28-37 45-77 45C44 4 14-33 15-96c1-61 26-98 85-98zm52 81c6-60-76-77-97-28-3 7-6 17-6 28h103" id="o"/><path fill="#333" d="M85-194c31 0 48 13 60 33l-1-100h32l1 261h-30c-2-10 0-23-3-31C134-8 116 4 85 4 32 4 16-35 15-94c0-66 23-100 70-100zm9 24c-40 0-46 34-46 75 0 40 6 74 45 74 42 0 51-32 51-76 0-42-9-74-50-73" id="p"/><g id="a"><use transform="matrix(0.08024691358024688,0,0,0.08024691358024688,0,0)" xlink:href="#j"/><use transform="matrix(0.08024691358024688,0,0,0.08024691358024688,17.574074074074066,0)" xlink:href="#k"/><use transform="matrix(0.08024691358024688,0,0,0.08024691358024688,27.123456790123445,0)" xlink:href="#l"/><use transform="matrix(0.08024691358024688,0,0,0.08024691358024688,43.17283950617282,0)" xlink:href="#m"/><use transform="matrix(0.08024691358024688,0,0,0.08024691358024688,59.2222222222222,0)" xlink:href="#n"/><use transform="matrix(0.08024691358024688,0,0,0.08024691358024688,67.24691358024688,0)" xlink:href="#o"/><use transform="matrix(0.08024691358024688,0,0,0.08024691358024688,83.29629629629626,0)" xlink:href="#m"/><use transform="matrix(0.08024691358024688,0,0,0.08024691358024688,99.34567901234564,0)" xlink:href="#p"/></g><path fill="#333" d="M185-189c-5-48-123-54-124 2 14 75 158 14 163 119 3 78-121 87-175 55-17-10-28-26-33-46l33-7c5 56 141 63 141-1 0-78-155-14-162-118-5-82 145-84 179-34 5 7 8 16 11 25" id="q"/><path fill="#333" d="M108 0H70L1-190h34L89-25l56-165h34" id="r"/><path fill="#333" d="M24-231v-30h32v30H24zM24 0v-190h32V0H24" id="s"/><path fill="#333" d="M96-169c-40 0-48 33-48 73s9 75 48 75c24 0 41-14 43-38l32 2c-6 37-31 61-74 61-59 0-76-41-82-99-10-93 101-131 147-64 4 7 5 14 7 22l-32 3c-4-21-16-35-41-35" id="t"/><g id="b"><use transform="matrix(0.08024691358024688,0,0,0.08024691358024688,0,0)" xlink:href="#q"/><use transform="matrix(0.08024691358024688,0,0,0.08024691358024688,19.259259259259252,0)" xlink:href="#o"/><use transform="matrix(0.08024691358024688,0,0,0.08024691358024688,35.30864197530863,0)" xlink:href="#k"/><use transform="matrix(0.08024691358024688,0,0,0.08024691358024688,44.858024691358004,0)" xlink:href="#r"/><use transform="matrix(0.08024691358024688,0,0,0.08024691358024688,59.302469135802454,0)" xlink:href="#s"/><use transform="matrix(0.08024691358024688,0,0,0.08024691358024688,65.64197530864196,0)" xlink:href="#t"/><use transform="matrix(0.08024691358024688,0,0,0.08024691358024688,80.0864197530864,0)" xlink:href="#o"/></g><path fill="#333" d="M197 0v-115H63V0H30v-248h33v105h134v-105h34V0h-34" id="u"/><path fill="#333" d="M135-143c-3-34-86-38-87 0 15 53 115 12 119 90S17 21 10-45l28-5c4 36 97 45 98 0-10-56-113-15-118-90-4-57 82-63 122-42 12 7 21 19 24 35" id="v"/><path fill="#333" d="M179-190L93 31C79 59 56 82 12 73V49c39 6 53-20 64-50L1-190h34L92-34l54-156h33" id="w"/><g id="c"><use transform="matrix(0.08024691358024688,0,0,0.08024691358024688,0,0)" xlink:href="#u"/><use transform="matrix(0.08024691358024688,0,0,0.08024691358024688,20.783950617283942,0)" xlink:href="#s"/><use transform="matrix(0.08024691358024688,0,0,0.08024691358024688,27.123456790123445,0)" xlink:href="#v"/><use transform="matrix(0.08024691358024688,0,0,0.08024691358024688,41.567901234567884,0)" xlink:href="#n"/><use transform="matrix(0.08024691358024688,0,0,0.08024691358024688,49.592592592592574,0)" xlink:href="#l"/><use transform="matrix(0.08024691358024688,0,0,0.08024691358024688,65.64197530864195,0)" xlink:href="#k"/><use transform="matrix(0.08024691358024688,0,0,0.08024691358024688,75.19135802469133,0)" xlink:href="#w"/></g><path fill="#333" d="M275 0h-61l-44-196L126 0H64L0-248h53L97-49l45-199h58l43 199 44-199h52" id="x"/><path fill="#333" d="M110-194c64 0 96 36 96 99 0 64-35 99-97 99-61 0-95-36-95-99 0-62 34-99 96-99zm-1 164c35 0 45-28 45-65 0-40-10-65-43-65-34 0-45 26-45 65 0 36 10 65 43 65" id="y"/><path fill="#333" d="M135-150c-39-12-60 13-60 57V0H25l-1-190h47c2 13-1 29 3 40 6-28 27-53 61-41v41" id="z"/><path fill="#333" d="M147 0L96-86 75-71V0H25v-261h50v150l67-79h53l-66 74L201 0h-54" id="A"/><path fill="#333" d="M185-48c-13 30-37 53-82 52C43 2 14-33 14-96s30-98 90-98c62 0 83 45 84 108H66c0 31 8 55 39 56 18 0 30-7 34-22zm-45-69c5-46-57-63-70-21-2 6-4 13-4 21h74" id="B"/><g id="d"><use transform="matrix(0.08024691358024688,0,0,0.08024691358024688,0,0)" xlink:href="#x"/><use transform="matrix(0.08024691358024688,0,0,0.08024691358024688,26.641975308641964,0)" xlink:href="#y"/><use transform="matrix(0.08024691358024688,0,0,0.08024691358024688,44.21604938271603,0)" xlink:href="#z"/><use transform="matrix(0.08024691358024688,0,0,0.08024691358024688,55.45061728395059,0)" xlink:href="#A"/><use transform="matrix(0.08024691358024688,0,0,0.08024691358024688,71.49999999999997,0)" xlink:href="#B"/><use transform="matrix(0.08024691358024688,0,0,0.08024691358024688,87.54938271604935,0)" xlink:href="#z"/></g><path fill="#333" d="M169-182c-1-43-94-46-97-3 18 66 151 10 154 114 3 95-165 93-204 36-6-8-10-19-12-30l50-8c3 46 112 56 116 5-17-69-150-10-154-114-4-87 153-88 188-35 5 8 8 18 10 28" id="C"/><path fill="#333" d="M128 0H69L1-190h53L99-40l48-150h52" id="D"/><path fill="#333" d="M25-224v-37h50v37H25zM25 0v-190h50V0H25" id="E"/><path fill="#333" d="M190-63c-7 42-38 67-86 67-59 0-84-38-90-98-12-110 154-137 174-36l-49 2c-2-19-15-32-35-32-30 0-35 28-38 64-6 74 65 87 74 30" id="F"/><g id="e"><use transform="matrix(0.08024691358024688,0,0,0.08024691358024688,0,0)" xlink:href="#C"/><use transform="matrix(0.08024691358024688,0,0,0.08024691358024688,19.259259259259252,0)" xlink:href="#B"/><use transform="matrix(0.08024691358024688,0,0,0.08024691358024688,35.30864197530863,0)" xlink:href="#z"/><use transform="matrix(0.08024691358024688,0,0,0.08024691358024688,46.543209876543195,0)" xlink:href="#D"/><use transform="matrix(0.08024691358024688,0,0,0.08024691358024688,62.59259259259257,0)" xlink:href="#E"/><use transform="matrix(0.08024691358024688,0,0,0.08024691358024688,70.61728395061725,0)" xlink:href="#F"/><use transform="matrix(0.08024691358024688,0,0,0.08024691358024688,86.66666666666663,0)" xlink:href="#B"/></g><path fill="#333" d="M151-220L108 0H75l42-220H32l6-28h203l-5 28h-85" id="G"/><path fill="#333" d="M111-194c62-3 86 47 72 106H45c-7 38 6 69 45 68 27-1 43-14 53-32l24 11C152-15 129 4 87 4 38 3 12-23 12-71c0-70 32-119 99-123zm44 81c14-66-71-72-95-28-4 8-8 17-11 28h106" id="H"/><path fill="#333" d="M248-111c6-24 9-61-24-58-72 9-57 108-77 169h-31l26-142c3-37-50-30-64-10C52-115 50-51 37 0H6l36-190h30c-1 10-6 24-4 32 13-43 101-52 105 5 13-22 29-41 61-41 90 0 28 129 23 194h-31" id="I"/><path fill="#333" d="M67-162c32-53 139-36 121 50C175-51 163 2 97 4 68 4 52-11 42-31 38 6 28 39 22 75H-9l50-265h29c-1 10 0 20-3 28zm89 36c0-26-10-43-35-43-54 0-67 50-69 103-1 29 14 45 42 46 53 0 62-58 62-106" id="J"/><path fill="#333" d="M30-147c31-64 166-65 159 27C183-49 158 1 86 4 9 8 1-88 30-147zM88-20c53 0 68-48 68-100 0-31-11-51-44-50-52 1-68 46-68 97 0 32 13 53 44 53" id="K"/><path fill="#333" d="M66-151c12-25 30-51 66-40l-6 26C45-176 58-65 38 0H6l36-190h30" id="L"/><path fill="#333" d="M165-48c-4 18 1 34 23 27l-3 20c-29 8-62 0-52-35h-2C116-14 99 4 63 4 30 4 8-16 8-49c0-68 71-67 138-67 10-26 0-56-31-54-26 1-42 9-47 31l-32-5c8-67 160-71 144 15-5 28-9 54-15 81zM42-50c3 52 80 24 89-6 7-12 7-24 11-38-47 1-103-4-100 44" id="M"/><path fill="#333" d="M6 0l50-261h32L37 0H6" id="N"/><g id="f"><use transform="matrix(0.08024691358024688,0,0,0.08024691358024688,0,0)" xlink:href="#G"/><use transform="matrix(0.08024691358024688,0,0,0.08024691358024688,14.925925925925918,0)" xlink:href="#H"/><use transform="matrix(0.08024691358024688,0,0,0.08024691358024688,30.975308641975296,0)" xlink:href="#I"/><use transform="matrix(0.08024691358024688,0,0,0.08024691358024688,54.96913580246911,0)" xlink:href="#J"/><use transform="matrix(0.08024691358024688,0,0,0.08024691358024688,71.01851851851849,0)" xlink:href="#K"/><use transform="matrix(0.08024691358024688,0,0,0.08024691358024688,87.06790123456787,0)" xlink:href="#L"/><use transform="matrix(0.08024691358024688,0,0,0.08024691358024688,96.61728395061725,0)" xlink:href="#M"/><use transform="matrix(0.08024691358024688,0,0,0.08024691358024688,112.66666666666661,0)" xlink:href="#N"/></g><path fill="#333" d="M194-120c59 52 2 134-86 124-53-6-90-18-98-63l31-7c8 30 29 43 70 43 46 0 84-17 71-62-32-43-135-20-137-98-3-89 178-90 191-16l-30 9c-8-48-127-53-127 5 0 53 81 35 115 65" id="O"/><path fill="#333" d="M89 0H52L20-190h33L74-25l89-165h34" id="P"/><path fill="#333" d="M50-231l6-30h32l-6 30H50zM6 0l37-190h31L37 0H6" id="Q"/><path fill="#333" d="M44-68c0 29 11 47 38 47 30 0 42-19 51-41l28 9C148-21 126 4 82 4 31 4 10-29 12-85c3-77 74-140 146-93 12 8 15 23 18 40l-31 5c-1-22-13-36-36-36-52 0-65 49-65 101" id="R"/><g id="g"><use transform="matrix(0.08024691358024688,0,0,0.08024691358024688,0,0)" xlink:href="#O"/><use transform="matrix(0.08024691358024688,0,0,0.08024691358024688,19.259259259259252,0)" xlink:href="#H"/><use transform="matrix(0.08024691358024688,0,0,0.08024691358024688,35.30864197530863,0)" xlink:href="#L"/><use transform="matrix(0.08024691358024688,0,0,0.08024691358024688,44.858024691358004,0)" xlink:href="#P"/><use transform="matrix(0.08024691358024688,0,0,0.08024691358024688,59.302469135802454,0)" xlink:href="#Q"/><use transform="matrix(0.08024691358024688,0,0,0.08024691358024688,65.64197530864196,0)" xlink:href="#R"/><use transform="matrix(0.08024691358024688,0,0,0.08024691358024688,80.0864197530864,0)" xlink:href="#H"/></g><g id="h"><use transform="matrix(0.08024691358024688,0,0,0.08024691358024688,0,0)" xlink:href="#G"/><use transform="matrix(0.08024691358024688,0,0,0.08024691358024688,14.925925925925918,0)" xlink:href="#H"/><use transform="matrix(0.08024691358024688,0,0,0.08024691358024688,30.975308641975296,0)" xlink:href="#I"/><use transform="matrix(0.08024691358024688,0,0,0.08024691358024688,54.96913580246911,0)" xlink:href="#J"/><use transform="matrix(0.08024691358024688,0,0,0.08024691358024688,71.01851851851849,0)" xlink:href="#K"/><use transform="matrix(0.08024691358024688,0,0,0.08024691358024688,87.06790123456787,0)" xlink:href="#L"/><use transform="matrix(0.08024691358024688,0,0,0.08024691358024688,96.61728395061725,0)" xlink:href="#M"/><use transform="matrix(0.08024691358024688,0,0,0.08024691358024688,112.66666666666661,0)" xlink:href="#N"/></g><g id="i"><use transform="matrix(0.08024691358024688,0,0,0.08024691358024688,0,0)" xlink:href="#O"/><use transform="matrix(0.08024691358024688,0,0,0.08024691358024688,19.259259259259252,0)" xlink:href="#H"/><use transform="matrix(0.08024691358024688,0,0,0.08024691358024688,35.30864197530863,0)" xlink:href="#L"/><use transform="matrix(0.08024691358024688,0,0,0.08024691358024688,44.858024691358004,0)" xlink:href="#P"/><use transform="matrix(0.08024691358024688,0,0,0.08024691358024688,59.302469135802454,0)" xlink:href="#H"/><use transform="matrix(0.08024691358024688,0,0,0.08024691358024688,75.35185185185183,0)" xlink:href="#L"/></g></defs></g></svg>