<svg xmlns="http://www.w3.org/2000/svg" xmlns:xlink="http://www.w3.org/1999/xlink" xmlns:lucid="lucid" width="869.82" height="981.5"><g transform="translate(-1620 280.00000000000006)" lucid:page-tab-id="0_0"><path d="M1640-259a1 1 0 0 1 1-1h827.82a1 1 0 0 1 1 1v938a1 1 0 0 1-1 1H1641a1 1 0 0 1-1-1z" fill="#fff"/><path d="M1740-144.65a15 15 0 0 1 15-15h528.25a15 15 0 0 1 15 15V605a15 15 0 0 1-15 15H1755a15 15 0 0 1-15-15z" stroke="#333" fill="#127ae5"/><path d="M1770.17-114.47a15 15 0 0 1 15-15h467.9a15 15 0 0 1 15 15v437.72a15 15 0 0 1-15 15h-467.9a15 15 0 0 1-15-15z" fill="#f2f3f5"/><path d="M1771.36-120.2l.45-1.08 1.24-2 .26-.3m2.76-2.77l.3-.26 2-1.24 1.1-.45m3.76-1.02l1.95-.15h2.02m4.03 0h4.03m4.03 0h4.03m4.03 0h4.03m4.03 0h4.03m4.03 0h4.03m4.03 0h4.04m4.03 0h4.03m4.04 0h4.03m4.03 0h4.04m4.03 0h4.03m4.04 0h4.03m4.03 0h4.04m4.03 0h4.04m4.03 0h4.03m4.04 0h4.03m4.03 0h4.04m4.03 0h4.03m4.04 0h4.03m4.03 0h4.04m4.03 0h4.04m4.03 0h4.03m4.04 0h4.03m4.03 0h4.04m4.03 0h4.03m4.04 0h4.03m4.04 0h4.04m4.03 0h4.04m4.04 0h4.03m4.04 0h4.04m4.03 0h4.04m4.04 0h4.03m4.04 0h4.04m4.04 0h4.03m4.04 0h4.03m4.04 0h4.04m4.04 0h4.03m4.04 0h4.04m4.03 0h4.04m4.04 0h4.03m4.04 0h4.04m4.03 0h4.05m4.03 0h4.03m4.05 0h4.03m4.03 0h4.05m4.03 0h4.03m4.05 0h4.03m4.03 0h4.05m4.03 0h4.03m4.05 0h4.03m4.04 0h4.03m4.03 0h4.04m4.03 0h4.03m4.04 0h4.03m4.03 0h4.04m4.03 0h4.04m4.02 0h4.03m4.04 0h4.02m4.03 0h2.02l1.96.15m3.76 1.03l1.08.46 2 1.23.3.25m2.77 2.76l.26.3 1.24 2.02.45 1.08m1.02 3.77l.15 1.96v2m0 3.97v3.97m0 3.98v3.98m0 3.98v4m0 3.97v3.98m0 3.98v3.98m0 4v3.97m0 3.98v3.98m0 3.98v3.98m0 3.98v3.98m0 3.98v3.98m0 3.98v3.98m0 3.98v3.98m0 3.98v3.98m0 3.98v3.98m0 3.98v3.97m0 3.97v3.98m0 3.98v3.98m0 4v3.97m0 3.98v3.98m0 3.98v4m0 3.97v3.98m0 3.97v3.98m0 3.98v3.98m0 3.98v3.98m0 3.98v3.98m0 3.98v3.98m0 3.98v3.98m0 3.98v3.98m0 3.97v3.98m0 4v3.97m0 3.98v3.98m0 3.98v4m0 3.97v3.98m0 3.98v3.98m0 4v3.97m0 3.97v3.98m0 3.98v3.98m0 3.98v3.98m0 3.98v3.98m0 3.98v3.98m0 3.98v3.98m0 3.97v3.97m0 3.98v3.98m0 3.98v4m0 3.97v3.98m0 3.98v3.98m0 4v3.97m0 3.98v3.98m0 3.98v3.98m0 3.98v3.98m0 3.98v3.98m0 3.98v3.98m0 3.98v3.98m0 3.98v3.98m0 3.98v2l-.15 1.94m-1.03 3.77l-.47 1.08-1.22 2-.25.3m-2.76 2.78l-.3.25-2.02 1.23-1.1.46m-3.75 1.03l-1.96.15h-2.02m-4.03 0H2243m-4.05 0h-4.03m-4.03 0h-4.05m-4.03 0h-4.04m-4.03 0h-4.03m-4.04 0h-4.03m-4.03 0h-4.04m-4.03 0h-4.03m-4.04 0h-4.03m-4.03 0h-4.04m-4.03 0h-4.03m-4.04 0h-4.03m-4.04 0h-4.02m-4.03 0h-4.04m-4.02 0h-4.03m-4.04 0H2122m-4.03 0h-4.04m-4.02 0h-4.04m-4.03 0h-4.02m-4.04 0h-4.03m-4.02 0h-4.04m-4.03 0h-4.02m-4.04 0h-4.03m-4.03 0h-4.03m-4.03 0h-4.03m-4.03 0h-4.03m-4.03 0h-4.03m-4.03 0h-4.03m-4.03 0h-4.03m-4.03 0h-4.03m-4.03 0h-4.03m-4.03 0h-4.04m-4.03 0h-4.03m-4.04 0h-4.03m-4.03 0h-4.04m-4.03 0h-4.03m-4.04 0h-4.03m-4.03 0h-4.04m-4.03 0h-4.04m-4.03 0h-4.03m-4.04 0h-4.03m-4.03 0h-4.04m-4.03 0h-4.03m-4.04 0h-4.03m-4.03 0h-4.04m-4.03 0h-4.04m-4.03 0h-4.03m-4.04 0h-4.03m-4.03 0h-4.04m-4.03 0h-4.03m-4.04 0h-4.03m-4.04 0h-4.04m-4.03 0h-4.04m-4.04 0h-4.03m-4.04 0h-4.04m-4.03 0h-4.04m-4.04 0h-4.03m-4.04 0h-2.03l-1.95-.16m-3.77-1.04l-1.08-.45-2-1.22-.3-.25m-2.77-2.77l-.26-.3-1.23-2-.44-1.1m-1.03-3.76l-.15-1.95v-2m0-3.97v-3.98m0-3.98v-3.98m0-3.98v-3.98m0-3.98v-3.98m0-3.98v-3.98m0-3.98v-3.98m0-3.97v-3.98m0-3.98v-3.98m0-4v-3.97m0-3.98v-3.98m0-3.98v-4m0-3.97v-3.98m0-3.98v-3.98m0-3.98v-3.98m0-3.98v-3.98m0-3.98v-3.98m0-3.98v-3.98m0-3.98V178m0-3.98v-3.98m0-3.97v-3.98m0-4v-3.97m0-3.98v-3.98m0-3.98v-4m0-3.97v-3.98m0-3.98v-3.98m0-4v-3.97m0-3.97v-3.98m0-3.98v-3.98m0-3.98v-3.98m0-3.98V82.5m0-3.98v-3.98m0-3.98v-3.98m0-3.98v-3.98m0-3.97v-3.98m0-3.98v-4m0-3.97v-3.98m0-3.98V26.8m0-4v-3.97m0-3.98v-3.98m0-3.98v-4m0-3.96v-3.98m0-3.98V-13m0-3.98v-3.98m0-3.98v-3.98m0-3.98v-3.98m0-3.98v-3.98m0-3.98v-3.98m0-3.97v-3.98m0-3.98v-3.98m0-4v-3.97m0-3.98v-3.98m0-3.98v-4m0-3.97v-3.98m0-3.98v-3.97m0-3.98v-2l.15-1.95" stroke="#fff" fill="none"/><path d="M2056.84-85.8a15 15 0 0 1 15-15h120.88a15 15 0 0 1 15 15V35.06a15 15 0 0 1-15 15h-120.88a15 15 0 0 1-15-15z" stroke="#333" fill="#fff"/><use xlink:href="#a" transform="matrix(1,0,0,1,2061.842105263158,-95.80701754385996) translate(26.11728395061732 61.840277777777764)"/><use xlink:href="#b" transform="matrix(1,0,0,1,2061.842105263158,-95.80701754385996) translate(33.524691358024725 88.5069444444444)"/><path d="M1770.17 398.5a15 15 0 0 1 15-15h467.9a15 15 0 0 1 15 15V585a15 15 0 0 1-15 15h-467.9a15 15 0 0 1-15-15z" stroke="#333" fill="#fff"/><use xlink:href="#c" transform="matrix(1,0,0,1,1789.1754385964914,402.50877192982466) translate(0 174.32974577777776)"/><path d="M2087.02 170.68a15 15 0 0 1 15-15h120.88a15 15 0 0 1 15 15v120.88a15 15 0 0 1-15 15H2102a15 15 0 0 1-15-15z" stroke="#333" fill="#e5e5e5"/><use xlink:href="#d" transform="matrix(1,0,0,1,2092.017543859649,160.68421052631547) translate(36.02469135802472 61.840277777777764)"/><use xlink:href="#b" transform="matrix(1,0,0,1,2092.017543859649,160.68421052631547) translate(33.524691358024725 88.5069444444444)"/><path d="M2071.93 155.6a15 15 0 0 1 15-15h120.88a15 15 0 0 1 15 15v120.87a15 15 0 0 1-15 15h-120.87a15 15 0 0 1-15-15z" stroke="#333" fill="#e5e5e5"/><use xlink:href="#d" transform="matrix(1,0,0,1,2076.9298245614036,145.59649122806977) translate(36.02469135802472 61.840277777777764)"/><use xlink:href="#b" transform="matrix(1,0,0,1,2076.9298245614036,145.59649122806977) translate(33.524691358024725 88.5069444444444)"/><path d="M2056.84 140.5a15 15 0 0 1 15-15h120.88a15 15 0 0 1 15 15v120.9a15 15 0 0 1-15 15h-120.88a15 15 0 0 1-15-15z" stroke="#333" fill="#fff"/><use xlink:href="#e" transform="matrix(1,0,0,1,2061.842105263158,130.50877192982418) translate(21.888888888888935 61.840277777777764)"/><use xlink:href="#f" transform="matrix(1,0,0,1,2061.842105263158,130.50877192982418) translate(30.993827160493858 88.5069444444444)"/><path d="M2056.84 428.68a15 15 0 0 1 15-15h120.88a15 15 0 0 1 15 15v120.88a15 15 0 0 1-15 15h-120.88a15 15 0 0 1-15-15z" stroke="#333" fill="#fff"/><use xlink:href="#g" transform="matrix(1,0,0,1,2061.842105263158,418.68421052631584) translate(47.69135802469138 61.840277777777764)"/><use xlink:href="#h" transform="matrix(1,0,0,1,2061.842105263158,418.68421052631584) translate(33.49382716049386 88.5069444444444)"/><path d="M2132.28 51.07v73.44" stroke="#282c33" fill="none"/><path d="M2132.76 51.08h-.95v-.5h.96zM2132.76 125h-.95v-.5h.96z" stroke="#282c33" stroke-width=".05" fill="#282c33"/><path d="M2132.28 277.4v135.28" stroke="#282c33" fill="none"/><path d="M2132.76 277.4h-.95v-.5h.96zM2132.76 413.18h-.95v-.5h.96z" stroke="#282c33" stroke-width=".05" fill="#282c33"/><path d="M1800.35 140.5a15 15 0 0 1 15-15h120.88a15 15 0 0 1 15 15v120.9a15 15 0 0 1-15 15h-120.88a15 15 0 0 1-15-15z" stroke="#333" fill="#fff"/><use xlink:href="#i" transform="matrix(1,0,0,1,1805.3508771929824,130.50877192982418) translate(36.02469135802472 61.840277777777764)"/><use xlink:href="#j" transform="matrix(1,0,0,1,1805.3508771929824,130.50877192982418) translate(33.524691358024725 88.5069444444444)"/><path d="M2055.84 200.95h-103.6" stroke="#282c33" fill="none"/><path d="M2056.34 201.42h-.5v-.95h.5zM1952.24 201.42h-.5v-.95h.5z" stroke="#282c33" stroke-width=".05" fill="#282c33"/><path d="M1740.38-213.65a6 6 0 0 1 6-6h191.7a6 6 0 0 1 6 6v27.48a6 6 0 0 1-6 6h-191.7a6 6 0 0 1-6-6z" stroke="#000" stroke-opacity="0" stroke-width="3" fill="#fff" fill-opacity="0"/><use xlink:href="#k" transform="matrix(1,0,0,1,1745.3852797041227,-214.64912280701765) translate(15.487654320987716 19.652777777777768)"/><use xlink:href="#l" transform="matrix(1,0,0,1,1745.3852797041227,-214.64912280701765) translate(113.2037037037037 19.652777777777768)"/><path d="M1842.23-179.67v49.2" stroke="#333" fill="none"/><path d="M1842.7-179.66h-.95v-.5h.95zM1842.7-129.97h-.95v-.52h.95z" stroke="#333" stroke-width=".05" fill="#333"/><path d="M1913.5 646.52a6 6 0 0 1 6-6h199.24a6 6 0 0 1 6 6V674a6 6 0 0 1-6 6H1919.5a6 6 0 0 1-6-6z" stroke="#000" stroke-opacity="0" stroke-width="3" fill="#fff" fill-opacity="0"/><g><use xlink:href="#k" transform="matrix(1,0,0,1,1918.5087719298247,645.5204678362574) translate(15.166666666666728 19.652777777777768)"/><use xlink:href="#m" transform="matrix(1,0,0,1,1918.5087719298247,645.5204678362574) translate(112.88271604938271 19.652777777777768)"/></g><path d="M2335.97 176.77a6 6 0 0 1 6-6h101.15a6 6 0 0 1 6 6v48.35a6 6 0 0 1-6 6h-101.15a6 6 0 0 1-6-6z" stroke="#000" stroke-opacity="0" stroke-width="3" fill="#fff" fill-opacity="0"/><g><use xlink:href="#n" transform="matrix(1,0,0,1,2340.964912280702,175.77192982456103) translate(-5.870370370370331 17.777777777777768)"/><use xlink:href="#o" transform="matrix(1,0,0,1,2340.964912280702,175.77192982456103) translate(11.320987654321016 44.444444444444414)"/></g><path d="M2335.47 200.95h-126.75" stroke="#333" fill="none"/><path d="M2335.97 201.42h-.52v-.95h.52zM2208.73 201.42h-.5v-.95h.5z" stroke="#333" stroke-width=".05" fill="#333"/><defs><path fill="#333" d="M63-220v92h138v28H63V0H30v-248h175v28H63" id="p"/><path fill="#333" d="M114-163C36-179 61-72 57 0H25l-1-190h30c1 12-1 29 2 39 6-27 23-49 58-41v29" id="q"/><path fill="#333" d="M100-194c62-1 85 37 85 99 1 63-27 99-86 99S16-35 15-95c0-66 28-99 85-99zM99-20c44 1 53-31 53-75 0-43-8-75-51-75s-53 32-53 75 10 74 51 75" id="r"/><path fill="#333" d="M117-194c89-4 53 116 60 194h-32v-121c0-31-8-49-39-48C34-167 62-67 57 0H25l-1-190h30c1 10-1 24 2 32 11-22 29-35 61-36" id="s"/><path fill="#333" d="M59-47c-2 24 18 29 38 22v24C64 9 27 4 27-40v-127H5v-23h24l9-43h21v43h35v23H59v120" id="t"/><path fill="#333" d="M100-194c63 0 86 42 84 106H49c0 40 14 67 53 68 26 1 43-12 49-29l28 8c-11 28-37 45-77 45C44 4 14-33 15-96c1-61 26-98 85-98zm52 81c6-60-76-77-97-28-3 7-6 17-6 28h103" id="u"/><path fill="#333" d="M85-194c31 0 48 13 60 33l-1-100h32l1 261h-30c-2-10 0-23-3-31C134-8 116 4 85 4 32 4 16-35 15-94c0-66 23-100 70-100zm9 24c-40 0-46 34-46 75 0 40 6 74 45 74 42 0 51-32 51-76 0-42-9-74-50-73" id="v"/><g id="a"><use transform="matrix(0.06172839506172834,0,0,0.06172839506172834,0,0)" xlink:href="#p"/><use transform="matrix(0.06172839506172834,0,0,0.06172839506172834,13.518518518518507,0)" xlink:href="#q"/><use transform="matrix(0.06172839506172834,0,0,0.06172839506172834,20.86419753086418,0)" xlink:href="#r"/><use transform="matrix(0.06172839506172834,0,0,0.06172839506172834,33.209876543209845,0)" xlink:href="#s"/><use transform="matrix(0.06172839506172834,0,0,0.06172839506172834,45.555555555555515,0)" xlink:href="#t"/><use transform="matrix(0.06172839506172834,0,0,0.06172839506172834,51.72839506172835,0)" xlink:href="#u"/><use transform="matrix(0.06172839506172834,0,0,0.06172839506172834,64.07407407407402,0)" xlink:href="#s"/><use transform="matrix(0.06172839506172834,0,0,0.06172839506172834,76.41975308641969,0)" xlink:href="#v"/></g><path fill="#333" d="M185-189c-5-48-123-54-124 2 14 75 158 14 163 119 3 78-121 87-175 55-17-10-28-26-33-46l33-7c5 56 141 63 141-1 0-78-155-14-162-118-5-82 145-84 179-34 5 7 8 16 11 25" id="w"/><path fill="#333" d="M108 0H70L1-190h34L89-25l56-165h34" id="x"/><path fill="#333" d="M24-231v-30h32v30H24zM24 0v-190h32V0H24" id="y"/><path fill="#333" d="M96-169c-40 0-48 33-48 73s9 75 48 75c24 0 41-14 43-38l32 2c-6 37-31 61-74 61-59 0-76-41-82-99-10-93 101-131 147-64 4 7 5 14 7 22l-32 3c-4-21-16-35-41-35" id="z"/><g id="b"><use transform="matrix(0.06172839506172834,0,0,0.06172839506172834,0,0)" xlink:href="#w"/><use transform="matrix(0.06172839506172834,0,0,0.06172839506172834,14.814814814814802,0)" xlink:href="#u"/><use transform="matrix(0.06172839506172834,0,0,0.06172839506172834,27.160493827160472,0)" xlink:href="#q"/><use transform="matrix(0.06172839506172834,0,0,0.06172839506172834,34.50617283950614,0)" xlink:href="#x"/><use transform="matrix(0.06172839506172834,0,0,0.06172839506172834,45.61728395061724,0)" xlink:href="#y"/><use transform="matrix(0.06172839506172834,0,0,0.06172839506172834,50.49382716049378,0)" xlink:href="#z"/><use transform="matrix(0.06172839506172834,0,0,0.06172839506172834,61.60493827160488,0)" xlink:href="#u"/></g><path fill="#333" d="M30-248c118-7 216 8 213 122C240-48 200 0 122 0H30v-248zM63-27c89 8 146-16 146-99s-60-101-146-95v194" id="A"/><path fill="#333" d="M141-36C126-15 110 5 73 4 37 3 15-17 15-53c-1-64 63-63 125-63 3-35-9-54-41-54-24 1-41 7-42 31l-33-3c5-37 33-52 76-52 45 0 72 20 72 64v82c-1 20 7 32 28 27v20c-31 9-61-2-59-35zM48-53c0 20 12 33 32 33 41-3 63-29 60-74-43 2-92-5-92 41" id="B"/><path fill="#333" d="M115-194c53 0 69 39 70 98 0 66-23 100-70 100C84 3 66-7 56-30L54 0H23l1-261h32v101c10-23 28-34 59-34zm-8 174c40 0 45-34 45-75 0-40-5-75-45-74-42 0-51 32-51 76 0 43 10 73 51 73" id="C"/><path fill="#333" d="M135-143c-3-34-86-38-87 0 15 53 115 12 119 90S17 21 10-45l28-5c4 36 97 45 98 0-10-56-113-15-118-90-4-57 82-63 122-42 12 7 21 19 24 35" id="D"/><g id="c"><use transform="matrix(0.06172839506172834,0,0,0.06172839506172834,0,0)" xlink:href="#A"/><use transform="matrix(0.06172839506172834,0,0,0.06172839506172834,15.987654320987641,0)" xlink:href="#B"/><use transform="matrix(0.06172839506172834,0,0,0.06172839506172834,28.333333333333307,0)" xlink:href="#t"/><use transform="matrix(0.06172839506172834,0,0,0.06172839506172834,34.50617283950614,0)" xlink:href="#B"/><use transform="matrix(0.06172839506172834,0,0,0.06172839506172834,46.85185185185181,0)" xlink:href="#C"/><use transform="matrix(0.06172839506172834,0,0,0.06172839506172834,59.19753086419748,0)" xlink:href="#B"/><use transform="matrix(0.06172839506172834,0,0,0.06172839506172834,71.54320987654314,0)" xlink:href="#D"/><use transform="matrix(0.06172839506172834,0,0,0.06172839506172834,82.65432098765424,0)" xlink:href="#u"/></g><path fill="#333" d="M197 0v-115H63V0H30v-248h33v105h134v-105h34V0h-34" id="E"/><path fill="#333" d="M179-190L93 31C79 59 56 82 12 73V49c39 6 53-20 64-50L1-190h34L92-34l54-156h33" id="F"/><g id="d"><use transform="matrix(0.06172839506172834,0,0,0.06172839506172834,0,0)" xlink:href="#E"/><use transform="matrix(0.06172839506172834,0,0,0.06172839506172834,15.987654320987641,0)" xlink:href="#y"/><use transform="matrix(0.06172839506172834,0,0,0.06172839506172834,20.864197530864182,0)" xlink:href="#D"/><use transform="matrix(0.06172839506172834,0,0,0.06172839506172834,31.975308641975282,0)" xlink:href="#t"/><use transform="matrix(0.06172839506172834,0,0,0.06172839506172834,38.14814814814812,0)" xlink:href="#r"/><use transform="matrix(0.06172839506172834,0,0,0.06172839506172834,50.49382716049379,0)" xlink:href="#q"/><use transform="matrix(0.06172839506172834,0,0,0.06172839506172834,57.83950617283946,0)" xlink:href="#F"/></g><path fill="#333" d="M230 0l2-204L168 0h-37L68-204 70 0H24v-248h70l56 185 57-185h69V0h-46" id="G"/><path fill="#333" d="M133-34C117-15 103 5 69 4 32 3 11-16 11-54c-1-60 55-63 116-61 1-26-3-47-28-47-18 1-26 9-28 27l-52-2c7-38 36-58 82-57s74 22 75 68l1 82c-1 14 12 18 25 15v27c-30 8-71 5-69-32zm-48 3c29 0 43-24 42-57-32 0-66-3-65 30 0 17 8 27 23 27" id="H"/><path fill="#333" d="M115-3C79 11 28 4 28-45v-112H4v-33h27l15-45h31v45h36v33H77v99c-1 23 16 31 38 25v30" id="I"/><path fill="#333" d="M190-63c-7 42-38 67-86 67-59 0-84-38-90-98-12-110 154-137 174-36l-49 2c-2-19-15-32-35-32-30 0-35 28-38 64-6 74 65 87 74 30" id="J"/><path fill="#333" d="M114-157C55-157 80-60 75 0H25v-261h50l-1 109c12-26 28-41 61-42 86-1 58 113 63 194h-50c-7-57 23-157-34-157" id="K"/><path fill="#333" d="M25-224v-37h50v37H25zM25 0v-190h50V0H25" id="L"/><path fill="#333" d="M135-194c87-1 58 113 63 194h-50c-7-57 23-157-34-157-59 0-34 97-39 157H25l-1-190h47c2 12-1 28 3 38 12-26 28-41 61-42" id="M"/><path fill="#333" d="M195-6C206 82 75 100 31 46c-4-6-6-13-8-21l49-6c3 16 16 24 34 25 40 0 42-37 40-79-11 22-30 35-61 35-53 0-70-43-70-97 0-56 18-96 73-97 30 0 46 14 59 34l2-30h47zm-90-29c32 0 41-27 41-63 0-35-9-62-40-62-32 0-39 29-40 63 0 36 9 62 39 62" id="N"/><g id="e"><use transform="matrix(0.06172839506172834,0,0,0.06172839506172834,0,0)" xlink:href="#G"/><use transform="matrix(0.06172839506172834,0,0,0.06172839506172834,18.456790123456774,0)" xlink:href="#H"/><use transform="matrix(0.06172839506172834,0,0,0.06172839506172834,30.80246913580244,0)" xlink:href="#I"/><use transform="matrix(0.06172839506172834,0,0,0.06172839506172834,38.14814814814811,0)" xlink:href="#J"/><use transform="matrix(0.06172839506172834,0,0,0.06172839506172834,50.49382716049378,0)" xlink:href="#K"/><use transform="matrix(0.06172839506172834,0,0,0.06172839506172834,64.01234567901228,0)" xlink:href="#L"/><use transform="matrix(0.06172839506172834,0,0,0.06172839506172834,70.18518518518512,0)" xlink:href="#M"/><use transform="matrix(0.06172839506172834,0,0,0.06172839506172834,83.70370370370362,0)" xlink:href="#N"/></g><path fill="#333" d="M169-182c-1-43-94-46-97-3 18 66 151 10 154 114 3 95-165 93-204 36-6-8-10-19-12-30l50-8c3 46 112 56 116 5-17-69-150-10-154-114-4-87 153-88 188-35 5 8 8 18 10 28" id="O"/><path fill="#333" d="M185-48c-13 30-37 53-82 52C43 2 14-33 14-96s30-98 90-98c62 0 83 45 84 108H66c0 31 8 55 39 56 18 0 30-7 34-22zm-45-69c5-46-57-63-70-21-2 6-4 13-4 21h74" id="P"/><path fill="#333" d="M135-150c-39-12-60 13-60 57V0H25l-1-190h47c2 13-1 29 3 40 6-28 27-53 61-41v41" id="Q"/><path fill="#333" d="M128 0H69L1-190h53L99-40l48-150h52" id="R"/><g id="f"><use transform="matrix(0.06172839506172834,0,0,0.06172839506172834,0,0)" xlink:href="#O"/><use transform="matrix(0.06172839506172834,0,0,0.06172839506172834,14.814814814814802,0)" xlink:href="#P"/><use transform="matrix(0.06172839506172834,0,0,0.06172839506172834,27.160493827160472,0)" xlink:href="#Q"/><use transform="matrix(0.06172839506172834,0,0,0.06172839506172834,35.80246913580244,0)" xlink:href="#R"/><use transform="matrix(0.06172839506172834,0,0,0.06172839506172834,48.14814814814811,0)" xlink:href="#L"/><use transform="matrix(0.06172839506172834,0,0,0.06172839506172834,54.320987654320945,0)" xlink:href="#J"/><use transform="matrix(0.06172839506172834,0,0,0.06172839506172834,66.66666666666661,0)" xlink:href="#P"/></g><path fill="#333" d="M127-220V0H93v-220H8v-28h204v28h-85" id="S"/><path fill="#333" d="M143 0L79-87 56-68V0H24v-261h32v163l83-92h37l-77 82L181 0h-38" id="T"/><g id="g"><use transform="matrix(0.06172839506172834,0,0,0.06172839506172834,0,0)" xlink:href="#S"/><use transform="matrix(0.06172839506172834,0,0,0.06172839506172834,11.049382716049372,0)" xlink:href="#B"/><use transform="matrix(0.06172839506172834,0,0,0.06172839506172834,23.395061728395042,0)" xlink:href="#D"/><use transform="matrix(0.06172839506172834,0,0,0.06172839506172834,34.50617283950614,0)" xlink:href="#T"/></g><path fill="#333" d="M177-190C167-65 218 103 67 71c-23-6-38-20-44-43l32-5c15 47 100 32 89-28v-30C133-14 115 1 83 1 29 1 15-40 15-95c0-56 16-97 71-98 29-1 48 16 59 35 1-10 0-23 2-32h30zM94-22c36 0 50-32 50-73 0-42-14-75-50-75-39 0-46 34-46 75s6 73 46 73" id="U"/><g id="h"><use transform="matrix(0.06172839506172834,0,0,0.06172839506172834,0,0)" xlink:href="#D"/><use transform="matrix(0.06172839506172834,0,0,0.06172839506172834,11.111111111111102,0)" xlink:href="#t"/><use transform="matrix(0.06172839506172834,0,0,0.06172839506172834,17.283950617283935,0)" xlink:href="#r"/><use transform="matrix(0.06172839506172834,0,0,0.06172839506172834,29.629629629629605,0)" xlink:href="#q"/><use transform="matrix(0.06172839506172834,0,0,0.06172839506172834,36.975308641975275,0)" xlink:href="#B"/><use transform="matrix(0.06172839506172834,0,0,0.06172839506172834,49.320987654320945,0)" xlink:href="#U"/><use transform="matrix(0.06172839506172834,0,0,0.06172839506172834,61.666666666666615,0)" xlink:href="#u"/></g><g id="i"><use transform="matrix(0.06172839506172834,0,0,0.06172839506172834,0,0)" xlink:href="#E"/><use transform="matrix(0.06172839506172834,0,0,0.06172839506172834,15.987654320987641,0)" xlink:href="#y"/><use transform="matrix(0.06172839506172834,0,0,0.06172839506172834,20.864197530864182,0)" xlink:href="#D"/><use transform="matrix(0.06172839506172834,0,0,0.06172839506172834,31.975308641975282,0)" xlink:href="#t"/><use transform="matrix(0.06172839506172834,0,0,0.06172839506172834,38.14814814814812,0)" xlink:href="#r"/><use transform="matrix(0.06172839506172834,0,0,0.06172839506172834,50.49382716049379,0)" xlink:href="#q"/><use transform="matrix(0.06172839506172834,0,0,0.06172839506172834,57.83950617283946,0)" xlink:href="#F"/></g><g id="j"><use transform="matrix(0.06172839506172834,0,0,0.06172839506172834,0,0)" xlink:href="#w"/><use transform="matrix(0.06172839506172834,0,0,0.06172839506172834,14.814814814814802,0)" xlink:href="#u"/><use transform="matrix(0.06172839506172834,0,0,0.06172839506172834,27.160493827160472,0)" xlink:href="#q"/><use transform="matrix(0.06172839506172834,0,0,0.06172839506172834,34.50617283950614,0)" xlink:href="#x"/><use transform="matrix(0.06172839506172834,0,0,0.06172839506172834,45.61728395061724,0)" xlink:href="#y"/><use transform="matrix(0.06172839506172834,0,0,0.06172839506172834,50.49382716049378,0)" xlink:href="#z"/><use transform="matrix(0.06172839506172834,0,0,0.06172839506172834,61.60493827160488,0)" xlink:href="#u"/></g><path fill="#333" d="M151-220L108 0H75l42-220H32l6-28h203l-5 28h-85" id="V"/><path fill="#333" d="M111-194c62-3 86 47 72 106H45c-7 38 6 69 45 68 27-1 43-14 53-32l24 11C152-15 129 4 87 4 38 3 12-23 12-71c0-70 32-119 99-123zm44 81c14-66-71-72-95-28-4 8-8 17-11 28h106" id="W"/><path fill="#333" d="M248-111c6-24 9-61-24-58-72 9-57 108-77 169h-31l26-142c3-37-50-30-64-10C52-115 50-51 37 0H6l36-190h30c-1 10-6 24-4 32 13-43 101-52 105 5 13-22 29-41 61-41 90 0 28 129 23 194h-31" id="X"/><path fill="#333" d="M67-162c32-53 139-36 121 50C175-51 163 2 97 4 68 4 52-11 42-31 38 6 28 39 22 75H-9l50-265h29c-1 10 0 20-3 28zm89 36c0-26-10-43-35-43-54 0-67 50-69 103-1 29 14 45 42 46 53 0 62-58 62-106" id="Y"/><path fill="#333" d="M30-147c31-64 166-65 159 27C183-49 158 1 86 4 9 8 1-88 30-147zM88-20c53 0 68-48 68-100 0-31-11-51-44-50-52 1-68 46-68 97 0 32 13 53 44 53" id="Z"/><path fill="#333" d="M66-151c12-25 30-51 66-40l-6 26C45-176 58-65 38 0H6l36-190h30" id="aa"/><path fill="#333" d="M165-48c-4 18 1 34 23 27l-3 20c-29 8-62 0-52-35h-2C116-14 99 4 63 4 30 4 8-16 8-49c0-68 71-67 138-67 10-26 0-56-31-54-26 1-42 9-47 31l-32-5c8-67 160-71 144 15-5 28-9 54-15 81zM42-50c3 52 80 24 89-6 7-12 7-24 11-38-47 1-103-4-100 44" id="ab"/><path fill="#333" d="M6 0l50-261h32L37 0H6" id="ac"/><g id="k"><use transform="matrix(0.06172839506172835,0,0,0.06172839506172835,0,0)" xlink:href="#V"/><use transform="matrix(0.06172839506172835,0,0,0.06172839506172835,11.481481481481474,0)" xlink:href="#W"/><use transform="matrix(0.06172839506172835,0,0,0.06172839506172835,23.827160493827144,0)" xlink:href="#X"/><use transform="matrix(0.06172839506172835,0,0,0.06172839506172835,42.28395061728392,0)" xlink:href="#Y"/><use transform="matrix(0.06172839506172835,0,0,0.06172839506172835,54.62962962962959,0)" xlink:href="#Z"/><use transform="matrix(0.06172839506172835,0,0,0.06172839506172835,66.97530864197526,0)" xlink:href="#aa"/><use transform="matrix(0.06172839506172835,0,0,0.06172839506172835,74.32098765432093,0)" xlink:href="#ab"/><use transform="matrix(0.06172839506172835,0,0,0.06172839506172835,86.6666666666666,0)" xlink:href="#ac"/></g><path fill="#333" d="M194-120c59 52 2 134-86 124-53-6-90-18-98-63l31-7c8 30 29 43 70 43 46 0 84-17 71-62-32-43-135-20-137-98-3-89 178-90 191-16l-30 9c-8-48-127-53-127 5 0 53 81 35 115 65" id="ad"/><path fill="#333" d="M89 0H52L20-190h33L74-25l89-165h34" id="ae"/><g id="l"><use transform="matrix(0.06172839506172835,0,0,0.06172839506172835,0,0)" xlink:href="#ad"/><use transform="matrix(0.06172839506172835,0,0,0.06172839506172835,14.814814814814804,0)" xlink:href="#W"/><use transform="matrix(0.06172839506172835,0,0,0.06172839506172835,27.160493827160472,0)" xlink:href="#aa"/><use transform="matrix(0.06172839506172835,0,0,0.06172839506172835,34.50617283950615,0)" xlink:href="#ae"/><use transform="matrix(0.06172839506172835,0,0,0.06172839506172835,45.61728395061725,0)" xlink:href="#W"/><use transform="matrix(0.06172839506172835,0,0,0.06172839506172835,57.96296296296292,0)" xlink:href="#aa"/></g><path fill="#333" d="M50-231l6-30h32l-6 30H50zM6 0l37-190h31L37 0H6" id="af"/><path fill="#333" d="M44-68c0 29 11 47 38 47 30 0 42-19 51-41l28 9C148-21 126 4 82 4 31 4 10-29 12-85c3-77 74-140 146-93 12 8 15 23 18 40l-31 5c-1-22-13-36-36-36-52 0-65 49-65 101" id="ag"/><g id="m"><use transform="matrix(0.06172839506172835,0,0,0.06172839506172835,0,0)" xlink:href="#ad"/><use transform="matrix(0.06172839506172835,0,0,0.06172839506172835,14.814814814814804,0)" xlink:href="#W"/><use transform="matrix(0.06172839506172835,0,0,0.06172839506172835,27.160493827160472,0)" xlink:href="#aa"/><use transform="matrix(0.06172839506172835,0,0,0.06172839506172835,34.50617283950615,0)" xlink:href="#ae"/><use transform="matrix(0.06172839506172835,0,0,0.06172839506172835,45.61728395061725,0)" xlink:href="#af"/><use transform="matrix(0.06172839506172835,0,0,0.06172839506172835,50.49382716049379,0)" xlink:href="#ag"/><use transform="matrix(0.06172839506172835,0,0,0.06172839506172835,61.604938271604894,0)" xlink:href="#W"/></g><path fill="#333" d="M179 0l23-115H67L45 0H11l48-248h34L72-143h135l21-105h32L212 0h-33" id="ah"/><path fill="#333" d="M-8 0l5-24 140-142H31l5-24h145l-5 24L36-24h119l-5 24H-8" id="ai"/><path fill="#333" d="M67-158c22-48 132-52 116 29L158 0h-32l25-140c3-38-53-32-70-12C52-117 51-52 38 0H6l36-190h30" id="aj"/><path fill="#333" d="M51-54c-9 22 5 41 31 30L79-1C43 14 10-4 19-52l22-115H19l5-23h22l19-43h21l-9 43h35l-4 23H73" id="ak"/><path fill="#333" d="M198-190L69 30C53 58 25 83-20 72c4-11-1-27 19-22 33-1 43-29 59-52L20-190h32L79-34l84-156h35" id="al"/><g id="n"><use transform="matrix(0.06172839506172835,0,0,0.06172839506172835,0,0)" xlink:href="#ah"/><use transform="matrix(0.06172839506172835,0,0,0.06172839506172835,15.987654320987643,0)" xlink:href="#Z"/><use transform="matrix(0.06172839506172835,0,0,0.06172839506172835,28.333333333333314,0)" xlink:href="#aa"/><use transform="matrix(0.06172839506172835,0,0,0.06172839506172835,35.679012345678984,0)" xlink:href="#af"/><use transform="matrix(0.06172839506172835,0,0,0.06172839506172835,40.55555555555552,0)" xlink:href="#ai"/><use transform="matrix(0.06172839506172835,0,0,0.06172839506172835,51.66666666666663,0)" xlink:href="#Z"/><use transform="matrix(0.06172839506172835,0,0,0.06172839506172835,64.0123456790123,0)" xlink:href="#aj"/><use transform="matrix(0.06172839506172835,0,0,0.06172839506172835,76.35802469135797,0)" xlink:href="#ak"/><use transform="matrix(0.06172839506172835,0,0,0.06172839506172835,82.5308641975308,0)" xlink:href="#ab"/><use transform="matrix(0.06172839506172835,0,0,0.06172839506172835,94.87654320987647,0)" xlink:href="#ac"/><use transform="matrix(0.06172839506172835,0,0,0.06172839506172835,99.75308641975302,0)" xlink:href="#ac"/><use transform="matrix(0.06172839506172835,0,0,0.06172839506172835,104.62962962962956,0)" xlink:href="#al"/></g><path fill="#333" d="M55-144c13 50 104 24 104 88C159 21 15 23 1-39l26-10c6 40 102 42 102-4-13-50-104-23-104-87 0-71 143-71 148-8l-29 4c-5-35-85-37-89 0" id="am"/><path fill="#333" d="M68-162c25-46 127-43 121 31C183-60 169 1 98 4 69 5 53-11 43-31L36 0H5l52-261h31zm88 36c2-27-9-43-34-43-55 0-70 51-70 103 0 29 15 45 43 46 52 0 58-58 61-106" id="an"/><g id="o"><use transform="matrix(0.06172839506172835,0,0,0.06172839506172835,0,0)" xlink:href="#am"/><use transform="matrix(0.06172839506172835,0,0,0.06172839506172835,11.111111111111104,0)" xlink:href="#ag"/><use transform="matrix(0.06172839506172835,0,0,0.06172839506172835,22.222222222222207,0)" xlink:href="#ab"/><use transform="matrix(0.06172839506172835,0,0,0.06172839506172835,34.56790123456788,0)" xlink:href="#ac"/><use transform="matrix(0.06172839506172835,0,0,0.06172839506172835,39.444444444444414,0)" xlink:href="#ab"/><use transform="matrix(0.06172839506172835,0,0,0.06172839506172835,51.790123456790084,0)" xlink:href="#an"/><use transform="matrix(0.06172839506172835,0,0,0.06172839506172835,64.13580246913575,0)" xlink:href="#ac"/><use transform="matrix(0.06172839506172835,0,0,0.06172839506172835,69.0123456790123,0)" xlink:href="#W"/></g></defs></g></svg>