<svg xmlns="http://www.w3.org/2000/svg" xmlns:xlink="http://www.w3.org/1999/xlink" xmlns:lucid="lucid" width="1200" height="700"><g transform="translate(-680 -480)" lucid:page-tab-id="0_0"><path d="M700 515c0-8.28 6.72-15 15-15h1130c8.28 0 15 6.72 15 15v488c0 8.28-6.72 15-15 15H715c-8.28 0-15-6.72-15-15z" stroke="#333" stroke-width="3" fill="#127ae5"/><use xlink:href="#a" transform="matrix(1,0,0,1,725,525) translate(441.1851851851853 24.88888888888887)"/><use xlink:href="#b" transform="matrix(1,0,0,1,725,525) translate(577.3827160493827 24.88888888888887)"/><path d="M735.33 611.67c0-8.3 6.72-15 15-15h1050c8.3 0 15 6.7 15 15v310c0 8.28-6.7 15-15 15h-1050c-8.28 0-15-6.72-15-15z" stroke="#333" stroke-width="3" fill="#fff"/><use xlink:href="#c" transform="matrix(1,0,0,1,763.3333333333333,624.6666666666665) translate(445.5 275.74324408888884)"/><path d="M775.33 651.67c0-8.3 6.72-15 15-15h190c8.3 0 15 6.7 15 15v182.25c0 8.28-6.7 15-15 15h-190c-8.28 0-15-6.72-15-15z" stroke="#333" stroke-width="3" fill="#fff"/><use xlink:href="#d" transform="matrix(1,0,0,1,780.3333333333333,641.6666666666665) translate(73.56790123456793 88.32638888888889)"/><use xlink:href="#e" transform="matrix(1,0,0,1,780.3333333333333,641.6666666666665) translate(53.69135802469138 125.6597222222222)"/><path d="M1035.33 651.67c0-8.3 6.72-15 15-15h190c8.3 0 15 6.7 15 15v182.25c0 8.28-6.7 15-15 15h-190c-8.28 0-15-6.72-15-15z" stroke="#333" stroke-width="3" fill="#fff"/><use xlink:href="#f" transform="matrix(1,0,0,1,1040.3333333333333,641.6666666666665) translate(42.024691358024725 69.29513888888889)"/><use xlink:href="#g" transform="matrix(1,0,0,1,1040.3333333333333,641.6666666666665) translate(37.271604938271636 106.6284722222222)"/><use xlink:href="#h" transform="matrix(1,0,0,1,1040.3333333333333,641.6666666666665) translate(53.69135802469138 143.96180555555551)"/><path d="M1295.33 651.67c0-8.3 6.72-15 15-15h190c8.3 0 15 6.7 15 15v182.25c0 8.28-6.7 15-15 15h-190c-8.28 0-15-6.72-15-15z" stroke="#333" stroke-width="3" fill="#fff"/><use xlink:href="#i" transform="matrix(1,0,0,1,1300.3333333333333,641.6666666666665) translate(65.74691358024694 88.32638888888889)"/><use xlink:href="#e" transform="matrix(1,0,0,1,1300.3333333333333,641.6666666666665) translate(53.69135802469138 125.6597222222222)"/><path d="M1555.33 651.67c0-8.3 6.72-15 15-15h190c8.3 0 15 6.7 15 15v182.25c0 8.28-6.7 15-15 15h-190c-8.28 0-15-6.72-15-15z" stroke="#333" stroke-width="3" fill="#fff"/><use xlink:href="#j" transform="matrix(1,0,0,1,1560.3333333333333,641.6666666666665) translate(49.84567901234572 88.32638888888889)"/><use xlink:href="#e" transform="matrix(1,0,0,1,1560.3333333333333,641.6666666666665) translate(53.69135802469138 125.6597222222222)"/><path d="M1075.33 1066c0-3.3 2.7-6 6-6h388c3.32 0 6 2.7 6 6v88c0 3.3-2.68 6-6 6h-388c-3.3 0-6-2.7-6-6z" stroke="#000" stroke-opacity="0" stroke-width="3" fill="#fff" fill-opacity="0"/><g><use xlink:href="#k" transform="matrix(1,0,0,1,1080.3333333333333,1065) translate(24.882716049382736 33.326388888888886)"/><use xlink:href="#l" transform="matrix(1,0,0,1,1080.3333333333333,1065) translate(192.3641975308642 33.326388888888886)"/><use xlink:href="#m" transform="matrix(1,0,0,1,1080.3333333333333,1065) translate(313.2654320987654 33.326388888888886)"/><use xlink:href="#n" transform="matrix(1,0,0,1,1080.3333333333333,1065) translate(6.172839506172863 70.65972222222221)"/><use xlink:href="#o" transform="matrix(1,0,0,1,1080.3333333333333,1065) translate(183.50617283950615 70.65972222222221)"/><use xlink:href="#p" transform="matrix(1,0,0,1,1080.3333333333333,1065) translate(236.99999999999997 70.65972222222221)"/></g><path d="M1275.33 1059V939.17" stroke="#333" stroke-width="2" fill="none"/><path d="M1276.33 1060h-2v-1.03h2zM1276.33 939.2h-2v-1.03h2z" fill="#333"/><defs><path fill="#fff" d="M127-220V0H93v-220H8v-28h204v28h-85" id="q"/><path fill="#fff" d="M100-194c63 0 86 42 84 106H49c0 40 14 67 53 68 26 1 43-12 49-29l28 8c-11 28-37 45-77 45C44 4 14-33 15-96c1-61 26-98 85-98zm52 81c6-60-76-77-97-28-3 7-6 17-6 28h103" id="r"/><path fill="#fff" d="M210-169c-67 3-38 105-44 169h-31v-121c0-29-5-50-35-48C34-165 62-65 56 0H25l-1-190h30c1 10-1 24 2 32 10-44 99-50 107 0 11-21 27-35 58-36 85-2 47 119 55 194h-31v-121c0-29-5-49-35-48" id="s"/><path fill="#fff" d="M115-194c55 1 70 41 70 98S169 2 115 4C84 4 66-9 55-30l1 105H24l-1-265h31l2 30c10-21 28-34 59-34zm-8 174c40 0 45-34 45-75s-6-73-45-74c-42 0-51 32-51 76 0 43 10 73 51 73" id="t"/><path fill="#fff" d="M100-194c62-1 85 37 85 99 1 63-27 99-86 99S16-35 15-95c0-66 28-99 85-99zM99-20c44 1 53-31 53-75 0-43-8-75-51-75s-53 32-53 75 10 74 51 75" id="u"/><path fill="#fff" d="M114-163C36-179 61-72 57 0H25l-1-190h30c1 12-1 29 2 39 6-27 23-49 58-41v29" id="v"/><path fill="#fff" d="M141-36C126-15 110 5 73 4 37 3 15-17 15-53c-1-64 63-63 125-63 3-35-9-54-41-54-24 1-41 7-42 31l-33-3c5-37 33-52 76-52 45 0 72 20 72 64v82c-1 20 7 32 28 27v20c-31 9-61-2-59-35zM48-53c0 20 12 33 32 33 41-3 63-29 60-74-43 2-92-5-92 41" id="w"/><path fill="#fff" d="M24 0v-261h32V0H24" id="x"/><g id="a"><use transform="matrix(0.08641975308641969,0,0,0.08641975308641969,0,0)" xlink:href="#q"/><use transform="matrix(0.08641975308641969,0,0,0.08641975308641969,15.469135802469125,0)" xlink:href="#r"/><use transform="matrix(0.08641975308641969,0,0,0.08641975308641969,32.75308641975306,0)" xlink:href="#s"/><use transform="matrix(0.08641975308641969,0,0,0.08641975308641969,58.59259259259255,0)" xlink:href="#t"/><use transform="matrix(0.08641975308641969,0,0,0.08641975308641969,75.87654320987649,0)" xlink:href="#u"/><use transform="matrix(0.08641975308641969,0,0,0.08641975308641969,93.16049382716042,0)" xlink:href="#v"/><use transform="matrix(0.08641975308641969,0,0,0.08641975308641969,103.44444444444437,0)" xlink:href="#w"/><use transform="matrix(0.08641975308641969,0,0,0.08641975308641969,120.7283950617283,0)" xlink:href="#x"/></g><path fill="#fff" d="M185-189c-5-48-123-54-124 2 14 75 158 14 163 119 3 78-121 87-175 55-17-10-28-26-33-46l33-7c5 56 141 63 141-1 0-78-155-14-162-118-5-82 145-84 179-34 5 7 8 16 11 25" id="y"/><path fill="#fff" d="M108 0H70L1-190h34L89-25l56-165h34" id="z"/><g id="b"><use transform="matrix(0.08641975308641969,0,0,0.08641975308641969,0,0)" xlink:href="#y"/><use transform="matrix(0.08641975308641969,0,0,0.08641975308641969,20.740740740740726,0)" xlink:href="#r"/><use transform="matrix(0.08641975308641969,0,0,0.08641975308641969,38.02469135802467,0)" xlink:href="#v"/><use transform="matrix(0.08641975308641969,0,0,0.08641975308641969,48.30864197530861,0)" xlink:href="#z"/><use transform="matrix(0.08641975308641969,0,0,0.08641975308641969,63.86419753086415,0)" xlink:href="#r"/><use transform="matrix(0.08641975308641969,0,0,0.08641975308641969,81.1481481481481,0)" xlink:href="#v"/></g><path fill="#333" d="M30-248c118-7 216 8 213 122C240-48 200 0 122 0H30v-248zM63-27c89 8 146-16 146-99s-60-101-146-95v194" id="A"/><path fill="#333" d="M141-36C126-15 110 5 73 4 37 3 15-17 15-53c-1-64 63-63 125-63 3-35-9-54-41-54-24 1-41 7-42 31l-33-3c5-37 33-52 76-52 45 0 72 20 72 64v82c-1 20 7 32 28 27v20c-31 9-61-2-59-35zM48-53c0 20 12 33 32 33 41-3 63-29 60-74-43 2-92-5-92 41" id="B"/><path fill="#333" d="M59-47c-2 24 18 29 38 22v24C64 9 27 4 27-40v-127H5v-23h24l9-43h21v43h35v23H59v120" id="C"/><path fill="#333" d="M115-194c53 0 69 39 70 98 0 66-23 100-70 100C84 3 66-7 56-30L54 0H23l1-261h32v101c10-23 28-34 59-34zm-8 174c40 0 45-34 45-75 0-40-5-75-45-74-42 0-51 32-51 76 0 43 10 73 51 73" id="D"/><path fill="#333" d="M135-143c-3-34-86-38-87 0 15 53 115 12 119 90S17 21 10-45l28-5c4 36 97 45 98 0-10-56-113-15-118-90-4-57 82-63 122-42 12 7 21 19 24 35" id="E"/><path fill="#333" d="M100-194c63 0 86 42 84 106H49c0 40 14 67 53 68 26 1 43-12 49-29l28 8c-11 28-37 45-77 45C44 4 14-33 15-96c1-61 26-98 85-98zm52 81c6-60-76-77-97-28-3 7-6 17-6 28h103" id="F"/><g id="c"><use transform="matrix(0.0864197530864197,0,0,0.0864197530864197,0,0)" xlink:href="#A"/><use transform="matrix(0.0864197530864197,0,0,0.0864197530864197,22.382716049382704,0)" xlink:href="#B"/><use transform="matrix(0.0864197530864197,0,0,0.0864197530864197,39.66666666666664,0)" xlink:href="#C"/><use transform="matrix(0.0864197530864197,0,0,0.0864197530864197,48.30864197530862,0)" xlink:href="#B"/><use transform="matrix(0.0864197530864197,0,0,0.0864197530864197,65.59259259259255,0)" xlink:href="#D"/><use transform="matrix(0.0864197530864197,0,0,0.0864197530864197,82.8765432098765,0)" xlink:href="#B"/><use transform="matrix(0.0864197530864197,0,0,0.0864197530864197,100.16049382716047,0)" xlink:href="#E"/><use transform="matrix(0.0864197530864197,0,0,0.0864197530864197,115.716049382716,0)" xlink:href="#F"/></g><path fill="#333" d="M127-220V0H93v-220H8v-28h204v28h-85" id="G"/><path fill="#333" d="M143 0L79-87 56-68V0H24v-261h32v163l83-92h37l-77 82L181 0h-38" id="H"/><g id="d"><use transform="matrix(0.0864197530864197,0,0,0.0864197530864197,0,0)" xlink:href="#G"/><use transform="matrix(0.0864197530864197,0,0,0.0864197530864197,15.46913580246913,0)" xlink:href="#B"/><use transform="matrix(0.0864197530864197,0,0,0.0864197530864197,32.753086419753075,0)" xlink:href="#E"/><use transform="matrix(0.0864197530864197,0,0,0.0864197530864197,48.30864197530862,0)" xlink:href="#H"/></g><path fill="#333" d="M100-194c62-1 85 37 85 99 1 63-27 99-86 99S16-35 15-95c0-66 28-99 85-99zM99-20c44 1 53-31 53-75 0-43-8-75-51-75s-53 32-53 75 10 74 51 75" id="I"/><path fill="#333" d="M114-163C36-179 61-72 57 0H25l-1-190h30c1 12-1 29 2 39 6-27 23-49 58-41v29" id="J"/><path fill="#333" d="M177-190C167-65 218 103 67 71c-23-6-38-20-44-43l32-5c15 47 100 32 89-28v-30C133-14 115 1 83 1 29 1 15-40 15-95c0-56 16-97 71-98 29-1 48 16 59 35 1-10 0-23 2-32h30zM94-22c36 0 50-32 50-73 0-42-14-75-50-75-39 0-46 34-46 75s6 73 46 73" id="K"/><g id="e"><use transform="matrix(0.0864197530864197,0,0,0.0864197530864197,0,0)" xlink:href="#E"/><use transform="matrix(0.0864197530864197,0,0,0.0864197530864197,15.555555555555546,0)" xlink:href="#C"/><use transform="matrix(0.0864197530864197,0,0,0.0864197530864197,24.197530864197518,0)" xlink:href="#I"/><use transform="matrix(0.0864197530864197,0,0,0.0864197530864197,41.48148148148146,0)" xlink:href="#J"/><use transform="matrix(0.0864197530864197,0,0,0.0864197530864197,51.7654320987654,0)" xlink:href="#B"/><use transform="matrix(0.0864197530864197,0,0,0.0864197530864197,69.04938271604934,0)" xlink:href="#K"/><use transform="matrix(0.0864197530864197,0,0,0.0864197530864197,86.33333333333329,0)" xlink:href="#F"/></g><path fill="#333" d="M266 0h-40l-56-210L115 0H75L2-248h35L96-30l15-64 43-154h32l59 218 59-218h35" id="L"/><path fill="#333" d="M101-234c-31-9-42 10-38 44h38v23H63V0H32v-167H5v-23h27c-7-52 17-82 69-68v24" id="M"/><path fill="#333" d="M24 0v-261h32V0H24" id="N"/><path fill="#333" d="M206 0h-36l-40-164L89 0H53L-1-190h32L70-26l43-164h34l41 164 42-164h31" id="O"/><g id="f"><use transform="matrix(0.0864197530864197,0,0,0.0864197530864197,0,0)" xlink:href="#L"/><use transform="matrix(0.0864197530864197,0,0,0.0864197530864197,28.691358024691343,0)" xlink:href="#I"/><use transform="matrix(0.0864197530864197,0,0,0.0864197530864197,45.975308641975296,0)" xlink:href="#J"/><use transform="matrix(0.0864197530864197,0,0,0.0864197530864197,56.25925925925924,0)" xlink:href="#H"/><use transform="matrix(0.0864197530864197,0,0,0.0864197530864197,71.81481481481478,0)" xlink:href="#M"/><use transform="matrix(0.0864197530864197,0,0,0.0864197530864197,80.45679012345676,0)" xlink:href="#N"/><use transform="matrix(0.0864197530864197,0,0,0.0864197530864197,87.2839506172839,0)" xlink:href="#I"/><use transform="matrix(0.0864197530864197,0,0,0.0864197530864197,104.56790123456784,0)" xlink:href="#O"/></g><path fill="#333" d="M30 0v-248h187v28H63v79h144v27H63v87h162V0H30" id="P"/><path fill="#333" d="M141 0L90-78 38 0H4l68-98-65-92h35l48 74 47-74h35l-64 92 68 98h-35" id="Q"/><path fill="#333" d="M96-169c-40 0-48 33-48 73s9 75 48 75c24 0 41-14 43-38l32 2c-6 37-31 61-74 61-59 0-76-41-82-99-10-93 101-131 147-64 4 7 5 14 7 22l-32 3c-4-21-16-35-41-35" id="R"/><path fill="#333" d="M84 4C-5 8 30-112 23-190h32v120c0 31 7 50 39 49 72-2 45-101 50-169h31l1 190h-30c-1-10 1-25-2-33-11 22-28 36-60 37" id="S"/><path fill="#333" d="M24-231v-30h32v30H24zM24 0v-190h32V0H24" id="T"/><path fill="#333" d="M117-194c89-4 53 116 60 194h-32v-121c0-31-8-49-39-48C34-167 62-67 57 0H25l-1-190h30c1 10-1 24 2 32 11-22 29-35 61-36" id="U"/><g id="g"><use transform="matrix(0.0864197530864197,0,0,0.0864197530864197,0,0)" xlink:href="#P"/><use transform="matrix(0.0864197530864197,0,0,0.0864197530864197,20.74074074074073,0)" xlink:href="#Q"/><use transform="matrix(0.0864197530864197,0,0,0.0864197530864197,36.296296296296276,0)" xlink:href="#F"/><use transform="matrix(0.0864197530864197,0,0,0.0864197530864197,53.58024691358022,0)" xlink:href="#R"/><use transform="matrix(0.0864197530864197,0,0,0.0864197530864197,69.13580246913577,0)" xlink:href="#S"/><use transform="matrix(0.0864197530864197,0,0,0.0864197530864197,86.41975308641972,0)" xlink:href="#C"/><use transform="matrix(0.0864197530864197,0,0,0.0864197530864197,95.06172839506169,0)" xlink:href="#T"/><use transform="matrix(0.0864197530864197,0,0,0.0864197530864197,101.88888888888883,0)" xlink:href="#I"/><use transform="matrix(0.0864197530864197,0,0,0.0864197530864197,119.17283950617278,0)" xlink:href="#U"/></g><g id="h"><use transform="matrix(0.0864197530864197,0,0,0.0864197530864197,0,0)" xlink:href="#E"/><use transform="matrix(0.0864197530864197,0,0,0.0864197530864197,15.555555555555546,0)" xlink:href="#C"/><use transform="matrix(0.0864197530864197,0,0,0.0864197530864197,24.197530864197518,0)" xlink:href="#I"/><use transform="matrix(0.0864197530864197,0,0,0.0864197530864197,41.48148148148146,0)" xlink:href="#J"/><use transform="matrix(0.0864197530864197,0,0,0.0864197530864197,51.7654320987654,0)" xlink:href="#B"/><use transform="matrix(0.0864197530864197,0,0,0.0864197530864197,69.04938271604934,0)" xlink:href="#K"/><use transform="matrix(0.0864197530864197,0,0,0.0864197530864197,86.33333333333329,0)" xlink:href="#F"/></g><path fill="#333" d="M108 0H70L1-190h34L89-25l56-165h34" id="V"/><g id="i"><use transform="matrix(0.0864197530864197,0,0,0.0864197530864197,0,0)" xlink:href="#P"/><use transform="matrix(0.0864197530864197,0,0,0.0864197530864197,20.74074074074073,0)" xlink:href="#V"/><use transform="matrix(0.0864197530864197,0,0,0.0864197530864197,36.296296296296276,0)" xlink:href="#F"/><use transform="matrix(0.0864197530864197,0,0,0.0864197530864197,53.58024691358022,0)" xlink:href="#U"/><use transform="matrix(0.0864197530864197,0,0,0.0864197530864197,70.86419753086416,0)" xlink:href="#C"/></g><path fill="#333" d="M137 0h-34L2-248h35l83 218 83-218h36" id="W"/><path fill="#333" d="M179-190L93 31C79 59 56 82 12 73V49c39 6 53-20 64-50L1-190h34L92-34l54-156h33" id="X"/><g id="j"><use transform="matrix(0.0864197530864197,0,0,0.0864197530864197,0,0)" xlink:href="#W"/><use transform="matrix(0.0864197530864197,0,0,0.0864197530864197,20.135802469135793,0)" xlink:href="#T"/><use transform="matrix(0.0864197530864197,0,0,0.0864197530864197,26.962962962962955,0)" xlink:href="#E"/><use transform="matrix(0.0864197530864197,0,0,0.0864197530864197,42.5185185185185,0)" xlink:href="#T"/><use transform="matrix(0.0864197530864197,0,0,0.0864197530864197,49.345679012345656,0)" xlink:href="#D"/><use transform="matrix(0.0864197530864197,0,0,0.0864197530864197,66.62962962962959,0)" xlink:href="#T"/><use transform="matrix(0.0864197530864197,0,0,0.0864197530864197,73.45679012345674,0)" xlink:href="#N"/><use transform="matrix(0.0864197530864197,0,0,0.0864197530864197,80.28395061728389,0)" xlink:href="#T"/><use transform="matrix(0.0864197530864197,0,0,0.0864197530864197,87.11111111111104,0)" xlink:href="#C"/><use transform="matrix(0.0864197530864197,0,0,0.0864197530864197,95.75308641975302,0)" xlink:href="#X"/></g><path fill="#333" d="M125-24c46 0 70-25 89-51l25 16C214-24 183 4 123 4 8 4-5-146 60-208c32-50 158-61 191-5 5 7 9 14 11 22l-32 10c-9-28-33-43-69-43-74 0-108 51-108 125 0 46 24 75 72 75" id="Y"/><path fill="#333" d="M165-48c-4 18 1 34 23 27l-3 20c-29 8-62 0-52-35h-2C116-14 99 4 63 4 30 4 8-16 8-49c0-68 71-67 138-67 10-26 0-56-31-54-26 1-42 9-47 31l-32-5c8-67 160-71 144 15-5 28-9 54-15 81zM42-50c3 52 80 24 89-6 7-12 7-24 11-38-47 1-103-4-100 44" id="Z"/><path fill="#333" d="M55-144c13 50 104 24 104 88C159 21 15 23 1-39l26-10c6 40 102 42 102-4-13-50-104-23-104-87 0-71 143-71 148-8l-29 4c-5-35-85-37-89 0" id="aa"/><path fill="#333" d="M67-158c22-48 132-52 116 29L158 0h-32l25-140c3-38-53-32-70-12C52-117 51-52 38 0H6l36-190h30" id="ab"/><path fill="#333" d="M133-28C103 26-5 8 13-77c13-62 24-115 90-117 29-1 46 15 56 35l19-102h32L160 0h-30zM45-64c-2 27 10 43 35 43 54-1 69-50 69-103 0-29-15-46-42-46-53-1-58 58-62 106" id="ac"/><path fill="#333" d="M66-151c12-25 30-51 66-40l-6 26C45-176 58-65 38 0H6l36-190h30" id="ad"/><path fill="#333" d="M58-38C53-5 46 26 28 46H7C19 32 27 18 32 0H17l7-38h34" id="ae"/><g id="k"><use transform="matrix(0.08641975308641973,0,0,0.08641975308641973,0,0)" xlink:href="#Y"/><use transform="matrix(0.08641975308641973,0,0,0.08641975308641973,22.38271604938271,0)" xlink:href="#Z"/><use transform="matrix(0.08641975308641973,0,0,0.08641975308641973,39.66666666666666,0)" xlink:href="#aa"/><use transform="matrix(0.08641975308641973,0,0,0.08641975308641973,55.22222222222221,0)" xlink:href="#aa"/><use transform="matrix(0.08641975308641973,0,0,0.08641975308641973,70.77777777777776,0)" xlink:href="#Z"/><use transform="matrix(0.08641975308641973,0,0,0.08641975308641973,88.0617283950617,0)" xlink:href="#ab"/><use transform="matrix(0.08641975308641973,0,0,0.08641975308641973,105.34567901234566,0)" xlink:href="#ac"/><use transform="matrix(0.08641975308641973,0,0,0.08641975308641973,122.6296296296296,0)" xlink:href="#ad"/><use transform="matrix(0.08641975308641973,0,0,0.08641975308641973,132.91358024691357,0)" xlink:href="#Z"/><use transform="matrix(0.08641975308641973,0,0,0.08641975308641973,150.19753086419752,0)" xlink:href="#ae"/></g><path fill="#333" d="M222 0l43-216c-8 16-17 34-26 49L143 0h-22L81-216 41 0H11l48-248h42l38 208 116-208h45L252 0h-30" id="af"/><path fill="#333" d="M198-190L69 30C53 58 25 83-20 72c4-11-1-27 19-22 33-1 43-29 59-52L20-190h32L79-34l84-156h35" id="ag"/><path fill="#333" d="M194-120c59 52 2 134-86 124-53-6-90-18-98-63l31-7c8 30 29 43 70 43 46 0 84-17 71-62-32-43-135-20-137-98-3-89 178-90 191-16l-30 9c-8-48-127-53-127 5 0 53 81 35 115 65" id="ah"/><path fill="#333" d="M24-61C-1-165 59-251 163-251c67 1 105 36 105 101 0 88-46 140-124 152 2 33 24 47 60 39l-3 23c-50 15-89-11-89-61-46-3-79-26-88-64zm210-73c6-55-18-91-72-90-77 1-111 51-111 125 0 49 24 75 73 75 72 0 103-45 110-110" id="ai"/><path fill="#333" d="M11 0l48-248h34L50-27h125l-5 27H11" id="aj"/><g id="l"><use transform="matrix(0.08641975308641973,0,0,0.08641975308641973,0,0)" xlink:href="#af"/><use transform="matrix(0.08641975308641973,0,0,0.08641975308641973,25.8395061728395,0)" xlink:href="#ag"/><use transform="matrix(0.08641975308641973,0,0,0.08641975308641973,41.39506172839505,0)" xlink:href="#ah"/><use transform="matrix(0.08641975308641973,0,0,0.08641975308641973,62.13580246913578,0)" xlink:href="#ai"/><use transform="matrix(0.08641975308641973,0,0,0.08641975308641973,86.33333333333331,0)" xlink:href="#aj"/><use transform="matrix(0.08641975308641973,0,0,0.08641975308641973,103.61728395061726,0)" xlink:href="#ae"/></g><g id="m"><use transform="matrix(0.08641975308641973,0,0,0.08641975308641973,0,0)" xlink:href="#Z"/><use transform="matrix(0.08641975308641973,0,0,0.08641975308641973,17.283950617283946,0)" xlink:href="#ab"/><use transform="matrix(0.08641975308641973,0,0,0.08641975308641973,34.56790123456789,0)" xlink:href="#ac"/></g><path fill="#333" d="M238-179c0 84-86 86-175 82L45 0H11l48-248c82 0 179-12 179 69zm-34 1c0-53-64-42-116-43l-19 98c63 0 135 9 135-55" id="ak"/><path fill="#333" d="M30-147c31-64 166-65 159 27C183-49 158 1 86 4 9 8 1-88 30-147zM88-20c53 0 68-48 68-100 0-31-11-51-44-50-52 1-68 46-68 97 0 32 13 53 44 53" id="al"/><path fill="#333" d="M51-54c-9 22 5 41 31 30L79-1C43 14 10-4 19-52l22-115H19l5-23h22l19-43h21l-9 43h35l-4 23H73" id="am"/><path fill="#333" d="M103-194c29 0 47 14 56 36 2-11 5-23 8-32h30L160-5C157 61 82 97 21 62 9 55 4 45 1 30l28-7c7 42 83 31 92-3 4-16 9-38 13-55-13 20-29 36-62 36-40 0-60-25-60-64 0-71 23-131 91-131zm4 24c-53 0-58 54-61 104-2 27 10 44 36 44 49 0 65-50 67-102 1-29-15-46-42-46" id="an"/><path fill="#333" d="M111-194c62-3 86 47 72 106H45c-7 38 6 69 45 68 27-1 43-14 53-32l24 11C152-15 129 4 87 4 38 3 12-23 12-71c0-70 32-119 99-123zm44 81c14-66-71-72-95-28-4 8-8 17-11 28h106" id="ao"/><g id="n"><use transform="matrix(0.08641975308641973,0,0,0.08641975308641973,0,0)" xlink:href="#ak"/><use transform="matrix(0.08641975308641973,0,0,0.08641975308641973,20.740740740740737,0)" xlink:href="#al"/><use transform="matrix(0.08641975308641973,0,0,0.08641975308641973,38.02469135802468,0)" xlink:href="#aa"/><use transform="matrix(0.08641975308641973,0,0,0.08641975308641973,53.58024691358023,0)" xlink:href="#am"/><use transform="matrix(0.08641975308641973,0,0,0.08641975308641973,62.22222222222221,0)" xlink:href="#an"/><use transform="matrix(0.08641975308641973,0,0,0.08641975308641973,79.50617283950615,0)" xlink:href="#ad"/><use transform="matrix(0.08641975308641973,0,0,0.08641975308641973,89.7901234567901,0)" xlink:href="#ao"/><use transform="matrix(0.08641975308641973,0,0,0.08641975308641973,107.07407407407405,0)" xlink:href="#ah"/><use transform="matrix(0.08641975308641973,0,0,0.08641975308641973,127.81481481481478,0)" xlink:href="#ai"/><use transform="matrix(0.08641975308641973,0,0,0.08641975308641973,152.0123456790123,0)" xlink:href="#aj"/></g><g id="o"><use transform="matrix(0.08641975308641973,0,0,0.08641975308641973,0,0)" xlink:href="#Z"/><use transform="matrix(0.08641975308641973,0,0,0.08641975308641973,17.283950617283946,0)" xlink:href="#ad"/><use transform="matrix(0.08641975308641973,0,0,0.08641975308641973,27.567901234567895,0)" xlink:href="#ao"/></g><path fill="#333" d="M67 3c-93-2-31-127-26-193h32L48-50c-3 39 53 32 70 12 30-34 30-101 43-152h32L157 0h-30c1-10 6-24 4-33-14 20-29 37-64 36" id="ap"/><path fill="#333" d="M67-162c32-53 139-36 121 50C175-51 163 2 97 4 68 4 52-11 42-31 38 6 28 39 22 75H-9l50-265h29c-1 10 0 20-3 28zm89 36c0-26-10-43-35-43-54 0-67 50-69 103-1 29 14 45 42 46 53 0 62-58 62-106" id="aq"/><path fill="#333" d="M14 0l8-38h34L48 0H14" id="ar"/><g id="p"><use transform="matrix(0.08641975308641973,0,0,0.08641975308641973,0,0)" xlink:href="#aa"/><use transform="matrix(0.08641975308641973,0,0,0.08641975308641973,15.555555555555552,0)" xlink:href="#ap"/><use transform="matrix(0.08641975308641973,0,0,0.08641975308641973,32.8395061728395,0)" xlink:href="#aq"/><use transform="matrix(0.08641975308641973,0,0,0.08641975308641973,50.12345679012345,0)" xlink:href="#aq"/><use transform="matrix(0.08641975308641973,0,0,0.08641975308641973,67.40740740740739,0)" xlink:href="#al"/><use transform="matrix(0.08641975308641973,0,0,0.08641975308641973,84.69135802469134,0)" xlink:href="#ad"/><use transform="matrix(0.08641975308641973,0,0,0.08641975308641973,94.97530864197529,0)" xlink:href="#am"/><use transform="matrix(0.08641975308641973,0,0,0.08641975308641973,103.61728395061726,0)" xlink:href="#ao"/><use transform="matrix(0.08641975308641973,0,0,0.08641975308641973,120.90123456790121,0)" xlink:href="#ac"/><use transform="matrix(0.08641975308641973,0,0,0.08641975308641973,138.18518518518516,0)" xlink:href="#ar"/></g></defs></g></svg>