<svg xmlns="http://www.w3.org/2000/svg" xmlns:xlink="http://www.w3.org/1999/xlink" xmlns:lucid="lucid" width="1220" height="1098"><g transform="translate(-1800 -100)" lucid:page-tab-id="0_0"><path d="M1820 135c0-8.28 6.72-15 15-15h930c8.28 0 15 6.72 15 15v1028c0 8.28-6.72 15-15 15h-930c-8.28 0-15-6.72-15-15z" stroke="#333" stroke-width="3" fill="#127ae5"/><use xlink:href="#a" transform="matrix(1,0,0,1,1845,145) translate(341.1851851851853 998.9684792888888)"/><use xlink:href="#b" transform="matrix(1,0,0,1,1845,145) translate(477.3827160493827 998.9684792888888)"/><path d="M2200 173c0-8.28 6.72-15 15-15h170c8.28 0 15 6.72 15 15v170c0 8.28-6.72 15-15 15h-170c-8.28 0-15-6.72-15-15z" stroke="#333" stroke-width="3" fill="#fff"/><use xlink:href="#c" transform="matrix(1,0,0,1,2205,162.99999999999955) translate(32.86419753086422 84.26388888888889)"/><use xlink:href="#d" transform="matrix(1,0,0,1,2205,162.99999999999955) translate(43.2345679012346 121.5972222222222)"/><path d="M2540 473c0-8.28 6.72-15 15-15h170c8.28 0 15 6.72 15 15v170c0 8.28-6.72 15-15 15h-170c-8.28 0-15-6.72-15-15z" stroke="#333" stroke-width="3" fill="#fff"/><use xlink:href="#e" transform="matrix(1,0,0,1,2545,462.99999999999955) translate(2.6604938271605363 102.07638888888889)"/><path d="M1940 773c0-8.28 6.72-15 15-15h690c8.28 0 15 6.72 15 15v290c0 8.28-6.72 15-15 15h-690c-8.28 0-15-6.72-15-15z" stroke="#333" stroke-width="3" fill="#fff"/><use xlink:href="#f" transform="matrix(1,0,0,1,1959,776.9999999999995) translate(274.5 275.47093048888894)"/><path d="M2240 513c0-8.28 6.72-15 15-15h170c8.28 0 15 6.72 15 15v170c0 8.28-6.72 15-15 15h-170c-8.28 0-15-6.72-15-15z" stroke="#333" stroke-width="3" fill="#e5e5e5"/><use xlink:href="#g" transform="matrix(1,0,0,1,2245,502.99999999999955) translate(46.7345679012346 84.26388888888889)"/><use xlink:href="#d" transform="matrix(1,0,0,1,2245,502.99999999999955) translate(43.2345679012346 121.5972222222222)"/><path d="M2220 493c0-8.28 6.72-15 15-15h170c8.28 0 15 6.72 15 15v170c0 8.28-6.72 15-15 15h-170c-8.28 0-15-6.72-15-15z" stroke="#333" stroke-width="3" fill="#e5e5e5"/><use xlink:href="#g" transform="matrix(1,0,0,1,2225,482.99999999999955) translate(46.7345679012346 84.26388888888889)"/><use xlink:href="#d" transform="matrix(1,0,0,1,2225,482.99999999999955) translate(43.2345679012346 121.5972222222222)"/><path d="M2200 473c0-8.28 6.72-15 15-15h170c8.28 0 15 6.72 15 15v170c0 8.28-6.72 15-15 15h-170c-8.28 0-15-6.72-15-15z" stroke="#333" stroke-width="3" fill="#fff"/><use xlink:href="#g" transform="matrix(1,0,0,1,2205,462.99999999999955) translate(46.7345679012346 84.26388888888889)"/><use xlink:href="#d" transform="matrix(1,0,0,1,2205,462.99999999999955) translate(43.2345679012346 121.5972222222222)"/><path d="M1980 813c0-8.28 6.72-15 15-15h170c8.28 0 15 6.72 15 15v170c0 8.28-6.72 15-15 15h-170c-8.28 0-15-6.72-15-15z" stroke="#333" stroke-width="3" fill="#fff"/><use xlink:href="#h" transform="matrix(1,0,0,1,1985,802.9999999999995) translate(31.524691358024725 66.45138888888889)"/><use xlink:href="#i" transform="matrix(1,0,0,1,1985,802.9999999999995) translate(26.771604938271636 103.7847222222222)"/><use xlink:href="#j" transform="matrix(1,0,0,1,1985,802.9999999999995) translate(43.19135802469138 141.11805555555551)"/><path d="M2200 813c0-8.28 6.72-15 15-15h170c8.28 0 15 6.72 15 15v170c0 8.28-6.72 15-15 15h-170c-8.28 0-15-6.72-15-15z" stroke="#333" stroke-width="3" fill="#fff"/><use xlink:href="#k" transform="matrix(1,0,0,1,2205,802.9999999999995) translate(55.24691358024693 84.26388888888889)"/><use xlink:href="#l" transform="matrix(1,0,0,1,2205,802.9999999999995) translate(43.19135802469138 121.5972222222222)"/><path d="M2420 813c0-8.28 6.72-15 15-15h170c8.28 0 15 6.72 15 15v170c0 8.28-6.72 15-15 15h-170c-8.28 0-15-6.72-15-15z" stroke="#333" stroke-width="3" fill="#fff"/><use xlink:href="#g" transform="matrix(1,0,0,1,2425,802.9999999999995) translate(46.7345679012346 84.26388888888889)"/><use xlink:href="#l" transform="matrix(1,0,0,1,2425,802.9999999999995) translate(43.19135802469138 121.5972222222222)"/><path d="M2300 360.5v95" stroke="#333" stroke-width="2" fill="none"/><path d="M2301 360.53h-2v-1.03h2zM2301 456.5h-2v-1.03h2z" fill="#333"/><path d="M2402.5 558h135" stroke="#333" stroke-width="2" fill="none"/><path d="M2402.53 559h-1.03v-2h1.03zM2538.5 559h-1.03v-2h1.03z" fill="#333"/><path d="M2299.25 660.16l-152.83 135.68" stroke="#333" stroke-width="2" fill="none"/><path d="M2299.9 660.93l-1.27-1.43h2.88zM2147.05 796.5h-2.88l1.6-1.43z" fill="#333"/><path d="M2300 660.5v135" stroke="#333" stroke-width="2" fill="none"/><path d="M2301 660.53h-2v-1.03h2zM2301 796.5h-2v-1.03h2z" fill="#333"/><path d="M2300.75 660.16l152.83 135.68" stroke="#333" stroke-width="2" fill="none"/><path d="M2300.1 660.93l-1.6-1.43h2.87zM2455.83 796.5h-2.88l1.27-1.43z" fill="#333"/><path d="M1860 473c0-8.28 6.72-15 15-15h170c8.28 0 15 6.72 15 15v170c0 8.28-6.72 15-15 15h-170c-8.28 0-15-6.72-15-15z" stroke="#333" stroke-width="3" fill="#fff"/><use xlink:href="#m" transform="matrix(1,0,0,1,1865,462.99999999999955) translate(32.00000000000004 84.26388888888889)"/><use xlink:href="#n" transform="matrix(1,0,0,1,1865,462.99999999999955) translate(43.2345679012346 121.5972222222222)"/><path d="M2197.5 558h-135" stroke="#333" stroke-width="2" fill="none"/><path d="M2198.5 559h-1.03v-2h1.03zM2062.53 559h-1.03v-2h1.03z" fill="#333"/><path d="M2840 534c0-3.3 2.7-6 6-6h148c3.3 0 6 2.7 6 6v48c0 3.3-2.7 6-6 6h-148c-3.3 0-6-2.7-6-6z" stroke="#000" stroke-opacity="0" stroke-width="3" fill="#fff" fill-opacity="0"/><g><use xlink:href="#o" transform="matrix(1,0,0,1,2845,532.9999999999995) translate(17.185185185185198 31.138888888888886)"/></g><path d="M2839 558h-96.5" stroke="#333" stroke-width="2" fill="none"/><path d="M2840 559h-1.03v-2h1.03zM2742.53 559h-1.03v-2h1.03z" fill="#333"/><defs><path fill="#fff" d="M127-220V0H93v-220H8v-28h204v28h-85" id="p"/><path fill="#fff" d="M100-194c63 0 86 42 84 106H49c0 40 14 67 53 68 26 1 43-12 49-29l28 8c-11 28-37 45-77 45C44 4 14-33 15-96c1-61 26-98 85-98zm52 81c6-60-76-77-97-28-3 7-6 17-6 28h103" id="q"/><path fill="#fff" d="M210-169c-67 3-38 105-44 169h-31v-121c0-29-5-50-35-48C34-165 62-65 56 0H25l-1-190h30c1 10-1 24 2 32 10-44 99-50 107 0 11-21 27-35 58-36 85-2 47 119 55 194h-31v-121c0-29-5-49-35-48" id="r"/><path fill="#fff" d="M115-194c55 1 70 41 70 98S169 2 115 4C84 4 66-9 55-30l1 105H24l-1-265h31l2 30c10-21 28-34 59-34zm-8 174c40 0 45-34 45-75s-6-73-45-74c-42 0-51 32-51 76 0 43 10 73 51 73" id="s"/><path fill="#fff" d="M100-194c62-1 85 37 85 99 1 63-27 99-86 99S16-35 15-95c0-66 28-99 85-99zM99-20c44 1 53-31 53-75 0-43-8-75-51-75s-53 32-53 75 10 74 51 75" id="t"/><path fill="#fff" d="M114-163C36-179 61-72 57 0H25l-1-190h30c1 12-1 29 2 39 6-27 23-49 58-41v29" id="u"/><path fill="#fff" d="M141-36C126-15 110 5 73 4 37 3 15-17 15-53c-1-64 63-63 125-63 3-35-9-54-41-54-24 1-41 7-42 31l-33-3c5-37 33-52 76-52 45 0 72 20 72 64v82c-1 20 7 32 28 27v20c-31 9-61-2-59-35zM48-53c0 20 12 33 32 33 41-3 63-29 60-74-43 2-92-5-92 41" id="v"/><path fill="#fff" d="M24 0v-261h32V0H24" id="w"/><g id="a"><use transform="matrix(0.08641975308641969,0,0,0.08641975308641969,0,0)" xlink:href="#p"/><use transform="matrix(0.08641975308641969,0,0,0.08641975308641969,15.469135802469125,0)" xlink:href="#q"/><use transform="matrix(0.08641975308641969,0,0,0.08641975308641969,32.75308641975306,0)" xlink:href="#r"/><use transform="matrix(0.08641975308641969,0,0,0.08641975308641969,58.59259259259255,0)" xlink:href="#s"/><use transform="matrix(0.08641975308641969,0,0,0.08641975308641969,75.87654320987649,0)" xlink:href="#t"/><use transform="matrix(0.08641975308641969,0,0,0.08641975308641969,93.16049382716042,0)" xlink:href="#u"/><use transform="matrix(0.08641975308641969,0,0,0.08641975308641969,103.44444444444437,0)" xlink:href="#v"/><use transform="matrix(0.08641975308641969,0,0,0.08641975308641969,120.7283950617283,0)" xlink:href="#w"/></g><path fill="#fff" d="M185-189c-5-48-123-54-124 2 14 75 158 14 163 119 3 78-121 87-175 55-17-10-28-26-33-46l33-7c5 56 141 63 141-1 0-78-155-14-162-118-5-82 145-84 179-34 5 7 8 16 11 25" id="x"/><path fill="#fff" d="M108 0H70L1-190h34L89-25l56-165h34" id="y"/><g id="b"><use transform="matrix(0.08641975308641969,0,0,0.08641975308641969,0,0)" xlink:href="#x"/><use transform="matrix(0.08641975308641969,0,0,0.08641975308641969,20.740740740740726,0)" xlink:href="#q"/><use transform="matrix(0.08641975308641969,0,0,0.08641975308641969,38.02469135802467,0)" xlink:href="#u"/><use transform="matrix(0.08641975308641969,0,0,0.08641975308641969,48.30864197530861,0)" xlink:href="#y"/><use transform="matrix(0.08641975308641969,0,0,0.08641975308641969,63.86419753086415,0)" xlink:href="#q"/><use transform="matrix(0.08641975308641969,0,0,0.08641975308641969,81.1481481481481,0)" xlink:href="#u"/></g><path fill="#333" d="M63-220v92h138v28H63V0H30v-248h175v28H63" id="z"/><path fill="#333" d="M114-163C36-179 61-72 57 0H25l-1-190h30c1 12-1 29 2 39 6-27 23-49 58-41v29" id="A"/><path fill="#333" d="M100-194c62-1 85 37 85 99 1 63-27 99-86 99S16-35 15-95c0-66 28-99 85-99zM99-20c44 1 53-31 53-75 0-43-8-75-51-75s-53 32-53 75 10 74 51 75" id="B"/><path fill="#333" d="M117-194c89-4 53 116 60 194h-32v-121c0-31-8-49-39-48C34-167 62-67 57 0H25l-1-190h30c1 10-1 24 2 32 11-22 29-35 61-36" id="C"/><path fill="#333" d="M59-47c-2 24 18 29 38 22v24C64 9 27 4 27-40v-127H5v-23h24l9-43h21v43h35v23H59v120" id="D"/><path fill="#333" d="M100-194c63 0 86 42 84 106H49c0 40 14 67 53 68 26 1 43-12 49-29l28 8c-11 28-37 45-77 45C44 4 14-33 15-96c1-61 26-98 85-98zm52 81c6-60-76-77-97-28-3 7-6 17-6 28h103" id="E"/><path fill="#333" d="M85-194c31 0 48 13 60 33l-1-100h32l1 261h-30c-2-10 0-23-3-31C134-8 116 4 85 4 32 4 16-35 15-94c0-66 23-100 70-100zm9 24c-40 0-46 34-46 75 0 40 6 74 45 74 42 0 51-32 51-76 0-42-9-74-50-73" id="F"/><g id="c"><use transform="matrix(0.0864197530864197,0,0,0.0864197530864197,0,0)" xlink:href="#z"/><use transform="matrix(0.0864197530864197,0,0,0.0864197530864197,18.925925925925917,0)" xlink:href="#A"/><use transform="matrix(0.0864197530864197,0,0,0.0864197530864197,29.209876543209862,0)" xlink:href="#B"/><use transform="matrix(0.0864197530864197,0,0,0.0864197530864197,46.493827160493815,0)" xlink:href="#C"/><use transform="matrix(0.0864197530864197,0,0,0.0864197530864197,63.77777777777775,0)" xlink:href="#D"/><use transform="matrix(0.0864197530864197,0,0,0.0864197530864197,72.41975308641972,0)" xlink:href="#E"/><use transform="matrix(0.0864197530864197,0,0,0.0864197530864197,89.70370370370368,0)" xlink:href="#C"/><use transform="matrix(0.0864197530864197,0,0,0.0864197530864197,106.98765432098762,0)" xlink:href="#F"/></g><path fill="#333" d="M185-189c-5-48-123-54-124 2 14 75 158 14 163 119 3 78-121 87-175 55-17-10-28-26-33-46l33-7c5 56 141 63 141-1 0-78-155-14-162-118-5-82 145-84 179-34 5 7 8 16 11 25" id="G"/><path fill="#333" d="M108 0H70L1-190h34L89-25l56-165h34" id="H"/><path fill="#333" d="M24-231v-30h32v30H24zM24 0v-190h32V0H24" id="I"/><path fill="#333" d="M96-169c-40 0-48 33-48 73s9 75 48 75c24 0 41-14 43-38l32 2c-6 37-31 61-74 61-59 0-76-41-82-99-10-93 101-131 147-64 4 7 5 14 7 22l-32 3c-4-21-16-35-41-35" id="J"/><g id="d"><use transform="matrix(0.0864197530864197,0,0,0.0864197530864197,0,0)" xlink:href="#G"/><use transform="matrix(0.0864197530864197,0,0,0.0864197530864197,20.74074074074073,0)" xlink:href="#E"/><use transform="matrix(0.0864197530864197,0,0,0.0864197530864197,38.02469135802467,0)" xlink:href="#A"/><use transform="matrix(0.0864197530864197,0,0,0.0864197530864197,48.30864197530862,0)" xlink:href="#H"/><use transform="matrix(0.0864197530864197,0,0,0.0864197530864197,63.86419753086416,0)" xlink:href="#I"/><use transform="matrix(0.0864197530864197,0,0,0.0864197530864197,70.69135802469131,0)" xlink:href="#J"/><use transform="matrix(0.0864197530864197,0,0,0.0864197530864197,86.24691358024685,0)" xlink:href="#E"/></g><path fill="#333" d="M30 0v-248h187v28H63v79h144v27H63v87h162V0H30" id="K"/><path fill="#333" d="M24 0v-261h32V0H24" id="L"/><path fill="#333" d="M141-36C126-15 110 5 73 4 37 3 15-17 15-53c-1-64 63-63 125-63 3-35-9-54-41-54-24 1-41 7-42 31l-33-3c5-37 33-52 76-52 45 0 72 20 72 64v82c-1 20 7 32 28 27v20c-31 9-61-2-59-35zM48-53c0 20 12 33 32 33 41-3 63-29 60-74-43 2-92-5-92 41" id="M"/><path fill="#333" d="M135-143c-3-34-86-38-87 0 15 53 115 12 119 90S17 21 10-45l28-5c4 36 97 45 98 0-10-56-113-15-118-90-4-57 82-63 122-42 12 7 21 19 24 35" id="N"/><path fill="#333" d="M106-169C34-169 62-67 57 0H25v-261h32l-1 103c12-21 28-36 61-36 89 0 53 116 60 194h-32v-121c2-32-8-49-39-48" id="O"/><g id="e"><use transform="matrix(0.0864197530864197,0,0,0.0864197530864197,0,0)" xlink:href="#K"/><use transform="matrix(0.0864197530864197,0,0,0.0864197530864197,20.74074074074073,0)" xlink:href="#L"/><use transform="matrix(0.0864197530864197,0,0,0.0864197530864197,27.567901234567888,0)" xlink:href="#M"/><use transform="matrix(0.0864197530864197,0,0,0.0864197530864197,44.85185185185184,0)" xlink:href="#N"/><use transform="matrix(0.0864197530864197,0,0,0.0864197530864197,60.407407407407376,0)" xlink:href="#D"/><use transform="matrix(0.0864197530864197,0,0,0.0864197530864197,69.04938271604935,0)" xlink:href="#I"/><use transform="matrix(0.0864197530864197,0,0,0.0864197530864197,75.8765432098765,0)" xlink:href="#J"/><use transform="matrix(0.0864197530864197,0,0,0.0864197530864197,91.43209876543204,0)" xlink:href="#N"/><use transform="matrix(0.0864197530864197,0,0,0.0864197530864197,106.9876543209876,0)" xlink:href="#E"/><use transform="matrix(0.0864197530864197,0,0,0.0864197530864197,124.27160493827154,0)" xlink:href="#M"/><use transform="matrix(0.0864197530864197,0,0,0.0864197530864197,141.5555555555555,0)" xlink:href="#A"/><use transform="matrix(0.0864197530864197,0,0,0.0864197530864197,151.83950617283944,0)" xlink:href="#J"/><use transform="matrix(0.0864197530864197,0,0,0.0864197530864197,167.39506172839498,0)" xlink:href="#O"/></g><path fill="#333" d="M30-248c118-7 216 8 213 122C240-48 200 0 122 0H30v-248zM63-27c89 8 146-16 146-99s-60-101-146-95v194" id="P"/><path fill="#333" d="M115-194c53 0 69 39 70 98 0 66-23 100-70 100C84 3 66-7 56-30L54 0H23l1-261h32v101c10-23 28-34 59-34zm-8 174c40 0 45-34 45-75 0-40-5-75-45-74-42 0-51 32-51 76 0 43 10 73 51 73" id="Q"/><g id="f"><use transform="matrix(0.0864197530864197,0,0,0.0864197530864197,0,0)" xlink:href="#P"/><use transform="matrix(0.0864197530864197,0,0,0.0864197530864197,22.382716049382704,0)" xlink:href="#M"/><use transform="matrix(0.0864197530864197,0,0,0.0864197530864197,39.66666666666664,0)" xlink:href="#D"/><use transform="matrix(0.0864197530864197,0,0,0.0864197530864197,48.30864197530862,0)" xlink:href="#M"/><use transform="matrix(0.0864197530864197,0,0,0.0864197530864197,65.59259259259255,0)" xlink:href="#Q"/><use transform="matrix(0.0864197530864197,0,0,0.0864197530864197,82.8765432098765,0)" xlink:href="#M"/><use transform="matrix(0.0864197530864197,0,0,0.0864197530864197,100.16049382716047,0)" xlink:href="#N"/><use transform="matrix(0.0864197530864197,0,0,0.0864197530864197,115.716049382716,0)" xlink:href="#E"/></g><path fill="#333" d="M197 0v-115H63V0H30v-248h33v105h134v-105h34V0h-34" id="R"/><path fill="#333" d="M179-190L93 31C79 59 56 82 12 73V49c39 6 53-20 64-50L1-190h34L92-34l54-156h33" id="S"/><g id="g"><use transform="matrix(0.0864197530864197,0,0,0.0864197530864197,0,0)" xlink:href="#R"/><use transform="matrix(0.0864197530864197,0,0,0.0864197530864197,22.382716049382704,0)" xlink:href="#I"/><use transform="matrix(0.0864197530864197,0,0,0.0864197530864197,29.209876543209862,0)" xlink:href="#N"/><use transform="matrix(0.0864197530864197,0,0,0.0864197530864197,44.76543209876541,0)" xlink:href="#D"/><use transform="matrix(0.0864197530864197,0,0,0.0864197530864197,53.407407407407376,0)" xlink:href="#B"/><use transform="matrix(0.0864197530864197,0,0,0.0864197530864197,70.69135802469131,0)" xlink:href="#A"/><use transform="matrix(0.0864197530864197,0,0,0.0864197530864197,80.97530864197526,0)" xlink:href="#S"/></g><path fill="#333" d="M266 0h-40l-56-210L115 0H75L2-248h35L96-30l15-64 43-154h32l59 218 59-218h35" id="T"/><path fill="#333" d="M143 0L79-87 56-68V0H24v-261h32v163l83-92h37l-77 82L181 0h-38" id="U"/><path fill="#333" d="M101-234c-31-9-42 10-38 44h38v23H63V0H32v-167H5v-23h27c-7-52 17-82 69-68v24" id="V"/><path fill="#333" d="M206 0h-36l-40-164L89 0H53L-1-190h32L70-26l43-164h34l41 164 42-164h31" id="W"/><g id="h"><use transform="matrix(0.0864197530864197,0,0,0.0864197530864197,0,0)" xlink:href="#T"/><use transform="matrix(0.0864197530864197,0,0,0.0864197530864197,28.691358024691343,0)" xlink:href="#B"/><use transform="matrix(0.0864197530864197,0,0,0.0864197530864197,45.975308641975296,0)" xlink:href="#A"/><use transform="matrix(0.0864197530864197,0,0,0.0864197530864197,56.25925925925924,0)" xlink:href="#U"/><use transform="matrix(0.0864197530864197,0,0,0.0864197530864197,71.81481481481478,0)" xlink:href="#V"/><use transform="matrix(0.0864197530864197,0,0,0.0864197530864197,80.45679012345676,0)" xlink:href="#L"/><use transform="matrix(0.0864197530864197,0,0,0.0864197530864197,87.2839506172839,0)" xlink:href="#B"/><use transform="matrix(0.0864197530864197,0,0,0.0864197530864197,104.56790123456784,0)" xlink:href="#W"/></g><path fill="#333" d="M141 0L90-78 38 0H4l68-98-65-92h35l48 74 47-74h35l-64 92 68 98h-35" id="X"/><path fill="#333" d="M84 4C-5 8 30-112 23-190h32v120c0 31 7 50 39 49 72-2 45-101 50-169h31l1 190h-30c-1-10 1-25-2-33-11 22-28 36-60 37" id="Y"/><g id="i"><use transform="matrix(0.0864197530864197,0,0,0.0864197530864197,0,0)" xlink:href="#K"/><use transform="matrix(0.0864197530864197,0,0,0.0864197530864197,20.74074074074073,0)" xlink:href="#X"/><use transform="matrix(0.0864197530864197,0,0,0.0864197530864197,36.296296296296276,0)" xlink:href="#E"/><use transform="matrix(0.0864197530864197,0,0,0.0864197530864197,53.58024691358022,0)" xlink:href="#J"/><use transform="matrix(0.0864197530864197,0,0,0.0864197530864197,69.13580246913577,0)" xlink:href="#Y"/><use transform="matrix(0.0864197530864197,0,0,0.0864197530864197,86.41975308641972,0)" xlink:href="#D"/><use transform="matrix(0.0864197530864197,0,0,0.0864197530864197,95.06172839506169,0)" xlink:href="#I"/><use transform="matrix(0.0864197530864197,0,0,0.0864197530864197,101.88888888888883,0)" xlink:href="#B"/><use transform="matrix(0.0864197530864197,0,0,0.0864197530864197,119.17283950617278,0)" xlink:href="#C"/></g><path fill="#333" d="M177-190C167-65 218 103 67 71c-23-6-38-20-44-43l32-5c15 47 100 32 89-28v-30C133-14 115 1 83 1 29 1 15-40 15-95c0-56 16-97 71-98 29-1 48 16 59 35 1-10 0-23 2-32h30zM94-22c36 0 50-32 50-73 0-42-14-75-50-75-39 0-46 34-46 75s6 73 46 73" id="Z"/><g id="j"><use transform="matrix(0.0864197530864197,0,0,0.0864197530864197,0,0)" xlink:href="#N"/><use transform="matrix(0.0864197530864197,0,0,0.0864197530864197,15.555555555555546,0)" xlink:href="#D"/><use transform="matrix(0.0864197530864197,0,0,0.0864197530864197,24.197530864197518,0)" xlink:href="#B"/><use transform="matrix(0.0864197530864197,0,0,0.0864197530864197,41.48148148148146,0)" xlink:href="#A"/><use transform="matrix(0.0864197530864197,0,0,0.0864197530864197,51.7654320987654,0)" xlink:href="#M"/><use transform="matrix(0.0864197530864197,0,0,0.0864197530864197,69.04938271604934,0)" xlink:href="#Z"/><use transform="matrix(0.0864197530864197,0,0,0.0864197530864197,86.33333333333329,0)" xlink:href="#E"/></g><g id="k"><use transform="matrix(0.0864197530864197,0,0,0.0864197530864197,0,0)" xlink:href="#K"/><use transform="matrix(0.0864197530864197,0,0,0.0864197530864197,20.74074074074073,0)" xlink:href="#H"/><use transform="matrix(0.0864197530864197,0,0,0.0864197530864197,36.296296296296276,0)" xlink:href="#E"/><use transform="matrix(0.0864197530864197,0,0,0.0864197530864197,53.58024691358022,0)" xlink:href="#C"/><use transform="matrix(0.0864197530864197,0,0,0.0864197530864197,70.86419753086416,0)" xlink:href="#D"/></g><g id="l"><use transform="matrix(0.0864197530864197,0,0,0.0864197530864197,0,0)" xlink:href="#N"/><use transform="matrix(0.0864197530864197,0,0,0.0864197530864197,15.555555555555546,0)" xlink:href="#D"/><use transform="matrix(0.0864197530864197,0,0,0.0864197530864197,24.197530864197518,0)" xlink:href="#B"/><use transform="matrix(0.0864197530864197,0,0,0.0864197530864197,41.48148148148146,0)" xlink:href="#A"/><use transform="matrix(0.0864197530864197,0,0,0.0864197530864197,51.7654320987654,0)" xlink:href="#M"/><use transform="matrix(0.0864197530864197,0,0,0.0864197530864197,69.04938271604934,0)" xlink:href="#Z"/><use transform="matrix(0.0864197530864197,0,0,0.0864197530864197,86.33333333333329,0)" xlink:href="#E"/></g><path fill="#333" d="M240 0l2-218c-23 76-54 145-80 218h-23L58-218 59 0H30v-248h44l77 211c21-75 51-140 76-211h43V0h-30" id="aa"/><g id="m"><use transform="matrix(0.0864197530864197,0,0,0.0864197530864197,0,0)" xlink:href="#aa"/><use transform="matrix(0.0864197530864197,0,0,0.0864197530864197,25.839506172839492,0)" xlink:href="#M"/><use transform="matrix(0.0864197530864197,0,0,0.0864197530864197,43.123456790123434,0)" xlink:href="#D"/><use transform="matrix(0.0864197530864197,0,0,0.0864197530864197,51.7654320987654,0)" xlink:href="#J"/><use transform="matrix(0.0864197530864197,0,0,0.0864197530864197,67.32098765432094,0)" xlink:href="#O"/><use transform="matrix(0.0864197530864197,0,0,0.0864197530864197,84.60493827160488,0)" xlink:href="#I"/><use transform="matrix(0.0864197530864197,0,0,0.0864197530864197,91.43209876543203,0)" xlink:href="#C"/><use transform="matrix(0.0864197530864197,0,0,0.0864197530864197,108.71604938271597,0)" xlink:href="#Z"/></g><g id="n"><use transform="matrix(0.0864197530864197,0,0,0.0864197530864197,0,0)" xlink:href="#G"/><use transform="matrix(0.0864197530864197,0,0,0.0864197530864197,20.74074074074073,0)" xlink:href="#E"/><use transform="matrix(0.0864197530864197,0,0,0.0864197530864197,38.02469135802467,0)" xlink:href="#A"/><use transform="matrix(0.0864197530864197,0,0,0.0864197530864197,48.30864197530862,0)" xlink:href="#H"/><use transform="matrix(0.0864197530864197,0,0,0.0864197530864197,63.86419753086416,0)" xlink:href="#I"/><use transform="matrix(0.0864197530864197,0,0,0.0864197530864197,70.69135802469131,0)" xlink:href="#J"/><use transform="matrix(0.0864197530864197,0,0,0.0864197530864197,86.24691358024685,0)" xlink:href="#E"/></g><path fill="#333" d="M20-101c0-91 52-143 145-150 126-9 127 168 53 223-23 17-55 32-93 32C57 4 20-33 20-101zm216-33c5-57-18-91-73-90-77 1-110 51-110 125 0 49 23 75 73 75 72-1 104-45 110-110" id="ab"/><path fill="#333" d="M67-162c32-53 139-36 121 50C175-51 163 2 97 4 68 4 52-11 42-31 38 6 28 39 22 75H-9l50-265h29c-1 10 0 20-3 28zm89 36c0-26-10-43-35-43-54 0-67 50-69 103-1 29 14 45 42 46 53 0 62-58 62-106" id="ac"/><path fill="#333" d="M51-54c-9 22 5 41 31 30L79-1C43 14 10-4 19-52l22-115H19l5-23h22l19-43h21l-9 43h35l-4 23H73" id="ad"/><path fill="#333" d="M50-231l6-30h32l-6 30H50zM6 0l37-190h31L37 0H6" id="ae"/><path fill="#333" d="M30-147c31-64 166-65 159 27C183-49 158 1 86 4 9 8 1-88 30-147zM88-20c53 0 68-48 68-100 0-31-11-51-44-50-52 1-68 46-68 97 0 32 13 53 44 53" id="af"/><path fill="#333" d="M67-158c22-48 132-52 116 29L158 0h-32l25-140c3-38-53-32-70-12C52-117 51-52 38 0H6l36-190h30" id="ag"/><path fill="#333" d="M165-48c-4 18 1 34 23 27l-3 20c-29 8-62 0-52-35h-2C116-14 99 4 63 4 30 4 8-16 8-49c0-68 71-67 138-67 10-26 0-56-31-54-26 1-42 9-47 31l-32-5c8-67 160-71 144 15-5 28-9 54-15 81zM42-50c3 52 80 24 89-6 7-12 7-24 11-38-47 1-103-4-100 44" id="ah"/><path fill="#333" d="M6 0l50-261h32L37 0H6" id="ai"/><g id="o"><use transform="matrix(0.08641975308641973,0,0,0.08641975308641973,0,0)" xlink:href="#ab"/><use transform="matrix(0.08641975308641973,0,0,0.08641975308641973,24.197530864197525,0)" xlink:href="#ac"/><use transform="matrix(0.08641975308641973,0,0,0.08641975308641973,41.48148148148147,0)" xlink:href="#ad"/><use transform="matrix(0.08641975308641973,0,0,0.08641975308641973,50.12345679012345,0)" xlink:href="#ae"/><use transform="matrix(0.08641975308641973,0,0,0.08641975308641973,56.95061728395059,0)" xlink:href="#af"/><use transform="matrix(0.08641975308641973,0,0,0.08641975308641973,74.23456790123454,0)" xlink:href="#ag"/><use transform="matrix(0.08641975308641973,0,0,0.08641975308641973,91.5185185185185,0)" xlink:href="#ah"/><use transform="matrix(0.08641975308641973,0,0,0.08641975308641973,108.80246913580244,0)" xlink:href="#ai"/></g></defs></g></svg>