<svg xmlns="http://www.w3.org/2000/svg" xmlns:xlink="http://www.w3.org/1999/xlink" xmlns:lucid="lucid" width="1141.5" height="1040"><g transform="translate(-1578.5 -60)" lucid:page-tab-id="0_0"><path d="M1600 81a1 1 0 0 1 1-1h1098a1 1 0 0 1 1 1v998a1 1 0 0 1-1 1H1601a1 1 0 0 1-1-1z" fill="#fff"/><path d="M1831.9 175a15 15 0 0 1 15-15h683.5a15 15 0 0 1 15 15v813.24a15 15 0 0 1-15 15h-683.5a15 15 0 0 1-15-15z" stroke="#333" fill="#127ae5"/><path d="M1864.32 207.43a15 15 0 0 1 15-15h618.65a15 15 0 0 1 15 15v456.5a15 15 0 0 1-15 15h-618.65a15 15 0 0 1-15-15z" fill="#f2f3f5"/><path d="M1865.5 201.7l.46-1.08 1.23-2 .24-.3m2.77-2.77l.3-.25 2-1.23 1.1-.45m3.77-1.03l1.95-.17h2m4.03 0h4.02m4.02 0h4m4.02 0h4.02m4 0h4.03m4.02 0h4m4.02 0h4.02m4.02 0h4m4.03 0h4m4.03 0h4m4.03 0h4.02m4 0h4.03m4.03 0h4.02m4 0h4.03m4.02 0h4m4.03 0h4.02m4.02 0h4m4.03 0h4.02m4 0h4.03m4.02 0h4.02m4 0h4.02m4.02 0h4m4.03 0h4.02m4 0h4.02m4.02 0h4.02m4.02 0h4m4.03 0h4.03m4 0h4.03m4.02 0h4.02m4 0h4.03m4.02 0h4m4.03 0h4.02m4.02 0h4m4.03 0h4.02m4.02 0h4m4.02 0h4.02m4 0h4.03m4.02 0h4m4.02 0h4.02m4.02 0h4m4.03 0h4m4.03 0h4m4.03 0h4.02m4 0h4.03m4.03 0h4.02m4 0h4.03m4.02 0h4m4.03 0h4.02m4.02 0h4m4.03 0h4.02m4.02 0h4m4.03 0h4.02m4 0h4.02m4.02 0h4.02m4 0h4.03m4 0h4.03m4 0h4.03m4.02 0h4m4.03 0h4.03m4 0h4.03m4.02 0h4.02m4 0h4.03m4.02 0h4.02m4 0h4.03m4.02 0h4m4.03 0h4.02m4.02 0h4m4.02 0h4.02m4.02 0h4m4.03 0h4m4.02 0h4.02m4.02 0h4m4.03 0h4m4.03 0h4m4.03 0h4.02m4.02 0h4m4.03 0h4.02m4 0h2.02l1.96.16m3.77 1.02l1.08.45 2 1.23.3.25m2.77 2.77l.26.3 1.24 2 .45 1.1m1.02 3.76l.15 1.95v2m0 4v4m0 4.02v4m0 4v4m0 4v4.02m0 4v4m0 4v4.02m0 4v4m0 4v4m0 4v4m0 4.02v4m0 4v4m0 4v4.02m0 4v4m0 4v4m0 4.02v4m0 4v4m0 4v4.02m0 4v4m0 4v4.02m0 4v4m0 4v4m0 4.02v4m0 4v4m0 4v4.02m0 4v4m0 4v4.02m0 4v4m0 4v4m0 4.02v4m0 4v4m0 4v4.02m0 4v4m0 4v4.02m0 4v4m0 4v4m0 4.02v4m0 4v4m0 4v4.02m0 4v4m0 4v4.02m0 4v4m0 4v4m0 4.02v4m0 4v4m0 4v4.02m0 4v4m0 4v4.02m0 4v4m0 4v4m0 4.02v4m0 4v4m0 4v4.02m0 4v4m0 4v4m0 4.02v4m0 4v4m0 4.02v2l-.15 1.95m-1.03 3.77l-.46 1.1-1.23 2-.25.3m-2.76 2.76l-.3.25-2.02 1.23-1.08.45m-3.77 1.03l-1.96.16h-2m-4.02 0h-4.02m-4.02 0h-4m-4.02 0h-4.02m-4.02 0h-4m-4.03 0h-4m-4.03 0h-4m-4.03 0h-4.02m-4 0h-4.03m-4.03 0h-4m-4.03 0h-4.02m-4.02 0h-4m-4.03 0h-4.02m-4.02 0h-4m-4.03 0h-4.02m-4 0h-4.03m-4.02 0h-4.02m-4 0h-4.02m-4.02 0h-4.02m-4 0h-4.03m-4 0h-4.02m-4.02 0h-4.02m-4 0h-4.03m-4 0h-4.03m-4 0h-4.03m-4.02 0h-4.02m-4 0h-4.03m-4.02 0h-4m-4.03 0H2271m-4.02 0h-4m-4.03 0h-4.02m-4 0h-4.03m-4.02 0h-4.02m-4 0h-4.03m-4.02 0h-4m-4.02 0h-4.02m-4.02 0h-4m-4.03 0h-4m-4.03 0h-4m-4.03 0h-4.02m-4 0h-4.03m-4.03 0h-4.02m-4 0h-4.03m-4.02 0h-4m-4.03 0h-4.02m-4.02 0h-4m-4.03 0h-4.02m-4.02 0h-4m-4.03 0h-4.02m-4 0h-4.02m-4.02 0h-4.02m-4 0h-4.03m-4 0h-4.02m-4.02 0h-4.02m-4.02 0h-4m-4.03 0h-4.03m-4.02 0h-4m-4.03 0H2038m-4 0h-4.03m-4.02 0h-4.02m-4 0h-4.03m-4.02 0h-4m-4.03 0h-4.02m-4.02 0h-4m-4.02 0h-4.02m-4 0h-4.03m-4.02 0h-4m-4.02 0h-4.02m-4.02 0h-4.02m-4 0h-4.03m-4.03 0h-4m-4.03 0h-4.02m-4 0h-4.03m-4.03 0h-4.02m-4 0h-4.03m-4.02 0h-4.02m-4 0h-4.03m-4.02 0h-2l-1.96-.15m-3.77-1.04l-1.1-.45-2-1.23-.3-.25m-2.76-2.77l-.25-.3-1.24-2-.45-1.1m-1.02-3.76l-.16-1.95v-2m0-4v-4m0-4.02v-4m0-4v-4m0-4v-4.02m0-4v-4m0-4v-4m0-4.02v-4m0-4v-4m0-4.02v-4m0-4v-4m0-4v-4.02m0-4v-4m0-4v-4m0-4.02v-4m0-4v-4m0-4.02v-4m0-4v-4m0-4v-4.02m0-4v-4m0-4v-4m0-4.02v-4m0-4v-4m0-4v-4.02m0-4v-4m0-4v-4.02m0-4v-4m0-4v-4m0-4.02v-4m0-4v-4m0-4v-4.02m0-4v-4m0-4v-4.02m0-4v-4m0-4v-4m0-4.02v-4m0-4v-4m0-4v-4.02m0-4v-4m0-4v-4.02m0-4v-4m0-4v-4m0-4.02v-4m0-4v-4m0-4v-4.02m0-4v-4m0-4v-4.02m0-4v-4m0-4v-4m0-4.02v-4m0-4v-4m0-4v-4.02m0-4v-4m0-4v-4.02m0-4v-4m0-4v-4m0-4.02v-4m0-4v-2l.16-1.96" stroke="#fff" fill="none"/><path d="M2107.57 239.87a15 15 0 0 1 15-15h132.16a15 15 0 0 1 15 15v132.16a15 15 0 0 1-15 15h-132.16a15 15 0 0 1-15-15z" stroke="#333" fill="#fff"/><use xlink:href="#a" transform="matrix(1,0,0,1,2112.5675675675684,229.86486486486487) translate(32.11728395061732 65.59027777777777)"/><use xlink:href="#b" transform="matrix(1,0,0,1,2112.5675675675684,229.86486486486487) translate(39.524691358024725 92.2569444444444)"/><path d="M2318.38 449.05a15 15 0 0 1 15-15h132.16a15 15 0 0 1 15 15v132.17a15 15 0 0 1-15 15h-132.16a15 15 0 0 1-15-15z" stroke="#333" fill="#fff"/><use xlink:href="#c" transform="matrix(1,0,0,1,2323.3783783783792,439.0540540540537) translate(10.543209876543273 79.93402777777777)"/><path d="M1864.32 724.73a15 15 0 0 1 15-15h618.65a15 15 0 0 1 15 15V954.2a15 15 0 0 1-15 15h-618.65a15 15 0 0 1-15-15z" stroke="#333" fill="#fff"/><use xlink:href="#d" transform="matrix(1,0,0,1,1883.324324324325,728.7297297297295) translate(258.00000000000006 215.04449137777777)"/><path d="M2140 481.5a15 15 0 0 1 15-15h132.16a15 15 0 0 1 15 15v132.15a15 15 0 0 1-15 15H2155a15 15 0 0 1-15-15z" stroke="#333" fill="#e5e5e5"/><use xlink:href="#e" transform="matrix(1,0,0,1,2145.0000000000005,471.4864864864862) translate(42.02469135802472 65.59027777777777)"/><use xlink:href="#b" transform="matrix(1,0,0,1,2145.0000000000005,471.4864864864862) translate(39.524691358024725 92.2569444444444)"/><path d="M2123.78 465.27a15 15 0 0 1 15-15h132.17a15 15 0 0 1 15 15v132.16a15 15 0 0 1-15 15h-132.17a15 15 0 0 1-15-15z" stroke="#333" fill="#e5e5e5"/><use xlink:href="#e" transform="matrix(1,0,0,1,2128.7837837837847,455.27027027026975) translate(42.02469135802472 65.59027777777777)"/><use xlink:href="#b" transform="matrix(1,0,0,1,2128.7837837837847,455.27027027026975) translate(39.524691358024725 92.2569444444444)"/><path d="M2107.57 449.05a15 15 0 0 1 15-15h132.16a15 15 0 0 1 15 15v132.17a15 15 0 0 1-15 15h-132.16a15 15 0 0 1-15-15z" stroke="#333" fill="#fff"/><use xlink:href="#f" transform="matrix(1,0,0,1,2112.5675675675684,439.0540540540537) translate(38.32098765432102 65.59027777777777)"/><use xlink:href="#g" transform="matrix(1,0,0,1,2112.5675675675684,439.0540540540537) translate(36.99382716049386 92.2569444444444)"/><path d="M1896.76 757.16a15 15 0 0 1 15-15h132.16a15 15 0 0 1 15 15v132.16a15 15 0 0 1-15 15h-132.16a15 15 0 0 1-15-15z" stroke="#333" fill="#fff"/><use xlink:href="#h" transform="matrix(1,0,0,1,1901.7567567567573,747.1621621621618) translate(32.97407407407407 55.31666666666667)"/><use xlink:href="#i" transform="matrix(1,0,0,1,1901.7567567567573,747.1621621621618) translate(29.714814814814808 80.91666666666669)"/><use xlink:href="#j" transform="matrix(1,0,0,1,1901.7567567567573,747.1621621621618) translate(13.18148148148147 106.51666666666668)"/><use xlink:href="#k" transform="matrix(1,0,0,1,1901.7567567567573,747.1621621621618) translate(73.62592592592591 106.51666666666668)"/><path d="M2107.57 757.16a15 15 0 0 1 15-15h132.16a15 15 0 0 1 15 15V885a15 15 0 0 1-15 15h-132.16a15 15 0 0 1-15-15z" stroke="#333" fill="#fff"/><use xlink:href="#h" transform="matrix(1,0,0,1,2112.5675675675684,747.1621621621618) translate(32.97407407407407 54.06666666666667)"/><use xlink:href="#i" transform="matrix(1,0,0,1,2112.5675675675684,747.1621621621618) translate(29.714814814814808 79.66666666666669)"/><use xlink:href="#l" transform="matrix(1,0,0,1,2112.5675675675684,747.1621621621618) translate(10.781481481481478 105.26666666666668)"/><use xlink:href="#m" transform="matrix(1,0,0,1,2112.5675675675684,747.1621621621618) translate(92.44074074074075 105.26666666666668)"/><path d="M2318.38 757.16a15 15 0 0 1 15-15h132.16a15 15 0 0 1 15 15v132.16a15 15 0 0 1-15 15h-132.16a15 15 0 0 1-15-15z" stroke="#333" fill="#fff"/><use xlink:href="#n" transform="matrix(1,0,0,1,2323.3783783783792,747.1621621621618) translate(18.537037037037088 79.93402777777777)"/><use xlink:href="#o" transform="matrix(1,0,0,1,2323.3783783783792,747.1621621621618) translate(81.43827160493827 79.93402777777777)"/><path d="M2188.65 388.03v45.02" stroke="#282c33" fill="none"/><path d="M2189.12 388.04h-.95v-.5h.95zM2189.12 433.55h-.95v-.5h.95z" stroke="#282c33" stroke-width=".05" fill="#282c33"/><path d="M2270.73 515.13h46.65" stroke="#282c33" fill="none"/><path d="M2270.74 515.6h-.5v-.94h.5zM2317.88 515.6h-.5v-.94h.5z" stroke="#282c33" stroke-width=".05" fill="#282c33"/><path d="M2188.28 597.06l-154.26 144.26" stroke="#282c33" fill="none"/><path d="M2188.6 597.4l-.65-.68h1.4zM2034.36 741.66h-1.4l.75-.7z" stroke="#282c33" stroke-width=".05" fill="#282c33"/><path d="M2188.65 597.22v143.94" stroke="#282c33" fill="none"/><path d="M2189.12 597.23h-.95v-.5h.95zM2189.12 741.66h-.95v-.5h.95z" stroke="#282c33" stroke-width=".05" fill="#282c33"/><path d="M2189 597.06l154.28 144.26" stroke="#282c33" fill="none"/><path d="M2189.35 596.72l-.65.7-.75-.7h1.4zM2344.34 741.66h-1.4l.65-.7z" stroke="#282c33" stroke-width=".05" fill="#282c33"/><path d="M1896.76 449.05a15 15 0 0 1 15-15h132.16a15 15 0 0 1 15 15v132.17a15 15 0 0 1-15 15h-132.16a15 15 0 0 1-15-15z" stroke="#333" fill="#fff"/><use xlink:href="#p" transform="matrix(1,0,0,1,1901.7567567567573,439.0540540540537) translate(31.500000000000036 65.59027777777777)"/><use xlink:href="#q" transform="matrix(1,0,0,1,1901.7567567567573,439.0540540540537) translate(39.524691358024725 92.2569444444444)"/><path d="M2106.57 515.13h-46.65" stroke="#282c33" fill="none"/><path d="M2107.07 515.6h-.52v-.94h.52zM2059.93 515.6h-.5v-.94h.5z" stroke="#282c33" stroke-width=".05" fill="#282c33"/><path d="M2075.14 98.97a6 6 0 0 1 6-6h198.8a6 6 0 0 1 6 6v56.65a6 6 0 0 1-6 6h-198.8a6 6 0 0 1-6-6z" stroke="#000" stroke-opacity="0" stroke-width="3" fill="#fff" fill-opacity="0"/><g><use xlink:href="#r" transform="matrix(1,0,0,1,2080.135135135136,97.97297297297317) translate(14.666666666666728 32.52777777777777)"/><use xlink:href="#s" transform="matrix(1,0,0,1,2080.135135135136,97.97297297297317) translate(112.38271604938271 32.52777777777777)"/></g><path d="M1600 350.6a6 6 0 0 1 6-6h198.8a6 6 0 0 1 6 6v56.64a6 6 0 0 1-6 6H1606a6 6 0 0 1-6-6z" stroke="#000" stroke-opacity="0" stroke-width="3" fill="#fff" fill-opacity="0"/><g><use xlink:href="#r" transform="matrix(1,0,0,1,1605,349.59459459459464) translate(18.987654320987716 32.52777777777777)"/><use xlink:href="#t" transform="matrix(1,0,0,1,1605,349.59459459459464) translate(116.7037037037037 32.52777777777777)"/></g><path d="M1811.3 378.92h25.96a.06.06 0 0 1 .06.06.06.06 0 0 0 .06.06h25.94" stroke="#333" fill="none"/><path d="M1811.32 379.4h-.5v-.96h.5zM1863.82 379.52h-.5v-.95h.5z" stroke="#333" stroke-width=".05" fill="#333"/><defs><path fill="#333" d="M63-220v92h138v28H63V0H30v-248h175v28H63" id="u"/><path fill="#333" d="M114-163C36-179 61-72 57 0H25l-1-190h30c1 12-1 29 2 39 6-27 23-49 58-41v29" id="v"/><path fill="#333" d="M100-194c62-1 85 37 85 99 1 63-27 99-86 99S16-35 15-95c0-66 28-99 85-99zM99-20c44 1 53-31 53-75 0-43-8-75-51-75s-53 32-53 75 10 74 51 75" id="w"/><path fill="#333" d="M117-194c89-4 53 116 60 194h-32v-121c0-31-8-49-39-48C34-167 62-67 57 0H25l-1-190h30c1 10-1 24 2 32 11-22 29-35 61-36" id="x"/><path fill="#333" d="M59-47c-2 24 18 29 38 22v24C64 9 27 4 27-40v-127H5v-23h24l9-43h21v43h35v23H59v120" id="y"/><path fill="#333" d="M100-194c63 0 86 42 84 106H49c0 40 14 67 53 68 26 1 43-12 49-29l28 8c-11 28-37 45-77 45C44 4 14-33 15-96c1-61 26-98 85-98zm52 81c6-60-76-77-97-28-3 7-6 17-6 28h103" id="z"/><path fill="#333" d="M85-194c31 0 48 13 60 33l-1-100h32l1 261h-30c-2-10 0-23-3-31C134-8 116 4 85 4 32 4 16-35 15-94c0-66 23-100 70-100zm9 24c-40 0-46 34-46 75 0 40 6 74 45 74 42 0 51-32 51-76 0-42-9-74-50-73" id="A"/><g id="a"><use transform="matrix(0.06172839506172834,0,0,0.06172839506172834,0,0)" xlink:href="#u"/><use transform="matrix(0.06172839506172834,0,0,0.06172839506172834,13.518518518518507,0)" xlink:href="#v"/><use transform="matrix(0.06172839506172834,0,0,0.06172839506172834,20.86419753086418,0)" xlink:href="#w"/><use transform="matrix(0.06172839506172834,0,0,0.06172839506172834,33.209876543209845,0)" xlink:href="#x"/><use transform="matrix(0.06172839506172834,0,0,0.06172839506172834,45.555555555555515,0)" xlink:href="#y"/><use transform="matrix(0.06172839506172834,0,0,0.06172839506172834,51.72839506172835,0)" xlink:href="#z"/><use transform="matrix(0.06172839506172834,0,0,0.06172839506172834,64.07407407407402,0)" xlink:href="#x"/><use transform="matrix(0.06172839506172834,0,0,0.06172839506172834,76.41975308641969,0)" xlink:href="#A"/></g><path fill="#333" d="M185-189c-5-48-123-54-124 2 14 75 158 14 163 119 3 78-121 87-175 55-17-10-28-26-33-46l33-7c5 56 141 63 141-1 0-78-155-14-162-118-5-82 145-84 179-34 5 7 8 16 11 25" id="B"/><path fill="#333" d="M108 0H70L1-190h34L89-25l56-165h34" id="C"/><path fill="#333" d="M24-231v-30h32v30H24zM24 0v-190h32V0H24" id="D"/><path fill="#333" d="M96-169c-40 0-48 33-48 73s9 75 48 75c24 0 41-14 43-38l32 2c-6 37-31 61-74 61-59 0-76-41-82-99-10-93 101-131 147-64 4 7 5 14 7 22l-32 3c-4-21-16-35-41-35" id="E"/><g id="b"><use transform="matrix(0.06172839506172834,0,0,0.06172839506172834,0,0)" xlink:href="#B"/><use transform="matrix(0.06172839506172834,0,0,0.06172839506172834,14.814814814814802,0)" xlink:href="#z"/><use transform="matrix(0.06172839506172834,0,0,0.06172839506172834,27.160493827160472,0)" xlink:href="#v"/><use transform="matrix(0.06172839506172834,0,0,0.06172839506172834,34.50617283950614,0)" xlink:href="#C"/><use transform="matrix(0.06172839506172834,0,0,0.06172839506172834,45.61728395061724,0)" xlink:href="#D"/><use transform="matrix(0.06172839506172834,0,0,0.06172839506172834,50.49382716049378,0)" xlink:href="#E"/><use transform="matrix(0.06172839506172834,0,0,0.06172839506172834,61.60493827160488,0)" xlink:href="#z"/></g><path fill="#333" d="M30 0v-248h187v28H63v79h144v27H63v87h162V0H30" id="F"/><path fill="#333" d="M24 0v-261h32V0H24" id="G"/><path fill="#333" d="M141-36C126-15 110 5 73 4 37 3 15-17 15-53c-1-64 63-63 125-63 3-35-9-54-41-54-24 1-41 7-42 31l-33-3c5-37 33-52 76-52 45 0 72 20 72 64v82c-1 20 7 32 28 27v20c-31 9-61-2-59-35zM48-53c0 20 12 33 32 33 41-3 63-29 60-74-43 2-92-5-92 41" id="H"/><path fill="#333" d="M135-143c-3-34-86-38-87 0 15 53 115 12 119 90S17 21 10-45l28-5c4 36 97 45 98 0-10-56-113-15-118-90-4-57 82-63 122-42 12 7 21 19 24 35" id="I"/><path fill="#333" d="M106-169C34-169 62-67 57 0H25v-261h32l-1 103c12-21 28-36 61-36 89 0 53 116 60 194h-32v-121c2-32-8-49-39-48" id="J"/><g id="c"><use transform="matrix(0.06172839506172834,0,0,0.06172839506172834,0,0)" xlink:href="#F"/><use transform="matrix(0.06172839506172834,0,0,0.06172839506172834,14.814814814814802,0)" xlink:href="#G"/><use transform="matrix(0.06172839506172834,0,0,0.06172839506172834,19.69135802469134,0)" xlink:href="#H"/><use transform="matrix(0.06172839506172834,0,0,0.06172839506172834,32.03703703703701,0)" xlink:href="#I"/><use transform="matrix(0.06172839506172834,0,0,0.06172839506172834,43.14814814814811,0)" xlink:href="#y"/><use transform="matrix(0.06172839506172834,0,0,0.06172839506172834,49.320987654320945,0)" xlink:href="#D"/><use transform="matrix(0.06172839506172834,0,0,0.06172839506172834,54.19753086419748,0)" xlink:href="#E"/><use transform="matrix(0.06172839506172834,0,0,0.06172839506172834,65.30864197530859,0)" xlink:href="#I"/><use transform="matrix(0.06172839506172834,0,0,0.06172839506172834,76.41975308641969,0)" xlink:href="#z"/><use transform="matrix(0.06172839506172834,0,0,0.06172839506172834,88.76543209876536,0)" xlink:href="#H"/><use transform="matrix(0.06172839506172834,0,0,0.06172839506172834,101.11111111111103,0)" xlink:href="#v"/><use transform="matrix(0.06172839506172834,0,0,0.06172839506172834,108.4567901234567,0)" xlink:href="#E"/><use transform="matrix(0.06172839506172834,0,0,0.06172839506172834,119.5679012345678,0)" xlink:href="#J"/></g><path fill="#333" d="M30-248c118-7 216 8 213 122C240-48 200 0 122 0H30v-248zM63-27c89 8 146-16 146-99s-60-101-146-95v194" id="K"/><path fill="#333" d="M115-194c53 0 69 39 70 98 0 66-23 100-70 100C84 3 66-7 56-30L54 0H23l1-261h32v101c10-23 28-34 59-34zm-8 174c40 0 45-34 45-75 0-40-5-75-45-74-42 0-51 32-51 76 0 43 10 73 51 73" id="L"/><g id="d"><use transform="matrix(0.06172839506172834,0,0,0.06172839506172834,0,0)" xlink:href="#K"/><use transform="matrix(0.06172839506172834,0,0,0.06172839506172834,15.987654320987641,0)" xlink:href="#H"/><use transform="matrix(0.06172839506172834,0,0,0.06172839506172834,28.333333333333307,0)" xlink:href="#y"/><use transform="matrix(0.06172839506172834,0,0,0.06172839506172834,34.50617283950614,0)" xlink:href="#H"/><use transform="matrix(0.06172839506172834,0,0,0.06172839506172834,46.85185185185181,0)" xlink:href="#L"/><use transform="matrix(0.06172839506172834,0,0,0.06172839506172834,59.19753086419748,0)" xlink:href="#H"/><use transform="matrix(0.06172839506172834,0,0,0.06172839506172834,71.54320987654314,0)" xlink:href="#I"/><use transform="matrix(0.06172839506172834,0,0,0.06172839506172834,82.65432098765424,0)" xlink:href="#z"/></g><path fill="#333" d="M197 0v-115H63V0H30v-248h33v105h134v-105h34V0h-34" id="M"/><path fill="#333" d="M179-190L93 31C79 59 56 82 12 73V49c39 6 53-20 64-50L1-190h34L92-34l54-156h33" id="N"/><g id="e"><use transform="matrix(0.06172839506172834,0,0,0.06172839506172834,0,0)" xlink:href="#M"/><use transform="matrix(0.06172839506172834,0,0,0.06172839506172834,15.987654320987641,0)" xlink:href="#D"/><use transform="matrix(0.06172839506172834,0,0,0.06172839506172834,20.864197530864182,0)" xlink:href="#I"/><use transform="matrix(0.06172839506172834,0,0,0.06172839506172834,31.975308641975282,0)" xlink:href="#y"/><use transform="matrix(0.06172839506172834,0,0,0.06172839506172834,38.14814814814812,0)" xlink:href="#w"/><use transform="matrix(0.06172839506172834,0,0,0.06172839506172834,50.49382716049379,0)" xlink:href="#v"/><use transform="matrix(0.06172839506172834,0,0,0.06172839506172834,57.83950617283946,0)" xlink:href="#N"/></g><path fill="#333" d="M186 0v-106H76V0H24v-248h52v99h110v-99h50V0h-50" id="O"/><path fill="#333" d="M25-224v-37h50v37H25zM25 0v-190h50V0H25" id="P"/><path fill="#333" d="M137-138c1-29-70-34-71-4 15 46 118 7 119 86 1 83-164 76-172 9l43-7c4 19 20 25 44 25 33 8 57-30 24-41C81-84 22-81 20-136c-2-80 154-74 161-7" id="Q"/><path fill="#333" d="M115-3C79 11 28 4 28-45v-112H4v-33h27l15-45h31v45h36v33H77v99c-1 23 16 31 38 25v30" id="R"/><path fill="#333" d="M110-194c64 0 96 36 96 99 0 64-35 99-97 99-61 0-95-36-95-99 0-62 34-99 96-99zm-1 164c35 0 45-28 45-65 0-40-10-65-43-65-34 0-45 26-45 65 0 36 10 65 43 65" id="S"/><path fill="#333" d="M135-150c-39-12-60 13-60 57V0H25l-1-190h47c2 13-1 29 3 40 6-28 27-53 61-41v41" id="T"/><path fill="#333" d="M123 10C108 53 80 86 19 72V37c35 8 53-11 59-39L3-190h52l48 148c12-52 28-100 44-148h51" id="U"/><g id="f"><use transform="matrix(0.06172839506172834,0,0,0.06172839506172834,0,0)" xlink:href="#O"/><use transform="matrix(0.06172839506172834,0,0,0.06172839506172834,15.987654320987641,0)" xlink:href="#P"/><use transform="matrix(0.06172839506172834,0,0,0.06172839506172834,22.160493827160476,0)" xlink:href="#Q"/><use transform="matrix(0.06172839506172834,0,0,0.06172839506172834,34.50617283950614,0)" xlink:href="#R"/><use transform="matrix(0.06172839506172834,0,0,0.06172839506172834,41.85185185185181,0)" xlink:href="#S"/><use transform="matrix(0.06172839506172834,0,0,0.06172839506172834,55.37037037037032,0)" xlink:href="#T"/><use transform="matrix(0.06172839506172834,0,0,0.06172839506172834,64.01234567901228,0)" xlink:href="#U"/></g><path fill="#333" d="M169-182c-1-43-94-46-97-3 18 66 151 10 154 114 3 95-165 93-204 36-6-8-10-19-12-30l50-8c3 46 112 56 116 5-17-69-150-10-154-114-4-87 153-88 188-35 5 8 8 18 10 28" id="V"/><path fill="#333" d="M185-48c-13 30-37 53-82 52C43 2 14-33 14-96s30-98 90-98c62 0 83 45 84 108H66c0 31 8 55 39 56 18 0 30-7 34-22zm-45-69c5-46-57-63-70-21-2 6-4 13-4 21h74" id="W"/><path fill="#333" d="M128 0H69L1-190h53L99-40l48-150h52" id="X"/><path fill="#333" d="M190-63c-7 42-38 67-86 67-59 0-84-38-90-98-12-110 154-137 174-36l-49 2c-2-19-15-32-35-32-30 0-35 28-38 64-6 74 65 87 74 30" id="Y"/><g id="g"><use transform="matrix(0.06172839506172834,0,0,0.06172839506172834,0,0)" xlink:href="#V"/><use transform="matrix(0.06172839506172834,0,0,0.06172839506172834,14.814814814814802,0)" xlink:href="#W"/><use transform="matrix(0.06172839506172834,0,0,0.06172839506172834,27.160493827160472,0)" xlink:href="#T"/><use transform="matrix(0.06172839506172834,0,0,0.06172839506172834,35.80246913580244,0)" xlink:href="#X"/><use transform="matrix(0.06172839506172834,0,0,0.06172839506172834,48.14814814814811,0)" xlink:href="#P"/><use transform="matrix(0.06172839506172834,0,0,0.06172839506172834,54.320987654320945,0)" xlink:href="#Y"/><use transform="matrix(0.06172839506172834,0,0,0.06172839506172834,66.66666666666661,0)" xlink:href="#W"/></g><path d="M266 0h-40l-56-210L115 0H75L2-248h35L96-30l15-64 43-154h32l59 218 59-218h35" id="Z"/><path d="M100-194c62-1 85 37 85 99 1 63-27 99-86 99S16-35 15-95c0-66 28-99 85-99zM99-20c44 1 53-31 53-75 0-43-8-75-51-75s-53 32-53 75 10 74 51 75" id="aa"/><path d="M114-163C36-179 61-72 57 0H25l-1-190h30c1 12-1 29 2 39 6-27 23-49 58-41v29" id="ab"/><path d="M143 0L79-87 56-68V0H24v-261h32v163l83-92h37l-77 82L181 0h-38" id="ac"/><path d="M101-234c-31-9-42 10-38 44h38v23H63V0H32v-167H5v-23h27c-7-52 17-82 69-68v24" id="ad"/><path d="M24 0v-261h32V0H24" id="ae"/><path d="M206 0h-36l-40-164L89 0H53L-1-190h32L70-26l43-164h34l41 164 42-164h31" id="af"/><g id="h"><use transform="matrix(0.05925925925925927,0,0,0.05925925925925927,0,0)" xlink:href="#Z"/><use transform="matrix(0.05925925925925927,0,0,0.05925925925925927,19.674074074074078,0)" xlink:href="#aa"/><use transform="matrix(0.05925925925925927,0,0,0.05925925925925927,31.525925925925932,0)" xlink:href="#ab"/><use transform="matrix(0.05925925925925927,0,0,0.05925925925925927,38.57777777777778,0)" xlink:href="#ac"/><use transform="matrix(0.05925925925925927,0,0,0.05925925925925927,49.244444444444454,0)" xlink:href="#ad"/><use transform="matrix(0.05925925925925927,0,0,0.05925925925925927,55.17037037037038,0)" xlink:href="#ae"/><use transform="matrix(0.05925925925925927,0,0,0.05925925925925927,59.85185185185186,0)" xlink:href="#aa"/><use transform="matrix(0.05925925925925927,0,0,0.05925925925925927,71.70370370370371,0)" xlink:href="#af"/></g><path d="M30 0v-248h187v28H63v79h144v27H63v87h162V0H30" id="ag"/><path d="M141 0L90-78 38 0H4l68-98-65-92h35l48 74 47-74h35l-64 92 68 98h-35" id="ah"/><path d="M100-194c63 0 86 42 84 106H49c0 40 14 67 53 68 26 1 43-12 49-29l28 8c-11 28-37 45-77 45C44 4 14-33 15-96c1-61 26-98 85-98zm52 81c6-60-76-77-97-28-3 7-6 17-6 28h103" id="ai"/><path d="M96-169c-40 0-48 33-48 73s9 75 48 75c24 0 41-14 43-38l32 2c-6 37-31 61-74 61-59 0-76-41-82-99-10-93 101-131 147-64 4 7 5 14 7 22l-32 3c-4-21-16-35-41-35" id="aj"/><path d="M84 4C-5 8 30-112 23-190h32v120c0 31 7 50 39 49 72-2 45-101 50-169h31l1 190h-30c-1-10 1-25-2-33-11 22-28 36-60 37" id="ak"/><path d="M59-47c-2 24 18 29 38 22v24C64 9 27 4 27-40v-127H5v-23h24l9-43h21v43h35v23H59v120" id="al"/><path d="M24-231v-30h32v30H24zM24 0v-190h32V0H24" id="am"/><path d="M117-194c89-4 53 116 60 194h-32v-121c0-31-8-49-39-48C34-167 62-67 57 0H25l-1-190h30c1 10-1 24 2 32 11-22 29-35 61-36" id="an"/><g id="i"><use transform="matrix(0.05925925925925927,0,0,0.05925925925925927,0,0)" xlink:href="#ag"/><use transform="matrix(0.05925925925925927,0,0,0.05925925925925927,14.222222222222225,0)" xlink:href="#ah"/><use transform="matrix(0.05925925925925927,0,0,0.05925925925925927,24.888888888888893,0)" xlink:href="#ai"/><use transform="matrix(0.05925925925925927,0,0,0.05925925925925927,36.74074074074075,0)" xlink:href="#aj"/><use transform="matrix(0.05925925925925927,0,0,0.05925925925925927,47.40740740740742,0)" xlink:href="#ak"/><use transform="matrix(0.05925925925925927,0,0,0.05925925925925927,59.259259259259274,0)" xlink:href="#al"/><use transform="matrix(0.05925925925925927,0,0,0.05925925925925927,65.1851851851852,0)" xlink:href="#am"/><use transform="matrix(0.05925925925925927,0,0,0.05925925925925927,69.86666666666669,0)" xlink:href="#aa"/><use transform="matrix(0.05925925925925927,0,0,0.05925925925925927,81.71851851851854,0)" xlink:href="#an"/></g><path d="M108 0H70L1-190h34L89-25l56-165h34" id="ao"/><g id="j"><use transform="matrix(0.05925925925925927,0,0,0.05925925925925927,0,0)" xlink:href="#ag"/><use transform="matrix(0.05925925925925927,0,0,0.05925925925925927,14.222222222222225,0)" xlink:href="#ao"/><use transform="matrix(0.05925925925925927,0,0,0.05925925925925927,24.888888888888893,0)" xlink:href="#ai"/><use transform="matrix(0.05925925925925927,0,0,0.05925925925925927,36.74074074074075,0)" xlink:href="#an"/><use transform="matrix(0.05925925925925927,0,0,0.05925925925925927,48.5925925925926,0)" xlink:href="#al"/></g><path d="M197 0v-115H63V0H30v-248h33v105h134v-105h34V0h-34" id="ap"/><path d="M135-143c-3-34-86-38-87 0 15 53 115 12 119 90S17 21 10-45l28-5c4 36 97 45 98 0-10-56-113-15-118-90-4-57 82-63 122-42 12 7 21 19 24 35" id="aq"/><path d="M179-190L93 31C79 59 56 82 12 73V49c39 6 53-20 64-50L1-190h34L92-34l54-156h33" id="ar"/><g id="k"><use transform="matrix(0.05925925925925927,0,0,0.05925925925925927,0,0)" xlink:href="#ap"/><use transform="matrix(0.05925925925925927,0,0,0.05925925925925927,15.34814814814815,0)" xlink:href="#am"/><use transform="matrix(0.05925925925925927,0,0,0.05925925925925927,20.029629629629632,0)" xlink:href="#aq"/><use transform="matrix(0.05925925925925927,0,0,0.05925925925925927,30.6962962962963,0)" xlink:href="#al"/><use transform="matrix(0.05925925925925927,0,0,0.05925925925925927,36.62222222222223,0)" xlink:href="#aa"/><use transform="matrix(0.05925925925925927,0,0,0.05925925925925927,48.47407407407408,0)" xlink:href="#ab"/><use transform="matrix(0.05925925925925927,0,0,0.05925925925925927,55.52592592592593,0)" xlink:href="#ar"/></g><path d="M240 0l2-218c-23 76-54 145-80 218h-23L58-218 59 0H30v-248h44l77 211c21-75 51-140 76-211h43V0h-30" id="as"/><path d="M141-36C126-15 110 5 73 4 37 3 15-17 15-53c-1-64 63-63 125-63 3-35-9-54-41-54-24 1-41 7-42 31l-33-3c5-37 33-52 76-52 45 0 72 20 72 64v82c-1 20 7 32 28 27v20c-31 9-61-2-59-35zM48-53c0 20 12 33 32 33 41-3 63-29 60-74-43 2-92-5-92 41" id="at"/><path d="M115-194c53 0 69 39 70 98 0 66-23 100-70 100C84 3 66-7 56-30L54 0H23l1-261h32v101c10-23 28-34 59-34zm-8 174c40 0 45-34 45-75 0-40-5-75-45-74-42 0-51 32-51 76 0 43 10 73 51 73" id="au"/><g id="l"><use transform="matrix(0.05925925925925927,0,0,0.05925925925925927,0,0)" xlink:href="#as"/><use transform="matrix(0.05925925925925927,0,0,0.05925925925925927,17.718518518518522,0)" xlink:href="#ak"/><use transform="matrix(0.05925925925925927,0,0,0.05925925925925927,29.570370370370377,0)" xlink:href="#al"/><use transform="matrix(0.05925925925925927,0,0,0.05925925925925927,35.4962962962963,0)" xlink:href="#at"/><use transform="matrix(0.05925925925925927,0,0,0.05925925925925927,47.348148148148155,0)" xlink:href="#au"/><use transform="matrix(0.05925925925925927,0,0,0.05925925925925927,59.20000000000001,0)" xlink:href="#ae"/><use transform="matrix(0.05925925925925927,0,0,0.05925925925925927,63.881481481481494,0)" xlink:href="#ai"/></g><path d="M185-189c-5-48-123-54-124 2 14 75 158 14 163 119 3 78-121 87-175 55-17-10-28-26-33-46l33-7c5 56 141 63 141-1 0-78-155-14-162-118-5-82 145-84 179-34 5 7 8 16 11 25" id="av"/><g id="m"><use transform="matrix(0.05925925925925927,0,0,0.05925925925925927,0,0)" xlink:href="#av"/><use transform="matrix(0.05925925925925927,0,0,0.05925925925925927,14.222222222222225,0)" xlink:href="#al"/><use transform="matrix(0.05925925925925927,0,0,0.05925925925925927,20.148148148148152,0)" xlink:href="#at"/><use transform="matrix(0.05925925925925927,0,0,0.05925925925925927,32.00000000000001,0)" xlink:href="#al"/><use transform="matrix(0.05925925925925927,0,0,0.05925925925925927,37.92592592592593,0)" xlink:href="#ai"/></g><path fill="#333" d="M127-220V0H93v-220H8v-28h204v28h-85" id="aw"/><path fill="#333" d="M143 0L79-87 56-68V0H24v-261h32v163l83-92h37l-77 82L181 0h-38" id="ax"/><g id="n"><use transform="matrix(0.06172839506172834,0,0,0.06172839506172834,0,0)" xlink:href="#aw"/><use transform="matrix(0.06172839506172834,0,0,0.06172839506172834,11.049382716049372,0)" xlink:href="#H"/><use transform="matrix(0.06172839506172834,0,0,0.06172839506172834,23.395061728395042,0)" xlink:href="#I"/><use transform="matrix(0.06172839506172834,0,0,0.06172839506172834,34.50617283950614,0)" xlink:href="#ax"/><use transform="matrix(0.06172839506172834,0,0,0.06172839506172834,45.61728395061724,0)" xlink:href="#I"/></g><g id="o"><use transform="matrix(0.06172839506172834,0,0,0.06172839506172834,0,0)" xlink:href="#B"/><use transform="matrix(0.06172839506172834,0,0,0.06172839506172834,14.814814814814802,0)" xlink:href="#y"/><use transform="matrix(0.06172839506172834,0,0,0.06172839506172834,20.987654320987637,0)" xlink:href="#w"/><use transform="matrix(0.06172839506172834,0,0,0.06172839506172834,33.33333333333331,0)" xlink:href="#v"/><use transform="matrix(0.06172839506172834,0,0,0.06172839506172834,40.67901234567898,0)" xlink:href="#z"/></g><path fill="#333" d="M240 0l2-218c-23 76-54 145-80 218h-23L58-218 59 0H30v-248h44l77 211c21-75 51-140 76-211h43V0h-30" id="ay"/><path fill="#333" d="M177-190C167-65 218 103 67 71c-23-6-38-20-44-43l32-5c15 47 100 32 89-28v-30C133-14 115 1 83 1 29 1 15-40 15-95c0-56 16-97 71-98 29-1 48 16 59 35 1-10 0-23 2-32h30zM94-22c36 0 50-32 50-73 0-42-14-75-50-75-39 0-46 34-46 75s6 73 46 73" id="az"/><g id="p"><use transform="matrix(0.06172839506172834,0,0,0.06172839506172834,0,0)" xlink:href="#ay"/><use transform="matrix(0.06172839506172834,0,0,0.06172839506172834,18.456790123456774,0)" xlink:href="#H"/><use transform="matrix(0.06172839506172834,0,0,0.06172839506172834,30.80246913580244,0)" xlink:href="#y"/><use transform="matrix(0.06172839506172834,0,0,0.06172839506172834,36.975308641975275,0)" xlink:href="#E"/><use transform="matrix(0.06172839506172834,0,0,0.06172839506172834,48.086419753086375,0)" xlink:href="#J"/><use transform="matrix(0.06172839506172834,0,0,0.06172839506172834,60.432098765432045,0)" xlink:href="#D"/><use transform="matrix(0.06172839506172834,0,0,0.06172839506172834,65.30864197530859,0)" xlink:href="#x"/><use transform="matrix(0.06172839506172834,0,0,0.06172839506172834,77.65432098765426,0)" xlink:href="#az"/></g><g id="q"><use transform="matrix(0.06172839506172834,0,0,0.06172839506172834,0,0)" xlink:href="#B"/><use transform="matrix(0.06172839506172834,0,0,0.06172839506172834,14.814814814814802,0)" xlink:href="#z"/><use transform="matrix(0.06172839506172834,0,0,0.06172839506172834,27.160493827160472,0)" xlink:href="#v"/><use transform="matrix(0.06172839506172834,0,0,0.06172839506172834,34.50617283950614,0)" xlink:href="#C"/><use transform="matrix(0.06172839506172834,0,0,0.06172839506172834,45.61728395061724,0)" xlink:href="#D"/><use transform="matrix(0.06172839506172834,0,0,0.06172839506172834,50.49382716049378,0)" xlink:href="#E"/><use transform="matrix(0.06172839506172834,0,0,0.06172839506172834,61.60493827160488,0)" xlink:href="#z"/></g><path fill="#333" d="M151-220L108 0H75l42-220H32l6-28h203l-5 28h-85" id="aA"/><path fill="#333" d="M111-194c62-3 86 47 72 106H45c-7 38 6 69 45 68 27-1 43-14 53-32l24 11C152-15 129 4 87 4 38 3 12-23 12-71c0-70 32-119 99-123zm44 81c14-66-71-72-95-28-4 8-8 17-11 28h106" id="aB"/><path fill="#333" d="M248-111c6-24 9-61-24-58-72 9-57 108-77 169h-31l26-142c3-37-50-30-64-10C52-115 50-51 37 0H6l36-190h30c-1 10-6 24-4 32 13-43 101-52 105 5 13-22 29-41 61-41 90 0 28 129 23 194h-31" id="aC"/><path fill="#333" d="M67-162c32-53 139-36 121 50C175-51 163 2 97 4 68 4 52-11 42-31 38 6 28 39 22 75H-9l50-265h29c-1 10 0 20-3 28zm89 36c0-26-10-43-35-43-54 0-67 50-69 103-1 29 14 45 42 46 53 0 62-58 62-106" id="aD"/><path fill="#333" d="M30-147c31-64 166-65 159 27C183-49 158 1 86 4 9 8 1-88 30-147zM88-20c53 0 68-48 68-100 0-31-11-51-44-50-52 1-68 46-68 97 0 32 13 53 44 53" id="aE"/><path fill="#333" d="M66-151c12-25 30-51 66-40l-6 26C45-176 58-65 38 0H6l36-190h30" id="aF"/><path fill="#333" d="M165-48c-4 18 1 34 23 27l-3 20c-29 8-62 0-52-35h-2C116-14 99 4 63 4 30 4 8-16 8-49c0-68 71-67 138-67 10-26 0-56-31-54-26 1-42 9-47 31l-32-5c8-67 160-71 144 15-5 28-9 54-15 81zM42-50c3 52 80 24 89-6 7-12 7-24 11-38-47 1-103-4-100 44" id="aG"/><path fill="#333" d="M6 0l50-261h32L37 0H6" id="aH"/><g id="r"><use transform="matrix(0.06172839506172835,0,0,0.06172839506172835,0,0)" xlink:href="#aA"/><use transform="matrix(0.06172839506172835,0,0,0.06172839506172835,11.481481481481474,0)" xlink:href="#aB"/><use transform="matrix(0.06172839506172835,0,0,0.06172839506172835,23.827160493827144,0)" xlink:href="#aC"/><use transform="matrix(0.06172839506172835,0,0,0.06172839506172835,42.28395061728392,0)" xlink:href="#aD"/><use transform="matrix(0.06172839506172835,0,0,0.06172839506172835,54.62962962962959,0)" xlink:href="#aE"/><use transform="matrix(0.06172839506172835,0,0,0.06172839506172835,66.97530864197526,0)" xlink:href="#aF"/><use transform="matrix(0.06172839506172835,0,0,0.06172839506172835,74.32098765432093,0)" xlink:href="#aG"/><use transform="matrix(0.06172839506172835,0,0,0.06172839506172835,86.6666666666666,0)" xlink:href="#aH"/></g><path fill="#333" d="M194-120c59 52 2 134-86 124-53-6-90-18-98-63l31-7c8 30 29 43 70 43 46 0 84-17 71-62-32-43-135-20-137-98-3-89 178-90 191-16l-30 9c-8-48-127-53-127 5 0 53 81 35 115 65" id="aI"/><path fill="#333" d="M89 0H52L20-190h33L74-25l89-165h34" id="aJ"/><path fill="#333" d="M50-231l6-30h32l-6 30H50zM6 0l37-190h31L37 0H6" id="aK"/><path fill="#333" d="M44-68c0 29 11 47 38 47 30 0 42-19 51-41l28 9C148-21 126 4 82 4 31 4 10-29 12-85c3-77 74-140 146-93 12 8 15 23 18 40l-31 5c-1-22-13-36-36-36-52 0-65 49-65 101" id="aL"/><g id="s"><use transform="matrix(0.06172839506172835,0,0,0.06172839506172835,0,0)" xlink:href="#aI"/><use transform="matrix(0.06172839506172835,0,0,0.06172839506172835,14.814814814814804,0)" xlink:href="#aB"/><use transform="matrix(0.06172839506172835,0,0,0.06172839506172835,27.160493827160472,0)" xlink:href="#aF"/><use transform="matrix(0.06172839506172835,0,0,0.06172839506172835,34.50617283950615,0)" xlink:href="#aJ"/><use transform="matrix(0.06172839506172835,0,0,0.06172839506172835,45.61728395061725,0)" xlink:href="#aK"/><use transform="matrix(0.06172839506172835,0,0,0.06172839506172835,50.49382716049379,0)" xlink:href="#aL"/><use transform="matrix(0.06172839506172835,0,0,0.06172839506172835,61.604938271604894,0)" xlink:href="#aB"/></g><g id="t"><use transform="matrix(0.06172839506172835,0,0,0.06172839506172835,0,0)" xlink:href="#aI"/><use transform="matrix(0.06172839506172835,0,0,0.06172839506172835,14.814814814814804,0)" xlink:href="#aB"/><use transform="matrix(0.06172839506172835,0,0,0.06172839506172835,27.160493827160472,0)" xlink:href="#aF"/><use transform="matrix(0.06172839506172835,0,0,0.06172839506172835,34.50617283950615,0)" xlink:href="#aJ"/><use transform="matrix(0.06172839506172835,0,0,0.06172839506172835,45.61728395061725,0)" xlink:href="#aB"/><use transform="matrix(0.06172839506172835,0,0,0.06172839506172835,57.96296296296292,0)" xlink:href="#aF"/></g></defs></g></svg>