<svg xmlns="http://www.w3.org/2000/svg" xmlns:xlink="http://www.w3.org/1999/xlink" xmlns:lucid="lucid" width="1752.23" height="1112.5"><g transform="translate(-518.7720450405076 -1380)" lucid:page-tab-id="0_0"><path d="M1100 2383.33V2305M1100 2383.2v5.13M1100 2305.13V2300M1500 2383.33V2305M1500 2383.2v5.13M1500 2305.13V2300M1900 2383.33V2305M1900 2383.2v5.13M1900 2305.13V2300M805 2388.33h1359.55M805.13 2388.33H800" stroke="#333" stroke-width="10" fill="none"/><path d="M2183.82 2388.33l-14.27 4.64v-9.27z" stroke="#333" stroke-width="10" fill="#333"/><path d="M980 2415.17c0-3.32 2.7-6 6-6h228c3.3 0 6 2.68 6 6v51.33c0 3.3-2.7 6-6 6H986c-3.3 0-6-2.7-6-6z" stroke="#000" stroke-opacity="0" stroke-width="3" fill="#fff" fill-opacity="0"/><use xlink:href="#a" transform="matrix(1,0,0,1,985,2414.166666666667) translate(3.8580246913580254 31.27777777777778)"/><use xlink:href="#b" transform="matrix(1,0,0,1,985,2414.166666666667) translate(131.32716049382717 31.27777777777778)"/><use xlink:href="#c" transform="matrix(1,0,0,1,985,2414.166666666667) translate(180.64814814814815 31.27777777777778)"/><path d="M740 2326c0-3.3 2.7-6 6-6h148c3.3 0 6 2.7 6 6v29.67c0 3.3-2.7 6-6 6H746c-3.3 0-6-2.7-6-6z" stroke="#000" stroke-opacity="0" stroke-width="3" fill="#fff" fill-opacity="0"/><use xlink:href="#d" transform="matrix(1,0,0,1,745,2325) translate(50.49382716049384 19.77777777777778)"/><path d="M800 1415c0-8.28 6.72-15 15-15h470c8.28 0 15 6.72 15 15v70c0 8.28-6.72 15-15 15H815c-8.28 0-15-6.72-15-15z" stroke="#fff" stroke-width="3" fill="#333"/><use xlink:href="#e" transform="matrix(1,0,0,1,825,1425) translate(120.47530864197532 24.888888888888886)"/><use xlink:href="#f" transform="matrix(1,0,0,1,825,1425) translate(226.12962962962962 24.888888888888886)"/><use xlink:href="#g" transform="matrix(1,0,0,1,825,1425) translate(186.7592592592593 55.1111111111111)"/><use xlink:href="#h" transform="matrix(1,0,0,1,825,1425) translate(222.56172839506172 55.1111111111111)"/><path d="M1300 1415c0-8.28 6.72-15 15-15h370c8.28 0 15 6.72 15 15v70c0 8.28-6.72 15-15 15h-370c-8.28 0-15-6.72-15-15z" stroke="#fff" stroke-width="3" fill="#333"/><use xlink:href="#i" transform="matrix(1,0,0,1,1325,1425) translate(70.47530864197532 24.888888888888886)"/><use xlink:href="#j" transform="matrix(1,0,0,1,1325,1425) translate(176.12962962962962 24.888888888888886)"/><use xlink:href="#k" transform="matrix(1,0,0,1,1325,1425) translate(133.0555555555556 55.1111111111111)"/><use xlink:href="#l" transform="matrix(1,0,0,1,1325,1425) translate(176.26543209876544 55.1111111111111)"/><path d="M1700 1415c0-8.28 6.72-15 15-15h370c8.28 0 15 6.72 15 15v70c0 8.28-6.72 15-15 15h-370c-8.28 0-15-6.72-15-15z" stroke="#fff" stroke-width="3" fill="#333"/><use xlink:href="#e" transform="matrix(1,0,0,1,1725,1425) translate(70.47530864197532 24.888888888888886)"/><use xlink:href="#m" transform="matrix(1,0,0,1,1725,1425) translate(176.12962962962962 24.888888888888886)"/><use xlink:href="#n" transform="matrix(1,0,0,1,1725,1425) translate(135.5555555555556 55.1111111111111)"/><use xlink:href="#h" transform="matrix(1,0,0,1,1725,1425) translate(173.76543209876544 55.1111111111111)"/><path d="M820 1659.58c0 11.5-8.95 20.84-20 20.84s-20-9.33-20-20.84c0-11.5 8.95-20.83 20-20.83s20 9.33 20 20.83z" stroke="#333" stroke-width="3" fill="#ffc374"/><path d="M1380 2415.17c0-3.32 2.7-6 6-6h228c3.3 0 6 2.68 6 6v51.33c0 3.3-2.7 6-6 6h-228c-3.3 0-6-2.7-6-6z" stroke="#000" stroke-opacity="0" stroke-width="3" fill="#fff" fill-opacity="0"/><use xlink:href="#a" transform="matrix(1,0,0,1,1385,2414.166666666667) translate(3.8580246913580254 31.27777777777778)"/><use xlink:href="#b" transform="matrix(1,0,0,1,1385,2414.166666666667) translate(131.32716049382717 31.27777777777778)"/><use xlink:href="#c" transform="matrix(1,0,0,1,1385,2414.166666666667) translate(180.64814814814815 31.27777777777778)"/><path d="M1120.33 1660.42c0 11.5-8.95 20.83-20 20.83-11.04 0-20-9.33-20-20.83 0-11.5 8.96-20.84 20-20.84 11.05 0 20 9.33 20 20.84z" stroke="#333" stroke-width="3" fill="#0c7cba"/><path d="M1320 1660.42c0 11.5-8.95 20.83-20 20.83s-20-9.33-20-20.83c0-11.5 8.95-20.84 20-20.84s20 9.33 20 20.84z" stroke="#333" stroke-width="3" fill="#a3d977"/><path d="M822.5 1659.58h4m7.98 0h7.98m7.98 0h7.98m7.98 0h8m7.97 0h7.98m7.98 0h7.98m8 0h7.98m7.98 0h7.98m7.98 0h7.98m8 0h7.97m7.98 0h7.98m7.98 0h8m7.98 0h7.98m7.98 0h7.98m7.98 0h8m7.97 0h7.98m7.98 0h4" stroke="#333" stroke-width="2" fill="none"/><path d="M822.53 1660.58h-1.14l.1-.96-.06-1.04h1.1zM1078.83 1660.38v.2h-.93v-2h1.14z" fill="#333"/><path d="M1122.84 1660.42h154.66" stroke="#333" stroke-width="2" fill="none"/><path d="M1122.86 1661.42h-1.14l.12-.96-.07-1.04h1.1zM1278.5 1660.38l.06 1.04h-1.1v-2h1.15z" fill="#333"/><path d="M1320 1860.42c0 11.5-8.95 20.83-20 20.83s-20-9.33-20-20.83c0-11.5 8.95-20.84 20-20.84s20 9.33 20 20.84z" stroke="#333" stroke-width="3" fill="#ffc374"/><path d="M1520 1859.58c0 11.5-8.95 20.84-20 20.84s-20-9.33-20-20.84c0-11.5 8.95-20.83 20-20.83s20 9.33 20 20.83z" stroke="#333" stroke-width="3" fill="#0c7cba"/><path d="M1720 1860.42c0 11.5-8.95 20.83-20 20.83s-20-9.33-20-20.83c0-11.5 8.95-20.84 20-20.84s20 9.33 20 20.84zM2120 2060.42c0 11.5-8.95 20.83-20 20.83s-20-9.33-20-20.83c0-11.5 8.95-20.84 20-20.84s20 9.33 20 20.84z" stroke="#333" stroke-width="3" fill="#a3d977"/><path d="M1720 2060.42c0 11.5-8.95 20.83-20 20.83s-20-9.33-20-20.83c0-11.5 8.95-20.84 20-20.84s20 9.33 20 20.84z" stroke="#333" stroke-width="3" fill="#ffc374"/><path d="M1920 2059.58c0 11.5-8.95 20.84-20 20.84s-20-9.33-20-20.84c0-11.5 8.95-20.83 20-20.83s20 9.33 20 20.83z" stroke="#333" stroke-width="3" fill="#0c7cba"/><path d="M1322.5 1860.42h3.88m7.75 0h7.75m7.76 0h7.75m7.74 0h7.75m7.75 0h7.75m7.75 0h7.75m7.76 0h7.75m7.76 0h7.75m7.77 0h7.75m7.75 0h7.75m7.75 0h3.88" stroke="#333" stroke-width="2" fill="none"/><path d="M1322.53 1861.42h-1.14l.1-.96-.06-1.04h1.1zM1478.5 1859.54l.12 1.88h-1.1v-2h1z" fill="#333"/><path d="M1522.5 1859.58h155.1" stroke="#333" stroke-width="2" fill="none"/><path d="M1522.53 1860.58h-1.14l.1-.96-.06-1.04h1.1zM1678.5 1860.38v.2h-.94v-2h1.15z" fill="#333"/><path d="M1722.5 2060.42h3.88m7.75 0h7.75m7.76 0h7.75m7.74 0h7.75m7.75 0h7.75m7.75 0h7.75m7.76 0h7.75m7.76 0h7.75m7.76 0h7.76m7.75 0h7.75m7.75 0h3.88" stroke="#333" stroke-width="2" fill="none"/><path d="M1722.53 2061.42h-1.14l.1-.96-.06-1.04h1.1zM1878.5 2059.54l.12 1.88h-1.1v-2h1z" fill="#333"/><path d="M1922.5 2059.58h155.1" stroke="#333" stroke-width="2" fill="none"/><path d="M1922.53 2060.58h-1.14l.1-.96-.06-1.04h1.1zM2078.5 2060.38v.2h-.94v-2h1.15z" fill="#333"/><path d="M541.77 1845.58c0-3.3 2.7-6 6-6h507.45c3.3 0 6 2.7 6 6V1994c0 3.3-2.7 6-6 6H547.77c-3.3 0-6-2.7-6-6z" stroke="#000" stroke-opacity="0" stroke-width="3" fill="#fff" fill-opacity="0"/><use xlink:href="#o" transform="matrix(1,0,0,1,541.7720450405076,1839.5833333333335) translate(0 42.93402777777778)"/><use xlink:href="#p" transform="matrix(1,0,0,1,541.7720450405076,1839.5833333333335) translate(22.22222222222222 42.93402777777778)"/><use xlink:href="#q" transform="matrix(1,0,0,1,541.7720450405076,1839.5833333333335) translate(119.50617283950618 42.93402777777778)"/><use xlink:href="#r" transform="matrix(1,0,0,1,541.7720450405076,1839.5833333333335) translate(223.14814814814815 42.93402777777778)"/><use xlink:href="#s" transform="matrix(1,0,0,1,541.7720450405076,1839.5833333333335) translate(300.8641975308642 42.93402777777778)"/><use xlink:href="#t" transform="matrix(1,0,0,1,541.7720450405076,1839.5833333333335) translate(346.41975308641975 42.93402777777778)"/><use xlink:href="#u" transform="matrix(1,0,0,1,541.7720450405076,1839.5833333333335) translate(364.9382716049383 42.93402777777778)"/><use xlink:href="#v" transform="matrix(1,0,0,1,541.7720450405076,1839.5833333333335) translate(419.1358024691358 42.93402777777778)"/><use xlink:href="#w" transform="matrix(1,0,0,1,541.7720450405076,1839.5833333333335) translate(22.22222222222222 69.60069444444446)"/><use xlink:href="#x" transform="matrix(1,0,0,1,541.7720450405076,1839.5833333333335) translate(85.12345679012346 69.60069444444446)"/><use xlink:href="#y" transform="matrix(1,0,0,1,541.7720450405076,1839.5833333333335) translate(208.08641975308643 69.60069444444446)"/><use xlink:href="#z" transform="matrix(1,0,0,1,541.7720450405076,1839.5833333333335) translate(232.7777777777778 69.60069444444446)"/><use xlink:href="#A" transform="matrix(1,0,0,1,541.7720450405076,1839.5833333333335) translate(282.0987654320988 69.60069444444446)"/><use xlink:href="#B" transform="matrix(1,0,0,1,541.7720450405076,1839.5833333333335) translate(0 96.26736111111111)"/><use xlink:href="#C" transform="matrix(1,0,0,1,541.7720450405076,1839.5833333333335) translate(22.22222222222222 96.26736111111111)"/><use xlink:href="#D" transform="matrix(1,0,0,1,541.7720450405076,1839.5833333333335) translate(102.46913580246914 96.26736111111111)"/><use xlink:href="#E" transform="matrix(1,0,0,1,541.7720450405076,1839.5833333333335) translate(124.62962962962963 96.26736111111111)"/><use xlink:href="#F" transform="matrix(1,0,0,1,541.7720450405076,1839.5833333333335) translate(0 122.9340277777778)"/><use xlink:href="#G" transform="matrix(1,0,0,1,541.7720450405076,1839.5833333333335) translate(22.22222222222222 122.9340277777778)"/><use xlink:href="#H" transform="matrix(1,0,0,1,541.7720450405076,1839.5833333333335) translate(90 122.9340277777778)"/><use xlink:href="#I" transform="matrix(1,0,0,1,541.7720450405076,1839.5833333333335) translate(170.24691358024688 122.9340277777778)"/><use xlink:href="#J" transform="matrix(1,0,0,1,541.7720450405076,1839.5833333333335) translate(187.4691358024691 122.9340277777778)"/><use xlink:href="#K" transform="matrix(1,0,0,1,541.7720450405076,1839.5833333333335) translate(233.95061728395058 122.9340277777778)"/><use xlink:href="#L" transform="matrix(1,0,0,1,541.7720450405076,1839.5833333333335) translate(272.16049382716045 122.9340277777778)"/><path d="M1780 2415.17c0-3.32 2.7-6 6-6h228c3.3 0 6 2.68 6 6v51.33c0 3.3-2.7 6-6 6h-228c-3.3 0-6-2.7-6-6z" stroke="#000" stroke-opacity="0" stroke-width="3" fill="#fff" fill-opacity="0"/><use xlink:href="#a" transform="matrix(1,0,0,1,1785,2414.166666666667) translate(3.8580246913580254 31.27777777777778)"/><use xlink:href="#b" transform="matrix(1,0,0,1,1785,2414.166666666667) translate(131.32716049382717 31.27777777777778)"/><use xlink:href="#c" transform="matrix(1,0,0,1,1785,2414.166666666667) translate(180.64814814814815 31.27777777777778)"/><path d="M800.28 1838.58v-77.7c0-.07-.06-.13-.14-.13-.08 0-.14-.06-.14-.14v-77.68" stroke="#333" stroke-width="2" fill="none"/><path d="M801.28 1839.58h-2v-1.02h2zM799.96 1681.92l1.04-.07v1.1h-2v-1.14z" fill="#333"/><path d="M1005 1726.83c0-3.3 2.7-6 6-6h178c3.3 0 6 2.7 6 6v78c0 3.32-2.7 6-6 6h-178c-3.3 0-6-2.68-6-6z" stroke="#000" stroke-opacity="0" stroke-width="3" fill="#fff" fill-opacity="0"/><use xlink:href="#M" transform="matrix(1,0,0,1,1010,1725.8333333333335) translate(44.44444444444444 17.77777777777778)"/><use xlink:href="#q" transform="matrix(1,0,0,1,1010,1725.8333333333335) translate(15.15432098765433 44.44444444444444)"/><use xlink:href="#N" transform="matrix(1,0,0,1,1010,1725.8333333333335) translate(118.7962962962963 44.44444444444444)"/><use xlink:href="#O" transform="matrix(1,0,0,1,1010,1725.8333333333335) translate(37.56172839506173 71.11111111111111)"/><path d="M1100 1719.83v-36.1" stroke="#333" stroke-width="2" fill="none"/><path d="M1101 1720.83h-2v-1.02h2zM1100.3 1682.76l.7-.05v1.05h-2v-1.15z" fill="#333"/><path d="M1110 1944.75c0-3.3 2.7-6 6-6h368c3.3 0 6 2.7 6 6v88c0 3.3-2.7 6-6 6h-368c-3.3 0-6-2.7-6-6z" stroke="#000" stroke-opacity="0" stroke-width="3" fill="#fff" fill-opacity="0"/><use xlink:href="#o" transform="matrix(1,0,0,1,1115,1943.7500000000002) translate(0 23.40277777777778)"/><use xlink:href="#p" transform="matrix(1,0,0,1,1115,1943.7500000000002) translate(22.22222222222222 23.40277777777778)"/><use xlink:href="#q" transform="matrix(1,0,0,1,1115,1943.7500000000002) translate(119.50617283950618 23.40277777777778)"/><use xlink:href="#P" transform="matrix(1,0,0,1,1115,1943.7500000000002) translate(223.14814814814815 23.40277777777778)"/><use xlink:href="#B" transform="matrix(1,0,0,1,1115,1943.7500000000002) translate(0 50.06944444444445)"/><use xlink:href="#G" transform="matrix(1,0,0,1,1115,1943.7500000000002) translate(22.22222222222222 50.06944444444445)"/><use xlink:href="#H" transform="matrix(1,0,0,1,1115,1943.7500000000002) translate(90 50.06944444444445)"/><use xlink:href="#I" transform="matrix(1,0,0,1,1115,1943.7500000000002) translate(170.24691358024688 50.06944444444445)"/><use xlink:href="#J" transform="matrix(1,0,0,1,1115,1943.7500000000002) translate(187.4691358024691 50.06944444444445)"/><use xlink:href="#K" transform="matrix(1,0,0,1,1115,1943.7500000000002) translate(233.95061728395058 50.06944444444445)"/><use xlink:href="#Q" transform="matrix(1,0,0,1,1115,1943.7500000000002) translate(272.16049382716045 50.06944444444445)"/><use xlink:href="#F" transform="matrix(1,0,0,1,1115,1943.7500000000002) translate(0 76.73611111111111)"/><use xlink:href="#C" transform="matrix(1,0,0,1,1115,1943.7500000000002) translate(22.22222222222222 76.73611111111111)"/><use xlink:href="#D" transform="matrix(1,0,0,1,1115,1943.7500000000002) translate(102.46913580246914 76.73611111111111)"/><use xlink:href="#R" transform="matrix(1,0,0,1,1115,1943.7500000000002) translate(124.62962962962963 76.73611111111111)"/><path d="M1300 1937.75v-54" stroke="#333" stroke-width="2" fill="none"/><path d="M1301 1938.75h-2v-1.03h2zM1299.96 1882.76l1.04-.07v1.08h-2v-1.14z" fill="#333"/><path d="M1200 1725.17c0-3.32 2.7-6 6-6h188c3.3 0 6 2.68 6 6v78c0 3.3-2.7 6-6 6h-188c-3.3 0-6-2.7-6-6z" stroke="#000" stroke-opacity="0" stroke-width="3" fill="#fff" fill-opacity="0"/><g><use xlink:href="#M" transform="matrix(1,0,0,1,1205,1724.1666666666667) translate(49.44444444444444 17.77777777777778)"/><use xlink:href="#S" transform="matrix(1,0,0,1,1205,1724.1666666666667) translate(46.26543209876543 44.44444444444444)"/><use xlink:href="#T" transform="matrix(1,0,0,1,1205,1724.1666666666667) translate(41.388888888888886 71.11111111111111)"/></g><path d="M1300 1718.17v-34.42" stroke="#333" stroke-width="2" fill="none"/><path d="M1301 1719.17h-2v-1.03h2zM1299.96 1682.76l1.04-.07v1.08h-2v-1.14z" fill="#333"/><path d="M1981.33 1560.8c0-3.32 2.68-6 6-6h228c3.3 0 6 2.68 6 6v131.33c0 3.3-2.7 6-6 6h-228c-3.32 0-6-2.7-6-6z" stroke="#000" stroke-opacity="0" stroke-width="3" fill="#fff" fill-opacity="0"/><g><use xlink:href="#U" transform="matrix(1,0,0,1,1986.3271489579106,1559.791666666667) translate(18.240740740740733 21.96527777777778)"/><use xlink:href="#V" transform="matrix(1,0,0,1,1986.3271489579106,1559.791666666667) translate(107.06790123456788 21.96527777777778)"/><use xlink:href="#W" transform="matrix(1,0,0,1,1986.3271489579106,1559.791666666667) translate(36.574074074074076 48.63194444444444)"/><use xlink:href="#X" transform="matrix(1,0,0,1,1986.3271489579106,1559.791666666667) translate(83.3641975308642 48.63194444444444)"/><use xlink:href="#Y" transform="matrix(1,0,0,1,1986.3271489579106,1559.791666666667) translate(105.15432098765432 75.29861111111111)"/><use xlink:href="#Z" transform="matrix(1,0,0,1,1986.3271489579106,1559.791666666667) translate(14.537037037037038 101.96527777777777)"/><use xlink:href="#aa" transform="matrix(1,0,0,1,1986.3271489579106,1559.791666666667) translate(20.709876543209877 101.96527777777777)"/><use xlink:href="#ab" transform="matrix(1,0,0,1,1986.3271489579106,1559.791666666667) translate(117.99382716049382 101.96527777777777)"/><use xlink:href="#ac" transform="matrix(1,0,0,1,1986.3271489579106,1559.791666666667) translate(20.802469135802482 128.63194444444446)"/><use xlink:href="#ad" transform="matrix(1,0,0,1,1986.3271489579106,1559.791666666667) translate(106.85185185185185 128.63194444444446)"/><use xlink:href="#ae" transform="matrix(1,0,0,1,1986.3271489579106,1559.791666666667) translate(129.01234567901236 128.63194444444446)"/></g><path d="M860 1580h200v36.67H860z" fill="#fff" fill-opacity="0"/><g><use xlink:href="#af" transform="matrix(1,0,0,1,865,1585) translate(1.7962962962963047 19.46527777777778)"/><use xlink:href="#ag" transform="matrix(1,0,0,1,865,1585) translate(64.6358024691358 19.46527777777778)"/><use xlink:href="#ah" transform="matrix(1,0,0,1,865,1585) translate(115.12962962962963 19.46527777777778)"/></g><path d="M960 1617.67v40.9" stroke="#333" stroke-width="2" fill="none"/><path d="M961 1617.7h-2v-1.03h2z" fill="#333"/><path d="M960 1658.56v1.02" stroke="#333" stroke-width="2" fill="none"/><path d="M1405 1725.17c0-3.32 2.7-6 6-6h178c3.3 0 6 2.68 6 6v78c0 3.3-2.7 6-6 6h-178c-3.3 0-6-2.7-6-6z" stroke="#000" stroke-opacity="0" stroke-width="3" fill="#fff" fill-opacity="0"/><g><use xlink:href="#M" transform="matrix(1,0,0,1,1410,1724.1666666666667) translate(44.44444444444444 17.77777777777778)"/><use xlink:href="#q" transform="matrix(1,0,0,1,1410,1724.1666666666667) translate(15.15432098765433 44.44444444444444)"/><use xlink:href="#N" transform="matrix(1,0,0,1,1410,1724.1666666666667) translate(118.7962962962963 44.44444444444444)"/><use xlink:href="#O" transform="matrix(1,0,0,1,1410,1724.1666666666667) translate(37.56172839506173 71.11111111111111)"/></g><path d="M1500 1810.17v26.08" stroke="#333" stroke-width="2" fill="none"/><path d="M1501 1810.2h-2v-1.03h2zM1501 1837.36l-.96-.12-1.04.07v-1.08h2z" fill="#333"/><path d="M1600 1725.17c0-3.32 2.7-6 6-6h188c3.3 0 6 2.68 6 6v78c0 3.3-2.7 6-6 6h-188c-3.3 0-6-2.7-6-6z" stroke="#000" stroke-opacity="0" stroke-width="3" fill="#fff" fill-opacity="0"/><g><use xlink:href="#M" transform="matrix(1,0,0,1,1605,1724.1666666666667) translate(49.44444444444444 17.77777777777778)"/><use xlink:href="#S" transform="matrix(1,0,0,1,1605,1724.1666666666667) translate(46.26543209876543 44.44444444444444)"/><use xlink:href="#T" transform="matrix(1,0,0,1,1605,1724.1666666666667) translate(41.388888888888886 71.11111111111111)"/></g><path d="M1700 1810.17v26.9" stroke="#333" stroke-width="2" fill="none"/><path d="M1701 1810.2h-2v-1.03h2zM1701 1838.2l-.96-.12-1.04.07v-1.1h2z" fill="#333"/><path d="M1510 2146c0-3.3 2.7-6 6-6h368c3.3 0 6 2.7 6 6v88c0 3.3-2.7 6-6 6h-368c-3.3 0-6-2.7-6-6z" stroke="#000" stroke-opacity="0" stroke-width="3" fill="#fff" fill-opacity="0"/><g><use xlink:href="#o" transform="matrix(1,0,0,1,1515,2145) translate(0 23.40277777777778)"/><use xlink:href="#p" transform="matrix(1,0,0,1,1515,2145) translate(22.22222222222222 23.40277777777778)"/><use xlink:href="#q" transform="matrix(1,0,0,1,1515,2145) translate(119.50617283950618 23.40277777777778)"/><use xlink:href="#P" transform="matrix(1,0,0,1,1515,2145) translate(223.14814814814815 23.40277777777778)"/><use xlink:href="#B" transform="matrix(1,0,0,1,1515,2145) translate(0 50.06944444444445)"/><use xlink:href="#G" transform="matrix(1,0,0,1,1515,2145) translate(22.22222222222222 50.06944444444445)"/><use xlink:href="#H" transform="matrix(1,0,0,1,1515,2145) translate(90 50.06944444444445)"/><use xlink:href="#I" transform="matrix(1,0,0,1,1515,2145) translate(170.24691358024688 50.06944444444445)"/><use xlink:href="#J" transform="matrix(1,0,0,1,1515,2145) translate(187.4691358024691 50.06944444444445)"/><use xlink:href="#K" transform="matrix(1,0,0,1,1515,2145) translate(233.95061728395058 50.06944444444445)"/><use xlink:href="#Q" transform="matrix(1,0,0,1,1515,2145) translate(272.16049382716045 50.06944444444445)"/><use xlink:href="#F" transform="matrix(1,0,0,1,1515,2145) translate(0 76.73611111111111)"/><use xlink:href="#C" transform="matrix(1,0,0,1,1515,2145) translate(22.22222222222222 76.73611111111111)"/><use xlink:href="#D" transform="matrix(1,0,0,1,1515,2145) translate(102.46913580246914 76.73611111111111)"/><use xlink:href="#R" transform="matrix(1,0,0,1,1515,2145) translate(124.62962962962963 76.73611111111111)"/></g><path d="M1700 2139v-55.25" stroke="#333" stroke-width="2" fill="none"/><path d="M1701 2140h-2v-1.03h2zM1699.96 2082.76l1.04-.07v1.08h-2v-1.14z" fill="#333"/><path d="M1805 1916c0-3.3 2.7-6 6-6h178c3.3 0 6 2.7 6 6v78c0 3.3-2.7 6-6 6h-178c-3.3 0-6-2.7-6-6z" stroke="#000" stroke-opacity="0" stroke-width="3" fill="#fff" fill-opacity="0"/><g><use xlink:href="#M" transform="matrix(1,0,0,1,1810,1915) translate(44.44444444444444 17.77777777777778)"/><use xlink:href="#q" transform="matrix(1,0,0,1,1810,1915) translate(15.15432098765433 44.44444444444444)"/><use xlink:href="#N" transform="matrix(1,0,0,1,1810,1915) translate(118.7962962962963 44.44444444444444)"/><use xlink:href="#O" transform="matrix(1,0,0,1,1810,1915) translate(37.56172839506173 71.11111111111111)"/></g><path d="M1900 2001v35.25" stroke="#333" stroke-width="2" fill="none"/><path d="M1901 2001.03h-2V2000h2zM1901 2037.36l-.96-.12-1.04.07v-1.08h2z" fill="#333"/><path d="M2000 1916c0-3.3 2.7-6 6-6h188c3.3 0 6 2.7 6 6v78c0 3.3-2.7 6-6 6h-188c-3.3 0-6-2.7-6-6z" stroke="#000" stroke-opacity="0" stroke-width="3" fill="#fff" fill-opacity="0"/><g><use xlink:href="#M" transform="matrix(1,0,0,1,2005,1915) translate(49.44444444444444 17.77777777777778)"/><use xlink:href="#S" transform="matrix(1,0,0,1,2005,1915) translate(46.26543209876543 44.44444444444444)"/><use xlink:href="#T" transform="matrix(1,0,0,1,2005,1915) translate(41.388888888888886 71.11111111111111)"/></g><path d="M2100 2001v36.08" stroke="#333" stroke-width="2" fill="none"/><path d="M2101 2001.03h-2V2000h2zM2101 2038.2l-.96-.12-1.04.07v-1.1h2z" fill="#333"/><defs><path fill="#333" d="M247 0h-39l-15-214-24 57L95 0H56L31-248h35L82-30l101-218h33l16 218 101-218h35" id="ai"/><path fill="#333" d="M111-194c62-3 86 47 72 106H45c-7 38 6 69 45 68 27-1 43-14 53-32l24 11C152-15 129 4 87 4 38 3 12-23 12-71c0-70 32-119 99-123zm44 81c14-66-71-72-95-28-4 8-8 17-11 28h106" id="aj"/><path fill="#333" d="M133-28C103 26-5 8 13-77c13-62 24-115 90-117 29-1 46 15 56 35l19-102h32L160 0h-30zM45-64c-2 27 10 43 35 43 54-1 69-50 69-103 0-29-15-46-42-46-53-1-58 58-62 106" id="ak"/><path fill="#333" d="M67-158c22-48 132-52 116 29L158 0h-32l25-140c3-38-53-32-70-12C52-117 51-52 38 0H6l36-190h30" id="al"/><path fill="#333" d="M55-144c13 50 104 24 104 88C159 21 15 23 1-39l26-10c6 40 102 42 102-4-13-50-104-23-104-87 0-71 143-71 148-8l-29 4c-5-35-85-37-89 0" id="am"/><path fill="#333" d="M165-48c-4 18 1 34 23 27l-3 20c-29 8-62 0-52-35h-2C116-14 99 4 63 4 30 4 8-16 8-49c0-68 71-67 138-67 10-26 0-56-31-54-26 1-42 9-47 31l-32-5c8-67 160-71 144 15-5 28-9 54-15 81zM42-50c3 52 80 24 89-6 7-12 7-24 11-38-47 1-103-4-100 44" id="an"/><path fill="#333" d="M198-190L69 30C53 58 25 83-20 72c4-11-1-27 19-22 33-1 43-29 59-52L20-190h32L79-34l84-156h35" id="ao"/><path fill="#333" d="M58-38C53-5 46 26 28 46H7C19 32 27 18 32 0H17l7-38h34" id="ap"/><g id="a"><use transform="matrix(0.06172839506172839,0,0,0.06172839506172839,0,0)" xlink:href="#ai"/><use transform="matrix(0.06172839506172839,0,0,0.06172839506172839,20.493827160493826,0)" xlink:href="#aj"/><use transform="matrix(0.06172839506172839,0,0,0.06172839506172839,32.839506172839506,0)" xlink:href="#ak"/><use transform="matrix(0.06172839506172839,0,0,0.06172839506172839,45.18518518518518,0)" xlink:href="#al"/><use transform="matrix(0.06172839506172839,0,0,0.06172839506172839,57.53086419753086,0)" xlink:href="#aj"/><use transform="matrix(0.06172839506172839,0,0,0.06172839506172839,69.87654320987654,0)" xlink:href="#am"/><use transform="matrix(0.06172839506172839,0,0,0.06172839506172839,80.98765432098766,0)" xlink:href="#ak"/><use transform="matrix(0.06172839506172839,0,0,0.06172839506172839,93.33333333333334,0)" xlink:href="#an"/><use transform="matrix(0.06172839506172839,0,0,0.06172839506172839,105.67901234567903,0)" xlink:href="#ao"/><use transform="matrix(0.06172839506172839,0,0,0.06172839506172839,115.12345679012347,0)" xlink:href="#ap"/></g><path fill="#333" d="M149-56L138 0h-32l11-56H2l5-25 144-167h35L154-81h33l-5 25h-33zm-4-147L40-81h82" id="aq"/><path fill="#333" d="M67-162c32-53 139-36 121 50C175-51 163 2 97 4 68 4 52-11 42-31 38 6 28 39 22 75H-9l50-265h29c-1 10 0 20-3 28zm89 36c0-26-10-43-35-43-54 0-67 50-69 103-1 29 14 45 42 46 53 0 62-58 62-106" id="ar"/><path fill="#333" d="M248-111c6-24 9-61-24-58-72 9-57 108-77 169h-31l26-142c3-37-50-30-64-10C52-115 50-51 37 0H6l36-190h30c-1 10-6 24-4 32 13-43 101-52 105 5 13-22 29-41 61-41 90 0 28 129 23 194h-31" id="as"/><g id="b"><use transform="matrix(0.06172839506172839,0,0,0.06172839506172839,0,0)" xlink:href="#aq"/><use transform="matrix(0.06172839506172839,0,0,0.06172839506172839,12.345679012345679,0)" xlink:href="#ar"/><use transform="matrix(0.06172839506172839,0,0,0.06172839506172839,24.691358024691358,0)" xlink:href="#as"/></g><path fill="#333" d="M62-99C39-31 123 0 170-40s38-139 58-208h34C234-144 253 4 115 4 49 4 18-43 31-112l26-136h34" id="at"/><path fill="#333" d="M151-220L108 0H75l42-220H32l6-28h203l-5 28h-85" id="au"/><path fill="#333" d="M125-24c46 0 70-25 89-51l25 16C214-24 183 4 123 4 8 4-5-146 60-208c32-50 158-61 191-5 5 7 9 14 11 22l-32 10c-9-28-33-43-69-43-74 0-108 51-108 125 0 46 24 75 72 75" id="av"/><g id="c"><use transform="matrix(0.06172839506172839,0,0,0.06172839506172839,0,0)" xlink:href="#at"/><use transform="matrix(0.06172839506172839,0,0,0.06172839506172839,15.987654320987653,0)" xlink:href="#au"/><use transform="matrix(0.06172839506172839,0,0,0.06172839506172839,29.50617283950617,0)" xlink:href="#av"/></g><path fill="#333" d="M50-231l6-30h32l-6 30H50zM6 0l37-190h31L37 0H6" id="aw"/><g id="d"><use transform="matrix(0.06172839506172839,0,0,0.06172839506172839,0,0)" xlink:href="#au"/><use transform="matrix(0.06172839506172839,0,0,0.06172839506172839,13.333333333333332,0)" xlink:href="#aw"/><use transform="matrix(0.06172839506172839,0,0,0.06172839506172839,18.209876543209873,0)" xlink:href="#as"/><use transform="matrix(0.06172839506172839,0,0,0.06172839506172839,36.66666666666666,0)" xlink:href="#aj"/></g><path fill="#fff" d="M266 0h-40l-56-210L115 0H75L2-248h35L96-30l15-64 43-154h32l59 218 59-218h35" id="ax"/><path fill="#fff" d="M100-194c62-1 85 37 85 99 1 63-27 99-86 99S16-35 15-95c0-66 28-99 85-99zM99-20c44 1 53-31 53-75 0-43-8-75-51-75s-53 32-53 75 10 74 51 75" id="ay"/><path fill="#fff" d="M114-163C36-179 61-72 57 0H25l-1-190h30c1 12-1 29 2 39 6-27 23-49 58-41v29" id="az"/><path fill="#fff" d="M143 0L79-87 56-68V0H24v-261h32v163l83-92h37l-77 82L181 0h-38" id="aA"/><path fill="#fff" d="M101-234c-31-9-42 10-38 44h38v23H63V0H32v-167H5v-23h27c-7-52 17-82 69-68v24" id="aB"/><path fill="#fff" d="M24 0v-261h32V0H24" id="aC"/><path fill="#fff" d="M206 0h-36l-40-164L89 0H53L-1-190h32L70-26l43-164h34l41 164 42-164h31" id="aD"/><g id="e"><use transform="matrix(0.08641975308641973,0,0,0.08641975308641973,0,0)" xlink:href="#ax"/><use transform="matrix(0.06172839506172839,0,0,0.06172839506172839,29.29629629629629,0)" xlink:href="#ay"/><use transform="matrix(0.06172839506172839,0,0,0.06172839506172839,41.64197530864197,0)" xlink:href="#az"/><use transform="matrix(0.06172839506172839,0,0,0.06172839506172839,48.987654320987644,0)" xlink:href="#aA"/><use transform="matrix(0.06172839506172839,0,0,0.06172839506172839,60.09876543209876,0)" xlink:href="#aB"/><use transform="matrix(0.06172839506172839,0,0,0.06172839506172839,66.2716049382716,0)" xlink:href="#aC"/><use transform="matrix(0.06172839506172839,0,0,0.06172839506172839,71.14814814814814,0)" xlink:href="#ay"/><use transform="matrix(0.06172839506172839,0,0,0.06172839506172839,83.49382716049382,0)" xlink:href="#aD"/></g><path fill="#fff" d="M30 0v-248h187v28H63v79h144v27H63v87h162V0H30" id="aE"/><path fill="#fff" d="M141 0L90-78 38 0H4l68-98-65-92h35l48 74 47-74h35l-64 92 68 98h-35" id="aF"/><path fill="#fff" d="M100-194c63 0 86 42 84 106H49c0 40 14 67 53 68 26 1 43-12 49-29l28 8c-11 28-37 45-77 45C44 4 14-33 15-96c1-61 26-98 85-98zm52 81c6-60-76-77-97-28-3 7-6 17-6 28h103" id="aG"/><path fill="#fff" d="M96-169c-40 0-48 33-48 73s9 75 48 75c24 0 41-14 43-38l32 2c-6 37-31 61-74 61-59 0-76-41-82-99-10-93 101-131 147-64 4 7 5 14 7 22l-32 3c-4-21-16-35-41-35" id="aH"/><path fill="#fff" d="M84 4C-5 8 30-112 23-190h32v120c0 31 7 50 39 49 72-2 45-101 50-169h31l1 190h-30c-1-10 1-25-2-33-11 22-28 36-60 37" id="aI"/><path fill="#fff" d="M59-47c-2 24 18 29 38 22v24C64 9 27 4 27-40v-127H5v-23h24l9-43h21v43h35v23H59v120" id="aJ"/><path fill="#fff" d="M24-231v-30h32v30H24zM24 0v-190h32V0H24" id="aK"/><path fill="#fff" d="M117-194c89-4 53 116 60 194h-32v-121c0-31-8-49-39-48C34-167 62-67 57 0H25l-1-190h30c1 10-1 24 2 32 11-22 29-35 61-36" id="aL"/><g id="f"><use transform="matrix(0.08641975308641973,0,0,0.08641975308641973,0,0)" xlink:href="#aE"/><use transform="matrix(0.06172839506172839,0,0,0.06172839506172839,20.740740740740737,0)" xlink:href="#aF"/><use transform="matrix(0.06172839506172839,0,0,0.06172839506172839,31.85185185185185,0)" xlink:href="#aG"/><use transform="matrix(0.06172839506172839,0,0,0.06172839506172839,44.197530864197525,0)" xlink:href="#aH"/><use transform="matrix(0.06172839506172839,0,0,0.06172839506172839,55.30864197530863,0)" xlink:href="#aI"/><use transform="matrix(0.06172839506172839,0,0,0.06172839506172839,67.65432098765432,0)" xlink:href="#aJ"/><use transform="matrix(0.06172839506172839,0,0,0.06172839506172839,73.82716049382715,0)" xlink:href="#aK"/><use transform="matrix(0.06172839506172839,0,0,0.06172839506172839,78.7037037037037,0)" xlink:href="#ay"/><use transform="matrix(0.06172839506172839,0,0,0.06172839506172839,91.04938271604938,0)" xlink:href="#aL"/></g><path fill="#fff" d="M27 0v-27h64v-190l-56 39v-29l58-41h29v221h61V0H27" id="aM"/><path fill="#fff" d="M135-143c-3-34-86-38-87 0 15 53 115 12 119 90S17 21 10-45l28-5c4 36 97 45 98 0-10-56-113-15-118-90-4-57 82-63 122-42 12 7 21 19 24 35" id="aN"/><g id="g"><use transform="matrix(0.06172839506172835,0,0,0.06172839506172835,0,0)" xlink:href="#aM"/><use transform="matrix(0.06172839506172835,0,0,0.06172839506172835,12.34567901234567,0)" xlink:href="#aN"/><use transform="matrix(0.06172839506172835,0,0,0.06172839506172835,23.456790123456774,0)" xlink:href="#aJ"/></g><path fill="#fff" d="M233-177c-1 41-23 64-60 70L243 0h-38l-65-103H63V0H30v-248c88 3 205-21 203 71zM63-129c60-2 137 13 137-47 0-61-80-42-137-45v92" id="aO"/><g id="h"><use transform="matrix(0.06172839506172835,0,0,0.06172839506172835,0,0)" xlink:href="#aO"/><use transform="matrix(0.06172839506172837,0,0,0.06172839506172837,15.987654320987641,0)" xlink:href="#aI"/><use transform="matrix(0.06172839506172837,0,0,0.06172839506172837,28.333333333333314,0)" xlink:href="#aL"/></g><g id="i"><use transform="matrix(0.08641975308641973,0,0,0.08641975308641973,0,0)" xlink:href="#ax"/><use transform="matrix(0.06172839506172839,0,0,0.06172839506172839,29.29629629629629,0)" xlink:href="#ay"/><use transform="matrix(0.06172839506172839,0,0,0.06172839506172839,41.64197530864197,0)" xlink:href="#az"/><use transform="matrix(0.06172839506172839,0,0,0.06172839506172839,48.987654320987644,0)" xlink:href="#aA"/><use transform="matrix(0.06172839506172839,0,0,0.06172839506172839,60.09876543209876,0)" xlink:href="#aB"/><use transform="matrix(0.06172839506172839,0,0,0.06172839506172839,66.2716049382716,0)" xlink:href="#aC"/><use transform="matrix(0.06172839506172839,0,0,0.06172839506172839,71.14814814814814,0)" xlink:href="#ay"/><use transform="matrix(0.06172839506172839,0,0,0.06172839506172839,83.49382716049382,0)" xlink:href="#aD"/></g><g id="j"><use transform="matrix(0.08641975308641973,0,0,0.08641975308641973,0,0)" xlink:href="#aE"/><use transform="matrix(0.06172839506172839,0,0,0.06172839506172839,20.740740740740737,0)" xlink:href="#aF"/><use transform="matrix(0.06172839506172839,0,0,0.06172839506172839,31.85185185185185,0)" xlink:href="#aG"/><use transform="matrix(0.06172839506172839,0,0,0.06172839506172839,44.197530864197525,0)" xlink:href="#aH"/><use transform="matrix(0.06172839506172839,0,0,0.06172839506172839,55.30864197530863,0)" xlink:href="#aI"/><use transform="matrix(0.06172839506172839,0,0,0.06172839506172839,67.65432098765432,0)" xlink:href="#aJ"/><use transform="matrix(0.06172839506172839,0,0,0.06172839506172839,73.82716049382715,0)" xlink:href="#aK"/><use transform="matrix(0.06172839506172839,0,0,0.06172839506172839,78.7037037037037,0)" xlink:href="#ay"/><use transform="matrix(0.06172839506172839,0,0,0.06172839506172839,91.04938271604938,0)" xlink:href="#aL"/></g><path fill="#fff" d="M101-251c82-7 93 87 43 132L82-64C71-53 59-42 53-27h129V0H18c2-99 128-94 128-182 0-28-16-43-45-43s-46 15-49 41l-32-3c6-41 34-60 81-64" id="aP"/><path fill="#fff" d="M85-194c31 0 48 13 60 33l-1-100h32l1 261h-30c-2-10 0-23-3-31C134-8 116 4 85 4 32 4 16-35 15-94c0-66 23-100 70-100zm9 24c-40 0-46 34-46 75 0 40 6 74 45 74 42 0 51-32 51-76 0-42-9-74-50-73" id="aQ"/><g id="k"><use transform="matrix(0.06172839506172835,0,0,0.06172839506172835,0,0)" xlink:href="#aP"/><use transform="matrix(0.06172839506172835,0,0,0.06172839506172835,12.34567901234567,0)" xlink:href="#aL"/><use transform="matrix(0.06172839506172835,0,0,0.06172839506172835,24.69135802469134,0)" xlink:href="#aQ"/></g><g id="l"><use transform="matrix(0.06172839506172835,0,0,0.06172839506172835,0,0)" xlink:href="#aO"/><use transform="matrix(0.06172839506172837,0,0,0.06172839506172837,15.987654320987641,0)" xlink:href="#aI"/><use transform="matrix(0.06172839506172837,0,0,0.06172839506172837,28.333333333333314,0)" xlink:href="#aL"/></g><g id="m"><use transform="matrix(0.08641975308641973,0,0,0.08641975308641973,0,0)" xlink:href="#aE"/><use transform="matrix(0.06172839506172839,0,0,0.06172839506172839,20.740740740740737,0)" xlink:href="#aF"/><use transform="matrix(0.06172839506172839,0,0,0.06172839506172839,31.85185185185185,0)" xlink:href="#aG"/><use transform="matrix(0.06172839506172839,0,0,0.06172839506172839,44.197530864197525,0)" xlink:href="#aH"/><use transform="matrix(0.06172839506172839,0,0,0.06172839506172839,55.30864197530863,0)" xlink:href="#aI"/><use transform="matrix(0.06172839506172839,0,0,0.06172839506172839,67.65432098765432,0)" xlink:href="#aJ"/><use transform="matrix(0.06172839506172839,0,0,0.06172839506172839,73.82716049382715,0)" xlink:href="#aK"/><use transform="matrix(0.06172839506172839,0,0,0.06172839506172839,78.7037037037037,0)" xlink:href="#ay"/><use transform="matrix(0.06172839506172839,0,0,0.06172839506172839,91.04938271604938,0)" xlink:href="#aL"/></g><path fill="#fff" d="M126-127c33 6 58 20 58 59 0 88-139 92-164 29-3-8-5-16-6-25l32-3c6 27 21 44 54 44 32 0 52-15 52-46 0-38-36-46-79-43v-28c39 1 72-4 72-42 0-27-17-43-46-43-28 0-47 15-49 41l-32-3c6-42 35-63 81-64 48-1 79 21 79 65 0 36-21 52-52 59" id="aR"/><g id="n"><use transform="matrix(0.06172839506172835,0,0,0.06172839506172835,0,0)" xlink:href="#aR"/><use transform="matrix(0.06172839506172835,0,0,0.06172839506172835,12.34567901234567,0)" xlink:href="#az"/><use transform="matrix(0.06172839506172835,0,0,0.06172839506172835,19.691358024691343,0)" xlink:href="#aQ"/></g><path fill="#333" d="M9 0l6-27h63l36-188-63 39 6-31 66-41h29L110-27h60l-5 27H9" id="aS"/><path fill="#333" d="M14 0l8-38h34L48 0H14" id="aT"/><g id="o"><use transform="matrix(0.06172839506172839,0,0,0.06172839506172839,0,0)" xlink:href="#aS"/><use transform="matrix(0.06172839506172839,0,0,0.06172839506172839,12.345679012345679,0)" xlink:href="#aT"/></g><path fill="#333" d="M30-147c31-64 166-65 159 27C183-49 158 1 86 4 9 8 1-88 30-147zM88-20c53 0 68-48 68-100 0-31-11-51-44-50-52 1-68 46-68 97 0 32 13 53 44 53" id="aU"/><path fill="#333" d="M66-151c12-25 30-51 66-40l-6 26C45-176 58-65 38 0H6l36-190h30" id="aV"/><path fill="#333" d="M127 0L80-88 50-66 37 0H6l51-261h31L57-100l99-90h39l-93 82L161 0h-34" id="aW"/><path fill="#333" d="M76-167L44 0H12l33-167H18l4-23h27c3-47 25-81 82-69l-4 24c-35-8-44 15-46 45h37l-5 23H76" id="aX"/><path fill="#333" d="M6 0l50-261h32L37 0H6" id="aY"/><path fill="#333" d="M188 0h-37l-8-164L71 0H34L18-190h31l8 164 75-164h34l8 164 74-164h31" id="aZ"/><g id="p"><use transform="matrix(0.06172839506172839,0,0,0.06172839506172839,0,0)" xlink:href="#ai"/><use transform="matrix(0.06172839506172839,0,0,0.06172839506172839,20.925925925925924,0)" xlink:href="#aU"/><use transform="matrix(0.06172839506172839,0,0,0.06172839506172839,33.2716049382716,0)" xlink:href="#aV"/><use transform="matrix(0.06172839506172839,0,0,0.06172839506172839,40.61728395061728,0)" xlink:href="#aW"/><use transform="matrix(0.06172839506172839,0,0,0.06172839506172839,51.72839506172839,0)" xlink:href="#aX"/><use transform="matrix(0.06172839506172839,0,0,0.06172839506172839,57.901234567901234,0)" xlink:href="#aY"/><use transform="matrix(0.06172839506172839,0,0,0.06172839506172839,62.77777777777778,0)" xlink:href="#aU"/><use transform="matrix(0.06172839506172839,0,0,0.06172839506172839,75.12345679012346,0)" xlink:href="#aZ"/></g><path fill="#333" d="M11 0l48-248h184l-5 28H87l-15 79h140l-5 27H67L50-27h158l-5 27H11" id="ba"/><path fill="#333" d="M124 0L87-78 21 0h-35l86-98-46-92h33l34 74 61-74h37l-83 92 50 98h-34" id="bb"/><path fill="#333" d="M44-68c0 29 11 47 38 47 30 0 42-19 51-41l28 9C148-21 126 4 82 4 31 4 10-29 12-85c3-77 74-140 146-93 12 8 15 23 18 40l-31 5c-1-22-13-36-36-36-52 0-65 49-65 101" id="bc"/><path fill="#333" d="M67 3c-93-2-31-127-26-193h32L48-50c-3 39 53 32 70 12 30-34 30-101 43-152h32L157 0h-30c1-10 6-24 4-33-14 20-29 37-64 36" id="bd"/><path fill="#333" d="M51-54c-9 22 5 41 31 30L79-1C43 14 10-4 19-52l22-115H19l5-23h22l19-43h21l-9 43h35l-4 23H73" id="be"/><g id="q"><use transform="matrix(0.06172839506172839,0,0,0.06172839506172839,0,0)" xlink:href="#ba"/><use transform="matrix(0.06172839506172839,0,0,0.06172839506172839,14.814814814814813,0)" xlink:href="#bb"/><use transform="matrix(0.06172839506172839,0,0,0.06172839506172839,25.925925925925924,0)" xlink:href="#aj"/><use transform="matrix(0.06172839506172839,0,0,0.06172839506172839,38.2716049382716,0)" xlink:href="#bc"/><use transform="matrix(0.06172839506172839,0,0,0.06172839506172839,49.38271604938271,0)" xlink:href="#bd"/><use transform="matrix(0.06172839506172839,0,0,0.06172839506172839,61.728395061728385,0)" xlink:href="#be"/><use transform="matrix(0.06172839506172839,0,0,0.06172839506172839,67.90123456790123,0)" xlink:href="#aw"/><use transform="matrix(0.06172839506172839,0,0,0.06172839506172839,72.77777777777777,0)" xlink:href="#aU"/><use transform="matrix(0.06172839506172839,0,0,0.06172839506172839,85.12345679012346,0)" xlink:href="#al"/></g><path fill="#333" d="M194-120c59 52 2 134-86 124-53-6-90-18-98-63l31-7c8 30 29 43 70 43 46 0 84-17 71-62-32-43-135-20-137-98-3-89 178-90 191-16l-30 9c-8-48-127-53-127 5 0 53 81 35 115 65" id="bf"/><g id="r"><use transform="matrix(0.06172839506172839,0,0,0.06172839506172839,0,0)" xlink:href="#bf"/><use transform="matrix(0.06172839506172839,0,0,0.06172839506172839,14.814814814814813,0)" xlink:href="#be"/><use transform="matrix(0.06172839506172839,0,0,0.06172839506172839,20.98765432098765,0)" xlink:href="#an"/><use transform="matrix(0.06172839506172839,0,0,0.06172839506172839,33.33333333333333,0)" xlink:href="#aV"/><use transform="matrix(0.06172839506172839,0,0,0.06172839506172839,40.679012345679006,0)" xlink:href="#be"/><use transform="matrix(0.06172839506172839,0,0,0.06172839506172839,46.85185185185185,0)" xlink:href="#aj"/><use transform="matrix(0.06172839506172839,0,0,0.06172839506172839,59.197530864197525,0)" xlink:href="#ak"/></g><path fill="#333" d="M67-158c15-20 31-36 64-36 94 0 33 127 27 194h-32l25-140c3-38-53-32-70-12C52-117 51-51 37 0H6l51-261h31" id="bg"/><g id="s"><use transform="matrix(0.06172839506172839,0,0,0.06172839506172839,0,0)" xlink:href="#aZ"/><use transform="matrix(0.06172839506172839,0,0,0.06172839506172839,15.987654320987653,0)" xlink:href="#aw"/><use transform="matrix(0.06172839506172839,0,0,0.06172839506172839,20.864197530864196,0)" xlink:href="#be"/><use transform="matrix(0.06172839506172839,0,0,0.06172839506172839,27.037037037037035,0)" xlink:href="#bg"/></g><use transform="matrix(0.06172839506172839,0,0,0.06172839506172839,0,0)" xlink:href="#an" id="t"/><g id="u"><use transform="matrix(0.06172839506172839,0,0,0.06172839506172839,0,0)" xlink:href="#av"/><use transform="matrix(0.06172839506172839,0,0,0.06172839506172839,15.987654320987653,0)" xlink:href="#aV"/><use transform="matrix(0.06172839506172839,0,0,0.06172839506172839,23.333333333333332,0)" xlink:href="#aU"/><use transform="matrix(0.06172839506172839,0,0,0.06172839506172839,35.67901234567901,0)" xlink:href="#al"/></g><path fill="#333" d="M44-154l7-36h35l-8 36H44zM14 0l7-36h35L49 0H14" id="bh"/><g id="v"><use transform="matrix(0.06172839506172839,0,0,0.06172839506172839,0,0)" xlink:href="#bf"/><use transform="matrix(0.06172839506172839,0,0,0.06172839506172839,14.814814814814813,0)" xlink:href="#bc"/><use transform="matrix(0.06172839506172839,0,0,0.06172839506172839,25.925925925925924,0)" xlink:href="#bg"/><use transform="matrix(0.06172839506172839,0,0,0.06172839506172839,38.2716049382716,0)" xlink:href="#aj"/><use transform="matrix(0.06172839506172839,0,0,0.06172839506172839,50.61728395061728,0)" xlink:href="#ak"/><use transform="matrix(0.06172839506172839,0,0,0.06172839506172839,62.962962962962955,0)" xlink:href="#bd"/><use transform="matrix(0.06172839506172839,0,0,0.06172839506172839,75.30864197530863,0)" xlink:href="#aY"/><use transform="matrix(0.06172839506172839,0,0,0.06172839506172839,80.18518518518518,0)" xlink:href="#aj"/><use transform="matrix(0.06172839506172839,0,0,0.06172839506172839,92.53086419753086,0)" xlink:href="#bh"/></g><path fill="#333" d="M89 0H52L20-190h33L74-25l89-165h34" id="bi"/><g id="w"><use transform="matrix(0.06172839506172839,0,0,0.06172839506172839,0,0)" xlink:href="#ba"/><use transform="matrix(0.06172839506172839,0,0,0.06172839506172839,14.814814814814813,0)" xlink:href="#bi"/><use transform="matrix(0.06172839506172839,0,0,0.06172839506172839,25.925925925925924,0)" xlink:href="#aj"/><use transform="matrix(0.06172839506172839,0,0,0.06172839506172839,38.2716049382716,0)" xlink:href="#aV"/><use transform="matrix(0.06172839506172839,0,0,0.06172839506172839,45.61728395061728,0)" xlink:href="#ao"/></g><g id="x"><use transform="matrix(0.06172839506172839,0,0,0.06172839506172839,0,0)" xlink:href="#ai"/><use transform="matrix(0.06172839506172839,0,0,0.06172839506172839,20.493827160493826,0)" xlink:href="#aj"/><use transform="matrix(0.06172839506172839,0,0,0.06172839506172839,32.839506172839506,0)" xlink:href="#ak"/><use transform="matrix(0.06172839506172839,0,0,0.06172839506172839,45.18518518518518,0)" xlink:href="#al"/><use transform="matrix(0.06172839506172839,0,0,0.06172839506172839,57.53086419753086,0)" xlink:href="#aj"/><use transform="matrix(0.06172839506172839,0,0,0.06172839506172839,69.87654320987654,0)" xlink:href="#am"/><use transform="matrix(0.06172839506172839,0,0,0.06172839506172839,80.98765432098766,0)" xlink:href="#ak"/><use transform="matrix(0.06172839506172839,0,0,0.06172839506172839,93.33333333333334,0)" xlink:href="#an"/><use transform="matrix(0.06172839506172839,0,0,0.06172839506172839,105.67901234567903,0)" xlink:href="#ao"/></g><g id="y"><use transform="matrix(0.06172839506172839,0,0,0.06172839506172839,0,0)" xlink:href="#an"/><use transform="matrix(0.06172839506172839,0,0,0.06172839506172839,12.345679012345679,0)" xlink:href="#be"/></g><g id="z"><use transform="matrix(0.06172839506172839,0,0,0.06172839506172839,0,0)" xlink:href="#aq"/><use transform="matrix(0.06172839506172839,0,0,0.06172839506172839,12.345679012345679,0)" xlink:href="#ar"/><use transform="matrix(0.06172839506172839,0,0,0.06172839506172839,24.691358024691358,0)" xlink:href="#as"/></g><g id="A"><use transform="matrix(0.06172839506172839,0,0,0.06172839506172839,0,0)" xlink:href="#at"/><use transform="matrix(0.06172839506172839,0,0,0.06172839506172839,15.987654320987653,0)" xlink:href="#au"/><use transform="matrix(0.06172839506172839,0,0,0.06172839506172839,29.50617283950617,0)" xlink:href="#av"/></g><path fill="#333" d="M123-251c66 0 92 69 53 113C138-94 73-75 39-27h128l-5 27H-2c17-92 123-93 159-163 14-28-1-64-36-62-29 2-46 17-54 41l-30-6c13-36 37-61 86-61" id="bj"/><g id="B"><use transform="matrix(0.06172839506172839,0,0,0.06172839506172839,0,0)" xlink:href="#bj"/><use transform="matrix(0.06172839506172839,0,0,0.06172839506172839,12.345679012345679,0)" xlink:href="#aT"/></g><path fill="#333" d="M219-77C219 17 104-2 11 0l48-248c73 2 169-15 169 57 0 38-24 54-60 60 29 5 51 21 51 54zm-26-111c0-44-62-31-105-33l-16 79c55 0 121 9 121-46zm-7 110c-1-49-69-36-119-38L50-27c61-1 137 12 136-51" id="bk"/><g id="C"><use transform="matrix(0.06172839506172839,0,0,0.06172839506172839,0,0)" xlink:href="#bk"/><use transform="matrix(0.06172839506172839,0,0,0.06172839506172839,14.814814814814813,0)" xlink:href="#an"/><use transform="matrix(0.06172839506172839,0,0,0.06172839506172839,27.160493827160494,0)" xlink:href="#bc"/><use transform="matrix(0.06172839506172839,0,0,0.06172839506172839,38.27160493827161,0)" xlink:href="#aW"/><use transform="matrix(0.06172839506172839,0,0,0.06172839506172839,49.38271604938272,0)" xlink:href="#aU"/><use transform="matrix(0.06172839506172839,0,0,0.06172839506172839,61.7283950617284,0)" xlink:href="#aX"/><use transform="matrix(0.06172839506172839,0,0,0.06172839506172839,67.90123456790124,0)" xlink:href="#aX"/></g><g id="D"><use transform="matrix(0.06172839506172839,0,0,0.06172839506172839,0,0)" xlink:href="#aw"/><use transform="matrix(0.06172839506172839,0,0,0.06172839506172839,4.876543209876543,0)" xlink:href="#am"/></g><g id="E"><use transform="matrix(0.06172839506172839,0,0,0.06172839506172839,0,0)" xlink:href="#am"/><use transform="matrix(0.06172839506172839,0,0,0.06172839506172839,11.11111111111111,0)" xlink:href="#aj"/><use transform="matrix(0.06172839506172839,0,0,0.06172839506172839,23.45679012345679,0)" xlink:href="#be"/></g><path fill="#333" d="M148-71c0-36-31-44-71-41l5-28c46 3 81-6 81-50 0-23-15-35-39-35-30 0-49 17-56 41l-32-3c12-39 42-63 90-64 43 0 69 19 71 60 1 43-30 58-65 66 27 5 49 22 49 53 0 85-133 99-164 35-4-7-7-15-9-22l29-9c8 25 25 45 58 45 34 1 53-17 53-48" id="bl"/><g id="F"><use transform="matrix(0.06172839506172839,0,0,0.06172839506172839,0,0)" xlink:href="#bl"/><use transform="matrix(0.06172839506172839,0,0,0.06172839506172839,12.345679012345679,0)" xlink:href="#aT"/></g><path fill="#333" d="M103-194c29 0 47 14 56 36 2-11 5-23 8-32h30L160-5C157 61 82 97 21 62 9 55 4 45 1 30l28-7c7 42 83 31 92-3 4-16 9-38 13-55-13 20-29 36-62 36-40 0-60-25-60-64 0-71 23-131 91-131zm4 24c-53 0-58 54-61 104-2 27 10 44 36 44 49 0 65-50 67-102 1-29-15-46-42-46" id="bm"/><g id="G"><use transform="matrix(0.06172839506172839,0,0,0.06172839506172839,0,0)" xlink:href="#bf"/><use transform="matrix(0.06172839506172839,0,0,0.06172839506172839,14.814814814814813,0)" xlink:href="#aw"/><use transform="matrix(0.06172839506172839,0,0,0.06172839506172839,19.691358024691354,0)" xlink:href="#bm"/><use transform="matrix(0.06172839506172839,0,0,0.06172839506172839,32.03703703703703,0)" xlink:href="#al"/><use transform="matrix(0.06172839506172839,0,0,0.06172839506172839,44.38271604938271,0)" xlink:href="#an"/><use transform="matrix(0.06172839506172839,0,0,0.06172839506172839,56.728395061728385,0)" xlink:href="#aY"/></g><g id="H"><use transform="matrix(0.06172839506172839,0,0,0.06172839506172839,0,0)" xlink:href="#ba"/><use transform="matrix(0.06172839506172839,0,0,0.06172839506172839,14.814814814814813,0)" xlink:href="#bi"/><use transform="matrix(0.06172839506172839,0,0,0.06172839506172839,25.925925925925924,0)" xlink:href="#aj"/><use transform="matrix(0.06172839506172839,0,0,0.06172839506172839,38.2716049382716,0)" xlink:href="#al"/><use transform="matrix(0.06172839506172839,0,0,0.06172839506172839,50.61728395061728,0)" xlink:href="#be"/><use transform="matrix(0.06172839506172839,0,0,0.06172839506172839,56.79012345679012,0)" xlink:href="#am"/><use transform="matrix(0.06172839506172839,0,0,0.06172839506172839,67.90123456790123,0)" xlink:href="#ap"/></g><g id="I"><use transform="matrix(0.06172839506172839,0,0,0.06172839506172839,0,0)" xlink:href="#aw"/><use transform="matrix(0.06172839506172839,0,0,0.06172839506172839,4.876543209876543,0)" xlink:href="#aX"/></g><g id="J"><use transform="matrix(0.06172839506172839,0,0,0.06172839506172839,0,0)" xlink:href="#an"/><use transform="matrix(0.06172839506172839,0,0,0.06172839506172839,12.345679012345679,0)" xlink:href="#al"/><use transform="matrix(0.06172839506172839,0,0,0.06172839506172839,24.691358024691358,0)" xlink:href="#ao"/><use transform="matrix(0.06172839506172839,0,0,0.06172839506172839,34.1358024691358,0)" xlink:href="#ap"/></g><g id="K"><use transform="matrix(0.06172839506172839,0,0,0.06172839506172839,0,0)" xlink:href="#an"/><use transform="matrix(0.06172839506172839,0,0,0.06172839506172839,12.345679012345679,0)" xlink:href="#aV"/><use transform="matrix(0.06172839506172839,0,0,0.06172839506172839,19.691358024691358,0)" xlink:href="#aj"/></g><g id="L"><use transform="matrix(0.06172839506172839,0,0,0.06172839506172839,0,0)" xlink:href="#aV"/><use transform="matrix(0.06172839506172839,0,0,0.06172839506172839,7.345679012345679,0)" xlink:href="#aj"/><use transform="matrix(0.06172839506172839,0,0,0.06172839506172839,19.691358024691358,0)" xlink:href="#bc"/><use transform="matrix(0.06172839506172839,0,0,0.06172839506172839,30.80246913580247,0)" xlink:href="#aU"/><use transform="matrix(0.06172839506172839,0,0,0.06172839506172839,43.148148148148145,0)" xlink:href="#aV"/><use transform="matrix(0.06172839506172839,0,0,0.06172839506172839,50.49382716049382,0)" xlink:href="#ak"/><use transform="matrix(0.06172839506172839,0,0,0.06172839506172839,62.8395061728395,0)" xlink:href="#aj"/><use transform="matrix(0.06172839506172839,0,0,0.06172839506172839,75.18518518518518,0)" xlink:href="#ak"/></g><g id="M"><use transform="matrix(0.06172839506172839,0,0,0.06172839506172839,0,0)" xlink:href="#ai"/><use transform="matrix(0.06172839506172839,0,0,0.06172839506172839,20.925925925925924,0)" xlink:href="#aU"/><use transform="matrix(0.06172839506172839,0,0,0.06172839506172839,33.2716049382716,0)" xlink:href="#aV"/><use transform="matrix(0.06172839506172839,0,0,0.06172839506172839,40.61728395061728,0)" xlink:href="#aW"/><use transform="matrix(0.06172839506172839,0,0,0.06172839506172839,51.72839506172839,0)" xlink:href="#aX"/><use transform="matrix(0.06172839506172839,0,0,0.06172839506172839,57.901234567901234,0)" xlink:href="#aY"/><use transform="matrix(0.06172839506172839,0,0,0.06172839506172839,62.77777777777778,0)" xlink:href="#aU"/><use transform="matrix(0.06172839506172839,0,0,0.06172839506172839,75.12345679012346,0)" xlink:href="#aZ"/></g><g id="N"><use transform="matrix(0.06172839506172839,0,0,0.06172839506172839,0,0)" xlink:href="#au"/><use transform="matrix(0.06172839506172839,0,0,0.06172839506172839,11.481481481481481,0)" xlink:href="#an"/><use transform="matrix(0.06172839506172839,0,0,0.06172839506172839,23.827160493827158,0)" xlink:href="#am"/><use transform="matrix(0.06172839506172839,0,0,0.06172839506172839,34.938271604938265,0)" xlink:href="#aW"/></g><g id="O"><use transform="matrix(0.06172839506172839,0,0,0.06172839506172839,0,0)" xlink:href="#bf"/><use transform="matrix(0.06172839506172839,0,0,0.06172839506172839,14.814814814814813,0)" xlink:href="#bc"/><use transform="matrix(0.06172839506172839,0,0,0.06172839506172839,25.925925925925924,0)" xlink:href="#bg"/><use transform="matrix(0.06172839506172839,0,0,0.06172839506172839,38.2716049382716,0)" xlink:href="#aj"/><use transform="matrix(0.06172839506172839,0,0,0.06172839506172839,50.61728395061728,0)" xlink:href="#ak"/><use transform="matrix(0.06172839506172839,0,0,0.06172839506172839,62.962962962962955,0)" xlink:href="#bd"/><use transform="matrix(0.06172839506172839,0,0,0.06172839506172839,75.30864197530863,0)" xlink:href="#aY"/><use transform="matrix(0.06172839506172839,0,0,0.06172839506172839,80.18518518518518,0)" xlink:href="#aj"/><use transform="matrix(0.06172839506172839,0,0,0.06172839506172839,92.53086419753086,0)" xlink:href="#ak"/></g><g id="P"><use transform="matrix(0.06172839506172839,0,0,0.06172839506172839,0,0)" xlink:href="#bf"/><use transform="matrix(0.06172839506172839,0,0,0.06172839506172839,14.814814814814813,0)" xlink:href="#be"/><use transform="matrix(0.06172839506172839,0,0,0.06172839506172839,20.98765432098765,0)" xlink:href="#an"/><use transform="matrix(0.06172839506172839,0,0,0.06172839506172839,33.33333333333333,0)" xlink:href="#aV"/><use transform="matrix(0.06172839506172839,0,0,0.06172839506172839,40.679012345679006,0)" xlink:href="#be"/><use transform="matrix(0.06172839506172839,0,0,0.06172839506172839,46.85185185185185,0)" xlink:href="#aj"/><use transform="matrix(0.06172839506172839,0,0,0.06172839506172839,59.197530864197525,0)" xlink:href="#ak"/></g><g id="Q"><use transform="matrix(0.06172839506172839,0,0,0.06172839506172839,0,0)" xlink:href="#aV"/><use transform="matrix(0.06172839506172839,0,0,0.06172839506172839,7.345679012345679,0)" xlink:href="#aj"/><use transform="matrix(0.06172839506172839,0,0,0.06172839506172839,19.691358024691358,0)" xlink:href="#bc"/><use transform="matrix(0.06172839506172839,0,0,0.06172839506172839,30.80246913580247,0)" xlink:href="#aU"/><use transform="matrix(0.06172839506172839,0,0,0.06172839506172839,43.148148148148145,0)" xlink:href="#aV"/><use transform="matrix(0.06172839506172839,0,0,0.06172839506172839,50.49382716049382,0)" xlink:href="#ak"/><use transform="matrix(0.06172839506172839,0,0,0.06172839506172839,62.8395061728395,0)" xlink:href="#aj"/><use transform="matrix(0.06172839506172839,0,0,0.06172839506172839,75.18518518518518,0)" xlink:href="#ak"/></g><g id="R"><use transform="matrix(0.06172839506172839,0,0,0.06172839506172839,0,0)" xlink:href="#am"/><use transform="matrix(0.06172839506172839,0,0,0.06172839506172839,11.11111111111111,0)" xlink:href="#aj"/><use transform="matrix(0.06172839506172839,0,0,0.06172839506172839,23.45679012345679,0)" xlink:href="#be"/></g><g id="S"><use transform="matrix(0.06172839506172839,0,0,0.06172839506172839,0,0)" xlink:href="#ba"/><use transform="matrix(0.06172839506172839,0,0,0.06172839506172839,14.814814814814813,0)" xlink:href="#bb"/><use transform="matrix(0.06172839506172839,0,0,0.06172839506172839,25.925925925925924,0)" xlink:href="#aj"/><use transform="matrix(0.06172839506172839,0,0,0.06172839506172839,38.2716049382716,0)" xlink:href="#bc"/><use transform="matrix(0.06172839506172839,0,0,0.06172839506172839,49.38271604938271,0)" xlink:href="#bd"/><use transform="matrix(0.06172839506172839,0,0,0.06172839506172839,61.728395061728385,0)" xlink:href="#be"/><use transform="matrix(0.06172839506172839,0,0,0.06172839506172839,67.90123456790123,0)" xlink:href="#aw"/><use transform="matrix(0.06172839506172839,0,0,0.06172839506172839,72.77777777777777,0)" xlink:href="#aU"/><use transform="matrix(0.06172839506172839,0,0,0.06172839506172839,85.12345679012346,0)" xlink:href="#al"/></g><g id="T"><use transform="matrix(0.06172839506172839,0,0,0.06172839506172839,0,0)" xlink:href="#av"/><use transform="matrix(0.06172839506172839,0,0,0.06172839506172839,15.987654320987653,0)" xlink:href="#aU"/><use transform="matrix(0.06172839506172839,0,0,0.06172839506172839,28.333333333333332,0)" xlink:href="#as"/><use transform="matrix(0.06172839506172839,0,0,0.06172839506172839,46.79012345679012,0)" xlink:href="#ar"/><use transform="matrix(0.06172839506172839,0,0,0.06172839506172839,59.1358024691358,0)" xlink:href="#aY"/><use transform="matrix(0.06172839506172839,0,0,0.06172839506172839,64.01234567901234,0)" xlink:href="#aj"/><use transform="matrix(0.06172839506172839,0,0,0.06172839506172839,76.35802469135803,0)" xlink:href="#be"/><use transform="matrix(0.06172839506172839,0,0,0.06172839506172839,82.53086419753086,0)" xlink:href="#aj"/><use transform="matrix(0.06172839506172839,0,0,0.06172839506172839,94.87654320987654,0)" xlink:href="#ak"/></g><path fill="#333" d="M249-183c0 48-29 72-75 77L221 0h-36l-43-103H65L45 0H11l48-248c83 2 190-17 190 65zm-34 3c0-55-74-39-127-41l-18 92c63-1 145 13 145-51" id="bn"/><g id="U"><use transform="matrix(0.06172839506172839,0,0,0.06172839506172839,0,0)" xlink:href="#bn"/><use transform="matrix(0.06172839506172839,0,0,0.06172839506172839,15.987654320987653,0)" xlink:href="#aj"/><use transform="matrix(0.06172839506172839,0,0,0.06172839506172839,28.333333333333332,0)" xlink:href="#ar"/><use transform="matrix(0.06172839506172839,0,0,0.06172839506172839,40.67901234567901,0)" xlink:href="#aj"/><use transform="matrix(0.06172839506172839,0,0,0.06172839506172839,53.02469135802469,0)" xlink:href="#an"/><use transform="matrix(0.06172839506172839,0,0,0.06172839506172839,65.37037037037037,0)" xlink:href="#be"/><use transform="matrix(0.06172839506172839,0,0,0.06172839506172839,71.5432098765432,0)" xlink:href="#am"/></g><g id="V"><use transform="matrix(0.06172839506172839,0,0,0.06172839506172839,0,0)" xlink:href="#aw"/><use transform="matrix(0.06172839506172839,0,0,0.06172839506172839,4.876543209876543,0)" xlink:href="#al"/><use transform="matrix(0.06172839506172839,0,0,0.06172839506172839,17.22222222222222,0)" xlink:href="#ak"/><use transform="matrix(0.06172839506172839,0,0,0.06172839506172839,29.5679012345679,0)" xlink:href="#aj"/><use transform="matrix(0.06172839506172839,0,0,0.06172839506172839,41.913580246913575,0)" xlink:href="#aX"/><use transform="matrix(0.06172839506172839,0,0,0.06172839506172839,48.08641975308642,0)" xlink:href="#aw"/><use transform="matrix(0.06172839506172839,0,0,0.06172839506172839,52.96296296296296,0)" xlink:href="#al"/><use transform="matrix(0.06172839506172839,0,0,0.06172839506172839,65.30864197530865,0)" xlink:href="#aw"/><use transform="matrix(0.06172839506172839,0,0,0.06172839506172839,70.18518518518519,0)" xlink:href="#be"/><use transform="matrix(0.06172839506172839,0,0,0.06172839506172839,76.35802469135803,0)" xlink:href="#aj"/><use transform="matrix(0.06172839506172839,0,0,0.06172839506172839,88.70370370370371,0)" xlink:href="#aY"/><use transform="matrix(0.06172839506172839,0,0,0.06172839506172839,93.58024691358025,0)" xlink:href="#ao"/></g><g id="W"><use transform="matrix(0.06172839506172839,0,0,0.06172839506172839,0,0)" xlink:href="#bd"/><use transform="matrix(0.06172839506172839,0,0,0.06172839506172839,12.345679012345679,0)" xlink:href="#al"/><use transform="matrix(0.06172839506172839,0,0,0.06172839506172839,24.691358024691358,0)" xlink:href="#be"/><use transform="matrix(0.06172839506172839,0,0,0.06172839506172839,30.864197530864196,0)" xlink:href="#aw"/><use transform="matrix(0.06172839506172839,0,0,0.06172839506172839,35.74074074074074,0)" xlink:href="#aY"/></g><g id="X"><use transform="matrix(0.06172839506172839,0,0,0.06172839506172839,0,0)" xlink:href="#au"/><use transform="matrix(0.06172839506172839,0,0,0.06172839506172839,11.481481481481481,0)" xlink:href="#aj"/><use transform="matrix(0.06172839506172839,0,0,0.06172839506172839,23.827160493827158,0)" xlink:href="#aV"/><use transform="matrix(0.06172839506172839,0,0,0.06172839506172839,31.172839506172835,0)" xlink:href="#as"/><use transform="matrix(0.06172839506172839,0,0,0.06172839506172839,49.62962962962962,0)" xlink:href="#aw"/><use transform="matrix(0.06172839506172839,0,0,0.06172839506172839,54.50617283950616,0)" xlink:href="#al"/><use transform="matrix(0.06172839506172839,0,0,0.06172839506172839,66.85185185185185,0)" xlink:href="#an"/><use transform="matrix(0.06172839506172839,0,0,0.06172839506172839,79.19753086419753,0)" xlink:href="#be"/><use transform="matrix(0.06172839506172839,0,0,0.06172839506172839,85.37037037037037,0)" xlink:href="#aj"/><use transform="matrix(0.06172839506172839,0,0,0.06172839506172839,97.71604938271605,0)" xlink:href="#ak"/></g><g id="Y"><use transform="matrix(0.06172839506172839,0,0,0.06172839506172839,0,0)" xlink:href="#aU"/><use transform="matrix(0.06172839506172839,0,0,0.06172839506172839,12.345679012345679,0)" xlink:href="#aV"/></g><g id="aa"><use transform="matrix(0.06172839506172839,0,0,0.06172839506172839,0,0)" xlink:href="#ai"/><use transform="matrix(0.06172839506172839,0,0,0.06172839506172839,20.925925925925924,0)" xlink:href="#aU"/><use transform="matrix(0.06172839506172839,0,0,0.06172839506172839,33.2716049382716,0)" xlink:href="#aV"/><use transform="matrix(0.06172839506172839,0,0,0.06172839506172839,40.61728395061728,0)" xlink:href="#aW"/><use transform="matrix(0.06172839506172839,0,0,0.06172839506172839,51.72839506172839,0)" xlink:href="#aX"/><use transform="matrix(0.06172839506172839,0,0,0.06172839506172839,57.901234567901234,0)" xlink:href="#aY"/><use transform="matrix(0.06172839506172839,0,0,0.06172839506172839,62.77777777777778,0)" xlink:href="#aU"/><use transform="matrix(0.06172839506172839,0,0,0.06172839506172839,75.12345679012346,0)" xlink:href="#aZ"/></g><g id="ab"><use transform="matrix(0.06172839506172839,0,0,0.06172839506172839,0,0)" xlink:href="#ba"/><use transform="matrix(0.06172839506172839,0,0,0.06172839506172839,14.814814814814813,0)" xlink:href="#bb"/><use transform="matrix(0.06172839506172839,0,0,0.06172839506172839,25.925925925925924,0)" xlink:href="#aj"/><use transform="matrix(0.06172839506172839,0,0,0.06172839506172839,38.2716049382716,0)" xlink:href="#bc"/><use transform="matrix(0.06172839506172839,0,0,0.06172839506172839,49.38271604938271,0)" xlink:href="#bd"/><use transform="matrix(0.06172839506172839,0,0,0.06172839506172839,61.728395061728385,0)" xlink:href="#be"/><use transform="matrix(0.06172839506172839,0,0,0.06172839506172839,67.90123456790123,0)" xlink:href="#aw"/><use transform="matrix(0.06172839506172839,0,0,0.06172839506172839,72.77777777777777,0)" xlink:href="#aU"/><use transform="matrix(0.06172839506172839,0,0,0.06172839506172839,85.12345679012346,0)" xlink:href="#al"/></g><g id="ac"><use transform="matrix(0.06172839506172839,0,0,0.06172839506172839,0,0)" xlink:href="#au"/><use transform="matrix(0.06172839506172839,0,0,0.06172839506172839,13.333333333333332,0)" xlink:href="#aw"/><use transform="matrix(0.06172839506172839,0,0,0.06172839506172839,18.209876543209873,0)" xlink:href="#as"/><use transform="matrix(0.06172839506172839,0,0,0.06172839506172839,36.66666666666666,0)" xlink:href="#aj"/><use transform="matrix(0.06172839506172839,0,0,0.06172839506172839,49.012345679012334,0)" xlink:href="#aU"/><use transform="matrix(0.06172839506172839,0,0,0.06172839506172839,61.35802469135801,0)" xlink:href="#bd"/><use transform="matrix(0.06172839506172839,0,0,0.06172839506172839,73.7037037037037,0)" xlink:href="#be"/></g><g id="ad"><use transform="matrix(0.06172839506172839,0,0,0.06172839506172839,0,0)" xlink:href="#aw"/><use transform="matrix(0.06172839506172839,0,0,0.06172839506172839,4.876543209876543,0)" xlink:href="#am"/></g><g id="ae"><use transform="matrix(0.06172839506172839,0,0,0.06172839506172839,0,0)" xlink:href="#aV"/><use transform="matrix(0.06172839506172839,0,0,0.06172839506172839,7.345679012345679,0)" xlink:href="#aj"/><use transform="matrix(0.06172839506172839,0,0,0.06172839506172839,19.691358024691358,0)" xlink:href="#an"/><use transform="matrix(0.06172839506172839,0,0,0.06172839506172839,32.03703703703704,0)" xlink:href="#bc"/><use transform="matrix(0.06172839506172839,0,0,0.06172839506172839,43.14814814814815,0)" xlink:href="#bg"/><use transform="matrix(0.06172839506172839,0,0,0.06172839506172839,55.49382716049383,0)" xlink:href="#aj"/><use transform="matrix(0.06172839506172839,0,0,0.06172839506172839,67.8395061728395,0)" xlink:href="#ak"/></g><path fill="#333" d="M248-139C247-14 144 9 11 0l48-248c105-6 190 8 189 109zm-34 0c1-70-52-87-126-82L50-27c98 7 163-21 164-112" id="bo"/><g id="af"><use transform="matrix(0.06172839506172839,0,0,0.06172839506172839,0,0)" xlink:href="#bo"/><use transform="matrix(0.06172839506172839,0,0,0.06172839506172839,15.987654320987653,0)" xlink:href="#aj"/><use transform="matrix(0.06172839506172839,0,0,0.06172839506172839,28.333333333333332,0)" xlink:href="#aY"/><use transform="matrix(0.06172839506172839,0,0,0.06172839506172839,33.20987654320987,0)" xlink:href="#an"/><use transform="matrix(0.06172839506172839,0,0,0.06172839506172839,45.55555555555555,0)" xlink:href="#ao"/></g><g id="ag"><use transform="matrix(0.06172839506172839,0,0,0.06172839506172839,0,0)" xlink:href="#aX"/><use transform="matrix(0.06172839506172839,0,0,0.06172839506172839,6.172839506172839,0)" xlink:href="#aV"/><use transform="matrix(0.06172839506172839,0,0,0.06172839506172839,13.518518518518519,0)" xlink:href="#aU"/><use transform="matrix(0.06172839506172839,0,0,0.06172839506172839,25.864197530864196,0)" xlink:href="#as"/></g><g id="ah"><use transform="matrix(0.06172839506172839,0,0,0.06172839506172839,0,0)" xlink:href="#bk"/><use transform="matrix(0.06172839506172839,0,0,0.06172839506172839,14.814814814814813,0)" xlink:href="#an"/><use transform="matrix(0.06172839506172839,0,0,0.06172839506172839,27.160493827160494,0)" xlink:href="#bc"/><use transform="matrix(0.06172839506172839,0,0,0.06172839506172839,38.27160493827161,0)" xlink:href="#aW"/><use transform="matrix(0.06172839506172839,0,0,0.06172839506172839,49.38271604938272,0)" xlink:href="#aU"/><use transform="matrix(0.06172839506172839,0,0,0.06172839506172839,61.7283950617284,0)" xlink:href="#aX"/><use transform="matrix(0.06172839506172839,0,0,0.06172839506172839,67.90123456790124,0)" xlink:href="#aX"/></g></defs></g></svg>