<svg xmlns="http://www.w3.org/2000/svg" xmlns:xlink="http://www.w3.org/1999/xlink" xmlns:lucid="lucid" width="869.82" height="980"><g transform="translate(-1620 280)" lucid:page-tab-id="0_0"><path d="M0-1258.83h3677.73v2581.66H0z" fill="#fff"/><path d="M1640-259a1 1 0 0 1 1-1h827.82a1 1 0 0 1 1 1v938a1 1 0 0 1-1 1H1641a1 1 0 0 1-1-1z" fill="#fff"/><path d="M1740-144.65a15 15 0 0 1 15-15h528.25a15 15 0 0 1 15 15V605a15 15 0 0 1-15 15H1755a15 15 0 0 1-15-15z" stroke="#333" fill="#127ae5"/><path d="M2056.84-85.8a15 15 0 0 1 15-15h120.88a15 15 0 0 1 15 15V35.06a15 15 0 0 1-15 15h-120.88a15 15 0 0 1-15-15z" stroke="#333" fill="#fff"/><use xlink:href="#a" transform="translate(2087.96 -33.967)"/><use xlink:href="#b" transform="translate(2095.367 -7.3)"/><path d="M1770.18 398.5a15 15 0 0 1 15-15h467.9a15 15 0 0 1 15 15V585a15 15 0 0 1-15 15h-467.9a15 15 0 0 1-15-15z" stroke="#333" fill="#fff"/><use xlink:href="#c" transform="translate(1789.175 576.839)"/><path d="M2087.02 170.68a15 15 0 0 1 15-15h120.87a15 15 0 0 1 15 15v120.88a15 15 0 0 1-15 15H2102a15 15 0 0 1-15-15z" stroke="#333" fill="#e5e5e5"/><use xlink:href="#d" transform="translate(2128.042 222.524)"/><use xlink:href="#b" transform="translate(2125.542 249.191)"/><path d="M2071.93 155.6a15 15 0 0 1 15-15h120.88a15 15 0 0 1 15 15v120.87a15 15 0 0 1-15 15h-120.87a15 15 0 0 1-15-15z" stroke="#333" fill="#e5e5e5"/><use xlink:href="#d" transform="translate(2112.955 207.437)"/><use xlink:href="#b" transform="translate(2110.455 234.103)"/><path d="M2056.84 140.5a15 15 0 0 1 15-15h120.88a15 15 0 0 1 15 15v120.9a15 15 0 0 1-15 15h-120.88a15 15 0 0 1-15-15z" stroke="#333" fill="#fff"/><use xlink:href="#e" transform="translate(2087.342 192.349)"/><use xlink:href="#b" transform="translate(2095.367 219.016)"/><path d="M2056.84 428.68a15 15 0 0 1 15-15h120.88a15 15 0 0 1 15 15v120.88a15 15 0 0 1-15 15h-120.88a15 15 0 0 1-15-15z" stroke="#333" fill="#fff"/><use xlink:href="#f" transform="translate(2109.533 480.524)"/><use xlink:href="#g" transform="translate(2095.336 507.191)"/><path d="M1770.18-114.47a15 15 0 0 1 15-15h467.9a15 15 0 0 1 15 15v437.72a15 15 0 0 1-15 15h-467.9a15 15 0 0 1-15-15z" fill="none"/><path d="m1771.13-119.65.68-1.63.93-1.5m2.3-2.68 1.33-1.15 1.5-.93m3.25-1.35 1.73-.4h2m3.98 0h4m3.98 0 3.98-.02m4 0h3.97m4 0h3.97m4 0h3.97m4 0h3.97m4 0h3.97m4 0h3.98m4-.02h3.97m4 0h3.97m4 0h3.97m3.98 0h3.98m4 0h3.97m4 0h3.97m4-.02h3.97m4 0h3.97m4 0h3.97m4 0h3.98m4 0h3.98m3.98 0h4m3.97 0 4-.02m3.98 0h4m3.97 0h4m3.97 0h4m3.97 0h3.98m3.98 0h4m3.97 0h4m3.97-.02h4m3.97 0h4m3.97 0h4m3.97 0h4m3.98 0h4m3.97 0h4m3.97 0 4-.02m3.97 0h3.98m3.98 0h4m3.97 0h4m3.97 0h4m3.97 0h4m3.97 0h4m3.97-.02h4m3.98 0h4m3.97 0h4m3.97 0h4m3.97 0h3.98m4 0h3.97m4-.02h3.97m4 0h3.97m3.98 0h3.98m4 0h3.97m4 0h3.97m4 0h3.97m4 0 3.97-.02m4 0h3.97m4 0h3.98m4 0h3.97m4 0h3.97m4 0h3.97m3.98 0h2l1.75.12m3.42.83 1.63.66 1.5.92m2.68 2.3 1.15 1.33.93 1.5m1.34 3.26.42 1.72v2m0 4v4m0 4v4m0 4v4m0 4v4m0 4v4m0 4v4m0 4v4m0 4v4m0 4 .02 4m0 4v4m0 4v4m0 4v4m0 4.02v4m0 4v4m0 4 .02 4m0 4v4m0 4v4m0 4v4m0 4v4m0 4v4m.02 4v4m0 4v4m0 4v4m0 4v4m0 4v4m0 4v4m.02 4v4m0 4v4m0 4v4m0 4.02v4m0 4v4m0 4v4m.02 4v4m0 4v4m0 4v4m0 4v4m0 4v4m0 4v4m.02 4v4m0 4v4m0 4v4m0 4v4m0 4v4m0 4v4m.02 4v4m0 4v4.02m0 4v4m0 4v4m0 4v4m0 4v4m.02 4v4m0 4v4m0 4v4m0 4v4m0 4v2l-.13 1.77m-.82 3.42-.66 1.64-.93 1.5m-2.27 2.67-1.34 1.15-1.52.92m-3.25 1.35-1.7.4h-2m-4 0h-3.98m-3.98.02h-4m-3.97 0h-4m-3.97 0h-4m-3.97 0h-4m-3.97 0h-4m-3.98 0h-4m-3.97.02h-4m-3.97 0h-4m-3.97 0h-3.98m-3.98 0h-4m-3.97 0h-4m-3.97 0h-4m-3.97 0h-4m-3.97 0h-4m-3.97 0h-4m-3.98 0h-4m-3.97.02h-4m-3.97 0h-4m-3.97 0h-3.98m-3.98 0h-4m-3.97 0h-4m-3.98 0h-4m-3.98.02h-3.98m-4 0h-3.97m-4 0h-3.97m-4 0h-3.97m-4 0h-3.97m-4 0h-3.97m-4 0-3.98.02m-4 0h-3.97m-4 0h-3.97m-4 0h-3.97m-3.98 0h-3.98m-4 0h-3.97m-4 0h-3.97m-4 .02h-3.97m-4 0h-3.97m-4 0h-3.97m-4 0h-3.98m-4 0h-3.97m-4 0h-3.97m-4 0-3.97.02m-3.98 0h-3.98m-4 0h-3.97m-4 0h-3.97m-4 0h-3.97m-4 0h-3.98m-3.98 0-4 .02m-3.97 0h-4m-3.97 0h-4m-3.97 0h-4m-3.97 0h-4m-3.98 0h-4m-3.97 0h-4m-3.97.02h-4m-3.97 0h-3.98m-3.98 0h-4m-3.97 0h-2l-1.75-.13m-3.42-.8-1.63-.7-1.5-.9m-2.68-2.3-1.16-1.34-.92-1.5m-1.35-3.25-.4-1.7v-2m0-4v-4m-.02-4v-4m0-4v-4m0-4v-4m0-4v-4m0-4v-4.02m0-4v-4m-.02-4v-4m0-4v-4m0-4v-4m0-4v-4m0-4v-4m0-4v-4m-.02-4v-4m0-4v-4m0-4v-4m0-4v-4m0-4v-4m0-4v-4m0-4v-4m0-4v-4m0-4v-4m-.02-4.02v-4m0-4v-4m0-4v-4m0-4v-4m0-4v-4m0-4v-4m-.02-4v-4m0-4v-4m0-4v-4m0-4v-4m0-4v-4m0-4v-4m-.02-4v-4m0-4v-4m0-4v-4m0-4v-4m0-4v-4m0-4.02-.02-4m0-4v-4m0-4v-4m0-4v-4m0-4v-4m0-4v-4m0-4-.02-4m0-4v-4m0-4v-4m0-4v-4m0-4v-4m0-4v-4m0-4-.02-4m0-4v-4m0-4v-4m0-4v-2l.13-1.77" stroke="#fff" fill="none"/><path d="M2132.28 50.98v73.62" stroke="#282c33" fill="none"/><path d="M2132.78 51h-1v-.52h1zm0 74.1h-1v-.5h1z" stroke="#282c33" stroke-width=".05" fill="#282c33"/><path d="M2132.28 277.3v135.47" stroke="#282c33" fill="none"/><path d="M2132.78 277.3h-1v-.5h1zm0 135.97h-1v-.5h1z" stroke="#282c33" stroke-width=".05" fill="#282c33"/><path d="M1800.35 140.5a15 15 0 0 1 15-15h120.88a15 15 0 0 1 15 15v120.9a15 15 0 0 1-15 15h-120.88a15 15 0 0 1-15-15z" stroke="#333" fill="#fff"/><use xlink:href="#h" transform="translate(1841.376 192.349)"/><use xlink:href="#i" transform="translate(1838.876 219.016)"/><path d="M2055.93 200.95h-103.8" stroke="#282c33" fill="none"/><path d="M2056.43 201.45h-.5v-1h.5zm-104.28 0h-.5v-1h.5z" stroke="#282c33" stroke-width=".05" fill="#282c33"/><path d="M1740-214a6 6 0 0 1 6-6h191.68a6 6 0 0 1 6 6v27.48a6 6 0 0 1-6 6H1746a6 6 0 0 1-6-6z" fill="none"/><use xlink:href="#j" transform="translate(1760.488 -195.347)"/><use xlink:href="#k" transform="translate(1858.204 -195.347)"/><path d="M1841.84-180.06v24.62a.25.25 0 0 0 .26.26.25.25 0 0 1 .25.25v24.62" stroke="#333" fill="none"/><path d="M1842.34-180.04h-1v-.52h1zm.51 50.24h-1v-.53h1z" stroke="#333" stroke-width=".05" fill="#333"/><path d="M1966.32-214a6 6 0 0 1 6-6h199.22a6 6 0 0 1 6 6v27.48a6 6 0 0 1-6 6h-199.22a6 6 0 0 1-6-6z" fill="none"/><use xlink:href="#l" transform="translate(1985.279 -195.347)"/><use xlink:href="#m" transform="translate(2089.168 -195.347)"/><path d="M2071.93-180.06v9.7a.04.04 0 0 1-.04.04.04.04 0 0 0-.05.04v9.7" stroke="#333" fill="none"/><path d="M2072.43-180.04h-1v-.52h1zm-.08 19.96h-1v-.5h1z" stroke="#333" stroke-width=".05" fill="#333"/><path d="M2335.96 176.77a6 6 0 0 1 6-6h101.16a6 6 0 0 1 6 6v48.35a6 6 0 0 1-6 6h-101.16a6 6 0 0 1-6-6z" fill="none"/><use xlink:href="#n" transform="translate(2335.095 193.55)"/><use xlink:href="#o" transform="translate(2352.286 220.216)"/><path d="M2335.5 200.95h-126.87" stroke="#333" fill="none"/><path d="M2336 201.45h-.5v-1h.5zm-127.36 0h-.5v-1h.5z" stroke="#333" stroke-width=".05" fill="#333"/><defs><path fill="#333" d="M63-220v92h138v28H63V0H30v-248h175v28H63" id="p"/><path fill="#333" d="M114-163C36-179 61-72 57 0H25l-1-190h30c1 12-1 29 2 39 6-27 23-49 58-41v29" id="q"/><path fill="#333" d="M100-194c62-1 85 37 85 99 1 63-27 99-86 99S16-35 15-95c0-66 28-99 85-99zM99-20c44 1 53-31 53-75 0-43-8-75-51-75s-53 32-53 75 10 74 51 75" id="r"/><path fill="#333" d="M117-194c89-4 53 116 60 194h-32v-121c0-31-8-49-39-48C34-167 62-67 57 0H25l-1-190h30c1 10-1 24 2 32 11-22 29-35 61-36" id="s"/><path fill="#333" d="M59-47c-2 24 18 29 38 22v24C64 9 27 4 27-40v-127H5v-23h24l9-43h21v43h35v23H59v120" id="t"/><path fill="#333" d="M100-194c63 0 86 42 84 106H49c0 40 14 67 53 68 26 1 43-12 49-29l28 8c-11 28-37 45-77 45C44 4 14-33 15-96c1-61 26-98 85-98zm52 81c6-60-76-77-97-28-3 7-6 17-6 28h103" id="u"/><path fill="#333" d="M85-194c31 0 48 13 60 33l-1-100h32l1 261h-30c-2-10 0-23-3-31C134-8 116 4 85 4 32 4 16-35 15-94c0-66 23-100 70-100zm9 24c-40 0-46 34-46 75 0 40 6 74 45 74 42 0 51-32 51-76 0-42-9-74-50-73" id="v"/><path fill="#333" d="M185-189c-5-48-123-54-124 2 14 75 158 14 163 119 3 78-121 87-175 55-17-10-28-26-33-46l33-7c5 56 141 63 141-1 0-78-155-14-162-118-5-82 145-84 179-34 5 7 8 16 11 25" id="w"/><path fill="#333" d="M108 0H70L1-190h34L89-25l56-165h34" id="x"/><path fill="#333" d="M24-231v-30h32v30H24zM24 0v-190h32V0H24" id="y"/><path fill="#333" d="M96-169c-40 0-48 33-48 73s9 75 48 75c24 0 41-14 43-38l32 2c-6 37-31 61-74 61-59 0-76-41-82-99-10-93 101-131 147-64 4 7 5 14 7 22l-32 3c-4-21-16-35-41-35" id="z"/><path fill="#333" d="M30-248c118-7 216 8 213 122C240-48 200 0 122 0H30v-248zM63-27c89 8 146-16 146-99s-60-101-146-95v194" id="A"/><path fill="#333" d="M141-36C126-15 110 5 73 4 37 3 15-17 15-53c-1-64 63-63 125-63 3-35-9-54-41-54-24 1-41 7-42 31l-33-3c5-37 33-52 76-52 45 0 72 20 72 64v82c-1 20 7 32 28 27v20c-31 9-61-2-59-35zM48-53c0 20 12 33 32 33 41-3 63-29 60-74-43 2-92-5-92 41" id="B"/><path fill="#333" d="M115-194c53 0 69 39 70 98 0 66-23 100-70 100C84 3 66-7 56-30L54 0H23l1-261h32v101c10-23 28-34 59-34zm-8 174c40 0 45-34 45-75 0-40-5-75-45-74-42 0-51 32-51 76 0 43 10 73 51 73" id="C"/><path fill="#333" d="M135-143c-3-34-86-38-87 0 15 53 115 12 119 90S17 21 10-45l28-5c4 36 97 45 98 0-10-56-113-15-118-90-4-57 82-63 122-42 12 7 21 19 24 35" id="D"/><path fill="#333" d="M197 0v-115H63V0H30v-248h33v105h134v-105h34V0h-34" id="E"/><path fill="#333" d="M179-190 93 31C79 59 56 82 12 73V49c39 6 53-20 64-50L1-190h34L92-34l54-156h33" id="F"/><path fill="#333" d="m240 0 2-218c-23 76-54 145-80 218h-23L58-218 59 0H30v-248h44l77 211c21-75 51-140 76-211h43V0h-30" id="G"/><path fill="#333" d="M106-169C34-169 62-67 57 0H25v-261h32l-1 103c12-21 28-36 61-36 89 0 53 116 60 194h-32v-121c2-32-8-49-39-48" id="H"/><path fill="#333" d="M177-190C167-65 218 103 67 71c-23-6-38-20-44-43l32-5c15 47 100 32 89-28v-30C133-14 115 1 83 1 29 1 15-40 15-95c0-56 16-97 71-98 29-1 48 16 59 35 1-10 0-23 2-32h30zM94-22c36 0 50-32 50-73 0-42-14-75-50-75-39 0-46 34-46 75s6 73 46 73" id="I"/><path fill="#333" d="M127-220V0H93v-220H8v-28h204v28h-85" id="J"/><path fill="#333" d="M143 0 79-87 56-68V0H24v-261h32v163l83-92h37l-77 82L181 0h-38" id="K"/><path fill="#333" d="M151-220 108 0H75l42-220H32l6-28h203l-5 28h-85" id="L"/><path fill="#333" d="M111-194c62-3 86 47 72 106H45c-7 38 6 69 45 68 27-1 43-14 53-32l24 11C152-15 129 4 87 4 38 3 12-23 12-71c0-70 32-119 99-123zm44 81c14-66-71-72-95-28-4 8-8 17-11 28h106" id="M"/><path fill="#333" d="M248-111c6-24 9-61-24-58-72 9-57 108-77 169h-31l26-142c3-37-50-30-64-10C52-115 50-51 37 0H6l36-190h30c-1 10-6 24-4 32 13-43 101-52 105 5 13-22 29-41 61-41 90 0 28 129 23 194h-31" id="N"/><path fill="#333" d="M67-162c32-53 139-36 121 50C175-51 163 2 97 4 68 4 52-11 42-31 38 6 28 39 22 75H-9l50-265h29c-1 10 0 20-3 28zm89 36c0-26-10-43-35-43-54 0-67 50-69 103-1 29 14 45 42 46 53 0 62-58 62-106" id="O"/><path fill="#333" d="M30-147c31-64 166-65 159 27C183-49 158 1 86 4 9 8 1-88 30-147zM88-20c53 0 68-48 68-100 0-31-11-51-44-50-52 1-68 46-68 97 0 32 13 53 44 53" id="P"/><path fill="#333" d="M66-151c12-25 30-51 66-40l-6 26C45-176 58-65 38 0H6l36-190h30" id="Q"/><path fill="#333" d="M165-48c-4 18 1 34 23 27l-3 20c-29 8-62 0-52-35h-2C116-14 99 4 63 4 30 4 8-16 8-49c0-68 71-67 138-67 10-26 0-56-31-54-26 1-42 9-47 31l-32-5c8-67 160-71 144 15-5 28-9 54-15 81zM42-50c3 52 80 24 89-6 7-12 7-24 11-38-47 1-103-4-100 44" id="R"/><path fill="#333" d="m6 0 50-261h32L37 0H6" id="S"/><path fill="#333" d="M194-120c59 52 2 134-86 124-53-6-90-18-98-63l31-7c8 30 29 43 70 43 46 0 84-17 71-62-32-43-135-20-137-98-3-89 178-90 191-16l-30 9c-8-48-127-53-127 5 0 53 81 35 115 65" id="T"/><path fill="#333" d="M89 0H52L20-190h33L74-25l89-165h34" id="U"/><path fill="#333" d="M125-24c46 0 70-25 89-51l25 16C214-24 183 4 123 4 8 4-5-146 60-208c32-50 158-61 191-5 5 7 9 14 11 22l-32 10c-9-28-33-43-69-43-74 0-108 51-108 125 0 46 24 75 72 75" id="V"/><path fill="#333" d="M67 3c-93-2-31-127-26-193h32L48-50c-3 39 53 32 70 12 30-34 30-101 43-152h32L157 0h-30c1-10 6-24 4-33-14 20-29 37-64 36" id="W"/><path fill="#333" d="M55-144c13 50 104 24 104 88C159 21 15 23 1-39l26-10c6 40 102 42 102-4-13-50-104-23-104-87 0-71 143-71 148-8l-29 4c-5-35-85-37-89 0" id="X"/><path fill="#333" d="M51-54c-9 22 5 41 31 30L79-1C43 14 10-4 19-52l22-115H19l5-23h22l19-43h21l-9 43h35l-4 23H73" id="Y"/><path fill="#333" d="m179 0 23-115H67L45 0H11l48-248h34L72-143h135l21-105h32L212 0h-33" id="Z"/><path fill="#333" d="m50-231 6-30h32l-6 30H50zM6 0l37-190h31L37 0H6" id="aa"/><path fill="#333" d="m-8 0 5-24 140-142H31l5-24h145l-5 24L36-24h119l-5 24H-8" id="ab"/><path fill="#333" d="M67-158c22-48 132-52 116 29L158 0h-32l25-140c3-38-53-32-70-12C52-117 51-52 38 0H6l36-190h30" id="ac"/><path fill="#333" d="M198-190 69 30C53 58 25 83-20 72c4-11-1-27 19-22 33-1 43-29 59-52L20-190h32L79-34l84-156h35" id="ad"/><path fill="#333" d="M44-68c0 29 11 47 38 47 30 0 42-19 51-41l28 9C148-21 126 4 82 4 31 4 10-29 12-85c3-77 74-140 146-93 12 8 15 23 18 40l-31 5c-1-22-13-36-36-36-52 0-65 49-65 101" id="ae"/><path fill="#333" d="M68-162c25-46 127-43 121 31C183-60 169 1 98 4 69 5 53-11 43-31L36 0H5l52-261h31zm88 36c2-27-9-43-34-43-55 0-70 51-70 103 0 29 15 45 43 46 52 0 58-58 61-106" id="af"/><g id="a"><use transform="rotate(.413) scale(.06173)" xlink:href="#p"/><use transform="matrix(.06173 0 0 .06173 13.519 0)" xlink:href="#q"/><use transform="matrix(.06173 0 0 .06173 20.864 0)" xlink:href="#r"/><use transform="matrix(.06173 0 0 .06173 33.21 0)" xlink:href="#s"/><use transform="matrix(.06173 0 0 .06173 45.556 0)" xlink:href="#t"/><use transform="matrix(.06173 0 0 .06173 51.728 0)" xlink:href="#u"/><use transform="matrix(.06173 0 0 .06173 64.074 0)" xlink:href="#s"/><use transform="matrix(.06173 0 0 .06173 76.42 0)" xlink:href="#v"/></g><g id="b"><use transform="rotate(.413) scale(.06173)" xlink:href="#w"/><use transform="matrix(.06173 0 0 .06173 14.815 0)" xlink:href="#u"/><use transform="matrix(.06173 0 0 .06173 27.16 0)" xlink:href="#q"/><use transform="matrix(.06173 0 0 .06173 34.506 0)" xlink:href="#x"/><use transform="matrix(.06173 0 0 .06173 45.617 0)" xlink:href="#y"/><use transform="matrix(.06173 0 0 .06173 50.494 0)" xlink:href="#z"/><use transform="matrix(.06173 0 0 .06173 61.605 0)" xlink:href="#u"/></g><g id="c"><use transform="rotate(.413) scale(.06173)" xlink:href="#A"/><use transform="matrix(.06173 0 0 .06173 15.988 0)" xlink:href="#B"/><use transform="matrix(.06173 0 0 .06173 28.333 0)" xlink:href="#t"/><use transform="matrix(.06173 0 0 .06173 34.506 0)" xlink:href="#B"/><use transform="matrix(.06173 0 0 .06173 46.852 0)" xlink:href="#C"/><use transform="matrix(.06173 0 0 .06173 59.198 0)" xlink:href="#B"/><use transform="matrix(.06173 0 0 .06173 71.543 0)" xlink:href="#D"/><use transform="matrix(.06173 0 0 .06173 82.654 0)" xlink:href="#u"/></g><g id="d"><use transform="rotate(.413) scale(.06173)" xlink:href="#E"/><use transform="matrix(.06173 0 0 .06173 15.988 0)" xlink:href="#y"/><use transform="matrix(.06173 0 0 .06173 20.864 0)" xlink:href="#D"/><use transform="matrix(.06173 0 0 .06173 31.975 0)" xlink:href="#t"/><use transform="matrix(.06173 0 0 .06173 38.148 0)" xlink:href="#r"/><use transform="matrix(.06173 0 0 .06173 50.494 0)" xlink:href="#q"/><use transform="matrix(.06173 0 0 .06173 57.84 0)" xlink:href="#F"/></g><g id="e"><use transform="rotate(.413) scale(.06173)" xlink:href="#G"/><use transform="matrix(.06173 0 0 .06173 18.457 0)" xlink:href="#B"/><use transform="matrix(.06173 0 0 .06173 30.802 0)" xlink:href="#t"/><use transform="matrix(.06173 0 0 .06173 36.975 0)" xlink:href="#z"/><use transform="matrix(.06173 0 0 .06173 48.086 0)" xlink:href="#H"/><use transform="matrix(.06173 0 0 .06173 60.432 0)" xlink:href="#y"/><use transform="matrix(.06173 0 0 .06173 65.309 0)" xlink:href="#s"/><use transform="matrix(.06173 0 0 .06173 77.654 0)" xlink:href="#I"/></g><g id="f"><use transform="rotate(.413) scale(.06173)" xlink:href="#J"/><use transform="matrix(.06173 0 0 .06173 11.05 0)" xlink:href="#B"/><use transform="matrix(.06173 0 0 .06173 23.395 0)" xlink:href="#D"/><use transform="matrix(.06173 0 0 .06173 34.506 0)" xlink:href="#K"/></g><g id="g"><use transform="rotate(.413) scale(.06173)" xlink:href="#D"/><use transform="matrix(.06173 0 0 .06173 11.111 0)" xlink:href="#t"/><use transform="matrix(.06173 0 0 .06173 17.284 0)" xlink:href="#r"/><use transform="matrix(.06173 0 0 .06173 29.63 0)" xlink:href="#q"/><use transform="matrix(.06173 0 0 .06173 36.975 0)" xlink:href="#B"/><use transform="matrix(.06173 0 0 .06173 49.321 0)" xlink:href="#I"/><use transform="matrix(.06173 0 0 .06173 61.667 0)" xlink:href="#u"/></g><g id="h"><use transform="rotate(.413) scale(.06173)" xlink:href="#E"/><use transform="matrix(.06173 0 0 .06173 15.988 0)" xlink:href="#y"/><use transform="matrix(.06173 0 0 .06173 20.864 0)" xlink:href="#D"/><use transform="matrix(.06173 0 0 .06173 31.975 0)" xlink:href="#t"/><use transform="matrix(.06173 0 0 .06173 38.148 0)" xlink:href="#r"/><use transform="matrix(.06173 0 0 .06173 50.494 0)" xlink:href="#q"/><use transform="matrix(.06173 0 0 .06173 57.84 0)" xlink:href="#F"/></g><g id="i"><use transform="rotate(.413) scale(.06173)" xlink:href="#w"/><use transform="matrix(.06173 0 0 .06173 14.815 0)" xlink:href="#u"/><use transform="matrix(.06173 0 0 .06173 27.16 0)" xlink:href="#q"/><use transform="matrix(.06173 0 0 .06173 34.506 0)" xlink:href="#x"/><use transform="matrix(.06173 0 0 .06173 45.617 0)" xlink:href="#y"/><use transform="matrix(.06173 0 0 .06173 50.494 0)" xlink:href="#z"/><use transform="matrix(.06173 0 0 .06173 61.605 0)" xlink:href="#u"/></g><g id="j"><use transform="rotate(.413) scale(.06173)" xlink:href="#L"/><use transform="matrix(.06173 0 0 .06173 11.481 0)" xlink:href="#M"/><use transform="matrix(.06173 0 0 .06173 23.827 0)" xlink:href="#N"/><use transform="matrix(.06173 0 0 .06173 42.284 0)" xlink:href="#O"/><use transform="matrix(.06173 0 0 .06173 54.63 0)" xlink:href="#P"/><use transform="matrix(.06173 0 0 .06173 66.975 0)" xlink:href="#Q"/><use transform="matrix(.06173 0 0 .06173 74.321 0)" xlink:href="#R"/><use transform="matrix(.06173 0 0 .06173 86.667 0)" xlink:href="#S"/></g><g id="k"><use transform="rotate(.413) scale(.06173)" xlink:href="#T"/><use transform="matrix(.06173 0 0 .06173 14.815 0)" xlink:href="#M"/><use transform="matrix(.06173 0 0 .06173 27.16 0)" xlink:href="#Q"/><use transform="matrix(.06173 0 0 .06173 34.506 0)" xlink:href="#U"/><use transform="matrix(.06173 0 0 .06173 45.617 0)" xlink:href="#M"/><use transform="matrix(.06173 0 0 .06173 57.963 0)" xlink:href="#Q"/></g><g id="l"><use transform="rotate(.413) scale(.06173)" xlink:href="#L"/><use transform="matrix(.06173 0 0 .06173 11.481 0)" xlink:href="#M"/><use transform="matrix(.06173 0 0 .06173 23.827 0)" xlink:href="#N"/><use transform="matrix(.06173 0 0 .06173 42.284 0)" xlink:href="#O"/><use transform="matrix(.06173 0 0 .06173 54.63 0)" xlink:href="#P"/><use transform="matrix(.06173 0 0 .06173 66.975 0)" xlink:href="#Q"/><use transform="matrix(.06173 0 0 .06173 74.321 0)" xlink:href="#R"/><use transform="matrix(.06173 0 0 .06173 86.667 0)" xlink:href="#S"/></g><g id="m"><use transform="rotate(.413) scale(.06173)" xlink:href="#V"/><use transform="matrix(.06173 0 0 .06173 15.988 0)" xlink:href="#S"/><use transform="matrix(.06173 0 0 .06173 20.864 0)" xlink:href="#W"/><use transform="matrix(.06173 0 0 .06173 33.21 0)" xlink:href="#X"/><use transform="matrix(.06173 0 0 .06173 44.321 0)" xlink:href="#Y"/><use transform="matrix(.06173 0 0 .06173 50.494 0)" xlink:href="#M"/><use transform="matrix(.06173 0 0 .06173 62.84 0)" xlink:href="#Q"/></g><g id="n"><use transform="rotate(.413) scale(.06173)" xlink:href="#Z"/><use transform="matrix(.06173 0 0 .06173 15.988 0)" xlink:href="#P"/><use transform="matrix(.06173 0 0 .06173 28.333 0)" xlink:href="#Q"/><use transform="matrix(.06173 0 0 .06173 35.679 0)" xlink:href="#aa"/><use transform="matrix(.06173 0 0 .06173 40.556 0)" xlink:href="#ab"/><use transform="matrix(.06173 0 0 .06173 51.667 0)" xlink:href="#P"/><use transform="matrix(.06173 0 0 .06173 64.012 0)" xlink:href="#ac"/><use transform="matrix(.06173 0 0 .06173 76.358 0)" xlink:href="#Y"/><use transform="matrix(.06173 0 0 .06173 82.53 0)" xlink:href="#R"/><use transform="matrix(.06173 0 0 .06173 94.877 0)" xlink:href="#S"/><use transform="matrix(.06173 0 0 .06173 99.753 0)" xlink:href="#S"/><use transform="matrix(.06173 0 0 .06173 104.63 0)" xlink:href="#ad"/></g><g id="o"><use transform="rotate(.413) scale(.06173)" xlink:href="#X"/><use transform="matrix(.06173 0 0 .06173 11.111 0)" xlink:href="#ae"/><use transform="matrix(.06173 0 0 .06173 22.222 0)" xlink:href="#R"/><use transform="matrix(.06173 0 0 .06173 34.568 0)" xlink:href="#S"/><use transform="matrix(.06173 0 0 .06173 39.444 0)" xlink:href="#R"/><use transform="matrix(.06173 0 0 .06173 51.79 0)" xlink:href="#af"/><use transform="matrix(.06173 0 0 .06173 64.136 0)" xlink:href="#S"/><use transform="matrix(.06173 0 0 .06173 69.012 0)" xlink:href="#M"/></g></defs></g></svg>