<svg xmlns="http://www.w3.org/2000/svg" xmlns:xlink="http://www.w3.org/1999/xlink" xmlns:lucid="lucid" width="2271.77" height="1322.67"><g transform="translate(1101.7720450405077 -1120)" lucid:page-tab-id="0_0"><path d="M-80 1746c0-3.3 2.7-6 6-6h418c3.3 0 6 2.7 6 6v88c0 3.3-2.7 6-6 6H-74c-3.3 0-6-2.7-6-6z" stroke="#000" stroke-opacity="0" stroke-width="3" fill="#fff" fill-opacity="0"/><use xlink:href="#a" transform="matrix(1,0,0,1,-75,1744.9999998573237) translate(0 23.40277777777778)"/><use xlink:href="#b" transform="matrix(1,0,0,1,-75,1744.9999998573237) translate(22.22222222222222 23.40277777777778)"/><use xlink:href="#c" transform="matrix(1,0,0,1,-75,1744.9999998573237) translate(119.50617283950618 23.40277777777778)"/><use xlink:href="#d" transform="matrix(1,0,0,1,-75,1744.9999998573237) translate(223.14814814814815 23.40277777777778)"/><use xlink:href="#e" transform="matrix(1,0,0,1,-75,1744.9999998573237) translate(0 50.06944444444445)"/><use xlink:href="#f" transform="matrix(1,0,0,1,-75,1744.9999998573237) translate(22.22222222222222 50.06944444444445)"/><use xlink:href="#g" transform="matrix(1,0,0,1,-75,1744.9999998573237) translate(90 50.06944444444445)"/><use xlink:href="#h" transform="matrix(1,0,0,1,-75,1744.9999998573237) translate(170.24691358024688 50.06944444444445)"/><use xlink:href="#i" transform="matrix(1,0,0,1,-75,1744.9999998573237) translate(187.4691358024691 50.06944444444445)"/><use xlink:href="#j" transform="matrix(1,0,0,1,-75,1744.9999998573237) translate(233.95061728395058 50.06944444444445)"/><use xlink:href="#k" transform="matrix(1,0,0,1,-75,1744.9999998573237) translate(272.16049382716045 50.06944444444445)"/><use xlink:href="#l" transform="matrix(1,0,0,1,-75,1744.9999998573237) translate(0 76.73611111111111)"/><use xlink:href="#m" transform="matrix(1,0,0,1,-75,1744.9999998573237) translate(22.22222222222222 76.73611111111111)"/><use xlink:href="#n" transform="matrix(1,0,0,1,-75,1744.9999998573237) translate(102.46913580246914 76.73611111111111)"/><use xlink:href="#o" transform="matrix(1,0,0,1,-75,1744.9999998573237) translate(124.62962962962963 76.73611111111111)"/><path d="M-1081.77 1206c0-3.3 2.68-6 6-6h268c3.3 0 6 2.7 6 6v106.33c0 3.32-2.7 6-6 6h-268c-3.32 0-6-2.68-6-6z" stroke="#000" stroke-opacity="0" stroke-width="3" fill="#fff" fill-opacity="0"/><use xlink:href="#p" transform="matrix(1,0,0,1,-1076.7720450405077,1205) translate(11.111111111111114 45.02777777777778)"/><use xlink:href="#q" transform="matrix(1,0,0,1,-1076.7720450405077,1205) translate(64.1358024691358 45.02777777777778)"/><use xlink:href="#r" transform="matrix(1,0,0,1,-1076.7720450405077,1205) translate(161.41975308641975 45.02777777777778)"/><use xlink:href="#s" transform="matrix(1,0,0,1,-1076.7720450405077,1205) translate(29.59876543209876 71.69444444444446)"/><use xlink:href="#t" transform="matrix(1,0,0,1,-1076.7720450405077,1205) translate(75.15432098765432 71.69444444444446)"/><use xlink:href="#u" transform="matrix(1,0,0,1,-1076.7720450405077,1205) translate(93.67283950617283 71.69444444444446)"/><use xlink:href="#v" transform="matrix(1,0,0,1,-1076.7720450405077,1205) translate(147.87037037037038 71.69444444444446)"/><path d="M910 1369.33c0-3.3 2.7-6 6-6h228c3.3 0 6 2.7 6 6v131.34c0 3.3-2.7 6-6 6H916c-3.3 0-6-2.7-6-6z" stroke="#000" stroke-opacity="0" stroke-width="3" fill="#fff" fill-opacity="0"/><use xlink:href="#w" transform="matrix(1,0,0,1,915,1368.3333333333333) translate(18.240740740740733 21.96527777777778)"/><use xlink:href="#x" transform="matrix(1,0,0,1,915,1368.3333333333333) translate(107.06790123456788 21.96527777777778)"/><use xlink:href="#y" transform="matrix(1,0,0,1,915,1368.3333333333333) translate(36.574074074074076 48.63194444444444)"/><use xlink:href="#z" transform="matrix(1,0,0,1,915,1368.3333333333333) translate(83.3641975308642 48.63194444444444)"/><use xlink:href="#A" transform="matrix(1,0,0,1,915,1368.3333333333333) translate(105.15432098765432 75.29861111111111)"/><use xlink:href="#B" transform="matrix(1,0,0,1,915,1368.3333333333333) translate(14.537037037037038 101.96527777777777)"/><use xlink:href="#q" transform="matrix(1,0,0,1,915,1368.3333333333333) translate(20.709876543209877 101.96527777777777)"/><use xlink:href="#r" transform="matrix(1,0,0,1,915,1368.3333333333333) translate(117.99382716049382 101.96527777777777)"/><use xlink:href="#C" transform="matrix(1,0,0,1,915,1368.3333333333333) translate(20.802469135802482 128.63194444444446)"/><use xlink:href="#D" transform="matrix(1,0,0,1,915,1368.3333333333333) translate(106.85185185185185 128.63194444444446)"/><use xlink:href="#E" transform="matrix(1,0,0,1,915,1368.3333333333333) translate(129.01234567901236 128.63194444444446)"/><path d="M-801.77 1235c0-8.28 6.7-15 15-15H-255c8.28 0 15 6.72 15 15v83.33c0 8.3-6.72 15-15 15h-531.77c-8.3 0-15-6.7-15-15z" stroke="#333" stroke-width="3" fill="#fff"/><use xlink:href="#F" transform="matrix(1,0,0,1,-796.7720450405077,1225) translate(171.47530864197532 44.388888888888886)"/><use xlink:href="#G" transform="matrix(1,0,0,1,-796.7720450405077,1225) translate(277.1296296296296 44.388888888888886)"/><use xlink:href="#H" transform="matrix(1,0,0,1,-796.7720450405077,1225) translate(237.7592592592593 74.6111111111111)"/><use xlink:href="#I" transform="matrix(1,0,0,1,-796.7720450405077,1225) translate(273.5617283950617 74.6111111111111)"/><path d="M-780 1460c0 11.5-8.95 20.83-20 20.83s-20-9.32-20-20.83c0-11.5 8.95-20.83 20-20.83s20 9.32 20 20.83z" stroke="#333" stroke-width="3" fill="#ffc374"/><path d="M-400 2366.67V2030M-400 2366.54v5.13" stroke="#333" stroke-width="10" fill="none"/><path d="M-395 2030.13h-10V2025h10z" fill="#333"/><path d="M0 2366.67v-233.34M0 2366.54v5.13" stroke="#333" stroke-width="10" fill="none"/><path d="M5 2133.46H-5v-5.13H5zM405 2366.67c0 2.76-2.24 5-5 5s-5-2.24-5-5 2.24-5 5-5 5 2.24 5 5zm0-20.13c0 2.76-2.24 5-5 5s-5-2.24-5-5 2.24-5 5-5 5 2.24 5 5zm0-20.13c0 2.77-2.24 5-5 5s-5-2.23-5-5c0-2.75 2.24-5 5-5s5 2.25 5 5zm0-20.12c0 2.76-2.24 5-5 5s-5-2.24-5-5c0-2.77 2.24-5 5-5s5 2.23 5 5zm.9-21.02c0 2.76-2.25 5-5 5-2.78 0-5-2.24-5-5s2.22-5 5-5c2.75 0 5 2.24 5 5zm0-20.13c0 2.76-2.25 5-5 5-2.78 0-5-2.24-5-5s2.22-5 5-5c2.75 0 5 2.24 5 5zm0-20.13c0 2.76-2.25 5-5 5-2.78 0-5-2.24-5-5s2.22-5 5-5c2.75 0 5 2.24 5 5z" fill="#333"/><path d="M400 2366.54v5.13" stroke="#333" stroke-width="10" fill="none"/><path d="M405.9 2245.13h-10V2240h10z" fill="#333"/><path d="M-380 1461.67c0 11.5-8.95 20.83-20 20.83s-20-9.33-20-20.83c0-11.5 8.95-20.84 20-20.84s20 9.33 20 20.84z" stroke="#333" stroke-width="3" fill="#0c7cba"/><path d="M-220 1579.17c0 11.5-8.95 20.83-20 20.83s-20-9.33-20-20.83c0-11.5 8.95-20.84 20-20.84s20 9.33 20 20.84zM180 1700.42c0 11.5-8.95 20.83-20 20.83s-20-9.33-20-20.83c0-11.5 8.95-20.84 20-20.84s20 9.33 20 20.84zM350.9 1819.17c0 11.5-8.97 20.83-20 20.83-11.06 0-20-9.33-20-20.83 0-11.5 8.94-20.84 20-20.84 11.03 0 20 9.33 20 20.84z" stroke="#333" stroke-width="3" fill="#ffc374"/><path d="M20 1579.17c0 11.5-8.95 20.83-20 20.83s-20-9.33-20-20.83c0-11.5 8.95-20.84 20-20.84s20 9.33 20 20.84z" stroke="#333" stroke-width="3" fill="#0c7cba"/><path d="M500.9 1939.17c0 11.5-8.97 20.83-20 20.83-11.06 0-20-9.33-20-20.83 0-11.5 8.94-20.84 20-20.84 11.03 0 20 9.33 20 20.84z" stroke="#333" stroke-width="3" fill="#ffc374"/><path d="M820.9 1939.17c0 11.5-8.97 20.83-20 20.83-11.06 0-20-9.33-20-20.83 0-11.5 8.94-20.84 20-20.84 11.03 0 20 9.33 20 20.84z" stroke="#333" stroke-width="3" fill="#0c7cba"/><path d="M-480 1989.33c0-3.3 2.7-6 6-6h148c3.3 0 6 2.7 6 6V2019c0 3.3-2.7 6-6 6h-148c-3.3 0-6-2.7-6-6z" stroke="#000" stroke-opacity="0" stroke-width="3" fill="#fff" fill-opacity="0"/><use xlink:href="#J" transform="matrix(1,0,0,1,-475,1988.333333618686) translate(1.6358024691357969 19.77777777777778)"/><use xlink:href="#K" transform="matrix(1,0,0,1,-475,1988.333333618686) translate(55.83333333333333 19.77777777777778)"/><path d="M-80 2089.33c0-3.3 2.7-6 6-6H74c3.3 0 6 2.7 6 6v33c0 3.32-2.7 6-6 6H-74c-3.3 0-6-2.68-6-6z" stroke="#000" stroke-opacity="0" stroke-width="3" fill="#fff" fill-opacity="0"/><use xlink:href="#J" transform="matrix(1,0,0,1,-75,2088.333333618686) translate(1.6358024691357969 22.15277777777778)"/><use xlink:href="#K" transform="matrix(1,0,0,1,-75,2088.333333618686) translate(55.83333333333333 22.15277777777778)"/><path d="M320.9 2166c0-3.3 2.67-6 6-6h148c3.3 0 6 2.7 6 6v68c0 3.3-2.7 6-6 6h-148c-3.33 0-6-2.7-6-6z" stroke="#000" stroke-opacity="0" stroke-width="3" fill="#fff" fill-opacity="0"/><use xlink:href="#J" transform="matrix(1,0,0,1,325.88602252025385,2165) translate(1.6358024691357969 26.52777777777778)"/><use xlink:href="#L" transform="matrix(1,0,0,1,325.88602252025385,2165) translate(55.83333333333333 26.52777777777778)"/><use xlink:href="#M" transform="matrix(1,0,0,1,325.88602252025385,2165) translate(31.882716049382715 53.19444444444445)"/><path d="M720 2286c0-3.3 2.7-6 6-6h148c3.3 0 6 2.7 6 6v28c0 3.3-2.7 6-6 6H726c-3.3 0-6-2.7-6-6z" stroke="#000" stroke-opacity="0" stroke-width="3" fill="#fff" fill-opacity="0"/><use xlink:href="#J" transform="matrix(1,0,0,1,725,2285) translate(1.6358024691357969 19.71527777777778)"/><use xlink:href="#K" transform="matrix(1,0,0,1,725,2285) translate(55.83333333333333 19.71527777777778)"/><path d="M-240 1235c0-8.28 6.72-15 15-15h370c8.28 0 15 6.72 15 15v83.33c0 8.3-6.72 15-15 15h-370c-8.28 0-15-6.7-15-15z" stroke="#333" stroke-width="3" fill="#fff"/><use xlink:href="#F" transform="matrix(1,0,0,1,-235,1225) translate(90.47530864197532 44.388888888888886)"/><use xlink:href="#G" transform="matrix(1,0,0,1,-235,1225) translate(196.12962962962962 44.388888888888886)"/><use xlink:href="#N" transform="matrix(1,0,0,1,-235,1225) translate(153.0555555555556 74.6111111111111)"/><use xlink:href="#I" transform="matrix(1,0,0,1,-235,1225) translate(196.26543209876544 74.6111111111111)"/><path d="M160 1235c0-8.28 6.72-15 15-15h130c8.28 0 15 6.72 15 15v83.33c0 8.3-6.72 15-15 15H175c-8.28 0-15-6.7-15-15z" stroke="#333" stroke-width="3" fill="#fff"/><use xlink:href="#O" transform="matrix(1,0,0,1,165,1225) translate(25.25925925925926 24.888888888888886)"/><use xlink:href="#G" transform="matrix(1,0,0,1,165,1225) translate(23.30246913580247 62.222222222222214)"/><use xlink:href="#P" transform="matrix(1,0,0,1,165,1225) translate(35.555555555555586 92.44444444444443)"/><use xlink:href="#I" transform="matrix(1,0,0,1,165,1225) translate(73.76543209876543 92.44444444444443)"/><path d="M184.86 1534.96c0-3.32 2.68-6 6-6H354c3.3 0 6 2.68 6 6v51.33c0 3.3-2.7 6-6 6H190.86c-3.32 0-6-2.7-6-6z" stroke="#000" stroke-opacity="0" stroke-width="3" fill="#fff" fill-opacity="0"/><use xlink:href="#b" transform="matrix(1,0,0,1,189.85799210232278,1533.9583327626274) translate(11.333333333333343 17.77777777777778)"/><use xlink:href="#Q" transform="matrix(1,0,0,1,189.85799210232278,1533.9583327626274) translate(108.61728395061729 17.77777777777778)"/><use xlink:href="#R" transform="matrix(1,0,0,1,189.85799210232278,1533.9583327626274) translate(30.561728395061728 44.44444444444444)"/><path d="M-800 1504v-20.66" stroke="#333" stroke-width="2" fill="none"/><path d="M-799 1505h-2v-1.03h2zM-800.04 1482.34l1.04-.07v1.1h-2v-1.15z" fill="#333"/><path d="M320 1235c0-8.28 6.72-15 15-15h130c8.28 0 15 6.72 15 15v83.33c0 8.3-6.72 15-15 15H335c-8.28 0-15-6.7-15-15z" stroke="#333" stroke-width="3" fill="#fff"/><use xlink:href="#O" transform="matrix(1,0,0,1,325,1225) translate(25.25925925925926 24.888888888888886)"/><use xlink:href="#G" transform="matrix(1,0,0,1,325,1225) translate(23.30246913580247 62.222222222222214)"/><use xlink:href="#S" transform="matrix(1,0,0,1,325,1225) translate(36.141975308642 92.44444444444443)"/><use xlink:href="#I" transform="matrix(1,0,0,1,325,1225) translate(73.17901234567901 92.44444444444443)"/><path d="M480 1235c0-8.28 6.72-15 15-15h430c8.28 0 15 6.72 15 15v83.33c0 8.3-6.72 15-15 15H495c-8.28 0-15-6.7-15-15z" stroke="#333" stroke-width="3" fill="#fff"/><use xlink:href="#F" transform="matrix(1,0,0,1,485,1225) translate(120.47530864197532 44.388888888888886)"/><use xlink:href="#G" transform="matrix(1,0,0,1,485,1225) translate(226.12962962962962 44.388888888888886)"/><use xlink:href="#T" transform="matrix(1,0,0,1,485,1225) translate(186.141975308642 74.6111111111111)"/><use xlink:href="#I" transform="matrix(1,0,0,1,485,1225) translate(223.179012345679 74.6111111111111)"/><path d="M-795 2371.67H994.55M-794.87 2371.67H-800" stroke="#333" stroke-width="10" fill="none"/><path d="M1013.82 2371.67l-14.27 4.63v-9.27z" stroke="#333" stroke-width="10" fill="#333"/><path d="M-80 1453.08c0-3.3 2.7-6 6-6H74c3.3 0 6 2.7 6 6v51.75c0 3.32-2.7 6-6 6H-74c-3.3 0-6-2.68-6-6z" stroke="#000" stroke-opacity="0" stroke-width="3" fill="#fff" fill-opacity="0"/><use xlink:href="#b" transform="matrix(1,0,0,1,-75,1452.083333333333) translate(3.333333333333343 17.77777777777778)"/><use xlink:href="#Q" transform="matrix(1,0,0,1,-75,1452.083333333333) translate(100.61728395061729 17.77777777777778)"/><use xlink:href="#R" transform="matrix(1,0,0,1,-75,1452.083333333333) translate(22.561728395061728 44.44444444444444)"/><path d="M0 1511.83v44" stroke="#333" stroke-width="2" fill="none"/><path d="M1 1511.86h-2v-1.03h2zM1 1556.94l-.96-.1-1.04.06v-1.1h2z" fill="#333"/><path d="M-480 1512.67c0-3.32 2.7-6 6-6h148c3.3 0 6 2.68 6 6v65.5c0 3.3-2.7 6-6 6h-148c-3.3 0-6-2.7-6-6z" stroke="#000" stroke-opacity="0" stroke-width="3" fill="#fff" fill-opacity="0"/><use xlink:href="#b" transform="matrix(1,0,0,1,-475,1511.6666666666665) translate(3.333333333333343 24.15277777777778)"/><use xlink:href="#Q" transform="matrix(1,0,0,1,-475,1511.6666666666665) translate(100.61728395061729 24.15277777777778)"/><use xlink:href="#R" transform="matrix(1,0,0,1,-475,1511.6666666666665) translate(22.561728395061728 50.81944444444445)"/><path d="M-400 1505.67V1485" stroke="#333" stroke-width="2" fill="none"/><path d="M-399 1506.67h-2v-1.03h2zM-400.04 1484l1.04-.06v1.1h-2v-1.15z" fill="#333"/><path d="M720.9 1821c0-3.3 2.67-6 6-6h148c3.3 0 6 2.7 6 6v48c0 3.3-2.7 6-6 6h-148c-3.33 0-6-2.7-6-6z" stroke="#000" stroke-opacity="0" stroke-width="3" fill="#fff" fill-opacity="0"/><use xlink:href="#b" transform="matrix(1,0,0,1,725.8860225202538,1819.999999714647) translate(3.333333333333343 17.77777777777778)"/><use xlink:href="#Q" transform="matrix(1,0,0,1,725.8860225202538,1819.999999714647) translate(100.61728395061729 17.77777777777778)"/><use xlink:href="#R" transform="matrix(1,0,0,1,725.8860225202538,1819.999999714647) translate(22.561728395061728 44.44444444444444)"/><path d="M800.9 1876v39.83" stroke="#333" stroke-width="2" fill="none"/><path d="M801.9 1876.03h-2V1875h2zM801.9 1916.94l-.97-.1-1.04.06v-1.1h2z" fill="#333"/><path d="M800 2325v41.67" stroke="#333" stroke-width="10" fill="none"/><path d="M805 2325.13h-10V2320h10z" fill="#333"/><path d="M800 2366.54v5.13" stroke="#333" stroke-width="10" fill="none"/><path d="M-220 1461.67c0 11.5-8.95 20.83-20 20.83s-20-9.33-20-20.83c0-11.5 8.95-20.84 20-20.84s20 9.33 20 20.84z" stroke="#333" stroke-width="3" fill="#a3d977"/><path d="M-298.6 1380h117.2v36.67h-117.2z" fill="#fff" fill-opacity="0"/><use xlink:href="#U" transform="matrix(1,0,0,1,-293.6111111111111,1385) translate(0 17.77777777777778)"/><path d="M-240 1417.67v20.66" stroke="#333" stroke-width="2" fill="none"/><path d="M-239 1417.7h-2v-1.03h2zM-239 1439.44l-.96-.1-1.04.06v-1.1h2z" fill="#333"/><path d="M500 1819.17c0 11.5-8.95 20.83-20 20.83s-20-9.33-20-20.83c0-11.5 8.95-20.84 20-20.84s20 9.33 20 20.84z" stroke="#333" stroke-width="3" fill="#a3d977"/><path d="M421.4 1737.5h117.2v36.67H421.4z" fill="#fff" fill-opacity="0"/><use xlink:href="#U" transform="matrix(1,0,0,1,426.3888888888889,1742.4999988585882) translate(0 17.77777777777778)"/><path d="M480 1775.17v20.66" stroke="#333" stroke-width="2" fill="none"/><path d="M481 1775.2h-2v-1.03h2zM481 1796.94l-.96-.1-1.04.06v-1.1h2z" fill="#333"/><path d="M120 1483.75h80v32.5h-80z" fill="#fff" fill-opacity="0"/><use xlink:href="#V" transform="matrix(1,0,0,1,125,1488.7499999999998) translate(4.8456790123456805 17.77777777777778)"/><path d="M180 1579.17c0 11.5-8.95 20.83-20 20.83s-20-9.33-20-20.83c0-11.5 8.95-20.84 20-20.84s20 9.33 20 20.84z" stroke="#333" stroke-width="3" fill="#c92d39"/><path d="M160 1517.25v38.58" stroke="#333" stroke-width="2" fill="none"/><path d="M161 1517.28h-2v-1.03h2zM161 1556.94l-.96-.1-1.04.06v-1.1h2z" fill="#333"/><path d="M290.9 1605h80v32.5h-80z" fill="#fff" fill-opacity="0"/><use xlink:href="#V" transform="matrix(1,0,0,1,295.88602252025385,1609.9999988585882) translate(4.8456790123456805 17.77777777777778)"/><path d="M350.9 1700.42c0 11.5-8.97 20.83-20 20.83-11.06 0-20-9.33-20-20.83 0-11.5 8.94-20.84 20-20.84 11.03 0 20 9.33 20 20.84z" stroke="#333" stroke-width="3" fill="#c92d39"/><path d="M330.9 1638.5v38.58" stroke="#333" stroke-width="2" fill="none"/><path d="M331.9 1638.53h-2v-1.03h2zM331.9 1678.2l-.97-.12-1.04.07v-1.1h2z" fill="#333"/><path d="M955.43 1939.17c0 11.5-8.95 20.83-20 20.83-11.04 0-20-9.33-20-20.83 0-11.5 8.96-20.84 20-20.84 11.05 0 20 9.33 20 20.84z" stroke="#333" stroke-width="3" fill="#a3d977"/><path d="M876.82 1860h117.22v36.67H876.82z" fill="#fff" fill-opacity="0"/><use xlink:href="#U" transform="matrix(1,0,0,1,881.8219597550305,1865) translate(0 17.77777777777778)"/><path d="M935.43 1897.67v18.16" stroke="#333" stroke-width="2" fill="none"/><path d="M936.43 1897.7h-2v-1.03h2zM936.43 1916.94l-.96-.1-1.04.06v-1.1h2z" fill="#333"/><path d="M-240 1631.08v-28.58" stroke="#333" stroke-width="2" fill="none"/><path d="M-239 1632.08h-2v-1.02h2zM-240.04 1601.5l1.04-.06v1.1h-2v-1.15z" fill="#333"/><path d="M290.9 2006c0-3.3 2.67-6 6-6h368c3.3 0 6 2.7 6 6v88c0 3.3-2.7 6-6 6h-368c-3.33 0-6-2.7-6-6z" stroke="#000" stroke-opacity="0" stroke-width="3" fill="#fff" fill-opacity="0"/><use xlink:href="#a" transform="matrix(1,0,0,1,295.8860225202539,2005) translate(0 23.40277777777778)"/><use xlink:href="#b" transform="matrix(1,0,0,1,295.8860225202539,2005) translate(22.22222222222222 23.40277777777778)"/><use xlink:href="#c" transform="matrix(1,0,0,1,295.8860225202539,2005) translate(119.50617283950618 23.40277777777778)"/><use xlink:href="#d" transform="matrix(1,0,0,1,295.8860225202539,2005) translate(223.14814814814815 23.40277777777778)"/><use xlink:href="#e" transform="matrix(1,0,0,1,295.8860225202539,2005) translate(0 50.06944444444445)"/><use xlink:href="#f" transform="matrix(1,0,0,1,295.8860225202539,2005) translate(22.22222222222222 50.06944444444445)"/><use xlink:href="#g" transform="matrix(1,0,0,1,295.8860225202539,2005) translate(90 50.06944444444445)"/><use xlink:href="#h" transform="matrix(1,0,0,1,295.8860225202539,2005) translate(170.24691358024688 50.06944444444445)"/><use xlink:href="#i" transform="matrix(1,0,0,1,295.8860225202539,2005) translate(187.4691358024691 50.06944444444445)"/><use xlink:href="#j" transform="matrix(1,0,0,1,295.8860225202539,2005) translate(233.95061728395058 50.06944444444445)"/><use xlink:href="#k" transform="matrix(1,0,0,1,295.8860225202539,2005) translate(272.16049382716045 50.06944444444445)"/><use xlink:href="#l" transform="matrix(1,0,0,1,295.8860225202539,2005) translate(0 76.73611111111111)"/><use xlink:href="#m" transform="matrix(1,0,0,1,295.8860225202539,2005) translate(22.22222222222222 76.73611111111111)"/><use xlink:href="#n" transform="matrix(1,0,0,1,295.8860225202539,2005) translate(102.46913580246914 76.73611111111111)"/><use xlink:href="#o" transform="matrix(1,0,0,1,295.8860225202539,2005) translate(124.62962962962963 76.73611111111111)"/><path d="M480.9 1999v-36.5" stroke="#333" stroke-width="2" fill="none"/><path d="M481.9 2000h-2v-1.03h2zM480.85 1961.5l1.04-.06v1.1h-2v-1.15z" fill="#333"/><path d="M-705.73 1400h200v36.67h-200z" fill="#fff" fill-opacity="0"/><use xlink:href="#W" transform="matrix(1,0,0,1,-700.7273065940556,1405) translate(1.7962962962963047 19.46527777777778)"/><use xlink:href="#X" transform="matrix(1,0,0,1,-700.7273065940556,1405) translate(64.6358024691358 19.46527777777778)"/><use xlink:href="#Y" transform="matrix(1,0,0,1,-700.7273065940556,1405) translate(115.12962962962963 19.46527777777778)"/><path d="M-605.73 1437.67V1459" stroke="#333" stroke-width="2" fill="none"/><path d="M-604.73 1437.7h-2v-1.03h2z" fill="#333"/><path d="M-605.73 1458.97v1.03" stroke="#333" stroke-width="2" fill="none"/><path d="M-249.15 1510.83h209.2v36.67h-209.2z" fill="#fff" fill-opacity="0"/><use xlink:href="#W" transform="matrix(1,0,0,1,-244.15142635219868,1515.8333333333328) translate(6.296296296296305 19.46527777777778)"/><use xlink:href="#X" transform="matrix(1,0,0,1,-244.15142635219868,1515.8333333333328) translate(69.1358024691358 19.46527777777778)"/><use xlink:href="#Y" transform="matrix(1,0,0,1,-244.15142635219868,1515.8333333333328) translate(119.62962962962963 19.46527777777778)"/><path d="M530.1 1880.83h200v36.67h-200z" fill="#fff" fill-opacity="0"/><use xlink:href="#W" transform="matrix(1,0,0,1,535.1077931043235,1885.8333333333333) translate(0 17.77777777777778)"/><use xlink:href="#X" transform="matrix(1,0,0,1,535.1077931043235,1885.8333333333333) translate(62.8395061728395 17.77777777777778)"/><use xlink:href="#Y" transform="matrix(1,0,0,1,535.1077931043235,1885.8333333333333) translate(113.33333333333333 17.77777777777778)"/><path d="M630.1 1918.5v19.67" stroke="#333" stroke-width="2" fill="none"/><path d="M631.1 1918.53h-2v-1.03h2z" fill="#333"/><path d="M630.1 1938.14v1.03M-144.43 1548.5v29.67" stroke="#333" stroke-width="2" fill="none"/><path d="M-143.43 1548.53h-2v-1.03h2z" fill="#333"/><path d="M-144.43 1578.14v1.03M-941.77 1319.33v136.7" stroke="#333" stroke-width="2" fill="none"/><path d="M-940.77 1319.36h-2v-1.03h2z" fill="#333"/><path d="M-941.77 1456v1.02M-777.5 1460h4.04m8.07 0h8.08m8.08 0h8.07m8.07 0h8.07m8.08 0h8.07m8.07 0h8.06m8.08 0h8.07m8.08 0h8.07m8.08 0h8.07m8.07 0h8.07m8.08 0h8.07m8.06 0h8.07m8.07 0h8.08m8.07 0h8.07m8.07 0h8.07m8.07 0h8.07m8.08 0h8.08m8.07 0h8.07m8.07 0h8.08m8.07 0h8.07m8.06 0h8.08m8.07 0h8.08m8.07 0h4.04" stroke="#333" stroke-width="2" fill="none"/><path d="M-777.47 1461h-1.14l.1-.96-.06-1.04h1.1zM-421.43 1461h-.9v-2h1.14z" fill="#333"/><path d="M-377.5 1461.67h115" stroke="#333" stroke-width="2" fill="none"/><path d="M-377.47 1462.67h-1.14l.1-.96-.06-1.03h1.1zM-261.5 1461.63l.06 1.04h-1.1v-2h1.15z" fill="#333"/><path d="M-822.5 1460H-979" stroke="#333" stroke-width="2" fill="none"/><path d="M-821.5 1459.96l.06 1.04h-1.1v-2h1.15z" fill="#333"/><path d="M-978.97 1460H-980M-217.5 1579.17h4.07m8.12 0h8.12m8.12 0h8.12m8.13 0h8.1m8.14 0h8.12m8.13 0h8.1m8.14 0h8.12m8.13 0h8.1m8.14 0h8.12m8.13 0h8.1m8.14 0h8.12m8.12 0h8.13m8.13 0h4.07" stroke="#333" stroke-width="2" fill="none"/><path d="M-217.47 1580.17h-1.14l.1-.96-.06-1.03h1.1zM-21.5 1579.13l.06 1.04h-1.1v-2h1.15z" fill="#333"/><path d="M22.5 1579.17h115" stroke="#333" stroke-width="2" fill="none"/><path d="M22.53 1580.17H21.4l.1-.96-.06-1.03h1.1zM138.5 1579.13l.06 1.04h-1.1v-2h1.15z" fill="#333"/><path d="M503.4 1939.17h4.03m8.1 0h8.08m8.1 0h8.1m8.07 0h8.1m8.08 0h8.1m8.08 0h8.08m8.1 0h8.1m8.08 0h8.1m8.07 0h8.1m8.08 0h8.1m8.08 0h8.1m8.08 0h8.1m8.08 0h8.1m8.07 0h8.1m8.08 0h8.1m8.1 0h8.07m8.1 0h8.08m8.1 0h4.03" stroke="#333" stroke-width="2" fill="none"/><path d="M503.4 1940.17h-1.12l.1-.96-.06-1.03h1.1zM779.38 1939.13l.07 1.04h-1.1v-2h1.15z" fill="#333"/><path d="M823.4 1939.17h89.53" stroke="#333" stroke-width="2" fill="none"/><path d="M823.4 1940.17h-1.12l.1-.96-.06-1.03h1.1zM913.93 1939.13l.07 1.04h-1.1v-2h1.14z" fill="#333"/><path d="M-430 1638.08c0-3.3 2.7-6 6-6h368c3.3 0 6 2.7 6 6v88c0 3.32-2.7 6-6 6h-368c-3.3 0-6-2.68-6-6z" stroke="#000" stroke-opacity="0" stroke-width="3" fill="#fff" fill-opacity="0"/><g><use xlink:href="#a" transform="matrix(1,0,0,1,-425,1637.0833323345985) translate(0 23.40277777777778)"/><use xlink:href="#b" transform="matrix(1,0,0,1,-425,1637.0833323345985) translate(22.22222222222222 23.40277777777778)"/><use xlink:href="#c" transform="matrix(1,0,0,1,-425,1637.0833323345985) translate(119.50617283950618 23.40277777777778)"/><use xlink:href="#d" transform="matrix(1,0,0,1,-425,1637.0833323345985) translate(223.14814814814815 23.40277777777778)"/><use xlink:href="#e" transform="matrix(1,0,0,1,-425,1637.0833323345985) translate(0 50.06944444444445)"/><use xlink:href="#f" transform="matrix(1,0,0,1,-425,1637.0833323345985) translate(22.22222222222222 50.06944444444445)"/><use xlink:href="#g" transform="matrix(1,0,0,1,-425,1637.0833323345985) translate(90 50.06944444444445)"/><use xlink:href="#h" transform="matrix(1,0,0,1,-425,1637.0833323345985) translate(170.24691358024688 50.06944444444445)"/><use xlink:href="#i" transform="matrix(1,0,0,1,-425,1637.0833323345985) translate(187.4691358024691 50.06944444444445)"/><use xlink:href="#j" transform="matrix(1,0,0,1,-425,1637.0833323345985) translate(233.95061728395058 50.06944444444445)"/><use xlink:href="#k" transform="matrix(1,0,0,1,-425,1637.0833323345985) translate(272.16049382716045 50.06944444444445)"/><use xlink:href="#l" transform="matrix(1,0,0,1,-425,1637.0833323345985) translate(0 76.73611111111111)"/><use xlink:href="#m" transform="matrix(1,0,0,1,-425,1637.0833323345985) translate(22.22222222222222 76.73611111111111)"/><use xlink:href="#n" transform="matrix(1,0,0,1,-425,1637.0833323345985) translate(102.46913580246914 76.73611111111111)"/><use xlink:href="#o" transform="matrix(1,0,0,1,-425,1637.0833323345985) translate(124.62962962962963 76.73611111111111)"/></g><path d="M-990 1511c0-3.3 2.7-6 6-6h368c3.3 0 6 2.7 6 6v88c0 3.3-2.7 6-6 6h-368c-3.3 0-6-2.7-6-6z" stroke="#000" stroke-opacity="0" stroke-width="3" fill="#fff" fill-opacity="0"/><g><use xlink:href="#a" transform="matrix(1,0,0,1,-985,1509.9999988585882) translate(0 23.40277777777778)"/><use xlink:href="#b" transform="matrix(1,0,0,1,-985,1509.9999988585882) translate(22.22222222222222 23.40277777777778)"/><use xlink:href="#c" transform="matrix(1,0,0,1,-985,1509.9999988585882) translate(119.50617283950618 23.40277777777778)"/><use xlink:href="#d" transform="matrix(1,0,0,1,-985,1509.9999988585882) translate(223.14814814814815 23.40277777777778)"/><use xlink:href="#e" transform="matrix(1,0,0,1,-985,1509.9999988585882) translate(0 50.06944444444445)"/><use xlink:href="#f" transform="matrix(1,0,0,1,-985,1509.9999988585882) translate(22.22222222222222 50.06944444444445)"/><use xlink:href="#g" transform="matrix(1,0,0,1,-985,1509.9999988585882) translate(90 50.06944444444445)"/><use xlink:href="#h" transform="matrix(1,0,0,1,-985,1509.9999988585882) translate(170.24691358024688 50.06944444444445)"/><use xlink:href="#i" transform="matrix(1,0,0,1,-985,1509.9999988585882) translate(187.4691358024691 50.06944444444445)"/><use xlink:href="#j" transform="matrix(1,0,0,1,-985,1509.9999988585882) translate(233.95061728395058 50.06944444444445)"/><use xlink:href="#k" transform="matrix(1,0,0,1,-985,1509.9999988585882) translate(272.16049382716045 50.06944444444445)"/><use xlink:href="#l" transform="matrix(1,0,0,1,-985,1509.9999988585882) translate(0 76.73611111111111)"/><use xlink:href="#m" transform="matrix(1,0,0,1,-985,1509.9999988585882) translate(22.22222222222222 76.73611111111111)"/><use xlink:href="#n" transform="matrix(1,0,0,1,-985,1509.9999988585882) translate(102.46913580246914 76.73611111111111)"/><use xlink:href="#o" transform="matrix(1,0,0,1,-985,1509.9999988585882) translate(124.62962962962963 76.73611111111111)"/></g><path d="M-670.9 1140h300v40h-300z" fill="#fff" fill-opacity="0"/><g><use xlink:href="#Z" transform="matrix(1,0,0,1,-665.8860225202538,1145) translate(36.5432098765432 19.65277777777778)"/><use xlink:href="#aa" transform="matrix(1,0,0,1,-665.8860225202538,1145) translate(94.38271604938271 19.65277777777778)"/><use xlink:href="#ab" transform="matrix(1,0,0,1,-665.8860225202538,1145) translate(141.23456790123458 19.65277777777778)"/><use xlink:href="#ac" transform="matrix(1,0,0,1,-665.8860225202538,1145) translate(164.62962962962962 19.65277777777778)"/></g><path d="M-190 1140h300v40h-300z" fill="#fff" fill-opacity="0"/><g><use xlink:href="#ad" transform="matrix(1,0,0,1,-185,1145) translate(37.83950617283952 19.65277777777778)"/><use xlink:href="#aa" transform="matrix(1,0,0,1,-185,1145) translate(115.37037037037038 19.65277777777778)"/><use xlink:href="#ae" transform="matrix(1,0,0,1,-185,1145) translate(162.22222222222223 19.65277777777778)"/><use xlink:href="#af" transform="matrix(1,0,0,1,-185,1145) translate(205.4320987654321 19.65277777777778)"/></g><path d="M170.9 1140h140v40h-140z" fill="#fff" fill-opacity="0"/><g><use xlink:href="#ag" transform="matrix(1,0,0,1,175.88602252025385,1145) translate(15.092592592592595 19.65277777777778)"/><use xlink:href="#ah" transform="matrix(1,0,0,1,175.88602252025385,1145) translate(74.2283950617284 19.65277777777778)"/></g><path d="M330 1140h140v40H330z" fill="#fff" fill-opacity="0"/><g><use xlink:href="#ag" transform="matrix(1,0,0,1,335,1145) translate(15.092592592592595 19.65277777777778)"/><use xlink:href="#ah" transform="matrix(1,0,0,1,335,1145) translate(74.2283950617284 19.65277777777778)"/></g><path d="M560 1140h300v40H560z" fill="#fff" fill-opacity="0"/><g><use xlink:href="#ai" transform="matrix(1,0,0,1,565,1145) translate(100.58641975308642 19.65277777777778)"/><use xlink:href="#ah" transform="matrix(1,0,0,1,565,1145) translate(148.73456790123458 19.65277777777778)"/></g><path d="M-520.9 1181v36.5" stroke="#333" stroke-width="2" fill="none"/><path d="M-519.9 1181.03h-2V1180h2zM-519.9 1218.5h-2v-1.03h2z" fill="#333"/><path d="M-40 1181v36.5" stroke="#333" stroke-width="2" fill="none"/><path d="M-39 1181.03h-2V1180h2zM-39 1218.5h-2v-1.03h2z" fill="#333"/><path d="M240.9 1181v36.5" stroke="#333" stroke-width="2" fill="none"/><path d="M241.9 1181.03h-2V1180h2zM241.9 1218.5h-2v-1.03h2z" fill="#333"/><path d="M400 1181v36.5" stroke="#333" stroke-width="2" fill="none"/><path d="M401 1181.03h-2V1180h2zM401 1218.5h-2v-1.03h2z" fill="#333"/><path d="M710 1181v36.5" stroke="#333" stroke-width="2" fill="none"/><path d="M711 1181.03h-2V1180h2zM711 1218.5h-2v-1.03h2z" fill="#333"/><path d="M940 1235c0-8.28 6.72-15 15-15h150c8.28 0 15 6.72 15 15v83.33c0 8.3-6.72 15-15 15H955c-8.28 0-15-6.7-15-15z" stroke="#333" stroke-width="3" fill="#fff"/><g><use xlink:href="#O" transform="matrix(1,0,0,1,945,1225) translate(35.25925925925926 24.888888888888886)"/><use xlink:href="#G" transform="matrix(1,0,0,1,945,1225) translate(33.30246913580247 62.222222222222214)"/><use xlink:href="#aj" transform="matrix(1,0,0,1,945,1225) translate(46.141975308642 92.44444444444443)"/><use xlink:href="#I" transform="matrix(1,0,0,1,945,1225) translate(83.17901234567901 92.44444444444443)"/></g><path d="M960 2062.5c0 11.5-8.95 20.83-20 20.83s-20-9.32-20-20.83c0-11.5 8.95-20.83 20-20.83s20 9.32 20 20.83z" stroke="#333" stroke-width="3" fill="#ffc374"/><path d="M962.5 2062.5h3.92m7.82 0h7.83m7.82 0h7.8m7.84 0h7.82m7.83 0h7.8m7.84 0h7.82m7.83 0h7.8m7.84 0h7.82m7.83 0h7.8m7.84 0h7.82m7.83 0h3.9" stroke="#333" stroke-width="2" fill="none"/><path d="M962.53 2063.5h-1.14l.1-.96-.06-1.04h1.1z" fill="#333"/><path d="M1118.97 2062.5h1.03" stroke="#333" stroke-width="2" fill="none"/><path d="M940 1140h180v40H940z" fill="#fff" fill-opacity="0"/><g><use xlink:href="#ak" transform="matrix(1,0,0,1,945,1145) translate(24.629629629629633 19.65277777777778)"/><use xlink:href="#ah" transform="matrix(1,0,0,1,945,1145) translate(104.69135802469135 19.65277777777778)"/></g><path d="M260.9 1700.42c0 11.5-8.97 20.83-20 20.83-11.06 0-20-9.33-20-20.83 0-11.5 8.94-20.84 20-20.84 11.03 0 20 9.33 20 20.84z" stroke="#333" stroke-width="3" fill="#0c7cba"/><path d="M263.4 1700.42h44.98" stroke="#333" stroke-width="2" fill="none"/><path d="M263.4 1701.42h-1.12l.1-.96-.06-1.04h1.1zM309.38 1700.38l.07 1.04h-1.1v-2h1.15z" fill="#333"/><path d="M182.5 1700.42h4.5m8.96 0h8.98m8.96 0h4.48" stroke="#333" stroke-width="2" fill="none"/><path d="M182.53 1701.42h-1.14l.1-.96-.06-1.04h1.1zM219.38 1700.38l.07 1.04h-1.1v-2h1.15z" fill="#333"/><path d="M240.9 1593.3v83.78" stroke="#333" stroke-width="2" fill="none"/><path d="M241.9 1593.32h-2v-1.03h2zM241.9 1678.2l-.97-.12-1.04.07v-1.1h2z" fill="#333"/><path d="M420 1819.17c0 11.5-8.95 20.83-20 20.83s-20-9.33-20-20.83c0-11.5 8.95-20.84 20-20.84s20 9.33 20 20.84z" stroke="#333" stroke-width="3" fill="#0c7cba"/><path d="M339.1 1674.75c0-3.3 2.7-6 6-6h163.16c3.3 0 6 2.7 6 6v51.33c0 3.32-2.7 6-6 6H345.1c-3.3 0-6-2.68-6-6z" stroke="#000" stroke-opacity="0" stroke-width="3" fill="#fff" fill-opacity="0"/><g><use xlink:href="#b" transform="matrix(1,0,0,1,344.11397747974615,1673.749999001265) translate(11.333333333333343 17.77777777777778)"/><use xlink:href="#Q" transform="matrix(1,0,0,1,344.11397747974615,1673.749999001265) translate(108.61728395061729 17.77777777777778)"/><use xlink:href="#R" transform="matrix(1,0,0,1,344.11397747974615,1673.749999001265) translate(30.561728395061728 44.44444444444444)"/></g><path d="M353.4 1819.17h3m6.03 0h6.03m6.02 0h3.02" stroke="#333" stroke-width="2" fill="none"/><path d="M353.4 1820.17h-1.12l.1-.96-.06-1.03h1.1zM378.5 1819.13l.06 1.04h-1.1v-2h1.15z" fill="#333"/><path d="M422.5 1819.17h35" stroke="#333" stroke-width="2" fill="none"/><path d="M422.53 1820.17h-1.14l.1-.96-.06-1.03h1.1zM458.5 1819.13l.06 1.04h-1.1v-2h1.15z" fill="#333"/><path d="M400 1733.08v62.75" stroke="#333" stroke-width="2" fill="none"/><path d="M401 1733.1h-2v-1.02h2zM401 1796.94l-.96-.1-1.04.06v-1.1h2z" fill="#333"/><path d="M160 1739v-15.25" stroke="#333" stroke-width="2" fill="none"/><path d="M161 1740h-2v-1.03h2zM159.96 1722.76l1.04-.07v1.08h-2v-1.14z" fill="#333"/><path d="M750 2126c0-3.3 2.7-6 6-6h368c3.3 0 6 2.7 6 6v88c0 3.3-2.7 6-6 6H756c-3.3 0-6-2.7-6-6z" stroke="#000" stroke-opacity="0" stroke-width="3" fill="#fff" fill-opacity="0"/><g><use xlink:href="#a" transform="matrix(1,0,0,1,755,2125) translate(0 23.40277777777778)"/><use xlink:href="#b" transform="matrix(1,0,0,1,755,2125) translate(22.22222222222222 23.40277777777778)"/><use xlink:href="#c" transform="matrix(1,0,0,1,755,2125) translate(119.50617283950618 23.40277777777778)"/><use xlink:href="#d" transform="matrix(1,0,0,1,755,2125) translate(223.14814814814815 23.40277777777778)"/><use xlink:href="#e" transform="matrix(1,0,0,1,755,2125) translate(0 50.06944444444445)"/><use xlink:href="#f" transform="matrix(1,0,0,1,755,2125) translate(22.22222222222222 50.06944444444445)"/><use xlink:href="#g" transform="matrix(1,0,0,1,755,2125) translate(90 50.06944444444445)"/><use xlink:href="#h" transform="matrix(1,0,0,1,755,2125) translate(170.24691358024688 50.06944444444445)"/><use xlink:href="#i" transform="matrix(1,0,0,1,755,2125) translate(187.4691358024691 50.06944444444445)"/><use xlink:href="#j" transform="matrix(1,0,0,1,755,2125) translate(233.95061728395058 50.06944444444445)"/><use xlink:href="#k" transform="matrix(1,0,0,1,755,2125) translate(272.16049382716045 50.06944444444445)"/><use xlink:href="#l" transform="matrix(1,0,0,1,755,2125) translate(0 76.73611111111111)"/><use xlink:href="#m" transform="matrix(1,0,0,1,755,2125) translate(22.22222222222222 76.73611111111111)"/><use xlink:href="#n" transform="matrix(1,0,0,1,755,2125) translate(102.46913580246914 76.73611111111111)"/><use xlink:href="#o" transform="matrix(1,0,0,1,755,2125) translate(124.62962962962963 76.73611111111111)"/></g><path d="M940 2120" stroke="#333" stroke-width="2" fill="none"/><path fill="#333"/><path fill="#333"/><path d="M940 2085.84V2119" stroke="#333" stroke-width="2" fill="none"/><path d="M939.96 2084.84l1.04-.07v1.1h-2v-1.15zM941 2120h-2v-1.03h2z" fill="#333"/><path d="M80.9 1870.17c0-3.32 2.67-6 6-6h368c3.3 0 6 2.68 6 6v88c0 3.3-2.7 6-6 6h-368c-3.33 0-6-2.7-6-6z" stroke="#000" stroke-opacity="0" stroke-width="3" fill="#fff" fill-opacity="0"/><g><use xlink:href="#a" transform="matrix(1,0,0,1,85.8860225202539,1869.1666678080785) translate(0 23.40277777777778)"/><use xlink:href="#b" transform="matrix(1,0,0,1,85.8860225202539,1869.1666678080785) translate(22.22222222222222 23.40277777777778)"/><use xlink:href="#c" transform="matrix(1,0,0,1,85.8860225202539,1869.1666678080785) translate(119.50617283950618 23.40277777777778)"/><use xlink:href="#d" transform="matrix(1,0,0,1,85.8860225202539,1869.1666678080785) translate(223.14814814814815 23.40277777777778)"/><use xlink:href="#e" transform="matrix(1,0,0,1,85.8860225202539,1869.1666678080785) translate(0 50.06944444444445)"/><use xlink:href="#f" transform="matrix(1,0,0,1,85.8860225202539,1869.1666678080785) translate(22.22222222222222 50.06944444444445)"/><use xlink:href="#g" transform="matrix(1,0,0,1,85.8860225202539,1869.1666678080785) translate(90 50.06944444444445)"/><use xlink:href="#h" transform="matrix(1,0,0,1,85.8860225202539,1869.1666678080785) translate(170.24691358024688 50.06944444444445)"/><use xlink:href="#i" transform="matrix(1,0,0,1,85.8860225202539,1869.1666678080785) translate(187.4691358024691 50.06944444444445)"/><use xlink:href="#j" transform="matrix(1,0,0,1,85.8860225202539,1869.1666678080785) translate(233.95061728395058 50.06944444444445)"/><use xlink:href="#k" transform="matrix(1,0,0,1,85.8860225202539,1869.1666678080785) translate(272.16049382716045 50.06944444444445)"/><use xlink:href="#l" transform="matrix(1,0,0,1,85.8860225202539,1869.1666678080785) translate(0 76.73611111111111)"/><use xlink:href="#m" transform="matrix(1,0,0,1,85.8860225202539,1869.1666678080785) translate(22.22222222222222 76.73611111111111)"/><use xlink:href="#n" transform="matrix(1,0,0,1,85.8860225202539,1869.1666678080785) translate(102.46913580246914 76.73611111111111)"/><use xlink:href="#o" transform="matrix(1,0,0,1,85.8860225202539,1869.1666678080785) translate(124.62962962962963 76.73611111111111)"/></g><path d="M330.9 1842.5v20.67" stroke="#333" stroke-width="2" fill="none"/><path d="M330.85 1841.5l1.04-.06v1.1h-2v-1.15zM331.9 1864.17h-2v-1.03h2z" fill="#333"/><defs><path fill="#333" d="M9 0l6-27h63l36-188-63 39 6-31 66-41h29L110-27h60l-5 27H9" id="al"/><path fill="#333" d="M14 0l8-38h34L48 0H14" id="am"/><g id="a"><use transform="matrix(0.06172839506172839,0,0,0.06172839506172839,0,0)" xlink:href="#al"/><use transform="matrix(0.06172839506172839,0,0,0.06172839506172839,12.345679012345679,0)" xlink:href="#am"/></g><path fill="#333" d="M247 0h-39l-15-214-24 57L95 0H56L31-248h35L82-30l101-218h33l16 218 101-218h35" id="an"/><path fill="#333" d="M30-147c31-64 166-65 159 27C183-49 158 1 86 4 9 8 1-88 30-147zM88-20c53 0 68-48 68-100 0-31-11-51-44-50-52 1-68 46-68 97 0 32 13 53 44 53" id="ao"/><path fill="#333" d="M66-151c12-25 30-51 66-40l-6 26C45-176 58-65 38 0H6l36-190h30" id="ap"/><path fill="#333" d="M127 0L80-88 50-66 37 0H6l51-261h31L57-100l99-90h39l-93 82L161 0h-34" id="aq"/><path fill="#333" d="M76-167L44 0H12l33-167H18l4-23h27c3-47 25-81 82-69l-4 24c-35-8-44 15-46 45h37l-5 23H76" id="ar"/><path fill="#333" d="M6 0l50-261h32L37 0H6" id="as"/><path fill="#333" d="M188 0h-37l-8-164L71 0H34L18-190h31l8 164 75-164h34l8 164 74-164h31" id="at"/><g id="b"><use transform="matrix(0.06172839506172839,0,0,0.06172839506172839,0,0)" xlink:href="#an"/><use transform="matrix(0.06172839506172839,0,0,0.06172839506172839,20.925925925925924,0)" xlink:href="#ao"/><use transform="matrix(0.06172839506172839,0,0,0.06172839506172839,33.2716049382716,0)" xlink:href="#ap"/><use transform="matrix(0.06172839506172839,0,0,0.06172839506172839,40.61728395061728,0)" xlink:href="#aq"/><use transform="matrix(0.06172839506172839,0,0,0.06172839506172839,51.72839506172839,0)" xlink:href="#ar"/><use transform="matrix(0.06172839506172839,0,0,0.06172839506172839,57.901234567901234,0)" xlink:href="#as"/><use transform="matrix(0.06172839506172839,0,0,0.06172839506172839,62.77777777777778,0)" xlink:href="#ao"/><use transform="matrix(0.06172839506172839,0,0,0.06172839506172839,75.12345679012346,0)" xlink:href="#at"/></g><path fill="#333" d="M11 0l48-248h184l-5 28H87l-15 79h140l-5 27H67L50-27h158l-5 27H11" id="au"/><path fill="#333" d="M124 0L87-78 21 0h-35l86-98-46-92h33l34 74 61-74h37l-83 92 50 98h-34" id="av"/><path fill="#333" d="M111-194c62-3 86 47 72 106H45c-7 38 6 69 45 68 27-1 43-14 53-32l24 11C152-15 129 4 87 4 38 3 12-23 12-71c0-70 32-119 99-123zm44 81c14-66-71-72-95-28-4 8-8 17-11 28h106" id="aw"/><path fill="#333" d="M44-68c0 29 11 47 38 47 30 0 42-19 51-41l28 9C148-21 126 4 82 4 31 4 10-29 12-85c3-77 74-140 146-93 12 8 15 23 18 40l-31 5c-1-22-13-36-36-36-52 0-65 49-65 101" id="ax"/><path fill="#333" d="M67 3c-93-2-31-127-26-193h32L48-50c-3 39 53 32 70 12 30-34 30-101 43-152h32L157 0h-30c1-10 6-24 4-33-14 20-29 37-64 36" id="ay"/><path fill="#333" d="M51-54c-9 22 5 41 31 30L79-1C43 14 10-4 19-52l22-115H19l5-23h22l19-43h21l-9 43h35l-4 23H73" id="az"/><path fill="#333" d="M50-231l6-30h32l-6 30H50zM6 0l37-190h31L37 0H6" id="aA"/><path fill="#333" d="M67-158c22-48 132-52 116 29L158 0h-32l25-140c3-38-53-32-70-12C52-117 51-52 38 0H6l36-190h30" id="aB"/><g id="c"><use transform="matrix(0.06172839506172839,0,0,0.06172839506172839,0,0)" xlink:href="#au"/><use transform="matrix(0.06172839506172839,0,0,0.06172839506172839,14.814814814814813,0)" xlink:href="#av"/><use transform="matrix(0.06172839506172839,0,0,0.06172839506172839,25.925925925925924,0)" xlink:href="#aw"/><use transform="matrix(0.06172839506172839,0,0,0.06172839506172839,38.2716049382716,0)" xlink:href="#ax"/><use transform="matrix(0.06172839506172839,0,0,0.06172839506172839,49.38271604938271,0)" xlink:href="#ay"/><use transform="matrix(0.06172839506172839,0,0,0.06172839506172839,61.728395061728385,0)" xlink:href="#az"/><use transform="matrix(0.06172839506172839,0,0,0.06172839506172839,67.90123456790123,0)" xlink:href="#aA"/><use transform="matrix(0.06172839506172839,0,0,0.06172839506172839,72.77777777777777,0)" xlink:href="#ao"/><use transform="matrix(0.06172839506172839,0,0,0.06172839506172839,85.12345679012346,0)" xlink:href="#aB"/></g><path fill="#333" d="M194-120c59 52 2 134-86 124-53-6-90-18-98-63l31-7c8 30 29 43 70 43 46 0 84-17 71-62-32-43-135-20-137-98-3-89 178-90 191-16l-30 9c-8-48-127-53-127 5 0 53 81 35 115 65" id="aC"/><path fill="#333" d="M165-48c-4 18 1 34 23 27l-3 20c-29 8-62 0-52-35h-2C116-14 99 4 63 4 30 4 8-16 8-49c0-68 71-67 138-67 10-26 0-56-31-54-26 1-42 9-47 31l-32-5c8-67 160-71 144 15-5 28-9 54-15 81zM42-50c3 52 80 24 89-6 7-12 7-24 11-38-47 1-103-4-100 44" id="aD"/><path fill="#333" d="M133-28C103 26-5 8 13-77c13-62 24-115 90-117 29-1 46 15 56 35l19-102h32L160 0h-30zM45-64c-2 27 10 43 35 43 54-1 69-50 69-103 0-29-15-46-42-46-53-1-58 58-62 106" id="aE"/><g id="d"><use transform="matrix(0.06172839506172839,0,0,0.06172839506172839,0,0)" xlink:href="#aC"/><use transform="matrix(0.06172839506172839,0,0,0.06172839506172839,14.814814814814813,0)" xlink:href="#az"/><use transform="matrix(0.06172839506172839,0,0,0.06172839506172839,20.98765432098765,0)" xlink:href="#aD"/><use transform="matrix(0.06172839506172839,0,0,0.06172839506172839,33.33333333333333,0)" xlink:href="#ap"/><use transform="matrix(0.06172839506172839,0,0,0.06172839506172839,40.679012345679006,0)" xlink:href="#az"/><use transform="matrix(0.06172839506172839,0,0,0.06172839506172839,46.85185185185185,0)" xlink:href="#aw"/><use transform="matrix(0.06172839506172839,0,0,0.06172839506172839,59.197530864197525,0)" xlink:href="#aE"/></g><path fill="#333" d="M123-251c66 0 92 69 53 113C138-94 73-75 39-27h128l-5 27H-2c17-92 123-93 159-163 14-28-1-64-36-62-29 2-46 17-54 41l-30-6c13-36 37-61 86-61" id="aF"/><g id="e"><use transform="matrix(0.06172839506172839,0,0,0.06172839506172839,0,0)" xlink:href="#aF"/><use transform="matrix(0.06172839506172839,0,0,0.06172839506172839,12.345679012345679,0)" xlink:href="#am"/></g><path fill="#333" d="M103-194c29 0 47 14 56 36 2-11 5-23 8-32h30L160-5C157 61 82 97 21 62 9 55 4 45 1 30l28-7c7 42 83 31 92-3 4-16 9-38 13-55-13 20-29 36-62 36-40 0-60-25-60-64 0-71 23-131 91-131zm4 24c-53 0-58 54-61 104-2 27 10 44 36 44 49 0 65-50 67-102 1-29-15-46-42-46" id="aG"/><g id="f"><use transform="matrix(0.06172839506172839,0,0,0.06172839506172839,0,0)" xlink:href="#aC"/><use transform="matrix(0.06172839506172839,0,0,0.06172839506172839,14.814814814814813,0)" xlink:href="#aA"/><use transform="matrix(0.06172839506172839,0,0,0.06172839506172839,19.691358024691354,0)" xlink:href="#aG"/><use transform="matrix(0.06172839506172839,0,0,0.06172839506172839,32.03703703703703,0)" xlink:href="#aB"/><use transform="matrix(0.06172839506172839,0,0,0.06172839506172839,44.38271604938271,0)" xlink:href="#aD"/><use transform="matrix(0.06172839506172839,0,0,0.06172839506172839,56.728395061728385,0)" xlink:href="#as"/></g><path fill="#333" d="M89 0H52L20-190h33L74-25l89-165h34" id="aH"/><path fill="#333" d="M55-144c13 50 104 24 104 88C159 21 15 23 1-39l26-10c6 40 102 42 102-4-13-50-104-23-104-87 0-71 143-71 148-8l-29 4c-5-35-85-37-89 0" id="aI"/><path fill="#333" d="M58-38C53-5 46 26 28 46H7C19 32 27 18 32 0H17l7-38h34" id="aJ"/><g id="g"><use transform="matrix(0.06172839506172839,0,0,0.06172839506172839,0,0)" xlink:href="#au"/><use transform="matrix(0.06172839506172839,0,0,0.06172839506172839,14.814814814814813,0)" xlink:href="#aH"/><use transform="matrix(0.06172839506172839,0,0,0.06172839506172839,25.925925925925924,0)" xlink:href="#aw"/><use transform="matrix(0.06172839506172839,0,0,0.06172839506172839,38.2716049382716,0)" xlink:href="#aB"/><use transform="matrix(0.06172839506172839,0,0,0.06172839506172839,50.61728395061728,0)" xlink:href="#az"/><use transform="matrix(0.06172839506172839,0,0,0.06172839506172839,56.79012345679012,0)" xlink:href="#aI"/><use transform="matrix(0.06172839506172839,0,0,0.06172839506172839,67.90123456790123,0)" xlink:href="#aJ"/></g><g id="h"><use transform="matrix(0.06172839506172839,0,0,0.06172839506172839,0,0)" xlink:href="#aA"/><use transform="matrix(0.06172839506172839,0,0,0.06172839506172839,4.876543209876543,0)" xlink:href="#ar"/></g><path fill="#333" d="M198-190L69 30C53 58 25 83-20 72c4-11-1-27 19-22 33-1 43-29 59-52L20-190h32L79-34l84-156h35" id="aK"/><g id="i"><use transform="matrix(0.06172839506172839,0,0,0.06172839506172839,0,0)" xlink:href="#aD"/><use transform="matrix(0.06172839506172839,0,0,0.06172839506172839,12.345679012345679,0)" xlink:href="#aB"/><use transform="matrix(0.06172839506172839,0,0,0.06172839506172839,24.691358024691358,0)" xlink:href="#aK"/><use transform="matrix(0.06172839506172839,0,0,0.06172839506172839,34.1358024691358,0)" xlink:href="#aJ"/></g><g id="j"><use transform="matrix(0.06172839506172839,0,0,0.06172839506172839,0,0)" xlink:href="#aD"/><use transform="matrix(0.06172839506172839,0,0,0.06172839506172839,12.345679012345679,0)" xlink:href="#ap"/><use transform="matrix(0.06172839506172839,0,0,0.06172839506172839,19.691358024691358,0)" xlink:href="#aw"/></g><g id="k"><use transform="matrix(0.06172839506172839,0,0,0.06172839506172839,0,0)" xlink:href="#ap"/><use transform="matrix(0.06172839506172839,0,0,0.06172839506172839,7.345679012345679,0)" xlink:href="#aw"/><use transform="matrix(0.06172839506172839,0,0,0.06172839506172839,19.691358024691358,0)" xlink:href="#ax"/><use transform="matrix(0.06172839506172839,0,0,0.06172839506172839,30.80246913580247,0)" xlink:href="#ao"/><use transform="matrix(0.06172839506172839,0,0,0.06172839506172839,43.148148148148145,0)" xlink:href="#ap"/><use transform="matrix(0.06172839506172839,0,0,0.06172839506172839,50.49382716049382,0)" xlink:href="#aE"/><use transform="matrix(0.06172839506172839,0,0,0.06172839506172839,62.8395061728395,0)" xlink:href="#aw"/><use transform="matrix(0.06172839506172839,0,0,0.06172839506172839,75.18518518518518,0)" xlink:href="#aE"/></g><path fill="#333" d="M148-71c0-36-31-44-71-41l5-28c46 3 81-6 81-50 0-23-15-35-39-35-30 0-49 17-56 41l-32-3c12-39 42-63 90-64 43 0 69 19 71 60 1 43-30 58-65 66 27 5 49 22 49 53 0 85-133 99-164 35-4-7-7-15-9-22l29-9c8 25 25 45 58 45 34 1 53-17 53-48" id="aL"/><g id="l"><use transform="matrix(0.06172839506172839,0,0,0.06172839506172839,0,0)" xlink:href="#aL"/><use transform="matrix(0.06172839506172839,0,0,0.06172839506172839,12.345679012345679,0)" xlink:href="#am"/></g><path fill="#333" d="M219-77C219 17 104-2 11 0l48-248c73 2 169-15 169 57 0 38-24 54-60 60 29 5 51 21 51 54zm-26-111c0-44-62-31-105-33l-16 79c55 0 121 9 121-46zm-7 110c-1-49-69-36-119-38L50-27c61-1 137 12 136-51" id="aM"/><g id="m"><use transform="matrix(0.06172839506172839,0,0,0.06172839506172839,0,0)" xlink:href="#aM"/><use transform="matrix(0.06172839506172839,0,0,0.06172839506172839,14.814814814814813,0)" xlink:href="#aD"/><use transform="matrix(0.06172839506172839,0,0,0.06172839506172839,27.160493827160494,0)" xlink:href="#ax"/><use transform="matrix(0.06172839506172839,0,0,0.06172839506172839,38.27160493827161,0)" xlink:href="#aq"/><use transform="matrix(0.06172839506172839,0,0,0.06172839506172839,49.38271604938272,0)" xlink:href="#ao"/><use transform="matrix(0.06172839506172839,0,0,0.06172839506172839,61.7283950617284,0)" xlink:href="#ar"/><use transform="matrix(0.06172839506172839,0,0,0.06172839506172839,67.90123456790124,0)" xlink:href="#ar"/></g><g id="n"><use transform="matrix(0.06172839506172839,0,0,0.06172839506172839,0,0)" xlink:href="#aA"/><use transform="matrix(0.06172839506172839,0,0,0.06172839506172839,4.876543209876543,0)" xlink:href="#aI"/></g><g id="o"><use transform="matrix(0.06172839506172839,0,0,0.06172839506172839,0,0)" xlink:href="#aI"/><use transform="matrix(0.06172839506172839,0,0,0.06172839506172839,11.11111111111111,0)" xlink:href="#aw"/><use transform="matrix(0.06172839506172839,0,0,0.06172839506172839,23.45679012345679,0)" xlink:href="#az"/></g><g id="p"><use transform="matrix(0.06172839506172839,0,0,0.06172839506172839,0,0)" xlink:href="#aC"/><use transform="matrix(0.06172839506172839,0,0,0.06172839506172839,14.814814814814813,0)" xlink:href="#az"/><use transform="matrix(0.06172839506172839,0,0,0.06172839506172839,20.98765432098765,0)" xlink:href="#aD"/><use transform="matrix(0.06172839506172839,0,0,0.06172839506172839,33.33333333333333,0)" xlink:href="#ap"/><use transform="matrix(0.06172839506172839,0,0,0.06172839506172839,40.679012345679006,0)" xlink:href="#az"/></g><g id="q"><use transform="matrix(0.06172839506172839,0,0,0.06172839506172839,0,0)" xlink:href="#an"/><use transform="matrix(0.06172839506172839,0,0,0.06172839506172839,20.925925925925924,0)" xlink:href="#ao"/><use transform="matrix(0.06172839506172839,0,0,0.06172839506172839,33.2716049382716,0)" xlink:href="#ap"/><use transform="matrix(0.06172839506172839,0,0,0.06172839506172839,40.61728395061728,0)" xlink:href="#aq"/><use transform="matrix(0.06172839506172839,0,0,0.06172839506172839,51.72839506172839,0)" xlink:href="#ar"/><use transform="matrix(0.06172839506172839,0,0,0.06172839506172839,57.901234567901234,0)" xlink:href="#as"/><use transform="matrix(0.06172839506172839,0,0,0.06172839506172839,62.77777777777778,0)" xlink:href="#ao"/><use transform="matrix(0.06172839506172839,0,0,0.06172839506172839,75.12345679012346,0)" xlink:href="#at"/></g><g id="r"><use transform="matrix(0.06172839506172839,0,0,0.06172839506172839,0,0)" xlink:href="#au"/><use transform="matrix(0.06172839506172839,0,0,0.06172839506172839,14.814814814814813,0)" xlink:href="#av"/><use transform="matrix(0.06172839506172839,0,0,0.06172839506172839,25.925925925925924,0)" xlink:href="#aw"/><use transform="matrix(0.06172839506172839,0,0,0.06172839506172839,38.2716049382716,0)" xlink:href="#ax"/><use transform="matrix(0.06172839506172839,0,0,0.06172839506172839,49.38271604938271,0)" xlink:href="#ay"/><use transform="matrix(0.06172839506172839,0,0,0.06172839506172839,61.728395061728385,0)" xlink:href="#az"/><use transform="matrix(0.06172839506172839,0,0,0.06172839506172839,67.90123456790123,0)" xlink:href="#aA"/><use transform="matrix(0.06172839506172839,0,0,0.06172839506172839,72.77777777777777,0)" xlink:href="#ao"/><use transform="matrix(0.06172839506172839,0,0,0.06172839506172839,85.12345679012346,0)" xlink:href="#aB"/></g><path fill="#333" d="M67-158c15-20 31-36 64-36 94 0 33 127 27 194h-32l25-140c3-38-53-32-70-12C52-117 51-51 37 0H6l51-261h31" id="aN"/><g id="s"><use transform="matrix(0.06172839506172839,0,0,0.06172839506172839,0,0)" xlink:href="#at"/><use transform="matrix(0.06172839506172839,0,0,0.06172839506172839,15.987654320987653,0)" xlink:href="#aA"/><use transform="matrix(0.06172839506172839,0,0,0.06172839506172839,20.864197530864196,0)" xlink:href="#az"/><use transform="matrix(0.06172839506172839,0,0,0.06172839506172839,27.037037037037035,0)" xlink:href="#aN"/></g><use transform="matrix(0.06172839506172839,0,0,0.06172839506172839,0,0)" xlink:href="#aD" id="t"/><path fill="#333" d="M125-24c46 0 70-25 89-51l25 16C214-24 183 4 123 4 8 4-5-146 60-208c32-50 158-61 191-5 5 7 9 14 11 22l-32 10c-9-28-33-43-69-43-74 0-108 51-108 125 0 46 24 75 72 75" id="aO"/><g id="u"><use transform="matrix(0.06172839506172839,0,0,0.06172839506172839,0,0)" xlink:href="#aO"/><use transform="matrix(0.06172839506172839,0,0,0.06172839506172839,15.987654320987653,0)" xlink:href="#ap"/><use transform="matrix(0.06172839506172839,0,0,0.06172839506172839,23.333333333333332,0)" xlink:href="#ao"/><use transform="matrix(0.06172839506172839,0,0,0.06172839506172839,35.67901234567901,0)" xlink:href="#aB"/></g><g id="v"><use transform="matrix(0.06172839506172839,0,0,0.06172839506172839,0,0)" xlink:href="#aC"/><use transform="matrix(0.06172839506172839,0,0,0.06172839506172839,14.814814814814813,0)" xlink:href="#ax"/><use transform="matrix(0.06172839506172839,0,0,0.06172839506172839,25.925925925925924,0)" xlink:href="#aN"/><use transform="matrix(0.06172839506172839,0,0,0.06172839506172839,38.2716049382716,0)" xlink:href="#aw"/><use transform="matrix(0.06172839506172839,0,0,0.06172839506172839,50.61728395061728,0)" xlink:href="#aE"/><use transform="matrix(0.06172839506172839,0,0,0.06172839506172839,62.962962962962955,0)" xlink:href="#ay"/><use transform="matrix(0.06172839506172839,0,0,0.06172839506172839,75.30864197530863,0)" xlink:href="#as"/><use transform="matrix(0.06172839506172839,0,0,0.06172839506172839,80.18518518518518,0)" xlink:href="#aw"/></g><path fill="#333" d="M249-183c0 48-29 72-75 77L221 0h-36l-43-103H65L45 0H11l48-248c83 2 190-17 190 65zm-34 3c0-55-74-39-127-41l-18 92c63-1 145 13 145-51" id="aP"/><path fill="#333" d="M67-162c32-53 139-36 121 50C175-51 163 2 97 4 68 4 52-11 42-31 38 6 28 39 22 75H-9l50-265h29c-1 10 0 20-3 28zm89 36c0-26-10-43-35-43-54 0-67 50-69 103-1 29 14 45 42 46 53 0 62-58 62-106" id="aQ"/><g id="w"><use transform="matrix(0.06172839506172839,0,0,0.06172839506172839,0,0)" xlink:href="#aP"/><use transform="matrix(0.06172839506172839,0,0,0.06172839506172839,15.987654320987653,0)" xlink:href="#aw"/><use transform="matrix(0.06172839506172839,0,0,0.06172839506172839,28.333333333333332,0)" xlink:href="#aQ"/><use transform="matrix(0.06172839506172839,0,0,0.06172839506172839,40.67901234567901,0)" xlink:href="#aw"/><use transform="matrix(0.06172839506172839,0,0,0.06172839506172839,53.02469135802469,0)" xlink:href="#aD"/><use transform="matrix(0.06172839506172839,0,0,0.06172839506172839,65.37037037037037,0)" xlink:href="#az"/><use transform="matrix(0.06172839506172839,0,0,0.06172839506172839,71.5432098765432,0)" xlink:href="#aI"/></g><g id="x"><use transform="matrix(0.06172839506172839,0,0,0.06172839506172839,0,0)" xlink:href="#aA"/><use transform="matrix(0.06172839506172839,0,0,0.06172839506172839,4.876543209876543,0)" xlink:href="#aB"/><use transform="matrix(0.06172839506172839,0,0,0.06172839506172839,17.22222222222222,0)" xlink:href="#aE"/><use transform="matrix(0.06172839506172839,0,0,0.06172839506172839,29.5679012345679,0)" xlink:href="#aw"/><use transform="matrix(0.06172839506172839,0,0,0.06172839506172839,41.913580246913575,0)" xlink:href="#ar"/><use transform="matrix(0.06172839506172839,0,0,0.06172839506172839,48.08641975308642,0)" xlink:href="#aA"/><use transform="matrix(0.06172839506172839,0,0,0.06172839506172839,52.96296296296296,0)" xlink:href="#aB"/><use transform="matrix(0.06172839506172839,0,0,0.06172839506172839,65.30864197530865,0)" xlink:href="#aA"/><use transform="matrix(0.06172839506172839,0,0,0.06172839506172839,70.18518518518519,0)" xlink:href="#az"/><use transform="matrix(0.06172839506172839,0,0,0.06172839506172839,76.35802469135803,0)" xlink:href="#aw"/><use transform="matrix(0.06172839506172839,0,0,0.06172839506172839,88.70370370370371,0)" xlink:href="#as"/><use transform="matrix(0.06172839506172839,0,0,0.06172839506172839,93.58024691358025,0)" xlink:href="#aK"/></g><g id="y"><use transform="matrix(0.06172839506172839,0,0,0.06172839506172839,0,0)" xlink:href="#ay"/><use transform="matrix(0.06172839506172839,0,0,0.06172839506172839,12.345679012345679,0)" xlink:href="#aB"/><use transform="matrix(0.06172839506172839,0,0,0.06172839506172839,24.691358024691358,0)" xlink:href="#az"/><use transform="matrix(0.06172839506172839,0,0,0.06172839506172839,30.864197530864196,0)" xlink:href="#aA"/><use transform="matrix(0.06172839506172839,0,0,0.06172839506172839,35.74074074074074,0)" xlink:href="#as"/></g><path fill="#333" d="M151-220L108 0H75l42-220H32l6-28h203l-5 28h-85" id="aR"/><path fill="#333" d="M248-111c6-24 9-61-24-58-72 9-57 108-77 169h-31l26-142c3-37-50-30-64-10C52-115 50-51 37 0H6l36-190h30c-1 10-6 24-4 32 13-43 101-52 105 5 13-22 29-41 61-41 90 0 28 129 23 194h-31" id="aS"/><g id="z"><use transform="matrix(0.06172839506172839,0,0,0.06172839506172839,0,0)" xlink:href="#aR"/><use transform="matrix(0.06172839506172839,0,0,0.06172839506172839,11.481481481481481,0)" xlink:href="#aw"/><use transform="matrix(0.06172839506172839,0,0,0.06172839506172839,23.827160493827158,0)" xlink:href="#ap"/><use transform="matrix(0.06172839506172839,0,0,0.06172839506172839,31.172839506172835,0)" xlink:href="#aS"/><use transform="matrix(0.06172839506172839,0,0,0.06172839506172839,49.62962962962962,0)" xlink:href="#aA"/><use transform="matrix(0.06172839506172839,0,0,0.06172839506172839,54.50617283950616,0)" xlink:href="#aB"/><use transform="matrix(0.06172839506172839,0,0,0.06172839506172839,66.85185185185185,0)" xlink:href="#aD"/><use transform="matrix(0.06172839506172839,0,0,0.06172839506172839,79.19753086419753,0)" xlink:href="#az"/><use transform="matrix(0.06172839506172839,0,0,0.06172839506172839,85.37037037037037,0)" xlink:href="#aw"/><use transform="matrix(0.06172839506172839,0,0,0.06172839506172839,97.71604938271605,0)" xlink:href="#aE"/></g><g id="A"><use transform="matrix(0.06172839506172839,0,0,0.06172839506172839,0,0)" xlink:href="#ao"/><use transform="matrix(0.06172839506172839,0,0,0.06172839506172839,12.345679012345679,0)" xlink:href="#ap"/></g><g id="C"><use transform="matrix(0.06172839506172839,0,0,0.06172839506172839,0,0)" xlink:href="#aR"/><use transform="matrix(0.06172839506172839,0,0,0.06172839506172839,13.333333333333332,0)" xlink:href="#aA"/><use transform="matrix(0.06172839506172839,0,0,0.06172839506172839,18.209876543209873,0)" xlink:href="#aS"/><use transform="matrix(0.06172839506172839,0,0,0.06172839506172839,36.66666666666666,0)" xlink:href="#aw"/><use transform="matrix(0.06172839506172839,0,0,0.06172839506172839,49.012345679012334,0)" xlink:href="#ao"/><use transform="matrix(0.06172839506172839,0,0,0.06172839506172839,61.35802469135801,0)" xlink:href="#ay"/><use transform="matrix(0.06172839506172839,0,0,0.06172839506172839,73.7037037037037,0)" xlink:href="#az"/></g><g id="D"><use transform="matrix(0.06172839506172839,0,0,0.06172839506172839,0,0)" xlink:href="#aA"/><use transform="matrix(0.06172839506172839,0,0,0.06172839506172839,4.876543209876543,0)" xlink:href="#aI"/></g><g id="E"><use transform="matrix(0.06172839506172839,0,0,0.06172839506172839,0,0)" xlink:href="#ap"/><use transform="matrix(0.06172839506172839,0,0,0.06172839506172839,7.345679012345679,0)" xlink:href="#aw"/><use transform="matrix(0.06172839506172839,0,0,0.06172839506172839,19.691358024691358,0)" xlink:href="#aD"/><use transform="matrix(0.06172839506172839,0,0,0.06172839506172839,32.03703703703704,0)" xlink:href="#ax"/><use transform="matrix(0.06172839506172839,0,0,0.06172839506172839,43.14814814814815,0)" xlink:href="#aN"/><use transform="matrix(0.06172839506172839,0,0,0.06172839506172839,55.49382716049383,0)" xlink:href="#aw"/><use transform="matrix(0.06172839506172839,0,0,0.06172839506172839,67.8395061728395,0)" xlink:href="#aE"/></g><path fill="#333" d="M266 0h-40l-56-210L115 0H75L2-248h35L96-30l15-64 43-154h32l59 218 59-218h35" id="aT"/><path fill="#333" d="M100-194c62-1 85 37 85 99 1 63-27 99-86 99S16-35 15-95c0-66 28-99 85-99zM99-20c44 1 53-31 53-75 0-43-8-75-51-75s-53 32-53 75 10 74 51 75" id="aU"/><path fill="#333" d="M114-163C36-179 61-72 57 0H25l-1-190h30c1 12-1 29 2 39 6-27 23-49 58-41v29" id="aV"/><path fill="#333" d="M143 0L79-87 56-68V0H24v-261h32v163l83-92h37l-77 82L181 0h-38" id="aW"/><path fill="#333" d="M101-234c-31-9-42 10-38 44h38v23H63V0H32v-167H5v-23h27c-7-52 17-82 69-68v24" id="aX"/><path fill="#333" d="M24 0v-261h32V0H24" id="aY"/><path fill="#333" d="M206 0h-36l-40-164L89 0H53L-1-190h32L70-26l43-164h34l41 164 42-164h31" id="aZ"/><g id="F"><use transform="matrix(0.08641975308641973,0,0,0.08641975308641973,0,0)" xlink:href="#aT"/><use transform="matrix(0.06172839506172839,0,0,0.06172839506172839,29.29629629629629,0)" xlink:href="#aU"/><use transform="matrix(0.06172839506172839,0,0,0.06172839506172839,41.64197530864197,0)" xlink:href="#aV"/><use transform="matrix(0.06172839506172839,0,0,0.06172839506172839,48.987654320987644,0)" xlink:href="#aW"/><use transform="matrix(0.06172839506172839,0,0,0.06172839506172839,60.09876543209876,0)" xlink:href="#aX"/><use transform="matrix(0.06172839506172839,0,0,0.06172839506172839,66.2716049382716,0)" xlink:href="#aY"/><use transform="matrix(0.06172839506172839,0,0,0.06172839506172839,71.14814814814814,0)" xlink:href="#aU"/><use transform="matrix(0.06172839506172839,0,0,0.06172839506172839,83.49382716049382,0)" xlink:href="#aZ"/></g><path fill="#333" d="M30 0v-248h187v28H63v79h144v27H63v87h162V0H30" id="ba"/><path fill="#333" d="M141 0L90-78 38 0H4l68-98-65-92h35l48 74 47-74h35l-64 92 68 98h-35" id="bb"/><path fill="#333" d="M100-194c63 0 86 42 84 106H49c0 40 14 67 53 68 26 1 43-12 49-29l28 8c-11 28-37 45-77 45C44 4 14-33 15-96c1-61 26-98 85-98zm52 81c6-60-76-77-97-28-3 7-6 17-6 28h103" id="bc"/><path fill="#333" d="M96-169c-40 0-48 33-48 73s9 75 48 75c24 0 41-14 43-38l32 2c-6 37-31 61-74 61-59 0-76-41-82-99-10-93 101-131 147-64 4 7 5 14 7 22l-32 3c-4-21-16-35-41-35" id="bd"/><path fill="#333" d="M84 4C-5 8 30-112 23-190h32v120c0 31 7 50 39 49 72-2 45-101 50-169h31l1 190h-30c-1-10 1-25-2-33-11 22-28 36-60 37" id="be"/><path fill="#333" d="M59-47c-2 24 18 29 38 22v24C64 9 27 4 27-40v-127H5v-23h24l9-43h21v43h35v23H59v120" id="bf"/><path fill="#333" d="M24-231v-30h32v30H24zM24 0v-190h32V0H24" id="bg"/><path fill="#333" d="M117-194c89-4 53 116 60 194h-32v-121c0-31-8-49-39-48C34-167 62-67 57 0H25l-1-190h30c1 10-1 24 2 32 11-22 29-35 61-36" id="bh"/><g id="G"><use transform="matrix(0.08641975308641973,0,0,0.08641975308641973,0,0)" xlink:href="#ba"/><use transform="matrix(0.06172839506172839,0,0,0.06172839506172839,20.740740740740737,0)" xlink:href="#bb"/><use transform="matrix(0.06172839506172839,0,0,0.06172839506172839,31.85185185185185,0)" xlink:href="#bc"/><use transform="matrix(0.06172839506172839,0,0,0.06172839506172839,44.197530864197525,0)" xlink:href="#bd"/><use transform="matrix(0.06172839506172839,0,0,0.06172839506172839,55.30864197530863,0)" xlink:href="#be"/><use transform="matrix(0.06172839506172839,0,0,0.06172839506172839,67.65432098765432,0)" xlink:href="#bf"/><use transform="matrix(0.06172839506172839,0,0,0.06172839506172839,73.82716049382715,0)" xlink:href="#bg"/><use transform="matrix(0.06172839506172839,0,0,0.06172839506172839,78.7037037037037,0)" xlink:href="#aU"/><use transform="matrix(0.06172839506172839,0,0,0.06172839506172839,91.04938271604938,0)" xlink:href="#bh"/></g><path fill="#333" d="M27 0v-27h64v-190l-56 39v-29l58-41h29v221h61V0H27" id="bi"/><path fill="#333" d="M135-143c-3-34-86-38-87 0 15 53 115 12 119 90S17 21 10-45l28-5c4 36 97 45 98 0-10-56-113-15-118-90-4-57 82-63 122-42 12 7 21 19 24 35" id="bj"/><g id="H"><use transform="matrix(0.06172839506172835,0,0,0.06172839506172835,0,0)" xlink:href="#bi"/><use transform="matrix(0.06172839506172835,0,0,0.06172839506172835,12.34567901234567,0)" xlink:href="#bj"/><use transform="matrix(0.06172839506172835,0,0,0.06172839506172835,23.456790123456774,0)" xlink:href="#bf"/></g><path fill="#333" d="M233-177c-1 41-23 64-60 70L243 0h-38l-65-103H63V0H30v-248c88 3 205-21 203 71zM63-129c60-2 137 13 137-47 0-61-80-42-137-45v92" id="bk"/><g id="I"><use transform="matrix(0.06172839506172835,0,0,0.06172839506172835,0,0)" xlink:href="#bk"/><use transform="matrix(0.06172839506172837,0,0,0.06172839506172837,15.987654320987641,0)" xlink:href="#be"/><use transform="matrix(0.06172839506172837,0,0,0.06172839506172837,28.333333333333314,0)" xlink:href="#bh"/></g><g id="J"><use transform="matrix(0.06172839506172839,0,0,0.06172839506172839,0,0)" xlink:href="#aO"/><use transform="matrix(0.06172839506172839,0,0,0.06172839506172839,15.987654320987653,0)" xlink:href="#ap"/><use transform="matrix(0.06172839506172839,0,0,0.06172839506172839,23.333333333333332,0)" xlink:href="#ao"/><use transform="matrix(0.06172839506172839,0,0,0.06172839506172839,35.67901234567901,0)" xlink:href="#aB"/></g><g id="K"><use transform="matrix(0.06172839506172839,0,0,0.06172839506172839,0,0)" xlink:href="#aC"/><use transform="matrix(0.06172839506172839,0,0,0.06172839506172839,14.814814814814813,0)" xlink:href="#ax"/><use transform="matrix(0.06172839506172839,0,0,0.06172839506172839,25.925925925925924,0)" xlink:href="#aN"/><use transform="matrix(0.06172839506172839,0,0,0.06172839506172839,38.2716049382716,0)" xlink:href="#aw"/><use transform="matrix(0.06172839506172839,0,0,0.06172839506172839,50.61728395061728,0)" xlink:href="#aE"/><use transform="matrix(0.06172839506172839,0,0,0.06172839506172839,62.962962962962955,0)" xlink:href="#ay"/><use transform="matrix(0.06172839506172839,0,0,0.06172839506172839,75.30864197530863,0)" xlink:href="#as"/><use transform="matrix(0.06172839506172839,0,0,0.06172839506172839,80.18518518518518,0)" xlink:href="#aw"/></g><g id="L"><use transform="matrix(0.06172839506172839,0,0,0.06172839506172839,0,0)" xlink:href="#aC"/><use transform="matrix(0.06172839506172839,0,0,0.06172839506172839,14.814814814814813,0)" xlink:href="#ax"/><use transform="matrix(0.06172839506172839,0,0,0.06172839506172839,25.925925925925924,0)" xlink:href="#aN"/><use transform="matrix(0.06172839506172839,0,0,0.06172839506172839,38.2716049382716,0)" xlink:href="#aw"/><use transform="matrix(0.06172839506172839,0,0,0.06172839506172839,50.61728395061728,0)" xlink:href="#aE"/><use transform="matrix(0.06172839506172839,0,0,0.06172839506172839,62.962962962962955,0)" xlink:href="#ay"/><use transform="matrix(0.06172839506172839,0,0,0.06172839506172839,75.30864197530863,0)" xlink:href="#as"/><use transform="matrix(0.06172839506172839,0,0,0.06172839506172839,80.18518518518518,0)" xlink:href="#aw"/></g><path fill="#333" d="M178-136c88 48 22 151-73 140C49-3 12-15 4-64l51-9c1 50 111 53 115 3-16-63-132-20-133-112 0-93 190-91 199-10l-50 12c-4-41-93-50-97-4 7 38 59 32 89 48" id="bl"/><path fill="#333" d="M128 0L95-87 70-74 55 0H6l51-261h49L77-111l82-79h56l-83 74L180 0h-52" id="bm"/><path fill="#333" d="M50-224l7-37h49l-7 37H50zM6 0l37-190h49L55 0H6" id="bn"/><path fill="#333" d="M156-122c2-23-7-37-28-37-47 0-58 44-58 89 0 24 12 40 36 40 43 0 47-49 50-92zM-8 75l50-265h48c0 10-3 24-3 30 22-50 127-45 121 29-6 73-21 135-92 135-29 0-46-14-55-35L41 75H-8" id="bo"/><path fill="#333" d="M114-194c63-2 87 48 72 110H63c-3 28 1 55 31 54 21-1 32-13 37-29l44 13C160-14 137 4 91 4 41 4 11-22 11-73c0-71 33-119 103-121zm30 77c14-47-50-61-67-22-3 6-6 13-8 22h75" id="bp"/><path fill="#333" d="M132-28C118-9 101 4 69 4 30 4 10-23 10-62c0-70 24-129 92-132 31-1 47 14 56 35l19-102h49L179 0h-49zM62-69c0 22 7 39 29 39 45-2 54-45 57-90 2-27-10-40-33-40-44 0-53 48-53 91" id="bq"/><g id="M"><use transform="matrix(0.06172839506172839,0,0,0.06172839506172839,0,0)" xlink:href="#bl"/><use transform="matrix(0.06172839506172839,0,0,0.06172839506172839,14.814814814814813,0)" xlink:href="#bm"/><use transform="matrix(0.06172839506172839,0,0,0.06172839506172839,27.160493827160494,0)" xlink:href="#bn"/><use transform="matrix(0.06172839506172839,0,0,0.06172839506172839,33.333333333333336,0)" xlink:href="#bo"/><use transform="matrix(0.06172839506172839,0,0,0.06172839506172839,46.851851851851855,0)" xlink:href="#bo"/><use transform="matrix(0.06172839506172839,0,0,0.06172839506172839,60.370370370370374,0)" xlink:href="#bp"/><use transform="matrix(0.06172839506172839,0,0,0.06172839506172839,72.71604938271605,0)" xlink:href="#bq"/></g><path fill="#333" d="M101-251c82-7 93 87 43 132L82-64C71-53 59-42 53-27h129V0H18c2-99 128-94 128-182 0-28-16-43-45-43s-46 15-49 41l-32-3c6-41 34-60 81-64" id="br"/><path fill="#333" d="M85-194c31 0 48 13 60 33l-1-100h32l1 261h-30c-2-10 0-23-3-31C134-8 116 4 85 4 32 4 16-35 15-94c0-66 23-100 70-100zm9 24c-40 0-46 34-46 75 0 40 6 74 45 74 42 0 51-32 51-76 0-42-9-74-50-73" id="bs"/><g id="N"><use transform="matrix(0.06172839506172835,0,0,0.06172839506172835,0,0)" xlink:href="#br"/><use transform="matrix(0.06172839506172835,0,0,0.06172839506172835,12.34567901234567,0)" xlink:href="#bh"/><use transform="matrix(0.06172839506172835,0,0,0.06172839506172835,24.69135802469134,0)" xlink:href="#bs"/></g><g id="O"><use transform="matrix(0.08641975308641973,0,0,0.08641975308641973,0,0)" xlink:href="#aT"/><use transform="matrix(0.06172839506172839,0,0,0.06172839506172839,29.29629629629629,0)" xlink:href="#aU"/><use transform="matrix(0.06172839506172839,0,0,0.06172839506172839,41.64197530864197,0)" xlink:href="#aV"/><use transform="matrix(0.06172839506172839,0,0,0.06172839506172839,48.987654320987644,0)" xlink:href="#aW"/><use transform="matrix(0.06172839506172839,0,0,0.06172839506172839,60.09876543209876,0)" xlink:href="#aX"/><use transform="matrix(0.06172839506172839,0,0,0.06172839506172839,66.2716049382716,0)" xlink:href="#aY"/><use transform="matrix(0.06172839506172839,0,0,0.06172839506172839,71.14814814814814,0)" xlink:href="#aU"/><use transform="matrix(0.06172839506172839,0,0,0.06172839506172839,83.49382716049382,0)" xlink:href="#aZ"/></g><path fill="#333" d="M126-127c33 6 58 20 58 59 0 88-139 92-164 29-3-8-5-16-6-25l32-3c6 27 21 44 54 44 32 0 52-15 52-46 0-38-36-46-79-43v-28c39 1 72-4 72-42 0-27-17-43-46-43-28 0-47 15-49 41l-32-3c6-42 35-63 81-64 48-1 79 21 79 65 0 36-21 52-52 59" id="bt"/><g id="P"><use transform="matrix(0.06172839506172835,0,0,0.06172839506172835,0,0)" xlink:href="#bt"/><use transform="matrix(0.06172839506172835,0,0,0.06172839506172835,12.34567901234567,0)" xlink:href="#aV"/><use transform="matrix(0.06172839506172835,0,0,0.06172839506172835,19.691358024691343,0)" xlink:href="#bs"/></g><g id="Q"><use transform="matrix(0.06172839506172839,0,0,0.06172839506172839,0,0)" xlink:href="#aR"/><use transform="matrix(0.06172839506172839,0,0,0.06172839506172839,11.481481481481481,0)" xlink:href="#aD"/><use transform="matrix(0.06172839506172839,0,0,0.06172839506172839,23.827160493827158,0)" xlink:href="#aI"/><use transform="matrix(0.06172839506172839,0,0,0.06172839506172839,34.938271604938265,0)" xlink:href="#aq"/></g><g id="R"><use transform="matrix(0.06172839506172839,0,0,0.06172839506172839,0,0)" xlink:href="#aC"/><use transform="matrix(0.06172839506172839,0,0,0.06172839506172839,14.814814814814813,0)" xlink:href="#ax"/><use transform="matrix(0.06172839506172839,0,0,0.06172839506172839,25.925925925925924,0)" xlink:href="#aN"/><use transform="matrix(0.06172839506172839,0,0,0.06172839506172839,38.2716049382716,0)" xlink:href="#aw"/><use transform="matrix(0.06172839506172839,0,0,0.06172839506172839,50.61728395061728,0)" xlink:href="#aE"/><use transform="matrix(0.06172839506172839,0,0,0.06172839506172839,62.962962962962955,0)" xlink:href="#ay"/><use transform="matrix(0.06172839506172839,0,0,0.06172839506172839,75.30864197530863,0)" xlink:href="#as"/><use transform="matrix(0.06172839506172839,0,0,0.06172839506172839,80.18518518518518,0)" xlink:href="#aw"/><use transform="matrix(0.06172839506172839,0,0,0.06172839506172839,92.53086419753086,0)" xlink:href="#aE"/></g><path fill="#333" d="M155-56V0h-30v-56H8v-25l114-167h33v167h35v25h-35zm-30-156c-27 46-58 90-88 131h88v-131" id="bu"/><path fill="#333" d="M106-169C34-169 62-67 57 0H25v-261h32l-1 103c12-21 28-36 61-36 89 0 53 116 60 194h-32v-121c2-32-8-49-39-48" id="bv"/><g id="S"><use transform="matrix(0.06172839506172835,0,0,0.06172839506172835,0,0)" xlink:href="#bu"/><use transform="matrix(0.06172839506172835,0,0,0.06172839506172835,12.34567901234567,0)" xlink:href="#bf"/><use transform="matrix(0.06172839506172835,0,0,0.06172839506172835,18.518518518518505,0)" xlink:href="#bv"/></g><path fill="#333" d="M54-142c48-35 137-8 131 61C196 18 31 33 14-55l32-4c7 23 22 37 52 37 35-1 51-22 54-58 4-55-73-65-99-34H22l8-134h141v27H59" id="bw"/><g id="T"><use transform="matrix(0.06172839506172835,0,0,0.06172839506172835,0,0)" xlink:href="#bw"/><use transform="matrix(0.06172839506172835,0,0,0.06172839506172835,12.34567901234567,0)" xlink:href="#bf"/><use transform="matrix(0.06172839506172835,0,0,0.06172839506172835,18.518518518518505,0)" xlink:href="#bv"/></g><g id="U"><use transform="matrix(0.06172839506172839,0,0,0.06172839506172839,0,0)" xlink:href="#aO"/><use transform="matrix(0.06172839506172839,0,0,0.06172839506172839,15.987654320987653,0)" xlink:href="#ao"/><use transform="matrix(0.06172839506172839,0,0,0.06172839506172839,28.333333333333332,0)" xlink:href="#aS"/><use transform="matrix(0.06172839506172839,0,0,0.06172839506172839,46.79012345679012,0)" xlink:href="#aQ"/><use transform="matrix(0.06172839506172839,0,0,0.06172839506172839,59.1358024691358,0)" xlink:href="#as"/><use transform="matrix(0.06172839506172839,0,0,0.06172839506172839,64.01234567901234,0)" xlink:href="#aw"/><use transform="matrix(0.06172839506172839,0,0,0.06172839506172839,76.35802469135803,0)" xlink:href="#az"/><use transform="matrix(0.06172839506172839,0,0,0.06172839506172839,82.53086419753086,0)" xlink:href="#aw"/><use transform="matrix(0.06172839506172839,0,0,0.06172839506172839,94.87654320987654,0)" xlink:href="#aE"/></g><path fill="#333" d="M87-220l-18 92h140l-5 28H64L45 0H11l48-248h178l-5 28H87" id="bx"/><g id="V"><use transform="matrix(0.06172839506172839,0,0,0.06172839506172839,0,0)" xlink:href="#bx"/><use transform="matrix(0.06172839506172839,0,0,0.06172839506172839,13.518518518518517,0)" xlink:href="#aD"/><use transform="matrix(0.06172839506172839,0,0,0.06172839506172839,25.864197530864196,0)" xlink:href="#aA"/><use transform="matrix(0.06172839506172839,0,0,0.06172839506172839,30.74074074074074,0)" xlink:href="#as"/><use transform="matrix(0.06172839506172839,0,0,0.06172839506172839,35.617283950617285,0)" xlink:href="#aw"/><use transform="matrix(0.06172839506172839,0,0,0.06172839506172839,47.96296296296296,0)" xlink:href="#aE"/></g><path fill="#333" d="M248-139C247-14 144 9 11 0l48-248c105-6 190 8 189 109zm-34 0c1-70-52-87-126-82L50-27c98 7 163-21 164-112" id="by"/><g id="W"><use transform="matrix(0.06172839506172839,0,0,0.06172839506172839,0,0)" xlink:href="#by"/><use transform="matrix(0.06172839506172839,0,0,0.06172839506172839,15.987654320987653,0)" xlink:href="#aw"/><use transform="matrix(0.06172839506172839,0,0,0.06172839506172839,28.333333333333332,0)" xlink:href="#as"/><use transform="matrix(0.06172839506172839,0,0,0.06172839506172839,33.20987654320987,0)" xlink:href="#aD"/><use transform="matrix(0.06172839506172839,0,0,0.06172839506172839,45.55555555555555,0)" xlink:href="#aK"/></g><g id="X"><use transform="matrix(0.06172839506172839,0,0,0.06172839506172839,0,0)" xlink:href="#ar"/><use transform="matrix(0.06172839506172839,0,0,0.06172839506172839,6.172839506172839,0)" xlink:href="#ap"/><use transform="matrix(0.06172839506172839,0,0,0.06172839506172839,13.518518518518519,0)" xlink:href="#ao"/><use transform="matrix(0.06172839506172839,0,0,0.06172839506172839,25.864197530864196,0)" xlink:href="#aS"/></g><g id="Y"><use transform="matrix(0.06172839506172839,0,0,0.06172839506172839,0,0)" xlink:href="#aM"/><use transform="matrix(0.06172839506172839,0,0,0.06172839506172839,14.814814814814813,0)" xlink:href="#aD"/><use transform="matrix(0.06172839506172839,0,0,0.06172839506172839,27.160493827160494,0)" xlink:href="#ax"/><use transform="matrix(0.06172839506172839,0,0,0.06172839506172839,38.27160493827161,0)" xlink:href="#aq"/><use transform="matrix(0.06172839506172839,0,0,0.06172839506172839,49.38271604938272,0)" xlink:href="#ao"/><use transform="matrix(0.06172839506172839,0,0,0.06172839506172839,61.7283950617284,0)" xlink:href="#ar"/><use transform="matrix(0.06172839506172839,0,0,0.06172839506172839,67.90123456790124,0)" xlink:href="#ar"/></g><path fill="#333" d="M14 0l48-248h34L48 0H14" id="bz"/><g id="Z"><use transform="matrix(0.06172839506172839,0,0,0.06172839506172839,0,0)" xlink:href="#bz"/><use transform="matrix(0.06172839506172839,0,0,0.06172839506172839,6.172839506172839,0)" xlink:href="#aB"/><use transform="matrix(0.06172839506172839,0,0,0.06172839506172839,18.51851851851852,0)" xlink:href="#aA"/><use transform="matrix(0.06172839506172839,0,0,0.06172839506172839,23.395061728395063,0)" xlink:href="#az"/><use transform="matrix(0.06172839506172839,0,0,0.06172839506172839,29.567901234567902,0)" xlink:href="#aA"/><use transform="matrix(0.06172839506172839,0,0,0.06172839506172839,34.44444444444444,0)" xlink:href="#aD"/><use transform="matrix(0.06172839506172839,0,0,0.06172839506172839,46.79012345679012,0)" xlink:href="#as"/></g><g id="aa"><use transform="matrix(0.06172839506172839,0,0,0.06172839506172839,0,0)" xlink:href="#aP"/><use transform="matrix(0.06172839506172839,0,0,0.06172839506172839,15.987654320987653,0)" xlink:href="#ay"/><use transform="matrix(0.06172839506172839,0,0,0.06172839506172839,28.333333333333332,0)" xlink:href="#aB"/></g><g id="ab"><use transform="matrix(0.06172839506172839,0,0,0.06172839506172839,0,0)" xlink:href="#aA"/><use transform="matrix(0.06172839506172839,0,0,0.06172839506172839,4.876543209876543,0)" xlink:href="#aB"/></g><g id="ac"><use transform="matrix(0.06172839506172839,0,0,0.06172839506172839,0,0)" xlink:href="#aI"/><use transform="matrix(0.06172839506172839,0,0,0.06172839506172839,11.11111111111111,0)" xlink:href="#ax"/><use transform="matrix(0.06172839506172839,0,0,0.06172839506172839,22.22222222222222,0)" xlink:href="#aN"/><use transform="matrix(0.06172839506172839,0,0,0.06172839506172839,34.5679012345679,0)" xlink:href="#aw"/><use transform="matrix(0.06172839506172839,0,0,0.06172839506172839,46.913580246913575,0)" xlink:href="#aE"/><use transform="matrix(0.06172839506172839,0,0,0.06172839506172839,59.25925925925925,0)" xlink:href="#ay"/><use transform="matrix(0.06172839506172839,0,0,0.06172839506172839,71.60493827160494,0)" xlink:href="#as"/><use transform="matrix(0.06172839506172839,0,0,0.06172839506172839,76.48148148148148,0)" xlink:href="#aw"/></g><path fill="#333" d="M173 0L80-213 41 0H11l48-248h37l94 214 40-214h30L212 0h-39" id="bA"/><g id="ad"><use transform="matrix(0.06172839506172839,0,0,0.06172839506172839,0,0)" xlink:href="#bA"/><use transform="matrix(0.06172839506172839,0,0,0.06172839506172839,15.987654320987653,0)" xlink:href="#ao"/><use transform="matrix(0.06172839506172839,0,0,0.06172839506172839,28.333333333333332,0)" xlink:href="#ap"/><use transform="matrix(0.06172839506172839,0,0,0.06172839506172839,35.67901234567901,0)" xlink:href="#aS"/><use transform="matrix(0.06172839506172839,0,0,0.06172839506172839,54.1358024691358,0)" xlink:href="#aD"/><use transform="matrix(0.06172839506172839,0,0,0.06172839506172839,66.48148148148148,0)" xlink:href="#as"/></g><g id="ae"><use transform="matrix(0.06172839506172839,0,0,0.06172839506172839,0,0)" xlink:href="#az"/><use transform="matrix(0.06172839506172839,0,0,0.06172839506172839,6.172839506172839,0)" xlink:href="#aN"/><use transform="matrix(0.06172839506172839,0,0,0.06172839506172839,18.51851851851852,0)" xlink:href="#aD"/><use transform="matrix(0.06172839506172839,0,0,0.06172839506172839,30.864197530864196,0)" xlink:href="#az"/></g><g id="af"><use transform="matrix(0.06172839506172839,0,0,0.06172839506172839,0,0)" xlink:href="#bx"/><use transform="matrix(0.06172839506172839,0,0,0.06172839506172839,13.518518518518517,0)" xlink:href="#aD"/><use transform="matrix(0.06172839506172839,0,0,0.06172839506172839,25.864197530864196,0)" xlink:href="#aA"/><use transform="matrix(0.06172839506172839,0,0,0.06172839506172839,30.74074074074074,0)" xlink:href="#as"/><use transform="matrix(0.06172839506172839,0,0,0.06172839506172839,35.617283950617285,0)" xlink:href="#aI"/></g><g id="ag"><use transform="matrix(0.06172839506172839,0,0,0.06172839506172839,0,0)" xlink:href="#aP"/><use transform="matrix(0.06172839506172839,0,0,0.06172839506172839,15.987654320987653,0)" xlink:href="#aw"/><use transform="matrix(0.06172839506172839,0,0,0.06172839506172839,28.333333333333332,0)" xlink:href="#az"/><use transform="matrix(0.06172839506172839,0,0,0.06172839506172839,34.50617283950617,0)" xlink:href="#ap"/><use transform="matrix(0.06172839506172839,0,0,0.06172839506172839,41.85185185185185,0)" xlink:href="#aK"/></g><g id="ah"><use transform="matrix(0.06172839506172839,0,0,0.06172839506172839,0,0)" xlink:href="#aP"/><use transform="matrix(0.06172839506172839,0,0,0.06172839506172839,15.987654320987653,0)" xlink:href="#ay"/><use transform="matrix(0.06172839506172839,0,0,0.06172839506172839,28.333333333333332,0)" xlink:href="#aB"/></g><path fill="#333" d="M11 0l48-248h34L50-27h125l-5 27H11" id="bB"/><g id="ai"><use transform="matrix(0.06172839506172839,0,0,0.06172839506172839,0,0)" xlink:href="#bB"/><use transform="matrix(0.06172839506172839,0,0,0.06172839506172839,12.345679012345679,0)" xlink:href="#aD"/><use transform="matrix(0.06172839506172839,0,0,0.06172839506172839,24.691358024691358,0)" xlink:href="#aI"/><use transform="matrix(0.06172839506172839,0,0,0.06172839506172839,35.80246913580247,0)" xlink:href="#az"/></g><path fill="#333" d="M110-160c48 1 74 30 74 79 0 53-28 85-80 85-65 0-83-55-86-122-5-90 50-162 133-122 14 7 22 21 27 39l-31 6c-5-40-67-38-82-6-9 19-15 44-15 74 11-20 30-34 60-33zm-7 138c34 0 49-23 49-58s-16-56-50-56c-29 0-50 16-49 49 1 36 15 65 50 65" id="bC"/><g id="aj"><use transform="matrix(0.06172839506172835,0,0,0.06172839506172835,0,0)" xlink:href="#bC"/><use transform="matrix(0.06172839506172835,0,0,0.06172839506172835,12.34567901234567,0)" xlink:href="#bf"/><use transform="matrix(0.06172839506172835,0,0,0.06172839506172835,18.518518518518505,0)" xlink:href="#bv"/></g><g id="ak"><use transform="matrix(0.06172839506172839,0,0,0.06172839506172839,0,0)" xlink:href="#aO"/><use transform="matrix(0.06172839506172839,0,0,0.06172839506172839,15.987654320987653,0)" xlink:href="#ay"/><use transform="matrix(0.06172839506172839,0,0,0.06172839506172839,28.333333333333332,0)" xlink:href="#ap"/><use transform="matrix(0.06172839506172839,0,0,0.06172839506172839,35.67901234567901,0)" xlink:href="#ap"/><use transform="matrix(0.06172839506172839,0,0,0.06172839506172839,43.02469135802469,0)" xlink:href="#aw"/><use transform="matrix(0.06172839506172839,0,0,0.06172839506172839,55.37037037037037,0)" xlink:href="#aB"/><use transform="matrix(0.06172839506172839,0,0,0.06172839506172839,67.71604938271605,0)" xlink:href="#az"/></g></defs></g></svg>