<svg xmlns="http://www.w3.org/2000/svg" xmlns:xlink="http://www.w3.org/1999/xlink" xmlns:lucid="lucid" width="1140" height="620"><g transform="translate(-380 -140)" lucid:page-tab-id="0_0"><path d="M400 161a1 1 0 0 1 1-1h1098a1 1 0 0 1 1 1v578a1 1 0 0 1-1 1H401a1 1 0 0 1-1-1z" fill="#fff"/><path d="M535.7 315a15 15 0 0 1 15-15h769.46a15 15 0 0 1 15 15v259.45a15 15 0 0 1-15 15H550.7a15 15 0 0 1-15-15z" stroke="#333" fill="#127ae5"/><path d="M560.05 340.26a15 15 0 0 1 15-15h714.33a15 15 0 0 1 15 15v204.32a15 15 0 0 1-15 15H575.05a15 15 0 0 1-15-15z" stroke="#333" fill="#fff"/><use xlink:href="#a" transform="matrix(1,0,0,1,588.0546924877628,353.2567567567566) translate(297.00000000000006 173.86577777777777)"/><path d="M587.62 367.82a15 15 0 0 1 15-15h121.62a15 15 0 0 1 15 15v116.3a15 15 0 0 1-15 15H602.62a15 15 0 0 1-15-15z" stroke="#333" fill="#fff"/><use xlink:href="#b" transform="matrix(1,0,0,1,592.6222600553305,357.82432432432427) translate(48.19135802469138 60.590277777777764)"/><use xlink:href="#c" transform="matrix(1,0,0,1,592.6222600553305,357.82432432432427) translate(33.99382716049386 87.2569444444444)"/><path d="M766.8 367.82a15 15 0 0 1 15-15h121.63a15 15 0 0 1 15 15v116.3a15 15 0 0 1-15 15H781.8a15 15 0 0 1-15-15z" stroke="#333" fill="#fff"/><use xlink:href="#d" transform="matrix(1,0,0,1,771.8114492445196,357.82432432432427) translate(25.660493827160536 47.746527777777764)"/><use xlink:href="#e" transform="matrix(1,0,0,1,771.8114492445196,357.82432432432427) translate(22.265432098765473 74.4131944444444)"/><use xlink:href="#f" transform="matrix(1,0,0,1,771.8114492445196,357.82432432432427) translate(33.99382716049386 101.07986111111106)"/><path d="M946 367.82a15 15 0 0 1 15-15h121.62a15 15 0 0 1 15 15v116.3a15 15 0 0 1-15 15H961a15 15 0 0 1-15-15z" stroke="#333" fill="#fff"/><use xlink:href="#g" transform="matrix(1,0,0,1,951.0006384337089,357.82432432432427) translate(42.604938271604965 60.590277777777764)"/><use xlink:href="#c" transform="matrix(1,0,0,1,951.0006384337089,357.82432432432427) translate(33.99382716049386 87.2569444444444)"/><path d="M1125.2 367.82a15 15 0 0 1 15-15h121.6a15 15 0 0 1 15 15v116.3a15 15 0 0 1-15 15h-121.6a15 15 0 0 1-15-15z" stroke="#333" fill="#fff"/><use xlink:href="#h" transform="matrix(1,0,0,1,1130.189827622898,357.82432432432427) translate(31.246913580246954 60.590277777777764)"/><use xlink:href="#c" transform="matrix(1,0,0,1,1130.189827622898,357.82432432432427) translate(33.99382716049386 87.2569444444444)"/><path d="M587.62 623a6 6 0 0 1 6-6h677.2a6 6 0 0 1 6 6v56.93a6 6 0 0 1-6 6H593.6a6 6 0 0 1-6-6z" stroke="#000" stroke-opacity="0" stroke-width="3" fill="#fff" fill-opacity="0"/><use xlink:href="#i" transform="matrix(1,0,0,1,592.6222600553305,622.0135135135134) translate(80.52469135802488 32.52777777777777)"/><use xlink:href="#j" transform="matrix(1,0,0,1,592.6222600553305,622.0135135135134) translate(200.15432098765442 32.52777777777777)"/><use xlink:href="#k" transform="matrix(1,0,0,1,592.6222600553305,622.0135135135134) translate(286.51234567901236 32.52777777777777)"/><use xlink:href="#l" transform="matrix(1,0,0,1,592.6222600553305,622.0135135135134) translate(329.72222222222223 32.52777777777777)"/><use xlink:href="#m" transform="matrix(1,0,0,1,592.6222600553305,622.0135135135134) translate(456.3888888888888 32.52777777777777)"/><use xlink:href="#n" transform="matrix(1,0,0,1,592.6222600553305,622.0135135135134) translate(494.5987654320987 32.52777777777777)"/><path d="M932.22 616.5V560.6" stroke="#333" fill="none"/><path d="M932.7 617h-.96v-.5h.95zM932.7 560.6h-.96v-.52h.95z" stroke="#333" stroke-width=".05" fill="#333"/><path d="M838.42 226a6 6 0 0 1 6-6h182.03a6 6 0 0 1 6 6v46.35a6 6 0 0 1-6 6H844.42a6 6 0 0 1-6-6z" stroke="#000" stroke-opacity="0" stroke-width="3" fill="#fff" fill-opacity="0"/><g><use xlink:href="#o" transform="matrix(1,0,0,1,843.4198765694828,225) translate(6.666666666666728 30.027777777777768)"/><use xlink:href="#p" transform="matrix(1,0,0,1,843.4198765694828,225) translate(104.38271604938271 30.027777777777768)"/></g><defs><path fill="#333" d="M30-248c118-7 216 8 213 122C240-48 200 0 122 0H30v-248zM63-27c89 8 146-16 146-99s-60-101-146-95v194" id="q"/><path fill="#333" d="M141-36C126-15 110 5 73 4 37 3 15-17 15-53c-1-64 63-63 125-63 3-35-9-54-41-54-24 1-41 7-42 31l-33-3c5-37 33-52 76-52 45 0 72 20 72 64v82c-1 20 7 32 28 27v20c-31 9-61-2-59-35zM48-53c0 20 12 33 32 33 41-3 63-29 60-74-43 2-92-5-92 41" id="r"/><path fill="#333" d="M59-47c-2 24 18 29 38 22v24C64 9 27 4 27-40v-127H5v-23h24l9-43h21v43h35v23H59v120" id="s"/><path fill="#333" d="M115-194c53 0 69 39 70 98 0 66-23 100-70 100C84 3 66-7 56-30L54 0H23l1-261h32v101c10-23 28-34 59-34zm-8 174c40 0 45-34 45-75 0-40-5-75-45-74-42 0-51 32-51 76 0 43 10 73 51 73" id="t"/><path fill="#333" d="M135-143c-3-34-86-38-87 0 15 53 115 12 119 90S17 21 10-45l28-5c4 36 97 45 98 0-10-56-113-15-118-90-4-57 82-63 122-42 12 7 21 19 24 35" id="u"/><path fill="#333" d="M100-194c63 0 86 42 84 106H49c0 40 14 67 53 68 26 1 43-12 49-29l28 8c-11 28-37 45-77 45C44 4 14-33 15-96c1-61 26-98 85-98zm52 81c6-60-76-77-97-28-3 7-6 17-6 28h103" id="v"/><g id="a"><use transform="matrix(0.06172839506172834,0,0,0.06172839506172834,0,0)" xlink:href="#q"/><use transform="matrix(0.06172839506172834,0,0,0.06172839506172834,15.987654320987641,0)" xlink:href="#r"/><use transform="matrix(0.06172839506172834,0,0,0.06172839506172834,28.333333333333307,0)" xlink:href="#s"/><use transform="matrix(0.06172839506172834,0,0,0.06172839506172834,34.50617283950614,0)" xlink:href="#r"/><use transform="matrix(0.06172839506172834,0,0,0.06172839506172834,46.85185185185181,0)" xlink:href="#t"/><use transform="matrix(0.06172839506172834,0,0,0.06172839506172834,59.19753086419748,0)" xlink:href="#r"/><use transform="matrix(0.06172839506172834,0,0,0.06172839506172834,71.54320987654314,0)" xlink:href="#u"/><use transform="matrix(0.06172839506172834,0,0,0.06172839506172834,82.65432098765424,0)" xlink:href="#v"/></g><path fill="#333" d="M127-220V0H93v-220H8v-28h204v28h-85" id="w"/><path fill="#333" d="M143 0L79-87 56-68V0H24v-261h32v163l83-92h37l-77 82L181 0h-38" id="x"/><g id="b"><use transform="matrix(0.06172839506172834,0,0,0.06172839506172834,0,0)" xlink:href="#w"/><use transform="matrix(0.06172839506172834,0,0,0.06172839506172834,11.049382716049372,0)" xlink:href="#r"/><use transform="matrix(0.06172839506172834,0,0,0.06172839506172834,23.395061728395042,0)" xlink:href="#u"/><use transform="matrix(0.06172839506172834,0,0,0.06172839506172834,34.50617283950614,0)" xlink:href="#x"/></g><path fill="#333" d="M100-194c62-1 85 37 85 99 1 63-27 99-86 99S16-35 15-95c0-66 28-99 85-99zM99-20c44 1 53-31 53-75 0-43-8-75-51-75s-53 32-53 75 10 74 51 75" id="y"/><path fill="#333" d="M114-163C36-179 61-72 57 0H25l-1-190h30c1 12-1 29 2 39 6-27 23-49 58-41v29" id="z"/><path fill="#333" d="M177-190C167-65 218 103 67 71c-23-6-38-20-44-43l32-5c15 47 100 32 89-28v-30C133-14 115 1 83 1 29 1 15-40 15-95c0-56 16-97 71-98 29-1 48 16 59 35 1-10 0-23 2-32h30zM94-22c36 0 50-32 50-73 0-42-14-75-50-75-39 0-46 34-46 75s6 73 46 73" id="A"/><g id="c"><use transform="matrix(0.06172839506172834,0,0,0.06172839506172834,0,0)" xlink:href="#u"/><use transform="matrix(0.06172839506172834,0,0,0.06172839506172834,11.111111111111102,0)" xlink:href="#s"/><use transform="matrix(0.06172839506172834,0,0,0.06172839506172834,17.283950617283935,0)" xlink:href="#y"/><use transform="matrix(0.06172839506172834,0,0,0.06172839506172834,29.629629629629605,0)" xlink:href="#z"/><use transform="matrix(0.06172839506172834,0,0,0.06172839506172834,36.975308641975275,0)" xlink:href="#r"/><use transform="matrix(0.06172839506172834,0,0,0.06172839506172834,49.320987654320945,0)" xlink:href="#A"/><use transform="matrix(0.06172839506172834,0,0,0.06172839506172834,61.666666666666615,0)" xlink:href="#v"/></g><path fill="#333" d="M266 0h-40l-56-210L115 0H75L2-248h35L96-30l15-64 43-154h32l59 218 59-218h35" id="B"/><path fill="#333" d="M101-234c-31-9-42 10-38 44h38v23H63V0H32v-167H5v-23h27c-7-52 17-82 69-68v24" id="C"/><path fill="#333" d="M24 0v-261h32V0H24" id="D"/><path fill="#333" d="M206 0h-36l-40-164L89 0H53L-1-190h32L70-26l43-164h34l41 164 42-164h31" id="E"/><g id="d"><use transform="matrix(0.06172839506172834,0,0,0.06172839506172834,0,0)" xlink:href="#B"/><use transform="matrix(0.06172839506172834,0,0,0.06172839506172834,20.49382716049381,0)" xlink:href="#y"/><use transform="matrix(0.06172839506172834,0,0,0.06172839506172834,32.83950617283948,0)" xlink:href="#z"/><use transform="matrix(0.06172839506172834,0,0,0.06172839506172834,40.18518518518515,0)" xlink:href="#x"/><use transform="matrix(0.06172839506172834,0,0,0.06172839506172834,51.29629629629625,0)" xlink:href="#C"/><use transform="matrix(0.06172839506172834,0,0,0.06172839506172834,57.46913580246908,0)" xlink:href="#D"/><use transform="matrix(0.06172839506172834,0,0,0.06172839506172834,62.34567901234562,0)" xlink:href="#y"/><use transform="matrix(0.06172839506172834,0,0,0.06172839506172834,74.69135802469128,0)" xlink:href="#E"/></g><path fill="#333" d="M30 0v-248h187v28H63v79h144v27H63v87h162V0H30" id="F"/><path fill="#333" d="M141 0L90-78 38 0H4l68-98-65-92h35l48 74 47-74h35l-64 92 68 98h-35" id="G"/><path fill="#333" d="M96-169c-40 0-48 33-48 73s9 75 48 75c24 0 41-14 43-38l32 2c-6 37-31 61-74 61-59 0-76-41-82-99-10-93 101-131 147-64 4 7 5 14 7 22l-32 3c-4-21-16-35-41-35" id="H"/><path fill="#333" d="M84 4C-5 8 30-112 23-190h32v120c0 31 7 50 39 49 72-2 45-101 50-169h31l1 190h-30c-1-10 1-25-2-33-11 22-28 36-60 37" id="I"/><path fill="#333" d="M24-231v-30h32v30H24zM24 0v-190h32V0H24" id="J"/><path fill="#333" d="M117-194c89-4 53 116 60 194h-32v-121c0-31-8-49-39-48C34-167 62-67 57 0H25l-1-190h30c1 10-1 24 2 32 11-22 29-35 61-36" id="K"/><g id="e"><use transform="matrix(0.06172839506172834,0,0,0.06172839506172834,0,0)" xlink:href="#F"/><use transform="matrix(0.06172839506172834,0,0,0.06172839506172834,14.814814814814802,0)" xlink:href="#G"/><use transform="matrix(0.06172839506172834,0,0,0.06172839506172834,25.925925925925903,0)" xlink:href="#v"/><use transform="matrix(0.06172839506172834,0,0,0.06172839506172834,38.27160493827157,0)" xlink:href="#H"/><use transform="matrix(0.06172839506172834,0,0,0.06172839506172834,49.38271604938267,0)" xlink:href="#I"/><use transform="matrix(0.06172839506172834,0,0,0.06172839506172834,61.72839506172834,0)" xlink:href="#s"/><use transform="matrix(0.06172839506172834,0,0,0.06172839506172834,67.90123456790117,0)" xlink:href="#J"/><use transform="matrix(0.06172839506172834,0,0,0.06172839506172834,72.77777777777771,0)" xlink:href="#y"/><use transform="matrix(0.06172839506172834,0,0,0.06172839506172834,85.12345679012338,0)" xlink:href="#K"/></g><g id="f"><use transform="matrix(0.06172839506172834,0,0,0.06172839506172834,0,0)" xlink:href="#u"/><use transform="matrix(0.06172839506172834,0,0,0.06172839506172834,11.111111111111102,0)" xlink:href="#s"/><use transform="matrix(0.06172839506172834,0,0,0.06172839506172834,17.283950617283935,0)" xlink:href="#y"/><use transform="matrix(0.06172839506172834,0,0,0.06172839506172834,29.629629629629605,0)" xlink:href="#z"/><use transform="matrix(0.06172839506172834,0,0,0.06172839506172834,36.975308641975275,0)" xlink:href="#r"/><use transform="matrix(0.06172839506172834,0,0,0.06172839506172834,49.320987654320945,0)" xlink:href="#A"/><use transform="matrix(0.06172839506172834,0,0,0.06172839506172834,61.666666666666615,0)" xlink:href="#v"/></g><path fill="#333" d="M108 0H70L1-190h34L89-25l56-165h34" id="L"/><g id="g"><use transform="matrix(0.06172839506172834,0,0,0.06172839506172834,0,0)" xlink:href="#F"/><use transform="matrix(0.06172839506172834,0,0,0.06172839506172834,14.814814814814802,0)" xlink:href="#L"/><use transform="matrix(0.06172839506172834,0,0,0.06172839506172834,25.925925925925903,0)" xlink:href="#v"/><use transform="matrix(0.06172839506172834,0,0,0.06172839506172834,38.27160493827157,0)" xlink:href="#K"/><use transform="matrix(0.06172839506172834,0,0,0.06172839506172834,50.61728395061724,0)" xlink:href="#s"/></g><path fill="#333" d="M137 0h-34L2-248h35l83 218 83-218h36" id="M"/><path fill="#333" d="M179-190L93 31C79 59 56 82 12 73V49c39 6 53-20 64-50L1-190h34L92-34l54-156h33" id="N"/><g id="h"><use transform="matrix(0.06172839506172834,0,0,0.06172839506172834,0,0)" xlink:href="#M"/><use transform="matrix(0.06172839506172834,0,0,0.06172839506172834,14.382716049382704,0)" xlink:href="#J"/><use transform="matrix(0.06172839506172834,0,0,0.06172839506172834,19.259259259259245,0)" xlink:href="#u"/><use transform="matrix(0.06172839506172834,0,0,0.06172839506172834,30.370370370370345,0)" xlink:href="#J"/><use transform="matrix(0.06172839506172834,0,0,0.06172839506172834,35.24691358024688,0)" xlink:href="#t"/><use transform="matrix(0.06172839506172834,0,0,0.06172839506172834,47.59259259259255,0)" xlink:href="#J"/><use transform="matrix(0.06172839506172834,0,0,0.06172839506172834,52.46913580246909,0)" xlink:href="#D"/><use transform="matrix(0.06172839506172834,0,0,0.06172839506172834,57.34567901234563,0)" xlink:href="#J"/><use transform="matrix(0.06172839506172834,0,0,0.06172839506172834,62.222222222222165,0)" xlink:href="#s"/><use transform="matrix(0.06172839506172834,0,0,0.06172839506172834,68.39506172839499,0)" xlink:href="#N"/></g><path fill="#333" d="M125-24c46 0 70-25 89-51l25 16C214-24 183 4 123 4 8 4-5-146 60-208c32-50 158-61 191-5 5 7 9 14 11 22l-32 10c-9-28-33-43-69-43-74 0-108 51-108 125 0 46 24 75 72 75" id="O"/><path fill="#333" d="M165-48c-4 18 1 34 23 27l-3 20c-29 8-62 0-52-35h-2C116-14 99 4 63 4 30 4 8-16 8-49c0-68 71-67 138-67 10-26 0-56-31-54-26 1-42 9-47 31l-32-5c8-67 160-71 144 15-5 28-9 54-15 81zM42-50c3 52 80 24 89-6 7-12 7-24 11-38-47 1-103-4-100 44" id="P"/><path fill="#333" d="M55-144c13 50 104 24 104 88C159 21 15 23 1-39l26-10c6 40 102 42 102-4-13-50-104-23-104-87 0-71 143-71 148-8l-29 4c-5-35-85-37-89 0" id="Q"/><path fill="#333" d="M67-158c22-48 132-52 116 29L158 0h-32l25-140c3-38-53-32-70-12C52-117 51-52 38 0H6l36-190h30" id="R"/><path fill="#333" d="M133-28C103 26-5 8 13-77c13-62 24-115 90-117 29-1 46 15 56 35l19-102h32L160 0h-30zM45-64c-2 27 10 43 35 43 54-1 69-50 69-103 0-29-15-46-42-46-53-1-58 58-62 106" id="S"/><path fill="#333" d="M66-151c12-25 30-51 66-40l-6 26C45-176 58-65 38 0H6l36-190h30" id="T"/><path fill="#333" d="M58-38C53-5 46 26 28 46H7C19 32 27 18 32 0H17l7-38h34" id="U"/><g id="i"><use transform="matrix(0.06172839506172835,0,0,0.06172839506172835,0,0)" xlink:href="#O"/><use transform="matrix(0.06172839506172835,0,0,0.06172839506172835,15.987654320987643,0)" xlink:href="#P"/><use transform="matrix(0.06172839506172835,0,0,0.06172839506172835,28.333333333333314,0)" xlink:href="#Q"/><use transform="matrix(0.06172839506172835,0,0,0.06172839506172835,39.444444444444414,0)" xlink:href="#Q"/><use transform="matrix(0.06172839506172835,0,0,0.06172839506172835,50.555555555555515,0)" xlink:href="#P"/><use transform="matrix(0.06172839506172835,0,0,0.06172839506172835,62.901234567901184,0)" xlink:href="#R"/><use transform="matrix(0.06172839506172835,0,0,0.06172839506172835,75.24691358024685,0)" xlink:href="#S"/><use transform="matrix(0.06172839506172835,0,0,0.06172839506172835,87.59259259259252,0)" xlink:href="#T"/><use transform="matrix(0.06172839506172835,0,0,0.06172839506172835,94.9382716049382,0)" xlink:href="#P"/><use transform="matrix(0.06172839506172835,0,0,0.06172839506172835,107.28395061728386,0)" xlink:href="#U"/></g><path fill="#333" d="M222 0l43-216c-8 16-17 34-26 49L143 0h-22L81-216 41 0H11l48-248h42l38 208 116-208h45L252 0h-30" id="V"/><path fill="#333" d="M198-190L69 30C53 58 25 83-20 72c4-11-1-27 19-22 33-1 43-29 59-52L20-190h32L79-34l84-156h35" id="W"/><path fill="#333" d="M194-120c59 52 2 134-86 124-53-6-90-18-98-63l31-7c8 30 29 43 70 43 46 0 84-17 71-62-32-43-135-20-137-98-3-89 178-90 191-16l-30 9c-8-48-127-53-127 5 0 53 81 35 115 65" id="X"/><path fill="#333" d="M24-61C-1-165 59-251 163-251c67 1 105 36 105 101 0 88-46 140-124 152 2 33 24 47 60 39l-3 23c-50 15-89-11-89-61-46-3-79-26-88-64zm210-73c6-55-18-91-72-90-77 1-111 51-111 125 0 49 24 75 73 75 72 0 103-45 110-110" id="Y"/><path fill="#333" d="M11 0l48-248h34L50-27h125l-5 27H11" id="Z"/><g id="j"><use transform="matrix(0.06172839506172835,0,0,0.06172839506172835,0,0)" xlink:href="#V"/><use transform="matrix(0.06172839506172835,0,0,0.06172839506172835,18.456790123456777,0)" xlink:href="#W"/><use transform="matrix(0.06172839506172835,0,0,0.06172839506172835,29.56790123456788,0)" xlink:href="#X"/><use transform="matrix(0.06172839506172835,0,0,0.06172839506172835,44.38271604938269,0)" xlink:href="#Y"/><use transform="matrix(0.06172839506172835,0,0,0.06172839506172835,61.66666666666663,0)" xlink:href="#Z"/><use transform="matrix(0.06172839506172835,0,0,0.06172839506172835,74.0123456790123,0)" xlink:href="#U"/></g><g id="k"><use transform="matrix(0.06172839506172835,0,0,0.06172839506172835,0,0)" xlink:href="#P"/><use transform="matrix(0.06172839506172835,0,0,0.06172839506172835,12.34567901234567,0)" xlink:href="#R"/><use transform="matrix(0.06172839506172835,0,0,0.06172839506172835,24.69135802469134,0)" xlink:href="#S"/></g><path fill="#333" d="M238-179c0 84-86 86-175 82L45 0H11l48-248c82 0 179-12 179 69zm-34 1c0-53-64-42-116-43l-19 98c63 0 135 9 135-55" id="aa"/><path fill="#333" d="M30-147c31-64 166-65 159 27C183-49 158 1 86 4 9 8 1-88 30-147zM88-20c53 0 68-48 68-100 0-31-11-51-44-50-52 1-68 46-68 97 0 32 13 53 44 53" id="ab"/><path fill="#333" d="M51-54c-9 22 5 41 31 30L79-1C43 14 10-4 19-52l22-115H19l5-23h22l19-43h21l-9 43h35l-4 23H73" id="ac"/><path fill="#333" d="M103-194c29 0 47 14 56 36 2-11 5-23 8-32h30L160-5C157 61 82 97 21 62 9 55 4 45 1 30l28-7c7 42 83 31 92-3 4-16 9-38 13-55-13 20-29 36-62 36-40 0-60-25-60-64 0-71 23-131 91-131zm4 24c-53 0-58 54-61 104-2 27 10 44 36 44 49 0 65-50 67-102 1-29-15-46-42-46" id="ad"/><path fill="#333" d="M111-194c62-3 86 47 72 106H45c-7 38 6 69 45 68 27-1 43-14 53-32l24 11C152-15 129 4 87 4 38 3 12-23 12-71c0-70 32-119 99-123zm44 81c14-66-71-72-95-28-4 8-8 17-11 28h106" id="ae"/><g id="l"><use transform="matrix(0.06172839506172835,0,0,0.06172839506172835,0,0)" xlink:href="#aa"/><use transform="matrix(0.06172839506172835,0,0,0.06172839506172835,14.814814814814804,0)" xlink:href="#ab"/><use transform="matrix(0.06172839506172835,0,0,0.06172839506172835,27.160493827160472,0)" xlink:href="#Q"/><use transform="matrix(0.06172839506172835,0,0,0.06172839506172835,38.27160493827158,0)" xlink:href="#ac"/><use transform="matrix(0.06172839506172835,0,0,0.06172839506172835,44.444444444444414,0)" xlink:href="#ad"/><use transform="matrix(0.06172839506172835,0,0,0.06172839506172835,56.790123456790084,0)" xlink:href="#T"/><use transform="matrix(0.06172839506172835,0,0,0.06172839506172835,64.13580246913575,0)" xlink:href="#ae"/><use transform="matrix(0.06172839506172835,0,0,0.06172839506172835,76.48148148148142,0)" xlink:href="#X"/><use transform="matrix(0.06172839506172835,0,0,0.06172839506172835,91.29629629629623,0)" xlink:href="#Y"/><use transform="matrix(0.06172839506172835,0,0,0.06172839506172835,108.58024691358017,0)" xlink:href="#Z"/></g><g id="m"><use transform="matrix(0.06172839506172835,0,0,0.06172839506172835,0,0)" xlink:href="#P"/><use transform="matrix(0.06172839506172835,0,0,0.06172839506172835,12.34567901234567,0)" xlink:href="#T"/><use transform="matrix(0.06172839506172835,0,0,0.06172839506172835,19.691358024691343,0)" xlink:href="#ae"/></g><path fill="#333" d="M67 3c-93-2-31-127-26-193h32L48-50c-3 39 53 32 70 12 30-34 30-101 43-152h32L157 0h-30c1-10 6-24 4-33-14 20-29 37-64 36" id="af"/><path fill="#333" d="M67-162c32-53 139-36 121 50C175-51 163 2 97 4 68 4 52-11 42-31 38 6 28 39 22 75H-9l50-265h29c-1 10 0 20-3 28zm89 36c0-26-10-43-35-43-54 0-67 50-69 103-1 29 14 45 42 46 53 0 62-58 62-106" id="ag"/><path fill="#333" d="M14 0l8-38h34L48 0H14" id="ah"/><g id="n"><use transform="matrix(0.06172839506172835,0,0,0.06172839506172835,0,0)" xlink:href="#Q"/><use transform="matrix(0.06172839506172835,0,0,0.06172839506172835,11.111111111111104,0)" xlink:href="#af"/><use transform="matrix(0.06172839506172835,0,0,0.06172839506172835,23.456790123456774,0)" xlink:href="#ag"/><use transform="matrix(0.06172839506172835,0,0,0.06172839506172835,35.80246913580244,0)" xlink:href="#ag"/><use transform="matrix(0.06172839506172835,0,0,0.06172839506172835,48.14814814814811,0)" xlink:href="#ab"/><use transform="matrix(0.06172839506172835,0,0,0.06172839506172835,60.49382716049378,0)" xlink:href="#T"/><use transform="matrix(0.06172839506172835,0,0,0.06172839506172835,67.83950617283945,0)" xlink:href="#ac"/><use transform="matrix(0.06172839506172835,0,0,0.06172839506172835,74.01234567901228,0)" xlink:href="#ae"/><use transform="matrix(0.06172839506172835,0,0,0.06172839506172835,86.35802469135795,0)" xlink:href="#S"/><use transform="matrix(0.06172839506172835,0,0,0.06172839506172835,98.70370370370362,0)" xlink:href="#ah"/></g><path fill="#333" d="M151-220L108 0H75l42-220H32l6-28h203l-5 28h-85" id="ai"/><path fill="#333" d="M248-111c6-24 9-61-24-58-72 9-57 108-77 169h-31l26-142c3-37-50-30-64-10C52-115 50-51 37 0H6l36-190h30c-1 10-6 24-4 32 13-43 101-52 105 5 13-22 29-41 61-41 90 0 28 129 23 194h-31" id="aj"/><path fill="#333" d="M6 0l50-261h32L37 0H6" id="ak"/><g id="o"><use transform="matrix(0.06172839506172835,0,0,0.06172839506172835,0,0)" xlink:href="#ai"/><use transform="matrix(0.06172839506172835,0,0,0.06172839506172835,11.481481481481474,0)" xlink:href="#ae"/><use transform="matrix(0.06172839506172835,0,0,0.06172839506172835,23.827160493827144,0)" xlink:href="#aj"/><use transform="matrix(0.06172839506172835,0,0,0.06172839506172835,42.28395061728392,0)" xlink:href="#ag"/><use transform="matrix(0.06172839506172835,0,0,0.06172839506172835,54.62962962962959,0)" xlink:href="#ab"/><use transform="matrix(0.06172839506172835,0,0,0.06172839506172835,66.97530864197526,0)" xlink:href="#T"/><use transform="matrix(0.06172839506172835,0,0,0.06172839506172835,74.32098765432093,0)" xlink:href="#P"/><use transform="matrix(0.06172839506172835,0,0,0.06172839506172835,86.6666666666666,0)" xlink:href="#ak"/></g><path fill="#333" d="M89 0H52L20-190h33L74-25l89-165h34" id="al"/><path fill="#333" d="M50-231l6-30h32l-6 30H50zM6 0l37-190h31L37 0H6" id="am"/><path fill="#333" d="M44-68c0 29 11 47 38 47 30 0 42-19 51-41l28 9C148-21 126 4 82 4 31 4 10-29 12-85c3-77 74-140 146-93 12 8 15 23 18 40l-31 5c-1-22-13-36-36-36-52 0-65 49-65 101" id="an"/><g id="p"><use transform="matrix(0.06172839506172835,0,0,0.06172839506172835,0,0)" xlink:href="#X"/><use transform="matrix(0.06172839506172835,0,0,0.06172839506172835,14.814814814814804,0)" xlink:href="#ae"/><use transform="matrix(0.06172839506172835,0,0,0.06172839506172835,27.160493827160472,0)" xlink:href="#T"/><use transform="matrix(0.06172839506172835,0,0,0.06172839506172835,34.50617283950615,0)" xlink:href="#al"/><use transform="matrix(0.06172839506172835,0,0,0.06172839506172835,45.61728395061725,0)" xlink:href="#am"/><use transform="matrix(0.06172839506172835,0,0,0.06172839506172835,50.49382716049379,0)" xlink:href="#an"/><use transform="matrix(0.06172839506172835,0,0,0.06172839506172835,61.604938271604894,0)" xlink:href="#ae"/></g></defs></g></svg>