<svg xmlns="http://www.w3.org/2000/svg" xmlns:xlink="http://www.w3.org/1999/xlink" xmlns:lucid="lucid" width="2271.77" height="1322.67"><g transform="translate(1101.772 -1120)" lucid:page-tab-id="0_0"><path d="M-80 1746c0-3.3 2.7-6 6-6h418c3.3 0 6 2.7 6 6v88c0 3.3-2.7 6-6 6H-74c-3.3 0-6-2.7-6-6z" fill="none"/><use xlink:href="#a" transform="translate(-75 1768.403)"/><use xlink:href="#b" transform="translate(-52.778 1768.403)"/><use xlink:href="#c" transform="translate(44.506 1768.403)"/><use xlink:href="#d" transform="translate(148.148 1768.403)"/><use xlink:href="#e" transform="translate(-75 1795.07)"/><use xlink:href="#f" transform="translate(-52.778 1795.07)"/><use xlink:href="#g" transform="translate(15 1795.07)"/><use xlink:href="#h" transform="translate(95.247 1795.07)"/><use xlink:href="#i" transform="translate(112.47 1795.07)"/><use xlink:href="#j" transform="translate(158.95 1795.07)"/><use xlink:href="#k" transform="translate(197.16 1795.07)"/><use xlink:href="#l" transform="translate(-75 1821.736)"/><use xlink:href="#m" transform="translate(-52.778 1821.736)"/><use xlink:href="#n" transform="translate(27.47 1821.736)"/><use xlink:href="#o" transform="translate(49.63 1821.736)"/><path d="M-1081.77 1206c0-3.3 2.68-6 6-6h268c3.3 0 6 2.7 6 6v106.33c0 3.32-2.7 6-6 6h-268c-3.32 0-6-2.68-6-6z" fill="none"/><use xlink:href="#p" transform="translate(-1065.66 1250.028)"/><use xlink:href="#q" transform="translate(-1012.636 1250.028)"/><use xlink:href="#r" transform="translate(-915.352 1250.028)"/><use xlink:href="#s" transform="translate(-1047.173 1276.694)"/><use xlink:href="#t" transform="translate(-1001.618 1276.694)"/><use xlink:href="#u" transform="translate(-983.1 1276.694)"/><use xlink:href="#v" transform="translate(-928.902 1276.694)"/><path d="M910 1369.33c0-3.3 2.7-6 6-6h228c3.3 0 6 2.7 6 6v131.34c0 3.3-2.7 6-6 6H916c-3.3 0-6-2.7-6-6z" fill="none"/><use xlink:href="#w" transform="translate(933.24 1390.299)"/><use xlink:href="#x" transform="translate(1022.068 1390.299)"/><use xlink:href="#y" transform="translate(951.574 1416.965)"/><use xlink:href="#z" transform="translate(998.364 1416.965)"/><use xlink:href="#A" transform="translate(1020.154 1443.632)"/><use xlink:href="#B" transform="translate(929.537 1470.299)"/><use xlink:href="#q" transform="translate(935.71 1470.299)"/><use xlink:href="#r" transform="translate(1032.994 1470.299)"/><use xlink:href="#B" transform="translate(935.802 1496.965)"/><use xlink:href="#C" transform="translate(1021.852 1496.965)"/><use xlink:href="#D" transform="translate(1044.012 1496.965)"/><path d="M-801.77 1235c0-8.28 6.7-15 15-15H-255c8.28 0 15 6.72 15 15v83.33c0 8.3-6.72 15-15 15h-531.77c-8.3 0-15-6.7-15-15z" stroke="#333" stroke-width="3" fill="#fff"/><use xlink:href="#E" transform="translate(-625.297 1269.389)"/><use xlink:href="#F" transform="translate(-519.642 1269.389)"/><use xlink:href="#G" transform="translate(-559.013 1299.611)"/><use xlink:href="#H" transform="translate(-523.21 1299.611)"/><path d="M-780 1460c0 11.5-8.95 20.83-20 20.83s-20-9.32-20-20.83c0-11.5 8.95-20.83 20-20.83s20 9.32 20 20.83z" stroke="#333" stroke-width="3" fill="#ffc374"/><path d="M-400 2366.67V2030m0 336.54v5.13" stroke="#333" stroke-width="10" fill="none"/><path d="M-395 2030.13h-10V2025h10z" fill="#333"/><path d="M0 2366.67v-233.34m0 233.21v5.13" stroke="#333" stroke-width="10" fill="none"/><path d="M5 2133.46H-5v-5.13H5zm400 233.21c0 2.76-2.24 5-5 5s-5-2.24-5-5 2.24-5 5-5 5 2.24 5 5zm0-20.13c0 2.76-2.24 5-5 5s-5-2.24-5-5 2.24-5 5-5 5 2.24 5 5zm0-20.13c0 2.77-2.24 5-5 5s-5-2.23-5-5c0-2.75 2.24-5 5-5s5 2.25 5 5zm0-20.12c0 2.76-2.24 5-5 5s-5-2.24-5-5c0-2.77 2.24-5 5-5s5 2.23 5 5zm.9-21.02c0 2.76-2.25 5-5 5-2.78 0-5-2.24-5-5s2.22-5 5-5c2.75 0 5 2.24 5 5zm0-20.13c0 2.76-2.25 5-5 5-2.78 0-5-2.24-5-5s2.22-5 5-5c2.75 0 5 2.24 5 5zm0-20.13c0 2.76-2.25 5-5 5-2.78 0-5-2.24-5-5s2.22-5 5-5c2.75 0 5 2.24 5 5z" fill="#333"/><path d="M400 2366.54v5.13" stroke="#333" stroke-width="10" fill="none"/><path d="M405.9 2245.13h-10V2240h10z" fill="#333"/><path d="M-380 1461.67c0 11.5-8.95 20.83-20 20.83s-20-9.33-20-20.83c0-11.5 8.95-20.84 20-20.84s20 9.33 20 20.84z" stroke="#333" stroke-width="3" fill="#0c7cba"/><path d="M-220 1579.17c0 11.5-8.95 20.83-20 20.83s-20-9.33-20-20.83c0-11.5 8.95-20.84 20-20.84s20 9.33 20 20.84zm400 121.25c0 11.5-8.95 20.83-20 20.83s-20-9.33-20-20.83c0-11.5 8.95-20.84 20-20.84s20 9.33 20 20.84zm170.9 118.75c0 11.5-8.97 20.83-20 20.83-11.06 0-20-9.33-20-20.83 0-11.5 8.94-20.84 20-20.84 11.03 0 20 9.33 20 20.84z" stroke="#333" stroke-width="3" fill="#ffc374"/><path d="M20 1579.17c0 11.5-8.95 20.83-20 20.83s-20-9.33-20-20.83c0-11.5 8.95-20.84 20-20.84s20 9.33 20 20.84z" stroke="#333" stroke-width="3" fill="#0c7cba"/><path d="M500.9 1939.17c0 11.5-8.97 20.83-20 20.83-11.06 0-20-9.33-20-20.83 0-11.5 8.94-20.84 20-20.84 11.03 0 20 9.33 20 20.84z" stroke="#333" stroke-width="3" fill="#ffc374"/><path d="M820.9 1939.17c0 11.5-8.97 20.83-20 20.83-11.06 0-20-9.33-20-20.83 0-11.5 8.94-20.84 20-20.84 11.03 0 20 9.33 20 20.84z" stroke="#333" stroke-width="3" fill="#0c7cba"/><path d="M-480 1989.33c0-3.3 2.7-6 6-6h148c3.3 0 6 2.7 6 6V2019c0 3.3-2.7 6-6 6h-148c-3.3 0-6-2.7-6-6z" fill="none"/><use xlink:href="#I" transform="translate(-473.364 2008.111)"/><use xlink:href="#J" transform="translate(-419.167 2008.111)"/><path d="M-80 2089.33c0-3.3 2.7-6 6-6H74c3.3 0 6 2.7 6 6v33c0 3.32-2.7 6-6 6H-74c-3.3 0-6-2.68-6-6z" fill="none"/><use xlink:href="#I" transform="translate(-73.364 2110.486)"/><use xlink:href="#J" transform="translate(-19.167 2110.486)"/><path d="M320.9 2166c0-3.3 2.67-6 6-6h148c3.3 0 6 2.7 6 6v68c0 3.3-2.7 6-6 6h-148c-3.33 0-6-2.7-6-6z" fill="none"/><use xlink:href="#I" transform="translate(327.522 2191.528)"/><use xlink:href="#K" transform="translate(381.72 2191.528)"/><use xlink:href="#L" transform="translate(357.769 2218.194)"/><path d="M720 2286c0-3.3 2.7-6 6-6h148c3.3 0 6 2.7 6 6v28c0 3.3-2.7 6-6 6H726c-3.3 0-6-2.7-6-6z" fill="none"/><use xlink:href="#I" transform="translate(726.636 2304.715)"/><use xlink:href="#J" transform="translate(780.833 2304.715)"/><path d="M-240 1235c0-8.28 6.72-15 15-15h370c8.28 0 15 6.72 15 15v83.33c0 8.3-6.72 15-15 15h-370c-8.28 0-15-6.7-15-15z" stroke="#333" stroke-width="3" fill="#fff"/><use xlink:href="#E" transform="translate(-144.525 1269.389)"/><use xlink:href="#F" transform="translate(-38.87 1269.389)"/><use xlink:href="#M" transform="translate(-81.944 1299.611)"/><use xlink:href="#H" transform="translate(-38.735 1299.611)"/><path d="M160 1235c0-8.28 6.72-15 15-15h130c8.28 0 15 6.72 15 15v83.33c0 8.3-6.72 15-15 15H175c-8.28 0-15-6.7-15-15z" stroke="#333" stroke-width="3" fill="#fff"/><use xlink:href="#N" transform="translate(190.26 1249.889)"/><use xlink:href="#F" transform="translate(188.302 1287.222)"/><use xlink:href="#O" transform="translate(200.556 1317.444)"/><use xlink:href="#H" transform="translate(238.765 1317.444)"/><path d="M184.86 1534.96c0-3.32 2.68-6 6-6H354c3.3 0 6 2.68 6 6v51.33c0 3.3-2.7 6-6 6H190.86c-3.32 0-6-2.7-6-6z" fill="none"/><use xlink:href="#b" transform="translate(201.191 1551.736)"/><use xlink:href="#P" transform="translate(298.475 1551.736)"/><use xlink:href="#Q" transform="translate(220.42 1578.403)"/><path d="M-800 1504v-20.66" stroke="#333" stroke-width="2" fill="none"/><path d="M-799 1505h-2v-1.03h2zm-1.04-22.66 1.04-.07v1.1h-2v-1.15z" fill="#333"/><path d="M320 1235c0-8.28 6.72-15 15-15h130c8.28 0 15 6.72 15 15v83.33c0 8.3-6.72 15-15 15H335c-8.28 0-15-6.7-15-15z" stroke="#333" stroke-width="3" fill="#fff"/><use xlink:href="#N" transform="translate(350.26 1249.889)"/><use xlink:href="#F" transform="translate(348.302 1287.222)"/><use xlink:href="#R" transform="translate(361.142 1317.444)"/><use xlink:href="#H" transform="translate(398.179 1317.444)"/><path d="M480 1235c0-8.28 6.72-15 15-15h430c8.28 0 15 6.72 15 15v83.33c0 8.3-6.72 15-15 15H495c-8.28 0-15-6.7-15-15z" stroke="#333" stroke-width="3" fill="#fff"/><use xlink:href="#E" transform="translate(605.475 1269.389)"/><use xlink:href="#F" transform="translate(711.13 1269.389)"/><use xlink:href="#S" transform="translate(671.142 1299.611)"/><use xlink:href="#H" transform="translate(708.179 1299.611)"/><path d="M-795 2371.67H994.55m-1789.42 0H-800" stroke="#333" stroke-width="10" fill="none"/><path d="m1013.82 2371.67-14.27 4.63v-9.27z" stroke="#333" stroke-width="10" fill="#333"/><path d="M-80 1453.08c0-3.3 2.7-6 6-6H74c3.3 0 6 2.7 6 6v51.75c0 3.32-2.7 6-6 6H-74c-3.3 0-6-2.68-6-6z" fill="none"/><use xlink:href="#b" transform="translate(-71.667 1469.861)"/><use xlink:href="#P" transform="translate(25.617 1469.861)"/><use xlink:href="#Q" transform="translate(-52.438 1496.528)"/><path d="M0 1511.83v44" stroke="#333" stroke-width="2" fill="none"/><path d="M1 1511.86h-2v-1.03h2zm0 45.08-.96-.1-1.04.06v-1.1h2z" fill="#333"/><path d="M-480 1512.67c0-3.32 2.7-6 6-6h148c3.3 0 6 2.68 6 6v65.5c0 3.3-2.7 6-6 6h-148c-3.3 0-6-2.7-6-6z" fill="none"/><use xlink:href="#b" transform="translate(-471.667 1535.82)"/><use xlink:href="#P" transform="translate(-374.383 1535.82)"/><use xlink:href="#Q" transform="translate(-452.438 1562.486)"/><path d="M-400 1505.67V1485" stroke="#333" stroke-width="2" fill="none"/><path d="M-399 1506.67h-2v-1.03h2zm-1.04-22.67 1.04-.06v1.1h-2v-1.15z" fill="#333"/><path d="M720.9 1821c0-3.3 2.67-6 6-6h148c3.3 0 6 2.7 6 6v48c0 3.3-2.7 6-6 6h-148c-3.33 0-6-2.7-6-6z" fill="none"/><use xlink:href="#b" transform="translate(729.22 1837.778)"/><use xlink:href="#P" transform="translate(826.503 1837.778)"/><use xlink:href="#Q" transform="translate(748.448 1864.444)"/><path d="M800.9 1876v39.83" stroke="#333" stroke-width="2" fill="none"/><path d="M801.9 1876.03h-2V1875h2zm0 40.91-.97-.1-1.04.06v-1.1h2z" fill="#333"/><path d="M800 2325v41.67" stroke="#333" stroke-width="10" fill="none"/><path d="M805 2325.13h-10V2320h10z" fill="#333"/><path d="M800 2366.54v5.13" stroke="#333" stroke-width="10" fill="none"/><path d="M-220 1461.67c0 11.5-8.95 20.83-20 20.83s-20-9.33-20-20.83c0-11.5 8.95-20.84 20-20.84s20 9.33 20 20.84z" stroke="#333" stroke-width="3" fill="#a3d977"/><path d="M-298.6 1380h117.2v36.67h-117.2z" fill="none"/><use xlink:href="#T" transform="translate(-293.611 1402.778)"/><path d="M-240 1417.67v20.66" stroke="#333" stroke-width="2" fill="none"/><path d="M-239 1417.7h-2v-1.03h2zm0 21.74-.96-.1-1.04.06v-1.1h2z" fill="#333"/><path d="M500 1819.17c0 11.5-8.95 20.83-20 20.83s-20-9.33-20-20.83c0-11.5 8.95-20.84 20-20.84s20 9.33 20 20.84z" stroke="#333" stroke-width="3" fill="#a3d977"/><path d="M421.4 1737.5h117.2v36.67H421.4z" fill="none"/><use xlink:href="#T" transform="translate(426.389 1760.278)"/><path d="M480 1775.17v20.66" stroke="#333" stroke-width="2" fill="none"/><path d="M481 1775.2h-2v-1.03h2zm0 21.74-.96-.1-1.04.06v-1.1h2z" fill="#333"/><path d="M120 1483.75h80v32.5h-80z" fill="none"/><use xlink:href="#U" transform="translate(129.846 1506.528)"/><path d="M180 1579.17c0 11.5-8.95 20.83-20 20.83s-20-9.33-20-20.83c0-11.5 8.95-20.84 20-20.84s20 9.33 20 20.84z" stroke="#333" stroke-width="3" fill="#c92d39"/><path d="M160 1517.25v38.58" stroke="#333" stroke-width="2" fill="none"/><path d="M161 1517.28h-2v-1.03h2zm0 39.66-.96-.1-1.04.06v-1.1h2z" fill="#333"/><path d="M290.9 1605h80v32.5h-80z" fill="none"/><use xlink:href="#U" transform="translate(300.732 1627.778)"/><path d="M350.9 1700.42c0 11.5-8.97 20.83-20 20.83-11.06 0-20-9.33-20-20.83 0-11.5 8.94-20.84 20-20.84 11.03 0 20 9.33 20 20.84z" stroke="#333" stroke-width="3" fill="#c92d39"/><path d="M330.9 1638.5v38.58" stroke="#333" stroke-width="2" fill="none"/><path d="M331.9 1638.53h-2v-1.03h2zm0 39.67-.97-.12-1.04.07v-1.1h2z" fill="#333"/><path d="M955.43 1939.17c0 11.5-8.95 20.83-20 20.83-11.04 0-20-9.33-20-20.83 0-11.5 8.96-20.84 20-20.84 11.05 0 20 9.33 20 20.84z" stroke="#333" stroke-width="3" fill="#a3d977"/><path d="M876.82 1860h117.22v36.67H876.82z" fill="none"/><use xlink:href="#T" transform="translate(881.822 1882.778)"/><path d="M935.43 1897.67v18.16" stroke="#333" stroke-width="2" fill="none"/><path d="M936.43 1897.7h-2v-1.03h2zm0 19.24-.96-.1-1.04.06v-1.1h2z" fill="#333"/><path d="M-240 1631.08v-28.58" stroke="#333" stroke-width="2" fill="none"/><path d="M-239 1632.08h-2v-1.02h2zm-1.04-30.58 1.04-.06v1.1h-2v-1.15z" fill="#333"/><path d="M290.9 2006c0-3.3 2.67-6 6-6h368c3.3 0 6 2.7 6 6v88c0 3.3-2.7 6-6 6h-368c-3.33 0-6-2.7-6-6z" fill="none"/><use xlink:href="#a" transform="translate(295.886 2028.403)"/><use xlink:href="#b" transform="translate(318.108 2028.403)"/><use xlink:href="#c" transform="translate(415.392 2028.403)"/><use xlink:href="#d" transform="translate(519.034 2028.403)"/><use xlink:href="#e" transform="translate(295.886 2055.07)"/><use xlink:href="#f" transform="translate(318.108 2055.07)"/><use xlink:href="#g" transform="translate(385.886 2055.07)"/><use xlink:href="#h" transform="translate(466.133 2055.07)"/><use xlink:href="#i" transform="translate(483.355 2055.07)"/><use xlink:href="#j" transform="translate(529.837 2055.07)"/><use xlink:href="#k" transform="translate(568.047 2055.07)"/><use xlink:href="#l" transform="translate(295.886 2081.736)"/><use xlink:href="#m" transform="translate(318.108 2081.736)"/><use xlink:href="#n" transform="translate(398.355 2081.736)"/><use xlink:href="#o" transform="translate(420.516 2081.736)"/><path d="M480.9 1999v-36.5" stroke="#333" stroke-width="2" fill="none"/><path d="M481.9 2000h-2v-1.03h2zm-1.05-38.5 1.04-.06v1.1h-2v-1.15z" fill="#333"/><path d="M-705.73 1400h200v36.67h-200z" fill="none"/><use xlink:href="#V" transform="translate(-698.931 1424.465)"/><use xlink:href="#W" transform="translate(-636.092 1424.465)"/><use xlink:href="#X" transform="translate(-585.598 1424.465)"/><path d="M-605.73 1437.67V1459" stroke="#333" stroke-width="2" fill="none"/><path d="M-604.73 1437.7h-2v-1.03h2z" fill="#333"/><path d="M-605.73 1458.97v1.03" stroke="#333" stroke-width="2" fill="none"/><path d="M-249.15 1510.83h209.2v36.67h-209.2z" fill="none"/><use xlink:href="#V" transform="translate(-237.855 1535.299)"/><use xlink:href="#W" transform="translate(-175.016 1535.299)"/><use xlink:href="#X" transform="translate(-124.522 1535.299)"/><path d="M530.1 1880.83h200v36.67h-200z" fill="none"/><use xlink:href="#V" transform="translate(535.108 1903.611)"/><use xlink:href="#W" transform="translate(597.947 1903.611)"/><use xlink:href="#X" transform="translate(648.441 1903.611)"/><path d="M630.1 1918.5v19.67" stroke="#333" stroke-width="2" fill="none"/><path d="M631.1 1918.53h-2v-1.03h2z" fill="#333"/><path d="M630.1 1938.14v1.03m-774.53-390.67v29.67" stroke="#333" stroke-width="2" fill="none"/><path d="M-143.43 1548.53h-2v-1.03h2z" fill="#333"/><path d="M-144.43 1578.14v1.03m-797.34-259.84v136.7" stroke="#333" stroke-width="2" fill="none"/><path d="M-940.77 1319.36h-2v-1.03h2z" fill="#333"/><path d="M-941.77 1456v1.02m164.27 2.98h4.04m8.07 0h8.08m8.08 0h8.07m8.07 0h8.07m8.08 0h8.07m8.07 0h8.06m8.08 0h8.07m8.08 0h8.07m8.08 0h8.07m8.07 0h8.07m8.08 0h8.07m8.06 0h8.07m8.07 0h8.08m8.07 0h8.07m8.07 0h8.07m8.07 0h8.07m8.08 0h8.08m8.07 0h8.07m8.07 0h8.08m8.07 0h8.07m8.06 0h8.08m8.07 0h8.08m8.07 0h4.04" stroke="#333" stroke-width="2" fill="none"/><path d="M-777.47 1461h-1.14l.1-.96-.06-1.04h1.1zm356.04 0h-.9v-2h1.14z" fill="#333"/><path d="M-377.5 1461.67h115" stroke="#333" stroke-width="2" fill="none"/><path d="M-377.47 1462.67h-1.14l.1-.96-.06-1.03h1.1zm115.97-1.04.06 1.04h-1.1v-2h1.15z" fill="#333"/><path d="M-822.5 1460H-979" stroke="#333" stroke-width="2" fill="none"/><path d="m-821.5 1459.96.06 1.04h-1.1v-2h1.15z" fill="#333"/><path d="M-978.97 1460H-980m762.5 119.17h4.07m8.12 0h8.12m8.12 0h8.12m8.13 0h8.1m8.14 0h8.12m8.13 0h8.1m8.14 0h8.12m8.13 0h8.1m8.14 0h8.12m8.13 0h8.1m8.14 0h8.12m8.12 0h8.13m8.13 0h4.07" stroke="#333" stroke-width="2" fill="none"/><path d="M-217.47 1580.17h-1.14l.1-.96-.06-1.03h1.1zm195.97-1.04.06 1.04h-1.1v-2h1.15z" fill="#333"/><path d="M22.5 1579.17h115" stroke="#333" stroke-width="2" fill="none"/><path d="M22.53 1580.17H21.4l.1-.96-.06-1.03h1.1zm115.97-1.04.06 1.04h-1.1v-2h1.15z" fill="#333"/><path d="M503.4 1939.17h4.03m8.1 0h8.08m8.1 0h8.1m8.07 0h8.1m8.08 0h8.1m8.08 0h8.08m8.1 0h8.1m8.08 0h8.1m8.07 0h8.1m8.08 0h8.1m8.08 0h8.1m8.08 0h8.1m8.08 0h8.1m8.07 0h8.1m8.08 0h8.1m8.1 0h8.07m8.1 0h8.08m8.1 0h4.03" stroke="#333" stroke-width="2" fill="none"/><path d="M503.4 1940.17h-1.12l.1-.96-.06-1.03h1.1zm275.98-1.04.07 1.04h-1.1v-2h1.15z" fill="#333"/><path d="M823.4 1939.17h89.53" stroke="#333" stroke-width="2" fill="none"/><path d="M823.4 1940.17h-1.12l.1-.96-.06-1.03h1.1zm90.53-1.04.07 1.04h-1.1v-2h1.14z" fill="#333"/><path d="M-430 1638.08c0-3.3 2.7-6 6-6h368c3.3 0 6 2.7 6 6v88c0 3.32-2.7 6-6 6h-368c-3.3 0-6-2.68-6-6z" fill="none"/><use xlink:href="#a" transform="translate(-425 1660.486)"/><use xlink:href="#b" transform="translate(-402.778 1660.486)"/><use xlink:href="#c" transform="translate(-305.494 1660.486)"/><use xlink:href="#d" transform="translate(-201.852 1660.486)"/><use xlink:href="#e" transform="translate(-425 1687.153)"/><use xlink:href="#f" transform="translate(-402.778 1687.153)"/><use xlink:href="#g" transform="translate(-335 1687.153)"/><use xlink:href="#h" transform="translate(-254.753 1687.153)"/><use xlink:href="#i" transform="translate(-237.53 1687.153)"/><use xlink:href="#j" transform="translate(-191.05 1687.153)"/><use xlink:href="#k" transform="translate(-152.84 1687.153)"/><use xlink:href="#l" transform="translate(-425 1713.82)"/><use xlink:href="#m" transform="translate(-402.778 1713.82)"/><use xlink:href="#n" transform="translate(-322.53 1713.82)"/><use xlink:href="#o" transform="translate(-300.37 1713.82)"/><path d="M-990 1511c0-3.3 2.7-6 6-6h368c3.3 0 6 2.7 6 6v88c0 3.3-2.7 6-6 6h-368c-3.3 0-6-2.7-6-6z" fill="none"/><use xlink:href="#a" transform="translate(-985 1533.403)"/><use xlink:href="#b" transform="translate(-962.778 1533.403)"/><use xlink:href="#c" transform="translate(-865.494 1533.403)"/><use xlink:href="#d" transform="translate(-761.852 1533.403)"/><use xlink:href="#e" transform="translate(-985 1560.07)"/><use xlink:href="#f" transform="translate(-962.778 1560.07)"/><use xlink:href="#g" transform="translate(-895 1560.07)"/><use xlink:href="#h" transform="translate(-814.753 1560.07)"/><use xlink:href="#i" transform="translate(-797.53 1560.07)"/><use xlink:href="#j" transform="translate(-751.05 1560.07)"/><use xlink:href="#k" transform="translate(-712.84 1560.07)"/><use xlink:href="#l" transform="translate(-985 1586.736)"/><use xlink:href="#m" transform="translate(-962.778 1586.736)"/><use xlink:href="#n" transform="translate(-882.53 1586.736)"/><use xlink:href="#o" transform="translate(-860.37 1586.736)"/><path d="M-670.9 1140h300v40h-300z" fill="none"/><use xlink:href="#Y" transform="translate(-629.343 1164.653)"/><use xlink:href="#Z" transform="translate(-571.503 1164.653)"/><use xlink:href="#aa" transform="translate(-524.651 1164.653)"/><use xlink:href="#ab" transform="translate(-501.256 1164.653)"/><path d="M-190 1140h300v40h-300z" fill="none"/><use xlink:href="#ac" transform="translate(-147.16 1164.653)"/><use xlink:href="#Z" transform="translate(-69.63 1164.653)"/><use xlink:href="#ad" transform="translate(-22.778 1164.653)"/><use xlink:href="#ae" transform="translate(20.432 1164.653)"/><path d="M170.9 1140h140v40h-140z" fill="none"/><use xlink:href="#af" transform="translate(190.979 1164.653)"/><use xlink:href="#ag" transform="translate(250.114 1164.653)"/><path d="M330 1140h140v40H330z" fill="none"/><use xlink:href="#af" transform="translate(350.093 1164.653)"/><use xlink:href="#ag" transform="translate(409.228 1164.653)"/><path d="M560 1140h300v40H560z" fill="none"/><use xlink:href="#ah" transform="translate(665.586 1164.653)"/><use xlink:href="#ag" transform="translate(713.735 1164.653)"/><path d="M-520.9 1181v36.5" stroke="#333" stroke-width="2" fill="none"/><path d="M-519.9 1181.03h-2V1180h2zm0 37.47h-2v-1.03h2z" fill="#333"/><path d="M-40 1181v36.5" stroke="#333" stroke-width="2" fill="none"/><path d="M-39 1181.03h-2V1180h2zm0 37.47h-2v-1.03h2z" fill="#333"/><path d="M240.9 1181v36.5" stroke="#333" stroke-width="2" fill="none"/><path d="M241.9 1181.03h-2V1180h2zm0 37.47h-2v-1.03h2z" fill="#333"/><path d="M400 1181v36.5" stroke="#333" stroke-width="2" fill="none"/><path d="M401 1181.03h-2V1180h2zm0 37.47h-2v-1.03h2z" fill="#333"/><path d="M710 1181v36.5" stroke="#333" stroke-width="2" fill="none"/><path d="M711 1181.03h-2V1180h2zm0 37.47h-2v-1.03h2z" fill="#333"/><path d="M940 1235c0-8.28 6.72-15 15-15h150c8.28 0 15 6.72 15 15v83.33c0 8.3-6.72 15-15 15H955c-8.28 0-15-6.7-15-15z" stroke="#333" stroke-width="3" fill="#fff"/><use xlink:href="#N" transform="translate(980.26 1249.889)"/><use xlink:href="#F" transform="translate(978.302 1287.222)"/><use xlink:href="#ai" transform="translate(991.142 1317.444)"/><use xlink:href="#H" transform="translate(1028.179 1317.444)"/><path d="M960 2062.5c0 11.5-8.95 20.83-20 20.83s-20-9.32-20-20.83c0-11.5 8.95-20.83 20-20.83s20 9.32 20 20.83z" stroke="#333" stroke-width="3" fill="#ffc374"/><path d="M962.5 2062.5h3.92m7.82 0h7.83m7.82 0h7.8m7.84 0h7.82m7.83 0h7.8m7.84 0h7.82m7.83 0h7.8m7.84 0h7.82m7.83 0h7.8m7.84 0h7.82m7.83 0h3.9" stroke="#333" stroke-width="2" fill="none"/><path d="M962.53 2063.5h-1.14l.1-.96-.06-1.04h1.1z" fill="#333"/><path d="M1118.97 2062.5h1.03" stroke="#333" stroke-width="2" fill="none"/><path d="M940 1140h180v40H940z" fill="none"/><use xlink:href="#aj" transform="translate(969.63 1164.653)"/><use xlink:href="#ag" transform="translate(1049.691 1164.653)"/><path d="M260.9 1700.42c0 11.5-8.97 20.83-20 20.83-11.06 0-20-9.33-20-20.83 0-11.5 8.94-20.84 20-20.84 11.03 0 20 9.33 20 20.84z" stroke="#333" stroke-width="3" fill="#0c7cba"/><path d="M263.4 1700.42h44.98" stroke="#333" stroke-width="2" fill="none"/><path d="M263.4 1701.42h-1.12l.1-.96-.06-1.04h1.1zm45.98-1.04.07 1.04h-1.1v-2h1.15z" fill="#333"/><path d="M182.5 1700.42h4.5m8.96 0h8.98m8.96 0h4.48" stroke="#333" stroke-width="2" fill="none"/><path d="M182.53 1701.42h-1.14l.1-.96-.06-1.04h1.1zm36.85-1.04.07 1.04h-1.1v-2h1.15z" fill="#333"/><path d="M240.9 1593.3v83.78" stroke="#333" stroke-width="2" fill="none"/><path d="M241.9 1593.32h-2v-1.03h2zm0 84.88-.97-.12-1.04.07v-1.1h2z" fill="#333"/><path d="M420 1819.17c0 11.5-8.95 20.83-20 20.83s-20-9.33-20-20.83c0-11.5 8.95-20.84 20-20.84s20 9.33 20 20.84z" stroke="#333" stroke-width="3" fill="#0c7cba"/><path d="M339.1 1674.75c0-3.3 2.7-6 6-6h163.16c3.3 0 6 2.7 6 6v51.33c0 3.32-2.7 6-6 6H345.1c-3.3 0-6-2.68-6-6z" fill="none"/><use xlink:href="#b" transform="translate(355.447 1691.528)"/><use xlink:href="#P" transform="translate(452.731 1691.528)"/><use xlink:href="#Q" transform="translate(374.676 1718.194)"/><path d="M353.4 1819.17h3m6.03 0h6.03m6.02 0h3.02" stroke="#333" stroke-width="2" fill="none"/><path d="M353.4 1820.17h-1.12l.1-.96-.06-1.03h1.1zm25.1-1.04.06 1.04h-1.1v-2h1.15z" fill="#333"/><path d="M422.5 1819.17h35" stroke="#333" stroke-width="2" fill="none"/><path d="M422.53 1820.17h-1.14l.1-.96-.06-1.03h1.1zm35.97-1.04.06 1.04h-1.1v-2h1.15z" fill="#333"/><path d="M400 1733.08v62.75" stroke="#333" stroke-width="2" fill="none"/><path d="M401 1733.1h-2v-1.02h2zm0 63.84-.96-.1-1.04.06v-1.1h2z" fill="#333"/><path d="M160 1739v-15.25" stroke="#333" stroke-width="2" fill="none"/><path d="M161 1740h-2v-1.03h2zm-1.04-17.24 1.04-.07v1.08h-2v-1.14z" fill="#333"/><path d="M750 2126c0-3.3 2.7-6 6-6h368c3.3 0 6 2.7 6 6v88c0 3.3-2.7 6-6 6H756c-3.3 0-6-2.7-6-6z" fill="none"/><use xlink:href="#a" transform="translate(755 2148.403)"/><use xlink:href="#b" transform="translate(777.222 2148.403)"/><use xlink:href="#c" transform="translate(874.506 2148.403)"/><use xlink:href="#d" transform="translate(978.148 2148.403)"/><use xlink:href="#e" transform="translate(755 2175.07)"/><use xlink:href="#f" transform="translate(777.222 2175.07)"/><use xlink:href="#g" transform="translate(845 2175.07)"/><use xlink:href="#h" transform="translate(925.247 2175.07)"/><use xlink:href="#i" transform="translate(942.47 2175.07)"/><use xlink:href="#j" transform="translate(988.95 2175.07)"/><use xlink:href="#k" transform="translate(1027.16 2175.07)"/><use xlink:href="#l" transform="translate(755 2201.736)"/><use xlink:href="#m" transform="translate(777.222 2201.736)"/><use xlink:href="#n" transform="translate(857.47 2201.736)"/><use xlink:href="#o" transform="translate(879.63 2201.736)"/><path d="M940 2085.84V2119" stroke="#333" stroke-width="2" fill="none"/><path d="m939.96 2084.84 1.04-.07v1.1h-2v-1.15zM941 2120h-2v-1.03h2z" fill="#333"/><path d="M80.9 1870.17c0-3.32 2.67-6 6-6h368c3.3 0 6 2.68 6 6v88c0 3.3-2.7 6-6 6h-368c-3.33 0-6-2.7-6-6z" fill="none"/><use xlink:href="#a" transform="translate(85.886 1892.57)"/><use xlink:href="#b" transform="translate(108.108 1892.57)"/><use xlink:href="#c" transform="translate(205.392 1892.57)"/><use xlink:href="#d" transform="translate(309.034 1892.57)"/><use xlink:href="#e" transform="translate(85.886 1919.236)"/><use xlink:href="#f" transform="translate(108.108 1919.236)"/><use xlink:href="#g" transform="translate(175.886 1919.236)"/><use xlink:href="#h" transform="translate(256.133 1919.236)"/><use xlink:href="#i" transform="translate(273.355 1919.236)"/><use xlink:href="#j" transform="translate(319.837 1919.236)"/><use xlink:href="#k" transform="translate(358.047 1919.236)"/><use xlink:href="#l" transform="translate(85.886 1945.903)"/><use xlink:href="#m" transform="translate(108.108 1945.903)"/><use xlink:href="#n" transform="translate(188.355 1945.903)"/><use xlink:href="#o" transform="translate(210.516 1945.903)"/><path d="M330.9 1842.5v20.67" stroke="#333" stroke-width="2" fill="none"/><path d="m330.85 1841.5 1.04-.06v1.1h-2v-1.15zm1.05 22.67h-2v-1.03h2z" fill="#333"/><defs><path fill="#333" d="m9 0 6-27h63l36-188-63 39 6-31 66-41h29L110-27h60l-5 27H9" id="ak"/><path fill="#333" d="m14 0 8-38h34L48 0H14" id="al"/><path fill="#333" d="M247 0h-39l-15-214-24 57L95 0H56L31-248h35L82-30l101-218h33l16 218 101-218h35" id="am"/><path fill="#333" d="M30-147c31-64 166-65 159 27C183-49 158 1 86 4 9 8 1-88 30-147zM88-20c53 0 68-48 68-100 0-31-11-51-44-50-52 1-68 46-68 97 0 32 13 53 44 53" id="an"/><path fill="#333" d="M66-151c12-25 30-51 66-40l-6 26C45-176 58-65 38 0H6l36-190h30" id="ao"/><path fill="#333" d="M127 0 80-88 50-66 37 0H6l51-261h31L57-100l99-90h39l-93 82L161 0h-34" id="ap"/><path fill="#333" d="M76-167 44 0H12l33-167H18l4-23h27c3-47 25-81 82-69l-4 24c-35-8-44 15-46 45h37l-5 23H76" id="aq"/><path fill="#333" d="m6 0 50-261h32L37 0H6" id="ar"/><path fill="#333" d="M188 0h-37l-8-164L71 0H34L18-190h31l8 164 75-164h34l8 164 74-164h31" id="as"/><path fill="#333" d="m11 0 48-248h184l-5 28H87l-15 79h140l-5 27H67L50-27h158l-5 27H11" id="at"/><path fill="#333" d="M124 0 87-78 21 0h-35l86-98-46-92h33l34 74 61-74h37l-83 92 50 98h-34" id="au"/><path fill="#333" d="M111-194c62-3 86 47 72 106H45c-7 38 6 69 45 68 27-1 43-14 53-32l24 11C152-15 129 4 87 4 38 3 12-23 12-71c0-70 32-119 99-123zm44 81c14-66-71-72-95-28-4 8-8 17-11 28h106" id="av"/><path fill="#333" d="M44-68c0 29 11 47 38 47 30 0 42-19 51-41l28 9C148-21 126 4 82 4 31 4 10-29 12-85c3-77 74-140 146-93 12 8 15 23 18 40l-31 5c-1-22-13-36-36-36-52 0-65 49-65 101" id="aw"/><path fill="#333" d="M67 3c-93-2-31-127-26-193h32L48-50c-3 39 53 32 70 12 30-34 30-101 43-152h32L157 0h-30c1-10 6-24 4-33-14 20-29 37-64 36" id="ax"/><path fill="#333" d="M51-54c-9 22 5 41 31 30L79-1C43 14 10-4 19-52l22-115H19l5-23h22l19-43h21l-9 43h35l-4 23H73" id="ay"/><path fill="#333" d="m50-231 6-30h32l-6 30H50zM6 0l37-190h31L37 0H6" id="az"/><path fill="#333" d="M67-158c22-48 132-52 116 29L158 0h-32l25-140c3-38-53-32-70-12C52-117 51-52 38 0H6l36-190h30" id="aA"/><path fill="#333" d="M194-120c59 52 2 134-86 124-53-6-90-18-98-63l31-7c8 30 29 43 70 43 46 0 84-17 71-62-32-43-135-20-137-98-3-89 178-90 191-16l-30 9c-8-48-127-53-127 5 0 53 81 35 115 65" id="aB"/><path fill="#333" d="M165-48c-4 18 1 34 23 27l-3 20c-29 8-62 0-52-35h-2C116-14 99 4 63 4 30 4 8-16 8-49c0-68 71-67 138-67 10-26 0-56-31-54-26 1-42 9-47 31l-32-5c8-67 160-71 144 15-5 28-9 54-15 81zM42-50c3 52 80 24 89-6 7-12 7-24 11-38-47 1-103-4-100 44" id="aC"/><path fill="#333" d="M133-28C103 26-5 8 13-77c13-62 24-115 90-117 29-1 46 15 56 35l19-102h32L160 0h-30zM45-64c-2 27 10 43 35 43 54-1 69-50 69-103 0-29-15-46-42-46-53-1-58 58-62 106" id="aD"/><path fill="#333" d="M123-251c66 0 92 69 53 113C138-94 73-75 39-27h128l-5 27H-2c17-92 123-93 159-163 14-28-1-64-36-62-29 2-46 17-54 41l-30-6c13-36 37-61 86-61" id="aE"/><path fill="#333" d="M103-194c29 0 47 14 56 36 2-11 5-23 8-32h30L160-5C157 61 82 97 21 62 9 55 4 45 1 30l28-7c7 42 83 31 92-3 4-16 9-38 13-55-13 20-29 36-62 36-40 0-60-25-60-64 0-71 23-131 91-131zm4 24c-53 0-58 54-61 104-2 27 10 44 36 44 49 0 65-50 67-102 1-29-15-46-42-46" id="aF"/><path fill="#333" d="M89 0H52L20-190h33L74-25l89-165h34" id="aG"/><path fill="#333" d="M55-144c13 50 104 24 104 88C159 21 15 23 1-39l26-10c6 40 102 42 102-4-13-50-104-23-104-87 0-71 143-71 148-8l-29 4c-5-35-85-37-89 0" id="aH"/><path fill="#333" d="M58-38C53-5 46 26 28 46H7C19 32 27 18 32 0H17l7-38h34" id="aI"/><path fill="#333" d="M198-190 69 30C53 58 25 83-20 72c4-11-1-27 19-22 33-1 43-29 59-52L20-190h32L79-34l84-156h35" id="aJ"/><path fill="#333" d="M148-71c0-36-31-44-71-41l5-28c46 3 81-6 81-50 0-23-15-35-39-35-30 0-49 17-56 41l-32-3c12-39 42-63 90-64 43 0 69 19 71 60 1 43-30 58-65 66 27 5 49 22 49 53 0 85-133 99-164 35-4-7-7-15-9-22l29-9c8 25 25 45 58 45 34 1 53-17 53-48" id="aK"/><path fill="#333" d="M219-77C219 17 104-2 11 0l48-248c73 2 169-15 169 57 0 38-24 54-60 60 29 5 51 21 51 54zm-26-111c0-44-62-31-105-33l-16 79c55 0 121 9 121-46zm-7 110c-1-49-69-36-119-38L50-27c61-1 137 12 136-51" id="aL"/><path fill="#333" d="M67-158c15-20 31-36 64-36 94 0 33 127 27 194h-32l25-140c3-38-53-32-70-12C52-117 51-51 37 0H6l51-261h31" id="aM"/><path fill="#333" d="M125-24c46 0 70-25 89-51l25 16C214-24 183 4 123 4 8 4-5-146 60-208c32-50 158-61 191-5 5 7 9 14 11 22l-32 10c-9-28-33-43-69-43-74 0-108 51-108 125 0 46 24 75 72 75" id="aN"/><path fill="#333" d="M249-183c0 48-29 72-75 77L221 0h-36l-43-103H65L45 0H11l48-248c83 2 190-17 190 65zm-34 3c0-55-74-39-127-41l-18 92c63-1 145 13 145-51" id="aO"/><path fill="#333" d="M67-162c32-53 139-36 121 50C175-51 163 2 97 4 68 4 52-11 42-31 38 6 28 39 22 75H-9l50-265h29c-1 10 0 20-3 28zm89 36c0-26-10-43-35-43-54 0-67 50-69 103-1 29 14 45 42 46 53 0 62-58 62-106" id="aP"/><path fill="#333" d="M151-220 108 0H75l42-220H32l6-28h203l-5 28h-85" id="aQ"/><path fill="#333" d="M248-111c6-24 9-61-24-58-72 9-57 108-77 169h-31l26-142c3-37-50-30-64-10C52-115 50-51 37 0H6l36-190h30c-1 10-6 24-4 32 13-43 101-52 105 5 13-22 29-41 61-41 90 0 28 129 23 194h-31" id="aR"/><path fill="#333" d="M266 0h-40l-56-210L115 0H75L2-248h35L96-30l15-64 43-154h32l59 218 59-218h35" id="aS"/><path fill="#333" d="M100-194c62-1 85 37 85 99 1 63-27 99-86 99S16-35 15-95c0-66 28-99 85-99zM99-20c44 1 53-31 53-75 0-43-8-75-51-75s-53 32-53 75 10 74 51 75" id="aT"/><path fill="#333" d="M114-163C36-179 61-72 57 0H25l-1-190h30c1 12-1 29 2 39 6-27 23-49 58-41v29" id="aU"/><path fill="#333" d="M143 0 79-87 56-68V0H24v-261h32v163l83-92h37l-77 82L181 0h-38" id="aV"/><path fill="#333" d="M101-234c-31-9-42 10-38 44h38v23H63V0H32v-167H5v-23h27c-7-52 17-82 69-68v24" id="aW"/><path fill="#333" d="M24 0v-261h32V0H24" id="aX"/><path fill="#333" d="M206 0h-36l-40-164L89 0H53L-1-190h32L70-26l43-164h34l41 164 42-164h31" id="aY"/><path fill="#333" d="M30 0v-248h187v28H63v79h144v27H63v87h162V0H30" id="aZ"/><path fill="#333" d="M141 0 90-78 38 0H4l68-98-65-92h35l48 74 47-74h35l-64 92 68 98h-35" id="ba"/><path fill="#333" d="M100-194c63 0 86 42 84 106H49c0 40 14 67 53 68 26 1 43-12 49-29l28 8c-11 28-37 45-77 45C44 4 14-33 15-96c1-61 26-98 85-98zm52 81c6-60-76-77-97-28-3 7-6 17-6 28h103" id="bb"/><path fill="#333" d="M96-169c-40 0-48 33-48 73s9 75 48 75c24 0 41-14 43-38l32 2c-6 37-31 61-74 61-59 0-76-41-82-99-10-93 101-131 147-64 4 7 5 14 7 22l-32 3c-4-21-16-35-41-35" id="bc"/><path fill="#333" d="M84 4C-5 8 30-112 23-190h32v120c0 31 7 50 39 49 72-2 45-101 50-169h31l1 190h-30c-1-10 1-25-2-33-11 22-28 36-60 37" id="bd"/><path fill="#333" d="M59-47c-2 24 18 29 38 22v24C64 9 27 4 27-40v-127H5v-23h24l9-43h21v43h35v23H59v120" id="be"/><path fill="#333" d="M24-231v-30h32v30H24zM24 0v-190h32V0H24" id="bf"/><path fill="#333" d="M117-194c89-4 53 116 60 194h-32v-121c0-31-8-49-39-48C34-167 62-67 57 0H25l-1-190h30c1 10-1 24 2 32 11-22 29-35 61-36" id="bg"/><path fill="#333" d="M27 0v-27h64v-190l-56 39v-29l58-41h29v221h61V0H27" id="bh"/><path fill="#333" d="M135-143c-3-34-86-38-87 0 15 53 115 12 119 90S17 21 10-45l28-5c4 36 97 45 98 0-10-56-113-15-118-90-4-57 82-63 122-42 12 7 21 19 24 35" id="bi"/><path fill="#333" d="M233-177c-1 41-23 64-60 70L243 0h-38l-65-103H63V0H30v-248c88 3 205-21 203 71zM63-129c60-2 137 13 137-47 0-61-80-42-137-45v92" id="bj"/><path fill="#333" d="M178-136c88 48 22 151-73 140C49-3 12-15 4-64l51-9c1 50 111 53 115 3-16-63-132-20-133-112 0-93 190-91 199-10l-50 12c-4-41-93-50-97-4 7 38 59 32 89 48" id="bk"/><path fill="#333" d="M128 0 95-87 70-74 55 0H6l51-261h49L77-111l82-79h56l-83 74L180 0h-52" id="bl"/><path fill="#333" d="m50-224 7-37h49l-7 37H50zM6 0l37-190h49L55 0H6" id="bm"/><path fill="#333" d="M156-122c2-23-7-37-28-37-47 0-58 44-58 89 0 24 12 40 36 40 43 0 47-49 50-92zM-8 75l50-265h48c0 10-3 24-3 30 22-50 127-45 121 29-6 73-21 135-92 135-29 0-46-14-55-35L41 75H-8" id="bn"/><path fill="#333" d="M114-194c63-2 87 48 72 110H63c-3 28 1 55 31 54 21-1 32-13 37-29l44 13C160-14 137 4 91 4 41 4 11-22 11-73c0-71 33-119 103-121zm30 77c14-47-50-61-67-22-3 6-6 13-8 22h75" id="bo"/><path fill="#333" d="M132-28C118-9 101 4 69 4 30 4 10-23 10-62c0-70 24-129 92-132 31-1 47 14 56 35l19-102h49L179 0h-49zM62-69c0 22 7 39 29 39 45-2 54-45 57-90 2-27-10-40-33-40-44 0-53 48-53 91" id="bp"/><path fill="#333" d="M101-251c82-7 93 87 43 132L82-64C71-53 59-42 53-27h129V0H18c2-99 128-94 128-182 0-28-16-43-45-43s-46 15-49 41l-32-3c6-41 34-60 81-64" id="bq"/><path fill="#333" d="M85-194c31 0 48 13 60 33l-1-100h32l1 261h-30c-2-10 0-23-3-31C134-8 116 4 85 4 32 4 16-35 15-94c0-66 23-100 70-100zm9 24c-40 0-46 34-46 75 0 40 6 74 45 74 42 0 51-32 51-76 0-42-9-74-50-73" id="br"/><path fill="#333" d="M126-127c33 6 58 20 58 59 0 88-139 92-164 29-3-8-5-16-6-25l32-3c6 27 21 44 54 44 32 0 52-15 52-46 0-38-36-46-79-43v-28c39 1 72-4 72-42 0-27-17-43-46-43-28 0-47 15-49 41l-32-3c6-42 35-63 81-64 48-1 79 21 79 65 0 36-21 52-52 59" id="bs"/><path fill="#333" d="M155-56V0h-30v-56H8v-25l114-167h33v167h35v25h-35zm-30-156c-27 46-58 90-88 131h88v-131" id="bt"/><path fill="#333" d="M106-169C34-169 62-67 57 0H25v-261h32l-1 103c12-21 28-36 61-36 89 0 53 116 60 194h-32v-121c2-32-8-49-39-48" id="bu"/><path fill="#333" d="M54-142c48-35 137-8 131 61C196 18 31 33 14-55l32-4c7 23 22 37 52 37 35-1 51-22 54-58 4-55-73-65-99-34H22l8-134h141v27H59" id="bv"/><path fill="#333" d="m87-220-18 92h140l-5 28H64L45 0H11l48-248h178l-5 28H87" id="bw"/><path fill="#333" d="M248-139C247-14 144 9 11 0l48-248c105-6 190 8 189 109zm-34 0c1-70-52-87-126-82L50-27c98 7 163-21 164-112" id="bx"/><path fill="#333" d="m14 0 48-248h34L48 0H14" id="by"/><path fill="#333" d="M173 0 80-213 41 0H11l48-248h37l94 214 40-214h30L212 0h-39" id="bz"/><path fill="#333" d="m11 0 48-248h34L50-27h125l-5 27H11" id="bA"/><path fill="#333" d="M110-160c48 1 74 30 74 79 0 53-28 85-80 85-65 0-83-55-86-122-5-90 50-162 133-122 14 7 22 21 27 39l-31 6c-5-40-67-38-82-6-9 19-15 44-15 74 11-20 30-34 60-33zm-7 138c34 0 49-23 49-58s-16-56-50-56c-29 0-50 16-49 49 1 36 15 65 50 65" id="bB"/><g id="a"><use transform="rotate(.413) scale(.06173)" xlink:href="#ak"/><use transform="matrix(.06173 0 0 .06173 12.346 0)" xlink:href="#al"/></g><g id="b"><use transform="rotate(.413) scale(.06173)" xlink:href="#am"/><use transform="matrix(.06173 0 0 .06173 20.926 0)" xlink:href="#an"/><use transform="matrix(.06173 0 0 .06173 33.272 0)" xlink:href="#ao"/><use transform="matrix(.06173 0 0 .06173 40.617 0)" xlink:href="#ap"/><use transform="matrix(.06173 0 0 .06173 51.728 0)" xlink:href="#aq"/><use transform="matrix(.06173 0 0 .06173 57.901 0)" xlink:href="#ar"/><use transform="matrix(.06173 0 0 .06173 62.778 0)" xlink:href="#an"/><use transform="matrix(.06173 0 0 .06173 75.123 0)" xlink:href="#as"/></g><g id="c"><use transform="rotate(.413) scale(.06173)" xlink:href="#at"/><use transform="matrix(.06173 0 0 .06173 14.815 0)" xlink:href="#au"/><use transform="matrix(.06173 0 0 .06173 25.926 0)" xlink:href="#av"/><use transform="matrix(.06173 0 0 .06173 38.272 0)" xlink:href="#aw"/><use transform="matrix(.06173 0 0 .06173 49.383 0)" xlink:href="#ax"/><use transform="matrix(.06173 0 0 .06173 61.728 0)" xlink:href="#ay"/><use transform="matrix(.06173 0 0 .06173 67.901 0)" xlink:href="#az"/><use transform="matrix(.06173 0 0 .06173 72.778 0)" xlink:href="#an"/><use transform="matrix(.06173 0 0 .06173 85.123 0)" xlink:href="#aA"/></g><g id="d"><use transform="rotate(.413) scale(.06173)" xlink:href="#aB"/><use transform="matrix(.06173 0 0 .06173 14.815 0)" xlink:href="#ay"/><use transform="matrix(.06173 0 0 .06173 20.988 0)" xlink:href="#aC"/><use transform="matrix(.06173 0 0 .06173 33.333 0)" xlink:href="#ao"/><use transform="matrix(.06173 0 0 .06173 40.679 0)" xlink:href="#ay"/><use transform="matrix(.06173 0 0 .06173 46.852 0)" xlink:href="#av"/><use transform="matrix(.06173 0 0 .06173 59.198 0)" xlink:href="#aD"/></g><g id="e"><use transform="rotate(.413) scale(.06173)" xlink:href="#aE"/><use transform="matrix(.06173 0 0 .06173 12.346 0)" xlink:href="#al"/></g><g id="f"><use transform="rotate(.413) scale(.06173)" xlink:href="#aB"/><use transform="matrix(.06173 0 0 .06173 14.815 0)" xlink:href="#az"/><use transform="matrix(.06173 0 0 .06173 19.691 0)" xlink:href="#aF"/><use transform="matrix(.06173 0 0 .06173 32.037 0)" xlink:href="#aA"/><use transform="matrix(.06173 0 0 .06173 44.383 0)" xlink:href="#aC"/><use transform="matrix(.06173 0 0 .06173 56.728 0)" xlink:href="#ar"/></g><g id="g"><use transform="rotate(.413) scale(.06173)" xlink:href="#at"/><use transform="matrix(.06173 0 0 .06173 14.815 0)" xlink:href="#aG"/><use transform="matrix(.06173 0 0 .06173 25.926 0)" xlink:href="#av"/><use transform="matrix(.06173 0 0 .06173 38.272 0)" xlink:href="#aA"/><use transform="matrix(.06173 0 0 .06173 50.617 0)" xlink:href="#ay"/><use transform="matrix(.06173 0 0 .06173 56.79 0)" xlink:href="#aH"/><use transform="matrix(.06173 0 0 .06173 67.901 0)" xlink:href="#aI"/></g><g id="h"><use transform="rotate(.413) scale(.06173)" xlink:href="#az"/><use transform="matrix(.06173 0 0 .06173 4.877 0)" xlink:href="#aq"/></g><g id="i"><use transform="rotate(.413) scale(.06173)" xlink:href="#aC"/><use transform="matrix(.06173 0 0 .06173 12.346 0)" xlink:href="#aA"/><use transform="matrix(.06173 0 0 .06173 24.691 0)" xlink:href="#aJ"/><use transform="matrix(.06173 0 0 .06173 34.136 0)" xlink:href="#aI"/></g><g id="j"><use transform="rotate(.413) scale(.06173)" xlink:href="#aC"/><use transform="matrix(.06173 0 0 .06173 12.346 0)" xlink:href="#ao"/><use transform="matrix(.06173 0 0 .06173 19.691 0)" xlink:href="#av"/></g><g id="k"><use transform="rotate(.413) scale(.06173)" xlink:href="#ao"/><use transform="matrix(.06173 0 0 .06173 7.346 0)" xlink:href="#av"/><use transform="matrix(.06173 0 0 .06173 19.691 0)" xlink:href="#aw"/><use transform="matrix(.06173 0 0 .06173 30.802 0)" xlink:href="#an"/><use transform="matrix(.06173 0 0 .06173 43.148 0)" xlink:href="#ao"/><use transform="matrix(.06173 0 0 .06173 50.494 0)" xlink:href="#aD"/><use transform="matrix(.06173 0 0 .06173 62.84 0)" xlink:href="#av"/><use transform="matrix(.06173 0 0 .06173 75.185 0)" xlink:href="#aD"/></g><g id="l"><use transform="rotate(.413) scale(.06173)" xlink:href="#aK"/><use transform="matrix(.06173 0 0 .06173 12.346 0)" xlink:href="#al"/></g><g id="m"><use transform="rotate(.413) scale(.06173)" xlink:href="#aL"/><use transform="matrix(.06173 0 0 .06173 14.815 0)" xlink:href="#aC"/><use transform="matrix(.06173 0 0 .06173 27.16 0)" xlink:href="#aw"/><use transform="matrix(.06173 0 0 .06173 38.272 0)" xlink:href="#ap"/><use transform="matrix(.06173 0 0 .06173 49.383 0)" xlink:href="#an"/><use transform="matrix(.06173 0 0 .06173 61.728 0)" xlink:href="#aq"/><use transform="matrix(.06173 0 0 .06173 67.901 0)" xlink:href="#aq"/></g><g id="n"><use transform="rotate(.413) scale(.06173)" xlink:href="#az"/><use transform="matrix(.06173 0 0 .06173 4.877 0)" xlink:href="#aH"/></g><g id="o"><use transform="rotate(.413) scale(.06173)" xlink:href="#aH"/><use transform="matrix(.06173 0 0 .06173 11.111 0)" xlink:href="#av"/><use transform="matrix(.06173 0 0 .06173 23.457 0)" xlink:href="#ay"/></g><g id="p"><use transform="rotate(.413) scale(.06173)" xlink:href="#aB"/><use transform="matrix(.06173 0 0 .06173 14.815 0)" xlink:href="#ay"/><use transform="matrix(.06173 0 0 .06173 20.988 0)" xlink:href="#aC"/><use transform="matrix(.06173 0 0 .06173 33.333 0)" xlink:href="#ao"/><use transform="matrix(.06173 0 0 .06173 40.679 0)" xlink:href="#ay"/></g><g id="q"><use transform="rotate(.413) scale(.06173)" xlink:href="#am"/><use transform="matrix(.06173 0 0 .06173 20.926 0)" xlink:href="#an"/><use transform="matrix(.06173 0 0 .06173 33.272 0)" xlink:href="#ao"/><use transform="matrix(.06173 0 0 .06173 40.617 0)" xlink:href="#ap"/><use transform="matrix(.06173 0 0 .06173 51.728 0)" xlink:href="#aq"/><use transform="matrix(.06173 0 0 .06173 57.901 0)" xlink:href="#ar"/><use transform="matrix(.06173 0 0 .06173 62.778 0)" xlink:href="#an"/><use transform="matrix(.06173 0 0 .06173 75.123 0)" xlink:href="#as"/></g><g id="r"><use transform="rotate(.413) scale(.06173)" xlink:href="#at"/><use transform="matrix(.06173 0 0 .06173 14.815 0)" xlink:href="#au"/><use transform="matrix(.06173 0 0 .06173 25.926 0)" xlink:href="#av"/><use transform="matrix(.06173 0 0 .06173 38.272 0)" xlink:href="#aw"/><use transform="matrix(.06173 0 0 .06173 49.383 0)" xlink:href="#ax"/><use transform="matrix(.06173 0 0 .06173 61.728 0)" xlink:href="#ay"/><use transform="matrix(.06173 0 0 .06173 67.901 0)" xlink:href="#az"/><use transform="matrix(.06173 0 0 .06173 72.778 0)" xlink:href="#an"/><use transform="matrix(.06173 0 0 .06173 85.123 0)" xlink:href="#aA"/></g><g id="s"><use transform="rotate(.413) scale(.06173)" xlink:href="#as"/><use transform="matrix(.06173 0 0 .06173 15.988 0)" xlink:href="#az"/><use transform="matrix(.06173 0 0 .06173 20.864 0)" xlink:href="#ay"/><use transform="matrix(.06173 0 0 .06173 27.037 0)" xlink:href="#aM"/></g><g id="u"><use transform="rotate(.413) scale(.06173)" xlink:href="#aN"/><use transform="matrix(.06173 0 0 .06173 15.988 0)" xlink:href="#ao"/><use transform="matrix(.06173 0 0 .06173 23.333 0)" xlink:href="#an"/><use transform="matrix(.06173 0 0 .06173 35.679 0)" xlink:href="#aA"/></g><g id="v"><use transform="rotate(.413) scale(.06173)" xlink:href="#aB"/><use transform="matrix(.06173 0 0 .06173 14.815 0)" xlink:href="#aw"/><use transform="matrix(.06173 0 0 .06173 25.926 0)" xlink:href="#aM"/><use transform="matrix(.06173 0 0 .06173 38.272 0)" xlink:href="#av"/><use transform="matrix(.06173 0 0 .06173 50.617 0)" xlink:href="#aD"/><use transform="matrix(.06173 0 0 .06173 62.963 0)" xlink:href="#ax"/><use transform="matrix(.06173 0 0 .06173 75.309 0)" xlink:href="#ar"/><use transform="matrix(.06173 0 0 .06173 80.185 0)" xlink:href="#av"/></g><g id="w"><use transform="rotate(.413) scale(.06173)" xlink:href="#aO"/><use transform="matrix(.06173 0 0 .06173 15.988 0)" xlink:href="#av"/><use transform="matrix(.06173 0 0 .06173 28.333 0)" xlink:href="#aP"/><use transform="matrix(.06173 0 0 .06173 40.679 0)" xlink:href="#av"/><use transform="matrix(.06173 0 0 .06173 53.025 0)" xlink:href="#aC"/><use transform="matrix(.06173 0 0 .06173 65.37 0)" xlink:href="#ay"/><use transform="matrix(.06173 0 0 .06173 71.543 0)" xlink:href="#aH"/></g><g id="x"><use transform="rotate(.413) scale(.06173)" xlink:href="#az"/><use transform="matrix(.06173 0 0 .06173 4.877 0)" xlink:href="#aA"/><use transform="matrix(.06173 0 0 .06173 17.222 0)" xlink:href="#aD"/><use transform="matrix(.06173 0 0 .06173 29.568 0)" xlink:href="#av"/><use transform="matrix(.06173 0 0 .06173 41.914 0)" xlink:href="#aq"/><use transform="matrix(.06173 0 0 .06173 48.086 0)" xlink:href="#az"/><use transform="matrix(.06173 0 0 .06173 52.963 0)" xlink:href="#aA"/><use transform="matrix(.06173 0 0 .06173 65.309 0)" xlink:href="#az"/><use transform="matrix(.06173 0 0 .06173 70.185 0)" xlink:href="#ay"/><use transform="matrix(.06173 0 0 .06173 76.358 0)" xlink:href="#av"/><use transform="matrix(.06173 0 0 .06173 88.704 0)" xlink:href="#ar"/><use transform="matrix(.06173 0 0 .06173 93.58 0)" xlink:href="#aJ"/></g><g id="y"><use transform="rotate(.413) scale(.06173)" xlink:href="#ax"/><use transform="matrix(.06173 0 0 .06173 12.346 0)" xlink:href="#aA"/><use transform="matrix(.06173 0 0 .06173 24.691 0)" xlink:href="#ay"/><use transform="matrix(.06173 0 0 .06173 30.864 0)" xlink:href="#az"/><use transform="matrix(.06173 0 0 .06173 35.74 0)" xlink:href="#ar"/></g><g id="z"><use transform="rotate(.413) scale(.06173)" xlink:href="#aQ"/><use transform="matrix(.06173 0 0 .06173 11.481 0)" xlink:href="#av"/><use transform="matrix(.06173 0 0 .06173 23.827 0)" xlink:href="#ao"/><use transform="matrix(.06173 0 0 .06173 31.173 0)" xlink:href="#aR"/><use transform="matrix(.06173 0 0 .06173 49.63 0)" xlink:href="#az"/><use transform="matrix(.06173 0 0 .06173 54.506 0)" xlink:href="#aA"/><use transform="matrix(.06173 0 0 .06173 66.852 0)" xlink:href="#aC"/><use transform="matrix(.06173 0 0 .06173 79.198 0)" xlink:href="#ay"/><use transform="matrix(.06173 0 0 .06173 85.37 0)" xlink:href="#av"/><use transform="matrix(.06173 0 0 .06173 97.716 0)" xlink:href="#aD"/></g><g id="A"><use transform="rotate(.413) scale(.06173)" xlink:href="#an"/><use transform="matrix(.06173 0 0 .06173 12.346 0)" xlink:href="#ao"/></g><g id="B"><use transform="rotate(.413) scale(.06173)" xlink:href="#aQ"/><use transform="matrix(.06173 0 0 .06173 13.333 0)" xlink:href="#az"/><use transform="matrix(.06173 0 0 .06173 18.21 0)" xlink:href="#aR"/><use transform="matrix(.06173 0 0 .06173 36.667 0)" xlink:href="#av"/><use transform="matrix(.06173 0 0 .06173 49.012 0)" xlink:href="#an"/><use transform="matrix(.06173 0 0 .06173 61.358 0)" xlink:href="#ax"/><use transform="matrix(.06173 0 0 .06173 73.704 0)" xlink:href="#ay"/></g><g id="C"><use transform="rotate(.413) scale(.06173)" xlink:href="#az"/><use transform="matrix(.06173 0 0 .06173 4.877 0)" xlink:href="#aH"/></g><g id="D"><use transform="rotate(.413) scale(.06173)" xlink:href="#ao"/><use transform="matrix(.06173 0 0 .06173 7.346 0)" xlink:href="#av"/><use transform="matrix(.06173 0 0 .06173 19.691 0)" xlink:href="#aC"/><use transform="matrix(.06173 0 0 .06173 32.037 0)" xlink:href="#aw"/><use transform="matrix(.06173 0 0 .06173 43.148 0)" xlink:href="#aM"/><use transform="matrix(.06173 0 0 .06173 55.494 0)" xlink:href="#av"/><use transform="matrix(.06173 0 0 .06173 67.84 0)" xlink:href="#aD"/></g><g id="E"><use transform="rotate(.137) scale(.08642)" xlink:href="#aS"/><use transform="matrix(.06173 0 0 .06173 29.296 0)" xlink:href="#aT"/><use transform="matrix(.06173 0 0 .06173 41.642 0)" xlink:href="#aU"/><use transform="matrix(.06173 0 0 .06173 48.988 0)" xlink:href="#aV"/><use transform="matrix(.06173 0 0 .06173 60.099 0)" xlink:href="#aW"/><use transform="matrix(.06173 0 0 .06173 66.272 0)" xlink:href="#aX"/><use transform="matrix(.06173 0 0 .06173 71.148 0)" xlink:href="#aT"/><use transform="matrix(.06173 0 0 .06173 83.494 0)" xlink:href="#aY"/></g><g id="F"><use transform="rotate(.137) scale(.08642)" xlink:href="#aZ"/><use transform="matrix(.06173 0 0 .06173 20.74 0)" xlink:href="#ba"/><use transform="matrix(.06173 0 0 .06173 31.852 0)" xlink:href="#bb"/><use transform="matrix(.06173 0 0 .06173 44.198 0)" xlink:href="#bc"/><use transform="matrix(.06173 0 0 .06173 55.309 0)" xlink:href="#bd"/><use transform="matrix(.06173 0 0 .06173 67.654 0)" xlink:href="#be"/><use transform="matrix(.06173 0 0 .06173 73.827 0)" xlink:href="#bf"/><use transform="matrix(.06173 0 0 .06173 78.704 0)" xlink:href="#aT"/><use transform="matrix(.06173 0 0 .06173 91.05 0)" xlink:href="#bg"/></g><g id="G"><use transform="rotate(.413) scale(.06173)" xlink:href="#bh"/><use transform="matrix(.06173 0 0 .06173 12.346 0)" xlink:href="#bi"/><use transform="matrix(.06173 0 0 .06173 23.457 0)" xlink:href="#be"/></g><g id="H"><use transform="rotate(.413) scale(.06173)" xlink:href="#bj"/><use transform="matrix(.06173 0 0 .06173 15.988 0)" xlink:href="#bd"/><use transform="matrix(.06173 0 0 .06173 28.333 0)" xlink:href="#bg"/></g><g id="I"><use transform="rotate(.413) scale(.06173)" xlink:href="#aN"/><use transform="matrix(.06173 0 0 .06173 15.988 0)" xlink:href="#ao"/><use transform="matrix(.06173 0 0 .06173 23.333 0)" xlink:href="#an"/><use transform="matrix(.06173 0 0 .06173 35.679 0)" xlink:href="#aA"/></g><g id="J"><use transform="rotate(.413) scale(.06173)" xlink:href="#aB"/><use transform="matrix(.06173 0 0 .06173 14.815 0)" xlink:href="#aw"/><use transform="matrix(.06173 0 0 .06173 25.926 0)" xlink:href="#aM"/><use transform="matrix(.06173 0 0 .06173 38.272 0)" xlink:href="#av"/><use transform="matrix(.06173 0 0 .06173 50.617 0)" xlink:href="#aD"/><use transform="matrix(.06173 0 0 .06173 62.963 0)" xlink:href="#ax"/><use transform="matrix(.06173 0 0 .06173 75.309 0)" xlink:href="#ar"/><use transform="matrix(.06173 0 0 .06173 80.185 0)" xlink:href="#av"/></g><g id="K"><use transform="rotate(.413) scale(.06173)" xlink:href="#aB"/><use transform="matrix(.06173 0 0 .06173 14.815 0)" xlink:href="#aw"/><use transform="matrix(.06173 0 0 .06173 25.926 0)" xlink:href="#aM"/><use transform="matrix(.06173 0 0 .06173 38.272 0)" xlink:href="#av"/><use transform="matrix(.06173 0 0 .06173 50.617 0)" xlink:href="#aD"/><use transform="matrix(.06173 0 0 .06173 62.963 0)" xlink:href="#ax"/><use transform="matrix(.06173 0 0 .06173 75.309 0)" xlink:href="#ar"/><use transform="matrix(.06173 0 0 .06173 80.185 0)" xlink:href="#av"/></g><g id="L"><use transform="rotate(.413) scale(.06173)" xlink:href="#bk"/><use transform="matrix(.06173 0 0 .06173 14.815 0)" xlink:href="#bl"/><use transform="matrix(.06173 0 0 .06173 27.16 0)" xlink:href="#bm"/><use transform="matrix(.06173 0 0 .06173 33.333 0)" xlink:href="#bn"/><use transform="matrix(.06173 0 0 .06173 46.852 0)" xlink:href="#bn"/><use transform="matrix(.06173 0 0 .06173 60.37 0)" xlink:href="#bo"/><use transform="matrix(.06173 0 0 .06173 72.716 0)" xlink:href="#bp"/></g><g id="M"><use transform="rotate(.413) scale(.06173)" xlink:href="#bq"/><use transform="matrix(.06173 0 0 .06173 12.346 0)" xlink:href="#bg"/><use transform="matrix(.06173 0 0 .06173 24.691 0)" xlink:href="#br"/></g><g id="N"><use transform="rotate(.137) scale(.08642)" xlink:href="#aS"/><use transform="matrix(.06173 0 0 .06173 29.296 0)" xlink:href="#aT"/><use transform="matrix(.06173 0 0 .06173 41.642 0)" xlink:href="#aU"/><use transform="matrix(.06173 0 0 .06173 48.988 0)" xlink:href="#aV"/><use transform="matrix(.06173 0 0 .06173 60.099 0)" xlink:href="#aW"/><use transform="matrix(.06173 0 0 .06173 66.272 0)" xlink:href="#aX"/><use transform="matrix(.06173 0 0 .06173 71.148 0)" xlink:href="#aT"/><use transform="matrix(.06173 0 0 .06173 83.494 0)" xlink:href="#aY"/></g><g id="O"><use transform="rotate(.413) scale(.06173)" xlink:href="#bs"/><use transform="matrix(.06173 0 0 .06173 12.346 0)" xlink:href="#aU"/><use transform="matrix(.06173 0 0 .06173 19.691 0)" xlink:href="#br"/></g><g id="P"><use transform="rotate(.413) scale(.06173)" xlink:href="#aQ"/><use transform="matrix(.06173 0 0 .06173 11.481 0)" xlink:href="#aC"/><use transform="matrix(.06173 0 0 .06173 23.827 0)" xlink:href="#aH"/><use transform="matrix(.06173 0 0 .06173 34.938 0)" xlink:href="#ap"/></g><g id="Q"><use transform="rotate(.413) scale(.06173)" xlink:href="#aB"/><use transform="matrix(.06173 0 0 .06173 14.815 0)" xlink:href="#aw"/><use transform="matrix(.06173 0 0 .06173 25.926 0)" xlink:href="#aM"/><use transform="matrix(.06173 0 0 .06173 38.272 0)" xlink:href="#av"/><use transform="matrix(.06173 0 0 .06173 50.617 0)" xlink:href="#aD"/><use transform="matrix(.06173 0 0 .06173 62.963 0)" xlink:href="#ax"/><use transform="matrix(.06173 0 0 .06173 75.309 0)" xlink:href="#ar"/><use transform="matrix(.06173 0 0 .06173 80.185 0)" xlink:href="#av"/><use transform="matrix(.06173 0 0 .06173 92.53 0)" xlink:href="#aD"/></g><g id="R"><use transform="rotate(.413) scale(.06173)" xlink:href="#bt"/><use transform="matrix(.06173 0 0 .06173 12.346 0)" xlink:href="#be"/><use transform="matrix(.06173 0 0 .06173 18.519 0)" xlink:href="#bu"/></g><g id="S"><use transform="rotate(.413) scale(.06173)" xlink:href="#bv"/><use transform="matrix(.06173 0 0 .06173 12.346 0)" xlink:href="#be"/><use transform="matrix(.06173 0 0 .06173 18.519 0)" xlink:href="#bu"/></g><g id="T"><use transform="rotate(.413) scale(.06173)" xlink:href="#aN"/><use transform="matrix(.06173 0 0 .06173 15.988 0)" xlink:href="#an"/><use transform="matrix(.06173 0 0 .06173 28.333 0)" xlink:href="#aR"/><use transform="matrix(.06173 0 0 .06173 46.79 0)" xlink:href="#aP"/><use transform="matrix(.06173 0 0 .06173 59.136 0)" xlink:href="#ar"/><use transform="matrix(.06173 0 0 .06173 64.012 0)" xlink:href="#av"/><use transform="matrix(.06173 0 0 .06173 76.358 0)" xlink:href="#ay"/><use transform="matrix(.06173 0 0 .06173 82.53 0)" xlink:href="#av"/><use transform="matrix(.06173 0 0 .06173 94.877 0)" xlink:href="#aD"/></g><g id="U"><use transform="rotate(.413) scale(.06173)" xlink:href="#bw"/><use transform="matrix(.06173 0 0 .06173 13.519 0)" xlink:href="#aC"/><use transform="matrix(.06173 0 0 .06173 25.864 0)" xlink:href="#az"/><use transform="matrix(.06173 0 0 .06173 30.74 0)" xlink:href="#ar"/><use transform="matrix(.06173 0 0 .06173 35.617 0)" xlink:href="#av"/><use transform="matrix(.06173 0 0 .06173 47.963 0)" xlink:href="#aD"/></g><g id="V"><use transform="rotate(.413) scale(.06173)" xlink:href="#bx"/><use transform="matrix(.06173 0 0 .06173 15.988 0)" xlink:href="#av"/><use transform="matrix(.06173 0 0 .06173 28.333 0)" xlink:href="#ar"/><use transform="matrix(.06173 0 0 .06173 33.21 0)" xlink:href="#aC"/><use transform="matrix(.06173 0 0 .06173 45.556 0)" xlink:href="#aJ"/></g><g id="W"><use transform="rotate(.413) scale(.06173)" xlink:href="#aq"/><use transform="matrix(.06173 0 0 .06173 6.173 0)" xlink:href="#ao"/><use transform="matrix(.06173 0 0 .06173 13.519 0)" xlink:href="#an"/><use transform="matrix(.06173 0 0 .06173 25.864 0)" xlink:href="#aR"/></g><g id="X"><use transform="rotate(.413) scale(.06173)" xlink:href="#aL"/><use transform="matrix(.06173 0 0 .06173 14.815 0)" xlink:href="#aC"/><use transform="matrix(.06173 0 0 .06173 27.16 0)" xlink:href="#aw"/><use transform="matrix(.06173 0 0 .06173 38.272 0)" xlink:href="#ap"/><use transform="matrix(.06173 0 0 .06173 49.383 0)" xlink:href="#an"/><use transform="matrix(.06173 0 0 .06173 61.728 0)" xlink:href="#aq"/><use transform="matrix(.06173 0 0 .06173 67.901 0)" xlink:href="#aq"/></g><g id="Y"><use transform="rotate(.413) scale(.06173)" xlink:href="#by"/><use transform="matrix(.06173 0 0 .06173 6.173 0)" xlink:href="#aA"/><use transform="matrix(.06173 0 0 .06173 18.519 0)" xlink:href="#az"/><use transform="matrix(.06173 0 0 .06173 23.395 0)" xlink:href="#ay"/><use transform="matrix(.06173 0 0 .06173 29.568 0)" xlink:href="#az"/><use transform="matrix(.06173 0 0 .06173 34.444 0)" xlink:href="#aC"/><use transform="matrix(.06173 0 0 .06173 46.79 0)" xlink:href="#ar"/></g><g id="Z"><use transform="rotate(.413) scale(.06173)" xlink:href="#aO"/><use transform="matrix(.06173 0 0 .06173 15.988 0)" xlink:href="#ax"/><use transform="matrix(.06173 0 0 .06173 28.333 0)" xlink:href="#aA"/></g><g id="aa"><use transform="rotate(.413) scale(.06173)" xlink:href="#az"/><use transform="matrix(.06173 0 0 .06173 4.877 0)" xlink:href="#aA"/></g><g id="ab"><use transform="rotate(.413) scale(.06173)" xlink:href="#aH"/><use transform="matrix(.06173 0 0 .06173 11.111 0)" xlink:href="#aw"/><use transform="matrix(.06173 0 0 .06173 22.222 0)" xlink:href="#aM"/><use transform="matrix(.06173 0 0 .06173 34.568 0)" xlink:href="#av"/><use transform="matrix(.06173 0 0 .06173 46.914 0)" xlink:href="#aD"/><use transform="matrix(.06173 0 0 .06173 59.26 0)" xlink:href="#ax"/><use transform="matrix(.06173 0 0 .06173 71.605 0)" xlink:href="#ar"/><use transform="matrix(.06173 0 0 .06173 76.481 0)" xlink:href="#av"/></g><g id="ac"><use transform="rotate(.413) scale(.06173)" xlink:href="#bz"/><use transform="matrix(.06173 0 0 .06173 15.988 0)" xlink:href="#an"/><use transform="matrix(.06173 0 0 .06173 28.333 0)" xlink:href="#ao"/><use transform="matrix(.06173 0 0 .06173 35.679 0)" xlink:href="#aR"/><use transform="matrix(.06173 0 0 .06173 54.136 0)" xlink:href="#aC"/><use transform="matrix(.06173 0 0 .06173 66.481 0)" xlink:href="#ar"/></g><g id="ad"><use transform="rotate(.413) scale(.06173)" xlink:href="#ay"/><use transform="matrix(.06173 0 0 .06173 6.173 0)" xlink:href="#aM"/><use transform="matrix(.06173 0 0 .06173 18.519 0)" xlink:href="#aC"/><use transform="matrix(.06173 0 0 .06173 30.864 0)" xlink:href="#ay"/></g><g id="ae"><use transform="rotate(.413) scale(.06173)" xlink:href="#bw"/><use transform="matrix(.06173 0 0 .06173 13.519 0)" xlink:href="#aC"/><use transform="matrix(.06173 0 0 .06173 25.864 0)" xlink:href="#az"/><use transform="matrix(.06173 0 0 .06173 30.74 0)" xlink:href="#ar"/><use transform="matrix(.06173 0 0 .06173 35.617 0)" xlink:href="#aH"/></g><g id="af"><use transform="rotate(.413) scale(.06173)" xlink:href="#aO"/><use transform="matrix(.06173 0 0 .06173 15.988 0)" xlink:href="#av"/><use transform="matrix(.06173 0 0 .06173 28.333 0)" xlink:href="#ay"/><use transform="matrix(.06173 0 0 .06173 34.506 0)" xlink:href="#ao"/><use transform="matrix(.06173 0 0 .06173 41.852 0)" xlink:href="#aJ"/></g><g id="ag"><use transform="rotate(.413) scale(.06173)" xlink:href="#aO"/><use transform="matrix(.06173 0 0 .06173 15.988 0)" xlink:href="#ax"/><use transform="matrix(.06173 0 0 .06173 28.333 0)" xlink:href="#aA"/></g><g id="ah"><use transform="rotate(.413) scale(.06173)" xlink:href="#bA"/><use transform="matrix(.06173 0 0 .06173 12.346 0)" xlink:href="#aC"/><use transform="matrix(.06173 0 0 .06173 24.691 0)" xlink:href="#aH"/><use transform="matrix(.06173 0 0 .06173 35.802 0)" xlink:href="#ay"/></g><g id="ai"><use transform="rotate(.413) scale(.06173)" xlink:href="#bB"/><use transform="matrix(.06173 0 0 .06173 12.346 0)" xlink:href="#be"/><use transform="matrix(.06173 0 0 .06173 18.519 0)" xlink:href="#bu"/></g><g id="aj"><use transform="rotate(.413) scale(.06173)" xlink:href="#aN"/><use transform="matrix(.06173 0 0 .06173 15.988 0)" xlink:href="#ax"/><use transform="matrix(.06173 0 0 .06173 28.333 0)" xlink:href="#ao"/><use transform="matrix(.06173 0 0 .06173 35.679 0)" xlink:href="#ao"/><use transform="matrix(.06173 0 0 .06173 43.025 0)" xlink:href="#av"/><use transform="matrix(.06173 0 0 .06173 55.37 0)" xlink:href="#aA"/><use transform="matrix(.06173 0 0 .06173 67.716 0)" xlink:href="#ay"/></g><use transform="rotate(.413) scale(.06173)" xlink:href="#aC" id="t"/></defs></g></svg>