<svg xmlns="http://www.w3.org/2000/svg" xmlns:xlink="http://www.w3.org/1999/xlink" xmlns:lucid="lucid" width="660" height="1120"><g transform="translate(1320 2440)" lucid:page-tab-id="0_0"><path d="M-1300-2285c0-8.28 6.72-15 15-15h590c8.28 0 15 6.72 15 15v930c0 8.28-6.72 15-15 15h-590c-8.28 0-15-6.72-15-15z" stroke="#333" stroke-width="3" fill="#fff"/><use xlink:href="#a" transform="matrix(1,0,0,1,-1278,-2278) translate(161.68518518518528 49.88888888888887)"/><use xlink:href="#b" transform="matrix(1,0,0,1,-1278,-2278) translate(297.8827160493827 49.88888888888887)"/><path d="M-960-2165c0-8.28 6.72-15 15-15h190c8.28 0 15 6.72 15 15v182.25c0 8.3-6.72 15-15 15h-190c-8.28 0-15-6.7-15-15z" stroke="#333" stroke-width="3" fill="#fff"/><use xlink:href="#c" transform="matrix(1,0,0,1,-955,-2175) translate(42.50000000000004 88.32638888888889)"/><use xlink:href="#d" transform="matrix(1,0,0,1,-955,-2175) translate(53.7345679012346 125.6597222222222)"/><path d="M-1240-1905c0-8.28 6.72-15 15-15h190c8.28 0 15 6.72 15 15v182.25c0 8.3-6.72 15-15 15h-190c-8.28 0-15-6.7-15-15z" stroke="#333" stroke-width="3" fill="#fff"/><use xlink:href="#e" transform="matrix(1,0,0,1,-1235,-1915) translate(57.2345679012346 88.32638888888889)"/><use xlink:href="#f" transform="matrix(1,0,0,1,-1235,-1915) translate(53.7345679012346 125.6597222222222)"/><path d="M-960-1905c0-8.28 6.72-15 15-15h190c8.28 0 15 6.72 15 15v182.25c0 8.3-6.72 15-15 15h-190c-8.28 0-15-6.7-15-15z" stroke="#333" stroke-width="3" fill="#fff"/><use xlink:href="#g" transform="matrix(1,0,0,1,-955,-1915) translate(55.80864197530866 88.32638888888889)"/><use xlink:href="#f" transform="matrix(1,0,0,1,-955,-1915) translate(53.7345679012346 125.6597222222222)"/><path d="M-1240-2165c0-8.28 6.72-15 15-15h190c8.28 0 15 6.72 15 15v182.25c0 8.3-6.72 15-15 15h-190c-8.28 0-15-6.7-15-15z" stroke="#333" stroke-width="3" fill="#fff"/><use xlink:href="#h" transform="matrix(1,0,0,1,-1235,-2175) translate(43.36419753086422 88.32638888888889)"/><use xlink:href="#f" transform="matrix(1,0,0,1,-1235,-2175) translate(53.7345679012346 125.6597222222222)"/><path d="M-1240-1645c0-8.28 6.72-15 15-15h470c8.28 0 15 6.72 15 15v225c0 8.28-6.72 15-15 15h-470c-8.28 0-15-6.72-15-15z" stroke="#333" stroke-width="3" fill="#fff"/><use xlink:href="#i" transform="matrix(1,0,0,1,-1212,-1632) translate(156.00000000000003 106.13888888888889)"/><path d="M-1075-2414c0-3.3 2.7-6 6-6h158c3.3 0 6 2.7 6 6v68c0 3.3-2.7 6-6 6h-158c-3.3 0-6-2.7-6-6z" stroke="#000" stroke-opacity="0" stroke-width="3" fill="#fff" fill-opacity="0"/><g><use xlink:href="#j" transform="matrix(1,0,0,1,-1070,-2415) translate(30.87037037037038 40.201388888888886)"/></g><path d="M-990-2339v36.5" stroke="#333" stroke-width="2" fill="none"/><path d="M-989-2338.97h-2v-1.03h2zM-989-2301.5h-2v-1.03h2z" fill="#333"/><defs><path fill="#333" d="M127-220V0H93v-220H8v-28h204v28h-85" id="k"/><path fill="#333" d="M100-194c63 0 86 42 84 106H49c0 40 14 67 53 68 26 1 43-12 49-29l28 8c-11 28-37 45-77 45C44 4 14-33 15-96c1-61 26-98 85-98zm52 81c6-60-76-77-97-28-3 7-6 17-6 28h103" id="l"/><path fill="#333" d="M210-169c-67 3-38 105-44 169h-31v-121c0-29-5-50-35-48C34-165 62-65 56 0H25l-1-190h30c1 10-1 24 2 32 10-44 99-50 107 0 11-21 27-35 58-36 85-2 47 119 55 194h-31v-121c0-29-5-49-35-48" id="m"/><path fill="#333" d="M115-194c55 1 70 41 70 98S169 2 115 4C84 4 66-9 55-30l1 105H24l-1-265h31l2 30c10-21 28-34 59-34zm-8 174c40 0 45-34 45-75s-6-73-45-74c-42 0-51 32-51 76 0 43 10 73 51 73" id="n"/><path fill="#333" d="M100-194c62-1 85 37 85 99 1 63-27 99-86 99S16-35 15-95c0-66 28-99 85-99zM99-20c44 1 53-31 53-75 0-43-8-75-51-75s-53 32-53 75 10 74 51 75" id="o"/><path fill="#333" d="M114-163C36-179 61-72 57 0H25l-1-190h30c1 12-1 29 2 39 6-27 23-49 58-41v29" id="p"/><path fill="#333" d="M141-36C126-15 110 5 73 4 37 3 15-17 15-53c-1-64 63-63 125-63 3-35-9-54-41-54-24 1-41 7-42 31l-33-3c5-37 33-52 76-52 45 0 72 20 72 64v82c-1 20 7 32 28 27v20c-31 9-61-2-59-35zM48-53c0 20 12 33 32 33 41-3 63-29 60-74-43 2-92-5-92 41" id="q"/><path fill="#333" d="M24 0v-261h32V0H24" id="r"/><g id="a"><use transform="matrix(0.08641975308641969,0,0,0.08641975308641969,0,0)" xlink:href="#k"/><use transform="matrix(0.08641975308641969,0,0,0.08641975308641969,15.469135802469125,0)" xlink:href="#l"/><use transform="matrix(0.08641975308641969,0,0,0.08641975308641969,32.75308641975306,0)" xlink:href="#m"/><use transform="matrix(0.08641975308641969,0,0,0.08641975308641969,58.59259259259255,0)" xlink:href="#n"/><use transform="matrix(0.08641975308641969,0,0,0.08641975308641969,75.87654320987649,0)" xlink:href="#o"/><use transform="matrix(0.08641975308641969,0,0,0.08641975308641969,93.16049382716042,0)" xlink:href="#p"/><use transform="matrix(0.08641975308641969,0,0,0.08641975308641969,103.44444444444437,0)" xlink:href="#q"/><use transform="matrix(0.08641975308641969,0,0,0.08641975308641969,120.7283950617283,0)" xlink:href="#r"/></g><path fill="#333" d="M185-189c-5-48-123-54-124 2 14 75 158 14 163 119 3 78-121 87-175 55-17-10-28-26-33-46l33-7c5 56 141 63 141-1 0-78-155-14-162-118-5-82 145-84 179-34 5 7 8 16 11 25" id="s"/><path fill="#333" d="M108 0H70L1-190h34L89-25l56-165h34" id="t"/><g id="b"><use transform="matrix(0.08641975308641969,0,0,0.08641975308641969,0,0)" xlink:href="#s"/><use transform="matrix(0.08641975308641969,0,0,0.08641975308641969,20.740740740740726,0)" xlink:href="#l"/><use transform="matrix(0.08641975308641969,0,0,0.08641975308641969,38.02469135802467,0)" xlink:href="#p"/><use transform="matrix(0.08641975308641969,0,0,0.08641975308641969,48.30864197530861,0)" xlink:href="#t"/><use transform="matrix(0.08641975308641969,0,0,0.08641975308641969,63.86419753086415,0)" xlink:href="#l"/><use transform="matrix(0.08641975308641969,0,0,0.08641975308641969,81.1481481481481,0)" xlink:href="#p"/></g><path fill="#333" d="M240 0l2-218c-23 76-54 145-80 218h-23L58-218 59 0H30v-248h44l77 211c21-75 51-140 76-211h43V0h-30" id="u"/><path fill="#333" d="M59-47c-2 24 18 29 38 22v24C64 9 27 4 27-40v-127H5v-23h24l9-43h21v43h35v23H59v120" id="v"/><path fill="#333" d="M96-169c-40 0-48 33-48 73s9 75 48 75c24 0 41-14 43-38l32 2c-6 37-31 61-74 61-59 0-76-41-82-99-10-93 101-131 147-64 4 7 5 14 7 22l-32 3c-4-21-16-35-41-35" id="w"/><path fill="#333" d="M106-169C34-169 62-67 57 0H25v-261h32l-1 103c12-21 28-36 61-36 89 0 53 116 60 194h-32v-121c2-32-8-49-39-48" id="x"/><path fill="#333" d="M24-231v-30h32v30H24zM24 0v-190h32V0H24" id="y"/><path fill="#333" d="M117-194c89-4 53 116 60 194h-32v-121c0-31-8-49-39-48C34-167 62-67 57 0H25l-1-190h30c1 10-1 24 2 32 11-22 29-35 61-36" id="z"/><path fill="#333" d="M177-190C167-65 218 103 67 71c-23-6-38-20-44-43l32-5c15 47 100 32 89-28v-30C133-14 115 1 83 1 29 1 15-40 15-95c0-56 16-97 71-98 29-1 48 16 59 35 1-10 0-23 2-32h30zM94-22c36 0 50-32 50-73 0-42-14-75-50-75-39 0-46 34-46 75s6 73 46 73" id="A"/><g id="c"><use transform="matrix(0.0864197530864197,0,0,0.0864197530864197,0,0)" xlink:href="#u"/><use transform="matrix(0.0864197530864197,0,0,0.0864197530864197,25.839506172839492,0)" xlink:href="#q"/><use transform="matrix(0.0864197530864197,0,0,0.0864197530864197,43.123456790123434,0)" xlink:href="#v"/><use transform="matrix(0.0864197530864197,0,0,0.0864197530864197,51.7654320987654,0)" xlink:href="#w"/><use transform="matrix(0.0864197530864197,0,0,0.0864197530864197,67.32098765432094,0)" xlink:href="#x"/><use transform="matrix(0.0864197530864197,0,0,0.0864197530864197,84.60493827160488,0)" xlink:href="#y"/><use transform="matrix(0.0864197530864197,0,0,0.0864197530864197,91.43209876543203,0)" xlink:href="#z"/><use transform="matrix(0.0864197530864197,0,0,0.0864197530864197,108.71604938271597,0)" xlink:href="#A"/></g><g id="d"><use transform="matrix(0.0864197530864197,0,0,0.0864197530864197,0,0)" xlink:href="#s"/><use transform="matrix(0.0864197530864197,0,0,0.0864197530864197,20.74074074074073,0)" xlink:href="#l"/><use transform="matrix(0.0864197530864197,0,0,0.0864197530864197,38.02469135802467,0)" xlink:href="#p"/><use transform="matrix(0.0864197530864197,0,0,0.0864197530864197,48.30864197530862,0)" xlink:href="#t"/><use transform="matrix(0.0864197530864197,0,0,0.0864197530864197,63.86419753086416,0)" xlink:href="#y"/><use transform="matrix(0.0864197530864197,0,0,0.0864197530864197,70.69135802469131,0)" xlink:href="#w"/><use transform="matrix(0.0864197530864197,0,0,0.0864197530864197,86.24691358024685,0)" xlink:href="#l"/></g><path fill="#333" d="M197 0v-115H63V0H30v-248h33v105h134v-105h34V0h-34" id="B"/><path fill="#333" d="M135-143c-3-34-86-38-87 0 15 53 115 12 119 90S17 21 10-45l28-5c4 36 97 45 98 0-10-56-113-15-118-90-4-57 82-63 122-42 12 7 21 19 24 35" id="C"/><path fill="#333" d="M179-190L93 31C79 59 56 82 12 73V49c39 6 53-20 64-50L1-190h34L92-34l54-156h33" id="D"/><g id="e"><use transform="matrix(0.0864197530864197,0,0,0.0864197530864197,0,0)" xlink:href="#B"/><use transform="matrix(0.0864197530864197,0,0,0.0864197530864197,22.382716049382704,0)" xlink:href="#y"/><use transform="matrix(0.0864197530864197,0,0,0.0864197530864197,29.209876543209862,0)" xlink:href="#C"/><use transform="matrix(0.0864197530864197,0,0,0.0864197530864197,44.76543209876541,0)" xlink:href="#v"/><use transform="matrix(0.0864197530864197,0,0,0.0864197530864197,53.407407407407376,0)" xlink:href="#o"/><use transform="matrix(0.0864197530864197,0,0,0.0864197530864197,70.69135802469131,0)" xlink:href="#p"/><use transform="matrix(0.0864197530864197,0,0,0.0864197530864197,80.97530864197526,0)" xlink:href="#D"/></g><g id="f"><use transform="matrix(0.0864197530864197,0,0,0.0864197530864197,0,0)" xlink:href="#s"/><use transform="matrix(0.0864197530864197,0,0,0.0864197530864197,20.74074074074073,0)" xlink:href="#l"/><use transform="matrix(0.0864197530864197,0,0,0.0864197530864197,38.02469135802467,0)" xlink:href="#p"/><use transform="matrix(0.0864197530864197,0,0,0.0864197530864197,48.30864197530862,0)" xlink:href="#t"/><use transform="matrix(0.0864197530864197,0,0,0.0864197530864197,63.86419753086416,0)" xlink:href="#y"/><use transform="matrix(0.0864197530864197,0,0,0.0864197530864197,70.69135802469131,0)" xlink:href="#w"/><use transform="matrix(0.0864197530864197,0,0,0.0864197530864197,86.24691358024685,0)" xlink:href="#l"/></g><path fill="#333" d="M266 0h-40l-56-210L115 0H75L2-248h35L96-30l15-64 43-154h32l59 218 59-218h35" id="E"/><path fill="#333" d="M143 0L79-87 56-68V0H24v-261h32v163l83-92h37l-77 82L181 0h-38" id="F"/><g id="g"><use transform="matrix(0.0864197530864197,0,0,0.0864197530864197,0,0)" xlink:href="#E"/><use transform="matrix(0.0864197530864197,0,0,0.0864197530864197,28.691358024691343,0)" xlink:href="#o"/><use transform="matrix(0.0864197530864197,0,0,0.0864197530864197,45.975308641975296,0)" xlink:href="#p"/><use transform="matrix(0.0864197530864197,0,0,0.0864197530864197,56.25925925925924,0)" xlink:href="#F"/><use transform="matrix(0.0864197530864197,0,0,0.0864197530864197,71.81481481481478,0)" xlink:href="#l"/><use transform="matrix(0.0864197530864197,0,0,0.0864197530864197,89.09876543209873,0)" xlink:href="#p"/></g><path fill="#333" d="M63-220v92h138v28H63V0H30v-248h175v28H63" id="G"/><path fill="#333" d="M85-194c31 0 48 13 60 33l-1-100h32l1 261h-30c-2-10 0-23-3-31C134-8 116 4 85 4 32 4 16-35 15-94c0-66 23-100 70-100zm9 24c-40 0-46 34-46 75 0 40 6 74 45 74 42 0 51-32 51-76 0-42-9-74-50-73" id="H"/><g id="h"><use transform="matrix(0.0864197530864197,0,0,0.0864197530864197,0,0)" xlink:href="#G"/><use transform="matrix(0.0864197530864197,0,0,0.0864197530864197,18.925925925925917,0)" xlink:href="#p"/><use transform="matrix(0.0864197530864197,0,0,0.0864197530864197,29.209876543209862,0)" xlink:href="#o"/><use transform="matrix(0.0864197530864197,0,0,0.0864197530864197,46.493827160493815,0)" xlink:href="#z"/><use transform="matrix(0.0864197530864197,0,0,0.0864197530864197,63.77777777777775,0)" xlink:href="#v"/><use transform="matrix(0.0864197530864197,0,0,0.0864197530864197,72.41975308641972,0)" xlink:href="#l"/><use transform="matrix(0.0864197530864197,0,0,0.0864197530864197,89.70370370370368,0)" xlink:href="#z"/><use transform="matrix(0.0864197530864197,0,0,0.0864197530864197,106.98765432098762,0)" xlink:href="#H"/></g><path fill="#333" d="M30-248c118-7 216 8 213 122C240-48 200 0 122 0H30v-248zM63-27c89 8 146-16 146-99s-60-101-146-95v194" id="I"/><path fill="#333" d="M115-194c53 0 69 39 70 98 0 66-23 100-70 100C84 3 66-7 56-30L54 0H23l1-261h32v101c10-23 28-34 59-34zm-8 174c40 0 45-34 45-75 0-40-5-75-45-74-42 0-51 32-51 76 0 43 10 73 51 73" id="J"/><g id="i"><use transform="matrix(0.0864197530864197,0,0,0.0864197530864197,0,0)" xlink:href="#I"/><use transform="matrix(0.0864197530864197,0,0,0.0864197530864197,22.382716049382704,0)" xlink:href="#q"/><use transform="matrix(0.0864197530864197,0,0,0.0864197530864197,39.66666666666664,0)" xlink:href="#v"/><use transform="matrix(0.0864197530864197,0,0,0.0864197530864197,48.30864197530862,0)" xlink:href="#q"/><use transform="matrix(0.0864197530864197,0,0,0.0864197530864197,65.59259259259255,0)" xlink:href="#J"/><use transform="matrix(0.0864197530864197,0,0,0.0864197530864197,82.8765432098765,0)" xlink:href="#q"/><use transform="matrix(0.0864197530864197,0,0,0.0864197530864197,100.16049382716047,0)" xlink:href="#C"/><use transform="matrix(0.0864197530864197,0,0,0.0864197530864197,115.716049382716,0)" xlink:href="#l"/></g><path fill="#333" d="M125-24c46 0 70-25 89-51l25 16C214-24 183 4 123 4 8 4-5-146 60-208c32-50 158-61 191-5 5 7 9 14 11 22l-32 10c-9-28-33-43-69-43-74 0-108 51-108 125 0 46 24 75 72 75" id="K"/><path fill="#333" d="M6 0l50-261h32L37 0H6" id="L"/><path fill="#333" d="M67 3c-93-2-31-127-26-193h32L48-50c-3 39 53 32 70 12 30-34 30-101 43-152h32L157 0h-30c1-10 6-24 4-33-14 20-29 37-64 36" id="M"/><path fill="#333" d="M55-144c13 50 104 24 104 88C159 21 15 23 1-39l26-10c6 40 102 42 102-4-13-50-104-23-104-87 0-71 143-71 148-8l-29 4c-5-35-85-37-89 0" id="N"/><path fill="#333" d="M51-54c-9 22 5 41 31 30L79-1C43 14 10-4 19-52l22-115H19l5-23h22l19-43h21l-9 43h35l-4 23H73" id="O"/><path fill="#333" d="M111-194c62-3 86 47 72 106H45c-7 38 6 69 45 68 27-1 43-14 53-32l24 11C152-15 129 4 87 4 38 3 12-23 12-71c0-70 32-119 99-123zm44 81c14-66-71-72-95-28-4 8-8 17-11 28h106" id="P"/><path fill="#333" d="M66-151c12-25 30-51 66-40l-6 26C45-176 58-65 38 0H6l36-190h30" id="Q"/><g id="j"><use transform="matrix(0.08641975308641973,0,0,0.08641975308641973,0,0)" xlink:href="#K"/><use transform="matrix(0.08641975308641973,0,0,0.08641975308641973,22.38271604938271,0)" xlink:href="#L"/><use transform="matrix(0.08641975308641973,0,0,0.08641975308641973,29.20987654320987,0)" xlink:href="#M"/><use transform="matrix(0.08641975308641973,0,0,0.08641975308641973,46.493827160493815,0)" xlink:href="#N"/><use transform="matrix(0.08641975308641973,0,0,0.08641975308641973,62.04938271604937,0)" xlink:href="#O"/><use transform="matrix(0.08641975308641973,0,0,0.08641975308641973,70.69135802469134,0)" xlink:href="#P"/><use transform="matrix(0.08641975308641973,0,0,0.08641975308641973,87.97530864197529,0)" xlink:href="#Q"/></g></defs></g></svg>