<svg xmlns="http://www.w3.org/2000/svg" xmlns:xlink="http://www.w3.org/1999/xlink" xmlns:lucid="lucid" width="1120" height="900"><g transform="translate(100 1080)" lucid:page-tab-id="0_0"><path d="M200-925c0-8.28 6.72-15 15-15h350c8.28 0 15 6.72 15 15v710c0 8.28-6.72 15-15 15H215c-8.28 0-15-6.72-15-15z" fill-opacity="0"/><path d="M209.3-938.74l1.8-.75 3.9-.5h5.83m11.67 0h11.67m11.66 0h11.67m11.67 0h11.66m11.67 0h11.67m11.66 0h11.67m11.67 0h11.66m11.67 0h11.67m11.66 0h11.67m11.67 0h11.66m11.67 0h11.67m11.66 0h11.67m11.67 0h11.66m11.67 0h11.67m11.66 0h11.67m11.67 0H565l3.9.5 1.8.76m8.04 8.05l.75 1.8.5 3.9v5.92m0 11.83v11.83m0 11.84v11.83m0 11.83v11.84m0 11.83v11.83m0 11.84v11.83m0 11.83v11.84m0 11.83v11.83m0 11.84v11.83m0 11.83v11.84m0 11.83v11.83m0 11.84v11.83m0 11.83v11.84m0 11.83v11.83m0 11.84v11.83m0 11.83v11.84m0 11.83v11.83m0 11.84v11.83m0 11.83v11.84m0 11.83v11.83m0 11.84v11.83m0 11.83v11.84m0 11.83v11.83m0 11.84v11.83m0 11.83v11.84m0 11.83v11.83m0 11.84v11.83m0 11.83v11.84m0 11.83v11.83m0 11.84v11.83m0 11.83v5.92l-.5 3.9-.76 1.8m-8.05 8.04l-1.8.75-3.9.5h-5.83m-11.67 0h-11.67m-11.66 0H512.5m-11.67 0h-11.66m-11.67 0h-11.67m-11.66 0H442.5m-11.67 0h-11.66m-11.67 0h-11.67m-11.66 0H372.5m-11.67 0h-11.66m-11.67 0h-11.67m-11.66 0H302.5m-11.67 0h-11.66m-11.67 0h-11.67m-11.66 0H232.5m-11.67 0H215l-3.9-.5-1.8-.76m-8.04-8.05l-.75-1.8-.5-3.9v-5.92m0-11.83v-11.83m0-11.84v-11.83m0-11.83v-11.84m0-11.83v-11.83m0-11.84v-11.83m0-11.83v-11.84m0-11.83v-11.83m0-11.84v-11.83m0-11.83v-11.84m0-11.83v-11.83m0-11.84v-11.83m0-11.83v-11.84m0-11.83v-11.83m0-11.84v-11.83m0-11.83v-11.84m0-11.83v-11.83m0-11.84v-11.83m0-11.83v-11.84m0-11.83v-11.83m0-11.84v-11.83m0-11.83v-11.84m0-11.83v-11.83m0-11.84v-11.83m0-11.83v-11.84m0-11.83v-11.83m0-11.84v-11.83m0-11.83v-11.84m0-11.83v-11.83m0-11.84v-11.83m0-11.83V-925l.5-3.9.76-1.8" stroke="#333" stroke-width="3" fill="none"/><path d="M400-885c0-8.28 6.72-15 15-15h110c8.28 0 15 6.72 15 15v110c0 8.28-6.72 15-15 15H415c-8.28 0-15-6.72-15-15z" stroke="#333" stroke-width="3" fill="#fff"/><use xlink:href="#a" transform="matrix(1,0,0,1,400,-900) translate(30.104938271604944 59.88888888888889)"/><use xlink:href="#b" transform="matrix(1,0,0,1,400,-900) translate(27.68518518518519 95.44444444444446)"/><path d="M220-545c0-8.28 6.72-15 15-15h310c8.28 0 15 6.72 15 15v310c0 8.28-6.72 15-15 15H235c-8.28 0-15-6.72-15-15z" stroke="#333" stroke-width="3" fill="#127ae5"/><use xlink:href="#c" transform="matrix(1,0,0,1,241.99999999999994,-538) translate(18.77160493827168 156.26388888888886)"/><use xlink:href="#d" transform="matrix(1,0,0,1,241.99999999999994,-538) translate(154.9691358024691 156.26388888888886)"/><path d="M280-1054c0-3.3 2.7-6 6-6h208c3.3 0 6 2.7 6 6v48c0 3.3-2.7 6-6 6H286c-3.3 0-6-2.7-6-6z" stroke="#000" stroke-opacity="0" stroke-width="3" fill="#fff" fill-opacity="0"/><use xlink:href="#e" transform="matrix(1,0,0,1,285.00000000000006,-1055) translate(14.876543209876615 20.965277777777768)"/><use xlink:href="#f" transform="matrix(1,0,0,1,285.00000000000006,-1055) translate(112.5925925925926 20.965277777777768)"/><use xlink:href="#g" transform="matrix(1,0,0,1,285.00000000000006,-1055) translate(56.38888888888893 47.631944444444414)"/><path d="M240-725c0-8.28 6.72-15 15-15h110c8.28 0 15 6.72 15 15v110c0 8.28-6.72 15-15 15H255c-8.28 0-15-6.72-15-15z" stroke="#333" stroke-width="3" fill="#fff"/><use xlink:href="#a" transform="matrix(1,0,0,1,240,-740) translate(30.104938271604944 59.88888888888889)"/><use xlink:href="#b" transform="matrix(1,0,0,1,240,-740) translate(27.68518518518519 95.44444444444446)"/><path d="M240-885c0-8.28 6.72-15 15-15h110c8.28 0 15 6.72 15 15v110c0 8.28-6.72 15-15 15H255c-8.28 0-15-6.72-15-15z" stroke="#333" stroke-width="3" fill="#fff"/><use xlink:href="#a" transform="matrix(1,0,0,1,240,-900) translate(30.104938271604944 59.88888888888889)"/><use xlink:href="#b" transform="matrix(1,0,0,1,240,-900) translate(27.68518518518519 95.44444444444446)"/><path d="M400-725c0-8.28 6.72-15 15-15h110c8.28 0 15 6.72 15 15v110c0 8.28-6.72 15-15 15H415c-8.28 0-15-6.72-15-15z" stroke="#333" stroke-width="3" fill="#fff"/><use xlink:href="#a" transform="matrix(1,0,0,1,400,-740) translate(30.104938271604944 59.88888888888889)"/><use xlink:href="#b" transform="matrix(1,0,0,1,400,-740) translate(27.68518518518519 95.44444444444446)"/><path d="M390-999v56.5" stroke="#333" stroke-width="2" fill="none"/><path d="M391-998.97h-2v-1.03h2M391-941.5h-2v-1.03h2" fill="#333"/><path d="M-80-774c0-3.3 2.7-6 6-6h208c3.3 0 6 2.7 6 6v48c0 3.3-2.7 6-6 6H-74c-3.3 0-6-2.7-6-6z" stroke="#000" stroke-opacity="0" stroke-width="3" fill="#fff" fill-opacity="0"/><use xlink:href="#h" transform="matrix(1,0,0,1,-75,-775) translate(22.9320987654321 30.27777777777778)"/><use xlink:href="#i" transform="matrix(1,0,0,1,-75,-775) translate(121.6358024691358 30.27777777777778)"/><use xlink:href="#j" transform="matrix(1,0,0,1,-75,-775) translate(151.26543209876542 30.27777777777778)"/><path d="M640-422.33c0-3.32 2.7-6 6-6h348c3.3 0 6 2.68 6 6v64.66c0 3.32-2.7 6-6 6H646c-3.3 0-6-2.68-6-6z" stroke="#000" stroke-opacity="0" stroke-width="3" fill="#fff" fill-opacity="0"/><use xlink:href="#k" transform="matrix(1,0,0,1,645,-423.3333333671171) translate(22.006172839506178 24.05902777777778)"/><use xlink:href="#l" transform="matrix(1,0,0,1,645,-423.3333333671171) translate(82.5 24.05902777777778)"/><use xlink:href="#m" transform="matrix(1,0,0,1,645,-423.3333333671171) translate(155.27777777777777 24.05902777777778)"/><use xlink:href="#n" transform="matrix(1,0,0,1,645,-423.3333333671171) translate(168.7962962962963 24.05902777777778)"/><use xlink:href="#i" transform="matrix(1,0,0,1,645,-423.3333333671171) translate(262.5617283950617 24.05902777777778)"/><use xlink:href="#o" transform="matrix(1,0,0,1,645,-423.3333333671171) translate(292.19135802469134 24.05902777777778)"/><use xlink:href="#p" transform="matrix(1,0,0,1,645,-423.3333333671171) translate(14.135802469135797 50.72569444444445)"/><use xlink:href="#q" transform="matrix(1,0,0,1,645,-423.3333333671171) translate(111.41975308641975 50.72569444444445)"/><use xlink:href="#m" transform="matrix(1,0,0,1,645,-423.3333333671171) translate(175.49382716049382 50.72569444444445)"/><use xlink:href="#n" transform="matrix(1,0,0,1,645,-423.3333333671171) translate(189.01234567901236 50.72569444444445)"/><use xlink:href="#i" transform="matrix(1,0,0,1,645,-423.3333333671171) translate(282.77777777777777 50.72569444444445)"/><use xlink:href="#r" transform="matrix(1,0,0,1,645,-423.3333333671171) translate(312.4074074074074 50.72569444444445)"/><path d="M141-750h33c3.3 0 6 2.7 6 6v68c0 3.3 2.7 6 6 6h51.5" stroke="#333" stroke-width="2" fill="none"/><path d="M141.03-749H140v-2h1.03M238.5-669h-1.03v-2h1.03" fill="#333"/><path d="M141-750h33c3.3 0 6-2.7 6-6v-68c0-3.3 2.7-6 6-6h51.5" stroke="#333" stroke-width="2" fill="none"/><path d="M141.03-749H140v-2h1.03M238.5-829h-1.03v-2h1.03" fill="#333"/><path d="M639-390h-76.5" stroke="#333" stroke-width="2" fill="none"/><path d="M640-389h-1.03v-2H640M562.53-389h-1.03v-2h1.03" fill="#333"/><defs><path fill="#333" d="M266 0h-40l-56-210L115 0H75L2-248h35L96-30l15-64 43-154h32l59 218 59-218h35" id="s"/><path fill="#333" d="M100-194c62-1 85 37 85 99 1 63-27 99-86 99S16-35 15-95c0-66 28-99 85-99zM99-20c44 1 53-31 53-75 0-43-8-75-51-75s-53 32-53 75 10 74 51 75" id="t"/><path fill="#333" d="M114-163C36-179 61-72 57 0H25l-1-190h30c1 12-1 29 2 39 6-27 23-49 58-41v29" id="u"/><path fill="#333" d="M143 0L79-87 56-68V0H24v-261h32v163l83-92h37l-77 82L181 0h-38" id="v"/><path fill="#333" d="M100-194c63 0 86 42 84 106H49c0 40 14 67 53 68 26 1 43-12 49-29l28 8c-11 28-37 45-77 45C44 4 14-33 15-96c1-61 26-98 85-98zm52 81c6-60-76-77-97-28-3 7-6 17-6 28h103" id="w"/><g id="a"><use transform="matrix(0.08641975308641976,0,0,0.08641975308641976,0,0)" xlink:href="#s"/><use transform="matrix(0.061728395061728385,0,0,0.061728395061728385,29.296296296296298,0)" xlink:href="#t"/><use transform="matrix(0.061728395061728385,0,0,0.061728395061728385,41.641975308641975,0)" xlink:href="#u"/><use transform="matrix(0.061728395061728385,0,0,0.061728395061728385,48.98765432098765,0)" xlink:href="#v"/><use transform="matrix(0.061728395061728385,0,0,0.061728395061728385,60.09876543209876,0)" xlink:href="#w"/><use transform="matrix(0.061728395061728385,0,0,0.061728395061728385,72.44444444444443,0)" xlink:href="#u"/></g><path fill="#333" d="M30-248c87 1 191-15 191 75 0 78-77 80-158 76V0H30v-248zm33 125c57 0 124 11 124-50 0-59-68-47-124-48v98" id="x"/><path fill="#333" d="M96-169c-40 0-48 33-48 73s9 75 48 75c24 0 41-14 43-38l32 2c-6 37-31 61-74 61-59 0-76-41-82-99-10-93 101-131 147-64 4 7 5 14 7 22l-32 3c-4-21-16-35-41-35" id="y"/><path fill="#333" d="M135-143c-3-34-86-38-87 0 15 53 115 12 119 90S17 21 10-45l28-5c4 36 97 45 98 0-10-56-113-15-118-90-4-57 82-63 122-42 12 7 21 19 24 35" id="z"/><g id="b"><use transform="matrix(0.08024691358024691,0,0,0.08024691358024691,0,0)" xlink:href="#x"/><use transform="matrix(0.061728395061728385,0,0,0.061728395061728385,19.25925925925926,0)" xlink:href="#u"/><use transform="matrix(0.061728395061728385,0,0,0.061728395061728385,26.604938271604937,0)" xlink:href="#t"/><use transform="matrix(0.061728395061728385,0,0,0.061728395061728385,38.95061728395061,0)" xlink:href="#y"/><use transform="matrix(0.061728395061728385,0,0,0.061728395061728385,50.06172839506172,0)" xlink:href="#w"/><use transform="matrix(0.061728395061728385,0,0,0.061728395061728385,62.4074074074074,0)" xlink:href="#z"/><use transform="matrix(0.061728395061728385,0,0,0.061728395061728385,73.5185185185185,0)" xlink:href="#z"/></g><path fill="#fff" d="M127-220V0H93v-220H8v-28h204v28h-85" id="A"/><path fill="#fff" d="M100-194c63 0 86 42 84 106H49c0 40 14 67 53 68 26 1 43-12 49-29l28 8c-11 28-37 45-77 45C44 4 14-33 15-96c1-61 26-98 85-98zm52 81c6-60-76-77-97-28-3 7-6 17-6 28h103" id="B"/><path fill="#fff" d="M210-169c-67 3-38 105-44 169h-31v-121c0-29-5-50-35-48C34-165 62-65 56 0H25l-1-190h30c1 10-1 24 2 32 10-44 99-50 107 0 11-21 27-35 58-36 85-2 47 119 55 194h-31v-121c0-29-5-49-35-48" id="C"/><path fill="#fff" d="M115-194c55 1 70 41 70 98S169 2 115 4C84 4 66-9 55-30l1 105H24l-1-265h31l2 30c10-21 28-34 59-34zm-8 174c40 0 45-34 45-75s-6-73-45-74c-42 0-51 32-51 76 0 43 10 73 51 73" id="D"/><path fill="#fff" d="M100-194c62-1 85 37 85 99 1 63-27 99-86 99S16-35 15-95c0-66 28-99 85-99zM99-20c44 1 53-31 53-75 0-43-8-75-51-75s-53 32-53 75 10 74 51 75" id="E"/><path fill="#fff" d="M114-163C36-179 61-72 57 0H25l-1-190h30c1 12-1 29 2 39 6-27 23-49 58-41v29" id="F"/><path fill="#fff" d="M141-36C126-15 110 5 73 4 37 3 15-17 15-53c-1-64 63-63 125-63 3-35-9-54-41-54-24 1-41 7-42 31l-33-3c5-37 33-52 76-52 45 0 72 20 72 64v82c-1 20 7 32 28 27v20c-31 9-61-2-59-35zM48-53c0 20 12 33 32 33 41-3 63-29 60-74-43 2-92-5-92 41" id="G"/><path fill="#fff" d="M24 0v-261h32V0H24" id="H"/><g id="c"><use transform="matrix(0.08641975308641969,0,0,0.08641975308641969,0,0)" xlink:href="#A"/><use transform="matrix(0.08641975308641969,0,0,0.08641975308641969,15.469135802469125,0)" xlink:href="#B"/><use transform="matrix(0.08641975308641969,0,0,0.08641975308641969,32.75308641975306,0)" xlink:href="#C"/><use transform="matrix(0.08641975308641969,0,0,0.08641975308641969,58.59259259259255,0)" xlink:href="#D"/><use transform="matrix(0.08641975308641969,0,0,0.08641975308641969,75.87654320987649,0)" xlink:href="#E"/><use transform="matrix(0.08641975308641969,0,0,0.08641975308641969,93.16049382716042,0)" xlink:href="#F"/><use transform="matrix(0.08641975308641969,0,0,0.08641975308641969,103.44444444444437,0)" xlink:href="#G"/><use transform="matrix(0.08641975308641969,0,0,0.08641975308641969,120.7283950617283,0)" xlink:href="#H"/></g><path fill="#fff" d="M212-179c-10-28-35-45-73-45-59 0-87 40-87 99 0 60 29 101 89 101 43 0 62-24 78-52l27 14C228-24 195 4 139 4 59 4 22-46 18-125c-6-104 99-153 187-111 19 9 31 26 39 46" id="I"/><path fill="#fff" d="M84 4C-5 8 30-112 23-190h32v120c0 31 7 50 39 49 72-2 45-101 50-169h31l1 190h-30c-1-10 1-25-2-33-11 22-28 36-60 37" id="J"/><path fill="#fff" d="M135-143c-3-34-86-38-87 0 15 53 115 12 119 90S17 21 10-45l28-5c4 36 97 45 98 0-10-56-113-15-118-90-4-57 82-63 122-42 12 7 21 19 24 35" id="K"/><path fill="#fff" d="M59-47c-2 24 18 29 38 22v24C64 9 27 4 27-40v-127H5v-23h24l9-43h21v43h35v23H59v120" id="L"/><g id="d"><use transform="matrix(0.08641975308641969,0,0,0.08641975308641969,0,0)" xlink:href="#I"/><use transform="matrix(0.08641975308641969,0,0,0.08641975308641969,22.3827160493827,0)" xlink:href="#H"/><use transform="matrix(0.08641975308641969,0,0,0.08641975308641969,29.209876543209862,0)" xlink:href="#J"/><use transform="matrix(0.08641975308641969,0,0,0.08641975308641969,46.493827160493794,0)" xlink:href="#K"/><use transform="matrix(0.08641975308641969,0,0,0.08641975308641969,62.04938271604934,0)" xlink:href="#L"/><use transform="matrix(0.08641975308641969,0,0,0.08641975308641969,70.69135802469131,0)" xlink:href="#B"/><use transform="matrix(0.08641975308641969,0,0,0.08641975308641969,87.97530864197525,0)" xlink:href="#F"/></g><path fill="#333" d="M151-220L108 0H75l42-220H32l6-28h203l-5 28h-85" id="M"/><path fill="#333" d="M111-194c62-3 86 47 72 106H45c-7 38 6 69 45 68 27-1 43-14 53-32l24 11C152-15 129 4 87 4 38 3 12-23 12-71c0-70 32-119 99-123zm44 81c14-66-71-72-95-28-4 8-8 17-11 28h106" id="N"/><path fill="#333" d="M248-111c6-24 9-61-24-58-72 9-57 108-77 169h-31l26-142c3-37-50-30-64-10C52-115 50-51 37 0H6l36-190h30c-1 10-6 24-4 32 13-43 101-52 105 5 13-22 29-41 61-41 90 0 28 129 23 194h-31" id="O"/><path fill="#333" d="M67-162c32-53 139-36 121 50C175-51 163 2 97 4 68 4 52-11 42-31 38 6 28 39 22 75H-9l50-265h29c-1 10 0 20-3 28zm89 36c0-26-10-43-35-43-54 0-67 50-69 103-1 29 14 45 42 46 53 0 62-58 62-106" id="P"/><path fill="#333" d="M30-147c31-64 166-65 159 27C183-49 158 1 86 4 9 8 1-88 30-147zM88-20c53 0 68-48 68-100 0-31-11-51-44-50-52 1-68 46-68 97 0 32 13 53 44 53" id="Q"/><path fill="#333" d="M66-151c12-25 30-51 66-40l-6 26C45-176 58-65 38 0H6l36-190h30" id="R"/><path fill="#333" d="M165-48c-4 18 1 34 23 27l-3 20c-29 8-62 0-52-35h-2C116-14 99 4 63 4 30 4 8-16 8-49c0-68 71-67 138-67 10-26 0-56-31-54-26 1-42 9-47 31l-32-5c8-67 160-71 144 15-5 28-9 54-15 81zM42-50c3 52 80 24 89-6 7-12 7-24 11-38-47 1-103-4-100 44" id="S"/><path fill="#333" d="M6 0l50-261h32L37 0H6" id="T"/><g id="e"><use transform="matrix(0.06172839506172835,0,0,0.06172839506172835,0,0)" xlink:href="#M"/><use transform="matrix(0.06172839506172835,0,0,0.06172839506172835,11.481481481481474,0)" xlink:href="#N"/><use transform="matrix(0.06172839506172835,0,0,0.06172839506172835,23.827160493827144,0)" xlink:href="#O"/><use transform="matrix(0.06172839506172835,0,0,0.06172839506172835,42.28395061728392,0)" xlink:href="#P"/><use transform="matrix(0.06172839506172835,0,0,0.06172839506172835,54.62962962962959,0)" xlink:href="#Q"/><use transform="matrix(0.06172839506172835,0,0,0.06172839506172835,66.97530864197526,0)" xlink:href="#R"/><use transform="matrix(0.06172839506172835,0,0,0.06172839506172835,74.32098765432093,0)" xlink:href="#S"/><use transform="matrix(0.06172839506172835,0,0,0.06172839506172835,86.6666666666666,0)" xlink:href="#T"/></g><path fill="#333" d="M238-179c0 84-86 86-175 82L45 0H11l48-248c82 0 179-12 179 69zm-34 1c0-53-64-42-116-43l-19 98c63 0 135 9 135-55" id="U"/><path fill="#333" d="M51-54c-9 22 5 41 31 30L79-1C43 14 10-4 19-52l22-115H19l5-23h22l19-43h21l-9 43h35l-4 23H73" id="V"/><path fill="#333" d="M76-167L44 0H12l33-167H18l4-23h27c3-47 25-81 82-69l-4 24c-35-8-44 15-46 45h37l-5 23H76" id="W"/><g id="f"><use transform="matrix(0.06172839506172835,0,0,0.06172839506172835,0,0)" xlink:href="#U"/><use transform="matrix(0.06172839506172835,0,0,0.06172839506172835,14.814814814814804,0)" xlink:href="#T"/><use transform="matrix(0.06172839506172835,0,0,0.06172839506172835,19.691358024691343,0)" xlink:href="#S"/><use transform="matrix(0.06172839506172835,0,0,0.06172839506172835,32.03703703703701,0)" xlink:href="#V"/><use transform="matrix(0.06172839506172835,0,0,0.06172839506172835,38.209876543209845,0)" xlink:href="#W"/><use transform="matrix(0.06172839506172835,0,0,0.06172839506172835,44.38271604938268,0)" xlink:href="#Q"/><use transform="matrix(0.06172839506172835,0,0,0.06172839506172835,56.72839506172835,0)" xlink:href="#R"/><use transform="matrix(0.06172839506172835,0,0,0.06172839506172835,64.07407407407402,0)" xlink:href="#O"/></g><path fill="#333" d="M17-49c1-102 45-165 103-212h30C92-210 49-145 49-46 49 4 63 43 85 75H54C30 43 18 2 17-49" id="X"/><path fill="#333" d="M249-183c0 48-29 72-75 77L221 0h-36l-43-103H65L45 0H11l48-248c83 2 190-17 190 65zm-34 3c0-55-74-39-127-41l-18 92c63-1 145 13 145-51" id="Y"/><path fill="#333" d="M67 3c-93-2-31-127-26-193h32L48-50c-3 39 53 32 70 12 30-34 30-101 43-152h32L157 0h-30c1-10 6-24 4-33-14 20-29 37-64 36" id="Z"/><path fill="#333" d="M67-158c22-48 132-52 116 29L158 0h-32l25-140c3-38-53-32-70-12C52-117 51-52 38 0H6l36-190h30" id="aa"/><path fill="#333" d="M50-231l6-30h32l-6 30H50zM6 0l37-190h31L37 0H6" id="ab"/><path fill="#333" d="M98-137C97-35 54 29-4 75h-31C23 23 67-41 67-140c0-50-15-89-37-121h31c24 32 36 73 37 124" id="ac"/><g id="g"><use transform="matrix(0.06172839506172835,0,0,0.06172839506172835,0,0)" xlink:href="#X"/><use transform="matrix(0.06172839506172835,0,0,0.06172839506172835,7.345679012345673,0)" xlink:href="#Y"/><use transform="matrix(0.06172839506172835,0,0,0.06172839506172835,23.333333333333314,0)" xlink:href="#Z"/><use transform="matrix(0.06172839506172835,0,0,0.06172839506172835,35.679012345678984,0)" xlink:href="#aa"/><use transform="matrix(0.06172839506172835,0,0,0.06172839506172835,48.024691358024654,0)" xlink:href="#V"/><use transform="matrix(0.06172839506172835,0,0,0.06172839506172835,54.19753086419749,0)" xlink:href="#ab"/><use transform="matrix(0.06172839506172835,0,0,0.06172839506172835,59.074074074074026,0)" xlink:href="#O"/><use transform="matrix(0.06172839506172835,0,0,0.06172839506172835,77.5308641975308,0)" xlink:href="#N"/><use transform="matrix(0.06172839506172835,0,0,0.06172839506172835,89.87654320987647,0)" xlink:href="#ac"/></g><path fill="#333" d="M140-251c81 0 123 46 123 126C263-46 219 4 140 4 59 4 17-45 17-125s42-126 123-126zm0 227c63 0 89-41 89-101s-29-99-89-99c-61 0-89 39-89 99S79-25 140-24" id="ad"/><path fill="#333" d="M115-194c55 1 70 41 70 98S169 2 115 4C84 4 66-9 55-30l1 105H24l-1-265h31l2 30c10-21 28-34 59-34zm-8 174c40 0 45-34 45-75s-6-73-45-74c-42 0-51 32-51 76 0 43 10 73 51 73" id="ae"/><path fill="#333" d="M141-36C126-15 110 5 73 4 37 3 15-17 15-53c-1-64 63-63 125-63 3-35-9-54-41-54-24 1-41 7-42 31l-33-3c5-37 33-52 76-52 45 0 72 20 72 64v82c-1 20 7 32 28 27v20c-31 9-61-2-59-35zM48-53c0 20 12 33 32 33 41-3 63-29 60-74-43 2-92-5-92 41" id="af"/><path fill="#333" d="M59-47c-2 24 18 29 38 22v24C64 9 27 4 27-40v-127H5v-23h24l9-43h21v43h35v23H59v120" id="ag"/><path fill="#333" d="M85-194c31 0 48 13 60 33l-1-100h32l1 261h-30c-2-10 0-23-3-31C134-8 116 4 85 4 32 4 16-35 15-94c0-66 23-100 70-100zm9 24c-40 0-46 34-46 75 0 40 6 74 45 74 42 0 51-32 51-76 0-42-9-74-50-73" id="ah"/><g id="h"><use transform="matrix(0.06172839506172839,0,0,0.06172839506172839,0,0)" xlink:href="#ad"/><use transform="matrix(0.06172839506172839,0,0,0.06172839506172839,17.28395061728395,0)" xlink:href="#ae"/><use transform="matrix(0.06172839506172839,0,0,0.06172839506172839,29.629629629629626,0)" xlink:href="#w"/><use transform="matrix(0.06172839506172839,0,0,0.06172839506172839,41.9753086419753,0)" xlink:href="#u"/><use transform="matrix(0.06172839506172839,0,0,0.06172839506172839,49.32098765432098,0)" xlink:href="#af"/><use transform="matrix(0.06172839506172839,0,0,0.06172839506172839,61.66666666666666,0)" xlink:href="#ag"/><use transform="matrix(0.06172839506172839,0,0,0.06172839506172839,67.83950617283949,0)" xlink:href="#w"/><use transform="matrix(0.06172839506172839,0,0,0.06172839506172839,80.18518518518518,0)" xlink:href="#ah"/></g><path fill="#333" d="M115-194c53 0 69 39 70 98 0 66-23 100-70 100C84 3 66-7 56-30L54 0H23l1-261h32v101c10-23 28-34 59-34zm-8 174c40 0 45-34 45-75 0-40-5-75-45-74-42 0-51 32-51 76 0 43 10 73 51 73" id="ai"/><path fill="#333" d="M179-190L93 31C79 59 56 82 12 73V49c39 6 53-20 64-50L1-190h34L92-34l54-156h33" id="aj"/><g id="i"><use transform="matrix(0.06172839506172839,0,0,0.06172839506172839,0,0)" xlink:href="#ai"/><use transform="matrix(0.06172839506172839,0,0,0.06172839506172839,12.345679012345679,0)" xlink:href="#aj"/></g><path fill="#333" d="M84 4C-5 8 30-112 23-190h32v120c0 31 7 50 39 49 72-2 45-101 50-169h31l1 190h-30c-1-10 1-25-2-33-11 22-28 36-60 37" id="ak"/><g id="j"><use transform="matrix(0.06172839506172839,0,0,0.06172839506172839,0,0)" xlink:href="#aj"/><use transform="matrix(0.06172839506172839,0,0,0.06172839506172839,11.11111111111111,0)" xlink:href="#t"/><use transform="matrix(0.06172839506172839,0,0,0.06172839506172839,23.45679012345679,0)" xlink:href="#ak"/></g><path fill="#333" d="M117-194c89-4 53 116 60 194h-32v-121c0-31-8-49-39-48C34-167 62-67 57 0H25l-1-190h30c1 10-1 24 2 32 11-22 29-35 61-36" id="al"/><g id="k"><use transform="matrix(0.06172839506172839,0,0,0.06172839506172839,0,0)" xlink:href="#ad"/><use transform="matrix(0.06172839506172839,0,0,0.06172839506172839,17.28395061728395,0)" xlink:href="#ae"/><use transform="matrix(0.06172839506172839,0,0,0.06172839506172839,29.629629629629626,0)" xlink:href="#w"/><use transform="matrix(0.06172839506172839,0,0,0.06172839506172839,41.9753086419753,0)" xlink:href="#al"/></g><g id="l"><use transform="matrix(0.06172839506172839,0,0,0.06172839506172839,0,0)" xlink:href="#z"/><use transform="matrix(0.06172839506172839,0,0,0.06172839506172839,11.11111111111111,0)" xlink:href="#t"/><use transform="matrix(0.06172839506172839,0,0,0.06172839506172839,23.45679012345679,0)" xlink:href="#ak"/><use transform="matrix(0.06172839506172839,0,0,0.06172839506172839,35.80246913580247,0)" xlink:href="#u"/><use transform="matrix(0.06172839506172839,0,0,0.06172839506172839,43.148148148148145,0)" xlink:href="#y"/><use transform="matrix(0.06172839506172839,0,0,0.06172839506172839,54.25925925925925,0)" xlink:href="#w"/></g><path fill="#333" d="M16-82v-28h88v28H16" id="am"/><use transform="matrix(0.06172839506172839,0,0,0.06172839506172839,0,0)" xlink:href="#am" id="m"/><g id="n"><use transform="matrix(0.06172839506172839,0,0,0.06172839506172839,0,0)" xlink:href="#t"/><use transform="matrix(0.06172839506172839,0,0,0.06172839506172839,12.345679012345679,0)" xlink:href="#ae"/><use transform="matrix(0.06172839506172839,0,0,0.06172839506172839,24.691358024691358,0)" xlink:href="#w"/><use transform="matrix(0.06172839506172839,0,0,0.06172839506172839,37.03703703703704,0)" xlink:href="#u"/><use transform="matrix(0.06172839506172839,0,0,0.06172839506172839,44.382716049382715,0)" xlink:href="#af"/><use transform="matrix(0.06172839506172839,0,0,0.06172839506172839,56.72839506172839,0)" xlink:href="#ag"/><use transform="matrix(0.06172839506172839,0,0,0.06172839506172839,62.901234567901234,0)" xlink:href="#w"/><use transform="matrix(0.06172839506172839,0,0,0.06172839506172839,75.24691358024691,0)" xlink:href="#ah"/></g><g id="o"><use transform="matrix(0.06172839506172839,0,0,0.06172839506172839,0,0)" xlink:href="#aj"/><use transform="matrix(0.06172839506172839,0,0,0.06172839506172839,11.11111111111111,0)" xlink:href="#t"/><use transform="matrix(0.06172839506172839,0,0,0.06172839506172839,23.45679012345679,0)" xlink:href="#ak"/></g><path fill="#333" d="M127-220V0H93v-220H8v-28h204v28h-85" id="an"/><path fill="#333" d="M210-169c-67 3-38 105-44 169h-31v-121c0-29-5-50-35-48C34-165 62-65 56 0H25l-1-190h30c1 10-1 24 2 32 10-44 99-50 107 0 11-21 27-35 58-36 85-2 47 119 55 194h-31v-121c0-29-5-49-35-48" id="ao"/><path fill="#333" d="M24 0v-261h32V0H24" id="ap"/><g id="p"><use transform="matrix(0.06172839506172839,0,0,0.06172839506172839,0,0)" xlink:href="#an"/><use transform="matrix(0.06172839506172839,0,0,0.06172839506172839,11.049382716049381,0)" xlink:href="#w"/><use transform="matrix(0.06172839506172839,0,0,0.06172839506172839,23.39506172839506,0)" xlink:href="#ao"/><use transform="matrix(0.06172839506172839,0,0,0.06172839506172839,41.85185185185185,0)" xlink:href="#ae"/><use transform="matrix(0.06172839506172839,0,0,0.06172839506172839,54.197530864197525,0)" xlink:href="#t"/><use transform="matrix(0.06172839506172839,0,0,0.06172839506172839,66.5432098765432,0)" xlink:href="#u"/><use transform="matrix(0.06172839506172839,0,0,0.06172839506172839,73.88888888888889,0)" xlink:href="#af"/><use transform="matrix(0.06172839506172839,0,0,0.06172839506172839,86.23456790123457,0)" xlink:href="#ap"/></g><path fill="#333" d="M212-179c-10-28-35-45-73-45-59 0-87 40-87 99 0 60 29 101 89 101 43 0 62-24 78-52l27 14C228-24 195 4 139 4 59 4 22-46 18-125c-6-104 99-153 187-111 19 9 31 26 39 46" id="aq"/><g id="q"><use transform="matrix(0.06172839506172839,0,0,0.06172839506172839,0,0)" xlink:href="#aq"/><use transform="matrix(0.06172839506172839,0,0,0.06172839506172839,15.987654320987653,0)" xlink:href="#ap"/><use transform="matrix(0.06172839506172839,0,0,0.06172839506172839,20.864197530864196,0)" xlink:href="#t"/><use transform="matrix(0.06172839506172839,0,0,0.06172839506172839,33.20987654320987,0)" xlink:href="#ak"/><use transform="matrix(0.06172839506172839,0,0,0.06172839506172839,45.55555555555555,0)" xlink:href="#ah"/></g><g id="r"><use transform="matrix(0.06172839506172839,0,0,0.06172839506172839,0,0)" xlink:href="#ak"/><use transform="matrix(0.06172839506172839,0,0,0.06172839506172839,12.345679012345679,0)" xlink:href="#z"/></g></defs></g></svg>