<svg xmlns="http://www.w3.org/2000/svg" xmlns:xlink="http://www.w3.org/1999/xlink" xmlns:lucid="lucid" width="1224.25" height="516.22"><g transform="translate(-162.6771653543307 -228.18897637795277)" lucid:page-tab-id="0_0"><path d="M182.68 497.34c0-3.32 2.68-6 6-6h1172.25c3.3 0 6 2.68 6 6v151.78c0 3.3-2.7 6-6 6H188.68c-3.32 0-6-2.7-6-6z" fill-opacity="0"/><path d="M200.72 491.34h8.03m8.03 0h8.03m8.04 0h8.03m8.03 0h8.02m8.03 0h8.03m8.03 0h8.04m8.03 0h8.03m8.03 0h8.03m8.03 0h8.02m8.03 0h8.02m8.03 0h8.03m8.03 0h8.03m8.02 0h8.03m8.03 0h8.03m8.04 0h8.03m8.02 0h8.02m8.03 0h8.03m8.03 0h8.04m8.03 0h8.03m8.03 0h8.03m8.03 0h8m8.04 0h8.03m8.03 0h8.03m8.03 0h8.03m8.02 0h8.03m8.03 0h8.03m8.04 0h8.02m8.03 0h8.02m8.03 0h8.03m8.03 0h8.04m8.03 0h8.03m8.03 0h8.03m8.02 0h8.03m8.04 0h8.03m8.03 0h8.03m8.03 0h8.03m8.02 0h8.03m8.03 0h8.03m8.03 0h8.03m8.03 0H835m8.03 0h8.03m8.03 0h8.04m8.03 0h8.03m8.03 0h8.02m8.03 0h8.03m8.04 0h8.03m8.03 0h8.03m8.03 0h8.03m8.02 0h8.03m8.02 0h8.03m8.03 0h8.03m8.03 0h8.02m8.03 0h8.03m8.03 0h8.04m8.03 0h8.03m8.02 0h8.03m8.03 0h8.03m8.04 0h8.03m8.03 0h8.03m8.03 0h8.03m8.02 0h8.02m8.03 0h8.03m8.03 0h8.03m8.03 0h8.02m8.03 0h8.03m8.03 0h8.04m8.03 0h8.02m8.02 0h8.03m8.03 0h8.03m8.04 0h8.03m8.03 0h8.03m8.03 0h8.03m8 0h4.03l3.03.82 2.15 2.15.83 3.04v4.2m0 8.45v8.42m0 8.43v8.43m0 8.44v8.43m0 8.43V569m0 8.44v8.44m0 8.43v8.44m0 8.43v8.44m0 8.44v8.43m0 8.43v4.22l-.82 3.03-2.14 2.15-3.03.82h-4.02m-8 0h-8.04m-8.03 0h-8.03m-8.03 0h-8.03m-8.03 0h-8.02m-8.03 0h-8.03m-8.03 0h-8.03m-8.03 0h-8.03m-8.02 0h-8.03m-8.03 0h-8.03m-8.04 0h-8.03m-8.03 0h-8.03m-8.03 0h-8.02m-8.03 0h-8.04m-8.03 0h-8.03m-8.03 0h-8.03m-8.03 0H1100m-8.03 0h-8.03m-8.02 0h-8.03m-8.03 0h-8.03m-8.02 0h-8.03m-8.03 0h-8.03m-8.04 0h-8.03m-8.03 0h-8.03m-8.02 0h-8.03m-8.03 0h-8.04m-8.03 0h-8.03m-8.03 0h-8.03m-8.03 0h-8.02m-8.03 0h-8.02m-8.03 0h-8.03m-8.03 0h-8.03m-8.02 0h-8.03m-8.03 0H827m-8.04 0h-8.03m-8.02 0h-8.02m-8.03 0h-8.03m-8.03 0h-8.04m-8.03 0h-8.03m-8.03 0h-8.03m-8.03 0h-8.02m-8.02 0h-8.03m-8.03 0h-8.03m-8.03 0h-8.03m-8.02 0h-8.03m-8.03 0h-8.03m-8.04 0h-8.02m-8.03 0h-8.02m-8.03 0h-8.03m-8.03 0h-8.04m-8.03 0H554m-8.03 0h-8.03m-8.03 0h-8m-8.04 0h-8.03m-8.03 0h-8.03m-8.03 0h-8.03m-8.02 0h-8.03m-8.03 0h-8.03m-8.03 0h-8.03m-8.03 0h-8.02m-8.03 0h-8.03m-8.03 0h-8.04m-8.03 0h-8.03m-8.03 0h-8.02m-8.03 0h-8.03m-8.04 0h-8.03m-8.03 0h-8.03m-8.03 0H281m-8.02 0h-8.03m-8.03 0h-8.02m-8.03 0h-8.03m-8.03 0h-8.02m-8.03 0h-8.03m-8.03 0h-4.02l-3.03-.82-2.15-2.15-.82-3.03v-4.22m0-8.43v-8.43m0-8.43v-8.43m0-8.43v-8.43m0-8.42v-8.44m0-8.43v-8.42m0-8.43v-8.43m0-8.44v-8.43m0-8.43V510m0-8.45v-4.2l.82-3.04 2.15-2.14 3.03-.82h4" stroke="#333" stroke-width="2" fill="none"/><path d="M688.14 254.2c0-3.32 2.7-6 6-6h163.8c3.32 0 6 2.68 6 6v108c0 3.3-2.68 6-6 6h-163.8c-3.3 0-6-2.7-6-6z" stroke="#333" stroke-width="2" fill="#fff"/><use xlink:href="#a" transform="matrix(1,0,0,1,700.1420929254072,260.18897637795277) translate(42.96296296296297 50.22222222222222)"/><path d="M203.78 519.07c0-3.3 2.7-6 6-6h163.8c3.32 0 6 2.7 6 6v108c0 3.3-2.68 6-6 6h-163.8c-3.3 0-6-2.7-6-6z" stroke="#333" stroke-width="2" fill="#fff"/><use xlink:href="#b" transform="matrix(1,0,0,1,215.779527559055,525.0708661417324) translate(33.11111111111112 50.22222222222222)"/><path d="M397.47 519.07c0-3.3 2.7-6 6-6h163.8c3.32 0 6 2.7 6 6v108c0 3.3-2.68 6-6 6h-163.8c-3.3 0-6-2.7-6-6z" stroke="#333" stroke-width="2" fill="#fff"/><use xlink:href="#c" transform="matrix(1,0,0,1,409.4690949890805,525.0708661417324) translate(1.580246913580254 50.22222222222222)"/><path d="M978.54 519.07c0-3.3 2.68-6 6-6h163.8c3.32 0 6 2.7 6 6v108c0 3.3-2.68 6-6 6h-163.8c-3.32 0-6-2.7-6-6z" stroke="#333" stroke-width="2" fill="#fff"/><use xlink:href="#d" transform="matrix(1,0,0,1,990.5377972791566,525.0708661417324) translate(51.876543209876544 50.22222222222222)"/><path d="M591.16 519.07c0-3.3 2.68-6 6-6h163.8c3.32 0 6 2.7 6 6v108c0 3.3-2.68 6-6 6h-163.8c-3.32 0-6-2.7-6-6z" stroke="#333" stroke-width="2" fill="#fff"/><use xlink:href="#e" transform="matrix(1,0,0,1,603.1586624191059,525.0708661417324) translate(32.14814814814816 50.22222222222222)"/><path d="M784.85 519.07c0-3.3 2.68-6 6-6h163.8c3.32 0 6 2.7 6 6v108c0 3.3-2.68 6-6 6h-163.8c-3.32 0-6-2.7-6-6z" stroke="#333" stroke-width="2" fill="#fff"/><use xlink:href="#f" transform="matrix(1,0,0,1,796.8482298491314,525.0708661417324) translate(36.567901234567906 50.22222222222222)"/><path d="M1172.23 519.07c0-3.3 2.68-6 6-6h163.8c3.32 0 6 2.7 6 6v108c0 3.3-2.68 6-6 6h-163.8c-3.32 0-6-2.7-6-6z" stroke="#333" stroke-width="2" fill="#fff"/><use xlink:href="#g" transform="matrix(1,0,0,1,1184.2273647091824,525.0708661417324) translate(34.91358024691359 50.22222222222222)"/><use xlink:href="#h" transform="matrix(1,0,0,1,1184.2273647091824,525.0708661417324) translate(88.44444444444444 50.22222222222222)"/><path d="M776.04 370.2v64.43c0 3.3-2.68 6-6 6H297.68c-3.3 0-6 2.7-6 6v46.94" stroke="#333" stroke-width="2" fill="none"/><path d="M777.04 370.2h-2v-1h2z" fill="#333"/><path d="M291.68 508.83l-4.63-14.26h9.27z" stroke="#333" stroke-width="2" fill="#333"/><path d="M776.04 370.2v64.43c0 3.3-2.68 6-6 6h-84.98c-3.3 0-6 2.7-6 6v46.94" stroke="#333" stroke-width="2" fill="none"/><path d="M777.04 370.2h-2v-1h2z" fill="#333"/><path d="M679.06 508.83l-4.63-14.26h9.27z" stroke="#333" stroke-width="2" fill="#333"/><path d="M776.04 370.2v64.43c0 3.3 2.7 6 6 6h84.7c3.32 0 6 2.7 6 6v46.94" stroke="#333" stroke-width="2" fill="none"/><path d="M777.04 370.2h-2v-1h2z" fill="#333"/><path d="M872.75 508.83l-4.63-14.26h9.27z" stroke="#333" stroke-width="2" fill="#333"/><path d="M776.04 370.2v64.43c0 3.3 2.7 6 6 6h278.4c3.3 0 6 2.7 6 6v46.94" stroke="#333" stroke-width="2" fill="none"/><path d="M777.04 370.2h-2v-1h2z" fill="#333"/><path d="M1066.44 508.83l-4.64-14.26h9.28z" stroke="#333" stroke-width="2" fill="#333"/><path d="M776.04 370.2v64.43c0 3.3 2.7 6 6 6h472.1c3.3 0 6 2.7 6 6v46.94" stroke="#333" stroke-width="2" fill="none"/><path d="M777.04 370.2h-2v-1h2z" fill="#333"/><path d="M1260.13 508.83l-4.64-14.26h9.26z" stroke="#333" stroke-width="2" fill="#333"/><path d="M776.04 370.2v64.43c0 3.3-2.68 6-6 6H491.37c-3.3 0-6 2.7-6 6v46.94" stroke="#333" stroke-width="2" fill="none"/><path d="M777.04 370.2h-2v-1h2z" fill="#333"/><path d="M485.37 508.83l-4.63-14.26H490z" stroke="#333" stroke-width="2" fill="#333"/><path d="M721.26 686.3c0-3.3 2.7-6 6-6h95.1c3.3 0 6 2.7 6 6v32.1c0 3.32-2.7 6-6 6h-95.1c-3.3 0-6-2.68-6-6z" stroke="#000" stroke-opacity="0" stroke-width="3" fill-opacity="0"/><use xlink:href="#i" transform="matrix(1,0,0,1,726.2598425196849,685.3149606299212) translate(14.49382716049383 22.15277777777778)"/><path d="M774.8 679.3v-22.18" stroke="#333" stroke-width="2" fill="none"/><path d="M775.8 680.3h-2v-1h2zM775.8 657.14h-2v-1.02h2z" fill="#333"/><defs><path fill="#333" d="M233-177c-1 41-23 64-60 70L243 0h-38l-65-103H63V0H30v-248c88 3 205-21 203 71zM63-129c60-2 137 13 137-47 0-61-80-42-137-45v92" id="j"/><path fill="#333" d="M84 4C-5 8 30-112 23-190h32v120c0 31 7 50 39 49 72-2 45-101 50-169h31l1 190h-30c-1-10 1-25-2-33-11 22-28 36-60 37" id="k"/><path fill="#333" d="M117-194c89-4 53 116 60 194h-32v-121c0-31-8-49-39-48C34-167 62-67 57 0H25l-1-190h30c1 10-1 24 2 32 11-22 29-35 61-36" id="l"/><path fill="#333" d="M24-231v-30h32v30H24zM24 0v-190h32V0H24" id="m"/><path fill="#333" d="M177-190C167-65 218 103 67 71c-23-6-38-20-44-43l32-5c15 47 100 32 89-28v-30C133-14 115 1 83 1 29 1 15-40 15-95c0-56 16-97 71-98 29-1 48 16 59 35 1-10 0-23 2-32h30zM94-22c36 0 50-32 50-73 0-42-14-75-50-75-39 0-46 34-46 75s6 73 46 73" id="n"/><g id="a"><use transform="matrix(0.049382716049382706,0,0,0.049382716049382706,0,0)" xlink:href="#j"/><use transform="matrix(0.049382716049382706,0,0,0.049382716049382706,12.790123456790122,0)" xlink:href="#k"/><use transform="matrix(0.049382716049382706,0,0,0.049382716049382706,22.666666666666664,0)" xlink:href="#l"/><use transform="matrix(0.049382716049382706,0,0,0.049382716049382706,32.5432098765432,0)" xlink:href="#l"/><use transform="matrix(0.049382716049382706,0,0,0.049382716049382706,42.419753086419746,0)" xlink:href="#m"/><use transform="matrix(0.049382716049382706,0,0,0.049382716049382706,46.32098765432098,0)" xlink:href="#l"/><use transform="matrix(0.049382716049382706,0,0,0.049382716049382706,56.19753086419752,0)" xlink:href="#n"/></g><path fill="#333" d="M212-179c-10-28-35-45-73-45-59 0-87 40-87 99 0 60 29 101 89 101 43 0 62-24 78-52l27 14C228-24 195 4 139 4 59 4 22-46 18-125c-6-104 99-153 187-111 19 9 31 26 39 46" id="o"/><path fill="#333" d="M100-194c62-1 85 37 85 99 1 63-27 99-86 99S16-35 15-95c0-66 28-99 85-99zM99-20c44 1 53-31 53-75 0-43-8-75-51-75s-53 32-53 75 10 74 51 75" id="p"/><path fill="#333" d="M210-169c-67 3-38 105-44 169h-31v-121c0-29-5-50-35-48C34-165 62-65 56 0H25l-1-190h30c1 10-1 24 2 32 10-44 99-50 107 0 11-21 27-35 58-36 85-2 47 119 55 194h-31v-121c0-29-5-49-35-48" id="q"/><path fill="#333" d="M115-194c55 1 70 41 70 98S169 2 115 4C84 4 66-9 55-30l1 105H24l-1-265h31l2 30c10-21 28-34 59-34zm-8 174c40 0 45-34 45-75s-6-73-45-74c-42 0-51 32-51 76 0 43 10 73 51 73" id="r"/><path fill="#333" d="M24 0v-261h32V0H24" id="s"/><path fill="#333" d="M100-194c63 0 86 42 84 106H49c0 40 14 67 53 68 26 1 43-12 49-29l28 8c-11 28-37 45-77 45C44 4 14-33 15-96c1-61 26-98 85-98zm52 81c6-60-76-77-97-28-3 7-6 17-6 28h103" id="t"/><path fill="#333" d="M59-47c-2 24 18 29 38 22v24C64 9 27 4 27-40v-127H5v-23h24l9-43h21v43h35v23H59v120" id="u"/><path fill="#333" d="M85-194c31 0 48 13 60 33l-1-100h32l1 261h-30c-2-10 0-23-3-31C134-8 116 4 85 4 32 4 16-35 15-94c0-66 23-100 70-100zm9 24c-40 0-46 34-46 75 0 40 6 74 45 74 42 0 51-32 51-76 0-42-9-74-50-73" id="v"/><g id="b"><use transform="matrix(0.049382716049382706,0,0,0.049382716049382706,0,0)" xlink:href="#o"/><use transform="matrix(0.049382716049382706,0,0,0.049382716049382706,12.790123456790122,0)" xlink:href="#p"/><use transform="matrix(0.049382716049382706,0,0,0.049382716049382706,22.666666666666664,0)" xlink:href="#q"/><use transform="matrix(0.049382716049382706,0,0,0.049382716049382706,37.432098765432094,0)" xlink:href="#r"/><use transform="matrix(0.049382716049382706,0,0,0.049382716049382706,47.30864197530863,0)" xlink:href="#s"/><use transform="matrix(0.049382716049382706,0,0,0.049382716049382706,51.209876543209866,0)" xlink:href="#t"/><use transform="matrix(0.049382716049382706,0,0,0.049382716049382706,61.08641975308641,0)" xlink:href="#u"/><use transform="matrix(0.049382716049382706,0,0,0.049382716049382706,66.02469135802467,0)" xlink:href="#t"/><use transform="matrix(0.049382716049382706,0,0,0.049382716049382706,75.90123456790121,0)" xlink:href="#v"/></g><path fill="#333" d="M16-82v-28h88v28H16" id="w"/><path fill="#333" d="M205 0l-28-72H64L36 0H1l101-248h38L239 0h-34zm-38-99l-47-123c-12 45-31 82-46 123h93" id="x"/><path fill="#333" d="M135-143c-3-34-86-38-87 0 15 53 115 12 119 90S17 21 10-45l28-5c4 36 97 45 98 0-10-56-113-15-118-90-4-57 82-63 122-42 12 7 21 19 24 35" id="y"/><path fill="#333" d="M190 0L58-211 59 0H30v-248h39L202-35l-2-213h31V0h-41" id="z"/><path fill="#333" d="M206 0h-36l-40-164L89 0H53L-1-190h32L70-26l43-164h34l41 164 42-164h31" id="A"/><g id="c"><use transform="matrix(0.049382716049382706,0,0,0.049382716049382706,0,0)" xlink:href="#o"/><use transform="matrix(0.049382716049382706,0,0,0.049382716049382706,12.790123456790122,0)" xlink:href="#p"/><use transform="matrix(0.049382716049382706,0,0,0.049382716049382706,22.666666666666664,0)" xlink:href="#l"/><use transform="matrix(0.049382716049382706,0,0,0.049382716049382706,32.5432098765432,0)" xlink:href="#u"/><use transform="matrix(0.049382716049382706,0,0,0.049382716049382706,37.481481481481474,0)" xlink:href="#m"/><use transform="matrix(0.049382716049382706,0,0,0.049382716049382706,41.38271604938271,0)" xlink:href="#l"/><use transform="matrix(0.049382716049382706,0,0,0.049382716049382706,51.25925925925925,0)" xlink:href="#k"/><use transform="matrix(0.049382716049382706,0,0,0.049382716049382706,61.135802469135804,0)" xlink:href="#t"/><use transform="matrix(0.049382716049382706,0,0,0.049382716049382706,71.01234567901234,0)" xlink:href="#v"/><use transform="matrix(0.049382716049382706,0,0,0.049382716049382706,80.88888888888889,0)" xlink:href="#w"/><use transform="matrix(0.049382716049382706,0,0,0.049382716049382706,86.76543209876543,0)" xlink:href="#x"/><use transform="matrix(0.049382716049382706,0,0,0.049382716049382706,98.61728395061728,0)" xlink:href="#y"/><use transform="matrix(0.049382716049382706,0,0,0.049382716049382706,107.50617283950618,0)" xlink:href="#w"/><use transform="matrix(0.049382716049382706,0,0,0.049382716049382706,113.38271604938272,0)" xlink:href="#z"/><use transform="matrix(0.049382716049382706,0,0,0.049382716049382706,126.17283950617283,0)" xlink:href="#t"/><use transform="matrix(0.049382716049382706,0,0,0.049382716049382706,136.04938271604937,0)" xlink:href="#A"/></g><path fill="#333" d="M63-220v92h138v28H63V0H30v-248h175v28H63" id="B"/><path fill="#333" d="M141-36C126-15 110 5 73 4 37 3 15-17 15-53c-1-64 63-63 125-63 3-35-9-54-41-54-24 1-41 7-42 31l-33-3c5-37 33-52 76-52 45 0 72 20 72 64v82c-1 20 7 32 28 27v20c-31 9-61-2-59-35zM48-53c0 20 12 33 32 33 41-3 63-29 60-74-43 2-92-5-92 41" id="C"/><g id="d"><use transform="matrix(0.049382716049382706,0,0,0.049382716049382706,0,0)" xlink:href="#B"/><use transform="matrix(0.049382716049382706,0,0,0.049382716049382706,10.814814814814813,0)" xlink:href="#C"/><use transform="matrix(0.049382716049382706,0,0,0.049382716049382706,20.691358024691354,0)" xlink:href="#m"/><use transform="matrix(0.049382716049382706,0,0,0.049382716049382706,24.592592592592588,0)" xlink:href="#s"/><use transform="matrix(0.049382716049382706,0,0,0.049382716049382706,28.493827160493822,0)" xlink:href="#t"/><use transform="matrix(0.049382716049382706,0,0,0.049382716049382706,38.37037037037037,0)" xlink:href="#v"/></g><path fill="#333" d="M127-220V0H93v-220H8v-28h204v28h-85" id="D"/><path fill="#333" d="M114-163C36-179 61-72 57 0H25l-1-190h30c1 12-1 29 2 39 6-27 23-49 58-41v29" id="E"/><g id="e"><use transform="matrix(0.049382716049382706,0,0,0.049382716049382706,0,0)" xlink:href="#D"/><use transform="matrix(0.049382716049382706,0,0,0.049382716049382706,8.839506172839505,0)" xlink:href="#t"/><use transform="matrix(0.049382716049382706,0,0,0.049382716049382706,18.716049382716044,0)" xlink:href="#E"/><use transform="matrix(0.049382716049382706,0,0,0.049382716049382706,24.592592592592585,0)" xlink:href="#q"/><use transform="matrix(0.049382716049382706,0,0,0.049382716049382706,39.35802469135801,0)" xlink:href="#m"/><use transform="matrix(0.049382716049382706,0,0,0.049382716049382706,43.259259259259245,0)" xlink:href="#l"/><use transform="matrix(0.049382716049382706,0,0,0.049382716049382706,53.13580246913578,0)" xlink:href="#C"/><use transform="matrix(0.049382716049382706,0,0,0.049382716049382706,63.01234567901232,0)" xlink:href="#u"/><use transform="matrix(0.049382716049382706,0,0,0.049382716049382706,67.95061728395059,0)" xlink:href="#t"/><use transform="matrix(0.049382716049382706,0,0,0.049382716049382706,77.82716049382714,0)" xlink:href="#v"/></g><path fill="#333" d="M96-169c-40 0-48 33-48 73s9 75 48 75c24 0 41-14 43-38l32 2c-6 37-31 61-74 61-59 0-76-41-82-99-10-93 101-131 147-64 4 7 5 14 7 22l-32 3c-4-21-16-35-41-35" id="F"/><g id="f"><use transform="matrix(0.049382716049382706,0,0,0.049382716049382706,0,0)" xlink:href="#o"/><use transform="matrix(0.049382716049382706,0,0,0.049382716049382706,12.790123456790122,0)" xlink:href="#C"/><use transform="matrix(0.049382716049382706,0,0,0.049382716049382706,22.666666666666664,0)" xlink:href="#l"/><use transform="matrix(0.049382716049382706,0,0,0.049382716049382706,32.5432098765432,0)" xlink:href="#F"/><use transform="matrix(0.049382716049382706,0,0,0.049382716049382706,41.43209876543209,0)" xlink:href="#t"/><use transform="matrix(0.049382716049382706,0,0,0.049382716049382706,51.30864197530863,0)" xlink:href="#s"/><use transform="matrix(0.049382716049382706,0,0,0.049382716049382706,55.209876543209866,0)" xlink:href="#s"/><use transform="matrix(0.049382716049382706,0,0,0.049382716049382706,59.1111111111111,0)" xlink:href="#t"/><use transform="matrix(0.049382716049382706,0,0,0.049382716049382706,68.98765432098764,0)" xlink:href="#v"/></g><g id="g"><use transform="matrix(0.049382716049382706,0,0,0.049382716049382706,0,0)" xlink:href="#D"/><use transform="matrix(0.049382716049382706,0,0,0.049382716049382706,10.172839506172838,0)" xlink:href="#m"/><use transform="matrix(0.049382716049382706,0,0,0.049382716049382706,14.07407407407407,0)" xlink:href="#q"/><use transform="matrix(0.049382716049382706,0,0,0.049382716049382706,28.8395061728395,0)" xlink:href="#t"/><use transform="matrix(0.049382716049382706,0,0,0.049382716049382706,38.71604938271604,0)" xlink:href="#v"/></g><path fill="#333" d="M140-251c81 0 123 46 123 126C263-46 219 4 140 4 59 4 17-45 17-125s42-126 123-126zm0 227c63 0 89-41 89-101s-29-99-89-99c-61 0-89 39-89 99S79-25 140-24" id="G"/><g id="h"><use transform="matrix(0.049382716049382706,0,0,0.049382716049382706,0,0)" xlink:href="#G"/><use transform="matrix(0.049382716049382706,0,0,0.049382716049382706,13.827160493827158,0)" xlink:href="#k"/><use transform="matrix(0.049382716049382706,0,0,0.049382716049382706,23.7037037037037,0)" xlink:href="#u"/></g><g id="i"><use transform="matrix(0.06172839506172839,0,0,0.06172839506172839,0,0)" xlink:href="#o"/><use transform="matrix(0.06172839506172839,0,0,0.06172839506172839,15.987654320987653,0)" xlink:href="#s"/><use transform="matrix(0.06172839506172839,0,0,0.06172839506172839,20.864197530864196,0)" xlink:href="#p"/><use transform="matrix(0.06172839506172839,0,0,0.06172839506172839,33.20987654320987,0)" xlink:href="#y"/><use transform="matrix(0.06172839506172839,0,0,0.06172839506172839,44.32098765432099,0)" xlink:href="#t"/><use transform="matrix(0.06172839506172839,0,0,0.06172839506172839,56.666666666666664,0)" xlink:href="#v"/></g></defs></g></svg>