<svg xmlns="http://www.w3.org/2000/svg" xmlns:xlink="http://www.w3.org/1999/xlink" xmlns:lucid="lucid" width="1040" height="541"><g transform="translate(-380 -180)" lucid:page-tab-id="0_0"><path d="M0 0h1870.87v1322.83H0z" fill="#fff"/><path d="M400 306c0-3.3 2.7-6 6-6h188c3.3 0 6 2.7 6 6v288c0 3.3-2.7 6-6 6H406c-3.3 0-6-2.7-6-6z" stroke="#282c33" fill="#fff"/><use xlink:href="#a" transform="translate(437.062 454.847)"/><use xlink:href="#b" transform="translate(498.79 454.847)"/><path d="M800 306c0-3.3 2.7-6 6-6h188c3.3 0 6 2.7 6 6v288c0 3.3-2.7 6-6 6H806c-3.3 0-6-2.7-6-6zm400 0c0-3.3 2.7-6 6-6h188c3.3 0 6 2.7 6 6v288c0 3.3-2.7 6-6 6h-188c-3.3 0-6-2.7-6-6z" stroke="#282c33" fill="#fff"/><path d="M820 326c0-3.3 2.7-6 6-6h148c3.3 0 6 2.7 6 6v108c0 3.3-2.7 6-6 6H826c-3.3 0-6-2.7-6-6z" stroke="#282c33" fill="#fff"/><use xlink:href="#c" transform="translate(843.012 382.972)"/><use xlink:href="#d" transform="translate(920.494 382.972)"/><path d="M820 466c0-3.3 2.7-6 6-6h148c3.3 0 6 2.7 6 6v108c0 3.3-2.7 6-6 6H826c-3.3 0-6-2.7-6-6z" stroke="#282c33" fill="#fff"/><use xlink:href="#e" transform="translate(851.185 522.972)"/><use xlink:href="#d" transform="translate(912.321 522.972)"/><path d="M1220 326c0-3.3 2.7-6 6-6h148c3.3 0 6 2.7 6 6v108c0 3.3-2.7 6-6 6h-148c-3.3 0-6-2.7-6-6z" stroke="#282c33" fill="#fff"/><use xlink:href="#f" transform="translate(1263.728 371.722)"/><use xlink:href="#g" transform="translate(1252.617 393.056)"/><use xlink:href="#h" transform="translate(1294.05 393.056)"/><path d="M1220 466c0-3.3 2.7-6 6-6h148c3.3 0 6 2.7 6 6v108c0 3.3-2.7 6-6 6h-148c-3.3 0-6-2.7-6-6z" stroke="#282c33" fill="#fff"/><use xlink:href="#i" transform="translate(1271.901 511.722)"/><use xlink:href="#j" transform="translate(1252.617 533.056)"/><use xlink:href="#h" transform="translate(1294.05 533.056)"/><path d="M1040.92 500H1160v40h-119.08z" stroke="#282c33" fill="#fff"/><use xlink:href="#k" transform="translate(1088.078 524.222)"/><path d="M1219 520h-58" stroke="#282c33" fill="none"/><path d="M1219.5 520.5h-.5v-1h.5zm-58.5 0h-.5v-1h.5z" stroke="#282c33" stroke-width=".05" fill="#282c33"/><path d="M1039.92 520H981" stroke="#282c33" fill="none"/><path d="M1040.42 520.5h-.5v-1h.5zm-59.42 0h-.5v-1h.5z" stroke="#282c33" stroke-width=".05" fill="#282c33"/><path d="M1040 360h119.08v40H1040z" stroke="#282c33" fill="#fff"/><use xlink:href="#k" transform="translate(1087.154 384.222)"/><path d="M1219 380h-58.92" stroke="#282c33" fill="none"/><path d="M1219.5 380.5h-.5v-1h.5zm-59.4 0h-.52v-1h.5z" stroke="#282c33" stroke-width=".05" fill="#282c33"/><path d="M1039 380h-58" stroke="#282c33" fill="none"/><path d="M1039.5 380.5h-.5v-1h.5zm-58.5 0h-.5v-1h.5z" stroke="#282c33" stroke-width=".05" fill="#282c33"/><path d="M639.92 380H601" stroke="#282c33" fill="none"/><path d="M640.42 380.5h-.5v-1h.5zm-39.42 0h-.5v-1h.5z" stroke="#282c33" stroke-width=".05" fill="#282c33"/><path d="M819 380h-58" stroke="#282c33" fill="none"/><path d="M819.5 380.5h-.5v-1h.5zm-58.5 0h-.5v-1h.5z" stroke="#282c33" stroke-width=".05" fill="#282c33"/><path d="M819 520h-58" stroke="#282c33" fill="none"/><path d="M819.5 520.5h-.5v-1h.5zm-58.5 0h-.5v-1h.5z" stroke="#282c33" stroke-width=".05" fill="#282c33"/><path d="M639.92 520H601" stroke="#282c33" fill="none"/><path d="M640.42 520.5h-.5v-1h.5zm-39.42 0h-.5v-1h.5z" stroke="#282c33" stroke-width=".05" fill="#282c33"/><path d="M640.92 360H760v40H640.92z" stroke="#282c33" fill="#fff"/><use xlink:href="#l" transform="translate(688.078 384.222)"/><path d="M640.92 500H760v40H640.92z" stroke="#282c33" fill="#fff"/><use xlink:href="#l" transform="translate(688.078 524.222)"/><path d="M620.46 446c0-3.3 2.7-6 6-6h148c3.32 0 6 2.7 6 6v8c0 3.3-2.68 6-6 6h-148c-3.3 0-6-2.7-6-6z" fill="none"/><use xlink:href="#m" transform="translate(635.647 455.667)"/><use xlink:href="#n" transform="translate(698.61 455.667)"/><use xlink:href="#o" transform="translate(711.202 455.667)"/><path d="M1020.46 446c0-3.3 2.7-6 6-6h148c3.32 0 6 2.7 6 6v8c0 3.3-2.68 6-6 6h-148c-3.3 0-6-2.7-6-6z" fill="none"/><use xlink:href="#p" transform="translate(1070.832 455.667)"/><path d="M761 260h532.07c3.3 0 6 2.7 6 6v33" stroke="#282c33" fill="none"/><path d="M761 260.5h-.5v-1h.5zm538.57 39h-1v-.5h1z" stroke="#282c33" stroke-width=".05" fill="#282c33"/><path d="M500 299v-33c0-3.3 2.7-6 6-6h133.92" stroke="#282c33" fill="none"/><path d="M500.5 299.5h-1v-.5h1zm139.92-39h-.5v-1h.5z" stroke="#282c33" stroke-width=".05" fill="#282c33"/><path d="M761 640h532.07c3.3 0 6-2.7 6-6v-33" stroke="#282c33" fill="none"/><path d="M761 640.5h-.5v-1h.5zm538.57-39.5h-1v-.5h1z" stroke="#282c33" stroke-width=".05" fill="#282c33"/><path d="M500 601v33c0 3.3 2.7 6 6 6h133.92" stroke="#282c33" fill="none"/><path d="M500.5 601h-1v-.5h1zm139.92 39.5h-.5v-1h.5z" stroke="#282c33" stroke-width=".05" fill="#282c33"/><path d="M640.92 620H760v40H640.92z" stroke="#282c33" fill="#fff"/><use xlink:href="#q" transform="translate(685.633 644.222)"/><path d="M640.92 240H760v40H640.92z" stroke="#282c33" fill="#fff"/><use xlink:href="#q" transform="translate(685.633 264.222)"/><path d="M620.46 206c0-3.3 2.7-6 6-6h148c3.32 0 6 2.7 6 6v8c0 3.3-2.68 6-6 6h-148c-3.3 0-6-2.7-6-6z" fill="none"/><use xlink:href="#r" transform="translate(676.073 215.667)"/><path d="M620.46 686c0-3.3 2.7-6 6-6h148c3.32 0 6 2.7 6 6v8c0 3.3-2.68 6-6 6h-148c-3.3 0-6-2.7-6-6z" fill="none"/><use xlink:href="#r" transform="translate(676.073 695.667)"/><defs><path fill="#333" d="M266 0h-40l-56-210L115 0H75L2-248h35L96-30l15-64 43-154h32l59 218 59-218h35" id="s"/><path fill="#333" d="M100-194c62-1 85 37 85 99 1 63-27 99-86 99S16-35 15-95c0-66 28-99 85-99zM99-20c44 1 53-31 53-75 0-43-8-75-51-75s-53 32-53 75 10 74 51 75" id="t"/><path fill="#333" d="M114-163C36-179 61-72 57 0H25l-1-190h30c1 12-1 29 2 39 6-27 23-49 58-41v29" id="u"/><path fill="#333" d="M143 0 79-87 56-68V0H24v-261h32v163l83-92h37l-77 82L181 0h-38" id="v"/><path fill="#333" d="M100-194c63 0 86 42 84 106H49c0 40 14 67 53 68 26 1 43-12 49-29l28 8c-11 28-37 45-77 45C44 4 14-33 15-96c1-61 26-98 85-98zm52 81c6-60-76-77-97-28-3 7-6 17-6 28h103" id="w"/><path fill="#333" d="M30-248c87 1 191-15 191 75 0 78-77 80-158 76V0H30v-248zm33 125c57 0 124 11 124-50 0-59-68-47-124-48v98" id="x"/><path fill="#333" d="M96-169c-40 0-48 33-48 73s9 75 48 75c24 0 41-14 43-38l32 2c-6 37-31 61-74 61-59 0-76-41-82-99-10-93 101-131 147-64 4 7 5 14 7 22l-32 3c-4-21-16-35-41-35" id="y"/><path fill="#333" d="M135-143c-3-34-86-38-87 0 15 53 115 12 119 90S17 21 10-45l28-5c4 36 97 45 98 0-10-56-113-15-118-90-4-57 82-63 122-42 12 7 21 19 24 35" id="z"/><path fill="#333" d="M101-234c-31-9-42 10-38 44h38v23H63V0H32v-167H5v-23h27c-7-52 17-82 69-68v24" id="A"/><path fill="#333" d="M24 0v-261h32V0H24" id="B"/><path fill="#333" d="M206 0h-36l-40-164L89 0H53L-1-190h32L70-26l43-164h34l41 164 42-164h31" id="C"/><path fill="#333" d="M127-220V0H93v-220H8v-28h204v28h-85" id="D"/><path fill="#333" d="M141-36C126-15 110 5 73 4 37 3 15-17 15-53c-1-64 63-63 125-63 3-35-9-54-41-54-24 1-41 7-42 31l-33-3c5-37 33-52 76-52 45 0 72 20 72 64v82c-1 20 7 32 28 27v20c-31 9-61-2-59-35zM48-53c0 20 12 33 32 33 41-3 63-29 60-74-43 2-92-5-92 41" id="E"/><path fill="#333" d="m205 0-28-72H64L36 0H1l101-248h38L239 0h-34zm-38-99-47-123c-12 45-31 82-46 123h93" id="F"/><path fill="#333" d="M59-47c-2 24 18 29 38 22v24C64 9 27 4 27-40v-127H5v-23h24l9-43h21v43h35v23H59v120" id="G"/><path fill="#333" d="M24-231v-30h32v30H24zM24 0v-190h32V0H24" id="H"/><path fill="#333" d="M108 0H70L1-190h34L89-25l56-165h34" id="I"/><path fill="#333" d="M179-190 93 31C79 59 56 82 12 73V49c39 6 53-20 64-50L1-190h34L92-34l54-156h33" id="J"/><path fill="#333" d="M140-251c81 0 123 46 123 126C263-53 228-8 163 1c7 30 30 48 69 40v23c-55 16-95-15-103-61C56-3 17-48 17-125c0-80 42-126 123-126zm0 227c63 0 89-41 89-101s-29-99-89-99c-61 0-89 39-89 99S79-25 140-24" id="K"/><path fill="#333" d="M84 4C-5 8 30-112 23-190h32v120c0 31 7 50 39 49 72-2 45-101 50-169h31l1 190h-30c-1-10 1-25-2-33-11 22-28 36-60 37" id="L"/><path fill="#333" d="M117-194c89-4 53 116 60 194h-32v-121c0-31-8-49-39-48C34-167 62-67 57 0H25l-1-190h30c1 10-1 24 2 32 11-22 29-35 61-36" id="M"/><path fill="#333" d="M33-154v-36h34v36H33zM33 0v-36h34V0H33" id="N"/><path fill="#333" d="M27 0v-27h64v-190l-56 39v-29l58-41h29v221h61V0H27" id="O"/><path fill="#333" d="M85-194c31 0 48 13 60 33l-1-100h32l1 261h-30c-2-10 0-23-3-31C134-8 116 4 85 4 32 4 16-35 15-94c0-66 23-100 70-100zm9 24c-40 0-46 34-46 75 0 40 6 74 45 74 42 0 51-32 51-76 0-42-9-74-50-73" id="P"/><path fill="#333" d="M145-31C134-9 116 4 85 4 32 4 16-35 15-94c0-59 17-99 70-100 32-1 48 14 60 33 0-11-1-24 2-32h30l-1 268h-32zM93-21c41 0 51-33 51-76s-8-73-50-73c-40 0-46 35-46 75s5 74 45 74" id="Q"/><path fill="#333" d="M234-2c-28 10-62 0-77-18C117 19 8 12 13-65c3-43 29-61 60-76-25-40-17-114 47-108 35 3 59 15 59 50 0 44-40 53-71 69 14 26 32 50 51 72 14-21 24-43 30-72l26 8c-9 33-21 57-38 82 13 13 33 22 57 15v23zM97-151c25-10 52-18 56-48-1-18-13-29-33-29-42 0-39 50-23 77zM42-66c-3 51 71 58 98 28-20-24-41-51-56-80-23 10-40 24-42 52" id="R"/><path fill="#333" d="M141 0 90-78 38 0H4l68-98-65-92h35l48 74 47-74h35l-64 92 68 98h-35" id="S"/><path fill="#333" d="M210-169c-67 3-38 105-44 169h-31v-121c0-29-5-50-35-48C34-165 62-65 56 0H25l-1-190h30c1 10-1 24 2 32 10-44 99-50 107 0 11-21 27-35 58-36 85-2 47 119 55 194h-31v-121c0-29-5-49-35-48" id="T"/><path fill="#333" d="M177-190C167-65 218 103 67 71c-23-6-38-20-44-43l32-5c15 47 100 32 89-28v-30C133-14 115 1 83 1 29 1 15-40 15-95c0-56 16-97 71-98 29-1 48 16 59 35 1-10 0-23 2-32h30zM94-22c36 0 50-32 50-73 0-42-14-75-50-75-39 0-46 34-46 75s6 73 46 73" id="U"/><g id="a"><use transform="scale(.04938)" xlink:href="#s"/><use transform="matrix(.04938 0 0 .04938 16.395 0)" xlink:href="#t"/><use transform="matrix(.04938 0 0 .04938 26.272 0)" xlink:href="#u"/><use transform="matrix(.04938 0 0 .04938 32.148 0)" xlink:href="#v"/><use transform="matrix(.04938 0 0 .04938 41.037 0)" xlink:href="#w"/><use transform="matrix(.04938 0 0 .04938 50.914 0)" xlink:href="#u"/></g><g id="b"><use transform="scale(.04938)" xlink:href="#x"/><use transform="matrix(.04938 0 0 .04938 11.852 0)" xlink:href="#u"/><use transform="matrix(.04938 0 0 .04938 17.728 0)" xlink:href="#t"/><use transform="matrix(.04938 0 0 .04938 27.605 0)" xlink:href="#y"/><use transform="matrix(.04938 0 0 .04938 36.494 0)" xlink:href="#w"/><use transform="matrix(.04938 0 0 .04938 46.37 0)" xlink:href="#z"/><use transform="matrix(.04938 0 0 .04938 55.26 0)" xlink:href="#z"/></g><g id="c"><use transform="scale(.04938)" xlink:href="#s"/><use transform="matrix(.04938 0 0 .04938 16.395 0)" xlink:href="#t"/><use transform="matrix(.04938 0 0 .04938 26.272 0)" xlink:href="#u"/><use transform="matrix(.04938 0 0 .04938 32.148 0)" xlink:href="#v"/><use transform="matrix(.04938 0 0 .04938 41.037 0)" xlink:href="#A"/><use transform="matrix(.04938 0 0 .04938 45.975 0)" xlink:href="#B"/><use transform="matrix(.04938 0 0 .04938 49.877 0)" xlink:href="#t"/><use transform="matrix(.04938 0 0 .04938 59.753 0)" xlink:href="#C"/></g><g id="d"><use transform="scale(.04938)" xlink:href="#D"/><use transform="matrix(.04938 0 0 .04938 8.84 0)" xlink:href="#E"/><use transform="matrix(.04938 0 0 .04938 18.716 0)" xlink:href="#z"/><use transform="matrix(.04938 0 0 .04938 27.605 0)" xlink:href="#v"/></g><g id="e"><use transform="scale(.04938)" xlink:href="#F"/><use transform="matrix(.04938 0 0 .04938 11.852 0)" xlink:href="#y"/><use transform="matrix(.04938 0 0 .04938 20.74 0)" xlink:href="#G"/><use transform="matrix(.04938 0 0 .04938 25.679 0)" xlink:href="#H"/><use transform="matrix(.04938 0 0 .04938 29.58 0)" xlink:href="#I"/><use transform="matrix(.04938 0 0 .04938 38.47 0)" xlink:href="#H"/><use transform="matrix(.04938 0 0 .04938 42.37 0)" xlink:href="#G"/><use transform="matrix(.04938 0 0 .04938 47.309 0)" xlink:href="#J"/></g><g id="f"><use transform="scale(.04938)" xlink:href="#s"/><use transform="matrix(.04938 0 0 .04938 16.395 0)" xlink:href="#t"/><use transform="matrix(.04938 0 0 .04938 26.272 0)" xlink:href="#u"/><use transform="matrix(.04938 0 0 .04938 32.148 0)" xlink:href="#v"/><use transform="matrix(.04938 0 0 .04938 41.037 0)" xlink:href="#A"/><use transform="matrix(.04938 0 0 .04938 45.975 0)" xlink:href="#B"/><use transform="matrix(.04938 0 0 .04938 49.877 0)" xlink:href="#t"/><use transform="matrix(.04938 0 0 .04938 59.753 0)" xlink:href="#C"/></g><g id="g"><use transform="scale(.04938)" xlink:href="#D"/><use transform="matrix(.04938 0 0 .04938 8.84 0)" xlink:href="#E"/><use transform="matrix(.04938 0 0 .04938 18.716 0)" xlink:href="#z"/><use transform="matrix(.04938 0 0 .04938 27.605 0)" xlink:href="#v"/></g><g id="h"><use transform="scale(.04938)" xlink:href="#K"/><use transform="matrix(.04938 0 0 .04938 13.827 0)" xlink:href="#L"/><use transform="matrix(.04938 0 0 .04938 23.704 0)" xlink:href="#w"/><use transform="matrix(.04938 0 0 .04938 33.58 0)" xlink:href="#L"/><use transform="matrix(.04938 0 0 .04938 43.457 0)" xlink:href="#w"/></g><g id="i"><use transform="scale(.04938)" xlink:href="#F"/><use transform="matrix(.04938 0 0 .04938 11.852 0)" xlink:href="#y"/><use transform="matrix(.04938 0 0 .04938 20.74 0)" xlink:href="#G"/><use transform="matrix(.04938 0 0 .04938 25.679 0)" xlink:href="#H"/><use transform="matrix(.04938 0 0 .04938 29.58 0)" xlink:href="#I"/><use transform="matrix(.04938 0 0 .04938 38.47 0)" xlink:href="#H"/><use transform="matrix(.04938 0 0 .04938 42.37 0)" xlink:href="#G"/><use transform="matrix(.04938 0 0 .04938 47.309 0)" xlink:href="#J"/></g><g id="j"><use transform="scale(.04938)" xlink:href="#D"/><use transform="matrix(.04938 0 0 .04938 8.84 0)" xlink:href="#E"/><use transform="matrix(.04938 0 0 .04938 18.716 0)" xlink:href="#z"/><use transform="matrix(.04938 0 0 .04938 27.605 0)" xlink:href="#v"/></g><g id="k"><use transform="scale(.04938)" xlink:href="#M"/><use transform="matrix(.04938 0 0 .04938 9.877 0)" xlink:href="#N"/><use transform="matrix(.04938 0 0 .04938 14.815 0)" xlink:href="#O"/></g><g id="l"><use transform="scale(.04938)" xlink:href="#O"/><use transform="matrix(.04938 0 0 .04938 9.877 0)" xlink:href="#N"/><use transform="matrix(.04938 0 0 .04938 14.815 0)" xlink:href="#M"/></g><g id="m"><use transform="scale(.03704)" xlink:href="#P"/><use transform="matrix(.03704 0 0 .03704 7.407 0)" xlink:href="#w"/><use transform="matrix(.03704 0 0 .03704 14.815 0)" xlink:href="#Q"/><use transform="matrix(.03704 0 0 .03704 22.222 0)" xlink:href="#L"/><use transform="matrix(.03704 0 0 .03704 29.63 0)" xlink:href="#w"/><use transform="matrix(.03704 0 0 .03704 37.037 0)" xlink:href="#L"/><use transform="matrix(.03704 0 0 .03704 44.444 0)" xlink:href="#w"/><use transform="matrix(.03704 0 0 .03704 51.852 0)" xlink:href="#P"/></g><g id="o"><use transform="scale(.03704)" xlink:href="#w"/><use transform="matrix(.03704 0 0 .03704 7.407 0)" xlink:href="#S"/><use transform="matrix(.03704 0 0 .03704 14.074 0)" xlink:href="#w"/><use transform="matrix(.03704 0 0 .03704 21.481 0)" xlink:href="#y"/><use transform="matrix(.03704 0 0 .03704 28.148 0)" xlink:href="#L"/><use transform="matrix(.03704 0 0 .03704 35.556 0)" xlink:href="#G"/><use transform="matrix(.03704 0 0 .03704 39.26 0)" xlink:href="#w"/><use transform="matrix(.03704 0 0 .03704 46.667 0)" xlink:href="#P"/></g><g id="p"><use transform="scale(.03704)" xlink:href="#w"/><use transform="matrix(.03704 0 0 .03704 7.407 0)" xlink:href="#M"/><use transform="matrix(.03704 0 0 .03704 14.815 0)" xlink:href="#Q"/><use transform="matrix(.03704 0 0 .03704 22.222 0)" xlink:href="#L"/><use transform="matrix(.03704 0 0 .03704 29.63 0)" xlink:href="#w"/><use transform="matrix(.03704 0 0 .03704 37.037 0)" xlink:href="#L"/><use transform="matrix(.03704 0 0 .03704 44.444 0)" xlink:href="#w"/><use transform="matrix(.03704 0 0 .03704 51.852 0)" xlink:href="#P"/></g><g id="q"><use transform="scale(.04938)" xlink:href="#M"/><use transform="matrix(.04938 0 0 .04938 9.877 0)" xlink:href="#N"/><use transform="matrix(.04938 0 0 .04938 14.815 0)" xlink:href="#T"/></g><g id="r"><use transform="scale(.03704)" xlink:href="#B"/><use transform="matrix(.03704 0 0 .03704 2.926 0)" xlink:href="#H"/><use transform="matrix(.03704 0 0 .03704 5.852 0)" xlink:href="#z"/><use transform="matrix(.03704 0 0 .03704 12.519 0)" xlink:href="#G"/><use transform="matrix(.03704 0 0 .03704 16.222 0)" xlink:href="#w"/><use transform="matrix(.03704 0 0 .03704 23.63 0)" xlink:href="#M"/><use transform="matrix(.03704 0 0 .03704 31.037 0)" xlink:href="#H"/><use transform="matrix(.03704 0 0 .03704 33.963 0)" xlink:href="#M"/><use transform="matrix(.03704 0 0 .03704 41.37 0)" xlink:href="#U"/></g><use transform="scale(.03704)" xlink:href="#R" id="n"/></defs></g></svg>