<svg xmlns="http://www.w3.org/2000/svg" xmlns:xlink="http://www.w3.org/1999/xlink" xmlns:lucid="lucid" width="940" height="1020"><g transform="translate(-680 620)" lucid:page-tab-id="0_0"><path d="M898.58-585c0-8.28 6.72-15 15-15H1385c8.28 0 15 6.72 15 15v370c0 8.28-6.72 15-15 15H913.58c-8.28 0-15-6.72-15-15z" stroke="#333" stroke-width="3" fill="#333"/><use xlink:href="#a" transform="matrix(1,0,0,1,923.5826771653545,-575) translate(121.47530864197532 24.888888888888886)"/><use xlink:href="#b" transform="matrix(1,0,0,1,923.5826771653545,-575) translate(227.12962962962962 24.888888888888886)"/><path d="M700-125c0-8.28 6.72-15 15-15h870c8.28 0 15 6.72 15 15v490c0 8.28-6.72 15-15 15H715c-8.28 0-15-6.72-15-15z" fill-opacity="0"/><path d="M709.3-138.74l1.8-.75 3.9-.5h6.04m12.1 0h12.07m12.1 0h12.08m12.08 0h12.08m12.1 0h12.07m12.1 0h12.08m12.08 0h12.08m12.1 0h12.07m12.1 0h12.08m12.08 0h12.08m12.1 0h12.07m12.1 0h12.08m12.08 0h12.08m12.1 0h12.07m12.1 0h12.08m12.08 0h12.08m12.1 0h12.07m12.1 0h12.08m12.08 0h12.08m12.1 0h12.07m12.1 0h12.08m12.08 0h12.08m12.1 0h12.07m12.1 0h12.08m12.08 0h12.08m12.1 0h12.07m12.1 0h12.08m12.08 0h12.08m12.1 0h12.07m12.1 0h12.08m12.08 0h12.08m12.1 0h12.07m12.1 0h12.08m12.08 0h12.08m12.1 0h12.07m12.1 0h12.08m12.08 0h6.04l3.9.5 1.8.76m8.04 8.05l.75 1.8.5 3.9v6.13m0 12.25v12.25m0 12.25v12.25m0 12.25v12.25m0 12.25v12.25m0 12.25V3.63m0 12.25v12.25m0 12.25v12.25m0 12.25v12.25m0 12.25v12.25m0 12.25v12.25m0 12.25v12.25m0 12.25v12.25m0 12.25v12.25m0 12.25v12.25m0 12.25v12.25m0 12.25v12.25m0 12.25v12.25m0 12.25v12.25m0 12.25v12.25m0 12.25V365l-.5 3.9-.76 1.8m-8.05 8.04l-1.8.75-3.9.5h-6.04m-12.1 0h-12.07m-12.1 0h-12.08m-12.08 0h-12.08m-12.1 0h-12.07m-12.1 0h-12.08m-12.08 0h-12.08m-12.1 0h-12.07m-12.1 0h-12.08m-12.08 0h-12.08m-12.1 0h-12.07m-12.1 0h-12.08m-12.08 0h-12.08m-12.1 0h-12.07m-12.1 0h-12.08m-12.08 0h-12.08m-12.1 0h-12.07m-12.1 0h-12.08m-12.08 0h-12.08m-12.1 0h-12.07m-12.1 0h-12.08m-12.08 0h-12.08m-12.1 0h-12.07m-12.1 0h-12.08m-12.08 0h-12.08m-12.1 0H974.8m-12.1 0h-12.08m-12.08 0h-12.08m-12.1 0H902.3m-12.1 0h-12.08m-12.08 0h-12.08m-12.1 0H829.8m-12.1 0h-12.08m-12.08 0h-12.08m-12.1 0H757.3m-12.1 0h-12.08m-12.08 0H715l-3.9-.5-1.8-.76m-8.04-8.05l-.75-1.8-.5-3.9v-6.13m0-12.25v-12.25m0-12.25v-12.25m0-12.25v-12.25m0-12.25v-12.25m0-12.25v-12.25m0-12.25v-12.25m0-12.25v-12.25m0-12.25v-12.25m0-12.25v-12.25m0-12.25v-12.25m0-12.25V89.37m0-12.25V64.87m0-12.25V40.37m0-12.25V15.87m0-12.25V-8.63m0-12.25v-12.25m0-12.25v-12.25m0-12.25v-12.25m0-12.25v-12.25m0-12.25V-125l.5-3.9.76-1.8" stroke="#5e5e5e" stroke-width="3" fill="none"/><path d="M920.04-494c0-3.3 2.7-6 6-6h138.63c3.3 0 6 2.7 6 6v100.97c0 3.3-2.7 6-6 6H926.04c-3.3 0-6-2.7-6-6z" stroke="#fff" stroke-width="3" fill="#fff"/><use xlink:href="#c" transform="matrix(1,0,0,1,925.0419947506371,-495) translate(11.333333333333329 56.40277777777778)"/><path d="M1068.15-464.25h142.6M1068.17-464.25h-4.02" stroke="#fff" stroke-width="2" fill="none"/><path d="M1226-464.25l-14.25 4.63v-9.27z" stroke="#fff" stroke-width="2" fill="#fff"/><path d="M1228.25-424.65h-141.73" stroke="#fff" stroke-width="2" fill="none"/><path d="M1229.25-423.65h-1.02v-2h1.02z" fill="#fff"/><path d="M1071.25-424.65l14.27-4.64v9.28z" stroke="#fff" stroke-width="2" fill="#fff"/><path d="M720-234c0-3.3 2.7-6 6-6h128c3.3 0 6 2.7 6 6v48c0 3.3-2.7 6-6 6H726c-3.3 0-6-2.7-6-6z" stroke="#000" stroke-opacity="0" stroke-width="3" fill="#fff" fill-opacity="0"/><use xlink:href="#d" transform="matrix(1,0,0,1,725,-235) translate(30.49382716049383 30.27777777777778)"/><path d="M1561.33-29.33c0 39.02-31.64 70.66-70.66 70.66-39.03 0-70.67-31.64-70.67-70.66 0-39.03 31.64-70.67 70.67-70.67 39.02 0 70.66 31.64 70.66 70.67z" stroke="#333" stroke-width="3" fill="#fff"/><use xlink:href="#e" transform="matrix(1,0,0,1,1425,-95) translate(12.388888888888886 71.40277777777777)"/><path d="M1501.33 170.67c0 39.02-31.64 70.66-70.66 70.66-39.03 0-70.67-31.64-70.67-70.66 0-39.03 31.64-70.67 70.67-70.67 39.02 0 70.66 31.64 70.66 70.67z" stroke="#333" stroke-width="3" fill="#fff"/><use xlink:href="#f" transform="matrix(1,0,0,1,1365,105) translate(35.845679012345684 71.40277777777777)"/><path d="M881.33-29.33c0 39.02-31.64 70.66-70.66 70.66C771.64 41.33 740 9.7 740-29.33c0-39.03 31.64-70.67 70.67-70.67 39.02 0 70.66 31.64 70.66 70.67z" stroke="#333" stroke-width="3" fill="#fff"/><use xlink:href="#g" transform="matrix(1,0,0,1,745,-95) translate(11.185185185185176 71.40277777777777)"/><path d="M941.33 170.67c0 39.02-31.64 70.66-70.66 70.66-39.03 0-70.67-31.64-70.67-70.66 0-39.03 31.64-70.67 70.67-70.67 39.02 0 70.66 31.64 70.66 70.67z" stroke="#333" stroke-width="3" fill="#fff"/><use xlink:href="#h" transform="matrix(1,0,0,1,805,105) translate(16.709876543209866 71.40277777777777)"/><path d="M1321.33 270.67c0 39.02-31.64 70.66-70.66 70.66-39.03 0-70.67-31.64-70.67-70.66 0-39.03 31.64-70.67 70.67-70.67 39.02 0 70.66 31.64 70.66 70.67z" stroke="#333" stroke-width="3" fill="#fff"/><use xlink:href="#i" transform="matrix(1,0,0,1,1185,205) translate(15.444444444444436 59.02777777777778)"/><use xlink:href="#j" transform="matrix(1,0,0,1,1185,205) translate(27.295123456790126 85.69444444444446)"/><use xlink:href="#k" transform="matrix(1,0,0,1,1185,205) translate(59.39388888888889 85.69444444444446)"/><path d="M1149.54-197.53l96.55 378.1" stroke="#333" stroke-width="2" fill="none"/><path d="M1149.27-198.5h1.05l.2.75-1.94.5-.33-1.3z" fill="#333"/><path d="M1249.87 195.36l-8.02-12.67 8.98-2.3z" stroke="#333" stroke-width="2" fill="#333"/><path d="M1150.2-198.07l261.4 124.53" stroke="#333" stroke-width="2" fill="none"/><path d="M1149.27-198.5H1150.43l-.64 1.34-3.02-1.43z" fill="#333"/><path d="M1425.38-66.98l-14.87-1.95 4-8.37z" stroke="#333" stroke-width="2" fill="#333"/><path d="M1149.9-197.7l225.7 296.34" stroke="#333" stroke-width="2" fill="none"/><path d="M1149.27-198.5h1.1l.17-.02.17.23-1.58 1.22-1.12-1.46z" fill="#333"/><path d="M1384.84 110.8l-12.33-8.55 7.4-5.62z" stroke="#333" stroke-width="2" fill="#333"/><path d="M1148.4-198.07L889.1-74.63" stroke="#333" stroke-width="2" fill="none"/><path d="M1148.8-197.16l-.66-1.38 1.13.04h1.1l1.4-.08z" fill="#333"/><path d="M875.3-68.06l10.9-10.32 3.98 8.37z" stroke="#333" stroke-width="2" fill="#333"/><path d="M1148.7-197.7L926.1 98.97" stroke="#333" stroke-width="2" fill="none"/><path d="M1149.27-198.5h1.1l.18-.02-1.07 1.44-1.6-1.2.2-.26z" fill="#333"/><path d="M916.94 111.18l4.86-14.2 7.4 5.57z" stroke="#333" stroke-width="2" fill="#333"/><path d="M790-179v36.5" stroke="#333" stroke-width="2" fill="none"/><path d="M791-178.97h-2V-180h2zM791-141.5h-2v-1.03h2z" fill="#333"/><path d="M1119.96 270.67c0 39.02-31.64 70.66-70.67 70.66-39.04 0-70.68-31.64-70.68-70.66 0-39.03 31.64-70.67 70.67-70.67 39.02 0 70.66 31.64 70.66 70.67z" stroke="#333" stroke-width="3" fill="#fff"/><use xlink:href="#l" transform="matrix(1,0,0,1,983.6246719159908,205) translate(14.641975308641982 71.40277777777777)"/><use xlink:href="#m" transform="matrix(1,0,0,1,983.6246719159908,205) translate(81.55555555555554 71.40277777777777)"/><path d="M1149.05-197.53l-95.24 378.1" stroke="#333" stroke-width="2" fill="none"/><path d="M1149.27-198.5h1.05l-.3 1.24-1.95-.5.2-.78z" fill="#333"/><path d="M1050.08 195.36l-1-14.96 8.98 2.26z" stroke="#333" stroke-width="2" fill="#333"/><path d="M1230.75-492.67c0-3.3 2.7-6 6-6h138.63c3.3 0 6 2.7 6 6v100.97c0 3.32-2.7 6-6 6h-138.63c-3.3 0-6-2.68-6-6z" stroke="#fff" stroke-width="3" fill="#fff"/><g><use xlink:href="#n" transform="matrix(1,0,0,1,1235.7506561679597,-493.66666666662786) translate(14.32716049382715 56.40277777777778)"/></g><path d="M1219.96-270.67c0 39.03-31.64 70.67-70.67 70.67-39.04 0-70.68-31.64-70.68-70.67 0-39.02 31.64-70.66 70.67-70.66 39.02 0 70.66 31.64 70.66 70.66z" stroke="#333" stroke-width="3" fill="#fff"/><g><use xlink:href="#o" transform="matrix(1,0,0,1,1083.6246719159913,-336.33333333337214) translate(24.703703703703702 71.40277777777777)"/></g><defs><path fill="#fff" d="M266 0h-40l-56-210L115 0H75L2-248h35L96-30l15-64 43-154h32l59 218 59-218h35" id="p"/><path fill="#fff" d="M100-194c62-1 85 37 85 99 1 63-27 99-86 99S16-35 15-95c0-66 28-99 85-99zM99-20c44 1 53-31 53-75 0-43-8-75-51-75s-53 32-53 75 10 74 51 75" id="q"/><path fill="#fff" d="M114-163C36-179 61-72 57 0H25l-1-190h30c1 12-1 29 2 39 6-27 23-49 58-41v29" id="r"/><path fill="#fff" d="M143 0L79-87 56-68V0H24v-261h32v163l83-92h37l-77 82L181 0h-38" id="s"/><path fill="#fff" d="M101-234c-31-9-42 10-38 44h38v23H63V0H32v-167H5v-23h27c-7-52 17-82 69-68v24" id="t"/><path fill="#fff" d="M24 0v-261h32V0H24" id="u"/><path fill="#fff" d="M206 0h-36l-40-164L89 0H53L-1-190h32L70-26l43-164h34l41 164 42-164h31" id="v"/><g id="a"><use transform="matrix(0.08641975308641973,0,0,0.08641975308641973,0,0)" xlink:href="#p"/><use transform="matrix(0.06172839506172839,0,0,0.06172839506172839,29.29629629629629,0)" xlink:href="#q"/><use transform="matrix(0.06172839506172839,0,0,0.06172839506172839,41.64197530864197,0)" xlink:href="#r"/><use transform="matrix(0.06172839506172839,0,0,0.06172839506172839,48.987654320987644,0)" xlink:href="#s"/><use transform="matrix(0.06172839506172839,0,0,0.06172839506172839,60.09876543209876,0)" xlink:href="#t"/><use transform="matrix(0.06172839506172839,0,0,0.06172839506172839,66.2716049382716,0)" xlink:href="#u"/><use transform="matrix(0.06172839506172839,0,0,0.06172839506172839,71.14814814814814,0)" xlink:href="#q"/><use transform="matrix(0.06172839506172839,0,0,0.06172839506172839,83.49382716049382,0)" xlink:href="#v"/></g><path fill="#fff" d="M30 0v-248h187v28H63v79h144v27H63v87h162V0H30" id="w"/><path fill="#fff" d="M141 0L90-78 38 0H4l68-98-65-92h35l48 74 47-74h35l-64 92 68 98h-35" id="x"/><path fill="#fff" d="M100-194c63 0 86 42 84 106H49c0 40 14 67 53 68 26 1 43-12 49-29l28 8c-11 28-37 45-77 45C44 4 14-33 15-96c1-61 26-98 85-98zm52 81c6-60-76-77-97-28-3 7-6 17-6 28h103" id="y"/><path fill="#fff" d="M96-169c-40 0-48 33-48 73s9 75 48 75c24 0 41-14 43-38l32 2c-6 37-31 61-74 61-59 0-76-41-82-99-10-93 101-131 147-64 4 7 5 14 7 22l-32 3c-4-21-16-35-41-35" id="z"/><path fill="#fff" d="M84 4C-5 8 30-112 23-190h32v120c0 31 7 50 39 49 72-2 45-101 50-169h31l1 190h-30c-1-10 1-25-2-33-11 22-28 36-60 37" id="A"/><path fill="#fff" d="M59-47c-2 24 18 29 38 22v24C64 9 27 4 27-40v-127H5v-23h24l9-43h21v43h35v23H59v120" id="B"/><path fill="#fff" d="M24-231v-30h32v30H24zM24 0v-190h32V0H24" id="C"/><path fill="#fff" d="M117-194c89-4 53 116 60 194h-32v-121c0-31-8-49-39-48C34-167 62-67 57 0H25l-1-190h30c1 10-1 24 2 32 11-22 29-35 61-36" id="D"/><g id="b"><use transform="matrix(0.08641975308641973,0,0,0.08641975308641973,0,0)" xlink:href="#w"/><use transform="matrix(0.06172839506172839,0,0,0.06172839506172839,20.740740740740737,0)" xlink:href="#x"/><use transform="matrix(0.06172839506172839,0,0,0.06172839506172839,31.85185185185185,0)" xlink:href="#y"/><use transform="matrix(0.06172839506172839,0,0,0.06172839506172839,44.197530864197525,0)" xlink:href="#z"/><use transform="matrix(0.06172839506172839,0,0,0.06172839506172839,55.30864197530863,0)" xlink:href="#A"/><use transform="matrix(0.06172839506172839,0,0,0.06172839506172839,67.65432098765432,0)" xlink:href="#B"/><use transform="matrix(0.06172839506172839,0,0,0.06172839506172839,73.82716049382715,0)" xlink:href="#C"/><use transform="matrix(0.06172839506172839,0,0,0.06172839506172839,78.7037037037037,0)" xlink:href="#q"/><use transform="matrix(0.06172839506172839,0,0,0.06172839506172839,91.04938271604938,0)" xlink:href="#D"/></g><path fill="#333" d="M30-248c87 1 191-15 191 75 0 78-77 80-158 76V0H30v-248zm33 125c57 0 124 11 124-50 0-59-68-47-124-48v98" id="E"/><path fill="#333" d="M114-163C36-179 61-72 57 0H25l-1-190h30c1 12-1 29 2 39 6-27 23-49 58-41v29" id="F"/><path fill="#333" d="M100-194c62-1 85 37 85 99 1 63-27 99-86 99S16-35 15-95c0-66 28-99 85-99zM99-20c44 1 53-31 53-75 0-43-8-75-51-75s-53 32-53 75 10 74 51 75" id="G"/><path fill="#333" d="M177-190C167-65 218 103 67 71c-23-6-38-20-44-43l32-5c15 47 100 32 89-28v-30C133-14 115 1 83 1 29 1 15-40 15-95c0-56 16-97 71-98 29-1 48 16 59 35 1-10 0-23 2-32h30zM94-22c36 0 50-32 50-73 0-42-14-75-50-75-39 0-46 34-46 75s6 73 46 73" id="H"/><path fill="#333" d="M100-194c63 0 86 42 84 106H49c0 40 14 67 53 68 26 1 43-12 49-29l28 8c-11 28-37 45-77 45C44 4 14-33 15-96c1-61 26-98 85-98zm52 81c6-60-76-77-97-28-3 7-6 17-6 28h103" id="I"/><path fill="#333" d="M135-143c-3-34-86-38-87 0 15 53 115 12 119 90S17 21 10-45l28-5c4 36 97 45 98 0-10-56-113-15-118-90-4-57 82-63 122-42 12 7 21 19 24 35" id="J"/><path fill="#333" d="M24-231v-30h32v30H24zM24 0v-190h32V0H24" id="K"/><path fill="#333" d="M117-194c89-4 53 116 60 194h-32v-121c0-31-8-49-39-48C34-167 62-67 57 0H25l-1-190h30c1 10-1 24 2 32 11-22 29-35 61-36" id="L"/><g id="c"><use transform="matrix(0.06172839506172839,0,0,0.06172839506172839,0,0)" xlink:href="#E"/><use transform="matrix(0.06172839506172839,0,0,0.06172839506172839,14.814814814814813,0)" xlink:href="#F"/><use transform="matrix(0.06172839506172839,0,0,0.06172839506172839,22.160493827160494,0)" xlink:href="#G"/><use transform="matrix(0.06172839506172839,0,0,0.06172839506172839,34.50617283950617,0)" xlink:href="#H"/><use transform="matrix(0.06172839506172839,0,0,0.06172839506172839,46.85185185185185,0)" xlink:href="#F"/><use transform="matrix(0.06172839506172839,0,0,0.06172839506172839,54.197530864197525,0)" xlink:href="#I"/><use transform="matrix(0.06172839506172839,0,0,0.06172839506172839,66.5432098765432,0)" xlink:href="#J"/><use transform="matrix(0.06172839506172839,0,0,0.06172839506172839,77.65432098765432,0)" xlink:href="#J"/><use transform="matrix(0.06172839506172839,0,0,0.06172839506172839,88.76543209876543,0)" xlink:href="#K"/><use transform="matrix(0.06172839506172839,0,0,0.06172839506172839,93.64197530864197,0)" xlink:href="#L"/><use transform="matrix(0.06172839506172839,0,0,0.06172839506172839,105.98765432098766,0)" xlink:href="#H"/></g><path fill="#333" d="M212-179c-10-28-35-45-73-45-59 0-87 40-87 99 0 60 29 101 89 101 43 0 62-24 78-52l27 14C228-24 195 4 139 4 59 4 22-46 18-125c-6-104 99-153 187-111 19 9 31 26 39 46" id="M"/><path fill="#333" d="M24 0v-261h32V0H24" id="N"/><path fill="#333" d="M85-194c31 0 48 13 60 33l-1-100h32l1 261h-30c-2-10 0-23-3-31C134-8 116 4 85 4 32 4 16-35 15-94c0-66 23-100 70-100zm9 24c-40 0-46 34-46 75 0 40 6 74 45 74 42 0 51-32 51-76 0-42-9-74-50-73" id="O"/><g id="d"><use transform="matrix(0.06172839506172839,0,0,0.06172839506172839,0,0)" xlink:href="#M"/><use transform="matrix(0.06172839506172839,0,0,0.06172839506172839,15.987654320987653,0)" xlink:href="#N"/><use transform="matrix(0.06172839506172839,0,0,0.06172839506172839,20.864197530864196,0)" xlink:href="#G"/><use transform="matrix(0.06172839506172839,0,0,0.06172839506172839,33.20987654320987,0)" xlink:href="#J"/><use transform="matrix(0.06172839506172839,0,0,0.06172839506172839,44.32098765432099,0)" xlink:href="#I"/><use transform="matrix(0.06172839506172839,0,0,0.06172839506172839,56.666666666666664,0)" xlink:href="#O"/></g><path fill="#333" d="M210-169c-67 3-38 105-44 169h-31v-121c0-29-5-50-35-48C34-165 62-65 56 0H25l-1-190h30c1 10-1 24 2 32 10-44 99-50 107 0 11-21 27-35 58-36 85-2 47 119 55 194h-31v-121c0-29-5-49-35-48" id="P"/><path fill="#333" d="M115-194c55 1 70 41 70 98S169 2 115 4C84 4 66-9 55-30l1 105H24l-1-265h31l2 30c10-21 28-34 59-34zm-8 174c40 0 45-34 45-75s-6-73-45-74c-42 0-51 32-51 76 0 43 10 73 51 73" id="Q"/><path fill="#333" d="M59-47c-2 24 18 29 38 22v24C64 9 27 4 27-40v-127H5v-23h24l9-43h21v43h35v23H59v120" id="R"/><g id="e"><use transform="matrix(0.06172839506172839,0,0,0.06172839506172839,0,0)" xlink:href="#M"/><use transform="matrix(0.06172839506172839,0,0,0.06172839506172839,15.987654320987653,0)" xlink:href="#G"/><use transform="matrix(0.06172839506172839,0,0,0.06172839506172839,28.333333333333332,0)" xlink:href="#P"/><use transform="matrix(0.06172839506172839,0,0,0.06172839506172839,46.79012345679012,0)" xlink:href="#Q"/><use transform="matrix(0.06172839506172839,0,0,0.06172839506172839,59.1358024691358,0)" xlink:href="#N"/><use transform="matrix(0.06172839506172839,0,0,0.06172839506172839,64.01234567901234,0)" xlink:href="#I"/><use transform="matrix(0.06172839506172839,0,0,0.06172839506172839,76.35802469135803,0)" xlink:href="#R"/><use transform="matrix(0.06172839506172839,0,0,0.06172839506172839,82.53086419753086,0)" xlink:href="#I"/><use transform="matrix(0.06172839506172839,0,0,0.06172839506172839,94.87654320987654,0)" xlink:href="#O"/></g><path fill="#333" d="M63-220v92h138v28H63V0H30v-248h175v28H63" id="S"/><path fill="#333" d="M141-36C126-15 110 5 73 4 37 3 15-17 15-53c-1-64 63-63 125-63 3-35-9-54-41-54-24 1-41 7-42 31l-33-3c5-37 33-52 76-52 45 0 72 20 72 64v82c-1 20 7 32 28 27v20c-31 9-61-2-59-35zM48-53c0 20 12 33 32 33 41-3 63-29 60-74-43 2-92-5-92 41" id="T"/><g id="f"><use transform="matrix(0.06172839506172839,0,0,0.06172839506172839,0,0)" xlink:href="#S"/><use transform="matrix(0.06172839506172839,0,0,0.06172839506172839,13.518518518518517,0)" xlink:href="#T"/><use transform="matrix(0.06172839506172839,0,0,0.06172839506172839,25.864197530864196,0)" xlink:href="#K"/><use transform="matrix(0.06172839506172839,0,0,0.06172839506172839,30.74074074074074,0)" xlink:href="#N"/><use transform="matrix(0.06172839506172839,0,0,0.06172839506172839,35.617283950617285,0)" xlink:href="#I"/><use transform="matrix(0.06172839506172839,0,0,0.06172839506172839,47.96296296296296,0)" xlink:href="#O"/></g><path fill="#333" d="M127-220V0H93v-220H8v-28h204v28h-85" id="U"/><g id="g"><use transform="matrix(0.06172839506172839,0,0,0.06172839506172839,0,0)" xlink:href="#U"/><use transform="matrix(0.06172839506172839,0,0,0.06172839506172839,11.049382716049381,0)" xlink:href="#I"/><use transform="matrix(0.06172839506172839,0,0,0.06172839506172839,23.39506172839506,0)" xlink:href="#F"/><use transform="matrix(0.06172839506172839,0,0,0.06172839506172839,30.74074074074074,0)" xlink:href="#P"/><use transform="matrix(0.06172839506172839,0,0,0.06172839506172839,49.19753086419753,0)" xlink:href="#K"/><use transform="matrix(0.06172839506172839,0,0,0.06172839506172839,54.074074074074076,0)" xlink:href="#L"/><use transform="matrix(0.06172839506172839,0,0,0.06172839506172839,66.41975308641976,0)" xlink:href="#T"/><use transform="matrix(0.06172839506172839,0,0,0.06172839506172839,78.76543209876544,0)" xlink:href="#R"/><use transform="matrix(0.06172839506172839,0,0,0.06172839506172839,84.93827160493828,0)" xlink:href="#I"/><use transform="matrix(0.06172839506172839,0,0,0.06172839506172839,97.28395061728396,0)" xlink:href="#O"/></g><path fill="#333" d="M96-169c-40 0-48 33-48 73s9 75 48 75c24 0 41-14 43-38l32 2c-6 37-31 61-74 61-59 0-76-41-82-99-10-93 101-131 147-64 4 7 5 14 7 22l-32 3c-4-21-16-35-41-35" id="V"/><g id="h"><use transform="matrix(0.06172839506172839,0,0,0.06172839506172839,0,0)" xlink:href="#M"/><use transform="matrix(0.06172839506172839,0,0,0.06172839506172839,15.987654320987653,0)" xlink:href="#T"/><use transform="matrix(0.06172839506172839,0,0,0.06172839506172839,28.333333333333332,0)" xlink:href="#L"/><use transform="matrix(0.06172839506172839,0,0,0.06172839506172839,40.67901234567901,0)" xlink:href="#V"/><use transform="matrix(0.06172839506172839,0,0,0.06172839506172839,51.79012345679013,0)" xlink:href="#I"/><use transform="matrix(0.06172839506172839,0,0,0.06172839506172839,64.13580246913581,0)" xlink:href="#N"/><use transform="matrix(0.06172839506172839,0,0,0.06172839506172839,69.01234567901236,0)" xlink:href="#N"/><use transform="matrix(0.06172839506172839,0,0,0.06172839506172839,73.8888888888889,0)" xlink:href="#I"/><use transform="matrix(0.06172839506172839,0,0,0.06172839506172839,86.23456790123458,0)" xlink:href="#O"/></g><path fill="#333" d="M84 4C-5 8 30-112 23-190h32v120c0 31 7 50 39 49 72-2 45-101 50-169h31l1 190h-30c-1-10 1-25-2-33-11 22-28 36-60 37" id="W"/><g id="i"><use transform="matrix(0.06172839506172839,0,0,0.06172839506172839,0,0)" xlink:href="#M"/><use transform="matrix(0.06172839506172839,0,0,0.06172839506172839,15.987654320987653,0)" xlink:href="#G"/><use transform="matrix(0.06172839506172839,0,0,0.06172839506172839,28.333333333333332,0)" xlink:href="#L"/><use transform="matrix(0.06172839506172839,0,0,0.06172839506172839,40.67901234567901,0)" xlink:href="#R"/><use transform="matrix(0.06172839506172839,0,0,0.06172839506172839,46.851851851851855,0)" xlink:href="#K"/><use transform="matrix(0.06172839506172839,0,0,0.06172839506172839,51.7283950617284,0)" xlink:href="#L"/><use transform="matrix(0.06172839506172839,0,0,0.06172839506172839,64.07407407407408,0)" xlink:href="#W"/><use transform="matrix(0.06172839506172839,0,0,0.06172839506172839,76.41975308641976,0)" xlink:href="#I"/><use transform="matrix(0.06172839506172839,0,0,0.06172839506172839,88.76543209876544,0)" xlink:href="#O"/></g><path fill="#333" d="M205 0l-28-72H64L36 0H1l101-248h38L239 0h-34zm-38-99l-47-123c-12 45-31 82-46 123h93" id="X"/><g id="j"><use transform="matrix(0.06172839506172839,0,0,0.06172839506172839,0,0)" xlink:href="#X"/><use transform="matrix(0.06172839506172839,0,0,0.06172839506172839,14.814814814814813,0)" xlink:href="#J"/></g><path fill="#333" d="M190 0L58-211 59 0H30v-248h39L202-35l-2-213h31V0h-41" id="Y"/><path fill="#333" d="M206 0h-36l-40-164L89 0H53L-1-190h32L70-26l43-164h34l41 164 42-164h31" id="Z"/><g id="k"><use transform="matrix(0.06172839506172839,0,0,0.06172839506172839,0,0)" xlink:href="#Y"/><use transform="matrix(0.06172839506172839,0,0,0.06172839506172839,15.987654320987653,0)" xlink:href="#I"/><use transform="matrix(0.06172839506172839,0,0,0.06172839506172839,28.333333333333332,0)" xlink:href="#Z"/></g><g id="l"><use transform="matrix(0.06172839506172839,0,0,0.06172839506172839,0,0)" xlink:href="#U"/><use transform="matrix(0.06172839506172839,0,0,0.06172839506172839,12.716049382716047,0)" xlink:href="#K"/><use transform="matrix(0.06172839506172839,0,0,0.06172839506172839,17.592592592592588,0)" xlink:href="#P"/><use transform="matrix(0.06172839506172839,0,0,0.06172839506172839,36.04938271604938,0)" xlink:href="#I"/><use transform="matrix(0.06172839506172839,0,0,0.06172839506172839,48.395061728395056,0)" xlink:href="#O"/></g><path fill="#333" d="M140-251c81 0 123 46 123 126C263-46 219 4 140 4 59 4 17-45 17-125s42-126 123-126zm0 227c63 0 89-41 89-101s-29-99-89-99c-61 0-89 39-89 99S79-25 140-24" id="aa"/><g id="m"><use transform="matrix(0.06172839506172839,0,0,0.06172839506172839,0,0)" xlink:href="#aa"/><use transform="matrix(0.06172839506172839,0,0,0.06172839506172839,17.28395061728395,0)" xlink:href="#W"/><use transform="matrix(0.06172839506172839,0,0,0.06172839506172839,29.629629629629626,0)" xlink:href="#R"/></g><path fill="#333" d="M185-189c-5-48-123-54-124 2 14 75 158 14 163 119 3 78-121 87-175 55-17-10-28-26-33-46l33-7c5 56 141 63 141-1 0-78-155-14-162-118-5-82 145-84 179-34 5 7 8 16 11 25" id="ab"/><g id="n"><use transform="matrix(0.06172839506172839,0,0,0.06172839506172839,0,0)" xlink:href="#ab"/><use transform="matrix(0.06172839506172839,0,0,0.06172839506172839,14.814814814814813,0)" xlink:href="#W"/><use transform="matrix(0.06172839506172839,0,0,0.06172839506172839,27.160493827160494,0)" xlink:href="#J"/><use transform="matrix(0.06172839506172839,0,0,0.06172839506172839,38.27160493827161,0)" xlink:href="#Q"/><use transform="matrix(0.06172839506172839,0,0,0.06172839506172839,50.617283950617285,0)" xlink:href="#I"/><use transform="matrix(0.06172839506172839,0,0,0.06172839506172839,62.96296296296296,0)" xlink:href="#L"/><use transform="matrix(0.06172839506172839,0,0,0.06172839506172839,75.30864197530865,0)" xlink:href="#O"/><use transform="matrix(0.06172839506172839,0,0,0.06172839506172839,87.65432098765433,0)" xlink:href="#I"/><use transform="matrix(0.06172839506172839,0,0,0.06172839506172839,100.00000000000001,0)" xlink:href="#O"/></g><path fill="#333" d="M233-177c-1 41-23 64-60 70L243 0h-38l-65-103H63V0H30v-248c88 3 205-21 203 71zM63-129c60-2 137 13 137-47 0-61-80-42-137-45v92" id="ac"/><g id="o"><use transform="matrix(0.06172839506172839,0,0,0.06172839506172839,0,0)" xlink:href="#ac"/><use transform="matrix(0.06172839506172839,0,0,0.06172839506172839,15.987654320987653,0)" xlink:href="#W"/><use transform="matrix(0.06172839506172839,0,0,0.06172839506172839,28.333333333333332,0)" xlink:href="#L"/><use transform="matrix(0.06172839506172839,0,0,0.06172839506172839,40.67901234567901,0)" xlink:href="#L"/><use transform="matrix(0.06172839506172839,0,0,0.06172839506172839,53.02469135802469,0)" xlink:href="#K"/><use transform="matrix(0.06172839506172839,0,0,0.06172839506172839,57.901234567901234,0)" xlink:href="#L"/><use transform="matrix(0.06172839506172839,0,0,0.06172839506172839,70.24691358024691,0)" xlink:href="#H"/></g></defs></g></svg>