<svg xmlns="http://www.w3.org/2000/svg" xmlns:xlink="http://www.w3.org/1999/xlink" xmlns:lucid="lucid" width="1126" height="440"><g transform="translate(-80 -380)" lucid:page-tab-id="0_0"><path d="M0 0h1870.87v1322.83H0z" fill="#fff"/><path d="M301 730h898.5" stroke="#a9afb8" fill="none"/><path d="M301 730.5h-.5v-1h.5z" stroke="#a9afb8" stroke-width=".05" fill="#a9afb8"/><path d="M1199.5 730h.5M421 470h58" stroke="#a9afb8" fill="none"/><path d="M421.02 470.5h-.6l.1-.5-.08-.5h.58zM479.5 470l.07.5h-.6v-1h.6z" stroke="#a9afb8" stroke-width=".05" fill="#a9afb8"/><path d="M100.5 600h2m4.02 0h4m4.02 0h4m4.02 0h4m4.02 0h4m4.02 0h4m4.03 0h4m4.02 0h4m4.02 0h4m4.02 0h4m4 0h4.02m4.02 0h4m4.02 0h4m4.02 0h4m4.02 0h4m4.02 0h4m4.02 0h4.02m4 0h4.02m4 0h4.02m4 0h4.02m4 0h4.02m4 0h4.03m4 0H279m4 0h4m4.02 0h4m4.02 0h4m4.02 0h4m4.03 0h4m4 0h4.02m4 0h4.02m4 0h4.02m4 0h4.02m4.02 0h4m4.02 0h4m4.02 0h4m4.02 0h4m4.02 0h4m4.02 0h4.02m4 0h4.02m4 0h4.02m4 0h4.02m4 0h4.02m4 0h4.03m4 0h4.02m4 0h4.02m4 0h4.02m4 0h4m4.02 0h4m4.03 0h4m4.02 0h4m4.02 0h4m4 0h4.02m4 0h4.02m4.02 0h4m4.02 0h4m4.02 0h4m4.02 0h4m4.02 0h4m4.02 0h4.02m4 0h4.02m4 0h4.02m4 0h4.02m4 0h4.02m4 0h4.03m4 0h4m4.02 0h4m4.02 0h4m4.02 0h4m4.02 0h4m4.03 0h4.02m4 0h4.02m4 0h4.02m4 0h4.02m4 0h4.02m4 0h4.03m4 0h4.02m4 0h4.02m4 0h4.02m4 0h4m4.02 0h4.02m4 0h4.02m4 0h4.02m4 0h4.02m4 0h4.02m4 0h4.02m4.02 0h4m4.02 0h4m4.02 0h4m4.02 0h4m4.02 0h4m4.03 0h4m4.02 0h4m4 0h4.02m4 0h4.02m4 0h4.02m4 0h4.03m4 0h4m4.02 0h4m4.02 0h4m4.02 0h4m4.02 0h4.02m4 0h4.02m4 0h4.02m4 0h4.02m4 0h4.02m4 0h4.02m4.02 0h4m4.02 0h4m4.02 0h4m4.02 0h4m4.02 0h4m4.03 0h4m4.02 0h4m4.02 0h4m4.02 0h4m4 0h4.02m4 0h4.03m4 0h4.02m4 0h4.02m4 0h4m4.02 0h4m4.02 0h4.02m4 0h4.02m4 0h4.02m4 0h4.02m4 0h4.02m4 0h4.02m4.02 0h4m4.02 0h4m4.02 0h4m4.02 0h4m4.02 0h4m4.03 0h4m4 0h4.02m4 0h4.02m4 0h4.02m4 0h4.02m4 0h2.02M100.5 600h-.5M1199.5 600h.5" stroke="#a9afb8" fill="none"/><path d="M100 660h200v140H100z" stroke="#3a414a" fill="#f2f3f5"/><use xlink:href="#a" transform="matrix(1,0,0,1,105,665) translate(49.44444444444444 54.34027777777778)"/><use xlink:href="#b" transform="matrix(1,0,0,1,105,665) translate(53.73456790123457 81.00694444444446)"/><path d="M100 400h200v140H100z" stroke="#3a414a" fill="#f2f3f5"/><use xlink:href="#c" transform="matrix(1,0,0,1,110.00000000000003,410) translate(40.4320987654321 63.15277777777778)"/><use xlink:href="#d" transform="matrix(1,0,0,1,110.00000000000003,410) translate(91.41975308641975 63.15277777777778)"/><path d="M340 730c0 5.52-4.48 10-10 10s-10-4.48-10-10 4.48-10 10-10 10 4.48 10 10zM420 470c0 5.52-4.48 10-10 10s-10-4.48-10-10 4.48-10 10-10 10 4.48 10 10z" stroke="#3a414a" fill="#3a414a"/><path d="M330.16 719.02l74.64-222.98" stroke="#3a414a" fill="none"/><path d="M330.64 719.17l-.13.4-.5-.07-.55.07.24-.72z" stroke="#3a414a" stroke-width=".05" fill="#3a414a"/><path d="M409.5 482.04l-.15 15-8.8-2.94zM580 730c0 5.52-4.48 10-10 10s-10-4.48-10-10 4.48-10 10-10 10 4.48 10 10zM500 470c0 5.52-4.48 10-10 10s-10-4.48-10-10 4.48-10 10-10 10 4.48 10 10z" stroke="#3a414a" fill="#3a414a"/><path d="M490.16 480.98l74.64 222.98" stroke="#3a414a" fill="none"/><path d="M490 480.5l.5-.07.14.4-.95.32-.26-.73z" stroke="#3a414a" stroke-width=".05" fill="#3a414a"/><path d="M569.5 717.96l-8.94-12.06 8.8-2.94z" stroke="#3a414a" fill="#3a414a"/><path d="M347.3 726.83a6 6 0 0 1-3.74-7.6l73.5-215.85a6 6 0 0 1 7.6-3.74l7.57 2.58a6 6 0 0 1 3.75 7.6L362.5 725.67a6 6 0 0 1-7.62 3.75z" stroke="#000" stroke-opacity="0" fill="#fff" fill-opacity="0"/><use xlink:href="#e" transform="matrix(0.322303028281983,-0.946636550086813,0.946636550086813,0.322303028281983,347.97363108517123,721.7744457700481) translate(45.92901234567903 12.444444444444443)"/><use xlink:href="#f" transform="matrix(0.322303028281983,-0.946636550086813,0.946636550086813,0.322303028281983,347.97363108517123,721.7744457700481) translate(95.14506172839506 12.444444444444443)"/><use xlink:href="#g" transform="matrix(0.322303028281983,-0.946636550086813,0.946636550086813,0.322303028281983,347.97363108517123,721.7744457700481) translate(117.57098765432099 12.444444444444443)"/><path d="M468.9 499.8a6 6 0 0 1 7.65 3.7l74.8 215.38a6 6 0 0 1-3.7 7.64l-7.56 2.62a6 6 0 0 1-7.65-3.7l-74.8-215.38a6 6 0 0 1 3.7-7.64z" stroke="#000" stroke-opacity="0" fill="#fff" fill-opacity="0"/><use xlink:href="#h" transform="matrix(0.32804732663933306,0.9446612892909219,-0.9446612892909219,0.32804732663933306,471.49956702600264,504.19317833006613) translate(58.45987654320989 12.444444444444443)"/><use xlink:href="#i" transform="matrix(0.32804732663933306,0.9446612892909219,-0.9446612892909219,0.32804732663933306,471.49956702600264,504.19317833006613) translate(99.94135802469137 12.444444444444443)"/><path d="M620 730.56c0 5.52-4.48 10-10 10s-10-4.48-10-10c0-5.53 4.48-10 10-10s10 4.47 10 10zM700 470.56c0 5.52-4.48 10-10 10s-10-4.48-10-10c0-5.53 4.48-10 10-10s10 4.47 10 10z" stroke="#3a414a" fill="#3a414a"/><path d="M610.16 719.58L684.8 496.6" stroke="#3a414a" fill="none"/><path d="M610.64 719.73l-.13.4-.5-.08-.55.08.24-.72z" stroke="#3a414a" stroke-width=".05" fill="#3a414a"/><path d="M689.5 482.6l-.15 15-8.8-2.95zM860 730.56c0 5.52-4.48 10-10 10s-10-4.48-10-10c0-5.53 4.48-10 10-10s10 4.47 10 10zM780 470.56c0 5.52-4.48 10-10 10s-10-4.48-10-10c0-5.53 4.48-10 10-10s10 4.47 10 10z" stroke="#3a414a" fill="#3a414a"/><path d="M770.16 481.54l74.64 222.98" stroke="#3a414a" fill="none"/><path d="M770 481.06l.5-.08.14.4-.95.33-.26-.73z" stroke="#3a414a" stroke-width=".05" fill="#3a414a"/><path d="M849.5 718.52l-8.94-12.06 8.8-2.94z" stroke="#3a414a" fill="#3a414a"/><path d="M633.75 727.6a6 6 0 0 1-3.8-7.6l72.42-216.2a6 6 0 0 1 7.6-3.78l7.6 2.54a6 6 0 0 1 3.77 7.6l-72.4 216.2a6 6 0 0 1-7.6 3.78z" stroke="#000" stroke-opacity="0" fill="#fff" fill-opacity="0"/><use xlink:href="#j" transform="matrix(0.31758874717893815,-0.9482285524415053,0.9482285524415053,0.31758874717893815,634.3877896701974,722.5385877921391) translate(41.824074074074076 12.444444444444443)"/><use xlink:href="#k" transform="matrix(0.31758874717893815,-0.9482285524415053,0.9482285524415053,0.31758874717893815,634.3877896701974,722.5385877921391) translate(113.12037037037037 12.444444444444443)"/><use xlink:href="#l" transform="matrix(0.31758874717893815,-0.9482285524415053,0.9482285524415053,0.31758874717893815,634.3877896701974,722.5385877921391) translate(128.6327160493827 12.444444444444443)"/><path d="M749.63 500.14a6 6 0 0 1 7.6 3.74l73.46 215.85a6 6 0 0 1-3.75 7.6l-7.58 2.6a6 6 0 0 1-7.6-3.76L738.3 510.33a6 6 0 0 1 3.76-7.62z" stroke="#000" stroke-opacity="0" fill="#fff" fill-opacity="0"/><use xlink:href="#m" transform="matrix(0.32214035964465443,0.9466919185711964,-0.9466919185711964,0.32214035964465443,752.189021376792,504.5466811435942) translate(49.42901234567901 12.444444444444443)"/><use xlink:href="#n" transform="matrix(0.32214035964465443,0.9466919185711964,-0.9466919185711964,0.32214035964465443,752.189021376792,504.5466811435942) translate(91.99074074074073 12.444444444444443)"/><use xlink:href="#o" transform="matrix(0.32214035964465443,0.9466919185711964,-0.9466919185711964,0.32214035964465443,752.189021376792,504.5466811435942) translate(113.59567901234567 12.444444444444443)"/><path d="M900 730.56c0 5.52-4.48 10-10 10s-10-4.48-10-10c0-5.53 4.48-10 10-10s10 4.47 10 10zM980 470.56c0 5.52-4.48 10-10 10s-10-4.48-10-10c0-5.53 4.48-10 10-10s10 4.47 10 10z" stroke="#3a414a" fill="#3a414a"/><path d="M890.16 719.58L964.8 496.6" stroke="#3a414a" fill="none"/><path d="M890.64 719.73l-.13.4-.5-.08-.55.08.24-.72z" stroke="#3a414a" stroke-width=".05" fill="#3a414a"/><path d="M969.5 482.6l-.15 15-8.8-2.95zM1140 730.56c0 5.52-4.48 10-10 10s-10-4.48-10-10c0-5.53 4.48-10 10-10s10 4.47 10 10zM1060 470.56c0 5.52-4.48 10-10 10s-10-4.48-10-10c0-5.53 4.48-10 10-10s10 4.47 10 10z" stroke="#3a414a" fill="#3a414a"/><path d="M1050.16 481.54l74.64 222.98" stroke="#3a414a" fill="none"/><path d="M1050 481.06l.5-.08.14.4-.95.33-.26-.73z" stroke="#3a414a" stroke-width=".05" fill="#3a414a"/><path d="M1129.5 718.52l-8.94-12.06 8.8-2.94z" stroke="#3a414a" fill="#3a414a"/><path d="M913.54 727.52a6 6 0 0 1-3.77-7.6l72.82-216.06a6 6 0 0 1 7.6-3.77l7.57 2.54a6 6 0 0 1 3.77 7.6L928.72 726.3a6 6 0 0 1-7.6 3.77z" stroke="#000" stroke-opacity="0" fill="#fff" fill-opacity="0"/><use xlink:href="#p" transform="matrix(0.31938339571936564,-0.9476255835184945,0.9476255835184945,0.31938339571936564,914.1844199326633,722.4602731232908) translate(11.750000000000028 12.444444444444443)"/><use xlink:href="#q" transform="matrix(0.31938339571936564,-0.9476255835184945,0.9476255835184945,0.31938339571936564,914.1844199326633,722.4602731232908) translate(54.61419753086422 12.444444444444443)"/><use xlink:href="#r" transform="matrix(0.31938339571936564,-0.9476255835184945,0.9476255835184945,0.31938339571936564,914.1844199326633,722.4602731232908) translate(71.89814814814817 12.444444444444443)"/><use xlink:href="#k" transform="matrix(0.31938339571936564,-0.9476255835184945,0.9476255835184945,0.31938339571936564,914.1844199326633,722.4602731232908) translate(143.19444444444446 12.444444444444443)"/><use xlink:href="#l" transform="matrix(0.31938339571936564,-0.9476255835184945,0.9476255835184945,0.31938339571936564,914.1844199326633,722.4602731232908) translate(158.70679012345678 12.444444444444443)"/><g><path d="M1028.35 500.53a6 6 0 0 1 7.66 3.66l75.86 215a6 6 0 0 1-3.66 7.66l-7.55 2.66a6 6 0 0 1-7.65-3.66l-75.85-215a6 6 0 0 1 3.66-7.67z" stroke="#000" stroke-opacity="0" fill="#fff" fill-opacity="0"/></g><g><use xlink:href="#s" transform="matrix(0.33268633693797184,0.9430375396636097,-0.9430375396636097,0.33268633693797184,1030.9579620935226,504.9142048315) translate(31 12.444444444444443)"/><use xlink:href="#t" transform="matrix(0.33268633693797184,0.9430375396636097,-0.9430375396636097,0.33268633693797184,1030.9579620935226,504.9142048315) translate(62.9753086419753 12.444444444444443)"/><use xlink:href="#u" transform="matrix(0.33268633693797184,0.9430375396636097,-0.9430375396636097,0.33268633693797184,1030.9579620935226,504.9142048315) translate(130.7716049382716 12.444444444444443)"/></g><path d="M701 470.56h58" stroke="#a9afb8" fill="none"/><path d="M701.02 471.06h-.6l.1-.5-.08-.5h.58zM759.5 470.56l.07.5h-.6v-1h.6z" stroke="#a9afb8" stroke-width=".05" fill="#a9afb8"/><path d="M981 470.56h58" stroke="#a9afb8" fill="none"/><path d="M981.02 471.06h-.6l.1-.5-.08-.5h.58zM1039.5 470.56l.07.5h-.6v-1h.6z" stroke="#a9afb8" stroke-width=".05" fill="#a9afb8"/><defs><path fill="#3a414a" d="M127-220V0H93v-220H8v-28h204v28h-85" id="v"/><path fill="#3a414a" d="M100-194c63 0 86 42 84 106H49c0 40 14 67 53 68 26 1 43-12 49-29l28 8c-11 28-37 45-77 45C44 4 14-33 15-96c1-61 26-98 85-98zm52 81c6-60-76-77-97-28-3 7-6 17-6 28h103" id="w"/><path fill="#3a414a" d="M210-169c-67 3-38 105-44 169h-31v-121c0-29-5-50-35-48C34-165 62-65 56 0H25l-1-190h30c1 10-1 24 2 32 10-44 99-50 107 0 11-21 27-35 58-36 85-2 47 119 55 194h-31v-121c0-29-5-49-35-48" id="x"/><path fill="#3a414a" d="M115-194c55 1 70 41 70 98S169 2 115 4C84 4 66-9 55-30l1 105H24l-1-265h31l2 30c10-21 28-34 59-34zm-8 174c40 0 45-34 45-75s-6-73-45-74c-42 0-51 32-51 76 0 43 10 73 51 73" id="y"/><path fill="#3a414a" d="M100-194c62-1 85 37 85 99 1 63-27 99-86 99S16-35 15-95c0-66 28-99 85-99zM99-20c44 1 53-31 53-75 0-43-8-75-51-75s-53 32-53 75 10 74 51 75" id="z"/><path fill="#3a414a" d="M114-163C36-179 61-72 57 0H25l-1-190h30c1 12-1 29 2 39 6-27 23-49 58-41v29" id="A"/><path fill="#3a414a" d="M141-36C126-15 110 5 73 4 37 3 15-17 15-53c-1-64 63-63 125-63 3-35-9-54-41-54-24 1-41 7-42 31l-33-3c5-37 33-52 76-52 45 0 72 20 72 64v82c-1 20 7 32 28 27v20c-31 9-61-2-59-35zM48-53c0 20 12 33 32 33 41-3 63-29 60-74-43 2-92-5-92 41" id="B"/><path fill="#3a414a" d="M24 0v-261h32V0H24" id="C"/><g id="a"><use transform="matrix(0.06172839506172839,0,0,0.06172839506172839,0,0)" xlink:href="#v"/><use transform="matrix(0.06172839506172839,0,0,0.06172839506172839,11.049382716049381,0)" xlink:href="#w"/><use transform="matrix(0.06172839506172839,0,0,0.06172839506172839,23.39506172839506,0)" xlink:href="#x"/><use transform="matrix(0.06172839506172839,0,0,0.06172839506172839,41.85185185185185,0)" xlink:href="#y"/><use transform="matrix(0.06172839506172839,0,0,0.06172839506172839,54.197530864197525,0)" xlink:href="#z"/><use transform="matrix(0.06172839506172839,0,0,0.06172839506172839,66.5432098765432,0)" xlink:href="#A"/><use transform="matrix(0.06172839506172839,0,0,0.06172839506172839,73.88888888888889,0)" xlink:href="#B"/><use transform="matrix(0.06172839506172839,0,0,0.06172839506172839,86.23456790123457,0)" xlink:href="#C"/></g><path fill="#3a414a" d="M30-248c87 1 191-15 191 75 0 78-77 80-158 76V0H30v-248zm33 125c57 0 124 11 124-50 0-59-68-47-124-48v98" id="D"/><path fill="#3a414a" d="M59-47c-2 24 18 29 38 22v24C64 9 27 4 27-40v-127H5v-23h24l9-43h21v43h35v23H59v120" id="E"/><path fill="#3a414a" d="M101-234c-31-9-42 10-38 44h38v23H63V0H32v-167H5v-23h27c-7-52 17-82 69-68v24" id="F"/><g id="b"><use transform="matrix(0.06172839506172839,0,0,0.06172839506172839,0,0)" xlink:href="#D"/><use transform="matrix(0.06172839506172839,0,0,0.06172839506172839,14.814814814814813,0)" xlink:href="#C"/><use transform="matrix(0.06172839506172839,0,0,0.06172839506172839,19.691358024691354,0)" xlink:href="#B"/><use transform="matrix(0.06172839506172839,0,0,0.06172839506172839,32.03703703703703,0)" xlink:href="#E"/><use transform="matrix(0.06172839506172839,0,0,0.06172839506172839,38.20987654320987,0)" xlink:href="#F"/><use transform="matrix(0.06172839506172839,0,0,0.06172839506172839,44.382716049382715,0)" xlink:href="#z"/><use transform="matrix(0.06172839506172839,0,0,0.06172839506172839,56.72839506172839,0)" xlink:href="#A"/><use transform="matrix(0.06172839506172839,0,0,0.06172839506172839,64.07407407407408,0)" xlink:href="#x"/></g><path fill="#3a414a" d="M137-103V0h-34v-103L8-248h37l75 118 75-118h37" id="G"/><path fill="#3a414a" d="M84 4C-5 8 30-112 23-190h32v120c0 31 7 50 39 49 72-2 45-101 50-169h31l1 190h-30c-1-10 1-25-2-33-11 22-28 36-60 37" id="H"/><g id="c"><use transform="matrix(0.06172839506172839,0,0,0.06172839506172839,0,0)" xlink:href="#G"/><use transform="matrix(0.06172839506172839,0,0,0.06172839506172839,12.777777777777777,0)" xlink:href="#z"/><use transform="matrix(0.06172839506172839,0,0,0.06172839506172839,25.123456790123456,0)" xlink:href="#H"/><use transform="matrix(0.06172839506172839,0,0,0.06172839506172839,37.46913580246913,0)" xlink:href="#A"/></g><path fill="#3a414a" d="M96-169c-40 0-48 33-48 73s9 75 48 75c24 0 41-14 43-38l32 2c-6 37-31 61-74 61-59 0-76-41-82-99-10-93 101-131 147-64 4 7 5 14 7 22l-32 3c-4-21-16-35-41-35" id="I"/><path fill="#3a414a" d="M85-194c31 0 48 13 60 33l-1-100h32l1 261h-30c-2-10 0-23-3-31C134-8 116 4 85 4 32 4 16-35 15-94c0-66 23-100 70-100zm9 24c-40 0-46 34-46 75 0 40 6 74 45 74 42 0 51-32 51-76 0-42-9-74-50-73" id="J"/><g id="d"><use transform="matrix(0.06172839506172839,0,0,0.06172839506172839,0,0)" xlink:href="#I"/><use transform="matrix(0.06172839506172839,0,0,0.06172839506172839,11.11111111111111,0)" xlink:href="#z"/><use transform="matrix(0.06172839506172839,0,0,0.06172839506172839,23.45679012345679,0)" xlink:href="#J"/><use transform="matrix(0.06172839506172839,0,0,0.06172839506172839,35.80246913580247,0)" xlink:href="#w"/></g><path fill="#3a414a" d="M233-177c-1 41-23 64-60 70L243 0h-38l-65-103H63V0H30v-248c88 3 205-21 203 71zM63-129c60-2 137 13 137-47 0-61-80-42-137-45v92" id="K"/><path fill="#3a414a" d="M179-190L93 31C79 59 56 82 12 73V49c39 6 53-20 64-50L1-190h34L92-34l54-156h33" id="L"/><g id="e"><use transform="matrix(0.04320987654320987,0,0,0.04320987654320987,0,0)" xlink:href="#K"/><use transform="matrix(0.04320987654320987,0,0,0.04320987654320987,11.191358024691356,0)" xlink:href="#w"/><use transform="matrix(0.04320987654320987,0,0,0.04320987654320987,19.83333333333333,0)" xlink:href="#B"/><use transform="matrix(0.04320987654320987,0,0,0.04320987654320987,28.475308641975303,0)" xlink:href="#J"/><use transform="matrix(0.04320987654320987,0,0,0.04320987654320987,37.11728395061728,0)" xlink:href="#L"/></g><g id="f"><use transform="matrix(0.04320987654320987,0,0,0.04320987654320987,0,0)" xlink:href="#F"/><use transform="matrix(0.04320987654320987,0,0,0.04320987654320987,4.320987654320986,0)" xlink:href="#z"/><use transform="matrix(0.04320987654320987,0,0,0.04320987654320987,12.962962962962958,0)" xlink:href="#A"/></g><path fill="#3a414a" d="M141 0L90-78 38 0H4l68-98-65-92h35l48 74 47-74h35l-64 92 68 98h-35" id="M"/><path fill="#3a414a" d="M24-231v-30h32v30H24zM24 0v-190h32V0H24" id="N"/><path fill="#3a414a" d="M117-194c89-4 53 116 60 194h-32v-121c0-31-8-49-39-48C34-167 62-67 57 0H25l-1-190h30c1 10-1 24 2 32 11-22 29-35 61-36" id="O"/><g id="g"><use transform="matrix(0.04320987654320987,0,0,0.04320987654320987,0,0)" xlink:href="#w"/><use transform="matrix(0.04320987654320987,0,0,0.04320987654320987,8.641975308641973,0)" xlink:href="#M"/><use transform="matrix(0.04320987654320987,0,0,0.04320987654320987,16.41975308641975,0)" xlink:href="#w"/><use transform="matrix(0.04320987654320987,0,0,0.04320987654320987,25.061728395061724,0)" xlink:href="#I"/><use transform="matrix(0.04320987654320987,0,0,0.04320987654320987,32.8395061728395,0)" xlink:href="#H"/><use transform="matrix(0.04320987654320987,0,0,0.04320987654320987,41.481481481481474,0)" xlink:href="#E"/><use transform="matrix(0.04320987654320987,0,0,0.04320987654320987,45.80246913580246,0)" xlink:href="#N"/><use transform="matrix(0.04320987654320987,0,0,0.04320987654320987,49.21604938271605,0)" xlink:href="#z"/><use transform="matrix(0.04320987654320987,0,0,0.04320987654320987,57.858024691358025,0)" xlink:href="#O"/></g><path fill="#3a414a" d="M33 0v-248h34V0H33" id="P"/><path fill="#3a414a" d="M135-143c-3-34-86-38-87 0 15 53 115 12 119 90S17 21 10-45l28-5c4 36 97 45 98 0-10-56-113-15-118-90-4-57 82-63 122-42 12 7 21 19 24 35" id="Q"/><g id="h"><use transform="matrix(0.04320987654320987,0,0,0.04320987654320987,0,0)" xlink:href="#P"/><use transform="matrix(0.04320987654320987,0,0,0.04320987654320987,4.320987654320986,0)" xlink:href="#Q"/><use transform="matrix(0.04320987654320987,0,0,0.04320987654320987,12.098765432098762,0)" xlink:href="#Q"/><use transform="matrix(0.04320987654320987,0,0,0.04320987654320987,19.876543209876537,0)" xlink:href="#H"/><use transform="matrix(0.04320987654320987,0,0,0.04320987654320987,28.518518518518512,0)" xlink:href="#w"/></g><path fill="#3a414a" d="M212-179c-10-28-35-45-73-45-59 0-87 40-87 99 0 60 29 101 89 101 43 0 62-24 78-52l27 14C228-24 195 4 139 4 59 4 22-46 18-125c-6-104 99-153 187-111 19 9 31 26 39 46" id="R"/><g id="i"><use transform="matrix(0.04320987654320987,0,0,0.04320987654320987,0,0)" xlink:href="#R"/><use transform="matrix(0.04320987654320987,0,0,0.04320987654320987,11.191358024691356,0)" xlink:href="#z"/><use transform="matrix(0.04320987654320987,0,0,0.04320987654320987,19.83333333333333,0)" xlink:href="#x"/><use transform="matrix(0.04320987654320987,0,0,0.04320987654320987,32.753086419753075,0)" xlink:href="#x"/><use transform="matrix(0.04320987654320987,0,0,0.04320987654320987,45.67283950617282,0)" xlink:href="#B"/><use transform="matrix(0.04320987654320987,0,0,0.04320987654320987,54.314814814814795,0)" xlink:href="#O"/><use transform="matrix(0.04320987654320987,0,0,0.04320987654320987,62.95679012345677,0)" xlink:href="#J"/></g><path fill="#3a414a" d="M205 0l-28-72H64L36 0H1l101-248h38L239 0h-34zm-38-99l-47-123c-12 45-31 82-46 123h93" id="S"/><path fill="#3a414a" d="M206 0h-36l-40-164L89 0H53L-1-190h32L70-26l43-164h34l41 164 42-164h31" id="T"/><path fill="#3a414a" d="M115-194c53 0 69 39 70 98 0 66-23 100-70 100C84 3 66-7 56-30L54 0H23l1-261h32v101c10-23 28-34 59-34zm-8 174c40 0 45-34 45-75 0-40-5-75-45-74-42 0-51 32-51 76 0 43 10 73 51 73" id="U"/><g id="j"><use transform="matrix(0.04320987654320987,0,0,0.04320987654320987,0,0)" xlink:href="#S"/><use transform="matrix(0.04320987654320987,0,0,0.04320987654320987,10.0679012345679,0)" xlink:href="#T"/><use transform="matrix(0.04320987654320987,0,0,0.04320987654320987,21.259259259259256,0)" xlink:href="#B"/><use transform="matrix(0.04320987654320987,0,0,0.04320987654320987,29.901234567901227,0)" xlink:href="#N"/><use transform="matrix(0.04320987654320987,0,0,0.04320987654320987,33.31481481481481,0)" xlink:href="#E"/><use transform="matrix(0.04320987654320987,0,0,0.04320987654320987,37.6358024691358,0)" xlink:href="#B"/><use transform="matrix(0.04320987654320987,0,0,0.04320987654320987,46.277777777777764,0)" xlink:href="#U"/><use transform="matrix(0.04320987654320987,0,0,0.04320987654320987,54.91975308641974,0)" xlink:href="#C"/><use transform="matrix(0.04320987654320987,0,0,0.04320987654320987,58.33333333333333,0)" xlink:href="#w"/></g><g id="k"><use transform="matrix(0.04320987654320987,0,0,0.04320987654320987,0,0)" xlink:href="#N"/><use transform="matrix(0.04320987654320987,0,0,0.04320987654320987,3.4135802469135794,0)" xlink:href="#Q"/></g><path fill="#3a414a" d="M108 0H70L1-190h34L89-25l56-165h34" id="V"/><g id="l"><use transform="matrix(0.04320987654320987,0,0,0.04320987654320987,0,0)" xlink:href="#y"/><use transform="matrix(0.04320987654320987,0,0,0.04320987654320987,8.641975308641973,0)" xlink:href="#A"/><use transform="matrix(0.04320987654320987,0,0,0.04320987654320987,13.783950617283947,0)" xlink:href="#z"/><use transform="matrix(0.04320987654320987,0,0,0.04320987654320987,22.42592592592592,0)" xlink:href="#V"/><use transform="matrix(0.04320987654320987,0,0,0.04320987654320987,30.2037037037037,0)" xlink:href="#N"/><use transform="matrix(0.04320987654320987,0,0,0.04320987654320987,33.61728395061728,0)" xlink:href="#J"/><use transform="matrix(0.04320987654320987,0,0,0.04320987654320987,42.25925925925925,0)" xlink:href="#w"/><use transform="matrix(0.04320987654320987,0,0,0.04320987654320987,50.90123456790123,0)" xlink:href="#J"/></g><path fill="#3a414a" d="M266 0h-40l-56-210L115 0H75L2-248h35L96-30l15-64 43-154h32l59 218 59-218h35" id="W"/><g id="m"><use transform="matrix(0.04320987654320987,0,0,0.04320987654320987,0,0)" xlink:href="#W"/><use transform="matrix(0.04320987654320987,0,0,0.04320987654320987,14.086419753086417,0)" xlink:href="#B"/><use transform="matrix(0.04320987654320987,0,0,0.04320987654320987,22.72839506172839,0)" xlink:href="#N"/><use transform="matrix(0.04320987654320987,0,0,0.04320987654320987,26.14197530864197,0)" xlink:href="#E"/><use transform="matrix(0.04320987654320987,0,0,0.04320987654320987,30.462962962962955,0)" xlink:href="#Q"/></g><g id="n"><use transform="matrix(0.04320987654320987,0,0,0.04320987654320987,0,0)" xlink:href="#z"/><use transform="matrix(0.04320987654320987,0,0,0.04320987654320987,8.641975308641973,0)" xlink:href="#O"/></g><g id="o"><use transform="matrix(0.04320987654320987,0,0,0.04320987654320987,0,0)" xlink:href="#S"/><use transform="matrix(0.04320987654320987,0,0,0.04320987654320987,10.0679012345679,0)" xlink:href="#T"/><use transform="matrix(0.04320987654320987,0,0,0.04320987654320987,21.259259259259256,0)" xlink:href="#B"/><use transform="matrix(0.04320987654320987,0,0,0.04320987654320987,29.901234567901227,0)" xlink:href="#N"/><use transform="matrix(0.04320987654320987,0,0,0.04320987654320987,33.31481481481481,0)" xlink:href="#E"/><use transform="matrix(0.04320987654320987,0,0,0.04320987654320987,37.6358024691358,0)" xlink:href="#B"/><use transform="matrix(0.04320987654320987,0,0,0.04320987654320987,46.277777777777764,0)" xlink:href="#U"/><use transform="matrix(0.04320987654320987,0,0,0.04320987654320987,54.91975308641974,0)" xlink:href="#C"/><use transform="matrix(0.04320987654320987,0,0,0.04320987654320987,58.33333333333333,0)" xlink:href="#w"/></g><path fill="#3a414a" d="M137 0h-34L2-248h35l83 218 83-218h36" id="X"/><g id="p"><use transform="matrix(0.04320987654320987,0,0,0.04320987654320987,0,0)" xlink:href="#X"/><use transform="matrix(0.04320987654320987,0,0,0.04320987654320987,9.203703703703702,0)" xlink:href="#B"/><use transform="matrix(0.04320987654320987,0,0,0.04320987654320987,17.845679012345677,0)" xlink:href="#C"/><use transform="matrix(0.04320987654320987,0,0,0.04320987654320987,21.259259259259256,0)" xlink:href="#H"/><use transform="matrix(0.04320987654320987,0,0,0.04320987654320987,29.901234567901227,0)" xlink:href="#w"/></g><g id="q"><use transform="matrix(0.04320987654320987,0,0,0.04320987654320987,0,0)" xlink:href="#z"/><use transform="matrix(0.04320987654320987,0,0,0.04320987654320987,8.641975308641973,0)" xlink:href="#F"/></g><g id="r"><use transform="matrix(0.04320987654320987,0,0,0.04320987654320987,0,0)" xlink:href="#S"/><use transform="matrix(0.04320987654320987,0,0,0.04320987654320987,10.0679012345679,0)" xlink:href="#T"/><use transform="matrix(0.04320987654320987,0,0,0.04320987654320987,21.259259259259256,0)" xlink:href="#B"/><use transform="matrix(0.04320987654320987,0,0,0.04320987654320987,29.901234567901227,0)" xlink:href="#N"/><use transform="matrix(0.04320987654320987,0,0,0.04320987654320987,33.31481481481481,0)" xlink:href="#E"/><use transform="matrix(0.04320987654320987,0,0,0.04320987654320987,37.6358024691358,0)" xlink:href="#B"/><use transform="matrix(0.04320987654320987,0,0,0.04320987654320987,46.277777777777764,0)" xlink:href="#U"/><use transform="matrix(0.04320987654320987,0,0,0.04320987654320987,54.91975308641974,0)" xlink:href="#C"/><use transform="matrix(0.04320987654320987,0,0,0.04320987654320987,58.33333333333333,0)" xlink:href="#w"/></g><path fill="#3a414a" d="M30 0v-248h187v28H63v79h144v27H63v87h162V0H30" id="Y"/><g id="s"><use transform="matrix(0.04320987654320987,0,0,0.04320987654320987,0,0)" xlink:href="#Y"/><use transform="matrix(0.04320987654320987,0,0,0.04320987654320987,10.370370370370368,0)" xlink:href="#O"/><use transform="matrix(0.04320987654320987,0,0,0.04320987654320987,19.01234567901234,0)" xlink:href="#J"/></g><path fill="#3a414a" d="M143 0L79-87 56-68V0H24v-261h32v163l83-92h37l-77 82L181 0h-38" id="Z"/><g id="t"><use transform="matrix(0.04320987654320987,0,0,0.04320987654320987,0,0)" xlink:href="#W"/><use transform="matrix(0.04320987654320987,0,0,0.04320987654320987,14.345679012345675,0)" xlink:href="#z"/><use transform="matrix(0.04320987654320987,0,0,0.04320987654320987,22.987654320987648,0)" xlink:href="#A"/><use transform="matrix(0.04320987654320987,0,0,0.04320987654320987,28.12962962962963,0)" xlink:href="#Z"/><use transform="matrix(0.04320987654320987,0,0,0.04320987654320987,35.907407407407405,0)" xlink:href="#F"/><use transform="matrix(0.04320987654320987,0,0,0.04320987654320987,40.22839506172839,0)" xlink:href="#C"/><use transform="matrix(0.04320987654320987,0,0,0.04320987654320987,43.641975308641975,0)" xlink:href="#z"/><use transform="matrix(0.04320987654320987,0,0,0.04320987654320987,52.28395061728395,0)" xlink:href="#T"/></g><g id="u"><use transform="matrix(0.04320987654320987,0,0,0.04320987654320987,0,0)" xlink:href="#Y"/><use transform="matrix(0.04320987654320987,0,0,0.04320987654320987,10.370370370370368,0)" xlink:href="#M"/><use transform="matrix(0.04320987654320987,0,0,0.04320987654320987,18.148148148148145,0)" xlink:href="#w"/><use transform="matrix(0.04320987654320987,0,0,0.04320987654320987,26.790123456790116,0)" xlink:href="#I"/><use transform="matrix(0.04320987654320987,0,0,0.04320987654320987,34.5679012345679,0)" xlink:href="#H"/><use transform="matrix(0.04320987654320987,0,0,0.04320987654320987,43.20987654320987,0)" xlink:href="#E"/><use transform="matrix(0.04320987654320987,0,0,0.04320987654320987,47.53086419753086,0)" xlink:href="#N"/><use transform="matrix(0.04320987654320987,0,0,0.04320987654320987,50.94444444444444,0)" xlink:href="#z"/><use transform="matrix(0.04320987654320987,0,0,0.04320987654320987,59.58641975308642,0)" xlink:href="#O"/></g></defs></g></svg>