<svg xmlns="http://www.w3.org/2000/svg" xmlns:xlink="http://www.w3.org/1999/xlink" xmlns:lucid="lucid" width="960" height="238.67"><g transform="translate(-60 -60)" lucid:page-tab-id="0_0"><path d="M240 80h520v198.67H240z" stroke="#333" stroke-width="3" fill="#fff"/><use xlink:href="#a" transform="translate(472.84 120.778)"/><path d="M260 98.67h160v160H260z" stroke="#333" stroke-width="3" fill="#fff"/><use xlink:href="#b" transform="translate(280.833 182.382)"/><path d="M160 179.33c0 22.1-17.9 40-40 40s-40-17.9-40-40 17.9-40 40-40 40 17.9 40 40z" stroke="#333" stroke-width="4" fill="#333"/><path d="M580 98.67h160v160H580z" stroke="#333" stroke-width="3" fill="#fff"/><use xlink:href="#c" transform="translate(603.827 182.382)"/><path d="M840 99.33h160v160H840z" stroke="#333" stroke-width="3" fill="#fff"/><use xlink:href="#d" transform="translate(885.494 183.049)"/><path d="M422.5 144.42H560" stroke="#333" stroke-width="2" fill="none"/><path d="M422.53 145.42h-1.03v-2h1.03z" fill="#333"/><path d="M575.26 144.42 561 149.06v-9.28z" stroke="#333" stroke-width="2" fill="#333"/><path d="M577.5 211.6H440" stroke="#333" stroke-width="2" fill="none"/><path d="M578.5 212.6h-1.03v-2h1.03z" fill="#333"/><path d="m424.74 211.6 14.26-4.64v9.27z" stroke="#333" stroke-width="2" fill="#333"/><path d="M163 179.33h57" stroke="#333" stroke-width="2" fill="none"/><path d="M163.03 180.33h-1.1l.07-.97-.03-1.03h1.06z" fill="#333"/><path d="M235.26 179.33 221 183.97v-9.27z" stroke="#333" stroke-width="2" fill="#333"/><path d="M762.5 179.33H820" stroke="#333" stroke-width="2" fill="none"/><path d="M762.53 180.33h-1.03v-2h1.03z" fill="#333"/><path d="M835.26 179.33 821 183.97v-9.27z" stroke="#333" stroke-width="2" fill="#333"/><defs><path fill="#333" d="M140-251c81 0 123 46 123 126C263-46 219 4 140 4 59 4 17-45 17-125s42-126 123-126zm0 227c63 0 89-41 89-101s-29-99-89-99c-61 0-89 39-89 99S79-25 140-24" id="e"/><path fill="#333" d="M115-194c55 1 70 41 70 98S169 2 115 4C84 4 66-9 55-30l1 105H24l-1-265h31l2 30c10-21 28-34 59-34zm-8 174c40 0 45-34 45-75s-6-73-45-74c-42 0-51 32-51 76 0 43 10 73 51 73" id="f"/><path fill="#333" d="M100-194c63 0 86 42 84 106H49c0 40 14 67 53 68 26 1 43-12 49-29l28 8c-11 28-37 45-77 45C44 4 14-33 15-96c1-61 26-98 85-98zm52 81c6-60-76-77-97-28-3 7-6 17-6 28h103" id="g"/><path fill="#333" d="M117-194c89-4 53 116 60 194h-32v-121c0-31-8-49-39-48C34-167 62-67 57 0H25l-1-190h30c1 10-1 24 2 32 11-22 29-35 61-36" id="h"/><path fill="#333" d="M30-248c87 1 191-15 191 75 0 78-77 80-158 76V0H30v-248zm33 125c57 0 124 11 124-50 0-59-68-47-124-48v98" id="i"/><path fill="#333" d="M114-163C36-179 61-72 57 0H25l-1-190h30c1 12-1 29 2 39 6-27 23-49 58-41v29" id="j"/><path fill="#333" d="M100-194c62-1 85 37 85 99 1 63-27 99-86 99S16-35 15-95c0-66 28-99 85-99zM99-20c44 1 53-31 53-75 0-43-8-75-51-75s-53 32-53 75 10 74 51 75" id="k"/><path fill="#333" d="M177-190C167-65 218 103 67 71c-23-6-38-20-44-43l32-5c15 47 100 32 89-28v-30C133-14 115 1 83 1 29 1 15-40 15-95c0-56 16-97 71-98 29-1 48 16 59 35 1-10 0-23 2-32h30zM94-22c36 0 50-32 50-73 0-42-14-75-50-75-39 0-46 34-46 75s6 73 46 73" id="l"/><path fill="#333" d="M135-143c-3-34-86-38-87 0 15 53 115 12 119 90S17 21 10-45l28-5c4 36 97 45 98 0-10-56-113-15-118-90-4-57 82-63 122-42 12 7 21 19 24 35" id="m"/><path fill="#333" d="M24-231v-30h32v30H24zM24 0v-190h32V0H24" id="n"/><path fill="#333" d="M185-189c-5-48-123-54-124 2 14 75 158 14 163 119 3 78-121 87-175 55-17-10-28-26-33-46l33-7c5 56 141 63 141-1 0-78-155-14-162-118-5-82 145-84 179-34 5 7 8 16 11 25" id="o"/><path fill="#333" d="M84 4C-5 8 30-112 23-190h32v120c0 31 7 50 39 49 72-2 45-101 50-169h31l1 190h-30c-1-10 1-25-2-33-11 22-28 36-60 37" id="p"/><path fill="#333" d="M85-194c31 0 48 13 60 33l-1-100h32l1 261h-30c-2-10 0-23-3-31C134-8 116 4 85 4 32 4 16-35 15-94c0-66 23-100 70-100zm9 24c-40 0-46 34-46 75 0 40 6 74 45 74 42 0 51-32 51-76 0-42-9-74-50-73" id="q"/><path fill="#333" d="M212-179c-10-28-35-45-73-45-59 0-87 40-87 99 0 60 29 101 89 101 43 0 62-24 78-52l27 14C228-24 195 4 139 4 59 4 22-46 18-125c-6-104 99-153 187-111 19 9 31 26 39 46" id="r"/><path fill="#333" d="M24 0v-261h32V0H24" id="s"/><g id="a"><use transform="rotate(.413) scale(.06173)" xlink:href="#e"/><use transform="matrix(.06173 0 0 .06173 17.284 0)" xlink:href="#f"/><use transform="matrix(.06173 0 0 .06173 29.63 0)" xlink:href="#g"/><use transform="matrix(.06173 0 0 .06173 41.975 0)" xlink:href="#h"/></g><g id="b"><use transform="rotate(.413) scale(.06173)" xlink:href="#i"/><use transform="matrix(.06173 0 0 .06173 14.815 0)" xlink:href="#j"/><use transform="matrix(.06173 0 0 .06173 22.16 0)" xlink:href="#k"/><use transform="matrix(.06173 0 0 .06173 34.506 0)" xlink:href="#l"/><use transform="matrix(.06173 0 0 .06173 46.852 0)" xlink:href="#j"/><use transform="matrix(.06173 0 0 .06173 54.198 0)" xlink:href="#g"/><use transform="matrix(.06173 0 0 .06173 66.543 0)" xlink:href="#m"/><use transform="matrix(.06173 0 0 .06173 77.654 0)" xlink:href="#m"/><use transform="matrix(.06173 0 0 .06173 88.765 0)" xlink:href="#n"/><use transform="matrix(.06173 0 0 .06173 93.642 0)" xlink:href="#h"/><use transform="matrix(.06173 0 0 .06173 105.988 0)" xlink:href="#l"/></g><g id="c"><use transform="rotate(.413) scale(.06173)" xlink:href="#o"/><use transform="matrix(.06173 0 0 .06173 14.815 0)" xlink:href="#p"/><use transform="matrix(.06173 0 0 .06173 27.16 0)" xlink:href="#m"/><use transform="matrix(.06173 0 0 .06173 38.272 0)" xlink:href="#f"/><use transform="matrix(.06173 0 0 .06173 50.617 0)" xlink:href="#g"/><use transform="matrix(.06173 0 0 .06173 62.963 0)" xlink:href="#h"/><use transform="matrix(.06173 0 0 .06173 75.309 0)" xlink:href="#q"/><use transform="matrix(.06173 0 0 .06173 87.654 0)" xlink:href="#g"/><use transform="matrix(.06173 0 0 .06173 100 0)" xlink:href="#q"/></g><g id="d"><use transform="rotate(.413) scale(.06173)" xlink:href="#r"/><use transform="matrix(.06173 0 0 .06173 15.988 0)" xlink:href="#s"/><use transform="matrix(.06173 0 0 .06173 20.864 0)" xlink:href="#k"/><use transform="matrix(.06173 0 0 .06173 33.21 0)" xlink:href="#m"/><use transform="matrix(.06173 0 0 .06173 44.321 0)" xlink:href="#g"/><use transform="matrix(.06173 0 0 .06173 56.667 0)" xlink:href="#q"/></g></defs></g></svg>