<svg xmlns="http://www.w3.org/2000/svg" xmlns:xlink="http://www.w3.org/1999/xlink" xmlns:lucid="lucid" width="1126" height="440"><g transform="translate(-80 -380)" lucid:page-tab-id="0_0"><path d="M0 0h1870.87v1322.83H0z" fill="#fff"/><path d="M301 730h2m4.02 0h4m4.02 0h4m4.02 0h4m4.02 0h4m4.03 0h4.02m4 0h4.02m4 0h4.02m4 0h4.02m4.02 0h4m4.02 0h4m4.02 0h4m4.02 0h4m4.02 0h4.02m4 0h4.02m4 0h4.02m4 0h4.02m4 0h4.03m4 0h4m4.02 0h4m4.02 0h4m4.02 0h4m4.03 0h4m4 0h4.02m4 0h4.02m4 0h4.02m4 0h4.03m4 0h4m4.02 0h4m4.02 0h4m4.02 0h4.02m4 0h4.02m4 0h4.02m4 0h4.02m4 0h4.02m4.02 0h4m4.02 0h4m4.02 0h4m4.02 0h4m4.02 0h4.02m4 0h4.02m4 0h4.02m4 0h4.02m4 0h4.03m4 0H656m4 0h4m4.02 0h4m4.02 0h4m4.03 0h4m4.02 0h4m4 0h4.02m4 0h4.02m4.02 0h4m4.02 0h4m4.02 0h4m4.02 0h4m4.02 0h4.02m4 0h4.02m4 0h4.02m4 0h4.02m4 0h4.02m4.02 0h4m4.02 0h4m4.02 0h4m4.02 0h4m4.03 0h4m4.02 0h4m4.02 0h4m4 0h4.02m4 0h4.03m4 0h4.02m4 0h4.02m4 0h4m4.02 0h4.02m4 0h4.02m4 0h4.02m4 0h4.02m4 0h4.02m4.02 0h4m4.02 0h4m4.02 0h4m4.02 0h4m4.02 0h4.02m4 0h4.02m4 0h4.02m4 0h4.02m4 0h4.03m4 0h4.02m4 0h4.02m4 0h4.02m4 0h4m4.03 0h4m4.02 0h4m4.02 0h4m4.02 0h4m4 0h4.03m4 0h4.02m4 0h4.02m4 0h4.02m4 0h4.02m4 0h4.02m4 0h4.02m4 0h4.02m4 0h4.02m4.02 0h4m4.02 0h4m4.02 0h4m4.02 0h4m4.03 0h4.02m4 0h4.02m4 0h4.02m4 0h4.02m4 0h2.02" stroke="#a9afb8" fill="none"/><path d="M301 730.5h-.5v-1h.5z" stroke="#a9afb8" stroke-width=".05" fill="#a9afb8"/><path d="M1199.5 730h.5M301 470h2m4.02 0h4m4.02 0h4m4.02 0h4m4.02 0h4m4.03 0h4.02m4 0h4.02m4 0h4.02m4 0h4.02m4.02 0h4m4.02 0h4m4.02 0h4m4.02 0h4m4.02 0h4.02m4 0h4.02m4 0h4.02m4 0h4.02m4 0h4.03m4 0h4m4.02 0h4m4.02 0h4m4.02 0h4m4.03 0h4m4 0h4.02m4 0h4.02m4 0h4.02m4 0h4.03m4 0h4m4.02 0h4m4.02 0h4m4.02 0h4.02m4 0h4.02m4 0h4.02m4 0h4.02m4 0h4.02m4.02 0h4m4.02 0h4m4.02 0h4m4.02 0h4m4.02 0h4.02m4 0h4.02m4 0h4.02m4 0h4.02m4 0h4.03m4 0H656m4 0h4m4.02 0h4m4.02 0h4m4.03 0h4m4.02 0h4m4 0h4.02m4 0h4.02m4.02 0h4m4.02 0h4m4.02 0h4m4.02 0h4m4.02 0h4.02m4 0h4.02m4 0h4.02m4 0h4.02m4 0h4.02m4.02 0h4m4.02 0h4m4.02 0h4m4.02 0h4m4.03 0h4m4.02 0h4m4.02 0h4m4 0h4.02m4 0h4.03m4 0h4.02m4 0h4.02m4 0h4m4.02 0h4.02m4 0h4.02m4 0h4.02m4 0h4.02m4 0h4.02m4.02 0h4m4.02 0h4m4.02 0h4m4.02 0h4m4.02 0h4.02m4 0h4.02m4 0h4.02m4 0h4.02m4 0h4.03m4 0h4.02m4 0h4.02m4 0h4.02m4 0h4m4.03 0h4m4.02 0h4m4.02 0h4m4.02 0h4m4 0h4.03m4 0h4.02m4 0h4.02m4 0h4.02m4 0h4.02m4 0h4.02m4 0h4.02m4 0h4.02m4 0h4.02m4.02 0h4m4.02 0h4m4.02 0h4m4.02 0h4m4.03 0h4.02m4 0h4.02m4 0h4.02m4 0h4.02m4 0h2.02" stroke="#a9afb8" fill="none"/><path d="M301 470.5h-.5v-1h.5z" stroke="#a9afb8" stroke-width=".05" fill="#a9afb8"/><path d="M1199.5 470h.5M100.5 600h2m4.02 0h4m4.02 0h4m4.02 0h4m4.02 0h4m4.02 0h4m4.03 0h4m4.02 0h4m4.02 0h4m4.02 0h4m4 0h4.02m4.02 0h4m4.02 0h4m4.02 0h4m4.02 0h4m4.02 0h4m4.02 0h4.02m4 0h4.02m4 0h4.02m4 0h4.02m4 0h4.02m4 0h4.03m4 0H279m4 0h4m4.02 0h4m4.02 0h4m4.02 0h4m4.03 0h4m4 0h4.02m4 0h4.02m4 0h4.02m4 0h4.02m4.02 0h4m4.02 0h4m4.02 0h4m4.02 0h4m4.02 0h4m4.02 0h4.02m4 0h4.02m4 0h4.02m4 0h4.02m4 0h4.02m4 0h4.03m4 0h4.02m4 0h4.02m4 0h4.02m4 0h4m4.02 0h4m4.03 0h4m4.02 0h4m4.02 0h4m4 0h4.02m4 0h4.02m4.02 0h4m4.02 0h4m4.02 0h4m4.02 0h4m4.02 0h4m4.02 0h4.02m4 0h4.02m4 0h4.02m4 0h4.02m4 0h4.02m4 0h4.03m4 0h4m4.02 0h4m4.02 0h4m4.02 0h4m4.02 0h4m4.03 0h4.02m4 0h4.02m4 0h4.02m4 0h4.02m4 0h4.02m4 0h4.03m4 0h4.02m4 0h4.02m4 0h4.02m4 0h4m4.02 0h4.02m4 0h4.02m4 0h4.02m4 0h4.02m4 0h4.02m4 0h4.02m4.02 0h4m4.02 0h4m4.02 0h4m4.02 0h4m4.02 0h4m4.03 0h4m4.02 0h4m4 0h4.02m4 0h4.02m4 0h4.02m4 0h4.03m4 0h4m4.02 0h4m4.02 0h4m4.02 0h4m4.02 0h4.02m4 0h4.02m4 0h4.02m4 0h4.02m4 0h4.02m4 0h4.02m4.02 0h4m4.02 0h4m4.02 0h4m4.02 0h4m4.02 0h4m4.03 0h4m4.02 0h4m4.02 0h4m4.02 0h4m4 0h4.02m4 0h4.03m4 0h4.02m4 0h4.02m4 0h4m4.02 0h4m4.02 0h4.02m4 0h4.02m4 0h4.02m4 0h4.02m4 0h4.02m4 0h4.02m4.02 0h4m4.02 0h4m4.02 0h4m4.02 0h4m4.02 0h4m4.03 0h4m4 0h4.02m4 0h4.02m4 0h4.02m4 0h4.02m4 0h2.02M100.5 600h-.5M1199.5 600h.5" stroke="#a9afb8" fill="none"/><path d="M100 660h200v140H100z" stroke="#3a414a" fill="#f2f3f5"/><use xlink:href="#a" transform="matrix(1,0,0,1,105,665) translate(11.26543209876543 70.59027777777777)"/><use xlink:href="#b" transform="matrix(1,0,0,1,105,665) translate(108.54938271604938 70.59027777777777)"/><path d="M100 400h200v140H100z" stroke="#3a414a" fill="#f2f3f5"/><use xlink:href="#a" transform="matrix(1,0,0,1,110.00000000000003,410) translate(5.864197530864203 115.44897777777777)"/><use xlink:href="#c" transform="matrix(1,0,0,1,110.00000000000003,410) translate(103.14814814814815 115.44897777777777)"/><path d="M120 440h160v40H120z" stroke="#3a414a" fill="#f2f3f5"/><use xlink:href="#d" transform="matrix(1,0,0,1,120,440) translate(30.4320987654321 25.27777777777778)"/><use xlink:href="#e" transform="matrix(1,0,0,1,120,440) translate(81.41975308641975 25.27777777777778)"/><path d="M340 730c0 5.52-4.48 10-10 10s-10-4.48-10-10 4.48-10 10-10 10 4.48 10 10zM440 470c0 5.52-4.48 10-10 10s-10-4.48-10-10 4.48-10 10-10 10 4.48 10 10z" stroke="#3a414a" fill="#3a414a"/><path d="M330.2 719.03l93.48-223.4" stroke="#3a414a" fill="none"/><path d="M330.66 719.22l-.15.34-.5-.06-.57.07.3-.74z" stroke="#3a414a" stroke-width=".05" fill="#3a414a"/><path d="M429.38 482l-1.24 14.95-8.55-3.58zM580 730c0 5.52-4.48 10-10 10s-10-4.48-10-10 4.48-10 10-10 10 4.48 10 10zM480 470c0 5.52-4.48 10-10 10s-10-4.48-10-10 4.48-10 10-10 10 4.48 10 10z" stroke="#3a414a" fill="#3a414a"/><path d="M470.2 480.97l93.48 223.4" stroke="#3a414a" fill="none"/><path d="M470 480.5l.5-.08.16.37-.92.37-.32-.76z" stroke="#3a414a" stroke-width=".05" fill="#3a414a"/><path d="M569.38 718l-9.8-11.37 8.56-3.58z" stroke="#3a414a" fill="#3a414a"/><path d="M345.53 723.63c-3.05-1.28-4.5-4.8-3.2-7.86l88.2-210.24c1.3-3.05 4.8-4.5 7.86-3.2l7.37 3.1c3.06 1.27 4.5 4.8 3.2 7.84l-88.2 210.24c-1.3 3.07-4.8 4.5-7.86 3.22z" stroke="#000" stroke-opacity="0" fill="#fff" fill-opacity="0"/><use xlink:href="#f" transform="matrix(0.38692091094008446,-0.9221129045172805,0.9221129045172805,0.38692091094008446,346.54516907728686,718.6311371162615) translate(28.429012345679013 12.444444444444443)"/><use xlink:href="#g" transform="matrix(0.38692091094008446,-0.9221129045172805,0.9221129045172805,0.38692091094008446,346.54516907728686,718.6311371162615) translate(65.54629629629629 12.444444444444443)"/><use xlink:href="#h" transform="matrix(0.38692091094008446,-0.9221129045172805,0.9221129045172805,0.38692091094008446,346.54516907728686,718.6311371162615) translate(133.34259259259258 12.444444444444443)"/><path d="M461.92 502.2c3.06-1.27 6.57.17 7.85 3.23L557.7 715.8c1.26 3.06-.18 6.57-3.24 7.85l-7.38 3.08c-3.05 1.28-6.57-.16-7.85-3.22l-87.9-210.36c-1.3-3.06.15-6.57 3.2-7.85z" stroke="#000" stroke-opacity="0" fill="#fff" fill-opacity="0"/><use xlink:href="#i" transform="matrix(0.3855968602880516,0.9226673622362486,-0.9226673622362486,0.3855968602880516,464.7714010211267,506.43473227310994) translate(58.45987654320989 12.444444444444443)"/><use xlink:href="#j" transform="matrix(0.3855968602880516,0.9226673622362486,-0.9226673622362486,0.3855968602880516,464.7714010211267,506.43473227310994) translate(99.94135802469137 12.444444444444443)"/><path d="M620 730.56c0 5.52-4.48 10-10 10s-10-4.48-10-10c0-5.53 4.48-10 10-10s10 4.47 10 10zM720 470.56c0 5.52-4.48 10-10 10s-10-4.48-10-10c0-5.53 4.48-10 10-10s10 4.47 10 10z" stroke="#3a414a" fill="#3a414a"/><path d="M610.2 719.6l93.48-223.42" stroke="#3a414a" fill="none"/><path d="M610.66 719.77l-.15.35-.5-.07-.57.08.3-.74z" stroke="#3a414a" stroke-width=".05" fill="#3a414a"/><path d="M709.38 482.56l-1.24 14.95-8.55-3.57zM860 730.56c0 5.52-4.48 10-10 10s-10-4.48-10-10c0-5.53 4.48-10 10-10s10 4.47 10 10zM760 470.56c0 5.52-4.48 10-10 10s-10-4.48-10-10c0-5.53 4.48-10 10-10s10 4.47 10 10z" stroke="#3a414a" fill="#3a414a"/><path d="M750.2 481.53l93.48 223.4" stroke="#3a414a" fill="none"/><path d="M750 481.06l.5-.08.16.36-.92.4-.32-.77z" stroke="#3a414a" stroke-width=".05" fill="#3a414a"/><path d="M849.38 718.56l-9.8-11.37 8.56-3.6z" stroke="#3a414a" fill="#3a414a"/><path d="M625.53 724.2c-3.05-1.3-4.5-4.8-3.2-7.87l88.2-210.24c1.3-3.07 4.8-4.5 7.86-3.22l7.37 3.1c3.06 1.28 4.5 4.8 3.2 7.85l-88.2 210.24c-1.3 3.06-4.8 4.5-7.86 3.2z" stroke="#000" stroke-opacity="0" fill="#fff" fill-opacity="0"/><use xlink:href="#k" transform="matrix(0.38692091094008446,-0.9221129045172805,0.9221129045172805,0.38692091094008446,626.5451690772868,719.1886274620475) translate(56.061728395061735 12.444444444444443)"/><use xlink:href="#l" transform="matrix(0.38692091094008446,-0.9221129045172805,0.9221129045172805,0.38692091094008446,626.5451690772868,719.1886274620475) translate(106.96296296296296 12.444444444444443)"/><path d="M741.92 502.76c3.06-1.27 6.57.17 7.85 3.23l87.92 210.36c1.26 3.05-.18 6.57-3.24 7.84l-7.38 3.1c-3.05 1.27-6.57-.18-7.85-3.23l-87.9-210.37c-1.3-3.06.15-6.57 3.2-7.85z" stroke="#000" stroke-opacity="0" fill="#fff" fill-opacity="0"/><use xlink:href="#m" transform="matrix(0.3855968602880516,0.9226673622362486,-0.9226673622362486,0.3855968602880516,744.7714010211267,506.9922226188962) translate(60.533950617283956 12.444444444444443)"/><use xlink:href="#l" transform="matrix(0.3855968602880516,0.9226673622362486,-0.9226673622362486,0.3855968602880516,744.7714010211267,506.9922226188962) translate(102.49074074074073 12.444444444444443)"/><path d="M900 730.56c0 5.52-4.48 10-10 10s-10-4.48-10-10c0-5.53 4.48-10 10-10s10 4.47 10 10zM1000 470.56c0 5.52-4.48 10-10 10s-10-4.48-10-10c0-5.53 4.48-10 10-10s10 4.47 10 10z" stroke="#3a414a" fill="#3a414a"/><path d="M890.2 719.6l93.48-223.42" stroke="#3a414a" fill="none"/><path d="M890.66 719.77l-.15.35-.5-.07-.57.08.3-.74z" stroke="#3a414a" stroke-width=".05" fill="#3a414a"/><path d="M989.38 482.56l-1.24 14.95-8.55-3.57zM1140 730.56c0 5.52-4.48 10-10 10s-10-4.48-10-10c0-5.53 4.48-10 10-10s10 4.47 10 10zM1040 470.56c0 5.52-4.48 10-10 10s-10-4.48-10-10c0-5.53 4.48-10 10-10s10 4.47 10 10z" stroke="#3a414a" fill="#3a414a"/><path d="M1030.2 481.53l93.48 223.4" stroke="#3a414a" fill="none"/><path d="M1030 481.06l.5-.08.16.36-.92.4-.32-.77z" stroke="#3a414a" stroke-width=".05" fill="#3a414a"/><path d="M1129.38 718.56l-9.8-11.37 8.56-3.6z" stroke="#3a414a" fill="#3a414a"/><g><path d="M905.53 724.2c-3.05-1.3-4.5-4.8-3.2-7.87l88.2-210.24c1.3-3.07 4.8-4.5 7.86-3.22l7.37 3.1c3.06 1.28 4.5 4.8 3.2 7.85l-88.2 210.24c-1.3 3.06-4.8 4.5-7.86 3.2z" stroke="#000" stroke-opacity="0" fill="#fff" fill-opacity="0"/></g><g><use xlink:href="#k" transform="matrix(0.38692091094008446,-0.9221129045172805,0.9221129045172805,0.38692091094008446,906.5451690772869,719.1886274620477) translate(70.99074074074075 12.444444444444443)"/><use xlink:href="#n" transform="matrix(0.38692091094008446,-0.9221129045172805,0.9221129045172805,0.38692091094008446,906.5451690772869,719.1886274620477) translate(121.89197530864197 12.444444444444443)"/></g><g><path d="M1021.92 502.76c3.06-1.27 6.57.17 7.85 3.23l87.92 210.36c1.26 3.05-.18 6.57-3.24 7.84l-7.38 3.1c-3.05 1.27-6.57-.18-7.85-3.23l-87.9-210.37c-1.3-3.06.15-6.57 3.2-7.85z" stroke="#000" stroke-opacity="0" fill="#fff" fill-opacity="0"/></g><g><use xlink:href="#o" transform="matrix(0.3855968602880516,0.9226673622362486,-0.9226673622362486,0.3855968602880516,1024.7714010211264,506.9922226188961) translate(31 12.444444444444443)"/><use xlink:href="#g" transform="matrix(0.3855968602880516,0.9226673622362486,-0.9226673622362486,0.3855968602880516,1024.7714010211264,506.9922226188961) translate(62.9753086419753 12.444444444444443)"/><use xlink:href="#h" transform="matrix(0.3855968602880516,0.9226673622362486,-0.9226673622362486,0.3855968602880516,1024.7714010211264,506.9922226188961) translate(130.7716049382716 12.444444444444443)"/></g><defs><path fill="#3a414a" d="M127-220V0H93v-220H8v-28h204v28h-85" id="p"/><path fill="#3a414a" d="M100-194c63 0 86 42 84 106H49c0 40 14 67 53 68 26 1 43-12 49-29l28 8c-11 28-37 45-77 45C44 4 14-33 15-96c1-61 26-98 85-98zm52 81c6-60-76-77-97-28-3 7-6 17-6 28h103" id="q"/><path fill="#3a414a" d="M210-169c-67 3-38 105-44 169h-31v-121c0-29-5-50-35-48C34-165 62-65 56 0H25l-1-190h30c1 10-1 24 2 32 10-44 99-50 107 0 11-21 27-35 58-36 85-2 47 119 55 194h-31v-121c0-29-5-49-35-48" id="r"/><path fill="#3a414a" d="M115-194c55 1 70 41 70 98S169 2 115 4C84 4 66-9 55-30l1 105H24l-1-265h31l2 30c10-21 28-34 59-34zm-8 174c40 0 45-34 45-75s-6-73-45-74c-42 0-51 32-51 76 0 43 10 73 51 73" id="s"/><path fill="#3a414a" d="M100-194c62-1 85 37 85 99 1 63-27 99-86 99S16-35 15-95c0-66 28-99 85-99zM99-20c44 1 53-31 53-75 0-43-8-75-51-75s-53 32-53 75 10 74 51 75" id="t"/><path fill="#3a414a" d="M114-163C36-179 61-72 57 0H25l-1-190h30c1 12-1 29 2 39 6-27 23-49 58-41v29" id="u"/><path fill="#3a414a" d="M141-36C126-15 110 5 73 4 37 3 15-17 15-53c-1-64 63-63 125-63 3-35-9-54-41-54-24 1-41 7-42 31l-33-3c5-37 33-52 76-52 45 0 72 20 72 64v82c-1 20 7 32 28 27v20c-31 9-61-2-59-35zM48-53c0 20 12 33 32 33 41-3 63-29 60-74-43 2-92-5-92 41" id="v"/><path fill="#3a414a" d="M24 0v-261h32V0H24" id="w"/><g id="a"><use transform="matrix(0.06172839506172839,0,0,0.06172839506172839,0,0)" xlink:href="#p"/><use transform="matrix(0.06172839506172839,0,0,0.06172839506172839,11.049382716049381,0)" xlink:href="#q"/><use transform="matrix(0.06172839506172839,0,0,0.06172839506172839,23.39506172839506,0)" xlink:href="#r"/><use transform="matrix(0.06172839506172839,0,0,0.06172839506172839,41.85185185185185,0)" xlink:href="#s"/><use transform="matrix(0.06172839506172839,0,0,0.06172839506172839,54.197530864197525,0)" xlink:href="#t"/><use transform="matrix(0.06172839506172839,0,0,0.06172839506172839,66.5432098765432,0)" xlink:href="#u"/><use transform="matrix(0.06172839506172839,0,0,0.06172839506172839,73.88888888888889,0)" xlink:href="#v"/><use transform="matrix(0.06172839506172839,0,0,0.06172839506172839,86.23456790123457,0)" xlink:href="#w"/></g><path fill="#3a414a" d="M212-179c-10-28-35-45-73-45-59 0-87 40-87 99 0 60 29 101 89 101 43 0 62-24 78-52l27 14C228-24 195 4 139 4 59 4 22-46 18-125c-6-104 99-153 187-111 19 9 31 26 39 46" id="x"/><path fill="#3a414a" d="M84 4C-5 8 30-112 23-190h32v120c0 31 7 50 39 49 72-2 45-101 50-169h31l1 190h-30c-1-10 1-25-2-33-11 22-28 36-60 37" id="y"/><path fill="#3a414a" d="M135-143c-3-34-86-38-87 0 15 53 115 12 119 90S17 21 10-45l28-5c4 36 97 45 98 0-10-56-113-15-118-90-4-57 82-63 122-42 12 7 21 19 24 35" id="z"/><path fill="#3a414a" d="M59-47c-2 24 18 29 38 22v24C64 9 27 4 27-40v-127H5v-23h24l9-43h21v43h35v23H59v120" id="A"/><g id="b"><use transform="matrix(0.06172839506172839,0,0,0.06172839506172839,0,0)" xlink:href="#x"/><use transform="matrix(0.06172839506172839,0,0,0.06172839506172839,15.987654320987653,0)" xlink:href="#w"/><use transform="matrix(0.06172839506172839,0,0,0.06172839506172839,20.864197530864196,0)" xlink:href="#y"/><use transform="matrix(0.06172839506172839,0,0,0.06172839506172839,33.20987654320987,0)" xlink:href="#z"/><use transform="matrix(0.06172839506172839,0,0,0.06172839506172839,44.32098765432099,0)" xlink:href="#A"/><use transform="matrix(0.06172839506172839,0,0,0.06172839506172839,50.49382716049383,0)" xlink:href="#q"/><use transform="matrix(0.06172839506172839,0,0,0.06172839506172839,62.839506172839506,0)" xlink:href="#u"/></g><path fill="#3a414a" d="M266 0h-40l-56-210L115 0H75L2-248h35L96-30l15-64 43-154h32l59 218 59-218h35" id="B"/><path fill="#3a414a" d="M143 0L79-87 56-68V0H24v-261h32v163l83-92h37l-77 82L181 0h-38" id="C"/><g id="c"><use transform="matrix(0.06172839506172839,0,0,0.06172839506172839,0,0)" xlink:href="#B"/><use transform="matrix(0.06172839506172839,0,0,0.06172839506172839,20.493827160493826,0)" xlink:href="#t"/><use transform="matrix(0.06172839506172839,0,0,0.06172839506172839,32.839506172839506,0)" xlink:href="#u"/><use transform="matrix(0.06172839506172839,0,0,0.06172839506172839,40.18518518518518,0)" xlink:href="#C"/><use transform="matrix(0.06172839506172839,0,0,0.06172839506172839,51.29629629629629,0)" xlink:href="#q"/><use transform="matrix(0.06172839506172839,0,0,0.06172839506172839,63.641975308641975,0)" xlink:href="#u"/></g><path fill="#3a414a" d="M137-103V0h-34v-103L8-248h37l75 118 75-118h37" id="D"/><g id="d"><use transform="matrix(0.06172839506172839,0,0,0.06172839506172839,0,0)" xlink:href="#D"/><use transform="matrix(0.06172839506172839,0,0,0.06172839506172839,12.777777777777777,0)" xlink:href="#t"/><use transform="matrix(0.06172839506172839,0,0,0.06172839506172839,25.123456790123456,0)" xlink:href="#y"/><use transform="matrix(0.06172839506172839,0,0,0.06172839506172839,37.46913580246913,0)" xlink:href="#u"/></g><path fill="#3a414a" d="M96-169c-40 0-48 33-48 73s9 75 48 75c24 0 41-14 43-38l32 2c-6 37-31 61-74 61-59 0-76-41-82-99-10-93 101-131 147-64 4 7 5 14 7 22l-32 3c-4-21-16-35-41-35" id="E"/><path fill="#3a414a" d="M85-194c31 0 48 13 60 33l-1-100h32l1 261h-30c-2-10 0-23-3-31C134-8 116 4 85 4 32 4 16-35 15-94c0-66 23-100 70-100zm9 24c-40 0-46 34-46 75 0 40 6 74 45 74 42 0 51-32 51-76 0-42-9-74-50-73" id="F"/><g id="e"><use transform="matrix(0.06172839506172839,0,0,0.06172839506172839,0,0)" xlink:href="#E"/><use transform="matrix(0.06172839506172839,0,0,0.06172839506172839,11.11111111111111,0)" xlink:href="#t"/><use transform="matrix(0.06172839506172839,0,0,0.06172839506172839,23.45679012345679,0)" xlink:href="#F"/><use transform="matrix(0.06172839506172839,0,0,0.06172839506172839,35.80246913580247,0)" xlink:href="#q"/></g><path fill="#3a414a" d="M185-189c-5-48-123-54-124 2 14 75 158 14 163 119 3 78-121 87-175 55-17-10-28-26-33-46l33-7c5 56 141 63 141-1 0-78-155-14-162-118-5-82 145-84 179-34 5 7 8 16 11 25" id="G"/><g id="f"><use transform="matrix(0.04320987654320987,0,0,0.04320987654320987,0,0)" xlink:href="#G"/><use transform="matrix(0.04320987654320987,0,0,0.04320987654320987,10.370370370370368,0)" xlink:href="#A"/><use transform="matrix(0.04320987654320987,0,0,0.04320987654320987,14.691358024691354,0)" xlink:href="#v"/><use transform="matrix(0.04320987654320987,0,0,0.04320987654320987,23.33333333333333,0)" xlink:href="#u"/><use transform="matrix(0.04320987654320987,0,0,0.04320987654320987,28.475308641975303,0)" xlink:href="#A"/></g><path fill="#3a414a" d="M101-234c-31-9-42 10-38 44h38v23H63V0H32v-167H5v-23h27c-7-52 17-82 69-68v24" id="H"/><path fill="#3a414a" d="M206 0h-36l-40-164L89 0H53L-1-190h32L70-26l43-164h34l41 164 42-164h31" id="I"/><g id="g"><use transform="matrix(0.04320987654320987,0,0,0.04320987654320987,0,0)" xlink:href="#B"/><use transform="matrix(0.04320987654320987,0,0,0.04320987654320987,14.345679012345675,0)" xlink:href="#t"/><use transform="matrix(0.04320987654320987,0,0,0.04320987654320987,22.987654320987648,0)" xlink:href="#u"/><use transform="matrix(0.04320987654320987,0,0,0.04320987654320987,28.12962962962963,0)" xlink:href="#C"/><use transform="matrix(0.04320987654320987,0,0,0.04320987654320987,35.907407407407405,0)" xlink:href="#H"/><use transform="matrix(0.04320987654320987,0,0,0.04320987654320987,40.22839506172839,0)" xlink:href="#w"/><use transform="matrix(0.04320987654320987,0,0,0.04320987654320987,43.641975308641975,0)" xlink:href="#t"/><use transform="matrix(0.04320987654320987,0,0,0.04320987654320987,52.28395061728395,0)" xlink:href="#I"/></g><path fill="#3a414a" d="M30 0v-248h187v28H63v79h144v27H63v87h162V0H30" id="J"/><path fill="#3a414a" d="M141 0L90-78 38 0H4l68-98-65-92h35l48 74 47-74h35l-64 92 68 98h-35" id="K"/><path fill="#3a414a" d="M24-231v-30h32v30H24zM24 0v-190h32V0H24" id="L"/><path fill="#3a414a" d="M117-194c89-4 53 116 60 194h-32v-121c0-31-8-49-39-48C34-167 62-67 57 0H25l-1-190h30c1 10-1 24 2 32 11-22 29-35 61-36" id="M"/><g id="h"><use transform="matrix(0.04320987654320987,0,0,0.04320987654320987,0,0)" xlink:href="#J"/><use transform="matrix(0.04320987654320987,0,0,0.04320987654320987,10.370370370370368,0)" xlink:href="#K"/><use transform="matrix(0.04320987654320987,0,0,0.04320987654320987,18.148148148148145,0)" xlink:href="#q"/><use transform="matrix(0.04320987654320987,0,0,0.04320987654320987,26.790123456790116,0)" xlink:href="#E"/><use transform="matrix(0.04320987654320987,0,0,0.04320987654320987,34.5679012345679,0)" xlink:href="#y"/><use transform="matrix(0.04320987654320987,0,0,0.04320987654320987,43.20987654320987,0)" xlink:href="#A"/><use transform="matrix(0.04320987654320987,0,0,0.04320987654320987,47.53086419753086,0)" xlink:href="#L"/><use transform="matrix(0.04320987654320987,0,0,0.04320987654320987,50.94444444444444,0)" xlink:href="#t"/><use transform="matrix(0.04320987654320987,0,0,0.04320987654320987,59.58641975308642,0)" xlink:href="#M"/></g><path fill="#3a414a" d="M33 0v-248h34V0H33" id="N"/><g id="i"><use transform="matrix(0.04320987654320987,0,0,0.04320987654320987,0,0)" xlink:href="#N"/><use transform="matrix(0.04320987654320987,0,0,0.04320987654320987,4.320987654320986,0)" xlink:href="#z"/><use transform="matrix(0.04320987654320987,0,0,0.04320987654320987,12.098765432098762,0)" xlink:href="#z"/><use transform="matrix(0.04320987654320987,0,0,0.04320987654320987,19.876543209876537,0)" xlink:href="#y"/><use transform="matrix(0.04320987654320987,0,0,0.04320987654320987,28.518518518518512,0)" xlink:href="#q"/></g><g id="j"><use transform="matrix(0.04320987654320987,0,0,0.04320987654320987,0,0)" xlink:href="#x"/><use transform="matrix(0.04320987654320987,0,0,0.04320987654320987,11.191358024691356,0)" xlink:href="#t"/><use transform="matrix(0.04320987654320987,0,0,0.04320987654320987,19.83333333333333,0)" xlink:href="#r"/><use transform="matrix(0.04320987654320987,0,0,0.04320987654320987,32.753086419753075,0)" xlink:href="#r"/><use transform="matrix(0.04320987654320987,0,0,0.04320987654320987,45.67283950617282,0)" xlink:href="#v"/><use transform="matrix(0.04320987654320987,0,0,0.04320987654320987,54.314814814814795,0)" xlink:href="#M"/><use transform="matrix(0.04320987654320987,0,0,0.04320987654320987,62.95679012345677,0)" xlink:href="#F"/></g><path fill="#3a414a" d="M233-177c-1 41-23 64-60 70L243 0h-38l-65-103H63V0H30v-248c88 3 205-21 203 71zM63-129c60-2 137 13 137-47 0-61-80-42-137-45v92" id="O"/><g id="k"><use transform="matrix(0.04320987654320987,0,0,0.04320987654320987,0,0)" xlink:href="#O"/><use transform="matrix(0.04320987654320987,0,0,0.04320987654320987,11.191358024691356,0)" xlink:href="#q"/><use transform="matrix(0.04320987654320987,0,0,0.04320987654320987,19.83333333333333,0)" xlink:href="#A"/><use transform="matrix(0.04320987654320987,0,0,0.04320987654320987,24.154320987654316,0)" xlink:href="#y"/><use transform="matrix(0.04320987654320987,0,0,0.04320987654320987,32.79629629629629,0)" xlink:href="#u"/><use transform="matrix(0.04320987654320987,0,0,0.04320987654320987,37.938271604938265,0)" xlink:href="#M"/></g><path fill="#3a414a" d="M205 0l-28-72H64L36 0H1l101-248h38L239 0h-34zm-38-99l-47-123c-12 45-31 82-46 123h93" id="P"/><path fill="#3a414a" d="M115-194c53 0 69 39 70 98 0 66-23 100-70 100C84 3 66-7 56-30L54 0H23l1-261h32v101c10-23 28-34 59-34zm-8 174c40 0 45-34 45-75 0-40-5-75-45-74-42 0-51 32-51 76 0 43 10 73 51 73" id="Q"/><g id="l"><use transform="matrix(0.04320987654320987,0,0,0.04320987654320987,0,0)" xlink:href="#P"/><use transform="matrix(0.04320987654320987,0,0,0.04320987654320987,10.0679012345679,0)" xlink:href="#I"/><use transform="matrix(0.04320987654320987,0,0,0.04320987654320987,21.259259259259256,0)" xlink:href="#v"/><use transform="matrix(0.04320987654320987,0,0,0.04320987654320987,29.901234567901227,0)" xlink:href="#L"/><use transform="matrix(0.04320987654320987,0,0,0.04320987654320987,33.31481481481481,0)" xlink:href="#A"/><use transform="matrix(0.04320987654320987,0,0,0.04320987654320987,37.6358024691358,0)" xlink:href="#v"/><use transform="matrix(0.04320987654320987,0,0,0.04320987654320987,46.277777777777764,0)" xlink:href="#Q"/><use transform="matrix(0.04320987654320987,0,0,0.04320987654320987,54.91975308641974,0)" xlink:href="#w"/><use transform="matrix(0.04320987654320987,0,0,0.04320987654320987,58.33333333333333,0)" xlink:href="#q"/></g><g id="m"><use transform="matrix(0.04320987654320987,0,0,0.04320987654320987,0,0)" xlink:href="#P"/><use transform="matrix(0.04320987654320987,0,0,0.04320987654320987,10.0679012345679,0)" xlink:href="#I"/><use transform="matrix(0.04320987654320987,0,0,0.04320987654320987,21.259259259259256,0)" xlink:href="#v"/><use transform="matrix(0.04320987654320987,0,0,0.04320987654320987,29.901234567901227,0)" xlink:href="#L"/><use transform="matrix(0.04320987654320987,0,0,0.04320987654320987,33.31481481481481,0)" xlink:href="#A"/></g><path fill="#3a414a" d="M108 0H70L1-190h34L89-25l56-165h34" id="R"/><g id="n"><use transform="matrix(0.04320987654320987,0,0,0.04320987654320987,0,0)" xlink:href="#R"/><use transform="matrix(0.04320987654320987,0,0,0.04320987654320987,7.777777777777776,0)" xlink:href="#v"/><use transform="matrix(0.04320987654320987,0,0,0.04320987654320987,16.41975308641975,0)" xlink:href="#w"/><use transform="matrix(0.04320987654320987,0,0,0.04320987654320987,19.83333333333333,0)" xlink:href="#y"/><use transform="matrix(0.04320987654320987,0,0,0.04320987654320987,28.475308641975303,0)" xlink:href="#q"/></g><g id="o"><use transform="matrix(0.04320987654320987,0,0,0.04320987654320987,0,0)" xlink:href="#J"/><use transform="matrix(0.04320987654320987,0,0,0.04320987654320987,10.370370370370368,0)" xlink:href="#M"/><use transform="matrix(0.04320987654320987,0,0,0.04320987654320987,19.01234567901234,0)" xlink:href="#F"/></g></defs></g></svg>