<svg xmlns="http://www.w3.org/2000/svg" xmlns:xlink="http://www.w3.org/1999/xlink" xmlns:lucid="lucid" width="2360" height="2086"><g transform="translate(0 480)" lucid:page-tab-id="0_0"><path d="M0-1258.83h3677.73v3840.5H0z" fill="#fff"/><path d="M1400-359.6v2m0 4v4m0 4v4m0 4v4m0 4v4m0 4v4m0 4v4m0 3.98v4m0 4v4m0 4v4m0 4v4m0 4v4m0 4v3.98m0 4v4m0 4v4m0 4v4m0 4v4m0 4v3.98m0 4v4m0 4v4m0 4v4m0 4v4m0 4v4m0 3.98v4m0 4v4m0 4v4m0 4v4m0 4v4m0 4v3.98m0 4v4m0 4v4m0 4v4m0 4v4m0 4v4m0 3.98v4m0 4v4m0 4v4m0 4v4m0 4v4m0 3.98v4m0 4v4m0 4v4m0 4v4m0 4v4m0 4v3.98m0 4v4m0 4v4m0 4v4m0 4v4m0 4v4m0 3.98v4m0 4v4m0 4v4m0 4v4m0 4v4m0 4v3.98m0 4v4m0 4v4m0 4v4m0 4v4m0 4v4m0 3.98v4m0 4v4m0 4v4m0 4v4m0 4v4m0 3.98v4m0 4v4m0 4v4m0 4v4m0 4v4m0 4v3.98m0 4v4m0 4v4m0 4v4m0 4v4m0 4v4m0 3.98v4m0 4v4m0 4v4m0 4v4m0 4v4m0 4v3.98m0 4v4m0 4v4m0 4v4m0 4v4m0 4v4m0 3.98v4m0 4v4m0 4v4m0 4v4m0 4v4m0 3.98v4m0 4v4m0 4v4m0 4v4m0 4v4m0 4v3.98m0 4v4m0 4v4m0 4v4m0 4v4m0 4v4m0 3.98v4m0 4v4m0 4v4m0 4v4m0 4v4m0 4V514m0 4v4m0 4v4m0 4v4m0 4v4m0 4v3.98m0 4v4m0 4v4m0 4v4m0 4v4m0 4v4m0 3.98v4m0 4v4m0 4v4m0 4v4m0 4v4m0 4v3.98m0 4v4m0 4v4m0 4v4m0 4v4m0 4v4m0 3.98v4m0 4v4m0 4v4m0 4v4m0 4v4m0 4v3.98m0 4v4m0 4v4m0 4v4m0 4v4m0 4v3.98m0 4v4m0 4v4m0 4v4m0 4v4m0 4v4m0 3.98v4m0 4v4m0 4v4m0 4v4m0 4v4m0 4v3.98m0 4v4m0 4v4m0 4v4m0 4v4m0 4v4m0 3.98v4m0 4v4m0 4v4m0 4v4m0 4v4m0 4v3.98m0 4v4m0 4v4m0 4v4m0 4v4m0 4v3.98m0 4v4m0 4v4m0 4v4m0 4v4m0 4v4m0 3.98v4m0 4v4m0 4v4m0 4v4m0 4v4m0 4v3.98m0 4v4m0 4v4m0 4v4m0 4v4m0 4v4m0 3.98v4m0 4v4m0 4v4m0 4v4m0 4v4m0 3.98v4m0 4v4m0 4v4m0 4v4m0 4v4m0 4v3.98m0 4v4m0 4v4m0 4v4m0 4v4m0 4v4m0 3.98v4m0 4v4m0 4v4m0 4v4m0 4v4m0 4v3.98m0 4v4m0 4v4m0 4v4m0 4v4m0 4v4m0 3.98v4m0 4v4m0 4v4m0 4v4m0 4v4m0 3.98v4m0 4v4m0 4v4m0 4v4m0 4v4m0 4v3.98m0 4v4m0 4v4m0 4v4m0 4v4m0 4v4m0 3.98v4m0 4v4m0 4v4m0 4v4m0 4v4m0 4v3.98m0 4v4m0 4v4m0 4v4m0 4v4m0 4v4m0 3.98v4m0 4v4m0 4v4m0 4v4m0 4v4m0 3.98v4m0 4v2" stroke="#b2b2b2" fill="none"/><path d="M1400.5-359.58h-1v-.5h1" fill="#b2b2b2"/><path d="M1400 1599.5v.5M1100-359.6v2m0 4v4m0 4v4m0 4v4m0 4v4m0 4v4m0 4v4m0 3.98v4m0 4v4m0 4v4m0 4v4m0 4v4m0 4v3.98m0 4v4m0 4v4m0 4v4m0 4v4m0 4v3.98m0 4v4m0 4v4m0 4v4m0 4v4m0 4v4m0 3.98v4m0 4v4m0 4v4m0 4v4m0 4v4m0 4v3.98m0 4v4m0 4v4m0 4v4m0 4v4m0 4v4m0 3.98v4m0 4v4m0 4v4m0 4v4m0 4v4m0 3.98v4m0 4v4m0 4v4m0 4v4m0 4v4m0 4v3.98m0 4v4m0 4v4m0 4v4m0 4v4m0 4v4m0 3.98v4m0 4v4m0 4v4m0 4v4m0 4v4m0 4v3.98m0 4v4m0 4v4m0 4v4m0 4v4m0 4v4m0 3.98v4m0 4v4m0 4v4m0 4v4m0 4v4m0 3.98v4m0 4v4m0 4v4m0 4v4m0 4v4m0 4v3.98m0 4v4m0 4v4m0 4v4m0 4v4m0 4v4m0 3.98v4m0 4v4m0 4v4m0 4v4m0 4v4m0 4v3.98m0 4v4m0 4v4m0 4v4m0 4v4m0 4v4m0 3.98v4m0 4v4m0 4v4m0 4v4m0 4v4m0 3.98v4m0 4v4m0 4v4m0 4v4m0 4v4m0 4v3.98m0 4v4m0 4v4m0 4v4m0 4v4m0 4v4m0 3.98v4m0 4v4m0 4v4m0 4v4m0 4v4m0 4V514m0 4v4m0 4v4m0 4v4m0 4v4m0 4v3.98m0 4v4m0 4v4m0 4v4m0 4v4m0 4v4m0 3.98v4m0 4v4m0 4v4m0 4v4m0 4v4m0 4v3.98m0 4v4m0 4v4m0 4v4m0 4v4m0 4v4m0 3.98v4m0 4v4m0 4v4m0 4v4m0 4v4m0 4v3.98m0 4v4m0 4v4m0 4v4m0 4v4m0 4v3.98m0 4v4m0 4v4m0 4v4m0 4v4m0 4v4m0 3.98v4m0 4v4m0 4v4m0 4v4m0 4v4m0 4v3.98m0 4v4m0 4v4m0 4v4m0 4v4m0 4v4m0 3.98v4m0 4v4m0 4v4m0 4v4m0 4v4m0 4v3.98m0 4v4m0 4v4m0 4v4m0 4v4m0 4v3.98m0 4v4m0 4v4m0 4v4m0 4v4m0 4v4m0 3.98v4m0 4v4m0 4v4m0 4v4m0 4v4m0 4v3.98m0 4v4m0 4v4m0 4v4m0 4v4m0 4v4m0 3.98v4m0 4v4m0 4v4m0 4v4m0 4v4m0 3.98v4m0 4v4m0 4v4m0 4v4m0 4v4m0 4v3.98m0 4v4m0 4v4m0 4v4m0 4v4m0 4v4m0 3.98v4m0 4v4m0 4v4m0 4v4m0 4v4m0 4v3.98m0 4v4m0 4v4m0 4v4m0 4v4m0 4v4m0 3.98v4m0 4v4m0 4v4m0 4v4m0 4v4m0 3.98v4m0 4v4m0 4v4m0 4v4m0 4v4m0 4v3.98m0 4v4m0 4v4m0 4v4m0 4v4m0 4v4m0 3.98v4m0 4v4m0 4v4m0 4v4m0 4v4m0 4v3.98m0 4v4m0 4v4m0 4v4m0 4v4m0 4v4m0 3.98v4m0 4v4m0 4v4m0 4v4m0 4v4m0 3.98v4m0 4v2" stroke="#b2b2b2" fill="none"/><path d="M1100.5-359.58h-1v-.5h1" fill="#b2b2b2"/><path d="M1100 1599.5v.5" stroke="#b2b2b2" fill="none"/><path d="M980-445a15 15 0 0 1 15-15h210a15 15 0 0 1 15 15v70a15 15 0 0 1-15 15H995a15 15 0 0 1-15-15z" fill="none"/><use xlink:href="#a" transform="translate(1002.84 -406.285)"/><use xlink:href="#b" transform="translate(1099.691 -406.285)"/><path d="M1120-300c0 11.05-8.95 20-20 20s-20-8.95-20-20 8.95-20 20-20 20 8.95 20 20zm0 200c0 11.05-8.95 20-20 20s-20-8.95-20-20 8.95-20 20-20 20 8.95 20 20zm0 200c0 11.05-8.95 20-20 20s-20-8.95-20-20 8.95-20 20-20 20 8.95 20 20zm0 200c0 11.05-8.95 20-20 20s-20-8.95-20-20 8.95-20 20-20 20 8.95 20 20z" stroke="#333" fill="#fff"/><path d="M740-324.57a6 6 0 0 1 6-6h288a6 6 0 0 1 6 6v49.14a6 6 0 0 1-6 6H746a6 6 0 0 1-6-6z" fill="none"/><use xlink:href="#c" transform="translate(760.154 -294.791)"/><path d="M1040.46-300H1079" stroke="#333" fill="none"/><path d="M1040.48-299.5h-.52v-1h.52m39.02.48.02.52h-.53v-1h.56" fill="#333"/><path d="M740-124.57a6 6 0 0 1 6-6h288a6 6 0 0 1 6 6v49.14a6 6 0 0 1-6 6H746a6 6 0 0 1-6-6z" fill="none"/><use xlink:href="#d" transform="translate(769.414 -94.791)"/><path d="M1040.46-100H1079" stroke="#333" fill="none"/><path d="M1040.48-99.5h-.52v-1h.52m39.02.48.02.52h-.53v-1h.56" fill="#333"/><path d="M740 75.43a6 6 0 0 1 6-6h288a6 6 0 0 1 6 6v49.14a6 6 0 0 1-6 6H746a6 6 0 0 1-6-6z" fill="none"/><use xlink:href="#e" transform="translate(786.08 105.209)"/><path d="M1100-279v142.12" stroke="#333" fill="none"/><path d="m1099.98-279.5.52-.02v.53h-1v-.56" fill="#333"/><path d="m1100-122.12-4.64-14.26h9.28z" stroke="#333" fill="#333"/><path d="M1040.46 100H1079" stroke="#333" fill="none"/><path d="M1040.48 100.5h-.52v-1h.52m39.02.48.02.52h-.53v-1h.56" fill="#333"/><path d="M1100-79V63.12" stroke="#333" fill="none"/><path d="m1099.98-79.5.52-.02v.53h-1v-.56" fill="#333"/><path d="m1100 77.88-4.64-14.26h9.28z" stroke="#333" fill="#333"/><path d="M1120 1500c0 11.05-8.95 20-20 20s-20-8.95-20-20 8.95-20 20-20 20 8.95 20 20z" stroke="#333" fill="#fff"/><path d="M740 286a6 6 0 0 1 6-6h288a6 6 0 0 1 6 6v28a6 6 0 0 1-6 6H746a6 6 0 0 1-6-6z" fill="none"/><use xlink:href="#f" transform="translate(768.24 304.653)"/><path d="M1040.46 300H1079" stroke="#333" fill="none"/><path d="M1040.48 300.5h-.5l-.02-1h.52m39.02.48.02.52h-.53v-1h.56" fill="#333"/><path d="M660 1486a6 6 0 0 1 6-6h368a6 6 0 0 1 6 6v28a6 6 0 0 1-6 6H666a6 6 0 0 1-6-6z" fill="none"/><use xlink:href="#g" transform="translate(702.315 1504.653)"/><path d="M1040.46 1500H1079" stroke="#333" fill="none"/><path d="M1040.48 1500.5h-.5l-.02-1h.52m39.02.48.02.52h-.53v-1h.56" fill="#333"/><path d="M1280-445a15 15 0 0 1 15-15h210a15 15 0 0 1 15 15v70a15 15 0 0 1-15 15h-210a15 15 0 0 1-15-15z" fill="none"/><use xlink:href="#h" transform="translate(1290.247 -406.285)"/><use xlink:href="#i" transform="translate(1360.494 -406.285)"/><use xlink:href="#b" transform="translate(1412.284 -406.285)"/><path d="M1840 434a6 6 0 0 0 6 6h188a6 6 0 0 0 6-6v-68a6 6 0 0 0-6-6h-188a6 6 0 0 0-6 6z" fill="none"/><use xlink:href="#j" transform="translate(1851.265 391.528)"/><use xlink:href="#k" transform="translate(1866.481 418.194)"/><use xlink:href="#l" transform="translate(1951.914 418.194)"/><path d="M1762.5 500h75m-74.94 0H1760m77.44 0h2.56m-77.5-200h75m-74.94 0H1760m77.44 0h2.56" stroke="#333" stroke-width="5" fill="none"/><path d="M1800 300.5v199m0-199v-.5m0 199.5v.5" stroke="#333" fill="none"/><path d="M262.5-300h75m-74.94 0H260m77.44 0H340m-77.5 1800h75m-74.94 0H260m77.44 0H340" stroke="#333" stroke-width="5" fill="none"/><path d="M300 1499.5V600.17a.17.17 0 0 0-.17-.17.17.17 0 0 1-.16-.17V-299.5m.33 1799v.5m-.33-1799.5v-.5" stroke="#333" fill="none"/><path d="M20 528.17a15 15 0 0 1 15-15h210a15 15 0 0 1 15 15v140a15 15 0 0 1-15 15H35a15 15 0 0 1-15-15z" fill="none"/><use xlink:href="#a" transform="translate(42.84 550.949)"/><use xlink:href="#m" transform="translate(139.691 550.949)"/><use xlink:href="#n" transform="translate(65.247 577.615)"/><use xlink:href="#o" transform="translate(150.679 577.615)"/><use xlink:href="#p" transform="translate(132.593 604.282)"/><use xlink:href="#q" transform="translate(71.235 630.949)"/><use xlink:href="#r" transform="translate(168.086 630.949)"/><use xlink:href="#s" transform="translate(66.481 657.615)"/><use xlink:href="#t" transform="translate(151.914 657.615)"/><path d="M260.4 598.17h38.1a1.33 1.33 0 0 1 1.33 1.33" stroke="#333" fill="none"/><path d="M260.42 598.67h-.5v-1h.5" fill="#333"/><path d="M299.83 599.5v.5m1539.71-200h-39.04" stroke="#333" fill="none"/><path d="M1840.04 400.5h-.52v-1h.52" fill="#333"/><path d="M1800.5 400h-.5" stroke="#333" fill="none"/><path d="M1400.3 711v2m0 4v3.98m0 4v4m0 3.98v4m0 3.98v4m0 3.98v4m0 3.98v4m0 3.98v4m0 4v3.98m0 4v3.98m0 4v1.98" stroke="#ccc" fill="none"/><path d="M1400.8 711.02h-1v-.6l.5.1.5-.1m0 80.98-.5-.08-.5.07v-.6h1" fill="#ccc"/><path d="M1420.3 300c0 11.05-8.96 20-20 20-11.05 0-20-8.95-20-20s8.95-20 20-20c11.04 0 20 8.95 20 20zm0 200c0 11.05-8.96 20-20 20-11.05 0-20-8.95-20-20s8.95-20 20-20c11.04 0 20 8.95 20 20zm0 400c0 11.05-8.96 20-20 20-11.05 0-20-8.95-20-20s8.95-20 20-20c11.04 0 20 8.95 20 20z" stroke="#333" fill="#fff"/><path d="M1460.55 286a6 6 0 0 1 6-6h248a6 6 0 0 1 6 6v28a6 6 0 0 1-6 6h-248a6 6 0 0 1-6-6z" fill="none"/><use xlink:href="#u" transform="translate(1480.179 304.653)"/><path d="M1460.08 300h-38.78" stroke="#333" fill="none"/><path d="M1460.6 300.5h-.53v-1h.5m-39.27 1h-.56l.06-.48-.02-.52h.53" fill="#333"/><path d="M1460.3 486a6 6 0 0 1 6-6h248a6 6 0 0 1 6 6v28a6 6 0 0 1-6 6h-248a6 6 0 0 1-6-6z" fill="none"/><use xlink:href="#v" transform="translate(1496.595 504.653)"/><path d="M1459.83 500h-38.53" stroke="#333" fill="none"/><path d="M1460.34 500.5h-.52v-1h.5m-39.02 1h-.56l.06-.48-.02-.52h.53" fill="#333"/><path d="M1460.55 886a6 6 0 0 1 6-6h248a6 6 0 0 1 6 6v28a6 6 0 0 1-6 6h-248a6 6 0 0 1-6-6z" fill="none"/><use xlink:href="#w" transform="translate(1479.006 905.278)"/><path d="M1400.3 321v142.12" stroke="#333" fill="none"/><path d="m1400.28 320.5.52-.02v.53h-1v-.56" fill="#333"/><path d="m1400.3 477.88-4.64-14.26h9.27z" stroke="#333" fill="#333"/><path d="M1460.08 900h-38.78" stroke="#333" fill="none"/><path d="M1460.6 900.5h-.53v-1h.5m-39.27 1h-.56l.06-.48-.02-.52h.53" fill="#333"/><path d="M1400.3 521v66.17" stroke="#333" fill="none"/><path d="m1400.28 520.5.52-.02v.53h-1v-.56m1 67.28-.5-.06-.5.06v-.58h1" fill="#333"/><path d="M1400.3 609.18v253.94" stroke="#333" fill="none"/><path d="M1400.8 609.2h-1v-.6l.5.08.5-.08" fill="#333"/><path d="m1400.3 877.88-4.64-14.26h9.27z" stroke="#333" fill="#333"/><path d="M1580 674a6 6 0 0 0 6 6h168.6a6 6 0 0 0 6-6v-48a6 6 0 0 0-6-6H1586a6 6 0 0 0-6 6z" fill="none"/><use xlink:href="#x" transform="translate(1621.796 642.778)"/><use xlink:href="#k" transform="translate(1596.981 669.444)"/><use xlink:href="#l" transform="translate(1682.414 669.444)"/><path d="M1502.8 600h75m-74.94 0h-2.56m77.43 0h2.57" stroke="#333" stroke-width="5" fill="none"/><path d="M1540.3 699.5v-99m0 99v.5m0-99.5v-.5" stroke="#333" fill="none"/><path d="M1502.8 700h75m-74.94 0h-2.56m77.43 0h2.57" stroke="#333" stroke-width="5" fill="none"/><path d="M1579.54 650h-38.74" stroke="#333" fill="none"/><path d="M1580.04 650.5h-.52v-1h.52" fill="#333"/><path d="M1540.8 650h-.5" stroke="#333" fill="none"/><path d="M1410.3 598.17c0 5.52-4.48 10-10 10s-10-4.48-10-10 4.48-10 10-10 10 4.48 10 10zm0 203.66c0 5.52-4.48 10-10 10s-10-4.48-10-10 4.48-10 10-10 10 4.48 10 10zm0-101.83c0 5.52-4.48 10-10 10s-10-4.48-10-10 4.48-10 10-10 10 4.48 10 10z" stroke="#333" fill="#fff"/><path d="M1200.3 574.17a6 6 0 0 1 6-6h128.3a6 6 0 0 1 6 6v48a6 6 0 0 1-6 6h-128.3a6 6 0 0 1-6-6z" fill="none"/><use xlink:href="#y" transform="translate(1222.095 603.699)"/><path d="M1200 676a6 6 0 0 1 6-6h128.3a6 6 0 0 1 6 6v48a6 6 0 0 1-6 6H1206a6 6 0 0 1-6-6z" fill="none"/><use xlink:href="#y" transform="translate(1221.796 705.528)"/><path d="M1200.3 777.83a6 6 0 0 1 6-6h128.3a6 6 0 0 1 6 6v48a6 6 0 0 1-6 6h-128.3a6 6 0 0 1-6-6z" fill="none"/><use xlink:href="#y" transform="translate(1222.095 807.357)"/><path d="M1341.06 598.17h48.23" stroke="#333" fill="none"/><path d="M1341.07 598.67h-.5v-1h.5m48.73.51.07.5h-.6v-1h.6" fill="#333"/><path d="M1340.76 700h48.53" stroke="#333" fill="none"/><path d="M1340.77 700.5h-.5v-1h.5m49.03.5.07.5h-.6v-1h.6" fill="#333"/><path d="M1341.06 801.83h48.23" stroke="#333" fill="none"/><path d="M1341.07 802.33h-.5v-1h.5m48.73.51.07.5h-.6v-1h.6" fill="#333"/><path d="M562.5 1100h75m-74.94 0H560m77.44 0H640m-77.5 200h75m-74.94 0H560m77.44 0H640" stroke="#333" stroke-width="5" fill="none"/><path d="M599.67 1299.5v-199m0 199v.5m0-199.5v-.5" stroke="#333" fill="none"/><path d="M360 1155.66a15 15 0 0 1 15-15h170a15 15 0 0 1 15 15v90a15 15 0 0 1-15 15H375a15 15 0 0 1-15-15z" fill="none"/><use xlink:href="#a" transform="translate(388.765 1191.184)"/><use xlink:href="#z" transform="translate(485.617 1191.184)"/><use xlink:href="#n" transform="translate(386.481 1217.85)"/><use xlink:href="#A" transform="translate(471.914 1217.85)"/><path d="M560.4 1200.66h38.77" stroke="#333" fill="none"/><path d="M560.42 1201.16h-.5v-1h.5" fill="#333"/><path d="M599.15 1200.66h.52M1100 121v143.13" stroke="#333" fill="none"/><path d="m1099.98 120.5.52-.02v.53h-1v-.56" fill="#333"/><path d="m1100 278.9-4.64-14.27h9.28z" stroke="#333" fill="#333"/><path d="M1120 899.43c0 11.05-8.95 20-20 20s-20-8.95-20-20c0-11.04 8.95-20 20-20s20 8.96 20 20zm0 200.57c0 11.05-8.95 20-20 20s-20-8.95-20-20 8.95-20 20-20 20 8.95 20 20zm0 200c0 11.05-8.95 20-20 20s-20-8.95-20-20 8.95-20 20-20 20 8.95 20 20z" stroke="#333" fill="#fff"/><path d="M740 884.86a6 6 0 0 1 6-6h288a6 6 0 0 1 6 6V914a6 6 0 0 1-6 6H746a6 6 0 0 1-6-6z" fill="none"/><use xlink:href="#d" transform="translate(769.414 903.64)"/><path d="M1040.46 899.43H1079" stroke="#333" fill="none"/><path d="M1040.48 899.93h-.5l-.02-1h.52m39.02.47.02.53h-.53v-1h.56" fill="#333"/><path d="M740 1086a6 6 0 0 1 6-6h288a6 6 0 0 1 6 6v28a6 6 0 0 1-6 6H746a6 6 0 0 1-6-6z" fill="none"/><use xlink:href="#e" transform="translate(786.08 1104.653)"/><path d="M1040.46 1100H1079" stroke="#333" fill="none"/><path d="M1040.48 1100.5h-.5l-.02-1h.52m39.02.48.02.52h-.53v-1h.56" fill="#333"/><path d="M1100 920.43v142.7" stroke="#333" fill="none"/><path d="m1099.98 919.93.52-.02v.54h-1v-.57" fill="#333"/><path d="m1100 1077.88-4.64-14.26h9.28z" stroke="#333" fill="#333"/><path d="M740 1286a6 6 0 0 1 6-6h288a6 6 0 0 1 6 6v28a6 6 0 0 1-6 6H746a6 6 0 0 1-6-6z" fill="none"/><use xlink:href="#f" transform="translate(768.24 1304.653)"/><path d="M1040.46 1300H1079" stroke="#333" fill="none"/><path d="M1040.48 1300.5h-.5l-.02-1h.52m39.02.48.02.52h-.53v-1h.56" fill="#333"/><path d="M1100 1121v142.12" stroke="#333" fill="none"/><path d="m1099.98 1120.5.52-.02v.53h-1v-.56" fill="#333"/><path d="m1100 1277.88-4.64-14.26h9.28z" stroke="#333" fill="#333"/><path d="M1100 1321v142.12" stroke="#333" fill="none"/><path d="m1099.98 1320.5.52-.02v.53h-1v-.56" fill="#333"/><path d="m1100 1477.88-4.64-14.26h9.28z" stroke="#333" fill="#333"/><path d="M562.5 100h75m-74.94 0H560m77.44 0H640m-77.5 200h75m-74.94 0H560m77.44 0H640" stroke="#333" stroke-width="5" fill="none"/><path d="M599.67 299.5v-199m0 199v.5m0-199.5v-.5" stroke="#333" fill="none"/><path d="M360 155.66a15 15 0 0 1 15-15h170a15 15 0 0 1 15 15v90a15 15 0 0 1-15 15H375a15 15 0 0 1-15-15z" fill="none"/><use xlink:href="#a" transform="translate(388.765 191.184)"/><use xlink:href="#z" transform="translate(485.617 191.184)"/><use xlink:href="#n" transform="translate(386.481 217.85)"/><use xlink:href="#A" transform="translate(471.914 217.85)"/><path d="M560.4 200.66h38.77" stroke="#333" fill="none"/><path d="M560.42 201.16h-.5v-1h.5" fill="#333"/><path d="M599.15 200.66h.52" stroke="#333" fill="none"/><path d="M1763.3 900h75m-74.94 0h-2.56m77.44 0h2.56" stroke="#333" stroke-width="5" fill="none"/><path d="M1800.1 500.5v399m0-399v-.5m0 399.5v.5" stroke="#333" fill="none"/><path d="M1840 734a6 6 0 0 0 6 6h188a6 6 0 0 0 6-6v-68a6 6 0 0 0-6-6h-188a6 6 0 0 0-6 6z" fill="none"/><use xlink:href="#B" transform="translate(1869.198 691.528)"/><use xlink:href="#k" transform="translate(1866.481 718.194)"/><use xlink:href="#l" transform="translate(1951.914 718.194)"/><path d="M1839.54 700h-38.93" stroke="#333" fill="none"/><path d="M1840.04 700.5h-.52v-1h.52" fill="#333"/><path d="M1800.62 700h-.5" stroke="#333" fill="none"/><path d="M2062.5 300h75m-74.94 0H2060m77.44 0h2.56m-76.7 600h75m-74.94 0h-2.56m77.44 0h2.56" stroke="#333" stroke-width="5" fill="none"/><path d="M2100.1 300.5v599m0-599v-.5m0 599.5v.5" stroke="#333" fill="none"/><path d="M2140 634a6 6 0 0 0 6 6h188a6 6 0 0 0 6-6v-68a6 6 0 0 0-6-6h-188a6 6 0 0 0-6 6z" fill="none"/><use xlink:href="#C" transform="translate(2146.358 591.528)"/><use xlink:href="#k" transform="translate(2166.481 618.194)"/><use xlink:href="#l" transform="translate(2251.914 618.194)"/><path d="M2139.54 600h-38.93" stroke="#333" fill="none"/><path d="M2140.04 600.5h-.52v-1h.52" fill="#333"/><path d="M2100.62 600h-.5" stroke="#333" fill="none"/><defs><path fill="#333" d="M266 0h-40l-56-210L115 0H75L2-248h35L96-30l15-64 43-154h32l59 218 59-218h35" id="D"/><path fill="#333" d="M100-194c62-1 85 37 85 99 1 63-27 99-86 99S16-35 15-95c0-66 28-99 85-99zM99-20c44 1 53-31 53-75 0-43-8-75-51-75s-53 32-53 75 10 74 51 75" id="E"/><path fill="#333" d="M114-163C36-179 61-72 57 0H25l-1-190h30c1 12-1 29 2 39 6-27 23-49 58-41v29" id="F"/><path fill="#333" d="M143 0 79-87 56-68V0H24v-261h32v163l83-92h37l-77 82L181 0h-38" id="G"/><path fill="#333" d="M101-234c-31-9-42 10-38 44h38v23H63V0H32v-167H5v-23h27c-7-52 17-82 69-68v24" id="H"/><path fill="#333" d="M24 0v-261h32V0H24" id="I"/><path fill="#333" d="M206 0h-36l-40-164L89 0H53L-1-190h32L70-26l43-164h34l41 164 42-164h31" id="J"/><path fill="#333" d="M30 0v-248h187v28H63v79h144v27H63v87h162V0H30" id="K"/><path fill="#333" d="M141 0 90-78 38 0H4l68-98-65-92h35l48 74 47-74h35l-64 92 68 98h-35" id="L"/><path fill="#333" d="M100-194c63 0 86 42 84 106H49c0 40 14 67 53 68 26 1 43-12 49-29l28 8c-11 28-37 45-77 45C44 4 14-33 15-96c1-61 26-98 85-98zm52 81c6-60-76-77-97-28-3 7-6 17-6 28h103" id="M"/><path fill="#333" d="M96-169c-40 0-48 33-48 73s9 75 48 75c24 0 41-14 43-38l32 2c-6 37-31 61-74 61-59 0-76-41-82-99-10-93 101-131 147-64 4 7 5 14 7 22l-32 3c-4-21-16-35-41-35" id="N"/><path fill="#333" d="M84 4C-5 8 30-112 23-190h32v120c0 31 7 50 39 49 72-2 45-101 50-169h31l1 190h-30c-1-10 1-25-2-33-11 22-28 36-60 37" id="O"/><path fill="#333" d="M59-47c-2 24 18 29 38 22v24C64 9 27 4 27-40v-127H5v-23h24l9-43h21v43h35v23H59v120" id="P"/><path fill="#333" d="M24-231v-30h32v30H24zM24 0v-190h32V0H24" id="Q"/><path fill="#333" d="M117-194c89-4 53 116 60 194h-32v-121c0-31-8-49-39-48C34-167 62-67 57 0H25l-1-190h30c1 10-1 24 2 32 11-22 29-35 61-36" id="R"/><path fill="#333" d="M185-189c-5-48-123-54-124 2 14 75 158 14 163 119 3 78-121 87-175 55-17-10-28-26-33-46l33-7c5 56 141 63 141-1 0-78-155-14-162-118-5-82 145-84 179-34 5 7 8 16 11 25" id="S"/><path fill="#333" d="M141-36C126-15 110 5 73 4 37 3 15-17 15-53c-1-64 63-63 125-63 3-35-9-54-41-54-24 1-41 7-42 31l-33-3c5-37 33-52 76-52 45 0 72 20 72 64v82c-1 20 7 32 28 27v20c-31 9-61-2-59-35zM48-53c0 20 12 33 32 33 41-3 63-29 60-74-43 2-92-5-92 41" id="T"/><path fill="#333" d="M85-194c31 0 48 13 60 33l-1-100h32l1 261h-30c-2-10 0-23-3-31C134-8 116 4 85 4 32 4 16-35 15-94c0-66 23-100 70-100zm9 24c-40 0-46 34-46 75 0 40 6 74 45 74 42 0 51-32 51-76 0-42-9-74-50-73" id="U"/><path fill="#333" d="M127-220V0H93v-220H8v-28h204v28h-85" id="V"/><path fill="#333" d="M135-143c-3-34-86-38-87 0 15 53 115 12 119 90S17 21 10-45l28-5c4 36 97 45 98 0-10-56-113-15-118-90-4-57 82-63 122-42 12 7 21 19 24 35" id="W"/><path fill="#333" d="M106-169C34-169 62-67 57 0H25v-261h32l-1 103c12-21 28-36 61-36 89 0 53 116 60 194h-32v-121c2-32-8-49-39-48" id="X"/><path fill="#333" d="M212-179c-10-28-35-45-73-45-59 0-87 40-87 99 0 60 29 101 89 101 43 0 62-24 78-52l27 14C228-24 195 4 139 4 59 4 22-46 18-125c-6-104 99-153 187-111 19 9 31 26 39 46" id="Y"/><path fill="#333" d="M210-169c-67 3-38 105-44 169h-31v-121c0-29-5-50-35-48C34-165 62-65 56 0H25l-1-190h30c1 10-1 24 2 32 10-44 99-50 107 0 11-21 27-35 58-36 85-2 47 119 55 194h-31v-121c0-29-5-49-35-48" id="Z"/><path fill="#333" d="M115-194c55 1 70 41 70 98S169 2 115 4C84 4 66-9 55-30l1 105H24l-1-265h31l2 30c10-21 28-34 59-34zm-8 174c40 0 45-34 45-75s-6-73-45-74c-42 0-51 32-51 76 0 43 10 73 51 73" id="aa"/><path fill="#333" d="m205 0-28-72H64L36 0H1l101-248h38L239 0h-34zm-38-99-47-123c-12 45-31 82-46 123h93" id="ab"/><path fill="#333" d="M108 0H70L1-190h34L89-25l56-165h34" id="ac"/><path fill="#333" d="M179-190 93 31C79 59 56 82 12 73V49c39 6 53-20 64-50L1-190h34L92-34l54-156h33" id="ad"/><path fill="#333" d="M16-82v-28h88v28H16" id="ae"/><path fill="#333" d="M30-248c87 1 191-15 191 75 0 78-77 80-158 76V0H30v-248zm33 125c57 0 124 11 124-50 0-59-68-47-124-48v98" id="af"/><path fill="#333" d="M234-2c-28 10-62 0-77-18C117 19 8 12 13-65c3-43 29-61 60-76-25-40-17-114 47-108 35 3 59 15 59 50 0 44-40 53-71 69 14 26 32 50 51 72 14-21 24-43 30-72l26 8c-9 33-21 57-38 82 13 13 33 22 57 15v23zM97-151c25-10 52-18 56-48-1-18-13-29-33-29-42 0-39 50-23 77zM42-66c-3 51 71 58 98 28-20-24-41-51-56-80-23 10-40 24-42 52" id="ag"/><path fill="#333" d="M233-177c-1 41-23 64-60 70L243 0h-38l-65-103H63V0H30v-248c88 3 205-21 203 71zM63-129c60-2 137 13 137-47 0-61-80-42-137-45v92" id="ah"/><path fill="#333" d="M197 0v-115H63V0H30v-248h33v105h134v-105h34V0h-34" id="ai"/><path fill="#333" d="M115-194c53 0 69 39 70 98 0 66-23 100-70 100C84 3 66-7 56-30L54 0H23l1-261h32v101c10-23 28-34 59-34zm-8 174c40 0 45-34 45-75 0-40-5-75-45-74-42 0-51 32-51 76 0 43 10 73 51 73" id="aj"/><g id="a"><use transform="rotate(.413) scale(.06173)" xlink:href="#D"/><use transform="matrix(.06173 0 0 .06173 20.494 0)" xlink:href="#E"/><use transform="matrix(.06173 0 0 .06173 32.84 0)" xlink:href="#F"/><use transform="matrix(.06173 0 0 .06173 40.185 0)" xlink:href="#G"/><use transform="matrix(.06173 0 0 .06173 51.296 0)" xlink:href="#H"/><use transform="matrix(.06173 0 0 .06173 57.47 0)" xlink:href="#I"/><use transform="matrix(.06173 0 0 .06173 62.346 0)" xlink:href="#E"/><use transform="matrix(.06173 0 0 .06173 74.691 0)" xlink:href="#J"/></g><g id="b"><use transform="rotate(.413) scale(.06173)" xlink:href="#K"/><use transform="matrix(.06173 0 0 .06173 14.815 0)" xlink:href="#L"/><use transform="matrix(.06173 0 0 .06173 25.926 0)" xlink:href="#M"/><use transform="matrix(.06173 0 0 .06173 38.272 0)" xlink:href="#N"/><use transform="matrix(.06173 0 0 .06173 49.383 0)" xlink:href="#O"/><use transform="matrix(.06173 0 0 .06173 61.728 0)" xlink:href="#P"/><use transform="matrix(.06173 0 0 .06173 67.901 0)" xlink:href="#Q"/><use transform="matrix(.06173 0 0 .06173 72.778 0)" xlink:href="#E"/><use transform="matrix(.06173 0 0 .06173 85.123 0)" xlink:href="#R"/></g><g id="c"><use transform="rotate(.413) scale(.06173)" xlink:href="#D"/><use transform="matrix(.06173 0 0 .06173 20.494 0)" xlink:href="#E"/><use transform="matrix(.06173 0 0 .06173 32.84 0)" xlink:href="#F"/><use transform="matrix(.06173 0 0 .06173 40.185 0)" xlink:href="#G"/><use transform="matrix(.06173 0 0 .06173 51.296 0)" xlink:href="#H"/><use transform="matrix(.06173 0 0 .06173 57.47 0)" xlink:href="#I"/><use transform="matrix(.06173 0 0 .06173 62.346 0)" xlink:href="#E"/><use transform="matrix(.06173 0 0 .06173 74.691 0)" xlink:href="#J"/><use transform="matrix(.06173 0 0 .06173 90.679 0)" xlink:href="#K"/><use transform="matrix(.06173 0 0 .06173 105.494 0)" xlink:href="#L"/><use transform="matrix(.06173 0 0 .06173 116.605 0)" xlink:href="#M"/><use transform="matrix(.06173 0 0 .06173 128.95 0)" xlink:href="#N"/><use transform="matrix(.06173 0 0 .06173 140.062 0)" xlink:href="#O"/><use transform="matrix(.06173 0 0 .06173 152.407 0)" xlink:href="#P"/><use transform="matrix(.06173 0 0 .06173 158.58 0)" xlink:href="#Q"/><use transform="matrix(.06173 0 0 .06173 163.457 0)" xlink:href="#E"/><use transform="matrix(.06173 0 0 .06173 175.802 0)" xlink:href="#R"/><use transform="matrix(.06173 0 0 .06173 188.148 0)" xlink:href="#S"/><use transform="matrix(.06173 0 0 .06173 202.963 0)" xlink:href="#P"/><use transform="matrix(.06173 0 0 .06173 209.136 0)" xlink:href="#T"/><use transform="matrix(.06173 0 0 .06173 221.481 0)" xlink:href="#F"/><use transform="matrix(.06173 0 0 .06173 228.827 0)" xlink:href="#P"/><use transform="matrix(.06173 0 0 .06173 235 0)" xlink:href="#M"/><use transform="matrix(.06173 0 0 .06173 247.346 0)" xlink:href="#U"/></g><g id="d"><use transform="rotate(.413) scale(.06173)" xlink:href="#D"/><use transform="matrix(.06173 0 0 .06173 20.494 0)" xlink:href="#E"/><use transform="matrix(.06173 0 0 .06173 32.84 0)" xlink:href="#F"/><use transform="matrix(.06173 0 0 .06173 40.185 0)" xlink:href="#G"/><use transform="matrix(.06173 0 0 .06173 51.296 0)" xlink:href="#H"/><use transform="matrix(.06173 0 0 .06173 57.47 0)" xlink:href="#I"/><use transform="matrix(.06173 0 0 .06173 62.346 0)" xlink:href="#E"/><use transform="matrix(.06173 0 0 .06173 74.691 0)" xlink:href="#J"/><use transform="matrix(.06173 0 0 .06173 90.679 0)" xlink:href="#V"/><use transform="matrix(.06173 0 0 .06173 101.728 0)" xlink:href="#T"/><use transform="matrix(.06173 0 0 .06173 114.074 0)" xlink:href="#W"/><use transform="matrix(.06173 0 0 .06173 125.185 0)" xlink:href="#G"/><use transform="matrix(.06173 0 0 .06173 136.296 0)" xlink:href="#S"/><use transform="matrix(.06173 0 0 .06173 151.111 0)" xlink:href="#N"/><use transform="matrix(.06173 0 0 .06173 162.222 0)" xlink:href="#X"/><use transform="matrix(.06173 0 0 .06173 174.568 0)" xlink:href="#M"/><use transform="matrix(.06173 0 0 .06173 186.914 0)" xlink:href="#U"/><use transform="matrix(.06173 0 0 .06173 199.26 0)" xlink:href="#O"/><use transform="matrix(.06173 0 0 .06173 211.605 0)" xlink:href="#I"/><use transform="matrix(.06173 0 0 .06173 216.481 0)" xlink:href="#M"/><use transform="matrix(.06173 0 0 .06173 228.827 0)" xlink:href="#U"/></g><g id="e"><use transform="rotate(.413) scale(.06173)" xlink:href="#D"/><use transform="matrix(.06173 0 0 .06173 20.494 0)" xlink:href="#E"/><use transform="matrix(.06173 0 0 .06173 32.84 0)" xlink:href="#F"/><use transform="matrix(.06173 0 0 .06173 40.185 0)" xlink:href="#G"/><use transform="matrix(.06173 0 0 .06173 51.296 0)" xlink:href="#H"/><use transform="matrix(.06173 0 0 .06173 57.47 0)" xlink:href="#I"/><use transform="matrix(.06173 0 0 .06173 62.346 0)" xlink:href="#E"/><use transform="matrix(.06173 0 0 .06173 74.691 0)" xlink:href="#J"/><use transform="matrix(.06173 0 0 .06173 90.679 0)" xlink:href="#V"/><use transform="matrix(.06173 0 0 .06173 101.728 0)" xlink:href="#T"/><use transform="matrix(.06173 0 0 .06173 114.074 0)" xlink:href="#W"/><use transform="matrix(.06173 0 0 .06173 125.185 0)" xlink:href="#G"/><use transform="matrix(.06173 0 0 .06173 136.296 0)" xlink:href="#S"/><use transform="matrix(.06173 0 0 .06173 151.111 0)" xlink:href="#P"/><use transform="matrix(.06173 0 0 .06173 157.284 0)" xlink:href="#T"/><use transform="matrix(.06173 0 0 .06173 169.63 0)" xlink:href="#F"/><use transform="matrix(.06173 0 0 .06173 176.975 0)" xlink:href="#P"/><use transform="matrix(.06173 0 0 .06173 183.148 0)" xlink:href="#M"/><use transform="matrix(.06173 0 0 .06173 195.494 0)" xlink:href="#U"/></g><g id="f"><use transform="rotate(.413) scale(.06173)" xlink:href="#D"/><use transform="matrix(.06173 0 0 .06173 20.494 0)" xlink:href="#E"/><use transform="matrix(.06173 0 0 .06173 32.84 0)" xlink:href="#F"/><use transform="matrix(.06173 0 0 .06173 40.185 0)" xlink:href="#G"/><use transform="matrix(.06173 0 0 .06173 51.296 0)" xlink:href="#H"/><use transform="matrix(.06173 0 0 .06173 57.47 0)" xlink:href="#I"/><use transform="matrix(.06173 0 0 .06173 62.346 0)" xlink:href="#E"/><use transform="matrix(.06173 0 0 .06173 74.691 0)" xlink:href="#J"/><use transform="matrix(.06173 0 0 .06173 90.679 0)" xlink:href="#V"/><use transform="matrix(.06173 0 0 .06173 101.728 0)" xlink:href="#T"/><use transform="matrix(.06173 0 0 .06173 114.074 0)" xlink:href="#W"/><use transform="matrix(.06173 0 0 .06173 125.185 0)" xlink:href="#G"/><use transform="matrix(.06173 0 0 .06173 136.296 0)" xlink:href="#Y"/><use transform="matrix(.06173 0 0 .06173 152.284 0)" xlink:href="#E"/><use transform="matrix(.06173 0 0 .06173 164.63 0)" xlink:href="#Z"/><use transform="matrix(.06173 0 0 .06173 183.086 0)" xlink:href="#aa"/><use transform="matrix(.06173 0 0 .06173 195.432 0)" xlink:href="#I"/><use transform="matrix(.06173 0 0 .06173 200.309 0)" xlink:href="#M"/><use transform="matrix(.06173 0 0 .06173 212.654 0)" xlink:href="#P"/><use transform="matrix(.06173 0 0 .06173 218.827 0)" xlink:href="#M"/><use transform="matrix(.06173 0 0 .06173 231.173 0)" xlink:href="#U"/></g><g id="g"><use transform="rotate(.413) scale(.06173)" xlink:href="#D"/><use transform="matrix(.06173 0 0 .06173 20.494 0)" xlink:href="#E"/><use transform="matrix(.06173 0 0 .06173 32.84 0)" xlink:href="#F"/><use transform="matrix(.06173 0 0 .06173 40.185 0)" xlink:href="#G"/><use transform="matrix(.06173 0 0 .06173 51.296 0)" xlink:href="#H"/><use transform="matrix(.06173 0 0 .06173 57.47 0)" xlink:href="#I"/><use transform="matrix(.06173 0 0 .06173 62.346 0)" xlink:href="#E"/><use transform="matrix(.06173 0 0 .06173 74.691 0)" xlink:href="#J"/><use transform="matrix(.06173 0 0 .06173 90.679 0)" xlink:href="#K"/><use transform="matrix(.06173 0 0 .06173 105.494 0)" xlink:href="#L"/><use transform="matrix(.06173 0 0 .06173 116.605 0)" xlink:href="#M"/><use transform="matrix(.06173 0 0 .06173 128.95 0)" xlink:href="#N"/><use transform="matrix(.06173 0 0 .06173 140.062 0)" xlink:href="#O"/><use transform="matrix(.06173 0 0 .06173 152.407 0)" xlink:href="#P"/><use transform="matrix(.06173 0 0 .06173 158.58 0)" xlink:href="#Q"/><use transform="matrix(.06173 0 0 .06173 163.457 0)" xlink:href="#E"/><use transform="matrix(.06173 0 0 .06173 175.802 0)" xlink:href="#R"/><use transform="matrix(.06173 0 0 .06173 188.148 0)" xlink:href="#Y"/><use transform="matrix(.06173 0 0 .06173 204.136 0)" xlink:href="#E"/><use transform="matrix(.06173 0 0 .06173 216.481 0)" xlink:href="#Z"/><use transform="matrix(.06173 0 0 .06173 234.938 0)" xlink:href="#aa"/><use transform="matrix(.06173 0 0 .06173 247.284 0)" xlink:href="#I"/><use transform="matrix(.06173 0 0 .06173 252.16 0)" xlink:href="#M"/><use transform="matrix(.06173 0 0 .06173 264.506 0)" xlink:href="#P"/><use transform="matrix(.06173 0 0 .06173 270.679 0)" xlink:href="#M"/><use transform="matrix(.06173 0 0 .06173 283.025 0)" xlink:href="#U"/></g><g id="h"><use transform="rotate(.413) scale(.06173)" xlink:href="#ab"/><use transform="matrix(.06173 0 0 .06173 14.815 0)" xlink:href="#N"/><use transform="matrix(.06173 0 0 .06173 25.926 0)" xlink:href="#Q"/><use transform="matrix(.06173 0 0 .06173 30.802 0)" xlink:href="#ac"/><use transform="matrix(.06173 0 0 .06173 41.914 0)" xlink:href="#Q"/><use transform="matrix(.06173 0 0 .06173 46.79 0)" xlink:href="#P"/><use transform="matrix(.06173 0 0 .06173 52.963 0)" xlink:href="#ad"/></g><g id="i"><use transform="rotate(.413) scale(.06173)" xlink:href="#V"/><use transform="matrix(.06173 0 0 .06173 11.05 0)" xlink:href="#T"/><use transform="matrix(.06173 0 0 .06173 23.395 0)" xlink:href="#W"/><use transform="matrix(.06173 0 0 .06173 34.506 0)" xlink:href="#G"/></g><g id="j"><use transform="rotate(.413) scale(.06173)" xlink:href="#S"/><use transform="matrix(.06173 0 0 .06173 14.815 0)" xlink:href="#N"/><use transform="matrix(.06173 0 0 .06173 25.926 0)" xlink:href="#X"/><use transform="matrix(.06173 0 0 .06173 38.272 0)" xlink:href="#M"/><use transform="matrix(.06173 0 0 .06173 50.617 0)" xlink:href="#U"/><use transform="matrix(.06173 0 0 .06173 62.963 0)" xlink:href="#O"/><use transform="matrix(.06173 0 0 .06173 75.309 0)" xlink:href="#I"/><use transform="matrix(.06173 0 0 .06173 80.185 0)" xlink:href="#M"/><use transform="matrix(.06173 0 0 .06173 92.53 0)" xlink:href="#ae"/><use transform="matrix(.06173 0 0 .06173 99.877 0)" xlink:href="#V"/><use transform="matrix(.06173 0 0 .06173 110.926 0)" xlink:href="#E"/><use transform="matrix(.06173 0 0 .06173 123.272 0)" xlink:href="#ae"/><use transform="matrix(.06173 0 0 .06173 130.617 0)" xlink:href="#S"/><use transform="matrix(.06173 0 0 .06173 145.432 0)" xlink:href="#P"/><use transform="matrix(.06173 0 0 .06173 151.605 0)" xlink:href="#T"/><use transform="matrix(.06173 0 0 .06173 163.95 0)" xlink:href="#F"/><use transform="matrix(.06173 0 0 .06173 171.296 0)" xlink:href="#P"/></g><g id="k"><use transform="rotate(.413) scale(.06173)" xlink:href="#V"/><use transform="matrix(.06173 0 0 .06173 12.716 0)" xlink:href="#Q"/><use transform="matrix(.06173 0 0 .06173 17.593 0)" xlink:href="#Z"/><use transform="matrix(.06173 0 0 .06173 36.05 0)" xlink:href="#M"/><use transform="matrix(.06173 0 0 .06173 48.395 0)" xlink:href="#E"/><use transform="matrix(.06173 0 0 .06173 60.74 0)" xlink:href="#O"/><use transform="matrix(.06173 0 0 .06173 73.086 0)" xlink:href="#P"/></g><g id="l"><use transform="rotate(.413) scale(.06173)" xlink:href="#aa"/><use transform="matrix(.06173 0 0 .06173 12.346 0)" xlink:href="#M"/><use transform="matrix(.06173 0 0 .06173 24.691 0)" xlink:href="#F"/><use transform="matrix(.06173 0 0 .06173 32.037 0)" xlink:href="#Q"/><use transform="matrix(.06173 0 0 .06173 36.914 0)" xlink:href="#E"/><use transform="matrix(.06173 0 0 .06173 49.26 0)" xlink:href="#U"/></g><g id="m"><use transform="rotate(.413) scale(.06173)" xlink:href="#K"/><use transform="matrix(.06173 0 0 .06173 14.815 0)" xlink:href="#L"/><use transform="matrix(.06173 0 0 .06173 25.926 0)" xlink:href="#M"/><use transform="matrix(.06173 0 0 .06173 38.272 0)" xlink:href="#N"/><use transform="matrix(.06173 0 0 .06173 49.383 0)" xlink:href="#O"/><use transform="matrix(.06173 0 0 .06173 61.728 0)" xlink:href="#P"/><use transform="matrix(.06173 0 0 .06173 67.901 0)" xlink:href="#Q"/><use transform="matrix(.06173 0 0 .06173 72.778 0)" xlink:href="#E"/><use transform="matrix(.06173 0 0 .06173 85.123 0)" xlink:href="#R"/></g><g id="n"><use transform="rotate(.413) scale(.06173)" xlink:href="#V"/><use transform="matrix(.06173 0 0 .06173 12.716 0)" xlink:href="#Q"/><use transform="matrix(.06173 0 0 .06173 17.593 0)" xlink:href="#Z"/><use transform="matrix(.06173 0 0 .06173 36.05 0)" xlink:href="#M"/><use transform="matrix(.06173 0 0 .06173 48.395 0)" xlink:href="#E"/><use transform="matrix(.06173 0 0 .06173 60.74 0)" xlink:href="#O"/><use transform="matrix(.06173 0 0 .06173 73.086 0)" xlink:href="#P"/></g><g id="o"><use transform="rotate(.413) scale(.06173)" xlink:href="#af"/><use transform="matrix(.06173 0 0 .06173 14.815 0)" xlink:href="#M"/><use transform="matrix(.06173 0 0 .06173 27.16 0)" xlink:href="#F"/><use transform="matrix(.06173 0 0 .06173 34.506 0)" xlink:href="#Q"/><use transform="matrix(.06173 0 0 .06173 39.383 0)" xlink:href="#E"/><use transform="matrix(.06173 0 0 .06173 51.728 0)" xlink:href="#U"/></g><g id="q"><use transform="rotate(.413) scale(.06173)" xlink:href="#D"/><use transform="matrix(.06173 0 0 .06173 20.494 0)" xlink:href="#E"/><use transform="matrix(.06173 0 0 .06173 32.84 0)" xlink:href="#F"/><use transform="matrix(.06173 0 0 .06173 40.185 0)" xlink:href="#G"/><use transform="matrix(.06173 0 0 .06173 51.296 0)" xlink:href="#H"/><use transform="matrix(.06173 0 0 .06173 57.47 0)" xlink:href="#I"/><use transform="matrix(.06173 0 0 .06173 62.346 0)" xlink:href="#E"/><use transform="matrix(.06173 0 0 .06173 74.691 0)" xlink:href="#J"/></g><g id="r"><use transform="rotate(.413) scale(.06173)" xlink:href="#ah"/><use transform="matrix(.06173 0 0 .06173 15.988 0)" xlink:href="#O"/><use transform="matrix(.06173 0 0 .06173 28.333 0)" xlink:href="#R"/></g><g id="s"><use transform="rotate(.413) scale(.06173)" xlink:href="#V"/><use transform="matrix(.06173 0 0 .06173 12.716 0)" xlink:href="#Q"/><use transform="matrix(.06173 0 0 .06173 17.593 0)" xlink:href="#Z"/><use transform="matrix(.06173 0 0 .06173 36.05 0)" xlink:href="#M"/><use transform="matrix(.06173 0 0 .06173 48.395 0)" xlink:href="#E"/><use transform="matrix(.06173 0 0 .06173 60.74 0)" xlink:href="#O"/><use transform="matrix(.06173 0 0 .06173 73.086 0)" xlink:href="#P"/></g><g id="t"><use transform="rotate(.413) scale(.06173)" xlink:href="#aa"/><use transform="matrix(.06173 0 0 .06173 12.346 0)" xlink:href="#M"/><use transform="matrix(.06173 0 0 .06173 24.691 0)" xlink:href="#F"/><use transform="matrix(.06173 0 0 .06173 32.037 0)" xlink:href="#Q"/><use transform="matrix(.06173 0 0 .06173 36.914 0)" xlink:href="#E"/><use transform="matrix(.06173 0 0 .06173 49.26 0)" xlink:href="#U"/></g><g id="u"><use transform="rotate(.413) scale(.06173)" xlink:href="#ab"/><use transform="matrix(.06173 0 0 .06173 14.815 0)" xlink:href="#N"/><use transform="matrix(.06173 0 0 .06173 25.926 0)" xlink:href="#P"/><use transform="matrix(.06173 0 0 .06173 32.099 0)" xlink:href="#Q"/><use transform="matrix(.06173 0 0 .06173 36.975 0)" xlink:href="#ac"/><use transform="matrix(.06173 0 0 .06173 48.086 0)" xlink:href="#Q"/><use transform="matrix(.06173 0 0 .06173 52.963 0)" xlink:href="#P"/><use transform="matrix(.06173 0 0 .06173 59.136 0)" xlink:href="#ad"/><use transform="matrix(.06173 0 0 .06173 70.247 0)" xlink:href="#V"/><use transform="matrix(.06173 0 0 .06173 81.296 0)" xlink:href="#T"/><use transform="matrix(.06173 0 0 .06173 93.642 0)" xlink:href="#W"/><use transform="matrix(.06173 0 0 .06173 104.753 0)" xlink:href="#G"/><use transform="matrix(.06173 0 0 .06173 115.864 0)" xlink:href="#S"/><use transform="matrix(.06173 0 0 .06173 130.679 0)" xlink:href="#N"/><use transform="matrix(.06173 0 0 .06173 141.79 0)" xlink:href="#X"/><use transform="matrix(.06173 0 0 .06173 154.136 0)" xlink:href="#M"/><use transform="matrix(.06173 0 0 .06173 166.481 0)" xlink:href="#U"/><use transform="matrix(.06173 0 0 .06173 178.827 0)" xlink:href="#O"/><use transform="matrix(.06173 0 0 .06173 191.173 0)" xlink:href="#I"/><use transform="matrix(.06173 0 0 .06173 196.05 0)" xlink:href="#M"/><use transform="matrix(.06173 0 0 .06173 208.395 0)" xlink:href="#U"/></g><g id="v"><use transform="rotate(.413) scale(.06173)" xlink:href="#ab"/><use transform="matrix(.06173 0 0 .06173 14.815 0)" xlink:href="#N"/><use transform="matrix(.06173 0 0 .06173 25.926 0)" xlink:href="#P"/><use transform="matrix(.06173 0 0 .06173 32.099 0)" xlink:href="#Q"/><use transform="matrix(.06173 0 0 .06173 36.975 0)" xlink:href="#ac"/><use transform="matrix(.06173 0 0 .06173 48.086 0)" xlink:href="#Q"/><use transform="matrix(.06173 0 0 .06173 52.963 0)" xlink:href="#P"/><use transform="matrix(.06173 0 0 .06173 59.136 0)" xlink:href="#ad"/><use transform="matrix(.06173 0 0 .06173 70.247 0)" xlink:href="#V"/><use transform="matrix(.06173 0 0 .06173 81.296 0)" xlink:href="#T"/><use transform="matrix(.06173 0 0 .06173 93.642 0)" xlink:href="#W"/><use transform="matrix(.06173 0 0 .06173 104.753 0)" xlink:href="#G"/><use transform="matrix(.06173 0 0 .06173 115.864 0)" xlink:href="#S"/><use transform="matrix(.06173 0 0 .06173 130.679 0)" xlink:href="#P"/><use transform="matrix(.06173 0 0 .06173 136.852 0)" xlink:href="#T"/><use transform="matrix(.06173 0 0 .06173 149.198 0)" xlink:href="#F"/><use transform="matrix(.06173 0 0 .06173 156.543 0)" xlink:href="#P"/><use transform="matrix(.06173 0 0 .06173 162.716 0)" xlink:href="#M"/><use transform="matrix(.06173 0 0 .06173 175.062 0)" xlink:href="#U"/></g><g id="w"><use transform="rotate(.413) scale(.06173)" xlink:href="#ab"/><use transform="matrix(.06173 0 0 .06173 14.815 0)" xlink:href="#N"/><use transform="matrix(.06173 0 0 .06173 25.926 0)" xlink:href="#P"/><use transform="matrix(.06173 0 0 .06173 32.099 0)" xlink:href="#Q"/><use transform="matrix(.06173 0 0 .06173 36.975 0)" xlink:href="#ac"/><use transform="matrix(.06173 0 0 .06173 48.086 0)" xlink:href="#Q"/><use transform="matrix(.06173 0 0 .06173 52.963 0)" xlink:href="#P"/><use transform="matrix(.06173 0 0 .06173 59.136 0)" xlink:href="#ad"/><use transform="matrix(.06173 0 0 .06173 70.247 0)" xlink:href="#V"/><use transform="matrix(.06173 0 0 .06173 81.296 0)" xlink:href="#T"/><use transform="matrix(.06173 0 0 .06173 93.642 0)" xlink:href="#W"/><use transform="matrix(.06173 0 0 .06173 104.753 0)" xlink:href="#G"/><use transform="matrix(.06173 0 0 .06173 115.864 0)" xlink:href="#Y"/><use transform="matrix(.06173 0 0 .06173 131.852 0)" xlink:href="#E"/><use transform="matrix(.06173 0 0 .06173 144.198 0)" xlink:href="#Z"/><use transform="matrix(.06173 0 0 .06173 162.654 0)" xlink:href="#aa"/><use transform="matrix(.06173 0 0 .06173 175 0)" xlink:href="#I"/><use transform="matrix(.06173 0 0 .06173 179.877 0)" xlink:href="#M"/><use transform="matrix(.06173 0 0 .06173 192.222 0)" xlink:href="#P"/><use transform="matrix(.06173 0 0 .06173 198.395 0)" xlink:href="#M"/><use transform="matrix(.06173 0 0 .06173 210.74 0)" xlink:href="#U"/></g><g id="x"><use transform="rotate(.413) scale(.06173)" xlink:href="#ai"/><use transform="matrix(.06173 0 0 .06173 15.988 0)" xlink:href="#M"/><use transform="matrix(.06173 0 0 .06173 28.333 0)" xlink:href="#T"/><use transform="matrix(.06173 0 0 .06173 40.679 0)" xlink:href="#F"/><use transform="matrix(.06173 0 0 .06173 48.025 0)" xlink:href="#P"/><use transform="matrix(.06173 0 0 .06173 54.198 0)" xlink:href="#aj"/><use transform="matrix(.06173 0 0 .06173 66.543 0)" xlink:href="#M"/><use transform="matrix(.06173 0 0 .06173 78.889 0)" xlink:href="#T"/><use transform="matrix(.06173 0 0 .06173 91.235 0)" xlink:href="#P"/></g><g id="y"><use transform="rotate(.413) scale(.06173)" xlink:href="#ai"/><use transform="matrix(.06173 0 0 .06173 15.988 0)" xlink:href="#M"/><use transform="matrix(.06173 0 0 .06173 28.333 0)" xlink:href="#T"/><use transform="matrix(.06173 0 0 .06173 40.679 0)" xlink:href="#F"/><use transform="matrix(.06173 0 0 .06173 48.025 0)" xlink:href="#P"/><use transform="matrix(.06173 0 0 .06173 54.198 0)" xlink:href="#aj"/><use transform="matrix(.06173 0 0 .06173 66.543 0)" xlink:href="#M"/><use transform="matrix(.06173 0 0 .06173 78.889 0)" xlink:href="#T"/><use transform="matrix(.06173 0 0 .06173 91.235 0)" xlink:href="#P"/></g><g id="z"><use transform="rotate(.413) scale(.06173)" xlink:href="#V"/><use transform="matrix(.06173 0 0 .06173 11.05 0)" xlink:href="#T"/><use transform="matrix(.06173 0 0 .06173 23.395 0)" xlink:href="#W"/><use transform="matrix(.06173 0 0 .06173 34.506 0)" xlink:href="#G"/></g><g id="A"><use transform="rotate(.413) scale(.06173)" xlink:href="#aa"/><use transform="matrix(.06173 0 0 .06173 12.346 0)" xlink:href="#M"/><use transform="matrix(.06173 0 0 .06173 24.691 0)" xlink:href="#F"/><use transform="matrix(.06173 0 0 .06173 32.037 0)" xlink:href="#Q"/><use transform="matrix(.06173 0 0 .06173 36.914 0)" xlink:href="#E"/><use transform="matrix(.06173 0 0 .06173 49.26 0)" xlink:href="#U"/></g><g id="B"><use transform="rotate(.413) scale(.06173)" xlink:href="#S"/><use transform="matrix(.06173 0 0 .06173 14.815 0)" xlink:href="#P"/><use transform="matrix(.06173 0 0 .06173 20.988 0)" xlink:href="#T"/><use transform="matrix(.06173 0 0 .06173 33.333 0)" xlink:href="#F"/><use transform="matrix(.06173 0 0 .06173 40.679 0)" xlink:href="#P"/><use transform="matrix(.06173 0 0 .06173 46.852 0)" xlink:href="#ae"/><use transform="matrix(.06173 0 0 .06173 54.198 0)" xlink:href="#V"/><use transform="matrix(.06173 0 0 .06173 65.247 0)" xlink:href="#E"/><use transform="matrix(.06173 0 0 .06173 77.593 0)" xlink:href="#ae"/><use transform="matrix(.06173 0 0 .06173 84.938 0)" xlink:href="#Y"/><use transform="matrix(.06173 0 0 .06173 100.926 0)" xlink:href="#I"/><use transform="matrix(.06173 0 0 .06173 105.802 0)" xlink:href="#E"/><use transform="matrix(.06173 0 0 .06173 118.148 0)" xlink:href="#W"/><use transform="matrix(.06173 0 0 .06173 129.26 0)" xlink:href="#M"/></g><g id="C"><use transform="rotate(.413) scale(.06173)" xlink:href="#S"/><use transform="matrix(.06173 0 0 .06173 14.815 0)" xlink:href="#N"/><use transform="matrix(.06173 0 0 .06173 25.926 0)" xlink:href="#X"/><use transform="matrix(.06173 0 0 .06173 38.272 0)" xlink:href="#M"/><use transform="matrix(.06173 0 0 .06173 50.617 0)" xlink:href="#U"/><use transform="matrix(.06173 0 0 .06173 62.963 0)" xlink:href="#O"/><use transform="matrix(.06173 0 0 .06173 75.309 0)" xlink:href="#I"/><use transform="matrix(.06173 0 0 .06173 80.185 0)" xlink:href="#M"/><use transform="matrix(.06173 0 0 .06173 92.53 0)" xlink:href="#ae"/><use transform="matrix(.06173 0 0 .06173 99.877 0)" xlink:href="#V"/><use transform="matrix(.06173 0 0 .06173 110.926 0)" xlink:href="#E"/><use transform="matrix(.06173 0 0 .06173 123.272 0)" xlink:href="#ae"/><use transform="matrix(.06173 0 0 .06173 130.617 0)" xlink:href="#Y"/><use transform="matrix(.06173 0 0 .06173 146.605 0)" xlink:href="#I"/><use transform="matrix(.06173 0 0 .06173 151.481 0)" xlink:href="#E"/><use transform="matrix(.06173 0 0 .06173 163.827 0)" xlink:href="#W"/><use transform="matrix(.06173 0 0 .06173 174.938 0)" xlink:href="#M"/></g><use transform="rotate(.413) scale(.06173)" xlink:href="#ag" id="p"/></defs></g></svg>