<svg xmlns="http://www.w3.org/2000/svg" xmlns:xlink="http://www.w3.org/1999/xlink" xmlns:lucid="lucid" width="1200" height="421.67"><g transform="translate(-200 -40)" lucid:page-tab-id="0_0"><path d="M0 0h1870.87v1322.83H0z" fill="#fff"/><path d="M220 60h380v381.67H220z" stroke="#282c33" fill="#fff"/><use xlink:href="#a" transform="translate(331.327 423.725)"/><use xlink:href="#b" transform="translate(408.488 423.725)"/><path d="M1000 60h380v380h-380z" stroke="#282c33" fill="#fff"/><use xlink:href="#c" transform="translate(1106.265 256.215)"/><use xlink:href="#d" transform="translate(1203.55 256.215)"/><path d="M840 200c0 22.1-17.9 40-40 40s-40-17.9-40-40 17.9-40 40-40 40 17.9 40 40z" stroke="#282c33" fill="#fff"/><use xlink:href="#e" transform="translate(792.006 204.653)"/><path d="M840 300c0 22.1-17.9 40-40 40s-40-17.9-40-40 17.9-40 40-40 40 17.9 40 40z" stroke="#282c33" fill="#fff"/><use xlink:href="#e" transform="translate(792.006 304.653)"/><path d="M841 200h142.12" stroke="#282c33" fill="none"/><path d="M841 200.5h-.53l.03-.5-.02-.5h.53z" stroke="#282c33" stroke-width=".05" fill="#282c33"/><path d="m997.88 200-14.26 4.64v-9.28z" stroke="#282c33" fill="#282c33"/><path d="M759 200H601" stroke="#282c33" fill="none"/><path d="m759.5 200 .02.5H759v-1h.53zm-158.5.5h-.5v-1h.5z" stroke="#282c33" stroke-width=".05" fill="#282c33"/><path d="M841 300h142.12" stroke="#282c33" fill="none"/><path d="M841 300.5h-.53l.03-.5-.02-.5h.53z" stroke="#282c33" stroke-width=".05" fill="#282c33"/><path d="m997.88 300-14.26 4.64v-9.28z" stroke="#282c33" fill="#282c33"/><path d="M759 300H601" stroke="#282c33" fill="none"/><path d="m759.5 300 .02.5H759v-1h.53zm-158.5.5h-.5v-1h.5z" stroke="#282c33" stroke-width=".05" fill="#282c33"/><path d="M680 66c0-3.3 2.7-6 6-6h228c3.3 0 6 2.7 6 6v48c0 3.3-2.7 6-6 6H686c-3.3 0-6-2.7-6-6z" fill="none"/><use xlink:href="#f" transform="translate(697.006 95.278)"/><use xlink:href="#g" transform="translate(748.796 95.278)"/><use xlink:href="#h" transform="translate(821.636 95.278)"/><path d="M800 120.5V159" stroke="#282c33" fill="none"/><path d="M800.5 120.5h-1v-.5h1zm0 39.03-.5-.03-.5.02V159h1z" stroke="#282c33" stroke-width=".05" fill="#282c33"/><path d="M660 384.33c0-3.3 2.7-6 6-6h268c3.3 0 6 2.7 6 6v51.34c0 3.3-2.7 6-6 6H666c-3.3 0-6-2.7-6-6z" fill="none"/><use xlink:href="#f" transform="translate(681.605 414.611)"/><use xlink:href="#i" transform="translate(733.395 414.611)"/><use xlink:href="#h" transform="translate(837.037 414.611)"/><path d="M800 377.83V341" stroke="#282c33" fill="none"/><path d="M800.5 378.33h-1v-.5h1zm-.5-37.83.5-.02v.53h-1v-.53z" stroke="#282c33" stroke-width=".05" fill="#282c33"/><path d="M380 160h180v40H380z" stroke="#282c33" fill="#fff"/><use xlink:href="#j" transform="translate(413.26 182.972)"/><use xlink:href="#k" transform="translate(490.247 182.972)"/><path d="M380 300h180v40H380z" stroke="#282c33" fill="#fff"/><use xlink:href="#l" transform="translate(417.185 322.972)"/><use xlink:href="#k" transform="translate(486.321 322.972)"/><path d="M490 250c0 11.05-8.95 20-20 20s-20-8.95-20-20 8.95-20 20-20 20 8.95 20 20z" stroke="#282c33" fill="#fff"/><path d="M470 201v12.12" stroke="#282c33" fill="none"/><path d="M470.5 201h-1v-.5h1z" stroke="#282c33" stroke-width=".05" fill="#282c33"/><path d="m470 227.88-4.64-14.26h9.28z" stroke="#282c33" fill="#282c33"/><path d="M470 271v12.12" stroke="#282c33" fill="none"/><path d="m469.98 270.5.52-.02v.53h-1v-.56z" stroke="#282c33" stroke-width=".05" fill="#282c33"/><path d="m470 297.88-4.64-14.26h9.28z" stroke="#282c33" fill="#282c33"/><path d="M490 110c0 11.05-8.95 20-20 20s-20-8.95-20-20 8.95-20 20-20 20 8.95 20 20z" stroke="#282c33" fill="#fff"/><path d="M481.57 110c0 6.4-5.18 11.57-11.57 11.57-6.4 0-11.57-5.18-11.57-11.57 0-6.4 5.18-11.57 11.57-11.57 6.4 0 11.57 5.18 11.57 11.57z" stroke="#282c33" fill="#282c33"/><path d="M470 341v33.5c0 3.3-2.7 6-6 6H346c-3.3 0-6-2.7-6-6V116c0-3.3 2.7-6 6-6h87.12" stroke="#282c33" fill="none"/><path d="M470.5 341h-1v-.5h1z" stroke="#282c33" stroke-width=".05" fill="#282c33"/><path d="m447.88 110-14.26 4.64v-9.28z" stroke="#282c33" fill="#282c33"/><path d="M470 131v12.12" stroke="#282c33" fill="none"/><path d="m469.98 130.5.52-.02v.53h-1v-.56z" stroke="#282c33" stroke-width=".05" fill="#282c33"/><path d="m470 157.88-4.64-14.26h9.28z" stroke="#282c33" fill="#282c33"/><defs><path fill="#333" d="M266 0h-40l-56-210L115 0H75L2-248h35L96-30l15-64 43-154h32l59 218 59-218h35" id="m"/><path fill="#333" d="M100-194c62-1 85 37 85 99 1 63-27 99-86 99S16-35 15-95c0-66 28-99 85-99zM99-20c44 1 53-31 53-75 0-43-8-75-51-75s-53 32-53 75 10 74 51 75" id="n"/><path fill="#333" d="M114-163C36-179 61-72 57 0H25l-1-190h30c1 12-1 29 2 39 6-27 23-49 58-41v29" id="o"/><path fill="#333" d="M143 0 79-87 56-68V0H24v-261h32v163l83-92h37l-77 82L181 0h-38" id="p"/><path fill="#333" d="M100-194c63 0 86 42 84 106H49c0 40 14 67 53 68 26 1 43-12 49-29l28 8c-11 28-37 45-77 45C44 4 14-33 15-96c1-61 26-98 85-98zm52 81c6-60-76-77-97-28-3 7-6 17-6 28h103" id="q"/><path fill="#333" d="M30-248c87 1 191-15 191 75 0 78-77 80-158 76V0H30v-248zm33 125c57 0 124 11 124-50 0-59-68-47-124-48v98" id="r"/><path fill="#333" d="M96-169c-40 0-48 33-48 73s9 75 48 75c24 0 41-14 43-38l32 2c-6 37-31 61-74 61-59 0-76-41-82-99-10-93 101-131 147-64 4 7 5 14 7 22l-32 3c-4-21-16-35-41-35" id="s"/><path fill="#333" d="M135-143c-3-34-86-38-87 0 15 53 115 12 119 90S17 21 10-45l28-5c4 36 97 45 98 0-10-56-113-15-118-90-4-57 82-63 122-42 12 7 21 19 24 35" id="t"/><path fill="#333" d="M127-220V0H93v-220H8v-28h204v28h-85" id="u"/><path fill="#333" d="M210-169c-67 3-38 105-44 169h-31v-121c0-29-5-50-35-48C34-165 62-65 56 0H25l-1-190h30c1 10-1 24 2 32 10-44 99-50 107 0 11-21 27-35 58-36 85-2 47 119 55 194h-31v-121c0-29-5-49-35-48" id="v"/><path fill="#333" d="M115-194c55 1 70 41 70 98S169 2 115 4C84 4 66-9 55-30l1 105H24l-1-265h31l2 30c10-21 28-34 59-34zm-8 174c40 0 45-34 45-75s-6-73-45-74c-42 0-51 32-51 76 0 43 10 73 51 73" id="w"/><path fill="#333" d="M141-36C126-15 110 5 73 4 37 3 15-17 15-53c-1-64 63-63 125-63 3-35-9-54-41-54-24 1-41 7-42 31l-33-3c5-37 33-52 76-52 45 0 72 20 72 64v82c-1 20 7 32 28 27v20c-31 9-61-2-59-35zM48-53c0 20 12 33 32 33 41-3 63-29 60-74-43 2-92-5-92 41" id="x"/><path fill="#333" d="M24 0v-261h32V0H24" id="y"/><path fill="#333" d="M212-179c-10-28-35-45-73-45-59 0-87 40-87 99 0 60 29 101 89 101 43 0 62-24 78-52l27 14C228-24 195 4 139 4 59 4 22-46 18-125c-6-104 99-153 187-111 19 9 31 26 39 46" id="z"/><path fill="#333" d="M84 4C-5 8 30-112 23-190h32v120c0 31 7 50 39 49 72-2 45-101 50-169h31l1 190h-30c-1-10 1-25-2-33-11 22-28 36-60 37" id="A"/><path fill="#333" d="M59-47c-2 24 18 29 38 22v24C64 9 27 4 27-40v-127H5v-23h24l9-43h21v43h35v23H59v120" id="B"/><path fill="#333" d="M233-177c-1 41-23 64-60 70L243 0h-38l-65-103H63V0H30v-248c88 3 205-21 203 71zM63-129c60-2 137 13 137-47 0-61-80-42-137-45v92" id="C"/><path fill="#333" d="M140-251c81 0 123 46 123 126C263-53 228-8 163 1c7 30 30 48 69 40v23c-55 16-95-15-103-61C56-3 17-48 17-125c0-80 42-126 123-126zm0 227c63 0 89-41 89-101s-29-99-89-99c-61 0-89 39-89 99S79-25 140-24" id="D"/><path fill="#333" d="M30 0v-248h187v28H63v79h144v27H63v87h162V0H30" id="E"/><path fill="#333" d="M141 0 90-78 38 0H4l68-98-65-92h35l48 74 47-74h35l-64 92 68 98h-35" id="F"/><path fill="#333" d="M24-231v-30h32v30H24zM24 0v-190h32V0H24" id="G"/><path fill="#333" d="M117-194c89-4 53 116 60 194h-32v-121c0-31-8-49-39-48C34-167 62-67 57 0H25l-1-190h30c1 10-1 24 2 32 11-22 29-35 61-36" id="H"/><path fill="#333" d="M30-248c118-7 216 8 213 122C240-48 200 0 122 0H30v-248zM63-27c89 8 146-16 146-99s-60-101-146-95v194" id="I"/><path fill="#333" d="M145-31C134-9 116 4 85 4 32 4 16-35 15-94c0-59 17-99 70-100 32-1 48 14 60 33 0-11-1-24 2-32h30l-1 268h-32zM93-21c41 0 51-33 51-76s-8-73-50-73c-40 0-46 35-46 75s5 74 45 74" id="J"/><g id="a"><use transform="rotate(.413) scale(.06173)" xlink:href="#m"/><use transform="matrix(.06173 0 0 .06173 20.494 0)" xlink:href="#n"/><use transform="matrix(.06173 0 0 .06173 32.84 0)" xlink:href="#o"/><use transform="matrix(.06173 0 0 .06173 40.185 0)" xlink:href="#p"/><use transform="matrix(.06173 0 0 .06173 51.296 0)" xlink:href="#q"/><use transform="matrix(.06173 0 0 .06173 63.642 0)" xlink:href="#o"/></g><g id="b"><use transform="rotate(.413) scale(.06173)" xlink:href="#r"/><use transform="matrix(.06173 0 0 .06173 14.815 0)" xlink:href="#o"/><use transform="matrix(.06173 0 0 .06173 22.16 0)" xlink:href="#n"/><use transform="matrix(.06173 0 0 .06173 34.506 0)" xlink:href="#s"/><use transform="matrix(.06173 0 0 .06173 45.617 0)" xlink:href="#q"/><use transform="matrix(.06173 0 0 .06173 57.963 0)" xlink:href="#t"/><use transform="matrix(.06173 0 0 .06173 69.074 0)" xlink:href="#t"/></g><g id="c"><use transform="rotate(.413) scale(.06173)" xlink:href="#u"/><use transform="matrix(.06173 0 0 .06173 11.05 0)" xlink:href="#q"/><use transform="matrix(.06173 0 0 .06173 23.395 0)" xlink:href="#v"/><use transform="matrix(.06173 0 0 .06173 41.852 0)" xlink:href="#w"/><use transform="matrix(.06173 0 0 .06173 54.198 0)" xlink:href="#n"/><use transform="matrix(.06173 0 0 .06173 66.543 0)" xlink:href="#o"/><use transform="matrix(.06173 0 0 .06173 73.889 0)" xlink:href="#x"/><use transform="matrix(.06173 0 0 .06173 86.235 0)" xlink:href="#y"/></g><g id="d"><use transform="rotate(.413) scale(.06173)" xlink:href="#z"/><use transform="matrix(.06173 0 0 .06173 15.988 0)" xlink:href="#y"/><use transform="matrix(.06173 0 0 .06173 20.864 0)" xlink:href="#A"/><use transform="matrix(.06173 0 0 .06173 33.21 0)" xlink:href="#t"/><use transform="matrix(.06173 0 0 .06173 44.321 0)" xlink:href="#B"/><use transform="matrix(.06173 0 0 .06173 50.494 0)" xlink:href="#q"/><use transform="matrix(.06173 0 0 .06173 62.84 0)" xlink:href="#o"/></g><g id="f"><use transform="rotate(.413) scale(.06173)" xlink:href="#u"/><use transform="matrix(.06173 0 0 .06173 11.05 0)" xlink:href="#x"/><use transform="matrix(.06173 0 0 .06173 23.395 0)" xlink:href="#t"/><use transform="matrix(.06173 0 0 .06173 34.506 0)" xlink:href="#p"/></g><g id="g"><use transform="rotate(.413) scale(.06173)" xlink:href="#D"/><use transform="matrix(.06173 0 0 .06173 17.284 0)" xlink:href="#A"/><use transform="matrix(.06173 0 0 .06173 29.63 0)" xlink:href="#q"/><use transform="matrix(.06173 0 0 .06173 41.975 0)" xlink:href="#A"/><use transform="matrix(.06173 0 0 .06173 54.321 0)" xlink:href="#q"/></g><g id="h"><use transform="rotate(.413) scale(.06173)" xlink:href="#r"/><use transform="matrix(.06173 0 0 .06173 14.815 0)" xlink:href="#o"/><use transform="matrix(.06173 0 0 .06173 22.16 0)" xlink:href="#n"/><use transform="matrix(.06173 0 0 .06173 34.506 0)" xlink:href="#B"/><use transform="matrix(.06173 0 0 .06173 40.679 0)" xlink:href="#n"/><use transform="matrix(.06173 0 0 .06173 53.025 0)" xlink:href="#s"/><use transform="matrix(.06173 0 0 .06173 64.136 0)" xlink:href="#n"/><use transform="matrix(.06173 0 0 .06173 76.481 0)" xlink:href="#y"/></g><g id="i"><use transform="rotate(.413) scale(.06173)" xlink:href="#E"/><use transform="matrix(.06173 0 0 .06173 14.815 0)" xlink:href="#F"/><use transform="matrix(.06173 0 0 .06173 25.926 0)" xlink:href="#q"/><use transform="matrix(.06173 0 0 .06173 38.272 0)" xlink:href="#s"/><use transform="matrix(.06173 0 0 .06173 49.383 0)" xlink:href="#A"/><use transform="matrix(.06173 0 0 .06173 61.728 0)" xlink:href="#B"/><use transform="matrix(.06173 0 0 .06173 67.901 0)" xlink:href="#G"/><use transform="matrix(.06173 0 0 .06173 72.778 0)" xlink:href="#n"/><use transform="matrix(.06173 0 0 .06173 85.123 0)" xlink:href="#H"/></g><g id="j"><use transform="scale(.04938)" xlink:href="#I"/><use transform="matrix(.04938 0 0 .04938 12.79 0)" xlink:href="#q"/><use transform="matrix(.04938 0 0 .04938 22.667 0)" xlink:href="#J"/><use transform="matrix(.04938 0 0 .04938 32.543 0)" xlink:href="#A"/><use transform="matrix(.04938 0 0 .04938 42.42 0)" xlink:href="#q"/><use transform="matrix(.04938 0 0 .04938 52.296 0)" xlink:href="#A"/><use transform="matrix(.04938 0 0 .04938 62.173 0)" xlink:href="#q"/></g><g id="k"><use transform="scale(.04938)" xlink:href="#u"/><use transform="matrix(.04938 0 0 .04938 8.84 0)" xlink:href="#x"/><use transform="matrix(.04938 0 0 .04938 18.716 0)" xlink:href="#t"/><use transform="matrix(.04938 0 0 .04938 27.605 0)" xlink:href="#p"/></g><g id="l"><use transform="scale(.04938)" xlink:href="#E"/><use transform="matrix(.04938 0 0 .04938 11.852 0)" xlink:href="#F"/><use transform="matrix(.04938 0 0 .04938 20.74 0)" xlink:href="#q"/><use transform="matrix(.04938 0 0 .04938 30.617 0)" xlink:href="#s"/><use transform="matrix(.04938 0 0 .04938 39.506 0)" xlink:href="#A"/><use transform="matrix(.04938 0 0 .04938 49.383 0)" xlink:href="#B"/><use transform="matrix(.04938 0 0 .04938 54.321 0)" xlink:href="#q"/></g><use transform="rotate(.413) scale(.06173)" xlink:href="#C" id="e"/></defs></g></svg>