<svg xmlns="http://www.w3.org/2000/svg" xmlns:xlink="http://www.w3.org/1999/xlink" xmlns:lucid="lucid" width="2360" height="2086"><g transform="translate(0 480)" lucid:page-tab-id="0_0"><path d="M0-1258.83h3677.73v3840.5H0z" fill="#fff"/><path d="M1400-359.6v2m0 4v4m0 4v4m0 4v4m0 4v4m0 4v4m0 4v4m0 3.98v4m0 4v4m0 4v4m0 4v4m0 4v4m0 4v3.98m0 4v4m0 4v4m0 4v4m0 4v4m0 4v3.98m0 4v4m0 4v4m0 4v4m0 4v4m0 4v4m0 3.98v4m0 4v4m0 4v4m0 4v4m0 4v4m0 4v3.98m0 4v4m0 4v4m0 4v4m0 4v4m0 4v4m0 3.98v4m0 4v4m0 4v4m0 4v4m0 4v4m0 3.98v4m0 4v4m0 4v4m0 4v4m0 4v4m0 4v3.98m0 4v4m0 4v4m0 4v4m0 4v4m0 4v4m0 3.98v4m0 4v4m0 4v4m0 4v4m0 4v4m0 4v3.98m0 4v4m0 4v4m0 4v4m0 4v4m0 4v4m0 3.98v4m0 4v4m0 4v4m0 4v4m0 4v4m0 3.98v4m0 4v4m0 4v4m0 4v4m0 4v4m0 4v3.98m0 4v4m0 4v4m0 4v4m0 4v4m0 4v4m0 3.98v4m0 4v4m0 4v4m0 4v4m0 4v4m0 4v3.98m0 4v4m0 4v4m0 4v4m0 4v4m0 4v4m0 3.98v4m0 4v4m0 4v4m0 4v4m0 4v4m0 3.98v4m0 4v4m0 4v4m0 4v4m0 4v4m0 4v3.98m0 4v4m0 4v4m0 4v4m0 4v4m0 4v4m0 3.98v4m0 4v4m0 4v4m0 4v4m0 4v4m0 4V514m0 4v4m0 4v4m0 4v4m0 4v4m0 4v3.98m0 4v4m0 4v4m0 4v4m0 4v4m0 4v4m0 3.98v4m0 4v4m0 4v4m0 4v4m0 4v4m0 4v3.98m0 4v4m0 4v4m0 4v4m0 4v4m0 4v4m0 3.98v4m0 4v4m0 4v4m0 4v4m0 4v4m0 4v3.98m0 4v4m0 4v4m0 4v4m0 4v4m0 4v3.98m0 4v4m0 4v4m0 4v4m0 4v4m0 4v4m0 3.98v4m0 4v4m0 4v4m0 4v4m0 4v4m0 4v3.98m0 4v4m0 4v4m0 4v4m0 4v4m0 4v4m0 3.98v4m0 4v4m0 4v4m0 4v4m0 4v4m0 4v3.98m0 4v4m0 4v4m0 4v4m0 4v4m0 4v3.98m0 4v4m0 4v4m0 4v4m0 4v4m0 4v4m0 3.98v4m0 4v4m0 4v4m0 4v4m0 4v4m0 4v3.98m0 4v4m0 4v4m0 4v4m0 4v4m0 4v4m0 3.98v4m0 4v4m0 4v4m0 4v4m0 4v4m0 3.98v4m0 4v4m0 4v4m0 4v4m0 4v4m0 4v3.98m0 4v4m0 4v4m0 4v4m0 4v4m0 4v4m0 3.98v4m0 4v4m0 4v4m0 4v4m0 4v4m0 4v3.98m0 4v4m0 4v4m0 4v4m0 4v4m0 4v4m0 3.98v4m0 4v4m0 4v4m0 4v4m0 4v4m0 3.98v4m0 4v4m0 4v4m0 4v4m0 4v4m0 4v3.98m0 4v4m0 4v4m0 4v4m0 4v4m0 4v4m0 3.98v4m0 4v4m0 4v4m0 4v4m0 4v4m0 4v3.98m0 4v4m0 4v4m0 4v4m0 4v4m0 4v4m0 3.98v4m0 4v4m0 4v4m0 4v4m0 4v4m0 3.98v4m0 4v2" stroke="#b2b2b2" fill="none"/><path d="M1400.5-359.58h-1v-.5h1" fill="#b2b2b2"/><path d="M1400 1599.5v.5M1100-359.6v2m0 4v4m0 4v4m0 4v4m0 4v4m0 4v4m0 4v4m0 3.98v4m0 4v4m0 4v4m0 4v4m0 4v4m0 4v3.98m0 4v4m0 4v4m0 4v4m0 4v4m0 4v3.98m0 4v4m0 4v4m0 4v4m0 4v4m0 4v4m0 3.98v4m0 4v4m0 4v4m0 4v4m0 4v4m0 4v3.98m0 4v4m0 4v4m0 4v4m0 4v4m0 4v4m0 3.98v4m0 4v4m0 4v4m0 4v4m0 4v4m0 3.98v4m0 4v4m0 4v4m0 4v4m0 4v4m0 4v3.98m0 4v4m0 4v4m0 4v4m0 4v4m0 4v4m0 3.98v4m0 4v4m0 4v4m0 4v4m0 4v4m0 4v3.98m0 4v4m0 4v4m0 4v4m0 4v4m0 4v4m0 3.98v4m0 4v4m0 4v4m0 4v4m0 4v4m0 3.98v4m0 4v4m0 4v4m0 4v4m0 4v4m0 4v3.98m0 4v4m0 4v4m0 4v4m0 4v4m0 4v4m0 3.98v4m0 4v4m0 4v4m0 4v4m0 4v4m0 4v3.98m0 4v4m0 4v4m0 4v4m0 4v4m0 4v4m0 3.98v4m0 4v4m0 4v4m0 4v4m0 4v4m0 3.98v4m0 4v4m0 4v4m0 4v4m0 4v4m0 4v3.98m0 4v4m0 4v4m0 4v4m0 4v4m0 4v4m0 3.98v4m0 4v4m0 4v4m0 4v4m0 4v4m0 4V514m0 4v4m0 4v4m0 4v4m0 4v4m0 4v3.98m0 4v4m0 4v4m0 4v4m0 4v4m0 4v4m0 3.98v4m0 4v4m0 4v4m0 4v4m0 4v4m0 4v3.98m0 4v4m0 4v4m0 4v4m0 4v4m0 4v4m0 3.98v4m0 4v4m0 4v4m0 4v4m0 4v4m0 4v3.98m0 4v4m0 4v4m0 4v4m0 4v4m0 4v3.98m0 4v4m0 4v4m0 4v4m0 4v4m0 4v4m0 3.98v4m0 4v4m0 4v4m0 4v4m0 4v4m0 4v3.98m0 4v4m0 4v4m0 4v4m0 4v4m0 4v4m0 3.98v4m0 4v4m0 4v4m0 4v4m0 4v4m0 4v3.98m0 4v4m0 4v4m0 4v4m0 4v4m0 4v3.98m0 4v4m0 4v4m0 4v4m0 4v4m0 4v4m0 3.98v4m0 4v4m0 4v4m0 4v4m0 4v4m0 4v3.98m0 4v4m0 4v4m0 4v4m0 4v4m0 4v4m0 3.98v4m0 4v4m0 4v4m0 4v4m0 4v4m0 3.98v4m0 4v4m0 4v4m0 4v4m0 4v4m0 4v3.98m0 4v4m0 4v4m0 4v4m0 4v4m0 4v4m0 3.98v4m0 4v4m0 4v4m0 4v4m0 4v4m0 4v3.98m0 4v4m0 4v4m0 4v4m0 4v4m0 4v4m0 3.98v4m0 4v4m0 4v4m0 4v4m0 4v4m0 3.98v4m0 4v4m0 4v4m0 4v4m0 4v4m0 4v3.98m0 4v4m0 4v4m0 4v4m0 4v4m0 4v4m0 3.98v4m0 4v4m0 4v4m0 4v4m0 4v4m0 4v3.98m0 4v4m0 4v4m0 4v4m0 4v4m0 4v4m0 3.98v4m0 4v4m0 4v4m0 4v4m0 4v4m0 3.98v4m0 4v2" stroke="#b2b2b2" fill="none"/><path d="M1100.5-359.58h-1v-.5h1" fill="#b2b2b2"/><path d="M1100 1599.5v.5" stroke="#b2b2b2" fill="none"/><path d="M980-445a15 15 0 0 1 15-15h210a15 15 0 0 1 15 15v70a15 15 0 0 1-15 15H995a15 15 0 0 1-15-15z" stroke="#000" stroke-opacity="0" stroke-width="3" fill-opacity="0"/><use xlink:href="#a" transform="matrix(1,0,0,1,985,-455) translate(17.839506172839506 48.71527777777778)"/><use xlink:href="#b" transform="matrix(1,0,0,1,985,-455) translate(114.69135802469135 48.71527777777778)"/><path d="M1120-300c0 11.05-8.95 20-20 20s-20-8.95-20-20 8.95-20 20-20 20 8.95 20 20zM1120-100c0 11.05-8.95 20-20 20s-20-8.95-20-20 8.95-20 20-20 20 8.95 20 20zM1120 100c0 11.05-8.95 20-20 20s-20-8.95-20-20 8.95-20 20-20 20 8.95 20 20zM1120 300c0 11.05-8.95 20-20 20s-20-8.95-20-20 8.95-20 20-20 20 8.95 20 20z" stroke="#333" fill="#fff"/><path d="M740-324.57a6 6 0 0 1 6-6h288a6 6 0 0 1 6 6v49.14a6 6 0 0 1-6 6H746a6 6 0 0 1-6-6z" stroke="#000" stroke-opacity="0" stroke-width="3" fill="#fff" fill-opacity="0"/><use xlink:href="#c" transform="matrix(1,0,0,1,745,-325.5690780866777) translate(15.154320987654359 30.77777777777778)"/><path d="M1040.46-300H1079" stroke="#333" fill="none"/><path d="M1040.48-299.5h-.52v-1h.52M1079.5-300.02l.02.52h-.53v-1h.56" fill="#333"/><path d="M740-124.57a6 6 0 0 1 6-6h288a6 6 0 0 1 6 6v49.14a6 6 0 0 1-6 6H746a6 6 0 0 1-6-6z" stroke="#000" stroke-opacity="0" stroke-width="3" fill="#fff" fill-opacity="0"/><use xlink:href="#d" transform="matrix(1,0,0,1,745,-125.56907808667754) translate(24.41358024691361 30.77777777777778)"/><path d="M1040.46-100H1079" stroke="#333" fill="none"/><path d="M1040.48-99.5h-.52v-1h.52M1079.5-100.02l.02.52h-.53v-1h.56" fill="#333"/><path d="M740 75.43a6 6 0 0 1 6-6h288a6 6 0 0 1 6 6v49.14a6 6 0 0 1-6 6H746a6 6 0 0 1-6-6z" stroke="#000" stroke-opacity="0" stroke-width="3" fill="#fff" fill-opacity="0"/><use xlink:href="#e" transform="matrix(1,0,0,1,745,74.43092191332258) translate(41.08024691358027 30.77777777777778)"/><path d="M1100-279v142.12" stroke="#333" fill="none"/><path d="M1099.98-279.5l.52-.02v.53h-1v-.56" fill="#333"/><path d="M1100-122.12l-4.64-14.26h9.28z" stroke="#333" fill="#333"/><path d="M1040.46 100H1079" stroke="#333" fill="none"/><path d="M1040.48 100.5h-.52v-1h.52M1079.5 99.98l.02.52h-.53v-1h.56" fill="#333"/><path d="M1100-79V63.12" stroke="#333" fill="none"/><path d="M1099.98-79.5l.52-.02v.53h-1v-.56" fill="#333"/><path d="M1100 77.88l-4.64-14.26h9.28z" stroke="#333" fill="#333"/><path d="M1120 1500c0 11.05-8.95 20-20 20s-20-8.95-20-20 8.95-20 20-20 20 8.95 20 20z" stroke="#333" fill="#fff"/><path d="M740 286a6 6 0 0 1 6-6h288a6 6 0 0 1 6 6v28a6 6 0 0 1-6 6H746a6 6 0 0 1-6-6z" stroke="#000" stroke-opacity="0" stroke-width="3" fill="#fff" fill-opacity="0"/><use xlink:href="#f" transform="matrix(1,0,0,1,745,285.00000000000006) translate(23.240740740740776 19.65277777777778)"/><path d="M1040.46 300H1079" stroke="#333" fill="none"/><path d="M1040.48 300.5h-.5l-.02-1h.52M1079.5 299.98l.02.52h-.53v-1h.56" fill="#333"/><path d="M660 1486a6 6 0 0 1 6-6h368a6 6 0 0 1 6 6v28a6 6 0 0 1-6 6H666a6 6 0 0 1-6-6z" stroke="#000" stroke-opacity="0" stroke-width="3" fill="#fff" fill-opacity="0"/><use xlink:href="#g" transform="matrix(1,0,0,1,665,1484.9999999827107) translate(37.314814814814866 19.65277777777778)"/><path d="M1040.46 1500H1079" stroke="#333" fill="none"/><path d="M1040.48 1500.5h-.5l-.02-1h.52M1079.5 1499.98l.02.52h-.53v-1h.56" fill="#333"/><path d="M1280-445a15 15 0 0 1 15-15h210a15 15 0 0 1 15 15v70a15 15 0 0 1-15 15h-210a15 15 0 0 1-15-15z" stroke="#000" stroke-opacity="0" stroke-width="3" fill-opacity="0"/><use xlink:href="#h" transform="matrix(1,0,0,1,1285.0000000000002,-455) translate(5.246913580246911 48.71527777777778)"/><use xlink:href="#i" transform="matrix(1,0,0,1,1285.0000000000002,-455) translate(75.49382716049382 48.71527777777778)"/><use xlink:href="#b" transform="matrix(1,0,0,1,1285.0000000000002,-455) translate(127.28395061728395 48.71527777777778)"/><path d="M1840 434a6 6 0 0 0 6 6h188a6 6 0 0 0 6-6v-68a6 6 0 0 0-6-6h-188a6 6 0 0 0-6 6z" stroke="#000" stroke-opacity="0" stroke-width="3" fill="#fff" fill-opacity="0"/><use xlink:href="#j" transform="matrix(1,0,0,1,1845,365.00000000000006) translate(6.265432098765444 26.52777777777778)"/><use xlink:href="#k" transform="matrix(1,0,0,1,1845,365.00000000000006) translate(21.481481481481495 53.19444444444445)"/><use xlink:href="#l" transform="matrix(1,0,0,1,1845,365.00000000000006) translate(106.91358024691358 53.19444444444445)"/><path d="M1762.5 500h75M1762.56 500H1760M1837.44 500h2.56M1762.5 300h75M1762.56 300H1760M1837.44 300h2.56" stroke="#333" stroke-width="5" fill="none"/><path d="M1800 300.5v199M1800 300.5v-.5M1800 499.5v.5" stroke="#333" fill="none"/><path d="M262.5-300h75M262.56-300H260M337.44-300H340M262.5 1500h75M262.56 1500H260M337.44 1500H340" stroke="#333" stroke-width="5" fill="none"/><path d="M300 1499.5V600.17a.17.17 0 0 0-.17-.17.17.17 0 0 1-.16-.17V-299.5M300 1499.5v.5M299.67-299.5v-.5" stroke="#333" fill="none"/><path d="M20 528.17a15 15 0 0 1 15-15h210a15 15 0 0 1 15 15v140a15 15 0 0 1-15 15H35a15 15 0 0 1-15-15z" stroke="#000" stroke-opacity="0" stroke-width="3" fill-opacity="0"/><use xlink:href="#a" transform="matrix(1,0,0,1,25,518.1708024860604) translate(17.839506172839506 32.77777777777778)"/><use xlink:href="#m" transform="matrix(1,0,0,1,25,518.1708024860604) translate(114.69135802469135 32.77777777777778)"/><use xlink:href="#n" transform="matrix(1,0,0,1,25,518.1708024860604) translate(40.24691358024691 59.44444444444445)"/><use xlink:href="#o" transform="matrix(1,0,0,1,25,518.1708024860604) translate(125.679012345679 59.44444444444445)"/><use xlink:href="#p" transform="matrix(1,0,0,1,25,518.1708024860604) translate(107.5925925925926 86.11111111111111)"/><use xlink:href="#q" transform="matrix(1,0,0,1,25,518.1708024860604) translate(46.23456790123457 112.7777777777778)"/><use xlink:href="#r" transform="matrix(1,0,0,1,25,518.1708024860604) translate(143.08641975308643 112.7777777777778)"/><use xlink:href="#s" transform="matrix(1,0,0,1,25,518.1708024860604) translate(41.481481481481495 139.44444444444446)"/><use xlink:href="#t" transform="matrix(1,0,0,1,25,518.1708024860604) translate(126.91358024691358 139.44444444444446)"/><path d="M260.4 598.17h38.1a1.33 1.33 0 0 1 1.33 1.33" stroke="#333" fill="none"/><path d="M260.42 598.67h-.5v-1h.5" fill="#333"/><path d="M299.83 599.5v.5M1839.54 400h-39.04" stroke="#333" fill="none"/><path d="M1840.04 400.5h-.52v-1h.52" fill="#333"/><path d="M1800.5 400h-.5" stroke="#333" fill="none"/><path d="M1400.3 711v2m0 4v3.98m0 4v4m0 3.98v4m0 3.98v4m0 3.98v4m0 3.98v4m0 3.98v4m0 4v3.98m0 4v3.98m0 4v1.98" stroke="#ccc" fill="none"/><path d="M1400.8 711.02h-1v-.6l.5.1.5-.1M1400.8 791.4l-.5-.08-.5.07v-.6h1" fill="#ccc"/><path d="M1420.3 300c0 11.05-8.96 20-20 20-11.05 0-20-8.95-20-20s8.95-20 20-20c11.04 0 20 8.95 20 20zM1420.3 500c0 11.05-8.96 20-20 20-11.05 0-20-8.95-20-20s8.95-20 20-20c11.04 0 20 8.95 20 20zM1420.3 900c0 11.05-8.96 20-20 20-11.05 0-20-8.95-20-20s8.95-20 20-20c11.04 0 20 8.95 20 20z" stroke="#333" fill="#fff"/><path d="M1460.55 286a6 6 0 0 1 6-6h248a6 6 0 0 1 6 6v28a6 6 0 0 1-6 6h-248a6 6 0 0 1-6-6z" stroke="#000" stroke-opacity="0" stroke-width="3" fill="#fff" fill-opacity="0"/><use xlink:href="#u" transform="matrix(1,0,0,1,1465.5492506527207,285) translate(14.629629629629662 19.65277777777778)"/><path d="M1460.08 300h-38.78" stroke="#333" fill="none"/><path d="M1460.6 300.5h-.53v-1h.5M1421.3 300.5h-.56l.06-.48-.02-.52h.53" fill="#333"/><path d="M1460.3 486a6 6 0 0 1 6-6h248a6 6 0 0 1 6 6v28a6 6 0 0 1-6 6h-248a6 6 0 0 1-6-6z" stroke="#000" stroke-opacity="0" stroke-width="3" fill="#fff" fill-opacity="0"/><use xlink:href="#v" transform="matrix(1,0,0,1,1465.298267068224,484.99999999999994) translate(31.29629629629632 19.65277777777778)"/><path d="M1459.83 500h-38.53" stroke="#333" fill="none"/><path d="M1460.34 500.5h-.52v-1h.5M1421.3 500.5h-.56l.06-.48-.02-.52h.53" fill="#333"/><path d="M1460.55 886a6 6 0 0 1 6-6h248a6 6 0 0 1 6 6v28a6 6 0 0 1-6 6h-248a6 6 0 0 1-6-6z" stroke="#000" stroke-opacity="0" stroke-width="3" fill="#fff" fill-opacity="0"/><use xlink:href="#w" transform="matrix(1,0,0,1,1460.5492506527207,880) translate(18.456790123456827 25.27777777777778)"/><path d="M1400.3 321v142.12" stroke="#333" fill="none"/><path d="M1400.28 320.5l.52-.02v.53h-1v-.56" fill="#333"/><path d="M1400.3 477.88l-4.64-14.26h9.27z" stroke="#333" fill="#333"/><path d="M1460.08 900h-38.78" stroke="#333" fill="none"/><path d="M1460.6 900.5h-.53v-1h.5M1421.3 900.5h-.56l.06-.48-.02-.52h.53" fill="#333"/><path d="M1400.3 521v66.17" stroke="#333" fill="none"/><path d="M1400.28 520.5l.52-.02v.53h-1v-.56M1400.8 587.73l-.5-.06-.5.06v-.58h1" fill="#333"/><path d="M1400.3 609.18v253.94" stroke="#333" fill="none"/><path d="M1400.8 609.2h-1v-.6l.5.08.5-.08" fill="#333"/><path d="M1400.3 877.88l-4.64-14.26h9.27z" stroke="#333" fill="#333"/><path d="M1580 674a6 6 0 0 0 6 6h168.6a6 6 0 0 0 6-6v-48a6 6 0 0 0-6-6H1586a6 6 0 0 0-6 6z" stroke="#000" stroke-opacity="0" stroke-width="3" fill="#fff" fill-opacity="0"/><use xlink:href="#x" transform="matrix(1,0,0,1,1585,625) translate(36.79629629629629 17.77777777777778)"/><use xlink:href="#k" transform="matrix(1,0,0,1,1585,625) translate(11.981481481481495 44.44444444444444)"/><use xlink:href="#l" transform="matrix(1,0,0,1,1585,625) translate(97.41358024691358 44.44444444444444)"/><path d="M1502.8 600h75M1502.86 600h-2.56M1577.73 600h2.57" stroke="#333" stroke-width="5" fill="none"/><path d="M1540.3 699.5v-99M1540.3 699.5v.5M1540.3 600.5v-.5" stroke="#333" fill="none"/><path d="M1502.8 700h75M1502.86 700h-2.56M1577.73 700h2.57" stroke="#333" stroke-width="5" fill="none"/><path d="M1579.54 650h-38.74" stroke="#333" fill="none"/><path d="M1580.04 650.5h-.52v-1h.52" fill="#333"/><path d="M1540.8 650h-.5" stroke="#333" fill="none"/><path d="M1410.3 598.17c0 5.52-4.48 10-10 10s-10-4.48-10-10 4.48-10 10-10 10 4.48 10 10zM1410.3 801.83c0 5.52-4.48 10-10 10s-10-4.48-10-10 4.48-10 10-10 10 4.48 10 10zM1410.3 700c0 5.52-4.48 10-10 10s-10-4.48-10-10 4.48-10 10-10 10 4.48 10 10z" stroke="#333" fill="#fff"/><path d="M1200.3 574.17a6 6 0 0 1 6-6h128.3a6 6 0 0 1 6 6v48a6 6 0 0 1-6 6h-128.3a6 6 0 0 1-6-6z" stroke="#000" stroke-opacity="0" stroke-width="3" fill="#fff" fill-opacity="0"/><use xlink:href="#y" transform="matrix(1,0,0,1,1205.2982670682243,573.1708024860604) translate(16.79629629629629 30.52777777777778)"/><path d="M1200 676a6 6 0 0 1 6-6h128.3a6 6 0 0 1 6 6v48a6 6 0 0 1-6 6H1206a6 6 0 0 1-6-6z" stroke="#000" stroke-opacity="0" stroke-width="3" fill="#fff" fill-opacity="0"/><use xlink:href="#y" transform="matrix(1,0,0,1,1205,675) translate(16.79629629629629 30.52777777777778)"/><path d="M1200.3 777.83a6 6 0 0 1 6-6h128.3a6 6 0 0 1 6 6v48a6 6 0 0 1-6 6h-128.3a6 6 0 0 1-6-6z" stroke="#000" stroke-opacity="0" stroke-width="3" fill="#fff" fill-opacity="0"/><use xlink:href="#y" transform="matrix(1,0,0,1,1205.2982670682243,776.8291975139396) translate(16.79629629629629 30.52777777777778)"/><path d="M1341.06 598.17h48.23" stroke="#333" fill="none"/><path d="M1341.07 598.67h-.5v-1h.5M1389.8 598.18l.07.5h-.6v-1h.6" fill="#333"/><path d="M1340.76 700h48.53" stroke="#333" fill="none"/><path d="M1340.77 700.5h-.5v-1h.5M1389.8 700l.07.5h-.6v-1h.6" fill="#333"/><path d="M1341.06 801.83h48.23" stroke="#333" fill="none"/><path d="M1341.07 802.33h-.5v-1h.5M1389.8 801.84l.07.5h-.6v-1h.6" fill="#333"/><path d="M562.5 1100h75M562.56 1100H560M637.44 1100H640M562.5 1300h75M562.56 1300H560M637.44 1300H640" stroke="#333" stroke-width="5" fill="none"/><path d="M599.67 1299.5v-199M599.67 1299.5v.5M599.67 1100.5v-.5" stroke="#333" fill="none"/><path d="M360 1155.66a15 15 0 0 1 15-15h170a15 15 0 0 1 15 15v90a15 15 0 0 1-15 15H375a15 15 0 0 1-15-15z" stroke="#000" stroke-opacity="0" stroke-width="3" fill-opacity="0"/><use xlink:href="#a" transform="matrix(1,0,0,1,365,1145.656045510716) translate(23.765432098765444 45.52777777777778)"/><use xlink:href="#z" transform="matrix(1,0,0,1,365,1145.656045510716) translate(120.61728395061729 45.52777777777778)"/><use xlink:href="#n" transform="matrix(1,0,0,1,365,1145.656045510716) translate(21.481481481481495 72.19444444444446)"/><use xlink:href="#A" transform="matrix(1,0,0,1,365,1145.656045510716) translate(106.91358024691358 72.19444444444446)"/><path d="M560.4 1200.66h38.77" stroke="#333" fill="none"/><path d="M560.42 1201.16h-.5v-1h.5" fill="#333"/><path d="M599.15 1200.66h.52M1100 121v143.13" stroke="#333" fill="none"/><path d="M1099.98 120.5l.52-.02v.53h-1v-.56" fill="#333"/><path d="M1100 278.9l-4.64-14.27h9.28z" stroke="#333" fill="#333"/><path d="M1120 899.43c0 11.05-8.95 20-20 20s-20-8.95-20-20c0-11.04 8.95-20 20-20s20 8.96 20 20zM1120 1100c0 11.05-8.95 20-20 20s-20-8.95-20-20 8.95-20 20-20 20 8.95 20 20zM1120 1300c0 11.05-8.95 20-20 20s-20-8.95-20-20 8.95-20 20-20 20 8.95 20 20z" stroke="#333" fill="#fff"/><path d="M740 884.86a6 6 0 0 1 6-6h288a6 6 0 0 1 6 6V914a6 6 0 0 1-6 6H746a6 6 0 0 1-6-6z" stroke="#000" stroke-opacity="0" stroke-width="3" fill="#fff" fill-opacity="0"/><use xlink:href="#d" transform="matrix(1,0,0,1,745,883.8618438266451) translate(24.41358024691361 19.77777777777778)"/><path d="M1040.46 899.43H1079" stroke="#333" fill="none"/><path d="M1040.48 899.93h-.5l-.02-1h.52M1079.5 899.4l.02.53h-.53v-1h.56" fill="#333"/><path d="M740 1086a6 6 0 0 1 6-6h288a6 6 0 0 1 6 6v28a6 6 0 0 1-6 6H746a6 6 0 0 1-6-6z" stroke="#000" stroke-opacity="0" stroke-width="3" fill="#fff" fill-opacity="0"/><use xlink:href="#e" transform="matrix(1,0,0,1,745,1085) translate(41.08024691358027 19.65277777777778)"/><path d="M1040.46 1100H1079" stroke="#333" fill="none"/><path d="M1040.48 1100.5h-.5l-.02-1h.52M1079.5 1099.98l.02.52h-.53v-1h.56" fill="#333"/><path d="M1100 920.43v142.7" stroke="#333" fill="none"/><path d="M1099.98 919.93l.52-.02v.54h-1v-.57" fill="#333"/><path d="M1100 1077.88l-4.64-14.26h9.28z" stroke="#333" fill="#333"/><path d="M740 1286a6 6 0 0 1 6-6h288a6 6 0 0 1 6 6v28a6 6 0 0 1-6 6H746a6 6 0 0 1-6-6z" stroke="#000" stroke-opacity="0" stroke-width="3" fill="#fff" fill-opacity="0"/><use xlink:href="#f" transform="matrix(1,0,0,1,745,1284.9999999913553) translate(23.240740740740776 19.65277777777778)"/><path d="M1040.46 1300H1079" stroke="#333" fill="none"/><path d="M1040.48 1300.5h-.5l-.02-1h.52M1079.5 1299.98l.02.52h-.53v-1h.56" fill="#333"/><path d="M1100 1121v142.12" stroke="#333" fill="none"/><path d="M1099.98 1120.5l.52-.02v.53h-1v-.56" fill="#333"/><path d="M1100 1277.88l-4.64-14.26h9.28z" stroke="#333" fill="#333"/><path d="M1100 1321v142.12" stroke="#333" fill="none"/><path d="M1099.98 1320.5l.52-.02v.53h-1v-.56" fill="#333"/><path d="M1100 1477.88l-4.64-14.26h9.28z" stroke="#333" fill="#333"/><path d="M562.5 100h75M562.56 100H560M637.44 100H640M562.5 300h75M562.56 300H560M637.44 300H640" stroke="#333" stroke-width="5" fill="none"/><path d="M599.67 299.5v-199M599.67 299.5v.5M599.67 100.5v-.5" stroke="#333" fill="none"/><path d="M360 155.66a15 15 0 0 1 15-15h170a15 15 0 0 1 15 15v90a15 15 0 0 1-15 15H375a15 15 0 0 1-15-15z" stroke="#000" stroke-opacity="0" stroke-width="3" fill-opacity="0"/><use xlink:href="#a" transform="matrix(1,0,0,1,365,145.656045510716) translate(23.765432098765444 45.52777777777778)"/><use xlink:href="#z" transform="matrix(1,0,0,1,365,145.656045510716) translate(120.61728395061729 45.52777777777778)"/><use xlink:href="#n" transform="matrix(1,0,0,1,365,145.656045510716) translate(21.481481481481495 72.19444444444446)"/><use xlink:href="#A" transform="matrix(1,0,0,1,365,145.656045510716) translate(106.91358024691358 72.19444444444446)"/><path d="M560.4 200.66h38.77" stroke="#333" fill="none"/><path d="M560.42 201.16h-.5v-1h.5" fill="#333"/><path d="M599.15 200.66h.52" stroke="#333" fill="none"/><path d="M1763.3 900h75M1763.36 900h-2.56M1838.24 900h2.56" stroke="#333" stroke-width="5" fill="none"/><path d="M1800.1 500.5v399M1800.1 500.5v-.5M1800.1 899.5v.5" stroke="#333" fill="none"/><path d="M1840 734a6 6 0 0 0 6 6h188a6 6 0 0 0 6-6v-68a6 6 0 0 0-6-6h-188a6 6 0 0 0-6 6z" stroke="#000" stroke-opacity="0" stroke-width="3" fill="#fff" fill-opacity="0"/><g><use xlink:href="#B" transform="matrix(1,0,0,1,1845,665) translate(24.19753086419753 26.52777777777778)"/><use xlink:href="#k" transform="matrix(1,0,0,1,1845,665) translate(21.481481481481495 53.19444444444445)"/><use xlink:href="#l" transform="matrix(1,0,0,1,1845,665) translate(106.91358024691358 53.19444444444445)"/></g><path d="M1839.54 700h-38.93" stroke="#333" fill="none"/><path d="M1840.04 700.5h-.52v-1h.52" fill="#333"/><path d="M1800.62 700h-.5" stroke="#333" fill="none"/><path d="M2062.5 300h75M2062.56 300H2060M2137.44 300h2.56M2063.3 900h75M2063.36 900h-2.56M2138.24 900h2.56" stroke="#333" stroke-width="5" fill="none"/><path d="M2100.1 300.5v599M2100.1 300.5v-.5M2100.1 899.5v.5" stroke="#333" fill="none"/><path d="M2140 634a6 6 0 0 0 6 6h188a6 6 0 0 0 6-6v-68a6 6 0 0 0-6-6h-188a6 6 0 0 0-6 6z" stroke="#000" stroke-opacity="0" stroke-width="3" fill="#fff" fill-opacity="0"/><g><use xlink:href="#C" transform="matrix(1,0,0,1,2145,565) translate(1.3580246913580396 26.52777777777778)"/><use xlink:href="#k" transform="matrix(1,0,0,1,2145,565) translate(21.481481481481495 53.19444444444445)"/><use xlink:href="#l" transform="matrix(1,0,0,1,2145,565) translate(106.91358024691358 53.19444444444445)"/></g><path d="M2139.54 600h-38.93" stroke="#333" fill="none"/><path d="M2140.04 600.5h-.52v-1h.52" fill="#333"/><path d="M2100.62 600h-.5" stroke="#333" fill="none"/><defs><path fill="#333" d="M266 0h-40l-56-210L115 0H75L2-248h35L96-30l15-64 43-154h32l59 218 59-218h35" id="D"/><path fill="#333" d="M100-194c62-1 85 37 85 99 1 63-27 99-86 99S16-35 15-95c0-66 28-99 85-99zM99-20c44 1 53-31 53-75 0-43-8-75-51-75s-53 32-53 75 10 74 51 75" id="E"/><path fill="#333" d="M114-163C36-179 61-72 57 0H25l-1-190h30c1 12-1 29 2 39 6-27 23-49 58-41v29" id="F"/><path fill="#333" d="M143 0L79-87 56-68V0H24v-261h32v163l83-92h37l-77 82L181 0h-38" id="G"/><path fill="#333" d="M101-234c-31-9-42 10-38 44h38v23H63V0H32v-167H5v-23h27c-7-52 17-82 69-68v24" id="H"/><path fill="#333" d="M24 0v-261h32V0H24" id="I"/><path fill="#333" d="M206 0h-36l-40-164L89 0H53L-1-190h32L70-26l43-164h34l41 164 42-164h31" id="J"/><g id="a"><use transform="matrix(0.06172839506172839,0,0,0.06172839506172839,0,0)" xlink:href="#D"/><use transform="matrix(0.06172839506172839,0,0,0.06172839506172839,20.493827160493826,0)" xlink:href="#E"/><use transform="matrix(0.06172839506172839,0,0,0.06172839506172839,32.839506172839506,0)" xlink:href="#F"/><use transform="matrix(0.06172839506172839,0,0,0.06172839506172839,40.18518518518518,0)" xlink:href="#G"/><use transform="matrix(0.06172839506172839,0,0,0.06172839506172839,51.29629629629629,0)" xlink:href="#H"/><use transform="matrix(0.06172839506172839,0,0,0.06172839506172839,57.46913580246913,0)" xlink:href="#I"/><use transform="matrix(0.06172839506172839,0,0,0.06172839506172839,62.34567901234568,0)" xlink:href="#E"/><use transform="matrix(0.06172839506172839,0,0,0.06172839506172839,74.69135802469135,0)" xlink:href="#J"/></g><path fill="#333" d="M30 0v-248h187v28H63v79h144v27H63v87h162V0H30" id="K"/><path fill="#333" d="M141 0L90-78 38 0H4l68-98-65-92h35l48 74 47-74h35l-64 92 68 98h-35" id="L"/><path fill="#333" d="M100-194c63 0 86 42 84 106H49c0 40 14 67 53 68 26 1 43-12 49-29l28 8c-11 28-37 45-77 45C44 4 14-33 15-96c1-61 26-98 85-98zm52 81c6-60-76-77-97-28-3 7-6 17-6 28h103" id="M"/><path fill="#333" d="M96-169c-40 0-48 33-48 73s9 75 48 75c24 0 41-14 43-38l32 2c-6 37-31 61-74 61-59 0-76-41-82-99-10-93 101-131 147-64 4 7 5 14 7 22l-32 3c-4-21-16-35-41-35" id="N"/><path fill="#333" d="M84 4C-5 8 30-112 23-190h32v120c0 31 7 50 39 49 72-2 45-101 50-169h31l1 190h-30c-1-10 1-25-2-33-11 22-28 36-60 37" id="O"/><path fill="#333" d="M59-47c-2 24 18 29 38 22v24C64 9 27 4 27-40v-127H5v-23h24l9-43h21v43h35v23H59v120" id="P"/><path fill="#333" d="M24-231v-30h32v30H24zM24 0v-190h32V0H24" id="Q"/><path fill="#333" d="M117-194c89-4 53 116 60 194h-32v-121c0-31-8-49-39-48C34-167 62-67 57 0H25l-1-190h30c1 10-1 24 2 32 11-22 29-35 61-36" id="R"/><g id="b"><use transform="matrix(0.06172839506172839,0,0,0.06172839506172839,0,0)" xlink:href="#K"/><use transform="matrix(0.06172839506172839,0,0,0.06172839506172839,14.814814814814813,0)" xlink:href="#L"/><use transform="matrix(0.06172839506172839,0,0,0.06172839506172839,25.925925925925924,0)" xlink:href="#M"/><use transform="matrix(0.06172839506172839,0,0,0.06172839506172839,38.2716049382716,0)" xlink:href="#N"/><use transform="matrix(0.06172839506172839,0,0,0.06172839506172839,49.38271604938271,0)" xlink:href="#O"/><use transform="matrix(0.06172839506172839,0,0,0.06172839506172839,61.728395061728385,0)" xlink:href="#P"/><use transform="matrix(0.06172839506172839,0,0,0.06172839506172839,67.90123456790123,0)" xlink:href="#Q"/><use transform="matrix(0.06172839506172839,0,0,0.06172839506172839,72.77777777777777,0)" xlink:href="#E"/><use transform="matrix(0.06172839506172839,0,0,0.06172839506172839,85.12345679012346,0)" xlink:href="#R"/></g><path fill="#333" d="M185-189c-5-48-123-54-124 2 14 75 158 14 163 119 3 78-121 87-175 55-17-10-28-26-33-46l33-7c5 56 141 63 141-1 0-78-155-14-162-118-5-82 145-84 179-34 5 7 8 16 11 25" id="S"/><path fill="#333" d="M141-36C126-15 110 5 73 4 37 3 15-17 15-53c-1-64 63-63 125-63 3-35-9-54-41-54-24 1-41 7-42 31l-33-3c5-37 33-52 76-52 45 0 72 20 72 64v82c-1 20 7 32 28 27v20c-31 9-61-2-59-35zM48-53c0 20 12 33 32 33 41-3 63-29 60-74-43 2-92-5-92 41" id="T"/><path fill="#333" d="M85-194c31 0 48 13 60 33l-1-100h32l1 261h-30c-2-10 0-23-3-31C134-8 116 4 85 4 32 4 16-35 15-94c0-66 23-100 70-100zm9 24c-40 0-46 34-46 75 0 40 6 74 45 74 42 0 51-32 51-76 0-42-9-74-50-73" id="U"/><g id="c"><use transform="matrix(0.06172839506172839,0,0,0.06172839506172839,0,0)" xlink:href="#D"/><use transform="matrix(0.06172839506172839,0,0,0.06172839506172839,20.493827160493826,0)" xlink:href="#E"/><use transform="matrix(0.06172839506172839,0,0,0.06172839506172839,32.839506172839506,0)" xlink:href="#F"/><use transform="matrix(0.06172839506172839,0,0,0.06172839506172839,40.18518518518518,0)" xlink:href="#G"/><use transform="matrix(0.06172839506172839,0,0,0.06172839506172839,51.29629629629629,0)" xlink:href="#H"/><use transform="matrix(0.06172839506172839,0,0,0.06172839506172839,57.46913580246913,0)" xlink:href="#I"/><use transform="matrix(0.06172839506172839,0,0,0.06172839506172839,62.34567901234568,0)" xlink:href="#E"/><use transform="matrix(0.06172839506172839,0,0,0.06172839506172839,74.69135802469135,0)" xlink:href="#J"/><use transform="matrix(0.06172839506172839,0,0,0.06172839506172839,90.67901234567901,0)" xlink:href="#K"/><use transform="matrix(0.06172839506172839,0,0,0.06172839506172839,105.49382716049382,0)" xlink:href="#L"/><use transform="matrix(0.06172839506172839,0,0,0.06172839506172839,116.60493827160494,0)" xlink:href="#M"/><use transform="matrix(0.06172839506172839,0,0,0.06172839506172839,128.9506172839506,0)" xlink:href="#N"/><use transform="matrix(0.06172839506172839,0,0,0.06172839506172839,140.06172839506172,0)" xlink:href="#O"/><use transform="matrix(0.06172839506172839,0,0,0.06172839506172839,152.4074074074074,0)" xlink:href="#P"/><use transform="matrix(0.06172839506172839,0,0,0.06172839506172839,158.58024691358023,0)" xlink:href="#Q"/><use transform="matrix(0.06172839506172839,0,0,0.06172839506172839,163.45679012345676,0)" xlink:href="#E"/><use transform="matrix(0.06172839506172839,0,0,0.06172839506172839,175.80246913580243,0)" xlink:href="#R"/><use transform="matrix(0.06172839506172839,0,0,0.06172839506172839,188.1481481481481,0)" xlink:href="#S"/><use transform="matrix(0.06172839506172839,0,0,0.06172839506172839,202.9629629629629,0)" xlink:href="#P"/><use transform="matrix(0.06172839506172839,0,0,0.06172839506172839,209.13580246913574,0)" xlink:href="#T"/><use transform="matrix(0.06172839506172839,0,0,0.06172839506172839,221.4814814814814,0)" xlink:href="#F"/><use transform="matrix(0.06172839506172839,0,0,0.06172839506172839,228.82716049382708,0)" xlink:href="#P"/><use transform="matrix(0.06172839506172839,0,0,0.06172839506172839,234.99999999999991,0)" xlink:href="#M"/><use transform="matrix(0.06172839506172839,0,0,0.06172839506172839,247.34567901234558,0)" xlink:href="#U"/></g><path fill="#333" d="M127-220V0H93v-220H8v-28h204v28h-85" id="V"/><path fill="#333" d="M135-143c-3-34-86-38-87 0 15 53 115 12 119 90S17 21 10-45l28-5c4 36 97 45 98 0-10-56-113-15-118-90-4-57 82-63 122-42 12 7 21 19 24 35" id="W"/><path fill="#333" d="M106-169C34-169 62-67 57 0H25v-261h32l-1 103c12-21 28-36 61-36 89 0 53 116 60 194h-32v-121c2-32-8-49-39-48" id="X"/><g id="d"><use transform="matrix(0.06172839506172839,0,0,0.06172839506172839,0,0)" xlink:href="#D"/><use transform="matrix(0.06172839506172839,0,0,0.06172839506172839,20.493827160493826,0)" xlink:href="#E"/><use transform="matrix(0.06172839506172839,0,0,0.06172839506172839,32.839506172839506,0)" xlink:href="#F"/><use transform="matrix(0.06172839506172839,0,0,0.06172839506172839,40.18518518518518,0)" xlink:href="#G"/><use transform="matrix(0.06172839506172839,0,0,0.06172839506172839,51.29629629629629,0)" xlink:href="#H"/><use transform="matrix(0.06172839506172839,0,0,0.06172839506172839,57.46913580246913,0)" xlink:href="#I"/><use transform="matrix(0.06172839506172839,0,0,0.06172839506172839,62.34567901234568,0)" xlink:href="#E"/><use transform="matrix(0.06172839506172839,0,0,0.06172839506172839,74.69135802469135,0)" xlink:href="#J"/><use transform="matrix(0.06172839506172839,0,0,0.06172839506172839,90.67901234567901,0)" xlink:href="#V"/><use transform="matrix(0.06172839506172839,0,0,0.06172839506172839,101.72839506172839,0)" xlink:href="#T"/><use transform="matrix(0.06172839506172839,0,0,0.06172839506172839,114.07407407407408,0)" xlink:href="#W"/><use transform="matrix(0.06172839506172839,0,0,0.06172839506172839,125.18518518518519,0)" xlink:href="#G"/><use transform="matrix(0.06172839506172839,0,0,0.06172839506172839,136.2962962962963,0)" xlink:href="#S"/><use transform="matrix(0.06172839506172839,0,0,0.06172839506172839,151.11111111111111,0)" xlink:href="#N"/><use transform="matrix(0.06172839506172839,0,0,0.06172839506172839,162.22222222222223,0)" xlink:href="#X"/><use transform="matrix(0.06172839506172839,0,0,0.06172839506172839,174.5679012345679,0)" xlink:href="#M"/><use transform="matrix(0.06172839506172839,0,0,0.06172839506172839,186.91358024691357,0)" xlink:href="#U"/><use transform="matrix(0.06172839506172839,0,0,0.06172839506172839,199.25925925925924,0)" xlink:href="#O"/><use transform="matrix(0.06172839506172839,0,0,0.06172839506172839,211.6049382716049,0)" xlink:href="#I"/><use transform="matrix(0.06172839506172839,0,0,0.06172839506172839,216.48148148148144,0)" xlink:href="#M"/><use transform="matrix(0.06172839506172839,0,0,0.06172839506172839,228.8271604938271,0)" xlink:href="#U"/></g><g id="e"><use transform="matrix(0.06172839506172839,0,0,0.06172839506172839,0,0)" xlink:href="#D"/><use transform="matrix(0.06172839506172839,0,0,0.06172839506172839,20.493827160493826,0)" xlink:href="#E"/><use transform="matrix(0.06172839506172839,0,0,0.06172839506172839,32.839506172839506,0)" xlink:href="#F"/><use transform="matrix(0.06172839506172839,0,0,0.06172839506172839,40.18518518518518,0)" xlink:href="#G"/><use transform="matrix(0.06172839506172839,0,0,0.06172839506172839,51.29629629629629,0)" xlink:href="#H"/><use transform="matrix(0.06172839506172839,0,0,0.06172839506172839,57.46913580246913,0)" xlink:href="#I"/><use transform="matrix(0.06172839506172839,0,0,0.06172839506172839,62.34567901234568,0)" xlink:href="#E"/><use transform="matrix(0.06172839506172839,0,0,0.06172839506172839,74.69135802469135,0)" xlink:href="#J"/><use transform="matrix(0.06172839506172839,0,0,0.06172839506172839,90.67901234567901,0)" xlink:href="#V"/><use transform="matrix(0.06172839506172839,0,0,0.06172839506172839,101.72839506172839,0)" xlink:href="#T"/><use transform="matrix(0.06172839506172839,0,0,0.06172839506172839,114.07407407407408,0)" xlink:href="#W"/><use transform="matrix(0.06172839506172839,0,0,0.06172839506172839,125.18518518518519,0)" xlink:href="#G"/><use transform="matrix(0.06172839506172839,0,0,0.06172839506172839,136.2962962962963,0)" xlink:href="#S"/><use transform="matrix(0.06172839506172839,0,0,0.06172839506172839,151.11111111111111,0)" xlink:href="#P"/><use transform="matrix(0.06172839506172839,0,0,0.06172839506172839,157.28395061728395,0)" xlink:href="#T"/><use transform="matrix(0.06172839506172839,0,0,0.06172839506172839,169.62962962962962,0)" xlink:href="#F"/><use transform="matrix(0.06172839506172839,0,0,0.06172839506172839,176.9753086419753,0)" xlink:href="#P"/><use transform="matrix(0.06172839506172839,0,0,0.06172839506172839,183.14814814814812,0)" xlink:href="#M"/><use transform="matrix(0.06172839506172839,0,0,0.06172839506172839,195.4938271604938,0)" xlink:href="#U"/></g><path fill="#333" d="M212-179c-10-28-35-45-73-45-59 0-87 40-87 99 0 60 29 101 89 101 43 0 62-24 78-52l27 14C228-24 195 4 139 4 59 4 22-46 18-125c-6-104 99-153 187-111 19 9 31 26 39 46" id="Y"/><path fill="#333" d="M210-169c-67 3-38 105-44 169h-31v-121c0-29-5-50-35-48C34-165 62-65 56 0H25l-1-190h30c1 10-1 24 2 32 10-44 99-50 107 0 11-21 27-35 58-36 85-2 47 119 55 194h-31v-121c0-29-5-49-35-48" id="Z"/><path fill="#333" d="M115-194c55 1 70 41 70 98S169 2 115 4C84 4 66-9 55-30l1 105H24l-1-265h31l2 30c10-21 28-34 59-34zm-8 174c40 0 45-34 45-75s-6-73-45-74c-42 0-51 32-51 76 0 43 10 73 51 73" id="aa"/><g id="f"><use transform="matrix(0.06172839506172839,0,0,0.06172839506172839,0,0)" xlink:href="#D"/><use transform="matrix(0.06172839506172839,0,0,0.06172839506172839,20.493827160493826,0)" xlink:href="#E"/><use transform="matrix(0.06172839506172839,0,0,0.06172839506172839,32.839506172839506,0)" xlink:href="#F"/><use transform="matrix(0.06172839506172839,0,0,0.06172839506172839,40.18518518518518,0)" xlink:href="#G"/><use transform="matrix(0.06172839506172839,0,0,0.06172839506172839,51.29629629629629,0)" xlink:href="#H"/><use transform="matrix(0.06172839506172839,0,0,0.06172839506172839,57.46913580246913,0)" xlink:href="#I"/><use transform="matrix(0.06172839506172839,0,0,0.06172839506172839,62.34567901234568,0)" xlink:href="#E"/><use transform="matrix(0.06172839506172839,0,0,0.06172839506172839,74.69135802469135,0)" xlink:href="#J"/><use transform="matrix(0.06172839506172839,0,0,0.06172839506172839,90.67901234567901,0)" xlink:href="#V"/><use transform="matrix(0.06172839506172839,0,0,0.06172839506172839,101.72839506172839,0)" xlink:href="#T"/><use transform="matrix(0.06172839506172839,0,0,0.06172839506172839,114.07407407407408,0)" xlink:href="#W"/><use transform="matrix(0.06172839506172839,0,0,0.06172839506172839,125.18518518518519,0)" xlink:href="#G"/><use transform="matrix(0.06172839506172839,0,0,0.06172839506172839,136.2962962962963,0)" xlink:href="#Y"/><use transform="matrix(0.06172839506172839,0,0,0.06172839506172839,152.28395061728395,0)" xlink:href="#E"/><use transform="matrix(0.06172839506172839,0,0,0.06172839506172839,164.62962962962962,0)" xlink:href="#Z"/><use transform="matrix(0.06172839506172839,0,0,0.06172839506172839,183.0864197530864,0)" xlink:href="#aa"/><use transform="matrix(0.06172839506172839,0,0,0.06172839506172839,195.43209876543207,0)" xlink:href="#I"/><use transform="matrix(0.06172839506172839,0,0,0.06172839506172839,200.3086419753086,0)" xlink:href="#M"/><use transform="matrix(0.06172839506172839,0,0,0.06172839506172839,212.65432098765427,0)" xlink:href="#P"/><use transform="matrix(0.06172839506172839,0,0,0.06172839506172839,218.8271604938271,0)" xlink:href="#M"/><use transform="matrix(0.06172839506172839,0,0,0.06172839506172839,231.17283950617278,0)" xlink:href="#U"/></g><g id="g"><use transform="matrix(0.06172839506172839,0,0,0.06172839506172839,0,0)" xlink:href="#D"/><use transform="matrix(0.06172839506172839,0,0,0.06172839506172839,20.493827160493826,0)" xlink:href="#E"/><use transform="matrix(0.06172839506172839,0,0,0.06172839506172839,32.839506172839506,0)" xlink:href="#F"/><use transform="matrix(0.06172839506172839,0,0,0.06172839506172839,40.18518518518518,0)" xlink:href="#G"/><use transform="matrix(0.06172839506172839,0,0,0.06172839506172839,51.29629629629629,0)" xlink:href="#H"/><use transform="matrix(0.06172839506172839,0,0,0.06172839506172839,57.46913580246913,0)" xlink:href="#I"/><use transform="matrix(0.06172839506172839,0,0,0.06172839506172839,62.34567901234568,0)" xlink:href="#E"/><use transform="matrix(0.06172839506172839,0,0,0.06172839506172839,74.69135802469135,0)" xlink:href="#J"/><use transform="matrix(0.06172839506172839,0,0,0.06172839506172839,90.67901234567901,0)" xlink:href="#K"/><use transform="matrix(0.06172839506172839,0,0,0.06172839506172839,105.49382716049382,0)" xlink:href="#L"/><use transform="matrix(0.06172839506172839,0,0,0.06172839506172839,116.60493827160494,0)" xlink:href="#M"/><use transform="matrix(0.06172839506172839,0,0,0.06172839506172839,128.9506172839506,0)" xlink:href="#N"/><use transform="matrix(0.06172839506172839,0,0,0.06172839506172839,140.06172839506172,0)" xlink:href="#O"/><use transform="matrix(0.06172839506172839,0,0,0.06172839506172839,152.4074074074074,0)" xlink:href="#P"/><use transform="matrix(0.06172839506172839,0,0,0.06172839506172839,158.58024691358023,0)" xlink:href="#Q"/><use transform="matrix(0.06172839506172839,0,0,0.06172839506172839,163.45679012345676,0)" xlink:href="#E"/><use transform="matrix(0.06172839506172839,0,0,0.06172839506172839,175.80246913580243,0)" xlink:href="#R"/><use transform="matrix(0.06172839506172839,0,0,0.06172839506172839,188.1481481481481,0)" xlink:href="#Y"/><use transform="matrix(0.06172839506172839,0,0,0.06172839506172839,204.13580246913574,0)" xlink:href="#E"/><use transform="matrix(0.06172839506172839,0,0,0.06172839506172839,216.4814814814814,0)" xlink:href="#Z"/><use transform="matrix(0.06172839506172839,0,0,0.06172839506172839,234.9382716049382,0)" xlink:href="#aa"/><use transform="matrix(0.06172839506172839,0,0,0.06172839506172839,247.28395061728386,0)" xlink:href="#I"/><use transform="matrix(0.06172839506172839,0,0,0.06172839506172839,252.1604938271604,0)" xlink:href="#M"/><use transform="matrix(0.06172839506172839,0,0,0.06172839506172839,264.50617283950606,0)" xlink:href="#P"/><use transform="matrix(0.06172839506172839,0,0,0.06172839506172839,270.6790123456789,0)" xlink:href="#M"/><use transform="matrix(0.06172839506172839,0,0,0.06172839506172839,283.0246913580246,0)" xlink:href="#U"/></g><path fill="#333" d="M205 0l-28-72H64L36 0H1l101-248h38L239 0h-34zm-38-99l-47-123c-12 45-31 82-46 123h93" id="ab"/><path fill="#333" d="M108 0H70L1-190h34L89-25l56-165h34" id="ac"/><path fill="#333" d="M179-190L93 31C79 59 56 82 12 73V49c39 6 53-20 64-50L1-190h34L92-34l54-156h33" id="ad"/><g id="h"><use transform="matrix(0.06172839506172839,0,0,0.06172839506172839,0,0)" xlink:href="#ab"/><use transform="matrix(0.06172839506172839,0,0,0.06172839506172839,14.814814814814813,0)" xlink:href="#N"/><use transform="matrix(0.06172839506172839,0,0,0.06172839506172839,25.925925925925924,0)" xlink:href="#Q"/><use transform="matrix(0.06172839506172839,0,0,0.06172839506172839,30.80246913580247,0)" xlink:href="#ac"/><use transform="matrix(0.06172839506172839,0,0,0.06172839506172839,41.91358024691358,0)" xlink:href="#Q"/><use transform="matrix(0.06172839506172839,0,0,0.06172839506172839,46.79012345679013,0)" xlink:href="#P"/><use transform="matrix(0.06172839506172839,0,0,0.06172839506172839,52.96296296296297,0)" xlink:href="#ad"/></g><g id="i"><use transform="matrix(0.06172839506172839,0,0,0.06172839506172839,0,0)" xlink:href="#V"/><use transform="matrix(0.06172839506172839,0,0,0.06172839506172839,11.049382716049381,0)" xlink:href="#T"/><use transform="matrix(0.06172839506172839,0,0,0.06172839506172839,23.39506172839506,0)" xlink:href="#W"/><use transform="matrix(0.06172839506172839,0,0,0.06172839506172839,34.50617283950617,0)" xlink:href="#G"/></g><path fill="#333" d="M16-82v-28h88v28H16" id="ae"/><g id="j"><use transform="matrix(0.06172839506172839,0,0,0.06172839506172839,0,0)" xlink:href="#S"/><use transform="matrix(0.06172839506172839,0,0,0.06172839506172839,14.814814814814813,0)" xlink:href="#N"/><use transform="matrix(0.06172839506172839,0,0,0.06172839506172839,25.925925925925924,0)" xlink:href="#X"/><use transform="matrix(0.06172839506172839,0,0,0.06172839506172839,38.2716049382716,0)" xlink:href="#M"/><use transform="matrix(0.06172839506172839,0,0,0.06172839506172839,50.61728395061728,0)" xlink:href="#U"/><use transform="matrix(0.06172839506172839,0,0,0.06172839506172839,62.962962962962955,0)" xlink:href="#O"/><use transform="matrix(0.06172839506172839,0,0,0.06172839506172839,75.30864197530863,0)" xlink:href="#I"/><use transform="matrix(0.06172839506172839,0,0,0.06172839506172839,80.18518518518518,0)" xlink:href="#M"/><use transform="matrix(0.06172839506172839,0,0,0.06172839506172839,92.53086419753086,0)" xlink:href="#ae"/><use transform="matrix(0.06172839506172839,0,0,0.06172839506172839,99.87654320987654,0)" xlink:href="#V"/><use transform="matrix(0.06172839506172839,0,0,0.06172839506172839,110.92592592592592,0)" xlink:href="#E"/><use transform="matrix(0.06172839506172839,0,0,0.06172839506172839,123.27160493827161,0)" xlink:href="#ae"/><use transform="matrix(0.06172839506172839,0,0,0.06172839506172839,130.6172839506173,0)" xlink:href="#S"/><use transform="matrix(0.06172839506172839,0,0,0.06172839506172839,145.4320987654321,0)" xlink:href="#P"/><use transform="matrix(0.06172839506172839,0,0,0.06172839506172839,151.60493827160494,0)" xlink:href="#T"/><use transform="matrix(0.06172839506172839,0,0,0.06172839506172839,163.9506172839506,0)" xlink:href="#F"/><use transform="matrix(0.06172839506172839,0,0,0.06172839506172839,171.29629629629628,0)" xlink:href="#P"/></g><g id="k"><use transform="matrix(0.06172839506172839,0,0,0.06172839506172839,0,0)" xlink:href="#V"/><use transform="matrix(0.06172839506172839,0,0,0.06172839506172839,12.716049382716047,0)" xlink:href="#Q"/><use transform="matrix(0.06172839506172839,0,0,0.06172839506172839,17.592592592592588,0)" xlink:href="#Z"/><use transform="matrix(0.06172839506172839,0,0,0.06172839506172839,36.04938271604938,0)" xlink:href="#M"/><use transform="matrix(0.06172839506172839,0,0,0.06172839506172839,48.395061728395056,0)" xlink:href="#E"/><use transform="matrix(0.06172839506172839,0,0,0.06172839506172839,60.74074074074073,0)" xlink:href="#O"/><use transform="matrix(0.06172839506172839,0,0,0.06172839506172839,73.08641975308642,0)" xlink:href="#P"/></g><g id="l"><use transform="matrix(0.06172839506172839,0,0,0.06172839506172839,0,0)" xlink:href="#aa"/><use transform="matrix(0.06172839506172839,0,0,0.06172839506172839,12.345679012345679,0)" xlink:href="#M"/><use transform="matrix(0.06172839506172839,0,0,0.06172839506172839,24.691358024691358,0)" xlink:href="#F"/><use transform="matrix(0.06172839506172839,0,0,0.06172839506172839,32.03703703703704,0)" xlink:href="#Q"/><use transform="matrix(0.06172839506172839,0,0,0.06172839506172839,36.91358024691358,0)" xlink:href="#E"/><use transform="matrix(0.06172839506172839,0,0,0.06172839506172839,49.25925925925926,0)" xlink:href="#U"/></g><g id="m"><use transform="matrix(0.06172839506172839,0,0,0.06172839506172839,0,0)" xlink:href="#K"/><use transform="matrix(0.06172839506172839,0,0,0.06172839506172839,14.814814814814813,0)" xlink:href="#L"/><use transform="matrix(0.06172839506172839,0,0,0.06172839506172839,25.925925925925924,0)" xlink:href="#M"/><use transform="matrix(0.06172839506172839,0,0,0.06172839506172839,38.2716049382716,0)" xlink:href="#N"/><use transform="matrix(0.06172839506172839,0,0,0.06172839506172839,49.38271604938271,0)" xlink:href="#O"/><use transform="matrix(0.06172839506172839,0,0,0.06172839506172839,61.728395061728385,0)" xlink:href="#P"/><use transform="matrix(0.06172839506172839,0,0,0.06172839506172839,67.90123456790123,0)" xlink:href="#Q"/><use transform="matrix(0.06172839506172839,0,0,0.06172839506172839,72.77777777777777,0)" xlink:href="#E"/><use transform="matrix(0.06172839506172839,0,0,0.06172839506172839,85.12345679012346,0)" xlink:href="#R"/></g><g id="n"><use transform="matrix(0.06172839506172839,0,0,0.06172839506172839,0,0)" xlink:href="#V"/><use transform="matrix(0.06172839506172839,0,0,0.06172839506172839,12.716049382716047,0)" xlink:href="#Q"/><use transform="matrix(0.06172839506172839,0,0,0.06172839506172839,17.592592592592588,0)" xlink:href="#Z"/><use transform="matrix(0.06172839506172839,0,0,0.06172839506172839,36.04938271604938,0)" xlink:href="#M"/><use transform="matrix(0.06172839506172839,0,0,0.06172839506172839,48.395061728395056,0)" xlink:href="#E"/><use transform="matrix(0.06172839506172839,0,0,0.06172839506172839,60.74074074074073,0)" xlink:href="#O"/><use transform="matrix(0.06172839506172839,0,0,0.06172839506172839,73.08641975308642,0)" xlink:href="#P"/></g><path fill="#333" d="M30-248c87 1 191-15 191 75 0 78-77 80-158 76V0H30v-248zm33 125c57 0 124 11 124-50 0-59-68-47-124-48v98" id="af"/><g id="o"><use transform="matrix(0.06172839506172839,0,0,0.06172839506172839,0,0)" xlink:href="#af"/><use transform="matrix(0.06172839506172839,0,0,0.06172839506172839,14.814814814814813,0)" xlink:href="#M"/><use transform="matrix(0.06172839506172839,0,0,0.06172839506172839,27.160493827160494,0)" xlink:href="#F"/><use transform="matrix(0.06172839506172839,0,0,0.06172839506172839,34.50617283950617,0)" xlink:href="#Q"/><use transform="matrix(0.06172839506172839,0,0,0.06172839506172839,39.382716049382715,0)" xlink:href="#E"/><use transform="matrix(0.06172839506172839,0,0,0.06172839506172839,51.72839506172839,0)" xlink:href="#U"/></g><path fill="#333" d="M234-2c-28 10-62 0-77-18C117 19 8 12 13-65c3-43 29-61 60-76-25-40-17-114 47-108 35 3 59 15 59 50 0 44-40 53-71 69 14 26 32 50 51 72 14-21 24-43 30-72l26 8c-9 33-21 57-38 82 13 13 33 22 57 15v23zM97-151c25-10 52-18 56-48-1-18-13-29-33-29-42 0-39 50-23 77zM42-66c-3 51 71 58 98 28-20-24-41-51-56-80-23 10-40 24-42 52" id="ag"/><use transform="matrix(0.06172839506172839,0,0,0.06172839506172839,0,0)" xlink:href="#ag" id="p"/><g id="q"><use transform="matrix(0.06172839506172839,0,0,0.06172839506172839,0,0)" xlink:href="#D"/><use transform="matrix(0.06172839506172839,0,0,0.06172839506172839,20.493827160493826,0)" xlink:href="#E"/><use transform="matrix(0.06172839506172839,0,0,0.06172839506172839,32.839506172839506,0)" xlink:href="#F"/><use transform="matrix(0.06172839506172839,0,0,0.06172839506172839,40.18518518518518,0)" xlink:href="#G"/><use transform="matrix(0.06172839506172839,0,0,0.06172839506172839,51.29629629629629,0)" xlink:href="#H"/><use transform="matrix(0.06172839506172839,0,0,0.06172839506172839,57.46913580246913,0)" xlink:href="#I"/><use transform="matrix(0.06172839506172839,0,0,0.06172839506172839,62.34567901234568,0)" xlink:href="#E"/><use transform="matrix(0.06172839506172839,0,0,0.06172839506172839,74.69135802469135,0)" xlink:href="#J"/></g><path fill="#333" d="M233-177c-1 41-23 64-60 70L243 0h-38l-65-103H63V0H30v-248c88 3 205-21 203 71zM63-129c60-2 137 13 137-47 0-61-80-42-137-45v92" id="ah"/><g id="r"><use transform="matrix(0.06172839506172839,0,0,0.06172839506172839,0,0)" xlink:href="#ah"/><use transform="matrix(0.06172839506172839,0,0,0.06172839506172839,15.987654320987653,0)" xlink:href="#O"/><use transform="matrix(0.06172839506172839,0,0,0.06172839506172839,28.333333333333332,0)" xlink:href="#R"/></g><g id="s"><use transform="matrix(0.06172839506172839,0,0,0.06172839506172839,0,0)" xlink:href="#V"/><use transform="matrix(0.06172839506172839,0,0,0.06172839506172839,12.716049382716047,0)" xlink:href="#Q"/><use transform="matrix(0.06172839506172839,0,0,0.06172839506172839,17.592592592592588,0)" xlink:href="#Z"/><use transform="matrix(0.06172839506172839,0,0,0.06172839506172839,36.04938271604938,0)" xlink:href="#M"/><use transform="matrix(0.06172839506172839,0,0,0.06172839506172839,48.395061728395056,0)" xlink:href="#E"/><use transform="matrix(0.06172839506172839,0,0,0.06172839506172839,60.74074074074073,0)" xlink:href="#O"/><use transform="matrix(0.06172839506172839,0,0,0.06172839506172839,73.08641975308642,0)" xlink:href="#P"/></g><g id="t"><use transform="matrix(0.06172839506172839,0,0,0.06172839506172839,0,0)" xlink:href="#aa"/><use transform="matrix(0.06172839506172839,0,0,0.06172839506172839,12.345679012345679,0)" xlink:href="#M"/><use transform="matrix(0.06172839506172839,0,0,0.06172839506172839,24.691358024691358,0)" xlink:href="#F"/><use transform="matrix(0.06172839506172839,0,0,0.06172839506172839,32.03703703703704,0)" xlink:href="#Q"/><use transform="matrix(0.06172839506172839,0,0,0.06172839506172839,36.91358024691358,0)" xlink:href="#E"/><use transform="matrix(0.06172839506172839,0,0,0.06172839506172839,49.25925925925926,0)" xlink:href="#U"/></g><g id="u"><use transform="matrix(0.06172839506172839,0,0,0.06172839506172839,0,0)" xlink:href="#ab"/><use transform="matrix(0.06172839506172839,0,0,0.06172839506172839,14.814814814814813,0)" xlink:href="#N"/><use transform="matrix(0.06172839506172839,0,0,0.06172839506172839,25.925925925925924,0)" xlink:href="#P"/><use transform="matrix(0.06172839506172839,0,0,0.06172839506172839,32.098765432098766,0)" xlink:href="#Q"/><use transform="matrix(0.06172839506172839,0,0,0.06172839506172839,36.97530864197531,0)" xlink:href="#ac"/><use transform="matrix(0.06172839506172839,0,0,0.06172839506172839,48.08641975308642,0)" xlink:href="#Q"/><use transform="matrix(0.06172839506172839,0,0,0.06172839506172839,52.96296296296296,0)" xlink:href="#P"/><use transform="matrix(0.06172839506172839,0,0,0.06172839506172839,59.135802469135804,0)" xlink:href="#ad"/><use transform="matrix(0.06172839506172839,0,0,0.06172839506172839,70.24691358024691,0)" xlink:href="#V"/><use transform="matrix(0.06172839506172839,0,0,0.06172839506172839,81.29629629629629,0)" xlink:href="#T"/><use transform="matrix(0.06172839506172839,0,0,0.06172839506172839,93.64197530864197,0)" xlink:href="#W"/><use transform="matrix(0.06172839506172839,0,0,0.06172839506172839,104.75308641975309,0)" xlink:href="#G"/><use transform="matrix(0.06172839506172839,0,0,0.06172839506172839,115.8641975308642,0)" xlink:href="#S"/><use transform="matrix(0.06172839506172839,0,0,0.06172839506172839,130.679012345679,0)" xlink:href="#N"/><use transform="matrix(0.06172839506172839,0,0,0.06172839506172839,141.79012345679013,0)" xlink:href="#X"/><use transform="matrix(0.06172839506172839,0,0,0.06172839506172839,154.1358024691358,0)" xlink:href="#M"/><use transform="matrix(0.06172839506172839,0,0,0.06172839506172839,166.48148148148147,0)" xlink:href="#U"/><use transform="matrix(0.06172839506172839,0,0,0.06172839506172839,178.82716049382714,0)" xlink:href="#O"/><use transform="matrix(0.06172839506172839,0,0,0.06172839506172839,191.1728395061728,0)" xlink:href="#I"/><use transform="matrix(0.06172839506172839,0,0,0.06172839506172839,196.04938271604934,0)" xlink:href="#M"/><use transform="matrix(0.06172839506172839,0,0,0.06172839506172839,208.395061728395,0)" xlink:href="#U"/></g><g id="v"><use transform="matrix(0.06172839506172839,0,0,0.06172839506172839,0,0)" xlink:href="#ab"/><use transform="matrix(0.06172839506172839,0,0,0.06172839506172839,14.814814814814813,0)" xlink:href="#N"/><use transform="matrix(0.06172839506172839,0,0,0.06172839506172839,25.925925925925924,0)" xlink:href="#P"/><use transform="matrix(0.06172839506172839,0,0,0.06172839506172839,32.098765432098766,0)" xlink:href="#Q"/><use transform="matrix(0.06172839506172839,0,0,0.06172839506172839,36.97530864197531,0)" xlink:href="#ac"/><use transform="matrix(0.06172839506172839,0,0,0.06172839506172839,48.08641975308642,0)" xlink:href="#Q"/><use transform="matrix(0.06172839506172839,0,0,0.06172839506172839,52.96296296296296,0)" xlink:href="#P"/><use transform="matrix(0.06172839506172839,0,0,0.06172839506172839,59.135802469135804,0)" xlink:href="#ad"/><use transform="matrix(0.06172839506172839,0,0,0.06172839506172839,70.24691358024691,0)" xlink:href="#V"/><use transform="matrix(0.06172839506172839,0,0,0.06172839506172839,81.29629629629629,0)" xlink:href="#T"/><use transform="matrix(0.06172839506172839,0,0,0.06172839506172839,93.64197530864197,0)" xlink:href="#W"/><use transform="matrix(0.06172839506172839,0,0,0.06172839506172839,104.75308641975309,0)" xlink:href="#G"/><use transform="matrix(0.06172839506172839,0,0,0.06172839506172839,115.8641975308642,0)" xlink:href="#S"/><use transform="matrix(0.06172839506172839,0,0,0.06172839506172839,130.679012345679,0)" xlink:href="#P"/><use transform="matrix(0.06172839506172839,0,0,0.06172839506172839,136.85185185185185,0)" xlink:href="#T"/><use transform="matrix(0.06172839506172839,0,0,0.06172839506172839,149.19753086419752,0)" xlink:href="#F"/><use transform="matrix(0.06172839506172839,0,0,0.06172839506172839,156.5432098765432,0)" xlink:href="#P"/><use transform="matrix(0.06172839506172839,0,0,0.06172839506172839,162.71604938271602,0)" xlink:href="#M"/><use transform="matrix(0.06172839506172839,0,0,0.06172839506172839,175.0617283950617,0)" xlink:href="#U"/></g><g id="w"><use transform="matrix(0.06172839506172839,0,0,0.06172839506172839,0,0)" xlink:href="#ab"/><use transform="matrix(0.06172839506172839,0,0,0.06172839506172839,14.814814814814813,0)" xlink:href="#N"/><use transform="matrix(0.06172839506172839,0,0,0.06172839506172839,25.925925925925924,0)" xlink:href="#P"/><use transform="matrix(0.06172839506172839,0,0,0.06172839506172839,32.098765432098766,0)" xlink:href="#Q"/><use transform="matrix(0.06172839506172839,0,0,0.06172839506172839,36.97530864197531,0)" xlink:href="#ac"/><use transform="matrix(0.06172839506172839,0,0,0.06172839506172839,48.08641975308642,0)" xlink:href="#Q"/><use transform="matrix(0.06172839506172839,0,0,0.06172839506172839,52.96296296296296,0)" xlink:href="#P"/><use transform="matrix(0.06172839506172839,0,0,0.06172839506172839,59.135802469135804,0)" xlink:href="#ad"/><use transform="matrix(0.06172839506172839,0,0,0.06172839506172839,70.24691358024691,0)" xlink:href="#V"/><use transform="matrix(0.06172839506172839,0,0,0.06172839506172839,81.29629629629629,0)" xlink:href="#T"/><use transform="matrix(0.06172839506172839,0,0,0.06172839506172839,93.64197530864197,0)" xlink:href="#W"/><use transform="matrix(0.06172839506172839,0,0,0.06172839506172839,104.75308641975309,0)" xlink:href="#G"/><use transform="matrix(0.06172839506172839,0,0,0.06172839506172839,115.8641975308642,0)" xlink:href="#Y"/><use transform="matrix(0.06172839506172839,0,0,0.06172839506172839,131.85185185185185,0)" xlink:href="#E"/><use transform="matrix(0.06172839506172839,0,0,0.06172839506172839,144.19753086419752,0)" xlink:href="#Z"/><use transform="matrix(0.06172839506172839,0,0,0.06172839506172839,162.6543209876543,0)" xlink:href="#aa"/><use transform="matrix(0.06172839506172839,0,0,0.06172839506172839,174.99999999999997,0)" xlink:href="#I"/><use transform="matrix(0.06172839506172839,0,0,0.06172839506172839,179.8765432098765,0)" xlink:href="#M"/><use transform="matrix(0.06172839506172839,0,0,0.06172839506172839,192.22222222222217,0)" xlink:href="#P"/><use transform="matrix(0.06172839506172839,0,0,0.06172839506172839,198.395061728395,0)" xlink:href="#M"/><use transform="matrix(0.06172839506172839,0,0,0.06172839506172839,210.74074074074068,0)" xlink:href="#U"/></g><path fill="#333" d="M197 0v-115H63V0H30v-248h33v105h134v-105h34V0h-34" id="ai"/><path fill="#333" d="M115-194c53 0 69 39 70 98 0 66-23 100-70 100C84 3 66-7 56-30L54 0H23l1-261h32v101c10-23 28-34 59-34zm-8 174c40 0 45-34 45-75 0-40-5-75-45-74-42 0-51 32-51 76 0 43 10 73 51 73" id="aj"/><g id="x"><use transform="matrix(0.06172839506172839,0,0,0.06172839506172839,0,0)" xlink:href="#ai"/><use transform="matrix(0.06172839506172839,0,0,0.06172839506172839,15.987654320987653,0)" xlink:href="#M"/><use transform="matrix(0.06172839506172839,0,0,0.06172839506172839,28.333333333333332,0)" xlink:href="#T"/><use transform="matrix(0.06172839506172839,0,0,0.06172839506172839,40.67901234567901,0)" xlink:href="#F"/><use transform="matrix(0.06172839506172839,0,0,0.06172839506172839,48.02469135802469,0)" xlink:href="#P"/><use transform="matrix(0.06172839506172839,0,0,0.06172839506172839,54.19753086419753,0)" xlink:href="#aj"/><use transform="matrix(0.06172839506172839,0,0,0.06172839506172839,66.54320987654322,0)" xlink:href="#M"/><use transform="matrix(0.06172839506172839,0,0,0.06172839506172839,78.8888888888889,0)" xlink:href="#T"/><use transform="matrix(0.06172839506172839,0,0,0.06172839506172839,91.23456790123458,0)" xlink:href="#P"/></g><g id="y"><use transform="matrix(0.06172839506172839,0,0,0.06172839506172839,0,0)" xlink:href="#ai"/><use transform="matrix(0.06172839506172839,0,0,0.06172839506172839,15.987654320987653,0)" xlink:href="#M"/><use transform="matrix(0.06172839506172839,0,0,0.06172839506172839,28.333333333333332,0)" xlink:href="#T"/><use transform="matrix(0.06172839506172839,0,0,0.06172839506172839,40.67901234567901,0)" xlink:href="#F"/><use transform="matrix(0.06172839506172839,0,0,0.06172839506172839,48.02469135802469,0)" xlink:href="#P"/><use transform="matrix(0.06172839506172839,0,0,0.06172839506172839,54.19753086419753,0)" xlink:href="#aj"/><use transform="matrix(0.06172839506172839,0,0,0.06172839506172839,66.54320987654322,0)" xlink:href="#M"/><use transform="matrix(0.06172839506172839,0,0,0.06172839506172839,78.8888888888889,0)" xlink:href="#T"/><use transform="matrix(0.06172839506172839,0,0,0.06172839506172839,91.23456790123458,0)" xlink:href="#P"/></g><g id="z"><use transform="matrix(0.06172839506172839,0,0,0.06172839506172839,0,0)" xlink:href="#V"/><use transform="matrix(0.06172839506172839,0,0,0.06172839506172839,11.049382716049381,0)" xlink:href="#T"/><use transform="matrix(0.06172839506172839,0,0,0.06172839506172839,23.39506172839506,0)" xlink:href="#W"/><use transform="matrix(0.06172839506172839,0,0,0.06172839506172839,34.50617283950617,0)" xlink:href="#G"/></g><g id="A"><use transform="matrix(0.06172839506172839,0,0,0.06172839506172839,0,0)" xlink:href="#aa"/><use transform="matrix(0.06172839506172839,0,0,0.06172839506172839,12.345679012345679,0)" xlink:href="#M"/><use transform="matrix(0.06172839506172839,0,0,0.06172839506172839,24.691358024691358,0)" xlink:href="#F"/><use transform="matrix(0.06172839506172839,0,0,0.06172839506172839,32.03703703703704,0)" xlink:href="#Q"/><use transform="matrix(0.06172839506172839,0,0,0.06172839506172839,36.91358024691358,0)" xlink:href="#E"/><use transform="matrix(0.06172839506172839,0,0,0.06172839506172839,49.25925925925926,0)" xlink:href="#U"/></g><g id="B"><use transform="matrix(0.06172839506172839,0,0,0.06172839506172839,0,0)" xlink:href="#S"/><use transform="matrix(0.06172839506172839,0,0,0.06172839506172839,14.814814814814813,0)" xlink:href="#P"/><use transform="matrix(0.06172839506172839,0,0,0.06172839506172839,20.98765432098765,0)" xlink:href="#T"/><use transform="matrix(0.06172839506172839,0,0,0.06172839506172839,33.33333333333333,0)" xlink:href="#F"/><use transform="matrix(0.06172839506172839,0,0,0.06172839506172839,40.679012345679006,0)" xlink:href="#P"/><use transform="matrix(0.06172839506172839,0,0,0.06172839506172839,46.85185185185185,0)" xlink:href="#ae"/><use transform="matrix(0.06172839506172839,0,0,0.06172839506172839,54.197530864197525,0)" xlink:href="#V"/><use transform="matrix(0.06172839506172839,0,0,0.06172839506172839,65.24691358024691,0)" xlink:href="#E"/><use transform="matrix(0.06172839506172839,0,0,0.06172839506172839,77.5925925925926,0)" xlink:href="#ae"/><use transform="matrix(0.06172839506172839,0,0,0.06172839506172839,84.93827160493828,0)" xlink:href="#Y"/><use transform="matrix(0.06172839506172839,0,0,0.06172839506172839,100.92592592592594,0)" xlink:href="#I"/><use transform="matrix(0.06172839506172839,0,0,0.06172839506172839,105.80246913580248,0)" xlink:href="#E"/><use transform="matrix(0.06172839506172839,0,0,0.06172839506172839,118.14814814814817,0)" xlink:href="#W"/><use transform="matrix(0.06172839506172839,0,0,0.06172839506172839,129.25925925925927,0)" xlink:href="#M"/></g><g id="C"><use transform="matrix(0.06172839506172839,0,0,0.06172839506172839,0,0)" xlink:href="#S"/><use transform="matrix(0.06172839506172839,0,0,0.06172839506172839,14.814814814814813,0)" xlink:href="#N"/><use transform="matrix(0.06172839506172839,0,0,0.06172839506172839,25.925925925925924,0)" xlink:href="#X"/><use transform="matrix(0.06172839506172839,0,0,0.06172839506172839,38.2716049382716,0)" xlink:href="#M"/><use transform="matrix(0.06172839506172839,0,0,0.06172839506172839,50.61728395061728,0)" xlink:href="#U"/><use transform="matrix(0.06172839506172839,0,0,0.06172839506172839,62.962962962962955,0)" xlink:href="#O"/><use transform="matrix(0.06172839506172839,0,0,0.06172839506172839,75.30864197530863,0)" xlink:href="#I"/><use transform="matrix(0.06172839506172839,0,0,0.06172839506172839,80.18518518518518,0)" xlink:href="#M"/><use transform="matrix(0.06172839506172839,0,0,0.06172839506172839,92.53086419753086,0)" xlink:href="#ae"/><use transform="matrix(0.06172839506172839,0,0,0.06172839506172839,99.87654320987654,0)" xlink:href="#V"/><use transform="matrix(0.06172839506172839,0,0,0.06172839506172839,110.92592592592592,0)" xlink:href="#E"/><use transform="matrix(0.06172839506172839,0,0,0.06172839506172839,123.27160493827161,0)" xlink:href="#ae"/><use transform="matrix(0.06172839506172839,0,0,0.06172839506172839,130.6172839506173,0)" xlink:href="#Y"/><use transform="matrix(0.06172839506172839,0,0,0.06172839506172839,146.60493827160494,0)" xlink:href="#I"/><use transform="matrix(0.06172839506172839,0,0,0.06172839506172839,151.48148148148147,0)" xlink:href="#E"/><use transform="matrix(0.06172839506172839,0,0,0.06172839506172839,163.82716049382714,0)" xlink:href="#W"/><use transform="matrix(0.06172839506172839,0,0,0.06172839506172839,174.93827160493825,0)" xlink:href="#M"/></g></defs></g></svg>
