<svg xmlns="http://www.w3.org/2000/svg" xmlns:xlink="http://www.w3.org/1999/xlink" xmlns:lucid="lucid" width="1880" height="1886"><g transform="translate(60 -20)" lucid:page-tab-id="0_0"><path d="M-1806.87 0h3677.74v2581.67h-3677.74z" fill="#fff"/><path d="M1000 140.4v2m0 4v4m0 4v4m0 4v4m0 4v4m0 4v4m0 3.98v4m0 4v4m0 4v4m0 4v4m0 4v4m0 3.98v4m0 4v4m0 4v4m0 4v4m0 4v4m0 3.98v4m0 4v4m0 4v4m0 4v4m0 4v4m0 3.98v4m0 4v4m0 4v4m0 4v4m0 4v3.98m0 4v4m0 4v4m0 4v4m0 4v4m0 4v3.98m0 4v4m0 4v4m0 4v4m0 4v4m0 4v3.98m0 4v4m0 4v4m0 4v4m0 4v4m0 3.98v4m0 4v4m0 4v4m0 4v4m0 4v4m0 3.98v4m0 4v4m0 4v4m0 4v4m0 4v4m0 3.98v4m0 4v4m0 4v4m0 4v4m0 4v3.98m0 4v4m0 4v4m0 4v4m0 4v4m0 4v3.98m0 4v4m0 4v4m0 4v4m0 4v4m0 4v3.98m0 4v4m0 4v4m0 4v4m0 4v4m0 3.98v4m0 4v4m0 4v4m0 4v4m0 4v4m0 3.98v4m0 4v4m0 4v4m0 4v4m0 4v4m0 3.98v4m0 4v4m0 4v4m0 4v4m0 4v3.98m0 4v4m0 4v4m0 4v4m0 4v4m0 4v3.98m0 4v4m0 4v4m0 4v4m0 4v4m0 4V886m0 4v4m0 4v4m0 4v4m0 4v4m0 3.98v4m0 4v4m0 4v4m0 4v4m0 4v4m0 3.98v4m0 4v4m0 4v4m0 4v4m0 4v4m0 3.98v4m0 4v4m0 4v4m0 4v4m0 4v4m0 3.98v4m0 4v4m0 4v4m0 4v4m0 4v3.98m0 4v4m0 4v4m0 4v4m0 4v4m0 4v3.98m0 4v4m0 4v4m0 4v4m0 4v4m0 4v3.98m0 4v4m0 4v4m0 4v4m0 4v4m0 3.98v4m0 4v4m0 4v4m0 4v4m0 4v4m0 3.98v4m0 4v4m0 4v4m0 4v4m0 4v4m0 3.98v4m0 4v4m0 4v4m0 4v4m0 4v3.98m0 4v4m0 4v4m0 4v4m0 4v4m0 4v3.98m0 4v4m0 4v4m0 4v4m0 4v4m0 4v3.98m0 4v4m0 4v4m0 4v4m0 4v4m0 3.98v4m0 4v4m0 4v4m0 4v4m0 4v4m0 3.98v4m0 4v4m0 4v4m0 4v4m0 4v4m0 3.98v4m0 4v4m0 4v4m0 4v4m0 4v3.98m0 4v4m0 4v4m0 4v4m0 4v4m0 4v3.98m0 4v4m0 4v4m0 4v4m0 4v4m0 4v3.98m0 4v4m0 4v4m0 4v4m0 4v4m0 3.98v4m0 4v4m0 4v4m0 4v4m0 4v4m0 3.98v4m0 4v4m0 4v4m0 4v4m0 4v4m0 3.98v4m0 4v4m0 4v4m0 4v4m0 4v4m0 3.98v4m0 4v4m0 4v4m0 4v4m0 4v3.98m0 4v4m0 4v4m0 4v4m0 4v4m0 4v3.98m0 4v4m0 4v4m0 4v4m0 4v4m0 4v3.98m0 4v2" stroke="#b2b2b2" fill="none"/><path d="M1000.5 140.42h-1v-.5h1" fill="#b2b2b2"/><path d="M1000 1899.5v.5M700 140.4v2m0 4v4m0 4v4m0 4v4m0 4v4m0 4v4m0 3.98v4m0 4v4m0 4v4m0 4v4m0 4v4m0 3.98v4m0 4v4m0 4v4m0 4v4m0 4v4m0 3.98v4m0 4v4m0 4v4m0 4v4m0 4v4m0 3.98v4m0 4v4m0 4v4m0 4v4m0 4v3.98m0 4v4m0 4v4m0 4v4m0 4v4m0 4v3.98m0 4v4m0 4v4m0 4v4m0 4v4m0 4v3.98m0 4v4m0 4v4m0 4v4m0 4v4m0 3.98v4m0 4v4m0 4v4m0 4v4m0 4v4m0 3.98v4m0 4v4m0 4v4m0 4v4m0 4v4m0 3.98v4m0 4v4m0 4v4m0 4v4m0 4v3.98m0 4v4m0 4v4m0 4v4m0 4v4m0 4v3.98m0 4v4m0 4v4m0 4v4m0 4v4m0 4v3.98m0 4v4m0 4v4m0 4v4m0 4v4m0 3.98v4m0 4v4m0 4v4m0 4v4m0 4v4m0 3.98v4m0 4v4m0 4v4m0 4v4m0 4v4m0 3.98v4m0 4v4m0 4v4m0 4v4m0 4v3.98m0 4v4m0 4v4m0 4v4m0 4v4m0 4v3.98m0 4v4m0 4v4m0 4v4m0 4v4m0 4V886m0 4v4m0 4v4m0 4v4m0 4v4m0 3.98v4m0 4v4m0 4v4m0 4v4m0 4v4m0 3.98v4m0 4v4m0 4v4m0 4v4m0 4v4m0 3.98v4m0 4v4m0 4v4m0 4v4m0 4v4m0 3.98v4m0 4v4m0 4v4m0 4v4m0 4v3.98m0 4v4m0 4v4m0 4v4m0 4v4m0 4v3.98m0 4v4m0 4v4m0 4v4m0 4v4m0 4v3.98m0 4v4m0 4v4m0 4v4m0 4v4m0 3.98v4m0 4v4m0 4v4m0 4v4m0 4v4m0 3.98v4m0 4v4m0 4v4m0 4v4m0 4v4m0 3.98v4m0 4v4m0 4v4m0 4v4m0 4v3.98m0 4v4m0 4v4m0 4v4m0 4v4m0 4v3.98m0 4v4m0 4v4m0 4v4m0 4v4m0 4v3.98m0 4v4m0 4v4m0 4v4m0 4v4m0 3.98v4m0 4v4m0 4v4m0 4v4m0 4v4m0 3.98v4m0 4v4m0 4v4m0 4v4m0 4v4m0 3.98v4m0 4v4m0 4v4m0 4v4m0 4v3.98m0 4v4m0 4v4m0 4v4m0 4v4m0 4v3.98m0 4v4m0 4v4m0 4v4m0 4v4m0 4v3.98m0 4v4m0 4v4m0 4v4m0 4v4m0 3.98v4m0 4v4m0 4v4m0 4v4m0 4v4m0 3.98v4m0 4v4m0 4v4m0 4v4m0 4v4m0 3.98v4m0 4v4m0 4v4m0 4v4m0 4v4m0 3.98v4m0 4v4m0 4v4m0 4v4m0 4v3.98m0 4v4m0 4v4m0 4v4m0 4v4m0 4v3.98m0 4v4m0 4v4m0 4v4m0 4v4m0 4v3.98m0 4v2" stroke="#b2b2b2" fill="none"/><path d="M700.5 140.42h-1v-.5h1" fill="#b2b2b2"/><path d="M700 1899.5v.5" stroke="#b2b2b2" fill="none"/><path d="M580 55a15 15 0 0 1 15-15h210a15 15 0 0 1 15 15v70a15 15 0 0 1-15 15H595a15 15 0 0 1-15-15z" fill="none"/><use xlink:href="#a" transform="translate(602.84 82.465)"/><use xlink:href="#b" transform="translate(699.691 82.465)"/><use xlink:href="#c" transform="translate(670.401 109.132)"/><use xlink:href="#d" transform="translate(717.253 109.132)"/><path d="M720 200c0 11.05-8.95 20-20 20s-20-8.95-20-20 8.95-20 20-20 20 8.95 20 20zm0 200c0 11.05-8.95 20-20 20s-20-8.95-20-20 8.95-20 20-20 20 8.95 20 20zm0 200c0 11.05-8.95 20-20 20s-20-8.95-20-20 8.95-20 20-20 20 8.95 20 20zm0 200c0 11.05-8.95 20-20 20s-20-8.95-20-20 8.95-20 20-20 20 8.95 20 20z" stroke="#333" fill="#fff"/><path d="M340 175.43a6 6 0 0 1 6-6h288a6 6 0 0 1 6 6v49.14a6 6 0 0 1-6 6H346a6 6 0 0 1-6-6z" fill="none"/><use xlink:href="#e" transform="translate(360.154 205.209)"/><path d="M640.46 200H679" stroke="#333" fill="none"/><path d="M640.48 200.5h-.52v-1h.52m39.02.48.02.52H679v-1h.56" fill="#333"/><path d="M340 375.43a6 6 0 0 1 6-6h288a6 6 0 0 1 6 6v49.14a6 6 0 0 1-6 6H346a6 6 0 0 1-6-6z" fill="none"/><use xlink:href="#f" transform="translate(369.414 405.209)"/><path d="M640.46 400H679" stroke="#333" fill="none"/><path d="M640.48 400.5h-.52v-1h.52m39.02.48.02.52H679v-1h.56" fill="#333"/><path d="M340 575.43a6 6 0 0 1 6-6h288a6 6 0 0 1 6 6v49.14a6 6 0 0 1-6 6H346a6 6 0 0 1-6-6z" fill="none"/><use xlink:href="#g" transform="translate(386.08 605.209)"/><path d="M700 221v142.12" stroke="#333" fill="none"/><path d="m699.98 220.5.52-.02v.53h-1v-.56" fill="#333"/><path d="m700 377.88-4.64-14.26h9.28z" stroke="#333" fill="#333"/><path d="M640.46 600H679" stroke="#333" fill="none"/><path d="M640.48 600.5h-.52v-1h.52m39.02.48.02.52H679v-1h.56" fill="#333"/><path d="M700 621v142.12" stroke="#333" fill="none"/><path d="m699.98 620.5.52-.02v.53h-1v-.56" fill="#333"/><path d="m700 777.88-4.64-14.26h9.28z" stroke="#333" fill="#333"/><path d="M700 421v142.12" stroke="#333" fill="none"/><path d="m699.98 420.5.52-.02v.53h-1v-.56" fill="#333"/><path d="m700 577.88-4.64-14.26h9.28z" stroke="#333" fill="#333"/><path d="M720 1000c0 11.05-8.95 20-20 20s-20-8.95-20-20 8.95-20 20-20 20 8.95 20 20z" stroke="#333" fill="#fff"/><path d="M340 775.43a6 6 0 0 1 6-6h288a6 6 0 0 1 6 6v49.14a6 6 0 0 1-6 6H346a6 6 0 0 1-6-6z" fill="none"/><use xlink:href="#h" transform="translate(368.24 805.209)"/><path d="M640.46 800H679" stroke="#333" fill="none"/><path d="M640.48 800.5h-.52v-1h.52m39.02.48.02.52H679v-1h.56" fill="#333"/><path d="M700 821v142.12" stroke="#333" fill="none"/><path d="m699.98 820.5.52-.02v.53h-1v-.56" fill="#333"/><path d="m700 977.88-4.64-14.26h9.28z" stroke="#333" fill="#333"/><path d="M260 975.43a6 6 0 0 1 6-6h368a6 6 0 0 1 6 6v49.14a6 6 0 0 1-6 6H266a6 6 0 0 1-6-6z" fill="none"/><use xlink:href="#i" transform="translate(270.247 1005.209)"/><path d="M640.46 1000H679" stroke="#333" fill="none"/><path d="M640.48 1000.5h-.52v-1h.52m39.02.48.02.52H679v-1h.56" fill="#333"/><path d="M880 55a15 15 0 0 1 15-15h210a15 15 0 0 1 15 15v70a15 15 0 0 1-15 15H895a15 15 0 0 1-15-15z" fill="none"/><use xlink:href="#a" transform="translate(902.84 82.465)"/><use xlink:href="#b" transform="translate(999.691 82.465)"/><use xlink:href="#c" transform="translate(970.401 109.132)"/><use xlink:href="#j" transform="translate(1017.253 109.132)"/><path d="M1020 1000c0 11.05-8.95 20-20 20s-20-8.95-20-20 8.95-20 20-20 20 8.95 20 20zm0 200c0 11.05-8.95 20-20 20s-20-8.95-20-20 8.95-20 20-20 20 8.95 20 20zm0 200c0 11.05-8.95 20-20 20s-20-8.95-20-20 8.95-20 20-20 20 8.95 20 20zm0 200c0 11.05-8.95 20-20 20s-20-8.95-20-20 8.95-20 20-20 20 8.95 20 20z" stroke="#333" fill="#fff"/><path d="M1060 975.43a6 6 0 0 1 6-6h288a6 6 0 0 1 6 6v49.14a6 6 0 0 1-6 6h-288a6 6 0 0 1-6-6z" fill="none"/><use xlink:href="#k" transform="translate(1080.154 1005.209)"/><path d="M1060 1175.43a6 6 0 0 1 6-6h288a6 6 0 0 1 6 6v49.14a6 6 0 0 1-6 6h-288a6 6 0 0 1-6-6z" fill="none"/><use xlink:href="#f" transform="translate(1089.414 1205.209)"/><path d="M1059.54 1200H1021" stroke="#333" fill="none"/><path d="M1060.04 1200.5h-.52v-1h.52m-39.04 1h-.56l.06-.48-.02-.52h.53" fill="#333"/><path d="M1060 1375.43a6 6 0 0 1 6-6h288a6 6 0 0 1 6 6v49.14a6 6 0 0 1-6 6h-288a6 6 0 0 1-6-6z" fill="none"/><use xlink:href="#g" transform="translate(1106.08 1405.209)"/><path d="M1000 1021v142.12" stroke="#333" fill="none"/><path d="m999.98 1020.5.52-.02v.53h-1v-.56" fill="#333"/><path d="m1000 1177.88-4.64-14.26h9.28z" stroke="#333" fill="#333"/><path d="M1059.54 1400H1021" stroke="#333" fill="none"/><path d="M1060.04 1400.5h-.52v-1h.52m-39.04 1h-.56l.06-.48-.02-.52h.53" fill="#333"/><path d="M1000 1421v142.12" stroke="#333" fill="none"/><path d="m999.98 1420.5.52-.02v.53h-1v-.56" fill="#333"/><path d="m1000 1577.88-4.64-14.26h9.28z" stroke="#333" fill="#333"/><path d="M1000 1221v142.12" stroke="#333" fill="none"/><path d="m999.98 1220.5.52-.02v.53h-1v-.56" fill="#333"/><path d="m1000 1377.88-4.64-14.26h9.28z" stroke="#333" fill="#333"/><path d="M1020 1800c0 11.05-8.95 20-20 20s-20-8.95-20-20 8.95-20 20-20 20 8.95 20 20z" stroke="#333" fill="#fff"/><path d="M1060 1575.43a6 6 0 0 1 6-6h288a6 6 0 0 1 6 6v49.14a6 6 0 0 1-6 6h-288a6 6 0 0 1-6-6z" fill="none"/><use xlink:href="#l" transform="translate(1088.24 1605.209)"/><path d="M1059.54 1600H1021" stroke="#333" fill="none"/><path d="M1060.04 1600.5h-.52v-1h.52m-39.04 1h-.56l.06-.48-.02-.52h.53" fill="#333"/><path d="M1000 1621v142.12" stroke="#333" fill="none"/><path d="m999.98 1620.5.52-.02v.53h-1v-.56" fill="#333"/><path d="m1000 1777.88-4.64-14.26h9.28z" stroke="#333" fill="#333"/><path d="M1060 1775.43a6 6 0 0 1 6-6h308a6 6 0 0 1 6 6v49.14a6 6 0 0 1-6 6h-308a6 6 0 0 1-6-6z" fill="none"/><use xlink:href="#m" transform="translate(1072.315 1805.209)"/><path d="M1059.54 1800H1021" stroke="#333" fill="none"/><path d="M1060.04 1800.5h-.52v-1h.52m-39.04 1h-.56l.06-.48-.02-.52h.53" fill="#333"/><path d="M721 1000h242.12" stroke="#333" fill="none"/><path d="M721 1000.5h-.56l.06-.48-.02-.52h.53" fill="#333"/><path d="m977.88 1000-14.26 4.64v-9.28z" stroke="#333" fill="#333"/><path d="M1059.54 1000H1021" stroke="#333" fill="none"/><path d="M1060.04 1000.5h-.52v-1h.52m-39.04 1h-.56l.06-.48-.02-.52h.53" fill="#333"/><path d="M1540 1034a6 6 0 0 0 6 6h248a6 6 0 0 0 6-6v-68a6 6 0 0 0-6-6h-248a6 6 0 0 0-6 6z" fill="none"/><use xlink:href="#n" transform="translate(1572.84 991.528)"/><use xlink:href="#o" transform="translate(1669.691 991.528)"/><use xlink:href="#p" transform="translate(1596.481 1018.194)"/><use xlink:href="#q" transform="translate(1681.914 1018.194)"/><path d="M1462.5 1800h75m-74.94 0H1460m77.44 0h2.56m-77.5-1600h75m-74.94 0H1460m77.44 0h2.56" stroke="#333" stroke-width="5" fill="none"/><path d="M1500 200.5v1599m0-1599v-.5m0 1599.5v.5" stroke="#333" fill="none"/><path d="M162.5 400h75m-74.94 0H160m77.44 0H240m-77.5 400h75m-74.94 0H160m77.44 0H240" stroke="#333" stroke-width="5" fill="none"/><path d="M199.67 799.5v-399m0 399v.5m0-399.5v-.5" stroke="#333" fill="none"/><path d="M-40 555a15 15 0 0 1 15-15h170a15 15 0 0 1 15 15v90a15 15 0 0 1-15 15H-25a15 15 0 0 1-15-15z" fill="none"/><use xlink:href="#a" transform="translate(-11.235 590.528)"/><use xlink:href="#r" transform="translate(85.617 590.528)"/><use xlink:href="#s" transform="translate(11.265 617.194)"/><path d="M160.4 600h38.77" stroke="#333" fill="none"/><path d="M160.42 600.5h-.5v-1h.5" fill="#333"/><path d="M199.15 600h.52m1339.87 400h-39.04" stroke="#333" fill="none"/><path d="M1540.04 1000.5h-.52v-1h.52" fill="#333"/><path d="M1500.5 1000h-.5" stroke="#333" fill="none"/><path d="M162.5 1200h75m-74.94 0H160m77.44 0H240m-77.5 400h75m-74.94 0H160m77.44 0H240" stroke="#333" stroke-width="5" fill="none"/><path d="M199.67 1599.5v-399m0 399v.5m0-399.5v-.5" stroke="#333" fill="none"/><path d="M-40 1355a15 15 0 0 1 15-15h170a15 15 0 0 1 15 15v90a15 15 0 0 1-15 15H-25a15 15 0 0 1-15-15z" fill="none"/><use xlink:href="#a" transform="translate(-11.235 1390.528)"/><use xlink:href="#r" transform="translate(85.617 1390.528)"/><use xlink:href="#s" transform="translate(11.265 1417.194)"/><path d="M160.4 1400h38.77" stroke="#333" fill="none"/><path d="M160.42 1400.5h-.5v-1h.5" fill="#333"/><path d="M199.15 1400h.52" stroke="#333" fill="none"/><defs><path fill="#333" d="M266 0h-40l-56-210L115 0H75L2-248h35L96-30l15-64 43-154h32l59 218 59-218h35" id="t"/><path fill="#333" d="M100-194c62-1 85 37 85 99 1 63-27 99-86 99S16-35 15-95c0-66 28-99 85-99zM99-20c44 1 53-31 53-75 0-43-8-75-51-75s-53 32-53 75 10 74 51 75" id="u"/><path fill="#333" d="M114-163C36-179 61-72 57 0H25l-1-190h30c1 12-1 29 2 39 6-27 23-49 58-41v29" id="v"/><path fill="#333" d="M143 0 79-87 56-68V0H24v-261h32v163l83-92h37l-77 82L181 0h-38" id="w"/><path fill="#333" d="M101-234c-31-9-42 10-38 44h38v23H63V0H32v-167H5v-23h27c-7-52 17-82 69-68v24" id="x"/><path fill="#333" d="M24 0v-261h32V0H24" id="y"/><path fill="#333" d="M206 0h-36l-40-164L89 0H53L-1-190h32L70-26l43-164h34l41 164 42-164h31" id="z"/><path fill="#333" d="M30 0v-248h187v28H63v79h144v27H63v87h162V0H30" id="A"/><path fill="#333" d="M141 0 90-78 38 0H4l68-98-65-92h35l48 74 47-74h35l-64 92 68 98h-35" id="B"/><path fill="#333" d="M100-194c63 0 86 42 84 106H49c0 40 14 67 53 68 26 1 43-12 49-29l28 8c-11 28-37 45-77 45C44 4 14-33 15-96c1-61 26-98 85-98zm52 81c6-60-76-77-97-28-3 7-6 17-6 28h103" id="C"/><path fill="#333" d="M96-169c-40 0-48 33-48 73s9 75 48 75c24 0 41-14 43-38l32 2c-6 37-31 61-74 61-59 0-76-41-82-99-10-93 101-131 147-64 4 7 5 14 7 22l-32 3c-4-21-16-35-41-35" id="D"/><path fill="#333" d="M84 4C-5 8 30-112 23-190h32v120c0 31 7 50 39 49 72-2 45-101 50-169h31l1 190h-30c-1-10 1-25-2-33-11 22-28 36-60 37" id="E"/><path fill="#333" d="M59-47c-2 24 18 29 38 22v24C64 9 27 4 27-40v-127H5v-23h24l9-43h21v43h35v23H59v120" id="F"/><path fill="#333" d="M24-231v-30h32v30H24zM24 0v-190h32V0H24" id="G"/><path fill="#333" d="M117-194c89-4 53 116 60 194h-32v-121c0-31-8-49-39-48C34-167 62-67 57 0H25l-1-190h30c1 10-1 24 2 32 11-22 29-35 61-36" id="H"/><path fill="#333" d="M233-177c-1 41-23 64-60 70L243 0h-38l-65-103H63V0H30v-248c88 3 205-21 203 71zM63-129c60-2 137 13 137-47 0-61-80-42-137-45v92" id="I"/><path fill="#333" d="M27 0v-27h64v-190l-56 39v-29l58-41h29v221h61V0H27" id="J"/><path fill="#333" d="M185-189c-5-48-123-54-124 2 14 75 158 14 163 119 3 78-121 87-175 55-17-10-28-26-33-46l33-7c5 56 141 63 141-1 0-78-155-14-162-118-5-82 145-84 179-34 5 7 8 16 11 25" id="K"/><path fill="#333" d="M141-36C126-15 110 5 73 4 37 3 15-17 15-53c-1-64 63-63 125-63 3-35-9-54-41-54-24 1-41 7-42 31l-33-3c5-37 33-52 76-52 45 0 72 20 72 64v82c-1 20 7 32 28 27v20c-31 9-61-2-59-35zM48-53c0 20 12 33 32 33 41-3 63-29 60-74-43 2-92-5-92 41" id="L"/><path fill="#333" d="M85-194c31 0 48 13 60 33l-1-100h32l1 261h-30c-2-10 0-23-3-31C134-8 116 4 85 4 32 4 16-35 15-94c0-66 23-100 70-100zm9 24c-40 0-46 34-46 75 0 40 6 74 45 74 42 0 51-32 51-76 0-42-9-74-50-73" id="M"/><path fill="#333" d="M127-220V0H93v-220H8v-28h204v28h-85" id="N"/><path fill="#333" d="M135-143c-3-34-86-38-87 0 15 53 115 12 119 90S17 21 10-45l28-5c4 36 97 45 98 0-10-56-113-15-118-90-4-57 82-63 122-42 12 7 21 19 24 35" id="O"/><path fill="#333" d="M106-169C34-169 62-67 57 0H25v-261h32l-1 103c12-21 28-36 61-36 89 0 53 116 60 194h-32v-121c2-32-8-49-39-48" id="P"/><path fill="#333" d="M212-179c-10-28-35-45-73-45-59 0-87 40-87 99 0 60 29 101 89 101 43 0 62-24 78-52l27 14C228-24 195 4 139 4 59 4 22-46 18-125c-6-104 99-153 187-111 19 9 31 26 39 46" id="Q"/><path fill="#333" d="M210-169c-67 3-38 105-44 169h-31v-121c0-29-5-50-35-48C34-165 62-65 56 0H25l-1-190h30c1 10-1 24 2 32 10-44 99-50 107 0 11-21 27-35 58-36 85-2 47 119 55 194h-31v-121c0-29-5-49-35-48" id="R"/><path fill="#333" d="M115-194c55 1 70 41 70 98S169 2 115 4C84 4 66-9 55-30l1 105H24l-1-265h31l2 30c10-21 28-34 59-34zm-8 174c40 0 45-34 45-75s-6-73-45-74c-42 0-51 32-51 76 0 43 10 73 51 73" id="S"/><path fill="#333" d="m205 0-28-72H64L36 0H1l101-248h38L239 0h-34zm-38-99-47-123c-12 45-31 82-46 123h93" id="T"/><path fill="#333" d="M190 0 58-211 59 0H30v-248h39L202-35l-2-213h31V0h-41" id="U"/><path fill="#333" d="M101-251c82-7 93 87 43 132L82-64C71-53 59-42 53-27h129V0H18c2-99 128-94 128-182 0-28-16-43-45-43s-46 15-49 41l-32-3c6-41 34-60 81-64" id="V"/><g id="a"><use transform="rotate(.413) scale(.06173)" xlink:href="#t"/><use transform="matrix(.06173 0 0 .06173 20.494 0)" xlink:href="#u"/><use transform="matrix(.06173 0 0 .06173 32.84 0)" xlink:href="#v"/><use transform="matrix(.06173 0 0 .06173 40.185 0)" xlink:href="#w"/><use transform="matrix(.06173 0 0 .06173 51.296 0)" xlink:href="#x"/><use transform="matrix(.06173 0 0 .06173 57.47 0)" xlink:href="#y"/><use transform="matrix(.06173 0 0 .06173 62.346 0)" xlink:href="#u"/><use transform="matrix(.06173 0 0 .06173 74.691 0)" xlink:href="#z"/></g><g id="b"><use transform="rotate(.413) scale(.06173)" xlink:href="#A"/><use transform="matrix(.06173 0 0 .06173 14.815 0)" xlink:href="#B"/><use transform="matrix(.06173 0 0 .06173 25.926 0)" xlink:href="#C"/><use transform="matrix(.06173 0 0 .06173 38.272 0)" xlink:href="#D"/><use transform="matrix(.06173 0 0 .06173 49.383 0)" xlink:href="#E"/><use transform="matrix(.06173 0 0 .06173 61.728 0)" xlink:href="#F"/><use transform="matrix(.06173 0 0 .06173 67.901 0)" xlink:href="#G"/><use transform="matrix(.06173 0 0 .06173 72.778 0)" xlink:href="#u"/><use transform="matrix(.06173 0 0 .06173 85.123 0)" xlink:href="#H"/></g><g id="c"><use transform="rotate(.413) scale(.06173)" xlink:href="#I"/><use transform="matrix(.06173 0 0 .06173 15.988 0)" xlink:href="#E"/><use transform="matrix(.06173 0 0 .06173 28.333 0)" xlink:href="#H"/></g><g id="e"><use transform="rotate(.413) scale(.06173)" xlink:href="#t"/><use transform="matrix(.06173 0 0 .06173 20.494 0)" xlink:href="#u"/><use transform="matrix(.06173 0 0 .06173 32.84 0)" xlink:href="#v"/><use transform="matrix(.06173 0 0 .06173 40.185 0)" xlink:href="#w"/><use transform="matrix(.06173 0 0 .06173 51.296 0)" xlink:href="#x"/><use transform="matrix(.06173 0 0 .06173 57.47 0)" xlink:href="#y"/><use transform="matrix(.06173 0 0 .06173 62.346 0)" xlink:href="#u"/><use transform="matrix(.06173 0 0 .06173 74.691 0)" xlink:href="#z"/><use transform="matrix(.06173 0 0 .06173 90.679 0)" xlink:href="#A"/><use transform="matrix(.06173 0 0 .06173 105.494 0)" xlink:href="#B"/><use transform="matrix(.06173 0 0 .06173 116.605 0)" xlink:href="#C"/><use transform="matrix(.06173 0 0 .06173 128.95 0)" xlink:href="#D"/><use transform="matrix(.06173 0 0 .06173 140.062 0)" xlink:href="#E"/><use transform="matrix(.06173 0 0 .06173 152.407 0)" xlink:href="#F"/><use transform="matrix(.06173 0 0 .06173 158.58 0)" xlink:href="#G"/><use transform="matrix(.06173 0 0 .06173 163.457 0)" xlink:href="#u"/><use transform="matrix(.06173 0 0 .06173 175.802 0)" xlink:href="#H"/><use transform="matrix(.06173 0 0 .06173 188.148 0)" xlink:href="#K"/><use transform="matrix(.06173 0 0 .06173 202.963 0)" xlink:href="#F"/><use transform="matrix(.06173 0 0 .06173 209.136 0)" xlink:href="#L"/><use transform="matrix(.06173 0 0 .06173 221.481 0)" xlink:href="#v"/><use transform="matrix(.06173 0 0 .06173 228.827 0)" xlink:href="#F"/><use transform="matrix(.06173 0 0 .06173 235 0)" xlink:href="#C"/><use transform="matrix(.06173 0 0 .06173 247.346 0)" xlink:href="#M"/></g><g id="f"><use transform="rotate(.413) scale(.06173)" xlink:href="#t"/><use transform="matrix(.06173 0 0 .06173 20.494 0)" xlink:href="#u"/><use transform="matrix(.06173 0 0 .06173 32.84 0)" xlink:href="#v"/><use transform="matrix(.06173 0 0 .06173 40.185 0)" xlink:href="#w"/><use transform="matrix(.06173 0 0 .06173 51.296 0)" xlink:href="#x"/><use transform="matrix(.06173 0 0 .06173 57.47 0)" xlink:href="#y"/><use transform="matrix(.06173 0 0 .06173 62.346 0)" xlink:href="#u"/><use transform="matrix(.06173 0 0 .06173 74.691 0)" xlink:href="#z"/><use transform="matrix(.06173 0 0 .06173 90.679 0)" xlink:href="#N"/><use transform="matrix(.06173 0 0 .06173 101.728 0)" xlink:href="#L"/><use transform="matrix(.06173 0 0 .06173 114.074 0)" xlink:href="#O"/><use transform="matrix(.06173 0 0 .06173 125.185 0)" xlink:href="#w"/><use transform="matrix(.06173 0 0 .06173 136.296 0)" xlink:href="#K"/><use transform="matrix(.06173 0 0 .06173 151.111 0)" xlink:href="#D"/><use transform="matrix(.06173 0 0 .06173 162.222 0)" xlink:href="#P"/><use transform="matrix(.06173 0 0 .06173 174.568 0)" xlink:href="#C"/><use transform="matrix(.06173 0 0 .06173 186.914 0)" xlink:href="#M"/><use transform="matrix(.06173 0 0 .06173 199.26 0)" xlink:href="#E"/><use transform="matrix(.06173 0 0 .06173 211.605 0)" xlink:href="#y"/><use transform="matrix(.06173 0 0 .06173 216.481 0)" xlink:href="#C"/><use transform="matrix(.06173 0 0 .06173 228.827 0)" xlink:href="#M"/></g><g id="g"><use transform="rotate(.413) scale(.06173)" xlink:href="#t"/><use transform="matrix(.06173 0 0 .06173 20.494 0)" xlink:href="#u"/><use transform="matrix(.06173 0 0 .06173 32.84 0)" xlink:href="#v"/><use transform="matrix(.06173 0 0 .06173 40.185 0)" xlink:href="#w"/><use transform="matrix(.06173 0 0 .06173 51.296 0)" xlink:href="#x"/><use transform="matrix(.06173 0 0 .06173 57.47 0)" xlink:href="#y"/><use transform="matrix(.06173 0 0 .06173 62.346 0)" xlink:href="#u"/><use transform="matrix(.06173 0 0 .06173 74.691 0)" xlink:href="#z"/><use transform="matrix(.06173 0 0 .06173 90.679 0)" xlink:href="#N"/><use transform="matrix(.06173 0 0 .06173 101.728 0)" xlink:href="#L"/><use transform="matrix(.06173 0 0 .06173 114.074 0)" xlink:href="#O"/><use transform="matrix(.06173 0 0 .06173 125.185 0)" xlink:href="#w"/><use transform="matrix(.06173 0 0 .06173 136.296 0)" xlink:href="#K"/><use transform="matrix(.06173 0 0 .06173 151.111 0)" xlink:href="#F"/><use transform="matrix(.06173 0 0 .06173 157.284 0)" xlink:href="#L"/><use transform="matrix(.06173 0 0 .06173 169.63 0)" xlink:href="#v"/><use transform="matrix(.06173 0 0 .06173 176.975 0)" xlink:href="#F"/><use transform="matrix(.06173 0 0 .06173 183.148 0)" xlink:href="#C"/><use transform="matrix(.06173 0 0 .06173 195.494 0)" xlink:href="#M"/></g><g id="h"><use transform="rotate(.413) scale(.06173)" xlink:href="#t"/><use transform="matrix(.06173 0 0 .06173 20.494 0)" xlink:href="#u"/><use transform="matrix(.06173 0 0 .06173 32.84 0)" xlink:href="#v"/><use transform="matrix(.06173 0 0 .06173 40.185 0)" xlink:href="#w"/><use transform="matrix(.06173 0 0 .06173 51.296 0)" xlink:href="#x"/><use transform="matrix(.06173 0 0 .06173 57.47 0)" xlink:href="#y"/><use transform="matrix(.06173 0 0 .06173 62.346 0)" xlink:href="#u"/><use transform="matrix(.06173 0 0 .06173 74.691 0)" xlink:href="#z"/><use transform="matrix(.06173 0 0 .06173 90.679 0)" xlink:href="#N"/><use transform="matrix(.06173 0 0 .06173 101.728 0)" xlink:href="#L"/><use transform="matrix(.06173 0 0 .06173 114.074 0)" xlink:href="#O"/><use transform="matrix(.06173 0 0 .06173 125.185 0)" xlink:href="#w"/><use transform="matrix(.06173 0 0 .06173 136.296 0)" xlink:href="#Q"/><use transform="matrix(.06173 0 0 .06173 152.284 0)" xlink:href="#u"/><use transform="matrix(.06173 0 0 .06173 164.63 0)" xlink:href="#R"/><use transform="matrix(.06173 0 0 .06173 183.086 0)" xlink:href="#S"/><use transform="matrix(.06173 0 0 .06173 195.432 0)" xlink:href="#y"/><use transform="matrix(.06173 0 0 .06173 200.309 0)" xlink:href="#C"/><use transform="matrix(.06173 0 0 .06173 212.654 0)" xlink:href="#F"/><use transform="matrix(.06173 0 0 .06173 218.827 0)" xlink:href="#C"/><use transform="matrix(.06173 0 0 .06173 231.173 0)" xlink:href="#M"/></g><g id="i"><use transform="rotate(.413) scale(.06173)" xlink:href="#t"/><use transform="matrix(.06173 0 0 .06173 20.494 0)" xlink:href="#u"/><use transform="matrix(.06173 0 0 .06173 32.84 0)" xlink:href="#v"/><use transform="matrix(.06173 0 0 .06173 40.185 0)" xlink:href="#w"/><use transform="matrix(.06173 0 0 .06173 51.296 0)" xlink:href="#x"/><use transform="matrix(.06173 0 0 .06173 57.47 0)" xlink:href="#y"/><use transform="matrix(.06173 0 0 .06173 62.346 0)" xlink:href="#u"/><use transform="matrix(.06173 0 0 .06173 74.691 0)" xlink:href="#z"/><use transform="matrix(.06173 0 0 .06173 90.679 0)" xlink:href="#A"/><use transform="matrix(.06173 0 0 .06173 105.494 0)" xlink:href="#B"/><use transform="matrix(.06173 0 0 .06173 116.605 0)" xlink:href="#C"/><use transform="matrix(.06173 0 0 .06173 128.95 0)" xlink:href="#D"/><use transform="matrix(.06173 0 0 .06173 140.062 0)" xlink:href="#E"/><use transform="matrix(.06173 0 0 .06173 152.407 0)" xlink:href="#F"/><use transform="matrix(.06173 0 0 .06173 158.58 0)" xlink:href="#G"/><use transform="matrix(.06173 0 0 .06173 163.457 0)" xlink:href="#u"/><use transform="matrix(.06173 0 0 .06173 175.802 0)" xlink:href="#H"/><use transform="matrix(.06173 0 0 .06173 188.148 0)" xlink:href="#Q"/><use transform="matrix(.06173 0 0 .06173 204.136 0)" xlink:href="#u"/><use transform="matrix(.06173 0 0 .06173 216.481 0)" xlink:href="#H"/><use transform="matrix(.06173 0 0 .06173 228.827 0)" xlink:href="#F"/><use transform="matrix(.06173 0 0 .06173 235 0)" xlink:href="#G"/><use transform="matrix(.06173 0 0 .06173 239.877 0)" xlink:href="#H"/><use transform="matrix(.06173 0 0 .06173 252.222 0)" xlink:href="#E"/><use transform="matrix(.06173 0 0 .06173 264.568 0)" xlink:href="#C"/><use transform="matrix(.06173 0 0 .06173 276.914 0)" xlink:href="#M"/><use transform="matrix(.06173 0 0 .06173 289.26 0)" xlink:href="#T"/><use transform="matrix(.06173 0 0 .06173 304.074 0)" xlink:href="#O"/><use transform="matrix(.06173 0 0 .06173 315.185 0)" xlink:href="#U"/><use transform="matrix(.06173 0 0 .06173 331.173 0)" xlink:href="#C"/><use transform="matrix(.06173 0 0 .06173 343.519 0)" xlink:href="#z"/></g><g id="k"><use transform="rotate(.413) scale(.06173)" xlink:href="#t"/><use transform="matrix(.06173 0 0 .06173 20.494 0)" xlink:href="#u"/><use transform="matrix(.06173 0 0 .06173 32.84 0)" xlink:href="#v"/><use transform="matrix(.06173 0 0 .06173 40.185 0)" xlink:href="#w"/><use transform="matrix(.06173 0 0 .06173 51.296 0)" xlink:href="#x"/><use transform="matrix(.06173 0 0 .06173 57.47 0)" xlink:href="#y"/><use transform="matrix(.06173 0 0 .06173 62.346 0)" xlink:href="#u"/><use transform="matrix(.06173 0 0 .06173 74.691 0)" xlink:href="#z"/><use transform="matrix(.06173 0 0 .06173 90.679 0)" xlink:href="#A"/><use transform="matrix(.06173 0 0 .06173 105.494 0)" xlink:href="#B"/><use transform="matrix(.06173 0 0 .06173 116.605 0)" xlink:href="#C"/><use transform="matrix(.06173 0 0 .06173 128.95 0)" xlink:href="#D"/><use transform="matrix(.06173 0 0 .06173 140.062 0)" xlink:href="#E"/><use transform="matrix(.06173 0 0 .06173 152.407 0)" xlink:href="#F"/><use transform="matrix(.06173 0 0 .06173 158.58 0)" xlink:href="#G"/><use transform="matrix(.06173 0 0 .06173 163.457 0)" xlink:href="#u"/><use transform="matrix(.06173 0 0 .06173 175.802 0)" xlink:href="#H"/><use transform="matrix(.06173 0 0 .06173 188.148 0)" xlink:href="#K"/><use transform="matrix(.06173 0 0 .06173 202.963 0)" xlink:href="#F"/><use transform="matrix(.06173 0 0 .06173 209.136 0)" xlink:href="#L"/><use transform="matrix(.06173 0 0 .06173 221.481 0)" xlink:href="#v"/><use transform="matrix(.06173 0 0 .06173 228.827 0)" xlink:href="#F"/><use transform="matrix(.06173 0 0 .06173 235 0)" xlink:href="#C"/><use transform="matrix(.06173 0 0 .06173 247.346 0)" xlink:href="#M"/></g><g id="l"><use transform="rotate(.413) scale(.06173)" xlink:href="#t"/><use transform="matrix(.06173 0 0 .06173 20.494 0)" xlink:href="#u"/><use transform="matrix(.06173 0 0 .06173 32.84 0)" xlink:href="#v"/><use transform="matrix(.06173 0 0 .06173 40.185 0)" xlink:href="#w"/><use transform="matrix(.06173 0 0 .06173 51.296 0)" xlink:href="#x"/><use transform="matrix(.06173 0 0 .06173 57.47 0)" xlink:href="#y"/><use transform="matrix(.06173 0 0 .06173 62.346 0)" xlink:href="#u"/><use transform="matrix(.06173 0 0 .06173 74.691 0)" xlink:href="#z"/><use transform="matrix(.06173 0 0 .06173 90.679 0)" xlink:href="#N"/><use transform="matrix(.06173 0 0 .06173 101.728 0)" xlink:href="#L"/><use transform="matrix(.06173 0 0 .06173 114.074 0)" xlink:href="#O"/><use transform="matrix(.06173 0 0 .06173 125.185 0)" xlink:href="#w"/><use transform="matrix(.06173 0 0 .06173 136.296 0)" xlink:href="#Q"/><use transform="matrix(.06173 0 0 .06173 152.284 0)" xlink:href="#u"/><use transform="matrix(.06173 0 0 .06173 164.63 0)" xlink:href="#R"/><use transform="matrix(.06173 0 0 .06173 183.086 0)" xlink:href="#S"/><use transform="matrix(.06173 0 0 .06173 195.432 0)" xlink:href="#y"/><use transform="matrix(.06173 0 0 .06173 200.309 0)" xlink:href="#C"/><use transform="matrix(.06173 0 0 .06173 212.654 0)" xlink:href="#F"/><use transform="matrix(.06173 0 0 .06173 218.827 0)" xlink:href="#C"/><use transform="matrix(.06173 0 0 .06173 231.173 0)" xlink:href="#M"/></g><g id="m"><use transform="rotate(.413) scale(.06173)" xlink:href="#t"/><use transform="matrix(.06173 0 0 .06173 20.494 0)" xlink:href="#u"/><use transform="matrix(.06173 0 0 .06173 32.84 0)" xlink:href="#v"/><use transform="matrix(.06173 0 0 .06173 40.185 0)" xlink:href="#w"/><use transform="matrix(.06173 0 0 .06173 51.296 0)" xlink:href="#x"/><use transform="matrix(.06173 0 0 .06173 57.47 0)" xlink:href="#y"/><use transform="matrix(.06173 0 0 .06173 62.346 0)" xlink:href="#u"/><use transform="matrix(.06173 0 0 .06173 74.691 0)" xlink:href="#z"/><use transform="matrix(.06173 0 0 .06173 90.679 0)" xlink:href="#A"/><use transform="matrix(.06173 0 0 .06173 105.494 0)" xlink:href="#B"/><use transform="matrix(.06173 0 0 .06173 116.605 0)" xlink:href="#C"/><use transform="matrix(.06173 0 0 .06173 128.95 0)" xlink:href="#D"/><use transform="matrix(.06173 0 0 .06173 140.062 0)" xlink:href="#E"/><use transform="matrix(.06173 0 0 .06173 152.407 0)" xlink:href="#F"/><use transform="matrix(.06173 0 0 .06173 158.58 0)" xlink:href="#G"/><use transform="matrix(.06173 0 0 .06173 163.457 0)" xlink:href="#u"/><use transform="matrix(.06173 0 0 .06173 175.802 0)" xlink:href="#H"/><use transform="matrix(.06173 0 0 .06173 188.148 0)" xlink:href="#Q"/><use transform="matrix(.06173 0 0 .06173 204.136 0)" xlink:href="#u"/><use transform="matrix(.06173 0 0 .06173 216.481 0)" xlink:href="#R"/><use transform="matrix(.06173 0 0 .06173 234.938 0)" xlink:href="#S"/><use transform="matrix(.06173 0 0 .06173 247.284 0)" xlink:href="#y"/><use transform="matrix(.06173 0 0 .06173 252.16 0)" xlink:href="#C"/><use transform="matrix(.06173 0 0 .06173 264.506 0)" xlink:href="#F"/><use transform="matrix(.06173 0 0 .06173 270.679 0)" xlink:href="#C"/><use transform="matrix(.06173 0 0 .06173 283.025 0)" xlink:href="#M"/></g><g id="n"><use transform="rotate(.413) scale(.06173)" xlink:href="#t"/><use transform="matrix(.06173 0 0 .06173 20.494 0)" xlink:href="#u"/><use transform="matrix(.06173 0 0 .06173 32.84 0)" xlink:href="#v"/><use transform="matrix(.06173 0 0 .06173 40.185 0)" xlink:href="#w"/><use transform="matrix(.06173 0 0 .06173 51.296 0)" xlink:href="#x"/><use transform="matrix(.06173 0 0 .06173 57.47 0)" xlink:href="#y"/><use transform="matrix(.06173 0 0 .06173 62.346 0)" xlink:href="#u"/><use transform="matrix(.06173 0 0 .06173 74.691 0)" xlink:href="#z"/></g><g id="o"><use transform="rotate(.413) scale(.06173)" xlink:href="#A"/><use transform="matrix(.06173 0 0 .06173 14.815 0)" xlink:href="#B"/><use transform="matrix(.06173 0 0 .06173 25.926 0)" xlink:href="#C"/><use transform="matrix(.06173 0 0 .06173 38.272 0)" xlink:href="#D"/><use transform="matrix(.06173 0 0 .06173 49.383 0)" xlink:href="#E"/><use transform="matrix(.06173 0 0 .06173 61.728 0)" xlink:href="#F"/><use transform="matrix(.06173 0 0 .06173 67.901 0)" xlink:href="#G"/><use transform="matrix(.06173 0 0 .06173 72.778 0)" xlink:href="#u"/><use transform="matrix(.06173 0 0 .06173 85.123 0)" xlink:href="#H"/></g><g id="p"><use transform="rotate(.413) scale(.06173)" xlink:href="#N"/><use transform="matrix(.06173 0 0 .06173 12.716 0)" xlink:href="#G"/><use transform="matrix(.06173 0 0 .06173 17.593 0)" xlink:href="#R"/><use transform="matrix(.06173 0 0 .06173 36.05 0)" xlink:href="#C"/><use transform="matrix(.06173 0 0 .06173 48.395 0)" xlink:href="#u"/><use transform="matrix(.06173 0 0 .06173 60.74 0)" xlink:href="#E"/><use transform="matrix(.06173 0 0 .06173 73.086 0)" xlink:href="#F"/></g><g id="q"><use transform="rotate(.413) scale(.06173)" xlink:href="#S"/><use transform="matrix(.06173 0 0 .06173 12.346 0)" xlink:href="#C"/><use transform="matrix(.06173 0 0 .06173 24.691 0)" xlink:href="#v"/><use transform="matrix(.06173 0 0 .06173 32.037 0)" xlink:href="#G"/><use transform="matrix(.06173 0 0 .06173 36.914 0)" xlink:href="#u"/><use transform="matrix(.06173 0 0 .06173 49.26 0)" xlink:href="#M"/></g><g id="r"><use transform="rotate(.413) scale(.06173)" xlink:href="#N"/><use transform="matrix(.06173 0 0 .06173 11.05 0)" xlink:href="#L"/><use transform="matrix(.06173 0 0 .06173 23.395 0)" xlink:href="#O"/><use transform="matrix(.06173 0 0 .06173 34.506 0)" xlink:href="#w"/></g><g id="s"><use transform="rotate(.413) scale(.06173)" xlink:href="#A"/><use transform="matrix(.06173 0 0 .06173 14.815 0)" xlink:href="#B"/><use transform="matrix(.06173 0 0 .06173 25.926 0)" xlink:href="#C"/><use transform="matrix(.06173 0 0 .06173 38.272 0)" xlink:href="#D"/><use transform="matrix(.06173 0 0 .06173 49.383 0)" xlink:href="#E"/><use transform="matrix(.06173 0 0 .06173 61.728 0)" xlink:href="#F"/><use transform="matrix(.06173 0 0 .06173 67.901 0)" xlink:href="#G"/><use transform="matrix(.06173 0 0 .06173 72.778 0)" xlink:href="#u"/><use transform="matrix(.06173 0 0 .06173 85.123 0)" xlink:href="#H"/></g><use transform="rotate(.413) scale(.06173)" xlink:href="#J" id="d"/><use transform="rotate(.413) scale(.06173)" xlink:href="#V" id="j"/></defs></g></svg>