<svg xmlns="http://www.w3.org/2000/svg" xmlns:xlink="http://www.w3.org/1999/xlink" xmlns:lucid="lucid" width="1180" height="1246"><g transform="translate(-500 -80)" lucid:page-tab-id="0_0"><path d="M0 0h1870.87v1322.83H0z" fill="#fff"/><path d="M1100 100h300v60h-300z" stroke="#333" fill="#fff"/><use xlink:href="#a" transform="translate(1166.265 135.278)"/><use xlink:href="#b" transform="translate(1263.55 135.278)"/><path d="M700 100h300v60H700z" stroke="#333" fill="#fff"/><use xlink:href="#c" transform="translate(783.673 135.278)"/><use xlink:href="#d" transform="translate(860.833 135.278)"/><path d="M1225 260h50v1000h-50z" stroke="#333" fill="#fff"/><path d="M1208.12 260H540.5" stroke="#333" fill="none"/><path d="m1222.88 260-14.26 4.64v-9.28z" stroke="#333" fill="#333"/><path d="M540.5 260h-.5" stroke="#333" fill="none"/><path d="M825 360h50v400h-50z" stroke="#333" fill="#fff"/><path d="M1224 360h-153" stroke="#333" fill="none"/><path d="M1224.5 360.5h-.5v-1h.5zm-153.5 0h-.5v-1h.5z" stroke="#333" stroke-width=".05" fill="#333"/><path d="M1029 360H891.88" stroke="#333" fill="none"/><path d="M1029.5 360.5h-.5v-1h.5z" stroke="#333" stroke-width=".05" fill="#333"/><path d="m877.12 360 14.26-4.64v9.28z" stroke="#333" fill="#333"/><path d="M876 760h153" stroke="#333" fill="none"/><path d="M875.5 759.5h.5v1h-.5zm154 1h-.5v-1h.5z" stroke="#333" stroke-width=".05" fill="#333"/><path d="M1071 760h137.12" stroke="#333" fill="none"/><path d="M1071 760.5h-.5v-1h.5z" stroke="#333" stroke-width=".05" fill="#333"/><path d="m1222.88 760-14.26 4.64v-9.28z" stroke="#333" fill="#333"/><path d="M825 861h50v399h-50z" stroke="#333" fill="#fff"/><path d="M1224.5 860H889.24m335.26 0h.5" stroke="#333" fill="none"/><path d="m874.98 860.45 14.1-5.08.3 9.26z" stroke="#333" fill="#333"/><path d="M876 1259.06h332.12" stroke="#333" fill="none"/><path d="M876 1259.56h-.5v-1h.5z" stroke="#333" stroke-width=".05" fill="#333"/><path d="m1222.88 1259.06-14.26 4.63v-9.28z" stroke="#333" fill="#333"/><path d="M850 161v198" stroke="#333" fill="none"/><path d="M850.5 161h-1v-.5h1zm0 198.5h-1v-.5h1z" stroke="#333" stroke-width=".05" fill="#333"/><path d="M850 761v48.75a.75.75 0 0 1-.74.75.75.75 0 0 0-.75.75V860" stroke="#333" fill="none"/><path d="M850.5 761h-1v-.5h1zm-1.5 99.5h-1v-.5h1z" stroke="#333" stroke-width=".05" fill="#333"/><path d="M1250 161v98" stroke="#333" fill="none"/><path d="M1250.5 161h-1v-.5h1zm0 98.5h-1v-.5h1z" stroke="#333" stroke-width=".05" fill="#333"/><path d="M520 206a6 6 0 0 1 6-6h268a6 6 0 0 1 6 6v28.67a6 6 0 0 1-6 6H526a6 6 0 0 1-6-6z" fill="none"/><use xlink:href="#e" transform="translate(536.111 224.715)"/><use xlink:href="#f" transform="translate(589.136 224.715)"/><use xlink:href="#g" transform="translate(686.42 224.715)"/><path d="M660 241.13v18.37" stroke="#333" fill="none"/><path d="M660.5 241.14h-1v-.5h1z" stroke="#333" stroke-width=".05" fill="#333"/><path d="M660 259.5v.5" stroke="#333" fill="none"/><path d="M960.75 536a6 6 0 0 1 6-6h188a6 6 0 0 1 6 6v48a6 6 0 0 1-6 6h-188a6 6 0 0 1-6-6z" fill="none"/><use xlink:href="#h" transform="translate(1007.5 563.5)"/><path d="M1225 760h50v101h-50z" stroke="#333" fill="#fff"/><path d="M920 796.5a6 6 0 0 1 6-6h128a6 6 0 0 1 6 6v28a6 6 0 0 1-6 6H926a6 6 0 0 1-6-6z" fill="none"/><use xlink:href="#i" transform="translate(939.444 815.25)"/><path d="M1225 280h50v80h-50z" stroke="#333" fill="#fff"/><path d="M950.75 1037a6 6 0 0 1 6-6h188a6 6 0 0 1 6 6v48a6 6 0 0 1-6 6h-188a6 6 0 0 1-6-6z" fill="none"/><use xlink:href="#h" transform="translate(997.5 1064.5)"/><path d="M520 347a6 6 0 0 1 6-6h248a6 6 0 0 1 6 6v27a6 6 0 0 1-6 6H526a6 6 0 0 1-6-6z" fill="none"/><use xlink:href="#j" transform="translate(545.648 365.653)"/><path d="M825 360h50v40h-50z" stroke="#141414" fill="#fff"/><path d="M780.46 360.5H824" stroke="#333" fill="none"/><path d="M780.48 361h-.5l-.02-1h.52zm44.02 0h-.5v-1h.5z" stroke="#333" stroke-width=".05" fill="#333"/><path d="M825 861h50v40h-50zm0 359h50v40h-50zm0-500h50v40h-50z" stroke="#141414" fill="#fff"/><path d="M960.3 560H876" stroke="#333" fill="none"/><path d="M960.8 560.5h-.53v-1h.52zm-84.8 0h-.5v-1h.5z" stroke="#333" stroke-width=".05" fill="#333"/><path d="M950.3 1061h-36.66a.5.5 0 0 1-.5-.5.5.5 0 0 0-.5-.5H876" stroke="#333" fill="none"/><path d="M950.8 1061.5h-.53v-1h.52zm-74.8-1h-.5v-1h.5z" stroke="#333" stroke-width=".05" fill="#333"/><path d="M1250 1261v58.5" stroke="#333" fill="none"/><path d="M1250.5 1261h-1v-.5h1z" stroke="#333" stroke-width=".05" fill="#333"/><path d="M1250 1319.5v.5" stroke="#333" fill="none"/><path d="M875 400v320h-50V400z" stroke="#333" fill="#141414"/><use xlink:href="#k" transform="rotate(90 188.198 657.025)"/><use xlink:href="#l" transform="rotate(90 139.556 705.667)"/><path d="M875 900v320h-50V900z" stroke="#333" fill="#141414"/><use xlink:href="#k" transform="rotate(90 -61.802 907.025)"/><use xlink:href="#l" transform="rotate(90 -110.444 955.667)"/><path d="M1030 340h40v40h-40zm0 400h40v40h-40z" stroke="#141414" fill="#fff"/><path d="M960 406a6 6 0 0 1 6-6h168a6 6 0 0 1 6 6v48a6 6 0 0 1-6 6H966a6 6 0 0 1-6-6z" fill="none"/><use xlink:href="#m" transform="translate(978.333 435.528)"/><use xlink:href="#n" transform="translate(1075.617 435.528)"/><path d="M1050 399.54V381" stroke="#333" fill="none"/><path d="M1050.5 400.04h-1v-.52h1zm0-19.04h-1v-.5h1z" stroke="#333" stroke-width=".05" fill="#333"/><path d="M960 666a6 6 0 0 1 6-6h168a6 6 0 0 1 6 6v48a6 6 0 0 1-6 6H966a6 6 0 0 1-6-6z" fill="none"/><use xlink:href="#o" transform="translate(985.957 695.528)"/><path d="M1050 720.46V739" stroke="#333" fill="none"/><path d="M1050.5 720.48h-1v-.52h1zm0 19.02h-1v-.5h1z" stroke="#333" stroke-width=".05" fill="#333"/><path d="M1030 840h40v40h-40z" stroke="#141414" fill="#fff"/><path d="M960 906a6 6 0 0 1 6-6h168a6 6 0 0 1 6 6v48a6 6 0 0 1-6 6H966a6 6 0 0 1-6-6z" fill="none"/><use xlink:href="#m" transform="translate(978.333 935.528)"/><use xlink:href="#n" transform="translate(1075.617 935.528)"/><path d="M1050 899.54V881" stroke="#333" fill="none"/><path d="M1050.5 900.04h-1v-.52h1zm0-19.04h-1v-.5h1z" stroke="#333" stroke-width=".05" fill="#333"/><path d="M1030.75 1240h40v40h-40z" stroke="#141414" fill="#fff"/><path d="M960.75 1166a6 6 0 0 1 6-6h168a6 6 0 0 1 6 6v48a6 6 0 0 1-6 6h-168a6 6 0 0 1-6-6z" fill="none"/><use xlink:href="#o" transform="translate(986.707 1195.528)"/><path d="M1050.75 1220.46V1239" stroke="#333" fill="none"/><path d="M1051.25 1220.48h-1v-.52h1zm0 19.02h-1v-.5h1z" stroke="#333" stroke-width=".05" fill="#333"/><path d="M520 847a6 6 0 0 1 6-6h248a6 6 0 0 1 6 6v27a6 6 0 0 1-6 6H526a6 6 0 0 1-6-6z" fill="none"/><use xlink:href="#j" transform="translate(545.648 865.653)"/><path d="M780.46 860.5H824" stroke="#333" fill="none"/><path d="M780.48 860v1h-.5l-.02-1zm47.02 0v.5h-3v.5h-.5v-1z" stroke="#333" stroke-width=".05" fill="#333"/><path d="M520 1246a6 6 0 0 1 6-6h248a6 6 0 0 1 6 6v27a6 6 0 0 1-6 6H526a6 6 0 0 1-6-6z" fill="none"/><use xlink:href="#p" transform="translate(527.809 1264.653)"/><path d="M780.46 1259.5H824" stroke="#333" fill="none"/><path d="M780.48 1260h-.5l-.02-1h.52zm44.02 0h-.5v-1h.5z" stroke="#333" stroke-width=".05" fill="#333"/><path d="M520 747a6 6 0 0 1 6-6h248a6 6 0 0 1 6 6v27a6 6 0 0 1-6 6H526a6 6 0 0 1-6-6z" fill="none"/><use xlink:href="#p" transform="translate(527.809 765.653)"/><path d="M780.46 760.5H824" stroke="#333" fill="none"/><path d="M780.48 761h-.5l-.02-1h.52zm44.02-.5h3v.5H824v-1h.5z" stroke="#333" stroke-width=".05" fill="#333"/><path d="M1320 266a6 6 0 0 1 6-6h268a6 6 0 0 1 6 6v28a6 6 0 0 1-6 6h-268a6 6 0 0 1-6-6z" fill="none"/><use xlink:href="#q" transform="translate(1329.938 284.715)"/><path d="M1320 346a6 6 0 0 1 6-6h268a6 6 0 0 1 6 6v28a6 6 0 0 1-6 6h-268a6 6 0 0 1-6-6z" fill="none"/><use xlink:href="#r" transform="translate(1338.981 364.715)"/><path d="M1319.54 280H1276" stroke="#333" fill="none"/><path d="M1320.04 280.5h-.52v-1h.5zm-44.04 0h-.5v-1h.5z" stroke="#333" stroke-width=".05" fill="#333"/><path d="M1319.54 360H1276" stroke="#333" fill="none"/><path d="M1320.04 360.5h-.52v-1h.5zm-44.54-1h.5v1h-.5z" stroke="#333" stroke-width=".05" fill="#333"/><path d="M1320 846a6 6 0 0 1 6-6h268a6 6 0 0 1 6 6v28a6 6 0 0 1-6 6h-268a6 6 0 0 1-6-6z" fill="none"/><use xlink:href="#r" transform="translate(1338.981 864.715)"/><path d="M1319.54 860H1276" stroke="#333" fill="none"/><path d="M1320.04 860.5h-.52v-1h.5zm-44.04 0h-.5v-1h.5z" stroke="#333" stroke-width=".05" fill="#333"/><path d="M825 760h50v101h-50z" stroke="#333" fill="#e5e5e5"/><path d="M919.54 810.5H876" stroke="#333" fill="none"/><path d="M920.04 811h-.52v-1h.5zM876 811h-.5v-1h.5z" stroke="#333" stroke-width=".05" fill="#333"/><path d="M1320 1246a6 6 0 0 1 6-6h328a6 6 0 0 1 6 6v28a6 6 0 0 1-6 6h-328a6 6 0 0 1-6-6z" fill="none"/><use xlink:href="#s" transform="translate(1342.099 1264.715)"/><path d="M1319.54 1260H1250" stroke="#333" fill="none"/><path d="M1320.04 1260.5h-.52v-1h.5zm-69.54 0h-1v-.5h1z" stroke="#333" stroke-width=".05" fill="#333"/><defs><path fill="#333" d="M127-220V0H93v-220H8v-28h204v28h-85" id="t"/><path fill="#333" d="M100-194c63 0 86 42 84 106H49c0 40 14 67 53 68 26 1 43-12 49-29l28 8c-11 28-37 45-77 45C44 4 14-33 15-96c1-61 26-98 85-98zm52 81c6-60-76-77-97-28-3 7-6 17-6 28h103" id="u"/><path fill="#333" d="M210-169c-67 3-38 105-44 169h-31v-121c0-29-5-50-35-48C34-165 62-65 56 0H25l-1-190h30c1 10-1 24 2 32 10-44 99-50 107 0 11-21 27-35 58-36 85-2 47 119 55 194h-31v-121c0-29-5-49-35-48" id="v"/><path fill="#333" d="M115-194c55 1 70 41 70 98S169 2 115 4C84 4 66-9 55-30l1 105H24l-1-265h31l2 30c10-21 28-34 59-34zm-8 174c40 0 45-34 45-75s-6-73-45-74c-42 0-51 32-51 76 0 43 10 73 51 73" id="w"/><path fill="#333" d="M100-194c62-1 85 37 85 99 1 63-27 99-86 99S16-35 15-95c0-66 28-99 85-99zM99-20c44 1 53-31 53-75 0-43-8-75-51-75s-53 32-53 75 10 74 51 75" id="x"/><path fill="#333" d="M114-163C36-179 61-72 57 0H25l-1-190h30c1 12-1 29 2 39 6-27 23-49 58-41v29" id="y"/><path fill="#333" d="M141-36C126-15 110 5 73 4 37 3 15-17 15-53c-1-64 63-63 125-63 3-35-9-54-41-54-24 1-41 7-42 31l-33-3c5-37 33-52 76-52 45 0 72 20 72 64v82c-1 20 7 32 28 27v20c-31 9-61-2-59-35zM48-53c0 20 12 33 32 33 41-3 63-29 60-74-43 2-92-5-92 41" id="z"/><path fill="#333" d="M24 0v-261h32V0H24" id="A"/><path fill="#333" d="M212-179c-10-28-35-45-73-45-59 0-87 40-87 99 0 60 29 101 89 101 43 0 62-24 78-52l27 14C228-24 195 4 139 4 59 4 22-46 18-125c-6-104 99-153 187-111 19 9 31 26 39 46" id="B"/><path fill="#333" d="M84 4C-5 8 30-112 23-190h32v120c0 31 7 50 39 49 72-2 45-101 50-169h31l1 190h-30c-1-10 1-25-2-33-11 22-28 36-60 37" id="C"/><path fill="#333" d="M135-143c-3-34-86-38-87 0 15 53 115 12 119 90S17 21 10-45l28-5c4 36 97 45 98 0-10-56-113-15-118-90-4-57 82-63 122-42 12 7 21 19 24 35" id="D"/><path fill="#333" d="M59-47c-2 24 18 29 38 22v24C64 9 27 4 27-40v-127H5v-23h24l9-43h21v43h35v23H59v120" id="E"/><path fill="#333" d="M266 0h-40l-56-210L115 0H75L2-248h35L96-30l15-64 43-154h32l59 218 59-218h35" id="F"/><path fill="#333" d="M143 0 79-87 56-68V0H24v-261h32v163l83-92h37l-77 82L181 0h-38" id="G"/><path fill="#333" d="M30 0v-248h187v28H63v79h144v27H63v87h162V0H30" id="H"/><path fill="#333" d="M117-194c89-4 53 116 60 194h-32v-121c0-31-8-49-39-48C34-167 62-67 57 0H25l-1-190h30c1 10-1 24 2 32 11-22 29-35 61-36" id="I"/><path fill="#333" d="M24-231v-30h32v30H24zM24 0v-190h32V0H24" id="J"/><path fill="#333" d="M179-190 93 31C79 59 56 82 12 73V49c39 6 53-20 64-50L1-190h34L92-34l54-156h33" id="K"/><path fill="#333" d="M194-120c59 52 2 134-86 124-53-6-90-18-98-63l31-7c8 30 29 43 70 43 46 0 84-17 71-62-32-43-135-20-137-98-3-89 178-90 191-16l-30 9c-8-48-127-53-127 5 0 53 81 35 115 65" id="L"/><path fill="#333" d="M51-54c-9 22 5 41 31 30L79-1C43 14 10-4 19-52l22-115H19l5-23h22l19-43h21l-9 43h35l-4 23H73" id="M"/><path fill="#333" d="M165-48c-4 18 1 34 23 27l-3 20c-29 8-62 0-52-35h-2C116-14 99 4 63 4 30 4 8-16 8-49c0-68 71-67 138-67 10-26 0-56-31-54-26 1-42 9-47 31l-32-5c8-67 160-71 144 15-5 28-9 54-15 81zM42-50c3 52 80 24 89-6 7-12 7-24 11-38-47 1-103-4-100 44" id="N"/><path fill="#333" d="M66-151c12-25 30-51 66-40l-6 26C45-176 58-65 38 0H6l36-190h30" id="O"/><path fill="#333" d="M247 0h-39l-15-214-24 57L95 0H56L31-248h35L82-30l101-218h33l16 218 101-218h35" id="P"/><path fill="#333" d="M30-147c31-64 166-65 159 27C183-49 158 1 86 4 9 8 1-88 30-147zM88-20c53 0 68-48 68-100 0-31-11-51-44-50-52 1-68 46-68 97 0 32 13 53 44 53" id="Q"/><path fill="#333" d="M127 0 80-88 50-66 37 0H6l51-261h31L57-100l99-90h39l-93 82L161 0h-34" id="R"/><path fill="#333" d="M76-167 44 0H12l33-167H18l4-23h27c3-47 25-81 82-69l-4 24c-35-8-44 15-46 45h37l-5 23H76" id="S"/><path fill="#333" d="m6 0 50-261h32L37 0H6" id="T"/><path fill="#333" d="M188 0h-37l-8-164L71 0H34L18-190h31l8 164 75-164h34l8 164 74-164h31" id="U"/><path fill="#333" d="m11 0 48-248h184l-5 28H87l-15 79h140l-5 27H67L50-27h158l-5 27H11" id="V"/><path fill="#333" d="M124 0 87-78 21 0h-35l86-98-46-92h33l34 74 61-74h37l-83 92 50 98h-34" id="W"/><path fill="#333" d="M111-194c62-3 86 47 72 106H45c-7 38 6 69 45 68 27-1 43-14 53-32l24 11C152-15 129 4 87 4 38 3 12-23 12-71c0-70 32-119 99-123zm44 81c14-66-71-72-95-28-4 8-8 17-11 28h106" id="X"/><path fill="#333" d="M44-68c0 29 11 47 38 47 30 0 42-19 51-41l28 9C148-21 126 4 82 4 31 4 10-29 12-85c3-77 74-140 146-93 12 8 15 23 18 40l-31 5c-1-22-13-36-36-36-52 0-65 49-65 101" id="Y"/><path fill="#333" d="M67 3c-93-2-31-127-26-193h32L48-50c-3 39 53 32 70 12 30-34 30-101 43-152h32L157 0h-30c1-10 6-24 4-33-14 20-29 37-64 36" id="Z"/><path fill="#333" d="m50-231 6-30h32l-6 30H50zM6 0l37-190h31L37 0H6" id="aa"/><path fill="#333" d="M67-158c22-48 132-52 116 29L158 0h-32l25-140c3-38-53-32-70-12C52-117 51-52 38 0H6l36-190h30" id="ab"/><path fill="#333" d="M238-179c0 84-86 86-175 82L45 0H11l48-248c82 0 179-12 179 69zm-34 1c0-53-64-42-116-43l-19 98c63 0 135 9 135-55" id="ac"/><path fill="#333" d="M103-194c29 0 47 14 56 36 2-11 5-23 8-32h30L160-5C157 61 82 97 21 62 9 55 4 45 1 30l28-7c7 42 83 31 92-3 4-16 9-38 13-55-13 20-29 36-62 36-40 0-60-25-60-64 0-71 23-131 91-131zm4 24c-53 0-58 54-61 104-2 27 10 44 36 44 49 0 65-50 67-102 1-29-15-46-42-46" id="ad"/><path fill="#333" d="M55-144c13 50 104 24 104 88C159 21 15 23 1-39l26-10c6 40 102 42 102-4-13-50-104-23-104-87 0-71 143-71 148-8l-29 4c-5-35-85-37-89 0" id="ae"/><path fill="#333" d="M67-162c32-53 139-36 121 50C175-51 163 2 97 4 68 4 52-11 42-31 38 6 28 39 22 75H-9l50-265h29c-1 10 0 20-3 28zm89 36c0-26-10-43-35-43-54 0-67 50-69 103-1 29 14 45 42 46 53 0 62-58 62-106" id="af"/><path fill="#333" d="M133-28C103 26-5 8 13-77c13-62 24-115 90-117 29-1 46 15 56 35l19-102h32L160 0h-30zM45-64c-2 27 10 43 35 43 54-1 69-50 69-103 0-29-15-46-42-46-53-1-58 58-62 106" id="ag"/><path fill="#333" d="M151-220 108 0H75l42-220H32l6-28h203l-5 28h-85" id="ah"/><path fill="#fff" d="M247 0h-39l-15-214-24 57L95 0H56L31-248h35L82-30l101-218h33l16 218 101-218h35" id="ai"/><path fill="#fff" d="M30-147c31-64 166-65 159 27C183-49 158 1 86 4 9 8 1-88 30-147zM88-20c53 0 68-48 68-100 0-31-11-51-44-50-52 1-68 46-68 97 0 32 13 53 44 53" id="aj"/><path fill="#fff" d="M66-151c12-25 30-51 66-40l-6 26C45-176 58-65 38 0H6l36-190h30" id="ak"/><path fill="#fff" d="M127 0 80-88 50-66 37 0H6l51-261h31L57-100l99-90h39l-93 82L161 0h-34" id="al"/><path fill="#fff" d="M76-167 44 0H12l33-167H18l4-23h27c3-47 25-81 82-69l-4 24c-35-8-44 15-46 45h37l-5 23H76" id="am"/><path fill="#fff" d="m6 0 50-261h32L37 0H6" id="an"/><path fill="#fff" d="M188 0h-37l-8-164L71 0H34L18-190h31l8 164 75-164h34l8 164 74-164h31" id="ao"/><path fill="#fff" d="m87-220-18 92h140l-5 28H64L45 0H11l48-248h178l-5 28H87" id="ap"/><path fill="#fff" d="M67 3c-93-2-31-127-26-193h32L48-50c-3 39 53 32 70 12 30-34 30-101 43-152h32L157 0h-30c1-10 6-24 4-33-14 20-29 37-64 36" id="aq"/><path fill="#fff" d="M67-158c22-48 132-52 116 29L158 0h-32l25-140c3-38-53-32-70-12C52-117 51-52 38 0H6l36-190h30" id="ar"/><path fill="#fff" d="M44-68c0 29 11 47 38 47 30 0 42-19 51-41l28 9C148-21 126 4 82 4 31 4 10-29 12-85c3-77 74-140 146-93 12 8 15 23 18 40l-31 5c-1-22-13-36-36-36-52 0-65 49-65 101" id="as"/><path fill="#fff" d="M51-54c-9 22 5 41 31 30L79-1C43 14 10-4 19-52l22-115H19l5-23h22l19-43h21l-9 43h35l-4 23H73" id="at"/><path fill="#fff" d="m50-231 6-30h32l-6 30H50zM6 0l37-190h31L37 0H6" id="au"/><path fill="#333" d="M125-24c46 0 70-25 89-51l25 16C214-24 183 4 123 4 8 4-5-146 60-208c32-50 158-61 191-5 5 7 9 14 11 22l-32 10c-9-28-33-43-69-43-74 0-108 51-108 125 0 46 24 75 72 75" id="av"/><path fill="#333" d="M248-111c6-24 9-61-24-58-72 9-57 108-77 169h-31l26-142c3-37-50-30-64-10C52-115 50-51 37 0H6l36-190h30c-1 10-6 24-4 32 13-43 101-52 105 5 13-22 29-41 61-41 90 0 28 129 23 194h-31" id="aw"/><path fill="#333" d="M17-49c1-102 45-165 103-212h30C92-210 49-145 49-46 49 4 63 43 85 75H54C30 43 18 2 17-49" id="ax"/><path fill="#333" d="M98-137C97-35 54 29-4 75h-31C23 23 67-41 67-140c0-50-15-89-37-121h31c24 32 36 73 37 124" id="ay"/><path fill="#333" d="M67-158c15-20 31-36 64-36 94 0 33 127 27 194h-32l25-140c3-38-53-32-70-12C52-117 51-51 37 0H6l51-261h31" id="az"/><g id="a"><use transform="rotate(.413) scale(.06173)" xlink:href="#t"/><use transform="matrix(.06173 0 0 .06173 11.05 0)" xlink:href="#u"/><use transform="matrix(.06173 0 0 .06173 23.395 0)" xlink:href="#v"/><use transform="matrix(.06173 0 0 .06173 41.852 0)" xlink:href="#w"/><use transform="matrix(.06173 0 0 .06173 54.198 0)" xlink:href="#x"/><use transform="matrix(.06173 0 0 .06173 66.543 0)" xlink:href="#y"/><use transform="matrix(.06173 0 0 .06173 73.889 0)" xlink:href="#z"/><use transform="matrix(.06173 0 0 .06173 86.235 0)" xlink:href="#A"/></g><g id="b"><use transform="rotate(.413) scale(.06173)" xlink:href="#B"/><use transform="matrix(.06173 0 0 .06173 15.988 0)" xlink:href="#A"/><use transform="matrix(.06173 0 0 .06173 20.864 0)" xlink:href="#C"/><use transform="matrix(.06173 0 0 .06173 33.21 0)" xlink:href="#D"/><use transform="matrix(.06173 0 0 .06173 44.321 0)" xlink:href="#E"/><use transform="matrix(.06173 0 0 .06173 50.494 0)" xlink:href="#u"/><use transform="matrix(.06173 0 0 .06173 62.84 0)" xlink:href="#y"/></g><g id="c"><use transform="rotate(.413) scale(.06173)" xlink:href="#F"/><use transform="matrix(.06173 0 0 .06173 20.494 0)" xlink:href="#x"/><use transform="matrix(.06173 0 0 .06173 32.84 0)" xlink:href="#y"/><use transform="matrix(.06173 0 0 .06173 40.185 0)" xlink:href="#G"/><use transform="matrix(.06173 0 0 .06173 51.296 0)" xlink:href="#u"/><use transform="matrix(.06173 0 0 .06173 63.642 0)" xlink:href="#y"/></g><g id="d"><use transform="rotate(.413) scale(.06173)" xlink:href="#H"/><use transform="matrix(.06173 0 0 .06173 14.815 0)" xlink:href="#I"/><use transform="matrix(.06173 0 0 .06173 27.16 0)" xlink:href="#E"/><use transform="matrix(.06173 0 0 .06173 33.333 0)" xlink:href="#J"/><use transform="matrix(.06173 0 0 .06173 38.21 0)" xlink:href="#E"/><use transform="matrix(.06173 0 0 .06173 44.383 0)" xlink:href="#K"/></g><g id="e"><use transform="rotate(.413) scale(.06173)" xlink:href="#L"/><use transform="matrix(.06173 0 0 .06173 14.815 0)" xlink:href="#M"/><use transform="matrix(.06173 0 0 .06173 20.988 0)" xlink:href="#N"/><use transform="matrix(.06173 0 0 .06173 33.333 0)" xlink:href="#O"/><use transform="matrix(.06173 0 0 .06173 40.679 0)" xlink:href="#M"/></g><g id="f"><use transform="rotate(.413) scale(.06173)" xlink:href="#P"/><use transform="matrix(.06173 0 0 .06173 20.926 0)" xlink:href="#Q"/><use transform="matrix(.06173 0 0 .06173 33.272 0)" xlink:href="#O"/><use transform="matrix(.06173 0 0 .06173 40.617 0)" xlink:href="#R"/><use transform="matrix(.06173 0 0 .06173 51.728 0)" xlink:href="#S"/><use transform="matrix(.06173 0 0 .06173 57.901 0)" xlink:href="#T"/><use transform="matrix(.06173 0 0 .06173 62.778 0)" xlink:href="#Q"/><use transform="matrix(.06173 0 0 .06173 75.123 0)" xlink:href="#U"/></g><g id="g"><use transform="rotate(.413) scale(.06173)" xlink:href="#V"/><use transform="matrix(.06173 0 0 .06173 14.815 0)" xlink:href="#W"/><use transform="matrix(.06173 0 0 .06173 25.926 0)" xlink:href="#X"/><use transform="matrix(.06173 0 0 .06173 38.272 0)" xlink:href="#Y"/><use transform="matrix(.06173 0 0 .06173 49.383 0)" xlink:href="#Z"/><use transform="matrix(.06173 0 0 .06173 61.728 0)" xlink:href="#M"/><use transform="matrix(.06173 0 0 .06173 67.901 0)" xlink:href="#aa"/><use transform="matrix(.06173 0 0 .06173 72.778 0)" xlink:href="#Q"/><use transform="matrix(.06173 0 0 .06173 85.123 0)" xlink:href="#ab"/></g><g id="h"><use transform="scale(.05556)" xlink:href="#ac"/><use transform="matrix(.05556 0 0 .05556 13.333 0)" xlink:href="#O"/><use transform="matrix(.05556 0 0 .05556 19.944 0)" xlink:href="#Q"/><use transform="matrix(.05556 0 0 .05556 31.056 0)" xlink:href="#ad"/><use transform="matrix(.05556 0 0 .05556 42.167 0)" xlink:href="#O"/><use transform="matrix(.05556 0 0 .05556 48.778 0)" xlink:href="#X"/><use transform="matrix(.05556 0 0 .05556 59.889 0)" xlink:href="#ae"/><use transform="matrix(.05556 0 0 .05556 69.889 0)" xlink:href="#ae"/><use transform="matrix(.05556 0 0 .05556 79.889 0)" xlink:href="#aa"/><use transform="matrix(.05556 0 0 .05556 84.278 0)" xlink:href="#ab"/><use transform="matrix(.05556 0 0 .05556 95.389 0)" xlink:href="#ad"/></g><g id="i"><use transform="scale(.05556)" xlink:href="#L"/><use transform="matrix(.05556 0 0 .05556 13.333 0)" xlink:href="#Z"/><use transform="matrix(.05556 0 0 .05556 24.444 0)" xlink:href="#ae"/><use transform="matrix(.05556 0 0 .05556 34.444 0)" xlink:href="#af"/><use transform="matrix(.05556 0 0 .05556 45.556 0)" xlink:href="#X"/><use transform="matrix(.05556 0 0 .05556 56.667 0)" xlink:href="#ab"/><use transform="matrix(.05556 0 0 .05556 67.778 0)" xlink:href="#ag"/><use transform="matrix(.05556 0 0 .05556 78.889 0)" xlink:href="#X"/><use transform="matrix(.05556 0 0 .05556 90 0)" xlink:href="#ag"/></g><g id="j"><use transform="rotate(.413) scale(.06173)" xlink:href="#P"/><use transform="matrix(.06173 0 0 .06173 20.926 0)" xlink:href="#Q"/><use transform="matrix(.06173 0 0 .06173 33.272 0)" xlink:href="#O"/><use transform="matrix(.06173 0 0 .06173 40.617 0)" xlink:href="#R"/><use transform="matrix(.06173 0 0 .06173 51.728 0)" xlink:href="#S"/><use transform="matrix(.06173 0 0 .06173 57.901 0)" xlink:href="#T"/><use transform="matrix(.06173 0 0 .06173 62.778 0)" xlink:href="#Q"/><use transform="matrix(.06173 0 0 .06173 75.123 0)" xlink:href="#U"/><use transform="matrix(.06173 0 0 .06173 91.111 0)" xlink:href="#ah"/><use transform="matrix(.06173 0 0 .06173 102.593 0)" xlink:href="#N"/><use transform="matrix(.06173 0 0 .06173 114.938 0)" xlink:href="#ae"/><use transform="matrix(.06173 0 0 .06173 126.05 0)" xlink:href="#R"/><use transform="matrix(.06173 0 0 .06173 137.16 0)" xlink:href="#L"/><use transform="matrix(.06173 0 0 .06173 151.975 0)" xlink:href="#M"/><use transform="matrix(.06173 0 0 .06173 158.148 0)" xlink:href="#N"/><use transform="matrix(.06173 0 0 .06173 170.494 0)" xlink:href="#O"/><use transform="matrix(.06173 0 0 .06173 177.84 0)" xlink:href="#M"/><use transform="matrix(.06173 0 0 .06173 184.012 0)" xlink:href="#X"/><use transform="matrix(.06173 0 0 .06173 196.358 0)" xlink:href="#ag"/></g><g id="k"><use transform="rotate(.413) scale(.06173)" xlink:href="#ai"/><use transform="matrix(.06173 0 0 .06173 20.926 0)" xlink:href="#aj"/><use transform="matrix(.06173 0 0 .06173 33.272 0)" xlink:href="#ak"/><use transform="matrix(.06173 0 0 .06173 40.617 0)" xlink:href="#al"/><use transform="matrix(.06173 0 0 .06173 51.728 0)" xlink:href="#am"/><use transform="matrix(.06173 0 0 .06173 57.901 0)" xlink:href="#an"/><use transform="matrix(.06173 0 0 .06173 62.778 0)" xlink:href="#aj"/><use transform="matrix(.06173 0 0 .06173 75.123 0)" xlink:href="#ao"/></g><g id="l"><use transform="rotate(.413) scale(.06173)" xlink:href="#ap"/><use transform="matrix(.06173 0 0 .06173 13.519 0)" xlink:href="#aq"/><use transform="matrix(.06173 0 0 .06173 25.864 0)" xlink:href="#ar"/><use transform="matrix(.06173 0 0 .06173 38.21 0)" xlink:href="#as"/><use transform="matrix(.06173 0 0 .06173 49.321 0)" xlink:href="#at"/><use transform="matrix(.06173 0 0 .06173 55.494 0)" xlink:href="#au"/><use transform="matrix(.06173 0 0 .06173 60.37 0)" xlink:href="#aj"/><use transform="matrix(.06173 0 0 .06173 72.716 0)" xlink:href="#ar"/></g><g id="m"><use transform="rotate(.413) scale(.06173)" xlink:href="#P"/><use transform="matrix(.06173 0 0 .06173 20.926 0)" xlink:href="#Q"/><use transform="matrix(.06173 0 0 .06173 33.272 0)" xlink:href="#O"/><use transform="matrix(.06173 0 0 .06173 40.617 0)" xlink:href="#R"/><use transform="matrix(.06173 0 0 .06173 51.728 0)" xlink:href="#S"/><use transform="matrix(.06173 0 0 .06173 57.901 0)" xlink:href="#T"/><use transform="matrix(.06173 0 0 .06173 62.778 0)" xlink:href="#Q"/><use transform="matrix(.06173 0 0 .06173 75.123 0)" xlink:href="#U"/></g><g id="n"><use transform="rotate(.413) scale(.06173)" xlink:href="#ah"/><use transform="matrix(.06173 0 0 .06173 11.481 0)" xlink:href="#N"/><use transform="matrix(.06173 0 0 .06173 23.827 0)" xlink:href="#ae"/><use transform="matrix(.06173 0 0 .06173 34.938 0)" xlink:href="#R"/></g><g id="o"><use transform="rotate(.413) scale(.06173)" xlink:href="#av"/><use transform="matrix(.06173 0 0 .06173 15.988 0)" xlink:href="#Q"/><use transform="matrix(.06173 0 0 .06173 28.333 0)" xlink:href="#aw"/><use transform="matrix(.06173 0 0 .06173 46.79 0)" xlink:href="#aw"/><use transform="matrix(.06173 0 0 .06173 65.247 0)" xlink:href="#N"/><use transform="matrix(.06173 0 0 .06173 77.593 0)" xlink:href="#ab"/><use transform="matrix(.06173 0 0 .06173 89.938 0)" xlink:href="#ag"/><use transform="matrix(.06173 0 0 .06173 102.284 0)" xlink:href="#ax"/><use transform="matrix(.06173 0 0 .06173 109.63 0)" xlink:href="#ae"/><use transform="matrix(.06173 0 0 .06173 120.74 0)" xlink:href="#ay"/></g><g id="p"><use transform="rotate(.413) scale(.06173)" xlink:href="#P"/><use transform="matrix(.06173 0 0 .06173 20.926 0)" xlink:href="#Q"/><use transform="matrix(.06173 0 0 .06173 33.272 0)" xlink:href="#O"/><use transform="matrix(.06173 0 0 .06173 40.617 0)" xlink:href="#R"/><use transform="matrix(.06173 0 0 .06173 51.728 0)" xlink:href="#S"/><use transform="matrix(.06173 0 0 .06173 57.901 0)" xlink:href="#T"/><use transform="matrix(.06173 0 0 .06173 62.778 0)" xlink:href="#Q"/><use transform="matrix(.06173 0 0 .06173 75.123 0)" xlink:href="#U"/><use transform="matrix(.06173 0 0 .06173 91.111 0)" xlink:href="#ah"/><use transform="matrix(.06173 0 0 .06173 102.593 0)" xlink:href="#N"/><use transform="matrix(.06173 0 0 .06173 114.938 0)" xlink:href="#ae"/><use transform="matrix(.06173 0 0 .06173 126.05 0)" xlink:href="#R"/><use transform="matrix(.06173 0 0 .06173 137.16 0)" xlink:href="#av"/><use transform="matrix(.06173 0 0 .06173 153.148 0)" xlink:href="#Q"/><use transform="matrix(.06173 0 0 .06173 165.494 0)" xlink:href="#aw"/><use transform="matrix(.06173 0 0 .06173 183.95 0)" xlink:href="#af"/><use transform="matrix(.06173 0 0 .06173 196.296 0)" xlink:href="#T"/><use transform="matrix(.06173 0 0 .06173 201.173 0)" xlink:href="#X"/><use transform="matrix(.06173 0 0 .06173 213.519 0)" xlink:href="#M"/><use transform="matrix(.06173 0 0 .06173 219.691 0)" xlink:href="#X"/><use transform="matrix(.06173 0 0 .06173 232.037 0)" xlink:href="#ag"/></g><g id="q"><use transform="rotate(.413) scale(.06173)" xlink:href="#P"/><use transform="matrix(.06173 0 0 .06173 20.926 0)" xlink:href="#Q"/><use transform="matrix(.06173 0 0 .06173 33.272 0)" xlink:href="#O"/><use transform="matrix(.06173 0 0 .06173 40.617 0)" xlink:href="#R"/><use transform="matrix(.06173 0 0 .06173 51.728 0)" xlink:href="#S"/><use transform="matrix(.06173 0 0 .06173 57.901 0)" xlink:href="#T"/><use transform="matrix(.06173 0 0 .06173 62.778 0)" xlink:href="#Q"/><use transform="matrix(.06173 0 0 .06173 75.123 0)" xlink:href="#U"/><use transform="matrix(.06173 0 0 .06173 91.111 0)" xlink:href="#V"/><use transform="matrix(.06173 0 0 .06173 105.926 0)" xlink:href="#W"/><use transform="matrix(.06173 0 0 .06173 117.037 0)" xlink:href="#X"/><use transform="matrix(.06173 0 0 .06173 129.383 0)" xlink:href="#Y"/><use transform="matrix(.06173 0 0 .06173 140.494 0)" xlink:href="#Z"/><use transform="matrix(.06173 0 0 .06173 152.84 0)" xlink:href="#M"/><use transform="matrix(.06173 0 0 .06173 159.012 0)" xlink:href="#aa"/><use transform="matrix(.06173 0 0 .06173 163.889 0)" xlink:href="#Q"/><use transform="matrix(.06173 0 0 .06173 176.235 0)" xlink:href="#ab"/><use transform="matrix(.06173 0 0 .06173 188.58 0)" xlink:href="#L"/><use transform="matrix(.06173 0 0 .06173 203.395 0)" xlink:href="#M"/><use transform="matrix(.06173 0 0 .06173 209.568 0)" xlink:href="#N"/><use transform="matrix(.06173 0 0 .06173 221.914 0)" xlink:href="#O"/><use transform="matrix(.06173 0 0 .06173 229.26 0)" xlink:href="#M"/><use transform="matrix(.06173 0 0 .06173 235.432 0)" xlink:href="#X"/><use transform="matrix(.06173 0 0 .06173 247.778 0)" xlink:href="#ag"/></g><g id="r"><use transform="rotate(.413) scale(.06173)" xlink:href="#P"/><use transform="matrix(.06173 0 0 .06173 20.926 0)" xlink:href="#Q"/><use transform="matrix(.06173 0 0 .06173 33.272 0)" xlink:href="#O"/><use transform="matrix(.06173 0 0 .06173 40.617 0)" xlink:href="#R"/><use transform="matrix(.06173 0 0 .06173 51.728 0)" xlink:href="#S"/><use transform="matrix(.06173 0 0 .06173 57.901 0)" xlink:href="#T"/><use transform="matrix(.06173 0 0 .06173 62.778 0)" xlink:href="#Q"/><use transform="matrix(.06173 0 0 .06173 75.123 0)" xlink:href="#U"/><use transform="matrix(.06173 0 0 .06173 91.111 0)" xlink:href="#ah"/><use transform="matrix(.06173 0 0 .06173 102.593 0)" xlink:href="#N"/><use transform="matrix(.06173 0 0 .06173 114.938 0)" xlink:href="#ae"/><use transform="matrix(.06173 0 0 .06173 126.05 0)" xlink:href="#R"/><use transform="matrix(.06173 0 0 .06173 137.16 0)" xlink:href="#L"/><use transform="matrix(.06173 0 0 .06173 151.975 0)" xlink:href="#Y"/><use transform="matrix(.06173 0 0 .06173 163.086 0)" xlink:href="#az"/><use transform="matrix(.06173 0 0 .06173 175.432 0)" xlink:href="#X"/><use transform="matrix(.06173 0 0 .06173 187.778 0)" xlink:href="#ag"/><use transform="matrix(.06173 0 0 .06173 200.123 0)" xlink:href="#Z"/><use transform="matrix(.06173 0 0 .06173 212.47 0)" xlink:href="#T"/><use transform="matrix(.06173 0 0 .06173 217.346 0)" xlink:href="#X"/><use transform="matrix(.06173 0 0 .06173 229.691 0)" xlink:href="#ag"/></g><g id="s"><use transform="rotate(.413) scale(.06173)" xlink:href="#P"/><use transform="matrix(.06173 0 0 .06173 20.926 0)" xlink:href="#Q"/><use transform="matrix(.06173 0 0 .06173 33.272 0)" xlink:href="#O"/><use transform="matrix(.06173 0 0 .06173 40.617 0)" xlink:href="#R"/><use transform="matrix(.06173 0 0 .06173 51.728 0)" xlink:href="#S"/><use transform="matrix(.06173 0 0 .06173 57.901 0)" xlink:href="#T"/><use transform="matrix(.06173 0 0 .06173 62.778 0)" xlink:href="#Q"/><use transform="matrix(.06173 0 0 .06173 75.123 0)" xlink:href="#U"/><use transform="matrix(.06173 0 0 .06173 91.111 0)" xlink:href="#V"/><use transform="matrix(.06173 0 0 .06173 105.926 0)" xlink:href="#W"/><use transform="matrix(.06173 0 0 .06173 117.037 0)" xlink:href="#X"/><use transform="matrix(.06173 0 0 .06173 129.383 0)" xlink:href="#Y"/><use transform="matrix(.06173 0 0 .06173 140.494 0)" xlink:href="#Z"/><use transform="matrix(.06173 0 0 .06173 152.84 0)" xlink:href="#M"/><use transform="matrix(.06173 0 0 .06173 159.012 0)" xlink:href="#aa"/><use transform="matrix(.06173 0 0 .06173 163.889 0)" xlink:href="#Q"/><use transform="matrix(.06173 0 0 .06173 176.235 0)" xlink:href="#ab"/><use transform="matrix(.06173 0 0 .06173 188.58 0)" xlink:href="#av"/><use transform="matrix(.06173 0 0 .06173 204.568 0)" xlink:href="#Q"/><use transform="matrix(.06173 0 0 .06173 216.914 0)" xlink:href="#aw"/><use transform="matrix(.06173 0 0 .06173 235.37 0)" xlink:href="#af"/><use transform="matrix(.06173 0 0 .06173 247.716 0)" xlink:href="#T"/><use transform="matrix(.06173 0 0 .06173 252.593 0)" xlink:href="#X"/><use transform="matrix(.06173 0 0 .06173 264.938 0)" xlink:href="#M"/><use transform="matrix(.06173 0 0 .06173 271.111 0)" xlink:href="#X"/><use transform="matrix(.06173 0 0 .06173 283.457 0)" xlink:href="#ag"/></g></defs></g></svg>