<svg xmlns="http://www.w3.org/2000/svg" xmlns:xlink="http://www.w3.org/1999/xlink" xmlns:lucid="lucid" width="500" height="383.33"><g transform="translate(-900 620)" lucid:page-tab-id="0_0"><path d="M920-585c0-8.28 6.72-15 15-15h430c8.28 0 15 6.72 15 15v210c0 8.28-6.72 15-15 15H935c-8.28 0-15-6.72-15-15z" stroke="#333" stroke-width="3" fill="#141414"/><use xlink:href="#a" transform="matrix(1,0,0,1,945,-575) translate(100.97530864197532 24.888888888888886)"/><use xlink:href="#b" transform="matrix(1,0,0,1,945,-575) translate(206.62962962962962 24.888888888888886)"/><path d="M1085.7-457.16c0 34.7-28.15 62.85-62.86 62.85-34.7 0-62.84-28.15-62.84-62.86 0-34.7 28.14-62.84 62.84-62.84s62.85 28.14 62.85 62.84z" stroke="#fff" stroke-width="3" fill="#fff"/><use xlink:href="#c" transform="matrix(1,0,0,1,965,-515) translate(-1.1666666666666572 62.44444444444444)"/><path d="M1083.88-480.28h67.28c.03 0 .05.03.05.06s.04.06.07.06h49.77" stroke="#fff" stroke-width="2" fill="none"/><path d="M1083.9-479.28h-.66l-.56-1.57-.2-.43h1.43z" fill="#fff"/><path d="M1216.3-480.16l-14.26 4.63v-9.27z" stroke="#fff" stroke-width="2" fill="#fff"/><path d="M1217.03-438.42h-114.15" stroke="#fff" stroke-width="2" fill="none"/><path d="M1218.08-438.25l.3.83H1217v-2h.77z" fill="#fff"/><path d="M1087.6-438.42l14.28-4.64v9.27z" stroke="#fff" stroke-width="2" fill="#fff"/><path d="M1342.44-457.16c0 34.7-28.13 62.85-62.84 62.85-34.7 0-62.84-28.15-62.84-62.86 0-34.7 28.13-62.84 62.84-62.84 34.7 0 62.84 28.14 62.84 62.84z" stroke="#fff" stroke-width="3" fill="#fff"/><use xlink:href="#d" transform="matrix(1,0,0,1,1221.7558039515732,-515) translate(1.8271604938271793 61.27777777777777)"/><path d="M1080-314c0-3.3 2.7-6 6-6h128c3.3 0 6 2.7 6 6v51.33c0 3.32-2.7 6-6 6h-128c-3.3 0-6-2.68-6-6z" stroke="#000" stroke-opacity="0" stroke-width="3" fill="#fff" fill-opacity="0"/><use xlink:href="#e" transform="matrix(1,0,0,1,1085,-315) translate(23.703703703703738 17.777777777777764)"/><use xlink:href="#f" transform="matrix(1,0,0,1,1085,-315) translate(30.493827160493858 44.444444444444414)"/><path d="M1150-321v-36.5" stroke="#333" stroke-width="2" fill="none"/><path d="M1151-320h-2v-1.03h2zM1151-357.47h-2v-1.03h2z" fill="#333"/><defs><path fill="#fff" d="M266 0h-40l-56-210L115 0H75L2-248h35L96-30l15-64 43-154h32l59 218 59-218h35" id="g"/><path fill="#fff" d="M100-194c62-1 85 37 85 99 1 63-27 99-86 99S16-35 15-95c0-66 28-99 85-99zM99-20c44 1 53-31 53-75 0-43-8-75-51-75s-53 32-53 75 10 74 51 75" id="h"/><path fill="#fff" d="M114-163C36-179 61-72 57 0H25l-1-190h30c1 12-1 29 2 39 6-27 23-49 58-41v29" id="i"/><path fill="#fff" d="M143 0L79-87 56-68V0H24v-261h32v163l83-92h37l-77 82L181 0h-38" id="j"/><path fill="#fff" d="M101-234c-31-9-42 10-38 44h38v23H63V0H32v-167H5v-23h27c-7-52 17-82 69-68v24" id="k"/><path fill="#fff" d="M24 0v-261h32V0H24" id="l"/><path fill="#fff" d="M206 0h-36l-40-164L89 0H53L-1-190h32L70-26l43-164h34l41 164 42-164h31" id="m"/><g id="a"><use transform="matrix(0.08641975308641973,0,0,0.08641975308641973,0,0)" xlink:href="#g"/><use transform="matrix(0.06172839506172839,0,0,0.06172839506172839,29.29629629629629,0)" xlink:href="#h"/><use transform="matrix(0.06172839506172839,0,0,0.06172839506172839,41.64197530864197,0)" xlink:href="#i"/><use transform="matrix(0.06172839506172839,0,0,0.06172839506172839,48.987654320987644,0)" xlink:href="#j"/><use transform="matrix(0.06172839506172839,0,0,0.06172839506172839,60.09876543209876,0)" xlink:href="#k"/><use transform="matrix(0.06172839506172839,0,0,0.06172839506172839,66.2716049382716,0)" xlink:href="#l"/><use transform="matrix(0.06172839506172839,0,0,0.06172839506172839,71.14814814814814,0)" xlink:href="#h"/><use transform="matrix(0.06172839506172839,0,0,0.06172839506172839,83.49382716049382,0)" xlink:href="#m"/></g><path fill="#fff" d="M30 0v-248h187v28H63v79h144v27H63v87h162V0H30" id="n"/><path fill="#fff" d="M141 0L90-78 38 0H4l68-98-65-92h35l48 74 47-74h35l-64 92 68 98h-35" id="o"/><path fill="#fff" d="M100-194c63 0 86 42 84 106H49c0 40 14 67 53 68 26 1 43-12 49-29l28 8c-11 28-37 45-77 45C44 4 14-33 15-96c1-61 26-98 85-98zm52 81c6-60-76-77-97-28-3 7-6 17-6 28h103" id="p"/><path fill="#fff" d="M96-169c-40 0-48 33-48 73s9 75 48 75c24 0 41-14 43-38l32 2c-6 37-31 61-74 61-59 0-76-41-82-99-10-93 101-131 147-64 4 7 5 14 7 22l-32 3c-4-21-16-35-41-35" id="q"/><path fill="#fff" d="M84 4C-5 8 30-112 23-190h32v120c0 31 7 50 39 49 72-2 45-101 50-169h31l1 190h-30c-1-10 1-25-2-33-11 22-28 36-60 37" id="r"/><path fill="#fff" d="M59-47c-2 24 18 29 38 22v24C64 9 27 4 27-40v-127H5v-23h24l9-43h21v43h35v23H59v120" id="s"/><path fill="#fff" d="M24-231v-30h32v30H24zM24 0v-190h32V0H24" id="t"/><path fill="#fff" d="M117-194c89-4 53 116 60 194h-32v-121c0-31-8-49-39-48C34-167 62-67 57 0H25l-1-190h30c1 10-1 24 2 32 11-22 29-35 61-36" id="u"/><g id="b"><use transform="matrix(0.08641975308641973,0,0,0.08641975308641973,0,0)" xlink:href="#n"/><use transform="matrix(0.06172839506172839,0,0,0.06172839506172839,20.740740740740737,0)" xlink:href="#o"/><use transform="matrix(0.06172839506172839,0,0,0.06172839506172839,31.85185185185185,0)" xlink:href="#p"/><use transform="matrix(0.06172839506172839,0,0,0.06172839506172839,44.197530864197525,0)" xlink:href="#q"/><use transform="matrix(0.06172839506172839,0,0,0.06172839506172839,55.30864197530863,0)" xlink:href="#r"/><use transform="matrix(0.06172839506172839,0,0,0.06172839506172839,67.65432098765432,0)" xlink:href="#s"/><use transform="matrix(0.06172839506172839,0,0,0.06172839506172839,73.82716049382715,0)" xlink:href="#t"/><use transform="matrix(0.06172839506172839,0,0,0.06172839506172839,78.7037037037037,0)" xlink:href="#h"/><use transform="matrix(0.06172839506172839,0,0,0.06172839506172839,91.04938271604938,0)" xlink:href="#u"/></g><path fill="#333" d="M30-248c87 1 191-15 191 75 0 78-77 80-158 76V0H30v-248zm33 125c57 0 124 11 124-50 0-59-68-47-124-48v98" id="v"/><path fill="#333" d="M114-163C36-179 61-72 57 0H25l-1-190h30c1 12-1 29 2 39 6-27 23-49 58-41v29" id="w"/><path fill="#333" d="M100-194c62-1 85 37 85 99 1 63-27 99-86 99S16-35 15-95c0-66 28-99 85-99zM99-20c44 1 53-31 53-75 0-43-8-75-51-75s-53 32-53 75 10 74 51 75" id="x"/><path fill="#333" d="M177-190C167-65 218 103 67 71c-23-6-38-20-44-43l32-5c15 47 100 32 89-28v-30C133-14 115 1 83 1 29 1 15-40 15-95c0-56 16-97 71-98 29-1 48 16 59 35 1-10 0-23 2-32h30zM94-22c36 0 50-32 50-73 0-42-14-75-50-75-39 0-46 34-46 75s6 73 46 73" id="y"/><path fill="#333" d="M100-194c63 0 86 42 84 106H49c0 40 14 67 53 68 26 1 43-12 49-29l28 8c-11 28-37 45-77 45C44 4 14-33 15-96c1-61 26-98 85-98zm52 81c6-60-76-77-97-28-3 7-6 17-6 28h103" id="z"/><path fill="#333" d="M135-143c-3-34-86-38-87 0 15 53 115 12 119 90S17 21 10-45l28-5c4 36 97 45 98 0-10-56-113-15-118-90-4-57 82-63 122-42 12 7 21 19 24 35" id="A"/><path fill="#333" d="M24-231v-30h32v30H24zM24 0v-190h32V0H24" id="B"/><path fill="#333" d="M117-194c89-4 53 116 60 194h-32v-121c0-31-8-49-39-48C34-167 62-67 57 0H25l-1-190h30c1 10-1 24 2 32 11-22 29-35 61-36" id="C"/><g id="c"><use transform="matrix(0.061728395061728385,0,0,0.061728395061728385,0,0)" xlink:href="#v"/><use transform="matrix(0.061728395061728385,0,0,0.061728395061728385,14.814814814814813,0)" xlink:href="#w"/><use transform="matrix(0.061728395061728385,0,0,0.061728395061728385,22.16049382716049,0)" xlink:href="#x"/><use transform="matrix(0.061728395061728385,0,0,0.061728395061728385,34.50617283950616,0)" xlink:href="#y"/><use transform="matrix(0.061728395061728385,0,0,0.061728395061728385,46.85185185185184,0)" xlink:href="#w"/><use transform="matrix(0.061728395061728385,0,0,0.061728395061728385,54.19753086419752,0)" xlink:href="#z"/><use transform="matrix(0.061728395061728385,0,0,0.061728395061728385,66.54320987654319,0)" xlink:href="#A"/><use transform="matrix(0.061728395061728385,0,0,0.061728395061728385,77.6543209876543,0)" xlink:href="#A"/><use transform="matrix(0.061728395061728385,0,0,0.061728395061728385,88.76543209876542,0)" xlink:href="#B"/><use transform="matrix(0.061728395061728385,0,0,0.061728395061728385,93.64197530864196,0)" xlink:href="#C"/><use transform="matrix(0.061728395061728385,0,0,0.061728395061728385,105.98765432098764,0)" xlink:href="#y"/></g><path fill="#333" d="M185-189c-5-48-123-54-124 2 14 75 158 14 163 119 3 78-121 87-175 55-17-10-28-26-33-46l33-7c5 56 141 63 141-1 0-78-155-14-162-118-5-82 145-84 179-34 5 7 8 16 11 25" id="D"/><path fill="#333" d="M84 4C-5 8 30-112 23-190h32v120c0 31 7 50 39 49 72-2 45-101 50-169h31l1 190h-30c-1-10 1-25-2-33-11 22-28 36-60 37" id="E"/><path fill="#333" d="M115-194c55 1 70 41 70 98S169 2 115 4C84 4 66-9 55-30l1 105H24l-1-265h31l2 30c10-21 28-34 59-34zm-8 174c40 0 45-34 45-75s-6-73-45-74c-42 0-51 32-51 76 0 43 10 73 51 73" id="F"/><path fill="#333" d="M85-194c31 0 48 13 60 33l-1-100h32l1 261h-30c-2-10 0-23-3-31C134-8 116 4 85 4 32 4 16-35 15-94c0-66 23-100 70-100zm9 24c-40 0-46 34-46 75 0 40 6 74 45 74 42 0 51-32 51-76 0-42-9-74-50-73" id="G"/><g id="d"><use transform="matrix(0.061728395061728385,0,0,0.061728395061728385,0,0)" xlink:href="#D"/><use transform="matrix(0.061728395061728385,0,0,0.061728395061728385,14.814814814814813,0)" xlink:href="#E"/><use transform="matrix(0.061728395061728385,0,0,0.061728395061728385,27.16049382716049,0)" xlink:href="#A"/><use transform="matrix(0.061728395061728385,0,0,0.061728395061728385,38.2716049382716,0)" xlink:href="#F"/><use transform="matrix(0.061728395061728385,0,0,0.061728395061728385,50.61728395061728,0)" xlink:href="#z"/><use transform="matrix(0.061728395061728385,0,0,0.061728395061728385,62.962962962962955,0)" xlink:href="#C"/><use transform="matrix(0.061728395061728385,0,0,0.061728395061728385,75.30864197530863,0)" xlink:href="#G"/><use transform="matrix(0.061728395061728385,0,0,0.061728395061728385,87.6543209876543,0)" xlink:href="#z"/><use transform="matrix(0.061728395061728385,0,0,0.061728395061728385,99.99999999999997,0)" xlink:href="#G"/></g><path fill="#333" d="M249-183c0 48-29 72-75 77L221 0h-36l-43-103H65L45 0H11l48-248c83 2 190-17 190 65zm-34 3c0-55-74-39-127-41l-18 92c63-1 145 13 145-51" id="H"/><path fill="#333" d="M67 3c-93-2-31-127-26-193h32L48-50c-3 39 53 32 70 12 30-34 30-101 43-152h32L157 0h-30c1-10 6-24 4-33-14 20-29 37-64 36" id="I"/><path fill="#333" d="M67-158c22-48 132-52 116 29L158 0h-32l25-140c3-38-53-32-70-12C52-117 51-52 38 0H6l36-190h30" id="J"/><path fill="#333" d="M50-231l6-30h32l-6 30H50zM6 0l37-190h31L37 0H6" id="K"/><path fill="#333" d="M103-194c29 0 47 14 56 36 2-11 5-23 8-32h30L160-5C157 61 82 97 21 62 9 55 4 45 1 30l28-7c7 42 83 31 92-3 4-16 9-38 13-55-13 20-29 36-62 36-40 0-60-25-60-64 0-71 23-131 91-131zm4 24c-53 0-58 54-61 104-2 27 10 44 36 44 49 0 65-50 67-102 1-29-15-46-42-46" id="L"/><g id="e"><use transform="matrix(0.06172839506172834,0,0,0.06172839506172834,0,0)" xlink:href="#H"/><use transform="matrix(0.06172839506172834,0,0,0.06172839506172834,15.987654320987641,0)" xlink:href="#I"/><use transform="matrix(0.06172839506172834,0,0,0.06172839506172834,28.333333333333307,0)" xlink:href="#J"/><use transform="matrix(0.06172839506172834,0,0,0.06172839506172834,40.67901234567898,0)" xlink:href="#J"/><use transform="matrix(0.06172839506172834,0,0,0.06172839506172834,53.02469135802465,0)" xlink:href="#K"/><use transform="matrix(0.06172839506172834,0,0,0.06172839506172834,57.901234567901184,0)" xlink:href="#J"/><use transform="matrix(0.06172839506172834,0,0,0.06172839506172834,70.24691358024685,0)" xlink:href="#L"/></g><path fill="#333" d="M17-49c1-102 45-165 103-212h30C92-210 49-145 49-46 49 4 63 43 85 75H54C30 43 18 2 17-49" id="M"/><path fill="#333" d="M20-101c0-91 52-143 145-150 126-9 127 168 53 223-23 17-55 32-93 32C57 4 20-33 20-101zm216-33c5-57-18-91-73-90-77 1-110 51-110 125 0 49 23 75 73 75 72-1 104-45 110-110" id="N"/><path fill="#333" d="M67-162c32-53 139-36 121 50C175-51 163 2 97 4 68 4 52-11 42-31 38 6 28 39 22 75H-9l50-265h29c-1 10 0 20-3 28zm89 36c0-26-10-43-35-43-54 0-67 50-69 103-1 29 14 45 42 46 53 0 62-58 62-106" id="O"/><path fill="#333" d="M111-194c62-3 86 47 72 106H45c-7 38 6 69 45 68 27-1 43-14 53-32l24 11C152-15 129 4 87 4 38 3 12-23 12-71c0-70 32-119 99-123zm44 81c14-66-71-72-95-28-4 8-8 17-11 28h106" id="P"/><path fill="#333" d="M98-137C97-35 54 29-4 75h-31C23 23 67-41 67-140c0-50-15-89-37-121h31c24 32 36 73 37 124" id="Q"/><g id="f"><use transform="matrix(0.06172839506172834,0,0,0.06172839506172834,0,0)" xlink:href="#M"/><use transform="matrix(0.06172839506172834,0,0,0.06172839506172834,7.3456790123456726,0)" xlink:href="#N"/><use transform="matrix(0.06172839506172834,0,0,0.06172839506172834,24.62962962962961,0)" xlink:href="#O"/><use transform="matrix(0.06172839506172834,0,0,0.06172839506172834,36.975308641975275,0)" xlink:href="#P"/><use transform="matrix(0.06172839506172834,0,0,0.06172839506172834,49.320987654320945,0)" xlink:href="#J"/><use transform="matrix(0.06172839506172834,0,0,0.06172839506172834,61.666666666666615,0)" xlink:href="#Q"/></g></defs></g></svg>