<svg xmlns="http://www.w3.org/2000/svg" xmlns:xlink="http://www.w3.org/1999/xlink" xmlns:lucid="lucid" width="1140" height="440"><g transform="translate(-180 -620)" lucid:page-tab-id="0_0"><path d="M0 0h1870.87v1322.83H0z" fill="#fff"/><path d="M200 641a1 1 0 0 1 1-1h1098a1 1 0 0 1 1 1v398a1 1 0 0 1-1 1H201a1 1 0 0 1-1-1z" fill="#fff"/><path d="M340 776.83a6 6 0 0 1 6-6h148a6 6 0 0 1 6 6v148a6 6 0 0 1-6 6H346a6 6 0 0 1-6-6z" stroke="#3a414a" fill="#fff"/><use xlink:href="#a" transform="translate(374.66 840.486)"/><use xlink:href="#b" transform="translate(373.827 867.153)"/><path d="M640 776.83a6 6 0 0 1 6-6h148a6 6 0 0 1 6 6v148a6 6 0 0 1-6 6H646a6 6 0 0 1-6-6z" stroke="#3a414a" fill="#fff"/><use xlink:href="#c" transform="translate(674.66 840.486)"/><use xlink:href="#d" transform="translate(695.957 867.153)"/><path d="M940 770.83h160v160H940z" stroke="#3a414a" fill="#fff"/><use xlink:href="#e" transform="translate(971.574 840.486)"/><use xlink:href="#f" transform="translate(971.265 867.153)"/><path d="M639.04 850.83h-122.2" stroke="#3a414a" fill="none"/><path d="M639.54 851.33h-.52v-1h.52z" stroke="#3a414a" stroke-width=".05" fill="#3a414a"/><path d="m502.08 850.83 14.27-4.63v9.27z" stroke="#3a414a" fill="#3a414a"/><path d="M800.96 850.83h122.16" stroke="#3a414a" fill="none"/><path d="M800.98 851.33h-.52v-1h.52z" stroke="#3a414a" stroke-width=".05" fill="#3a414a"/><path d="m937.88 850.83-14.26 4.64v-9.27z" stroke="#3a414a" fill="#3a414a"/><path d="M340 956.83a6 6 0 0 1 6-6h148a6 6 0 0 1 6 6v48a6 6 0 0 1-6 6H346a6 6 0 0 1-6-6z" fill="none"/><use xlink:href="#g" transform="translate(404.568 986.111)"/><path d="M940 956.83a6 6 0 0 1 6-6h148a6 6 0 0 1 6 6v48a6 6 0 0 1-6 6H946a6 6 0 0 1-6-6z" fill="none"/><use xlink:href="#h" transform="translate(1004.568 986.111)"/><path d="M500 695.17a6 6 0 0 1 6-6h428a6 6 0 0 1 6 6v51.33a6 6 0 0 1-6 6H506a6 6 0 0 1-6-6z" fill="none"/><use xlink:href="#i" transform="translate(594.568 725.444)"/><use xlink:href="#j" transform="translate(691.42 725.444)"/><use xlink:href="#k" transform="translate(745.679 725.444)"/><defs><path fill="#3a414a" d="M266 0h-40l-56-210L115 0H75L2-248h35L96-30l15-64 43-154h32l59 218 59-218h35" id="l"/><path fill="#3a414a" d="M100-194c62-1 85 37 85 99 1 63-27 99-86 99S16-35 15-95c0-66 28-99 85-99zM99-20c44 1 53-31 53-75 0-43-8-75-51-75s-53 32-53 75 10 74 51 75" id="m"/><path fill="#3a414a" d="M114-163C36-179 61-72 57 0H25l-1-190h30c1 12-1 29 2 39 6-27 23-49 58-41v29" id="n"/><path fill="#3a414a" d="M143 0 79-87 56-68V0H24v-261h32v163l83-92h37l-77 82L181 0h-38" id="o"/><path fill="#3a414a" d="M101-234c-31-9-42 10-38 44h38v23H63V0H32v-167H5v-23h27c-7-52 17-82 69-68v24" id="p"/><path fill="#3a414a" d="M24 0v-261h32V0H24" id="q"/><path fill="#3a414a" d="M206 0h-36l-40-164L89 0H53L-1-190h32L70-26l43-164h34l41 164 42-164h31" id="r"/><path fill="#3a414a" d="M30-248c118-7 216 8 213 122C240-48 200 0 122 0H30v-248zM63-27c89 8 146-16 146-99s-60-101-146-95v194" id="s"/><path fill="#3a414a" d="M100-194c63 0 86 42 84 106H49c0 40 14 67 53 68 26 1 43-12 49-29l28 8c-11 28-37 45-77 45C44 4 14-33 15-96c1-61 26-98 85-98zm52 81c6-60-76-77-97-28-3 7-6 17-6 28h103" id="t"/><path fill="#3a414a" d="M24-231v-30h32v30H24zM24 0v-190h32V0H24" id="u"/><path fill="#3a414a" d="M117-194c89-4 53 116 60 194h-32v-121c0-31-8-49-39-48C34-167 62-67 57 0H25l-1-190h30c1 10-1 24 2 32 11-22 29-35 61-36" id="v"/><path fill="#3a414a" d="M59-47c-2 24 18 29 38 22v24C64 9 27 4 27-40v-127H5v-23h24l9-43h21v43h35v23H59v120" id="w"/><path fill="#3a414a" d="M127-220V0H93v-220H8v-28h204v28h-85" id="x"/><path fill="#3a414a" d="M179-190 93 31C79 59 56 82 12 73V49c39 6 53-20 64-50L1-190h34L92-34l54-156h33" id="y"/><path fill="#3a414a" d="M115-194c55 1 70 41 70 98S169 2 115 4C84 4 66-9 55-30l1 105H24l-1-265h31l2 30c10-21 28-34 59-34zm-8 174c40 0 45-34 45-75s-6-73-45-74c-42 0-51 32-51 76 0 43 10 73 51 73" id="z"/><path fill="#3a414a" d="M30 0v-248h187v28H63v79h144v27H63v87h162V0H30" id="A"/><path fill="#3a414a" d="M141 0 90-78 38 0H4l68-98-65-92h35l48 74 47-74h35l-64 92 68 98h-35" id="B"/><path fill="#3a414a" d="M96-169c-40 0-48 33-48 73s9 75 48 75c24 0 41-14 43-38l32 2c-6 37-31 61-74 61-59 0-76-41-82-99-10-93 101-131 147-64 4 7 5 14 7 22l-32 3c-4-21-16-35-41-35" id="C"/><path fill="#3a414a" d="M84 4C-5 8 30-112 23-190h32v120c0 31 7 50 39 49 72-2 45-101 50-169h31l1 190h-30c-1-10 1-25-2-33-11 22-28 36-60 37" id="D"/><path fill="#3a414a" d="M33-154v-36h34v36H33zM33 0v-36h34V0H33" id="E"/><path fill="#3a414a" d="M27 0v-27h64v-190l-56 39v-29l58-41h29v221h61V0H27" id="F"/><path fill="#3a414a" d="M141-36C126-15 110 5 73 4 37 3 15-17 15-53c-1-64 63-63 125-63 3-35-9-54-41-54-24 1-41 7-42 31l-33-3c5-37 33-52 76-52 45 0 72 20 72 64v82c-1 20 7 32 28 27v20c-31 9-61-2-59-35zM48-53c0 20 12 33 32 33 41-3 63-29 60-74-43 2-92-5-92 41" id="G"/><path fill="#3a414a" d="M85-194c31 0 48 13 60 33l-1-100h32l1 261h-30c-2-10 0-23-3-31C134-8 116 4 85 4 32 4 16-35 15-94c0-66 23-100 70-100zm9 24c-40 0-46 34-46 75 0 40 6 74 45 74 42 0 51-32 51-76 0-42-9-74-50-73" id="H"/><g id="a"><use transform="rotate(.413) scale(.06173)" xlink:href="#l"/><use transform="matrix(.06173 0 0 .06173 20.494 0)" xlink:href="#m"/><use transform="matrix(.06173 0 0 .06173 32.84 0)" xlink:href="#n"/><use transform="matrix(.06173 0 0 .06173 40.185 0)" xlink:href="#o"/><use transform="matrix(.06173 0 0 .06173 51.296 0)" xlink:href="#p"/><use transform="matrix(.06173 0 0 .06173 57.47 0)" xlink:href="#q"/><use transform="matrix(.06173 0 0 .06173 62.346 0)" xlink:href="#m"/><use transform="matrix(.06173 0 0 .06173 74.691 0)" xlink:href="#r"/></g><g id="b"><use transform="rotate(.413) scale(.06173)" xlink:href="#s"/><use transform="matrix(.06173 0 0 .06173 15.988 0)" xlink:href="#t"/><use transform="matrix(.06173 0 0 .06173 28.333 0)" xlink:href="#p"/><use transform="matrix(.06173 0 0 .06173 34.506 0)" xlink:href="#u"/><use transform="matrix(.06173 0 0 .06173 39.383 0)" xlink:href="#v"/><use transform="matrix(.06173 0 0 .06173 51.728 0)" xlink:href="#u"/><use transform="matrix(.06173 0 0 .06173 56.605 0)" xlink:href="#w"/><use transform="matrix(.06173 0 0 .06173 62.778 0)" xlink:href="#u"/><use transform="matrix(.06173 0 0 .06173 67.654 0)" xlink:href="#m"/><use transform="matrix(.06173 0 0 .06173 80 0)" xlink:href="#v"/></g><g id="c"><use transform="rotate(.413) scale(.06173)" xlink:href="#l"/><use transform="matrix(.06173 0 0 .06173 20.494 0)" xlink:href="#m"/><use transform="matrix(.06173 0 0 .06173 32.84 0)" xlink:href="#n"/><use transform="matrix(.06173 0 0 .06173 40.185 0)" xlink:href="#o"/><use transform="matrix(.06173 0 0 .06173 51.296 0)" xlink:href="#p"/><use transform="matrix(.06173 0 0 .06173 57.47 0)" xlink:href="#q"/><use transform="matrix(.06173 0 0 .06173 62.346 0)" xlink:href="#m"/><use transform="matrix(.06173 0 0 .06173 74.691 0)" xlink:href="#r"/></g><g id="d"><use transform="rotate(.413) scale(.06173)" xlink:href="#x"/><use transform="matrix(.06173 0 0 .06173 12.284 0)" xlink:href="#y"/><use transform="matrix(.06173 0 0 .06173 23.395 0)" xlink:href="#z"/><use transform="matrix(.06173 0 0 .06173 35.74 0)" xlink:href="#t"/></g><g id="e"><use transform="rotate(.413) scale(.06173)" xlink:href="#l"/><use transform="matrix(.06173 0 0 .06173 20.494 0)" xlink:href="#m"/><use transform="matrix(.06173 0 0 .06173 32.84 0)" xlink:href="#n"/><use transform="matrix(.06173 0 0 .06173 40.185 0)" xlink:href="#p"/><use transform="matrix(.06173 0 0 .06173 46.358 0)" xlink:href="#o"/><use transform="matrix(.06173 0 0 .06173 57.47 0)" xlink:href="#p"/><use transform="matrix(.06173 0 0 .06173 63.642 0)" xlink:href="#q"/><use transform="matrix(.06173 0 0 .06173 68.519 0)" xlink:href="#m"/><use transform="matrix(.06173 0 0 .06173 80.864 0)" xlink:href="#r"/></g><g id="f"><use transform="rotate(.413) scale(.06173)" xlink:href="#A"/><use transform="matrix(.06173 0 0 .06173 14.815 0)" xlink:href="#B"/><use transform="matrix(.06173 0 0 .06173 25.926 0)" xlink:href="#t"/><use transform="matrix(.06173 0 0 .06173 38.272 0)" xlink:href="#C"/><use transform="matrix(.06173 0 0 .06173 49.383 0)" xlink:href="#D"/><use transform="matrix(.06173 0 0 .06173 61.728 0)" xlink:href="#w"/><use transform="matrix(.06173 0 0 .06173 67.901 0)" xlink:href="#u"/><use transform="matrix(.06173 0 0 .06173 72.778 0)" xlink:href="#m"/><use transform="matrix(.06173 0 0 .06173 85.123 0)" xlink:href="#v"/></g><g id="g"><use transform="rotate(.413) scale(.06173)" xlink:href="#v"/><use transform="matrix(.06173 0 0 .06173 12.346 0)" xlink:href="#E"/><use transform="matrix(.06173 0 0 .06173 18.519 0)" xlink:href="#F"/></g><g id="h"><use transform="rotate(.413) scale(.06173)" xlink:href="#F"/><use transform="matrix(.06173 0 0 .06173 12.346 0)" xlink:href="#E"/><use transform="matrix(.06173 0 0 .06173 18.519 0)" xlink:href="#v"/></g><g id="i"><use transform="rotate(.413) scale(.06173)" xlink:href="#l"/><use transform="matrix(.06173 0 0 .06173 20.494 0)" xlink:href="#m"/><use transform="matrix(.06173 0 0 .06173 32.84 0)" xlink:href="#n"/><use transform="matrix(.06173 0 0 .06173 40.185 0)" xlink:href="#o"/><use transform="matrix(.06173 0 0 .06173 51.296 0)" xlink:href="#p"/><use transform="matrix(.06173 0 0 .06173 57.47 0)" xlink:href="#q"/><use transform="matrix(.06173 0 0 .06173 62.346 0)" xlink:href="#m"/><use transform="matrix(.06173 0 0 .06173 74.691 0)" xlink:href="#r"/></g><g id="j"><use transform="rotate(.413) scale(.06173)" xlink:href="#x"/><use transform="matrix(.06173 0 0 .06173 12.284 0)" xlink:href="#y"/><use transform="matrix(.06173 0 0 .06173 23.395 0)" xlink:href="#z"/><use transform="matrix(.06173 0 0 .06173 35.74 0)" xlink:href="#t"/></g><g id="k"><use transform="rotate(.413) scale(.06173)" xlink:href="#C"/><use transform="matrix(.06173 0 0 .06173 11.111 0)" xlink:href="#G"/><use transform="matrix(.06173 0 0 .06173 23.457 0)" xlink:href="#n"/><use transform="matrix(.06173 0 0 .06173 30.802 0)" xlink:href="#H"/><use transform="matrix(.06173 0 0 .06173 43.148 0)" xlink:href="#u"/><use transform="matrix(.06173 0 0 .06173 48.025 0)" xlink:href="#v"/><use transform="matrix(.06173 0 0 .06173 60.37 0)" xlink:href="#G"/><use transform="matrix(.06173 0 0 .06173 72.716 0)" xlink:href="#q"/><use transform="matrix(.06173 0 0 .06173 77.593 0)" xlink:href="#u"/><use transform="matrix(.06173 0 0 .06173 82.47 0)" xlink:href="#w"/><use transform="matrix(.06173 0 0 .06173 88.642 0)" xlink:href="#y"/></g></defs></g></svg>