<svg xmlns="http://www.w3.org/2000/svg" xmlns:xlink="http://www.w3.org/1999/xlink" xmlns:lucid="lucid" width="1240" height="524.09"><g transform="translate(-280 -280)" lucid:page-tab-id="0_0"><path d="M0 0h1870.87v1322.83H0z" fill="#fff"/><path d="M700 300h400v200H700z" fill="none"/><path d="M706 300h4m4 0h4m4 0h4m4 0h4m4 0h4m4 0h4m4 0h4m4 0h4m4 0h4m4 0h4m4 0h4m4 0h4m4 0h4m4 0h4m4 0h4m4 0h4m4 0h4m4 0h4m4 0h4m4 0h4m4 0h4m4 0h4m4 0h4m4 0h4m4 0h4m4 0h4m4 0h4m4 0h4m4 0h4m4 0h4m4 0h4m4 0h4m4 0h4m4 0h4m4 0h4m4 0h4m4 0h4m4 0h4m4 0h4m4 0h4m4 0h4m4 0h4m4 0h4m4 0h4m4 0h4m4 0h4m4 0h4m4 0h4m4 0h4m4 0h2v2m0 4v4m0 4v4m0 4v4m0 4v4m0 4v4m0 4v4m0 4v4m0 4v4m0 4v4m0 4v4m0 4v4m0 4v4m0 4v4m0 4v4m0 4v4m0 4v4m0 4v4m0 4v4m0 4v4m0 4v4m0 4v4m0 4v4m0 4v4m0 4v4m0 4v2h-2m-4 0h-4m-4 0h-4m-4 0h-4m-4 0h-4m-4 0h-4m-4 0h-4m-4 0h-4m-4 0h-4m-4 0h-4m-4 0h-4m-4 0h-4m-4 0h-4m-4 0h-4m-4 0h-4m-4 0h-4m-4 0h-4m-4 0h-4m-4 0h-4m-4 0h-4m-4 0h-4m-4 0h-4m-4 0h-4m-4 0h-4m-4 0h-4m-4 0h-4m-4 0h-4m-4 0h-4m-4 0h-4m-4 0h-4m-4 0h-4m-4 0h-4m-4 0h-4m-4 0h-4m-4 0h-4m-4 0h-4m-4 0h-4m-4 0h-4m-4 0h-4m-4 0h-4m-4 0h-4m-4 0h-4m-4 0h-4m-4 0h-4m-4 0h-4m-4 0h-4m-4 0h-4m-4 0h-4m-4 0h-4m-4 0h-4m-4 0h-2v-2m0-4v-4m0-4v-4m0-4v-4m0-4v-4m0-4v-4m0-4v-4m0-4v-4m0-4v-4m0-4v-4m0-4v-4m0-4v-4m0-4v-4m0-4v-4m0-4v-4m0-4v-4m0-4v-4m0-4v-4m0-4v-4m0-4v-4m0-4v-4m0-4v-4m0-4v-4m0-4v-4m0-4v-4m0-4v-2h2" stroke="#333" fill="none"/><path d="M300 600h1200v100H300z" fill="none"/><path d="M306 600h4m4 0h4m4 0h4m4 0h4m4 0h4m4 0h4m4 0h4m4 0h4m4 0h4m4 0h4m4 0h4m4 0h4m4 0h4m4 0h4m4 0h4m4 0h4m4 0h4m4 0h4m4 0h4m4 0h4m4 0h4m4 0h4m4 0h4m4 0h4m4 0h4m4 0h4m4 0h4m4 0h4m4 0h4m4 0h4m4 0h4m4 0h4m4 0h4m4 0h4m4 0h4m4 0h4m4 0h4m4 0h4m4 0h4m4 0h4m4 0h4m4 0h4m4 0h4m4 0h4m4 0h4m4 0h4m4 0h4m4 0h4m4 0h4m4 0h4m4 0h4m4 0h4m4 0h4m4 0h4m4 0h4m4 0h4m4 0h4m4 0h4m4 0h4m4 0h4m4 0h4m4 0h4m4 0h4m4 0h4m4 0h4m4 0h4m4 0h4m4 0h4m4 0h4m4 0h4m4 0h4m4 0h4m4 0h4m4 0h4m4 0h4m4 0h4m4 0h4m4 0h4m4 0h4m4 0h4m4 0h4m4 0h4m4 0h4m4 0h4m4 0h4m4 0h4m4 0h4m4 0h4m4 0h4m4 0h4m4 0h4m4 0h4m4 0h4m4 0h4m4 0h4m4 0h4m4 0h4m4 0h4m4 0h4m4 0h4m4 0h4m4 0h4m4 0h4m4 0h4m4 0h4m4 0h4m4 0h4m4 0h4m4 0h4m4 0h4m4 0h4m4 0h4m4 0h4m4 0h4m4 0h4m4 0h4m4 0h4m4 0h4m4 0h4m4 0h4m4 0h4m4 0h4m4 0h4m4 0h4m4 0h4m4 0h4m4 0h4m4 0h4m4 0h4m4 0h4m4 0h4m4 0h4m4 0h4m4 0h4m4 0h4m4 0h4m4 0h4m4 0h4m4 0h4m4 0h4m4 0h4m4 0h4m4 0h4m4 0h4m4 0h4m4 0h4m4 0h4m4 0h4m4 0h4m4 0h2v2.08m0 4.17v4.17m0 4.16v4.17m0 4.17v4.16m0 4.17v4.17m0 4.16v4.17m0 4.17v4.16m0 4.17v4.17m0 4.16v4.17m0 4.17v4.16m0 4.17v4.17m0 4.16v4.17m0 4.17V700h-2m-4 0h-4m-4 0h-4m-4 0h-4m-4 0h-4m-4 0h-4m-4 0h-4m-4 0h-4m-4 0h-4m-4 0h-4m-4 0h-4m-4 0h-4m-4 0h-4m-4 0h-4m-4 0h-4m-4 0h-4m-4 0h-4m-4 0h-4m-4 0h-4m-4 0h-4m-4 0h-4m-4 0h-4m-4 0h-4m-4 0h-4m-4 0h-4m-4 0h-4m-4 0h-4m-4 0h-4m-4 0h-4m-4 0h-4m-4 0h-4m-4 0h-4m-4 0h-4m-4 0h-4m-4 0h-4m-4 0h-4m-4 0h-4m-4 0h-4m-4 0h-4m-4 0h-4m-4 0h-4m-4 0h-4m-4 0h-4m-4 0h-4m-4 0h-4m-4 0h-4m-4 0h-4m-4 0h-4m-4 0h-4m-4 0h-4m-4 0h-4m-4 0h-4m-4 0h-4m-4 0h-4m-4 0h-4m-4 0h-4m-4 0h-4m-4 0h-4m-4 0h-4m-4 0h-4m-4 0h-4m-4 0h-4m-4 0h-4m-4 0h-4m-4 0h-4m-4 0h-4m-4 0h-4m-4 0h-4m-4 0h-4m-4 0h-4m-4 0h-4m-4 0h-4m-4 0h-4m-4 0h-4m-4 0h-4m-4 0h-4m-4 0h-4m-4 0h-4m-4 0h-4m-4 0h-4m-4 0h-4m-4 0h-4m-4 0h-4m-4 0h-4m-4 0h-4m-4 0h-4m-4 0h-4m-4 0h-4m-4 0h-4m-4 0h-4m-4 0h-4m-4 0h-4m-4 0h-4m-4 0h-4m-4 0h-4m-4 0h-4m-4 0h-4m-4 0h-4m-4 0h-4m-4 0h-4m-4 0h-4m-4 0h-4m-4 0h-4m-4 0h-4m-4 0h-4m-4 0h-4m-4 0h-4m-4 0h-4m-4 0h-4m-4 0h-4m-4 0h-4m-4 0h-4m-4 0h-4m-4 0h-4m-4 0h-4m-4 0h-4m-4 0h-4m-4 0h-4m-4 0h-4m-4 0h-4m-4 0h-4m-4 0h-4m-4 0h-4m-4 0h-4m-4 0h-4m-4 0h-4m-4 0h-4m-4 0h-4m-4 0h-4m-4 0h-4m-4 0h-4m-4 0h-4m-4 0h-4m-4 0h-4m-4 0h-4m-4 0h-4m-4 0h-4m-4 0h-4m-4 0h-4m-4 0h-4m-4 0h-4m-4 0h-4m-4 0h-4m-4 0h-4m-4 0h-4m-4 0h-4m-4 0h-4m-4 0h-4m-4 0h-4m-4 0h-4m-4 0h-2v-2.08m0-4.17v-4.17m0-4.16v-4.17m0-4.17v-4.16m0-4.17v-4.17m0-4.16v-4.17m0-4.17v-4.16m0-4.17v-4.17m0-4.16v-4.17m0-4.17v-4.16m0-4.17v-4.17m0-4.16v-4.17m0-4.17V600h2" stroke="#333" fill="none"/><path d="M720.48 320H1080v160H720.48z" stroke="#333" fill="#fff"/><use xlink:href="#a" transform="translate(859.186 349.778)"/><path d="M320 620h160v63H320z" stroke="#333" fill="#fff"/><use xlink:href="#b" transform="translate(357.111 655.972)"/><path d="M520 620h160.48v60H520z" stroke="#333" fill="#fff"/><use xlink:href="#c" transform="translate(526.08 653.556)"/><path d="M1120 620h160v60h-160z" stroke="#333" fill="#fff"/><use xlink:href="#d" transform="translate(1175.877 652.972)"/><path d="M720.48 620H880v63H720.48z" stroke="#333" fill="#fff"/><use xlink:href="#e" transform="translate(756.63 655.972)"/><path d="M920 620h160v60H920z" stroke="#333" fill="#fff"/><use xlink:href="#f" transform="translate(961.068 652.972)"/><path d="M1320 620h160v60h-160z" stroke="#333" fill="#fff"/><use xlink:href="#g" transform="translate(1358.914 652.972)"/><use xlink:href="#h" transform="translate(1412.444 652.972)"/><path d="M900.24 481v63c0 3.3-2.7 6-6 6H406c-3.3 0-6 2.7-6 6v47.12" stroke="#333" fill="none"/><path d="M900.74 481h-1v-.5h1z" stroke="#333" stroke-width=".05" fill="#333"/><path d="m400 617.88-4.64-14.26h9.28z" stroke="#333" fill="#333"/><path d="M900.24 481v63c0 3.3-2.7 6-6 6h-88c-3.3 0-6 2.7-6 6v47.12" stroke="#333" fill="none"/><path d="M900.74 481h-1v-.5h1z" stroke="#333" stroke-width=".05" fill="#333"/><path d="m800.24 617.88-4.63-14.26h9.28z" stroke="#333" fill="#333"/><path d="M900.24 481v63c0 3.3 2.7 6 6 6H994c3.3 0 6 2.7 6 6v47.12" stroke="#333" fill="none"/><path d="M900.74 481h-1v-.5h1z" stroke="#333" stroke-width=".05" fill="#333"/><path d="m1000 617.88-4.64-14.26h9.28z" stroke="#333" fill="#333"/><path d="M900.24 481v63c0 3.3 2.7 6 6 6H1194c3.3 0 6 2.7 6 6v47.12" stroke="#333" fill="none"/><path d="M900.74 481h-1v-.5h1z" stroke="#333" stroke-width=".05" fill="#333"/><path d="m1200 617.88-4.64-14.26h9.28z" stroke="#333" fill="#333"/><path d="M900.24 481v63c0 3.3 2.7 6 6 6H1394c3.3 0 6 2.7 6 6v47.12" stroke="#333" fill="none"/><path d="M900.74 481h-1v-.5h1z" stroke="#333" stroke-width=".05" fill="#333"/><path d="m1400 617.88-4.64-14.26h9.28z" stroke="#333" fill="#333"/><path d="M900.24 481v63c0 3.3-2.7 6-6 6h-288c-3.3 0-6 2.7-6 6v47.12" stroke="#333" fill="none"/><path d="M900.74 481h-1v-.5h1z" stroke="#333" stroke-width=".05" fill="#333"/><path d="m600.24 617.88-4.63-14.26h9.28z" stroke="#333" fill="#333"/><path d="M840 740h120v44.1H840z" fill="none"/><use xlink:href="#i" transform="translate(865.494 767.153)"/><path d="M900 739.5V701" stroke="#333" fill="none"/><path d="M900.5 740h-1v-.5h1zm0-39h-1v-.5h1z" stroke="#333" stroke-width=".05" fill="#333"/><path d="M540 368.5h107.1v63H540z" fill="none"/><use xlink:href="#j" transform="translate(566.84 404.532)"/><path d="M647.6 400H699" stroke="#333" fill="none"/><path d="M647.6 400.5h-.5v-1h.5zm51.9 0h-.5v-1h.5z" stroke="#333" stroke-width=".05" fill="#333"/><path d="M820 391.5c0 22.1-17.9 40-40 40s-40-17.9-40-40 17.9-40 40-40 40 17.9 40 40zm240 0c0 22.1-17.9 40-40 40s-40-17.9-40-40 17.9-40 40-40 40 17.9 40 40z" stroke="#3a414a" fill="#fff"/><path d="M720.48 440H860v40H720.48z" fill="none"/><use xlink:href="#k" transform="translate(743.15 462.972)"/><path d="M940 440h140v40H940z" fill="none"/><use xlink:href="#l" transform="translate(965.062 462.972)"/><path d="M817.14 374.24h149.9" stroke="#3a414a" fill="none"/><path d="M817.15 374.74h-.3l-.3-.7-.16-.3h.75z" stroke="#3a414a" stroke-width=".05" fill="#3a414a"/><path d="m981.82 374.24-14.27 4.64v-9.27z" stroke="#3a414a" fill="#3a414a"/><path d="M981.67 405.8H834.25" stroke="#3a414a" fill="none"/><path d="M982.38 406.3h-.72v-1h.3z" stroke="#3a414a" stroke-width=".05" fill="#3a414a"/><path d="m819.5 405.8 14.25-4.63v9.27z" stroke="#3a414a" fill="#3a414a"/><defs><path fill="#333" d="M233-177c-1 41-23 64-60 70L243 0h-38l-65-103H63V0H30v-248c88 3 205-21 203 71zM63-129c60-2 137 13 137-47 0-61-80-42-137-45v92" id="m"/><path fill="#333" d="M84 4C-5 8 30-112 23-190h32v120c0 31 7 50 39 49 72-2 45-101 50-169h31l1 190h-30c-1-10 1-25-2-33-11 22-28 36-60 37" id="n"/><path fill="#333" d="M117-194c89-4 53 116 60 194h-32v-121c0-31-8-49-39-48C34-167 62-67 57 0H25l-1-190h30c1 10-1 24 2 32 11-22 29-35 61-36" id="o"/><path fill="#333" d="M24-231v-30h32v30H24zM24 0v-190h32V0H24" id="p"/><path fill="#333" d="M177-190C167-65 218 103 67 71c-23-6-38-20-44-43l32-5c15 47 100 32 89-28v-30C133-14 115 1 83 1 29 1 15-40 15-95c0-56 16-97 71-98 29-1 48 16 59 35 1-10 0-23 2-32h30zM94-22c36 0 50-32 50-73 0-42-14-75-50-75-39 0-46 34-46 75s6 73 46 73" id="q"/><path fill="#333" d="M212-179c-10-28-35-45-73-45-59 0-87 40-87 99 0 60 29 101 89 101 43 0 62-24 78-52l27 14C228-24 195 4 139 4 59 4 22-46 18-125c-6-104 99-153 187-111 19 9 31 26 39 46" id="r"/><path fill="#333" d="M100-194c62-1 85 37 85 99 1 63-27 99-86 99S16-35 15-95c0-66 28-99 85-99zM99-20c44 1 53-31 53-75 0-43-8-75-51-75s-53 32-53 75 10 74 51 75" id="s"/><path fill="#333" d="M210-169c-67 3-38 105-44 169h-31v-121c0-29-5-50-35-48C34-165 62-65 56 0H25l-1-190h30c1 10-1 24 2 32 10-44 99-50 107 0 11-21 27-35 58-36 85-2 47 119 55 194h-31v-121c0-29-5-49-35-48" id="t"/><path fill="#333" d="M115-194c55 1 70 41 70 98S169 2 115 4C84 4 66-9 55-30l1 105H24l-1-265h31l2 30c10-21 28-34 59-34zm-8 174c40 0 45-34 45-75s-6-73-45-74c-42 0-51 32-51 76 0 43 10 73 51 73" id="u"/><path fill="#333" d="M24 0v-261h32V0H24" id="v"/><path fill="#333" d="M100-194c63 0 86 42 84 106H49c0 40 14 67 53 68 26 1 43-12 49-29l28 8c-11 28-37 45-77 45C44 4 14-33 15-96c1-61 26-98 85-98zm52 81c6-60-76-77-97-28-3 7-6 17-6 28h103" id="w"/><path fill="#333" d="M59-47c-2 24 18 29 38 22v24C64 9 27 4 27-40v-127H5v-23h24l9-43h21v43h35v23H59v120" id="x"/><path fill="#333" d="M85-194c31 0 48 13 60 33l-1-100h32l1 261h-30c-2-10 0-23-3-31C134-8 116 4 85 4 32 4 16-35 15-94c0-66 23-100 70-100zm9 24c-40 0-46 34-46 75 0 40 6 74 45 74 42 0 51-32 51-76 0-42-9-74-50-73" id="y"/><path fill="#333" d="M16-82v-28h88v28H16" id="z"/><path fill="#333" d="m205 0-28-72H64L36 0H1l101-248h38L239 0h-34zm-38-99-47-123c-12 45-31 82-46 123h93" id="A"/><path fill="#333" d="M135-143c-3-34-86-38-87 0 15 53 115 12 119 90S17 21 10-45l28-5c4 36 97 45 98 0-10-56-113-15-118-90-4-57 82-63 122-42 12 7 21 19 24 35" id="B"/><path fill="#333" d="M190 0 58-211 59 0H30v-248h39L202-35l-2-213h31V0h-41" id="C"/><path fill="#333" d="M206 0h-36l-40-164L89 0H53L-1-190h32L70-26l43-164h34l41 164 42-164h31" id="D"/><path fill="#333" d="M63-220v92h138v28H63V0H30v-248h175v28H63" id="E"/><path fill="#333" d="M141-36C126-15 110 5 73 4 37 3 15-17 15-53c-1-64 63-63 125-63 3-35-9-54-41-54-24 1-41 7-42 31l-33-3c5-37 33-52 76-52 45 0 72 20 72 64v82c-1 20 7 32 28 27v20c-31 9-61-2-59-35zM48-53c0 20 12 33 32 33 41-3 63-29 60-74-43 2-92-5-92 41" id="F"/><path fill="#333" d="M127-220V0H93v-220H8v-28h204v28h-85" id="G"/><path fill="#333" d="M114-163C36-179 61-72 57 0H25l-1-190h30c1 12-1 29 2 39 6-27 23-49 58-41v29" id="H"/><path fill="#333" d="M96-169c-40 0-48 33-48 73s9 75 48 75c24 0 41-14 43-38l32 2c-6 37-31 61-74 61-59 0-76-41-82-99-10-93 101-131 147-64 4 7 5 14 7 22l-32 3c-4-21-16-35-41-35" id="I"/><path fill="#333" d="M140-251c81 0 123 46 123 126C263-46 219 4 140 4 59 4 17-45 17-125s42-126 123-126zm0 227c63 0 89-41 89-101s-29-99-89-99c-61 0-89 39-89 99S79-25 140-24" id="J"/><path fill="#333" d="M30-248c87 1 191-15 191 75 0 78-77 80-158 76V0H30v-248zm33 125c57 0 124 11 124-50 0-59-68-47-124-48v98" id="K"/><path fill="#333" d="M185-189c-5-48-123-54-124 2 14 75 158 14 163 119 3 78-121 87-175 55-17-10-28-26-33-46l33-7c5 56 141 63 141-1 0-78-155-14-162-118-5-82 145-84 179-34 5 7 8 16 11 25" id="L"/><g id="a"><use transform="rotate(.413) scale(.06173)" xlink:href="#m"/><use transform="matrix(.06173 0 0 .06173 15.988 0)" xlink:href="#n"/><use transform="matrix(.06173 0 0 .06173 28.333 0)" xlink:href="#o"/><use transform="matrix(.06173 0 0 .06173 40.679 0)" xlink:href="#o"/><use transform="matrix(.06173 0 0 .06173 53.025 0)" xlink:href="#p"/><use transform="matrix(.06173 0 0 .06173 57.901 0)" xlink:href="#o"/><use transform="matrix(.06173 0 0 .06173 70.247 0)" xlink:href="#q"/></g><g id="b"><use transform="scale(.04938)" xlink:href="#r"/><use transform="matrix(.04938 0 0 .04938 12.79 0)" xlink:href="#s"/><use transform="matrix(.04938 0 0 .04938 22.667 0)" xlink:href="#t"/><use transform="matrix(.04938 0 0 .04938 37.432 0)" xlink:href="#u"/><use transform="matrix(.04938 0 0 .04938 47.309 0)" xlink:href="#v"/><use transform="matrix(.04938 0 0 .04938 51.21 0)" xlink:href="#w"/><use transform="matrix(.04938 0 0 .04938 61.086 0)" xlink:href="#x"/><use transform="matrix(.04938 0 0 .04938 66.025 0)" xlink:href="#w"/><use transform="matrix(.04938 0 0 .04938 75.901 0)" xlink:href="#y"/></g><g id="c"><use transform="scale(.04938)" xlink:href="#r"/><use transform="matrix(.04938 0 0 .04938 12.79 0)" xlink:href="#s"/><use transform="matrix(.04938 0 0 .04938 22.667 0)" xlink:href="#o"/><use transform="matrix(.04938 0 0 .04938 32.543 0)" xlink:href="#x"/><use transform="matrix(.04938 0 0 .04938 37.481 0)" xlink:href="#p"/><use transform="matrix(.04938 0 0 .04938 41.383 0)" xlink:href="#o"/><use transform="matrix(.04938 0 0 .04938 51.26 0)" xlink:href="#n"/><use transform="matrix(.04938 0 0 .04938 61.136 0)" xlink:href="#w"/><use transform="matrix(.04938 0 0 .04938 71.012 0)" xlink:href="#y"/><use transform="matrix(.04938 0 0 .04938 80.889 0)" xlink:href="#z"/><use transform="matrix(.04938 0 0 .04938 86.765 0)" xlink:href="#A"/><use transform="matrix(.04938 0 0 .04938 98.617 0)" xlink:href="#B"/><use transform="matrix(.04938 0 0 .04938 107.506 0)" xlink:href="#z"/><use transform="matrix(.04938 0 0 .04938 113.383 0)" xlink:href="#C"/><use transform="matrix(.04938 0 0 .04938 126.173 0)" xlink:href="#w"/><use transform="matrix(.04938 0 0 .04938 136.05 0)" xlink:href="#D"/></g><g id="d"><use transform="scale(.04938)" xlink:href="#E"/><use transform="matrix(.04938 0 0 .04938 10.815 0)" xlink:href="#F"/><use transform="matrix(.04938 0 0 .04938 20.691 0)" xlink:href="#p"/><use transform="matrix(.04938 0 0 .04938 24.593 0)" xlink:href="#v"/><use transform="matrix(.04938 0 0 .04938 28.494 0)" xlink:href="#w"/><use transform="matrix(.04938 0 0 .04938 38.37 0)" xlink:href="#y"/></g><g id="e"><use transform="scale(.04938)" xlink:href="#G"/><use transform="matrix(.04938 0 0 .04938 8.84 0)" xlink:href="#w"/><use transform="matrix(.04938 0 0 .04938 18.716 0)" xlink:href="#H"/><use transform="matrix(.04938 0 0 .04938 24.593 0)" xlink:href="#t"/><use transform="matrix(.04938 0 0 .04938 39.358 0)" xlink:href="#p"/><use transform="matrix(.04938 0 0 .04938 43.26 0)" xlink:href="#o"/><use transform="matrix(.04938 0 0 .04938 53.136 0)" xlink:href="#F"/><use transform="matrix(.04938 0 0 .04938 63.012 0)" xlink:href="#x"/><use transform="matrix(.04938 0 0 .04938 67.95 0)" xlink:href="#w"/><use transform="matrix(.04938 0 0 .04938 77.827 0)" xlink:href="#y"/></g><g id="f"><use transform="scale(.04938)" xlink:href="#r"/><use transform="matrix(.04938 0 0 .04938 12.79 0)" xlink:href="#F"/><use transform="matrix(.04938 0 0 .04938 22.667 0)" xlink:href="#o"/><use transform="matrix(.04938 0 0 .04938 32.543 0)" xlink:href="#I"/><use transform="matrix(.04938 0 0 .04938 41.432 0)" xlink:href="#w"/><use transform="matrix(.04938 0 0 .04938 51.309 0)" xlink:href="#v"/><use transform="matrix(.04938 0 0 .04938 55.21 0)" xlink:href="#v"/><use transform="matrix(.04938 0 0 .04938 59.111 0)" xlink:href="#w"/><use transform="matrix(.04938 0 0 .04938 68.988 0)" xlink:href="#y"/></g><g id="g"><use transform="scale(.04938)" xlink:href="#G"/><use transform="matrix(.04938 0 0 .04938 10.173 0)" xlink:href="#p"/><use transform="matrix(.04938 0 0 .04938 14.074 0)" xlink:href="#t"/><use transform="matrix(.04938 0 0 .04938 28.84 0)" xlink:href="#w"/><use transform="matrix(.04938 0 0 .04938 38.716 0)" xlink:href="#y"/></g><g id="h"><use transform="scale(.04938)" xlink:href="#J"/><use transform="matrix(.04938 0 0 .04938 13.827 0)" xlink:href="#n"/><use transform="matrix(.04938 0 0 .04938 23.704 0)" xlink:href="#x"/></g><g id="i"><use transform="rotate(.413) scale(.06173)" xlink:href="#r"/><use transform="matrix(.06173 0 0 .06173 15.988 0)" xlink:href="#v"/><use transform="matrix(.06173 0 0 .06173 20.864 0)" xlink:href="#s"/><use transform="matrix(.06173 0 0 .06173 33.21 0)" xlink:href="#B"/><use transform="matrix(.06173 0 0 .06173 44.321 0)" xlink:href="#w"/><use transform="matrix(.06173 0 0 .06173 56.667 0)" xlink:href="#y"/></g><g id="j"><use transform="rotate(.413) scale(.06173)" xlink:href="#J"/><use transform="matrix(.06173 0 0 .06173 17.284 0)" xlink:href="#u"/><use transform="matrix(.06173 0 0 .06173 29.63 0)" xlink:href="#w"/><use transform="matrix(.06173 0 0 .06173 41.975 0)" xlink:href="#o"/></g><g id="k"><use transform="scale(.04938)" xlink:href="#K"/><use transform="matrix(.04938 0 0 .04938 11.852 0)" xlink:href="#H"/><use transform="matrix(.04938 0 0 .04938 17.728 0)" xlink:href="#s"/><use transform="matrix(.04938 0 0 .04938 27.605 0)" xlink:href="#q"/><use transform="matrix(.04938 0 0 .04938 37.481 0)" xlink:href="#H"/><use transform="matrix(.04938 0 0 .04938 43.358 0)" xlink:href="#w"/><use transform="matrix(.04938 0 0 .04938 53.235 0)" xlink:href="#B"/><use transform="matrix(.04938 0 0 .04938 62.123 0)" xlink:href="#B"/><use transform="matrix(.04938 0 0 .04938 71.012 0)" xlink:href="#p"/><use transform="matrix(.04938 0 0 .04938 74.914 0)" xlink:href="#o"/><use transform="matrix(.04938 0 0 .04938 84.79 0)" xlink:href="#q"/></g><g id="l"><use transform="scale(.04938)" xlink:href="#L"/><use transform="matrix(.04938 0 0 .04938 11.852 0)" xlink:href="#n"/><use transform="matrix(.04938 0 0 .04938 21.728 0)" xlink:href="#B"/><use transform="matrix(.04938 0 0 .04938 30.617 0)" xlink:href="#u"/><use transform="matrix(.04938 0 0 .04938 40.494 0)" xlink:href="#w"/><use transform="matrix(.04938 0 0 .04938 50.37 0)" xlink:href="#o"/><use transform="matrix(.04938 0 0 .04938 60.247 0)" xlink:href="#y"/><use transform="matrix(.04938 0 0 .04938 70.123 0)" xlink:href="#w"/><use transform="matrix(.04938 0 0 .04938 80 0)" xlink:href="#y"/></g></defs></g></svg>