<svg xmlns="http://www.w3.org/2000/svg" viewBox="0 0 100 80"><circle cx="14" cy="40" r="8" fill="none" stroke="#888" stroke-width="2"/><path fill="none" stroke="#c22" stroke-linecap="round" stroke-width="2" d="M 22 36 L 44 24"/><polygon fill="#c22" points="42 20 50 24 43 28"/><circle cx="60" cy="22" r="6" fill="none" stroke="#c22" stroke-width="2"/><circle cx="60" cy="22" r="1.5" fill="#c22"/><g stroke="#c22" stroke-linecap="round" stroke-width="2.5"><line x1="65" x2="69" y1="22" y2="22"/><line x1="63.5" x2="66.4" y1="25.5" y2="28.4"/><line x1="60" x2="60" y1="27" y2="31"/><line x1="56.5" x2="53.6" y1="25.5" y2="28.4"/><line x1="55" x2="51" y1="22" y2="22"/><line x1="56.5" x2="53.6" y1="18.5" y2="15.6"/><line x1="60" x2="60" y1="17" y2="13"/><line x1="63.5" x2="66.4" y1="18.5" y2="15.6"/></g><path fill="none" stroke="#888" stroke-linecap="round" stroke-width="2" d="M 22 44 L 46 58"/><polygon fill="#888" points="43 53 52 59 44 62"/><rect width="30" height="18" x="54" y="50" fill="none" stroke="#888" stroke-width="1.5" rx="3"/><text x="69" y="63" fill="#888" font-family="sans-serif" font-size="9" text-anchor="middle">slow</text></svg>