<svg width="900" height="254" viewBox="0 0 900 254" fill="none" xmlns="http://www.w3.org/2000/svg">
<g clip-path="url(#clip0_802_428)">
<rect width="900" height="254" rx="24" fill="#1D1D24"/>
<circle cx="-28" cy="140.25" r="240" stroke="white" stroke-linecap="round"/>
<path d="M94.3135 172.536C83.1649 178.008 69.169 183.037 57.7581 187.878C54.6138 187.878 54.1537 194.006 52.3469 196.209C50.589 198.352 48.9729 202.04 46.3768 203.191C44.5449 204.003 43.3346 205.936 42.1125 207.445C40.3157 209.664 37.9205 210.657 36.0543 212.725C29.2182 220.302 25.5115 231.444 23.232 241.151C21.4508 248.736 21.5133 259.242 23.9966 266.673C27.1395 276.078 38.5791 281.371 46.7592 285.565C61.6179 293.183 78.6813 296.886 94.8723 300.585C113.604 304.864 132.42 308.928 151.249 312.759C175.662 317.726 200.063 319.396 224.889 320.914C258.334 322.959 291.712 320.906 325.174 321.237C365.583 321.636 406.023 323.017 446.427 323.877C487.076 324.742 527.635 326.048 568.298 326.224C609.543 326.402 650.736 330.333 691.934 332.15C710.365 332.962 728.791 334.163 747.164 335.846C759.27 336.955 771.333 338.503 783.513 337.841C791.875 337.386 800.213 337.401 803.1 328.219C805.842 319.495 806.142 309.43 807.07 300.379C807.677 294.46 808.69 288.586 809.217 282.661C809.844 275.614 810.255 268.541 810.665 261.478L810.687 261.099C810.813 258.936 811.306 255.816 810.717 253.531C809.591 249.164 807.397 245.604 805.217 241.738C803.074 237.937 802.494 231.125 798.747 228.537C790.021 222.511 776.668 223.738 766.633 221.936C753.222 219.529 739.599 217.834 726.136 215.629C709.428 212.893 692.782 210.184 675.994 207.943C661.744 206.042 648.175 201.576 634.41 197.793C627.989 196.029 621.471 194.862 615 193.276C609.008 191.807 595.526 199.653 589.417 198.556C576.021 196.151 562.224 195.059 548.715 193.276C534.988 191.463 529.268 178.082 515.421 177.2C502.467 162.328 498.458 169.634 484.662 170.746C479.196 171.187 469.323 170.948 464.017 172.536C458.601 174.157 451.405 181.541 446.427 184.182C437.637 188.846 425.716 185.664 419.551 187.878C413.047 190.213 405.201 187.878 398.376 187.878C387.064 187.878 383.1 187.872 372.438 184.182C370.147 175.768 358.727 185.415 353.26 184.182C346.977 182.764 341.209 180.2 335.026 178.491C323.244 175.233 311.913 172.535 299.677 171.802C294.87 171.515 290.79 171.681 285.972 170.746C281.682 169.914 277.262 169.304 272.944 168.634C261.271 166.823 248.813 162.069 236.918 163.178C232.024 163.634 228.276 166.136 223.978 168.106C220.986 169.477 217.511 166.699 214.861 165.818C200.175 160.935 188.188 152.186 172.868 149.894C166.202 148.896 158.01 143.242 151.249 144.085C143.643 145.034 134.224 155.663 127.075 158.337C115.83 162.544 105.099 167.242 94.3135 172.536Z" fill="#9B8FFF" stroke="#181A22" stroke-linecap="round"/>
<path d="M-104.602 22.169C-108.092 23.0749 -145.337 78.5119 -147.936 80.945C-151.339 88.1095 -154.903 95.1868 -156.842 102.924C-159.534 113.669 -160.889 125.531 -160.019 136.622C-158.99 149.732 -155.375 162.844 -152.024 175.476C-150.327 181.875 -146.975 194.725 -143.743 201.674C-143.105 203.046 -142.258 204.384 -141.113 205.372C-139.596 206.68 -134.856 206.937 -132.962 207.195C-129.981 207.602 -126.968 207.757 -123.977 208.08C-116.446 208.895 -109.032 210.549 -101.477 211.153C-93.047 211.828 -84.597 211.18 -76.1647 211.83C-67.3465 212.511 -58.6841 214.307 -49.8106 214.33C-39.7265 214.357 -29.607 213.38 -19.6022 212.195C-2.17529 210.131 15.493 210.499 33.0019 211.83C44.3074 212.69 55.522 214.332 66.7519 215.841C79.6232 217.57 92.4921 218.183 105.447 218.8L106.752 218.862C130.214 219.981 153.49 223.045 176.856 225.32C191.546 226.75 206.157 229.043 220.867 230.216C251.071 232.623 282.016 230.838 311.96 226.231C323.896 224.395 335.494 222.095 347.221 219.252C353.353 217.766 359.425 215.803 365.606 214.539C367.701 214.11 369.786 213.719 371.908 213.601C372.902 213.546 373.297 212.018 373.887 211.362C375.077 210.04 376.43 208.368 377.299 206.804C378.733 204.222 369.282 204.226 367.969 204.226H367.924C364.603 204.226 362.851 204.137 360.007 202.169C358.979 201.457 356.955 201.737 355.736 201.362C353.83 200.775 351.699 199.252 349.877 198.341C348.998 197.901 345.21 196.887 344.773 196.231C343.681 194.594 341.308 194.331 340.241 192.872C336.691 188.013 329.795 185.441 324.238 183.368L323.887 183.237C316.97 180.654 309.542 178.526 302.273 177.273C297.538 176.457 292.06 177.065 287.325 177.742C283.455 178.295 278.773 178.06 276.856 174.226C275.36 171.233 272.26 171.301 271.492 167.768C270.182 161.743 264.094 159.591 258.367 160.737C255.472 161.316 253.05 161.792 250.033 161.466C246.88 161.125 240.293 161.866 237.846 159.487C235.477 157.183 236.543 152.64 235.971 149.643C235.089 145.029 235.16 140.398 234.33 135.789C229.247 107.549 192.804 102.126 170.033 110.216L169.889 110.267C166.577 111.444 162.781 112.792 159.877 114.799C158.376 115.836 157.264 117.349 155.71 118.341C153.99 119.439 151.961 121.665 149.721 121.153C145.475 120.183 142.204 117.728 138.184 116.388C131.392 114.124 124.523 116.57 117.611 116.57C115.671 116.57 111.473 117.037 110.111 115.372C108.41 113.292 110.131 111.003 110.32 108.836C110.615 105.435 109.02 101.975 108.497 98.5752C108.229 96.8341 106.6 97.1867 105.658 96.1273C103.476 93.6721 101.132 90.8989 98.4186 89.0179C93.1454 85.3626 86.392 85.0194 80.3457 86.6742C74.383 88.3061 69.5877 88.1101 63.7311 85.8929C58.1614 83.7844 51.8695 81.2506 47.0644 77.6638C42.3616 74.1532 40.0208 68.0722 37.6634 62.8721C33.6102 53.9311 28.4954 44.9855 20.9707 38.5231C9.10681 28.3342 -3.83163 23.0232 -19.2116 20.32C-28.7532 18.643 -38.3823 18.5777 -48.0397 18.3669C-58.8257 18.1314 -69.7264 17.6898 -80.4876 18.6794L-80.9958 18.7261C-88.806 19.4437 -97.0071 20.1972 -104.602 22.169Z" fill="#1D1D24" stroke="white" stroke-linecap="round"/>
<path d="M150.969 123.062C155.469 123.062 161.025 124.787 163.625 128.688" stroke="white" stroke-linecap="round"/>
<path d="M172.062 132.438C172.864 133.045 173.635 133.67 174.406 134.312" stroke="white" stroke-linecap="round"/>
<path d="M179.562 136.188L181.438 139.938" stroke="white" stroke-linecap="round"/>
<path d="M224.562 141.812C226.828 143.215 229.25 144.959 229.25 147.906" stroke="white" stroke-linecap="round"/>
<path d="M233 153.531C233.914 154.703 234.583 155.993 235.812 156.812" stroke="white" stroke-linecap="round"/>
<path d="M43.1562 74.3125C43.6992 75.3984 45.6413 81.9105 47.1927 82.2552C49.421 82.7504 51.0711 84.279 52.5312 86.0312" stroke="white" stroke-linecap="round"/>
<path d="M63.7812 97.2812L66.125 98.2188" stroke="white" stroke-linecap="round"/>
<path d="M44.7188 249.469C41.4769 249.646 37.5569 250.519 34.4062 249.469" stroke="#181A22" stroke-linecap="round"/>
<path d="M624.49 72.4852C618.307 72.8315 612.132 72.6439 606 71.4175C609.247 71.4175 608.491 67.1889 610.688 65.8967C611.873 65.1994 612.679 63.8854 613.969 63.2404C616.007 62.2211 618.75 63.4042 620.844 63.4488C623.569 63.5067 626.578 63.7879 629.203 62.98C630.82 62.4826 631.161 61.7165 632.354 60.7404C634.672 58.8437 638.542 57.9378 641.443 57.6154C644.326 57.2951 647.106 58.5595 650.036 58.2665C652.419 58.0282 654.542 56.0248 656.625 55.0113C658.538 54.0806 660.632 54.0351 662.719 54.0738C663.498 54.0882 665.057 54.8053 665.766 54.4904C666.991 53.9459 667.658 51.6315 668.917 50.7925C671.565 49.0272 674.032 47.5657 677.354 47.5113C680.948 47.4524 683.365 47.836 685.688 50.7925C688.785 54.7351 693.762 55.523 698.552 54.9071C705.827 53.9718 706.636 46.8182 710.062 41.6779C713.638 36.3146 716.845 32.7105 722.875 29.9071C728.614 27.2392 734.904 25.793 740.974 28.2925C745.178 30.0237 747.601 34.0949 751.99 35.3238C757.103 36.7554 763.084 38.4541 766.286 43.0581C768.674 46.4905 774.098 53.0963 779.177 52.1727C781.13 51.8176 782.324 48.9244 784.594 48.5529C789.427 47.7621 794.465 52.9653 797.042 56.4175C798.734 58.6844 799.309 60.9885 799.698 63.7092C799.917 65.2452 800.805 66.6159 800.974 68.1363C801.077 69.0618 802.073 72.6201 801 73.1884C798.954 74.2718 794.083 72.4852 792.016 72.4852H763.266C751.827 72.4852 740.443 73.0124 729.021 72.4852C715.18 71.8464 701.486 72.2423 687.641 72.4852C673.057 72.7411 658.425 73.3253 643.865 72.4852C637.397 72.1121 630.964 72.1227 624.49 72.4852Z" stroke="white" stroke-linecap="round"/>
<path d="M702.094 54.1876C705.161 53.5144 707.213 51.4354 710.531 51.3751C713.234 51.3259 715.521 52.7813 718.031 52.7813" stroke="white" stroke-linecap="round"/>
<path d="M723.656 50.4375L726 51.8438" stroke="white" stroke-linecap="round"/>
<path d="M751.072 128.345C749.299 124.711 750.231 122.893 751.782 118.51C754.114 111.918 757.66 106.593 763.292 102.312C776.62 92.1831 794.575 90.7155 810.584 93.302C826.86 95.9317 835.91 110.662 850.193 117.208C852.164 118.112 853.657 117.816 855.662 117.234C859.453 116.134 863.892 115.016 867.823 114.76C875.473 114.263 879.611 120.177 882.928 125.906C884.517 128.652 892.675 127.335 894.959 126.818C897.277 126.293 899.622 125.071 901.782 126.271C902.51 126.675 903.344 127.11 904.152 127.312C905.896 127.749 907.489 126.804 908.971 125.925L909.047 125.88C912.756 123.682 915.341 120.471 919.49 118.875C926.277 116.265 936.117 118.41 941.782 122.625C944.316 124.511 947.6 129.406 951.105 129.656C955.078 129.94 958.464 130.115 962.459 129.552C966.89 128.928 970.91 128.524 974.412 132.026C975.58 133.194 977.269 135.253 978.917 135.724C980.412 136.151 980.965 137.468 981.938 138.562C984.058 140.947 981.779 141.579 979.751 142.417C968.271 147.154 958.394 145.134 946.079 145.385C933.211 145.648 917.549 145.791 904.75 144.552C890.941 143.216 877.22 146.183 863.448 144.552C853.265 143.346 842.415 143.493 832.277 144.552C824.539 145.36 816.641 144.473 808.865 144.552C805.502 144.586 802.277 144.983 798.917 144.552C796.689 144.266 794.335 144.633 792.094 144.552C785.402 144.309 778.409 143.083 771.652 144.552C768.513 145.234 765.243 144.839 762.016 144.552C759.643 144.341 759.098 145.169 757.042 144.552C754.949 143.924 751.114 143.855 749.282 144.552C744.869 146.231 740.152 144.4 735.428 144.552C731.369 144.683 728.197 146.46 724.386 145.385C721.719 144.633 718.807 144.319 716.261 143.25C714.625 142.563 680.792 141.932 683.813 138.562C687.867 134.041 700.359 135.267 706.313 133.406C711.394 131.818 726.333 123.575 731.626 122.625C734.432 122.121 740.01 123.186 742.876 123.354C743.628 123.398 748.988 126.471 751.072 128.345Z" fill="#1D1D24" stroke="white" stroke-linecap="round"/>
<path d="M751.312 129.656C754.918 132.279 756.148 128.391 759.542 127.104C763.144 125.738 765.414 126.407 768.188 128.719" stroke="white" stroke-linecap="round"/>
<path d="M774.75 126.375L777.094 126.844" stroke="white" stroke-linecap="round"/>
<path d="M816 113.25C818.985 113.321 820.831 114.295 823.5 115.333C824.525 115.732 825.698 116.531 826.781 116.531" stroke="white" stroke-linecap="round"/>
<path d="M831 116.062C835.328 116.062 839.12 117.938 843.292 117.938C844.54 117.938 846.722 118.346 847.875 117.833C849.653 117.043 851.184 117.938 853.031 117.938" stroke="white" stroke-linecap="round"/>
<path d="M23.532 155.996C-12.9098 172.413 -35.1572 137.671 -35.1572 137.671C-35.1572 137.671 -32.7985 273.547 -28.6555 290.58C-21.9223 318.261 -56.0069 383.713 -35.1572 404.562C-27.1746 412.545 14.6226 385.015 23.532 392.142C35.6324 401.823 53.2156 403.358 67.907 407.247C91.4733 413.485 115.065 420.084 139.157 424.017C166.549 428.49 193.539 427.277 221.136 427.976C295.505 429.858 369.547 439.297 444.053 434.33C532.75 428.417 621.011 418.001 709.365 408.184C745.879 404.127 782.264 400.363 818.845 396.934C838.708 395.072 862.695 394.735 881.24 386.622C888.902 383.269 895.475 381.811 903.74 380.892C909.036 380.304 916.329 374.477 921.657 372.559C927.308 370.525 934.487 367.993 940.407 370.684C946.06 373.254 945.251 361.684 946.136 358.496C949.162 347.605 943.542 336.671 940.407 326.413C936.818 314.667 933.09 302.91 929.365 291.205C923.068 271.413 911.433 270.26 894.574 261.83C887.082 258.084 879.061 255.131 871.032 252.455C857.199 247.844 845.254 238.88 831.97 232.976C821.676 228.401 810.053 228.602 799.678 224.33C786.297 218.82 773.543 214.485 760.303 208.601C750.418 204.207 736.453 206.621 725.824 206.621C718.807 206.621 712.391 204.972 705.615 204.746C680.634 203.914 657.573 220.509 634.365 227.246C621.284 231.044 609.695 225.432 598.324 219.746C588.57 214.87 574.279 217.013 565.615 210.996C556.557 204.706 547.876 205.607 538.324 200.58C524.995 193.565 511.848 193.074 497.074 193.496C490.71 193.678 484.005 196.511 478.324 199.121C469.025 203.394 456.842 203.725 446.865 206.621C429.304 211.72 413.311 211.18 395.824 207.038C388.298 205.256 380.684 207.929 373.324 204.746C365.617 201.414 358.127 198.923 349.782 197.663C343.229 196.674 337.018 197.241 330.615 194.955C324.362 192.722 319.965 188.028 312.907 187.871C299.019 187.563 285.47 184.121 271.657 184.121C261.431 184.121 260.92 178.351 253.324 174.33C243.355 169.052 234.952 162.46 225.615 155.996C210.216 145.335 205.304 167.598 189.157 167.246C174.513 166.928 104.513 133.926 91.4053 137.671C68.5593 144.199 45.0894 146.285 23.532 155.996Z" fill="#DDD6FE" stroke="#181A22" stroke-linecap="round"/>
<path d="M260.155 184.25C265.73 187.037 271.114 190.678 277.03 192.688C283.145 194.764 290.004 195.84 295.78 198.677C299.736 200.62 303.036 202.383 306.457 205.135C309.384 207.489 312.931 208.961 316.614 209.562C322.403 210.509 328.288 210.413 334.062 211.542C339.865 212.676 345.588 213.486 351.457 214.146C354.97 214.541 358.372 215.139 361.77 216.125C364.954 217.05 367.835 218.642 371.093 219.406C377.729 220.963 383.212 223.704 388.593 227.74C393.762 231.616 399.177 232.797 405.78 233.365C410.117 233.738 415.648 234.34 419.53 236.281" stroke="#181A22" stroke-linecap="round"/>
<path d="M430.312 239.562C431.604 240.067 432.681 240.5 434.062 240.5" stroke="#181A22" stroke-linecap="round"/>
<path d="M441.562 241.906C443.892 242.589 446.332 243.028 448.593 243.781" stroke="#181A22" stroke-linecap="round"/>
<path d="M178.124 168.781C183.895 171.117 189.626 173.396 195.468 175.344" stroke="#181A22" stroke-linecap="round"/>
<path d="M473.124 201C473.124 201 480.197 199.25 485.259 199.25C487.797 199.25 490.168 199.719 492.655 199.719" stroke="#181A22" stroke-linecap="round"/>
<path d="M502.03 201.125C503.302 201.735 504.46 202.135 505.78 202.531" stroke="#181A22" stroke-linecap="round"/>
<path d="M512.812 204.406C514.264 205.236 515.366 205.812 517.03 205.812" stroke="#181A22" stroke-linecap="round"/>
<path d="M619.218 227.844C629.896 230.153 641.183 228.312 652.004 228.312C659.688 228.312 667.358 228.781 674.999 228.781" stroke="#181A22" stroke-linecap="round"/>
<path d="M701.718 230.188C705.205 232.099 708.151 233.291 712.03 233.938" stroke="#181A22" stroke-linecap="round"/>
<path d="M719.062 235.344C720.568 236.446 722.451 238.299 724.4 238.599C724.969 238.686 724.924 238.631 725.155 239.094" stroke="#181A22" stroke-linecap="round"/>
<path d="M21.5615 157.041C30.9094 155.569 40.395 154.854 49.6865 157.041" stroke="#181A22" stroke-linecap="round"/>
<path d="M56.249 158C59.5811 158.366 62.7631 159.168 66.0928 159.406" stroke="#181A22" stroke-linecap="round"/>
<path d="M494.062 252.688C502.15 254.49 510.303 256.691 518.541 257.74C526.354 258.735 534.354 258.63 542.213 258.781C560.368 259.13 578.574 259.898 596.692 258.312C608.914 257.243 621.13 256.799 633.384 256.333C639.986 256.083 646.46 255.605 652.968 256.906" stroke="#181A22" stroke-linecap="round"/>
<path d="M119.53 251.75L124.687 254.562" stroke="#181A22" stroke-linecap="round"/>
<path d="M321.093 200.656C328.55 201.713 335.901 203.6 343.437 203.833C351.507 204.083 359.515 204.083 367.499 205.344" stroke="#181A22" stroke-linecap="round"/>
<path d="M525.937 227.844C541.359 231.149 557.13 230.894 572.655 233.469C582.344 235.076 592.045 236.281 601.874 236.281" stroke="#181A22" stroke-linecap="round"/>
<path d="M617.812 236.75L621.562 237.688" stroke="#181A22" stroke-linecap="round"/>
<path d="M629.999 237.688H632.343" stroke="#181A22" stroke-linecap="round"/>
<path d="M250.78 199.719C269.804 210.589 289.489 218.776 310.78 223.885C316.686 225.303 322.787 226.516 328.827 227.141C335.865 227.869 342.653 229.901 349.66 230.865C359.587 232.229 369.421 233.733 379.4 234.641C387.969 235.42 396.459 236.911 404.999 237.688" stroke="#181A22" stroke-linecap="round"/>
<path d="M303.632 236.164C303.987 236.096 304.326 236.047 304.687 236.047" stroke="#181A22" stroke-linecap="round"/>
<path d="M308.76 108.832C301.834 105.386 292.778 102.941 283.064 101.436C281.559 91.7207 279.114 82.665 275.668 75.7385C271.993 68.3509 266.431 62 258.5 62C250.571 62 245.01 68.3503 241.335 75.7373C237.889 82.6635 235.442 91.7193 233.936 101.436C224.221 102.941 215.165 105.386 208.239 108.832C200.851 112.507 194.5 118.069 194.5 126C194.5 133.929 200.851 139.491 208.239 143.166C215.165 146.611 224.221 149.058 233.936 150.564C235.441 160.278 237.886 169.334 241.332 176.26C245.007 183.648 250.569 190 258.5 190C266.429 190 271.991 183.649 275.666 176.261C279.111 169.335 281.558 160.279 283.064 150.564C292.779 149.058 301.835 146.612 308.761 143.167C316.149 139.492 322.5 133.931 322.5 126C322.5 118.069 316.148 112.507 308.76 108.832Z" fill="#1D1D24" stroke="#1D1D24" stroke-width="8"/>
<path d="M279.032 104.968C276.198 83.731 269.022 66 258 66C246.981 66 239.805 83.728 236.968 104.968C215.731 107.802 198 114.978 198 126C198 137.019 215.731 144.195 236.968 147.032C239.802 168.266 246.978 186 258 186C269.019 186 276.195 168.269 279.032 147.032C300.269 144.195 318 137.022 318 126C318 114.978 300.266 107.802 279.032 104.968ZM236.278 140.842C215.937 137.904 204.076 131.18 204.076 125.997C204.076 120.814 215.94 114.09 236.278 111.152C235.829 116.049 235.596 121.048 235.596 125.997C235.596 130.946 235.829 135.951 236.278 140.842ZM258.003 72.0731C263.186 72.0731 269.91 83.9367 272.848 104.274C267.954 103.826 262.952 103.593 258.003 103.593C253.054 103.593 248.052 103.826 243.158 104.274C246.096 83.9337 252.82 72.0731 258.003 72.0731ZM279.726 140.842C278.725 140.989 274.617 141.468 273.579 141.573C273.477 142.613 272.992 146.718 272.848 147.719C269.91 168.06 263.186 179.924 258.003 179.924C252.82 179.924 246.096 168.06 243.158 147.719C243.014 146.718 242.529 142.61 242.427 141.573C241.955 136.752 241.669 131.573 241.669 125.997C241.669 120.424 241.955 115.245 242.427 110.418C247.248 109.945 252.427 109.66 258.003 109.66C263.576 109.66 268.755 109.945 273.579 110.418C274.62 110.52 278.725 111.005 279.726 111.149C300.066 114.087 311.933 120.814 311.933 125.994C311.93 131.173 300.066 137.904 279.726 140.842Z" fill="white"/>
<mask id="path-44-outside-1_802_428" maskUnits="userSpaceOnUse" x="356" y="79" width="274" height="117" fill="black">
<rect fill="white" x="356" y="79" width="274" height="117"/>
<path d="M400 161L385.4 134.5H381.3V161H364.2V90.8H392.9C398.433 90.8 403.133 91.7667 407 93.7C410.933 95.6333 413.867 98.3 415.8 101.7C417.733 105.033 418.7 108.767 418.7 112.9C418.7 117.567 417.367 121.733 414.7 125.4C412.1 129.067 408.233 131.667 403.1 133.2L419.3 161H400ZM381.3 122.4H391.9C395.033 122.4 397.367 121.633 398.9 120.1C400.5 118.567 401.3 116.4 401.3 113.6C401.3 110.933 400.5 108.833 398.9 107.3C397.367 105.767 395.033 105 391.9 105H381.3V122.4ZM484.534 105.2V161H467.434V153.4C465.701 155.867 463.334 157.867 460.334 159.4C457.401 160.867 454.134 161.6 450.534 161.6C446.268 161.6 442.501 160.667 439.234 158.8C435.968 156.867 433.434 154.1 431.634 150.5C429.834 146.9 428.934 142.667 428.934 137.8V105.2H445.934V135.5C445.934 139.233 446.901 142.133 448.834 144.2C450.768 146.267 453.368 147.3 456.634 147.3C459.968 147.3 462.601 146.267 464.534 144.2C466.468 142.133 467.434 139.233 467.434 135.5V105.2H484.534ZM513.917 113.1C515.517 110.5 517.817 108.4 520.817 106.8C523.817 105.2 527.251 104.4 531.117 104.4C535.717 104.4 539.884 105.567 543.617 107.9C547.351 110.233 550.284 113.567 552.417 117.9C554.617 122.233 555.717 127.267 555.717 133C555.717 138.733 554.617 143.8 552.417 148.2C550.284 152.533 547.351 155.9 543.617 158.3C539.884 160.633 535.717 161.8 531.117 161.8C527.184 161.8 523.751 161.033 520.817 159.5C517.884 157.9 515.584 155.8 513.917 153.2V161H496.817V87H513.917V113.1ZM538.317 133C538.317 128.733 537.117 125.4 534.717 123C532.384 120.533 529.484 119.3 526.017 119.3C522.617 119.3 519.717 120.533 517.317 123C514.984 125.467 513.817 128.833 513.817 133.1C513.817 137.367 514.984 140.733 517.317 143.2C519.717 145.667 522.617 146.9 526.017 146.9C529.417 146.9 532.317 145.667 534.717 143.2C537.117 140.667 538.317 137.267 538.317 133ZM621.688 105.2L586.688 187.5H568.288L581.088 159.1L558.388 105.2H577.488L590.388 140.1L603.188 105.2H621.688Z"/>
</mask>
<path d="M400 161L385.4 134.5H381.3V161H364.2V90.8H392.9C398.433 90.8 403.133 91.7667 407 93.7C410.933 95.6333 413.867 98.3 415.8 101.7C417.733 105.033 418.7 108.767 418.7 112.9C418.7 117.567 417.367 121.733 414.7 125.4C412.1 129.067 408.233 131.667 403.1 133.2L419.3 161H400ZM381.3 122.4H391.9C395.033 122.4 397.367 121.633 398.9 120.1C400.5 118.567 401.3 116.4 401.3 113.6C401.3 110.933 400.5 108.833 398.9 107.3C397.367 105.767 395.033 105 391.9 105H381.3V122.4ZM484.534 105.2V161H467.434V153.4C465.701 155.867 463.334 157.867 460.334 159.4C457.401 160.867 454.134 161.6 450.534 161.6C446.268 161.6 442.501 160.667 439.234 158.8C435.968 156.867 433.434 154.1 431.634 150.5C429.834 146.9 428.934 142.667 428.934 137.8V105.2H445.934V135.5C445.934 139.233 446.901 142.133 448.834 144.2C450.768 146.267 453.368 147.3 456.634 147.3C459.968 147.3 462.601 146.267 464.534 144.2C466.468 142.133 467.434 139.233 467.434 135.5V105.2H484.534ZM513.917 113.1C515.517 110.5 517.817 108.4 520.817 106.8C523.817 105.2 527.251 104.4 531.117 104.4C535.717 104.4 539.884 105.567 543.617 107.9C547.351 110.233 550.284 113.567 552.417 117.9C554.617 122.233 555.717 127.267 555.717 133C555.717 138.733 554.617 143.8 552.417 148.2C550.284 152.533 547.351 155.9 543.617 158.3C539.884 160.633 535.717 161.8 531.117 161.8C527.184 161.8 523.751 161.033 520.817 159.5C517.884 157.9 515.584 155.8 513.917 153.2V161H496.817V87H513.917V113.1ZM538.317 133C538.317 128.733 537.117 125.4 534.717 123C532.384 120.533 529.484 119.3 526.017 119.3C522.617 119.3 519.717 120.533 517.317 123C514.984 125.467 513.817 128.833 513.817 133.1C513.817 137.367 514.984 140.733 517.317 143.2C519.717 145.667 522.617 146.9 526.017 146.9C529.417 146.9 532.317 145.667 534.717 143.2C537.117 140.667 538.317 137.267 538.317 133ZM621.688 105.2L586.688 187.5H568.288L581.088 159.1L558.388 105.2H577.488L590.388 140.1L603.188 105.2H621.688Z" fill="white"/>
<path d="M400 161L392.993 164.86C394.4 167.414 397.085 169 400 169V161ZM385.4 134.5L392.407 130.64C391 128.086 388.315 126.5 385.4 126.5V134.5ZM381.3 134.5V126.5C376.882 126.5 373.3 130.082 373.3 134.5H381.3ZM381.3 161V169C385.718 169 389.3 165.418 389.3 161H381.3ZM364.2 161H356.2C356.2 165.418 359.782 169 364.2 169V161ZM364.2 90.8V82.8C359.782 82.8 356.2 86.3817 356.2 90.8H364.2ZM407 93.7L403.422 100.855C403.439 100.864 403.455 100.872 403.471 100.88L407 93.7ZM415.8 101.7L408.846 105.654C408.857 105.674 408.868 105.694 408.88 105.714L415.8 101.7ZM414.7 125.4L408.23 120.695C408.211 120.72 408.193 120.746 408.174 120.773L414.7 125.4ZM403.1 133.2L400.81 125.535C398.46 126.237 396.562 127.978 395.66 130.259C394.759 132.54 394.953 135.109 396.188 137.228L403.1 133.2ZM419.3 161V169C422.164 169 424.809 167.469 426.236 164.986C427.663 162.503 427.654 159.447 426.212 156.972L419.3 161ZM381.3 122.4H373.3C373.3 126.818 376.882 130.4 381.3 130.4V122.4ZM398.9 120.1L393.365 114.324C393.324 114.363 393.283 114.403 393.243 114.443L398.9 120.1ZM398.9 107.3L393.243 112.957C393.283 112.997 393.324 113.037 393.365 113.076L398.9 107.3ZM381.3 105V97C376.882 97 373.3 100.582 373.3 105H381.3ZM407.007 157.14L392.407 130.64L378.393 138.36L392.993 164.86L407.007 157.14ZM385.4 126.5H381.3V142.5H385.4V126.5ZM373.3 134.5V161H389.3V134.5H373.3ZM381.3 153H364.2V169H381.3V153ZM372.2 161V90.8H356.2V161H372.2ZM364.2 98.8H392.9V82.8H364.2V98.8ZM392.9 98.8C397.528 98.8 400.933 99.6108 403.422 100.855L410.578 86.5446C405.334 83.9225 399.338 82.8 392.9 82.8V98.8ZM403.471 100.88C406.145 102.194 407.799 103.813 408.846 105.654L422.754 97.7456C419.935 92.7866 415.721 89.0726 410.529 86.5204L403.471 100.88ZM408.88 105.714C410.054 107.739 410.7 110.07 410.7 112.9H426.7C426.7 107.463 425.412 102.327 422.72 97.6862L408.88 105.714ZM410.7 112.9C410.7 115.929 409.872 118.438 408.23 120.695L421.17 130.105C424.862 125.029 426.7 119.204 426.7 112.9H410.7ZM408.174 120.773C406.796 122.717 404.572 124.411 400.81 125.535L405.39 140.865C411.894 138.922 417.404 135.417 421.226 130.027L408.174 120.773ZM396.188 137.228L412.388 165.028L426.212 156.972L410.012 129.172L396.188 137.228ZM419.3 153H400V169H419.3V153ZM381.3 130.4H391.9V114.4H381.3V130.4ZM391.9 130.4C396.208 130.4 400.965 129.348 404.557 125.757L393.243 114.443C393.474 114.212 393.638 114.18 393.503 114.225C393.329 114.282 392.841 114.4 391.9 114.4V130.4ZM404.435 125.876C408.001 122.459 409.3 117.972 409.3 113.6H393.3C393.3 114.249 393.206 114.524 393.195 114.554C393.191 114.567 393.201 114.535 393.238 114.478C393.276 114.42 393.321 114.366 393.365 114.324L404.435 125.876ZM409.3 113.6C409.3 109.23 407.924 104.867 404.435 101.524L393.365 113.076C393.343 113.055 393.309 113.017 393.275 112.966C393.241 112.915 393.226 112.879 393.224 112.873C393.22 112.861 393.3 113.062 393.3 113.6H409.3ZM404.557 101.643C400.965 98.0516 396.208 97 391.9 97V113C392.841 113 393.329 113.118 393.503 113.175C393.638 113.22 393.474 113.188 393.243 112.957L404.557 101.643ZM391.9 97H381.3V113H391.9V97ZM373.3 105V122.4H389.3V105H373.3ZM484.534 105.2H492.534C492.534 100.782 488.953 97.2 484.534 97.2V105.2ZM484.534 161V169C488.953 169 492.534 165.418 492.534 161H484.534ZM467.434 161H459.434C459.434 165.418 463.016 169 467.434 169V161ZM467.434 153.4H475.434C475.434 149.911 473.173 146.824 469.846 145.772C466.52 144.72 462.895 145.946 460.889 148.8L467.434 153.4ZM460.334 159.4L463.912 166.555C463.933 166.545 463.954 166.534 463.975 166.523L460.334 159.4ZM439.234 158.8L435.16 165.685C435.195 165.705 435.23 165.726 435.265 165.746L439.234 158.8ZM431.634 150.5L424.479 154.078L431.634 150.5ZM428.934 105.2V97.2C424.516 97.2 420.934 100.782 420.934 105.2H428.934ZM445.934 105.2H453.934C453.934 100.782 450.353 97.2 445.934 97.2V105.2ZM448.834 144.2L442.992 149.665V149.665L448.834 144.2ZM464.534 144.2L458.692 138.735L464.534 144.2ZM467.434 105.2V97.2C463.016 97.2 459.434 100.782 459.434 105.2H467.434ZM476.534 105.2V161H492.534V105.2H476.534ZM484.534 153H467.434V169H484.534V153ZM475.434 161V153.4H459.434V161H475.434ZM460.889 148.8C459.988 150.082 458.673 151.265 456.693 152.277L463.975 166.523C467.996 164.468 471.414 161.652 473.98 158L460.889 148.8ZM456.757 152.245C455.039 153.103 453.016 153.6 450.534 153.6V169.6C455.253 169.6 459.763 168.63 463.912 166.555L456.757 152.245ZM450.534 153.6C447.47 153.6 445.107 152.942 443.203 151.854L435.265 165.746C439.896 168.392 445.065 169.6 450.534 169.6V153.6ZM443.309 151.915C441.447 150.813 439.946 149.234 438.79 146.922L424.479 154.078C426.923 158.966 430.488 162.92 435.16 165.685L443.309 151.915ZM438.79 146.922C437.65 144.642 436.934 141.681 436.934 137.8H420.934C420.934 143.652 422.019 149.158 424.479 154.078L438.79 146.922ZM436.934 137.8V105.2H420.934V137.8H436.934ZM428.934 113.2H445.934V97.2H428.934V113.2ZM437.934 105.2V135.5H453.934V105.2H437.934ZM437.934 135.5C437.934 140.598 439.277 145.693 442.992 149.665L454.677 138.735C454.526 138.573 453.934 137.869 453.934 135.5H437.934ZM442.992 149.665C446.676 153.603 451.528 155.3 456.634 155.3V139.3C455.208 139.3 454.859 138.93 454.677 138.735L442.992 149.665ZM456.634 155.3C461.753 155.3 466.661 153.637 470.377 149.665L458.692 138.735C458.541 138.896 458.182 139.3 456.634 139.3V155.3ZM470.377 149.665C474.092 145.693 475.434 140.598 475.434 135.5H459.434C459.434 137.869 458.843 138.573 458.692 138.735L470.377 149.665ZM475.434 135.5V105.2H459.434V135.5H475.434ZM467.434 113.2H484.534V97.2H467.434V113.2ZM513.917 113.1H505.917C505.917 116.679 508.295 119.823 511.738 120.798C515.182 121.772 518.855 120.341 520.73 117.293L513.917 113.1ZM520.817 106.8L517.052 99.7412L517.052 99.7412L520.817 106.8ZM543.617 107.9L539.377 114.684L543.617 107.9ZM552.417 117.9L545.24 121.433C545.254 121.463 545.269 121.492 545.284 121.522L552.417 117.9ZM552.417 148.2L545.262 144.622C545.254 144.637 545.247 144.652 545.24 144.667L552.417 148.2ZM543.617 158.3L547.857 165.084C547.886 165.066 547.915 165.048 547.943 165.029L543.617 158.3ZM520.817 159.5L516.986 166.523C517.028 166.546 517.069 166.568 517.111 166.59L520.817 159.5ZM513.917 153.2L520.652 148.883C518.735 145.892 515.076 144.524 511.668 145.523C508.259 146.521 505.917 149.648 505.917 153.2H513.917ZM513.917 161V169C518.335 169 521.917 165.418 521.917 161H513.917ZM496.817 161H488.817C488.817 165.418 492.399 169 496.817 169V161ZM496.817 87V79C492.399 79 488.817 82.5817 488.817 87H496.817ZM513.917 87H521.917C521.917 82.5817 518.335 79 513.917 79V87ZM534.717 123L528.905 128.498C528.956 128.551 529.008 128.604 529.06 128.657L534.717 123ZM517.317 123L511.583 117.421C511.557 117.448 511.531 117.475 511.505 117.502L517.317 123ZM517.317 143.2L511.505 148.698C511.531 148.725 511.557 148.752 511.583 148.779L517.317 143.2ZM534.717 143.2L540.451 148.779C540.476 148.753 540.5 148.728 540.525 148.702L534.717 143.2ZM520.73 117.293C521.504 116.035 522.688 114.869 524.582 113.859L517.052 99.7412C512.946 101.931 509.53 104.965 507.104 108.907L520.73 117.293ZM524.582 113.859C526.273 112.957 528.381 112.4 531.117 112.4V96.4C526.12 96.4 521.362 97.4428 517.052 99.7412L524.582 113.859ZM531.117 112.4C534.288 112.4 536.974 113.182 539.377 114.684L547.857 101.116C542.794 97.9514 537.146 96.4 531.117 96.4V112.4ZM539.377 114.684C541.727 116.153 543.698 118.302 545.24 121.433L559.595 114.367C556.87 108.832 552.974 104.314 547.857 101.116L539.377 114.684ZM545.284 121.522C546.82 124.548 547.717 128.3 547.717 133H563.717C563.717 126.233 562.414 119.919 559.551 114.278L545.284 121.522ZM547.717 133C547.717 137.697 546.821 141.503 545.262 144.622L559.573 151.778C562.413 146.097 563.717 139.77 563.717 133H547.717ZM545.24 144.667C543.69 147.814 541.694 150.026 539.291 151.571L547.943 165.029C553.007 161.774 556.878 157.252 559.595 151.733L545.24 144.667ZM539.377 151.516C536.974 153.018 534.288 153.8 531.117 153.8V169.8C537.146 169.8 542.794 168.249 547.857 165.084L539.377 151.516ZM531.117 153.8C528.232 153.8 526.116 153.243 524.523 152.41L517.111 166.59C521.385 168.824 526.135 169.8 531.117 169.8V153.8ZM524.648 152.477C522.795 151.466 521.535 150.259 520.652 148.883L507.182 157.517C509.633 161.34 512.972 164.334 516.986 166.523L524.648 152.477ZM505.917 153.2V161H521.917V153.2H505.917ZM513.917 153H496.817V169H513.917V153ZM504.817 161V87H488.817V161H504.817ZM496.817 95H513.917V79H496.817V95ZM505.917 87V113.1H521.917V87H505.917ZM546.317 133C546.317 127.187 544.637 121.606 540.374 117.343L529.06 128.657C529.597 129.194 530.317 130.28 530.317 133H546.317ZM540.529 117.502C536.649 113.401 531.63 111.3 526.017 111.3V127.3C527.337 127.3 528.119 127.666 528.905 128.498L540.529 117.502ZM526.017 111.3C520.428 111.3 515.469 113.428 511.583 117.421L523.051 128.579C523.966 127.639 524.807 127.3 526.017 127.3V111.3ZM511.505 117.502C507.43 121.81 505.817 127.337 505.817 133.1H521.817C521.817 130.33 522.537 129.123 523.129 128.498L511.505 117.502ZM505.817 133.1C505.817 138.863 507.43 144.39 511.505 148.698L523.129 137.702C522.537 137.077 521.817 135.87 521.817 133.1H505.817ZM511.583 148.779C515.469 152.772 520.428 154.9 526.017 154.9V138.9C524.807 138.9 523.966 138.561 523.051 137.621L511.583 148.779ZM526.017 154.9C531.607 154.9 536.566 152.772 540.451 148.779L528.983 137.621C528.069 138.561 527.228 138.9 526.017 138.9V154.9ZM540.525 148.702C544.632 144.367 546.317 138.833 546.317 133H530.317C530.317 135.701 529.603 136.967 528.91 137.698L540.525 148.702ZM621.688 105.2L629.05 108.331C630.101 105.86 629.842 103.026 628.361 100.787C626.88 98.5471 624.373 97.2 621.688 97.2V105.2ZM586.688 187.5V195.5C589.897 195.5 592.795 193.583 594.05 190.631L586.688 187.5ZM568.288 187.5L560.995 184.213C559.879 186.688 560.095 189.561 561.569 191.842C563.043 194.123 565.573 195.5 568.288 195.5V187.5ZM581.088 159.1L588.382 162.387C589.295 160.36 589.324 158.044 588.461 155.995L581.088 159.1ZM558.388 105.2V97.2C555.708 97.2 553.206 98.5422 551.723 100.775C550.241 103.008 549.975 105.835 551.015 108.305L558.388 105.2ZM577.488 105.2L584.992 102.426C583.831 99.2855 580.837 97.2 577.488 97.2V105.2ZM590.388 140.1L582.884 142.874C584.047 146.018 587.046 148.104 590.398 148.1C593.751 148.096 596.745 146.002 597.899 142.855L590.388 140.1ZM603.188 105.2V97.2C599.832 97.2 596.833 99.2946 595.678 102.445L603.188 105.2ZM614.326 102.069L579.326 184.369L594.05 190.631L629.05 108.331L614.326 102.069ZM586.688 179.5H568.288V195.5H586.688V179.5ZM575.582 190.787L588.382 162.387L573.795 155.813L560.995 184.213L575.582 190.787ZM588.461 155.995L565.761 102.095L551.015 108.305L573.715 162.205L588.461 155.995ZM558.388 113.2H577.488V97.2H558.388V113.2ZM569.984 107.974L582.884 142.874L597.892 137.326L584.992 102.426L569.984 107.974ZM597.899 142.855L610.699 107.955L595.678 102.445L582.878 137.345L597.899 142.855ZM603.188 113.2H621.688V97.2H603.188V113.2Z" fill="#1D1D24" mask="url(#path-44-outside-1_802_428)"/>
</g>
<defs>
<clipPath id="clip0_802_428">
<rect width="900" height="254" rx="24" fill="white"/>
</clipPath>
</defs>
</svg>
