<svg width="46" height="45" viewBox="0 0 46 45" fill="none" xmlns="http://www.w3.org/2000/svg">
<rect x="0.911133" width="45" height="45" fill="#FECB2F"/>
<g clip-path="url(#clip0_689_17662)">
<path d="M9.7237 28.8264C9.43532 28.8264 9.1902 28.7278 8.98834 28.5304C8.78648 28.3281 8.68555 28.0877 8.68555 27.8095C8.68555 27.5261 8.78648 27.2833 8.98834 27.0809C9.1902 26.8785 9.43532 26.7773 9.7237 26.7773C10.0169 26.7773 10.2644 26.8785 10.4663 27.0809C10.6729 27.2833 10.7763 27.5261 10.7763 27.8095C10.7763 28.0877 10.6729 28.3281 10.4663 28.5304C10.2644 28.7278 10.0169 28.8264 9.7237 28.8264Z" fill="#161723"/>
<path d="M21.249 28.6603H19.3746L14.4362 20.6612C14.3112 20.4589 14.2079 20.2489 14.1262 20.0313H14.0829C14.1214 20.2641 14.1406 20.7624 14.1406 21.5264V28.6603H12.4824V17.7773H14.4794L19.252 25.5866C19.4539 25.9104 19.5836 26.1331 19.6413 26.2545H19.6702C19.6221 25.9661 19.598 25.4779 19.598 24.7898V17.7773H21.249V28.6603Z" fill="#161723"/>
<path d="M29.325 28.6603H23.5215V17.7773H29.0944V19.3104H25.2373V22.3916H28.7915V23.917H25.2373V27.1348H29.325V28.6603Z" fill="#161723"/>
<path d="M37.5789 19.3104H34.6086V28.6603H32.8928V19.3104H29.9297V17.7773H37.5789V19.3104Z" fill="#161723"/>
</g>
<defs>
<clipPath id="clip0_689_17662">
<rect width="28.8889" height="11.1111" fill="white" transform="translate(8.68555 17.7773)"/>
</clipPath>
</defs>
</svg>
