<svg width="46" height="45" viewBox="0 0 46 45" fill="none" xmlns="http://www.w3.org/2000/svg">
<rect x="0.71582" width="45" height="45" fill="#FF6BFF"/>
<path fill-rule="evenodd" clip-rule="evenodd" d="M22.9432 30.84C14.0438 30.84 6.8291 27.0448 6.8291 22.3633C6.8291 17.6819 14.0438 13.8867 22.9432 13.8867C31.8426 13.8867 39.0573 17.6819 39.0573 22.3633C39.0573 27.0448 31.8426 30.84 22.9432 30.84ZM23.3007 16.1035L22.8439 18.4535H24.546C25.6169 18.4535 26.3556 18.6404 26.7621 19.0138C27.1687 19.3874 27.2905 19.9927 27.128 20.8294L26.3286 24.9427H24.3877L25.1478 21.0317C25.2343 20.5868 25.2025 20.2834 25.0523 20.1216C24.9021 19.9598 24.5825 19.8787 24.0937 19.8787H22.5667L21.5826 24.9427H19.672L21.3902 16.1035H23.3007ZM14.1277 23.5479H15.2991C16.0755 23.5479 16.6538 23.4017 17.0338 23.1092C17.4138 22.8166 17.6702 22.3284 17.8034 21.6441C17.9308 20.9872 17.8727 20.5236 17.6292 20.2536C17.3854 19.9835 16.8978 19.8485 16.1662 19.8485H14.8468L14.1277 23.5479ZM16.8954 18.4536C18.0094 18.4536 18.8221 18.7459 19.3329 19.3306C19.8437 19.9153 19.9975 20.7314 19.7937 21.7792C19.7098 22.2108 19.568 22.6055 19.3682 22.963C19.1683 23.3207 18.9072 23.6479 18.5845 23.9445C18.2 24.3043 17.7728 24.5607 17.3027 24.7134C16.8327 24.8665 16.234 24.9428 15.5061 24.9428H13.8566L13.3999 27.2928H11.4742L13.1923 18.4536H16.8954ZM30.3297 23.5479H29.1583L29.8774 19.8485H31.1968C31.9284 19.8485 32.416 19.9835 32.6598 20.2536C32.9034 20.5236 32.9614 20.9872 32.8339 21.6441C32.7007 22.3284 32.4445 22.8166 32.0644 23.1092C31.6844 23.4017 31.1061 23.5479 30.3297 23.5479ZM34.3635 19.3306C33.8527 18.7459 33.04 18.4536 31.926 18.4536H28.223L26.5048 27.2928H28.4305L28.8872 24.9428H30.5367C31.2645 24.9428 31.8632 24.8665 32.3333 24.7134C32.8034 24.5607 33.2305 24.3043 33.6151 23.9445C33.9377 23.6479 34.1988 23.3207 34.3988 22.963C34.5985 22.6055 34.7404 22.2108 34.8243 21.7792C35.0281 20.7314 34.8743 19.9153 34.3635 19.3306Z" fill="#161723"/>
</svg>
