<svg width="46" height="45" viewBox="0 0 46 45" fill="none" xmlns="http://www.w3.org/2000/svg">
<rect x="0.325195" width="45" height="45" fill="#59FDA0"/>
<path fill-rule="evenodd" clip-rule="evenodd" d="M14.3896 13.6055H30.9646C31.4381 13.6055 31.822 13.9893 31.822 14.4628V31.0379C31.822 31.5114 31.4381 31.8952 30.9646 31.8952H14.3896C13.9161 31.8952 13.5322 31.5114 13.5322 31.0379V14.4628C13.5322 13.9893 13.9161 13.6055 14.3896 13.6055ZM24.1461 29.822V27.8179C24.5083 28.1226 24.9016 28.3513 25.3262 28.5036C25.7508 28.656 26.1796 28.7322 26.6125 28.7322C26.8665 28.7322 27.0881 28.7092 27.2775 28.6633C27.4669 28.6175 27.6251 28.5537 27.7521 28.4723C27.879 28.3908 27.9738 28.2948 28.0362 28.1842C28.0987 28.0736 28.1298 27.9536 28.1298 27.8241C28.1298 27.6487 28.0799 27.4922 27.9799 27.3544C27.88 27.2166 27.7438 27.0893 27.571 26.9724C27.3983 26.8555 27.1932 26.7427 26.956 26.6342C26.7187 26.5256 26.4627 26.415 26.1879 26.3023C25.4886 26.01 24.9672 25.653 24.6238 25.2313C24.2804 24.8096 24.1086 24.3002 24.1086 23.7032C24.1086 23.2356 24.2023 22.8337 24.3896 22.4976C24.5769 22.1615 24.8319 21.8849 25.1545 21.6678C25.4771 21.4507 25.8508 21.291 26.2753 21.1887C26.7 21.0864 27.1495 21.0352 27.6241 21.0352C28.0904 21.0352 28.5035 21.0634 28.8635 21.1198C29.2236 21.1761 29.5556 21.2628 29.8595 21.3797V23.2523C29.7096 23.1479 29.5463 23.056 29.3694 22.9767C29.1923 22.8974 29.0103 22.8316 28.823 22.7794C28.6356 22.7272 28.4493 22.6886 28.2641 22.6636C28.0788 22.6385 27.9031 22.626 27.7365 22.626C27.5075 22.626 27.2994 22.6479 27.1121 22.6917C26.9247 22.7356 26.7666 22.7972 26.6375 22.8765C26.5085 22.9558 26.4086 23.0508 26.3378 23.1614C26.267 23.2721 26.2316 23.3963 26.2316 23.5341C26.2316 23.6844 26.2712 23.8191 26.3503 23.938C26.4294 24.057 26.5418 24.1698 26.6875 24.2762C26.8332 24.3827 27.0101 24.4871 27.2182 24.5894C27.4263 24.6917 27.6615 24.7971 27.9238 24.9056C28.2818 25.056 28.6033 25.2157 28.8886 25.3848C29.1736 25.5538 29.4182 25.7449 29.6221 25.9578C29.8262 26.1707 29.9822 26.4139 30.0905 26.6874C30.1987 26.9609 30.2529 27.2793 30.2529 27.6425C30.2529 28.1435 30.1581 28.5642 29.9688 28.9044C29.7793 29.2447 29.5223 29.5202 29.1976 29.7311C28.8728 29.942 28.4952 30.0934 28.0642 30.1852C27.6334 30.2771 27.1787 30.323 26.7 30.323C26.2087 30.323 25.7415 30.2813 25.2982 30.1977C24.8548 30.1142 24.4708 29.9889 24.1461 29.822ZM23.3942 22.8291H20.7797V30.1801H18.7086V22.8291H16.1069V21.1781H23.3942V22.8291Z" fill="#161723"/>
</svg>
