<svg width="626" height="363" viewBox="0 0 626 363" fill="none" xmlns="http://www.w3.org/2000/svg">
<path d="M79.2548 155.954C79.2548 159.617 82.224 162.586 85.8867 162.586C89.5494 162.586 92.5186 159.617 92.5186 155.954C92.5186 152.291 89.5494 149.322 85.8867 149.322C82.224 149.322 79.2548 152.291 79.2548 155.954ZM85.8867 320.094H84.6432V321.338H85.8867V320.094ZM84.6432 155.954V320.094H87.1302V155.954H84.6432ZM85.8867 321.338H483.491V318.851H85.8867V321.338Z" fill="white"/>
<path d="M490.019 302.063L508.05 320.094L490.019 338.125" stroke="white" stroke-width="2.48697"/>
<path d="M504.941 302.063L522.971 320.094L504.941 338.125" stroke="white" stroke-width="2.48697"/>
<path d="M547.408 211.5C547.408 207.837 544.439 204.868 540.776 204.868C537.113 204.868 534.144 207.837 534.144 211.5C534.144 215.163 537.113 218.132 540.776 218.132C544.439 218.132 547.408 215.163 547.408 211.5ZM540.776 47.5L542.02 47.5L542.02 46.2565L540.776 46.2565L540.776 47.5ZM542.02 211.5L542.02 47.5L539.533 47.5L539.533 211.5L542.02 211.5ZM540.776 46.2565L138.776 46.2565L138.776 48.7435L540.776 48.7435L540.776 46.2565Z" fill="white"/>
<path d="M133.729 65.5615L115.698 47.531L133.729 29.5005" stroke="white" stroke-width="2.48697"/>
<path d="M118.807 65.5615L100.776 47.531L118.807 29.5005" stroke="white" stroke-width="2.48697"/>
<rect x="1.27612" y="1" width="84" height="84" fill="#FF6BFF" stroke="#FF6BFF"/>
<mask id="path-8-inside-1_8593_13456" fill="white">
<path d="M52.2724 9.53125L56.3896 10.8594L55.7255 12.8516L36.6005 74.4766L35.9365 76.4688L31.9521 75.2734L32.4833 73.2812L51.6083 11.6562L52.2724 9.53125ZM22.9208 23.0781L25.8427 26.1328L24.3818 27.5938L7.91304 43L24.249 58.5391L25.8427 60L22.9208 63.0547L21.4599 61.5938L3.39741 44.5938L1.67085 43L3.39741 41.5391L21.4599 24.5391L22.9208 23.0781ZM62.3662 26.2656L65.1552 23.0781L66.749 24.4062C70.6005 27.8594 73.2568 30.3828 75.913 33.0391C78.5693 35.5625 81.0927 38.2188 84.8115 41.4062L86.538 43L84.8115 44.5938L66.749 61.5938L65.288 63.0547L62.3662 60L63.9599 58.5391L80.2958 43.1328C77.374 40.4766 75.1162 38.2188 72.8583 36.0938C70.2021 33.4375 67.6787 30.9141 63.9599 27.5938L62.3662 26.2656Z"/>
</mask>
<path d="M52.2724 9.53125L56.3896 10.8594L55.7255 12.8516L36.6005 74.4766L35.9365 76.4688L31.9521 75.2734L32.4833 73.2812L51.6083 11.6562L52.2724 9.53125ZM22.9208 23.0781L25.8427 26.1328L24.3818 27.5938L7.91304 43L24.249 58.5391L25.8427 60L22.9208 63.0547L21.4599 61.5938L3.39741 44.5938L1.67085 43L3.39741 41.5391L21.4599 24.5391L22.9208 23.0781ZM62.3662 26.2656L65.1552 23.0781L66.749 24.4062C70.6005 27.8594 73.2568 30.3828 75.913 33.0391C78.5693 35.5625 81.0927 38.2188 84.8115 41.4062L86.538 43L84.8115 44.5938L66.749 61.5938L65.288 63.0547L62.3662 60L63.9599 58.5391L80.2958 43.1328C77.374 40.4766 75.1162 38.2188 72.8583 36.0938C70.2021 33.4375 67.6787 30.9141 63.9599 27.5938L62.3662 26.2656Z" fill="#141414"/>
<path d="M52.2724 9.53125L52.5794 8.57954L51.6189 8.26971L51.3179 9.23298L52.2724 9.53125ZM56.3896 10.8594L57.3383 11.1756L57.6576 10.2177L56.6966 9.90767L56.3896 10.8594ZM55.7255 12.8516L54.7769 12.5353L54.7736 12.5452L54.7705 12.5552L55.7255 12.8516ZM36.6005 74.4766L37.5492 74.7928L37.5525 74.7829L37.5556 74.773L36.6005 74.4766ZM35.9365 76.4688L35.6491 77.4266L36.5784 77.7053L36.8852 76.785L35.9365 76.4688ZM31.9521 75.2734L30.9859 75.0158L30.736 75.9526L31.6648 76.2313L31.9521 75.2734ZM32.4833 73.2812L31.5283 72.9848L31.5223 73.0041L31.5171 73.0236L32.4833 73.2812ZM51.6083 11.6562L50.6539 11.358L50.6533 11.3599L51.6083 11.6562ZM22.9208 23.0781L23.6435 22.3869L22.9367 21.648L22.2137 22.371L22.9208 23.0781ZM25.8427 26.1328L26.5498 26.8399L27.2414 26.1484L26.5654 25.4416L25.8427 26.1328ZM24.3818 27.5938L25.0649 28.324L25.0771 28.3126L25.0889 28.3009L24.3818 27.5938ZM7.91304 43L7.22988 42.2697L6.45573 42.9939L7.22382 43.7246L7.91304 43ZM24.249 58.5391L23.5598 59.2636L23.5664 59.27L23.5732 59.2762L24.249 58.5391ZM25.8427 60L26.5654 60.6912L27.2714 59.9531L26.5184 59.2628L25.8427 60ZM22.9208 63.0547L22.2137 63.7618L22.9367 64.4848L23.6435 63.7459L22.9208 63.0547ZM21.4599 61.5938L22.167 60.8866L22.1563 60.8759L22.1453 60.8656L21.4599 61.5938ZM3.39741 44.5938L4.08281 43.8655L4.07569 43.8589L3.39741 44.5938ZM1.67085 43L1.02491 42.2366L0.161232 42.9674L0.992569 43.7348L1.67085 43ZM3.39741 41.5391L4.04335 42.3024L4.06353 42.2854L4.08278 42.2673L3.39741 41.5391ZM21.4599 24.5391L22.1453 25.2673L22.1563 25.2569L22.167 25.2462L21.4599 24.5391ZM62.3662 26.2656L61.6136 25.6071L60.939 26.378L61.726 27.0338L62.3662 26.2656ZM65.1552 23.0781L65.7954 22.3099L65.0455 21.685L64.4026 22.4196L65.1552 23.0781ZM66.749 24.4062L67.4165 23.6617L67.4031 23.6496L67.3892 23.638L66.749 24.4062ZM75.913 33.0391L75.2059 33.7462L75.215 33.7552L75.2243 33.7641L75.913 33.0391ZM84.8115 41.4062L85.4898 40.6714L85.4762 40.659L85.4623 40.647L84.8115 41.4062ZM86.538 43L87.2163 43.7348L88.0124 43L87.2163 42.2652L86.538 43ZM84.8115 44.5938L84.1332 43.8589L84.1261 43.8656L84.8115 44.5938ZM66.749 61.5938L66.0636 60.8656L66.0526 60.8759L66.0419 60.8866L66.749 61.5938ZM65.288 63.0547L64.5654 63.7459L65.2721 64.4848L65.9951 63.7618L65.288 63.0547ZM62.3662 60L61.6904 59.2628L60.9375 59.9531L61.6435 60.6912L62.3662 60ZM63.9599 58.5391L64.6356 59.2762L64.6409 59.2714L64.646 59.2666L63.9599 58.5391ZM80.2959 43.1328L80.9819 43.8603L81.7676 43.1193L80.9685 42.3929L80.2959 43.1328ZM72.8584 36.0938L72.1512 36.8009L72.162 36.8116L72.173 36.8219L72.8584 36.0938ZM63.9599 27.5938L64.6259 26.8478L64.6132 26.8365L64.6001 26.8255L63.9599 27.5938ZM51.9654 10.483L56.0826 11.8111L56.6966 9.90767L52.5794 8.57954L51.9654 10.483ZM55.4409 10.5431L54.7769 12.5353L56.6742 13.1678L57.3383 11.1756L55.4409 10.5431ZM54.7705 12.5552L35.6455 74.1802L37.5556 74.773L56.6806 13.148L54.7705 12.5552ZM35.6519 74.1603L34.9878 76.1525L36.8852 76.785L37.5492 74.7928L35.6519 74.1603ZM36.2238 75.5109L32.2394 74.3156L31.6648 76.2313L35.6491 77.4266L36.2238 75.5109ZM32.9183 75.5311L33.4496 73.5389L31.5171 73.0236L30.9859 75.0158L32.9183 75.5311ZM33.4384 73.5777L52.5634 11.9526L50.6533 11.3599L31.5283 72.9848L33.4384 73.5777ZM52.5628 11.9545L53.2269 9.82952L51.3179 9.23298L50.6539 11.358L52.5628 11.9545ZM22.1982 23.7693L25.1201 26.824L26.5654 25.4416L23.6435 22.3869L22.1982 23.7693ZM25.1356 25.4257L23.6747 26.8866L25.0889 28.3009L26.5498 26.8399L25.1356 25.4257ZM23.6986 26.8635L7.22988 42.2697L8.59619 43.7303L25.0649 28.324L23.6986 26.8635ZM7.22382 43.7246L23.5598 59.2636L24.9382 57.8145L8.60225 42.2754L7.22382 43.7246ZM23.5732 59.2762L25.167 60.7372L26.5184 59.2628L24.9247 57.8019L23.5732 59.2762ZM25.1201 59.3088L22.1982 62.3635L23.6435 63.7459L26.5654 60.6912L25.1201 59.3088ZM23.628 62.3476L22.167 60.8866L20.7528 62.3009L22.2137 63.7618L23.628 62.3476ZM22.1453 60.8656L4.08278 43.8656L2.71205 45.3219L20.7745 62.3219L22.1453 60.8656ZM4.07569 43.8589L2.34913 42.2652L0.992569 43.7348L2.71913 45.3286L4.07569 43.8589ZM2.31679 43.7634L4.04335 42.3024L2.75147 40.7757L1.02491 42.2366L2.31679 43.7634ZM4.08278 42.2673L22.1453 25.2673L20.7745 23.8109L2.71205 40.8109L4.08278 42.2673ZM22.167 25.2462L23.628 23.7852L22.2137 22.371L20.7528 23.832L22.167 25.2462ZM63.1187 26.9241L65.9078 23.7366L64.4026 22.4196L61.6136 25.6071L63.1187 26.9241ZM64.515 23.8463L66.1088 25.1745L67.3892 23.638L65.7954 22.3099L64.515 23.8463ZM66.0814 25.1508C69.9212 28.5933 72.564 31.1043 75.2059 33.7462L76.6201 32.332C73.9495 29.6614 71.2799 27.1254 67.4165 23.6617L66.0814 25.1508ZM75.2243 33.7641C77.8394 36.2484 80.4173 38.9569 84.1607 42.1655L85.4623 40.647C81.7682 37.4806 79.2992 34.8766 76.6018 32.3141L75.2243 33.7641ZM84.1332 42.1411L85.8598 43.7348L87.2163 42.2652L85.4898 40.6714L84.1332 42.1411ZM85.8598 42.2652L84.1332 43.8589L85.4898 45.3286L87.2163 43.7348L85.8598 42.2652ZM84.1261 43.8656L66.0636 60.8656L67.4343 62.3219L85.4968 45.3219L84.1261 43.8656ZM66.0419 60.8866L64.5809 62.3476L65.9951 63.7618L67.4561 62.3009L66.0419 60.8866ZM66.0107 62.3635L63.0888 59.3088L61.6435 60.6912L64.5654 63.7459L66.0107 62.3635ZM63.0419 60.7372L64.6356 59.2762L63.2842 57.8019L61.6904 59.2628L63.0419 60.7372ZM64.646 59.2666L80.9819 43.8603L79.6097 42.4053L63.2738 57.8116L64.646 59.2666ZM80.9685 42.3929C78.0502 39.7399 75.8329 37.5201 73.5437 35.3656L72.173 36.8219C74.3994 38.9174 76.6977 41.2133 79.6232 43.8728L80.9685 42.3929ZM73.5655 35.3866C70.9076 32.7288 68.3673 30.1883 64.6259 26.8478L63.2939 28.3397C66.9901 31.6398 69.4966 34.1462 72.1512 36.8009L73.5655 35.3866ZM64.6001 26.8255L63.0063 25.4974L61.726 27.0338L63.3197 28.362L64.6001 26.8255Z" fill="#FF6BFF" mask="url(#path-8-inside-1_8593_13456)"/>
<rect x="541.661" y="278.937" width="83.1263" height="83.1263" fill="#59FDA0" stroke="#59FDA0" stroke-width="0.873684"/>
<path d="M598.698 327.193V340.228V341.403L597.641 341.99L582.609 349.506L579.908 350.798V347.744V336.471C576.855 337.762 574.858 338.584 574.858 338.584L565.346 329.072C565.346 329.072 566.168 327.193 567.46 324.257H556.421H553.368L554.66 321.556L562.175 306.525L562.763 305.468H563.937H577.09C577.324 304.998 577.559 304.646 577.912 304.176C588.363 288.675 604.452 289.614 612.555 291.611C614.551 299.714 615.491 315.802 599.989 326.254C599.52 326.606 599.167 326.841 598.698 327.193ZM594.94 329.307C591.299 331.303 587.189 333.182 583.666 334.827V344.808L594.94 339.172V329.307ZM569.222 320.5C570.866 316.977 572.862 312.866 574.858 309.226H564.994L559.357 320.5H569.222ZM569.809 328.25L575.68 334.122L576.15 334.004C577.912 333.3 580.26 332.243 582.844 331.069C588.128 328.603 594.118 325.667 597.875 323.201C610.089 314.863 610.793 302.532 609.384 294.781C601.633 293.372 589.303 293.959 580.965 306.29C578.499 310.048 575.446 316.037 572.979 321.204C571.805 323.788 570.748 326.136 570.044 327.898L569.809 328.25ZM596.819 310.165C598.345 310.165 599.637 308.991 599.637 307.347C599.637 305.82 598.345 304.528 596.819 304.528C595.174 304.528 594 305.82 594 307.347C594 308.991 595.174 310.165 596.819 310.165ZM590.242 307.347C590.242 304.998 591.417 302.884 593.53 301.71C595.527 300.536 597.993 300.536 600.107 301.71C602.103 302.884 603.395 304.998 603.395 307.347C603.395 309.813 602.103 311.927 600.107 313.101C597.993 314.276 595.527 314.276 593.53 313.101C591.417 311.927 590.242 309.813 590.242 307.347Z" fill="#141414"/>
<path fill-rule="evenodd" clip-rule="evenodd" d="M597.813 326.751L598.167 326.486C598.41 326.304 598.622 326.152 598.827 326.006L598.829 326.004C599.035 325.857 599.233 325.716 599.459 325.546L599.477 325.533L599.495 325.521C614.214 315.596 613.688 300.45 611.821 292.345C603.715 290.477 588.569 289.951 578.645 304.67L578.632 304.689L578.619 304.707C578.285 305.152 578.083 305.458 577.88 305.863L577.636 306.352H563.283L562.958 306.937L555.454 321.945L554.771 323.373H568.815L568.269 324.614C567.624 326.081 567.095 327.284 566.728 328.121C566.597 328.421 566.486 328.673 566.398 328.874L575.066 337.542C575.284 337.451 575.563 337.335 575.898 337.196C576.778 336.829 578.039 336.301 579.564 335.656L580.792 335.136V349.395L582.221 348.711L597.228 341.208L597.813 340.883V326.751ZM598.698 341.403L597.641 341.99L582.609 349.506L579.908 350.798V336.471C579.602 336.6 579.307 336.725 579.024 336.844C576.475 337.919 574.858 338.584 574.858 338.584L565.346 329.072C565.346 329.072 566.006 327.565 567.071 325.142C567.195 324.859 567.325 324.564 567.46 324.257H553.368L554.66 321.556L562.175 306.525L562.763 305.468H577.09C577.324 304.998 577.559 304.646 577.912 304.176C588.363 288.675 604.452 289.614 612.555 291.611C614.551 299.714 615.491 315.802 599.989 326.254C599.754 326.43 599.549 326.577 599.343 326.724C599.138 326.87 598.932 327.017 598.698 327.193V341.403ZM595.824 327.814V339.718L582.782 346.239V334.263L583.292 334.025C583.654 333.856 584.022 333.685 584.395 333.511C587.658 331.992 591.275 330.308 594.514 328.532L595.824 327.814ZM569.785 321.384H557.926L564.447 308.342H576.352L575.634 309.651C573.651 313.267 571.664 317.357 570.023 320.873L569.785 321.384ZM568.671 328.363L569.257 327.484C569.97 325.71 571.021 323.376 572.174 320.838L572.178 320.831L572.181 320.823C574.648 315.655 577.724 309.618 580.226 305.805L580.232 305.795C588.846 293.057 601.611 292.469 609.542 293.912L610.144 294.021L610.254 294.623C611.697 302.561 610.987 315.32 598.374 323.931L598.367 323.935L598.361 323.94C594.542 326.446 588.496 329.407 583.218 331.87L583.21 331.874C580.631 333.046 578.263 334.112 576.479 334.825L576.423 334.848L575.409 335.101L568.671 328.363ZM570.044 327.898L569.809 328.25L575.68 334.122L576.15 334.004C577.912 333.3 580.26 332.243 582.844 331.069C588.128 328.603 594.118 325.667 597.875 323.201C610.089 314.863 610.793 302.532 609.384 294.781C601.633 293.372 589.303 293.959 580.965 306.29C578.499 310.048 575.446 316.037 572.979 321.204C571.805 323.788 570.748 326.136 570.044 327.898ZM593.969 302.478L593.96 302.483C592.138 303.495 591.126 305.306 591.126 307.347C591.126 309.514 592.146 311.32 593.96 312.328L593.969 312.334L593.979 312.339C595.688 313.344 597.815 313.359 599.668 312.334C601.398 311.312 602.511 309.486 602.511 307.347C602.511 305.334 601.405 303.504 599.668 302.478C597.815 301.453 595.688 301.467 593.979 302.472L593.969 302.478ZM600.107 301.71C597.993 300.536 595.527 300.536 593.53 301.71C591.417 302.884 590.242 304.998 590.242 307.347C590.242 309.813 591.417 311.927 593.53 313.101C595.527 314.276 597.993 314.276 600.107 313.101C602.103 311.927 603.395 309.813 603.395 307.347C603.395 304.998 602.103 302.884 600.107 301.71ZM583.666 334.827C584.028 334.658 584.396 334.486 584.769 334.312C587.737 332.931 591.025 331.4 594.055 329.785C594.353 329.626 594.648 329.467 594.94 329.307V339.172L583.666 344.808V334.827ZM574.858 309.226H564.994L559.357 320.5H569.222C570.734 317.259 572.544 313.522 574.378 310.11C574.538 309.813 574.698 309.518 574.858 309.226ZM600.521 307.347C600.521 309.503 598.809 311.05 596.819 311.05C594.686 311.05 593.116 309.479 593.116 307.347C593.116 305.356 594.662 303.644 596.819 303.644C598.834 303.644 600.521 305.332 600.521 307.347ZM599.637 307.347C599.637 308.991 598.345 310.165 596.819 310.165C595.174 310.165 594 308.991 594 307.347C594 305.82 595.174 304.528 596.819 304.528C598.345 304.528 599.637 305.82 599.637 307.347Z" fill="#59FDA0"/>
<rect x="313.724" y="87" width="183" height="197" transform="rotate(90 313.724 87)" fill="url(#paint0_linear_8593_13456)" fill-opacity="0.4" stroke="url(#paint1_linear_8593_13456)" stroke-width="3"/>
<path d="M199.724 150.438V157.547L207.536 162H221.833L229.724 157.547V150.438L222.771 154.344L222.536 154.5H222.224H207.224H206.833L206.599 154.344L199.724 150.438ZM199.724 147.547L207.536 152H221.833L229.724 147.547V142.156L221.443 137H207.927L199.724 142.156V147.547ZM199.724 166.922L207.927 172H221.443L229.724 166.922V160.438L222.771 164.344L222.536 164.5H222.224H207.224H206.833L206.599 164.344L199.724 160.438V166.922ZM207.224 134.5H222.224L232.224 140.75V168.25L222.224 174.5H207.224L197.224 168.25V140.75L207.224 134.5Z" fill="white"/>
<path d="M150.347 216.7C149.6 216.7 148.874 216.633 148.167 216.5C147.46 216.353 146.867 216.16 146.387 215.92V213.98C146.947 214.233 147.58 214.453 148.287 214.64C148.994 214.813 149.7 214.9 150.407 214.9C151.02 214.9 151.54 214.82 151.967 214.66C152.394 214.5 152.714 214.253 152.927 213.92C153.154 213.587 153.267 213.167 153.267 212.66C153.267 212.22 153.167 211.873 152.967 211.62C152.767 211.353 152.434 211.1 151.967 210.86C151.514 210.62 150.894 210.32 150.107 209.96C149.534 209.693 148.98 209.393 148.447 209.06C147.927 208.727 147.5 208.307 147.167 207.8C146.847 207.28 146.687 206.62 146.687 205.82C146.687 204.98 146.874 204.28 147.247 203.72C147.62 203.16 148.147 202.74 148.827 202.46C149.52 202.167 150.34 202.02 151.287 202.02C151.954 202.02 152.627 202.093 153.307 202.24C153.987 202.387 154.607 202.593 155.167 202.86L154.487 204.58C153.98 204.353 153.447 204.18 152.887 204.06C152.34 203.927 151.814 203.86 151.307 203.86C150.814 203.86 150.38 203.933 150.007 204.08C149.634 204.213 149.347 204.427 149.147 204.72C148.96 205.013 148.867 205.4 148.867 205.88C148.867 206.333 148.96 206.7 149.147 206.98C149.334 207.247 149.634 207.487 150.047 207.7C150.46 207.913 150.987 208.167 151.627 208.46C152.387 208.807 153.054 209.147 153.627 209.48C154.2 209.813 154.647 210.22 154.967 210.7C155.287 211.18 155.447 211.827 155.447 212.64C155.447 213.293 155.334 213.873 155.107 214.38C154.88 214.873 154.547 215.293 154.107 215.64C153.68 215.987 153.154 216.253 152.527 216.44C151.9 216.613 151.174 216.7 150.347 216.7ZM164.379 216.7C163.192 216.7 162.172 216.487 161.319 216.06C160.479 215.62 159.832 214.987 159.379 214.16C158.926 213.333 158.699 212.32 158.699 211.12C158.699 209.96 158.906 208.967 159.319 208.14C159.746 207.3 160.339 206.653 161.099 206.2C161.859 205.747 162.759 205.52 163.799 205.52C164.759 205.52 165.579 205.727 166.259 206.14C166.952 206.553 167.486 207.14 167.859 207.9C168.232 208.647 168.419 209.547 168.419 210.6V211.6H160.819C160.846 212.413 161.019 213.067 161.339 213.56C161.659 214.053 162.092 214.413 162.639 214.64C163.186 214.853 163.812 214.96 164.519 214.96C165.079 214.96 165.646 214.887 166.219 214.74C166.806 214.58 167.392 214.373 167.979 214.12V215.94C167.379 216.207 166.772 216.4 166.159 216.52C165.546 216.64 164.952 216.7 164.379 216.7ZM166.379 210C166.366 209.413 166.252 208.913 166.039 208.5C165.839 208.087 165.552 207.767 165.179 207.54C164.806 207.313 164.352 207.2 163.819 207.2C163.006 207.2 162.339 207.453 161.819 207.96C161.299 208.453 160.979 209.133 160.859 210H166.379ZM171.831 216.5V215.12L175.651 214.74V203.06L172.131 202.7V201.3H177.791V214.74L181.211 215.12V216.5H171.831ZM187.803 216.5V207.48H184.483V206.08L187.803 205.72V204.66C187.803 203.807 187.963 203.127 188.283 202.62C188.603 202.113 189.057 201.753 189.643 201.54C190.243 201.313 190.957 201.2 191.783 201.2C192.343 201.2 192.857 201.24 193.323 201.32C193.803 201.4 194.23 201.5 194.603 201.62L194.103 203.26C193.81 203.18 193.47 203.113 193.083 203.06C192.71 202.993 192.357 202.96 192.023 202.96C191.343 202.96 190.823 203.107 190.463 203.4C190.103 203.68 189.923 204.187 189.923 204.92V205.72H193.803V207.48H189.923V216.5H187.803ZM198.936 212.04V210.18H204.936V212.04H198.936ZM209.988 216.5V202.22H212.108V208.12H217.348V202.22H219.468V216.5H217.348V209.98H212.108V216.5H209.988ZM227.54 216.7C226.807 216.7 226.133 216.58 225.52 216.34C224.907 216.1 224.373 215.747 223.92 215.28C223.48 214.8 223.14 214.213 222.9 213.52C222.66 212.827 222.54 212.02 222.54 211.1C222.54 209.873 222.747 208.853 223.16 208.04C223.587 207.213 224.173 206.587 224.92 206.16C225.667 205.733 226.527 205.52 227.5 205.52C228.473 205.52 229.333 205.733 230.08 206.16C230.84 206.573 231.433 207.193 231.86 208.02C232.287 208.847 232.5 209.88 232.5 211.12C232.5 212.027 232.38 212.827 232.14 213.52C231.9 214.213 231.56 214.8 231.12 215.28C230.693 215.747 230.173 216.1 229.56 216.34C228.96 216.58 228.287 216.7 227.54 216.7ZM227.54 214.98C228.167 214.98 228.687 214.827 229.1 214.52C229.527 214.2 229.84 213.747 230.04 213.16C230.253 212.573 230.36 211.887 230.36 211.1C230.36 210.3 230.253 209.613 230.04 209.04C229.84 208.467 229.527 208.027 229.1 207.72C228.687 207.4 228.16 207.24 227.52 207.24C226.56 207.24 225.84 207.587 225.36 208.28C224.893 208.96 224.66 209.9 224.66 211.1C224.66 211.887 224.767 212.573 224.98 213.16C225.193 213.747 225.513 214.2 225.94 214.52C226.367 214.827 226.9 214.98 227.54 214.98ZM239.852 216.7C239.185 216.7 238.545 216.64 237.932 216.52C237.319 216.413 236.765 216.253 236.272 216.04V214.06C236.765 214.287 237.319 214.493 237.932 214.68C238.545 214.853 239.239 214.94 240.012 214.94C240.785 214.94 241.345 214.827 241.692 214.6C242.039 214.373 242.212 214.033 242.212 213.58C242.212 213.3 242.139 213.073 241.992 212.9C241.845 212.727 241.585 212.553 241.212 212.38C240.852 212.207 240.339 211.987 239.672 211.72C239.019 211.427 238.445 211.147 237.952 210.88C237.459 210.613 237.079 210.293 236.812 209.92C236.545 209.547 236.412 209.067 236.412 208.48C236.412 207.813 236.585 207.26 236.932 206.82C237.279 206.38 237.765 206.053 238.392 205.84C239.032 205.627 239.779 205.52 240.632 205.52C241.259 205.52 241.865 205.58 242.452 205.7C243.039 205.82 243.632 206.007 244.232 206.26L243.592 207.9C243.032 207.673 242.512 207.513 242.032 207.42C241.565 207.327 241.092 207.28 240.612 207.28C239.892 207.28 239.359 207.373 239.012 207.56C238.679 207.733 238.512 208.02 238.512 208.42C238.512 208.7 238.599 208.933 238.772 209.12C238.945 209.307 239.219 209.487 239.592 209.66C239.965 209.82 240.445 210.027 241.032 210.28C241.712 210.547 242.299 210.807 242.792 211.06C243.299 211.313 243.685 211.633 243.952 212.02C244.219 212.393 244.352 212.907 244.352 213.56C244.352 214.253 244.179 214.833 243.832 215.3C243.499 215.767 242.999 216.12 242.332 216.36C241.665 216.587 240.839 216.7 239.852 216.7ZM255.084 216.7C254.271 216.7 253.558 216.593 252.944 216.38C252.331 216.153 251.851 215.78 251.504 215.26C251.171 214.727 251.004 214.007 251.004 213.1V207.48H248.204V206.08L251.064 205.68L251.464 202.9H253.124V205.72H257.284V207.48H253.124V212.76C253.124 213.293 253.204 213.72 253.364 214.04C253.524 214.36 253.771 214.593 254.104 214.74C254.438 214.887 254.844 214.96 255.324 214.96C255.671 214.96 256.031 214.927 256.404 214.86C256.791 214.793 257.164 214.727 257.524 214.66V216.34C257.151 216.447 256.758 216.533 256.344 216.6C255.931 216.667 255.511 216.7 255.084 216.7ZM266.717 216.7C265.53 216.7 264.51 216.487 263.657 216.06C262.817 215.62 262.17 214.987 261.717 214.16C261.263 213.333 261.037 212.32 261.037 211.12C261.037 209.96 261.243 208.967 261.657 208.14C262.083 207.3 262.677 206.653 263.437 206.2C264.197 205.747 265.097 205.52 266.137 205.52C267.097 205.52 267.917 205.727 268.597 206.14C269.29 206.553 269.823 207.14 270.197 207.9C270.57 208.647 270.757 209.547 270.757 210.6V211.6H263.157C263.183 212.413 263.357 213.067 263.677 213.56C263.997 214.053 264.43 214.413 264.977 214.64C265.523 214.853 266.15 214.96 266.857 214.96C267.417 214.96 267.983 214.887 268.557 214.74C269.143 214.58 269.73 214.373 270.317 214.12V215.94C269.717 216.207 269.11 216.4 268.497 216.52C267.883 216.64 267.29 216.7 266.717 216.7ZM268.717 210C268.703 209.413 268.59 208.913 268.377 208.5C268.177 208.087 267.89 207.767 267.517 207.54C267.143 207.313 266.69 207.2 266.157 207.2C265.343 207.2 264.677 207.453 264.157 207.96C263.637 208.453 263.317 209.133 263.197 210H268.717ZM277.989 216.7C277.322 216.7 276.722 216.58 276.189 216.34C275.655 216.087 275.202 215.72 274.829 215.24C274.469 214.76 274.189 214.173 273.989 213.48C273.802 212.773 273.709 211.967 273.709 211.06C273.709 209.9 273.869 208.907 274.189 208.08C274.522 207.253 275.022 206.62 275.689 206.18C276.355 205.74 277.189 205.52 278.189 205.52C278.682 205.52 279.115 205.587 279.489 205.72C279.875 205.84 280.209 206.02 280.489 206.26C280.769 206.487 281.002 206.767 281.189 207.1H281.289C281.275 206.913 281.255 206.72 281.229 206.52C281.202 206.32 281.182 206.113 281.169 205.9C281.155 205.687 281.149 205.48 281.149 205.28V201.3H283.229V216.5H281.549L281.229 215.06H281.129C280.929 215.393 280.675 215.687 280.369 215.94C280.075 216.18 279.729 216.367 279.329 216.5C278.942 216.633 278.495 216.7 277.989 216.7ZM278.569 214.96C279.462 214.96 280.122 214.66 280.549 214.06C280.989 213.447 281.209 212.6 281.209 211.52V211.14C281.209 210.393 281.129 209.727 280.969 209.14C280.809 208.553 280.542 208.093 280.169 207.76C279.795 207.427 279.282 207.26 278.629 207.26C277.735 207.26 277.049 207.593 276.569 208.26C276.102 208.913 275.869 209.907 275.869 211.24C275.869 212.493 276.089 213.427 276.529 214.04C276.969 214.653 277.649 214.96 278.569 214.96Z" fill="white"/>
<rect x="313.724" y="270" width="183" height="197" transform="rotate(-90 313.724 270)" fill="url(#paint2_linear_8593_13456)" fill-opacity="0.4" stroke="url(#paint3_linear_8593_13456)" stroke-width="3"/>
<path d="M429.928 154.812V153.406V152.703C429.928 148.172 426.256 144.578 421.803 144.578C420.71 144.578 419.694 144.734 418.835 145.125L416.881 145.828L415.788 144.109C413.991 141.375 410.944 139.5 407.428 139.5C401.881 139.5 397.428 144.031 397.428 149.5V150.203V151.922L395.71 152.547C392.35 153.719 389.928 157 389.928 160.75V169.5H398.678H427.428H434.928V162C434.928 159.266 433.366 156.844 431.178 155.516L429.928 154.812ZM394.928 150.203V149.5C394.928 142.625 400.475 137 407.428 137C411.803 137 415.71 139.344 417.897 142.781C419.069 142.312 420.397 142 421.803 142C427.663 142 432.428 146.766 432.428 152.625V153.406C435.397 155.125 437.428 158.328 437.428 162V169.5V172H434.928H427.428H398.678H389.928H387.428V169.5V160.75C387.428 155.906 390.553 151.688 394.928 150.203Z" fill="white"/>
<path d="M388.068 216.7C386.668 216.7 385.528 216.393 384.648 215.78C383.768 215.167 383.114 214.32 382.688 213.24C382.274 212.147 382.068 210.88 382.068 209.44C382.068 208.293 382.201 207.267 382.468 206.36C382.748 205.44 383.154 204.66 383.688 204.02C384.234 203.367 384.894 202.873 385.668 202.54C386.441 202.193 387.334 202.02 388.348 202.02C389.041 202.02 389.674 202.093 390.248 202.24C390.834 202.387 391.388 202.593 391.908 202.86L391.148 204.58C390.708 204.353 390.241 204.187 389.748 204.08C389.254 203.96 388.774 203.9 388.308 203.9C387.628 203.9 387.028 204.027 386.508 204.28C386.001 204.52 385.581 204.88 385.248 205.36C384.914 205.827 384.661 206.4 384.488 207.08C384.328 207.76 384.248 208.54 384.248 209.42C384.248 210.553 384.381 211.52 384.648 212.32C384.928 213.12 385.361 213.733 385.948 214.16C386.534 214.573 387.294 214.78 388.228 214.78C388.694 214.78 389.181 214.727 389.688 214.62C390.208 214.513 390.748 214.34 391.308 214.1V216.08C390.761 216.293 390.221 216.447 389.688 216.54C389.168 216.647 388.628 216.7 388.068 216.7ZM395.12 216.5V215.12L398.94 214.74V203.06L395.42 202.7V201.3H401.08V214.74L404.5 215.12V216.5H395.12ZM412.452 216.7C411.719 216.7 411.046 216.58 410.432 216.34C409.819 216.1 409.286 215.747 408.832 215.28C408.392 214.8 408.052 214.213 407.812 213.52C407.572 212.827 407.452 212.02 407.452 211.1C407.452 209.873 407.659 208.853 408.072 208.04C408.499 207.213 409.086 206.587 409.832 206.16C410.579 205.733 411.439 205.52 412.412 205.52C413.386 205.52 414.246 205.733 414.992 206.16C415.752 206.573 416.346 207.193 416.772 208.02C417.199 208.847 417.412 209.88 417.412 211.12C417.412 212.027 417.292 212.827 417.052 213.52C416.812 214.213 416.472 214.8 416.032 215.28C415.606 215.747 415.086 216.1 414.472 216.34C413.872 216.58 413.199 216.7 412.452 216.7ZM412.452 214.98C413.079 214.98 413.599 214.827 414.012 214.52C414.439 214.2 414.752 213.747 414.952 213.16C415.166 212.573 415.272 211.887 415.272 211.1C415.272 210.3 415.166 209.613 414.952 209.04C414.752 208.467 414.439 208.027 414.012 207.72C413.599 207.4 413.072 207.24 412.432 207.24C411.472 207.24 410.752 207.587 410.272 208.28C409.806 208.96 409.572 209.9 409.572 211.1C409.572 211.887 409.679 212.573 409.892 213.16C410.106 213.747 410.426 214.2 410.852 214.52C411.279 214.827 411.812 214.98 412.452 214.98ZM424.284 216.7C423.044 216.7 422.118 216.38 421.504 215.74C420.891 215.087 420.584 214.127 420.584 212.86V205.72H422.704V212.44C422.704 213.253 422.864 213.88 423.184 214.32C423.504 214.747 424.071 214.96 424.884 214.96C425.604 214.96 426.164 214.807 426.564 214.5C426.964 214.193 427.244 213.753 427.404 213.18C427.564 212.607 427.644 211.92 427.644 211.12V205.72H429.764V216.5H428.104L427.784 215.08H427.664C427.424 215.453 427.138 215.76 426.804 216C426.471 216.24 426.091 216.413 425.664 216.52C425.251 216.64 424.791 216.7 424.284 216.7ZM437.317 216.7C436.65 216.7 436.05 216.58 435.517 216.34C434.983 216.087 434.53 215.72 434.157 215.24C433.797 214.76 433.517 214.173 433.317 213.48C433.13 212.773 433.037 211.967 433.037 211.06C433.037 209.9 433.197 208.907 433.517 208.08C433.85 207.253 434.35 206.62 435.017 206.18C435.683 205.74 436.517 205.52 437.517 205.52C438.01 205.52 438.443 205.587 438.817 205.72C439.203 205.84 439.537 206.02 439.817 206.26C440.097 206.487 440.33 206.767 440.517 207.1H440.617C440.603 206.913 440.583 206.72 440.557 206.52C440.53 206.32 440.51 206.113 440.497 205.9C440.483 205.687 440.477 205.48 440.477 205.28V201.3H442.557V216.5H440.877L440.557 215.06H440.457C440.257 215.393 440.003 215.687 439.697 215.94C439.403 216.18 439.057 216.367 438.657 216.5C438.27 216.633 437.823 216.7 437.317 216.7ZM437.897 214.96C438.79 214.96 439.45 214.66 439.877 214.06C440.317 213.447 440.537 212.6 440.537 211.52V211.14C440.537 210.393 440.457 209.727 440.297 209.14C440.137 208.553 439.87 208.093 439.497 207.76C439.123 207.427 438.61 207.26 437.957 207.26C437.063 207.26 436.377 207.593 435.897 208.26C435.43 208.913 435.197 209.907 435.197 211.24C435.197 212.493 435.417 213.427 435.857 214.04C436.297 214.653 436.977 214.96 437.897 214.96Z" fill="white"/>
<defs>
<linearGradient id="paint0_linear_8593_13456" x1="408.224" y1="85.5" x2="408.224" y2="285.5" gradientUnits="userSpaceOnUse">
<stop offset="0.25" stop-color="#20344B"/>
<stop offset="1"/>
</linearGradient>
<linearGradient id="paint1_linear_8593_13456" x1="408.224" y1="85.5" x2="408.224" y2="285.5" gradientUnits="userSpaceOnUse">
<stop offset="0.27" stop-color="#20344B"/>
<stop offset="1" stop-color="#00F49D"/>
</linearGradient>
<linearGradient id="paint2_linear_8593_13456" x1="405.224" y1="271.5" x2="405.224" y2="471.5" gradientUnits="userSpaceOnUse">
<stop offset="0.25" stop-color="#20344B"/>
<stop offset="1"/>
</linearGradient>
<linearGradient id="paint3_linear_8593_13456" x1="405.224" y1="271.5" x2="405.224" y2="471.5" gradientUnits="userSpaceOnUse">
<stop offset="0.3" stop-color="#20344B"/>
<stop offset="1" stop-color="#FF6BFF"/>
</linearGradient>
</defs>
</svg>
