<svg class="bg-[color:var(--ifm-color)] text-[color:var(--ifm-background-color)]" width="16" height="13" fill="none" xmlns="http://www.w3.org/2000/svg"><path fill-rule="evenodd" clip-rule="evenodd" d="M0 2a2 2 0 0 1 2-2h12a2 2 0 0 1 2 2v2a2 2 0 0 1-2 2H2a2 2 0 0 1-2-2V2Zm14 1a1 1 0 1 1-2 0 1 1 0 0 1 2 0ZM0 9a2 2 0 0 1 2-2h12a2 2 0 0 1 2 2v2a2 2 0 0 1-2 2H2a2 2 0 0 1-2-2V9Zm14 1a1 1 0 1 1-2 0 1 1 0 0 1 2 0Z" fill="currentColor"/><circle r="1" transform="matrix(1 0 0 -1 13 3)" fill="#fff"/><circle r="1" transform="matrix(1 0 0 -1 13 10)" fill="#fff"/></svg>