<svg width="1571" height="395" viewBox="0 0 1571 395" fill="none" xmlns="http://www.w3.org/2000/svg">
<g clip-path="url(#clip0_2810_5)">
<path d="M510.853 115.417V134.708H566.497V283.244H587.451V134.708H643.095V115.417H510.853Z" fill="#141414"/>
<path d="M647.427 222.725C647.427 259.371 671.512 284.691 708.362 284.691C735.811 284.691 757.984 267.577 762.801 242.981H742.811C738.716 258.896 723.286 267.087 706.916 267.087C684.036 267.087 668.862 251.172 668.14 228.271V226.583H763.516C763.757 223.689 763.998 220.796 763.998 218.143C763.034 181.731 739.423 159.787 705.712 159.787C671.03 159.787 647.427 184.865 647.427 222.725ZM669.344 210.185C671.271 190.171 687.889 177.149 705.953 177.149C725.454 177.149 740.876 188.965 742.803 210.185H669.344Z" fill="#141414"/>
<path d="M936.275 159.787C914.358 159.787 901.111 169.915 893.645 183.177C886.66 167.503 871.968 159.787 854.868 159.787C835.841 159.787 825.484 169.191 818.981 178.113L817.303 161.234H799.232V283.244H818.981V219.349C818.981 194.752 831.265 177.872 851.496 177.872C870.282 177.872 881.121 190.412 881.121 214.526V283.244H900.87V218.384C900.87 193.305 913.394 177.872 933.867 177.872C952.412 177.872 963.009 190.412 963.009 214.526V283.244H982.759V213.32C982.759 174.496 961.805 159.787 936.275 159.787Z" fill="#141414"/>
<path d="M1080.79 159.787C1060.08 159.787 1046.83 169.674 1038.64 181.007L1036.96 161.234H1018.89V331.472H1038.64V264.435C1046.11 276.251 1060.08 284.691 1080.79 284.691C1113.78 284.691 1139.8 259.371 1139.8 222.725C1139.8 182.695 1113.78 159.787 1080.79 159.787ZM1078.86 267.087C1054.78 267.087 1038.4 248.278 1038.4 222.243C1038.4 195.958 1054.78 177.39 1078.86 177.39C1102.22 177.39 1119.57 195.958 1119.57 222.725C1119.57 248.519 1102.22 267.087 1078.86 267.087Z" fill="#141414"/>
<path d="M1228.73 284.691C1264.62 284.691 1289.66 259.129 1289.66 222.725C1289.66 185.348 1264.62 159.787 1228.73 159.787C1192.84 159.787 1167.79 185.348 1167.79 222.725C1167.79 259.129 1192.84 284.691 1228.73 284.691ZM1228.73 267.087C1204.4 267.087 1188.03 248.037 1188.03 222.725C1188.03 196.44 1204.4 177.39 1228.73 177.39C1253.06 177.39 1269.43 196.44 1269.43 222.725C1269.43 248.037 1253.06 267.087 1228.73 267.087Z" fill="#141414"/>
<path d="M1378.91 161.234C1357 161.234 1345.66 170.397 1339.88 179.801L1338.2 161.234H1320.13V283.244H1339.88V221.519C1339.88 201.987 1348.81 180.525 1374.58 180.525H1384.45V161.234H1378.91Z" fill="#141414"/>
<path d="M1516.35 264.186C1511.29 264.186 1508.16 262.264 1508.16 256.236V204.157C1508.16 175.461 1491.07 159.787 1459.76 159.787C1430.14 159.787 1410.63 174.014 1407.74 198.128H1427.49C1429.89 185.589 1441.46 177.39 1458.8 177.39C1478.06 177.39 1488.41 187.036 1488.41 202.951V211.391H1453.26C1420.98 211.391 1403.88 224.164 1403.88 248.76C1403.88 271.187 1422.19 284.691 1449.16 284.691C1470.36 284.691 1481.67 275.286 1489.38 264.193C1489.62 276.251 1495.16 283.244 1511.53 283.244H1522.37V264.186H1516.35ZM1488.41 233.086C1488.41 253.583 1475.17 267.811 1450.61 267.811C1434.23 267.811 1423.87 259.612 1423.87 247.555C1423.87 233.568 1433.75 228.03 1451.33 228.03H1488.41V233.086Z" fill="#141414"/>
<path d="M1550.39 115.417V283.244H1570.14V115.417H1550.39Z" fill="#141414"/>
<path d="M266.428 128.248C257.097 58.3869 233.568 0 197.26 0C161.054 0 137.423 58.3869 128.092 128.248C58.316 137.59 0 161.148 0 197.5C0 233.751 58.316 257.41 128.092 266.752C137.423 336.613 160.952 395 197.26 395C233.467 395 257.097 336.613 266.428 266.752C336.204 257.41 394.52 233.852 394.52 197.5C394.52 161.148 336.204 137.488 266.428 128.248ZM125.861 246.24C59.0259 236.594 19.9795 214.458 19.9795 197.398C19.9795 180.339 58.9245 158.203 125.861 148.557C124.34 164.702 123.63 181.152 123.63 197.398C123.63 213.645 124.34 230.197 125.861 246.24ZM197.26 19.9023C214.299 19.9023 236.408 58.8946 246.043 125.913C229.917 124.389 213.487 123.679 197.26 123.679C181.033 123.679 164.603 124.491 148.478 125.913C158.112 58.9962 180.222 19.9023 197.26 19.9023ZM268.659 246.24C265.414 246.748 251.824 248.271 248.477 248.677C248.173 252.13 246.55 265.635 246.043 268.884C236.408 335.801 214.299 374.895 197.26 374.895C180.222 374.895 158.112 335.902 148.478 268.884C147.97 265.635 146.449 252.028 146.044 248.677C144.522 232.837 143.508 215.778 143.508 197.398C143.508 179.019 144.421 162.062 146.044 146.12C161.865 144.596 178.903 143.581 197.26 143.581C215.617 143.581 232.554 144.495 248.477 146.12C251.925 146.424 265.414 148.049 268.659 148.557C335.494 158.203 374.541 180.339 374.541 197.398C374.541 214.458 335.494 236.594 268.659 246.24Z" fill="#141414"/>
</g>
<defs>
<clipPath id="clip0_2810_5">
<rect width="1571" height="395" fill="white"/>
</clipPath>
</defs>
</svg>
