<svg width="46" height="45" viewBox="0 0 46 45" fill="none" xmlns="http://www.w3.org/2000/svg">
<rect x="0.301758" width="45" height="45" fill="#01A7EC"/>
<path d="M6.86981 21.8145C6.80057 21.8145 6.78325 21.7798 6.81788 21.7276L7.18142 21.2585C7.21604 21.2064 7.3026 21.1716 7.37184 21.1716H13.552C13.6213 21.1716 13.6386 21.2237 13.604 21.2759L13.3097 21.7276C13.275 21.7798 13.1885 21.8319 13.1365 21.8319L6.86981 21.8145Z" fill="#161723"/>
<path d="M4.25577 23.4131C4.18652 23.4131 4.16921 23.3784 4.20383 23.3263L4.56737 22.8571C4.602 22.805 4.68855 22.7702 4.7578 22.7702H12.6518C12.7211 22.7702 12.7557 22.8224 12.7384 22.8745L12.5999 23.2915C12.5826 23.361 12.5133 23.3958 12.4441 23.3958L4.25577 23.4131Z" fill="#161723"/>
<path d="M8.44517 25.0118C8.37592 25.0118 8.35861 24.9596 8.39323 24.9075L8.63559 24.4731C8.67022 24.421 8.73946 24.3689 8.80871 24.3689H12.271C12.3402 24.3689 12.3749 24.421 12.3749 24.4905L12.3402 24.9075C12.3402 24.977 12.271 25.0291 12.2191 25.0291L8.44517 25.0118Z" fill="#161723"/>
<path d="M26.4144 21.5018C25.3238 21.7798 24.5794 21.9883 23.5061 22.2663C23.2464 22.3358 23.2291 22.3532 23.0041 22.0926C22.7444 21.7972 22.554 21.606 22.1904 21.4323C21.0998 20.8936 20.0438 21.05 19.0571 21.6929C17.8799 22.4575 17.274 23.5869 17.2913 24.9944C17.3086 26.3844 18.2608 27.5313 19.6284 27.7224C20.8055 27.8788 21.7923 27.4617 22.5713 26.5756C22.7271 26.3844 22.8656 26.1759 23.0387 25.9327C22.4155 25.9327 21.6365 25.9327 19.6976 25.9327C19.3341 25.9327 19.2475 25.7068 19.3687 25.4114C19.5937 24.8727 20.0092 23.9692 20.2516 23.5174C20.3035 23.4131 20.4247 23.2394 20.6844 23.2394C21.5672 23.2394 24.8218 23.2394 26.9857 23.2394C26.9511 23.7085 26.9511 24.1777 26.8818 24.6468C26.6914 25.8979 26.224 27.0447 25.4623 28.0525C24.2159 29.7033 22.5886 30.7284 20.5285 31.0065C18.832 31.2323 17.2567 30.9022 15.8718 29.8596C14.5907 28.8866 13.8636 27.6008 13.6732 26.0022C13.4482 24.1082 14.0021 22.4053 15.1447 20.911C16.3738 19.295 18.0011 18.2698 19.9919 17.9049C21.6192 17.6095 23.1772 17.8007 24.5794 18.7564C25.4969 19.3645 26.1548 20.1986 26.5876 21.2064C26.6914 21.3628 26.6222 21.4496 26.4144 21.5018Z" fill="#161723"/>
<path d="M32.1445 31.1107C30.5691 31.0759 29.1323 30.6241 27.9205 29.5816C26.8991 28.6954 26.2586 27.566 26.0509 26.228C25.7393 24.2645 26.2759 22.5269 27.4531 20.9805C28.7168 19.3124 30.2402 18.4436 32.3003 18.0787C34.0661 17.7659 35.7279 17.9397 37.234 18.9648C38.6016 19.9031 39.4499 21.1716 39.675 22.8397C39.9692 25.1855 39.2941 27.0968 37.6841 28.7302C36.5416 29.8944 35.1394 30.6241 33.5294 30.9543C33.062 31.0412 32.5946 31.0586 32.1445 31.1107ZM36.2646 24.0908C36.2473 23.8649 36.2473 23.6911 36.2127 23.5174C35.9011 21.7971 34.3257 20.8241 32.6811 21.2063C31.0712 21.5712 30.0325 22.5964 29.6516 24.2298C29.34 25.5851 29.9979 26.9578 31.2443 27.5138C32.1964 27.9309 33.1485 27.8787 34.066 27.4096C35.4337 26.6972 36.178 25.5851 36.2646 24.0908Z" fill="#161723"/>
</svg>
