<svg width="46" height="45" viewBox="0 0 46 45" fill="none" xmlns="http://www.w3.org/2000/svg">
<rect x="0.106445" width="45" height="45" fill="#FF5555"/>
<path d="M20.2904 22.7012C20.2904 22.7012 19.4386 23.2197 20.8829 23.3678C22.6236 23.59 23.5495 23.553 25.4754 23.1826C25.4754 23.1826 25.9939 23.5159 26.6975 23.7752C22.3644 25.627 16.8831 23.6641 20.2904 22.7012L20.2904 22.7012ZM19.7348 20.2939C19.7348 20.2939 18.809 20.9975 20.2533 21.1457C22.1422 21.3309 23.6236 21.3679 26.179 20.8494C26.179 20.8494 26.5124 21.2197 27.0679 21.4049C21.8459 22.9604 15.9942 21.5531 19.7349 20.2939L19.7348 20.2939ZM29.9567 24.5159C29.9567 24.5159 30.5863 25.0344 29.253 25.4418C26.7716 26.1825 18.8459 26.4047 16.6238 25.4418C15.8461 25.1085 17.3275 24.627 17.8089 24.5529C18.2904 24.4418 18.5496 24.4418 18.5496 24.4418C17.6979 23.8493 12.8832 25.664 16.1053 26.1825C24.9568 27.6269 32.2528 25.5529 29.9566 24.5159L29.9567 24.5159ZM20.6977 17.7754C20.6977 17.7754 16.6609 18.7384 19.2534 19.0717C20.3645 19.2198 22.5495 19.1828 24.5865 19.0346C26.2531 18.8865 27.9197 18.5902 27.9197 18.5902C27.9197 18.5902 27.3271 18.8495 26.9197 19.1087C22.8088 20.1827 14.9202 19.7013 17.1794 18.5902C19.1052 17.6643 20.6977 17.7754 20.6977 17.7754L20.6977 17.7754ZM27.9197 21.8123C32.0677 19.6642 30.1419 17.5902 28.8086 17.8495C28.4753 17.9236 28.3271 17.9977 28.3271 17.9977C28.3271 17.9977 28.4382 17.7754 28.6975 17.7014C31.327 16.7755 33.401 20.479 27.8457 21.9234C27.8457 21.9234 27.8827 21.8864 27.9197 21.8123L27.9197 21.8123ZM21.1052 27.6639C25.105 27.9232 31.2159 27.5158 31.364 25.627C31.364 25.627 31.0677 26.3677 28.0679 26.9232C24.6606 27.5528 20.4386 27.4788 17.9571 27.0713C17.9571 27.0713 18.4756 27.5158 21.1052 27.6639L21.1052 27.6639Z" fill="#161723"/>
<path d="M25.4022 5.55469C25.4022 5.55469 27.6984 7.88792 23.2171 11.4063C19.6247 14.258 22.4023 15.8876 23.2171 17.7394C21.1061 15.8506 19.5876 14.184 20.6246 12.6285C22.1431 10.3323 26.3281 9.22121 25.4022 5.55469V5.55469ZM24.2171 16.1839C25.2911 17.4061 23.9208 18.5172 23.9208 18.5172C23.9208 18.5172 26.6614 17.1098 25.4022 15.3691C24.2541 13.7025 23.3653 12.8878 28.1799 10.1101C28.1799 10.1101 20.5876 11.9989 24.2171 16.1839L24.2171 16.1839ZM21.4765 36.072V32.4425C21.4765 31.5166 20.958 30.887 19.6617 30.887C18.921 30.887 18.2914 31.0722 17.7358 31.2944L17.921 31.961C18.3284 31.8129 18.8469 31.6647 19.4025 31.6647C20.1061 31.6647 20.4394 31.961 20.4394 32.5536V33.0351H20.0691C18.2914 33.0351 17.4766 33.7017 17.4766 34.7758C17.4766 35.6646 18.0321 36.1831 19.0321 36.1831C19.6617 36.1831 20.1432 35.8868 20.5876 35.5165L20.6617 36.072H21.4765L21.4765 36.072ZM20.4395 34.8869C20.0691 35.2202 19.6617 35.4054 19.2913 35.4054C18.8099 35.4054 18.5136 35.1091 18.5136 34.5906C18.5136 34.0721 18.8099 33.7017 19.995 33.7017H20.4394V34.8869H20.4395ZM24.9578 36.072H23.6615L22.106 30.9981H23.2171L24.18 34.1091L24.4023 35.035C24.8837 33.7017 25.2541 32.3314 25.4022 30.9981H26.5133C26.217 32.6647 25.6985 34.4795 24.9578 36.072H24.9578ZM30.9576 36.072V32.4425C30.9576 31.5166 30.4391 30.887 29.1428 30.887C28.4021 30.887 27.7725 31.0722 27.217 31.2944L27.3651 31.961C27.8095 31.8129 28.328 31.6647 28.8836 31.6647C29.5873 31.6647 29.9206 31.961 29.9206 32.5536V33.0351H29.5502C27.7725 33.0351 26.9577 33.7017 26.9577 34.7758C26.9577 35.6646 27.4762 36.1831 28.4762 36.1831C29.1428 36.1831 29.6243 35.8868 30.0687 35.5165L30.1428 36.072H30.9576V36.072ZM29.9206 34.8869C29.5502 35.2202 29.1428 35.4054 28.7724 35.4054C28.291 35.4054 27.9947 35.1091 27.9947 34.5906C27.9947 34.0721 28.291 33.7017 29.4761 33.7017H29.9206V34.8869H29.9206ZM16.3285 36.9238C16.0322 37.3682 15.5878 37.7016 15.0323 37.8867L14.5508 37.2942C14.9211 37.072 15.2915 36.7387 15.4396 36.4424C15.5878 36.1831 15.6248 35.8127 15.6248 34.9609V29.1834H16.7359V34.8869C16.7359 36.035 16.6248 36.4794 16.3285 36.9238L16.3285 36.9238Z" fill="#161723"/>
</svg>
