<svg width="46" height="45" viewBox="0 0 46 45" fill="none" xmlns="http://www.w3.org/2000/svg">
<rect x="0.520508" width="45" height="45" fill="#9747FF"/>
<path d="M23.1519 9.25022C22.0531 9.25533 21.0038 9.34903 20.0806 9.5124C17.3608 9.9929 16.867 10.9986 16.867 12.8534V15.3029H23.2942V16.1194H16.867H14.4549C12.587 16.1194 10.9514 17.2421 10.4398 19.378C9.84964 21.8261 9.82347 23.3538 10.4398 25.9101C10.8966 27.8128 11.9877 29.1686 13.8556 29.1686H16.0655V26.2322C16.0655 24.1108 17.9009 22.2395 20.0806 22.2395H26.5003C28.2873 22.2395 29.7139 20.7681 29.7139 18.9734V12.8534C29.7139 11.1115 28.2445 9.8031 26.5003 9.5124C25.3962 9.32861 24.2506 9.24511 23.1519 9.25022ZM19.6761 11.2203C20.34 11.2203 20.8821 11.7713 20.8821 12.4488C20.8821 13.124 20.34 13.6699 19.6761 13.6699C19.0098 13.6699 18.47 13.124 18.47 12.4488C18.47 11.7713 19.0098 11.2203 19.6761 11.2203Z" fill="#161723"/>
<path d="M30.5176 16.1211V18.9751C30.5176 21.1878 28.6417 23.0502 26.5025 23.0502H20.0827C18.3243 23.0502 16.8691 24.5552 16.8691 26.3163V32.4363C16.8691 34.1782 18.3838 35.2027 20.0827 35.7024C22.1172 36.3006 24.0682 36.4087 26.5025 35.7024C28.1206 35.2339 29.7161 34.2911 29.7161 32.4363V29.9868H23.2964V29.1703H29.7161H32.9297C34.7976 29.1703 35.4937 27.8674 36.1433 25.9117C36.8143 23.8984 36.7858 21.9623 36.1433 19.3796C35.6817 17.5201 34.8 16.1211 32.9297 16.1211H30.5176ZM26.907 31.6198C27.5733 31.6198 28.113 32.1658 28.113 32.8409C28.113 33.5184 27.5733 34.0694 26.907 34.0694C26.2431 34.0694 25.7009 33.5184 25.7009 32.8409C25.7009 32.1658 26.2431 31.6198 26.907 31.6198Z" fill="#161723"/>
</svg>
