<svg xmlns="http://www.w3.org/2000/svg" xmlns:xlink="http://www.w3.org/1999/xlink" xmlns:lucid="lucid" width="1880" height="1887.67"><g transform="translate(60 -18.333333333333336)" lucid:page-tab-id="0_0"><path d="M-1806.87 0h3677.74v2581.67h-3677.74z" fill="#fff"/><path d="M700 102.17v2m0 4v3.98m0 4v4m0 3.98v4m0 4v4m0 3.98v4m0 4v4m0 4v3.98m0 4v4m0 3.98v4m0 4v4m0 3.98v4m0 4V200m0 4v4m0 3.98v4m0 4v4m0 3.98v4m0 4v3.98m0 4v4m0 3.98v4m0 4v4m0 3.98v4m0 4v3.98m0 4v4m0 4v3.98m0 4v4m0 3.98v4m0 4v3.98m0 4v4m0 4v3.98m0 4v4m0 3.98v4m0 4v3.98m0 4v4m0 4v3.98m0 4v4m0 3.98v4m0 4v4m0 3.98v4m0 4v3.98m0 4v4m0 3.98v4m0 4v4m0 3.98v4m0 4v3.98m0 4v4m0 3.98v4m0 4v4m0 3.98v4m0 4v3.98m0 4v4m0 4v3.98m0 4v4m0 3.98v4m0 4v3.98m0 4v4m0 4v3.98m0 4v4m0 3.98v4m0 4v3.98m0 4v4m0 4v3.98m0 4v4m0 3.98v4m0 4v4m0 3.98v4m0 4v3.98m0 4v4m0 3.98v4m0 4v4m0 3.98v4m0 4v3.98m0 4v4m0 3.98v4m0 4v4m0 3.98v4m0 4v3.98m0 4v4m0 4v3.98m0 4v4m0 3.98v4m0 4v3.98m0 4v4m0 4v3.98m0 4v4m0 3.98v4m0 4v3.98m0 4v4m0 4v3.98m0 4v4m0 3.98v4m0 4v4m0 3.98v4m0 4v3.98m0 4v4m0 3.98v4m0 4v4m0 3.98v4m0 4V887m0 4v4m0 3.98v4m0 4v4m0 3.98v4m0 4v3.98m0 4v4m0 4v3.98m0 4v4m0 3.98v4m0 4v3.98m0 4v4m0 4v3.98m0 4v4m0 3.98v4m0 4v3.98m0 4v4m0 4v3.98m0 4v4m0 3.98v4m0 4v4m0 3.98v4m0 4v3.98m0 4v4m0 3.98v4m0 4v4m0 3.98v4m0 4v3.98m0 4v4m0 3.98v4m0 4v4m0 3.98v4m0 4v3.98m0 4v4m0 4v3.98m0 4v4m0 3.98v4m0 4v3.98m0 4v4m0 4v3.98m0 4v4m0 3.98v4m0 4v3.98m0 4v4m0 4v3.98m0 4v4m0 3.98v4m0 4v4m0 3.98v4m0 4v3.98m0 4v4m0 3.98v4m0 4v4m0 3.98v4m0 4v3.98m0 4v4m0 3.98v4m0 4v4m0 3.98v4m0 4v3.98m0 4v4m0 4v3.98m0 4v4m0 3.98v4m0 4v3.98m0 4v4m0 4v3.98m0 4v4m0 3.98v4m0 4v3.98m0 4v4m0 4v3.98m0 4v4m0 3.98v4m0 4v4m0 3.98v4m0 4v3.98m0 4v4m0 3.98v4m0 4v4m0 3.98v4m0 4v3.98m0 4v4m0 3.98v4m0 4v4m0 3.98v4m0 4v3.98m0 4v4m0 4v3.98m0 4v4m0 3.98v4m0 4v3.98m0 4v4m0 4v3.98m0 4v4m0 3.98v4m0 4v3.98m0 4v4m0 4v3.98m0 4v4m0 3.98v4m0 4v4m0 3.98v4m0 4v3.98m0 4v4m0 3.98v4m0 4v4m0 3.98v4m0 4v3.98m0 4v4m0 3.98v4m0 4v4m0 3.98v4m0 4v3.98m0 4v4m0 4v3.98m0 4v4m0 3.98v4m0 4v3.98m0 4v4m0 4v3.98m0 4v4m0 3.98v4m0 4v3.98m0 4v4m0 4v3.98m0 4v4m0 3.98v2" stroke="#ccc" fill="none"/><path d="M700.5 102.18h-1v-.5h1" fill="#ccc"/><path d="M700 1899.5v.5M300 100.5v2m0 4v4m0 4v4m0 4v4m0 3.98v4m0 4v4m0 4v4m0 4v4m0 4v3.98m0 4v4m0 4v4m0 4v4m0 4v4m0 3.98v4m0 4v4m0 4v4m0 4v4m0 4v3.98m0 4v4m0 4v4m0 4v4m0 4v4m0 3.98v4m0 4v4m0 4v4m0 4v4m0 4v3.98m0 4v4m0 4v4m0 4v4m0 4v4m0 3.98v4m0 4v4m0 4v4m0 4v4m0 4v3.98m0 4v4m0 4v4m0 4v4m0 4v4m0 3.98v4m0 4v4m0 4v4m0 4v4m0 4v3.98m0 4v4m0 4v4m0 4v4m0 4v4m0 3.98v4m0 4v4m0 4v4m0 4v4m0 4v3.98m0 4v4m0 4v4m0 4v4m0 4v4m0 3.98v4m0 4v4m0 4v4m0 4v4m0 4v3.98m0 4v4m0 4v4m0 4v4m0 4v4m0 3.98v4m0 4v4m0 4v4m0 4v4m0 4v3.98m0 4v4m0 4v4m0 4v4m0 4v4m0 3.98v4m0 4v4m0 4v4m0 4v4m0 4v3.98m0 4v4m0 4v4m0 4v4m0 4v4m0 3.98v4m0 4v4m0 4v4m0 4v4m0 4v3.98m0 4v4m0 4v4m0 4v4m0 4v4m0 3.98v4m0 4v4m0 4v4m0 4v4m0 4v3.98m0 4v4m0 4v4m0 4v4m0 4v4m0 3.98v4m0 4v4m0 4v4m0 4v4m0 4V958m0 4v4m0 4v4m0 4v4m0 4v4m0 3.98v4m0 4v4m0 4v4m0 4v4m0 4v3.98m0 4v4m0 4v4m0 4v4m0 4v4m0 3.98v4m0 4v4m0 4v4m0 4v4m0 4v3.98m0 4v4m0 4v4m0 4v4m0 4v4m0 3.98v4m0 4v4m0 4v4m0 4v4m0 4v3.98m0 4v4m0 4v4m0 4v4m0 4v4m0 3.98v4m0 4v4m0 4v4m0 4v4m0 4v3.98m0 4v4m0 4v4m0 4v4m0 4v4m0 3.98v4m0 4v4m0 4v4m0 4v4m0 4v3.98m0 4v4m0 4v4m0 4v4m0 4v4m0 3.98v4m0 4v4m0 4v4m0 4v4m0 4v3.98m0 4v4m0 4v4m0 4v4m0 4v4m0 3.98v4m0 4v4m0 4v4m0 4v4m0 4v3.98m0 4v4m0 4v4m0 4v4m0 4v4m0 3.98v4m0 4v4m0 4v4m0 4v4m0 4v3.98m0 4v4m0 4v4m0 4v4m0 4v4m0 3.98v4m0 4v4m0 4v4m0 4v4m0 4v3.98m0 4v4m0 4v4m0 4v4m0 4v4m0 3.98v4m0 4v4m0 4v4m0 4v4m0 4v3.98m0 4v4m0 4v4m0 4v4m0 4v4m0 3.98v4m0 4v4m0 4v4m0 4v4m0 4v3.98m0 4v4m0 4v4m0 4v4m0 4v4m0 3.98v4m0 4v4m0 4v4m0 4v4m0 4v3.98m0 4v4m0 4v4m0 4v4m0 4v4m0 3.98v4m0 4v4m0 4v4m0 4v4m0 4v3.98m0 4v2" stroke="#ccc" fill="none"/><path d="M300.5 100.5h-1v-.5h1" fill="#ccc"/><path d="M300 1899.5v.5M1100 100.5v2m0 4v4m0 4v4m0 4v4m0 3.98v4m0 4v4m0 4v4m0 4v4m0 4v3.98m0 4v4m0 4v4m0 4v4m0 4v4m0 3.98v4m0 4v4m0 4v4m0 4v4m0 4v3.98m0 4v4m0 4v4m0 4v4m0 4v4m0 3.98v4m0 4v4m0 4v4m0 4v4m0 4v3.98m0 4v4m0 4v4m0 4v4m0 4v4m0 3.98v4m0 4v4m0 4v4m0 4v4m0 4v3.98m0 4v4m0 4v4m0 4v4m0 4v4m0 3.98v4m0 4v4m0 4v4m0 4v4m0 4v3.98m0 4v4m0 4v4m0 4v4m0 4v4m0 3.98v4m0 4v4m0 4v4m0 4v4m0 4v3.98m0 4v4m0 4v4m0 4v4m0 4v4m0 3.98v4m0 4v4m0 4v4m0 4v4m0 4v3.98m0 4v4m0 4v4m0 4v4m0 4v4m0 3.98v4m0 4v4m0 4v4m0 4v4m0 4v3.98m0 4v4m0 4v4m0 4v4m0 4v4m0 3.98v4m0 4v4m0 4v4m0 4v4m0 4v3.98m0 4v4m0 4v4m0 4v4m0 4v4m0 3.98v4m0 4v4m0 4v4m0 4v4m0 4v3.98m0 4v4m0 4v4m0 4v4m0 4v4m0 3.98v4m0 4v4m0 4v4m0 4v4m0 4v3.98m0 4v4m0 4v4m0 4v4m0 4v4m0 3.98v4m0 4v4m0 4v4m0 4v4m0 4V958m0 4v4m0 4v4m0 4v4m0 4v4m0 3.98v4m0 4v4m0 4v4m0 4v4m0 4v3.98m0 4v4m0 4v4m0 4v4m0 4v4m0 3.98v4m0 4v4m0 4v4m0 4v4m0 4v3.98m0 4v4m0 4v4m0 4v4m0 4v4m0 3.98v4m0 4v4m0 4v4m0 4v4m0 4v3.98m0 4v4m0 4v4m0 4v4m0 4v4m0 3.98v4m0 4v4m0 4v4m0 4v4m0 4v3.98m0 4v4m0 4v4m0 4v4m0 4v4m0 3.98v4m0 4v4m0 4v4m0 4v4m0 4v3.98m0 4v4m0 4v4m0 4v4m0 4v4m0 3.98v4m0 4v4m0 4v4m0 4v4m0 4v3.98m0 4v4m0 4v4m0 4v4m0 4v4m0 3.98v4m0 4v4m0 4v4m0 4v4m0 4v3.98m0 4v4m0 4v4m0 4v4m0 4v4m0 3.98v4m0 4v4m0 4v4m0 4v4m0 4v3.98m0 4v4m0 4v4m0 4v4m0 4v4m0 3.98v4m0 4v4m0 4v4m0 4v4m0 4v3.98m0 4v4m0 4v4m0 4v4m0 4v4m0 3.98v4m0 4v4m0 4v4m0 4v4m0 4v3.98m0 4v4m0 4v4m0 4v4m0 4v4m0 3.98v4m0 4v4m0 4v4m0 4v4m0 4v3.98m0 4v4m0 4v4m0 4v4m0 4v4m0 3.98v4m0 4v4m0 4v4m0 4v4m0 4v3.98m0 4v4m0 4v4m0 4v4m0 4v4m0 3.98v4m0 4v4m0 4v4m0 4v4m0 4v3.98m0 4v2" stroke="#ccc" fill="none"/><path d="M1100.5 100.5h-1v-.5h1" fill="#ccc"/><path d="M1100 1899.5v.5M1500 100.5v2m0 4v4.02m0 4v4.02m0 4v4m0 4.02v4m0 4.02v4m0 4v4.02m0 4v4.02m0 4v4m0 4.02v4m0 4.02v4m0 4v4.02m0 4v4.02m0 4v4m0 4.02v4m0 4.02v4m0 4v4.02m0 4v4.02m0 4v4m0 4.02v4m0 4.02v4m0 4v4.02m0 4v4.02m0 4v4m0 4.02v4m0 4.02v4m0 4v4.02m0 4v4.02m0 4v4m0 4.02v4m0 4.02v4m0 4V351m0 4v4.02m0 4v4m0 4.02v4m0 4.02v4m0 4v4.02m0 4v4.02m0 4v4m0 4.02v4m0 4.02v4m0 4v4.02m0 4v4.02m0 4v4m0 4.02v4m0 4.02v4m0 4v4.02m0 4v4.02m0 4v4m0 4.02v4m0 4.02v4m0 4v4.02m0 4v4.02m0 4v4m0 4.02v4m0 4.02v4m0 4v4.02m0 4v4.02m0 4v4m0 4.02v4m0 4.02v4m0 4v4.02m0 4v4.02m0 4v4m0 4.02v4m0 4.02v4m0 4v4.02m0 4v4.02m0 4v4m0 4.02v4m0 4.02v4m0 4.02v4m0 4v4.02m0 4v4.02m0 4v4m0 4.02v4m0 4.02v4m0 4v4.02m0 4v4.02m0 4v4m0 4.02v4m0 4.02v4m0 4v4.02m0 4v4.02m0 4v4m0 4.02v4m0 4.02v4m0 4v4.02m0 4v4.02m0 4v4m0 4.02v4m0 4.02v4m0 4V840m0 4V848m0 4v4m0 4.02v4m0 4.02v4m0 4v4.02m0 4v4.02m0 4v4m0 4.02v4m0 4.02v4m0 4v4.02m0 4v4.02m0 4v4m0 4.02v4m0 4.02v4m0 4v4.02m0 4v4.02m0 4v4m0 4.02v4m0 4.02v4m0 4v4.02m0 4v4.02m0 4v4m0 4.02v4m0 4.02v4m0 4v4.02m0 4v4.02m0 4v4m0 4.02v4m0 4.02v4m0 4v4.02m0 4v4.02m0 4v4m0 4.02v4m0 4.02v4m0 4v4.02m0 4v4.02m0 4v4m0 4.02v4m0 4.02v4m0 4v4.02m0 4v4.02m0 4v4m0 4.02v4m0 4.02v4m0 4v4.02m0 4v4.02m0 4v4m0 4.02v4m0 4.02v4m0 4v4.02m0 4v4.02m0 4v4m0 4.02v4m0 4.02v4m0 4v4.02m0 4v4.02m0 4v4m0 4.02v4m0 4.02v4m0 4v4.02m0 4v4.02m0 4v4m0 4.02v4m0 4.02v4m0 4v4.02m0 4v4.02m0 4v4m0 4.02v4m0 4.02v4m0 4v4.02m0 4v4.02m0 4v4.02m0 4v4m0 4.02v4m0 4.02v4m0 4v4.02m0 4v4.02m0 4v4m0 4.02v4m0 4.02v4m0 4v4.02m0 4v4.02m0 4v4m0 4.02v4m0 4.02v4m0 4v4.02m0 4v4.02m0 4v4m0 4.02v4m0 4.02v4m0 4v4.02m0 4v4.02m0 4v4m0 4.02v4m0 4.02v2" stroke="#ccc" fill="none"/><path d="M1500.5 100.5h-1v-.5h1" fill="#ccc"/><path d="M1500 1599.5v.5" stroke="#ccc" fill="none"/><path d="M720 200c0 11.05-8.95 20-20 20s-20-8.95-20-20 8.95-20 20-20 20 8.95 20 20z" stroke="#333" fill="#fff"/><path d="M360 346c0-3.3 2.7-6 6-6h268c3.3 0 6 2.7 6 6v108c0 3.3-2.7 6-6 6H366c-3.3 0-6-2.7-6-6z" stroke="#000" stroke-opacity="0" stroke-width="3" fill="#fff" fill-opacity="0"/><use xlink:href="#a" transform="matrix(1,0,0,1,365,345) translate(6.172839506172835 31.52777777777778)"/><use xlink:href="#b" transform="matrix(1,0,0,1,365,345) translate(120.80246913580247 31.52777777777778)"/><use xlink:href="#c" transform="matrix(1,0,0,1,365,345) translate(186.23456790123456 31.52777777777778)"/><use xlink:href="#d" transform="matrix(1,0,0,1,365,345) translate(245.30864197530863 31.52777777777778)"/><use xlink:href="#e" transform="matrix(1,0,0,1,365,345) translate(2.5 58.19444444444445)"/><use xlink:href="#f" transform="matrix(1,0,0,1,365,345) translate(109.78395061728395 58.19444444444445)"/><use xlink:href="#g" transform="matrix(1,0,0,1,365,345) translate(155.3395061728395 58.19444444444445)"/><use xlink:href="#h" transform="matrix(1,0,0,1,365,345) translate(89.93827160493828 84.86111111111111)"/><use xlink:href="#i" transform="matrix(1,0,0,1,365,345) translate(114.62962962962963 84.86111111111111)"/><path d="M1160 566c0-3.3 2.7-6 6-6h228c3.3 0 6 2.7 6 6v68c0 3.3-2.7 6-6 6h-228c-3.3 0-6-2.7-6-6z" stroke="#000" stroke-opacity="0" stroke-width="3" fill="#fff" fill-opacity="0"/><use xlink:href="#j" transform="matrix(1,0,0,1,1165,565) translate(27.5 26.52777777777778)"/><use xlink:href="#k" transform="matrix(1,0,0,1,1165,565) translate(134.78395061728395 26.52777777777778)"/><use xlink:href="#l" transform="matrix(1,0,0,1,1165,565) translate(16.327160493827165 53.19444444444445)"/><use xlink:href="#h" transform="matrix(1,0,0,1,1165,565) translate(123.5493827160494 53.19444444444445)"/><use xlink:href="#i" transform="matrix(1,0,0,1,1165,565) translate(148.24074074074076 53.19444444444445)"/><path d="M360 566c0-3.3 2.7-6 6-6h268c3.3 0 6 2.7 6 6v68c0 3.3-2.7 6-6 6H366c-3.3 0-6-2.7-6-6z" stroke="#000" stroke-opacity="0" stroke-width="3" fill="#fff" fill-opacity="0"/><use xlink:href="#a" transform="matrix(1,0,0,1,365,565) translate(28.95061728395062 17.77777777777778)"/><use xlink:href="#m" transform="matrix(1,0,0,1,365,565) translate(143.58024691358025 17.77777777777778)"/><use xlink:href="#n" transform="matrix(1,0,0,1,365,565) translate(204.01234567901236 17.77777777777778)"/><use xlink:href="#o" transform="matrix(1,0,0,1,365,565) translate(12.71604938271605 44.44444444444444)"/><use xlink:href="#p" transform="matrix(1,0,0,1,365,565) translate(81.72839506172839 44.44444444444444)"/><use xlink:href="#q" transform="matrix(1,0,0,1,365,565) translate(112.59259259259258 44.44444444444444)"/><use xlink:href="#r" transform="matrix(1,0,0,1,365,565) translate(149.62962962962962 44.44444444444444)"/><use xlink:href="#s" transform="matrix(1,0,0,1,365,565) translate(201.41975308641975 44.44444444444444)"/><use xlink:href="#t" transform="matrix(1,0,0,1,365,565) translate(99.84567901234567 71.11111111111111)"/><path d="M360 761c0-3.3 2.7-6 6-6h268c3.3 0 6 2.7 6 6v78c0 3.3-2.7 6-6 6H366c-3.3 0-6-2.7-6-6z" stroke="#000" stroke-opacity="0" stroke-width="3" fill="#fff" fill-opacity="0"/><use xlink:href="#u" transform="matrix(1,0,0,1,365,760) translate(24.444444444444443 17.77777777777778)"/><use xlink:href="#v" transform="matrix(1,0,0,1,365,760) translate(76.23456790123456 17.77777777777778)"/><use xlink:href="#w" transform="matrix(1,0,0,1,365,760) translate(138.2716049382716 17.77777777777778)"/><use xlink:href="#x" transform="matrix(1,0,0,1,365,760) translate(8.055555555555571 44.44444444444444)"/><use xlink:href="#m" transform="matrix(1,0,0,1,365,760) translate(122.6851851851852 44.44444444444444)"/><use xlink:href="#y" transform="matrix(1,0,0,1,365,760) translate(183.1172839506173 44.44444444444444)"/><use xlink:href="#z" transform="matrix(1,0,0,1,365,760) translate(211.38888888888889 44.44444444444444)"/><use xlink:href="#A" transform="matrix(1,0,0,1,365,760) translate(43.827160493827165 71.11111111111111)"/><use xlink:href="#B" transform="matrix(1,0,0,1,365,760) translate(131.41975308641975 71.11111111111111)"/><use xlink:href="#C" transform="matrix(1,0,0,1,365,760) translate(154.81481481481484 71.11111111111111)"/><path d="M360 1566c0-3.3 2.7-6 6-6h268c3.3 0 6 2.7 6 6v68c0 3.3-2.7 6-6 6H366c-3.3 0-6-2.7-6-6z" stroke="#000" stroke-opacity="0" stroke-width="3" fill="#fff" fill-opacity="0"/><use xlink:href="#D" transform="matrix(1,0,0,1,365,1565) translate(9.197530864197518 26.65277777777778)"/><use xlink:href="#E" transform="matrix(1,0,0,1,365,1565) translate(133.82716049382717 26.65277777777778)"/><use xlink:href="#F" transform="matrix(1,0,0,1,365,1565) translate(202.90123456790124 26.65277777777778)"/><use xlink:href="#G" transform="matrix(1,0,0,1,365,1565) translate(73.9506172839506 53.31944444444445)"/><use xlink:href="#H" transform="matrix(1,0,0,1,365,1565) translate(96.1111111111111 53.31944444444445)"/><path d="M360 1366c0-3.3 2.7-6 6-6h268c3.3 0 6 2.7 6 6v68c0 3.3-2.7 6-6 6H366c-3.3 0-6-2.7-6-6z" stroke="#000" stroke-opacity="0" stroke-width="3" fill="#fff" fill-opacity="0"/><use xlink:href="#I" transform="matrix(1,0,0,1,365,1365) translate(24.660493827160494 39.96527777777778)"/><use xlink:href="#J" transform="matrix(1,0,0,1,365,1365) translate(55.40123456790123 39.96527777777778)"/><use xlink:href="#K" transform="matrix(1,0,0,1,365,1365) translate(155.3395061728395 39.96527777777778)"/><path d="M540 44.33c0-3.3 2.7-6 6-6h308c3.3 0 6 2.7 6 6v51.34c0 3.3-2.7 6-6 6H546c-3.3 0-6-2.7-6-6z" stroke="#000" stroke-opacity="0" fill="#fff" fill-opacity="0"/><use xlink:href="#D" transform="matrix(1,0,0,1,545,43.333333333333336) translate(3.919753086419746 31.27777777777778)"/><use xlink:href="#E" transform="matrix(1,0,0,1,545,43.333333333333336) translate(128.5493827160494 31.27777777777778)"/><use xlink:href="#L" transform="matrix(1,0,0,1,545,43.333333333333336) translate(197.62345679012347 31.27777777777778)"/><path d="M1000 46c0-3.3 2.7-6 6-6h188c3.3 0 6 2.7 6 6v48c0 3.3-2.7 6-6 6h-188c-3.3 0-6-2.7-6-6z" stroke="#000" stroke-opacity="0" fill="#fff" fill-opacity="0"/><use xlink:href="#M" transform="matrix(1,0,0,1,1005,45) translate(44.44444444444444 30.27777777777778)"/><path d="M1400 46c0-3.3 2.7-6 6-6h188c3.3 0 6 2.7 6 6v48c0 3.3-2.7 6-6 6h-188c-3.3 0-6-2.7-6-6z" stroke="#000" stroke-opacity="0" fill="#fff" fill-opacity="0"/><use xlink:href="#N" transform="matrix(1,0,0,1,1405,45) translate(37.685185185185176 30.27777777777778)"/><path d="M720 400c0 11.05-8.95 20-20 20s-20-8.95-20-20 8.95-20 20-20 20 8.95 20 20zM320 200c0 11.05-8.95 20-20 20s-20-8.95-20-20 8.95-20 20-20 20 8.95 20 20z" stroke="#333" fill="#fff"/><path d="M200 46c0-3.3 2.7-6 6-6h188c3.3 0 6 2.7 6 6v48c0 3.3-2.7 6-6 6H206c-3.3 0-6-2.7-6-6z" stroke="#000" stroke-opacity="0" fill="#fff" fill-opacity="0"/><use xlink:href="#O" transform="matrix(1,0,0,1,205,45) translate(47.53086419753086 30.27777777777778)"/><path d="M321 200h342.12" stroke="#333" fill="none"/><path d="M321 200.5h-.56l.06-.48-.02-.52h.53" fill="#333"/><path d="M677.88 200l-14.26 4.64v-9.28z" stroke="#333" fill="#333"/><path d="M700 221v142.12" stroke="#333" fill="none"/><path d="M699.98 220.5l.52-.02v.53h-1v-.56" fill="#333"/><path d="M700 377.88l-4.64-14.26h9.28z" stroke="#333" fill="#333"/><path d="M721 400h342.12" stroke="#333" fill="none"/><path d="M721 400.5h-.56l.06-.48-.02-.52h.53" fill="#333"/><path d="M1077.88 400l-14.26 4.64v-9.28z" stroke="#333" fill="#333"/><path d="M1120 400c0 11.05-8.95 20-20 20s-20-8.95-20-20 8.95-20 20-20 20 8.95 20 20zM1120 600c0 11.05-8.95 20-20 20s-20-8.95-20-20 8.95-20 20-20 20 8.95 20 20zM720 600c0 11.05-8.95 20-20 20s-20-8.95-20-20 8.95-20 20-20 20 8.95 20 20zM720 800c0 11.05-8.95 20-20 20s-20-8.95-20-20 8.95-20 20-20 20 8.95 20 20z" stroke="#333" fill="#fff"/><path d="M1100 421v142.12" stroke="#333" fill="none"/><path d="M1099.98 420.5l.52-.02v.53h-1v-.56" fill="#333"/><path d="M1100 577.88l-4.64-14.26h9.28z" stroke="#333" fill="#333"/><path d="M1079 600H736.9" stroke="#333" fill="none"/><path d="M1079.5 599.98l.02.52h-.53v-1h.56" fill="#333"/><path d="M722.12 600l14.27-4.64v9.28z" stroke="#333" fill="#333"/><path d="M700 621v142.12" stroke="#333" fill="none"/><path d="M699.98 620.5l.52-.02v.53h-1v-.56" fill="#333"/><path d="M700 777.88l-4.64-14.26h9.28z" stroke="#333" fill="#333"/><path d="M720 1000c0 11.05-8.95 20-20 20s-20-8.95-20-20 8.95-20 20-20 20 8.95 20 20z" stroke="#333" fill="#fff"/><path d="M-40 166c0-3.3 2.7-6 6-6h268c3.3 0 6 2.7 6 6v68c0 3.3-2.7 6-6 6H-34c-3.3 0-6-2.7-6-6z" stroke="#000" stroke-opacity="0" stroke-width="3" fill="#fff" fill-opacity="0"/><use xlink:href="#P" transform="matrix(1,0,0,1,-35,165) translate(24.629629629629633 26.52777777777778)"/><use xlink:href="#m" transform="matrix(1,0,0,1,-35,165) translate(125.74074074074075 26.52777777777778)"/><use xlink:href="#Q" transform="matrix(1,0,0,1,-35,165) translate(186.17283950617286 26.52777777777778)"/><use xlink:href="#R" transform="matrix(1,0,0,1,-35,165) translate(204.69135802469134 26.52777777777778)"/><use xlink:href="#S" transform="matrix(1,0,0,1,-35,165) translate(41.234567901234556 53.19444444444445)"/><use xlink:href="#T" transform="matrix(1,0,0,1,-35,165) translate(165.8641975308642 53.19444444444445)"/><path d="M140 947.67c0-3.32 2.7-6 6-6h488c3.3 0 6 2.68 6 6v104.66c0 3.32-2.7 6-6 6H146c-3.3 0-6-2.68-6-6z" stroke="#000" stroke-opacity="0" stroke-width="3" fill="#fff" fill-opacity="0"/><use xlink:href="#a" transform="matrix(1,0,0,1,145,946.6666666666669) translate(46.512345679012356 17.77777777777778)"/><use xlink:href="#m" transform="matrix(1,0,0,1,145,946.6666666666669) translate(161.14197530864197 17.77777777777778)"/><use xlink:href="#U" transform="matrix(1,0,0,1,145,946.6666666666669) translate(221.57407407407408 17.77777777777778)"/><use xlink:href="#o" transform="matrix(1,0,0,1,145,946.6666666666669) translate(264.78395061728395 17.77777777777778)"/><use xlink:href="#p" transform="matrix(1,0,0,1,145,946.6666666666669) translate(333.7962962962963 17.77777777777778)"/><use xlink:href="#y" transform="matrix(1,0,0,1,145,946.6666666666669) translate(364.6604938271605 17.77777777777778)"/><use xlink:href="#z" transform="matrix(1,0,0,1,145,946.6666666666669) translate(392.9320987654321 17.77777777777778)"/><use xlink:href="#V" transform="matrix(1,0,0,1,145,946.6666666666669) translate(48.271604938271594 44.44444444444444)"/><use xlink:href="#W" transform="matrix(1,0,0,1,145,946.6666666666669) translate(154.3827160493827 44.44444444444444)"/><use xlink:href="#X" transform="matrix(1,0,0,1,145,946.6666666666669) translate(198.76543209876542 44.44444444444444)"/><use xlink:href="#Y" transform="matrix(1,0,0,1,145,946.6666666666669) translate(233.20987654320987 44.44444444444444)"/><use xlink:href="#Z" transform="matrix(1,0,0,1,145,946.6666666666669) translate(323.3333333333333 44.44444444444444)"/><use xlink:href="#aa" transform="matrix(1,0,0,1,145,946.6666666666669) translate(410.8641975308642 44.44444444444444)"/><use xlink:href="#ab" transform="matrix(1,0,0,1,145,946.6666666666669) translate(1.4814814814814667 71.11111111111111)"/><use xlink:href="#ac" transform="matrix(1,0,0,1,145,946.6666666666669) translate(113.64197530864197 71.11111111111111)"/><use xlink:href="#ad" transform="matrix(1,0,0,1,145,946.6666666666669) translate(197.53086419753086 71.11111111111111)"/><use xlink:href="#c" transform="matrix(1,0,0,1,145,946.6666666666669) translate(228.39506172839506 71.11111111111111)"/><use xlink:href="#h" transform="matrix(1,0,0,1,145,946.6666666666669) translate(287.4691358024691 71.11111111111111)"/><use xlink:href="#q" transform="matrix(1,0,0,1,145,946.6666666666669) translate(312.16049382716045 71.11111111111111)"/><use xlink:href="#ae" transform="matrix(1,0,0,1,145,946.6666666666669) translate(349.1975308641975 71.11111111111111)"/><use xlink:href="#d" transform="matrix(1,0,0,1,145,946.6666666666669) translate(470 71.11111111111111)"/><use xlink:href="#af" transform="matrix(1,0,0,1,145,946.6666666666669) translate(155.03086419753086 97.77777777777777)"/><use xlink:href="#ag" transform="matrix(1,0,0,1,145,946.6666666666669) translate(214.16666666666666 97.77777777777777)"/><path d="M1520 1000c0 11.05-8.95 20-20 20s-20-8.95-20-20 8.95-20 20-20 20 8.95 20 20z" stroke="#333" fill="#fff"/><path d="M721 1000h742.12" stroke="#333" fill="none"/><path d="M721 1000.5h-.56l.06-.48-.02-.52h.53" fill="#333"/><path d="M1477.88 1000l-14.26 4.64v-9.28z" stroke="#333" fill="#333"/><path d="M700 821v142.12" stroke="#333" fill="none"/><path d="M699.98 820.5l.52-.02v.53h-1v-.56" fill="#333"/><path d="M700 977.88l-4.64-14.26h9.28z" stroke="#333" fill="#333"/><path d="M1520 1200c0 11.05-8.95 20-20 20s-20-8.95-20-20 8.95-20 20-20 20 8.95 20 20zM720 1200c0 11.05-8.95 20-20 20s-20-8.95-20-20 8.95-20 20-20 20 8.95 20 20z" stroke="#333" fill="#fff"/><path d="M1479 1200H736.9" stroke="#333" fill="none"/><path d="M1479.5 1199.98l.02.52h-.53v-1h.56" fill="#333"/><path d="M722.12 1200l14.27-4.64v9.28z" stroke="#333" fill="#333"/><path d="M1500 1021v142.12" stroke="#333" fill="none"/><path d="M1499.98 1020.5l.52-.02v.53h-1v-.56" fill="#333"/><path d="M1500 1177.88l-4.64-14.26h9.28z" stroke="#333" fill="#333"/><path d="M720 1400c0 11.05-8.95 20-20 20s-20-8.95-20-20 8.95-20 20-20 20 8.95 20 20zM720 1600c0 11.05-8.95 20-20 20s-20-8.95-20-20 8.95-20 20-20 20 8.95 20 20zM720 1800c0 11.05-8.95 20-20 20s-20-8.95-20-20 8.95-20 20-20 20 8.95 20 20zM320 1800c0 11.05-8.95 20-20 20s-20-8.95-20-20 8.95-20 20-20 20 8.95 20 20z" stroke="#333" fill="#fff"/><path d="M700 1221v142.12" stroke="#333" fill="none"/><path d="M699.98 1220.5l.52-.02v.53h-1v-.56" fill="#333"/><path d="M700 1377.88l-4.64-14.26h9.28z" stroke="#333" fill="#333"/><path d="M700 1421v142.12" stroke="#333" fill="none"/><path d="M699.98 1420.5l.52-.02v.53h-1v-.56" fill="#333"/><path d="M700 1577.88l-4.64-14.26h9.28z" stroke="#333" fill="#333"/><path d="M700 1621v142.12" stroke="#333" fill="none"/><path d="M699.98 1620.5l.52-.02v.53h-1v-.56" fill="#333"/><path d="M700 1777.88l-4.64-14.26h9.28z" stroke="#333" fill="#333"/><path d="M679 1800H336.88" stroke="#333" fill="none"/><path d="M679.5 1799.98l.02.52H679v-1h.56" fill="#333"/><path d="M322.12 1800l14.26-4.64v9.28z" stroke="#333" fill="#333"/><path d="M-20 1766c0-3.3 2.7-6 6-6h268c3.3 0 6 2.7 6 6v68c0 3.3-2.7 6-6 6H-14c-3.3 0-6-2.7-6-6z" stroke="#000" stroke-opacity="0" stroke-width="3" fill="#fff" fill-opacity="0"/><g><use xlink:href="#P" transform="matrix(1,0,0,1,-15,1765) translate(11.1111111111111 39.65277777777778)"/><use xlink:href="#ah" transform="matrix(1,0,0,1,-15,1765) translate(112.22222222222221 39.65277777777778)"/><use xlink:href="#ai" transform="matrix(1,0,0,1,-15,1765) translate(200.98765432098764 39.65277777777778)"/></g><path d="M760 1746c0-3.3 2.7-6 6-6h288c3.3 0 6 2.7 6 6v108c0 3.3-2.7 6-6 6H766c-3.3 0-6-2.7-6-6z" stroke="#000" stroke-opacity="0" stroke-width="3" fill="#fff" fill-opacity="0"/><g><use xlink:href="#a" transform="matrix(1,0,0,1,764.9999999999999,1745) translate(5.12345679012347 45.27777777777778)"/><use xlink:href="#aj" transform="matrix(1,0,0,1,764.9999999999999,1745) translate(119.7530864197531 45.27777777777778)"/><use xlink:href="#q" transform="matrix(1,0,0,1,764.9999999999999,1745) translate(189.93827160493828 45.27777777777778)"/><use xlink:href="#F" transform="matrix(1,0,0,1,764.9999999999999,1745) translate(226.97530864197532 45.27777777777778)"/><use xlink:href="#h" transform="matrix(1,0,0,1,764.9999999999999,1745) translate(66.66666666666666 71.94444444444446)"/><use xlink:href="#q" transform="matrix(1,0,0,1,764.9999999999999,1745) translate(91.35802469135801 71.94444444444446)"/><use xlink:href="#ak" transform="matrix(1,0,0,1,764.9999999999999,1745) translate(128.39506172839504 71.94444444444446)"/></g><path d="M759.5 1800H721" stroke="#333" fill="none"/><path d="M760 1800.5h-.5v-1h.5M721 1800.5h-.56l.06-.48-.02-.52h.53" fill="#333"/><path d="M1560 1166c0-3.3 2.7-6 6-6h228c3.3 0 6 2.7 6 6v68c0 3.3-2.7 6-6 6h-228c-3.3 0-6-2.7-6-6z" stroke="#000" stroke-opacity="0" stroke-width="3" fill="#fff" fill-opacity="0"/><g><use xlink:href="#al" transform="matrix(1,0,0,1,1565,1165) translate(23.179012345679013 26.52777777777778)"/><use xlink:href="#am" transform="matrix(1,0,0,1,1565,1165) translate(136.6358024691358 26.52777777777778)"/><use xlink:href="#ag" transform="matrix(1,0,0,1,1565,1165) translate(54.598765432098766 53.19444444444445)"/></g><path d="M240 200" stroke="#333" fill="none"/><path fill="#333"/><path fill="#333"/><path d="M240.5 200H279" stroke="#333" fill="none"/><path d="M240.5 200.5h-.5v-1h.5M279.5 199.98l.02.52H279v-1h.56" fill="#333"/><path d="M640.5 400H679" stroke="#333" fill="none"/><path d="M640.5 400.5h-.5v-1h.5M679.5 399.98l.02.52H679v-1h.56" fill="#333"/><path d="M640.5 1600H679" stroke="#333" fill="none"/><path d="M640.5 1600.5h-.5v-1h.5M679.5 1599.98l.02.52H679v-1h.56" fill="#333"/><path d="M640.5 1400H679" stroke="#333" fill="none"/><path d="M640.5 1400.5h-.5v-1h.5M679.5 1399.98l.02.52H679v-1h.56" fill="#333"/><path d="M640.5 1000H679" stroke="#333" fill="none"/><path d="M640.5 1000.5h-.5v-1h.5M679.5 999.98l.02.52H679v-1h.56" fill="#333"/><path d="M640.5 800H679" stroke="#333" fill="none"/><path d="M640.5 800.5h-.5v-1h.5M679.5 799.98l.02.52H679v-1h.56" fill="#333"/><path d="M640.5 600H679" stroke="#333" fill="none"/><path d="M640.5 600.5h-.5v-1h.5M679.5 599.98l.02.52H679v-1h.56" fill="#333"/><path d="M1559.5 1200H1521" stroke="#333" fill="none"/><path d="M1560 1200.5h-.5v-1h.5M1521 1200.5h-.56l.06-.48-.02-.52h.53" fill="#333"/><path d="M1159.5 600H1121" stroke="#333" fill="none"/><path d="M1160 600.5h-.5v-1h.5M1121 600.5h-.56l.06-.48-.02-.52h.53" fill="#333"/><defs><path fill="#333" d="M205 0l-28-72H64L36 0H1l101-248h38L239 0h-34zm-38-99l-47-123c-12 45-31 82-46 123h93" id="an"/><path fill="#333" d="M115-194c55 1 70 41 70 98S169 2 115 4C84 4 66-9 55-30l1 105H24l-1-265h31l2 30c10-21 28-34 59-34zm-8 174c40 0 45-34 45-75s-6-73-45-74c-42 0-51 32-51 76 0 43 10 73 51 73" id="ao"/><path fill="#333" d="M24 0v-261h32V0H24" id="ap"/><path fill="#333" d="M24-231v-30h32v30H24zM24 0v-190h32V0H24" id="aq"/><path fill="#333" d="M96-169c-40 0-48 33-48 73s9 75 48 75c24 0 41-14 43-38l32 2c-6 37-31 61-74 61-59 0-76-41-82-99-10-93 101-131 147-64 4 7 5 14 7 22l-32 3c-4-21-16-35-41-35" id="ar"/><path fill="#333" d="M141-36C126-15 110 5 73 4 37 3 15-17 15-53c-1-64 63-63 125-63 3-35-9-54-41-54-24 1-41 7-42 31l-33-3c5-37 33-52 76-52 45 0 72 20 72 64v82c-1 20 7 32 28 27v20c-31 9-61-2-59-35zM48-53c0 20 12 33 32 33 41-3 63-29 60-74-43 2-92-5-92 41" id="as"/><path fill="#333" d="M59-47c-2 24 18 29 38 22v24C64 9 27 4 27-40v-127H5v-23h24l9-43h21v43h35v23H59v120" id="at"/><path fill="#333" d="M100-194c62-1 85 37 85 99 1 63-27 99-86 99S16-35 15-95c0-66 28-99 85-99zM99-20c44 1 53-31 53-75 0-43-8-75-51-75s-53 32-53 75 10 74 51 75" id="au"/><path fill="#333" d="M117-194c89-4 53 116 60 194h-32v-121c0-31-8-49-39-48C34-167 62-67 57 0H25l-1-190h30c1 10-1 24 2 32 11-22 29-35 61-36" id="av"/><g id="a"><use transform="matrix(0.06172839506172839,0,0,0.06172839506172839,0,0)" xlink:href="#an"/><use transform="matrix(0.06172839506172839,0,0,0.06172839506172839,14.814814814814813,0)" xlink:href="#ao"/><use transform="matrix(0.06172839506172839,0,0,0.06172839506172839,27.160493827160494,0)" xlink:href="#ao"/><use transform="matrix(0.06172839506172839,0,0,0.06172839506172839,39.50617283950617,0)" xlink:href="#ap"/><use transform="matrix(0.06172839506172839,0,0,0.06172839506172839,44.382716049382715,0)" xlink:href="#aq"/><use transform="matrix(0.06172839506172839,0,0,0.06172839506172839,49.25925925925926,0)" xlink:href="#ar"/><use transform="matrix(0.06172839506172839,0,0,0.06172839506172839,60.37037037037037,0)" xlink:href="#as"/><use transform="matrix(0.06172839506172839,0,0,0.06172839506172839,72.71604938271605,0)" xlink:href="#at"/><use transform="matrix(0.06172839506172839,0,0,0.06172839506172839,78.88888888888889,0)" xlink:href="#aq"/><use transform="matrix(0.06172839506172839,0,0,0.06172839506172839,83.76543209876543,0)" xlink:href="#au"/><use transform="matrix(0.06172839506172839,0,0,0.06172839506172839,96.11111111111111,0)" xlink:href="#av"/></g><path fill="#333" d="M135-143c-3-34-86-38-87 0 15 53 115 12 119 90S17 21 10-45l28-5c4 36 97 45 98 0-10-56-113-15-118-90-4-57 82-63 122-42 12 7 21 19 24 35" id="aw"/><path fill="#333" d="M100-194c63 0 86 42 84 106H49c0 40 14 67 53 68 26 1 43-12 49-29l28 8c-11 28-37 45-77 45C44 4 14-33 15-96c1-61 26-98 85-98zm52 81c6-60-76-77-97-28-3 7-6 17-6 28h103" id="ax"/><path fill="#333" d="M85-194c31 0 48 13 60 33l-1-100h32l1 261h-30c-2-10 0-23-3-31C134-8 116 4 85 4 32 4 16-35 15-94c0-66 23-100 70-100zm9 24c-40 0-46 34-46 75 0 40 6 74 45 74 42 0 51-32 51-76 0-42-9-74-50-73" id="ay"/><g id="b"><use transform="matrix(0.06172839506172839,0,0,0.06172839506172839,0,0)" xlink:href="#aw"/><use transform="matrix(0.06172839506172839,0,0,0.06172839506172839,11.11111111111111,0)" xlink:href="#ax"/><use transform="matrix(0.06172839506172839,0,0,0.06172839506172839,23.45679012345679,0)" xlink:href="#av"/><use transform="matrix(0.06172839506172839,0,0,0.06172839506172839,35.80246913580247,0)" xlink:href="#ay"/><use transform="matrix(0.06172839506172839,0,0,0.06172839506172839,48.148148148148145,0)" xlink:href="#aw"/></g><path fill="#333" d="M210-169c-67 3-38 105-44 169h-31v-121c0-29-5-50-35-48C34-165 62-65 56 0H25l-1-190h30c1 10-1 24 2 32 10-44 99-50 107 0 11-21 27-35 58-36 85-2 47 119 55 194h-31v-121c0-29-5-49-35-48" id="az"/><g id="c"><use transform="matrix(0.06172839506172839,0,0,0.06172839506172839,0,0)" xlink:href="#ax"/><use transform="matrix(0.06172839506172839,0,0,0.06172839506172839,12.345679012345679,0)" xlink:href="#az"/><use transform="matrix(0.06172839506172839,0,0,0.06172839506172839,30.80246913580247,0)" xlink:href="#as"/><use transform="matrix(0.06172839506172839,0,0,0.06172839506172839,43.148148148148145,0)" xlink:href="#aq"/><use transform="matrix(0.06172839506172839,0,0,0.06172839506172839,48.02469135802469,0)" xlink:href="#ap"/></g><g id="d"><use transform="matrix(0.06172839506172839,0,0,0.06172839506172839,0,0)" xlink:href="#at"/><use transform="matrix(0.06172839506172839,0,0,0.06172839506172839,6.172839506172839,0)" xlink:href="#au"/></g><path fill="#333" d="M212-179c-10-28-35-45-73-45-59 0-87 40-87 99 0 60 29 101 89 101 43 0 62-24 78-52l27 14C228-24 195 4 139 4 59 4 22-46 18-125c-6-104 99-153 187-111 19 9 31 26 39 46" id="aA"/><g id="e"><use transform="matrix(0.06172839506172839,0,0,0.06172839506172839,0,0)" xlink:href="#aA"/><use transform="matrix(0.06172839506172839,0,0,0.06172839506172839,15.987654320987653,0)" xlink:href="#as"/><use transform="matrix(0.06172839506172839,0,0,0.06172839506172839,28.333333333333332,0)" xlink:href="#av"/><use transform="matrix(0.06172839506172839,0,0,0.06172839506172839,40.67901234567901,0)" xlink:href="#ay"/><use transform="matrix(0.06172839506172839,0,0,0.06172839506172839,53.02469135802469,0)" xlink:href="#aq"/><use transform="matrix(0.06172839506172839,0,0,0.06172839506172839,57.901234567901234,0)" xlink:href="#ay"/><use transform="matrix(0.06172839506172839,0,0,0.06172839506172839,70.24691358024691,0)" xlink:href="#as"/><use transform="matrix(0.06172839506172839,0,0,0.06172839506172839,82.5925925925926,0)" xlink:href="#at"/><use transform="matrix(0.06172839506172839,0,0,0.06172839506172839,88.76543209876543,0)" xlink:href="#ax"/></g><path fill="#333" d="M206 0h-36l-40-164L89 0H53L-1-190h32L70-26l43-164h34l41 164 42-164h31" id="aB"/><path fill="#333" d="M106-169C34-169 62-67 57 0H25v-261h32l-1 103c12-21 28-36 61-36 89 0 53 116 60 194h-32v-121c2-32-8-49-39-48" id="aC"/><g id="f"><use transform="matrix(0.06172839506172839,0,0,0.06172839506172839,0,0)" xlink:href="#aB"/><use transform="matrix(0.06172839506172839,0,0,0.06172839506172839,15.987654320987653,0)" xlink:href="#aq"/><use transform="matrix(0.06172839506172839,0,0,0.06172839506172839,20.864197530864196,0)" xlink:href="#at"/><use transform="matrix(0.06172839506172839,0,0,0.06172839506172839,27.037037037037035,0)" xlink:href="#aC"/></g><path fill="#333" d="M114-163C36-179 61-72 57 0H25l-1-190h30c1 12-1 29 2 39 6-27 23-49 58-41v29" id="aD"/><path fill="#333" d="M84 4C-5 8 30-112 23-190h32v120c0 31 7 50 39 49 72-2 45-101 50-169h31l1 190h-30c-1-10 1-25-2-33-11 22-28 36-60 37" id="aE"/><g id="g"><use transform="matrix(0.06172839506172839,0,0,0.06172839506172839,0,0)" xlink:href="#aq"/><use transform="matrix(0.06172839506172839,0,0,0.06172839506172839,4.876543209876543,0)" xlink:href="#av"/><use transform="matrix(0.06172839506172839,0,0,0.06172839506172839,17.22222222222222,0)" xlink:href="#aw"/><use transform="matrix(0.06172839506172839,0,0,0.06172839506172839,28.333333333333332,0)" xlink:href="#at"/><use transform="matrix(0.06172839506172839,0,0,0.06172839506172839,34.50617283950617,0)" xlink:href="#aD"/><use transform="matrix(0.06172839506172839,0,0,0.06172839506172839,41.85185185185185,0)" xlink:href="#aE"/><use transform="matrix(0.06172839506172839,0,0,0.06172839506172839,54.197530864197525,0)" xlink:href="#ar"/><use transform="matrix(0.06172839506172839,0,0,0.06172839506172839,65.30864197530863,0)" xlink:href="#at"/><use transform="matrix(0.06172839506172839,0,0,0.06172839506172839,71.48148148148147,0)" xlink:href="#aq"/><use transform="matrix(0.06172839506172839,0,0,0.06172839506172839,76.35802469135801,0)" xlink:href="#au"/><use transform="matrix(0.06172839506172839,0,0,0.06172839506172839,88.7037037037037,0)" xlink:href="#av"/><use transform="matrix(0.06172839506172839,0,0,0.06172839506172839,101.04938271604938,0)" xlink:href="#aw"/></g><g id="h"><use transform="matrix(0.06172839506172839,0,0,0.06172839506172839,0,0)" xlink:href="#at"/><use transform="matrix(0.06172839506172839,0,0,0.06172839506172839,6.172839506172839,0)" xlink:href="#au"/></g><g id="i"><use transform="matrix(0.06172839506172839,0,0,0.06172839506172839,0,0)" xlink:href="#as"/><use transform="matrix(0.06172839506172839,0,0,0.06172839506172839,12.345679012345679,0)" xlink:href="#ar"/><use transform="matrix(0.06172839506172839,0,0,0.06172839506172839,23.45679012345679,0)" xlink:href="#ar"/><use transform="matrix(0.06172839506172839,0,0,0.06172839506172839,34.5679012345679,0)" xlink:href="#ax"/><use transform="matrix(0.06172839506172839,0,0,0.06172839506172839,46.913580246913575,0)" xlink:href="#ao"/><use transform="matrix(0.06172839506172839,0,0,0.06172839506172839,59.25925925925925,0)" xlink:href="#at"/></g><g id="j"><use transform="matrix(0.06172839506172839,0,0,0.06172839506172839,0,0)" xlink:href="#aA"/><use transform="matrix(0.06172839506172839,0,0,0.06172839506172839,15.987654320987653,0)" xlink:href="#as"/><use transform="matrix(0.06172839506172839,0,0,0.06172839506172839,28.333333333333332,0)" xlink:href="#av"/><use transform="matrix(0.06172839506172839,0,0,0.06172839506172839,40.67901234567901,0)" xlink:href="#ay"/><use transform="matrix(0.06172839506172839,0,0,0.06172839506172839,53.02469135802469,0)" xlink:href="#aq"/><use transform="matrix(0.06172839506172839,0,0,0.06172839506172839,57.901234567901234,0)" xlink:href="#ay"/><use transform="matrix(0.06172839506172839,0,0,0.06172839506172839,70.24691358024691,0)" xlink:href="#as"/><use transform="matrix(0.06172839506172839,0,0,0.06172839506172839,82.5925925925926,0)" xlink:href="#at"/><use transform="matrix(0.06172839506172839,0,0,0.06172839506172839,88.76543209876543,0)" xlink:href="#ax"/></g><path fill="#333" d="M101-234c-31-9-42 10-38 44h38v23H63V0H32v-167H5v-23h27c-7-52 17-82 69-68v24" id="aF"/><g id="k"><use transform="matrix(0.06172839506172839,0,0,0.06172839506172839,0,0)" xlink:href="#aF"/><use transform="matrix(0.06172839506172839,0,0,0.06172839506172839,6.172839506172839,0)" xlink:href="#au"/><use transform="matrix(0.06172839506172839,0,0,0.06172839506172839,18.51851851851852,0)" xlink:href="#ap"/><use transform="matrix(0.06172839506172839,0,0,0.06172839506172839,23.395061728395063,0)" xlink:href="#ap"/><use transform="matrix(0.06172839506172839,0,0,0.06172839506172839,28.271604938271608,0)" xlink:href="#au"/><use transform="matrix(0.06172839506172839,0,0,0.06172839506172839,40.617283950617285,0)" xlink:href="#aB"/><use transform="matrix(0.06172839506172839,0,0,0.06172839506172839,56.60493827160494,0)" xlink:href="#aw"/></g><g id="l"><use transform="matrix(0.06172839506172839,0,0,0.06172839506172839,0,0)" xlink:href="#aq"/><use transform="matrix(0.06172839506172839,0,0,0.06172839506172839,4.876543209876543,0)" xlink:href="#av"/><use transform="matrix(0.06172839506172839,0,0,0.06172839506172839,17.22222222222222,0)" xlink:href="#at"/><use transform="matrix(0.06172839506172839,0,0,0.06172839506172839,23.39506172839506,0)" xlink:href="#aD"/><use transform="matrix(0.06172839506172839,0,0,0.06172839506172839,30.74074074074074,0)" xlink:href="#aE"/><use transform="matrix(0.06172839506172839,0,0,0.06172839506172839,43.08641975308642,0)" xlink:href="#ar"/><use transform="matrix(0.06172839506172839,0,0,0.06172839506172839,54.19753086419753,0)" xlink:href="#at"/><use transform="matrix(0.06172839506172839,0,0,0.06172839506172839,60.370370370370374,0)" xlink:href="#aq"/><use transform="matrix(0.06172839506172839,0,0,0.06172839506172839,65.24691358024691,0)" xlink:href="#au"/><use transform="matrix(0.06172839506172839,0,0,0.06172839506172839,77.5925925925926,0)" xlink:href="#av"/><use transform="matrix(0.06172839506172839,0,0,0.06172839506172839,89.93827160493828,0)" xlink:href="#aw"/></g><g id="m"><use transform="matrix(0.06172839506172839,0,0,0.06172839506172839,0,0)" xlink:href="#aw"/><use transform="matrix(0.06172839506172839,0,0,0.06172839506172839,11.11111111111111,0)" xlink:href="#at"/><use transform="matrix(0.06172839506172839,0,0,0.06172839506172839,17.28395061728395,0)" xlink:href="#as"/><use transform="matrix(0.06172839506172839,0,0,0.06172839506172839,29.629629629629626,0)" xlink:href="#aD"/><use transform="matrix(0.06172839506172839,0,0,0.06172839506172839,36.9753086419753,0)" xlink:href="#at"/><use transform="matrix(0.06172839506172839,0,0,0.06172839506172839,43.148148148148145,0)" xlink:href="#aw"/></g><g id="n"><use transform="matrix(0.06172839506172839,0,0,0.06172839506172839,0,0)" xlink:href="#as"/><use transform="matrix(0.06172839506172839,0,0,0.06172839506172839,12.345679012345679,0)" xlink:href="#av"/><use transform="matrix(0.06172839506172839,0,0,0.06172839506172839,24.691358024691358,0)" xlink:href="#ay"/></g><g id="o"><use transform="matrix(0.06172839506172839,0,0,0.06172839506172839,0,0)" xlink:href="#as"/><use transform="matrix(0.06172839506172839,0,0,0.06172839506172839,12.345679012345679,0)" xlink:href="#aB"/><use transform="matrix(0.06172839506172839,0,0,0.06172839506172839,28.333333333333332,0)" xlink:href="#as"/><use transform="matrix(0.06172839506172839,0,0,0.06172839506172839,40.67901234567901,0)" xlink:href="#aq"/><use transform="matrix(0.06172839506172839,0,0,0.06172839506172839,45.55555555555556,0)" xlink:href="#at"/><use transform="matrix(0.06172839506172839,0,0,0.06172839506172839,51.7283950617284,0)" xlink:href="#aw"/></g><g id="p"><use transform="matrix(0.06172839506172839,0,0,0.06172839506172839,0,0)" xlink:href="#au"/><use transform="matrix(0.06172839506172839,0,0,0.06172839506172839,12.345679012345679,0)" xlink:href="#av"/></g><g id="q"><use transform="matrix(0.06172839506172839,0,0,0.06172839506172839,0,0)" xlink:href="#at"/><use transform="matrix(0.06172839506172839,0,0,0.06172839506172839,6.172839506172839,0)" xlink:href="#aC"/><use transform="matrix(0.06172839506172839,0,0,0.06172839506172839,18.51851851851852,0)" xlink:href="#ax"/></g><path fill="#333" d="M185-189c-5-48-123-54-124 2 14 75 158 14 163 119 3 78-121 87-175 55-17-10-28-26-33-46l33-7c5 56 141 63 141-1 0-78-155-14-162-118-5-82 145-84 179-34 5 7 8 16 11 25" id="aG"/><path fill="#333" d="M190 0L58-211 59 0H30v-248h39L202-35l-2-213h31V0h-41" id="aH"/><g id="r"><use transform="matrix(0.06172839506172839,0,0,0.06172839506172839,0,0)" xlink:href="#aG"/><use transform="matrix(0.06172839506172839,0,0,0.06172839506172839,14.814814814814813,0)" xlink:href="#aG"/><use transform="matrix(0.06172839506172839,0,0,0.06172839506172839,29.629629629629626,0)" xlink:href="#aH"/></g><path fill="#333" d="M127-220V0H93v-220H8v-28h204v28h-85" id="aI"/><g id="s"><use transform="matrix(0.06172839506172839,0,0,0.06172839506172839,0,0)" xlink:href="#aI"/><use transform="matrix(0.06172839506172839,0,0,0.06172839506172839,12.716049382716047,0)" xlink:href="#aD"/><use transform="matrix(0.06172839506172839,0,0,0.06172839506172839,20.061728395061728,0)" xlink:href="#as"/><use transform="matrix(0.06172839506172839,0,0,0.06172839506172839,32.407407407407405,0)" xlink:href="#ar"/><use transform="matrix(0.06172839506172839,0,0,0.06172839506172839,43.51851851851852,0)" xlink:href="#ax"/></g><g id="t"><use transform="matrix(0.06172839506172839,0,0,0.06172839506172839,0,0)" xlink:href="#aG"/><use transform="matrix(0.06172839506172839,0,0,0.06172839506172839,14.814814814814813,0)" xlink:href="#ax"/><use transform="matrix(0.06172839506172839,0,0,0.06172839506172839,27.160493827160494,0)" xlink:href="#as"/><use transform="matrix(0.06172839506172839,0,0,0.06172839506172839,39.50617283950617,0)" xlink:href="#aD"/><use transform="matrix(0.06172839506172839,0,0,0.06172839506172839,46.85185185185185,0)" xlink:href="#ar"/><use transform="matrix(0.06172839506172839,0,0,0.06172839506172839,57.96296296296296,0)" xlink:href="#aC"/></g><g id="u"><use transform="matrix(0.06172839506172839,0,0,0.06172839506172839,0,0)" xlink:href="#aG"/><use transform="matrix(0.06172839506172839,0,0,0.06172839506172839,14.814814814814813,0)" xlink:href="#aG"/><use transform="matrix(0.06172839506172839,0,0,0.06172839506172839,29.629629629629626,0)" xlink:href="#aH"/></g><g id="v"><use transform="matrix(0.06172839506172839,0,0,0.06172839506172839,0,0)" xlink:href="#aI"/><use transform="matrix(0.06172839506172839,0,0,0.06172839506172839,12.716049382716047,0)" xlink:href="#aD"/><use transform="matrix(0.06172839506172839,0,0,0.06172839506172839,20.061728395061728,0)" xlink:href="#as"/><use transform="matrix(0.06172839506172839,0,0,0.06172839506172839,32.407407407407405,0)" xlink:href="#ar"/><use transform="matrix(0.06172839506172839,0,0,0.06172839506172839,43.51851851851852,0)" xlink:href="#ax"/></g><path fill="#333" d="M33 0v-38h34V0H33" id="aJ"/><g id="w"><use transform="matrix(0.06172839506172839,0,0,0.06172839506172839,0,0)" xlink:href="#ar"/><use transform="matrix(0.06172839506172839,0,0,0.06172839506172839,11.11111111111111,0)" xlink:href="#au"/><use transform="matrix(0.06172839506172839,0,0,0.06172839506172839,23.45679012345679,0)" xlink:href="#az"/><use transform="matrix(0.06172839506172839,0,0,0.06172839506172839,41.91358024691358,0)" xlink:href="#ao"/><use transform="matrix(0.06172839506172839,0,0,0.06172839506172839,54.25925925925926,0)" xlink:href="#ap"/><use transform="matrix(0.06172839506172839,0,0,0.06172839506172839,59.135802469135804,0)" xlink:href="#ax"/><use transform="matrix(0.06172839506172839,0,0,0.06172839506172839,71.48148148148148,0)" xlink:href="#at"/><use transform="matrix(0.06172839506172839,0,0,0.06172839506172839,77.65432098765432,0)" xlink:href="#ax"/><use transform="matrix(0.06172839506172839,0,0,0.06172839506172839,90,0)" xlink:href="#aw"/><use transform="matrix(0.06172839506172839,0,0,0.06172839506172839,101.11111111111111,0)" xlink:href="#aJ"/></g><g id="x"><use transform="matrix(0.06172839506172839,0,0,0.06172839506172839,0,0)" xlink:href="#an"/><use transform="matrix(0.06172839506172839,0,0,0.06172839506172839,14.814814814814813,0)" xlink:href="#ao"/><use transform="matrix(0.06172839506172839,0,0,0.06172839506172839,27.160493827160494,0)" xlink:href="#ao"/><use transform="matrix(0.06172839506172839,0,0,0.06172839506172839,39.50617283950617,0)" xlink:href="#ap"/><use transform="matrix(0.06172839506172839,0,0,0.06172839506172839,44.382716049382715,0)" xlink:href="#aq"/><use transform="matrix(0.06172839506172839,0,0,0.06172839506172839,49.25925925925926,0)" xlink:href="#ar"/><use transform="matrix(0.06172839506172839,0,0,0.06172839506172839,60.37037037037037,0)" xlink:href="#as"/><use transform="matrix(0.06172839506172839,0,0,0.06172839506172839,72.71604938271605,0)" xlink:href="#at"/><use transform="matrix(0.06172839506172839,0,0,0.06172839506172839,78.88888888888889,0)" xlink:href="#aq"/><use transform="matrix(0.06172839506172839,0,0,0.06172839506172839,83.76543209876543,0)" xlink:href="#au"/><use transform="matrix(0.06172839506172839,0,0,0.06172839506172839,96.11111111111111,0)" xlink:href="#av"/></g><g id="y"><use transform="matrix(0.06172839506172839,0,0,0.06172839506172839,0,0)" xlink:href="#as"/><use transform="matrix(0.06172839506172839,0,0,0.06172839506172839,12.345679012345679,0)" xlink:href="#ap"/><use transform="matrix(0.06172839506172839,0,0,0.06172839506172839,17.22222222222222,0)" xlink:href="#ap"/></g><g id="z"><use transform="matrix(0.06172839506172839,0,0,0.06172839506172839,0,0)" xlink:href="#au"/><use transform="matrix(0.06172839506172839,0,0,0.06172839506172839,12.345679012345679,0)" xlink:href="#at"/><use transform="matrix(0.06172839506172839,0,0,0.06172839506172839,18.51851851851852,0)" xlink:href="#aC"/><use transform="matrix(0.06172839506172839,0,0,0.06172839506172839,30.864197530864196,0)" xlink:href="#ax"/><use transform="matrix(0.06172839506172839,0,0,0.06172839506172839,43.20987654320987,0)" xlink:href="#aD"/></g><g id="A"><use transform="matrix(0.06172839506172839,0,0,0.06172839506172839,0,0)" xlink:href="#aG"/><use transform="matrix(0.06172839506172839,0,0,0.06172839506172839,14.814814814814813,0)" xlink:href="#ax"/><use transform="matrix(0.06172839506172839,0,0,0.06172839506172839,27.160493827160494,0)" xlink:href="#as"/><use transform="matrix(0.06172839506172839,0,0,0.06172839506172839,39.50617283950617,0)" xlink:href="#aD"/><use transform="matrix(0.06172839506172839,0,0,0.06172839506172839,46.85185185185185,0)" xlink:href="#ar"/><use transform="matrix(0.06172839506172839,0,0,0.06172839506172839,57.96296296296296,0)" xlink:href="#aC"/><use transform="matrix(0.06172839506172839,0,0,0.06172839506172839,70.30864197530865,0)" xlink:href="#aw"/></g><g id="B"><use transform="matrix(0.06172839506172839,0,0,0.06172839506172839,0,0)" xlink:href="#aq"/><use transform="matrix(0.06172839506172839,0,0,0.06172839506172839,4.876543209876543,0)" xlink:href="#av"/></g><g id="C"><use transform="matrix(0.06172839506172839,0,0,0.06172839506172839,0,0)" xlink:href="#ao"/><use transform="matrix(0.06172839506172839,0,0,0.06172839506172839,12.345679012345679,0)" xlink:href="#as"/><use transform="matrix(0.06172839506172839,0,0,0.06172839506172839,24.691358024691358,0)" xlink:href="#aD"/><use transform="matrix(0.06172839506172839,0,0,0.06172839506172839,32.03703703703704,0)" xlink:href="#as"/><use transform="matrix(0.06172839506172839,0,0,0.06172839506172839,44.382716049382715,0)" xlink:href="#ap"/><use transform="matrix(0.06172839506172839,0,0,0.06172839506172839,49.25925925925926,0)" xlink:href="#ap"/><use transform="matrix(0.06172839506172839,0,0,0.06172839506172839,54.135802469135804,0)" xlink:href="#ax"/><use transform="matrix(0.06172839506172839,0,0,0.06172839506172839,66.48148148148148,0)" xlink:href="#ap"/></g><path fill="#333" d="M160-131c35 5 61 23 61 61C221 17 115-2 30 0v-248c76 3 177-17 177 60 0 33-19 50-47 57zm-97-11c50-1 110 9 110-42 0-47-63-36-110-37v79zm0 115c55-2 124 14 124-45 0-56-70-42-124-44v89" id="aK"/><path fill="#333" d="M143 0L79-87 56-68V0H24v-261h32v163l83-92h37l-77 82L181 0h-38" id="aL"/><path fill="#333" d="M177-190C167-65 218 103 67 71c-23-6-38-20-44-43l32-5c15 47 100 32 89-28v-30C133-14 115 1 83 1 29 1 15-40 15-95c0-56 16-97 71-98 29-1 48 16 59 35 1-10 0-23 2-32h30zM94-22c36 0 50-32 50-73 0-42-14-75-50-75-39 0-46 34-46 75s6 73 46 73" id="aM"/><g id="D"><use transform="matrix(0.06172839506172839,0,0,0.06172839506172839,0,0)" xlink:href="#aK"/><use transform="matrix(0.06172839506172839,0,0,0.06172839506172839,14.814814814814813,0)" xlink:href="#as"/><use transform="matrix(0.06172839506172839,0,0,0.06172839506172839,27.160493827160494,0)" xlink:href="#ar"/><use transform="matrix(0.06172839506172839,0,0,0.06172839506172839,38.27160493827161,0)" xlink:href="#aL"/><use transform="matrix(0.06172839506172839,0,0,0.06172839506172839,49.38271604938272,0)" xlink:href="#aM"/><use transform="matrix(0.06172839506172839,0,0,0.06172839506172839,61.7283950617284,0)" xlink:href="#aD"/><use transform="matrix(0.06172839506172839,0,0,0.06172839506172839,69.07407407407408,0)" xlink:href="#au"/><use transform="matrix(0.06172839506172839,0,0,0.06172839506172839,81.41975308641976,0)" xlink:href="#aE"/><use transform="matrix(0.06172839506172839,0,0,0.06172839506172839,93.76543209876544,0)" xlink:href="#av"/><use transform="matrix(0.06172839506172839,0,0,0.06172839506172839,106.11111111111113,0)" xlink:href="#ay"/></g><g id="E"><use transform="matrix(0.06172839506172839,0,0,0.06172839506172839,0,0)" xlink:href="#aA"/><use transform="matrix(0.06172839506172839,0,0,0.06172839506172839,15.987654320987653,0)" xlink:href="#aC"/><use transform="matrix(0.06172839506172839,0,0,0.06172839506172839,28.333333333333332,0)" xlink:href="#ax"/><use transform="matrix(0.06172839506172839,0,0,0.06172839506172839,40.67901234567901,0)" xlink:href="#ar"/><use transform="matrix(0.06172839506172839,0,0,0.06172839506172839,51.79012345679013,0)" xlink:href="#aL"/></g><g id="F"><use transform="matrix(0.06172839506172839,0,0,0.06172839506172839,0,0)" xlink:href="#aD"/><use transform="matrix(0.06172839506172839,0,0,0.06172839506172839,7.345679012345679,0)" xlink:href="#ax"/><use transform="matrix(0.06172839506172839,0,0,0.06172839506172839,19.691358024691358,0)" xlink:href="#ao"/><use transform="matrix(0.06172839506172839,0,0,0.06172839506172839,32.03703703703704,0)" xlink:href="#au"/><use transform="matrix(0.06172839506172839,0,0,0.06172839506172839,44.382716049382715,0)" xlink:href="#aD"/><use transform="matrix(0.06172839506172839,0,0,0.06172839506172839,51.72839506172839,0)" xlink:href="#at"/></g><g id="G"><use transform="matrix(0.06172839506172839,0,0,0.06172839506172839,0,0)" xlink:href="#aq"/><use transform="matrix(0.06172839506172839,0,0,0.06172839506172839,4.876543209876543,0)" xlink:href="#aw"/></g><g id="H"><use transform="matrix(0.06172839506172839,0,0,0.06172839506172839,0,0)" xlink:href="#aM"/><use transform="matrix(0.06172839506172839,0,0,0.06172839506172839,12.345679012345679,0)" xlink:href="#ax"/><use transform="matrix(0.06172839506172839,0,0,0.06172839506172839,24.691358024691358,0)" xlink:href="#av"/><use transform="matrix(0.06172839506172839,0,0,0.06172839506172839,37.03703703703704,0)" xlink:href="#ax"/><use transform="matrix(0.06172839506172839,0,0,0.06172839506172839,49.382716049382715,0)" xlink:href="#aD"/><use transform="matrix(0.06172839506172839,0,0,0.06172839506172839,56.72839506172839,0)" xlink:href="#as"/><use transform="matrix(0.06172839506172839,0,0,0.06172839506172839,69.07407407407408,0)" xlink:href="#at"/><use transform="matrix(0.06172839506172839,0,0,0.06172839506172839,75.24691358024691,0)" xlink:href="#ax"/><use transform="matrix(0.06172839506172839,0,0,0.06172839506172839,87.5925925925926,0)" xlink:href="#ay"/></g><g id="I"><use transform="matrix(0.06172839506172839,0,0,0.06172839506172839,0,0)" xlink:href="#an"/><use transform="matrix(0.06172839506172839,0,0,0.06172839506172839,14.814814814814813,0)" xlink:href="#ap"/><use transform="matrix(0.06172839506172839,0,0,0.06172839506172839,19.691358024691354,0)" xlink:href="#ap"/></g><g id="J"><use transform="matrix(0.06172839506172839,0,0,0.06172839506172839,0,0)" xlink:href="#aG"/><use transform="matrix(0.06172839506172839,0,0,0.06172839506172839,14.814814814814813,0)" xlink:href="#ax"/><use transform="matrix(0.06172839506172839,0,0,0.06172839506172839,27.160493827160494,0)" xlink:href="#as"/><use transform="matrix(0.06172839506172839,0,0,0.06172839506172839,39.50617283950617,0)" xlink:href="#aD"/><use transform="matrix(0.06172839506172839,0,0,0.06172839506172839,46.85185185185185,0)" xlink:href="#ar"/><use transform="matrix(0.06172839506172839,0,0,0.06172839506172839,57.96296296296296,0)" xlink:href="#aC"/><use transform="matrix(0.06172839506172839,0,0,0.06172839506172839,70.30864197530865,0)" xlink:href="#ax"/><use transform="matrix(0.06172839506172839,0,0,0.06172839506172839,82.65432098765433,0)" xlink:href="#aw"/></g><g id="K"><use transform="matrix(0.06172839506172839,0,0,0.06172839506172839,0,0)" xlink:href="#ar"/><use transform="matrix(0.06172839506172839,0,0,0.06172839506172839,11.11111111111111,0)" xlink:href="#au"/><use transform="matrix(0.06172839506172839,0,0,0.06172839506172839,23.45679012345679,0)" xlink:href="#az"/><use transform="matrix(0.06172839506172839,0,0,0.06172839506172839,41.91358024691358,0)" xlink:href="#ao"/><use transform="matrix(0.06172839506172839,0,0,0.06172839506172839,54.25925925925926,0)" xlink:href="#ap"/><use transform="matrix(0.06172839506172839,0,0,0.06172839506172839,59.135802469135804,0)" xlink:href="#ax"/><use transform="matrix(0.06172839506172839,0,0,0.06172839506172839,71.48148148148148,0)" xlink:href="#at"/><use transform="matrix(0.06172839506172839,0,0,0.06172839506172839,77.65432098765432,0)" xlink:href="#ax"/></g><g id="L"><use transform="matrix(0.06172839506172839,0,0,0.06172839506172839,0,0)" xlink:href="#an"/><use transform="matrix(0.06172839506172839,0,0,0.06172839506172839,14.814814814814813,0)" xlink:href="#ao"/><use transform="matrix(0.06172839506172839,0,0,0.06172839506172839,27.160493827160494,0)" xlink:href="#ao"/><use transform="matrix(0.06172839506172839,0,0,0.06172839506172839,39.50617283950617,0)" xlink:href="#ap"/><use transform="matrix(0.06172839506172839,0,0,0.06172839506172839,44.382716049382715,0)" xlink:href="#aq"/><use transform="matrix(0.06172839506172839,0,0,0.06172839506172839,49.25925925925926,0)" xlink:href="#ar"/><use transform="matrix(0.06172839506172839,0,0,0.06172839506172839,60.37037037037037,0)" xlink:href="#as"/><use transform="matrix(0.06172839506172839,0,0,0.06172839506172839,72.71604938271605,0)" xlink:href="#at"/><use transform="matrix(0.06172839506172839,0,0,0.06172839506172839,78.88888888888889,0)" xlink:href="#aq"/><use transform="matrix(0.06172839506172839,0,0,0.06172839506172839,83.76543209876543,0)" xlink:href="#au"/><use transform="matrix(0.06172839506172839,0,0,0.06172839506172839,96.11111111111111,0)" xlink:href="#av"/></g><g id="M"><use transform="matrix(0.06172839506172839,0,0,0.06172839506172839,0,0)" xlink:href="#aA"/><use transform="matrix(0.06172839506172839,0,0,0.06172839506172839,15.987654320987653,0)" xlink:href="#as"/><use transform="matrix(0.06172839506172839,0,0,0.06172839506172839,28.333333333333332,0)" xlink:href="#av"/><use transform="matrix(0.06172839506172839,0,0,0.06172839506172839,40.67901234567901,0)" xlink:href="#ay"/><use transform="matrix(0.06172839506172839,0,0,0.06172839506172839,53.02469135802469,0)" xlink:href="#aq"/><use transform="matrix(0.06172839506172839,0,0,0.06172839506172839,57.901234567901234,0)" xlink:href="#ay"/><use transform="matrix(0.06172839506172839,0,0,0.06172839506172839,70.24691358024691,0)" xlink:href="#as"/><use transform="matrix(0.06172839506172839,0,0,0.06172839506172839,82.5925925925926,0)" xlink:href="#at"/><use transform="matrix(0.06172839506172839,0,0,0.06172839506172839,88.76543209876543,0)" xlink:href="#ax"/></g><path fill="#333" d="M233-177c-1 41-23 64-60 70L243 0h-38l-65-103H63V0H30v-248c88 3 205-21 203 71zM63-129c60-2 137 13 137-47 0-61-80-42-137-45v92" id="aN"/><g id="N"><use transform="matrix(0.06172839506172839,0,0,0.06172839506172839,0,0)" xlink:href="#aN"/><use transform="matrix(0.06172839506172839,0,0,0.06172839506172839,15.987654320987653,0)" xlink:href="#ax"/><use transform="matrix(0.06172839506172839,0,0,0.06172839506172839,28.333333333333332,0)" xlink:href="#aw"/><use transform="matrix(0.06172839506172839,0,0,0.06172839506172839,39.44444444444444,0)" xlink:href="#ax"/><use transform="matrix(0.06172839506172839,0,0,0.06172839506172839,51.79012345679012,0)" xlink:href="#as"/><use transform="matrix(0.06172839506172839,0,0,0.06172839506172839,64.1358024691358,0)" xlink:href="#aD"/><use transform="matrix(0.06172839506172839,0,0,0.06172839506172839,71.48148148148148,0)" xlink:href="#ar"/><use transform="matrix(0.06172839506172839,0,0,0.06172839506172839,82.5925925925926,0)" xlink:href="#aC"/><use transform="matrix(0.06172839506172839,0,0,0.06172839506172839,94.93827160493828,0)" xlink:href="#ax"/><use transform="matrix(0.06172839506172839,0,0,0.06172839506172839,107.28395061728396,0)" xlink:href="#aD"/></g><path fill="#333" d="M179-190L93 31C79 59 56 82 12 73V49c39 6 53-20 64-50L1-190h34L92-34l54-156h33" id="aO"/><g id="O"><use transform="matrix(0.06172839506172839,0,0,0.06172839506172839,0,0)" xlink:href="#aA"/><use transform="matrix(0.06172839506172839,0,0,0.06172839506172839,15.987654320987653,0)" xlink:href="#au"/><use transform="matrix(0.06172839506172839,0,0,0.06172839506172839,28.333333333333332,0)" xlink:href="#az"/><use transform="matrix(0.06172839506172839,0,0,0.06172839506172839,46.79012345679012,0)" xlink:href="#ao"/><use transform="matrix(0.06172839506172839,0,0,0.06172839506172839,59.1358024691358,0)" xlink:href="#as"/><use transform="matrix(0.06172839506172839,0,0,0.06172839506172839,71.48148148148148,0)" xlink:href="#av"/><use transform="matrix(0.06172839506172839,0,0,0.06172839506172839,83.82716049382717,0)" xlink:href="#aO"/></g><g id="P"><use transform="matrix(0.06172839506172839,0,0,0.06172839506172839,0,0)" xlink:href="#aA"/><use transform="matrix(0.06172839506172839,0,0,0.06172839506172839,15.987654320987653,0)" xlink:href="#au"/><use transform="matrix(0.06172839506172839,0,0,0.06172839506172839,28.333333333333332,0)" xlink:href="#az"/><use transform="matrix(0.06172839506172839,0,0,0.06172839506172839,46.79012345679012,0)" xlink:href="#ao"/><use transform="matrix(0.06172839506172839,0,0,0.06172839506172839,59.1358024691358,0)" xlink:href="#as"/><use transform="matrix(0.06172839506172839,0,0,0.06172839506172839,71.48148148148148,0)" xlink:href="#av"/><use transform="matrix(0.06172839506172839,0,0,0.06172839506172839,83.82716049382717,0)" xlink:href="#aO"/></g><use transform="matrix(0.06172839506172839,0,0,0.06172839506172839,0,0)" xlink:href="#as" id="Q"/><g id="R"><use transform="matrix(0.06172839506172839,0,0,0.06172839506172839,0,0)" xlink:href="#av"/><use transform="matrix(0.06172839506172839,0,0,0.06172839506172839,12.345679012345679,0)" xlink:href="#ax"/><use transform="matrix(0.06172839506172839,0,0,0.06172839506172839,24.691358024691358,0)" xlink:href="#aB"/></g><g id="S"><use transform="matrix(0.06172839506172839,0,0,0.06172839506172839,0,0)" xlink:href="#aK"/><use transform="matrix(0.06172839506172839,0,0,0.06172839506172839,14.814814814814813,0)" xlink:href="#as"/><use transform="matrix(0.06172839506172839,0,0,0.06172839506172839,27.160493827160494,0)" xlink:href="#ar"/><use transform="matrix(0.06172839506172839,0,0,0.06172839506172839,38.27160493827161,0)" xlink:href="#aL"/><use transform="matrix(0.06172839506172839,0,0,0.06172839506172839,49.38271604938272,0)" xlink:href="#aM"/><use transform="matrix(0.06172839506172839,0,0,0.06172839506172839,61.7283950617284,0)" xlink:href="#aD"/><use transform="matrix(0.06172839506172839,0,0,0.06172839506172839,69.07407407407408,0)" xlink:href="#au"/><use transform="matrix(0.06172839506172839,0,0,0.06172839506172839,81.41975308641976,0)" xlink:href="#aE"/><use transform="matrix(0.06172839506172839,0,0,0.06172839506172839,93.76543209876544,0)" xlink:href="#av"/><use transform="matrix(0.06172839506172839,0,0,0.06172839506172839,106.11111111111113,0)" xlink:href="#ay"/></g><g id="T"><use transform="matrix(0.06172839506172839,0,0,0.06172839506172839,0,0)" xlink:href="#aA"/><use transform="matrix(0.06172839506172839,0,0,0.06172839506172839,15.987654320987653,0)" xlink:href="#aC"/><use transform="matrix(0.06172839506172839,0,0,0.06172839506172839,28.333333333333332,0)" xlink:href="#ax"/><use transform="matrix(0.06172839506172839,0,0,0.06172839506172839,40.67901234567901,0)" xlink:href="#ar"/><use transform="matrix(0.06172839506172839,0,0,0.06172839506172839,51.79012345679013,0)" xlink:href="#aL"/></g><g id="U"><use transform="matrix(0.06172839506172839,0,0,0.06172839506172839,0,0)" xlink:href="#as"/><use transform="matrix(0.06172839506172839,0,0,0.06172839506172839,12.345679012345679,0)" xlink:href="#av"/><use transform="matrix(0.06172839506172839,0,0,0.06172839506172839,24.691358024691358,0)" xlink:href="#ay"/></g><g id="V"><use transform="matrix(0.06172839506172839,0,0,0.06172839506172839,0,0)" xlink:href="#aG"/><use transform="matrix(0.06172839506172839,0,0,0.06172839506172839,14.814814814814813,0)" xlink:href="#ax"/><use transform="matrix(0.06172839506172839,0,0,0.06172839506172839,27.160493827160494,0)" xlink:href="#as"/><use transform="matrix(0.06172839506172839,0,0,0.06172839506172839,39.50617283950617,0)" xlink:href="#aD"/><use transform="matrix(0.06172839506172839,0,0,0.06172839506172839,46.85185185185185,0)" xlink:href="#ar"/><use transform="matrix(0.06172839506172839,0,0,0.06172839506172839,57.96296296296296,0)" xlink:href="#aC"/><use transform="matrix(0.06172839506172839,0,0,0.06172839506172839,70.30864197530865,0)" xlink:href="#ax"/><use transform="matrix(0.06172839506172839,0,0,0.06172839506172839,82.65432098765433,0)" xlink:href="#aw"/><use transform="matrix(0.06172839506172839,0,0,0.06172839506172839,93.76543209876544,0)" xlink:href="#aJ"/></g><g id="W"><use transform="matrix(0.06172839506172839,0,0,0.06172839506172839,0,0)" xlink:href="#aI"/><use transform="matrix(0.06172839506172839,0,0,0.06172839506172839,13.518518518518517,0)" xlink:href="#aC"/><use transform="matrix(0.06172839506172839,0,0,0.06172839506172839,25.864197530864196,0)" xlink:href="#ax"/></g><g id="X"><use transform="matrix(0.06172839506172839,0,0,0.06172839506172839,0,0)" xlink:href="#aF"/><use transform="matrix(0.06172839506172839,0,0,0.06172839506172839,6.172839506172839,0)" xlink:href="#aE"/><use transform="matrix(0.06172839506172839,0,0,0.06172839506172839,18.51851851851852,0)" xlink:href="#ap"/><use transform="matrix(0.06172839506172839,0,0,0.06172839506172839,23.395061728395063,0)" xlink:href="#ap"/></g><g id="Y"><use transform="matrix(0.06172839506172839,0,0,0.06172839506172839,0,0)" xlink:href="#ao"/><use transform="matrix(0.06172839506172839,0,0,0.06172839506172839,12.345679012345679,0)" xlink:href="#as"/><use transform="matrix(0.06172839506172839,0,0,0.06172839506172839,24.691358024691358,0)" xlink:href="#ar"/><use transform="matrix(0.06172839506172839,0,0,0.06172839506172839,35.80246913580247,0)" xlink:href="#aL"/><use transform="matrix(0.06172839506172839,0,0,0.06172839506172839,46.91358024691358,0)" xlink:href="#as"/><use transform="matrix(0.06172839506172839,0,0,0.06172839506172839,59.25925925925926,0)" xlink:href="#aM"/><use transform="matrix(0.06172839506172839,0,0,0.06172839506172839,71.60493827160494,0)" xlink:href="#ax"/></g><g id="Z"><use transform="matrix(0.06172839506172839,0,0,0.06172839506172839,0,0)" xlink:href="#aq"/><use transform="matrix(0.06172839506172839,0,0,0.06172839506172839,4.876543209876543,0)" xlink:href="#av"/><use transform="matrix(0.06172839506172839,0,0,0.06172839506172839,17.22222222222222,0)" xlink:href="#ar"/><use transform="matrix(0.06172839506172839,0,0,0.06172839506172839,28.333333333333332,0)" xlink:href="#ap"/><use transform="matrix(0.06172839506172839,0,0,0.06172839506172839,33.20987654320987,0)" xlink:href="#aE"/><use transform="matrix(0.06172839506172839,0,0,0.06172839506172839,45.55555555555555,0)" xlink:href="#ay"/><use transform="matrix(0.06172839506172839,0,0,0.06172839506172839,57.90123456790123,0)" xlink:href="#ax"/><use transform="matrix(0.06172839506172839,0,0,0.06172839506172839,70.24691358024691,0)" xlink:href="#aw"/></g><g id="aa"><use transform="matrix(0.06172839506172839,0,0,0.06172839506172839,0,0)" xlink:href="#at"/><use transform="matrix(0.06172839506172839,0,0,0.06172839506172839,6.172839506172839,0)" xlink:href="#aC"/><use transform="matrix(0.06172839506172839,0,0,0.06172839506172839,18.51851851851852,0)" xlink:href="#ax"/></g><g id="ab"><use transform="matrix(0.06172839506172839,0,0,0.06172839506172839,0,0)" xlink:href="#as"/><use transform="matrix(0.06172839506172839,0,0,0.06172839506172839,12.345679012345679,0)" xlink:href="#ao"/><use transform="matrix(0.06172839506172839,0,0,0.06172839506172839,24.691358024691358,0)" xlink:href="#ao"/><use transform="matrix(0.06172839506172839,0,0,0.06172839506172839,37.03703703703704,0)" xlink:href="#ap"/><use transform="matrix(0.06172839506172839,0,0,0.06172839506172839,41.91358024691358,0)" xlink:href="#aq"/><use transform="matrix(0.06172839506172839,0,0,0.06172839506172839,46.79012345679013,0)" xlink:href="#ar"/><use transform="matrix(0.06172839506172839,0,0,0.06172839506172839,57.90123456790124,0)" xlink:href="#as"/><use transform="matrix(0.06172839506172839,0,0,0.06172839506172839,70.24691358024693,0)" xlink:href="#at"/><use transform="matrix(0.06172839506172839,0,0,0.06172839506172839,76.41975308641976,0)" xlink:href="#aq"/><use transform="matrix(0.06172839506172839,0,0,0.06172839506172839,81.2962962962963,0)" xlink:href="#au"/><use transform="matrix(0.06172839506172839,0,0,0.06172839506172839,93.64197530864199,0)" xlink:href="#av"/></g><g id="ac"><use transform="matrix(0.06172839506172839,0,0,0.06172839506172839,0,0)" xlink:href="#aw"/><use transform="matrix(0.06172839506172839,0,0,0.06172839506172839,11.11111111111111,0)" xlink:href="#ax"/><use transform="matrix(0.06172839506172839,0,0,0.06172839506172839,23.45679012345679,0)" xlink:href="#av"/><use transform="matrix(0.06172839506172839,0,0,0.06172839506172839,35.80246913580247,0)" xlink:href="#ay"/><use transform="matrix(0.06172839506172839,0,0,0.06172839506172839,48.148148148148145,0)" xlink:href="#aq"/><use transform="matrix(0.06172839506172839,0,0,0.06172839506172839,53.02469135802469,0)" xlink:href="#av"/><use transform="matrix(0.06172839506172839,0,0,0.06172839506172839,65.37037037037037,0)" xlink:href="#aM"/></g><g id="ad"><use transform="matrix(0.06172839506172839,0,0,0.06172839506172839,0,0)" xlink:href="#as"/><use transform="matrix(0.06172839506172839,0,0,0.06172839506172839,12.345679012345679,0)" xlink:href="#av"/></g><g id="ae"><use transform="matrix(0.06172839506172839,0,0,0.06172839506172839,0,0)" xlink:href="#aN"/><use transform="matrix(0.06172839506172839,0,0,0.06172839506172839,15.987654320987653,0)" xlink:href="#ax"/><use transform="matrix(0.06172839506172839,0,0,0.06172839506172839,28.333333333333332,0)" xlink:href="#aw"/><use transform="matrix(0.06172839506172839,0,0,0.06172839506172839,39.44444444444444,0)" xlink:href="#ax"/><use transform="matrix(0.06172839506172839,0,0,0.06172839506172839,51.79012345679012,0)" xlink:href="#as"/><use transform="matrix(0.06172839506172839,0,0,0.06172839506172839,64.1358024691358,0)" xlink:href="#aD"/><use transform="matrix(0.06172839506172839,0,0,0.06172839506172839,71.48148148148148,0)" xlink:href="#ar"/><use transform="matrix(0.06172839506172839,0,0,0.06172839506172839,82.5925925925926,0)" xlink:href="#aC"/><use transform="matrix(0.06172839506172839,0,0,0.06172839506172839,94.93827160493828,0)" xlink:href="#ax"/><use transform="matrix(0.06172839506172839,0,0,0.06172839506172839,107.28395061728396,0)" xlink:href="#aD"/></g><path fill="#333" d="M108 0H70L1-190h34L89-25l56-165h34" id="aP"/><g id="af"><use transform="matrix(0.06172839506172839,0,0,0.06172839506172839,0,0)" xlink:href="#aP"/><use transform="matrix(0.06172839506172839,0,0,0.06172839506172839,11.11111111111111,0)" xlink:href="#ax"/><use transform="matrix(0.06172839506172839,0,0,0.06172839506172839,23.45679012345679,0)" xlink:href="#aD"/><use transform="matrix(0.06172839506172839,0,0,0.06172839506172839,30.80246913580247,0)" xlink:href="#aq"/><use transform="matrix(0.06172839506172839,0,0,0.06172839506172839,35.67901234567901,0)" xlink:href="#aF"/><use transform="matrix(0.06172839506172839,0,0,0.06172839506172839,41.851851851851855,0)" xlink:href="#aO"/></g><g id="ag"><use transform="matrix(0.06172839506172839,0,0,0.06172839506172839,0,0)" xlink:href="#ax"/><use transform="matrix(0.06172839506172839,0,0,0.06172839506172839,12.345679012345679,0)" xlink:href="#az"/><use transform="matrix(0.06172839506172839,0,0,0.06172839506172839,30.80246913580247,0)" xlink:href="#ao"/><use transform="matrix(0.06172839506172839,0,0,0.06172839506172839,43.148148148148145,0)" xlink:href="#ap"/><use transform="matrix(0.06172839506172839,0,0,0.06172839506172839,48.02469135802469,0)" xlink:href="#au"/><use transform="matrix(0.06172839506172839,0,0,0.06172839506172839,60.37037037037037,0)" xlink:href="#aO"/><use transform="matrix(0.06172839506172839,0,0,0.06172839506172839,71.48148148148148,0)" xlink:href="#az"/><use transform="matrix(0.06172839506172839,0,0,0.06172839506172839,89.93827160493827,0)" xlink:href="#ax"/><use transform="matrix(0.06172839506172839,0,0,0.06172839506172839,102.28395061728395,0)" xlink:href="#av"/><use transform="matrix(0.06172839506172839,0,0,0.06172839506172839,114.62962962962963,0)" xlink:href="#at"/></g><g id="ah"><use transform="matrix(0.06172839506172839,0,0,0.06172839506172839,0,0)" xlink:href="#aD"/><use transform="matrix(0.06172839506172839,0,0,0.06172839506172839,7.345679012345679,0)" xlink:href="#ax"/><use transform="matrix(0.06172839506172839,0,0,0.06172839506172839,19.691358024691358,0)" xlink:href="#ar"/><use transform="matrix(0.06172839506172839,0,0,0.06172839506172839,30.80246913580247,0)" xlink:href="#ax"/><use transform="matrix(0.06172839506172839,0,0,0.06172839506172839,43.148148148148145,0)" xlink:href="#aq"/><use transform="matrix(0.06172839506172839,0,0,0.06172839506172839,48.02469135802469,0)" xlink:href="#aP"/><use transform="matrix(0.06172839506172839,0,0,0.06172839506172839,59.1358024691358,0)" xlink:href="#ax"/><use transform="matrix(0.06172839506172839,0,0,0.06172839506172839,71.48148148148148,0)" xlink:href="#aw"/></g><g id="ai"><use transform="matrix(0.06172839506172839,0,0,0.06172839506172839,0,0)" xlink:href="#aD"/><use transform="matrix(0.06172839506172839,0,0,0.06172839506172839,7.345679012345679,0)" xlink:href="#ax"/><use transform="matrix(0.06172839506172839,0,0,0.06172839506172839,19.691358024691358,0)" xlink:href="#ao"/><use transform="matrix(0.06172839506172839,0,0,0.06172839506172839,32.03703703703704,0)" xlink:href="#au"/><use transform="matrix(0.06172839506172839,0,0,0.06172839506172839,44.382716049382715,0)" xlink:href="#aD"/><use transform="matrix(0.06172839506172839,0,0,0.06172839506172839,51.72839506172839,0)" xlink:href="#at"/></g><g id="aj"><use transform="matrix(0.06172839506172839,0,0,0.06172839506172839,0,0)" xlink:href="#ax"/><use transform="matrix(0.06172839506172839,0,0,0.06172839506172839,12.345679012345679,0)" xlink:href="#az"/><use transform="matrix(0.06172839506172839,0,0,0.06172839506172839,30.80246913580247,0)" xlink:href="#as"/><use transform="matrix(0.06172839506172839,0,0,0.06172839506172839,43.148148148148145,0)" xlink:href="#aq"/><use transform="matrix(0.06172839506172839,0,0,0.06172839506172839,48.02469135802469,0)" xlink:href="#ap"/><use transform="matrix(0.06172839506172839,0,0,0.06172839506172839,52.901234567901234,0)" xlink:href="#aw"/></g><g id="ak"><use transform="matrix(0.06172839506172839,0,0,0.06172839506172839,0,0)" xlink:href="#aA"/><use transform="matrix(0.06172839506172839,0,0,0.06172839506172839,15.987654320987653,0)" xlink:href="#au"/><use transform="matrix(0.06172839506172839,0,0,0.06172839506172839,28.333333333333332,0)" xlink:href="#az"/><use transform="matrix(0.06172839506172839,0,0,0.06172839506172839,46.79012345679012,0)" xlink:href="#ao"/><use transform="matrix(0.06172839506172839,0,0,0.06172839506172839,59.1358024691358,0)" xlink:href="#as"/><use transform="matrix(0.06172839506172839,0,0,0.06172839506172839,71.48148148148148,0)" xlink:href="#av"/><use transform="matrix(0.06172839506172839,0,0,0.06172839506172839,83.82716049382717,0)" xlink:href="#aO"/></g><g id="al"><use transform="matrix(0.06172839506172839,0,0,0.06172839506172839,0,0)" xlink:href="#aN"/><use transform="matrix(0.06172839506172839,0,0,0.06172839506172839,15.987654320987653,0)" xlink:href="#ax"/><use transform="matrix(0.06172839506172839,0,0,0.06172839506172839,28.333333333333332,0)" xlink:href="#aw"/><use transform="matrix(0.06172839506172839,0,0,0.06172839506172839,39.44444444444444,0)" xlink:href="#ax"/><use transform="matrix(0.06172839506172839,0,0,0.06172839506172839,51.79012345679012,0)" xlink:href="#as"/><use transform="matrix(0.06172839506172839,0,0,0.06172839506172839,64.1358024691358,0)" xlink:href="#ar"/><use transform="matrix(0.06172839506172839,0,0,0.06172839506172839,75.24691358024691,0)" xlink:href="#aC"/><use transform="matrix(0.06172839506172839,0,0,0.06172839506172839,87.5925925925926,0)" xlink:href="#ax"/><use transform="matrix(0.06172839506172839,0,0,0.06172839506172839,99.93827160493828,0)" xlink:href="#aD"/></g><g id="am"><use transform="matrix(0.06172839506172839,0,0,0.06172839506172839,0,0)" xlink:href="#aP"/><use transform="matrix(0.06172839506172839,0,0,0.06172839506172839,11.11111111111111,0)" xlink:href="#ax"/><use transform="matrix(0.06172839506172839,0,0,0.06172839506172839,23.45679012345679,0)" xlink:href="#aD"/><use transform="matrix(0.06172839506172839,0,0,0.06172839506172839,30.80246913580247,0)" xlink:href="#aq"/><use transform="matrix(0.06172839506172839,0,0,0.06172839506172839,35.67901234567901,0)" xlink:href="#aF"/><use transform="matrix(0.06172839506172839,0,0,0.06172839506172839,41.851851851851855,0)" xlink:href="#aq"/><use transform="matrix(0.06172839506172839,0,0,0.06172839506172839,46.7283950617284,0)" xlink:href="#ax"/><use transform="matrix(0.06172839506172839,0,0,0.06172839506172839,59.074074074074076,0)" xlink:href="#aw"/></g></defs></g></svg>