<svg width="21" height="24" viewBox="0 0 21 24" fill="none" xmlns="http://www.w3.org/2000/svg">
<path d="M0 3C0 1.35938 1.3125 0 3 0H20.25H21V0.75V18.75V19.5H20.25H19.5V22.5H20.25H21V24H20.25H3C1.3125 24 0 22.6875 0 21V3ZM3 19.5C2.15625 19.5 1.5 20.2031 1.5 21C1.5 21.8438 2.15625 22.5 3 22.5H18V19.5H3ZM1.5 18.4219C1.92188 18.1875 2.4375 18 3 18H4.5V1.5H3C2.15625 1.5 1.5 2.20312 1.5 3V18.4219ZM6 1.5V18H19.5V1.5H6ZM8.25 6H9H16.5H17.25V7.5H16.5H9H8.25V6ZM8.25 10.5H9H16.5H17.25V12H16.5H9H8.25V10.5Z" fill="#1a1a1a"/>
</svg>
