<svg width="23" height="17" viewBox="0 0 23 17" fill="none" xmlns="http://www.w3.org/2000/svg">
<path d="M19.375 8.39062V7.75781V7.44141C19.375 5.40234 17.7227 3.78516 15.7188 3.78516C15.2266 3.78516 14.7695 3.85547 14.3828 4.03125L13.5039 4.34766L13.0117 3.57422C12.2031 2.34375 10.832 1.5 9.25 1.5C6.75391 1.5 4.75 3.53906 4.75 6V6.31641V7.08984L3.97656 7.37109C2.46484 7.89844 1.375 9.375 1.375 11.0625V15H5.3125H18.25H21.625V11.625C21.625 10.3945 20.9219 9.30469 19.9375 8.70703L19.375 8.39062ZM3.625 6.31641V6C3.625 2.90625 6.12109 0.375 9.25 0.375C11.2188 0.375 12.9766 1.42969 13.9609 2.97656C14.4883 2.76562 15.0859 2.625 15.7188 2.625C18.3555 2.625 20.5 4.76953 20.5 7.40625V7.75781C21.8359 8.53125 22.75 9.97266 22.75 11.625V15V16.125H21.625H18.25H5.3125H1.375H0.25V15V11.0625C0.25 8.88281 1.65625 6.98438 3.625 6.31641Z" fill="url(#paint0_linear_1336_16885)"/>
<defs>
<linearGradient id="paint0_linear_1336_16885" x1="23" y1="-0.999998" x2="-3.09972" y2="7.68673" gradientUnits="userSpaceOnUse">
<stop stop-color="#1FF1A5"/>
<stop offset="1" stop-color="#C3FF62"/>
</linearGradient>
</defs>
</svg>
