<svg width="24" height="24" viewBox="0 0 24 24" fill="none" xmlns="http://www.w3.org/2000/svg">
<path d="M6.4 10.6922C5.0025 11.1562 4 12.4055 4 13.875V16.125V17.25H5.2H7.6H16.8H18.8H20V16.125V14.25C20 12.8531 18.98 11.6766 17.6 11.3438V10.875C17.6 9.21797 16.1675 7.875 14.4 7.875C14.0525 7.875 13.7175 7.92656 13.4025 8.02266C12.67 7.24219 11.5975 6.75 10.4 6.75C8.19 6.75 6.4 8.42812 6.4 10.5V10.6922ZM18.8 16.125H16.8H7.6H5.2V13.875C5.2 12.8977 5.865 12.0633 6.8 11.7539L7.6 11.4891V10.6922V10.5C7.6 9.04922 8.8525 7.875 10.4 7.875C11.2375 7.875 11.9875 8.21719 12.5025 8.76562L13.025 9.32344L13.7775 9.09375C13.9725 9.03516 14.18 9.00234 14.4 9.00234C15.505 9.00234 16.4 9.84141 16.4 10.8773V11.3461V12.218L17.3 12.4359C18.1625 12.6445 18.8 13.3805 18.8 14.2523V16.1273V16.125Z" fill="url(#paint0_linear_1686_258)"/>
<defs>
<linearGradient id="paint0_linear_1686_258" x1="20" y1="6.75" x2="2.5772" y2="13.6653" gradientUnits="userSpaceOnUse">
<stop stop-color="#1FF1A5"/>
<stop offset="1" stop-color="#C3FF62"/>
</linearGradient>
</defs>
</svg>
