<svg fill="none" height="11" viewBox="0 0 16 11" width="16" xmlns="http://www.w3.org/2000/svg"><path d="m2.4 3.94219c-1.3975.46406-2.4 1.71328-2.4 3.18281v2.25 1.125h1.2 2.4 9.2 2 1.2v-1.125-1.875c0-1.39687-1.02-2.57344-2.4-2.90625v-.46875c0-1.65703-1.4325-3-3.2-3-.3475 0-.6825.05156-.9975.14766-.7325-.780472-1.805-1.27266-3.0025-1.27266-2.21 0-4 1.67812-4 3.75zm12.4 5.43281h-2-9.2-2.4v-2.25c0-.97734.665-1.81172 1.6-2.12109l.8-.26485v-.79687-.19219c0-1.45078 1.2525-2.625 2.8-2.625.8375 0 1.5875.34219 2.1025.89062l.5225.55782.7525-.22969c.195-.05859.4025-.09141.6225-.09141 1.105 0 2 .83907 2 1.875v.46875.87188l.9.21797c.8625.20859 1.5.94453 1.5 1.8164v1.875z" fill="#30b761"/></svg>