<svg width="24" height="24" viewBox="0 0 24 24" fill="none" xmlns="http://www.w3.org/2000/svg">
<path d="M13.4126 5.54565L13.2301 6.12456L9.63006 17.4996L9.44756 18.0785L10.5901 18.4517L10.7726 17.8728L14.3726 6.4978L14.5551 5.9189L13.4126 5.54565ZM14.9526 8.98101L15.3901 9.39741L18.1226 12L15.3901 14.6025L14.9526 15.0189L15.7726 15.9076L16.2101 15.4912L19.4101 12.4443L19.8776 12L19.4101 11.5556L16.2101 8.50874L15.7726 8.09233L14.9526 8.98101ZM8.22756 8.09233L7.79006 8.50874L4.59006 11.5556L4.12256 12L4.59006 12.4443L7.79006 15.4912L8.22756 15.9076L9.04756 15.0189L8.61006 14.6025L5.87756 12L8.61006 9.39741L9.04756 8.98101L8.22756 8.09233Z" fill="#30B761"/>
</svg>
