<svg fill="none" height="13" viewBox="0 0 16 13" width="16" xmlns="http://www.w3.org/2000/svg"><path d="m9.29 0-.1825.578906-3.6 11.374994-.1825.5789 1.1425.3733.1825-.579 3.6-11.374952.1825-.578906zm1.54 3.43535.4375.41641 2.7325 2.60254-2.7325 2.60254-.4375.4164.82.88866.4375-.41639 3.2-3.04688.4675-.44433-.4675-.44434-3.2-3.04687-.4375-.41641zm-6.725-.88867-.4375.41641-3.2 3.04687-.4675.44434.4675.44433 3.2 3.04688.4375.41639.82-.88866-.4375-.4164-2.7325-2.60254 2.7325-2.60254.4375-.41641z" fill="#30b761"/></svg>