<svg width="23" height="19" viewBox="0 0 23 19" fill="none" xmlns="http://www.w3.org/2000/svg">
<path d="M13.6445 0.390625L14.7344 0.742188L14.5586 1.26953L9.49609 17.582L9.32031 18.1094L8.26562 17.793L8.40625 17.2656L13.4688 0.953125L13.6445 0.390625ZM5.875 3.97656L6.64844 4.78516L6.26172 5.17188L1.90234 9.25L6.22656 13.3633L6.64844 13.75L5.875 14.5586L5.48828 14.1719L0.707031 9.67188L0.25 9.25L0.707031 8.86328L5.48828 4.36328L5.875 3.97656ZM16.3164 4.82031L17.0547 3.97656L17.4766 4.32812C18.4961 5.24219 19.1992 5.91016 19.9023 6.61328C20.6055 7.28125 21.2734 7.98438 22.2578 8.82812L22.7148 9.25L22.2578 9.67188L17.4766 14.1719L17.0898 14.5586L16.3164 13.75L16.7383 13.3633L21.0625 9.28516C20.2891 8.58203 19.6914 7.98438 19.0938 7.42188C18.3906 6.71875 17.7227 6.05078 16.7383 5.17188L16.3164 4.82031Z" fill="#1a1a1a"/>
</svg>
