<svg width="24" height="17" viewBox="0 0 24 17" fill="none" xmlns="http://www.w3.org/2000/svg">
<path d="M23.25 5.4375L22.793 5.61328L22.3008 5.78906L12 9.375L5.17969 7.01953L3.5625 8.49609V11.4492C4.08984 12.3281 4.51172 13.875 3.5625 16.125L0.75 15.5625C0.75 15.5625 1.875 13.9453 2.4375 12.1875V8.25V8.00391L2.61328 7.86328L3.98438 6.59766L1.66406 5.78906L1.17188 5.61328L0.75 5.4375V4.3125L1.17188 4.17188L1.69922 3.99609L12 0.375L22.3008 3.99609L22.793 4.17188L23.25 4.3125V5.4375ZM12 7.61719L19.7344 4.875L12 2.16797L4.23047 4.875L5.70703 5.40234L11.7891 3.11719L12.1758 4.17188L7.35938 6L12 7.61719ZM5.77734 8.42578L7.42969 8.98828L6.97266 13.3125C7.14844 13.4531 7.42969 13.5938 7.81641 13.7695C8.83594 14.1562 10.3125 14.4375 12 14.4375C13.6875 14.4375 15.1641 14.1562 16.1484 13.7695C16.5703 13.5938 16.8516 13.4531 16.9922 13.3125L16.5352 8.98828L18.1875 8.42578L18.75 13.5938C18.75 14.8594 15.7266 16.125 12 16.125C8.27344 16.125 5.25 14.8594 5.25 13.5938L5.77734 8.42578ZM17.168 13.1719C17.168 13.1719 17.168 13.1367 17.1328 13.1367V13.1719C17.1328 13.1719 17.1328 13.1719 17.1328 13.207C17.168 13.207 17.168 13.207 17.168 13.1719ZM6.79688 13.1719C6.79688 13.207 6.79688 13.207 6.83203 13.207C6.86719 13.1719 6.86719 13.1719 6.83203 13.1719V13.1367C6.79688 13.1367 6.79688 13.1367 6.79688 13.1719Z" fill="url(#paint0_linear_1336_16931)"/>
<defs>
<linearGradient id="paint0_linear_1336_16931" x1="107" y1="-10" x2="52.0682" y2="90.6883" gradientUnits="userSpaceOnUse">
<stop stop-color="#1FF1A5"/>
<stop offset="1" stop-color="#C3FF62"/>
</linearGradient>
</defs>
</svg>
