<svg fill="none" height="16" viewBox="0 0 23 16" width="23" xmlns="http://www.w3.org/2000/svg" xmlns:xlink="http://www.w3.org/1999/xlink"><linearGradient id="a" gradientUnits="userSpaceOnUse" x1="148.75" x2="105.628" y1="-10.375" y2="104.028"><stop offset="0" stop-color="#1ff1a5"/><stop offset="1" stop-color="#c3ff62"/></linearGradient><path d="m11.25 9-6.82031-2.35547-1.61719 1.47656v3.23441c.52734.914.87891 2.3554 0 4.3945l-1.6875-.3164-1.125-.2461s.175781-.3867.457031-1.0547.632809-1.6523.914059-2.7773c.10547-.3867.21094-.8086.31641-1.2305v-2.25-.24609l.17578-.14063 1.3711-1.26562-3.23438-1.16016v-1.125l11.25-3.9375 11.25 3.9375v1.125zm-9.45703-4.5 2.35547.84375.03515-.03516.10547-.03515 6.75004-2.53125.3867 1.05469-5.62502 2.10937 5.44922 1.93359 9.4219-3.33984-9.4219-3.30469zm3.23437 3.55078 1.08985.35156-.49219 4.78126c.03516.0352.07031.0703.14062.1055.21094.2109.5625.4218 1.08985.6328 1.08984.4219 2.63672.7031 4.39453.7031 1.7227 0 3.2695-.2812 4.3594-.7031.5273-.211.8789-.4219 1.0898-.5977.0703-.0703.1055-.1054.1406-.1406l-.4921-4.7461 1.0898-.38672.5625 5.16802c0 1.2656-3.0234 2.5312-6.75 2.5312-3.72656 0-6.75-1.2656-6.75-2.5312zm11.84766 5.06252v.0351zm-11.28516 0v.0351s0 0 0-.0351zm-3.51562 1.3711c.17578-.7032.17578-1.2656.07031-1.7227-.14062.5274-.31641.9844-.49219 1.3711 0 .0703-.03515.1758-.07031.2461z" fill="url(#a)"/></svg>