<svg width="24" height="24" viewBox="0 0 24 24" fill="none" xmlns="http://www.w3.org/2000/svg">
<path d="M3.21094 13.5508L2.57812 15.168L6.09375 14.3594L6.33984 14.3242L6.55078 14.3594C7.04297 14.4648 7.53516 14.5 8.0625 14.5C11.6484 14.5 14.25 12.0742 14.25 9.4375C14.25 6.83594 11.6484 4.375 8.0625 4.375C4.44141 4.375 1.875 6.83594 1.875 9.4375C1.875 10.5273 2.26172 11.5469 3.03516 12.3906L3.49219 12.918L3.21094 13.5508ZM0.75 16.75L1.24219 15.4844L2.19141 13.1641C1.27734 12.1094 0.75 10.8438 0.75 9.4375C0.75 6.02734 4.01953 3.25 8.0625 3.25C12.0703 3.25 15.375 6.02734 15.375 9.4375C15.375 12.8828 12.0703 15.625 8.0625 15.625C7.46484 15.625 6.90234 15.5898 6.33984 15.4844L2.08594 16.4688L0.75 16.75ZM15.9375 20.125C13.0547 20.125 10.5586 18.7188 9.36328 16.6797C9.75 16.6445 10.1367 16.5391 10.5234 16.4336C11.5781 17.9453 13.5117 19.0352 15.9023 19.0352C16.4297 19.0352 16.9219 18.9648 17.4141 18.8594L17.625 18.8242L17.8711 18.8945L21.3867 19.7031L20.7539 18.0859L20.4727 17.418L20.9297 16.8906C21.7031 16.0469 22.125 15.0273 22.125 13.9375C22.125 11.4766 19.7695 9.12109 16.4648 8.91016C16.4297 8.52344 16.3594 8.13672 16.2539 7.78516C20.1562 7.92578 23.25 10.6328 23.25 13.9375C23.25 15.3438 22.6875 16.6094 21.7734 17.6641L22.7227 19.9844L23.25 21.25L21.9141 20.9688L17.625 19.9844C17.0625 20.0898 16.5 20.125 15.9375 20.125Z" fill="#30B761"/>
</svg>
