<svg width="24" height="24" viewBox="0 0 24 24" fill="none" xmlns="http://www.w3.org/2000/svg">
<path d="M12 13.375L5.17969 11.0195L3.5625 12.4961V15.7305C4.08984 16.6445 4.44141 18.0859 3.5625 20.125L1.875 19.8086L0.75 19.5625C0.75 19.5625 0.925781 19.1758 1.20703 18.5078C1.48828 17.8398 1.83984 16.8555 2.12109 15.7305C2.22656 15.3438 2.33203 14.9219 2.4375 14.5V12.25V12.0039L2.61328 11.8633L3.98438 10.5977L0.75 9.4375V8.3125L12 4.375L23.25 8.3125V9.4375L12 13.375ZM2.54297 8.875L4.89844 9.71875L4.93359 9.68359L5.03906 9.64844L11.7891 7.11719L12.1758 8.17188L6.55078 10.2812L12 12.2148L21.4219 8.875L12 5.57031L2.54297 8.875ZM5.77734 12.4258L6.86719 12.7773L6.375 17.5586C6.41016 17.5938 6.44531 17.6289 6.51562 17.6641C6.72656 17.875 7.07812 18.0859 7.60547 18.2969C8.69531 18.7188 10.2422 19 12 19C13.7227 19 15.2695 18.7188 16.3594 18.2969C16.8867 18.0859 17.2383 17.875 17.4492 17.6992C17.5195 17.6289 17.5547 17.5938 17.5898 17.5586L17.0977 12.8125L18.1875 12.4258L18.75 17.5938C18.75 18.8594 15.7266 20.125 12 20.125C8.27344 20.125 5.25 18.8594 5.25 17.5938L5.77734 12.4258ZM17.625 17.4883C17.625 17.5234 17.625 17.5234 17.625 17.5234V17.4883ZM6.33984 17.4883C6.33984 17.5234 6.33984 17.5234 6.33984 17.5234C6.33984 17.5234 6.33984 17.5234 6.33984 17.4883ZM2.82422 18.8594C3 18.1562 3 17.5938 2.89453 17.1367C2.75391 17.6641 2.57812 18.1211 2.40234 18.5078C2.40234 18.5781 2.36719 18.6836 2.33203 18.7539L2.82422 18.8594Z" fill="url(#paint0_linear_1686_278)"/>
<defs>
<linearGradient id="paint0_linear_1686_278" x1="24" y1="2.74597e-06" x2="-4.32933" y2="7.37907" gradientUnits="userSpaceOnUse">
<stop stop-color="#1FF1A5"/>
<stop offset="1" stop-color="#C3FF62"/>
</linearGradient>
</defs>
</svg>
