<svg width="24" height="19" viewBox="0 0 24 19" fill="none" xmlns="http://www.w3.org/2000/svg">
<path d="M3.73828 10.7617L3.49219 11.3945L5.95312 10.832L6.30469 10.7266L6.69141 10.832C7.11328 10.9023 7.57031 10.9375 8.0625 10.9375C11.4375 10.9375 13.6875 8.6875 13.6875 6.4375C13.6875 4.22266 11.4375 1.9375 8.0625 1.9375C4.65234 1.9375 2.4375 4.22266 2.4375 6.4375C2.4375 7.38672 2.78906 8.26562 3.45703 9.03906L4.125 9.8125L3.73828 10.7617ZM0.75 13.75L1.48828 11.8516L2.19141 10.1641C1.27734 9.10938 0.75 7.84375 0.75 6.4375C0.75 3.02734 4.01953 0.25 8.0625 0.25C12.0703 0.25 15.375 3.02734 15.375 6.4375C15.375 9.88281 12.1055 12.625 8.0625 12.625C7.46484 12.625 6.90234 12.5898 6.33984 12.4844L2.75391 13.293L0.75 13.75ZM15.9375 17.125C13.0547 17.125 10.5586 15.7188 9.36328 13.6797C9.96094 13.6094 10.5586 13.4688 11.1211 13.2578C12.0703 14.5234 13.7578 15.4375 15.9375 15.4375C16.3945 15.4375 16.8516 15.4023 17.3086 15.332L17.6602 15.2617L18.0117 15.332L20.4727 15.8945L20.2266 15.2617L19.8398 14.3125L20.5078 13.5391C21.1758 12.7656 21.5625 11.8867 21.5625 10.9375C21.5625 8.86328 19.5586 6.71875 16.5 6.47266V6.4375C16.5 5.875 16.3945 5.3125 16.2539 4.78516C20.1562 4.92578 23.25 7.63281 23.25 10.9375C23.25 12.3438 22.6875 13.6094 21.7734 14.6641L22.4766 16.3516L23.25 18.25L21.2461 17.793L17.625 16.9844C17.0625 17.0898 16.5 17.125 15.9375 17.125Z" fill="url(#paint0_linear_1336_16789)"/>
<defs>
<linearGradient id="paint0_linear_1336_16789" x1="107" y1="-9" x2="52.0682" y2="91.6883" gradientUnits="userSpaceOnUse">
<stop stop-color="#1FF1A5"/>
<stop offset="1" stop-color="#C3FF62"/>
</linearGradient>
</defs>
</svg>
