<svg fill="none" height="18" viewBox="0 0 23 18" width="23" xmlns="http://www.w3.org/2000/svg" xmlns:xlink="http://www.w3.org/1999/xlink"><linearGradient id="a" gradientUnits="userSpaceOnUse" x1="148.75" x2="105.628" y1="-9.25" y2="105.153"><stop offset="0" stop-color="#1ff1a5"/><stop offset="1" stop-color="#c3ff62"/></linearGradient><path d="m2.46094 10.3008-.63282 1.6172 3.51563-.8086.24609-.0352.21094.0352c.49219.1054.98438.1406 1.51172.1406 3.5859 0 6.1875-2.42578 6.1875-5.0625 0-2.60156-2.6016-5.0625-6.1875-5.0625-3.62109 0-6.1875 2.46094-6.1875 5.0625 0 1.08984.38672 2.10938 1.16016 2.95312l.45703.52735zm-2.46094 3.1992.492188-1.2656.949222-2.32034c-.914066-1.05468-1.44141-2.32031-1.44141-3.72656 0-3.41016 3.26953-6.1875 7.3125-6.1875 4.0078 0 7.3125 2.77734 7.3125 6.1875 0 3.44531-3.3047 6.1875-7.3125 6.1875-.59766 0-1.16016-.0352-1.72266-.1406l-4.2539.9844zm15.1875 3.375c-2.8828 0-5.37891-1.4062-6.57422-3.4453.38672-.0352.77344-.1406 1.16016-.2461 1.05466 1.5117 2.98826 2.6016 5.37886 2.6016.5274 0 1.0196-.0704 1.5118-.1758l.2109-.0352.2461.0703 3.5156.8086-.6328-1.6172-.2812-.6679.457-.5274c.7734-.8437 1.1953-1.8633 1.1953-2.9531 0-2.46094-2.3555-4.81641-5.6602-5.02734-.0351-.38672-.1054-.77344-.2109-1.125 3.9023.14062 6.9961 2.84765 6.9961 6.15234 0 1.4063-.5625 2.6719-1.4766 3.7266l.9493 2.3203.5273 1.2656-1.3359-.2812-4.2891-.9844c-.5625.1054-1.125.1406-1.6875.1406z" fill="url(#a)"/></svg>