<svg width="24" height="24" viewBox="0 0 24 24" fill="none" xmlns="http://www.w3.org/2000/svg">
<path d="M16.0312 13.7351V17.1948V17.5065L15.7506 17.6623L11.761 19.6571L11.0442 20V19.1896V16.1974C10.2338 16.5403 9.70389 16.7584 9.70389 16.7584L7.17922 14.2338C7.17922 14.2338 7.3974 13.7351 7.74026 12.9558H4.81039H4L4.34286 12.239L6.33766 8.24936L6.49351 7.96884H6.80519H10.2961C10.3584 7.84416 10.4208 7.75065 10.5143 7.62598C13.2883 3.5117 17.5584 3.76105 19.7091 4.29092C20.239 6.44156 20.4883 10.7117 16.374 13.4857C16.2493 13.5792 16.1558 13.6416 16.0312 13.7351ZM15.0338 14.2961C14.0675 14.826 12.9766 15.3247 12.0416 15.761V18.4104L15.0338 16.9143V14.2961ZM8.20779 11.9584C8.64415 11.0234 9.17402 9.93247 9.70389 8.96624H7.08571L5.58961 11.9584H8.20779ZM8.36363 14.0156L9.92208 15.574L10.0468 15.5429C10.5143 15.3558 11.1377 15.0753 11.8234 14.7636C13.226 14.1091 14.8156 13.3299 15.813 12.6753C19.0545 10.4623 19.2416 7.18962 18.8675 5.13247C16.8104 4.75845 13.5377 4.91429 11.3247 8.18702C10.6701 9.18442 9.85974 10.774 9.20519 12.1455C8.8935 12.8312 8.61299 13.4545 8.42597 13.9221L8.36363 14.0156ZM15.5325 9.21559C15.9377 9.21559 16.2805 8.9039 16.2805 8.46754C16.2805 8.06234 15.9377 7.71949 15.5325 7.71949C15.0961 7.71949 14.7844 8.06234 14.7844 8.46754C14.7844 8.9039 15.0961 9.21559 15.5325 9.21559ZM13.787 8.46754C13.787 7.84416 14.0987 7.28312 14.6597 6.97143C15.1896 6.65975 15.8442 6.65975 16.4052 6.97143C16.9351 7.28312 17.2779 7.84416 17.2779 8.46754C17.2779 9.12208 16.9351 9.68312 16.4052 9.99481C15.8442 10.3065 15.1896 10.3065 14.6597 9.99481C14.0987 9.68312 13.787 9.12208 13.787 8.46754Z" fill="url(#paint0_linear_1686_251)"/>
<defs>
<linearGradient id="paint0_linear_1686_251" x1="20" y1="4" x2="1.11378" y2="8.91938" gradientUnits="userSpaceOnUse">
<stop stop-color="#1FF1A5"/>
<stop offset="1" stop-color="#C3FF62"/>
</linearGradient>
</defs>
</svg>
