<svg fill="none" height="16" viewBox="0 0 16 16" width="16" xmlns="http://www.w3.org/2000/svg"><path d="m12.0312 9.73507v3.45973.3117l-.2806.1558-3.98956 1.9948-.71689.3429v-.8104-2.9922c-.81039.3429-1.34026.561-1.34026.561l-2.52467-2.5246s.21818-.49873.56104-1.27795h-2.929871-.810389l.342857-.71688 1.994803-3.98961.15585-.28052h.31168 3.49091c.06234-.12468.12468-.21819.21818-.34286 2.77403-4.114284 7.04412-3.864934 9.19482-3.335064.5299 2.150644.7792 6.420774-3.3351 9.194804-.1247.0935-.2182.15584-.3428.24935zm-.9974.56103c-.9663.5299-2.05718 1.0286-2.99224 1.4649v2.6494l2.99224-1.4961zm-6.82601-2.33765c.43636-.93507.96623-2.02598 1.4961-2.99221h-2.61818l-1.4961 2.99221zm.15584 2.05715 1.55845 1.5584.12467-.0311c.46753-.1871 1.09091-.4676 1.77662-.7793 1.4026-.6545 2.99223-1.43373 3.98963-2.08827 3.2415-2.21299 3.4286-5.48571 3.0545-7.54286-2.0571-.374022-5.32984-.218178-7.54283 3.05455-.65454.9974-1.46493 2.58701-2.11948 3.95844-.31169.68571-.5922 1.30909-.77922 1.77662zm7.16887-4.80001c.4052 0 .748-.31169.748-.74805 0-.4052-.3428-.74805-.748-.74805-.4364 0-.7481.34285-.7481.74805 0 .43636.3117.74805.7481.74805zm-1.74549-.74805c0-.62338.31169-1.18442.87269-1.49611.5299-.31168 1.1845-.31168 1.7455 0 .5299.31169.8727.87273.8727 1.49611 0 .65454-.3428 1.21558-.8727 1.52727-.561.31169-1.2156.31169-1.7455 0-.561-.31169-.87269-.87273-.87269-1.52727z" fill="#30b761"/></svg>