<svg fill="none" height="17" viewBox="0 0 17 17" width="17" xmlns="http://www.w3.org/2000/svg" xmlns:xlink="http://www.w3.org/1999/xlink"><linearGradient id="a" gradientUnits="userSpaceOnUse" x1="19.5625" x2="-6.53722" y1="-1.53125" y2="7.15548"><stop offset="0" stop-color="#1ff1a5"/><stop offset="1" stop-color="#c3ff62"/></linearGradient><path d="m12.0625 10.25v3.4688.3124l-.2813.1563-3.99995 2-.71875.3437v-.8124-3c-.8125.3437-1.34375.5624-1.34375.5624l-2.53125-2.5312s.21875-.5.5625-1.28125h-2.9375-.8125l.34375-.71875 2-4 .15625-.28125h.3125 3.5c.0625-.125.125-.21875.21875-.34375 2.78125-4.125 7.06255-3.875 9.21875-3.34375.5312 2.15625.7812 6.4375-3.3438 9.21875-.125.0938-.2187.1562-.3437.25zm-1 .5625c-.9687.5313-2.0625 1.0313-3 1.4687v2.6563l3-1.5zm-6.84375-2.34375c.4375-.9375.96875-2.03125 1.5-3h-2.625l-1.5 3zm.15625 2.06245 1.5625 1.5626.125-.0313c.46875-.1875 1.09375-.4687 1.78125-.7813 1.40625-.6562 3.00005-1.43745 4.00005-2.0937 3.25-2.21875 3.4374-5.5 3.0624-7.5625-2.0624-.375-5.3437-.21875-7.56245 3.0625-.65625 1-1.46875 2.59375-2.125 3.96875-.3125.6875-.59375 1.3125-.78125 1.78125zm7.1875-4.81245c.4063 0 .75-.3125.75-.75 0-.40625-.3437-.75-.75-.75-.4375 0-.75.34375-.75.75 0 .4375.3125.75.75.75zm-1.75-.75c0-.625.3125-1.1875.875-1.5.5313-.3125 1.1875-.3125 1.75 0 .5313.3125.875.875.875 1.5 0 .65625-.3437 1.21875-.875 1.53125-.5625.3125-1.2187.3125-1.75 0-.5625-.3125-.875-.875-.875-1.53125z" fill="url(#a)"/></svg>
