<svg width="20" height="20" viewBox="0 0 20 20" fill="none" xmlns="http://www.w3.org/2000/svg">
<path d="M14 12.2539V16.1562V16.5078L13.6836 16.6836L9.18359 18.9336L8.375 19.3203V18.4062V15.0312C7.46094 15.418 6.86328 15.6641 6.86328 15.6641L4.01562 12.8164C4.01562 12.8164 4.26172 12.2539 4.64844 11.375H1.34375H0.429688L0.816406 10.5664L3.06641 6.06641L3.24219 5.75H3.59375H7.53125C7.60156 5.60938 7.67188 5.50391 7.77734 5.36328C10.9062 0.722656 15.7227 1.00391 18.1484 1.60156C18.7461 4.02734 19.0273 8.84375 14.3867 11.9727C14.2461 12.0781 14.1406 12.1484 14 12.2539ZM12.875 12.8867C11.7852 13.4844 10.5547 14.0469 9.5 14.5391V17.5273L12.875 15.8398V12.8867ZM5.17578 10.25C5.66797 9.19531 6.26562 7.96484 6.86328 6.875H3.91016L2.22266 10.25H5.17578ZM5.35156 12.5703L7.10938 14.3281L7.25 14.293C7.77734 14.082 8.48047 13.7656 9.25391 13.4141C10.8359 12.6758 12.6289 11.7969 13.7539 11.0586C17.4102 8.5625 17.6211 4.87109 17.1992 2.55078C14.8789 2.12891 11.1875 2.30469 8.69141 5.99609C7.95312 7.12109 7.03906 8.91406 6.30078 10.4609C5.94922 11.2344 5.63281 11.9375 5.42188 12.4648L5.35156 12.5703ZM13.4375 7.15625C13.8945 7.15625 14.2812 6.80469 14.2812 6.3125C14.2812 5.85547 13.8945 5.46875 13.4375 5.46875C12.9453 5.46875 12.5938 5.85547 12.5938 6.3125C12.5938 6.80469 12.9453 7.15625 13.4375 7.15625ZM11.4688 6.3125C11.4688 5.60938 11.8203 4.97656 12.4531 4.625C13.0508 4.27344 13.7891 4.27344 14.4219 4.625C15.0195 4.97656 15.4062 5.60938 15.4062 6.3125C15.4062 7.05078 15.0195 7.68359 14.4219 8.03516C13.7891 8.38672 13.0508 8.38672 12.4531 8.03516C11.8203 7.68359 11.4688 7.05078 11.4688 6.3125Z" fill="url(#paint0_linear_1336_16879)"/>
<defs>
<linearGradient id="paint0_linear_1336_16879" x1="21" y1="1" x2="-5.09972" y2="9.68673" gradientUnits="userSpaceOnUse">
<stop stop-color="#1FF1A5"/>
<stop offset="1" stop-color="#C3FF62"/>
</linearGradient>
</defs>
</svg>
