<svg fill="none" height="16" viewBox="0 0 16 16" width="16" xmlns="http://www.w3.org/2000/svg"><path d="m3.30469 9.98438c0 .87892-.77344 1.65232-1.65235 1.65232-.914059 0-1.65234-.7734-1.65234-1.65232 0-.91407.738281-1.65235 1.65234-1.65235h1.65235zm.80859 0c0-.91407.77344-1.65235 1.65234-1.65235.91407 0 1.65235.73828 1.65235 1.65235v4.11332c0 .914-.73828 1.6523-1.65235 1.6523-.8789 0-1.65234-.7383-1.65234-1.6523zm1.65234-6.64454c-.8789 0-1.65234-.77343-1.65234-1.65234 0-.914062.77344-1.6875 1.65234-1.6875.91407 0 1.65235.773438 1.65235 1.6875v1.65234zm0 .8086c.91407 0 1.65235.73828 1.65235 1.65234s-.73828 1.65234-1.65235 1.65234h-4.11328c-.914059 0-1.65234-.73828-1.65234-1.65234s.738281-1.65234 1.65234-1.65234zm6.64458 1.65234c0-.91406.7734-1.65234 1.6523-1.65234.9141 0 1.6875.73828 1.6875 1.65234s-.7734 1.65234-1.6875 1.65234h-1.6523zm-.8086 0c0 .91406-.7383 1.65234-1.65238 1.65234-.91406 0-1.65234-.73828-1.65234-1.65234v-4.11328c0-.914062.73828-1.6875 1.65234-1.6875.91408 0 1.65238.773438 1.65238 1.6875zm-1.65238 6.64452c.91408 0 1.65238.7735 1.65238 1.6524 0 .914-.7383 1.6523-1.65238 1.6523-.91406 0-1.65234-.7383-1.65234-1.6523v-1.6524zm0-.8086c-.91406 0-1.65234-.7734-1.65234-1.65232 0-.91407.73828-1.65235 1.65234-1.65235h4.11328c.9141 0 1.6875.73828 1.6875 1.65235 0 .87892-.7734 1.65232-1.6875 1.65232z" fill="#30b761"/></svg>