<svg width="16" height="17" viewBox="0 0 16 17" fill="none" xmlns="http://www.w3.org/2000/svg">
<path d="M3.42969 10.3594C3.42969 11.2383 2.65625 12.0117 1.77734 12.0117C0.863281 12.0117 0.125 11.2383 0.125 10.3594C0.125 9.44531 0.863281 8.70703 1.77734 8.70703H3.42969V10.3594ZM4.23828 10.3594C4.23828 9.44531 5.01172 8.70703 5.89062 8.70703C6.80469 8.70703 7.54297 9.44531 7.54297 10.3594V14.4727C7.54297 15.3867 6.80469 16.125 5.89062 16.125C5.01172 16.125 4.23828 15.3867 4.23828 14.4727V10.3594ZM5.89062 3.71484C5.01172 3.71484 4.23828 2.94141 4.23828 2.0625C4.23828 1.14844 5.01172 0.375 5.89062 0.375C6.80469 0.375 7.54297 1.14844 7.54297 2.0625V3.71484H5.89062ZM5.89062 4.52344C6.80469 4.52344 7.54297 5.26172 7.54297 6.17578C7.54297 7.08984 6.80469 7.82812 5.89062 7.82812H1.77734C0.863281 7.82812 0.125 7.08984 0.125 6.17578C0.125 5.26172 0.863281 4.52344 1.77734 4.52344H5.89062ZM12.5352 6.17578C12.5352 5.26172 13.3086 4.52344 14.1875 4.52344C15.1016 4.52344 15.875 5.26172 15.875 6.17578C15.875 7.08984 15.1016 7.82812 14.1875 7.82812H12.5352V6.17578ZM11.7266 6.17578C11.7266 7.08984 10.9883 7.82812 10.0742 7.82812C9.16016 7.82812 8.42188 7.08984 8.42188 6.17578V2.0625C8.42188 1.14844 9.16016 0.375 10.0742 0.375C10.9883 0.375 11.7266 1.14844 11.7266 2.0625V6.17578ZM10.0742 12.8203C10.9883 12.8203 11.7266 13.5938 11.7266 14.4727C11.7266 15.3867 10.9883 16.125 10.0742 16.125C9.16016 16.125 8.42188 15.3867 8.42188 14.4727V12.8203H10.0742ZM10.0742 12.0117C9.16016 12.0117 8.42188 11.2383 8.42188 10.3594C8.42188 9.44531 9.16016 8.70703 10.0742 8.70703H14.1875C15.1016 8.70703 15.875 9.44531 15.875 10.3594C15.875 11.2383 15.1016 12.0117 14.1875 12.0117H10.0742Z" fill="url(#paint0_linear_1336_16921)"/>
<defs>
<linearGradient id="paint0_linear_1336_16921" x1="103" y1="-10" x2="48.0682" y2="90.6883" gradientUnits="userSpaceOnUse">
<stop stop-color="#1FF1A5"/>
<stop offset="1" stop-color="#C3FF62"/>
</linearGradient>
</defs>
</svg>
