<svg width="24" height="24" viewBox="0 0 24 24" fill="none" xmlns="http://www.w3.org/2000/svg">
<path d="M7.42969 14.3594C7.42969 15.2383 6.65625 16.0117 5.77734 16.0117C4.86328 16.0117 4.125 15.2383 4.125 14.3594C4.125 13.4453 4.86328 12.707 5.77734 12.707H7.42969V14.3594ZM8.23828 14.3594C8.23828 13.4453 9.01172 12.707 9.89062 12.707C10.8047 12.707 11.543 13.4453 11.543 14.3594V18.4727C11.543 19.3867 10.8047 20.125 9.89062 20.125C9.01172 20.125 8.23828 19.3867 8.23828 18.4727V14.3594ZM9.89062 7.71484C9.01172 7.71484 8.23828 6.94141 8.23828 6.0625C8.23828 5.14844 9.01172 4.375 9.89062 4.375C10.8047 4.375 11.543 5.14844 11.543 6.0625V7.71484H9.89062ZM9.89062 8.52344C10.8047 8.52344 11.543 9.26172 11.543 10.1758C11.543 11.0898 10.8047 11.8281 9.89062 11.8281H5.77734C4.86328 11.8281 4.125 11.0898 4.125 10.1758C4.125 9.26172 4.86328 8.52344 5.77734 8.52344H9.89062ZM16.5352 10.1758C16.5352 9.26172 17.3086 8.52344 18.1875 8.52344C19.1016 8.52344 19.875 9.26172 19.875 10.1758C19.875 11.0898 19.1016 11.8281 18.1875 11.8281H16.5352V10.1758ZM15.7266 10.1758C15.7266 11.0898 14.9883 11.8281 14.0742 11.8281C13.1602 11.8281 12.4219 11.0898 12.4219 10.1758V6.0625C12.4219 5.14844 13.1602 4.375 14.0742 4.375C14.9883 4.375 15.7266 5.14844 15.7266 6.0625V10.1758ZM14.0742 16.8203C14.9883 16.8203 15.7266 17.5938 15.7266 18.4727C15.7266 19.3867 14.9883 20.125 14.0742 20.125C13.1602 20.125 12.4219 19.3867 12.4219 18.4727V16.8203H14.0742ZM14.0742 16.0117C13.1602 16.0117 12.4219 15.2383 12.4219 14.3594C12.4219 13.4453 13.1602 12.707 14.0742 12.707H18.1875C19.1016 12.707 19.875 13.4453 19.875 14.3594C19.875 15.2383 19.1016 16.0117 18.1875 16.0117H14.0742Z" fill="#30B761"/>
</svg>
