<svg xmlns="http://www.w3.org/2000/svg" width="900" height="254" fill="none" viewBox="0 0 900 254"><g clip-path="url(#clip0_503_1064)"><rect width="900" height="254" fill="#1D1D24" rx="24"/><circle cx="-28" cy="140.25" r="240" stroke="#fff" stroke-linecap="round"/><path fill="#9B8FFF" stroke="#181A22" stroke-linecap="round" d="M94.3135 172.536C83.1649 178.008 69.169 183.037 57.7581 187.878C54.6138 187.878 54.1537 194.006 52.3469 196.209C50.589 198.352 48.9729 202.04 46.3768 203.191C44.5449 204.003 43.3346 205.936 42.1125 207.445C40.3157 209.664 37.9205 210.657 36.0543 212.725C29.2182 220.302 25.5115 231.444 23.232 241.151C21.4508 248.736 21.5133 259.242 23.9966 266.673C27.1395 276.078 38.5791 281.371 46.7592 285.565C61.6179 293.183 78.6813 296.886 94.8723 300.585C113.604 304.864 132.42 308.928 151.249 312.759C175.662 317.726 200.063 319.396 224.889 320.914C258.334 322.959 291.712 320.906 325.174 321.237C365.583 321.636 406.023 323.017 446.427 323.877C487.076 324.742 527.635 326.048 568.298 326.224C609.543 326.402 650.736 330.333 691.934 332.15C710.365 332.962 728.791 334.163 747.164 335.846C759.27 336.955 771.333 338.503 783.513 337.841C791.875 337.386 800.213 337.401 803.1 328.219C805.842 319.495 806.142 309.43 807.07 300.379C807.677 294.46 808.69 288.586 809.217 282.661C809.844 275.614 810.255 268.541 810.665 261.478L810.687 261.099C810.813 258.936 811.306 255.816 810.717 253.531C809.591 249.164 807.397 245.604 805.217 241.738C803.074 237.937 802.494 231.125 798.747 228.537C790.021 222.511 776.668 223.738 766.633 221.936C753.222 219.529 739.599 217.834 726.136 215.629C709.428 212.893 692.782 210.184 675.994 207.943C661.744 206.042 648.175 201.576 634.41 197.793C627.989 196.029 621.471 194.862 615 193.276C609.008 191.807 595.526 199.653 589.417 198.556C576.021 196.151 562.224 195.059 548.715 193.276C534.988 191.463 529.268 178.082 515.421 177.2C502.467 162.328 498.458 169.634 484.662 170.746C479.196 171.187 469.323 170.948 464.017 172.536C458.601 174.157 451.405 181.541 446.427 184.182C437.637 188.846 425.716 185.664 419.551 187.878C413.047 190.213 405.201 187.878 398.376 187.878C387.064 187.878 383.1 187.872 372.438 184.182C370.147 175.768 358.727 185.415 353.26 184.182C346.977 182.764 341.209 180.2 335.026 178.491C323.244 175.233 311.913 172.535 299.677 171.802C294.87 171.515 290.79 171.681 285.972 170.746C281.682 169.914 277.262 169.304 272.944 168.634C261.271 166.823 248.813 162.069 236.918 163.178C232.024 163.634 228.276 166.136 223.978 168.106C220.986 169.477 217.511 166.699 214.861 165.818C200.175 160.935 188.188 152.186 172.868 149.894C166.202 148.896 158.01 143.242 151.249 144.085C143.643 145.034 134.224 155.663 127.075 158.337C115.83 162.544 105.099 167.242 94.3135 172.536Z"/><path fill="#1D1D24" stroke="#fff" stroke-linecap="round" d="M-104.602 22.169C-108.092 23.0749 -145.337 78.5119 -147.936 80.945C-151.339 88.1095 -154.903 95.1868 -156.842 102.924C-159.534 113.669 -160.889 125.531 -160.019 136.622C-158.99 149.732 -155.375 162.844 -152.024 175.476C-150.327 181.875 -146.975 194.725 -143.743 201.674C-143.105 203.046 -142.258 204.384 -141.113 205.372C-139.596 206.68 -134.856 206.937 -132.962 207.195C-129.981 207.602 -126.968 207.757 -123.977 208.08C-116.446 208.895 -109.032 210.549 -101.477 211.153C-93.047 211.828 -84.597 211.18 -76.1647 211.83C-67.3465 212.511 -58.6841 214.307 -49.8106 214.33C-39.7265 214.357 -29.607 213.38 -19.6022 212.195C-2.17529 210.131 15.493 210.499 33.0019 211.83C44.3074 212.69 55.522 214.332 66.7519 215.841C79.6232 217.57 92.4921 218.183 105.447 218.8L106.752 218.862C130.214 219.981 153.49 223.045 176.856 225.32C191.546 226.75 206.157 229.043 220.867 230.216C251.071 232.623 282.016 230.838 311.96 226.231C323.896 224.395 335.494 222.095 347.221 219.252C353.353 217.766 359.425 215.803 365.606 214.539C367.701 214.11 369.786 213.719 371.908 213.601C372.902 213.546 373.297 212.018 373.887 211.362C375.077 210.04 376.43 208.368 377.299 206.804C378.733 204.222 369.282 204.226 367.969 204.226H367.924C364.603 204.226 362.851 204.137 360.007 202.169C358.979 201.457 356.955 201.737 355.736 201.362C353.83 200.775 351.699 199.252 349.877 198.341C348.998 197.901 345.21 196.887 344.773 196.231C343.681 194.594 341.308 194.331 340.241 192.872C336.691 188.013 329.795 185.441 324.238 183.368L323.887 183.237C316.97 180.654 309.542 178.526 302.273 177.273C297.538 176.457 292.06 177.065 287.325 177.742C283.455 178.295 278.773 178.06 276.856 174.226C275.36 171.233 272.26 171.301 271.492 167.768C270.182 161.743 264.094 159.591 258.367 160.737C255.472 161.316 253.05 161.792 250.033 161.466C246.88 161.125 240.293 161.866 237.846 159.487C235.477 157.183 236.543 152.64 235.971 149.643C235.089 145.029 235.16 140.398 234.33 135.789C229.247 107.549 192.804 102.126 170.033 110.216L169.889 110.267C166.577 111.444 162.781 112.792 159.877 114.799C158.376 115.836 157.264 117.349 155.71 118.341C153.99 119.439 151.961 121.665 149.721 121.153C145.475 120.183 142.204 117.728 138.184 116.388C131.392 114.124 124.523 116.57 117.611 116.57C115.671 116.57 111.473 117.037 110.111 115.372C108.41 113.292 110.131 111.003 110.32 108.836C110.615 105.435 109.02 101.975 108.497 98.5752C108.229 96.8341 106.6 97.1867 105.658 96.1273C103.476 93.6721 101.132 90.8989 98.4186 89.0179C93.1454 85.3626 86.392 85.0194 80.3457 86.6742C74.383 88.3061 69.5877 88.1101 63.7311 85.8929C58.1614 83.7844 51.8695 81.2506 47.0644 77.6638C42.3616 74.1532 40.0208 68.0722 37.6634 62.8721C33.6102 53.9311 28.4954 44.9855 20.9707 38.5231C9.10681 28.3342 -3.83163 23.0232 -19.2116 20.32C-28.7532 18.643 -38.3823 18.5777 -48.0397 18.3669C-58.8257 18.1314 -69.7264 17.6898 -80.4876 18.6794L-80.9958 18.7261C-88.806 19.4437 -97.0071 20.1972 -104.602 22.169Z"/><path stroke="#fff" stroke-linecap="round" d="M150.969 123.062C155.469 123.062 161.025 124.787 163.625 128.688"/><path stroke="#fff" stroke-linecap="round" d="M172.062 132.438C172.864 133.045 173.635 133.67 174.406 134.312"/><path stroke="#fff" stroke-linecap="round" d="M179.562 136.188L181.438 139.938"/><path stroke="#fff" stroke-linecap="round" d="M224.562 141.812C226.828 143.215 229.25 144.959 229.25 147.906"/><path stroke="#fff" stroke-linecap="round" d="M233 153.531C233.914 154.703 234.583 155.993 235.812 156.812"/><path stroke="#fff" stroke-linecap="round" d="M43.1562 74.3125C43.6992 75.3984 45.6413 81.9105 47.1927 82.2552C49.421 82.7504 51.0711 84.279 52.5312 86.0312"/><path stroke="#fff" stroke-linecap="round" d="M63.7812 97.2812L66.125 98.2188"/><path stroke="#181A22" stroke-linecap="round" d="M44.7188 249.469C41.4769 249.646 37.5569 250.519 34.4062 249.469"/><path stroke="#fff" stroke-linecap="round" d="M624.49 72.4852C618.307 72.8315 612.132 72.6439 606 71.4175C609.247 71.4175 608.491 67.1889 610.688 65.8967C611.873 65.1994 612.679 63.8854 613.969 63.2404C616.007 62.2211 618.75 63.4042 620.844 63.4488C623.569 63.5067 626.578 63.7879 629.203 62.98C630.82 62.4826 631.161 61.7165 632.354 60.7404C634.672 58.8437 638.542 57.9378 641.443 57.6154C644.326 57.2951 647.106 58.5595 650.036 58.2665C652.419 58.0282 654.542 56.0248 656.625 55.0113C658.538 54.0806 660.632 54.0351 662.719 54.0738C663.498 54.0882 665.057 54.8053 665.766 54.4904C666.991 53.9459 667.658 51.6315 668.917 50.7925C671.565 49.0272 674.032 47.5657 677.354 47.5113C680.948 47.4524 683.365 47.836 685.688 50.7925C688.785 54.7351 693.762 55.523 698.552 54.9071C705.827 53.9718 706.636 46.8182 710.062 41.6779C713.638 36.3146 716.845 32.7105 722.875 29.9071C728.614 27.2392 734.904 25.793 740.974 28.2925C745.178 30.0237 747.601 34.0949 751.99 35.3238C757.103 36.7554 763.084 38.4541 766.286 43.0581C768.674 46.4905 774.098 53.0963 779.177 52.1727C781.13 51.8176 782.324 48.9244 784.594 48.5529C789.427 47.7621 794.465 52.9653 797.042 56.4175C798.734 58.6844 799.309 60.9885 799.698 63.7092C799.917 65.2452 800.805 66.6159 800.974 68.1363C801.077 69.0618 802.073 72.6201 801 73.1884C798.954 74.2718 794.083 72.4852 792.016 72.4852H763.266C751.827 72.4852 740.443 73.0124 729.021 72.4852C715.18 71.8464 701.486 72.2423 687.641 72.4852C673.057 72.7411 658.425 73.3253 643.865 72.4852C637.397 72.1121 630.964 72.1227 624.49 72.4852Z"/><path stroke="#fff" stroke-linecap="round" d="M702.094 54.1876C705.161 53.5144 707.213 51.4354 710.531 51.3751C713.234 51.3259 715.521 52.7813 718.031 52.7813"/><path stroke="#fff" stroke-linecap="round" d="M723.656 50.4375L726 51.8438"/><path fill="#1D1D24" stroke="#fff" stroke-linecap="round" d="M751.071 128.345C749.299 124.711 750.231 122.893 751.781 118.51C754.113 111.918 757.66 106.593 763.292 102.312C776.62 92.1831 794.575 90.7155 810.583 93.302C826.859 95.9317 835.91 110.662 850.193 117.208C852.164 118.112 853.656 117.816 855.661 117.234C859.452 116.134 863.892 115.016 867.823 114.76C875.472 114.263 879.61 120.177 882.927 125.906C884.517 128.652 892.675 127.335 894.958 126.818C897.277 126.293 899.621 125.071 901.781 126.271C902.509 126.675 903.343 127.11 904.151 127.312C905.895 127.749 907.488 126.804 908.971 125.925L909.047 125.88C912.756 123.682 915.341 120.471 919.49 118.875C926.276 116.265 936.117 118.41 941.781 122.625C944.315 124.511 947.6 129.406 951.104 129.656C955.077 129.94 958.463 130.115 962.458 129.552C966.889 128.928 970.91 128.524 974.411 132.026C975.58 133.194 977.268 135.253 978.917 135.724C980.411 136.151 980.965 137.468 981.938 138.562C984.057 140.947 981.779 141.579 979.75 142.417C968.27 147.154 958.393 145.134 946.078 145.385C933.21 145.648 917.548 145.791 904.75 144.552C890.94 143.216 877.22 146.183 863.448 144.552C853.264 143.346 842.415 143.493 832.276 144.552C824.539 145.36 816.641 144.473 808.865 144.552C805.502 144.586 802.276 144.983 798.917 144.552C796.688 144.266 794.335 144.633 792.094 144.552C785.401 144.309 778.409 143.083 771.651 144.552C768.513 145.234 765.242 144.839 762.016 144.552C759.642 144.341 759.097 145.169 757.042 144.552C754.948 143.924 751.114 143.855 749.281 144.552C744.868 146.231 740.152 144.4 735.427 144.552C731.369 144.683 728.197 146.46 724.385 145.385C721.719 144.633 718.807 144.319 716.26 143.25C714.625 142.563 680.791 141.932 683.812 138.562C687.866 134.041 700.359 135.267 706.312 133.406C711.393 131.818 726.333 123.575 731.625 122.625C734.431 122.121 740.01 123.186 742.875 123.354C743.627 123.398 748.987 126.471 751.071 128.345Z"/><path stroke="#fff" stroke-linecap="round" d="M751.312 129.656C754.918 132.279 756.148 128.391 759.542 127.104C763.144 125.738 765.414 126.407 768.188 128.719"/><path stroke="#fff" stroke-linecap="round" d="M774.75 126.375L777.094 126.844"/><path stroke="#fff" stroke-linecap="round" d="M816 113.25C818.985 113.321 820.831 114.295 823.5 115.333C824.525 115.732 825.698 116.531 826.781 116.531"/><path stroke="#fff" stroke-linecap="round" d="M831 116.062C835.328 116.062 839.12 117.938 843.292 117.938C844.54 117.938 846.722 118.346 847.875 117.833C849.653 117.043 851.184 117.938 853.031 117.938"/><path fill="#DDD6FE" stroke="#181A22" stroke-linecap="round" d="M23.532 155.996C-12.9098 172.413 -35.1572 137.671 -35.1572 137.671C-35.1572 137.671 -32.7985 273.547 -28.6555 290.58C-21.9223 318.261 -56.0069 383.713 -35.1572 404.562C-27.1746 412.545 14.6226 385.015 23.532 392.142C35.6324 401.823 53.2156 403.358 67.907 407.247C91.4733 413.485 115.065 420.084 139.157 424.017C166.549 428.49 193.539 427.277 221.136 427.976C295.505 429.858 369.547 439.297 444.053 434.33C532.75 428.417 621.011 418.001 709.365 408.184C745.879 404.127 782.264 400.363 818.845 396.934C838.708 395.072 862.695 394.735 881.24 386.622C888.902 383.269 895.475 381.811 903.74 380.892C909.036 380.304 916.329 374.477 921.657 372.559C927.308 370.525 934.487 367.993 940.407 370.684C946.06 373.254 945.251 361.684 946.136 358.496C949.162 347.605 943.542 336.671 940.407 326.413C936.818 314.667 933.09 302.91 929.365 291.205C923.068 271.413 911.433 270.26 894.574 261.83C887.082 258.084 879.061 255.131 871.032 252.455C857.199 247.844 845.254 238.88 831.97 232.976C821.676 228.401 810.053 228.602 799.678 224.33C786.297 218.82 773.543 214.485 760.303 208.601C750.418 204.207 736.453 206.621 725.824 206.621C718.807 206.621 712.391 204.972 705.615 204.746C680.634 203.914 657.573 220.509 634.365 227.246C621.284 231.044 609.695 225.432 598.324 219.746C588.57 214.87 574.279 217.013 565.615 210.996C556.557 204.706 547.876 205.607 538.324 200.58C524.995 193.565 511.848 193.074 497.074 193.496C490.71 193.678 484.005 196.511 478.324 199.121C469.025 203.394 456.842 203.725 446.865 206.621C429.304 211.72 413.311 211.18 395.824 207.038C388.298 205.256 380.684 207.929 373.324 204.746C365.617 201.414 358.127 198.923 349.782 197.663C343.229 196.674 337.018 197.241 330.615 194.955C324.362 192.722 319.965 188.028 312.907 187.871C299.019 187.563 285.47 184.121 271.657 184.121C261.431 184.121 260.92 178.351 253.324 174.33C243.355 169.052 234.952 162.46 225.615 155.996C210.216 145.335 205.304 167.598 189.157 167.246C174.513 166.928 104.513 133.926 91.4053 137.671C68.5593 144.199 45.0894 146.285 23.532 155.996Z"/><path stroke="#181A22" stroke-linecap="round" d="M260.155 184.25C265.73 187.037 271.114 190.678 277.03 192.688C283.145 194.764 290.004 195.84 295.78 198.677C299.736 200.62 303.036 202.383 306.457 205.135C309.384 207.489 312.931 208.961 316.614 209.562C322.403 210.509 328.288 210.413 334.062 211.542C339.865 212.676 345.588 213.486 351.457 214.146C354.97 214.541 358.372 215.139 361.77 216.125C364.954 217.05 367.835 218.642 371.093 219.406C377.729 220.963 383.212 223.704 388.593 227.74C393.762 231.616 399.177 232.797 405.78 233.365C410.117 233.738 415.648 234.34 419.53 236.281"/><path stroke="#181A22" stroke-linecap="round" d="M430.312 239.562C431.604 240.067 432.681 240.5 434.062 240.5"/><path stroke="#181A22" stroke-linecap="round" d="M441.562 241.906C443.892 242.589 446.332 243.028 448.593 243.781"/><path stroke="#181A22" stroke-linecap="round" d="M178.124 168.781C183.895 171.117 189.626 173.396 195.468 175.344"/><path stroke="#181A22" stroke-linecap="round" d="M473.124 201C473.124 201 480.197 199.25 485.259 199.25C487.797 199.25 490.168 199.719 492.655 199.719"/><path stroke="#181A22" stroke-linecap="round" d="M502.03 201.125C503.302 201.735 504.46 202.135 505.78 202.531"/><path stroke="#181A22" stroke-linecap="round" d="M512.812 204.406C514.264 205.236 515.366 205.812 517.03 205.812"/><path stroke="#181A22" stroke-linecap="round" d="M619.218 227.844C629.896 230.153 641.183 228.312 652.004 228.312C659.688 228.312 667.358 228.781 674.999 228.781"/><path stroke="#181A22" stroke-linecap="round" d="M701.718 230.188C705.205 232.099 708.151 233.291 712.03 233.938"/><path stroke="#181A22" stroke-linecap="round" d="M719.062 235.344C720.568 236.446 722.451 238.299 724.4 238.599C724.969 238.686 724.924 238.631 725.155 239.094"/><path stroke="#181A22" stroke-linecap="round" d="M21.5615 157.041C30.9094 155.569 40.395 154.854 49.6865 157.041"/><path stroke="#181A22" stroke-linecap="round" d="M56.249 158C59.5811 158.366 62.7631 159.168 66.0928 159.406"/><path stroke="#181A22" stroke-linecap="round" d="M494.062 252.688C502.15 254.49 510.303 256.691 518.541 257.74C526.354 258.735 534.354 258.63 542.213 258.781C560.368 259.13 578.574 259.898 596.692 258.312C608.914 257.243 621.13 256.799 633.384 256.333C639.986 256.083 646.46 255.605 652.968 256.906"/><path stroke="#181A22" stroke-linecap="round" d="M119.53 251.75L124.687 254.562"/><path stroke="#181A22" stroke-linecap="round" d="M321.093 200.656C328.55 201.713 335.901 203.6 343.437 203.833C351.507 204.083 359.515 204.083 367.499 205.344"/><path stroke="#181A22" stroke-linecap="round" d="M525.937 227.844C541.359 231.149 557.13 230.894 572.655 233.469C582.344 235.076 592.045 236.281 601.874 236.281"/><path stroke="#181A22" stroke-linecap="round" d="M617.812 236.75L621.562 237.688"/><path stroke="#181A22" stroke-linecap="round" d="M629.999 237.688H632.343"/><path stroke="#181A22" stroke-linecap="round" d="M250.78 199.719C269.804 210.589 289.489 218.776 310.78 223.885C316.686 225.303 322.787 226.516 328.827 227.141C335.865 227.869 342.653 229.901 349.66 230.865C359.587 232.229 369.421 233.733 379.4 234.641C387.969 235.42 396.459 236.911 404.999 237.688"/><path stroke="#181A22" stroke-linecap="round" d="M303.632 236.164C303.987 236.096 304.326 236.047 304.687 236.047"/><path fill="#1D1D24" stroke="#1D1D24" stroke-width="8" d="M332.26 108.832C325.334 105.386 316.278 102.941 306.564 101.436C305.059 91.7207 302.614 82.665 299.168 75.7385C295.493 68.3509 289.931 62 282 62C274.071 62 268.51 68.3503 264.835 75.7373C261.389 82.6635 258.942 91.7193 257.436 101.436C247.721 102.941 238.665 105.386 231.739 108.832C224.351 112.507 218 118.069 218 126C218 133.929 224.351 139.491 231.739 143.166C238.665 146.611 247.721 149.058 257.436 150.564C258.941 160.278 261.386 169.334 264.832 176.26C268.507 183.648 274.069 190 282 190C289.929 190 295.491 183.649 299.166 176.261C302.611 169.335 305.058 160.279 306.564 150.564C316.279 149.058 325.335 146.612 332.261 143.167C339.649 139.492 346 133.931 346 126C346 118.069 339.648 112.507 332.26 108.832Z"/><path fill="#fff" d="M302.532 104.968C299.698 83.731 292.522 66 281.5 66C270.481 66 263.305 83.728 260.468 104.968C239.231 107.802 221.5 114.978 221.5 126C221.5 137.019 239.231 144.195 260.468 147.032C263.302 168.266 270.478 186 281.5 186C292.519 186 299.695 168.269 302.532 147.032C323.769 144.195 341.5 137.022 341.5 126C341.5 114.978 323.766 107.802 302.532 104.968ZM259.778 140.842C239.437 137.904 227.576 131.18 227.576 125.997C227.576 120.814 239.44 114.09 259.778 111.152C259.329 116.049 259.096 121.048 259.096 125.997C259.096 130.946 259.329 135.951 259.778 140.842ZM281.503 72.0731C286.686 72.0731 293.41 83.9367 296.348 104.274C291.454 103.826 286.452 103.593 281.503 103.593C276.554 103.593 271.552 103.826 266.658 104.274C269.596 83.9337 276.32 72.0731 281.503 72.0731ZM303.226 140.842C302.225 140.989 298.117 141.468 297.079 141.573C296.977 142.613 296.492 146.718 296.348 147.719C293.41 168.06 286.686 179.924 281.503 179.924C276.32 179.924 269.596 168.06 266.658 147.719C266.514 146.718 266.029 142.61 265.927 141.573C265.455 136.752 265.169 131.573 265.169 125.997C265.169 120.424 265.455 115.245 265.927 110.418C270.748 109.945 275.927 109.66 281.503 109.66C287.076 109.66 292.255 109.945 297.079 110.418C298.12 110.52 302.225 111.005 303.226 111.149C323.566 114.087 335.433 120.814 335.433 125.994C335.43 131.173 323.566 137.904 303.226 140.842Z"/><mask id="path-44-outside-1_503_1064" width="227" height="88" x="377.5" y="82" fill="#000" maskUnits="userSpaceOnUse"><rect width="227" height="88" x="377.5" y="82" fill="#fff"/><path d="M395.7 161.8C392.7 161.8 390.233 160.933 388.3 159.2C386.433 157.4 385.5 155.2 385.5 152.6C385.5 149.933 386.433 147.7 388.3 145.9C390.233 144.1 392.7 143.2 395.7 143.2C398.633 143.2 401.033 144.1 402.9 145.9C404.833 147.7 405.8 149.933 405.8 152.6C405.8 155.2 404.833 157.4 402.9 159.2C401.033 160.933 398.633 161.8 395.7 161.8ZM478.723 161H461.623L433.023 117.7V161H415.923V90.8H433.023L461.623 134.3V90.8H478.723V161ZM508.218 104.5V118.7H531.118V131.9H508.218V147.3H534.118V161H491.118V90.8H534.118V104.5H508.218ZM595.72 90.8V104.5H577.12V161H560.02V104.5H541.42V90.8H595.72Z"/></mask><path fill="#fff" d="M395.7 161.8C392.7 161.8 390.233 160.933 388.3 159.2C386.433 157.4 385.5 155.2 385.5 152.6C385.5 149.933 386.433 147.7 388.3 145.9C390.233 144.1 392.7 143.2 395.7 143.2C398.633 143.2 401.033 144.1 402.9 145.9C404.833 147.7 405.8 149.933 405.8 152.6C405.8 155.2 404.833 157.4 402.9 159.2C401.033 160.933 398.633 161.8 395.7 161.8ZM478.723 161H461.623L433.023 117.7V161H415.923V90.8H433.023L461.623 134.3V90.8H478.723V161ZM508.218 104.5V118.7H531.118V131.9H508.218V147.3H534.118V161H491.118V90.8H534.118V104.5H508.218ZM595.72 90.8V104.5H577.12V161H560.02V104.5H541.42V90.8H595.72Z"/><path fill="#1D1D24" d="M388.3 159.2L382.747 164.959C382.817 165.026 382.888 165.092 382.96 165.157L388.3 159.2ZM388.3 145.9L382.849 140.045C382.814 140.077 382.781 140.109 382.747 140.141L388.3 145.9ZM402.9 145.9L397.347 151.659C397.381 151.691 397.414 151.723 397.449 151.755L402.9 145.9ZM402.9 159.2L408.344 165.062L408.351 165.055L402.9 159.2ZM395.7 153.8C394.345 153.8 393.88 153.458 393.64 153.243L382.96 165.157C386.587 168.408 391.055 169.8 395.7 169.8V153.8ZM393.853 153.441C393.628 153.224 393.576 153.103 393.565 153.076C393.553 153.048 393.5 152.922 393.5 152.6H377.5C377.5 157.366 379.312 161.646 382.747 164.959L393.853 153.441ZM393.5 152.6C393.5 152.218 393.563 152.054 393.581 152.01C393.598 151.97 393.648 151.856 393.853 151.659L382.747 140.141C379.267 143.496 377.5 147.83 377.5 152.6H393.5ZM393.751 151.755C394.001 151.523 394.427 151.2 395.7 151.2V135.2C390.973 135.2 386.466 136.677 382.849 140.045L393.751 151.755ZM395.7 151.2C396.856 151.2 397.171 151.489 397.347 151.659L408.453 140.141C404.896 136.711 400.41 135.2 395.7 135.2V151.2ZM397.449 151.755C397.677 151.968 397.725 152.083 397.733 152.103C397.742 152.124 397.8 152.254 397.8 152.6H413.8C413.8 147.736 411.928 143.374 408.351 140.045L397.449 151.755ZM397.8 152.6C397.8 152.884 397.753 152.977 397.751 152.982C397.747 152.989 397.698 153.113 397.449 153.345L408.351 165.055C411.881 161.769 413.8 157.461 413.8 152.6H397.8ZM397.456 153.338C397.293 153.489 396.942 153.8 395.7 153.8V169.8C400.325 169.8 404.773 168.378 408.344 165.062L397.456 153.338ZM478.723 161V169C483.141 169 486.723 165.418 486.723 161H478.723ZM461.623 161L454.947 165.409C456.428 167.651 458.936 169 461.623 169V161ZM433.023 117.7L439.698 113.291C437.752 110.344 434.103 109.022 430.721 110.038C427.338 111.055 425.023 114.168 425.023 117.7H433.023ZM433.023 161V169C437.441 169 441.023 165.418 441.023 161H433.023ZM415.923 161H407.923C407.923 165.418 411.504 169 415.923 169V161ZM415.923 90.8V82.8C411.504 82.8 407.923 86.3817 407.923 90.8H415.923ZM433.023 90.8L439.707 86.405C438.228 84.1549 435.716 82.8 433.023 82.8V90.8ZM461.623 134.3L454.938 138.695C456.88 141.649 460.53 142.978 463.916 141.964C467.303 140.951 469.623 137.835 469.623 134.3H461.623ZM461.623 90.8V82.8C457.204 82.8 453.623 86.3817 453.623 90.8H461.623ZM478.723 90.8H486.723C486.723 86.3817 483.141 82.8 478.723 82.8V90.8ZM478.723 153H461.623V169H478.723V153ZM468.298 156.591L439.698 113.291L426.347 122.109L454.947 165.409L468.298 156.591ZM425.023 117.7V161H441.023V117.7H425.023ZM433.023 153H415.923V169H433.023V153ZM423.923 161V90.8H407.923V161H423.923ZM415.923 98.8H433.023V82.8H415.923V98.8ZM426.338 95.195L454.938 138.695L468.307 129.905L439.707 86.405L426.338 95.195ZM469.623 134.3V90.8H453.623V134.3H469.623ZM461.623 98.8H478.723V82.8H461.623V98.8ZM470.723 90.8V161H486.723V90.8H470.723ZM508.218 104.5V96.5C503.8 96.5 500.218 100.082 500.218 104.5H508.218ZM508.218 118.7H500.218C500.218 123.118 503.8 126.7 508.218 126.7V118.7ZM531.118 118.7H539.118C539.118 114.282 535.536 110.7 531.118 110.7V118.7ZM531.118 131.9V139.9C535.536 139.9 539.118 136.318 539.118 131.9H531.118ZM508.218 131.9V123.9C503.8 123.9 500.218 127.482 500.218 131.9H508.218ZM508.218 147.3H500.218C500.218 151.718 503.8 155.3 508.218 155.3V147.3ZM534.118 147.3H542.118C542.118 142.882 538.536 139.3 534.118 139.3V147.3ZM534.118 161V169C538.536 169 542.118 165.418 542.118 161H534.118ZM491.118 161H483.118C483.118 165.418 486.7 169 491.118 169V161ZM491.118 90.8V82.8C486.7 82.8 483.118 86.3817 483.118 90.8H491.118ZM534.118 90.8H542.118C542.118 86.3817 538.536 82.8 534.118 82.8V90.8ZM534.118 104.5V112.5C538.536 112.5 542.118 108.918 542.118 104.5H534.118ZM500.218 104.5V118.7H516.218V104.5H500.218ZM508.218 126.7H531.118V110.7H508.218V126.7ZM523.118 118.7V131.9H539.118V118.7H523.118ZM531.118 123.9H508.218V139.9H531.118V123.9ZM500.218 131.9V147.3H516.218V131.9H500.218ZM508.218 155.3H534.118V139.3H508.218V155.3ZM526.118 147.3V161H542.118V147.3H526.118ZM534.118 153H491.118V169H534.118V153ZM499.118 161V90.8H483.118V161H499.118ZM491.118 98.8H534.118V82.8H491.118V98.8ZM526.118 90.8V104.5H542.118V90.8H526.118ZM534.118 96.5H508.218V112.5H534.118V96.5ZM595.72 90.8H603.72C603.72 86.3817 600.138 82.8 595.72 82.8V90.8ZM595.72 104.5V112.5C600.138 112.5 603.72 108.918 603.72 104.5H595.72ZM577.12 104.5V96.5C572.701 96.5 569.12 100.082 569.12 104.5H577.12ZM577.12 161V169C581.538 169 585.12 165.418 585.12 161H577.12ZM560.02 161H552.02C552.02 165.418 555.601 169 560.02 169V161ZM560.02 104.5H568.02C568.02 100.082 564.438 96.5 560.02 96.5V104.5ZM541.42 104.5H533.42C533.42 108.918 537.001 112.5 541.42 112.5V104.5ZM541.42 90.8V82.8C537.001 82.8 533.42 86.3817 533.42 90.8H541.42ZM587.72 90.8V104.5H603.72V90.8H587.72ZM595.72 96.5H577.12V112.5H595.72V96.5ZM569.12 104.5V161H585.12V104.5H569.12ZM577.12 153H560.02V169H577.12V153ZM568.02 161V104.5H552.02V161H568.02ZM560.02 96.5H541.42V112.5H560.02V96.5ZM549.42 104.5V90.8H533.42V104.5H549.42ZM541.42 98.8H595.72V82.8H541.42V98.8Z" mask="url(#path-44-outside-1_503_1064)"/></g><defs><clipPath id="clip0_503_1064"><rect width="900" height="254" fill="#fff" rx="24"/></clipPath></defs></svg>