<svg xmlns="http://www.w3.org/2000/svg" width="900" height="254" fill="none" viewBox="0 0 900 254"><g clip-path="url(#clip0_218_7303)"><rect width="900" height="254" fill="#1D1D24" rx="24"/><circle cx="-28" cy="140.25" r="240" stroke="#fff" stroke-linecap="round"/><path fill="#9B8FFF" stroke="#181A22" stroke-linecap="round" d="M94.3135 172.536C83.1649 178.008 69.169 183.037 57.7581 187.878C54.6138 187.878 54.1537 194.006 52.3469 196.209C50.589 198.352 48.9729 202.04 46.3768 203.191C44.5449 204.003 43.3346 205.936 42.1125 207.445C40.3157 209.664 37.9205 210.657 36.0543 212.725C29.2182 220.302 25.5115 231.444 23.232 241.151C21.4508 248.736 21.5133 259.242 23.9966 266.673C27.1395 276.078 38.5791 281.371 46.7592 285.565C61.6179 293.183 78.6813 296.886 94.8723 300.585C113.604 304.864 132.42 308.928 151.249 312.759C175.662 317.726 200.063 319.396 224.889 320.914C258.334 322.959 291.712 320.906 325.174 321.237C365.583 321.636 406.023 323.017 446.427 323.877C487.076 324.742 527.635 326.048 568.298 326.224C609.543 326.402 650.736 330.333 691.934 332.15C710.365 332.962 728.791 334.163 747.164 335.846C759.27 336.955 771.333 338.503 783.513 337.841C791.875 337.386 800.213 337.401 803.1 328.219C805.842 319.495 806.142 309.43 807.07 300.379C807.677 294.46 808.69 288.586 809.217 282.661C809.844 275.614 810.255 268.541 810.665 261.478L810.687 261.099C810.813 258.936 811.306 255.816 810.717 253.531C809.591 249.164 807.397 245.604 805.217 241.738C803.074 237.937 802.494 231.125 798.747 228.537C790.021 222.511 776.668 223.738 766.633 221.936C753.222 219.529 739.599 217.834 726.136 215.629C709.428 212.893 692.782 210.184 675.994 207.943C661.744 206.042 648.175 201.576 634.41 197.793C627.989 196.029 621.471 194.862 615 193.276C609.008 191.807 595.526 199.653 589.417 198.556C576.021 196.151 562.224 195.059 548.715 193.276C534.988 191.463 529.268 178.082 515.421 177.2C502.467 162.328 498.458 169.634 484.662 170.746C479.196 171.187 469.323 170.948 464.017 172.536C458.601 174.157 451.405 181.541 446.427 184.182C437.637 188.846 425.716 185.664 419.551 187.878C413.047 190.213 405.201 187.878 398.376 187.878C387.064 187.878 383.1 187.872 372.438 184.182C370.147 175.768 358.727 185.415 353.26 184.182C346.977 182.764 341.209 180.2 335.026 178.491C323.244 175.233 311.913 172.535 299.677 171.802C294.87 171.515 290.79 171.681 285.972 170.746C281.682 169.914 277.262 169.304 272.944 168.634C261.271 166.823 248.813 162.069 236.918 163.178C232.024 163.634 228.276 166.136 223.978 168.106C220.986 169.477 217.511 166.699 214.861 165.818C200.175 160.935 188.188 152.186 172.868 149.894C166.202 148.896 158.01 143.242 151.249 144.085C143.643 145.034 134.224 155.663 127.075 158.337C115.83 162.544 105.099 167.242 94.3135 172.536Z"/><path fill="#1D1D24" stroke="#fff" stroke-linecap="round" d="M-104.602 22.169C-108.092 23.0749 -145.337 78.5119 -147.936 80.945C-151.339 88.1095 -154.903 95.1868 -156.842 102.924C-159.534 113.669 -160.889 125.531 -160.019 136.622C-158.99 149.732 -155.375 162.844 -152.024 175.476C-150.327 181.875 -146.975 194.725 -143.743 201.674C-143.105 203.046 -142.258 204.384 -141.113 205.372C-139.596 206.68 -134.856 206.937 -132.962 207.195C-129.981 207.602 -126.968 207.757 -123.977 208.08C-116.446 208.895 -109.032 210.549 -101.477 211.153C-93.047 211.828 -84.597 211.18 -76.1647 211.83C-67.3465 212.511 -58.6841 214.307 -49.8106 214.33C-39.7265 214.357 -29.607 213.38 -19.6022 212.195C-2.17529 210.131 15.493 210.499 33.0019 211.83C44.3074 212.69 55.522 214.332 66.7519 215.841C79.6232 217.57 92.4921 218.183 105.447 218.8L106.752 218.862C130.214 219.981 153.49 223.045 176.856 225.32C191.546 226.75 206.157 229.043 220.867 230.216C251.071 232.623 282.016 230.838 311.96 226.231C323.896 224.395 335.494 222.095 347.221 219.252C353.353 217.766 359.425 215.803 365.606 214.539C367.701 214.11 369.786 213.719 371.908 213.601C372.902 213.546 373.297 212.018 373.887 211.362C375.077 210.04 376.43 208.368 377.299 206.804C378.733 204.222 369.282 204.226 367.969 204.226H367.924C364.603 204.226 362.851 204.137 360.007 202.169C358.979 201.457 356.955 201.737 355.736 201.362C353.83 200.775 351.699 199.252 349.877 198.341C348.998 197.901 345.21 196.887 344.773 196.231C343.681 194.594 341.308 194.331 340.241 192.872C336.691 188.013 329.795 185.441 324.238 183.368L323.887 183.237C316.97 180.654 309.542 178.526 302.273 177.273C297.538 176.457 292.06 177.065 287.325 177.742C283.455 178.295 278.773 178.06 276.856 174.226C275.36 171.233 272.26 171.301 271.492 167.768C270.182 161.743 264.094 159.591 258.367 160.737C255.472 161.316 253.05 161.792 250.033 161.466C246.88 161.125 240.293 161.866 237.846 159.487C235.477 157.183 236.543 152.64 235.971 149.643C235.089 145.029 235.16 140.398 234.33 135.789C229.247 107.549 192.804 102.126 170.033 110.216L169.889 110.267C166.577 111.444 162.781 112.792 159.877 114.799C158.376 115.836 157.264 117.349 155.71 118.341C153.99 119.439 151.961 121.665 149.721 121.153C145.475 120.183 142.204 117.728 138.184 116.388C131.392 114.124 124.523 116.57 117.611 116.57C115.671 116.57 111.473 117.037 110.111 115.372C108.41 113.292 110.131 111.003 110.32 108.836C110.615 105.435 109.02 101.975 108.497 98.5752C108.229 96.8341 106.6 97.1867 105.658 96.1273C103.476 93.6721 101.132 90.8989 98.4186 89.0179C93.1454 85.3626 86.392 85.0194 80.3457 86.6742C74.383 88.3061 69.5877 88.1101 63.7311 85.8929C58.1614 83.7844 51.8695 81.2506 47.0644 77.6638C42.3616 74.1532 40.0208 68.0722 37.6634 62.8721C33.6102 53.9311 28.4954 44.9855 20.9707 38.5231C9.10681 28.3342 -3.83163 23.0232 -19.2116 20.32C-28.7532 18.643 -38.3823 18.5777 -48.0397 18.3669C-58.8257 18.1314 -69.7264 17.6898 -80.4876 18.6794L-80.9958 18.7261C-88.806 19.4437 -97.0071 20.1972 -104.602 22.169Z"/><path stroke="#fff" stroke-linecap="round" d="M150.969 123.062C155.469 123.062 161.025 124.787 163.625 128.688"/><path stroke="#fff" stroke-linecap="round" d="M172.062 132.438C172.864 133.045 173.635 133.67 174.406 134.312"/><path stroke="#fff" stroke-linecap="round" d="M179.562 136.188L181.438 139.938"/><path stroke="#fff" stroke-linecap="round" d="M224.562 141.812C226.828 143.215 229.25 144.959 229.25 147.906"/><path stroke="#fff" stroke-linecap="round" d="M233 153.531C233.914 154.703 234.583 155.993 235.812 156.812"/><path stroke="#fff" stroke-linecap="round" d="M43.1562 74.3125C43.6992 75.3984 45.6413 81.9105 47.1927 82.2552C49.421 82.7504 51.0711 84.279 52.5312 86.0312"/><path stroke="#fff" stroke-linecap="round" d="M63.7812 97.2812L66.125 98.2188"/><path stroke="#181A22" stroke-linecap="round" d="M44.7188 249.469C41.4769 249.646 37.5569 250.519 34.4062 249.469"/><path stroke="#fff" stroke-linecap="round" d="M624.49 72.4852C618.307 72.8315 612.132 72.6439 606 71.4175C609.247 71.4175 608.491 67.1889 610.688 65.8967C611.873 65.1994 612.679 63.8854 613.969 63.2404C616.007 62.2211 618.75 63.4042 620.844 63.4488C623.569 63.5067 626.578 63.7879 629.203 62.98C630.82 62.4826 631.161 61.7165 632.354 60.7404C634.672 58.8437 638.542 57.9378 641.443 57.6154C644.326 57.2951 647.106 58.5595 650.036 58.2665C652.419 58.0282 654.542 56.0248 656.625 55.0113C658.538 54.0806 660.632 54.0351 662.719 54.0738C663.498 54.0882 665.057 54.8053 665.766 54.4904C666.991 53.9459 667.658 51.6315 668.917 50.7925C671.565 49.0272 674.032 47.5657 677.354 47.5113C680.948 47.4524 683.365 47.836 685.688 50.7925C688.785 54.7351 693.762 55.523 698.552 54.9071C705.827 53.9718 706.636 46.8182 710.062 41.6779C713.638 36.3146 716.845 32.7105 722.875 29.9071C728.614 27.2392 734.904 25.793 740.974 28.2925C745.178 30.0237 747.601 34.0949 751.99 35.3238C757.103 36.7554 763.084 38.4541 766.286 43.0581C768.674 46.4905 774.098 53.0963 779.177 52.1727C781.13 51.8176 782.324 48.9244 784.594 48.5529C789.427 47.7621 794.465 52.9653 797.042 56.4175C798.734 58.6844 799.309 60.9885 799.698 63.7092C799.917 65.2452 800.805 66.6159 800.974 68.1363C801.077 69.0618 802.073 72.6201 801 73.1884C798.954 74.2718 794.083 72.4852 792.016 72.4852H763.266C751.827 72.4852 740.443 73.0124 729.021 72.4852C715.18 71.8464 701.486 72.2423 687.641 72.4852C673.057 72.7411 658.425 73.3253 643.865 72.4852C637.397 72.1121 630.964 72.1227 624.49 72.4852Z"/><path stroke="#fff" stroke-linecap="round" d="M702.094 54.1876C705.161 53.5144 707.213 51.4354 710.531 51.3751C713.234 51.3259 715.521 52.7813 718.031 52.7813"/><path stroke="#fff" stroke-linecap="round" d="M723.656 50.4375L726 51.8438"/><path fill="#1D1D24" stroke="#fff" stroke-linecap="round" d="M751.072 128.345C749.299 124.711 750.231 122.893 751.781 118.51C754.113 111.918 757.66 106.593 763.292 102.312C776.62 92.1831 794.575 90.7155 810.583 93.302C826.859 95.9317 835.91 110.662 850.193 117.208C852.164 118.112 853.656 117.816 855.662 117.234C859.452 116.134 863.892 115.016 867.823 114.76C875.472 114.263 879.61 120.177 882.927 125.906C884.517 128.652 892.675 127.335 894.958 126.818C897.277 126.293 899.621 125.071 901.781 126.271C902.509 126.675 903.343 127.11 904.151 127.312C905.896 127.749 907.488 126.804 908.971 125.925L909.047 125.88C912.756 123.682 915.341 120.471 919.49 118.875C926.276 116.265 936.117 118.41 941.781 122.625C944.315 124.511 947.6 129.406 951.104 129.656C955.077 129.94 958.463 130.115 962.458 129.552C966.89 128.928 970.91 128.524 974.412 132.026C975.58 133.194 977.268 135.253 978.917 135.724C980.411 136.151 980.965 137.468 981.938 138.562C984.057 140.947 981.779 141.579 979.75 142.417C968.27 147.154 958.393 145.134 946.078 145.385C933.21 145.648 917.548 145.791 904.75 144.552C890.941 143.216 877.22 146.183 863.448 144.552C853.264 143.346 842.415 143.493 832.276 144.552C824.539 145.36 816.641 144.473 808.865 144.552C805.502 144.586 802.276 144.983 798.917 144.552C796.688 144.266 794.335 144.633 792.094 144.552C785.402 144.309 778.409 143.083 771.651 144.552C768.513 145.234 765.242 144.839 762.016 144.552C759.642 144.341 759.098 145.169 757.042 144.552C754.948 143.924 751.114 143.855 749.281 144.552C744.868 146.231 740.152 144.4 735.427 144.552C731.369 144.683 728.197 146.46 724.386 145.385C721.719 144.633 718.807 144.319 716.261 143.25C714.625 142.563 680.791 141.932 683.813 138.562C687.866 134.041 700.359 135.267 706.312 133.406C711.393 131.818 726.333 123.575 731.625 122.625C734.431 122.121 740.01 123.186 742.875 123.354C743.627 123.398 748.988 126.471 751.072 128.345Z"/><path stroke="#fff" stroke-linecap="round" d="M751.312 129.656C754.918 132.279 756.148 128.391 759.542 127.104C763.144 125.738 765.414 126.407 768.188 128.719"/><path stroke="#fff" stroke-linecap="round" d="M774.75 126.375L777.094 126.844"/><path stroke="#fff" stroke-linecap="round" d="M816 113.25C818.985 113.321 820.831 114.295 823.5 115.333C824.525 115.732 825.698 116.531 826.781 116.531"/><path stroke="#fff" stroke-linecap="round" d="M831 116.062C835.328 116.062 839.12 117.938 843.292 117.938C844.54 117.938 846.722 118.346 847.875 117.833C849.653 117.043 851.184 117.938 853.031 117.938"/><path fill="#DDD6FE" stroke="#181A22" stroke-linecap="round" d="M23.532 155.996C-12.9098 172.413 -35.1572 137.671 -35.1572 137.671C-35.1572 137.671 -32.7985 273.547 -28.6555 290.58C-21.9223 318.261 -56.0069 383.713 -35.1572 404.562C-27.1746 412.545 14.6226 385.015 23.532 392.142C35.6324 401.823 53.2156 403.358 67.907 407.247C91.4733 413.485 115.065 420.084 139.157 424.017C166.549 428.49 193.539 427.277 221.136 427.976C295.505 429.858 369.547 439.297 444.053 434.33C532.75 428.417 621.011 418.001 709.365 408.184C745.879 404.127 782.264 400.363 818.845 396.934C838.708 395.072 862.695 394.735 881.24 386.622C888.902 383.269 895.475 381.811 903.74 380.892C909.036 380.304 916.329 374.477 921.657 372.559C927.308 370.525 934.487 367.993 940.407 370.684C946.06 373.254 945.251 361.684 946.136 358.496C949.162 347.605 943.542 336.671 940.407 326.413C936.818 314.667 933.09 302.91 929.365 291.205C923.068 271.413 911.433 270.26 894.574 261.83C887.082 258.084 879.061 255.131 871.032 252.455C857.199 247.844 845.254 238.88 831.97 232.976C821.676 228.401 810.053 228.602 799.678 224.33C786.297 218.82 773.543 214.485 760.303 208.601C750.418 204.207 736.453 206.621 725.824 206.621C718.807 206.621 712.391 204.972 705.615 204.746C680.634 203.914 657.573 220.509 634.365 227.246C621.284 231.044 609.695 225.432 598.324 219.746C588.57 214.87 574.279 217.013 565.615 210.996C556.557 204.706 547.876 205.607 538.324 200.58C524.995 193.565 511.848 193.074 497.074 193.496C490.71 193.678 484.005 196.511 478.324 199.121C469.025 203.394 456.842 203.725 446.865 206.621C429.304 211.72 413.311 211.18 395.824 207.038C388.298 205.256 380.684 207.929 373.324 204.746C365.617 201.414 358.127 198.923 349.782 197.663C343.229 196.674 337.018 197.241 330.615 194.955C324.362 192.722 319.965 188.028 312.907 187.871C299.019 187.563 285.47 184.121 271.657 184.121C261.431 184.121 260.92 178.351 253.324 174.33C243.355 169.052 234.952 162.46 225.615 155.996C210.216 145.335 205.304 167.598 189.157 167.246C174.513 166.928 104.513 133.926 91.4053 137.671C68.5593 144.199 45.0894 146.285 23.532 155.996Z"/><path stroke="#181A22" stroke-linecap="round" d="M260.155 184.25C265.73 187.037 271.114 190.678 277.03 192.688C283.145 194.764 290.004 195.84 295.78 198.677C299.736 200.62 303.036 202.383 306.457 205.135C309.384 207.489 312.931 208.961 316.614 209.562C322.403 210.509 328.288 210.413 334.062 211.542C339.865 212.676 345.588 213.486 351.457 214.146C354.97 214.541 358.372 215.139 361.77 216.125C364.954 217.05 367.835 218.642 371.093 219.406C377.729 220.963 383.212 223.704 388.593 227.74C393.762 231.616 399.177 232.797 405.78 233.365C410.117 233.738 415.648 234.34 419.53 236.281"/><path stroke="#181A22" stroke-linecap="round" d="M430.312 239.562C431.604 240.067 432.681 240.5 434.062 240.5"/><path stroke="#181A22" stroke-linecap="round" d="M441.562 241.906C443.892 242.589 446.332 243.028 448.593 243.781"/><path stroke="#181A22" stroke-linecap="round" d="M178.124 168.781C183.895 171.117 189.626 173.396 195.468 175.344"/><path stroke="#181A22" stroke-linecap="round" d="M473.124 201C473.124 201 480.197 199.25 485.259 199.25C487.797 199.25 490.168 199.719 492.655 199.719"/><path stroke="#181A22" stroke-linecap="round" d="M502.03 201.125C503.302 201.735 504.46 202.135 505.78 202.531"/><path stroke="#181A22" stroke-linecap="round" d="M512.812 204.406C514.264 205.236 515.366 205.812 517.03 205.812"/><path stroke="#181A22" stroke-linecap="round" d="M619.218 227.844C629.896 230.153 641.183 228.312 652.004 228.312C659.688 228.312 667.358 228.781 674.999 228.781"/><path stroke="#181A22" stroke-linecap="round" d="M701.718 230.188C705.205 232.099 708.151 233.291 712.03 233.938"/><path stroke="#181A22" stroke-linecap="round" d="M719.062 235.344C720.568 236.446 722.451 238.299 724.4 238.599C724.969 238.686 724.924 238.631 725.155 239.094"/><path stroke="#181A22" stroke-linecap="round" d="M21.5615 157.041C30.9094 155.569 40.395 154.854 49.6865 157.041"/><path stroke="#181A22" stroke-linecap="round" d="M56.249 158C59.5811 158.366 62.7631 159.168 66.0928 159.406"/><path stroke="#181A22" stroke-linecap="round" d="M494.062 252.688C502.15 254.49 510.303 256.691 518.541 257.74C526.354 258.735 534.354 258.63 542.213 258.781C560.368 259.13 578.574 259.898 596.692 258.312C608.914 257.243 621.13 256.799 633.384 256.333C639.986 256.083 646.46 255.605 652.968 256.906"/><path stroke="#181A22" stroke-linecap="round" d="M119.53 251.75L124.687 254.562"/><path stroke="#181A22" stroke-linecap="round" d="M321.093 200.656C328.55 201.713 335.901 203.6 343.437 203.833C351.507 204.083 359.515 204.083 367.499 205.344"/><path stroke="#181A22" stroke-linecap="round" d="M525.937 227.844C541.359 231.149 557.13 230.894 572.655 233.469C582.344 235.076 592.045 236.281 601.874 236.281"/><path stroke="#181A22" stroke-linecap="round" d="M617.812 236.75L621.562 237.688"/><path stroke="#181A22" stroke-linecap="round" d="M629.999 237.688H632.343"/><path stroke="#181A22" stroke-linecap="round" d="M250.78 199.719C269.804 210.589 289.489 218.776 310.78 223.885C316.686 225.303 322.787 226.516 328.827 227.141C335.865 227.869 342.653 229.901 349.66 230.865C359.587 232.229 369.421 233.733 379.4 234.641C387.969 235.42 396.459 236.911 404.999 237.688"/><path stroke="#181A22" stroke-linecap="round" d="M303.632 236.164C303.987 236.096 304.326 236.047 304.687 236.047"/><path fill="#1D1D24" stroke="#1D1D24" stroke-width="8" d="M342.76 108.832C335.834 105.386 326.778 102.941 317.064 101.436C315.559 91.7207 313.114 82.665 309.668 75.7385C305.993 68.3509 300.431 62 292.5 62C284.571 62 279.01 68.3503 275.335 75.7373C271.889 82.6635 269.442 91.7193 267.936 101.436C258.221 102.941 249.165 105.386 242.239 108.832C234.851 112.507 228.5 118.069 228.5 126C228.5 133.929 234.851 139.491 242.239 143.166C249.165 146.611 258.221 149.058 267.936 150.564C269.441 160.278 271.886 169.334 275.332 176.26C279.007 183.648 284.569 190 292.5 190C300.429 190 305.991 183.649 309.666 176.261C313.111 169.335 315.558 160.279 317.064 150.564C326.779 149.058 335.835 146.612 342.761 143.167C350.149 139.492 356.5 133.931 356.5 126C356.5 118.069 350.148 112.507 342.76 108.832Z"/><path fill="#fff" d="M313.032 104.968C310.198 83.731 303.022 66 292 66C280.981 66 273.805 83.728 270.968 104.968C249.731 107.802 232 114.978 232 126C232 137.019 249.731 144.195 270.968 147.032C273.802 168.266 280.978 186 292 186C303.019 186 310.195 168.269 313.032 147.032C334.269 144.195 352 137.022 352 126C352 114.978 334.266 107.802 313.032 104.968ZM270.278 140.842C249.937 137.904 238.076 131.18 238.076 125.997C238.076 120.814 249.94 114.09 270.278 111.152C269.829 116.049 269.596 121.048 269.596 125.997C269.596 130.946 269.829 135.951 270.278 140.842ZM292.003 72.0731C297.186 72.0731 303.91 83.9367 306.848 104.274C301.954 103.826 296.952 103.593 292.003 103.593C287.054 103.593 282.052 103.826 277.158 104.274C280.096 83.9337 286.82 72.0731 292.003 72.0731ZM313.726 140.842C312.725 140.989 308.617 141.468 307.579 141.573C307.477 142.613 306.992 146.718 306.848 147.719C303.91 168.06 297.186 179.924 292.003 179.924C286.82 179.924 280.096 168.06 277.158 147.719C277.014 146.718 276.529 142.61 276.427 141.573C275.955 136.752 275.669 131.573 275.669 125.997C275.669 120.424 275.955 115.245 276.427 110.418C281.248 109.945 286.427 109.66 292.003 109.66C297.576 109.66 302.755 109.945 307.579 110.418C308.62 110.52 312.725 111.005 313.726 111.149C334.066 114.087 345.933 120.814 345.933 125.994C345.93 131.173 334.066 137.904 313.726 140.842Z"/><mask id="path-44-outside-1_218_7303" width="204" height="118" x="388" y="67" fill="#000" maskUnits="userSpaceOnUse"><rect width="204" height="118" x="388" y="67" fill="#fff"/><path d="M465.92 107.8C464.147 104.533 461.58 102.06 458.22 100.38C454.953 98.6067 451.08 97.72 446.6 97.72C438.853 97.72 432.647 100.287 427.98 105.42C423.313 110.46 420.98 117.227 420.98 125.72C420.98 134.773 423.407 141.867 428.26 147C433.207 152.04 439.973 154.56 448.56 154.56C454.44 154.56 459.387 153.067 463.4 150.08C467.507 147.093 470.493 142.8 472.36 137.2H441.98V119.56H494.06V141.82C492.287 147.793 489.253 153.347 484.96 158.48C480.76 163.613 475.393 167.767 468.86 170.94C462.327 174.113 454.953 175.7 446.74 175.7C437.033 175.7 428.353 173.6 420.7 169.4C413.14 165.107 407.213 159.18 402.92 151.62C398.72 144.06 396.62 135.427 396.62 125.72C396.62 116.013 398.72 107.38 402.92 99.82C407.213 92.1667 413.14 86.24 420.7 82.04C428.26 77.7467 436.893 75.6 446.6 75.6C458.36 75.6 468.253 78.4467 476.28 84.14C484.4 89.8333 489.767 97.72 492.38 107.8H465.92ZM542.881 176.12C535.227 176.12 528.321 174.487 522.161 171.22C516.094 167.953 511.287 163.287 507.741 157.22C504.287 151.153 502.561 144.06 502.561 135.94C502.561 127.913 504.334 120.867 507.881 114.8C511.427 108.64 516.281 103.927 522.441 100.66C528.601 97.3933 535.507 95.76 543.161 95.76C550.814 95.76 557.721 97.3933 563.881 100.66C570.041 103.927 574.894 108.64 578.441 114.8C581.987 120.867 583.761 127.913 583.761 135.94C583.761 143.967 581.941 151.06 578.301 157.22C574.754 163.287 569.854 167.953 563.601 171.22C557.441 174.487 550.534 176.12 542.881 176.12ZM542.881 155.4C547.454 155.4 551.327 153.72 554.501 150.36C557.767 147 559.401 142.193 559.401 135.94C559.401 129.687 557.814 124.88 554.641 121.52C551.561 118.16 547.734 116.48 543.161 116.48C538.494 116.48 534.621 118.16 531.541 121.52C528.461 124.787 526.921 129.593 526.921 135.94C526.921 142.193 528.414 147 531.401 150.36C534.481 153.72 538.307 155.4 542.881 155.4Z"/></mask><path fill="#fff" d="M465.92 107.8C464.147 104.533 461.58 102.06 458.22 100.38C454.953 98.6067 451.08 97.72 446.6 97.72C438.853 97.72 432.647 100.287 427.98 105.42C423.313 110.46 420.98 117.227 420.98 125.72C420.98 134.773 423.407 141.867 428.26 147C433.207 152.04 439.973 154.56 448.56 154.56C454.44 154.56 459.387 153.067 463.4 150.08C467.507 147.093 470.493 142.8 472.36 137.2H441.98V119.56H494.06V141.82C492.287 147.793 489.253 153.347 484.96 158.48C480.76 163.613 475.393 167.767 468.86 170.94C462.327 174.113 454.953 175.7 446.74 175.7C437.033 175.7 428.353 173.6 420.7 169.4C413.14 165.107 407.213 159.18 402.92 151.62C398.72 144.06 396.62 135.427 396.62 125.72C396.62 116.013 398.72 107.38 402.92 99.82C407.213 92.1667 413.14 86.24 420.7 82.04C428.26 77.7467 436.893 75.6 446.6 75.6C458.36 75.6 468.253 78.4467 476.28 84.14C484.4 89.8333 489.767 97.72 492.38 107.8H465.92ZM542.881 176.12C535.227 176.12 528.321 174.487 522.161 171.22C516.094 167.953 511.287 163.287 507.741 157.22C504.287 151.153 502.561 144.06 502.561 135.94C502.561 127.913 504.334 120.867 507.881 114.8C511.427 108.64 516.281 103.927 522.441 100.66C528.601 97.3933 535.507 95.76 543.161 95.76C550.814 95.76 557.721 97.3933 563.881 100.66C570.041 103.927 574.894 108.64 578.441 114.8C581.987 120.867 583.761 127.913 583.761 135.94C583.761 143.967 581.941 151.06 578.301 157.22C574.754 163.287 569.854 167.953 563.601 171.22C557.441 174.487 550.534 176.12 542.881 176.12ZM542.881 155.4C547.454 155.4 551.327 153.72 554.501 150.36C557.767 147 559.401 142.193 559.401 135.94C559.401 129.687 557.814 124.88 554.641 121.52C551.561 118.16 547.734 116.48 543.161 116.48C538.494 116.48 534.621 118.16 531.541 121.52C528.461 124.787 526.921 129.593 526.921 135.94C526.921 142.193 528.414 147 531.401 150.36C534.481 153.72 538.307 155.4 542.881 155.4Z"/><path fill="#1D1D24" d="M465.92 107.8L458.889 111.617C460.289 114.195 462.987 115.8 465.92 115.8V107.8ZM458.22 100.38L454.403 107.411C454.482 107.454 454.562 107.495 454.642 107.535L458.22 100.38ZM427.98 105.42L433.85 110.855C433.867 110.837 433.883 110.819 433.9 110.801L427.98 105.42ZM428.26 147L422.447 152.496C422.481 152.532 422.516 152.568 422.551 152.604L428.26 147ZM463.4 150.08L458.695 143.61C458.671 143.627 458.647 143.645 458.624 143.662L463.4 150.08ZM472.36 137.2L479.949 139.73C480.763 137.29 480.354 134.608 478.85 132.522C477.346 130.436 474.932 129.2 472.36 129.2V137.2ZM441.98 137.2H433.98C433.98 141.618 437.562 145.2 441.98 145.2V137.2ZM441.98 119.56V111.56C437.562 111.56 433.98 115.142 433.98 119.56H441.98ZM494.06 119.56H502.06C502.06 115.142 498.478 111.56 494.06 111.56V119.56ZM494.06 141.82L501.729 144.097C501.949 143.358 502.06 142.591 502.06 141.82H494.06ZM484.96 158.48L478.823 153.348C478.805 153.37 478.787 153.392 478.768 153.414L484.96 158.48ZM468.86 170.94L465.365 163.744L468.86 170.94ZM420.7 169.4L416.749 176.356C416.783 176.376 416.817 176.395 416.851 176.413L420.7 169.4ZM402.92 151.62L395.927 155.505C395.939 155.527 395.951 155.549 395.964 155.571L402.92 151.62ZM402.92 99.82L395.943 95.906C395.937 95.9156 395.932 95.9252 395.927 95.9349L402.92 99.82ZM420.7 82.04L424.585 89.0333C424.607 89.0211 424.629 89.0088 424.651 88.9965L420.7 82.04ZM476.28 84.14L471.652 90.6652C471.664 90.6736 471.675 90.682 471.687 90.6903L476.28 84.14ZM492.38 107.8V115.8C494.856 115.8 497.192 114.654 498.707 112.696C500.222 110.738 500.745 108.189 500.124 105.792L492.38 107.8ZM472.951 103.983C470.387 99.2599 466.607 95.6291 461.798 93.2246L454.642 107.535C456.553 108.491 457.907 109.807 458.889 111.617L472.951 103.983ZM462.037 93.3492C457.381 90.8215 452.141 89.72 446.6 89.72V105.72C450.019 105.72 452.526 106.392 454.403 107.411L462.037 93.3492ZM446.6 89.72C436.891 89.72 428.429 93.033 422.06 100.039L433.9 110.801C436.864 107.54 440.815 105.72 446.6 105.72V89.72ZM422.11 99.9847C415.769 106.833 412.98 115.711 412.98 125.72H428.98C428.98 118.743 430.858 114.087 433.85 110.855L422.11 99.9847ZM412.98 125.72C412.98 136.22 415.826 145.494 422.447 152.496L434.073 141.504C430.987 138.24 428.98 133.327 428.98 125.72H412.98ZM422.551 152.604C429.317 159.497 438.321 162.56 448.56 162.56V146.56C441.625 146.56 437.097 144.583 433.969 141.396L422.551 152.604ZM448.56 162.56C455.849 162.56 462.551 160.684 468.176 156.498L458.624 143.662C456.222 145.45 453.031 146.56 448.56 146.56V162.56ZM468.105 156.55C473.77 152.43 477.644 146.646 479.949 139.73L464.771 134.67C463.343 138.954 461.243 141.757 458.695 143.61L468.105 156.55ZM472.36 129.2H441.98V145.2H472.36V129.2ZM449.98 137.2V119.56H433.98V137.2H449.98ZM441.98 127.56H494.06V111.56H441.98V127.56ZM486.06 119.56V141.82H502.06V119.56H486.06ZM486.391 139.543C484.951 144.394 482.469 148.989 478.823 153.348L491.097 163.612C496.038 157.705 499.623 151.192 501.729 144.097L486.391 139.543ZM478.768 153.414C475.37 157.568 470.956 161.028 465.365 163.744L472.355 178.136C479.831 174.505 486.15 169.659 491.152 163.546L478.768 153.414ZM465.365 163.744C460.055 166.323 453.902 167.7 446.74 167.7V183.7C456.005 183.7 464.598 181.904 472.355 178.136L465.365 163.744ZM446.74 167.7C438.225 167.7 430.895 165.869 424.549 162.387L416.851 176.413C425.812 181.331 435.841 183.7 446.74 183.7V167.7ZM424.651 162.444C418.345 158.863 413.457 153.975 409.876 147.669L395.964 155.571C400.969 164.385 407.935 171.351 416.749 176.356L424.651 162.444ZM409.913 147.735C406.451 141.503 404.62 134.236 404.62 125.72H388.62C388.62 136.617 390.989 146.617 395.927 155.505L409.913 147.735ZM404.62 125.72C404.62 117.204 406.451 109.937 409.913 103.705L395.927 95.9349C390.989 104.823 388.62 114.823 388.62 125.72H404.62ZM409.897 103.734C413.476 97.3537 418.341 92.5021 424.585 89.0333L416.815 75.0467C407.939 79.9779 400.95 86.9796 395.943 95.906L409.897 103.734ZM424.651 88.9965C430.871 85.4641 438.114 83.6 446.6 83.6V67.6C435.673 67.6 425.649 70.0292 416.749 75.0835L424.651 88.9965ZM446.6 83.6C457.033 83.6 465.225 86.1065 471.652 90.6652L480.908 77.6148C471.282 70.7869 459.687 67.6 446.6 67.6V83.6ZM471.687 90.6903C478.168 95.2341 482.474 101.468 484.636 109.808L500.124 105.792C497.059 93.9718 490.632 84.4325 480.873 77.5897L471.687 90.6903ZM492.38 99.8H465.92V115.8H492.38V99.8ZM522.161 171.22L518.368 178.264C518.383 178.272 518.398 178.28 518.413 178.288L522.161 171.22ZM507.741 157.22L500.788 161.178C500.803 161.204 500.819 161.231 500.834 161.258L507.741 157.22ZM507.881 114.8L514.787 118.838C514.796 118.822 514.805 118.807 514.814 118.792L507.881 114.8ZM522.441 100.66L526.189 107.728L522.441 100.66ZM563.881 100.66L560.133 107.728L563.881 100.66ZM578.441 114.8L571.508 118.792C571.516 118.807 571.525 118.822 571.534 118.838L578.441 114.8ZM578.301 157.22L571.413 153.15C571.407 153.161 571.401 153.172 571.394 153.182L578.301 157.22ZM563.601 171.22L559.896 164.129C559.882 164.137 559.867 164.145 559.853 164.152L563.601 171.22ZM554.501 150.36L548.765 144.783C548.738 144.811 548.711 144.839 548.685 144.867L554.501 150.36ZM554.641 121.52L548.743 126.926C548.77 126.955 548.797 126.984 548.825 127.013L554.641 121.52ZM531.541 121.52L537.361 127.008C537.387 126.981 537.413 126.953 537.438 126.926L531.541 121.52ZM531.401 150.36L525.421 155.675C525.448 155.705 525.476 155.736 525.503 155.766L531.401 150.36ZM542.881 168.12C536.404 168.12 530.804 166.749 525.909 164.152L518.413 178.288C525.837 182.225 534.051 184.12 542.881 184.12V168.12ZM525.953 164.176C521.208 161.621 517.467 158.007 514.647 153.182L500.834 161.258C505.107 168.567 510.98 174.286 518.368 178.264L525.953 164.176ZM514.693 153.262C512.031 148.586 510.561 142.901 510.561 135.94H494.561C494.561 145.219 496.543 153.721 500.788 161.178L514.693 153.262ZM510.561 135.94C510.561 129.127 512.053 123.513 514.787 118.838L500.974 110.762C496.614 118.22 494.561 126.7 494.561 135.94H510.561ZM514.814 118.792C517.625 113.909 521.386 110.275 526.189 107.728L518.693 93.5923C511.176 97.5786 505.23 103.371 500.948 110.808L514.814 118.792ZM526.189 107.728C531.084 105.131 536.684 103.76 543.161 103.76V87.76C534.331 87.76 526.117 89.6552 518.693 93.5923L526.189 107.728ZM543.161 103.76C549.637 103.76 555.237 105.131 560.133 107.728L567.629 93.5923C560.204 89.6552 551.99 87.76 543.161 87.76V103.76ZM560.133 107.728C564.936 110.275 568.697 113.909 571.508 118.792L585.374 110.808C581.091 103.371 575.146 97.5786 567.629 93.5923L560.133 107.728ZM571.534 118.838C574.268 123.513 575.761 129.127 575.761 135.94H591.761C591.761 126.7 589.707 118.22 585.347 110.762L571.534 118.838ZM575.761 135.94C575.761 142.713 574.239 148.368 571.413 153.15L585.188 161.29C589.642 153.752 591.761 145.22 591.761 135.94H575.761ZM571.394 153.182C568.61 157.945 564.822 161.556 559.896 164.129L567.305 178.311C574.886 174.351 580.898 168.628 585.207 161.258L571.394 153.182ZM559.853 164.152C554.957 166.749 549.357 168.12 542.881 168.12V184.12C551.71 184.12 559.924 182.225 567.349 178.288L559.853 164.152ZM542.881 163.4C549.681 163.4 555.65 160.794 560.317 155.853L548.685 144.867C547.004 146.646 545.227 147.4 542.881 147.4V163.4ZM560.237 155.937C565.388 150.638 567.401 143.56 567.401 135.94H551.401C551.401 140.827 550.147 143.362 548.765 144.783L560.237 155.937ZM567.401 135.94C567.401 128.379 565.467 121.332 560.457 116.027L548.825 127.013C550.161 128.428 551.401 130.995 551.401 135.94H567.401ZM560.538 116.114C555.937 111.095 549.968 108.48 543.161 108.48V124.48C545.5 124.48 547.184 125.225 548.743 126.926L560.538 116.114ZM543.161 108.48C536.312 108.48 530.279 111.057 525.643 116.114L537.438 126.926C538.962 125.263 540.676 124.48 543.161 124.48V108.48ZM525.72 116.032C520.751 121.301 518.921 128.399 518.921 135.94H534.921C534.921 130.788 536.17 128.272 537.361 127.008L525.72 116.032ZM518.921 135.94C518.921 143.387 520.701 150.364 525.421 155.675L537.38 145.045C536.127 143.636 534.921 141 534.921 135.94H518.921ZM525.503 155.766C530.104 160.785 536.073 163.4 542.881 163.4V147.4C540.541 147.4 538.857 146.655 537.298 144.954L525.503 155.766Z" mask="url(#path-44-outside-1_218_7303)"/></g><defs><clipPath id="clip0_218_7303"><rect width="900" height="254" fill="#fff" rx="24"/></clipPath></defs></svg>