<svg xmlns="http://www.w3.org/2000/svg" width="900" height="254" fill="none" viewBox="0 0 900 254"><g clip-path="url(#clip0_218_6946)"><rect width="900" height="254" fill="#1D1D24" rx="24"/><circle cx="-28" cy="140.25" r="240" stroke="#fff" stroke-linecap="round"/><path fill="#9B8FFF" stroke="#181A22" stroke-linecap="round" d="M94.3135 172.536C83.1649 178.008 69.169 183.037 57.7581 187.878C54.6138 187.878 54.1537 194.006 52.3469 196.209C50.589 198.352 48.9729 202.04 46.3768 203.191C44.5449 204.003 43.3346 205.936 42.1125 207.445C40.3157 209.664 37.9205 210.657 36.0543 212.725C29.2182 220.302 25.5115 231.444 23.232 241.151C21.4508 248.736 21.5133 259.242 23.9966 266.673C27.1395 276.078 38.5791 281.371 46.7592 285.565C61.6179 293.183 78.6813 296.886 94.8723 300.585C113.604 304.864 132.42 308.928 151.249 312.759C175.662 317.726 200.063 319.396 224.889 320.914C258.334 322.959 291.712 320.906 325.174 321.237C365.583 321.636 406.023 323.017 446.427 323.877C487.076 324.742 527.635 326.048 568.298 326.224C609.543 326.402 650.736 330.333 691.934 332.15C710.365 332.962 728.791 334.163 747.164 335.846C759.27 336.955 771.333 338.503 783.513 337.841C791.875 337.386 800.213 337.401 803.1 328.219C805.842 319.495 806.142 309.43 807.07 300.379C807.677 294.46 808.69 288.586 809.217 282.661C809.844 275.614 810.255 268.541 810.665 261.478L810.687 261.099C810.813 258.936 811.306 255.816 810.717 253.531C809.591 249.164 807.397 245.604 805.217 241.738C803.074 237.937 802.494 231.125 798.747 228.537C790.021 222.511 776.668 223.738 766.633 221.936C753.222 219.529 739.599 217.834 726.136 215.629C709.428 212.893 692.782 210.184 675.994 207.943C661.744 206.042 648.175 201.576 634.41 197.793C627.989 196.029 621.471 194.862 615 193.276C609.008 191.807 595.526 199.653 589.417 198.556C576.021 196.151 562.224 195.059 548.715 193.276C534.988 191.463 529.268 178.082 515.421 177.2C502.467 162.328 498.458 169.634 484.662 170.746C479.196 171.187 469.323 170.948 464.017 172.536C458.601 174.157 451.405 181.541 446.427 184.182C437.637 188.846 425.716 185.664 419.551 187.878C413.047 190.213 405.201 187.878 398.376 187.878C387.064 187.878 383.1 187.872 372.438 184.182C370.147 175.768 358.727 185.415 353.26 184.182C346.977 182.764 341.209 180.2 335.026 178.491C323.244 175.233 311.913 172.535 299.677 171.802C294.87 171.515 290.79 171.681 285.972 170.746C281.682 169.914 277.262 169.304 272.944 168.634C261.271 166.823 248.813 162.069 236.918 163.178C232.024 163.634 228.276 166.136 223.978 168.106C220.986 169.477 217.511 166.699 214.861 165.818C200.175 160.935 188.188 152.186 172.868 149.894C166.202 148.896 158.01 143.242 151.249 144.085C143.643 145.034 134.224 155.663 127.075 158.337C115.83 162.544 105.099 167.242 94.3135 172.536Z"/><path fill="#1D1D24" stroke="#fff" stroke-linecap="round" d="M-104.602 22.169C-108.092 23.0749 -145.337 78.5119 -147.936 80.945C-151.339 88.1095 -154.903 95.1868 -156.842 102.924C-159.534 113.669 -160.889 125.531 -160.019 136.622C-158.99 149.732 -155.375 162.844 -152.024 175.476C-150.327 181.875 -146.975 194.725 -143.743 201.674C-143.105 203.046 -142.258 204.384 -141.113 205.372C-139.596 206.68 -134.856 206.937 -132.962 207.195C-129.981 207.602 -126.968 207.757 -123.977 208.08C-116.446 208.895 -109.032 210.549 -101.477 211.153C-93.047 211.828 -84.597 211.18 -76.1647 211.83C-67.3465 212.511 -58.6841 214.307 -49.8106 214.33C-39.7265 214.357 -29.607 213.38 -19.6022 212.195C-2.17529 210.131 15.493 210.499 33.0019 211.83C44.3074 212.69 55.522 214.332 66.7519 215.841C79.6232 217.57 92.4921 218.183 105.447 218.8L106.752 218.862C130.214 219.981 153.49 223.045 176.856 225.32C191.546 226.75 206.157 229.043 220.867 230.216C251.071 232.623 282.016 230.838 311.96 226.231C323.896 224.395 335.494 222.095 347.221 219.252C353.353 217.766 359.425 215.803 365.606 214.539C367.701 214.11 369.786 213.719 371.908 213.601C372.902 213.546 373.297 212.018 373.887 211.362C375.077 210.04 376.43 208.368 377.299 206.804C378.733 204.222 369.282 204.226 367.969 204.226H367.924C364.603 204.226 362.851 204.137 360.007 202.169C358.979 201.457 356.955 201.737 355.736 201.362C353.83 200.775 351.699 199.252 349.877 198.341C348.998 197.901 345.21 196.887 344.773 196.231C343.681 194.594 341.308 194.331 340.241 192.872C336.691 188.013 329.795 185.441 324.238 183.368L323.887 183.237C316.97 180.654 309.542 178.526 302.273 177.273C297.538 176.457 292.06 177.065 287.325 177.742C283.455 178.295 278.773 178.06 276.856 174.226C275.36 171.233 272.26 171.301 271.492 167.768C270.182 161.743 264.094 159.591 258.367 160.737C255.472 161.316 253.05 161.792 250.033 161.466C246.88 161.125 240.293 161.866 237.846 159.487C235.477 157.183 236.543 152.64 235.971 149.643C235.089 145.029 235.16 140.398 234.33 135.789C229.247 107.549 192.804 102.126 170.033 110.216L169.889 110.267C166.577 111.444 162.781 112.792 159.877 114.799C158.376 115.836 157.264 117.349 155.71 118.341C153.99 119.439 151.961 121.665 149.721 121.153C145.475 120.183 142.204 117.728 138.184 116.388C131.392 114.124 124.523 116.57 117.611 116.57C115.671 116.57 111.473 117.037 110.111 115.372C108.41 113.292 110.131 111.003 110.32 108.836C110.615 105.435 109.02 101.975 108.497 98.5752C108.229 96.8341 106.6 97.1867 105.658 96.1273C103.476 93.6721 101.132 90.8989 98.4186 89.0179C93.1454 85.3626 86.392 85.0194 80.3457 86.6742C74.383 88.3061 69.5877 88.1101 63.7311 85.8929C58.1614 83.7844 51.8695 81.2506 47.0644 77.6638C42.3616 74.1532 40.0208 68.0722 37.6634 62.8721C33.6102 53.9311 28.4954 44.9855 20.9707 38.5231C9.10681 28.3342 -3.83163 23.0232 -19.2116 20.32C-28.7532 18.643 -38.3823 18.5777 -48.0397 18.3669C-58.8257 18.1314 -69.7264 17.6898 -80.4876 18.6794L-80.9958 18.7261C-88.806 19.4437 -97.0071 20.1972 -104.602 22.169Z"/><path stroke="#fff" stroke-linecap="round" d="M150.969 123.062C155.469 123.062 161.025 124.787 163.625 128.688"/><path stroke="#fff" stroke-linecap="round" d="M172.062 132.438C172.864 133.045 173.635 133.67 174.406 134.312"/><path stroke="#fff" stroke-linecap="round" d="M179.562 136.188L181.438 139.938"/><path stroke="#fff" stroke-linecap="round" d="M224.562 141.812C226.828 143.215 229.25 144.959 229.25 147.906"/><path stroke="#fff" stroke-linecap="round" d="M233 153.531C233.914 154.703 234.583 155.993 235.812 156.812"/><path stroke="#fff" stroke-linecap="round" d="M43.1562 74.3125C43.6992 75.3984 45.6413 81.9105 47.1927 82.2552C49.421 82.7504 51.0711 84.279 52.5312 86.0312"/><path stroke="#fff" stroke-linecap="round" d="M63.7812 97.2812L66.125 98.2188"/><path stroke="#181A22" stroke-linecap="round" d="M44.7188 249.469C41.4769 249.646 37.5569 250.519 34.4062 249.469"/><path stroke="#fff" stroke-linecap="round" d="M624.49 72.4852C618.307 72.8315 612.132 72.6439 606 71.4175C609.247 71.4175 608.491 67.1889 610.688 65.8967C611.873 65.1994 612.679 63.8854 613.969 63.2404C616.007 62.2211 618.75 63.4042 620.844 63.4488C623.569 63.5067 626.578 63.7879 629.203 62.98C630.82 62.4826 631.161 61.7165 632.354 60.7404C634.672 58.8437 638.542 57.9378 641.443 57.6154C644.326 57.2951 647.106 58.5595 650.036 58.2665C652.419 58.0282 654.542 56.0248 656.625 55.0113C658.538 54.0806 660.632 54.0351 662.719 54.0738C663.498 54.0882 665.057 54.8053 665.766 54.4904C666.991 53.9459 667.658 51.6315 668.917 50.7925C671.565 49.0272 674.032 47.5657 677.354 47.5113C680.948 47.4524 683.365 47.836 685.688 50.7925C688.785 54.7351 693.762 55.523 698.552 54.9071C705.827 53.9718 706.636 46.8182 710.062 41.6779C713.638 36.3146 716.845 32.7105 722.875 29.9071C728.614 27.2392 734.904 25.793 740.974 28.2925C745.178 30.0237 747.601 34.0949 751.99 35.3238C757.103 36.7554 763.084 38.4541 766.286 43.0581C768.674 46.4905 774.098 53.0963 779.177 52.1727C781.13 51.8176 782.324 48.9244 784.594 48.5529C789.427 47.7621 794.465 52.9653 797.042 56.4175C798.734 58.6844 799.309 60.9885 799.698 63.7092C799.917 65.2452 800.805 66.6159 800.974 68.1363C801.077 69.0618 802.073 72.6201 801 73.1884C798.954 74.2718 794.083 72.4852 792.016 72.4852H763.266C751.827 72.4852 740.443 73.0124 729.021 72.4852C715.18 71.8464 701.486 72.2423 687.641 72.4852C673.057 72.7411 658.425 73.3253 643.865 72.4852C637.397 72.1121 630.964 72.1227 624.49 72.4852Z"/><path stroke="#fff" stroke-linecap="round" d="M702.094 54.1876C705.161 53.5144 707.213 51.4354 710.531 51.3751C713.234 51.3259 715.521 52.7813 718.031 52.7813"/><path stroke="#fff" stroke-linecap="round" d="M723.656 50.4375L726 51.8438"/><path fill="#1D1D24" stroke="#fff" stroke-linecap="round" d="M751.071 128.345C749.299 124.711 750.231 122.893 751.781 118.51C754.113 111.918 757.66 106.593 763.292 102.312C776.62 92.1831 794.575 90.7155 810.583 93.302C826.859 95.9317 835.91 110.662 850.193 117.208C852.164 118.112 853.656 117.816 855.661 117.234C859.452 116.134 863.892 115.016 867.823 114.76C875.472 114.263 879.61 120.177 882.927 125.906C884.517 128.652 892.675 127.335 894.958 126.818C897.277 126.293 899.621 125.071 901.781 126.271C902.509 126.675 903.343 127.11 904.151 127.312C905.895 127.749 907.488 126.804 908.971 125.925L909.047 125.88C912.756 123.682 915.341 120.471 919.49 118.875C926.276 116.265 936.117 118.41 941.781 122.625C944.315 124.511 947.6 129.406 951.104 129.656C955.077 129.94 958.463 130.115 962.458 129.552C966.889 128.928 970.91 128.524 974.411 132.026C975.58 133.194 977.268 135.253 978.917 135.724C980.411 136.151 980.965 137.468 981.938 138.562C984.057 140.947 981.779 141.579 979.75 142.417C968.27 147.154 958.393 145.134 946.078 145.385C933.21 145.648 917.548 145.791 904.75 144.552C890.94 143.216 877.22 146.183 863.448 144.552C853.264 143.346 842.415 143.493 832.276 144.552C824.539 145.36 816.641 144.473 808.865 144.552C805.502 144.586 802.276 144.983 798.917 144.552C796.688 144.266 794.335 144.633 792.094 144.552C785.401 144.309 778.409 143.083 771.651 144.552C768.513 145.234 765.242 144.839 762.016 144.552C759.642 144.341 759.097 145.169 757.042 144.552C754.948 143.924 751.114 143.855 749.281 144.552C744.868 146.231 740.152 144.4 735.427 144.552C731.369 144.683 728.197 146.46 724.385 145.385C721.719 144.633 718.807 144.319 716.26 143.25C714.625 142.563 680.791 141.932 683.812 138.562C687.866 134.041 700.359 135.267 706.312 133.406C711.393 131.818 726.333 123.575 731.625 122.625C734.431 122.121 740.01 123.186 742.875 123.354C743.627 123.398 748.987 126.471 751.071 128.345Z"/><path stroke="#fff" stroke-linecap="round" d="M751.312 129.656C754.918 132.279 756.148 128.391 759.542 127.104C763.144 125.738 765.414 126.407 768.188 128.719"/><path stroke="#fff" stroke-linecap="round" d="M774.75 126.375L777.094 126.844"/><path stroke="#fff" stroke-linecap="round" d="M816 113.25C818.985 113.321 820.831 114.295 823.5 115.333C824.525 115.732 825.698 116.531 826.781 116.531"/><path stroke="#fff" stroke-linecap="round" d="M831 116.062C835.328 116.062 839.12 117.938 843.292 117.938C844.54 117.938 846.722 118.346 847.875 117.833C849.653 117.043 851.184 117.938 853.031 117.938"/><path fill="#DDD6FE" stroke="#181A22" stroke-linecap="round" d="M23.532 155.996C-12.9098 172.413 -35.1572 137.671 -35.1572 137.671C-35.1572 137.671 -32.7985 273.547 -28.6555 290.58C-21.9223 318.261 -56.0069 383.713 -35.1572 404.562C-27.1746 412.545 14.6226 385.015 23.532 392.142C35.6324 401.823 53.2156 403.358 67.907 407.247C91.4733 413.485 115.065 420.084 139.157 424.017C166.549 428.49 193.539 427.277 221.136 427.976C295.505 429.858 369.547 439.297 444.053 434.33C532.75 428.417 621.011 418.001 709.365 408.184C745.879 404.127 782.264 400.363 818.845 396.934C838.708 395.072 862.695 394.735 881.24 386.622C888.902 383.269 895.475 381.811 903.74 380.892C909.036 380.304 916.329 374.477 921.657 372.559C927.308 370.525 934.487 367.993 940.407 370.684C946.06 373.254 945.251 361.684 946.136 358.496C949.162 347.605 943.542 336.671 940.407 326.413C936.818 314.667 933.09 302.91 929.365 291.205C923.068 271.413 911.433 270.26 894.574 261.83C887.082 258.084 879.061 255.131 871.032 252.455C857.199 247.844 845.254 238.88 831.97 232.976C821.676 228.401 810.053 228.602 799.678 224.33C786.297 218.82 773.543 214.485 760.303 208.601C750.418 204.207 736.453 206.621 725.824 206.621C718.807 206.621 712.391 204.972 705.615 204.746C680.634 203.914 657.573 220.509 634.365 227.246C621.284 231.044 609.695 225.432 598.324 219.746C588.57 214.87 574.279 217.013 565.615 210.996C556.557 204.706 547.876 205.607 538.324 200.58C524.995 193.565 511.848 193.074 497.074 193.496C490.71 193.678 484.005 196.511 478.324 199.121C469.025 203.394 456.842 203.725 446.865 206.621C429.304 211.72 413.311 211.18 395.824 207.038C388.298 205.256 380.684 207.929 373.324 204.746C365.617 201.414 358.127 198.923 349.782 197.663C343.229 196.674 337.018 197.241 330.615 194.955C324.362 192.722 319.965 188.028 312.907 187.871C299.019 187.563 285.47 184.121 271.657 184.121C261.431 184.121 260.92 178.351 253.324 174.33C243.355 169.052 234.952 162.46 225.615 155.996C210.216 145.335 205.304 167.598 189.157 167.246C174.513 166.928 104.513 133.926 91.4053 137.671C68.5593 144.199 45.0894 146.285 23.532 155.996Z"/><path stroke="#181A22" stroke-linecap="round" d="M260.155 184.25C265.73 187.037 271.114 190.678 277.03 192.688C283.145 194.764 290.004 195.84 295.78 198.677C299.736 200.62 303.036 202.383 306.457 205.135C309.384 207.489 312.931 208.961 316.614 209.562C322.403 210.509 328.288 210.413 334.062 211.542C339.865 212.676 345.588 213.486 351.457 214.146C354.97 214.541 358.372 215.139 361.77 216.125C364.954 217.05 367.835 218.642 371.093 219.406C377.729 220.963 383.212 223.704 388.593 227.74C393.762 231.616 399.177 232.797 405.78 233.365C410.117 233.738 415.648 234.34 419.53 236.281"/><path stroke="#181A22" stroke-linecap="round" d="M430.312 239.562C431.604 240.067 432.681 240.5 434.062 240.5"/><path stroke="#181A22" stroke-linecap="round" d="M441.562 241.906C443.892 242.589 446.332 243.028 448.593 243.781"/><path stroke="#181A22" stroke-linecap="round" d="M178.124 168.781C183.895 171.117 189.626 173.396 195.468 175.344"/><path stroke="#181A22" stroke-linecap="round" d="M473.124 201C473.124 201 480.197 199.25 485.259 199.25C487.797 199.25 490.168 199.719 492.655 199.719"/><path stroke="#181A22" stroke-linecap="round" d="M502.03 201.125C503.302 201.735 504.46 202.135 505.78 202.531"/><path stroke="#181A22" stroke-linecap="round" d="M512.812 204.406C514.264 205.236 515.366 205.812 517.03 205.812"/><path stroke="#181A22" stroke-linecap="round" d="M619.218 227.844C629.896 230.153 641.183 228.312 652.004 228.312C659.688 228.312 667.358 228.781 674.999 228.781"/><path stroke="#181A22" stroke-linecap="round" d="M701.718 230.188C705.205 232.099 708.151 233.291 712.03 233.938"/><path stroke="#181A22" stroke-linecap="round" d="M719.062 235.344C720.568 236.446 722.451 238.299 724.4 238.599C724.969 238.686 724.924 238.631 725.155 239.094"/><path stroke="#181A22" stroke-linecap="round" d="M21.5615 157.041C30.9094 155.569 40.395 154.854 49.6865 157.041"/><path stroke="#181A22" stroke-linecap="round" d="M56.249 158C59.5811 158.366 62.7631 159.168 66.0928 159.406"/><path stroke="#181A22" stroke-linecap="round" d="M494.062 252.688C502.15 254.49 510.303 256.691 518.541 257.74C526.354 258.735 534.354 258.63 542.213 258.781C560.368 259.13 578.574 259.898 596.692 258.312C608.914 257.243 621.13 256.799 633.384 256.333C639.986 256.083 646.46 255.605 652.968 256.906"/><path stroke="#181A22" stroke-linecap="round" d="M119.53 251.75L124.687 254.562"/><path stroke="#181A22" stroke-linecap="round" d="M321.093 200.656C328.55 201.713 335.901 203.6 343.437 203.833C351.507 204.083 359.515 204.083 367.499 205.344"/><path stroke="#181A22" stroke-linecap="round" d="M525.937 227.844C541.359 231.149 557.13 230.894 572.655 233.469C582.344 235.076 592.045 236.281 601.874 236.281"/><path stroke="#181A22" stroke-linecap="round" d="M617.812 236.75L621.562 237.688"/><path stroke="#181A22" stroke-linecap="round" d="M629.999 237.688H632.343"/><path stroke="#181A22" stroke-linecap="round" d="M250.78 199.719C269.804 210.589 289.489 218.776 310.78 223.885C316.686 225.303 322.787 226.516 328.827 227.141C335.865 227.869 342.653 229.901 349.66 230.865C359.587 232.229 369.421 233.733 379.4 234.641C387.969 235.42 396.459 236.911 404.999 237.688"/><path stroke="#181A22" stroke-linecap="round" d="M303.632 236.164C303.987 236.096 304.326 236.047 304.687 236.047"/><path fill="#1D1D24" stroke="#1D1D24" stroke-width="8" d="M258.26 108.832C251.334 105.386 242.278 102.941 232.564 101.436C231.059 91.7207 228.614 82.665 225.168 75.7385C221.493 68.3509 215.931 62 208 62C200.071 62 194.51 68.3503 190.835 75.7373C187.389 82.6635 184.942 91.7193 183.436 101.436C173.721 102.941 164.665 105.386 157.739 108.832C150.351 112.507 144 118.069 144 126C144 133.929 150.351 139.491 157.739 143.166C164.665 146.611 173.721 149.058 183.436 150.564C184.941 160.278 187.386 169.334 190.832 176.26C194.507 183.648 200.069 190 208 190C215.929 190 221.491 183.649 225.166 176.261C228.611 169.335 231.058 160.279 232.564 150.564C242.279 149.058 251.335 146.612 258.261 143.167C265.649 139.492 272 133.931 272 126C272 118.069 265.648 112.507 258.26 108.832Z"/><path fill="#fff" d="M228.532 104.968C225.698 83.731 218.522 66 207.5 66C196.481 66 189.305 83.728 186.468 104.968C165.231 107.802 147.5 114.978 147.5 126C147.5 137.019 165.231 144.195 186.468 147.032C189.302 168.266 196.478 186 207.5 186C218.519 186 225.695 168.269 228.532 147.032C249.769 144.195 267.5 137.022 267.5 126C267.5 114.978 249.766 107.802 228.532 104.968ZM185.778 140.842C165.437 137.904 153.576 131.18 153.576 125.997C153.576 120.814 165.44 114.09 185.778 111.152C185.329 116.049 185.096 121.048 185.096 125.997C185.096 130.946 185.329 135.951 185.778 140.842ZM207.503 72.0731C212.686 72.0731 219.41 83.9367 222.348 104.274C217.454 103.826 212.452 103.593 207.503 103.593C202.554 103.593 197.552 103.826 192.658 104.274C195.596 83.9337 202.32 72.0731 207.503 72.0731ZM229.226 140.842C228.225 140.989 224.117 141.468 223.079 141.573C222.977 142.613 222.492 146.718 222.348 147.719C219.41 168.06 212.686 179.924 207.503 179.924C202.32 179.924 195.596 168.06 192.658 147.719C192.514 146.718 192.029 142.61 191.927 141.573C191.455 136.752 191.169 131.573 191.169 125.997C191.169 120.424 191.455 115.245 191.927 110.418C196.748 109.945 201.927 109.66 207.503 109.66C213.076 109.66 218.255 109.945 223.079 110.418C224.12 110.52 228.225 111.005 229.226 111.149C249.566 114.087 261.433 120.814 261.433 125.994C261.43 131.173 249.566 137.904 229.226 140.842Z"/><mask id="path-44-outside-1_218_6946" width="369" height="117" x="305.5" y="79" fill="#000" maskUnits="userSpaceOnUse"><rect width="369" height="117" x="305.5" y="79" fill="#fff"/><path d="M367.2 113.4C367.2 117.467 366.267 121.2 364.4 124.6C362.533 127.933 359.667 130.633 355.8 132.7C351.933 134.767 347.133 135.8 341.4 135.8H330.8V161H313.7V90.8H341.4C347 90.8 351.733 91.7667 355.6 93.7C359.467 95.6333 362.367 98.3 364.3 101.7C366.233 105.1 367.2 109 367.2 113.4ZM340.1 122.2C343.367 122.2 345.8 121.433 347.4 119.9C349 118.367 349.8 116.2 349.8 113.4C349.8 110.6 349 108.433 347.4 106.9C345.8 105.367 343.367 104.6 340.1 104.6H330.8V122.2H340.1ZM433.102 105.2L398.102 187.5H379.702L392.502 159.1L369.802 105.2H388.902L401.802 140.1L414.602 105.2H433.102ZM470.386 146.5V161H461.686C455.486 161 450.653 159.5 447.186 156.5C443.719 153.433 441.986 148.467 441.986 141.6V119.4H435.186V105.2H441.986V91.6H459.086V105.2H470.286V119.4H459.086V141.8C459.086 143.467 459.486 144.667 460.286 145.4C461.086 146.133 462.419 146.5 464.286 146.5H470.386ZM514.211 104.6C520.611 104.6 525.744 106.733 529.611 111C533.478 115.2 535.411 121 535.411 128.4V161H518.411V130.7C518.411 126.967 517.444 124.067 515.511 122C513.578 119.933 510.978 118.9 507.711 118.9C504.444 118.9 501.844 119.933 499.911 122C497.978 124.067 497.011 126.967 497.011 130.7V161H479.911V87H497.011V112.7C498.744 110.233 501.111 108.267 504.111 106.8C507.111 105.333 510.478 104.6 514.211 104.6ZM572.694 161.8C567.227 161.8 562.294 160.633 557.894 158.3C553.56 155.967 550.127 152.633 547.594 148.3C545.127 143.967 543.894 138.9 543.894 133.1C543.894 127.367 545.16 122.333 547.694 118C550.227 113.6 553.694 110.233 558.094 107.9C562.494 105.567 567.427 104.4 572.894 104.4C578.36 104.4 583.294 105.567 587.694 107.9C592.094 110.233 595.56 113.6 598.094 118C600.627 122.333 601.894 127.367 601.894 133.1C601.894 138.833 600.594 143.9 597.994 148.3C595.46 152.633 591.96 155.967 587.494 158.3C583.094 160.633 578.16 161.8 572.694 161.8ZM572.694 147C575.96 147 578.727 145.8 580.994 143.4C583.327 141 584.494 137.567 584.494 133.1C584.494 128.633 583.36 125.2 581.094 122.8C578.894 120.4 576.16 119.2 572.894 119.2C569.56 119.2 566.794 120.4 564.594 122.8C562.394 125.133 561.294 128.567 561.294 133.1C561.294 137.567 562.36 141 564.494 143.4C566.694 145.8 569.427 147 572.694 147ZM644.966 104.6C651.499 104.6 656.699 106.733 660.566 111C664.499 115.2 666.466 121 666.466 128.4V161H649.466V130.7C649.466 126.967 648.499 124.067 646.566 122C644.632 119.933 642.032 118.9 638.766 118.9C635.499 118.9 632.899 119.933 630.966 122C629.032 124.067 628.066 126.967 628.066 130.7V161H610.966V105.2H628.066V112.6C629.799 110.133 632.132 108.2 635.066 106.8C637.999 105.333 641.299 104.6 644.966 104.6Z"/></mask><path fill="#fff" d="M367.2 113.4C367.2 117.467 366.267 121.2 364.4 124.6C362.533 127.933 359.667 130.633 355.8 132.7C351.933 134.767 347.133 135.8 341.4 135.8H330.8V161H313.7V90.8H341.4C347 90.8 351.733 91.7667 355.6 93.7C359.467 95.6333 362.367 98.3 364.3 101.7C366.233 105.1 367.2 109 367.2 113.4ZM340.1 122.2C343.367 122.2 345.8 121.433 347.4 119.9C349 118.367 349.8 116.2 349.8 113.4C349.8 110.6 349 108.433 347.4 106.9C345.8 105.367 343.367 104.6 340.1 104.6H330.8V122.2H340.1ZM433.102 105.2L398.102 187.5H379.702L392.502 159.1L369.802 105.2H388.902L401.802 140.1L414.602 105.2H433.102ZM470.386 146.5V161H461.686C455.486 161 450.653 159.5 447.186 156.5C443.719 153.433 441.986 148.467 441.986 141.6V119.4H435.186V105.2H441.986V91.6H459.086V105.2H470.286V119.4H459.086V141.8C459.086 143.467 459.486 144.667 460.286 145.4C461.086 146.133 462.419 146.5 464.286 146.5H470.386ZM514.211 104.6C520.611 104.6 525.744 106.733 529.611 111C533.478 115.2 535.411 121 535.411 128.4V161H518.411V130.7C518.411 126.967 517.444 124.067 515.511 122C513.578 119.933 510.978 118.9 507.711 118.9C504.444 118.9 501.844 119.933 499.911 122C497.978 124.067 497.011 126.967 497.011 130.7V161H479.911V87H497.011V112.7C498.744 110.233 501.111 108.267 504.111 106.8C507.111 105.333 510.478 104.6 514.211 104.6ZM572.694 161.8C567.227 161.8 562.294 160.633 557.894 158.3C553.56 155.967 550.127 152.633 547.594 148.3C545.127 143.967 543.894 138.9 543.894 133.1C543.894 127.367 545.16 122.333 547.694 118C550.227 113.6 553.694 110.233 558.094 107.9C562.494 105.567 567.427 104.4 572.894 104.4C578.36 104.4 583.294 105.567 587.694 107.9C592.094 110.233 595.56 113.6 598.094 118C600.627 122.333 601.894 127.367 601.894 133.1C601.894 138.833 600.594 143.9 597.994 148.3C595.46 152.633 591.96 155.967 587.494 158.3C583.094 160.633 578.16 161.8 572.694 161.8ZM572.694 147C575.96 147 578.727 145.8 580.994 143.4C583.327 141 584.494 137.567 584.494 133.1C584.494 128.633 583.36 125.2 581.094 122.8C578.894 120.4 576.16 119.2 572.894 119.2C569.56 119.2 566.794 120.4 564.594 122.8C562.394 125.133 561.294 128.567 561.294 133.1C561.294 137.567 562.36 141 564.494 143.4C566.694 145.8 569.427 147 572.694 147ZM644.966 104.6C651.499 104.6 656.699 106.733 660.566 111C664.499 115.2 666.466 121 666.466 128.4V161H649.466V130.7C649.466 126.967 648.499 124.067 646.566 122C644.632 119.933 642.032 118.9 638.766 118.9C635.499 118.9 632.899 119.933 630.966 122C629.032 124.067 628.066 126.967 628.066 130.7V161H610.966V105.2H628.066V112.6C629.799 110.133 632.132 108.2 635.066 106.8C637.999 105.333 641.299 104.6 644.966 104.6Z"/><path fill="#1D1D24" d="M364.4 124.6L371.38 128.509C371.391 128.489 371.402 128.47 371.413 128.45L364.4 124.6ZM355.8 132.7L352.029 125.645H352.029L355.8 132.7ZM330.8 135.8V127.8C326.382 127.8 322.8 131.382 322.8 135.8H330.8ZM330.8 161V169C335.218 169 338.8 165.418 338.8 161H330.8ZM313.7 161H305.7C305.7 165.418 309.282 169 313.7 169V161ZM313.7 90.8V82.8C309.282 82.8 305.7 86.3817 305.7 90.8H313.7ZM355.6 93.7L359.178 86.5446H359.178L355.6 93.7ZM330.8 104.6V96.6C326.382 96.6 322.8 100.182 322.8 104.6H330.8ZM330.8 122.2H322.8C322.8 126.618 326.382 130.2 330.8 130.2V122.2ZM359.2 113.4C359.2 116.188 358.575 118.588 357.387 120.75L371.413 128.45C373.959 123.812 375.2 118.745 375.2 113.4H359.2ZM357.42 120.691C356.406 122.502 354.751 124.19 352.029 125.645L359.571 139.755C364.582 137.077 368.661 133.364 371.38 128.509L357.42 120.691ZM352.029 125.645C349.625 126.93 346.209 127.8 341.4 127.8V143.8C348.057 143.8 354.242 142.604 359.571 139.755L352.029 125.645ZM341.4 127.8H330.8V143.8H341.4V127.8ZM322.8 135.8V161H338.8V135.8H322.8ZM330.8 153H313.7V169H330.8V153ZM321.7 161V90.8H305.7V161H321.7ZM313.7 98.8H341.4V82.8H313.7V98.8ZM341.4 98.8C346.112 98.8 349.545 99.6168 352.022 100.855L359.178 86.5446C353.922 83.9166 347.888 82.8 341.4 82.8V98.8ZM352.022 100.855C354.626 102.158 356.278 103.776 357.346 105.654L371.254 97.7456C368.456 92.824 364.307 89.1091 359.178 86.5446L352.022 100.855ZM357.346 105.654C358.511 107.704 359.2 110.21 359.2 113.4H375.2C375.2 107.79 373.955 102.496 371.254 97.7456L357.346 105.654ZM340.1 130.2C344.463 130.2 349.27 129.189 352.935 125.676L341.865 114.124C342.077 113.92 342.193 113.925 341.971 113.995C341.715 114.075 341.134 114.2 340.1 114.2V130.2ZM352.935 125.676C356.501 122.259 357.8 117.772 357.8 113.4H341.8C341.8 114.049 341.706 114.324 341.695 114.354C341.691 114.367 341.701 114.335 341.738 114.278C341.776 114.22 341.821 114.166 341.865 114.124L352.935 125.676ZM357.8 113.4C357.8 109.028 356.501 104.541 352.935 101.124L341.865 112.676C341.821 112.634 341.776 112.58 341.738 112.522C341.701 112.465 341.691 112.433 341.695 112.446C341.706 112.476 341.8 112.751 341.8 113.4H357.8ZM352.935 101.124C349.27 97.6113 344.463 96.6 340.1 96.6V112.6C341.134 112.6 341.715 112.725 341.971 112.805C342.193 112.875 342.077 112.88 341.865 112.676L352.935 101.124ZM340.1 96.6H330.8V112.6H340.1V96.6ZM322.8 104.6V122.2H338.8V104.6H322.8ZM330.8 130.2H340.1V114.2H330.8V130.2ZM433.102 105.2L440.464 108.331C441.515 105.86 441.256 103.026 439.775 100.787C438.294 98.5471 435.788 97.2 433.102 97.2V105.2ZM398.102 187.5V195.5C401.311 195.5 404.209 193.583 405.464 190.631L398.102 187.5ZM379.702 187.5L372.409 184.213C371.293 186.688 371.509 189.561 372.983 191.842C374.457 194.123 376.987 195.5 379.702 195.5V187.5ZM392.502 159.1L399.796 162.387C400.709 160.36 400.738 158.044 399.875 155.995L392.502 159.1ZM369.802 105.2V97.2C367.122 97.2 364.62 98.5422 363.137 100.775C361.655 103.008 361.389 105.835 362.43 108.305L369.802 105.2ZM388.902 105.2L396.406 102.426C395.245 99.2855 392.251 97.2 388.902 97.2V105.2ZM401.802 140.1L394.299 142.874C395.461 146.018 398.46 148.104 401.812 148.1C405.165 148.096 408.159 146.002 409.313 142.855L401.802 140.1ZM414.602 105.2V97.2C411.246 97.2 408.247 99.2946 407.092 102.445L414.602 105.2ZM425.74 102.069L390.74 184.369L405.464 190.631L440.464 108.331L425.74 102.069ZM398.102 179.5H379.702V195.5H398.102V179.5ZM386.996 190.787L399.796 162.387L385.209 155.813L372.409 184.213L386.996 190.787ZM399.875 155.995L377.175 102.095L362.43 108.305L385.13 162.205L399.875 155.995ZM369.802 113.2H388.902V97.2H369.802V113.2ZM381.399 107.974L394.299 142.874L409.306 137.326L396.406 102.426L381.399 107.974ZM409.313 142.855L422.113 107.955L407.092 102.445L394.292 137.345L409.313 142.855ZM414.602 113.2H433.102V97.2H414.602V113.2ZM470.386 146.5H478.386C478.386 142.082 474.804 138.5 470.386 138.5V146.5ZM470.386 161V169C474.804 169 478.386 165.418 478.386 161H470.386ZM447.186 156.5L441.885 162.492C441.907 162.511 441.929 162.53 441.951 162.549L447.186 156.5ZM441.986 119.4H449.986C449.986 114.982 446.404 111.4 441.986 111.4V119.4ZM435.186 119.4H427.186C427.186 123.818 430.768 127.4 435.186 127.4V119.4ZM435.186 105.2V97.2C430.768 97.2 427.186 100.782 427.186 105.2H435.186ZM441.986 105.2V113.2C446.404 113.2 449.986 109.618 449.986 105.2H441.986ZM441.986 91.6V83.6C437.568 83.6 433.986 87.1817 433.986 91.6H441.986ZM459.086 91.6H467.086C467.086 87.1817 463.504 83.6 459.086 83.6V91.6ZM459.086 105.2H451.086C451.086 109.618 454.668 113.2 459.086 113.2V105.2ZM470.286 105.2H478.286C478.286 100.782 474.704 97.2 470.286 97.2V105.2ZM470.286 119.4V127.4C474.704 127.4 478.286 123.818 478.286 119.4H470.286ZM459.086 119.4V111.4C454.668 111.4 451.086 114.982 451.086 119.4H459.086ZM460.286 145.4L454.88 151.297V151.297L460.286 145.4ZM462.386 146.5V161H478.386V146.5H462.386ZM470.386 153H461.686V169H470.386V153ZM461.686 153C456.727 153 453.99 151.808 452.421 150.451L441.951 162.549C447.315 167.192 454.245 169 461.686 169V153ZM452.487 150.508C451.428 149.571 449.986 147.297 449.986 141.6H433.986C433.986 149.637 436.011 157.295 441.885 162.492L452.487 150.508ZM449.986 141.6V119.4H433.986V141.6H449.986ZM441.986 111.4H435.186V127.4H441.986V111.4ZM443.186 119.4V105.2H427.186V119.4H443.186ZM435.186 113.2H441.986V97.2H435.186V113.2ZM449.986 105.2V91.6H433.986V105.2H449.986ZM441.986 99.6H459.086V83.6H441.986V99.6ZM451.086 91.6V105.2H467.086V91.6H451.086ZM459.086 113.2H470.286V97.2H459.086V113.2ZM462.286 105.2V119.4H478.286V105.2H462.286ZM470.286 111.4H459.086V127.4H470.286V111.4ZM451.086 119.4V141.8H467.086V119.4H451.086ZM451.086 141.8C451.086 144.517 451.716 148.397 454.88 151.297L465.692 139.503C466.449 140.197 466.817 140.945 466.975 141.42C467.118 141.848 467.086 142.03 467.086 141.8H451.086ZM454.88 151.297C457.906 154.071 461.745 154.5 464.286 154.5V138.5C463.837 138.5 463.79 138.452 464.007 138.511C464.238 138.575 464.935 138.809 465.692 139.503L454.88 151.297ZM464.286 154.5H470.386V138.5H464.286V154.5ZM529.611 111L523.683 116.372C523.697 116.388 523.711 116.403 523.725 116.418L529.611 111ZM535.411 161V169C539.829 169 543.411 165.418 543.411 161H535.411ZM518.411 161H510.411C510.411 165.418 513.993 169 518.411 169V161ZM515.511 122L509.669 127.465L515.511 122ZM499.911 122L505.753 127.465L499.911 122ZM497.011 161V169C501.429 169 505.011 165.418 505.011 161H497.011ZM479.911 161H471.911C471.911 165.418 475.493 169 479.911 169V161ZM479.911 87V79C475.493 79 471.911 82.5817 471.911 87H479.911ZM497.011 87H505.011C505.011 82.5817 501.429 79 497.011 79V87ZM497.011 112.7H489.011C489.011 116.189 491.272 119.276 494.599 120.328C497.926 121.38 501.55 120.154 503.556 117.3L497.011 112.7ZM504.111 106.8L500.597 99.6129L504.111 106.8ZM514.211 112.6C518.633 112.6 521.511 113.976 523.683 116.372L535.539 105.628C529.977 99.4908 522.589 96.6 514.211 96.6V112.6ZM523.725 116.418C525.868 118.745 527.411 122.395 527.411 128.4H543.411C543.411 119.605 541.088 111.655 535.497 105.582L523.725 116.418ZM527.411 128.4V161H543.411V128.4H527.411ZM535.411 153H518.411V169H535.411V153ZM526.411 161V130.7H510.411V161H526.411ZM526.411 130.7C526.411 125.602 525.069 120.507 521.353 116.535L509.669 127.465C509.82 127.627 510.411 128.331 510.411 130.7H526.411ZM521.353 116.535C517.669 112.597 512.818 110.9 507.711 110.9V126.9C509.137 126.9 509.486 127.27 509.669 127.465L521.353 116.535ZM507.711 110.9C502.604 110.9 497.753 112.597 494.069 116.535L505.753 127.465C505.936 127.27 506.284 126.9 507.711 126.9V110.9ZM494.069 116.535C490.353 120.507 489.011 125.602 489.011 130.7H505.011C505.011 128.331 505.602 127.627 505.753 127.465L494.069 116.535ZM489.011 130.7V161H505.011V130.7H489.011ZM497.011 153H479.911V169H497.011V153ZM487.911 161V87H471.911V161H487.911ZM479.911 95H497.011V79H479.911V95ZM489.011 87V112.7H505.011V87H489.011ZM503.556 117.3C504.433 116.053 505.704 114.926 507.625 113.987L500.597 99.6129C496.518 101.607 493.056 104.414 490.465 108.1L503.556 117.3ZM507.625 113.987C509.407 113.116 511.55 112.6 514.211 112.6V96.6C509.405 96.6 504.815 97.5511 500.597 99.6129L507.625 113.987ZM557.894 158.3L554.101 165.344C554.116 165.352 554.131 165.36 554.146 165.368L557.894 158.3ZM547.594 148.3L540.641 152.258C540.656 152.284 540.672 152.311 540.687 152.338L547.594 148.3ZM547.694 118L554.6 122.038C554.609 122.022 554.618 122.007 554.627 121.992L547.694 118ZM558.094 107.9L561.842 114.968L558.094 107.9ZM587.694 107.9L583.946 114.968L587.694 107.9ZM598.094 118L591.161 121.992C591.17 122.007 591.178 122.022 591.187 122.038L598.094 118ZM597.994 148.3L591.106 144.23C591.1 144.241 591.094 144.252 591.087 144.262L597.994 148.3ZM587.494 158.3L583.79 151.209C583.775 151.217 583.76 151.225 583.746 151.232L587.494 158.3ZM580.994 143.4L575.258 137.823C575.231 137.851 575.204 137.879 575.178 137.907L580.994 143.4ZM581.094 122.8L575.197 128.206C575.223 128.235 575.25 128.264 575.278 128.293L581.094 122.8ZM564.594 122.8L570.414 128.288C570.44 128.261 570.466 128.233 570.491 128.206L564.594 122.8ZM564.494 143.4L558.514 148.715C558.542 148.745 558.569 148.776 558.597 148.806L564.494 143.4ZM572.694 153.8C568.404 153.8 564.778 152.895 561.642 151.232L554.146 165.368C559.81 168.371 566.051 169.8 572.694 169.8V153.8ZM561.687 151.256C558.674 149.634 556.307 147.353 554.5 144.262L540.687 152.338C543.947 157.913 548.446 162.299 554.101 165.344L561.687 151.256ZM554.546 144.342C552.871 141.399 551.894 137.741 551.894 133.1H535.894C535.894 140.059 537.383 146.534 540.641 152.258L554.546 144.342ZM551.894 133.1C551.894 128.58 552.88 124.98 554.6 122.038L540.787 113.962C537.441 119.687 535.894 126.153 535.894 133.1H551.894ZM554.627 121.992C556.424 118.869 558.799 116.581 561.842 114.968L554.346 100.832C548.589 103.885 544.03 108.331 540.761 114.008L554.627 121.992ZM561.842 114.968C564.978 113.305 568.604 112.4 572.894 112.4V96.4C566.251 96.4 560.01 97.8285 554.346 100.832L561.842 114.968ZM572.894 112.4C577.184 112.4 580.81 113.305 583.946 114.968L591.442 100.832C585.778 97.8285 579.537 96.4 572.894 96.4V112.4ZM583.946 114.968C586.989 116.581 589.363 118.869 591.161 121.992L605.027 114.008C601.758 108.331 597.199 103.885 591.442 100.832L583.946 114.968ZM591.187 122.038C592.908 124.98 593.894 128.58 593.894 133.1H609.894C609.894 126.153 608.347 119.687 605 113.962L591.187 122.038ZM593.894 133.1C593.894 137.58 592.892 141.208 591.106 144.23L604.881 152.37C608.295 146.592 609.894 140.087 609.894 133.1H593.894ZM591.087 144.262C589.316 147.292 586.929 149.569 583.79 151.209L591.198 165.391C596.992 162.364 601.604 157.975 604.9 152.338L591.087 144.262ZM583.746 151.232C580.61 152.895 576.984 153.8 572.694 153.8V169.8C579.337 169.8 585.578 168.371 591.242 165.368L583.746 151.232ZM572.694 155C578.188 155 583.05 152.874 586.81 148.893L575.178 137.907C574.404 138.726 573.733 139 572.694 139V155ZM586.73 148.977C590.947 144.638 592.494 138.933 592.494 133.1H576.494C576.494 136.2 575.707 137.362 575.258 137.823L586.73 148.977ZM592.494 133.1C592.494 127.325 591.013 121.652 586.91 117.307L575.278 128.293C575.708 128.748 576.494 129.941 576.494 133.1H592.494ZM586.991 117.394C583.27 113.335 578.394 111.2 572.894 111.2V127.2C573.927 127.2 574.518 127.465 575.197 128.206L586.991 117.394ZM572.894 111.2C567.379 111.2 562.452 113.297 558.697 117.394L570.491 128.206C571.135 127.503 571.742 127.2 572.894 127.2V111.2ZM558.773 117.312C554.685 121.648 553.294 127.372 553.294 133.1H569.294C569.294 129.761 570.103 128.619 570.414 128.288L558.773 117.312ZM553.294 133.1C553.294 138.76 554.647 144.364 558.514 148.715L570.473 138.085C570.073 137.636 569.294 136.373 569.294 133.1H553.294ZM558.597 148.806C562.318 152.865 567.193 155 572.694 155V139C571.661 139 571.07 138.735 570.391 137.994L558.597 148.806ZM660.566 111L654.638 116.372C654.667 116.404 654.697 116.437 654.726 116.468L660.566 111ZM666.466 161V169C670.884 169 674.466 165.418 674.466 161H666.466ZM649.466 161H641.466C641.466 165.418 645.047 169 649.466 169V161ZM646.566 122L640.723 127.465L646.566 122ZM630.966 122L636.808 127.465L630.966 122ZM628.066 161V169C632.484 169 636.066 165.418 636.066 161H628.066ZM610.966 161H602.966C602.966 165.418 606.547 169 610.966 169V161ZM610.966 105.2V97.2C606.547 97.2 602.966 100.782 602.966 105.2H610.966ZM628.066 105.2H636.066C636.066 100.782 632.484 97.2 628.066 97.2V105.2ZM628.066 112.6H620.066C620.066 116.089 622.327 119.176 625.654 120.228C628.98 121.28 632.605 120.054 634.611 117.2L628.066 112.6ZM635.066 106.8L638.511 114.02C638.556 113.999 638.6 113.977 638.643 113.955L635.066 106.8ZM644.966 112.6C649.577 112.6 652.5 114.013 654.638 116.372L666.494 105.628C660.898 99.4538 653.421 96.6 644.966 96.6V112.6ZM654.726 116.468C656.909 118.798 658.466 122.429 658.466 128.4H674.466C674.466 119.571 672.089 111.602 666.405 105.532L654.726 116.468ZM658.466 128.4V161H674.466V128.4H658.466ZM666.466 153H649.466V169H666.466V153ZM657.466 161V130.7H641.466V161H657.466ZM657.466 130.7C657.466 125.602 656.123 120.507 652.408 116.535L640.723 127.465C640.874 127.627 641.466 128.331 641.466 130.7H657.466ZM652.408 116.535C648.724 112.597 643.872 110.9 638.766 110.9V126.9C640.192 126.9 640.541 127.27 640.723 127.465L652.408 116.535ZM638.766 110.9C633.659 110.9 628.807 112.597 625.123 116.535L636.808 127.465C636.991 127.27 637.339 126.9 638.766 126.9V110.9ZM625.123 116.535C621.408 120.507 620.066 125.602 620.066 130.7H636.066C636.066 128.331 636.657 127.627 636.808 127.465L625.123 116.535ZM620.066 130.7V161H636.066V130.7H620.066ZM628.066 153H610.966V169H628.066V153ZM618.966 161V105.2H602.966V161H618.966ZM610.966 113.2H628.066V97.2H610.966V113.2ZM620.066 105.2V112.6H636.066V105.2H620.066ZM634.611 117.2C635.492 115.946 636.719 114.875 638.511 114.02L631.62 99.5801C627.545 101.525 624.106 104.321 621.52 108L634.611 117.2ZM638.643 113.955C640.34 113.107 642.393 112.6 644.966 112.6V96.6C640.205 96.6 635.657 97.5598 631.488 99.6446L638.643 113.955Z" mask="url(#path-44-outside-1_218_6946)"/></g><defs><clipPath id="clip0_218_6946"><rect width="900" height="254" fill="#fff" rx="24"/></clipPath></defs></svg>